<svg xmlns="http://www.w3.org/2000/svg" xmlns:xlink="http://www.w3.org/1999/xlink" height="480" width="640" xmlns:v="https://vecta.io/nano"><style><![CDATA[.B{fill:none}.C{fill:#cc1900}.D{fill:#fff600}.E{stroke:#fff600}.F{stroke-width:5}.G{fill:#008d00}.H{fill-rule:evenodd}.I{stroke-width:.509}.J{stroke-width:.419}.K{stroke-width:5.247}.L{stroke-width:3.253}]]></style><g class="H"><path fill="#0000bd" d="M0 0h214.4v479.985H0z"/><path d="M425.6 0H640v479.985H425.6z" class="C"/><path d="M214.4 0H425.6v479.985H214.4z" class="D"/></g><g transform="matrix(1.4342 0 0 1.4102 -183.84 -822.43)"><g stroke="#000"><g class="I"><path d="M351.382 644.755c18.615.306 17.327-10.9 24.123-12.013s13.206 4.67 12.963 11.208c.73 7.783-11.566 7.84-12.315 14.32s5.986 8.462 12.963 7.472 11.93-7.615 15.494-10.728c-5.185 2.802-9.427 1.787-9.813-3.2.262-6.543 7.047-8.917 10.255-6.716 2.52-1.98 2.37-2.776 5.142-2.336 1.88 1.1 2.39 1.07 3.503 2.774 1.447-.88 2.05-1.324 4.75-.223 1.676.66 2.795 1.855 3.83 3.668 1.225-.93 3.147-1.276 5.357-.074 1.405.687 3.156 2.686 3.394 4.86 3.3.634 4.43 1.366 5.463 2.974 6.137 8.143-.948 21.865-.557 28.87s6.48 7.472 6.48 7.472c-5.73-3.523-.078-5.946 2.625-6.19 8.662.857 7.204 13.138-2.016 10.98-7.387-1.937 15.15 1.227 14.607 23.422-.543 22.818-12.773 18.327-12.773 18.327s10.447 3.78 8.426 11.252c-2.02 5.05-12.82 8.397-11.902-1.29-3.208 4.183-4.13 5.95-4.118 12.31-.447 8.12.255 11.828 2.664 15.818.576-3.715 3.194-3.874 5.43-3.403 3.153.03 4.907 2.41 3.722 5.49 1.588-.387 3.037.657 3.66 1.915.49 2.32 1.57 3.35-.95 4.23 2.52.44 3.74.757 4.04 4.132.07 2.715-4.903 4.205-10.173 3.325 2.75 1.32 11.67 18.706 10.48 38.68-.825 17.914-33.5 16.318-48.084 15.82s-28.225.3-33.917 4.88c4.378 2.686-.507 11.047-4.23 7.13 0 3.082-3.678 7.845-8.757 4.756.208 5.566-5.542 9.47-10.557 9.47s-10.765-3.905-10.557-9.47c-5.08 3.09-8.757-1.674-8.757-4.756-3.722 3.918-8.607-4.443-4.23-7.13-5.69-4.59-19.324-5.38-33.917-4.88s-47.26 2.094-48.084-15.82c-1.19-19.975 9.225-37.36 11.975-38.68-5.27.88-10.244-.6-10.173-3.325.3-3.375 1.518-3.69 4.04-4.132-2.52-.88-1.438-1.91-.95-4.23.623-1.258 2.072-2.302 3.66-1.915-1.185-3.082.57-5.46 3.722-5.49 2.237-.472 4.855-.312 5.43 3.403 2.41-4 3.11-7.7 2.664-15.818.01-6.358-.9-8.126-4.118-12.31.917 9.687-9.882 6.34-11.902 1.29-2.02-7.472 8.426-11.252 8.426-11.252s-12.23 4.49-12.773-18.327c-.543-22.196 21.994-25.36 14.607-23.422-9.22 2.157-10.678-10.124-2.016-10.98 2.704.243 8.354 2.666 2.625 6.19 0 0 6.09-.467 6.48-7.472s-6.694-20.727-.557-28.87c1.033-1.608 2.173-2.34 5.463-2.974.238-2.174 1.99-4.172 3.394-4.86 2.21-1.203 4.132-.856 5.357.074 1.035-1.812 2.154-3.007 3.83-3.668 2.7-1.1 3.304-.657 4.75.223 1.112-1.704 1.624-1.673 3.503-2.774 2.77-.44 2.62.354 5.142 2.336 3.208-2.2 9.993.173 10.255 6.716-.386 4.987-4.628 6.002-9.813 3.2 3.565 3.113 8.517 9.74 15.494 10.728s13.71-.99 12.963-7.472-13.044-6.538-12.315-14.32c-.244-6.538 6.167-12.32 12.963-11.208s5.508 12.32 24.204 12.013z" fill="#cba323" class="H"/><g class="B"><path d="M334.994 665.845c-.224 6.716-12.167 5.545-20.052 5.182-10.247-.46-30.202-17.23-17.23-26.134m-37.298 59.43c-6.416 6.605 11.168 5.047 3.666-3.522-3.063-3.298-16.04 7.045-16.04 18.492s4.125 16.73 6.416 17.17 5.958-1.32 5.958-3.082c0-2.2-1.833-5.724-4.583-5.284-4.583 0-2.292 3.963 0 3.963"/><path d="M259.85 705.023s-9.518 3.705-9.518 14.712 2.75 10.567 2.75 10.567m7.79-33.024s9.625-1.32 9.166 7.044-3.667 8.806-8.708 8.365-2.292-6.164-2.292-6.164m-1.832 33.022s7.333-.44 6.875-7.925-5.958-7.925-9.166-7.485-4.18 2.17-3.208 4.816m3.206 19.4s1.532-3.05 6.573-3.05 7.4 11.363 6.93 23.7-13.046 22.95-15.796 22.068-4.125-1.32-1.833-3.082"/><path d="M263.353 776.8l-8.898 14.272m-3.608-5.177c0 .156 1.967-.413 3.342.467s1.7 2.175 1.7 2.175"/></g></g><path d="M253.92 779.954s1.603-.487 3.692.144 2.02 2.052 2.02 2.052" class="B J"/><g class="I B"><path d="M262.695 810.745c4.77 2.38 9.452-9.416.26-9.994-6.574-.258-11.32 8.7-10.405 13.103 2.503 14.98 4.065 25.002 19.684 26.94 11.916.88 30.537-1.907 42.156-.57 11.46 1.284 24.1 5.337 28.693 9.74s7.44 4.447 7.44 8.85-6.545 6.662-9.138 4.016"/><path d="M339.8 864.955c1.676-1.1 5.666-7.638 1.838-11.523-5.914-5.76-10.185-8.032-13.1-8.966m2.576 15.39c2.27-1.32 2.602-5.72.23-9.077s-8.54-6.045-20.66-7.03c-9.18-.74-34.193 3.158-43.36.516-12.868-4.757-20.96-12.77-18.985-32.68.592-7.7 4.64-12.888 12.564-13.875 8.897-.053 11.215 5.5 11.215 12.554 0 3.62-9.855 7.06-11.642 3.63-2.767-4.807-3.977-9.143 6.182-11.445m60.51 50.418s3.8 2.126 2.884 3.887-3.37 1-1.75-.86m-39.04-210.697s-2.592 2.5-1.296 8.406 3.9 5.604 3.9 5.604M280.5 648.618c-.324.623-3.778 4.434-1.833 8.48s3.486 4.853 3.486 4.853m-10.403-8.35s-2.8 3.972-3.335 11.052 3.032 16.827 2.932 20.454c-.226 7.707-9.347 11.532-9.347 11.532m-3.538 42.888c.648 0 13.287-11.208 13.287 28.643-.972 23.038-14.907 25.218-14.907 25.218m3.308 1.653c5.118-1.247 15.735 4.1 11.916 13.2"/><path d="M261.428 791.3c3.285.294 5.963 2.582 7.185 5.737m-14.676-82.415s3.9 5.293 9.722 5.293 7.778-5.915 7.778-5.915m-18.15 3.423s3.565 6.227 9.722 6.538 8.426-4.047 8.426-4.047m-5.182 6.846s4.537 1.868 4.537 7.16-4.213 4.047-4.213 4.047m101.11-72.122c.224 6.716 12.167 5.545 20.052 5.182 10.247-.46 30.202-17.23 17.23-26.134m37.298 59.43c6.416 6.605-11.168 5.047-3.666-3.522 3.063-3.298 16.04 7.045 16.04 18.492s-4.125 16.73-6.416 17.17-5.958-1.32-5.958-3.082c0-2.2 1.833-5.724 4.583-5.284 4.583 0 2.292 3.963 0 3.963"/><path d="M442.83 705.023s9.518 3.705 9.518 14.712-2.75 10.567-2.75 10.567m-7.79-33.024s-9.625-1.32-9.166 7.044 3.667 8.806 8.708 8.365 2.292-6.164 2.292-6.164m1.832 33.022s-7.333-.44-6.875-7.925 5.958-7.925 9.166-7.485 4.18 2.17 3.208 4.816m-3.206 19.4s-1.532-3.05-6.573-3.05-7.4 11.363-6.93 23.7 13.046 22.95 15.796 22.068 4.125-1.32 1.833-3.082"/><path d="M439.327 776.8l8.898 14.272m3.608-5.047c0 .156-1.967-.413-3.342.467s-1.7 2.175-1.7 2.175"/></g><path d="M448.76 779.954s-1.603-.487-3.692.144-2.02 2.052-2.02 2.052" class="B J"/><g class="I B"><path d="M438.924 814.317c.916 0-6.014-7.433.268-8.936 7.896-1.448 11.19 6.19 10.272 10.59-1.974 10.75-6.577 23.945-20.61 24.825-11.916.88-30.537-1.907-42.156-.57-11.46 1.284-24.1 5.337-28.693 9.74s-7.44 4.447-7.44 8.85 6.545 6.662 9.138 4.016"/><path d="M361.3 864.955c-1.676-1.1-5.666-7.638-1.838-11.523 5.914-5.76 10.185-8.032 13.1-8.966m-2.586 15.39c-2.27-1.32-2.602-5.72-.23-9.077s8.54-6.045 20.66-7.03c9.18-.74 34.193 3.158 43.36.516 17.1-6.872 20.827-15.943 20.44-30.564-.592-7.7-4.77-13.68-12.697-14.67-8.897-.053-10.422 4.452-10.422 11.496 0 3.62 3.508 9.616 8.304 8.736 4.796-1.192 8.532-9.353.43-13.712m-65.898 47.316s-3.8 2.126-2.884 3.887 3.37 1 1.75-.86m40.63-210.697s2.592 2.5 1.296 8.406-3.9 5.604-3.9 5.604"/><path d="M422.17 648.618c.324.623 3.778 4.434 1.833 8.48s-3.486 4.853-3.486 4.853m10.403-8.35s2.8 3.972 3.335 11.052-3.032 16.827-2.932 20.454c.226 7.707 9.347 11.532 9.347 11.532m3.538 42.888c-.648 0-13.287-11.208-13.287 28.643.972 23.038 14.907 25.218 14.907 25.218m-.798 3.246c-6.308-5.346-18.38 4.903-13.9 14.4"/><path d="M442.712 792.23c-3.285.294-6.756 2.317-7.978 5.473m14.01-83.08s-3.9 5.293-9.722 5.293-7.778-5.915-7.778-5.915m18.15 3.423s-3.565 6.227-9.722 6.538-8.426-4.047-8.426-4.047m5.182 6.846s-4.537 1.868-4.537 7.16 4.213 4.047 4.213 4.047M333.66 653.445c.162-.156-.648-3.425 3.24-3.27s2.43 3.58 5.67 4.825c3.08.78 8.588 1.557 8.77 1.557s5.7-.78 8.77-1.557c3.24-1.245 1.783-4.67 5.67-4.825s3.08 3.113 3.24 3.27m-27.47 13.447c-.114-1.54-.486-3.57-2.675-3.727-4.097-.13-7.34 7.705 1.73 7.76 6.64.042 6.694-12.1.313-12.277-9.166-.25-10.427 5.007-10.277 6.037 2.32-18.845-12.94-15.035-12.212-22.35.08-3.966 4.223-4.42 8.75-3.686 6.796 1.047 5.508 11.58 24.164 11.292 18.656.288 17.368-10.246 24.164-11.292 4.527-.735 8.67-.28 8.75 3.686.73 7.316-14.53 3.505-12.212 22.35.15-1.03-1.1-6.286-10.277-6.037-6.38.178-6.326 12.318.313 12.277 9.07-.055 5.827-7.9 1.73-7.76-2.188.156-2.56 2.186-2.675 3.727"/></g></g><path d="M413.604 834.947l.046.285-4.38 1.098-.046-.285.278-.07c.244-.06.43-.164.56-.3.095-.1.157-.24.187-.43.025-.135-.004-.463-.088-.985l-1.1-6.854c-.086-.532-.163-.86-.23-.982s-.178-.213-.334-.275c-.153-.07-.346-.074-.58-.015l-.278.07-.046-.283 4.38-1.098.046.283-.278.07c-.243.06-.43.164-.56.3-.095.1-.16.243-.193.433-.026.133.005.463.1.985l1.1 6.854c.086.532.162.86.23.98s.183.216.336.284c.156.062.35.064.586.005l.278-.07zm-6.464-8.73l.298 2.852-.225.036c-.202-.636-.4-1.085-.6-1.342a1.73 1.73 0 0 0-.741-.585c-.17-.067-.45-.07-.847-.005l-.63.102.848 8.13c.056.54.114.872.174.998a.74.74 0 0 0 .319.313c.15.075.348.094.6.054l.28-.045.03.288-4.437.716-.03-.288.282-.045c.245-.04.438-.126.577-.26a.82.82 0 0 0 .217-.414c.033-.132.02-.462-.034-1l-.848-8.13-.612.1c-.57.092-.97.3-1.197.652-.32.478-.486 1.113-.5 1.906l-.237.038-.298-2.852 7.613-1.228zm-31.503 4.362l.282 4.35.246-.025c.376-.038.68-.138.9-.303s.415-.42.556-.77c.147-.35.226-.812.24-1.385l.22-.022.345 5.32-.22.022c-.144-.996-.405-1.637-.782-1.918a1.68 1.68 0 0 0-1.231-.364l-.246.025.2 3.243c.035.54.08.878.134 1.008s.16.24.306.332c.15.084.343.115.58.1l.283-.028.02.3-4.454.447-.02-.3.282-.028c.248-.025.442-.1.587-.224.105-.084.18-.217.227-.4.038-.13.04-.46.006-1l-.452-6.97c-.035-.54-.08-.878-.136-1a.67.67 0 0 0-.305-.322c-.145-.1-.337-.125-.576-.1l-.282.028-.02-.288 7.186-.72.197 3.04-.257.026c-.105-.707-.3-1.222-.555-1.54s-.624-.526-1.1-.62c-.256-.053-.724-.045-1.402.023l-.8.08zm-16.337.164v2.876h-.227c-.134-.663-.284-1.14-.447-1.426a1.88 1.88 0 0 0-.674-.698c-.16-.094-.44-.14-.84-.14h-.636v8.198c0 .543.023.883.07 1.018s.145.257.284.36.336.148.58.148h.283v.3h-4.474v-.3h.284c.247 0 .447-.055.6-.165.1-.074.195-.198.258-.376.046-.126.07-.455.07-.987v-8.198h-.617c-.575 0-.994.15-1.254.455-.366.423-.597 1.026-.694 1.8h-.24v-2.876h7.677zm-8.837 10.34v.3h-4.468v-.3h.283c.248 0 .447-.055.6-.165.1-.074.194-.198.252-.376.046-.126.07-.455.07-.987v-6.992c0-.543-.024-.883-.07-1.02a.7.7 0 0 0-.283-.352c-.14-.106-.328-.158-.568-.158h-.283v-.3h4.468v.3h-.284c-.247 0-.447.055-.598.165-.1.074-.196.2-.26.377-.046.124-.07.455-.07.987v6.992c0 .543.023.883.07 1.018s.145.257.284.36.335.148.573.148h.284zm-11.233-10.34l4.216 6.6v-4.57c0-.637-.074-1.067-.222-1.292-.2-.304-.54-.45-1.014-.44v-.3h2.823v.3c-.36.058-.604.134-.73.227-.122.1-.218.238-.3.447s-.1.556-.1 1.058v8.85h-.214l-5.78-8.85v6.756c0 .6.1 1.025.333 1.24a1.1 1.1 0 0 0 .776.321h.202v.3h-3.032v-.3c.47-.005.798-.126.983-.36s.278-.635.278-1.2v-7.5l-.183-.282c-.18-.282-.34-.468-.48-.556s-.34-.14-.6-.15v-.3h3.032zm-3.557-.697l-.01.3c-.313.047-.597.24-.85.577-.185.253-.467.853-.848 1.8l-3.207 7.964-.207-.01-2.65-8.592-.652-1.83c-.1-.182-.332-.306-.663-.37l.01-.3 4.094.208-.01.3-.14-.007c-.37-.02-.623.026-.76.134-.1.074-.15.186-.156.337-.003.094.01.207.04.34.03.127.13.475.306 1.044l1.646 5.378 1.843-4.62.408-1.124c.053-.2.082-.355.086-.5a.84.84 0 0 0-.087-.421.67.67 0 0 0-.287-.289c-.178-.097-.416-.155-.714-.17l.01-.3 2.802.142zm-15.078-1.333l-.1 3.54-.26-.02c-.08-.896-.344-1.63-.796-2.202s-.95-.888-1.503-.93c-.427-.032-.775.087-1.04.356a1.4 1.4 0 0 0-.418.95 1.47 1.47 0 0 0 .102.636c.1.253.293.5.55.77.2.187.63.525 1.32 1.016.97.684 1.615 1.3 1.937 1.88s.46 1.2.427 1.9c-.042.887-.358 1.63-.946 2.23s-1.304.86-2.16.797c-.268-.02-.52-.072-.756-.158s-.53-.235-.88-.45c-.197-.12-.36-.183-.5-.193-.1-.008-.227.035-.353.13s-.233.247-.32.456l-.232-.017.192-4.006.232.017c.13 1.14.444 2.027.94 2.66s1.054.965 1.662 1c.47.035.852-.096 1.143-.394.297-.297.455-.658.475-1.08.012-.25-.03-.497-.128-.74a2.21 2.21 0 0 0-.452-.701c-.2-.23-.58-.535-1.12-.915-.752-.533-1.3-.977-1.615-1.336a3.8 3.8 0 0 1-.733-1.177c-.16-.426-.23-.887-.205-1.382.04-.845.325-1.546.853-2.104a2.3 2.3 0 0 1 1.929-.752 2.64 2.64 0 0 1 .799.185c.195.077.428.213.7.404.278.188.473.287.586.295s.197-.027.264-.106.136-.275.205-.6l.2.014zm-5.842-.344l-.027.287c-.315.018-.6.184-.884.495-.2.235-.518.807-.954 1.716l-3.68 7.642-.206-.03-2.124-8.815-.54-1.886c-.1-.192-.313-.336-.638-.432l.027-.287 4.07.6-.027.287-.138-.02c-.368-.053-.623-.032-.767.062-.104.064-.162.172-.176.322a1.32 1.32 0 0 0 .02.342c.02.13.103.486.242 1.07l1.317 5.517 2.116-4.436.476-1.082a2.09 2.09 0 0 0 .114-.48c.015-.157-.006-.298-.062-.428a.7.7 0 0 0-.268-.315c-.17-.114-.405-.193-.7-.236l.027-.287 2.785.404zm-9.71-.88l-.332 2.846-.225-.04c-.057-.68-.15-1.18-.278-1.5a2.04 2.04 0 0 0-.587-.811c-.147-.12-.418-.217-.813-.3l-.63-.114-.946 8.114c-.063.537-.08.878-.05 1.02s.114.28.24.408.315.207.557.25l.28.05-.033.287-4.428-.798.033-.287.28.05c.246.044.45.026.612-.056.116-.053.217-.16.3-.326.06-.116.122-.438.183-.964l.946-8.114-.612-.1c-.57-.103-1-.028-1.294.226-.4.353-.708.9-.894 1.668l-.237-.043.332-2.846 7.597 1.37zm-20.297 6.672l-.055.282-4.343-1.308.055-.282.276.083c.24.072.445.078.612.015.12-.04.226-.136.317-.3.068-.1.153-.422.254-.94l1.324-6.795c.103-.528.144-.865.126-1s-.1-.287-.2-.425c-.115-.143-.3-.25-.52-.32l-.276-.083.055-.28 4.343 1.308-.055.28-.276-.083c-.24-.072-.445-.078-.612-.015-.12.04-.228.136-.322.3-.07.107-.154.422-.255.94l-1.324 6.795c-.103.528-.144.865-.125 1s.1.292.207.434.297.242.53.312l.276.083zm-3.087-11.107l-.06.28c-.315-.038-.624.075-.932.335-.224.198-.604.708-1.138 1.532l-4.5 6.922-.2-.066-1.105-9.1-.32-1.96c-.077-.208-.272-.388-.583-.54l.06-.28 3.962 1.297-.06.28-.134-.044c-.358-.117-.613-.14-.767-.072-.1.046-.18.142-.2.288-.02.1-.026.205-.02.342s.047.5.118 1.1l.68 5.693 2.597-4.022.594-.988a2.02 2.02 0 0 0 .168-.456.87.87 0 0 0-.013-.434.77.77 0 0 0-.23-.36c-.157-.143-.38-.262-.667-.357l.06-.28 2.713.888zm135.855.84c1.343-.28 2.5.034 3.44.94s1.513 2.14 1.676 3.705c.14 1.337-.052 2.564-.575 3.68-.694 1.482-1.8 2.346-3.32 2.6s-2.77-.207-3.738-1.358c-.765-.908-1.22-2.06-1.365-3.454-.163-1.565.127-2.937.873-4.116.75-1.185 1.752-1.85 3-1.988zm.127.485c-.774.125-1.313.712-1.614 1.763-.245.86-.3 2.048-.13 3.562.188 1.797.58 3.086 1.18 3.863.417.545.944.765 1.58.662a1.66 1.66 0 0 0 1.035-.562c.332-.4.563-.965.7-1.723.127-.764.13-1.73.008-2.903-.145-1.393-.358-2.417-.638-3.073s-.598-1.108-.953-1.34a1.58 1.58 0 0 0-1.157-.25zm-32.76 4.506c1.353-.2 2.486.184 3.4 1.146s1.428 2.228 1.53 3.8c.087 1.344-.15 2.558-.718 3.642-.75 1.44-1.9 2.235-3.418 2.388s-2.76-.374-3.68-1.582c-.728-.954-1.138-2.13-1.228-3.532-.102-1.573.242-2.926 1.033-4.058.795-1.14 1.822-1.74 3.082-1.804zm.107.492c-.778.078-1.34.632-1.68 1.664-.278.845-.368 2.028-.27 3.55.117 1.807.46 3.117 1.027 3.93.395.57.913.82 1.554.757.43-.043.783-.2 1.054-.5.347-.37.6-.93.758-1.68s.198-1.722.122-2.9c-.1-1.4-.263-2.436-.518-3.108s-.554-1.143-.9-1.395a1.59 1.59 0 0 0-1.146-.318zm8.84 4.327l.308 2.953c.06.57.124.927.194 1.068a.68.68 0 0 0 .336.302c.15.065.42.066.807.003l.03.288-4.337.7-.03-.288c.4-.063.65-.15.78-.26.132-.117.218-.252.256-.405.044-.154.035-.517-.024-1.087l-.714-6.84c-.06-.57-.126-.923-.2-1.058a.63.63 0 0 0-.331-.311c-.15-.065-.42-.067-.807-.005l-.03-.287 3.937-.635c1.025-.165 1.784-.2 2.278-.1s.914.364 1.265.8.556.954.623 1.6c.08.777-.077 1.456-.473 2.036-.255.367-.63.674-1.13.918l2.4 3.24c.315.417.535.674.66.77.187.133.395.2.622.168l.03.288-2.67.43-3.233-4.363-.556.1zm-.54-5.17l.482 4.618.356-.057c.58-.093 1.006-.228 1.28-.405s.474-.456.6-.824.168-.838.1-1.392c-.084-.804-.298-1.372-.642-1.707s-.845-.45-1.516-.34l-.67.108zm32.97-.62l.596 2.884c.115.557.214.9.297 1.03.085.123.207.206.363.248s.423.001.802-.12l.058.28-4.236 1.354-.058-.28c.382-.122.632-.248.75-.376.12-.136.2-.283.214-.44s-.016-.518-.13-1.075l-1.38-6.68c-.115-.557-.215-.897-.302-1.02a.59.59 0 0 0-.36-.258c-.157-.04-.424-.003-.802.118l-.058-.28 3.845-1.23c1-.32 1.75-.47 2.25-.444s.944.222 1.333.593.647.862.775 1.484c.157.76.067 1.456-.27 2.093-.215.403-.56.764-1.03 1.082l2.7 2.85c.353.366.596.588.73.665.2.103.4.127.634.072l.058.28-2.606.833-3.637-3.838-.543.173zm-1.043-5.05l.932 4.5.348-.1c.566-.18.975-.38 1.23-.596s.426-.524.515-.9c.093-.4.083-.857-.03-1.398-.162-.785-.43-1.317-.804-1.596s-.884-.317-1.538-.108l-.653.2zm-134.3 7.767l-.36 2.943c-.07.57-.087.933-.05 1.093a.77.77 0 0 0 .256.406c.13.116.4.208.776.28l-.035.287-4.324-.82.035-.287c.4.074.66.08.807.02a.68.68 0 0 0 .337-.3c.072-.132.15-.485.218-1.053l.836-6.818c.07-.57.084-.93.044-1.085a.76.76 0 0 0-.25-.413c-.13-.113-.4-.2-.775-.282l.035-.286 3.926.745c1.022.194 1.76.423 2.2.688s.8.664 1.04 1.196.323 1.1.245 1.743c-.095.775-.398 1.372-.9 1.794-.326.266-.757.43-1.3.493l1.595 3.942c.2.5.364.832.46.967.152.192.338.317.56.375l-.035.287-2.66-.505-2.135-5.304-.555-.105zm.632-5.153l-.565 4.603.355.067c.577.1 1.017.127 1.32.05s.556-.275.76-.585.346-.748.414-1.3c.098-.8.02-1.42-.237-1.86s-.712-.722-1.38-.85l-.667-.126zm73.252 12.82l-3.015.158-.324 1.053c-.107.35-.155.637-.147.862.01.298.113.512.3.644.117.077.397.125.843.143l.01.3-2.84.15-.01-.3c.304-.074.55-.243.74-.5.2-.272.414-.82.676-1.645l2.767-8.632.12-.006 3.374 8.545c.322.8.58 1.316.777 1.52.148.154.353.24.613.25l.01.3-4.13.217-.01-.3.17-.01c.33-.017.562-.087.693-.2.1-.088.132-.2.126-.367a1.15 1.15 0 0 0-.047-.288c-.01-.046-.08-.24-.2-.578l-.498-1.3zm-.233-.567l-1.395-3.6-1.186 3.726 2.58-.135z"/><g transform="matrix(.38925 0 0 .37394 196.25 536.23)" class="H"><path d="M407.48 556.3h177.17v177.17H407.48z" class="D"/><path d="M432.8 379.13h25.3V556.3h-25.3zm50.6 0h25.3V556.3h-25.3zm50.63 0h25.3V556.3h-25.3z" class="C"/><path d="M407.48 379.13h25.3V556.3h-25.3zm50.62 0h25.3V556.3h-25.3zm50.62 0h25.3V556.3h-25.3zm50.62 0h25.3V556.3h-25.3z" class="D"/><path d="M271.65 574.02h19.685v159.45H271.65zm39.37 0h19.685v159.45H311.02zm39.38 0h19.685v159.45H350.4z" class="C"/><path d="M251.97 574.02h19.685v159.45H251.97zm39.37 0h19.685v159.45H291.34zm39.36 0h19.685v159.45H330.7zm39.38 0h19.685v159.45H370.08z" class="D"/><path d="M232.28 574.02h19.685v159.45H232.28z" class="C"/><path d="M212.6 574.02h19.685v159.45H212.6z" class="D"/><path d="M212.6 379.13h177.17V556.3H212.6z" class="C"/><path d="M374.043 431.2c3.632-1.03 4.163-6.148 4.72-10.364 1.11-8.43-5.638-16.282-15.064-17.524s-17.87 3.78-18.982 12.21l-7.34 2.967 10.225 1.347-11.03 4.762 13.66 1.8-110.12 97.37 6.026 7 110.12-97.37c2.908-2.57.805-6.11-2.404-9.015-3.786-3.428-2.816-4.104-2.32-7.876.724-5.495 5.703-7.842 11.36-7.096s9.705 5.455 9.038 10.514c-.333 2.53-1.314 5.505-3.856 6.083-4.182 2.18 1.843 9.2 5.968 5.18z" class="D"/><path d="M194.88 361.42v336.6c0 35.434 16.978 53.15 50.934 53.15h118.85c33.957 0 33.957 35.433 33.957 35.433s0-35.433 33.956-35.433h118.85c33.957 0 50.935-17.716 50.935-53.15v-336.6h-407.48zm17.716 17.717v177.16h177.17v-177.16h-177.17zm194.88 0v177.16h177.17v-177.16h-177.17zm-194.88 194.88v106.3c0 35.434 16.978 53.15 50.934 53.15h126.23v-159.45H212.6zm372.05 0v106.3c0 35.434-16.977 53.15-50.934 53.15H407.48v-159.45h177.16z" stroke="#000" stroke-width="1pt" fill="#cba323"/><path d="M301.174 396.853l-35.433 37.964 10.903 68.336h49.06l10.903-68.336-35.434-37.964z" fill="#fff"/><path d="M298.458 411.02l-27.256 28.346 10.903 56.693h16.353v-85.036zm5.452 0v85.036h16.354l10.902-56.693-27.256-28.346z" class="D"/><g fill="#fffbff"><path d="M310.04 503.148h-8.858s4.43 14.677 8.858 14.677c17.716 0 53.24-21.406 53.15-14.677 0 14.677-8.858 7.338-8.858 14.677s17.716 0 17.716-7.34 0-14.677-8.858-14.677-34.614 14.775-44.29 14.677c-8.86 0-8.86-7.338-8.86-7.338z"/><path d="M292.32 503.148h8.858s-4.43 14.677-8.858 14.677c-17.716 0-53.24-21.406-53.15-14.677 0 14.677 8.858 7.338 8.858 14.677s-17.716 0-17.716-7.34 0-14.677 8.858-14.677 34.614 14.775 44.29 14.677c8.86 0 8.86-7.338 8.86-7.338z"/></g><g transform="matrix(.38048 0 0 .3217 515.51 448.82)"><g class="C E"><use xlink:href="#B" class="F"/><use xlink:href="#C" class="K"/></g><use xlink:href="#D" class="G"/><g class="C E F"><use xlink:href="#E"/><use xlink:href="#F"/></g><g class="G"><use xlink:href="#G"/><use xlink:href="#G" x="141.73"/><use xlink:href="#H"/><use xlink:href="#I"/><path d="M-150.99 475.02l42.184-32.333 10.778 14.062-42.184 32.333z"/><use xlink:href="#J"/></g><use xlink:href="#K" class="C E L"/></g><g transform="matrix(.38048 0 0 .3217 515.51 519.69)"><g class="C E"><use xlink:href="#B" class="F"/><use xlink:href="#C" class="K"/></g><use xlink:href="#D" class="G"/><g class="C E F"><use xlink:href="#E"/><use xlink:href="#F"/></g><g class="G"><use xlink:href="#G"/><use xlink:href="#G" x="141.73"/><use xlink:href="#H"/><use xlink:href="#I"/><path d="M-150.99 475.02l42.184-32.333 10.778 14.062-42.184 32.333z"/><use xlink:href="#J"/></g><use xlink:href="#K" class="C E L"/></g></g></g><defs ><path id="B" d="M18.986 491.113c-7.427 34.646 20.38 41.87 6.183 55.682l-45.787 44.542-17.323-3.713 28.463-48.256c9.488-16.085 31.025-60.208 28.463-48.255z"/><path id="C" d="M49.864 528.267c0 1.835 1.754 15.96 0 17.55s-7.017-9.35-10.153-8.147-5.95 12.09-10.095 12.764-9.624-8.864-14.406-8.864-9.34 9.54-13.485 8.867-7.88-11.56-11.015-12.764-8.4 9.738-10.153 8.147 0-15.715 0-17.55c0-7.342 15.524-13.3 34.653-13.3s34.653 5.96 34.653 13.3z"/><path id="D" d="M-147.798 405.453c10.263 5.925 9.43 15.806 5.935 17.74s-8.33-4.81-18.593-10.733-22.087-8.8-18.593-10.733 20.988-2.2 31.252 3.726z"/><path id="E" d="M-117.045 504.338l-44.917 28.415 28.415 44.917 14.973-9.472-18.943-29.944 29.944-18.943-9.47-14.972z"/><path id="F" d="M68.36 489.084c0 35.433 28.704 36.668 17.717 53.15l-35.433 53.15H32.928l17.716-53.15c5.905-17.716-17.716-35.433-70.866 0-12.224 0-70.866-8.963-70.866 0v53.15h-17.716v-53.15c0-6.94-35.433-53.15-35.433-70.866 0-12.224-53.15 0-53.15-17.716 0-8.86 35.433-17.717 35.433-35.433s35.433 0 53.15 0c0 17.716-17.717 35.433 17.716 35.433 24.45 0 177.17 0 177.17 17.716s-17.717 5.493-17.717 17.717z"/><path id="G" d="M-102.912 595.378c9.617-.067 13.08 8.885 11.426 12.318s-7.806.054-17.423.12-19.078 3.554-17.423.12 13.803-12.493 23.42-12.56z"/><path id="H" d="M-125.3 570.63c7.798-5.63 15.81-.343 16.45 3.414s-6.33 4.57-14.128 10.198-13.486 13.955-14.128 10.198 4.006-18.18 11.804-23.8z"/><path id="I" d="M-30.11 580.72c9.612-.324 13.314 8.532 11.75 12.008s-7.802.263-17.414.587-18.977 4.063-17.414.587 13.464-12.858 23.076-13.182z"/><path id="J" d="M-133.474 497.938c0 4.892-2.41 8.858-5.38 8.858s-5.38-3.966-5.38-8.858 2.41-8.858 5.38-8.858 5.38 3.966 5.38 8.858z"/><path id="K" d="M50.644 479.445c17.717.015 17.717 9.64 10.31 9.64-10.31 0-35.255 3.273-35.255 2.45s-8.568-10.612-8.568-10.612c-.64-2.625.612 10.556-.64 10.612s-8.54-11.493-8.54-11.493.67 11.38 0 11.437-9.18-7.04-9.18-7.04l-.612 6.158-7.955 7.04 7.955 7.918v6.158l7.955-6.158.612 11.437 9.792-11.437s2.477 12.18 1.224 12.317 8.568-12.317 8.568-12.317c-.612-.785 28.094 0 45.43-.785s17.02-38.807 9.208-39.714-30.304 2.488-30.304-.152"/></defs></svg>