<svg xmlns="http://www.w3.org/2000/svg" xmlns:xlink="http://www.w3.org/1999/xlink" viewBox="0 0 512 512" height="480" width="640" xmlns:v="https://vecta.io/nano"><style><![CDATA[.B{stroke:#000}.C{fill:#fff}.D{stroke-width:.5}.E{stroke-linejoin:round}.F{fill-rule:evenodd}.G{fill:none}.H{stroke-width:.25}.I{stroke-width:.501}.J{stroke-width:.367}]]></style><g class="F"><path d="M-85.333 0h682.65v512h-682.65z"/><path fill="#090" d="M369.762 0h227.554v512H369.762z"/><path fill="#bf0000" d="M142.22 0h227.554v512H142.22z"/></g><g transform="matrix(1.9463 0 0 1.9463 -350 -430.25)"><g class="F C"><g class="B D"><use xlink:href="#B"/><use xlink:href="#C"/><use xlink:href="#D"/><use xlink:href="#E"/><use xlink:href="#F"/><g class="E"><use xlink:href="#G"/><use xlink:href="#H"/><use xlink:href="#I"/><path d="M301.6 407.9c.794 1.497 1.706 3.776 3.36 3.36.026-1.146-1.784-1.94-3.36-3.36zm2.48.5c3.2 1.316 5.983 1 6.328 3-3.012.325-4.113-.912-6.328-3zm15.74-.3c-.805 1.4-1.73 3.56-3.405 3.167-.026-1.08 1.808-1.83 3.405-3.167zm-2.25.42c-3.257 1.25-6.07.94-6.42 2.855 3.056.308 4.173-.865 6.42-2.855z"/></g><use xlink:href="#J"/><use xlink:href="#K"/><use xlink:href="#L"/><use xlink:href="#M"/><use xlink:href="#N"/></g><use xlink:href="#N"/></g><g class="B"><path d="M268.84 348.52c-.405 2.8 1.16 3.744 2.635 4.288 1.528.543 2.78 2.182 3.426 3.665m-9.84 1.297c.645 2.422 2.342 2.12 3.818 2.663 1.528.543 3.135 2.475 3.78 3.958" class="G H"/><path d="M273.69 341.9l.774-.497 14.86 25.027-.773.497-14.86-25.027z" class="C D F"/></g><path d="M273.69 341.9l.774-.497 14.86 25.027-.773.497-14.86-25.027z" class="C F"/><use xlink:href="#O" class="B C D F"/><use xlink:href="#O" class="C F"/><use xlink:href="#P" class="B C F I"/><use xlink:href="#P" class="C F"/><g class="B"><path d="M348.212 342.342l-.774-.514-14.852 25.903.773.514 14.853-25.903z" class="C F I"/><path d="M353.14 349.277c.405 2.907-1.236 3.793-2.712 4.356-1.527.562-2.858 2.136-3.502 3.67m9.834 1.587c-.645 2.507-2.263 2.075-3.738 2.638-1.527.562-3.133 2.4-3.778 3.936" stroke-width=".254" class="G"/></g><g class="C F"><path d="M348.212 342.342l-.774-.514-14.852 25.903.773.514 14.853-25.903z"/><use xlink:href="#Q" class="B I"/><use xlink:href="#Q"/><g class="B D"><path d="M288 320.8h6.022v1.38H288zm0 2.6h6.022v11.538H288z"/><use xlink:href="#R"/><path d="M327.55 320.83h6.022v1.38h-6.022zm0 2.62h6.022v11.538h-6.022z"/><use xlink:href="#R" x="39.556" y="0.04"/></g><path d="M288 320.8h6.022v1.38H288zm0 2.6h6.022v11.538H288z"/><use xlink:href="#R"/><path d="M327.55 320.83h6.022v1.38h-6.022zm0 2.62h6.022v11.538h-6.022z"/><use xlink:href="#R" x="39.556" y="0.04"/><path d="M327.55 323.45h6.022v11.538h-6.022zm0-2.62h6.022v1.38h-6.022z"/><use xlink:href="#R" x="39.57" y="0.04"/><path d="M288 323.4h6.022v11.538H288zm0-2.6h6.022v1.38H288z"/><use xlink:href="#R"/><use xlink:href="#S" class="B D"/><use xlink:href="#S"/></g><path d="M302.5 330.4l16.457-.017c2.228-1.178 2.923-4.94 2.912-7.045-.03-6.218-4.38-9.2-8.745-9.36-.654-.033-1.413-.542-1.586-1.138-.43-1.35-.32-4.865-.8-4.817-.42-.006-.296 3.44-.67 4.707-.205.63-.913 1.25-1.62 1.287-5.433.27-8.937 4.237-8.8 9.32.092 3.36.483 5.368 2.84 7.062z" class="B D G"/><path d="M302.5 330.4l16.457-.017c2.228-1.178 2.923-4.94 2.912-7.045-.03-6.218-4.38-9.2-8.745-9.36-.654-.033-1.413-.542-1.586-1.138-.43-1.35-.32-4.786-.8-4.817-.34.033-.296 3.44-.67 4.707-.205.63-.913 1.25-1.62 1.287-5.433.27-8.937 4.237-8.8 9.32.092 3.36.483 5.368 2.84 7.062z" class="C F"/><path d="M301.46 324.92c.415 2.05 1.402 1.735 1.33.743-.243-3.165.013-6.282 2.812-8.36.887-.65-.104-1.25-.86-.937-2.38 1-3.826 5.6-3.282 8.554zm2.77 1.3c.415 2.05 2.1 1.96 1.798.626-.635-2.555-.534-6.282 1.718-7.9.9-.647-.104-1.25-.86-.937-2.38 1-3.2 5.238-2.657 8.202zm15.858-1.212c-.415 2.05-1.404 1.735-1.33.743.243-3.165-.013-6.282-2.815-8.36-.888-.65.104-1.25.86-.937 2.383 1 3.83 5.6 3.286 8.554zm-2.77 1.292c-.415 2.05-2.112 1.96-1.8.626.636-2.555.535-6.282-1.72-7.9-.9-.647.104-1.25.86-.937 2.383 1 3.205 5.238 2.66 8.202z" class="B G H"/><g class="C F"><path d="M275.4 390.74h70.707l-6.33-5.157h-58.05l-6.328 5.157z" class="B D"/><path d="M275.4 390.74h70.707l-6.33-5.157h-58.05l-6.328 5.157z"/><g class="B"><path d="M287.67 344.34h6.72v9.297h-6.72zm.4 14.6h6.485v1.953h-6.485zm-.16 3.43h6.64v7.266h-6.64zm-.46 8.75h7.266v4.063h-7.266zm.9-13.93h5.855l1.16-1.933h-8.066l1.05 1.933zm7.9-7.12l.055-5.082h4.033c-1.584 1.307-3.057 2.9-4.088 5.082zm37.45-5.74h-6.606v9.297h6.606zm-.1 14.6h-6.375v1.953h6.375zm.13 3.43h-6.492v7.266h6.492zm.4 8.75h-7.143v4.063h7.143z" class="D"/><path d="M333.04 357.2h-5.756l-1.14-1.933h7.93l-1.032 1.933zm-7.77-7.12l-.054-5.082h-3.965c1.557 1.307 3.005 2.9 4.02 5.082z" stroke-width=".496"/></g><path d="M287.67 344.34h6.72v9.297h-6.72zm.4 14.6h6.485v1.953h-6.485zm-.16 3.43h6.64v7.266h-6.64zm-.46 8.75h7.266v4.063h-7.266zm.9-13.93h5.855l1.16-1.933h-8.066l1.05 1.933zm7.9-7.12l.055-5.082h4.033c-1.584 1.307-3.057 2.9-4.088 5.082zm37.45-5.74h-6.606v9.297h6.606zm-.1 14.6h-6.375v1.953h6.375zm.13 3.43h-6.492v7.266h6.492zm.4 8.75h-7.143v4.063h7.143zm-1.06-13.93h-5.756l-1.14-1.933h7.93l-1.032 1.933zm-7.77-7.12l-.054-5.082h-3.965c1.557 1.307 3.005 2.9 4.02 5.082z"/></g><path d="M288.7 352.16c.04 1.087 1.27.602 1.27.055l-.045-4.677c-.008-.875 2.085-.656 2.073-.117l.032 5.015c-.015.807 1.352.737 1.333 0v-5.903c.012-1.754-4.605-1.716-4.64-.04l-.023 5.666zm39.543.195c.04 1.087 1.27.602 1.27.055l-.045-4.677c-.008-.875 2.085-.656 2.073-.117l.032 5.015c-.015.807 1.312.737 1.294 0l.04-5.903c.012-1.754-4.605-1.716-4.64-.04l-.023 5.666zm-39.516 10.885h4.766v5.938h-4.766z" class="B G H"/><g class="F"><path d="M291.777 365.7h1.68v.977h-1.68zm-2.93 0h1.64v.977h-1.64z"/><path d="M290.487 363.32h1.3v2.422h-1.3zm0 3.32h1.3v2.578h-1.3z"/></g><path d="M328.104 363.2h4.766v5.938h-4.766z" class="B G H"/><g class="F"><path d="M331.154 365.66h1.68v.977h-1.68zm-2.93 0h1.64v.977h-1.64z"/><path d="M329.864 363.28h1.3v2.422h-1.3zm0 3.32h1.3v2.578h-1.3z"/><g class="B C D"><path d="M323.77 363.55h.82v5.9h-.82z"/><use xlink:href="#T"/></g><use xlink:href="#T" class="C"/></g><g class="B G"><path stroke-width=".248" d="M301.97 364.65h2.774v6.367h-2.774z"/><path d="M298.05 371.462h2.707l-.017-4.685c-.035-2.037 1.793-4.09 2.668-4.158.97-.037 2.4 1.922 2.448 3.998l.04 4.86 2.872-.006v-12.063l-10.717.057v11.997z" stroke-width=".252"/><path d="M319.47 374.26h3.36v2.617h-3.36zm-2-4.5h3.36v2.617h-3.36zm-3.24-4.5h3.36v2.617h-3.36zm-2.78-3.8h3.36v2.617h-3.36z" stroke-width=".247"/><path d="M309.24 371.48l3.437.117 6.133 5.43v-3.203l-2.07-1.484v-2.54l-3.008-1.718v-2.735l-2.93-.976v-3.712l-1.485-1.21-.077 12.032z" class="H"/></g><g class="F"><g class="C"><path d="M323.77 363.55h.82v5.9h-.82z"/><g class="B D E"><path d="M263.965 303.807c.298 4.66-1.148 7.218-3.616 6.83-.68-2.585.867-4.32 3.616-6.83zm-5.425 10.32c-2.194-1.116-.6-9.637.23-13.2.623 4.6 1.665 11.14-.23 13.2z"/><use xlink:href="#U"/><use xlink:href="#V"/><path d="M257.51 318.554c.16-3.118 3.27-2.217 5.414-3.88-.35 1.558-1.67 4.32-5.414 3.88z"/><use xlink:href="#W"/><path d="M255.32 322.304c2.34.76 5.442-.76 5.686-3.548-2.016 1.368-5.235.322-5.686 3.548z"/><use xlink:href="#X"/><use xlink:href="#Y"/></g><path d="M263.965 303.807c.298 4.66-1.148 7.218-3.616 6.83-.68-2.585.867-4.32 3.616-6.83zm-5.425 10.32c-2.194-1.116-.6-9.637.23-13.2.623 4.6 1.665 11.14-.23 13.2z"/><use xlink:href="#U"/><use xlink:href="#V"/><path d="M257.51 318.554c.16-3.118 3.27-2.217 5.414-3.88-.35 1.558-1.67 4.32-5.414 3.88z"/><use xlink:href="#W"/><path d="M255.32 322.304c2.34.76 5.442-.76 5.686-3.548-2.016 1.368-5.235.322-5.686 3.548z"/><use xlink:href="#X"/><use xlink:href="#Y"/><g class="B D E"><use xlink:href="#Z"/><path d="M267.72 318.5c4.1.582 5.577-2.565 8.337-6.588-3.868 2.8-8.493 3.38-8.337 6.588z"/><use xlink:href="#a"/><use xlink:href="#b"/><path d="M264.63 322.52c-3.1-.35-1.807-5.597.408-8.513-.933 4.024 1.632 6.822-.408 8.513zm-2.33 4.38c-3.517-1.555-1.263-5.966.06-8.57-.564 3.42 2.254 6.024-.06 8.57zm.7-.42c1.846 2.4 5.442-.72 6.18-4.373-3.13 2.605-5.44 2.177-6.18 4.373z"/></g><use xlink:href="#Z"/><path d="M267.72 318.5c4.1.582 5.577-2.565 8.337-6.588-3.868 2.8-8.493 3.38-8.337 6.588z"/><use xlink:href="#a"/><use xlink:href="#b"/><path d="M264.63 322.52c-3.1-.35-1.807-5.597.408-8.513-.933 4.024 1.632 6.822-.408 8.513zm-2.33 4.38c-3.517-1.555-1.263-5.966.06-8.57-.564 3.42 2.254 6.024-.06 8.57zm.7-.42c1.846 2.4 5.442-.72 6.18-4.373-3.13 2.605-5.44 2.177-6.18 4.373z"/><g class="B D E"><path d="M347.66 308.52c.467 2.1.584 6.24 4.315 5.423.544-3.848-2.585-4.023-4.315-5.423zm6.34 9.92c-.135-3.965-4.4-3.1-8.103-6.356 1 3.44 4.586 7.638 8.103 6.356zm.9-.47c2.507-1.73.583-5.5-1.75-8.804.875 3.596-1.05 6.9 1.75 8.804zm1.1 4.5c-4.042.3-4.76-1.7-6.355-4.314 2.76 1.788 6.452.66 6.355 4.314zm1 .12c-1.925-1.575.466-4.956-.35-8.337 1.516 2.137 3.848 7.25.35 8.337z"/><use xlink:href="#c"/><path d="M359.26 326.72c2.818-.04 1.555-5.616.116-8.162.39 3.07-2.08 6.607-.116 8.162z"/></g><path d="M347.66 308.52c.467 2.1.584 6.24 4.315 5.423.544-3.848-2.585-4.023-4.315-5.423zm6.34 9.92c-.135-3.965-4.4-3.1-8.103-6.356 1 3.44 4.586 7.638 8.103 6.356zm.9-.47c2.507-1.73.583-5.5-1.75-8.804.875 3.596-1.05 6.9 1.75 8.804zm1.1 4.5c-4.042.3-4.76-1.7-6.355-4.314 2.76 1.788 6.452.66 6.355 4.314zm1 .12c-1.925-1.575.466-4.956-.35-8.337 1.516 2.137 3.848 7.25.35 8.337z"/><use xlink:href="#c"/><path d="M359.26 326.72c2.818-.04 1.555-5.616.116-8.162.39 3.07-2.08 6.607-.116 8.162z"/><g class="B D E"><use xlink:href="#d"/><path d="M363.14 314.245c2.35-1.612.232-6.906-.5-12.866-.57 5.315-1.83 11.118.5 12.866zm-1.264.408c.295-2.9-4.293-3.56-7.438-7.4.815 3.088 3.14 7.6 7.438 7.4zm3.136 4.547c-2.472-2.24.465-8.667.587-13.65.383 4.598 2.403 12.835-.587 13.65z"/><use xlink:href="#e"/><use xlink:href="#f"/><path d="M366.014 322.342c-2.4.366-4.836-1.03-5.495-3.413 2.073.902 5.5.187 5.495 3.413z"/><use xlink:href="#g"/><path d="M368.77 326.905c-2.988.444-5.188-1.38-6.043-3.88 3.05 1.137 5.424.733 6.043 3.88z"/></g><use xlink:href="#h" class="B D"/><use xlink:href="#h"/><use xlink:href="#d"/><path d="M363.14 314.245c2.35-1.612.232-6.906-.5-12.866-.57 5.315-1.83 11.118.5 12.866zm-1.264.408c.295-2.9-4.293-3.56-7.438-7.4.815 3.088 3.14 7.6 7.438 7.4zm3.136 4.547c-2.472-2.24.465-8.667.587-13.65.383 4.598 2.403 12.835-.587 13.65z"/><use xlink:href="#e"/><use xlink:href="#f"/><path d="M366.014 322.342c-2.4.366-4.836-1.03-5.495-3.413 2.073.902 5.5.187 5.495 3.413z"/><use xlink:href="#g"/><path d="M368.77 326.905c-2.988.444-5.188-1.38-6.043-3.88 3.05 1.137 5.424.733 6.043 3.88z"/><use xlink:href="#i" class="B D"/><use xlink:href="#i"/><g class="B D E"><path d="M380.404 332.07c-1.36 4.373-2.177 7.957-.214 8.38 2.098-.364 1.186-4.59.214-8.38z"/><use xlink:href="#j"/><use xlink:href="#k"/><use xlink:href="#l"/><path d="M379.32 348.67c1.047-2.41-1.09-2.115-2.506-6.432-.47 4.468.212 6.507 2.506 6.432z"/><use xlink:href="#m"/><path d="M379.3 353.1c1-2.758-1.81-2.604-3.283-6.726.234 5.228.913 7.114 3.283 6.726z"/><use xlink:href="#n"/><path d="M378.673 357.163c.89-2.877-1.597-2.896-2.7-6.12-.078 4.86.68 6.507 2.7 6.12z"/><use xlink:href="#o"/><use xlink:href="#p"/></g><path d="M380.404 332.07c-1.36 4.373-2.177 7.957-.214 8.38 2.098-.364 1.186-4.59.214-8.38z"/><use xlink:href="#j"/><use xlink:href="#k"/><use xlink:href="#l"/><path d="M379.32 348.67c1.047-2.41-1.09-2.115-2.506-6.432-.47 4.468.212 6.507 2.506 6.432z"/><use xlink:href="#m"/><path d="M379.3 353.1c1-2.758-1.81-2.604-3.283-6.726.234 5.228.913 7.114 3.283 6.726z"/><use xlink:href="#n"/><path d="M378.673 357.163c.89-2.877-1.597-2.896-2.7-6.12-.078 4.86.68 6.507 2.7 6.12z"/><use xlink:href="#o"/><use xlink:href="#p"/><use xlink:href="#q" class="B D"/><use xlink:href="#q"/><g class="B D E"><path d="M371.4 345.08c-1.36 4.373-1.904 6.472-.058 7.87 2.4-1.34 1.03-4.08.058-7.87zm-.77 11.42c1-3.226-1.477-4.003-2.798-7.638-.136 4.8.544 8.318 2.798 7.638zm.992.706c1.77.68 3.945-3.42 2.74-7.52-1.244 3.693-4.296 4.586-2.74 7.52zm-1.867 3.676c1.7-2.643-1-2.78-2.4-6.47-.078 4.86.368 6.86 2.4 6.47z"/><use xlink:href="#r"/><path d="M371.04 361.056c1.478.038 4.353-2.546 3.5-5.772-1.244 2.702-4.762 2.43-3.5 5.772z"/><use xlink:href="#s"/></g><path d="M371.4 345.08c-1.36 4.373-1.904 6.472-.058 7.87 2.4-1.34 1.03-4.08.058-7.87zm-.77 11.42c1-3.226-1.477-4.003-2.798-7.638-.136 4.8.544 8.318 2.798 7.638zm.992.706c1.77.68 3.945-3.42 2.74-7.52-1.244 3.693-4.296 4.586-2.74 7.52zm-1.867 3.676c1.7-2.643-1-2.78-2.4-6.47-.078 4.86.368 6.86 2.4 6.47z"/><use xlink:href="#r"/><path d="M371.04 361.056c1.478.038 4.353-2.546 3.5-5.772-1.244 2.702-4.762 2.43-3.5 5.772z"/><use xlink:href="#s"/><use xlink:href="#t" class="B D"/><use xlink:href="#t"/><g class="B D E"><path d="M378.46 373.994c.543-2.172-.15-2.87.444-6.272-3.26 4.372-2.034 6.444-.444 6.272zm.36.54c2.16.602 7.773-4.318 7.937-8-1.518 2.638-9.1 5.484-7.937 8zm-3.52 3.243c1.477-.807 1.06-4.224-.28-5.377-.274 3.335-2.288 5.296.28 5.377z"/><use xlink:href="#u"/><path d="M373.222 381.058c1.828-1.198.122-3.56-.006-8.23-1.836 3.374-2.2 7.99.006 8.23z"/><use xlink:href="#v"/><path d="M372.883 386.152c1.693-1.234-1.457-4.48-2.11-8.835.04 5.306-.688 9.34 2.11 8.835z"/><use xlink:href="#w"/><path d="M369.345 390.632c1.907-.338 1.645-5.16.2-9.088-1.64 4.742-2.367 9.554-.2 9.088z"/><use xlink:href="#x"/><path d="M365.12 395.136c2.63-1.08 1.394-5.34 1.912-9.93-2.07 4.486-4.517 8.99-1.912 9.93z"/><use xlink:href="#y"/><use xlink:href="#z"/><use xlink:href="#AA"/><path d="M357.758 380.74c1.712.248 3.95-2.895 2.456-6.08-.743 3.18-5.726 5.492-2.456 6.08z"/><use xlink:href="#AB"/><use xlink:href="#AC"/><use xlink:href="#AD"/><use xlink:href="#AE"/><path d="M354.758 388.027c2.045-.57-1.262-4.05-1.955-6.53-.312 4.564-.258 6.84 1.955 6.53zm-1.998 3.28c1.888-.687-1.067-2.4-1.37-6.218-.938 1.4-1.43 6.723 1.37 6.218zm-2.82.794c1.203-.65.708-3.756-1.14-4.166-.43 2.436-.374 4.202 1.14 4.166z"/></g><path d="M357.758 380.74c1.712.248 3.95-2.895 2.456-6.08-.743 3.18-5.726 5.492-2.456 6.08z"/><use xlink:href="#AB"/><use xlink:href="#AC"/><use xlink:href="#AD"/><use xlink:href="#AE"/><path d="M354.758 388.027c2.045-.57-1.262-4.05-1.955-6.53-.312 4.564-.258 6.84 1.955 6.53zm-1.998 3.28c1.888-.687-1.067-2.4-1.37-6.218-.938 1.4-1.43 6.723 1.37 6.218zm-2.82.794c1.203-.65.708-3.756-1.14-4.166-.43 2.436-.374 4.202 1.14 4.166zm28.52-18.106c.543-2.172-.15-2.87.444-6.272-3.26 4.372-2.034 6.444-.444 6.272zm.36.54c2.16.602 7.773-4.318 7.937-8-1.518 2.638-9.1 5.484-7.937 8zm-3.52 3.243c1.477-.807 1.06-4.224-.28-5.377-.274 3.335-2.288 5.296.28 5.377z"/><use xlink:href="#u"/><path d="M373.222 381.058c1.828-1.198.122-3.56-.006-8.23-1.836 3.374-2.2 7.99.006 8.23z"/><use xlink:href="#v"/><path d="M372.883 386.152c1.693-1.234-1.457-4.48-2.11-8.835.04 5.306-.688 9.34 2.11 8.835z"/><use xlink:href="#w"/><path d="M369.345 390.632c1.907-.338 1.645-5.16.2-9.088-1.64 4.742-2.367 9.554-.2 9.088z"/><use xlink:href="#x"/><path d="M365.12 395.136c2.63-1.08 1.394-5.34 1.912-9.93-2.07 4.486-4.517 8.99-1.912 9.93z"/><use xlink:href="#y"/><use xlink:href="#z"/><use xlink:href="#AA"/><path d="M235.83 159.52c-.377-.307-.876-.76-.704.176 1.41 7.4 1.855 9.483 8.35 12.044 6.602 2.508 8.968 1.63 14.59 1.533 3.034-.11 6.567 1.404 8.67 3.618.98 1.03 1.687 1.44 1.294.128s-.777-3.015-1.396-4.38c-1.348-3.002-4.834-5.866-8.32-7.01-4.88-1.717-10.14-.854-15.164-2.164-2.62-.724-5.138-2.183-7.318-3.945z" transform="matrix(-.87627 -.4741 -.47184 .88047 655.69 369.03)" class="B I"/><path d="M373.77 397.676c.475-.092 1.126-.254.534.49-4.73 5.856-6.1 7.47-13 6.646-6.97-.922-8.628-2.816-13.507-5.567-2.606-1.536-6.417-1.877-9.305-.925-1.345.442-2.158.47-1.194-.5s2.103-2.286 3.29-3.194c2.598-2.004 7.004-2.873 10.6-2.228 5.085.8 9.287 4.055 14.31 5.284 2.638.605 5.532.514 8.274-.004z"/><use xlink:href="#AF" class="B D"/><use xlink:href="#AF"/><g class="B D E"><path d="M343.5 400.34c2.473.643 3.115-2.207 3.357-4.278-2.23.48-4.566 1.772-3.357 4.278z"/><use xlink:href="#AG"/><path d="M340.766 402.775c2.2.366.98-3.097.852-6.513-1.237 2.785-3.004 6.216-.852 6.513zm-2.79 3.273c2.406.3.88-4.34.226-7.458-.8 2.9-2.53 7.204-.226 7.458z"/><use xlink:href="#AH"/><use xlink:href="#AH" x="-2.736" y="3.672"/><path d="M335.4 409.717c2.3.066.606-4.926-.048-8.044-.8 2.9-2.296 7.947.048 8.044zm-1.974 3.193c.292 2.625 4.838.038 7.655-1.77-3.863.827-8.084-.805-7.655 1.77z"/></g><path d="M343.5 400.34c2.473.643 3.115-2.207 3.357-4.278-2.23.48-4.566 1.772-3.357 4.278z"/><use xlink:href="#AG"/><path d="M340.766 402.775c2.2.366.98-3.097.852-6.513-1.237 2.785-3.004 6.216-.852 6.513zm-2.79 3.273c2.406.3.88-4.34.226-7.458-.8 2.9-2.53 7.204-.226 7.458z"/><use xlink:href="#AH"/><use xlink:href="#AH" x="-2.736" y="3.672"/><path d="M335.4 409.717c2.3.066.606-4.926-.048-8.044-.8 2.9-2.296 7.947.048 8.044zm-1.974 3.193c.292 2.625 4.838.038 7.655-1.77-3.863.827-8.084-.805-7.655 1.77z"/><g class="B D E"><use xlink:href="#AI"/><use xlink:href="#AJ"/><path d="M349.886 412.84c.255 1.423 6.74.883 10.017-.22-3.545.44-10.676-2.06-10.017.22z"/><use xlink:href="#AK"/><path d="M340.538 415.758c-.292 1.815 7.9 1.43 10.485.52-4.403-.34-10.1-3.193-10.485-.52z"/><use xlink:href="#AL"/><use xlink:href="#AM"/><path d="M350.067 411.364c2.2 1.462 3.44-3.38 3.97-6.405-1.5 2.604-6.08 4.18-3.97 6.405zm4.118-2.578c2.2 1.462 4.963-2.597 4.322-6.6-.845 4.127-6.43 4.374-4.322 6.6z"/><use xlink:href="#AN"/></g><use xlink:href="#AI"/><use xlink:href="#AJ"/><path d="M349.886 412.84c.255 1.423 6.74.883 10.017-.22-3.545.44-10.676-2.06-10.017.22z"/><use xlink:href="#AK"/><path d="M340.538 415.758c-.292 1.815 7.9 1.43 10.485.52-4.403-.34-10.1-3.193-10.485-.52z"/><use xlink:href="#AL"/><use xlink:href="#AM"/><path d="M350.067 411.364c2.2 1.462 3.44-3.38 3.97-6.405-1.5 2.604-6.08 4.18-3.97 6.405zm4.118-2.578c2.2 1.462 4.963-2.597 4.322-6.6-.845 4.127-6.43 4.374-4.322 6.6z"/><use xlink:href="#AN"/><use xlink:href="#AO" stroke-width=".495" class="B"/><use xlink:href="#AO"/><use xlink:href="#AP" class="B D"/><use xlink:href="#AP"/><use xlink:href="#AQ" class="B D"/><use xlink:href="#AQ"/><g class="B D"><path d="M285.7 409.515c2.37.54 2.34-5.172-.083-7.592 1.066 3.668-1.782 7.022.083 7.592z"/><use xlink:href="#AR"/><use xlink:href="#AS"/><path d="M282.916 405.96c2.37.54 1.987-5.367-.318-7.397 1.106 3.942-1.548 6.827.318 7.397zm-2.498-3.598c2.37.54 1-4.546-.747-6.577.285 3.708-.883 6.28.747 6.577z"/><use xlink:href="#AT"/><path d="M277.858 400.29c1.553-1.117-.095-4.07-3.05-3.888.29 1.784 1.31 4.922 3.05 3.888z"/><use xlink:href="#AU"/></g><g class="B D"><use xlink:href="#AV"/><use xlink:href="#AW"/></g><use xlink:href="#AV"/><use xlink:href="#AW"/><path d="M285.7 409.515c2.37.54 2.34-5.172-.083-7.592 1.066 3.668-1.782 7.022.083 7.592z"/><use xlink:href="#AR"/><use xlink:href="#AS"/><path d="M282.916 405.96c2.37.54 1.987-5.367-.318-7.397 1.106 3.942-1.548 6.827.318 7.397zm-2.498-3.598c2.37.54 1-4.546-.747-6.577.285 3.708-.883 6.28.747 6.577z"/><use xlink:href="#AT"/><path d="M277.858 400.29c1.553-1.117-.095-4.07-3.05-3.888.29 1.784 1.31 4.922 3.05 3.888z"/><use xlink:href="#AU"/><g class="B D E"><path d="M262.45 407.683c.244 2.708-7.2-.27-9.06-2.832 4.004 1.307 8.79.668 9.06 2.832z"/><use xlink:href="#AX"/><use xlink:href="#AY"/><path d="M271.303 412.342c.905 2.26-6.918 1.7-9.664.395 4.438-.04 9.042-1.97 9.664-.395zM274.96 414c.866 2.027-6.37 1.983-9.898.862 4.672-.038 9.04-2.868 9.898-.862z"/><use xlink:href="#AZ"/><path d="M271.28 410.973c-2.428 1.53-2.298-2.984-4.23-6.1 3.035 2.764 5.876 4.65 4.23 6.1z"/><use xlink:href="#Aa"/><use xlink:href="#Ab"/></g><path d="M262.45 407.683c.244 2.708-7.2-.27-9.06-2.832 4.004 1.307 8.79.668 9.06 2.832z"/><use xlink:href="#AX"/><use xlink:href="#AY"/><path d="M271.303 412.342c.905 2.26-6.918 1.7-9.664.395 4.438-.04 9.042-1.97 9.664-.395zM274.96 414c.866 2.027-6.37 1.983-9.898.862 4.672-.038 9.04-2.868 9.898-.862z"/><use xlink:href="#AZ"/><path d="M271.28 410.973c-2.428 1.53-2.298-2.984-4.23-6.1 3.035 2.764 5.876 4.65 4.23 6.1z"/><use xlink:href="#Aa"/><use xlink:href="#Ab"/><use xlink:href="#C"/><use xlink:href="#Ac" class="B D"/><use xlink:href="#Ac"/><g class="B D E"><path d="M265.263 384.068c1.63 1.2 3.43-3.1 1.358-7.19-.065 3.935-3.193 5.256-1.358 7.19z"/><use xlink:href="#Ad"/><path d="M268.54 391.185c2.177 1.084 3-2.945 1.436-5.936.17 3.817-3.114 4.942-1.436 5.936z"/><use xlink:href="#Ae"/><use xlink:href="#Af"/><use xlink:href="#Ag"/><use xlink:href="#Ah"/><use xlink:href="#Ai"/><path d="M271.5 391.503c1.318.77 2.22-1.93.577-4.374-.376 2.645-1.786 3.38-.577 4.374z"/></g><path d="M265.263 384.068c1.63 1.2 3.43-3.1 1.358-7.19-.065 3.935-3.193 5.256-1.358 7.19z"/><use xlink:href="#Ad"/><path d="M268.54 391.185c2.177 1.084 3-2.945 1.436-5.936.17 3.817-3.114 4.942-1.436 5.936z"/><use xlink:href="#Ae"/><use xlink:href="#Af"/><use xlink:href="#Ag"/><use xlink:href="#Ah"/><use xlink:href="#Ai"/><path d="M271.5 391.503c1.318.77 2.22-1.93.577-4.374-.376 2.645-1.786 3.38-.577 4.374z"/><g class="B D E"><use xlink:href="#Aj"/><use xlink:href="#Ak"/><use xlink:href="#Al"/><use xlink:href="#Am"/><use xlink:href="#An"/><path d="M246.28 377.743c3.3.146.032-3.882-.75-7.265.288 3.856-.848 6.895.75 7.265zm2.103 3.21c2.294-.518 1.632-3.764-.126-7.696.365 4.247-1.942 6.7.126 7.696z"/><use xlink:href="#Ao"/><path d="M251.5 391.393c-.98 2.58-7.818-2.65-9.9-5.498 4.12 3.24 10.416 2.94 9.9 5.498z"/><use xlink:href="#Ap"/><use xlink:href="#Aq"/><path d="M252.1 390.595c2.333.693 1.594-5.248-.4-9.1-.258 3.818-1.98 7.444.4 9.1zm4.142 4.105c2.607.146.813-5.093-1.337-8.047.366 3.856-.848 7.6 1.337 8.047zm-4.575 2.236c-.784 1.328-2.7-1.128-5.848-2.92 2.83.74 6.196 1.7 5.848 2.92z"/></g><use xlink:href="#Aj"/><use xlink:href="#Ak"/><use xlink:href="#Al"/><use xlink:href="#Am"/><use xlink:href="#An"/><path d="M246.28 377.743c3.3.146.032-3.882-.75-7.265.288 3.856-.848 6.895.75 7.265zm2.103 3.21c2.294-.518 1.632-3.764-.126-7.696.365 4.247-1.942 6.7.126 7.696z"/><use xlink:href="#Ao"/><path d="M251.5 391.393c-.98 2.58-7.818-2.65-9.9-5.498 4.12 3.24 10.416 2.94 9.9 5.498z"/><use xlink:href="#Ap"/><use xlink:href="#Aq"/><path d="M252.1 390.595c2.333.693 1.594-5.248-.4-9.1-.258 3.818-1.98 7.444.4 9.1zm4.142 4.105c2.607.146.813-5.093-1.337-8.047.366 3.856-.848 7.6 1.337 8.047zm-4.575 2.236c-.784 1.328-2.7-1.128-5.848-2.92 2.83.74 6.196 1.7 5.848 2.92z"/><g class="B D E"><path d="M250.17 352.78c2.433-1.8.577-5.167 0-8.37-.783 3.037-2.844 7.022 0 8.37z"/><use xlink:href="#Ar"/><use xlink:href="#As"/><use xlink:href="#At"/><use xlink:href="#Au"/><path d="M246.6 359.22c.247 2.35 1.732 6.4 4.123 5.483.99-2.886-2.103-3.463-4.123-5.483z"/><use xlink:href="#Av"/></g><path d="M250.17 352.78c2.433-1.8.577-5.167 0-8.37-.783 3.037-2.844 7.022 0 8.37z"/><use xlink:href="#Ar"/><use xlink:href="#As"/><use xlink:href="#At"/><use xlink:href="#Au"/><path d="M246.6 359.22c.247 2.35 1.732 6.4 4.123 5.483.99-2.886-2.103-3.463-4.123-5.483z"/><use xlink:href="#Av"/><g class="B D E"><path d="M241.475 340.517c1.925-2.073.225-5.362-.352-8.564-.783 3.037-2.14 7.06.352 8.564zm-.062 3.863c-3.38.343-4.2-6.533-4.543-9.5 1.1 4.067 4.993 5.926 4.543 9.5z"/><use xlink:href="#Aw"/><use xlink:href="#Ax"/><use xlink:href="#Ay"/><use xlink:href="#Az"/><use xlink:href="#BA"/><use xlink:href="#BB"/><use xlink:href="#Av" x="-9.13" y="-8.046"/><use xlink:href="#BC"/><use xlink:href="#BD"/></g><path d="M241.475 340.517c1.925-2.073.225-5.362-.352-8.564-.783 3.037-2.14 7.06.352 8.564zm-.062 3.863c-3.38.343-4.2-6.533-4.543-9.5 1.1 4.067 4.993 5.926 4.543 9.5z"/><use xlink:href="#Aw"/><use xlink:href="#Ax"/><use xlink:href="#Ay"/><use xlink:href="#Az"/><use xlink:href="#BA"/><use xlink:href="#BB"/><use xlink:href="#Av" x="-9.13" y="-8.046"/><use xlink:href="#BC"/><use xlink:href="#BD"/><g class="B D"><path d="M248.8 332.67c2.052.555 4.204-1.75 3.458-5.197-2.345.584-3.42 2.713-3.458 5.197z"/><use xlink:href="#BE"/></g><path d="M248.8 332.67c2.052.555 4.204-1.75 3.458-5.197-2.345.584-3.42 2.713-3.458 5.197z"/><use xlink:href="#BE"/><g class="B"><g class="D"><use xlink:href="#BF"/><use xlink:href="#BG"/></g><use xlink:href="#BH" transform="matrix(-1.2604 -.50286 -.58469 1.2951 644.016 295.774)" stroke-width=".36"/></g><path d="M261.362 344.27c-.793 1.166-2.412.453-1.18-1.15 1.01-1.296 2.45-2.355 2.557-3.695.084-1.698 1.08-4.275 1.986-5.144.936-.926 2.017.377 1.016.994-1.124.73-1.854 3.73-1.83 4.885-.038 1.675-1.71 2.885-2.552 4.108z"/><use xlink:href="#BG"/><use xlink:href="#BI" stroke-width=".567" class="B"/><use xlink:href="#BI"/><use xlink:href="#BF"/><use xlink:href="#D"/><use xlink:href="#E"/><use xlink:href="#F"/></g><use xlink:href="#BJ" fill-opacity=".185" class="B D"/><g class="C"><use xlink:href="#BJ"/><use xlink:href="#BK" class="B D"/><use xlink:href="#BK"/><use xlink:href="#BL" class="B I"/><use xlink:href="#BL"/><use xlink:href="#BM" class="B I"/><use xlink:href="#BM"/><use xlink:href="#BN" stroke-width=".518" class="B"/><use xlink:href="#BN"/><use xlink:href="#BO" stroke-width=".571" class="B"/><use xlink:href="#BO"/><use xlink:href="#BP" class="B D"/><use xlink:href="#BP"/><use xlink:href="#BQ" class="B D"/><use xlink:href="#BQ"/><path d="M242.22 131.74c.18.97 1.234.857 1.32-.555-.013-1.006.43-2.074.266-2.87-.197-1.186-.906-2.386-1.25-3.19-.348-.85-1.14-.47-.805.274.384.954.75 2.098.874 2.905.208 1.555-.6 2.417-.405 3.437z" transform="matrix(1.2161 -.50286 .56418 1.2951 -6.3705 293.528)" class="B J"/><path d="M362.518 342.342c.765 1.166 1.984.49 1.293-1.383-.583-1.296-.646-2.903-1.296-3.85-.91-1.437-2.448-2.635-3.322-3.504-.903-.926-1.652-.034-.824.76 1.005 1.042 2.096 2.34 2.702 3.323 1.13 1.91.633 3.432 1.447 4.655z"/><use xlink:href="#BH" transform="matrix(1.2161 -.50286 .56418 1.2951 -8.7924 295.091)" class="B J"/><path d="M360.418 343.588c.765 1.166 2.327.453 1.137-1.15-.975-1.296-2.365-2.355-2.468-3.695-.08-1.698-1.043-4.275-1.916-5.144-.903-.926-1.946.377-.98.994 1.084.73 1.79 3.73 1.765 4.885.037 1.675 1.65 2.885 2.463 4.108z"/><use xlink:href="#BR" class="B D E"/><use xlink:href="#BR"/><use xlink:href="#G"/><use xlink:href="#H"/><use xlink:href="#I"/><use xlink:href="#J"/><use xlink:href="#K"/><use xlink:href="#L"/><use xlink:href="#M"/><path d="M301.6 407.9c.794 1.497 1.706 3.776 3.36 3.36.026-1.146-1.784-1.94-3.36-3.36zm2.48.5c3.2 1.316 5.983 1 6.328 3-3.012.325-4.113-.912-6.328-3zm15.74-.3c-.805 1.4-1.73 3.56-3.405 3.167-.026-1.08 1.808-1.83 3.405-3.167zm-2.25.42c-3.257 1.25-6.07.94-6.42 2.855 3.056.308 4.173-.865 6.42-2.855z"/><use xlink:href="#BS" fill-opacity=".534" class="B D"/><use xlink:href="#BS"/></g></g><path d="M277.3 419.26c-.385.294-.36 1.176.4 1.484 6.985 2.506 13.728 7.137 33.128 6.954 19.586-.185 26.47-4.704 32.737-6.797.835-.318 1.62-.965.547-1.875-3.522-2.88-7.33-5.193-9.845-8.75-.446-.64-1.665-.277-2.422 0-7.476 2.626-14.383 4.466-21.564 4.453-7.012-.013-14.32-1.944-20.9-4.648-.63-.27-1.662.034-2.15.507-3.053 3.04-6.373 5.992-9.922 8.673z" class="B G H"/><g class="F"><path d="M286.7 414.45c-.84-.542-1.22.163-.625.9.772.847 2.02 1.357 3.32 1.72.758.2 2.323-.055 3.126.04.625.078.978 1.34 2.1 1.3 1.142-.05 1.875-3.086 1.914-4.6.052-1-1.344-.365-1.2.04.366 1.004-.304 3.244-1.016 3.242-.524-.032-1.086-1.118-1.875-1.25-.617-.102-1.553.072-2.188.078-1.857.018-2.657-.908-3.555-1.446zm1.57-.82c1 .495 1.857-.4 2.423.235 1.446 1.64 3.306-.786 1.133-.703-.88.034-1.016-.665-2.54-.5-.8.104-1.5.7-1.016.977zm.23 7.2c-.783-.342-1.046.402-.586.86.646.6 3.33.825 3.985.352 1.085-.823.292-2.985-.195-3.595-.304-.37-1.22-.4-.86.587.15.457.815 1.594.273 2.1-.496.474-1.868-.001-2.617-.313zm6.02.66c.172-.44-.292-1.2-1.095-.313-.663.7-.125 3.65 1.993 4.18 2.07.508 3.62-.236 3.906-1.367.197-.753-.937-1.407-.35-2.07.5-.52 1.433.006 1.836-.82.236-.463.255-1.412-1.016-2.032-.55-.277-1.505.355-1.485.82.03.64 1.023.223.664.78-.262.425-1.435.248-1.796 1.25-.216.637 1.328 1.813.508 2.1-.732.253-1.686.417-2.657-.117-.6-.318-.855-1.634-.507-2.422zm-7.46-4.06c-.492.072-1.17.43-1.2 1.016-.03.47.357 1.284 1.016.74.68-.528.158-.778.312-.586.34.34-.158.367-.78 1.212-.434.64-1.36.538-1.836.312-.82-.423-.513-.694-1.407-1.094-.893-.44-1.434.6-.586 1.055.937.537 2.472 1.6 3.985.82.9-.508 1.953-.97 1.914-2.1-.05-.74-.38-1.5-1.407-1.367zm48.6-.4c-.7-.494-.268-1.4.743-1.055.86.318 2.288 1.33 2.382 2.657.107 1.45-2.23 2.5-3.124 2.462-1.53-.124-1.258-1.338-.118-1.25.884.064 1.97-.25 2.032-1.172.052-.8-1.417-1.264-1.915-1.64zm-5.05-3.55c-.893-.9.976-1.875 1.523-.78l2.227 4.297c.516 1.26-.16 1.432-.586.742-.7-1.2-1.788-2.806-3.164-4.258zm-4.36 2.7c.96-.418.937.78.586 1.016-.635.353-1.485-.586-.586-1.016zm2.86-1.05c.96-.418.937.78.586 1.016-.635.353-1.485-.586-.586-1.016zm-29.82 1.68c-1.442-.92.293-2.295 1.3-1.25 1.427 1.457 2.8 4.65 3.868 5.86 1.024 1.2.2-3.224.508-4.532.2-.727.78-.625.78.078.005 1.798-.272 5.456.195 5.743.874.497.716 1.308 1.445 1.172.782-.186.665-.4 1.368-.43.697 0 .72.7 1.524.586.512-.067.666-.647 1.288-.665.567-.048.323 1.204-.038 1.407-.6.33-2.423-.36-2.97-.312-.65.017-1.82.62-2.54.35-.88-.314-.684-1.428-1.3-1.25-.685.158-.556 1.405-2.187 1.797-.764.174-1.02-.512-.625-.977.7-.758 2.137-1.363 1.914-2.07-.66-1.97-2.658-4.343-4.532-5.508zm12.54.27c.693 2.28.66 5.312 1.055 7.384.195.815.975.1.9-.547-.307-2.225-.442-4.956-1.016-7.07-.238-.732-1.203-.6-.938.234zm1.92.6c-.183-.95.727-1.04.86-.47.47 1.835.4 6.034 1.328 6.173 1.586.18 3.8-.147 5.782-.547.97-.193 1.17-.895 1.133-1.173-.186-1.128.867-1.04 1.133.157.143.624-.14 1.743-1.328 1.992-2.32.448-5.516 1.14-7.345.742-1.602-.34-1.08-4.475-1.563-6.874zm2.58 1.64c.04-1.203.943-1.38.937-.352.025 2.46 2.906 1.822 3.517.9.45-.72.12-1.03-.313-1.836-.54-1.043.603-1.337 1.094-.43.367.65.622 2.718-.04 3.243-.915.725-3.388 1.08-4.454.273-.566-.4-.786-1.138-.742-1.797zm-1.25-3.2c.128.77 2.226.508 2.148-.078-.072-.504-2.265-.4-2.148.078zm2.73.62c.082.777 1.44.548 1.367-.04-.072-.62-1.445-.743-1.367.04zm4.1-.94c-.7-.952.652-1.012 1.094-.312 1.144 1.7 1.898 4.467 3.008 6.328.472.858 1.063.1 1.133-.117.074-.22-.36-.56-.4-1.328-.055-.597 1.166-1.34 2.03-.78.8.545.147 1.028.547 1.328.38.286 1.343.106 1.485-.078.427-.67-.155-.278-.743-.665-.68-.487-.272-2.597 1.133-1.72.836.484 1.082 2.03.78 2.9-.266.797-1.665 1.068-2.422.9-.853-.26-1.542-1.286-1.367-1.016.422.693-.104 1.377-.508 1.64-.997.626-1.694.954-2.422-.078-1.3-1.932-2-5.2-3.36-6.993z"/><g class="B C D"><use xlink:href="#BT"/><path d="M293.48 291.23c.45-.322 1.17 1.085.663 1.436-.423.282-1.25-1.046-.663-1.436z"/><use xlink:href="#BU"/><use xlink:href="#BV"/><use xlink:href="#BW"/><use xlink:href="#BX"/><use xlink:href="#BY"/><use xlink:href="#BZ"/><use xlink:href="#Ba"/><path d="M322.1 279.9c.707-.078.883 1.287.1 1.508-.47.156-.88-1.427-.1-1.508z"/><use xlink:href="#Bb"/><use xlink:href="#Bc"/><use xlink:href="#Bd"/><use xlink:href="#Be"/><use xlink:href="#Bf"/><use xlink:href="#Bg"/><use xlink:href="#Bh"/><use xlink:href="#Bi"/><use xlink:href="#Bj"/><use xlink:href="#Bk"/><use xlink:href="#Bl"/><use xlink:href="#Bm"/><use xlink:href="#Bn"/><use xlink:href="#Bo"/><use xlink:href="#Bp"/><use xlink:href="#Bq"/></g><use xlink:href="#BT" class="C"/><g class="B C D"><use xlink:href="#Br"/><g class="E"><use xlink:href="#Bs"/><use xlink:href="#Bt"/><use xlink:href="#Bu"/><path d="M269.6 292.335s.61 2.084 1.105 1.216c.4-.602-1.105-1.216-1.105-1.216z"/><use xlink:href="#Bv"/><use xlink:href="#Bw"/><use xlink:href="#Bx"/><use xlink:href="#By"/></g></g><g class="C"><use xlink:href="#Bs"/><use xlink:href="#Bt"/><use xlink:href="#Bu"/><path d="M269.6 292.335s.61 2.084 1.105 1.216c.4-.602-1.105-1.216-1.105-1.216z"/><use xlink:href="#Bv"/><use xlink:href="#Bw"/><use xlink:href="#Bx"/><use xlink:href="#By"/><use xlink:href="#Bi"/><path d="M293.48 291.23c.45-.322 1.17 1.085.663 1.436-.423.282-1.25-1.046-.663-1.436z"/><use xlink:href="#Bz" class="B D"/><use xlink:href="#BU"/><use xlink:href="#Bz"/><use xlink:href="#CA" class="B D"/><use xlink:href="#BZ"/><use xlink:href="#BY"/><use xlink:href="#CB" class="B D"/><use xlink:href="#Br"/><use xlink:href="#CB"/><use xlink:href="#BV"/><use xlink:href="#BW"/><use xlink:href="#BX"/><use xlink:href="#Ba"/><path d="M322.1 279.9c.707-.078.883 1.287.1 1.508-.47.156-.88-1.427-.1-1.508z"/><use xlink:href="#Bb"/><use xlink:href="#Bc"/><use xlink:href="#Bd"/><use xlink:href="#Be"/><use xlink:href="#Bf"/><use xlink:href="#Bg"/><use xlink:href="#Bh"/><use xlink:href="#Bj"/><use xlink:href="#CA" class="B D"/><use xlink:href="#Bk"/><use xlink:href="#CA"/><use xlink:href="#Bl" class="B D"/><use xlink:href="#Bl"/><use xlink:href="#Bo"/><use xlink:href="#Bp"/><use xlink:href="#Bq"/><use xlink:href="#Bn"/><use xlink:href="#Bm"/><g class="B D"><use xlink:href="#CC"/><use xlink:href="#CD"/><use xlink:href="#CE"/><use xlink:href="#CF"/></g><use xlink:href="#CC"/><use xlink:href="#CD"/><use xlink:href="#CE"/><use xlink:href="#CF"/><use xlink:href="#B"/></g></g></g><defs ><path id="B" d="M384.5 357.3c-.056.297.747.736.938.508.864-1.035 1.995-3.067 2.227-4.297.068-.358-1.083-.763-1.33-.47-.81.97-1.593 2.966-1.836 4.258z"/><path id="C" d="M276.43 420.33c-.86 3.04-13.554-2.866-14.97-5.925 7.263 3.85 15.145 3.044 14.97 5.925z"/><path id="D" d="M236.3 358.23c.635.755 1.704.25.73-.773-.798-.826-.535-1.086-1.02-2.093-.48-1.124-.456-1.745-1.036-2.548-.513-.762-1.285.015-.768.657.65.758.47 1.318.867 2.05.733 1.256.555 1.915 1.23 2.705z"/><path id="E" d="M253.37 378.84c2.042 1.004 3.592 3.512 3.694 5.555.173 2.35.512 4.336 1.568 6.007-1.68-.468-2.486-3.147-2.725-5.713-.242-2.656-1.673-3.808-2.537-5.85z"/><path id="F" d="M257.63 383.76c1.413 2.608 3.39 3.603 3.5 5.54.17 2.227.34 2.34.944 4.532-1.663-.443-2.082-.588-2.53-3.92-.277-2.342-2.152-3.994-1.903-6.15z"/><path id="G" d="M290.64 397.78c2.162 1.77 3.565 3.793 4.22 6.406.682 2.434 1.64 4.375 3.048 6.563-2.292-1.563-3.733-3.69-4.454-6.25-.633-2.518-1.38-4.4-2.813-6.718z"/><path id="H" d="M331.1 397.78c-2.2 1.78-3.644 3.815-4.313 6.444-.697 2.448-1.677 4.4-3.116 6.602 2.343-1.572 3.816-3.71 4.553-6.288.647-2.533 1.41-4.426 2.875-6.757z"/><path id="I" d="M328.4 397.78c-2.37 1.86-4.603 3.973-5.27 6.602-.697 2.448-1.118 4.322-2.716 6.76 2.502-1.572 3.496-3.947 4.233-6.524.647-2.532 2.13-4.425 3.755-6.836z"/><path id="J" d="M320.54 403.95c.064-.457-.248-.856-.622-.976l-2.177-.703c-.82-.195-1.28.394-1.284.78v1.68c.045.608.16.653.544.743.615.104 1.403.2 2.022.625.5.302.96.063 1.205-.468.158-.406.245-1.2.312-1.68z"/><path id="K" d="M311.7 403.95c-.057-.457.183-.895.518-1.015.65-.274 1.3-.34 1.983-.313.76-.012.95.16.953.547v1.757c-.04.608-.027.653-.37.743-.55.104-1.487.132-2.04.547-.437.302-.936.063-.96-.507a15.26 15.26 0 0 0-.084-1.759z"/><path id="L" d="M300.95 403.83c-.064-.457.25-.856.625-.976l2.187-.703c.825-.195 1.287.394 1.3.78v1.68c-.045.608-.16.653-.547.743-.618.104-1.4.2-2.03.625-.492.302-.965.063-1.21-.468-.16-.406-.246-1.2-.313-1.68z"/><path id="M" d="M309.84 403.83c.057-.457-.184-.895-.52-1.015-.654-.274-1.305-.34-1.992-.313-.763-.012-.955.16-.958.547v1.757c.04.608.027.653.372.743.552.104 1.494.132 2.048.547.44.302.94.063.965-.507-.01-.43.025-1.278.085-1.76z"/><path id="N" d="M275.12 343.6c-1.033-1.66-2.27 2.3-6.52 5.25-1.978 1.346-3.356 4.933-3.37 7.293-.065 1.62.18 3.238-.001 4.806-.114.992-1.148 3.194-.44 3.757 1.87 1.4 4.29 4.546 5.414 5.635.97.85 1.812-4.393 2.54-6.74.78-2.515.43-5.52 2.597-7.845 1.535-1.57 5.407-3.113 4.972-3.812l-5.194-8.343z"/><path id="O" d="M275.29 340.9c0 .946-.767 1.713-1.713 1.713s-1.713-.767-1.713-1.713.767-1.713 1.713-1.713 1.713.767 1.713 1.713z"/><path id="P" d="M346.783 344.112c1.032-1.717 2.27 2.382 6.516 5.433 1.977 1.393 3.354 5.106 3.367 7.548.065 1.678-.18 3.35.001 4.974.114 1.027 1.147 3.306.44 3.888-1.87 1.44-4.29 4.705-5.41 5.832-.97.88-1.81-4.547-2.54-6.976-.78-2.603-.43-5.714-2.596-8.12-1.534-1.624-5.404-3.222-4.97-3.945l5.19-8.635z"/><path id="Q" d="M346.613 341.317c0 .98.766 1.773 1.712 1.773s1.712-.794 1.712-1.773-.766-1.773-1.712-1.773-1.712.794-1.712 1.773z"/><path id="R" d="M287.63 319.22l6.68.04c.26-2.265-2-4.712-3.32-4.687-1.305.063-3.412 2.474-3.36 4.648z"/><path id="S" d="M282.98 336.9l3.83 4.22 47.658.078 3.907-4.22-12.188-.156-5.938-4.14-19.142-.078-5.547 4.297h-12.58z"/><path id="T" d="M307.83 371.37l1.29 3.867h2.93l-2.343-3.868h-1.875zm-1.64 3.867l.742 3.828 3.437.04-1.25-3.868-2.93.001zm5.82.04l2.383 3.79h4.883l-3.828-3.83-3.438.04zm-28.83 8.672c2.59-2.41 4.245-4.466 4.258-7.422h6.328c.013 1.654.612 2.643 1.524 2.578l6.407-.04-.04-3.79h-4.65l-.001-20.666c-.17-7.305 8.88-11.563 12.58-11.524l-21.994-.04v-.664h46.253l.04.664-22.306.04c6.615.013 12.995 6.277 13.048 11.564v5.86h-.86l-.04-5.78c0-5.782-7.282-11.186-13.126-11.017-5.053.145-12.89 4.962-12.813 10.978v1.797l11.993.078-.117 2.07 1.883 1.202 3.756 1.197-.055 3.105 2.7.793.023 3.102 3.227 1.385v3.21l2.047 1.26-.094 3.26 2.774 1.953h-6.563l4.102 4.57H317.4l-3.01-4.57h-3.984l1.797 4.53-4.257-.04-1.017-4.492h-5.195l.04 4.843-18.595.001zm18.556-12.54v3.828h4.454l-.9-3.828h-3.554z"/><path id="U" d="M259.324 314.535c3.688 1.283 6.608-2.69 7.595-7.29-3.044 4.2-7.998 4.206-7.595 7.29z"/><path id="V" d="M256.526 318.83c-2.884-.762-1.147-9.802-.623-13.418.634 3.735 2.622 12.18.623 13.418z"/><path id="W" d="M253.98 322.73c-2.858-.77-1.14-10.5-1.302-14.506.838 3.46 3.49 13.568 1.302 14.506z"/><path id="X" d="M251.846 327.024c-2.733.218-1.5-8.068-1.508-15.785 1.004 7.213 3.74 13.816 1.508 15.785z"/><path id="Y" d="M252.796 326.65c1.846.926 5.153-.554 6.097-3.672-3.335 1.45-5.565.033-6.097 3.672z"/><path id="Z" d="M274.25 308.12c-.486 4.042-2.138 6.394-4.606 6.005-.68-2.585 1.32-4.237 4.606-6.005z"/><path id="a" d="M266.56 318.03c-2.235-2.682-.075-6.05 1.633-8.92-.367 4.27 1.088 6.647-1.633 8.92z"/><path id="b" d="M265.57 322.46c-.252-2.623 4.217-3.206 6.238-4.664-.68 1.516-1.7 5.597-6.238 4.664z"/><path id="c" d="M358.68 326.77c-4.042.952-5.344-1.185-6.355-4.78 3.284 3.012 5.11 1.593 6.355 4.78z"/><path id="d" d="M357.536 303.833c.506 2.334-.47 6.943 3.26 6.907 1.56-2.637-1.765-5.117-3.26-6.907z"/><path id="e" d="M363.607 318.544c-3.613.232-4.566-2.414-4.988-3.924 1.94 1.398 5.007.74 4.988 3.924z"/><path id="f" d="M367.236 322.528c2.778-.117 1.75-10.655 1.365-13.982-.275 3.54-3.172 12.7-1.365 13.982z"/><path id="g" d="M369.467 326.908c2.974 1.21 1.907-12.53 1.522-15.7-.275 4.048-3.797 14-1.522 15.7z"/><path id="h" d="M366.62 343.2c.368-3.59-2.38-10.115-.43-13.594.266-.478-.584-1.747-1.133-.977-.858 1.23-1.74 4.73-2.11 3.438-.39-1.406-.45-3.893-1.72-4.376-.81-.283-1.953-.468-1.64.782.3 1.202 1.004 2.862.235 2.97-.446.065-1.73-1.636-2.813-2.422-.872-.7-2.173.396-.898 1.445 4.144 3.38 8.16 4.9 10.508 12.735z"/><path id="i" d="M377.026 340.81c1.012-1.062.72-1.468-.777-1.485-1.187-.075-3.54.73-4.433.078-.818-.597-.493-3.13-.856-4.297-.158-.65-.612-1.673-1.632-.078-3.018 4.86-6.786 10.692-8.398 16.407-.88 3.203-.44 8.36 2.955 11.094l2.4-7.032c1.146-3.343 7.312-11.365 10.73-14.687z"/><path id="j" d="M380.264 344.344c2.237 1.188 4.648-4.514 4.147-9.005-1.127 3.85-4.92 6.226-4.147 9.005z"/><path id="k" d="M379.435 344.227c.347-3.11-.93-3.027-2.603-5.998.177 3.356 1.013 6.17 2.603 5.998z"/><path id="l" d="M380.174 348.786c2.61.74 5.603-5.475 5.49-10.07-1.087 5.085-6.754 7.117-5.49 10.07z"/><path id="m" d="M380.078 353.357c3.388.583 5.135-6.897 6.818-10.48-3.332 4.696-7.324 7.31-6.818 10.48z"/><path id="n" d="M380.267 357.852c2.142.155 5.994-5.827 6.077-9.522-1.83 4.07-7.574 6.765-6.077 9.522z"/><path id="o" d="M378.754 362.347c3.778.66 4.745-4.32 6.974-9.385-2.2 4.032-7.167 6.295-6.974 9.385z"/><path id="p" d="M378.487 361.654c1.225-2.602-1.613-2.604-3.127-6.492-.078 5.5.874 7.114 3.127 6.492z"/><path id="q" d="M364.757 366.448c-3.318.016-3.966-4.687-3.966-5.937 1.633.312 4.59 3.28 3.966 5.937z"/><path id="r" d="M369.758 365.43c1.303-2.992-1.535-2.604-3.205-6.296-.078 5.5.835 6.684 3.205 6.296z"/><path id="s" d="M370.63 364.958c2.41.505 4.237-3.186 3.966-5.713-1.886 2.352-4.472 2.545-3.966 5.713z"/><path id="t" d="M385.734 358.78c.296-.385 1.145.01.933.938-.197 1.256-2.04 7.704-5.208 9.922-2.26 1.636-14.133 4.27-19.516 5.4-2.963.6-5.444 2.084-7.388 4.454.804-3.1 1.45-5.395 2.488-8.203 1.01-2.468 3.683-5.168 6.453-5.313 5.144-.186 11.802-.626 16.64-2.735 2.497-1.048 3.992-2.464 5.598-4.453z"/><path id="u" d="M376.814 378.708c2.61.82 5.564-3.912 7.718-5.967-2.455 2.116-9.88 3.132-7.718 5.967z"/><path id="v" d="M373.572 382.258c.932 1.25 7.83-3.053 9.554-6.24-5.892 4.382-11.1 3.797-9.554 6.24z"/><path id="w" d="M374.723 384.688c.85 1.365 6.112-2.248 8.38-6.18-3.49 3.055-9.356 3.873-8.38 6.18z"/><path id="x" d="M374.125 388.003c.658.78 8.416-4.656 8.304-6.866-2.455 3.522-10.66 4.226-8.304 6.866z"/><path id="y" d="M370.045 391.45c.42 1.443 6.737-1.233 9.787-5.635-3.684 2.86-10.84 3.25-9.787 5.635z"/><path id="z" d="M365.965 395.815c1.36 2.264 9.197-1.882 10.335-5.772-2.533 3.366-11.285 2.858-10.335 5.772z"/><path id="AA" d="M369.558 397.58c1.44.155 4.783-2.585 5.725-4.014-2.69 1.334-6.324 3.17-5.725 4.014z"/><path id="AB" d="M361.424 378.864c1.322.74 4.666-2.818 4.24-5.147-1.87 2.976-5.62 3.835-4.24 5.147z"/><path id="AC" d="M357.518 384.092c1.284 1.25 7.596-5.163 9.476-8.077-5.462 4.655-11.05 5.828-9.476 8.077z"/><path id="AD" d="M356.01 387.933c1.005 1.52 5.213-3.068 7.873-6.884-3.372 3.328-9.083 4.85-7.873 6.884z"/><path id="AE" d="M356.438 384.277c1.03-2.718-.676-3.15-1.447-6.53-1.523 1.868-1.352 7.035 1.447 6.53z"/><path id="AF" d="M333.926 407.975c-.874.1-1.427 1.822-1.857.663-.73-1.877-.218-3.37.6-3.205.968.26 2.604 2.456 1.256 2.542z"/><path id="AG" d="M342.496 402.872c.436 1.972 5.274-.06 6.214-2.822-3.44 2.007-6.833-.18-6.214 2.822z"/><path id="AH" d="M339.406 406.15c.292 2.625 5.267-.314 8.162-1.928-3.824.593-8.592-.648-8.162 1.928z"/><path id="AI" d="M359.004 408.51c1.36 2.263 6.384-1.648 9.124-3.663-3.94 1.217-10.074.75-9.124 3.663z"/><path id="AJ" d="M353.876 410.86c.5 2.596 8.965.454 10.173-1.47-3.896 1.65-10.637-.772-10.173 1.47z"/><path id="AK" d="M346.5 414.535c.02 1.307 7.56 2.055 10.095-.064-5.068.752-10.598-3.077-10.095.064z"/><path id="AL" d="M340.42 414.106c1.85 1.696 6.602-5.88 8.15-9.217-3.658 3.814-10.26 7.734-8.15 9.217z"/><path id="AM" d="M345.807 412.82c2.2 1.462 4.22-3.886 5.337-7.81-2.095 3.384-7.445 5.586-5.337 7.81z"/><path id="AN" d="M345.832 420.18c1.084 2.76 12.483-2.413 14.394-5.864-3.662 3.095-15.455 2.674-14.394 5.864z"/><path id="AO" d="M254.963 343.434c-.36-3.59 2.338-10.115.422-13.594-.26-.478.573-1.747 1.112-.977.842 1.23 1.708 4.73 2.07 3.438.384-1.406.443-3.893 1.688-4.376.794-.283 1.918-.468 1.61.782-.304 1.202-.986 2.862-.23 2.97.438.065 1.7-1.636 2.762-2.422.856-.7 2.134.396.882 1.445-4.07 3.38-8.01 4.9-10.318 12.735z"/><path id="AP" d="M247.655 397.456c-.477-.092-1.132-.254-.536.49 4.754 5.856 6.13 7.47 13.06 6.646 7.002-.922 8.67-2.816 13.572-5.567 2.62-1.536 6.448-1.877 9.35-.925 1.35.442 2.17.47 1.2-.5s-2.114-2.286-3.305-3.194c-2.6-2.004-7.037-2.873-10.65-2.228-5.1.8-9.332 4.055-14.377 5.284-2.65.605-5.56.514-8.314-.004z"/><path id="AQ" d="M287.66 407.92c.884.1 1.444 1.822 1.88.663.738-1.877.22-3.37-.608-3.205-.98.26-2.635 2.456-1.27 2.542z"/><path id="AR" d="M284.77 409.465c.156 2.714-6.662-.355-8.414-2.466 4.028 1.71 8.215.295 8.414 2.466z"/><path id="AS" d="M281.78 405.583c.244 2.63-5.913.317-7.733-1.736 4.043 1.306 7.464-.428 7.733 1.736z"/><path id="AT" d="M279.167 402.347c.244 2.708-4.545.63-6.404-1.933 4.004 1.307 6.135-.23 6.404 1.933z"/><path id="AU" d="M289.533 412.54c.156 2.714-6.663 1.364-8.805-1.528 4.3.813 8.606-.643 8.805 1.528z"/><path id="AV" d="M244.38 340.6c-1.017-1.062-.723-1.468.78-1.485 1.193-.075 3.557.73 4.454.078.822-.597.495-3.13.86-4.297.16-.65.615-1.673 1.64-.078 3.032 4.86 6.82 10.692 8.438 16.407.885 3.203.052 8.203-2.89 11.563.104-2.865-.964-4.792-2.266-7.188-1.608-3.15-7.58-11.678-11.016-15z"/><path id="AW" d="M256.88 366.14c3.334.016 3.907-4.453 3.907-5.703-1.64.312-4.532 3.047-3.907 5.703z"/><path id="AX" d="M267.01 408.84c1.553-1.117-1.618-3.993-4.144-4.67.29 1.784 2.404 5.703 4.144 4.67z"/><path id="AY" d="M267.5 410.716c.166 2.435-7.984 1.1-10.115-1.15 7.012 1.268 9.886-.935 10.115 1.15z"/><path id="AZ" d="M280.224 415.08c1.282 2.398-6.352 2.63-8.828 1.45 4.413-.607 7.736-3.338 8.828-1.45z"/><path id="Aa" d="M275.592 412.593c-2.037 1.805-3.666-4.39-5.52-7.868 2.997 3.3 7.4 6.37 5.52 7.868z"/><path id="Ab" d="M281.278 414.325c-1.725 2-6.713-5.875-8.527-9.978 2.762 3.194 9.9 8.283 8.527 9.978z"/><path id="Ac" d="M235.63 358.56c-.297-.385-1.15.01-.937.938.198 1.256 2.05 7.704 5.233 9.922 2.27 1.636 14.2 4.27 19.6 5.4 2.977.6 5.47 2.084 7.423 4.454-.808-3.1-1.457-5.395-2.5-8.203-1.014-2.468-3.7-5.168-6.484-5.313-5.17-.186-11.86-.626-16.72-2.735-2.51-1.048-4.01-2.464-5.625-4.453z"/><path id="Ad" d="M266.828 388.02c2.254.692 2.96-3.296 1.475-6.485.248 3.427-3.544 5.49-1.475 6.485z"/><path id="Ae" d="M267.64 391.428c-.863 2.578-5.865-2.223-6.708-4.834 3.105 3.085 7.33 2.744 6.708 4.834z"/><path id="Af" d="M265.376 387.48c-.98 2.578-7.27-4.06-8.662-7.256 3.105 3.085 9.362 5.44 8.662 7.256z"/><path id="Ag" d="M264.124 383.618c-.98 2.93-7.82-4.88-9.755-7.647 3.262 3.046 10.494 5.518 9.755 7.647z"/><path id="Ah" d="M263.913 380.717c2.408-.468-.137-2.474-3.088-5.733-.138 3.432.425 5.83 3.088 5.733z"/><path id="Ai" d="M259.846 378.774c1.04-1.132-.997-1.615-3.518-4.445-.372 1.908 2.34 5.402 3.518 4.445z"/><path id="Aj" d="M242.88 374.46c-2.798 1.677-7.242-5.016-8.427-7.77 2.455 3.16 8.956 6.047 8.427 7.77z"/><path id="Ak" d="M245.266 378.355c-1.548 1.717-6.42-2.945-8.115-5.308 2.612 2.262 8.8 2.53 8.115 5.308z"/><path id="Al" d="M247.92 381.856c-.51 2.345-7.623-2.926-9.285-5.42 3.066 2.89 9.75 2.628 9.285 5.42z"/><path id="Am" d="M246.823 384.4c-1.097 2.11-6.88-3.12-8.27-5.848 3.534 3.084 9.165 3.76 8.27 5.848z"/><path id="An" d="M243.857 374.112c1.825-1.924 1.048-2.826-.283-5.86-.727 3.114-1.824 4.357.283 5.86z"/><path id="Ao" d="M247.606 387.373c-.863 2.578-7.388-3.395-8.427-5.655 3.3 2.772 9.01 3.72 8.427 5.655z"/><path id="Ap" d="M255.492 395.454c-1.096 3.594-8.248-2.144-10.38-4.95 4.55 3.475 10.962 2.393 10.38 4.95z"/><path id="Aq" d="M248.773 386.225c1.942 1.005 2.727-4.507 1.63-8.398.015 4.247-3.895 7.404-1.63 8.398z"/><path id="Ar" d="M250.1 357.28c-3.655-.44-3.105-5.166-3.215-8.162 1.1 4.067 4.095 4.754 3.215 8.162z"/><path id="As" d="M250.67 356.66c3.092-.18 2.928-3.697 3.093-7.256-1.567 3.27-3.423 3.78-3.093 7.256z"/><path id="At" d="M250.55 361.03c-2.405.192-3.655-2.17-4.205-5.854 2.28 3.394 4.356 2.336 4.205 5.854z"/><path id="Au" d="M251.4 360.74c3.092.398 2.598-3.202 2.474-5.855-.948 2.53-3.463 3.326-2.474 5.855z"/><path id="Av" d="M251.45 364.95c-1.072-2.06 2.432-3.093 3.174-5.772.426 3.834.07 6.35-3.174 5.772z"/><path id="Aw" d="M242.117 344.317c2.39-1.234 1.834-3.892 2.585-5.89-1.606 2.45-3.07 2.802-2.585 5.89z"/><path id="Ax" d="M241.45 348.817c-3.537.303-5.644-7.315-5.754-10.31 1.1 4.067 6.166 6.278 5.754 10.31z"/><path id="Ay" d="M242.122 348.702c3.326-.765 2.928-2.916 2.43-6.397-1.06 3.506-2.915 2.763-2.43 6.397z"/><path id="Az" d="M241.403 353.214c-3.89.66-3.616-5.492-6.704-9.955 2.67 3.315 7.48 7.492 6.704 9.955z"/><path id="BA" d="M242.28 353.004c2.936.085 3.223-4.335 3.06-6.128-.675 1.786-4.127 3.482-3.06 6.128z"/><path id="BB" d="M235.33 348.478c1.458 4.733 3.53 9.476 6.076 9.116 1.223-2.69-2.416-3.034-6.076-9.116z"/><path id="BC" d="M236.335 353.886c2.082 4.264 3.02 9.164 5.88 8.452 1.067-3.316-3.157-4-5.88-8.452z"/><path id="BD" d="M242.8 361.532c-1.228-2.256 2.276-3.054 3.135-6.163.465 4.07.03 6.974-3.135 6.163z"/><path id="BE" d="M242.23 330.94c.18.97 1.36 1.058 1.016-.312-.286-1.112-.335-1.948 0-2.852.46-1.133.306-3.062-.04-3.867-.348-.85-1.5-.352-1.016.313.534.77.562 2.375.195 3.124-.483 1.106-.352 2.574-.156 3.594z"/><path id="BF" d="M249.33 327.25c-.195 1.515-1.477 1.652-1.104-.487.31-1.737.364-3.042 0-4.454-.5-1.77-.333-4.782.042-6.04.378-1.328 1.63-.55 1.104.49-.58 1.204-.61 3.71-.212 4.88.525 1.727.383 4.02.17 5.613z"/><path id="BG" d="M258.88 342.4c-.793 1.166-2.056.49-1.34-1.383.605-1.296.67-2.903 1.343-3.85.942-1.437 2.537-2.634 3.442-3.503.936-.926 1.712-.034.854.76-1.042 1.042-2.172 2.34-2.8 3.323-1.17 1.91-.656 3.432-1.5 4.655z"/><path id="BH" d="M242.54 131.62c.18.97 1.484.926 1.14-.444-.286-1.112-.933-2.18-.598-3.085.46-1.133.57-3.08.226-3.884-.348-.85-1.47-.28-.985.385.534.77.114 2.925-.253 3.674-.483 1.106.273 2.334.47 3.354z"/><path id="BI" d="M245.707 336.375c-.094 1.646 1.23 2.045 1.172-.342-.06-2.493-1.824-4.773-.742-8.568.57-1.856.58-5.258.234-7.066-.303-1.793-1.58-.622-1.094.775.534 1.62-.1 4.725-.508 6.287-1.225 4.548 1 6.764.938 8.914z"/><path id="BJ" d="M334.74 427.43c.04.99.157 1.784.743 2.578-3.412-1.367-8.23-.635-11.524.9-1.47.702-3.248-.802-1.524-2.227 2.452-1.987 8.125-.86 12.305-1.25zm-48.136-.052c.048.932-.06 1.786-.403 2.6 3.71-1.536 7.69-.26 11.438 1.25 2.576 1.065 2.784-.78 2.33-1.417-.782-1.132-2.295-2.375-4.21-2.402l-9.155-.032zm3.13-18.116c-1.035-.446-2.237-.017-3.315 1.118-3.622 3.55-7.872 7.007-11.302 9.697-1.28 1.112-2.588 3.107 2.872 5.1.198.075 4.178 1.55 6.7 1.644 1.03-.03 1.027 1.51.836 1.92-.435.82-.12 1.132-1 1.92-.916.773.098 1.774.818 1.094 3.074-2.67 8.06-.96 12.863.6 1.135.314 3.212.226 3.194-1.34.02-1.706 1.256-2.912 2.012-2.956 1.96.34 11.65.448 14.636.085 1.74-.226 1.845 2.384 2.776 3.413.642.682 3.113.863 4.807.115 3.35-1.556 8.452-1.556 10.532-.07.855.65 1.53.123 1.044-.538-.626-.904-.612-1.323-.923-2.037-.78-1.59-.158-1.978.66-2.093 9.253-1.193 12.206-4.35 9.377-6.924-3.653-3.204-7.72-6.425-11.224-10.21-.95-1.004-1.578-1.407-3.555-.585-6.045 2.753-13.718 4.76-21.227 4.907-6.987.06-16.594-3.172-20.583-4.86z"/><path id="BK" d="M353.79 391.646c.42 1.443 6.2-1.194 9.123-6.963-3.84 4.188-10.058 4.147-9.123 6.963z"/><path id="BL" d="M363.404 382.87c-1.757 2.443-4.103 4.2-4.21 6.146-.18 2.227-.357 2.34-.99 4.532 1.743-.443 2.18-.588 2.652-3.92.3-2.342 2.807-4.602 2.546-6.756z"/><path id="BM" d="M366.252 379.505c-2.14 1.004-2.625 2.667-2.7 4.726-.042 2.384-.646 4.226-1.753 5.897 2.203.305 2.604-3.147 2.855-5.713.254-2.656.703-2.87 1.608-4.9z"/><path id="BN" d="M372.23 327.137c.19 1.515 1.454 1.652 1.087-.487-.306-1.737-.358-3.042 0-4.454.49-1.77.327-4.782-.042-6.04-.372-1.328-1.605-.55-1.087.49.57 1.204.6 3.71.21 4.88-.517 1.727-.376 4.02-.167 5.613z"/><path id="BO" d="M375.805 336.265c.093 1.646-1.212 2.045-1.154-.342.06-2.493 1.795-4.773.73-8.568-.56-1.856-.57-5.258-.23-7.066.298-1.793 1.554-.622 1.077.775-.526 1.62.098 4.725.5 6.287 1.206 4.548-.994 6.764-.923 8.914z"/><path id="BP" d="M379.225 330.83c-.176.97-1.338 1.058-1-.312.282-1.112.33-1.948 0-2.852-.452-1.133-.3-3.062.038-3.867.343-.85 1.477-.352 1 .313-.526.77-.553 2.375-.192 3.124.475 1.106.346 2.574.154 3.594z"/><path id="BQ" d="M372.108 332.725c-1.707.725-3.914-4.128-2.283-5.038 1.264-.318 4.16 4.115 2.283 5.038z"/><path id="BR" d="M293.3 397.78c2.318 1.85 4.503 3.95 5.157 6.563.682 2.434 1.094 4.297 2.657 6.72-2.448-1.563-3.42-3.924-4.14-6.486-.633-2.517-2.084-4.4-3.673-6.796z"/><path id="BS" d="M327.18 376.52h6.993c.026 2.643 1.575 5.482 3.75 7.11h-13.4c2.097-1.9 2.67-4.154 2.657-7.1z"/><path id="BT" d="M285.5 283.37c-.057-1.154 1.732-1.242 1.527.345-.262 1.977 3.732 6.983 4.063 10.07.222 2.07-1.216 3.882-2.64 5.01-1.746 1.353-4.43 1.166-5.687.39-.76-.612-1.453-2.707-.884-3.536.2-.28 1.11 3.075 3.115 3.062 2.727-.018 4.936-2.066 5.017-3.893.14-3.182-4.46-8.21-4.51-11.447z"/><path id="BU" d="M294.68 288.38c-.228.11-.68-.046-.546-.24.638-.91 1.998-2.284 2.984-2.762.303-.147.833.388.65.65-.6.843-2.026 1.837-3.088 2.353z"/><path id="BV" d="M305.23 280c.253-.528 1.772-1.125 2.16-1.482.358-.366.53.3.376.63-.253.528-1.564 1.42-2.14 1.443-.31.013-.55-.27-.396-.6z"/><path id="BW" d="M308.83 280.18c.33-.927 1.4-2.332 2.12-2.795.375-.237 1.048-.05.922.305-.28.786-1.577 2.16-2.45 2.808-.265.236-.668-.103-.592-.318z"/><path id="BX" d="M305.74 282.5c-.22.1-.1.58.11.65.45.15 1.272.18 1.644-.026.54-.333.294-2.38-.43-1.287-.485.675-.84.458-1.326.663z"/><path id="BY" d="M299.64 287.2c-1.103-.86.297-2.062 1.45-1.222 2.246 1.694-3.35 8.185-6.396 11.22-.557.594-1.046-.902-.332-1.547 2.183-1.852 4.227-4.064 5.648-6.35.274-.44.536-1.39-.37-2.1z"/><path id="BZ" d="M312.42 281.62c.137-.822-1.33.017-1.357-1.073-.014-.577 1.603-.98 2.28-.318 1.142 1.16.288 3.113-1.61 3.236-1.583.07-4.224 2.248-3.822 2.705.457.565 4.562.94 6.95.565 1.478-.207 1.168 1.115-.346 1.293-1.463.17-2.655.012-4.022.442-1.61.46-2.31 2.62-3.205 3.425-.2.14-.736-.708-.532-1.027.644-1.007 1.67-2.55 2.8-3 .713-.29-1.966-.38-2.82-.624-.678-.204-.48-1.066-.22-1.547.345-.75 2.87-3.278 3.888-3.237.956.04 1.925-.238 2.02-.852z"/><path id="Ba" d="M316.68 281.84c.475-.42.718-1.12 1.216-1.547.273-.273.71.054.636.714-.06.52-.76.968-1.228 1.358-.382.286-.826-.332-.624-.526z"/><path id="Bb" d="M320.3 284.13c-.01 1.175.57 1.067 1.676 1.027 1.074-.04 2.02.028 2.015-1.034-.005-1.1-.61-2.062-.786-1.314-.156.703-.28 1.854-.69 1.353-.386-.43-.233-.526-.897.182-.368.4-.4-.19-.63-.553-.154-.215-.687.174-.688.338z"/><path id="Bc" d="M312.6 290.13c-.264 1.555-.022 3.732.774 3.757.984.032 3.02-3.4 3.984-5.18.578-.993 1.57-1.167 1.157-.13-.627 1.6-.57 5.02-.02 6.026.296.54 2.48-.497 2.834-1.268.642-1.402.12-3.986.345-5.564.11-1.036 1.057-1.252 1.007-.292l-.136 6.298c.072.822 2.423 2.036 2.8-.454.2-1.567 1.006-3.113-.04-4.85-.648-1.086.95-.95 1.813.534.603 1.01-.508 2.68-.47 3.97.1 1.986-1.445 3.115-2.566 3.14-1.002.02-1.655-1.21-2.476-1.228-.91-.058-1.847 1.417-2.6 1.365-2.918-.2-1.373-4.465-2.262-4.517-.99-.058-2.155 4.18-3.373 4.03-1.2-.144-2.444-3.454-1.944-4.855.452-1.303 1.304-1.608 1.17-.78z"/><path id="Bd" d="M326.72 283.4c-1.424-.87.1-3.127.786-2.334 1.344 1.6 2.7 5.43 3.646 5.746.6.2.572-2.824.995-4.2.273-1.016 1.5-.684 1.266.617-.08.435-1.604 5.375-1.487 5.57 1.056 2.11 2.1 4.253 2.762 6.52.273.977-.9.32-1.04.116-.75-1.12-2.06-5.4-2.06-5.206l-1.385 6.46c-.195.82-1.402.67-1.13-.773l1.89-7.195c-1.357-2.395-2.598-4.3-4.244-5.323z"/><path id="Be" d="M329.3 297.3c-.397-.045-1.013.883.964 1.248 2.642.478 5.534-.412 6.42-3.002l2.216-7.1c.662-1.285 1.51-1.18.884-3.056-.44-1.35-1.264-.942-1.437-.22-.462 1.967-2.215 8.33-2.762 9.503-1.032 2.14-3.112 2.985-6.285 2.64z"/><path id="Bf" d="M334.58 287.14c-.283-.607-.943-.137-.825.527a1 1 0 0 0 1.046.91c.58-.02 1.804.02 1.807-.942.002-.675-.53-1.24-.923-.494-.377.675-.862.604-1.105 0z"/><path id="Bg" d="M335.24 284.6c-.203.14-.02.892.22.884.863-.03 2.086-.304 2.74-.76.192-.133.112-.587-.16-.578-.832.028-2.156.006-2.8.454z"/><path id="Bh" d="M342.57 286.5c.625-.977 2.35-1.076 1.73.318a511.34 511.34 0 0 1-5.317 10.308c-.64 1.186-1.162.6-.708-.325.61-1.188 4.1-10.013 4.296-10.302z"/><path id="Bi" d="M336.1 298.84c-.183-.66-1.207-1.636-1.092.13.204 3.205 4.607 2.192 5.94 1.053 1.2-1.072.16 3.618 1.768 4.12.886.284 2.554-.925 3.374-1.99 2.274-2.95 3.72-7.18 5.908-10.094.826-1.14-.452-1.952-.97-1.046-1.902 3.19-4.264 9.697-6.844 11.388-2.103 1.346-1.48-1.733-1.553-2.658-.092-.68-.92-1.677-2.022-.76-.77.602-1.97 1.092-3.054.994-.63-.035-1.16-.024-1.456-1.137z"/><path id="Bj" d="M343.97 292.9c.023-.18-.93-.263-.884.663.033.685.853.872.994.774 1.3-.938-.274-.47-.1-1.437z"/><path id="Bk" d="M342.1 296.64c-.254.06-.487.87.11.916.547.04 2.7-.19 3.282-.156.383-.014.53-.747-.292-.708-.996.05-2.305-.2-3.1-.052z"/><path id="Bl" d="M356.28 295.7c.88-3.294 3.008.508 1.133 2.383-2.895 2.836-3.767 8.248-8.36 9.063-1.238.266-3.417-.557-4.063-1.016-.252-.18.163-1.355.937-.78 1.12.874 3.43 1.07 4.65.078 2.6-2.562 4.735-5.955 5.703-9.728z"/><path id="Bm" d="M308.56 303c-.207.238-.84.2-.897.533-.25 1.24 0 1.867-.273 3.06-.26 1.142-1.054 1.185-1 .254.072-1.207 1.067-2.91.364-3.028-.468-.1-.83-.736-.345-1.045.914-.634 1.405-.537 2.033-.346.22.067.275.39.118.572z"/><path id="Bn" d="M307.92 301.4c-1.212 1.06-2.336 1.493-3.45 2.833-.456.55-.443 1.314-.715 2.014-.273.743-1.15.89-1.423.734-.455-.3-.39-1.677-.897-.935-.43.683-.71 1.624-1.346 1.612-.576-.012-1.663-1.2-1.112-1.247 1.885-.193 1.862-1.702 2.568-1.8.792-.106.844 1.246 1.333.975.384-.197.565-1.772.982-2.197 1.278-1.306 2.29-1.996 3.593-2.956.66-.526 1.13.423.468.968z"/><path id="Bo" d="M312.34 305.45c-.97.196-.805 1.443-.52 1.598.47.22 1.197.31 1.47-1.123.127-.59.242 2.928 1.533 1.573.743-.82 2.584.15 3.355-.884.552-.688.722-1.168.292-2.184-.125-.31-.88-.157-.838.593.038.632-.448 1.412-1.08 1.28-.307-.056.173-1.546-.135-1.95-.17-.222-.428-.198-.597.032-.237.322.238 1.75-.54 1.938-.983.227-.468-.955-.884-1.17-1.338-.675-1.467.175-2.054.3z"/><path id="Bp" d="M319.9 303.05c.71-.2.49-.2 1.608-1.117.436-.33.522.636.476 1.018-.08.65-.852.19-1.09.762-.35.742-.208 2.468-.325 3.17-.08.36-.66.33-.714.045-.166-.857.117-1.696.1-2.768-.01-.364-.53-.935-.044-1.11z"/><path id="Bq" d="M316.57 299.2c-.172.776-.16 1.415-.16 1.947.04.43.825.153.822.098-.04-.68.116-1.623-.085-1.886-.11-.142-.538-.305-.578-.16z"/><path id="Br" d="M290.24 282.7c.34.016 1.272 1.224 1.21 1.602-.042.178-.997-.026-1.29-.273-.216-.183-.13-1.338.078-1.328zm-4.494 8.75c-.852.465.135 1.382.773.994 2.395-1.55 5.99-3.18 6.74-6.25.24-1.04 1.208-2.635 2.126-2.99.887-.344 2.175 1.605 3.016.07.493-.877 2.22.575 2.638-.363.508-1.133.266-1.757.287-2.842-.037-.71-.58-.923-.974.228-.205.52.036 1.047-.13 1.32-.127.207-.523.407-.753.234-.212-.16-.065-.603-.573-.8-.197-.1-.513-.18-.65.07-.603 1.075-.937 2.078-1.78.935-.752-.984-1.133-2.686-1.684-.357-.198.822-1.447 2.015-2.184 2.015-.92 0-.69-2.422-2.7-2.054-1.04.222-.967 2.2-.812 2.944.255 1.02 3.29.288 3.14.955-.52 2.32-3.74 4.525-6.468 5.89z"/><path id="Bs" d="M266.74 302.5c-.13.388.387 1.442.922 1.52.525.04.793-1.138.624-1.52-.125-.28-1.454-.275-1.546 0z"/><path id="Bt" d="M269.52 306.6c-.337-.363-1.33.61-.527 1.3.45.365 2.103.895 2.555.124.612-.992-.603-4.594-.065-5.07.42-.372 2.367 2.406 3.328 2.606 2.258.313 1.716-3.866 4.15-3.582 1.658.22 1.84-1.85 1.61-3.145-.185-1.24-2.195-3.033-3.12-3.835-1.216-1.012-1.758.746-.995 1.326.982.786 2.71 2.375 2.984 3.426.13.496-1.2 1.482-1.7 1.215-1.13-.617-2.183-3.263-3.172-3.867-.337-.206-1.166.26-.767 1.085.45.885 2.432 2.254 2.548 3.198.105.86-.884 2.723-1.533 2.723-.714 0-2.534-2.25-3.102-3.31-.284-.507-1.268-.458-1.37.242-.163 1.05.152 3.275.403 4.653.2 1.305-.735 1.37-1.235.9z"/><path id="Bu" d="M266.1 299.415c-.284.32.663.95.85.786.365-.316 1.782-1.93 1.51-2.496-.243-.504-2.192-1.606-2.51-1.06-.588.945 1.837 1.368 1.457 1.645-.187.107-.854.568-1.308 1.125z"/><path id="Bv" d="M270.6 295.65c-.223.122-.85.62-.442.884.647.383 2.407.686 2.027-.566-.23-.737 2.654.02 1.95-1.975-.184-.552-1.054-1.35-1.482-1.462-.272-.072-1.196.435-.618.714.422.22 1.695.966 1.222 1.456-.537.512-.91-.23-1.58-.1-.336.064-.117 1.02-.306 1.28-.106.145-.59-.32-.773-.22z"/><path id="Bw" d="M275.18 287.727c-.364.182-1.016 1.17-1.04 1.625-.013.243.254.578.462.474.382-.19.972-1.125.994-1.554.014-.27-.2-.66-.416-.546z"/><path id="Bx" d="M277.56 287.474c-.703-.86.746-2.135 1.398-.415.394 1.08 4.594 6.606 5.453 8.48.608 1.27-.022 1.793-.774.884-2.127-2.714-3.872-6.096-6.077-8.95z"/><path id="By" d="M281.87 287.584c.75-.81 2.278-2.47 1.866-3.393-.316-.795-1.245-.716-1.404-.533-.91 1.085.646.813.422 1.183-.463.87-.924 1.348-1.163 2.183-.056.196.144.705.28.56z"/><path id="Bz" d="M346.98 290.3c-.538-.436.53-2.548 1.25-1.72 1.982 2.294 2.903 9.74 3.476 15.314 0 0-.89.743-.898.625 0-2.97-1.193-12.052-3.83-14.22z"/><path id="CA" d="M348.2 303.3c.358-.997 5.118-8.986 5.743-10.744.32-.848 1.686 1.454.352 2.695-1.172 1.055-4.63 6.725-5.275 8.712-.297.897-1.198.47-.82-.664z"/><path id="CB" d="M302.54 283.05c-.64-1.474.962-2.02 1.202-.97 1.114 4.84 3.78 8.506 5.81 11.797.61 1.03.12 1.642-1.365.695-1.03-.705-2.074-3.278-2.58-3.38-.916-.17-3.108 4.18-7.592 2.938-1.16-.324-1.083-3.774-1.105-5.297-.05-.714.74-.903.767.07.04 1.405-.002 4.323 1.795 4.42 1.465.082 4.7-1.99 5.394-3.608.61-1.665-1.634-4.973-2.327-6.67z"/><path id="CC" d="M302.18 399.58c.42.93 1.03.9.94-.001l-.718-4.088c-.11-1.16-1.3-.936-.994.276.4 1.308.316 2.743.773 3.813z"/><path id="CD" d="M305.77 399.64c-.005.472.726.43.72.056-.076-1.187-.166-2.79.165-3.37.258-.452 1.3-.133 2.265-.22.385-.057.305-1.116-.497-1.05-.946.085-3.44-.222-3.59.662-.217 1.6.983-.095.94 3.922z"/><path id="CE" d="M313 395.05c.605.436.52 1.003-.22.828-.884-.22-1.48-.15-1.468.335.013.477.386.57.93 1.1.52.545-.32.456-.962 1.572-.548.924.57 1.046 1.888.696.336-.096.777.482-.055.957-.586.313-2.22.696-2.625-.49-.77-2.05 1.29-2.334.422-2.88-.474-.286-.645-.717-.56-1.29.184-1.32 2.15-1.145 2.65-.83z"/><path id="CF" d="M315.73 399.57c.795-1.45 1.343-2.538 1.565-3.77.193-1.112.992-1.22 1.16-.276.216 1.252.933 2.493 1.803 3.63.5.705-.516 1.326-.92.777-.74-.938-.77-2.245-1.206-2.236-.503.01-1.074 1.457-1.61 2.525-.156.3-1.11-.001-.792-.65z"/></defs></svg>