<svg xmlns="http://www.w3.org/2000/svg" xmlns:xlink="http://www.w3.org/1999/xlink" height="480" width="640" xmlns:v="https://vecta.io/nano"><style><![CDATA[.B{fill:#a4a43d}.C{fill:#fe9f11}.D{fill:#fef8f1}.E{fill:#fea522}.F{fill:#fcb144}.G{fill:#fbead6}.H{fill:#fbc477}.I{fill:#f9d6aa}.J{fill:#fdab33}.K{fill:#fae3c9}.L{fill:#fcf1e4}.M{fill:#0e0e6e}.N{fill:#faca88}.O{fill:#fbbe66}.P{fill:#f8dcbb}.Q{fill:#f9d099}.R{fill:#58587b}.S{fill:#262678}.T{fill:#6e6c70}.U{fill:#8d8d5b}.V{fill:#49497d}.W{fill:#667}.X{fill:#f2f1d2}.Y{fill:#3a3a7c}.Z{fill:#e5e59d}.a{fill:#99994e}.b{fill:#fcb755}.c{fill:#96b247}.d{fill:#1b1b74}.e{fill:#d9d868}.f{fill:#fbfaf2}.g{fill:#808067}.h{fill:#737370}.i{fill:#42bb92}.j{fill:#32327b}.k{fill:#f6f6e4}.l{fill:#adb333}.m{fill:#27c2aa}.n{fill:#fff}.o{fill:#d0d045}.p{fill:#53527c}.q{fill:#dddc7a}.r{fill:#e5e3af}.s{fill:#0dc9c1}.t{fill:#f2f1d7}.u{fill:#e1e18c}.v{fill:#74b166}.w{fill:#e0dea1}.x{fill:#d4d456}.y{fill:#eeedc1}.z{fill-rule:evenodd}.AA{fill:#34be9e}.AB{fill:#d3d079}.AC{fill:#68b070}.AD{fill:#5bb47c}]]></style><defs><clipPath id="A"><path fill-opacity=".67" d="M0 0h640v480H0z"/></clipPath><path id="B" d="M297.67 361.33l.666.333-.666-.333z"/><path id="C" d="M235.33 396.67l.334.666-.334-.666z"/><path id="D" d="M282.118 387.123c0 .445-.36.806-.806.806s-.806-.36-.806-.806.36-.806.806-.806.806.36.806.806z"/><path id="E" d="M271 87c1.543 3.63 6.5 7.637 7.85 9.6-1.73 1.964-2.077 1.75-1.85 5.4 3-3.15 3.064-3.478 5-3 4.24 4.232.76 13.32-2.746 15.297-3.504 2.108-2.868-.073-8.12 2.57 2.408 2.06 5.198-.302 7.478.33 1.24 1.47-.59 4.15.374 6.672 2.015-.194 1.773-4.262 2.242-5.737C282.7 112.726 291.55 108.957 292 104c1.866-.876 3.73-.274 6 1-1.13-4.644-4.868-4.594-5.87-6.044-2.385-3.645-4.5-7.802-9.593-8.88-3.867-.82-3.578.246-6.056-1.444-1.54-1.202-6.23-3.474-5.48-1.63z"/></defs><g clip-path="url(#A)"><path d="M.426.42H403.1v240.066H.426z" class="n z"/><path d="M.426.422L.41 18.44l96.094 59.27 36.155 1.258L.424.422z" fill="#c00"/><path d="M41.573.422l116.494 73.046V.422H41.573z" fill="#006"/><path d="M173.607.422v93.25H.423v53.287h173.184v93.25h53.287v-93.25h173.184V93.673H226.893V.422h-53.287z" fill="#c00"/><path d="M242.435.422V69.25L356.407.955 242.435.422z" fill="#006"/><path d="M246.033 76.754l32.053-.31L402.604.955l-33.038.646-123.534 75.153z" fill="#c00"/><g fill="#006"><path d="M401.34 21.1L306.22 77.7l93.853.422v84.37h-79.93l79.2 51.508 1.16 26.2-42.296-.606-115.763-68.222V240.2h-84.37v-68.828l-108.6 68.644L.43 240.2v239.794h799.294V.426l-397.537-.43M.43 27.06l-.42 49.8 84.147 1.265L.43 27.06zM.426 162.497v51.067l79.93-50.533-79.93-.533z"/></g><path d="M308.217 164.606l-33.322-.3 125.597 75.068-.826-17.174-91.453-57.583zM31.636 240.63l117.77-74.224-30.932.246L.423 240.518" fill="#c00"/><g transform="matrix(2.0302 0 0 2.0302 -20.748 -474.95)"><path d="m269 356 1 1-1-1z" class="V"/><path d="m270 356 1 1-1-1z" class="M"/><path d="m267 357 1 1-1-1z" class="S"/><path d="m268 357 1 1-1-1z" class="g"/><path d="m271 357 1 1-1-1z" class="R"/><path d="m234 358 1 1-1-1z" class="M"/><path d="m265 358 1 1-1-1z" class="d"/><path d="m266 358 1 1-1-1z" class="T"/><path d="M235.76 359.8c0 25.838-2.978 54.955 16.28 75.2 3.962 4.163 11.5 13.656 17.96 13.292 6.764-.38 15.462-10.4 19.33-15.292 16.764-22.052 14.1-48.355 14.67-73.95-7.57 3.4-11.34 4.52-17.96 4.5-4.903.504-12.467-2.792-17-4.947-2.956 1.974-7.244 4.328-14.95 4.592-8.9.392-11.72-1.117-18.34-3.385z" fill="#cc3"/><path d="m272 358 1 1-1-1z" class="a"/><path d="m273 358 1 1-1-1z" class="V"/><path d="m304 358 1 1-1-1z" class="M"/><path d="m235 359 1 1-1-1z" class="B"/><path d="m236 359 1 1-1-1z" class="T"/><path d="m237 359 1 1-1-1z" class="Y"/><path d="m263 359 1 1-1-1z" class="d"/><path d="m264 359 1 1-1-1z" class="T"/><path d="m265 359 1 1-1-1z" class="B"/><path d="m269 359 1 1-1-1z" class="o"/><path d="m273 359 1 1-1-1z" class="B"/><path d="m274 359 1 1-1-1z" class="U"/><path d="m275 359 1 1-1-1z" class="Y"/><path d="m301 359 1 1-1-1z" class="S"/><path d="m302 359 1 1-1-1z" class="p"/><path d="m303 359 1 1-1-1z" class="U"/><path d="m239 360 1 1-1-1z" class="h"/><path d="m240 360 1 1-1-1z" class="p"/><path d="m241 360 1 1-1-1z" class="d"/><path d="m261 360 1 1-1-1z" class="S"/><path d="m262 360 1 1-1-1z" class="T"/><path d="m263 360 1 1-1-1z" class="B"/><path d="m268 360 1 1-1-1z" class="Z"/><path d="M237.8 362.62c-.538 13.573-.125 28.857 1.997 43.38 2.346 7.587 2.032 11.755 5.518 16.302l48.798-.38c2.94-4.784 5.12-12.038 5.402-14.922 2.725-14.667 2.8-30.853 2.855-45.33-4.907 2.608-11.333 4.457-17.57 3.646-5-.38-9.62-1.522-15-4.563-4.667 2.796-6.294 4.072-14 4.4-6 .296-10.86.782-18-2.532z" class="n"/><path d="m270 360 1 1-1-1z" class="t"/><path d="m271 360 1 1-1-1z" class="e"/><path d="m275 360 1 1-1-1z" class="B"/><path d="m276 360 1 1-1-1z" class="a"/><path d="m277 360 1 1-1-1z" class="V"/><path d="m278 360 1 1-1-1z" class="M"/><path d="m298 360 1 1-1-1z" class="Y"/><path d="m299 360 1 1-1-1z" class="W"/><path d="m300 360 1 1-1-1z" class="a"/><path d="m301 360 1 1-1-1m-60 1 1 1-1-1z" class="B"/><path d="m242 361 1 1-1-1z" class="a"/><path d="m243 361 1 1-1-1z" class="T"/><path d="m244 361 1 1-1-1z" class="V"/><path d="m245 361 1 1-1-1m13 0 1 1-1-1z" class="d"/><path d="m259 361 1 1-1-1z" class="p"/><path d="m260 361 1 1-1-1z" class="U"/><path d="m261 361 1 1-1-1z" class="B"/><path d="m266 361 1 1-1-1z" class="Z"/><path d="m267 361 1 1-1-1z" class="f"/><path d="m272 361 1 1-1-1z" class="X"/><path d="m273 361 1 1-1-1z" class="e"/><path d="m278 361 1 1-1-1z" class="B"/><path d="m279 361 1 1-1-1z" class="T"/><path d="m280 361 1 1-1-1z" class="Y"/><path d="m293 361 1 1-1-1z" class="M"/><path d="m294 361 1 1-1-1z" class="j"/><path d="m295 361 1 1-1-1z" class="R"/><path d="m296 361 1 1-1-1z" class="g"/><use xlink:href="#B" class="B"/><path d="m237 362 1 1-1-1z" class="q"/><path d="m238 362 1 1-1-1z" class="o"/><path d="M245.67 362.33l.666.333-.666-.333z" class="B"/><path d="m247 362 1 1-1-1z" class="g"/><path d="m248 362 1 1-1-1z" class="W"/><path d="m249 362 1 1-1-1z" class="R"/><path d="m250 362 1 1-1-1z" class="V"/><path d="m256 362 1 1-1-1z" class="h"/><path d="m257 362 1 1-1-1z" class="a"/><path d="m258 362 1 1-1-1z" class="B"/><path d="m264 362 1 1-1-1z" class="Z"/><path d="m265 362 1 1-1-1z" class="f"/><path d="m274 362 1 1-1-1z" class="X"/><path d="m275 362 1 1-1-1z" class="e"/><path d="M280.67 362.33l.666.333-.666-.333z" class="B"/><path d="m282 362 1 1-1-1z" class="g"/><path d="m283 362 1 1-1-1z" class="W"/><path d="m284 362 1 1-1-1z" class="R"/><path d="m285 362 1 1-1-1z" class="Y"/><path d="M289.67 362.33l.666.333-.666-.333z" class="R"/><path d="m291 362 1 1-1-1z" class="h"/><path d="m292 362 1 1-1-1z" class="a"/><path d="m293 362 1 1-1-1z" class="B"/><path d="m301 362 1 1-1-1z" class="q"/><path d="m302 362 1 1-1-1z" class="o"/><path d="m239 363 1 1-1-1z" class="t"/><path d="m240 363 1 1-1-1z" class="w"/><path d="m241 363 1 1-1-1z" class="q"/><path d="m261 363 1 1-1-1z" class="e"/><path d="m262 363 1 1-1-1z" class="r"/><path d="m276 363 1 1-1-1z" class="k"/><path d="m277 363 1 1-1-1z" class="u"/><path d="m297 363 1 1-1-1z" class="x"/><path d="m298 363 1 1-1-1z" class="u"/><path d="m299 363 1 1-1-1z" class="y"/><path d="m243 364 1 1-1-1z" class="X"/><path d="m244 364 1 1-1-1z" class="w"/><path d="m245 364 1 1-1-1z" class="q"/><path d="m246 364 1 1-1-1z" class="o"/><path d="m258 364 1 1-1-1z" class="q"/><path d="m259 364 1 1-1-1z" class="r"/><path d="m260 364 1 1-1-1z" class="k"/><path d="m279 364 1 1-1-1z" class="y"/><path d="m280 364 1 1-1-1z" class="u"/><path d="m281 364 1 1-1-1z" class="x"/><path d="m293 364 1 1-1-1z" class="e"/><path d="m294 364 1 1-1-1z" class="u"/><path d="m295 364 1 1-1-1z" class="y"/><path d="m296 364 1 1-1-1z" class="k"/><path d="m248 365 1 1-1-1z" class="t"/><path d="m249 365 1 1-1-1z" class="X"/><path d="m250 365 1 1-1-1z" class="y"/><path d="M254.67 365.33l.666.333-.666-.333z" class="X"/><path d="m256 365 1 1-1-1z" class="f"/><path d="m261 365 2 2v-2h-2z" class="D"/><path d="m283 365 1 1-1-1z" class="t"/><path d="m284 365 1 1-1-1z" class="X"/><path d="m285 365 1 1-1-1z" class="r"/><path d="M286.67 365.33l.666.333-.666-.333z" class="Z"/><path d="m288 365 1 1-1-1z" class="w"/><path d="M289.67 365.33l.666.333-.666-.333z" class="X"/><path d="m291 365 1 1-1-1z" class="f"/><path d="m259 366 1 1-1-1z" class="D"/><path d="m260 366 1 1-1-1z" class="O"/><path d="m259 367 1 1-1-1z" class="H"/><path d="m261 367 1 1-1-1z" class="F"/><path d="m259 368 1 1-1-1z" class="C"/><path d="m261 368 1 1-1-1z" class="E"/><path d="m258 369 1 1-1-1m4 0 1 1-1-1z" class="K"/><path d="m267 369 1 1-1-1z" class="G"/><path d="m268 369 1 1-1-1z" class="I"/><path d="m272 369 1 1-1-1z" class="K"/><path d="m273 369 1 1-1-1z" class="D"/><path d="m258 370 1 1-1-1z" class="Q"/><path d="m262 370 1 1-1-1z" class="J"/><path d="m264 370 1 1-1-1z" class="L"/><path d="m265 370 1 1-1-1z" class="H"/><path d="m266 370 1 1-1-1z" class="E"/><path d="m274 370 1 1-1-1z" class="b"/><path d="m275 370 1 1-1-1z" class="I"/><path d="m258 371 1 1-1-1z" class="N"/><path d="m263 371 1 1-1-1m13 0 1 1-1-1z" class="E"/><path d="m277 371 1 1-1-1z" class="P"/><path d="m237 372 1 1-1-1z" class="k"/><path d="m258 372 1 1-1-1z" class="H"/><path d="m278 372 1 1-1-1z" class="O"/><path d="m279 372 1 1-1-1z" class="P"/><path d="m258 373 1 1-1-1z" class="N"/><path d="m281 373 1 1-1-1z" class="b"/><path d="m282 373 1 1-1-1z" class="P"/><path d="m257 374 1 1-1-1z" class="D"/><path d="m258 374 1 1-1-1z" class="C"/><path d="m286 374 1 1-1-1z" class="J"/><path d="m287 374 1 1-1-1z" class="F"/><path d="m288 374 1 1-1-1z" class="H"/><path d="m289 374 2 2-2-2z" class="I"/><path d="m290 374 1 1-1-1z" class="D"/><path d="m257 375 1 1-1-1z" class="F"/><path d="m271 375 1 1-1-1z" class="J"/><g class="H"><path d="M272 375l1 1-1-1zm4 0l1 1-1-1z"/></g><path d="m277 375 1 1-1-1z" class="E"/><path d="m256 376 1 1-1-1z" class="K"/><path d="m269 376 1 1-1-1z" class="F"/><path d="m270 376 1 1-1-1z" class="K"/><path d="m278 376 1 1-1-1z" class="P"/><path d="m279 376 1 1-1-1z" class="J"/><path d="m285 376 1 1-1-1z" class="C"/><path d="m286 376 1 1-1-1z" class="b"/><path d="m287 376 1 1-1-1z" class="Q"/><path d="m288 376 1 1-1-1z" class="G"/><path d="m256 377 1 1-1-1z" class="F"/><path d="m268 377 1 1-1-1z" class="O"/><path d="m280 377 1 1-1-1z" class="Q"/><path d="m284 377 1 1-1-1z" class="G"/><path d="m255 378 1 1-1-1z" class="L"/><path d="m267 378 1 1-1-1z" class="O"/><path d="m281 378 1 1-1-1z" class="Q"/><path d="m284 378 1 1-1-1z" class="K"/><path d="m255 379 1 1-1-1z" class="H"/><path d="m266 379 1 1-1-1m16 0 1 1-1-1z" class="F"/><path d="m284 379 1 1-1-1z" class="O"/><path d="m237 380 1 1-1-1z" class="k"/><path d="m255 380 1 1-1-1z" class="E"/><path d="m266 380 1 1-1-1z" class="G"/><path d="m282 380 1 1-1-1z" class="L"/><path d="m285 380 1 1-1-1z" class="D"/><path d="m254 381 1 1-1-1z" class="L"/><path d="m265 381 1 1-1-1z" class="O"/><path d="m283 381 1 1-1-1z" class="N"/><path d="m285 381 1 1-1-1z" class="Q"/><path d="m254 382 1 1-1-1z" class="I"/><path d="m265 382 1 1-1-1z" class="L"/><path d="m270 382 1 1-1-1z" class="K"/><path d="m271 382 1 1-1-1z" class="E"/><path d="m272 382 1 1-1-1z" class="F"/><path d="m273 382 1 1-1-1z" class="I"/><path d="m283 382 1 1-1-1z" class="D"/><path d="m284 382 1 1-1-1z" class="E"/><path d="m285 382 1 1-1-1z" class="J"/><path d="m254 383-1 3 1-3z" class="N"/><path d="m264 383 1 1-1-1z" class="E"/><path d="m265 383 1 1-1-1z" class="D"/><path d="m270 383 1 1-1-1z" class="Q"/><path d="m274 383 1 1-1-1z" class="J"/><path d="m275 383 1 1-1-1z" class="K"/><path d="m284 383 1 1-1-1z" class="P"/><path d="m285 383 1 1-1-1z" fill="#f90"/><path d="M286.33 383.67l.334.667-.334-.667z" class="G"/><path d="m266 384 1 1-1-1z" class="E"/><path d="m267 384 1 1-1-1z" class="O"/><path d="m268 384 1 1-1-1z" class="N"/><path d="m269 384 1 1-1-1z" class="F"/><path d="m270 384 1 1-1-1z" class="K"/><path d="m271 384 1 1-1-1z" class="C"/><path d="m276 384 1 1-1-1z" class="J"/><path d="m277 384 1 1-1-1z" class="H"/><path d="m278 384 1 1-1-1z" class="N"/><path d="m279 384 1 1-1-1z" class="I"/><path d="M280.67 384.33l.666.333-.666-.333z" class="K"/><path d="m282 384 1 1-1-1z" class="D"/><path d="m285 384 1 1-1-1z" class="H"/><path d="m242 385 1 1-1-1z" class="D"/><path d="m243 385 1 1-1-1z" class="L"/><path d="m269 385 1 1-1-1z" class="b"/><path d="m271 385 1 1-1-1z" class="G"/><path d="m272 385 1 1-1-1z" class="E"/><path d="m280 385 1 1-1-1z" class="C"/><path d="m281 385-1 2 1-2z" class="F"/><path d="m283 385 1 1-1-1z" class="C"/><path d="m284 385 1 1-1-1z" class="O"/><path d="m285 385 1 1-1-1z" class="L"/><path d="m242 386 1 1-1-1z" class="K"/><path d="m243 386 2 2-2-2z" class="C"/><g class="G"><path d="M244 386l1 1-1-1zm9 0l1 1-1-1z"/></g><path d="m254 386 1 1-1-1z" class="K"/><path d="m263 386 1 1-1-1z" class="C"/><path d="m264 386 1 1-1-1z" class="H"/><path d="m265 386 1 1-1-1z" class="E"/><path d="m268 386 1 1-1-1z" class="H"/><path d="m269 386 1 1-1-1z" class="D"/><path d="m273 386 1 1-1-1z" class="H"/><path d="m281 386 1 1-1-1z" class="n"/><path d="m282 386 1 1-1-1z" class="J"/><path d="m286 386 1 1-1-1z" class="H"/><path d="m242 387 1 1-1-1z" class="D"/><path d="m245 387 1 1-1-1z" class="G"/><path d="m250 387 1 1-1-1z" class="I"/><path d="m255 387 1 1-1-1z" class="C"/><path d="M256.67 387.33l.666.333-.666-.333z" class="I"/><path d="m263 387 1 1-1-1z" class="P"/><path d="m266 387 1 1-1-1z" class="L"/><path d="m274 387 1 1-1-1z" class="I"/><path d="m281 387 1 1-1-1z" class="J"/><path d="m287 387 1 1-1-1z" class="b"/><path d="m288 387 1 1-1-1z" class="D"/><path d="m234 388 1 1-1-1z" class="p"/><path d="m243 388 1 1-1-1z" class="b"/><path d="m245 388 1 1-1-1z" class="E"/><path d="m249 388 1 1-1-1z" class="G"/><path d="m251 388 1 1-1-1z" class="C"/><path d="m252 388 1 1-1-1z" class="L"/><path d="m255 388 1 1-1-1z" class="O"/><path d="m256 388 1 1-1-1z" class="H"/><path d="m257 388 1 1-1-1z" class="O"/><path d="m262 388 1 1-1-1z" class="E"/><path d="m275 388 1 1-1-1z" class="I"/><path d="m288 388 1 1-1-1z" class="F"/><path d="m304 388 1 1-1-1z" class="U"/><path d="m237 389 1 1-1-1z" class="r"/><path d="m243 389 1 1-1-1z" class="P"/><path d="m246 389 1 1-1-1z" class="J"/><path d="m249 389 1 1-1-1z" class="C"/><path d="m251 389 1 1-1-1z" class="N"/><path d="m255 389 1 1-1-1z" class="L"/><path d="m262 389 1 1-1-1m14 0 1 1-1-1z" class="Q"/><path d="m289 389 1 1-1-1z" class="O"/><path d="m244 390 1 1-1-1z" class="E"/><path d="m247 390 1 1-1-1z" class="J"/><path d="m248 390 1 1-1-1z" class="E"/><path d="m250 390 1 1-1-1z" class="C"/><path d="m251 390 1 1-1-1z" class="D"/><path d="m256 390 1 1-1-1z" class="O"/><path d="m262 390 1 1-1-1z" class="D"/><path d="m277 390 1 1-1-1z" class="O"/><path d="m290 390 1 1-1-1z" class="Q"/><path d="m244 391 1 1-1-1z" class="I"/><path d="m250 391 1 1-1-1z" class="Q"/><path d="m256 391 1 1-1-1z" class="L"/><path d="m261 391 1 1-1-1m17 0 1 1-1-1z" class="J"/><path d="m291 391 1 1-1-1z" class="G"/><path d="m245 392 1 1-1-1z" class="E"/><path d="m249 392 1 1-1-1z" class="C"/><path d="m257 392 1 1-1-1z" class="F"/><path d="m261 392 1 1-1-1z" class="N"/><path d="m278 392 1 1-1-1z" class="P"/><path d="m291 392 1 1-1-1z" class="F"/><path d="m237 393 1 1-1-1z" class="AB"/><g class="N"><path d="M245 393l1 1-1-1zm12 0l1 1-1-1z"/></g><path d="m261 393 1 1-1-1m17 0 1 1-1-1z" class="K"/><path d="m292 393 1 1-1-1z" class="P"/><path d="m301 393 1 1-1-1z" class="t"/><path d="M304.33 393.67l.334.667-.334-.667z" class="R"/><path d="M237.33 394.67l.334.667-.334-.667z" class="e"/><path d="m245 394 1 1-1-1z" class="P"/><path d="m277 394 1 1-1-1z" class="I"/><path d="m278 394 1 1-1-1z" class="C"/><path d="m292 394 1 1-1-1z" class="F"/><path d="M301.33 394.67l.334.667-.334-.667z" class="X"/><path d="m245 395 1 1-1-1z" class="L"/><path d="m276 395 1 1-1-1z" class="D"/><path d="m277 395 1 1-1-1z" class="C"/><path d="m280 395-1 2 1-2z" class="J"/><path d="m281 395 1 1-1-1z" class="b"/><path d="m293 395 1 1-1-1z" class="E"/><path d="m294 395 1 1-1-1z" class="Q"/><path d="m304 395 1 1-1-1z" class="p"/><use xlink:href="#C" class="g"/><path d="m246 396 1 1-1-1m3 0 1 1-1-1z" class="E"/><path d="m260 396 1 1-1-1z" class="C"/><path d="m276 396 1 1-1-1z" class="K"/><path d="m280 396 1 1-1-1z" class="D"/><path d="m282 396 1 1-1-1z" class="F"/><path d="m295 396 1 1-1-1z" class="b"/><path d="m296 396 2 2-2-2z" class="D"/><path d="M301.33 396.67l.334.666-.334-.666z" class="Z"/><path d="M304.33 396.67l.334.666-.334-.666z" class="j"/><path d="M246.33 397.67l.334.666-.334-.666z" class="b"/><path d="m250 397 1 1-1-1z" class="D"/><path d="m260 397 1 1-1-1z" class="O"/><path d="m276 397 1 1-1-1z" class="G"/><path d="m278 397 1 1-1-1z" class="C"/><path d="m279 397 1 1-1-1z" class="L"/><path d="m282 397 1 1-1-1z" class="G"/><path d="m296 397 1 1-1-1z" class="J"/><path d="m235 398 1 1-1-1z" class="W"/><path d="m238 398 1 1-1-1z" class="k"/><path d="m250 398 1 1-1-1z" class="I"/><path d="m258 398 1 1-1-1z" class="J"/><path d="m259 398 1 1-1-1z" class="C"/><path d="m260 398 1 1-1-1z" class="L"/><path d="m277 398 1 1-1-1z" class="E"/><path d="m278 398 1 1-1-1m5 0 1 1-1-1z" class="N"/><path d="m297 398 1 1-1-1z" class="F"/><path d="m301 398 1 1-1-1z" class="q"/><path d="m235 399 1 1-1-1z" class="R"/><path d="m238 399 1 1-1-1z" class="X"/><path d="M246.33 399.67l.334.666-.334-.666z" class="F"/><path d="m250 399 1 1-1-1z" class="E"/><path d="m260 399 1 1-1-1z" class="D"/><path d="m261 399 1 1-1-1z" class="E"/><path d="m263 399 1 1-1-1z" class="F"/><path d="m264 399 1 1-1-1z" class="G"/><path d="m277 399 1 1-1-1z" class="P"/><path d="m278 399 1 1-1-1z" class="L"/><path d="m283 399 1 1-1-1z" class="D"/><path d="m284 399 1 1-1-1z" class="C"/><path d="m298 399 1 1-1-1z" class="G"/><path d="m301 399 1 1-1-1z" class="e"/><path d="m235 400 1 1-1-1z" class="Y"/><path d="m238 400 1 1-1-1z" class="r"/><path d="m251 400 1 1-1-1z" class="N"/><path d="m261 400 1 1-1-1z" class="G"/><path d="m264 400 1 1-1-1z" class="C"/><path d="m265 400 1 1-1-1z" class="L"/><path d="m276 400 1 1-1-1z" class="G"/><path d="m277 400 1 1-1-1z" class="K"/><path d="m278 400 1 1-1-1z" class="G"/><path d="m284 400 1 1-1-1m8 0 1 1-1-1z" class="O"/><path d="m293 400 1 1-1-1z" class="L"/><path d="m294 400 1 1-1-1z" class="D"/><path d="m295 400 1 1-1-1z" class="P"/><path d="m296 400 1 1-1-1z" class="b"/><path d="m298 400 1 1-1-1z" class="K"/><path d="m303 400 1 1-1-1z" class="g"/><path d="m235 401 1 1-1-1z" class="j"/><path d="M236.33 401.67l.334.666-.334-.666z" class="B"/><path d="m238 401 1 1-1-1z" class="Z"/><path d="m246 401 1 1-1-1z" class="H"/><path d="m252 401 1 1-1-1z" class="I"/><path d="m262 401 1 1-1-1z" class="O"/><path d="m265 401 1 1-1-1z" class="Q"/><path d="m274 401 1 1-1-1z" class="K"/><path d="m275 401 1 1-1-1z" class="F"/><path d="m279 401 1 1-1-1z" class="K"/><path d="m284 401 1 1-1-1z" class="P"/><path d="m292 401 1 1-1-1z" class="Q"/><path d="m297 401 1 1-1-1z" class="H"/><path d="m298 401 1 1-1-1z" class="G"/><path d="m303 401 1 1-1-1z" class="h"/><path d="m238 402 1 1-1-1z" class="e"/><path d="m246 402 1 1-1-1z" class="Q"/><path d="m253 402 1 1-1-1m9 0 1 1-1-1z" class="I"/><path d="m265 402 1 1-1-1z" class="H"/><path d="m270 402 1 1-1-1z" class="D"/><path d="m271 402 1 1-1-1z" class="P"/><path d="m272 402 1 1-1-1z" class="H"/><path d="m273 402 1 1-1-1z" class="E"/><path d="m279 402 1 1-1-1z" class="G"/><path d="m300 402 1 1-1-1z" class="X"/><path d="m303 402 1 1-1-1z" class="R"/><path d="m236 403 1 1-1-1z" class="a"/><path d="m238 403 1 1-1-1z" class="o"/><path d="m254 403 1 1-1-1z" class="F"/><path d="m255 403 1 1-1-1z" class="K"/><path d="m262 403 1 1-1-1z" class="D"/><path d="m266 403 1 1-1-1z" class="b"/><path d="m267 403 1 1-1-1z" class="H"/><path d="m268 403 1 1-1-1z" class="F"/><path d="m269 403 1 1-1-1z" class="E"/><path d="m277 403 1 1-1-1z" class="C"/><path d="m278 403 1 1-1-1z" class="I"/><path d="m292 403 1 1-1-1z" class="D"/><path d="m300 403 1 1-1-1z" class="w"/><path d="m303 403 1 1-1-1z" class="Y"/><path d="m236 404 1 1-1-1z" class="h"/><path d="m239 404 1 1-1-1z" class="f"/><path d="m247 404 1 1-1-1z" class="E"/><path d="m256 404 1 1-1-1z" class="C"/><path d="m257 404 1 1-1-1z" class="F"/><path d="m258 404 1 1-1-1z" class="H"/><path d="m259 404 1 1-1-1z" class="N"/><path d="m260 404 1 1-1-1z" class="H"/><path d="m261 404 1 1-1-1z" class="F"/><path d="m262 404 1 1-1-1z" class="J"/><path d="m276 404 1 1-1-1z" class="H"/><path d="m277 404 1 1-1-1z" class="D"/><path d="m291 404 1 1-1-1z" class="J"/><path d="m300 404 1 1-1-1z" class="u"/><path d="M302.33 404.67l.334.666-.334-.666z" class="B"/><path d="m303 404 1 1-1-1z" class="S"/><path d="m236 405 1 1-1-1z" class="R"/><path d="m239 405 1 1-1-1z" class="X"/><path d="m247 405 1 1-1-1z" class="N"/><path d="m274 405 1 1-1-1z" class="C"/><path d="m275 405 1 1-1-1z" class="G"/><path d="m284 405 1 1-1-1z" class="H"/><path d="m291 405 1 1-1-1z" class="N"/><path d="m300 405 1 1-1-1z" class="x"/><path d="m236 406 1 1-1-1z" class="j"/><path d="m239 406 1 1-1-1z" class="Z"/><path d="m247 406 1 1-1-1z" class="D"/><path d="m248 406 1 1-1-1z" class="C"/><path d="m274 406 1 1-1-1z" class="G"/><path d="m284 406 1 1-1-1z" class="E"/><path d="m291 406 1 1-1-1z" class="L"/><path d="m302 406 1 1-1-1z" class="g"/><path d="m236 407 1 1-1-1z" class="M"/><path d="m237 407 1 1-1-1z" class="B"/><path d="m239 407 1 1-1-1z" class="e"/><path d="m248 407 1 1-1-1z" class="P"/><path d="m283 407 1 1-1-1z" class="I"/><path d="m290 407 1 1-1-1z" class="N"/><path d="m299 407 1 1-1-1z" class="X"/><path d="m302 407 1 1-1-1z" class="R"/><path d="m237 408 1 1-1-1z" class="U"/><path d="m249 408 1 1-1-1z" class="I"/><path d="m269 408 1 1-1-1z" class="J"/><path d="m270 408 1 1-1-1z" class="n"/><path d="M271.67 408.33l.666.334-.666-.334z" class="F"/><path d="m282 408-1 2 1-2z" class="D"/><path d="m283 408 1 1-1-1z" class="C"/><path d="m289 408-1 2 1-2z" class="J"/><path d="m299 408 1 1-1-1z" class="Z"/><path d="m302 408 1 1-1-1z" class="Y"/><path d="m237 409 1 1-1-1z" class="W"/><path d="m240 409 1 1-1-1z" class="X"/><path d="m250 409 1 1-1-1z" class="I"/><path d="m269 409 1 1-1-1z" class="C"/><path d="m270 409 1 1-1-1z" class="N"/><path d="m271 409 1 1-1-1z" class="E"/><path d="m272 409 1 1-1-1z" class="L"/><path d="m282 409 1 1-1-1z" class="J"/><path d="m289 409 1 1-1-1z" class="D"/><path d="m299 409 1 1-1-1z" class="e"/><path d="m301 409 1 1-1-1z" class="B"/><path d="m302 409 1 1-1-1z" class="M"/><path d="m237 410 1 1-1-1z" class="Y"/><path d="m240 410 1 1-1-1z" class="Z"/><path d="m251 410 2 2-2-2z" class="K"/><path d="m252 410 1 1-1-1z" class="C"/><path d="m271 410 1 1-1-1z" class="P"/><path d="m280 410 1 1-1-1z" class="L"/><path d="m281 410 1 1-1-1z" class="J"/><path d="m287 410 1 1-1-1z" class="F"/><path d="m288 410 1 1-1-1z" class="D"/><path d="m298 410 1 1-1-1z" class="f"/><path d="m301 410 1 1-1-1z" class="U"/><path d="m237 411 1 1-1-1z" class="M"/><path d="m238 411 1 1-1-1z" class="B"/><path d="m240 411 1 1-1-1z" class="x"/><path d="m270 411 1 1-1-1z" class="I"/><path d="m279 411 1 1-1-1z" class="Q"/><path d="m280 411 1 1-1-1z" class="C"/><path d="m286 411 1 1-1-1z" class="N"/><path d="m298 411 1 1-1-1z" class="y"/><path d="m301 411 1 1-1-1z" class="R"/><path d="m238 412 1 1-1-1z" class="h"/><path d="m241 412 1 1-1-1z" class="k"/><path d="m252 412 1 1-1-1z" class="O"/><path d="m268 412 1 1-1-1z" class="F"/><path d="M269.33 412.67l.334.666-.334-.666z" class="P"/><path d="m277 412 1 1-1-1z" class="O"/><path d="m278 412 1 1-1-1z" class="C"/><path d="m284 412 1 1-1-1z" class="H"/><path d="m285 412 1 1-1-1z" class="L"/><path d="m298 412 1 1-1-1z" class="AB"/><path d="m300 412 1 1-1-1z" class="B"/><path d="m301 412 1 1-1-1z" class="S"/><path d="m238 413 1 1-1-1z" class="V"/><path d="m241 413 1 1-1-1z" class="w"/><path d="m251 413 1 1-1-1z" class="K"/><path d="m265 413 1 1-1-1z" class="J"/><path d="m266 413 1 1-1-1z" class="H"/><path d="m267 413 1 1-1-1z" class="G"/><path d="m270 413 1 1-1-1z" class="F"/><path d="m283 413 1 1-1-1z" class="I"/><path d="m300 413 1 1-1-1z" class="a"/><path d="m238 414 1 1-1-1z" class="M"/><path d="m239 414 1 1-1-1z" class="B"/><path d="m241 414 1 1-1-1z" class="x"/><path d="m250 414 1 1-1-1z" class="Q"/><path d="m251 414 1 1-1-1m5 0 1 1-1-1z" class="C"/><path d="m257 414 1 1-1-1z" class="I"/><path d="m258 414 1 1-1-1z" class="Q"/><path d="m262 414 1 1-1-1z" class="I"/><path d="m263 414 1 1-1-1z" class="K"/><path d="m264 414 1 1-1-1z" class="D"/><path d="m272 414 1 1-1-1z" class="G"/><path d="m273 414 1 1-1-1z" class="K"/><path d="m274 414 1 1-1-1z" class="N"/><path d="m275 414 1 1-1-1z" class="H"/><path d="m276 414 1 1-1-1z" class="J"/><path d="m281 414 1 1-1-1z" class="C"/><path d="m282 414 1 1-1-1z" class="I"/><path d="m297 414 1 1-1-1z" class="r"/><path d="m300 414 1 1-1-1z" class="W"/><path d="m239 415 1 1-1-1z" class="h"/><path d="m242 415 1 1-1-1z" class="t"/><path d="m249 415 1 1-1-1z" class="E"/><path d="m254 415 1 1-1-1z" class="C"/><path d="m255 415 1 1-1-1z" class="O"/><path d="m256 415 1 1-1-1z" class="L"/><path d="m280 415 1 1-1-1z" class="E"/><path d="m281 415 1 1-1-1z" class="G"/><path d="m297 415 1 1-1-1z" class="q"/><path d="m299 415 1 1-1-1z" class="B"/><path d="m300 415 1 1-1-1z" class="S"/><path d="m239 416 1 1-1-1z" class="V"/><path d="M240.33 416.67l.334.666-.334-.666z" class="B"/><path d="m242 416 1 1-1-1z" class="AB"/><path d="m250 416 1 1-1-1z" class="Q"/><path d="m251 416 1 1-1-1z" class="F"/><path d="m252 416 1 1-1-1z" class="N"/><path d="m253 416 1 1-1-1z" class="P"/><path d="m254 416 1 1-1-1z" class="D"/><path d="m276 416 1 1-1-1z" class="P"/><path d="m280 416 1 1-1-1z" class="L"/><path d="m296 416 1 1-1-1z" class="k"/><path d="m299 416 1 1-1-1z" class="U"/><path d="m243 417 1 1-1-1z" class="f"/><path d="m276 417 1 1-1-1z" class="O"/><path d="m279 417 1 1-1-1z" class="N"/><path d="m296 417 1 1-1-1z" class="u"/><path d="m299 417 1 1-1-1z" class="V"/><path d="m240 418 1 1-1-1z" class="R"/><path d="m243 418 1 1-1-1z" class="Z"/><path d="m276 418 1 1-1-1z" class="C"/><path d="m278 418 1 1-1-1z" class="J"/><path d="m295 418 1 1-1-1z" class="f"/><path d="m298 418 1 1-1-1z" class="B"/><path d="m299 418 1 1-1-1z" class="M"/><path d="m240 419 1 1-1-1z" class="d"/><path d="m241 419 1 1-1-1z" class="B"/><path d="m243 419 1 1-1-1z" class="o"/><path d="m275 419 1 1-1-1z" class="G"/><path d="m277 419 1 1-1-1z" class="C"/><path d="m278 419 1 1-1-1z" class="G"/><path d="m295 419 1 1-1-1z" class="Z"/><path d="m298 419 1 1-1-1z" class="W"/><path d="m241 420 1 1-1-1z" class="T"/><path d="m244 420 1 1-1-1z" class="r"/><path d="M275.33 420.67l.334.666-.334-.666z" class="N"/><path d="m277 420 1 1-1-1z" class="K"/><path d="m294 420 1 1-1-1z" class="f"/><path d="m297 420 1 1-1-1z" class="B"/><path d="m298 420 1 1-1-1m-57 1 1 1-1-1z" class="d"/><path d="m242 421 1 1-1-1z" class="B"/><path d="m244 421 1 1-1-1z" class="o"/><path d="m245 421 1 1-1-1z" class="f"/><path d="m276 421 1 1-1-1z" class="I"/><path d="m294 421 1 1-1-1z" class="Z"/><path d="m297 421 1 1-1-1m-55 1 1 1-1-1z" class="T"/><path d="m245 422 1 1-1-1z" fill="#8cbf84"/><path d="M245.43 422c3.473 7.31 15.757 24.553 25.14 24.217 9.113-.326 19.404-17.15 23.43-24.217h-48.57z" fill="#0cf"/><path d="m296 422 1 1-1-1z" class="B"/><path d="m297 422 1 1-1-1m-55 1 1 1-1-1z" class="d"/><path d="m243 423 1 1-1-1z" class="B"/><path d="m245 423 1 1-1-1z" class="l"/><path d="m246 423 1 1-1-1z" fill="#1ac5b5"/><path d="m293 423 1 1-1-1z" class="AC"/><path d="m296 423 1 1-1-1z" class="W"/><path d="m243 424 1 1-1-1z" class="R"/><path d="m246 424 1 1-1-1z" fill="#7fb15c"/><path d="m292 424 1 1-1-1z" class="m"/><path d="m295 424-1 2 1-2z" class="B"/><path d="m296 424 1 1-1-1m-53 1 1 1-1-1z" class="M"/><path d="m244 425 2 2-2-2z" class="B"/><path d="m247 425 1 1-1-1z" class="AA"/><path d="m292 425 1 1-1-1z" class="c"/><path d="m295 425 1 1-1-1z" class="p"/><path d="m244 426 1 1-1-1z" class="Y"/><path d="m247 426 1 1-1-1z" fill="#a2b23d"/><path d="m248 426 1 1-1-1z" class="s"/><path d="m291 426 1 1-1-1z" class="AD"/><path d="m294 426 1 1-1-1z" class="U"/><path d="m245 427 1 1-1-1z" class="h"/><path d="m248 427 1 1-1-1z" class="v"/><path d="m290 427 1 1-1-1z" class="m"/><path d="m293 427-1 2 1-2z" class="B"/><path d="m294 427 1 1-1-1z" class="S"/><path d="m245 428 1 1-1-1z" class="M"/><path d="m246 428 2 2-2-2z" class="B"/><path d="m249 428 1 1-1-1z" class="i"/><path d="m289 428 1 1-1-1z" class="s"/><path d="m290 428 1 1-1-1z" class="c"/><path d="m293 428 1 1-1-1z" class="R"/><path d="m246 429 1 1-1-1z" class="Y"/><path d="m249 429 1 1-1-1z" class="l"/><path d="m250 429 1 1-1-1z" class="m"/><path d="m289 429 1 1-1-1z" class="v"/><path d="m292 429 1 1-1-1z" class="U"/><path d="m247 430 1 1-1-1z" class="T"/><path d="m250 430 1 1-1-1z" class="c"/><path d="m251 430 1 1-1-1z" class="s"/><path d="m288 430 1 1-1-1z" class="i"/><path d="m291 430-2 3 2-3z" class="B"/><path d="m292 430 1 1-1-1z" class="d"/><path d="m247 431 1 1-1-1z" class="M"/><path d="m248 431 1 1-1-1z" class="U"/><path d="m251 431 1 1-1-1z" fill="#7fb15c"/><path d="m287 431 1 1-1-1z" class="AA"/><path d="m291 431 1 1-1-1z" class="Y"/><path d="m248 432 1 1-1-1z" class="d"/><path d="m249 432 11 11-11-11z" class="B"/><path d="m252 432 1 1-1-1z" class="v"/><path d="m286 432 1 1-1-1z" class="m"/><path d="m287 432 1 1-1-1z" class="l"/><path d="m290 432 1 1-1-1z" class="W"/><path d="m249 433 1 1-1-1z" class="j"/><path d="m253 433 1 1-1-1z" class="i"/><path d="m285 433-4 5 4-5z" class="s"/><path d="m286 433 1 1-1-1z" class="l"/><path d="m289 433 1 1-1-1z" class="h"/><path d="m250 434 1 1-1-1z" class="V"/><path d="m254 434 1 1-1-1z" class="i"/><path d="m285 434 1 1-1-1z" class="c"/><path d="m288 434-1 2 1-2z" class="U"/><path d="m289 434 1 1-1-1z" class="M"/><path d="m251 435 1 1-1-1z" class="p"/><path d="m255 435 1 1-1-1z" class="i"/><path d="m284 435 1 1-1-1z" class="c"/><path d="m288 435 1 1-1-1z" class="M"/><path d="m252 436 1 1-1-1z" class="T"/><path d="m256 436 1 1-1-1z" class="i"/><path d="m283 436 1 1-1-1z" class="c"/><path d="m286 436-2 3 2-3z" class="B"/><path d="m287 436 1 1-1-1z" class="S"/><path d="m253 437 1 1-1-1z" class="T"/><path d="m257 437 1 1-1-1z" class="i"/><path d="m282 437 1 1-1-1z" class="c"/><path d="m286 437 1 1-1-1z" class="S"/><path d="m254 438 1 1-1-1z" class="T"/><path d="m258 438 1 1-1-1z" class="AC"/><path d="m280 438 1 1-1-1z" class="m"/><path d="m281 438 1 1-1-1z" class="l"/><path d="m285 438 1 1-1-1z" class="S"/><path d="m255 439 1 1-1-1z" class="W"/><path d="m259 439 1 1-1-1z" class="v"/><path d="m279 439 1 1-1-1z" class="AA"/><path d="m280 439 1 1-1-1z" class="l"/><path d="m283 439-1 2 1-2z" class="U"/><path d="m284 439 1 1-1-1z" class="S"/><path d="m256 440 1 1-1-1z" class="V"/><path d="m260 440 1 1-1-1z" class="c"/><path d="m261 440 1 1-1-1z" class="s"/><path d="m278 440 1 1-1-1z" class="i"/><path d="m283 440 1 1-1-1z" class="M"/><path d="m257 441 1 1-1-1z" class="V"/><path d="m261 441 1 1-1-1z" fill="#a2b23d"/><path d="m262 441 1 1-1-1z" class="m"/><path d="m277 441 1 1-1-1z" class="v"/><path d="m280 441-3 4 3-4z" class="B"/><path d="m281 441 1 1-1-1z" class="g"/><path d="m282 441 1 1-1-1z" class="M"/><path d="m258 442 1 1-1-1z" class="S"/><path d="m262 442 1 1-1-1z" class="l"/><path d="m263 442 1 1-1-1z" class="i"/><path d="m275 442 1 1-1-1z" class="s"/><path d="m276 442 1 1-1-1z" class="c"/><path d="m280 442 1 1-1-1z" class="T"/><path d="m259 443 1 1-1-1z" class="d"/><path d="m260 443 1 1-1-1z" class="U"/><path d="m264 443 1 1-1-1z" class="v"/><path d="m265 443 1 1-1-1z" class="s"/><path d="m274 443 1 1-1-1z" class="AA"/><path d="m275 443 1 1-1-1z" class="l"/><path d="m279 443 1 1-1-1z" class="V"/><path d="m260 444 1 1-1-1z" class="M"/><path d="m261 444 1 1-1-1z" class="T"/><path d="m262 444 2 2-2-2z" class="B"/><path d="m265 444 1 1-1-1z" class="c"/><path d="m266 444 1 1-1-1z" class="m"/><path d="m273 444 1 1-1-1z" class="AC"/><path d="m278 444 1 1-1-1z" class="j"/><path d="m262 445 1 1-1-1z" class="V"/><path d="m267 445 1 1-1-1z" class="AD"/><path d="m271 445 1 1-1-1z" class="m"/><path d="m272 445 1 1-1-1z" class="c"/><path d="m275 445-1 2 1-2z" class="B"/><path d="m276 445 1 1-1-1z" class="g"/><path d="m277 445 1 1-1-1z" class="M"/><path d="m263 446 1 1-1-1z" class="S"/><path d="m264 446 1 1-1-1z" class="U"/><path d="m268 446 1 1-1-1z" fill="#8bb252"/><path d="m269 446 1 1-1-1z" fill="#1ac5b5"/><path d="m270 446 1 1-1-1z" class="AD"/><path d="m275 446 1 1-1-1z" class="R"/><path d="m264 447 1 1-1-1z" class="M"/><path d="m265 447 1 1-1-1z" class="W"/><path d="m266 447 1 1-1-1z" class="B"/><path d="m273 447 1 1-1-1z" class="a"/><path d="m274 447 1 1-1-1m-8 1 1 1-1-1z" class="j"/><path d="m267 448 1 1-1-1z" class="a"/><path d="m271 448 1 1-1-1z" class="B"/><path d="m272 448 1 1-1-1z" class="W"/><path d="m273 448 1 1-1-1m-6 1 1 1-1-1z" class="M"/><path d="m268 449 1 1-1-1z" class="W"/><path d="m269 449 1 1-1-1z" class="B"/><path d="m270 449 1 1-1-1z" class="a"/><path d="m271 449 1 1-1-1z" class="j"/><path d="m269 450 1 1-1-1z" class="S"/><path d="m270 450 1 1-1-1z" class="M"/><path d="M271 383c1.543 3.63 6.5 7.637 7.85 9.6-1.73 1.964-2.077 1.75-1.85 5.4 3-3.15 3.064-3.478 5-3 4.24 4.232.76 13.32-2.746 15.297-3.504 2.108-2.868-.073-8.12 2.57 2.408 2.06 5.198-.302 7.478.33 1.24 1.47-.59 4.15.374 6.672 2.015-.194 1.773-4.262 2.242-5.737C282.7 408.726 291.55 404.957 292 400c1.866-.876 3.73-.274 6 1-1.13-4.644-4.868-4.594-5.87-6.044-2.385-3.645-4.5-7.802-9.593-8.88-3.867-.82-3.578.246-6.056-1.444-1.54-1.202-6.23-3.474-5.48-1.63z" fill="#f90"/><use xlink:href="#D" class="n z"/><g transform="matrix(-.46716 -.88417 .88417 -.46716 308.31 678.65)"><use xlink:href="#E" fill="#f90"/><path d="M282.118 91.123c0 .445-.36.806-.806.806s-.806-.36-.806-.806.36-.806.806-.806.806.36.806.806z" class="n z"/></g><g transform="matrix(-.51504 .85717 -.85717 -.51504 493 213.06)"><use xlink:href="#E" fill="#f90"/><path d="M282.118 91.123c0 .445-.36.806-.806.806s-.806-.36-.806-.806.36-.806.806-.806.806.36.806.806z" class="n z"/></g></g></g></svg>