<svg xmlns="http://www.w3.org/2000/svg" height="480" width="640" xmlns:v="https://vecta.io/nano"><path fill-rule="evenodd" fill="#de2110" d="M0 0h640v480H0z"/><path d="M229.27 120.15c7.43-.725 8.94-.628 14.397.784-7.008 3.206-15.293 1.604-20.432-2.95-7.766-7.05-26.26-19.242-19.647-8.854 34.312 38.023 63.863 12.315 81.834 34.21 6.122 7.457 11.527 17.467 8.307 27.3-1.1 3.365-5.08 11.282-9.9 9.27-6.298-2.635 1.194-23.33-3.39-30.065-10.4-15.29-29.27-11.2-44.747-12.85-4.5 12.176-15.306 10.34-25.25 4.2-12.695-7.84-12.313-27.12-23.658-33.488-11.823-6.636-9.896 15.588-7.99 20.87 8.253 22.88 32.553 31.434 54.795 27.366-16.462 25.49-42.552-16.5-55.476-6.216-8.2 6.525 6.284 18.397 11.302 21.12 13.882 7.536 30.563 3.75 44.174-2.274-7.772 8.44-22.072 13.62-33.68 11.907-5.996-.885-18.007-8.42-23.47-3.398-8.432 7.752 12.154 16.947 17.154 18.034 16.853 3.666 28.79-5.226 42.1-13.914-8.36 8.355-17.283 19.794-29.47 22.295-7.6 1.56-24.377-6.198-29.29 1.855-5.873 9.63 9.7 15.722 16.66 15.12 16.487-1.425 31.795-14.69 44.206-24.535-8.53 12.1-21.695 24.904-35.786 30.37-7.396 2.87-20.112-1.57-25.68 4.873-8.578 9.927 10.308 15.785 17.26 14.095 20.29-4.936 31.115-27.138 50.52-34.603-13.163 12.124-27.107 30.906-42.29 39.893-7.544 4.467-19.847-1.006-25.814 5.583-13.486 14.893 20.3 18.076 29.847 10.186 15.988-13.213 23.652-32.155 42.467-43.032-12.548 17.066-28.44 42.55-44.402 56.325-7.598 6.557-24.28.804-29.093 8.096-9.667 14.645 21.51 17.16 29.28 11.984 25.513-16.988 26.907-56.363 58.95-65.88-9.08 19.447-18.14 45.77-39.996 52.626 3.28 9.88 14.874 10.742 22.326 3.54 12.788-12.355 10.148-40.48 32.405-41.432l-16.05 22.5c.853 9.19 17.325-3.137 22.366-11.974h2.105c-8.77 20.92-24.25 32.6-44.206 42.1.392 12.472-7.953 18.897-18.946 23.156-5.915-10.875-21.678-18.964-29.47-6.315 6.185.834 11.7 1.996 12.63 8.42-9.807-3.54-17.547-5.218-21.05 6.315 11.5-1.886 15.415-1.467 17.367 3.553-7.854 9.045-6.573 22.804 7.894 24.14-4.035-2.916-6.755-4.846-4.538-8.75 3.208-4.26 7.006.05 8.867-2.488 3.473-5.07.345-3.3 4.774-1.26 3.63 2.598 9.532-8.273 17.935 10.062 10.106-7.27.383-18.762-3.882-27.366l31.576-6.315 35.786-33.68 2.105 2.105c-11.567 18.2-28.214 33.826-50.52 35.786 7.467 13.542 22.116 6.56 33.68 2.105-5.03 9.812-18.085 9.866-22.467 17.986-8.987 16.653 28.56-.514 30.888-1.145-3 10.567-14.826 12.685-17.9 21.642-2.387 6.955 7.357 7.644 11.496 5.625 7.987-3.9 13.207-14.48 19.034-20.952-2.728 12.63 2.44 22.63-11.47 37.234l21.34 26.246 24.36-26.277c-13.447-11.635-5.19-25.242-7.782-37.86 5.696 6.68 7.635 17.643 15.73 21.608 3.774 1.848 11.565 1.907 10.618-4.31-1.34-8.8-14.272-13.323-17.007-22.958 2.695.9 39.09 17.96 30.72 1.145-3.968-7.968-17.396-8.42-22.3-17.986 11.698 4.505 23.707 10.184 33.68 0-18.54-6.442-46.116-17.413-48.416-39.996l36.386 31.33 30.976 10.772v2.105c-7.55 7.865-11.92 13.35-5.658 22.958l7.698 2.305c-4.934-5.44-3.288-8.248 0-10.397 5.57-2.654 8.92 2.5 11.077-2.82.98-2.58 1.322-3.795 1.82-.644.55 5.58 8.28 1.288 10.984 2.017 4.23 4.166-2.063 8.332-2.764 11.84 11.96-4.19 14.222-11.53 10.525-23.156.79-4.408 3.553-6.513 6.315-6.315 3.137.373 5.614 1.404 8.42 2.105-4.107-10.727-11.355-10.32-21.05-6.315.878-6.425 4.056-9.56 10.525-8.42-4.86-14.586-22.438-2.878-27.366 6.315-11.447-3.798-22.406-10-18.946-23.156-19.343-9.207-37.348-20.613-44.206-42.1h2.105c5.042 8.837 21.185 14.914 20.063 6.71L359.9 248.555c29.606 1.272 17.813 55.09 54.732 44.206v-4.2c-21.244-11.833-29.972-33.262-39.996-54.732 31.51 9.36 32.553 48.444 57.032 65.512 7.83 5.458 40.78 3.995 31.092-11.616-4.358-7.022-21.735-1.954-29.098-8.096-16-13.338-32.073-39.273-44.3-56.325 19.337 12.29 28.593 37.04 48.418 46.968 8.372 4.193 28.216 3.568 25.368-10.88-2.025-10.28-18.514-4.55-25.34-7.475-15.314-6.566-31.963-29.497-44.238-41.244 18.38 8.072 29.277 28.635 48.416 34.41 7.043 2.126 25.233-1.042 20.194-12.45-3.58-8.105-19.61-3.735-26.51-6.22-15.167-5.462-26.823-19.41-37.89-30.478 14.855 8.545 28.292 23 46.31 24.535 6.957.593 25.008-7.663 15.53-16.47-6.166-5.727-18.632.664-26.054-.18-11.957-1.358-22.01-11.9-29.47-20.518 17.388 10.682 71.357 15.232 61.9-7.105-6.564-5.46-13.736 4.05-26.646 4.41-13.527.03-26.943-3.178-38.017-11.71 14.104 4.762 30.3 9.815 44.83 3.003 5.17-2.42 23.678-17.756 11.717-23.02-9.325-4.104-18.937 9.1-26.42 12.453-9.275 4.143-20.097 1.124-29.47-1.186v-2.105c19.226-1.02 38.316-2.113 50.966-19.03 4.153-5.556 14.98-28.308 2.886-32.014-4.827-1.48-8.568 3.34-10.578 6.96-5.907 10.647-32.247 52.933-43.274 23.032-15.508 1.655-34.294-2.425-44.75 12.85-4.64 6.78 2.526 27.582-3.734 30.065-17.69 7.017-5.875-31.642-1.587-36.57 19.063-21.914 70.6-3.048 79.542-33.713.97-8.132-10.62 6.42-16.076 9.948-5.91 3.642-13.416 3.88-19.7 2.683 6.677-3.498 12.04-2.4 16.25-3.092-3.95-6.943-13.013-6.062-15.33-9.907-3.023-5.458-15.08-7.05-21.928-5.968-13.028 2.88-18.04 6.765-42.143.022l10.525 12.63-15.085 6.303 6.665 4.222-12.63 8.42c2.105.702 7.117.706 6.78 2.686l-10.176 17.306c-2.11-3.628-9.056-13.126-10.035-16.77-.5-1.626 2.446-2.386 6.418-3.105l-11.934-8.537 7.713-4.506-16.133-6.02 8.42-12.63c-13.424 8.955-24.947-3.562-40.49.1-6.627 1.506-11.978 8.885-18.217 7.654-5.263-.9-11.397 2.23-15.087 9.088z"/><path d="M132.34 331.3c.65.313 1.848.156 2.03.86-1.224.443-2.682.495-3.906.4.573-1.302 1.225-.807 1.876-1.25zm55.86.23c-.65.313-1.847.156-2.03.86 1.224.443 2.682.495 3.905.4-.572-1.302-1.225-.807-1.876-1.25z" fill-rule="evenodd" fill="#de2110"/></svg>