<svg xmlns="http://www.w3.org/2000/svg" xmlns:xlink="http://www.w3.org/1999/xlink" height="480" width="640" xmlns:v="https://vecta.io/nano"><style><![CDATA[.B{stroke-opacity:.387}.C{stroke-opacity:.15}.D{stroke-linejoin:round}.E{stroke-width:.484}.F{fill:#00699d}.G{fill-opacity:.867}.H{fill-rule:evenodd}.I{stroke-opacity:.17}.J{stroke-opacity:.134}.K{fill:none}.L{stroke-width:.625}.M{stroke-width:1.259}.N{stroke-width:1.325}.O{stroke-opacity:.078}.P{stroke-width:1.014}.Q{stroke-opacity:.063}.R{fill:#f0bf00}.S{stroke-opacity:.082}.T{stroke-width:.387}.U{fill-opacity:.368}.V{stroke-width:1.033}.W{stroke-width:1.092}.X{stroke-width:1.216}.Y{stroke-width:1.303}.Z{stroke-width:1.237}.a{stroke-width:1.484}]]></style><g class="H"><path fill="#00c4ff" d="M0-.01h640.003v160.43H0z"/><path fill="#fff" d="M0 159.763h640.003v160.43H0z"/><path fill="#00c4ff" d="M0 319.536h640.003v160.43H0z"/></g><g transform="matrix(1.614 0 0 1.614 -223.61 -145.74)"><g stroke="#000" class="B"><path d="M363.674 240.246c0 14.62-12.093 26.47-27 26.47s-27-11.85-27-26.47 12.093-26.47 27-26.47 27 11.85 27 26.47z" fill="#ffd600" stroke-width=".632" class="H"/><path d="M344.283 221.324c-3.416-.8-6.914.322-8.016.243-1.515 0-5.344-1.28-8.016 0m-4.21 3.73c3.388-2.296 7.174.828 8.18.24 2.748-1.75 5.302-1.425 7.933.16 1.696.97 4.655-2.83 8.098.24" class="K T"/><g class="H"><path d="M320.238 229.218c1.8-1.415 7.63-1.468 13.635 1.84.9-.214 1.488-.827.744-1.68-4.518-1.522-9.778-3.444-14.627-2.002-1.322.908-.992 1.495.248 1.842zm31.962 0c-1.8-1.415-7.63-1.468-13.635 1.84-.9-.214-1.488-.827-.744-1.68 4.518-1.522 9.778-3.444 14.627-2.002 1.322.908.992 1.495-.248 1.842z" fill="#efc000" class="T"/><path d="M317.846 233.947c5.923-3.684 13.745-1.762 17.023.24-4.793-.88-4.876-1.28-8.347-1.36-2.452.08-6.06-.16-8.676 1.12z" class="D E R"/></g><path d="M331.4 233.543c-2.892 5.846-7.933 5.926-11.486-.32" class="E K"/></g><g class="H"><path d="M329.858 235.334c-.857.938-2.956 1.495-4.687 1.245s-2.44-1.214-1.582-2.152 2.956-1.495 4.687-1.245 2.44 1.214 1.582 2.152z" class="U"/><path d="M325.594 234.13c.088.218-.185.508-.6.647s-.842.075-.93-.144.185-.508.6-.647.842-.075.93.144z" fill="gold"/></g><g stroke="#000"><g class="E K B"><use xlink:href="#B"/><g class="D"><use xlink:href="#C"/><use xlink:href="#D"/></g></g><path d="M327.55 269.206c-3.13 7.94.298 11.714-1.233 16-1.475 4.117-7.9 14.32-3.007 18.754 3.88.174-.67-5.626 7.093-16.364 3.6-5.03-.94-8.214 2.853-18.08.353-.844-5.212-1.55-5.705-.298zm6.628.6c-1.203 8.9-.488 36.287 2.4 35.192 3.187.995 3.607-26.82 3.315-35.043-.04-.9-5.538-1.478-5.705-.15z" fill="gold" class="H B D E"/><g class="K"><g class="L B D"><use xlink:href="#E" transform="matrix(-.56256 -.5334 -.55044 .54515 657.14 309.12)"/><use xlink:href="#E" transform="matrix(.55074 .54486 -.56226 .53369 265.32 -69.993)"/><use xlink:href="#E" transform="matrix(-.004531 -.76268 -.78704 .00439 511.37 509.69)"/><use xlink:href="#F" transform="matrix(-.72199 -.30364 -.31333 .69965 656.38 192.05)"/><use xlink:href="#F" transform="matrix(-.56065 -.53529 -.55238 .5433 651.5 306.4)"/><use xlink:href="#F" transform="matrix(-.30753 -.70206 -.72448 .29802 602.06 417.74)"/></g><use xlink:href="#B" class="E S"/></g><g class="D H"><g class="R E S"><use xlink:href="#C"/><use xlink:href="#D"/></g><g fill="gold"><g class="L"><use xlink:href="#E" transform="matrix(-.56256 -.5334 -.55044 .54515 657.14 309.12)" class="C"/><use xlink:href="#E" transform="matrix(.55074 .54486 -.56226 .53369 265.32 -69.993)" class="C"/><use xlink:href="#E" transform="matrix(-.004531 -.76268 -.78704 .00439 511.37 509.69)" class="C"/><use xlink:href="#F" transform="matrix(-.72199 -.30364 -.31333 .69965 656.38 192.05)" class="C"/><use xlink:href="#F" transform="matrix(-.56065 -.53529 -.55238 .5433 651.5 306.4)" class="C"/><use xlink:href="#F" transform="matrix(-.30753 -.70206 -.72448 .29802 602.06 417.74)" class="C"/><use xlink:href="#F" transform="matrix(0 -.7627 .78705 0 164.06 504.41)" class="B"/></g><path d="M345.948 269.6c3.13 7.94-.298 11.714 1.233 15.99 1.475 4.117 7.9 14.32 3.007 18.754-3.88.174.67-5.626-7.093-16.364-3.6-5.03.94-8.214-2.853-18.08-.353-.844 5.212-1.55 5.705-.298z" class="B E"/><g class="L"><use xlink:href="#E" transform="matrix(.56256 -.5334 .55044 .54515 16.584 309.51)" class="B"/><use xlink:href="#E" transform="matrix(-.55074 .54486 .56226 .53369 408.41 -69.796)" class="B"/><use xlink:href="#E" transform="matrix(.004531 -.76268 .78704 .00439 162.13 509.69)" class="B"/><use xlink:href="#F" transform="matrix(.72199 -.30364 .31333 .69965 17.304 192.45)" class="B"/><use xlink:href="#F" transform="matrix(.56065 -.53529 .55238 .5433 21.69 306.4)" class="B"/><use xlink:href="#F" transform="matrix(.30753 -.70206 .72448 .29802 71.779 417.74)" class="B"/><use xlink:href="#E" transform="matrix(.56256 -.5334 .55044 .54515 16.584 309.51)" class="C"/><use xlink:href="#E" transform="matrix(-.55074 .54486 .56226 .53369 408.41 -69.796)" class="C"/><use xlink:href="#E" transform="matrix(.004531 -.76268 .78704 .00439 162.13 509.69)" class="C"/><use xlink:href="#F" transform="matrix(.72199 -.30364 .31333 .69965 17.304 192.45)" class="C"/><use xlink:href="#F" transform="matrix(.56065 -.53529 .55238 .5433 21.69 306.4)" class="C"/><use xlink:href="#F" transform="matrix(.30753 -.70206 .72448 .29802 71.779 417.74)" class="C"/><use xlink:href="#F" transform="matrix(0 .7627 -.78705 0 509.35 -23.965)" class="B"/></g><path d="M327.472 210.838c-3.13-7.94.298-11.714-1.233-15.99-1.475-4.117-7.9-14.32-3.007-18.754 3.88-.174-.67 5.626 7.093 16.364 3.6 5.03-.94 8.214 2.853 18.08.353.844-5.212 1.55-5.705.298z" class="B E"/><g class="L"><use xlink:href="#E" transform="matrix(-.56256 .5334 -.55044 -.54515 656.83 170.93)" class="B"/><use xlink:href="#E" transform="matrix(.55074 -.54486 -.56226 -.53369 265.01 550.24)" class="B"/><use xlink:href="#E" transform="matrix(-.004531 .76268 -.78704 -.00439 511.29 -29.254)" class="B"/><use xlink:href="#F" transform="matrix(-.72199 .30364 -.31333 -.69965 656.11 288)" class="B"/><use xlink:href="#F" transform="matrix(-.56065 .53529 -.55238 -.5433 651.73 174.04)" class="B"/><use xlink:href="#F" transform="matrix(-.30753 .70206 -.72448 -.29802 601.64 62.696)" class="B"/><use xlink:href="#E" transform="matrix(-.56256 .5334 -.55044 -.54515 656.83 170.93)" class="C"/><use xlink:href="#E" transform="matrix(.55074 -.54486 -.56226 -.53369 265.01 550.24)" class="C"/><use xlink:href="#E" transform="matrix(-.004531 .76268 -.78704 -.00439 511.29 -29.254)" class="C"/><use xlink:href="#F" transform="matrix(-.72199 .30364 -.31333 -.69965 656.11 288)" class="C"/><use xlink:href="#F" transform="matrix(-.56065 .53529 -.55238 -.5433 651.73 174.04)" class="C"/><use xlink:href="#F" transform="matrix(-.30753 .70206 -.72448 -.29802 601.64 62.696)" class="C"/></g><path d="M339.195 210.62c1.203-8.91.488-36.287-2.4-35.192-3.187-.995-3.607 26.82-3.315 35.043.04.91 5.538 1.478 5.705.15z" class="B E"/><g class="L"><use xlink:href="#E" transform="matrix(0 .7627 .78705 0 163.72 -30.464)" class="B"/><use xlink:href="#E" transform="matrix(-.55044 -.54515 .56256 -.5334 408.01 550.44)" class="B"/><use xlink:href="#E" transform="matrix(.56226 .53369 .55074 -.54486 16.589 170.74)" class="B"/><use xlink:href="#E" transform="matrix(-.78704 -.00439 .004531 -.76268 614.58 409.4)" class="B"/><use xlink:href="#F" transform="matrix(-.31333 -.69965 .72199 -.30364 287.2 549.74)" class="B"/><use xlink:href="#F" transform="matrix(-.55238 -.5433 .56065 -.53529 404.79 545.49)" class="B"/><use xlink:href="#F" transform="matrix(-.72448 -.29802 .30753 -.70206 519.7 496.95)" class="B"/><use xlink:href="#E" transform="matrix(-.55044 -.54515 .56256 -.5334 408.01 550.44)" class="C"/><use xlink:href="#E" transform="matrix(.56226 .53369 .55074 -.54486 16.589 170.74)" class="C"/><use xlink:href="#E" transform="matrix(-.78704 -.00439 .004531 -.76268 614.58 409.4)" class="C"/><use xlink:href="#F" transform="matrix(-.31333 -.69965 .72199 -.30364 287.2 549.74)" class="C"/><use xlink:href="#F" transform="matrix(-.55238 -.5433 .56065 -.53529 404.79 545.49)" class="C"/><use xlink:href="#F" transform="matrix(-.72448 -.29802 .30753 -.70206 519.7 496.95)" class="C"/></g></g></g><g class="K"><path d="M316.128 227.46h-2.48m1.86 1.545h-2.48" class="V I"/><path d="M315.243 230.464h-2.746m1.948 1.374H311.7" class="W I"/><path d="M314.262 233.297h-3.277" class="I X"/><path d="M314.343 234.756h-3.63" class="I Y"/><path d="M313.817 236.386h-3.454" class="I M"/><path d="M313.997 238.017h-3.366" class="I Z"/><path d="M313.994 239.562h-3.454" class="I M"/><path d="M314.887 241.364h-4.34" class="I a"/><g class="N"><path d="M314.52 243.424h-3.72" class="I"/><path d="M314.6 244.883h-3.72m4.34 1.974h-3.72m3.807 1.717h-3.72m4.783 1.888h-3.72m4.783 1.545h-3.72m4.694 1.803h-3.72m4.873 1.715h-3.72m4.516 1.63h-3.72m5.402 1.98h-3.72" class="O"/></g><path d="M322.77 260.935h-2.39" class="O P"/><path d="M314.6 244.883h-3.72m4.34 1.974h-3.72m3.807 1.717h-3.72m4.783 1.888h-3.72m4.783 1.545h-3.72m4.694 1.803h-3.72m4.873 1.715h-3.72m4.516 1.63h-3.72m5.402 1.98h-3.72" class="N O"/><path d="M323.155 260.785h-2.39" class="O P"/></g><g class="H F G"><path d="M357.177 227.066h2.48m-1.86 1.544h2.48" class="V J"/><path d="M358.055 230.07h2.746m-1.94 1.373h2.746" class="W J"/><path d="M359.044 232.902h3.277" class="J X"/><path d="M358.96 234.36h3.63" class="J Y"/><path d="M359.483 235.992h3.454" class="J M"/><path d="M359.304 237.623h3.366" class="J Z"/><path d="M359.313 239.168h3.454" class="J M"/><path d="M358.413 240.97h4.34" class="J a"/><g class="N"><path d="M358.78 243.03h3.72" class="J"/><path d="M358.7 244.5h3.72m-4.34 1.973h3.72m-3.8 1.717h3.72m-4.78 1.888h3.72m-4.78 1.545h3.72m-4.7 1.802h3.72m-4.87 1.72h3.72m-4.5 1.63h3.72m-5.4 1.97h3.72" class="Q"/></g><path d="M350.528 260.535h2.39" class="P Q"/></g><g class="K Q"><path d="M358.7 244.5h3.72m-4.34 1.973h3.72m-3.8 1.717h3.72m-4.78 1.888h3.72m-4.78 1.545h3.72m-4.7 1.802h3.72m-4.87 1.72h3.72m-4.5 1.63h3.72m-5.4 1.97h3.72" class="N"/><path d="M350.528 260.535h2.39" class="P"/></g><g class="E B"><path d="M355.412 233.75c-5.923-3.684-13.745-1.762-17.023.24 4.793-.88 4.876-1.28 8.347-1.36 2.452.08 6.06-.16 8.676 1.12z" class="D H R"/><path d="M351.95 233.15c-2.892 5.846-7.933 5.926-11.486-.32" class="K"/></g></g><g class="H"><path d="M350.393 234.992c-.886.898-3.054 1.432-4.842 1.192s-2.52-1.162-1.634-2.06 3.054-1.432 4.842-1.192 2.52 1.162 1.634 2.06z" class="U"/><path d="M346.148 233.74c.088.218-.185.508-.6.647s-.842.075-.93-.144.185-.508.6-.647.842-.075.93.144z" fill="gold"/></g></g><defs ><path id="B" d="M332.28 243.6c-3.336 5.436 1.2 1.602 1.948 3.176 1.3 1.46 2.598 1.115 3.365 0 .768-1.26 5.61 2.374 2.303-3.004"/><path id="C" d="M326.346 252.618c2.863-.315 7.676-2.43 9.39-.686 1.476-1.573 6.672.458 10.007.686-2.42 1.43-7.32.458-9.653 1.974-2.274-1.345-7.293-.114-9.743-1.974z"/><path id="D" d="M330.958 255.112c4.34 1.717 5.314 1.46 10.008.172-.974 2.49-3.46 3.013-4.872 2.918-1.462-.092-3.454.086-5.136-3.1z"/><path id="E" d="M343.17 258.06c-3.977 10.4.38 15.358-1.567 20.964-1.874 5.398-10.025 18.776-3.82 24.59 4.93.228-.852-7.376 9.012-21.455 4.575-6.595-1.196-10.77 3.625-23.707.45-1.107-6.622-2.03-7.25-.39z"/><path id="F" d="M342.97 258.16c-1.528 11.683-.62 47.577 3.037 46.14 4.05 1.305 4.583-35.163 4.212-45.946-.052-1.194-7.036-1.938-7.25-.195z"/></defs></svg>