<svg xmlns="http://www.w3.org/2000/svg" xmlns:xlink="http://www.w3.org/1999/xlink" width="1000" height="500" xmlns:v="https://vecta.io/nano"><style><![CDATA[.B{fill:#fff}.C{fill-rule:evenodd}.D{fill:#00005b}.E{stroke:#00005b}.F{stroke-width:3.75}.G{stroke-width:1.331}.H{stroke-width:3.601}.I{stroke-width:1.332}]]></style><path fill="#eea400" d="M0 0h1000v500H0z"/><path d="M0 0h350.8v500H0z" class="D"/><g transform="matrix(.099206 0 0 .099206 -567.653513 .000032)"><path id="A" d="M7560 480l69.42 215.84 212.04-80.3-125.47 188.85 195 115.7-225.88 19.65 31.105 224.6-156.1-164.3-156.2 164.35 31.105-224.6-225.88-19.65 195-115.7-125.47-188.85 212.04 80.3z" class="B"/><path d="M8064 2520l54.86 134.5 144.86 10.615-110.96 93.735 34.67 141.05-123.43-76.56-123.43 76.56 34.67-141.05-110.96-93.735 144.86-10.615z" class="B"/><use xlink:href="#A" y="1364.95" x="-1260.002"/><use xlink:href="#A" y="1028.947" x="1119.997"/><use xlink:href="#A" y="3359.947"/></g><g transform="matrix(1.005802 0 0 .86433 54.483756 20.258348)"><g transform="matrix(.334581 0 0 .314286 404.5364 400.8999)"><g class="C"><path d="M460.624-655.512v354.32c0 177.164 184.252 265.74 219.68 265.74 35.434 0 205.52-88.584 205.52-265.74v-354.32h-425.2z" class="D"/><g transform="matrix(.140955 .339507 -.345096 .152884 441.8813 -453.3421)"><g stroke="#fff" class="D F"><path d="M17.716-318.897L53.15-301.18c17.717 0 17.717 17.717 0 17.717L17.716-301.18c-17.7-1.568-17.717-17.716 0-17.716z"/><use xlink:href="#E"/><use xlink:href="#E" y="35.434"/><use xlink:href="#E" y="53.15"/><use xlink:href="#E" y="70.866"/><use xlink:href="#E" x="-0.001" y="106.3"/><use xlink:href="#E" y="88.584"/><use xlink:href="#E" y="124.016"/><use xlink:href="#E" y="141.732"/><path d="M17.717-177.165L53.15-159.45c17.717 0 17.717 17.717 0 17.717L17.717-159.45c-17.7-1.568-17.717-17.716 0-17.716z"/><path d="M17.717-159.45l35.433 17.716H17.717C.026-143.3 0-159.45 17.717-159.45z"/></g><g fill="#fffffe" class="E"><path d="M17.716-354.33l7.087-748.88 10.63-66.077 14.173 66.077 3.543 748.88H17.716z" stroke-width="4.231"/><path d="M-35.433-354.335h141.73l35.433-35.433 17.716 17.717-53.15 53.15h-141.73l-53.15-53.15 17.716-21.26 35.433 38.976zM0-141.732h70.866c17.716 0 17.716 35.433 0 35.433H0c-17.7-1.568-17.717-35.433 0-35.433z" class="F"/></g></g><g class="B"><path d="M613-194.88h124v3.543H613zm0-10.62h124v3.543H613zm0-10.64h124v3.543H613zm0-10.63h124v3.543H613zm3.54-42.53h124.02v3.543H616.54zM613-237.4h124v3.543H613zm0-10.63h124v3.543H613zm3.54-31.9h124.02v3.543H616.54zM613-258.66h124v3.543H613zm3.54-31.9h124.02v3.543H616.54z"/><use xlink:href="#F"/><use xlink:href="#F" x="10.63"/><path d="M662.6-294.1h3.543v106.3H662.6z"/><use xlink:href="#F" x="-21.26"/><use xlink:href="#F" x="-31.89"/><path d="M630.7-294.1h3.543v106.3H630.7z"/><use xlink:href="#F" x="-53.15"/><use xlink:href="#F" x="31.89"/><path d="M694.5-294.1h3.543v106.3H694.5z"/><use xlink:href="#F" x="42.52"/><use xlink:href="#F" x="53.15"/><g class="E"><path stroke-width="1.134pt" d="M641.34-411.02h63.78v88.583h-63.78z"/><path d="M615.85-187.892c0-76.8 43.98-104.683 57.824-103.906 12.846-.778 57.824 27.106 58.882 104.328 12.286-.422 43.422-.422 43.422-.422V-318.91h-209.06v131.017h48.927z" stroke-width="1.686"/><path d="M783.068-322.05v8.662h-23.49v8.662h-9.4v-8.662h-28.19v8.662h-9.397v-8.662h-32.89v8.662H670.3v-8.662h-32.89v8.662h-9.397v-8.662h-28.194v8.662h-9.397v-8.662h-23.494v-8.662h216.14z" stroke-width="3.097"/><path d="M778.395-326.378l4.675-8.66h-18.696v-8.662H745.68v8.662h-18.696v-8.662h-18.7v8.662h-23.368v-8.662h-18.7v8.662h-23.37v-8.662H624.15v8.662h-18.696v-8.662H586.76v8.662h-18.7l-4.675 8.66h215z" stroke-width="3.083"/><path d="M634.254-428.74l7.087 17.716h63.78l7.086-17.716h-77.953z" stroke-width="1.509"/><path d="M634.257-449.998v21.26H712.2v-21.26h-3.897v4.252h-7.796v-4.252h-7.795v4.252h-15.59v-4.252h-7.795v4.252h-15.6v-4.252h-7.796v4.252h-7.796v-4.252h-3.897z" stroke-width="1.181"/><g transform="matrix(.37741 .194885 -.226679 .486911 578.4083 -351.3613)" class="F"><path d="M-265.75-407.48h673.23v35.433h-673.23z"/><path d="M194.88-407.48h17.717v35.433H194.88zm88.58 0h17.717v35.433H283.46zm-265.743 0h17.717v35.433H17.717zm88.583 0h17.717v35.433H106.3z"/><use xlink:href="#G"/><use xlink:href="#G" x="106.304"/><use xlink:href="#G" x="-88.58"/><path d="M-266.5-406.94l-52.41-35.968-70.866 53.15h-35.433l106.3-70.866 52.41 53.685z"/><path d="M-265.75-372.045l-53.15 35.433-70.866-53.15h-35.433l106.3 70.866 53.15-53.15z"/><path d="m-442.91-407.48-17.717,17.716,17.717,17.717,70.866-17.717-70.866-17.716z"/></g><g stroke-width="1.812"><path d="M627.305-134.527l13.2-24.923h26.42l6.605 24.923 6.605-24.923h26.42l13.2 24.923-26.42 12.46 26.42-6.23 6.605 24.923-13.2 18.692-26.416-19.15 19.815 25.38-26.526 13.453-26.312-13.453 13.336-23.692-31.77 42.2-7.16-5.487 33.112-37.99-20.73 18.728-20.436-13.24 7.227-30.374 26.42 6.23-26.42-12.46z"/><path d="M693.354-115.835c0 10.323-8.87 18.692-19.815 18.692s-19.815-8.37-19.815-18.692 8.87-18.692 19.815-18.692 19.815 8.37 19.815 18.692z"/></g><path d="M602.362-525.6l16.674 29.528h108.386l16.674-29.528-66.697-49.212-4.733-9.843-3.604 9.843-66.697 49.212zm16.674 0h108.386l-54.32-39.37-54.06 39.37zm-.725 9.685l7.907 14.67 17.83-.667-4.838-13.845-20.898-.158zm109.106.158l-7.907 14.67h-17.104l4.114-14.67h20.898zm-79.172 0c4.138-.51 20.813 0 20.813 0v13.845h-16.674l-4.138-13.845zm49.962.226c-4.138-.51-20.813 0-20.813 0v13.845h16.674l4.138-13.845z" stroke-width="1.931"/></g></g></g><g id="B" class="C"><g class="E B"><path d="M496.06-230.3h106.3v53.15h-106.3zm17.715-35.45l-17.716 35.433h106.3l-17.716-35.433h-70.867z" stroke-width="1pt"/><path d="M513.775-265.75l10.63-124.012h49.606l10.63 124.012h-70.867z" stroke-width="1.151"/><path d="M513.775-407.48l10.63 17.716h49.606l10.63-17.716h-70.867z" stroke-width="1pt"/><path d="M513.783-428.738v21.26h70.866v-21.26h-3.543v4.252h-7.087v-4.252h-7.086v4.252H552.76v-4.252h-7.086v4.252H531.5v-4.252h-7.087v4.252h-7.087v-4.252h-3.543z" stroke-width="1.099"/></g><path d="M531.497-364.963h3.544v10.63h7.086v3.543h-7.086v14.173h-3.544V-350.8h-7.086v-3.543h7.086v-10.63zm31.9 56.693h3.544v10.63h7.086v3.543h-7.086v14.173h-3.544v-14.173H556.3v-3.543h7.086v-10.63z" class="D"/></g><path d="M577.56-326.38h194.88v4.33H577.56zm99.2-56.3h-3.544v10.63h-7.086v3.543h7.086v14.173h3.544v-14.173h7.086v-3.543h-7.086v-10.63z" class="C D"/><use xlink:href="#B" transform="matrix(-1 0 0 1 1350.0002 0)"/></g><g transform="matrix(1.190319 0 0 1.432018 -192.8326 -124.6715)"><g class="B C E"><path d="M809.56 325.818l-.844 24.137s-9.287-.928-15.198 2.785-10.132 6.498-9.287 6.498 10.132-5.57 14.353-5.57 6.755 5.57 7.6 4.642 5.066-6.498 10.976-6.498 14.353 3.714 13.51 2.785-12.665-6.498-14.353-8.355 0-18.567-1.688-18.567-3.377 0-5.066-1.857z" class="G"/><use xlink:href="#H" transform="matrix(-.058952 .303707 -.435316 -.06482 1025.065 118.5627)" class="H"/></g><use xlink:href="#C" transform="matrix(-1 0 0 1 1321.489 -4.801079)" stroke-width="1.328" class="B E"/><path d="M758.47 204.487s3.538-3.022 3.908-3.768c-.993-.15-2.78-.77-4.107-1.885-2.743-2.613-3.972-8.14-3.972-7.72s-5.266 8.632-5.266 8.632l9.437 4.74z" fill="#01015c" class="C"/><g stroke="#01015c" fill="none"><path d="M760.45 191.092l7.155-6.267" class="I"/><use xlink:href="#I" transform="matrix(.293931 .213672 -.247764 .253487 630.9539 12.41003)" stroke-width="2.5"/></g></g><g transform="matrix(1.190319 0 0 1.432018 -121.4218 -131.5464)"><g class="B C E"><path d="M511.93 330.62l.844 24.137s9.287-.928 15.198 2.785 10.132 6.498 9.287 6.498-10.132-5.57-14.353-5.57-6.755 5.57-7.6 4.642-5.066-6.498-10.976-6.498-14.353 3.714-13.51 2.785 12.665-6.498 14.353-8.355 0-18.567 1.688-18.567 3.377 0 5.066-1.857z" class="G"/><use xlink:href="#H" transform="matrix(.058952 .303707 .435316 -.06482 298.2245 125.1639)" class="H"/></g><g stroke="#eea400" class="D C"><g id="C"><path d="M698.52 275.22c4.8-4.8-36.006-19.203-19.203-45.608s55.2-7.2 64.81 31.206-16.803 88.816-14.402 134.42-7.202 40.807 4.8 79.214c-9.602-4.8-26.405-33.605-28.805-74.413s9.6-88.816 4.8-93.617" transform="matrix(-.688531 -.253223 -.219797 .458466 1069.253 280.6867)" stroke-width="2.18"/><g stroke-width="1.334"><path d="M503.12 279.295c-5.45 2.387-31.344 23.872-38.158 37-2.726 9.55-6.813 20.3 8.177 19.097 9.54-1.193 4.088-11.935 9.54-15.516s25.893-16.7 25.893-17.904-4.088-19.098-5.45-22.678zm29.98 26.26c4.088 0 25.893-2.387 28.618 4.775s-32.707 11.936-32.707 10.742 2.726-13.13 4.1-15.517z"/><path d="M553.544 200.517c-11.386-11.243-27.358-19.17-34.07-11.936-11.005 11.862 35.433 34.614 39.52 56.1s-14.99 37-17.716 51.325-2.726 23.872-10.902 27.453-16.353 1.193-16.353 1.193 2.725 14.323-8.177 13.13c-6.814 0 1.363-58.486-1.363-82.358s20.44-29.84 20.44-29.84-28.93-24.002-21.805-37.002c9.23-16.84 23.168-11.936 32.707-9.55s18.263 4.55 28.054 12.852c9.457 8.427 18.046 33.698 14.192 32.854l-24.53-24.222z"/><path d="M527.65 285.26s0 15.516-1.363 14.323-6.814-10.742-6.814-10.742-4.088 16.7-4.088 15.516-4.09-11.936-4.09-11.936-1.363 17.904-2.726 17.904-5.45-10.742-5.45-10.742-4.09 22.678-4.09 20.29-4.088-13.13-4.088-11.936-6.814 26.26-6.814 25.066 1.363-85.94 1.363-85.94l23.168 2.387"/></g><path d="M534.464 243.484c-1.792 0-23.303 0-26.888-2.387s26.888-9.55 14.34-22.678-41.23-3.58-48.4 15.517 12.548 44.163 10.755 66.84 5.378 20.29-3.585 39.39c7.17-2.387 19.718-16.7 21.51-37s-7.17-44.163-3.584-46.55 19.718 0 19.718 0" stroke-width="1.383"/></g></g><path d="M563.02 209.288s-3.538-3.022-3.908-3.768c.993-.15 2.78-.77 4.107-1.885 2.743-2.613 3.972-8.14 3.972-7.72s5.266 8.632 5.266 8.632l-9.437 4.74z" class="B C"/><g stroke="#fff" fill="none"><path d="M561.038 195.893l-7.155-6.267" class="I"/><use xlink:href="#I" transform="matrix(-.293931 .213672 .247764 .253487 690.5351 17.21089)" stroke-width="2.5"/></g></g></g><defs ><path id="E" d="M17.717-336.614l35.433 17.716c17.717 0 17.717 17.717 0 17.717l-35.433-17.717c-17.7-1.568-17.717-17.716 0-17.716z"/><path id="F" d="M673.23-294.1h3.543v106.3h-3.543z"/><path id="G" d="M-177.17-407.48h17.717v35.433h-17.717z"/><path id="H" d="M713.67 479.88l-24.745 49.784s-26.405-2.4-43.208 7.2-28.805 16.803-26.405 16.803 28.805-14.402 40.807-14.402 19.204 14.402 21.604 12.002 14.403-16.803 31.206-16.803 40.807 9.602 38.407 7.2-36.007-16.803-40.808-21.604 22.345-35.38 17.545-35.38-9.602 0-14.403-4.8z"/><path id="I" d="M612.4 181.9c0 4.31-1.41 7.8-3.15 7.8s-3.15-3.493-3.15-7.8 1.41-7.8 3.15-7.8 3.15 3.493 3.15 7.8z"/></defs></svg>