<svg xmlns="http://www.w3.org/2000/svg" xmlns:xlink="http://www.w3.org/1999/xlink" width="1280" height="640" viewBox="0 0 30240.006 15119.997" xmlns:v="https://vecta.io/nano"><style><![CDATA[.B{stroke-width:12.72pt}.C{stroke:#000}.D{fill-rule:evenodd}.E{stroke-width:15.9}.F{fill:#e00034}.G{fill:#fdc82f}]]></style><g fill="#002776"><path d="M0 0h30240v15120H.01z"/><path d="M0 0h15120v7560H0z"/></g><g fill="#fff"><path d="M6300 0h2520v2520h6300v2520H8820v2520H6300V5040H0V2520h6300V0z"/><path d="M0 0h1690.47L15120 6714.76V7560h-1690.47L0 845.23V0z"/><path d="M15120 0h-1690.47L0 6714.76V7560h1690.47L15120 845.23V0z"/></g><path d="M6804 0h1512v3024h6804v1512H8316v3024H6804V4536H0V3024h6804V0zM0 0l5040 2520H3913.02L0 563.5V0zm15120 0h-1126.98l-5040 2520H10080L15120 0zm0 7560l-5040-2520h1126.98L15120 6996.5V7560zM0 7560h1126.98l5040-2520H5040L0 7560z" class="F"/><path d="M18929.9 3809.9v7500.2h7500.2V3809.9z" fill="#fff"/><g class="F"><path d="M21994.8 3715.4h1370.25v7712.85H21994.8z"/><path d="M26548.2 6874.75c-23.74 535.88-.5 915.2 0 1370.25h-7736.45V6874.75z"/></g><g class="G C"><g class="D"><path d="M24163.5 7930.17c0 57.34 11.73 114.68 17.6 133.8 5.86 19.1 8.8 43 8.8 43s20.52-33.45 20.52-71.67-5.87-90.8-5.87-90.8" class="E"/><g class="B"><path d="M24057.98 7930.17c0 4.78-17.6 28.67-14.66 71.67 2.93 43 11.72 76.45 11.72 71.68s0-43 20.53-66.9c20.52-23.9 52.77-38.23 52.77-38.23"/><path d="M24037.45 7829.82c-67.43 81.23-43.97 124.24-43.97 124.24s2.93-19.1 26.38-19.1 67.43 23.9 67.43 23.9"/></g><path d="M22970.27 8001.84c-5.87 76.45 14.65 124.24 14.65 124.24s23.46-23.9 20.53-86c-2.94-62.12-17.6-95.57-17.6-95.57" class="E"/><path d="M22864.73 7954.06c-2.94 0-26.4 23.9-43.98 47.78s-14.66 62.12-14.66 62.12 52.78-38.23 70.37-33.45 26.38 23.9 26.38 23.9m-20.52-219.8c-49.84-23.9-85.03 28.67-82.1 28.67s49.84 0 58.63 28.67 32.25 62.12 32.25 62.12m99.7-176.8c-5.87 0-5.87-38.23-32.25-43s-46.9 23.9-46.9 23.9 55.7 57.34 58.65 57.34c2.93 0 20.52-28.67 20.52-38.23z" class="B"/><path d="M21237.92 7154.32c4.14-40.55-5.2-106.43-5.2-106.43s18.66-3.38 37.32 27.03 10.37 79.4 10.37 79.4m-151.33-15.22c4.15-82.78-28-104.74-29.02-104.74s30.06-15.2 50.8 0 29.03 91.23 29.03 91.23m-139.96 38.87c-24.88-74.33-47.68-57.44-47.68-57.44s18.66-28.72 44.57-20.27 48.72 47.3 48.72 45.6M21064.8 7330c-22.8 20.27-29.02 28.72-47.68 23.65s-33.17-6.76-33.17-6.76 11.4-59.13 25.92-65.9 40.42-5.07 40.42-5.07m81.73 424.88c0-38.23-14.66-57.34-14.66-57.34s20.52-23.9 41.05 9.55 29.32 86 29.32 86h0m-140.53 15.04c-1.04 0-10.37-28.72-23.84-38.85s-25.9-11.82-21.77-11.82 0-20.27 29.02-20.27 47.68 15.2 47.68 15.2m-42.5 141.9c-63.23-6.76-69.45 55.75-67.37 57.44s25.9 20.27 40.43 21.96 26.95 0 26.95 0m29 65.9c-32.13 72.64-25.9 111.5-22.8 111.5s14.5-10.14 31.1-30.4 28-59.13 28-59.13" class="E"/><path d="M21090.98 7829.82c2.93 0 14.66-152.9 55.7-143.35s26.4 9.56 41.05 19.1 43.98 114.68 43.98 114.68m2820.44 99.4c-6.22-6.76-53.9-47.3-29.02-81.1 24.87-33.8 172.07-6.76 172.07-6.76m-1111.2 77.7c-16.58-10.14-35.24-13.52-55.97-67.57-20.73-54.06-8.3-54.06-16.58-67.58-8.3-13.5-24.88-6.75-53.9 3.38s-20.73 118.26-20.73 118.26" class="B"/><path d="M23330.7 7470.27c-16.58 10.14-159.63 121.63-155.5 182.45 4.15 60.82 91.22 94.6 89.15 131.77-2.08 37.17-82.93 64.2-157.56 67.57s-95.37 23.65-138.9 10.14-107.8-81.1-120.24-3.38 4.15 81.1 4.15 81.1-10.36 40.55 0 74.33c10.37 33.8 20.74 54.06 47.68 54.06 26.95 0 35.25-27.03 35.25-27.03s4.14 33.8 51.82 37.17c47.7 3.38 62.2-33.8 64.27-33.8s41.46 13.52 60.12 6.76 43.54-23.65 43.54-23.65-20.73 47.3-18.66 47.3 41.46-3.38 82.92-13.52c41.46-10.13 72.56-54.06 70.5-54.06s-35.24 60.82 16.58 57.44c51.83-3.38 76.7-67.58 114.02-60.82 37.32 6.76 58.05-6.76 58.05-6.76s10.37-27.03 22.8-40.55 26.95-16.9 26.95-16.9 33.17-6.76 33.17-10.14v-84.47s-53.9-6.76-53.9-67.58 145.12-125 145.12-125l-321.33-182.45z" class="E"/><g class="B"><path d="M21236.88 7429.73c8.3-277.06 53.9-162.18 53.9-223s-18.66-101.36-33.17-101.36c-33.17 0-116.1 114.88-116.1 114.88"/><path d="M21815.27 7618.94c-20.73-10.12-342.06-81.07-449.86-148.65s-153.4-175.7-161.7-229.75 12.44-141.9-49.75-141.9-29.02 87.85-29.02 87.85-49.75-141.9-87.07-60.82 45.6 141.9 45.6 141.9-80.23-54.44-60.12 33.8c33.8 148.28 89.14 94.6 97.44 128.4s-41.46 67.57-33.17 74.33 41.46 30.4 62.2 37.16l49.76 16.9-31.1 40.53s58.04 67.57 87.07 84.47 66.34 0 64.26 0-53.9 37.17-53.9 37.17 29.02 27.03 60.12 33.8a740.6 740.6 0 0 0 58.04 10.14l-33.17 23.65 447.8 145.3 16.58-314.22z"/></g><g class="E"><path d="M21844.3 7564.88c-10.37 3.38-201.1 229.76-402.18 239.9S21127 7798 21127 7798s-29.02-155.42-78.78-84.47-10.37 97.98-10.37 97.98 8.3-3.38 20.73 13.52 20.73 37.17 20.73 37.17-66.34-87.85-66.34 16.9 43.53 67.58 41.46 67.58-10.37 91.23 0 94.6 51.83 20.27 74.63 13.52 20.73-27.03 26.95-30.4 41.46-27.03 47.68-16.9-39.4 74.33-31.1 74.33 76.7 0 97.44-27.03 31.1-67.57 33.17-64.2-35.24 81.1-31.1 81.1 78.78 13.52 97.44 3.38 37.3-43.92 37.3-43.92-12.44 40.55-8.3 43.92 41.46 6.76 76.7-13.52 49.75-37.16 49.75-37.16l-10.37 47.3s53.9-3.38 85-40.55 45.6-40.54 45.6-40.54-31.1 57.44-26.95 57.44 60.12-3.38 85-16.9 49.76-23.65 49.76-23.65-29.02 47.3-26.95 47.3 41.46 3.38 91.22-16.9c49.76-20.27 85-43.93 85-43.93s-58.05 67.57-45.6 67.57 87.07 3.38 124.38-20.27c37.32-23.65 45.62-47.3 45.62-47.3s120.24 6.76 145.12-23.65c24.87-30.4 18.65-43.92 16.58-40.54s72.56 20.27 111.94 30.4c39.4 10.14 122.32 13.52 178.3-3.38 55.97-16.9 665.46-405.45 777.4-398.7s132.68 50.68 165.84 47.3c33.18-3.38 51.83-20.27 51.83-16.9s163.77 206.1 385.6 192.6c221.83-13.52 178.3-33.8 213.53-37.17s76.7 33.8 72.56 67.58-22.8 54.06-45.6 57.44c-22.8 3.38-47.68 27.03-47.68 60.82s24.87 81.1 51.82 81.1 35.25-16.9 43.53-20.27c8.3-3.38 16.58 37.17 51.83 20.27 35.24-16.9 45.6-33.8 53.9-37.16 8.3-3.38 62.2-6.76 62.2-10.14s4.14-111.5 4.14-111.5 58.04-6.76 58.04-27.03-20.73-64.2-33.17-84.47-26.95-37.17-26.95-37.17 39.4 23.65 47.68 20.27c8.3-3.38 26.95-16.9 26.95-16.9s-26.95-50.68-47.68-67.57c-20.74-16.9-70.5-33.8-70.5-33.8s29.02-6.76 51.82-27.03c22.8-20.27 43.53-47.3 43.53-50.68s-62.2-60.8-109.87-54.06-114.02 70.95-194.88 70.95c-80.85 0-167.92-67.58-167.92-67.58s118.17 0 172.07-3.38c53.9-3.38 170-43.92 170-168.94s-89.14-192.6-304.75-199.35c-215.6-6.76-395.96 27.03-526.56 60.82s-422.9 114.88-524.5 114.88-128.53-23.65-130.6-77.7 167.93-40.55 167.93-50.68 4.14-23.65 6.22-23.65 16.58 40.55 37.32 43.92c20.73 3.38 62.2-6.76 62.2-6.76s16.58 30.4 45.6 27.03 41.47-27.03 41.47-27.03 16.58 23.65 47.68 20.27c31.1-3.38 53.9-47.3 60.13-47.3 6.22 0 29.03 6.76 49.75-6.76s116.1-114.88 116.1-114.88-82.93 23.65-132.68 23.65c-49.76 0-80.86-30.4-143.05-20.27s-128.53 40.55-163.77 37.17c-35.25-3.38-41.46-3.38-120.25-3.38-78.78 0-149.26 84.47-157.55 182.45-8.3 97.98 55.98 155.43 155.48 148.67 99.5-6.76 899.72-182.45 1057.28-175.7s259.14 20.27 259.14 94.6-105.74 77.7-182.44 74.33-255-37.16-385.6-33.8-970.2 199.35-1121.55 195.97c-151.34-3.38-244.63-16.9-244.63-20.27s-362.8 50.68-362.8 43.92z"/><path d="M21708.12 7619.64c2.93-4.78 11.72-50.17 19.06-83.62s20.52-76.45 20.52-76.45-29.32 21.5-27.85 16.73-5.86-71.68 10.26-119.46 32.25-74.06 32.25-93.18-16.12-9.56-16.12-47.78-7.33-93.18 11.73-105.12 77.7 71.67 77.7 66.9-13.2-114.68 11.73-121.85 60.1 38.23 60.1 38.23 11.73-95.57 20.53-95.57 32.25 74.06 32.25 74.06 23.46-78.84 32.25-78.84 35.18 83.62 35.18 83.62 13.2-71.67 30.8-71.67c17.6 0 30.78 86 30.78 86s11.73-45.4 27.86-40.6 29.3 119.46 29.3 119.46 42.52-74.06 70.37-64.5 0 107.52 1.46 150.52 27.86 64.5 29.32 95.57 1.47 224.58 0 224.58c-1.47 0-294.65 124.23-328.36 117.07s-209.63-69.28-211.1-74.06z"/></g><path d="M21864 7406.1c-20.74 55.78-100.54 212.9-117.13 239.93s-58.05 67.57-58.05 67.57 16.58 40.54 45.6 33.8 70.48-54.06 70.48-54.06-46.64 59.1-61.15 91.2-23.84 86.16-23.84 86.16 58.05-1.7 93.3-49 58.05-86.16 57.02-86.16-34.2 55.75-32.14 96.3c2.08 40.54-5.18 74.33-4.14 74.33s42.5-28.72 61.15-52.37c18.66-23.65 47.7-77.7 47.7-77.7s-10.37 69.27-4.15 101.36c6.23 32.1 22.8 77.7 21.77 77.7s29.02-21.96 44.57-70.95 20.73-87.85 20.73-87.85 5.2 67.57 21.77 91.23 91.2 18.58 91.2 18.58-25.92-10.14-34.2-57.44c-8.3-47.3-5.2-103.05-5.2-103.05s18.66 62.5 36.28 69.27 32.13-13.52 44.57 0 29.02 59.13 30.06 57.44 35.24-25.34 16.58-82.78-55.97-60.82-75.67-97.98c-19.7-37.17-31.1-94.6-31.1-96.3s16.58 82.78 41.46 101.36c24.87 18.58 39.38 38.85 74.63 40.55 35.24 1.7 52.86 30.4 52.86 54.06s-3.1 38.85-3.1 38.85 40.43-10.14 40.43-77.7-24.88-94.6-51.83-104.74-76.7-28.72-88.1-49-14.5-40.54-14.5-40.54 4.14 37.16 26.95 49 52.87 35.48 73.6 27.03c20.74-8.44 74.63-92.9 74.63-92.9s-49.75-10.13-101.58-33.8c-51.82-23.65-63.83-106.36-63.83-106.36l-317.62 5z" class="B"/></g><path d="M21936.8 7679.37s21.98-38.22 57.17-40.62c35.18-2.4 74.76 50.17 74.76 50.17" class="B"/></g><path d="M21969.05 7516.9c0 7.17-13.2 45.4-10.26 100.34 2.93 54.95 42.5 95.56 42.5 95.56s42.5-28.67 43.97-97.95-5.87-107.5-5.87-107.5l-70.36 9.56z" class="B C D F"/><g class="G"><path d="M22004.23 7519.3v124.23" stroke-width="15.89" stroke-linecap="round" class="C"/><g class="B C"><path d="M21794.6 7371.17c1.47 0 24.92 16.72 24.92 62.12s10.26 105.12 42.5 105.12 45.44-26.28 46.9-23.9c1.47 2.4 22 74.06 54.24 64.5s42.5-64.5 42.5-64.5 17.6 71.67 42.5 64.5 39.58-71.67 39.58-71.67 20.53 40.6 42.5 33.45c22-7.17 39.58-35.83 48.38-66.9s11.73-88.4 10.27-88.4" class="D"/><path d="M21958.8 7246.93s27.86 138.57-38.1 136.18-32.25-64.5-52.78-66.9c-20.52-2.4-30.78 0-30.78 0m180.3-81.2s-16.12 160.07 38.1 148.13c54.24-11.95 67.43-74.06 67.43-74.06"/></g><path d="M21777.02 7148.98s7.33 66.9 22 107.5 26.4 33.44 39.58 40.6c0-28.67 0-40.62-16.12-78.84s-45.44-64.5-45.44-69.28zm381.14 138.57c0-2.4-5.87-50.17 10.26-93.18s33.72-52.56 33.72-52.56 2.93 38.22-8.8 76.45-30.8 76.45-35.18 69.28z" class="D"/><g class="C"><path d="M21881.1 7297.1c7.33 0 36.64-52.56 71.82 0m85.03-11.94c36.65-43 76.22 9.56 76.22 9.56" class="B"/><path d="M21948.53 7328.16c0 14.5-13.47 26.28-30.05 26.28-16.6 0-30.06-11.77-30.06-26.28s13.46-26.28 30.06-26.28c16.58 0 30.05 11.77 30.05 26.28z" stroke-width="14.21pt"/><path d="M22102.45 7323.38c0 14.5-13.14 26.28-29.3 26.28-16.2 0-29.33-11.77-29.33-26.28s13.14-26.28 29.33-26.28c16.18 0 29.3 11.77 29.3 26.28z" stroke-width="14.04pt"/><path d="M21917.74 7294.72c0 2.4 1.48 62.12 1.48 62.12m150.98-64.5l1.46 59.73" class="B"/></g><path d="M22039.42 7467.93a38.11 46.59 0 0 1-76.23 0 38.11 46.59 0 1 1 76.23 0z" class="D"/><path d="M24226.3 7858.83s-6.22 37.17 2.07 57.44c8.28 20.27 26.95 60.82 26.95 60.82m-85.02-87.85s-31.1 37.17-29.02 60.82 10.36 47.3 10.36 47.3m124.4-185.83c39.4 13.52 39.4 47.3 39.4 47.3m-1422.16 54.07c-8.3 3.38-41.46 30.4-41.46 30.4m101.58 20.27c-10.37 6.76-20.73-3.38-24.88 30.4-4.14 33.8 6.23 50.68 6.23 50.68m107.8-67.57c2.07 0 14.5 16.9 14.5 33.8s-8.3 37.17-8.3 37.17m-58.03-935.93s10.36 33.8 24.87 47.3a868.6 868.6 0 0 0 35.25 30.4m26.96-67.56s14.5 3.38 20.72 16.9c6.23 13.52 20.74 30.4 20.74 30.4m58.04-64.2c12.43 0 26.94 40.55 26.94 40.55m-2133.2 756.83c-2.07 0-16.58 20.27-16.58 43.93m2424.23-351.78c-20.56-25.34-39.33-61.3-39.33-61.3" class="B C"/><use xlink:href="#B"/></g><path d="M18693.64 3573.66v7972.7h7972.7v-7972.7h-7972.7zm3986.72 236.25c2077.63 0 3749.73 1672.84 3749.73 3750.47S24758 11310.1 22680.36 11310.1 18929.9 9638 18929.9 7560.38s1672.83-3750.47 3750.47-3750.47z" fill="#002776"/><g class="G"><use xlink:href="#B" x="2524.75" y="2524.95"/><path d="M22045.25 5035.2c0-3.68 341.07-117.63 342.48-121.03s-159.2-325.15-156.6-327.75 324.35 158 327.75 156.6 117.35-342.48 121.03-342.48 117.63 341.07 121.03 342.48 325.15-159.2 327.75-156.6-158 324.35-156.6 327.75 342.48 117.35 342.48 121.03-341.07 117.63-342.48 121.03 159.2 325.15 156.6 327.75-324.35-158-327.75-156.6-117.35 342.48-121.03 342.48-117.63-341.07-121.03-342.48-325.15 159.2-327.75 156.6 158-324.35 156.6-327.75-342.48-117.35-342.48-121.03zm3794.2 2524.67c0 3.67-341.07 117.63-342.48 121.03s159.2 325.15 156.6 327.75-324.35-158-327.75-156.6-117.35 342.48-121.03 342.48-117.63-341.07-121.03-342.48-325.15 159.2-327.75 156.6 158-324.35 156.6-327.75-342.48-117.35-342.48-121.03 341.07-117.63 342.48-121.03-159.2-325.15-156.6-327.75 324.35 158 327.75 156.6 117.35-342.48 121.03-342.48 117.63 341.07 121.03 342.48 325.15-159.2 327.75-156.6-158 324.35-156.6 327.75 342.48 117.35 342.48 121.03z"/></g><defs ><path id="B" d="M19520.5 7559.87c0 3.67 341.07 117.63 342.48 121.03s-159.2 325.15-156.6 327.75 324.35-158 327.75-156.6 117.35 342.48 121.03 342.48 117.63-341.07 121.03-342.48 325.15 159.2 327.75 156.6-158-324.35-156.6-327.75 342.48-117.35 342.48-121.03-341.07-117.63-342.48-121.03 159.2-325.15 156.6-327.75-324.35 158-327.75 156.6-117.35-342.48-121.03-342.48-117.63 341.07-121.03 342.48-325.15-159.2-327.75-156.6 158 324.35 156.6 327.75-342.48 117.35-342.48 121.03z"/></defs></svg>