<svg xmlns="http://www.w3.org/2000/svg" width="600" height="300" xmlns:v="https://vecta.io/nano"><path d="M0 0h600v300H0z" fill="#e65a00"/><path d="M410.836 172.536c5.638-2.712 13.602-3.043 18.467.86-4.865-3.902-6.315-11.738-4.92-17.816 1.392-6.1 6.07-12.534 12.173-13.926-6.103 1.392-13.104-2.33-17.007-7.228-3.902-4.89-5.996-12.57-3.28-18.208-2.715 5.637-10.006 8.8-16.267 8.8s-13.55-3.162-16.266-8.8c2.716 5.637.622 13.317-3.28 18.208s-10.936 8.62-17.008 7.228c6.072 1.392 10.782 7.825 12.174 13.926 1.394 6.078-.056 13.914-4.952 17.816 4.896-3.902 12.86-3.57 18.468-.86 5.643 2.717 10.865 8.712 10.865 14.97 0-6.257 5.225-12.252 10.836-14.97z"/><path d="M421.994 132.48c11.678 14.648 60.03.094 36.644-29.228s-48.356 14.56-36.644 29.228zM400 121.885c18.75 0 37.497-46.87 0-46.87s-18.75 46.87 0 46.87zm-21.993 10.595c11.68-14.67-13.258-58.55-36.643-29.228s24.965 43.877 36.643 29.228zm34.183 42.876c-16.888 8.122-13.44 58.503 20.34 42.24 33.78-16.298-3.45-50.387-20.34-42.24zm-24.38 0c-16.92-8.146-54.148 25.942-20.338 42.24 33.78 16.262 37.225-34.118 20.338-42.24zm39.588-19.078c-4.145 18.275 37.386 46.97 45.713 10.414 8.36-36.554-41.53-28.7-45.713-10.414zm-54.828 0c-4.172-18.276-54.042-26.14-45.683 10.414 8.33 36.557 49.86 7.862 45.683-10.414z" fill="#fff"/><path d="M0 0h200v300H0z"/><path d="M99.985 85.014l8.692 8.017-.862-11.788 11.67-1.787-9.75-6.67 5.897-10.246-11.3 3.466-4.345-10.992-4.33 10.992-11.3-3.466 5.88 10.246-9.748 6.67 11.682 1.787-.86 11.788zm67.09 31.238H156.97l-5.056-8.75-5.047 8.75h-10.103l5.044 8.765-5.044 8.747h10.103l5.047 8.737 5.056-8.737h10.106l-5.06-8.747zm-62.423 97.515L99.985 202.5l-4.65 11.267-11.252-4.663 4.666 11.23-11.253 4.67 11.253 4.67-4.666 11.237 11.252-4.64 4.65 11.237 4.668-11.237 11.25 4.64-4.666-11.237 11.252-4.67-11.252-4.664 4.666-11.236zM30.247 140.27l-5.88-10.23 11.298 3.465 4.33-10.993 4.348 10.993 11.298-3.465-5.894 10.23 9.748 6.687-11.668 1.785.85 11.772-8.683-7.998-8.674 7.998.86-11.772-11.682-1.785zm88.93 12.696l3.313-6.712 3.3 6.712 7.4 1.07-5.36 5.23 1.265 7.34-6.607-3.48-6.612 3.48 1.253-7.34-5.342-5.23z" fill="#fff"/></svg>