<svg xmlns="http://www.w3.org/2000/svg" xmlns:xlink="http://www.w3.org/1999/xlink" width="1000" height="500" xmlns:v="https://vecta.io/nano"><style><![CDATA[.B{fill-rule:evenodd}.C{fill:#fff}.D{stroke-width:.272}.E{fill:#f7d917}.F{stroke-width:.188}.G{fill:#ce1126}.H{fill:#002b7f}.I{stroke-width:.338}.J{stroke-width:.271}]]></style><path d="M0 0h1000v500H0z" class="H"/><path d="M750 138.89h0c61.556 0 111.11 49.556 111.11 111.11h0c0 61.556-49.556 111.11-111.11 111.11h0c-61.556 0-111.11-49.556-111.11-111.11h0c0-61.556 49.556-111.11 111.11-111.11z" class="B C"/><g transform="matrix(-.956937 0 0 .956937 1467.7029 10.76488)"><g transform="matrix(.903053 0 0 .903053 66.795905 17.106997)" class="B"><g fill="#3d7de1"><path d="M646.385 219.493l16.948 38.403-16.948 38.403 110.165-38.403-110.165-38.403z"/><use xlink:href="#D"/></g><g transform="matrix(0 1 -1 0 1014.444 -498.6539)" fill="#3d7de1"><path d="M646.616 219.492l16.948 38.403-16.948 38.403 109.933-38.403z"/><use xlink:href="#D" y="-0.001"/></g></g><g transform="matrix(-.330543 0 0 .330543 799.58193 199.49125)" stroke="#000"><g class="D"><path d="M137.662 97.434c-4.477.134-9.714.888-15.22 2-8.183.156-17.355 1.658-28.063 7.594-.05.028-.107.035-.156.063-5.86 1.883-10.877 3.634-14.22 4.844-.01-.003-.022.003-.03 0-13.06-4.17-50.394-12.123-53.78 31.97-.02.27.087.72.313 1.28.003.008-.003.023 0 .03-1.245 6.93 1.375 19.094 1.375 19.094 1.55 1.112 2.67 3.556 2.97 4.344.003.013-.001.048 0 .063.023.88-3.153 4.385-2.594 5.844.003.006.028.025.03.03.012.025.017.07.03.094.004.006.027.025.03.03.008.01.023.052.03.063.005.005.027.026.03.03s.026.026.03.03l.03.03c.016.014.045.018.063.03 1.122.85 2.104 4.46 2.875 7.625.005.02-.005.043 0 .063-.003.012.002.02 0 .03-.24 1.21-.155 2.27.53 3 .104.1.185.218.28.344.876 3.903 9.7 41.23 9.188 43.22-.496 1.996 2.99 4.502 6.156 5.5.37.117 1.256.237 2.625.344.044.016.08.016.125.03 18.696 6.602 34.76 2.232 69.438.72l28.97-.375c.122-.002.253.002.375 0 .218-.004.44.003.656 0l28.97.375c34.678 1.513 50.74 5.884 69.438-.72.042-.003.084-.028.125-.03 1.37-.107 2.255-.227 2.625-.344 3.165-.998 6.652-3.504 6.156-5.5-.502-2 .656-9.796.656-12.625s1.993-6.14 3.156-7.47c.342-.393.75-1.234 1.125-2.28 1.632.602 3.733 1.728 4.406 1.78.006 0 .026 0 .03 0h.03c.005 0 .027.001.03 0s.027.001.03 0 .028.002.03 0 .026-.027.03-.03-.002-.028 0-.03.03-.024.03-.03 0-.027 0-.03c-.002-.014-.027-.046-.03-.062s.005-.05 0-.062c-.003-.006-.028-.025-.03-.03-.17-.345-.745-1.02-1.906-2.156l-.03-.03c-1.407-1.648.75-16.254 1.625-20.156.096-.126.177-.233.28-.344.687-.73.772-1.79.53-3 .002-.01-.002-.02 0-.03-.005-.024.005-.038 0-.062.77-3.164 1.753-6.774 2.875-7.625.018-.014.046-.017.063-.03l.062-.062c.005-.005.027-.026.03-.03.01-.01.023-.05.03-.062.004-.006.028-.025.03-.03a1.04 1.04 0 0 0 .063-.125c.56-1.46-2.617-4.964-2.594-5.844.002-.022.024-.044.03-.062.3-.788 1.387-3.23 2.938-4.344 0 0 2.62-12.164 1.375-19.094-.002-.01.002-.022 0-.03.225-.563.333-1 .313-1.28-3.387-44.092-40.72-36.14-53.78-31.97-.01-.003-.022.003-.03 0-3.342-1.21-8.358-2.96-14.22-4.844-.045-.025-.08-.038-.125-.062-10.708-5.94-19.88-7.436-28.062-7.594-9.908-2.002-18.965-2.837-24.25-1-.854.297-1.73.546-2.594.75-.856-.202-1.717-.456-2.562-.75-2.35-.817-5.418-1.107-9-1z" class="G"/><path d="M82.306 132.97c-2.662.95-5.337 23.812-3.04 31.2 1.6 5.107 3.507 8.557 4.614 10.68-2.292-3.533-7.478-10.3-13.342-9.773-7.373.662-5.417 24.38-5.048 25.884.001.005.002.02.003.025s.02.02.02.023c.278-.595 2.06-10.632 9.35-11.286 4.8-.43 9.225 4.785 10.9 7.026l.287 2.193c-.807 2.33-.845 7.68-3.364 14.638-3.044 8.407-15.296 10.34-17.362 10.608l26.727-2.398c.026-.002.06-.003.084-.008.012.001.022-.003.034-.003.026 0 26.287-2.36 26.8-2.406-2.086.105-5.9-5.073-17.912-8.22-6.616-5.602-7.153-10.662-8.5-12.797l-.253-2.196c1.083-2.487 4.14-8.375 8.94-8.806 7.293-.654 11.478 8.847 11.878 9.38.017-.005.03-.024.03-.028s-.003-.02-.003-.025c-.006-1.537-3.868-25.084-11.24-24.422-5.864.526-9.3 8.065-10.67 11.928.565-2.274 1.482-6.975 1.735-11.25.458-7.745-7.778-30.212-10.526-29.97-.043.004-.093-.003-.135.012zm1.66 42.012l.613.967c.004.006.58 2.323.585 2.328.005.05 2.407 7.9 2.412 7.96-.18-.296-3.368-10.8-3.6-11.257zm7.217-.648c-.126.5-.804 11.34-.908 11.662-.007-.05.554-10.532.547-10.583-.001-.008.052 2.36.05 2.35.096-.303.168-3.027.3-3.43zm125.89-40.022c-2.8.375-10.17 22.182-9.458 29.875.494 5.326 1.652 9.1 2.292 11.407-1.507-3.932-5.173-11.63-11.018-12.333-7.35-.886-10.367 22.72-10.32 24.27 0 .006-.003.02-.002.025s.014.023.015.027c.396-.524 4.224-9.97 11.493-9.095 4.785.577 8.028 6.6 9.2 9.137l-.175 2.205c-1.273 2.1-6.258 10.35-13.73 13.345-8.3 3.327-9.716 7.208-11.793 7.04l26.64 3.2c.025.003.06.01.084.01.012.003.022.002.034.004.025.005.06.007.084.01l26.64 3.2c-2.062-.33-8.096-3.366-14.296-10.136-5.485-5.988-6.295-13.543-7.178-15.914l.2-2.2c1.576-2.208 5.8-7.33 10.576-6.754 7.27.876 9.388 11.04 9.668 11.645.018-.001.035-.017.036-.02s.001-.02.002-.025c.314-1.505 1.43-25.34-5.918-26.226-5.845-.704-10.763 5.958-12.917 9.45 1.025-2.107 2.9-6.514 4.036-10.644 2.058-7.48-1.327-31.17-4.065-31.505-.043-.005-.1-.022-.134-.016zm-7.1 41.44l.4 1.074c.002.007.086 2.393.088 2.4-.006.05.7 8.238.704 8.3-.115-.327-1.05-11.264-1.2-11.76zm7.194.867c-.225.453-3.144 10.925-3.313 11.218.003-.05 2.732-10.187 2.735-10.238.001-.008-.44 2.32-.44 2.3.157-.276.794-2.926 1.017-3.3z" class="B E"/></g><g transform="matrix(1.085779 0 0 1.085779 6.91471 26.11209)" stroke-width=".25" class="B E"><path d="M24.308 134.56l9.7-11.814s.904 1.168 0 0C14.132 97.065 13.127 82.33 15.363 74.87s6.708-15.544 18.634-25.493 20.156-4.42 31.337-4.42 14.162 2.487 23.852 3.73 35.778 2.487 35.778 2.487v-6.84s1.03.192 0 0c-11.52-2.147-26.088 0-35.778-2.487s-17.9-3.1-28.324-3.1-17.92-3.042-24.628 1.3-14.907 11.814-20.87 18.03-8.944 18.653-8.2 26.736 3.727 14.922 8.2 21.14 3.727 11.192 5.218 15.544 3.727 13.68 3.727 13.057zm214.947 0l-9.7-11.814s-.904 1.168 0 0c19.866-25.68 20.87-40.415 18.634-47.876s-6.708-15.544-18.634-25.493-20.156-4.42-31.337-4.42-14.162 2.487-23.852 3.73-35.778 2.487-35.778 2.487v-6.84s-1.03.192 0 0c11.52-2.147 26.088 0 35.778-2.487s17.9-3.1 28.324-3.1 17.92-3.042 24.628 1.3 14.907 11.814 20.87 18.03 8.944 18.653 8.2 26.736-3.727 14.922-8.2 21.14-3.727 11.192-5.218 15.544-3.727 13.68-3.727 13.057z"/><path d="M115.553 38.7h34.563v70.894h-34.563zm4.13-62.5s3.72 3.028 6.576 6.922 4.845 8.652 4.845 8.652-4.76-2-8.652-4.845-6.922-6.576-6.922-6.576V6.656s3.028-3.72 6.922-6.576 8.652-4.845 8.652-4.845-1.533 3.927-2.524 8.652c-.9 4.25-8.183 14.065-8.183 14.065l21.302 1.43-4.968-15.493c-1.536-4.577-2.167-8.652-2.167-8.652s4.76 2 8.652 4.845 6.922 6.576 6.922 6.576v-26.302s-3.028 3.72-6.922 6.576-8.652 4.845-8.652 4.845 2-4.76 4.845-8.652 6.576-6.922 6.576-6.922h-26.302z"/><path d="M149.978 23.076c.003 6.127-3.264 11.79-8.57 14.853s-11.842 3.064-17.148 0-8.572-8.727-8.57-14.853c-.003-6.127 3.264-11.79 8.57-14.853s11.842-3.064 17.148 0 8.572 8.727 8.57 14.853z"/><path d="M116.074 25.535h34.102s.494-6.596-1.974-9.064h-10.594l-.18-9.888h-10.042l-.18 9.888s-7.127.357-10.4.357c-1.5 4.042-1.26 4.38-1.26 4.38l.536 4.326zm-5.197 81.685s6.212 5.056 10.98 11.557 8.1 14.446 8.1 14.446-7.945-3.323-14.446-8.1-11.557-10.98-11.557-10.98v43.916s5.056-6.212 11.557-10.98 14.446-8.1 14.446-8.1-3.323 7.945-8.1 14.446-10.98 11.557-10.98 11.557h43.916s-6.212-5.056-10.98-11.557-8.1-14.446-8.1-14.446 7.945 3.323 14.446 8.1 11.557 10.98 11.557 10.98v-43.916s-5.056 6.212-11.557 10.98-14.446 8.1-14.446 8.1 3.323-7.945 8.1-14.446 10.98-11.557 10.98-11.557h-43.916zM27.24 181.78l21.625-3.813s-6.995-3.9-12.82-9.475S25.57 155.67 25.57 155.67s8.402 1.892 15.63 5.458 13.288 8.805 13.288 8.805l-7.626-43.25s-3.9 6.995-9.475 12.82-12.822 10.476-12.822 10.476 1.892-8.402 5.458-15.63 8.805-13.288 8.805-13.288l-21.625 3.813L27.24 181.78zm199.6-60.72s5.24 6.058 8.805 13.288 5.458 15.63 5.458 15.63-7.248-4.652-12.822-10.476-9.475-12.82-9.475-12.82l-7.626 43.25s6.058-5.24 13.288-8.805 15.63-5.458 15.63-5.458-4.652 7.248-10.476 12.822-12.82 9.475-12.82 9.475l21.625 3.813 10.034-56.907-21.625-3.813z"/></g><path d="M36.734 221.045l.163 34.21s57.164-19.466 114.328-19.466 114.328 19.466 114.328 19.466v-34.21s-57.205-19.466-114.4-19.466-114.4 19.466-114.4 19.466z" class="B D E"/><g transform="matrix(1.085779 0 0 1.085779 6.91471 26.11209)" stroke-width=".251" class="B C"><use xlink:href="#E"/><use xlink:href="#E" x="-10.282" y="-18.281"/><use xlink:href="#E" x="-12.424" y="-39.71"/><path d="M16.587 58.076c.001 2.864-1.527 5.51-4.007 6.943s-5.536 1.432-8.016 0S.556 60.94.556 58.076s1.527-5.51 4.007-6.943 5.536-1.432 8.016 0 4.008 4.08 4.007 6.943z"/><use xlink:href="#E" x="7.576" y="-76.138"/><use xlink:href="#E" x="26.148" y="-87.566"/><use xlink:href="#E" x="46.862" y="-86.138"/><use xlink:href="#E" x="67.576" y="-82.71"/><use xlink:href="#E" x="88.29" y="-80.566"/><use xlink:href="#F"/><use xlink:href="#F" x="10.28" y="-18.281"/><use xlink:href="#F" x="12.424" y="-39.71"/><use xlink:href="#F" x="5.996" y="-59.71"/><use xlink:href="#F" x="-7.576" y="-76.138"/><use xlink:href="#F" x="-26.147" y="-87.566"/><use xlink:href="#F" x="-46.86" y="-86.138"/><use xlink:href="#F" x="-67.576" y="-82.71"/><use xlink:href="#F" x="-88.28" y="-80.566"/><use xlink:href="#E" x="118.268" y="-18"/><use xlink:href="#E" x="118.268" y="-32.281"/><use xlink:href="#E" x="118.268" y="-43.71"/><use xlink:href="#E" x="118.268" y="-54.138"/><use xlink:href="#E" x="118.268" y="-87.566"/><use xlink:href="#E" x="118.268" y="-86.138"/><use xlink:href="#E" x="118.268" y="-78.71"/><use xlink:href="#E" x="118.268" y="-68.566"/></g><g class="B"><path d="M134.79 210.096h34.762v15.153H134.79z" class="D H"/><use xlink:href="#G" transform="matrix(-.678154 -.068828 .023825 .957698 195.4766 -.830297)" fill="#3e8225" class="I"/><path d="M36.937 229.285l-8.7 8.7 10.1 5.832 23.493-6.295-4.187-13.303-20.698 5.057zm230.47 0l8.7 8.7-10.1 5.832-23.493-6.295 4.187-13.303 20.698 5.057z" class="D G"/><use xlink:href="#G" transform="matrix(.678154 -.068828 -.023825 .957698 108.8665 -.830297)" fill="#3e8225" class="I"/><g class="D"><g class="C"><use xlink:href="#H"/><use xlink:href="#H" x="1.327" y="13.636"/><use xlink:href="#H" x="-53.476" y="9.625"/><use xlink:href="#H" x="-48.129" y="22.46"/><use xlink:href="#I"/><use xlink:href="#I" x="-1.337" y="13.636"/><use xlink:href="#I" x="53.475" y="9.625"/><use xlink:href="#I" x="48.128" y="22.46"/></g><g class="E"><path d="M262.58 201.657l2.718 1.3c-1.016 1.347-7.188 16.414-29.376 11.746-22.407-4.714-24.01-26.28-24.01-26.28l4.16 1.513s2.43 16.646 20.04 21.364c17.432 4.67 26.47-9.642 26.47-9.642z"/><path d="M212.29 188.612l-4.16.567s-4.29 15.673-26.753 12.478c-22.093-3.142-22.995-19.663-23.728-22.5-4.325 2.08-3.403 2.836-3.403 2.836s2.552 20.046 26.28 22.877c23.54 2.83 31.574-10.02 31.763-16.26z"/><path d="M216.852 186.572s-1.978-1.66-4.136-1.855-4.497 1.08-4.497 1.08l-.48 3.908s2.34-1.274 4.497-1.08 4.136 1.855 4.136 1.855l.48-3.908z"/></g></g><path d="M256.767 192.32c-.002 4.02 2.14 7.734 5.62 9.745s7.77 2 11.25 0 5.623-5.725 5.62-9.745-2.14-7.734-5.62-9.745-7.77-2-11.25 0-5.623 5.725-5.62 9.745z" class="C J"/><g class="D E"><path d="M38.948 201.657l-2.718 1.3c1.016 1.347 7.188 16.414 29.376 11.746 22.407-4.714 24.01-26.28 24.01-26.28l-4.16 1.513s-2.43 16.646-20.04 21.364c-17.432 4.67-26.47-9.642-26.47-9.642z"/><path d="M89.24 188.612l4.16.567s4.29 15.673 26.753 12.478c22.093-3.142 22.995-19.663 23.728-22.5 4.325 2.08 3.403 2.836 3.403 2.836s-2.552 20.046-26.28 22.877c-23.54 2.83-31.574-10.02-31.763-16.26z"/><path d="M84.677 186.572s1.978-1.66 4.136-1.855 4.497 1.08 4.497 1.08l.48 3.908s-2.34-1.274-4.497-1.08-4.136 1.855-4.136 1.855l-.48-3.908z"/></g><g class="C J"><use xlink:href="#J"/><use xlink:href="#J" x="117.543" y="-20.398"/></g><path d="M52.504 257.674l98.536-17.68 102.642 17.68-47.626 19.802-87.86 1.414-65.69-21.216z" fill="#9d9d9d" class="D"/></g><path d="M238.538 280.603c3.267-.567 22.978-5.253 27.127-7.76-2.677-4.828-7.484-8.606-3.743-7.018 2.014.855 3.606-5.8-2.24-10.885-16.973 5.567-57.68 15.74-108.83 15.74-52.344 0-93.562-10.707-110.535-16.273-5.846 5.086-4.025 10.865-4.378 13.024-.003.017.004 2.724 1.07 4.88 5.754 6.25 24.394 9.332 27.662 9.9 15.352 2.666 30.705 6.698 86.148 6.698 51.29 0 72.366-5.636 87.72-8.302z" class="C D"/><g transform="matrix(1.085779 0 0 1.085779 -81.34112 -69.1113)"><path d="M132.906 289.655c-3.01.523-22.147 7.3-25.97 9.6.003.014-.003.046 0 .06.325 1.99-3.32 11.25 2.063 15.935 15.632-5.127 59.525-20.405 106.634-20.405 48.21 0 88.14 15.278 103.772 20.405 5.384-4.684 1.737-13.946 2.063-15.935.003-.015-.003-.046 0-.06-3.82-2.31-22.96-9.087-25.97-9.6-14.14-2.456-28.772-11.586-79.835-11.586-47.237 0-68.62 9.13-82.76 11.586z" stroke-width=".25" class="C"/><g transform="matrix(1.384389 -.143242 .15642 1.267764 -86.62648 -64.7552)" class="B F"><use xlink:href="#K"/><use xlink:href="#K" x="-1.335" y="2.406"/><use xlink:href="#K" x="0.536" y="4.01"/><use xlink:href="#L"/></g><g transform="matrix(1.384389 -.143242 .15642 1.267764 -45.03159 -76.65847)" class="B F"><use xlink:href="#K"/><use xlink:href="#K" x="-1.335" y="2.406"/><use xlink:href="#K" x="0.536" y="4.01"/><use xlink:href="#L"/></g><g transform="matrix(1.378425 .192343 -.151629 1.268346 100.1696 -120.8592)" class="B F"><use xlink:href="#K"/><use xlink:href="#K" x="-1.335" y="2.406"/><use xlink:href="#K" x="0.536" y="4.01"/><use xlink:href="#L"/></g><g transform="matrix(1.384389 .143242 .15642 -1.267764 54.4337 659.4577)" class="B F"><use xlink:href="#K"/><use xlink:href="#K" x="-1.335" y="2.406"/><use xlink:href="#K" x="0.536" y="4.01"/><use xlink:href="#L"/></g><g transform="matrix(1.384389 .143242 .15642 -1.267764 96.41226 670.4203)" class="B F"><use xlink:href="#K"/><use xlink:href="#K" x="-1.335" y="2.406"/><use xlink:href="#K" x="0.536" y="4.01"/><use xlink:href="#L"/></g></g></g></g><path d="M0 0h500v250H0z" class="H"/><g transform="matrix(.333333 0 0 .333333 .00001 -.00005)" id="A" stroke="none"><path id="B" d="M675 0l75 325L0 300v-50h332.295L0 83.853V0h167.705L625 228.647V0z" class="C"/><use transform="matrix(-1 0 0 1 1500 0)" width="1000" height="500" xlink:href="#B"/><path d="M0 0l500 250H388.197L0 55.902V0zm1500 0l-500 250H888.197l500-250H1500z" class="G"/></g><use transform="matrix(-1 0 0 -1 499.99995 249.99998)" width="1000" height="500" xlink:href="#A"/><path d="M225 0h50v100h225v50H275v100h-50V150H0v-50h225V0z" class="G"/><defs ><path id="D" d="M866.714 219.493l-16.948 38.403 16.948 38.403-110.165-38.403 110.165-38.403z"/><path id="E" d="M22.582 117.786c.001 2.864-1.527 5.51-4.007 6.943s-5.536 1.432-8.016 0-4.008-4.08-4.007-6.943 1.527-5.51 4.007-6.943 5.536-1.432 8.016 0 4.008 4.08 4.007 6.943z"/><path id="F" d="M240.98 117.786c-.001 2.864 1.527 5.51 4.007 6.943s5.536 1.432 8.016 0 4.008-4.08 4.007-6.943-1.527-5.51-4.007-6.943-5.536-1.432-8.016 0-4.008 4.08-4.007 6.943z"/><path id="G" d="m 16.04278,233.11084 a 22.994652,8.5561495 0 1 1 -45.989304,0 22.994652,8.5561495 0 1 1 45.989304,0 z"/><path id="H" d="M127.273 211.228a4.28 4.28 0 0 1-4.278 4.278 4.28 4.28 0 0 1-4.278-4.278 4.28 4.28 0 0 1 4.278-4.278 4.28 4.28 0 0 1 4.278 4.278z"/><path id="I" d="M176.872 211.228a4.28 4.28 0 0 0 4.278 4.278 4.28 4.28 0 0 0 4.278-4.278 4.28 4.28 0 0 0-4.278-4.278 4.28 4.28 0 0 0-4.278 4.278z"/><path id="J" d="M44.762 192.32c.002 4.02-2.14 7.734-5.62 9.745s-7.77 2-11.25 0-5.623-5.725-5.62-9.745 2.14-7.734 5.62-9.745 7.77-2 11.25 0 5.623 5.725 5.62 9.745z"/><path id="K" d="M114.57 301.56c0 .334-.178.643-.468.8s-.646.167-.935 0-.468-.476-.468-.8.178-.643.468-.8.646-.167.935 0 .468.476.468.8z"/><path id="L" d="M113.518 303.67l8.526-3.166-4.185 2.392 2.686-.083-2.492 1.17 4 .275-8.536-.587z"/></defs></svg>