<svg xmlns="http://www.w3.org/2000/svg" xmlns:xlink="http://www.w3.org/1999/xlink" width="1000" height="500" xmlns:v="https://vecta.io/nano"><style><![CDATA[.B{fill:#fff}.C{stroke:#000}.D{fill-rule:evenodd}.E{stroke-width:5.352}.F{stroke-width:5.375}.G{stroke-width:1pt}]]></style><g fill="#002b7f"><path d="M0 0h1000v500H0z"/><path d="M0 0h500v250H0z"/></g><g transform="matrix(.333333 0 0 .333333 .000026 .000244)" id="A"><path d="M625 228.647V0h50l75 325L0 300v-50h332.295L0 83.853V0h167.705z" id="B" class="B"/><use transform="matrix(-1 0 0 1 1500 0)" width="1000" height="500" xlink:href="#B"/><path d="M0 0l500 250H388.197L0 55.902V0zm1500 0l-500 250H888.197l500-250H1500z" fill="#ce1126"/></g><use transform="matrix(-1 0 0 -1 499.99955 250.00024)" width="1000" height="500" xlink:href="#A"/><path d="M225 0h50v100h225v50H275v100h-50V150H0v-50h225V0z" fill="#ce1126"/><path d="M750 126.96c68.164 0 123.04 54.876 123.04 123.04h0c0 68.164-54.876 123.04-123.04 123.04S626.96 318.164 626.96 250h0c0-68.164 54.876-123.04 123.04-123.04z" fill="#ffe300" class="D"/><g transform="matrix(.156762 0 0 .16024 700.3027 255.89593)" class="D"><g stroke-width="3.75" class="C"><path d="M.87 442.913h645.783a26.52 26.52 0 0 1 26.575 26.575h0a26.52 26.52 0 0 1-26.575 26.575H.87a26.52 26.52 0 0 1-26.575-26.575h0A26.52 26.52 0 0 1 .871 442.913z" fill="#007501"/><path d="M30.566 442.913H92.76v53.15H30.566zm528.482 0h62.193v53.15h-62.193z" fill="#c00"/></g><g transform="matrix(.907115 0 0 .688055 30.99951 83.57497)"><g transform="matrix(.810676 -.585495 .585495 .810676 -198.4939 275.5458)"><use xlink:href="#D"/><use xlink:href="#E" class="B C F"/></g><path d="M466.342 631.27c55.98 106.392 85.54 201.094 65.98 211.387s-80.87-67.703-136.852-174.095c3.078-37.072-5.744-42.287 13.817-52.58s26.14-.55 57.057 15.287z"/><use xlink:href="#F" transform="matrix(.884968 -.46565 .469617 .892509 -146.237532 7.185254)" class="B C E"/><g transform="matrix(.934457 -.356076 .356076 .934457 -140.02 143.5871)"><use xlink:href="#D"/><use xlink:href="#E" class="B C F"/></g><path d="M410.287 659.056c26.58 117.246 30.66 216.37 9.102 221.257s-60.625-86.305-87.206-203.55c12.555-35.016 5.38-42.334 26.937-47.22s25.393 6.224 51.167 29.514z"/><use xlink:href="#F" transform="matrix(.97525 -.221102 .222985 .98356 -20.179392 -102.149163)" class="B C E"/><path d="M382.926 665.054c15.607 119.203 10.487 218.28-11.43 221.15s-52.37-91.55-67.978-210.752c15.744-33.703 9.28-41.654 31.195-44.523s24.708 8.55 48.213 34.127z"/><use xlink:href="#F" transform="matrix(.991536 -.129821 .130926 .999984 24.815329 -132.749666)" class="B C E"/><g transform="matrix(-.810676 -.585495 -.585495 .810676 834.0929 275.5458)"><use xlink:href="#D"/><use xlink:href="#E" class="B C F"/></g><path d="M169.257 631.27c-55.98 106.392-85.54 201.094-65.98 211.387s80.87-67.703 136.852-174.095c-3.078-37.072 5.744-42.287-13.817-52.58s-26.14-.55-57.057 15.287z"/><use xlink:href="#F" transform="matrix(-.884968 -.46565 -.469617 .892509 781.836432 7.185254)" class="B C E"/><g transform="matrix(-.934457 -.356076 -.356076 .934457 775.6189 143.5871)"><use xlink:href="#D"/><use xlink:href="#E" class="B C F"/></g><path d="M225.312 659.056c-26.58 117.246-30.66 216.37-9.102 221.257s60.625-86.305 87.206-203.55c-12.555-35.016-5.38-42.334-26.937-47.22s-25.393 6.224-51.167 29.514z"/><use xlink:href="#F" transform="matrix(-.97525 -.221102 -.222985 .98356 655.778492 -102.149163)" class="B C E"/><path d="M252.673 665.054c-15.607 119.203-10.487 218.28 11.43 221.15s52.37-91.55 67.978-210.752c-15.744-33.703-9.28-41.654-31.195-44.523s-24.708 8.55-48.213 34.127z"/><use xlink:href="#F" transform="matrix(-.991536 -.129821 -.130926 .999984 610.783571 -132.749666)" class="B C E"/><path d="M365.242 678.24c1.3 120.214-15.58 217.975-37.684 218.214s-41.096-97.134-42.397-217.348c19.646-31.588 14.173-40.253 36.275-40.492s23.514 11.43 43.806 39.625z"/><use xlink:href="#F" transform="matrix(.99994 -.010822 .010913 1.00846 104.684566 -156.530678)" class="B C E"/></g><path d="M686.14 177.018c.595.624-.287 2.4-1.97 3.946s-3.53 2.31-4.126 1.688.287-2.4 1.97-3.946 3.53-2.31 4.126-1.688z" class="B"/><path d="M682.372 178.85c.3-.12.844.345 1.192 1.038s.38 1.353.068 1.473-.844-.345-1.192-1.038-.38-1.353-.068-1.473z"/><path d="M321.944 435.27c-50.347-2.962-36.765-64.734-51.573-64.734s-65.155 56.27-79.963 71.078-17.77 38.5-17.77 38.5-2.962-38.5-23.693-41.462-44.423 29.616-44.423 29.616 2.96-32.577 20.73-44.423 50.346 0 50.346 0 71.078-68.117 85.886-94.77-33.445-28.476-45.29-49.207 5.923-79.962-11.846-91.808c-14.808 29.615-29.616 97.732-47.386 94.77s-35.538-50.347-35.538-50.347 8.884 56.27-17.77 56.27-32.577-56.27-32.577-56.27-2.962 59.232-29.616 59.232-26.654-71.078-26.654-71.078-20.73 59.23-35.54 68.116-8.884-65.154-8.884-65.154-20.73 59.23-44.424 56.27-20.73-50.346-20.73-50.346-17.77 41.462-50.347 32.577-23.692-56.27-23.692-56.27-11.846 35.54-38.5 14.808 8.885-53.308 8.885-53.308-23.693 32.577-50.347 17.77 11.847-65.154 11.847-65.154-44.423 14.807-65.154-11.847 29.615-41.462 29.615-41.462-32.577-5.923-38.5-29.616 41.462-29.616 41.462-29.616-38.5-8.885-41.462-32.577 44.423-5.923 47.385-5.923-59.232-41.462-59.232-59.23 59.232 8.885 59.232 8.885-59.232-38.5-59.232-65.155 38.5-5.923 53.308-2.962c-11.846-17.77-53.308-35.538-50.346-56.27s56.27 2.96 56.27 2.96-50.347-53.308-41.462-71.078 62.193 23.693 62.193 23.693-62.193-53.308-56.27-68.116 65.155 26.654 65.155 26.654-59.232-56.27-50.347-77 59.23 26.655 71.077 35.54c-11.846-5.923-68.115-79.963-56.27-97.733s74.04 56.27 74.04 56.27-56.27-88.847-47.385-100.693 77 71.077 77 71.077-53.308-91.808-32.577-106.616 56.27 77 59.23 77-29.616-100.694-5.923-109.58 59.23 94.77 62.192 94.77S-106.616-584.9-77-581.95s23.693 65.155 23.693 68.117 2.962-35.54 20.73-35.54C-35.54-540.487 20.73-223.6 38.5-149.56s38.5 53.308 53.308 77 35.538 26.654 59.23 29.616 74.474 3.467 88.847-23.693c10.542-25.087-2.962-127.348 81.443-130.31 84.406 2.96 70.902 105.222 81.444 130.31 14.373 27.16 65.155 26.654 88.847 23.693s44.423-5.923 59.23-29.616 35.54-2.962 53.308-77 74.04-390.928 71.078-399.812c17.77 0 20.73 38.5 20.73 35.54s-5.923-65.155 23.693-68.117 2.96 133.27 5.923 133.27 38.5-103.655 62.192-94.77-8.884 109.58-5.923 109.58 38.5-91.81 59.23-77-32.577 106.616-32.577 106.616 68.116-82.924 77-71.077-47.385 100.693-47.385 100.693 62.193-74.04 74.04-56.27-44.423 91.8-56.27 97.733c11.846-8.885 62.192-56.27 71.077-35.54s-50.347 77-50.347 77 59.232-41.462 65.155-26.654-56.27 68.116-56.27 68.116 53.31-41.462 62.193-23.693-41.462 71.078-41.462 71.078 53.308-23.692 56.27-2.96-38.5 38.5-50.346 56.27c14.808-2.96 53.308-23.692 53.308 2.962S906.24-81.443 906.24-81.443s59.232-26.654 59.232-8.885-62.193 59.23-59.232 59.23 50.347-17.77 47.385 5.923-41.462 32.577-41.462 32.577 47.385 5.923 41.462 29.616-38.5 29.616-38.5 29.616 50.346 14.808 29.615 41.462-65.154 11.847-65.154 11.847 38.5 50.346 11.847 65.154-50.347-17.77-50.347-17.77 35.54 32.577 8.885 53.308-38.5-14.808-38.5-14.808 8.885 47.385-23.692 56.27-50.347-32.577-50.347-32.577 2.962 47.385-20.73 50.346-44.424-56.27-44.424-56.27 5.924 74.04-8.884 65.154-35.54-68.116-35.54-68.116 0 71.078-26.654 71.078-29.616-59.232-29.616-59.232-5.923 56.27-32.577 56.27-17.77-56.27-17.77-56.27-17.77 47.385-35.538 50.347-32.578-65.155-47.386-94.77c-17.77 11.846 0 71.077-11.846 91.808s-64.287 22.553-49.48 49.207 85.886 94.77 85.886 94.77 32.577-11.847 50.346 0 20.73 44.423 20.73 44.423-23.692-32.577-44.423-29.616-23.693 41.462-23.693 41.462-2.96-23.692-17.77-38.5-65.155-71.078-79.963-71.078 7.15 61.772-46.158 64.734z" class="C G"/><path d="M379.08-78.48c1.596.456-22.16 45.457-55.854 68.756s-61.722 13.483-68.374 11.04c.534 7.227 2.2 46.685 3.67 67.416 6.117 91.748-20.73 122.47-20.73 122.47s17.77 29.616 17.77 44.424-.806 34.164 13.94 69.79c26.263 47.603 29.616 53.308 29.616 71.077s4.547 43.433 23.26 39.514c20.806 5.833 23.258-21.924 23.258-39.694s3.353-23.474 29.616-71.077c21.03-33.53 9.752-54.98 9.752-69.79s17.77-44.424 17.77-44.424-26.848-29.676-20.73-121.424c2.96-41.462 26.654-85.885-2.962-148.078z" class="B"/><path d="M199.99-198.148s21.99 4.188 35.6 14.66 20.94 21.99 14.66 28.27-19.894 3.14-30.365-2.094-29.318-28.27-28.27-28.27 0 28.27 21.988 39.79 24.725 14.133 33.1 13.086 30.085-29.776 29.038-42.34-12.926-23.1-30.726-29.38-45.025 8.376-45.025 6.282z" transform="matrix(1.325804 .105982 .176761 1.235809 -49.82467 16.05418)" fill="#ffe300" class="C G"/><g class="B"><path d="M339.1-158.445c0 5.725-4.972 10.366-11.106 10.366s-11.106-4.64-11.106-10.366 4.972-10.366 11.106-10.366 11.106 4.64 11.106 10.366z"/><g class="C G"><use xlink:href="#G" transform="matrix(.977117 -.06834 .056334 .805457 22.63732 19.91927)"/><use xlink:href="#G" transform="matrix(-.977117 -.06834 -.056334 .805457 626.5057 24.10754)"/><use xlink:href="#H" transform="matrix(.522091 .718307 .46422 -.548939 417.8989 -685.7787)"/><use xlink:href="#H" transform="matrix(-.522091 .718307 -.46422 -.548939 242.9409 -664.8372)"/></g></g></g><defs ><path id="D" d="M361.087 675.39c0 120.22-17.94 217.794-40.043 217.794s-40.042-97.573-40.042-217.794c19.986-31.374 14.608-40.097 36.71-40.097s23.39 11.685 43.375 40.097z"/><path id="E" d="M358.423 698.556c0 96.763-20.934 104.217-39.43 104.217s-36.468-7.454-36.468-104.217 17.973-246.373 36.468-246.373 39.43 149.6 39.43 246.373z"/><path id="F" d="M248.845 853.44c0 95.946-20.934 103.337-39.43 103.337s-36.468-7.39-36.468-103.337 17.973-244.292 36.468-244.292 39.43 148.346 39.43 244.292z"/><path id="G" d="M528.64-38.5c7.55.15 39.818-13.954 49.606-29.616 16.126-25.8 37.76-75.52 37.76-75.52s-4.443 38.5 4.442 41.462 17.77-1.482 32.577-8.886c-2.96 9.626-32.827 25.527-30.355 33.32 2.326 5.645 43.683-2.962 54.79-3.702-9.626 6.663-57.89 14.5-59.973 27.395-1.62 10.047 31.097 10.365 41.463 15.548-13.327 1.48-45.067-1.988-54.05 8.885-5.085 6.156 33.317 44.424 27.394 44.424s-31.76-36.417-42.942-28.135c-8.8 6.526-2.22 30.356-3.702 42.203-6.664-8.144-16.23-38.18-25.174-38.5-11.786-.42-31.096 33.318-39.98 39.98 5.183-10.365 16.71-45.447 12.587-50.347-5.88-8.04-46.645-1.48-59.973 8.885 10.367-17.03 46.707-27.556 55.53-27.395z"/><path id="H" d="M546.54-30.34c7.606-1.682 38.078-6.693 47.866-22.355 16.126-25.8 8.658-64.01 14.717-88.507 6.868 22.34 2.44 36.063 11.326 39.025s11.842-5.425 26.65-12.83c-2.96 9.626-26.9 29.47-24.427 37.262 2.326 5.645 43.683-2.962 54.79-3.702-9.626 6.663-57.89 14.5-59.973 27.395-1.62 10.047 31.097 10.365 41.463 15.548-13.327 1.48-45.067-1.988-54.05 8.885-5.085 6.156 33.317 44.424 27.394 44.424s-31.76-36.417-42.942-28.135c-8.8 6.526-2.22 30.356-3.702 42.203-6.664-8.144-16.23-38.18-25.174-38.5-11.786-.42-31.096 33.318-39.98 39.98 5.183-10.365 16.71-45.447 12.587-50.347-5.88-8.04-18.554-4.78-32.82-12.8 23.563-3.576 37.863 5.684 46.278 2.463z"/></defs></svg>