<svg xmlns="http://www.w3.org/2000/svg" width="1200" height="600" xmlns:v="https://vecta.io/nano"><clipPath id="A"><path d="M0,0V150H700V300H600zM600,0H300V350H0V300z"/></clipPath><path fill="#002b7f" d="M0 0h1200v600H0z"/><path d="M0,0 600,300M600,0 0,300" stroke="#fff" stroke-width="60"/><path d="M0,0 600,300M600,0 0,300" stroke="#ce1126" stroke-width="40" clip-path="url(#A)"/><path d="M300,0V350M0,150H700" stroke="#fff" stroke-width="100"/><path d="M300,0V350M0,150H700" stroke="#ce1126" stroke-width="60"/><path d="M0,300H600V0H800V400H0z" fill="#002b7f"/><circle cx="900" cy="300" r="128.572" fill="#fff"/><path d="M947.428 358.455c-2.056 1.327-4.145 2.8-3.958 5.513-2.142-2.204-2.752-5.362-1.555-8.2-2.672.36-3.992 2.677-4.524 5.09-.65-2.8-1.877-7.374 1.838-8.482-.494-2.393-2.828 1.234-2.982 2.5-1.13 4.59-1.03-.843-1.26-2.793-.174-1.855 1.044-3.48 2.545-4.24 1.824-3.62 6.53-2.364 9.754-2.12 2.344.288 5.73-.515 5.292-3.54.284-4.08.092-10.06-4.726-11.305-3.24-1.18-3.477 1.186-2.888 3.84.666 2.85-.576 1.912-2.343 1.53-1.683.08.5 2.98-1.37 4.036-.733 1.186-3.735-2.405-3.86-.502-.324 2.1-1.384 5.14-4.1 4.24-.848 1.707-1.083 3.78-2.403 5.372-2.295 3.43-6.15 5.2-9.754 6.644-3.23.134-3.982 3.833-3.817 6.503-1.325-2.61-3.694-6.23-1.13-8.765-2.442.656-3.792 3.212-2.867 5.658 1.1 3.47-1.94-1.17-2.646-2.407-1.518-1.298.613-4.974-.707-4.665-1.908 1.244-1.796 3.673-1.98 5.796-.847-2.53-2.983-6.234-.14-8.2.08-4.482 5.445-5.1 8.906-4.948 3.07.778 3.8-2.945 5.796-4.524 1.587-2.71 4.345-4.72 5.655-7.492.51-4.132-5.037-4.87-6.786-7.916-1.593-1.04-1.026-4.344-2.97-4.24-5.104-.114-10.153 1.24-14.843 2.97-3.21 1.362-6.952-.535-10.037.424 1.1 1.702-1.925 5.514-2.403 2.12-1.014-1.092-.88 5.112-2.545 2.262-2.248-.198.493 2.734-1.024 4.07-.258 2.136-2.994-2.498-3.5-.396.554 1.9-.614 5.714-2.403 2.827-2.56-1.528-.926 1.36-1.692 2.814-1.527 3.885-1.084.415-2.832-.976.712 1.137.098 5.19-1.272 3.534-2.32-.296-2.103.7-1.272 2.403.037 3.925-1.47.8-3.1 1.838 1.607 2.102-.5 3.536-2.262 2.12-3.362.566-5.16 4.242-5.513 7.492-2.278 3.354-6.724 5.034-10.602 3.675-1.737 1.516-1.58 4.69-4.24 5.372-3.062 1.653-1.718-.392-1.696-2.545.355-2.596-1.873-2.045-2.992-.4-1.51 1.268-2.14 5.117-2.94 1.262-.825-1.706-.004-3.663.42-5.103-.683-1.916-2.398 2.043-2.668 3.198-.463 1.865-1.53-3.385-1.15-4.47 1.69-2.848 2.48-7.388 6.36-8.34 3.586-.18 7.253.12 10.885 0 1.396-3.557 2.715-7.135 3.445-10.848.587-3.19 3.295-5.658 2.634-9.084-.1-1.814-3.08 2.937-2.12-1.555-.156-1.13-4.79 4.88-2.907.93.795-1.487.934-4.9-.463-1.857-1.832 2.41-4.997 2.846-7.798 3.188 2.13-1.222 5.197-3.158 4.948-5.513-1.284 1.202-4.11 5.29-3.885 1.27-.35-2.364-.96-5.455-1.345-7.348-2.568.737-5.177.194-7.775-.283 1.383-.667 3.65-3.866.848-3.817-2.594.842-3.343-1.138-5.64-.328-1.39-1.42-3.977-.812-5.953-.38.95-2.92-2.667-1.802-2.686.283-1.533 1.317-1.42 4.05-3.817 4.524-1.034.514-5.428 2.204-4.243.898 1.82-.76 2.635-5.14.185-4.02-1.79 1.393-2.537 3.27-2.162 5.524-2.022-1.935-3.866-4.973-2.12-7.634-1.923.84-3.263 2.398-4.24 4.24-.648-3.19-1.866-7.222.707-9.754-2.337.728-2.78 3.84-3.675 5.937-.022-3.254-1.482-8.125 1.98-10.037 2.078-.795 2.83-3.598 5.09-4.524 3.062-2.53 7.648-1.942 10.744.283 1.854.766 3.62.907 5.655.707 4.187-.206 8.578.218 12.44 1.98.267-1.373 3.684-3.716 1-3.817-3.097-.63.514-2.526.848-4.24 1.48-2.437-.3-4.96.283-7.492.777-2.6 4.206-2.906 5.513-5.09.903-2.415-2.217-.327-3.393-.424-1.98 1.187-5.124-.82-3.25-2.97.063-2.115-1.35-5.687-3.958-4.524-3.672.373-8.23-.444-9.33-4.524-.625-2.122 1.08-5.653 3.534-3.675 2.33 1.442 3.77 4.445 6.927 3.675 1.968-.116 3.875-.526 5.796-1-1.47-1.446-3.24-3.012-5.372-1.838-3.286.798-5.446-2.622-4.524-5.513-.066-1.837.17-5.467 2.97-4.382 2.45-.276-2.614-1.153-2.403-2.686.502-2.748 4.37-1.842 6.22-3.25 3.588-1.617 6.28-5.77 10.744-5.23 2.22-2.15 5.805-2.084 8.765-2.262-.464-2.308.442-4.694 1.696-6.644 1.277 1.212 2.396 4.99 4.1 3.958 1.88-1.36-1.862-2.84 1.555-3.25 2.663-.72 4.56 2.013 4.665 4.382 1.827-.087 3.695 1.2 3.817 3.1 2.337-2.628 6.174-2 9.047-.707-.76.815-2.236 5.32-.565 2.97 1.182-1.82 5.68-1.29 4.524 1.272-.522 3.345 1.616-.76 3.38.702 2.878-.133-.76 1.848.58 3.256 1.796 1.15 1.88 3.916 4.24 4.665 1.904.786 4.295 1.416 1.555 3.25-2.1 1.234-3.09 1.425-.565 3.1 2.694 2.48.14 7.12 3.817 8.906 1.234 1.398 4.816 1.047 2.12 3.1-1.625 1.24-2.773 1.725-1.56 3.945.13 1.555 3.71 3.22 2.04 4.04-1.676.6-3.7 1.5-5.288.355-1.642 2.95 2.136 4.64 4.527 4.736 12.2-2.087 24.526-4.75 36.748-7.386 6.054-1.48 12.86-.313 17.447 4.192 3.2 2.835 8.32.153 8.37-3.946.898-4.946-4.553-7.95-8.872-7.45-10.026-.968-20.13-.885-30.088-2.445-5.925-1.245-11.184-5.835-11.96-12.016-1.323-6.5 1.72-14.17 8.425-16.257 6.6-2.662 14.143-2.09 20.498 1 4.367.728 8.265-1.673 12.157-3.25 4.412-1.504 9.275.517 11.733 4.382 2.503-1.546 5.64-.793 8.2.283-2.1.958-4.672 1.74-5.937 3.675 1.566 1.747 3.234 3.64-.283 3.393-2.06.434-4.438.72-5.796 2.545-5.935.057-12.604-.13-17.247-4.24-3.515.124-6.69-1.5-9.896-2.545-4.938-.755-12.113-.475-13.854 5.23-1.423 3.68-.508 8.292 3.25 10.178 7.442 3.658 16.105 2.66 24.173 3.25 7.613.497 16.325.775 22.194 6.36 4.34 4.24 3.89 11.41.062 15.83-1.95 2.37-4.33 4.39-6.99 5.94 1.8 4.93 5.46 9.89 3.534 15.267-.06 2.625-3.517 3.808-2.97 6.503-.26 3.797-1.8 7.772-5.09 9.896 3.134 1.564 1.65 1.97-.24 3.612-.807 1.172 3.084.95 3.7 2.566 2.992 2.06-1.005.915-2.198 2.022.81.31 2.95 5.387-.14 4.24-2.868-.15-.478 2.58-1.414 4.1-.898 2.985-3.954 5.335-3.958 8.765-.653 3.57-3.085 8.128-7.36 7.2-2.003-.522-3.54 2.072-5.787 1.838z"/><g fill="#ce1126"><path d="M968.5 292.296c14.136-8.34 12.864-20.78 1.13-25.022-8.765-2.827-17.388-2.12-26.153-2.827-11.733-.424-16.54-3.1-17.953-7.916-.848-10.46 5.796-12.864 16.116-11.45 2.686 1.555 5.655 2.403 9.047 2.545 2.97 2.686 7.775 4.382 16.68 4.1 1.838-2.12 4.806-2.262 7.492-2.686-.707-.848-1.272-1.696-1.98-2.545.565-1.272 2.262-2.403 4.948-3.675-3.1-1.13-4.948-.424-6.644.565-3.676-5.655-8.765-6.644-15.4-2.686-2.827 1.13-5.655 1.696-8.34 1.414-4.806-2.545-9.613-3.1-14.42-2.545-9.896 1.414-14.42 6.503-13.854 15.267.565 7.916 5.513 12.58 14.985 13.854l28.838 1.98c12.864 1.414 6.644 18.943-2.545 12.157-5.513-5.1-10.885-4.806-16.398-3.958l-20.78 4.524-15.833 2.97c-5.372-.565-7.2-2.686-5.23-6.36 1 1.13 2.827 1.13 5.23 0-2.403-2.403-3.25-4.806-2.686-7.2.848 1.414 1.838-.283 2.686-1.414-2.827-.848-4.524-2.545-5.23-4.948.424-4.1-1.272-6.644-5.23-7.775 2.545-.14 4.382-1.13 5.513-2.686-2.686-1.13-5.1-2.262-5.513-4.806-1.838-1.272-2.262-2.686-1.13-4.1-2.545-.848-3.534.14-3.1 2.97-1-1.838-1.414-3.675-1-5.513-2.262-1.555-3.958 0-5.372 2.827-.424-1.838-.14-3.675.848-5.513-4.806-2.12-6.927-.283-8.906 2.12.707-2.97-.424-4.382-3.534-4.382-.565-3.817-2.262-5.23-4.948-3.817 1.272 1.13.707 2.403-1.696 3.534-1-1.414-1.98-2.827-3.1-4.1-1.272 1.98-1.272 3.958-1 6.08-4.948 0-8.058.707-9.2 2.12-2.12 0-4.24.424-6.36 2.262-1.414 1.414-3.1 2.403-5.1 3.393l-4.665 1.272c-1.13 1-.14 1.696 2.97 3.1.565.848-.707 1.555-2.403 1.13-1.414-.565-1.555 1.696-1.696 3.817-.283 2.97.14 5.513 4.665 4.806 3.25-1.696 4.24 3.393 7.634 2.403-5.1 1.414-9.896 2.545-12.582 1.13-4.665-5.23-6.08-4.24-6.08-.565.848 3.1 2.97 5.372 10.885 4.24 1.98 1.838 2.827 3.817 2.403 5.796-1 1.414-.565 2.12 1.696 2.12 1.414-.283 2.827-.707 4.1-1 1.13 0 1.414.848.565 2.686-1.272 1-2.545 1.838-3.817 2.827-2.12.848-1.696 3.393-.848 6.08-.424 2.545-1.414 4.524-2.827 6.08 1.13.707 2.12.848 3.1.565l-3.393 4.948c-5.23-2.403-10.602-2.262-15.974-1.838-1-.424-1.838-.848-2.827-1.13-5.372-3.393-9.47-1.414-13.006 2.686-1.13 1.555-1.13 2.97 0 4.524.14 1.98.283 4.1 4.1 4.665.283 1.838 1 3.393 5.1 1.98.283 1.696 1.555 2.262 3.817 1.696 1.272-1.13 2.12-2.403 2.545-3.958 2.403-.424 3.393 0 2.97 1.414 2.97-.565 4.665-.283 5.372.565 1.555-.565 2.545-.424 2.686.565 4.24-.565 4.1.14 4.806.565.424 1.13 0 2.12-1.414 3.25 2.545.565 4.806.707 6.927-.283l1.696 9.2c1.13-1 2.403-2.12 3.534-4.1.424 3.393-.565 5.23-2.545 6.36 3.1-.424 4.948-2.686 6.22-5.937.283 1.98.565 3.817 0 5.372 1.13-1 1.696-2.12 1.555-3.393.707 1.272 1.13 2.686 1.13 3.958 1.555-1.272 1.272-2.403 1.414-3.675.565 2.686 1.13 5.372.283 8.058-1.838 3.1-2.686 6.08-3.1 8.906l-2.686 7.775h-8.906c-3.534-.707-5.513 1.414-6.644 4.665-1.13 1.555-.565 2.545 1.98 2.827 0 .707.14 1.272.565 1.555.424 1.838 2.262 1.696 4.1 1.414 2.403 1.696 4.382 1.414 6.08-.848 4.24 1.272 7.634.14 10.32-3.25.707-3.534 1.696-5.655 2.97-6.08 1.696-2.262 3.393-1.98 5.1-1.13.424-.707.283-1.272-.565-1.98 1-1.696 1.98-1.838 2.97-.565.707-1.555.14-2.686-1.13-3.534 1.98-1.13 3.25-1.272 3.958-.565.565-1 .424-2.545-.283-4.524 1.272.424 2.403 1.13 2.686 2.827 1-1.555 1-2.97 0-4.1 1.414-.707 2.827-.283 4.24 1a4.79 4.79 0 0 0 0-4.382c1.555.14 2.97.283 3.817 1.414.848-1.838.283-3.1-.565-4.24 2.12-.283 3.1-.283 3.1 0 1.13-1.414 0-1.98-.565-2.686 1.98-.283 3.1.283 3.393 1.414 1.414-1.555 1.272-2.545-.565-3.393 1.696-.14 3.393-.14 5.23-.283 3.958.848 6.08.283 8.058-.565 4.524-1.696 9.33-2.827 14.985-2.403.565 2.827 2.12 5.23 4.948 7.2 4.665 2.686 5.23 5.513 1.98 8.482-2.686 3.25-5.23 6.503-7.775 9.754-6.503-.424-10.037.707-10.602 3.25-.424 1.555.424 2.403 2.545 2.545-.14 2.545 3.958 3.393 5.23 1.13.565 1.555 1.414 2.97 3.393 2.545 1.272.707 2.262 0 3.25-.848 3.817-1 6.927-3.675 9.2-8.623-.14-2.12.707-2.827 2.686-2.262 1.696-1.13 1.838-3.25 1.98-5.23 1.696.565 3.1 1.13 3.958 1.696 1.272-1.696.707-2.827 0-3.958 1.98-.565 2.827-.283 3.534 0 0-1.838-.14-3.817-.283-5.796 5.655-.707 9.896 1.272 9.2 12.44 0 3.817-3.534 3.958-7.492 3.675-2.827-.565-5.655-.707-7.492 1.414-.14 1.272-.14 2.545 1.696 3.817 0 2.545.14 2.403 2.403 3.675 1.13 2.686 1.414 2.262 4.24 2.686 2.545-.14 3.958-1.13 5.23-2.12 7.2 1.98 7.634-5.1 8.906-9.754l2.97-4.665c.424-1.414.707-2.827-.283-4.24 1.13-1.13 2.262-1.555 3.393-1.13.424-2.262-.848-2.97-2.545-3.25 1.272-1.13 2.686-1.696 3.958-1.696-1.555-1.696-3.393-2.262-5.23-1.98.848-1.555 1.696-2.97 2.97-3.25-1-1.13-1.98-1.414-3.25-1.13 5.23-2.686 6.644-7.2 6.644-12.44 2.827-2.686 4.1-6.22 2.97-11.168l-3.817-8.765zm-26 64.18c-.848 2.12-.707 4.1.565 5.796.14-1.272 1.414-2.545 3.393-3.817-1.98.14-3.393-.565-3.958-1.98zm-3.25-3.392c-1.838.565-2.262 2.403-1.696 5.372.424-1.414 1.555-2.545 3.534-3.1-1.696-.283-2.403-1-1.838-2.262zm-1.698-4.383c-1.98.707-1.98 3.1-1.696 5.655.424-1.414 1.13-2.827 2.686-3.534-.848-.565-1.13-1.272-1-2.12z"/><path d="M916.47 354.638c-1.272 1-1.13 2.827.424 5.513 0-1.838.848-3.25 2.262-4.1-1.13-.14-2.12-.424-2.686-1.414zm-5.514-1.273c-.707 1.414-.14 3.25 1.555 5.23-.424-1.414 0-2.827 1.272-4.382-1 .283-1.838 0-2.827-.848zm-2.97-2.685c-1.13.848-1.13 2.403-.424 4.524.14-1.13.707-2.403 2.12-3.534-.565-.14-1.13 0-1.696-1zm-60.504 8.48c.424 1.272.565 2.545 0 4.1 2.12-.424 3.25-1.838 3.817-3.817-1.272.424-2.545.565-3.817-.283zm-5.09-1.978c-1 1.272-1.13 2.97-.14 5.1.424-1.13 1.414-2.262 2.827-3.393-1.414 0-2.403-.424-2.686-1.696zm-3.252-2.827c-1 .565-.848 2.262-.283 4.24.424-1.696 1.272-2.686 2.262-3.393-.565-.14-1.272-.283-1.98-.848zm-18.66-41.28c1 1.13.14 2.403-.848 3.534 2.97-.707 4.524-1.696 4.806-2.97-1.272.424-2.545.283-3.958-.565zm-5.382-2.12c-1.414 1.696-1.13 3.675.565 5.796 0-1.272.848-2.686 2.545-4.24-1.414 0-2.545-.424-3.1-1.555zm-4.23-4.524c.565 1.555 1.272 2.97 3.393 3.817-1.838.848-3.1 1.98-3.958 3.25-.707-3.393-.848-5.937.565-7.068zm-1.132-4.665c-2.12.565-2.545 3.1-2.262 6.503.565-1.838 1.696-2.97 3.1-3.534-.707-1-.848-1.98-.848-2.97z"/></g><path d="M869.394 263.033c2.12 2.97 3.393 5.937 3.817 8.906 0-4.24-1.272-7.2-3.817-8.906zm8.482-9.047c3.25 3.1 5.937 6.08 7.634 9.047-1.414-4.665-4.24-7.35-7.634-9.047zm-4.24 5.23c3.534 4.524 5.796 9.613 5.937 15.55 1.13-8.2-1.838-12.44-5.937-15.55zm-1.98 2.828c3.675 4.524 5.372 9.47 4.382 14.843 1.555-7.35 0-12.3-4.382-14.843zm-15.736-16.047c-.668.048-1.1.252-1.816.5-1 4.1 4.707 4.525 6.97 2.405.464-.42.734-.786.883-1.08a1.84 1.84 0 0 0 .098-.245c.008-.038.046-.1.05-.147s-.045-.114-.05-.147c-.002-.01.002-.04 0-.05a1.51 1.51 0 0 0-.05-.147c-.01-.018-.036-.08-.05-.098-.007-.008-.042-.04-.05-.05s-.04-.04-.05-.05c-.034-.03-.106-.07-.147-.098-.01-.007-.038-.043-.05-.05-.034-.02-.1-.032-.147-.05-.86-.382-2.462-.416-3.288-.5-1.113-.186-1.787-.234-2.307-.196zm.196.5c1.116-.097 2.665.1 4.32.442-1.48.52-4.387 1.066-5.202 1.472l-.098.05c-.298-.298-.5-.558-.6-.785l-.05-.147c-.004-.023.001-.076 0-.098v-.098c.002-.02-.005-.078 0-.098.008-.03.035-.07.05-.098l.05-.098c.006-.008.042-.04.05-.05a1.14 1.14 0 0 1 .245-.196c.035-.02.108-.032.147-.05a3.86 3.86 0 0 1 1.08-.245zm5.35.834c-.14 1.414-1.545 2.136-5.644 1.57l5.644-1.57zm81.72 107.882c.424-1.414 1.272-2.262 2.97-1.838 4.524.707 6.927-.424 7.35-3.393-1 2.262-3.25 3.675-7.916 2.827-2.686-.424-2.686 1-2.403 2.403zm-2.687-4.1c.14-1.696 1.696-1.98 3.958-1.696 3.958.565 6.503-.283 8.058-1.555-.707 1.555-2.12 2.827-7.775 1.98-1.838-.14-3.25.14-4.24 1.272zm-23.9.99c.283-1.13 1.555-1.555 3.534-1.13 2.97 0 4.24-1.555 5.1-3.675-.848 2.12-2.403 3.534-5.655 3.25-1.98-.848-3.1-.283-2.97 1.555zm3.545-5.796c-.14 1.13-.565 1.98-3.1 1.696-2.827.424-5.1 1.272-5.796 3.25.14-2.686 1.555-3.675 3.958-3.25 2.262-.14 3.817-.707 4.948-1.696zm-67.008 10.46c-.565-2.403.707-3.393 2.827-3.675-2.262-.14-4.24.14-2.827 3.675zm-10.885-1.978c.565-1.696 1.555-2.827 3.1-3.393 3.1-1 6.786-1 10.46-.565-3.958-1-7.492-1.13-10.602-.14-1.696.565-2.686 1.98-2.97 4.1zm13.854-2.546c-3.1-.14-6.22-.14-8.2 1.272-2.262.14-2.12 1.98-1.555 4.24 0-1.838.14-3.534 1.838-3.675 1.696-1.272 4.665-1.696 7.916-1.838zM946.58 245.22c4.806-.565 8.482-2.403 11.875-4.665-2.827 3.1-6.503 4.948-11.875 4.665zm14.702-1.837c-2.827-.283 4.948 1.838 4.948 1.838-.565-1.13-2.262-1.414-4.948-1.838zm-6.502 5.23c4.524 1.414 8.906 2.12 13.43.565-4.1 2.262-8.482 2.403-13.43-.565zm3.533-4.514c5.1 2.12 10.178 2.97 14.843.424-4.665 4.524-9.754 3.25-14.843-.424zm-2.543-.293c5.1-2.545 9.896-2.686 14.42.848-4.24-4.382-9.047-5.23-14.42-.848zm-2.122 1.555c5.372 2.686 11.45 3.534 18.095 2.12-6.503 2.262-12.582 1.414-18.095-2.12zm-54.425 72.662c-.707 2.97-1.98 3.817-3.25 4.382 2.545.14 4.1-.848 3.25-4.382zm38.31-1.696c-5.372 3.958-11.168 4.524-17.105 3.817 7.775 1.98 13.712 1.272 17.105-3.817zm3.676-7.35c-2.686 7.068-2.97 13.995 2.12 20.64-6.503-5.796-5.937-12.864-2.12-20.64zm-75.913-71.53c1 2.403.565 4.665-.424 7.068 1.838-2.97 2.403-5.513.424-7.068zm-21.77 20.214c3.393 1.414 5.23 1.414 5.655 0-.283 1.696-1 2.97-5.655 0zm3.25 5.94c3.958.848 8.2 1.696 6.36 3.1 3.817-1.555.283-2.403-6.36-3.1zm-35.06 40.712c3.25-3.534 7.2-4.524 11.592-3.958-5.372-1.838-9.33-.565-11.592 3.958zm3.96 4.24c2.403-3.675 5.937-5.372 9.754-6.08-4.665-.14-8.34 1-9.754 6.08zm4.382 2.403c1.414-3.25 4.1-5.1 7.775-5.655-4.1-1.13-6.503 1.13-7.775 5.655zm36.048-30.536c-3.676 4.524-6.36 9.33-8.765 14.278.848-5.513 2.403-10.885 8.765-14.278zm6.786-7.915c-1.13 2.686-1.555 5.23 0 7.916-1.98-2.686-1.555-5.23 0-7.916zm-3.252 1.837c0 1.414-.707 2.686-2.12 4.1 2.262-1.555 2.97-2.97 2.12-4.1zm-3.817-.565c.424 1.555.707 3.1-.14 4.665 1.838-1.555 1.13-3.1.14-4.665zm-2.543-.424c.424 1.838.14 3.675-.707 5.372 1.98-1.696 2.12-3.534.707-5.372zm-4.383-11.593c-5.1-1.98-7.492-1.696-7.068.565-1-3.1.424-4.24 7.068-.565zm-4.524-7.916c2.403.848 3.675 1.838 4.948 3.1-.424-2.545-2.12-3.534-4.948-3.1zm-1 15.976c4.382-.565 8.765-1.838 13.006-3.676-4.1 2.403-8.482 3.817-13.006 3.676zm10.18-9.332c6.786 3.1 10.037 7.068 5.372 12.864 7.068-6.36 4.24-10.46-5.372-12.864zm26.718-15.974c1.555-1 3.676-1.696 6.22-1.838-3.25-1.13-5.23-.424-6.22 1.838zm-6.22 4.524c1.272 2.686 3.817 3.534 7.775 2.262-4.1 2.686-6.786 1.98-7.775-2.262zm7.775.99c-2.403-2.545-4.948-3.817-7.775-1.696 3.1-3.675 5.513-1.414 7.775 1.696zm-9.613-2.544c3.534-3.393 7.634-2.97 12.016 1.272-4.24-4.665-8.2-6.36-12.016-1.272zm2.12-7.2c-.707 2.12-2.12 4.382-5.23 6.503 4.524-1.98 5.655-4.1 5.23-6.503zm-3.1-3.25c-1 2.686-2.827 5.372-5.513 8.058 4.806-2.403 7.068-5.1 5.513-8.058zM890.74 254.4c2.545-2.545 5.372-.848 8.34 1.414-3.817-4.806-6.644-5.23-8.34-1.414zm0-6.634c-2.12 2.403-3.393 4.806-3.817 7.068-1.13-2.545.14-4.806 3.817-7.068zm-.706-1.414c-3.393 2.545-5.655 4.948-6.927 7.35.14-3.534 2.545-5.937 6.927-7.35zm0 11.168c3.534.707 6.927.14 10.46-.848-1 1.696-10.602 2.97-10.46.848zm1.838 1.98c5.372 2.545 8.2 6.503 8.482 12.157-.14-7.916-2.97-12.016-8.482-12.157zm3.392 6.36c1.696 4.665 4.524 9.33 9.613 13.57-6.786-3.25-9.613-7.916-9.613-13.57zm-13.147 5.1c3.1 4.1 4.665 8.482 5.655 13.147.283-7.068-1.272-11.733-5.655-13.147zm-.565-3.676c2.686.848 4.665 2.827 5.655 6.22 0-4.806-1.838-6.927-5.655-6.22zm2.262-11.45c4.806 4.24 8.34 8.765 10.178 13.57-1.555-8.623-5.23-12.3-10.178-13.57zm-8.34 1.697c6.36 4.24 11.168 8.482 14.56 12.864-2.545-4.806-7.35-9.047-14.56-12.864zm-11.31 15.126c4.948 4.1 7.916 9.613 7.916 17.105 1.696-9.33-1.555-14.56-7.916-17.105zm30.393 35.624c2.403 4.948 2.545 9.754-2.403 14.42 7.2-4.1 6.644-9.047 2.403-14.42zm-35.34 6.503c.565 2.686-1 4.1-2.97 5.513 2.686-1 4.524-2.403 2.97-5.513zm-15.69-13.29c-.565 2.686-.14 5.513 2.262 8.2-3.817-1.838-3.958-4.806-2.262-8.2zm6.22.706c-1.555 3.958-1.98 7.916-1.696 11.875-1.13-4.948-1-9.047 1.696-11.875zm8.905-1.27c-3.25 6.08-5.655 12.016-5.513 18.095-1.272-7.916 1.272-13.57 5.513-18.095zm1.273 11.874c1.838 4.382 3.534 8.765 9.613 9.2.283-3.1-1.272-6.22-3.25-9.33 3.25 2.545 5.796 5.513 5.1 11.592-7.634.283-10.602-4.524-11.45-11.45zm8.765-6.08c.848 3.675 1.98 7.2 5.372 10.46-5.372-3.534-5.513-6.927-5.372-10.46zm-7.634-20.78c-1 7.2-4.1 12.582-8.623 16.822 5.796-2.97 9.33-7.916 8.623-16.822zm-4.24-4.24c-.565 3.393-2.262 6.927-5.372 10.46-1.838 1.98-1.838 5.796 0 11.45-.283-4.382-.424-8.482 1.838-10.744 3.534-4.665 4.665-8.34 3.534-11.168zm4.947.142c1.555 5.513 2.686 11.3.424 17.67-1.414 4.1-1.414 8.34 1.98 13.288-4.524-4.1-4.806-8.34-3.25-12.864 2.12-5.937 1.98-12.016.848-18.095zm12.582 14.843c-.707 3.675-2.12 7.634-.283 11.733-.424-3.958 2.545-6.927 5.23-9.754-1.838 4.524-3.817 8.906-5.655 13.288-2.686-4.665-1.838-9.896.707-15.267zm-9.472-14.843c12.723 12.723 1.13 17.53-.14 30.1-2.686-11.168 10.037-15.4.14-30.1zm4.666-12.582c4.806 7.35 6.22 15.833 4.1 25.446 4.24-12.016 1.13-19.367-4.1-25.446zm22.477 1.697c4.1 4.948 6.503 10.037 6.644 14.985 1.13-5.655-1.838-10.602-6.644-14.985zm-2.827 1.13c1.838 7.492 4.806 13.57 9.754 15.974-5.655-1.272-8.482-7.492-9.754-15.974zm-.85 2.828c1.555 6.503 2.12 12.864-.14 19.367 4.806-6.503 3.393-12.864.14-19.367zm-11.733 1.98c2.12 3.393 3.393 6.786 3.817 10.178.848-3.675-.424-7.068-3.817-10.178zm-.284 11.026c3.393 5.372 5.372 11.168 6.08 16.964.848-7.068-1.272-12.864-6.08-16.964zm3.1-12.016c6.36 9.754 9.2 19.508 3.676 29.404 6.503-10.46 6.36-20.357-3.676-29.404z"/></svg>