<svg xmlns="http://www.w3.org/2000/svg" xmlns:xlink="http://www.w3.org/1999/xlink" width="1800" height="900" xmlns:v="https://vecta.io/nano"><path d="M0 0h1800v900H0z" fill="#002664"/><path d="M1550 450c0 110.457-89.543 200-200 200s-200-89.543-200-200 89.543-200 200-200 200 89.543 200 200z" fill="#fed100"/><path d="M0 0h900v450H0z" fill="#002664"/><g transform="matrix(.6 0 0 .599999 .000007 .00045)" id="A"><path id="B" d="M167.705 0L625 228.647V0h50l75 325L0 300v-50h332.295L0 83.853V0z" fill="#fff"/><use transform="matrix(-1 0 0 1 1500 0)" width="1000" height="500" xlink:href="#B"/><path d="M0 0l500 250H388.197L0 55.902V0zm1500 0l-500 250H888.197l500-250H1500z" fill="#ed2939"/></g><use transform="matrix(-1 0 0 -1 900.00001 450.00045)" width="1000" height="500" xlink:href="#A"/><path d="M405 0h90v180h405v90H495v180h-90V270H0v-90h405V0z" fill="#ed2939"/><g stroke="#000"><path d="M1372.946 356.247c-1.523 2.972-7.206 12.19-8.414 13.66-4.823 5.905-6.02 7.13-8.76 10.826-1.505 2.02-4.715 6.24-6.695 9.835-4.33 7.875-4.33 10.738-4.33 10.738l-6.692 3.84c-.59.245-3.325 2.002-7.09 4.718-4.92 3.54-2.755 1.782-8.074 6.307-4.56 3.896-8.536 11.04-11.02 14.364-2.954 3.938-5.23 9.902-5.712 14.76-.588 5.915.2 7.392.2 12.313 0 3.79-.984 7-3.153 7-1.67 0-2.163.2-3.346-4.13-.686-2.524-.725-1.936-1.176-7.875-.1-1.28-.59-5.22 1.176-12.215 2.205-8.76 4.753-12.114 9.16-18.9 4.427-6.77 19.98-25.31 22.148-35.25 2.138-9.874 3.738-20.087-3.252-30.716-5.747-8.733-16.166-9.975-18.406-10.234-2.803-.33-6.45-.88-12.145.686-3.21.89-5.38 1.575-9.215 4.036-5.184 3.318-7.68 7.137-9.254 10.927-1.477 3.546-2.313 6.384-1.477 9.065.563 1.813 1.477 2.167 1.477 2.167s-3.014 12.012-1.967 14.375c1.082 2.408 3.36 2.566 4.428 2.755 1.155.203.17-7.2 6.56-11.788 0 0 3.605-.353 7.224-1.442 1.536-.47 5.054-2.625 5.768-3.283 1.932-1.768 4.998-5.4 7.224-4.946 1.256.252 2.373.61 3.643 1.87 2.632 3.02 1.99 6.622 1.673 10.82-.2 2.674-2.488 8.624-12.302 19.01-11.812 12.502-16.243 16.727-24.318 27.157-5.83 7.543-7.934 10.61-13.485 20.878-1.834 3.395-6.793 17.325-4.92 29.04 2.842 17.756 11.382 26.173 16.5 30.71 5.13 4.543 17.857 9.968 17.857 9.968s5.806 3.31 16.733 4.9c17.72 2.56 20.044 1.736 27.895.612 7.616-1.082 25.063-4.844 30.97-6.815 1.267-.43 2.03 2.954 8.267 6.594 5.905 3.444 6.598 3.815 14.57 3.644 8.957-.2 10.507-1.306 14.47-2.562 2.044-.65 3.25-1.082 5.12-1.474.92-.196 3.245-.395 4.53-.788 1.928-.606-.238-1.428-1.284-1.575-3.937-.592-5.2-2.07-5.607-2.66 0 0-.69-.588.392-.885 0 0 2.426 0 8.662-1.967a69.94 69.94 0 0 0 9.649-3.84c5.63-2.755 11.232-6.5 13.482-8.17 2.66-1.97 5.414-3.938 11.322-8.86 5.918-4.94 7.186-7.483 8.662-9.552.984-1.4 1.403-3.115.294-2.56-.59.298-1.477.7-2.26 1.082 0 0-1.677.087-.693-1.278.235-.336 1.256-1.106 1.872-1.505 0 0 4.144-3.752 7.087-7.16 3.237-3.763 5.215-6.496 6.692-8.957 0 0 .7-1.477-1.18-.494-2.07 1.085-2.46 1.677-2.46 1.677s-1.477.196-.494-2.954c1.12-3.556 1.18-2.755 2.167-4.823.945-1.992 3.248-5.712 4.92-7.973 1.774-2.4 3.444-4.333 5.513-8.07 2.054-3.72.16-2.74-2.167-1.785-1.87.777-3.434 1.27-4.133 1.49-1.207.382-6.52 2.8-7.875 3.346-3.62 1.463-4.133 1.698-7.58 3.444-4.29 2.177-7.073 3.483-8.068 3.938-1.085.5-1.477 1.082-4.43 1.28-4.028.27-3.643.094-6.303.094-2.555 0-4.33.336-6.1 0-1.76-.332-2.968.406-.886-2.657 2.065-3.052 1.77-2.657 3.248-4.543.92-1.166 3.924-5.408 3.836-5.3-.5.567 4.333-5.992 4.04-6.682s-2.264 1.183-4.53 1.082c-1.38 0-3.248-.5-3.937-.592-.38-.053-.494-1.078 1.082-2.555 1.123-1.047.248-.276 2.66-2.167 1.463-1.14 2.863-2.576 3.84-3.546 1.967-1.967 2.656-2.56 4.823-5.317 3.224-4.102 4.428-5.915 4.428-5.915s1.393-1.925-.984-1.085c0 0-.392.298-4.035 2.17-1.687.86-4.455 1.337-6.006 1.376-1.536.024-1.106-.816-.094-1.575.994-.745.563-.763-.4-.788-1.56-.038-5.152.815-4.232-.592 1.046-1.607 4.1-2.23 3.346-2.653l-6.003.588s-1.28-.196-.787-1.477c.17-.44 2.548-2.482 2.852-3.15 0 0 2.66-3.542 4.925-6.8 0 0 5.02-4.827 1.477-4.627-1.477.098-4.53 2.853-6.993 3.738s-10.038 4.235-5.51-.686c0 0 .987-.886 1.77-2.07 0 0 3.346-4.225 4.035-5.404 0 0 .787-1.477-2.167-.2 0 0-4.858 2.198-5.708 1.775-.984-.493-.69-.01-.297-2.177.2-1.085 1.677-4.43 2.762-6.3 1.575-2.727 3.483-5.114 4.035-5.71.924-1.015 1.512-1.698-.69-1.183 0 0-4.48 3.003-7.58 4.04-2.362.784-3.542.886-5.02.984-1.222.08-4.627.196-4.627.196l-3.643.298c-1.673.13-.098-1.477 1.477-3.644 0 0 .567-1.124 2.264-3.83l6.3-10.633s1.992-2.608-.984-1.082c-.2.108-1.515 1.194-1.677 1.37-2.065 2.26-2.3 2.153-4.623 4.137 0 0-2.46 1.572-4.235 2.062 0 0-3.742 2.07-3.64.4.133-2.363.59-3.154.984-3.843.553-.973.392-.788 1.477-3.147 0 0 .787-2.363 1.376-5.614l.494-3.248s.392-3.752-1.575-.098c-1.957 3.616-4.256 6.1-6.3 7.676-1.145.88-1.77 1.383-5.806 2.86 0 0-3.374 1.65-5.712 2.065-1.67.298-.984-2.657-.494-4.925 0 0 .693-1.77 1.876-8.56 0 0 .392-3.346-1.677-.79 0 0-1.046 2.6-3.052 5.415-2.422 3.42-3.937 4.73-4.823 5.814 0 0-2.755 3.836-3.738 5.905-.175.343-.693-.094-.984.094-.815.53-.987-8.56-.987-8.56s-.5-1.085-1.38-.098c0 0-.987 1.77-1.572 3.15 0 0-1.085 3.157-1.876 3.75-.784.592-1.67-9.56-1.477-12.313 0 0-.294-2.856-1.13-1.246z" stroke-width="3.15"/><path d="M1296.804 356.25c.248.448-1.56 3.78-3.836 5.583-2.78 2.205-6.006 3.084-7.088 1.9-.935-1.012 1.87-5.215 4.07-6.405 3.1-1.67 6.485-1.733 6.853-1.078z" fill="#fed100" stroke-width="1.575"/></g><path d="M1288.243 359.008c.686.396 2.447 2.576 3.444 3.448.787.686.886.532.494-.392a32.96 32.96 0 0 1-1.575-5.121s-3.052 1.673-2.362 2.065"/></svg>