<svg xmlns="http://www.w3.org/2000/svg" xmlns:xlink="http://www.w3.org/1999/xlink" height="1152.179" width="1627.322" xmlns:v="https://vecta.io/nano"><style><![CDATA[.B{stroke:#000}.C{fill-rule:evenodd}.D{stroke-width:5.839}.E{fill:none}.F{fill:#e9cb53}.G{fill:#fff}.H{stroke-width:4.189}.I{fill:#191f11}.J{stroke:#010101}.K{stroke-width:.291}.L{fill:#fcef3c}.M{stroke-linejoin:bevel}.N{stroke-width:6}.O{fill:#e20909}.P{fill-opacity:.94}.Q{fill:#ae1f23}.R{fill:#0b070a}.S{stroke-width:3}.T{stroke-width:2.095}]]></style><defs><radialGradient id="A" gradientTransform="matrix(1.353218,0,0,1.348928,-591.2908,-405.0341)" cx="565.077" cy="446.195" fx="565.077" fy="446.195" r="300" gradientUnits="userSpaceOnUse"><stop offset="0" stop-color="#fff" stop-opacity=".314"/><stop offset=".19" stop-color="#fff" stop-opacity=".25"/><stop offset=".6" stop-color="#6b6b6b" stop-opacity=".125"/><stop offset="1" stop-opacity=".125"/></radialGradient><path id="B" d="M407.03 608.7c1.425-61.956 16.75-119.54 45.3-174.11 74.714-157.186 302.92-153.432 252.615 38.81-18.537 70.84-81.51 112.474-156.32 119.615 5.4-18.665 35.1-84.652 11.124-97.562-38.338 1.448-85.944 67.705-97.393 99.3-1.653 4.536-1.2 9.778-3.036 14.24"/><path id="C" d="M311.99 612.795c-1.425-61.956-16.75-119.54-45.3-174.11C191.987 281.5-36.22 285.255 14.086 477.498c18.537 70.84 81.51 112.474 156.32 119.615-5.4-18.665-35.1-84.652-11.124-97.562 38.338 1.448 85.944 67.705 97.393 99.3 1.653 4.536 1.2 9.778 3.036 14.24"/><path id="D" d="M355.094 12.543c-78.714 84.85-131.565 182.962-108.78 298.03 12.57 63.484 43.042 122.28 64.53 183.438 13.436 38.37 16.872 78.452 15.28 118.78h66.78c-3.197-40.626 3.807-79.998 15.28-118.78 20.474-61.538 51.626-119.906 64.53-183.438 24.128-118.78-32.507-208.36-108.437-297.656L359.64 7l-4.547 5.543z"/><path id="E" d="M292.813 659.824c-13.962 39.13-70.888 110.792-101.125 131.22-7.842 5.298 37.486-3.052 57.78-7.5 26.62-5.835 61.217-34.198 60.406-24.187-.076 45.838 12.81 122.324 46.406 157.47l3.182 3.388 3.287-3.388c33.578-39.17 46.238-108.042 46.406-157.47-.81-10 33.787 18.353 60.406 24.188 20.295 4.448 65.623 12.798 57.78 7.5-30.237-20.427-87.132-92.09-101.094-131.22H292.813z"/><path id="F" d="M200.82 610.802h317.888v51.503H200.82z"/><path id="G" d="M343.883-131.545c43.2 3.116 45.787-50.913 46.047-51.172.79-.788-8.022 54.33 36.623 59.014 42.6 4.412 47.316-49.452 47.586-49.7.822-.756-10.2 53.95 31.85 60.035 41.745 7.927 48.996-47.435 49.28-47.675.853-.72-12.454 53.493 30.97 61.56 41.127 8.994 52.044-43.963 52.353-44.306l-21.147 79.14c.317.022-142.452-41.386-311.886-41.386-167.536 0-317.9 41.734-317.602 41.885l-20.5-79.768.08-.46c.296.215 11.213 53.172 52.34 44.178 43.422-8.065 30.115-62.28 30.97-61.56.284.24 7.535 55.602 49.28 47.675 42.05-6.087 31.03-60.79 31.85-60.035.27.248 4.986 54.112 47.586 49.7 44.645-4.682 35.83-59.802 36.623-59.014.26.26 2.847 54.288 46.047 51.172 45.344-.52 42.263-56.26 42.97-55.396.232.284-2.768 54.297 38.56 55.984"/><path id="H" d="M1.543 1.05s139.535-39.703 298.56-39.703C460.93-38.652 599.588.628 599.25.657c4.44-3.474 4.44-3.474 3.422-9.502-.062.342-140.396-39.408-303.108-39.408C138.674-48.253-2.494-8.2-2.362-8.45c-.824 6.11-.874 5.997 3.904 9.5z"/><path id="I" d="M-9.91-55.903s145.37-41.45 311.267-41.45c167.777 0 312.62 41.008 312.267 41.04 4.63-3.627 4.63-3.627 3.57-9.92-.064.358-146.657-41.143-316.4-41.143-167.84 0-314.914 41.827-314.776 41.555-.86 6.38-.91 6.26 4.073 9.92z"/><path id="J" d="M296.844-97.344C131.135-97.344-9.524-56-9.844-55.906l7.156 46.97 1.75.125C6.58-10.774 143.364-48.25 299.567-48.25c154.45 0 288.042 35.75 301.745 39.094l1.406-.25L613.53-56.25l-.187-.125c-2.73-.87-150.475-40.97-316.5-40.97z"/><path id="K" d="M301.344-97.344c-29.155 0-40.434.022-67.643 2.132-2.513.73-11.747 4.788-10.187 25.063 1.802 23.425 13.53 23.438 13.53 23.438l.594.25c25.435-1.894 34.783-1.788 61.924-1.788 22.77 0 39.988.787 61.56 2.125l2.28-1.125c0 0 10.787.054 11.688-24.272S363.403-95 363.403-95l-.78-.28c-21.5-1.293-38.632-2.062-61.278-2.062z"/><path id="L" d="M300.988-92.155c-26.096 0-36.192.017-60.546 1.667-2.25.57-10.515 3.743-9.12 19.594 1.613 18.313 12.112 18.323 12.112 18.323l.53.195c22.767-1.48 31.133-1.398 55.427-1.398 20.382 0 35.793.615 55.1 1.66l2.042-.88c0 0 9.655.042 10.46-18.976s-10.46-18.355-10.46-18.355l-.7-.22c-19.253-1.01-34.58-1.612-54.85-1.612z"/><path id="M" d="M47.375-69.844C11.66-62.2-9.72-55.943-9.844-55.906l7.156 46.97.594.03c21.08-5.922 37.364-9.716 57.78-14.125l1.844-1.656c0 0 10.16-2.798 4.563-25.906-3.983-16.445-10.997-19.09-14.72-19.25z"/><path id="N" d="M41.375-63.656c-1.044.055-1.687.28-1.687.28h-.72C21.883-59.515 8.024-56.23-9.156-51.47l5.688 37.344c18.71-5.252 33.212-8.717 51.344-12.78l1.688-1.375c0 0 9.092-2.5 4.813-20.594-3.21-13.57-9.87-14.948-13-14.78z"/><path id="O" d="M555.094-69.844c-3.764.238-10.61 3.032-14.53 19.22-5.596 23.108 4.563 25.906 4.563 25.906l1.844 1.656c19.753 4.265 35.68 7.964 55.78 13.563l7.875-34.22 1.875-12.22c-.12-.035-19.94-5.817-53.062-13.03l-4.344-.875z"/><path id="P" d="M560.656-63.687c-3.323.064-9.366 2.06-12.375 14.78-4.28 18.093 4.813 20.594 4.813 20.594l1.688 1.375c17.408 3.902 31.503 7.28 49.156 12.188l6.656-28.812 1.22-7.937c-17.18-4.762-31.04-8.047-48.125-11.906h-.72s-.644-.226-1.687-.28c-.196-.01-.403-.004-.625 0z"/><path id="Q" d="M157.992-61.158c0 8.444-6.845 15.3-15.3 15.3s-15.3-6.845-15.3-15.3 6.845-15.3 15.3-15.3 15.3 6.845 15.3 15.3z"/><path id="R" d="M1.003-158.695c0 19.287-15.625 34.922-34.9 34.922s-34.9-15.635-34.9-34.922 15.625-34.922 34.9-34.922 34.9 15.635 34.9 34.922z"/><path id="S" d="M-610.77-170.76c.018 3.787-30.443 6.855-68.036 6.857s-68.087-3.064-68.107-6.85c-.018-3.79 30.443-6.86 68.036-6.863s68.09 3.064 68.107 6.85z"/><path id="T" d="M-608.234-180.864c-16.75-6.67-42.37-11-71.374-11-28.4 0-53.51 4.16-70.282 10.593"/><path id="U" d="M596.408 996.376c6.212 0 11.595 2.36 16.148 7.077s6.83 10.607 6.83 17.666c0 7.27-2.294 13.307-6.883 18.107s-10.142 7.2-16.66 7.2c-6.59 0-12.125-2.34-16.607-7.024s-6.724-10.742-6.724-18.178c0-7.6 2.588-13.8 7.765-18.602 4.495-4.165 9.87-6.248 16.13-6.248h0z"/><path id="V" d="M-149.984 71.374c-.164-12.663 14.8-21.05 14.8-22.202-1.48-9.026-22.86 12.5-24.01 15.294-1.322 4.08 1.645 9.045 1.645 9.045"/><path id="W" d="M-145.873 54.764c-4.44 3.618-8.058 15.46-8.058 15.46"/><path id="X" d="M-156.89 71.2c-1.81-12.17 7.4-22.695 6.743-23.024-5.66-2.83-12.992 12.17-15.13 17.103l2.796 16.775"/><path id="Y" d="M-159.85 61.178c-2.302 5.92.164 13.98.164 13.98"/><path id="Z" d="M-161.66 77.623c-2.96-2.96-.164-24.175-.987-24.175-6.25 0-9.538 20.393-8.223 24.668 4.268 13.87 7.73 16.28 7.73 16.28"/><path id="a" d="M-167.252 70.387c-.493 6.25 4.44 13.98 4.44 13.98"/><path id="b" d="M-163.14 93.247c-7.894-7.4-9.263-27.258-10.36-29.273-8.446 1.645-4.11 22.695-4.11 22.695.164 1.645 11.183 14.8 11.183 14.8"/><path id="c" d="M-174.488 77.13c-2.796 5.592 9.867 22.202 9.867 22.202"/><path id="d" d="M-153.273 140.28s-2.138-28.615 1.48-32.89l-10.7-15.788-13.814 27.464 12.5 22.86 10.525-1.645z"/><path id="e" d="M-162.318 111.172c-1.316 3.782 2.302 7.565 2.302 7.565"/><path id="f" d="M-165.114 113.3c-1.316 3.782 4.77 10.032 4.77 10.032"/><path id="g" d="M-166.265 119.724c-1.316 3.782 5.427 6.907 5.427 6.907"/><path id="h" d="M-163.305 129.263c.33 2.796 5.263 2.138 5.263 2.138"/><path id="i" d="M-289.822 72.953c-4.07 7.908-9.264 20.946-3.605 26.746 1.86.58 6.825-18.577 10.7-20.35l3.14-10.698"/><path id="j" d="M-283.515 72.035c2.134 0-4.27 4.276-6.578 10.196"/><path id="k" d="M-281.798 73.534c-3.14 14.77-.233 17.908 1.047 18.025 1.86-.93 5.117-14.42 8.838-15.234"/><path id="l" d="M-297.73 5.157c-13.024-12.2-14.77-26.165-16.164-26.28-6.146-.512 2.093 24.77 2.093 24.77l15.583 12.443"/><path id="m" d="M-299.795 8.226s-6.25-4.77-9.538-11.183"/><path id="n" d="M-297.73 13.995c-19.304-10.7-21.63-28.142-23.258-27.56-5.944 2.347 1.628 18.374 1.628 18.374 1.047 4.42 16.397 18.257 16.397 18.257"/><path id="o" d="M-301.44 19.08s-8.223-6.085-14.8-16.117"/><path id="p" d="M-303.66 21.786C-326.8 8.994-327.266-5.658-329.825-4.728c-5.495 14.896 14.652 28.956 28.84 39.538"/><path id="q" d="M-302.426 28.125S-312.95 24.342-319.53 14.3"/><path id="r" d="M-301.45 34.462c-20.118-6.396-29.83-25.145-32.328-24.188-5.814 2.21 6.396 17.908 6.396 17.908 9.884 9.187 26.165 15.93 26.165 15.93"/><path id="s" d="M-300.946 37.334s-13.98-2.63-21.544-10.36"/><path id="t" d="M-301.334 42.95c-32.212-10.35-33.49-20.467-36.514-19.653-5.736 4.362 12.675 18.84 12.675 18.84 2.326 3.49 25.816 9.884 25.816 9.884"/><path id="u" d="M-299.822 51.905c-30.816-6.512-35.352-15.583-37.794-15-3.85 5.236 14.77 16.63 14.77 16.63 11.513 6.628 27.095 7.56 27.095 7.56"/><path id="v" d="M-300.752 72.14c-8.605 7.908-13.49 22.67-9.07 23.606 2.442.116 9.07-17.21 18.722-19.653l6.163-5.35"/><path id="w" d="M-288.447 69.897c2.134 0-11.178 4.11-13.485 10.032"/><path id="x" d="M-305.288 64.93c-12.56 9.42-16.578 20.56-14.77 21.164 2.79.93 13.958-10.68 18.025-11.396 1.977-.35 13.722-6.628 13.722-6.628"/><path id="y" d="M-297.657 66.114c2.134 0-8.71 3.783-11.02 9.703"/><path id="z" d="M-296.334 60.86c-13.722 1.628-37.794-13.024-38.26-11.745-5.974 7 19.885 18.722 25.583 18.14l20.234 1.28"/><path id="AA" d="M-253.254 62.496s0-7.73-3.782-8.058c0 0-8.552-.658-18.1.987-21.816-13.025-4.726-29.754-7.73-35.523C-283.843 11.02-298.48-2.3-298.48-2.3c-1.48 1.316.298 9.605-.822 9.045-2.96-1.48-1.135 5.036-1.973 6.743-2.796-.987-2.653 3.245-1.973 6.414-2.302.33-1.48 4.276-.987 7.072-4.515-2.482 1.367 7.04-.164 6.743-6.907-.987.987 6.578.987 6.578-3.947 1.48-2.103 4.415.658 5.592-3.454 2.467.083 6.405 1.316 6.578-3.125 1.645.352 4.022 2.138 5.756-2.796 2.63 2.302 3.755 4.77 4.77-1.973 3.125.348 3.8 2.467 4.77-1.316 2.467 1.922 2.283 3.947 1.973-2.467 2.63 1.645 3.782 3.29 3.454 0 0 .876 3.413 3.782 2.138-.822 2.63 5.098 2.302 5.098 2.302 0 2.63 8.716 1.645 8.716 1.645"/><path id="AB" d="M-287.264 15.855s.42 3.185 1.977 7.56c-2.442 2.442-2.907 6.163-2.907 6.163"/><path id="AC" d="M-295.7 17.828s1.81 4.77 3.947 4.77"/><path id="AD" d="M-304.235 33.387s3.29 5.263 5.427 5.263"/><path id="AE" d="M-303.577 40.46s3.454 2.96 5.592 2.96"/><path id="AF" d="M-301.933 52.135s5.098 2.467 7.236 2.467"/><path id="AG" d="M-292.147 67.264s4.128-1.135 6.73-.204"/><path id="AH" d="M-285.286 73.078s4.012-.553 6.847-1.716"/><path id="AI" d="M-298.713 28.76s2.274 3.14 4.412 3.14"/><path id="AJ" d="M-277.498 65.828s-.816-7.172-2.45-8.095"/><path id="AK" d="M-270.405 67.572c-1.744-6.047-4.072-8.8-5.705-9.374"/><path id="AL" d="M-263.544 67.223c-1.744-6.047-6.397-8.335-8.03-8.91"/><path id="AM" d="M-261.098 75.51c-6.28 2.326-9.187 8.024-9.187 8.024"/><path id="AN" d="M392.56 379.473s-.95 16.98 2.3 19.87c0 0 3.698 3.295 7.36 2.6 3.335-.624 2.293-5.377 2.293-5.377-1.323-6.556-11.964-17.102-11.964-17.102z"/><path id="AO" d="M359.024 506.228c-3.1 0-5.834 9.36-3.797 13.21 0 0 2.302 4.385 5.97 5.033 3.34.6 4.04-4.226 4.04-4.226 1.07-6.602-.003-14.018-6.213-14.018z"/><path id="AP" d="M-72.658 136.596c-.74 0-1.393 2.234-.906 3.154 0 0 .55 1.047 1.425 1.202.798.14.964-1.01.964-1.01.255-1.576-.001-3.346-1.483-3.346z"/></defs><path d="M0-7.44h1640.79v1174.7H0z" class="C G"/><g class="L B C P"><g transform="matrix(-4.189164 0 0 4.189164 1638.789 -66.9124)"><path d="M70.47 190.554l-.465 27.21c11.513 11.28 12.878 15.412 16.28 19.07 4.42-6.396 11.28-3.838 11.28-3.838 1.395-6.047 8.722-11.28 8.722-11.28-10.233-.814-27.91-6.047-29.305-8.14-4.634-6.952 1.744-28.025 1.744-28.025l-8.256 5z"/><path d="M95.714 231.72l-11.347-8.716 13.485 8.058" stroke-width=".5"/></g><path d="M1308.386 679.134s-59.56-24.315-120.6 18.516c-5.83 1.706-10.095 1.206-14.73.398-11.803-12.652-38.566-49.847-59.234-45.024-1.523-31.428 2.067-157.077 2.067-157.077 8.956-.344 12.056 17.223 12.056 17.223-5.167 35.825 15.5 253.528 100.24 109.54l59.937 6.2 20.264 50.223z" class="H"/></g><g transform="matrix(-4.189164 0 0 4.189164 1385.0934 -19.4249)" class="B"><path d="M10.525 46.54c12.2 4.42 12.363 6.754 24.456 17.452 9.652 3.838 24.027 13.25 24.84 15.343l-.782 3.057c1.86 1.163 3.618-3.125 3.618-3.125C60.797 68.686 26.81 36.8 26.81 36.8l-14.97 3.153-1.316 6.578z" class="C L"/><path d="M22.005 41.805l38.26 35.12.814 2.558m-30.7-24.653c3.838 6.745 10.93 9.187 10.93 9.187" stroke-width=".5" class="E"/></g><g class="L B C"><g class="P"><path d="M282.124 731.348l-1.95 113.993c48.228 47.254 53.948 64.562 68.2 79.893 18.512-26.793 47.254-16.076 47.254-16.076 5.846-25.332 36.536-47.254 36.536-47.254-42.87-3.4-116.916-25.332-122.762-34.1C289.99 798.682 316.71 710.4 316.71 710.4l-34.588 20.947z" class="H"/><path d="M387.87 903.796l-47.536-36.514 56.493 33.758" class="T"/></g><g class="H"><path d="M317.314 679.134s59.56-24.315 120.6 18.516c5.83 1.706 10.096 1.206 14.73.398 11.803-12.652 38.566-49.847 59.234-45.024 1.523-31.428-2.067-157.077-2.067-157.077-8.956-.344-12.056 17.223-12.056 17.223 5.167 35.825-15.5 253.528-100.24 109.54l-59.937 6.2-20.264 50.223z" class="P"/><path d="M284.697 175.543c51.15 18.512 51.79 28.294 102.45 73.11C427.58 264.73 487.8 304.158 491.2 312.927l-3.277 12.804c7.794 4.87 15.157-13.1 15.157-13.1-7.794-44.33-150.167-177.863-150.167-177.863l-62.713 13.208-5.51 27.557z"/></g></g><path d="M332.787 155.704l160.272 147.12 3.4 10.717M367.862 210.265c16.076 28.255 45.792 38.485 45.792 38.485" class="E T B"/><g class="C"><path d="M812.85 978.038s298.5-112.32 298.5-397.772V321.715h-597v258.552c0 285.452 298.5 397.772 298.5 397.772z" fill="#2b5df2"/><path d="M514.35 532.07v48.188c0 30.922 3.503 59.814 9.75 86.75h577.5c6.247-26.936 9.75-55.828 9.75-86.75V532.07h-597z" class="B O S"/></g><g transform="matrix(.189129 0 0 .189129 538.89707 334.27035)" class="B L N"><use xlink:href="#B" class="C"/><use xlink:href="#C" class="C"/><use xlink:href="#D"/><use xlink:href="#E" class="C"/><use xlink:href="#F"/></g><g transform="matrix(.189129 0 0 .189129 744.8558 334.27035)" class="B L N"><use xlink:href="#B" class="C"/><use xlink:href="#C" class="C"/><use xlink:href="#D"/><use xlink:href="#E" class="C"/><use xlink:href="#F"/></g><g transform="matrix(.189129 0 0 .189129 950.8145 334.27035)" class="B L N"><use xlink:href="#B" class="C"/><use xlink:href="#C" class="C"/><use xlink:href="#D"/><use xlink:href="#E" class="C"/><use xlink:href="#F"/></g><g class="B"><path d="M756.385 623.738l54.45-22.183-22.183 54.45 24.2-16.133 24.2 16.133-22.183-54.45 54.45 22.183-16.133-24.2 16.133-24.2-54.45 22.183 22.183-54.45-24.2 16.133-24.2-16.133 22.183 54.45-54.45-22.183 16.133 24.2-16.133 24.2z" class="G S"/><g class="L D"><g transform="matrix(.286187 0 0 .281082 594.84646 761.0508)"><g class="C"><use xlink:href="#G"/><use xlink:href="#H"/><use xlink:href="#I"/><use xlink:href="#J"/><use xlink:href="#K"/><use xlink:href="#L"/><use xlink:href="#M"/><use xlink:href="#N"/><use xlink:href="#O"/><use xlink:href="#P"/></g><use xlink:href="#Q"/><use xlink:href="#Q" x="315.985"/><use xlink:href="#R"/><use xlink:href="#R" x="80.539" y="-21.49"/><use xlink:href="#R" x="163.762" y="-34.922"/><use xlink:href="#R" x="249.67" y="-45.667"/><use xlink:href="#R" x="338.263" y="-50.462"/><use xlink:href="#R" x="424.172" y="-45.667"/><use xlink:href="#R" x="510.08" y="-34.922"/><use xlink:href="#R" x="593.304" y="-21.49"/><use xlink:href="#R" x="676.527"/></g><g transform="matrix(.286187 0 0 .281082 856.6429 761.0508)"><g class="C"><use xlink:href="#G"/><use xlink:href="#H"/><use xlink:href="#I"/><use xlink:href="#J"/><use xlink:href="#K"/><use xlink:href="#L"/><use xlink:href="#M"/><use xlink:href="#N"/><use xlink:href="#O"/><use xlink:href="#P"/></g><use xlink:href="#Q"/><use xlink:href="#Q" x="315.985"/><use xlink:href="#R"/><use xlink:href="#R" x="80.539" y="-21.49"/><use xlink:href="#R" x="163.762" y="-34.922"/><use xlink:href="#R" x="249.67" y="-45.667"/><use xlink:href="#R" x="338.263" y="-50.462"/><use xlink:href="#R" x="424.172" y="-45.667"/><use xlink:href="#R" x="510.08" y="-34.922"/><use xlink:href="#R" x="593.304" y="-21.49"/><use xlink:href="#R" x="676.527"/></g><g transform="matrix(.286187 0 0 .281082 725.7447 898.3566)"><g class="C"><use xlink:href="#G"/><use xlink:href="#H"/><use xlink:href="#I"/><use xlink:href="#J"/><use xlink:href="#K"/><use xlink:href="#L"/><use xlink:href="#M"/><use xlink:href="#N"/><use xlink:href="#O"/><use xlink:href="#P"/></g><use xlink:href="#Q"/><use xlink:href="#Q" x="315.985"/><use xlink:href="#R"/><use xlink:href="#R" x="80.539" y="-21.49"/><use xlink:href="#R" x="163.762" y="-34.922"/><use xlink:href="#R" x="249.67" y="-45.667"/><use xlink:href="#R" x="338.263" y="-50.462"/><use xlink:href="#R" x="424.172" y="-45.667"/><use xlink:href="#R" x="510.08" y="-34.922"/><use xlink:href="#R" x="593.304" y="-21.49"/><use xlink:href="#R" x="676.527"/></g></g></g><g transform="matrix(3.501804 0 0 3.501804 3191.703 872.4715)"><g class="J K"><use xlink:href="#S" fill="#eabe4e"/><path d="M-677.983-182.865c-41.044 0-74.345 5.41-74.345 12.094s33.3 12.124 74.345 12.124 74.345-5.44 74.345-12.124-33.303-12.094-74.345-12.094zm0 5.252c37.575 0 68.063 3.06 68.063 6.843s-30.487 6.875-68.063 6.875-68.063-3.092-68.063-6.875 30.487-6.843 68.063-6.843z" fill="#c7af67"/></g><path d="M-713.857-177.77l-5.28.344.25 11.624 7 .47-1.97-12.438zm28.717-.688l-8.094.156-8.562 13.22 16.656.344c10.127 0 19.548-.3 28.187-.7l.375-12.345c-8.747-.4-18.27-.686-28.562-.686zm34.062 1.03l1.7 11.5 6.906-.468-4.47-10.75-4.126-.28z" fill="#faf399"/><g class="J K"><use xlink:href="#S" class="E"/><path d="M-679.014-204.083c-30.326 0-57.028 4.712-73.688 11.905l4.5 16.782h1.53c11.154-4.4 37.687-7.468 68.69-7.468 30.895 0 57.312 3.072 68.53 7.438l4.47-16.626c-16.627-7.272-43.514-12.03-74.032-12.03z" class="F M"/><path d="M-746.4-194.64l.875 3.26m1.067 3.562l1.108 4.133m1.208 4.365l.606 2.258m1.07-15.52l.865 3.23m1.324 4.623l1.083 4.046m3.8-16.662l.63 2.357m.785 3.694l1.172 4.374m1.018 4.638l.535 1.997m3.583-15.772l.644 3.22m1.03 4.633l.772 4.378m4.248-17.123l.514 3.347m.773 3.605l.644 4.506m.902 4.762l.257 2.576m9.787-20.34l.257 3.345m.256 3.606l.514 4.763m.387 4.764l.257 2.96m-7.338-15.448l.516 3.734m.514 4.893l.514 4.12m17.896-17.38v2.96m-.257 3.863v4.763m.387 4.635v3.605m-5.023-7.983v4.508m0-12.875v3.605" class="E"/></g><path d="M344.353 976l.875 3.26m1.057 3.56l1.108 4.133m1.21 4.365l.606 2.258m1.068-15.52l.865 3.23m1.324 4.624l1.083 4.046m3.8-16.663l.63 2.357m.786 3.694l1.172 4.374m1.017 4.638l.535 1.997m3.584-15.773l.644 3.22m1.03 4.634l.772 4.378m4.25-17.122l.514 3.347m.774 3.603l.644 4.506m.89 4.764l.257 2.576m9.795-20.34l.257 3.345m.257 3.606l.514 4.763m.388 4.764l.257 2.96m-7.34-15.448l.514 3.734m.517 4.893l.514 4.12m17.896-17.382v2.96m-.257 3.864v4.763m.386 4.635v3.605m-5.022-7.983v4.508m0-12.875v3.605" transform="matrix(-1 0 0 1 -268.3986 -1170.639)" class="E J K"/><g class="J K"><path d="M-680.085-203.526v3.1m.127 3.854v4.893m0 4.633v3.605m-5.407-8.24v4.504m.13-13.13v4m9.783-4v3.475m0 5.28v4.376" class="E"/><g class="F"><path d="M-679.014-229.818c-30.326 0-57.028 4.712-73.688 11.905l4.5 16.784h1.53c11.154-4.4 37.687-7.47 68.69-7.47 30.895 0 57.312 3.072 68.53 7.438l4.47-16.626c-16.627-7.27-43.514-12.03-74.032-12.03z" class="M"/><path d="M-741.208-227.13l1.143 5.47c.296 1.416 1.737 2.276 3.218 1.952s2.452-1.715 2.157-3.13l-1.143-5.468-5.375 1.175z"/></g><g class="M"><path d="M-741.222-227.187l2.116-3.33 3.264 2.167-5.38 1.164z" class="Q"/><path d="M-737.288-224.486c.27 1.28.245 2.373-.05 2.438s-.75-.923-1.02-2.205-.245-2.373.05-2.438.752.92 1.02 2.205z" class="R"/></g><path d="M-663.133-233.927v5.72c0 1.478 1.21 2.657 2.687 2.657s2.687-1.18 2.687-2.657v-5.72h-5.374z" class="F"/><g class="M"><path d="M-663.133-233.988l2.687-2.868 2.69 2.882-5.376-.014z" class="Q"/><path d="M-659.912-230.425c0 1.34-.24 2.428-.535 2.428s-.535-1.087-.535-2.428.24-2.428.535-2.428.535 1.087.535 2.428z" class="R"/></g><path d="M-616.982-227.13l-1.143 5.47c-.296 1.416-1.74 2.276-3.218 1.952s-2.452-1.715-2.157-3.13l.21-1.017.932-4.45 5.375 1.175z" class="F"/><g class="M"><path d="M-616.97-227.187l-2.114-3.33-3.264 2.167 5.378 1.164z" class="Q"/><path d="M-620.905-224.486c-.267 1.28-.245 2.373.05 2.438s.753-.923 1.02-2.205.245-2.373-.05-2.438-.753.92-1.02 2.205z" class="R"/><path d="M-678.92-208.613c-43.646 0-79.093 6.654-79.093 14.844 0 2.082 2.333 4.074 6.468 5.873l-1.156-4.28c16.66-7.193 43.363-11.905 73.688-11.905 30.518 0 57.405 4.76 74.03 12.03l-1.094 4.062c4.002-1.774 6.22-3.734 6.22-5.78 0-8.2-35.417-14.844-79.063-14.844z" fill="#c7af67"/><g class="E"><path d="M-605.567-188.265c-16.624-7.272-43.5-12.03-74.03-12.03-30.323 0-57.028 4.712-73.686 11.905m146.175 3.308c-16.715-6.924-42.855-11.438-72.5-11.438-29.038 0-54.65 4.348-71.406 11.03"/><use xlink:href="#T"/><path d="M-609.358-176.613c-16.768-6.42-41.89-10.563-70.25-10.563-27.768 0-52.393 3.965-69.156 10.156"/></g></g><path d="M-740.842-194.096c-3.046.796-5.223 3.532-5.58 6.478l1.35 11.03 2.16-.567-1.06-8.815c.172-2.36 1.555-4.482 3.51-4.994s3.718.784 4.433 2.916h.006l.142 1.187.923 7.626 2.264-.59-1.335-11.033-.026.008c-1.024-2.587-3.74-4.037-6.786-3.242z" class="F"/><path d="M-740.48-190.97c-1.954.512-3.31 2.622-3.48 4.986l-.018.004.142 1.185.942 7.78 7.95-2.082-1.084-8.963c-.713-2.13-2.5-3.422-4.453-2.9z" class="I"/><path d="M-746.05-185.63l2.18-.57m7.78-2.037l2.37-.62m-11.86 7.117l2.183-.57m7.777-2.037l2.37-.622m-9.544-4.236l-2.47-1.576m7.434.25l1.96-2.748m56.32-6.704c-3.056 0-5.496 2.16-6.2 5.002l.014 11.344h2.167v-9.064h.006c.446-2.3 2.04-4.062 4.002-4.062s3.524 1.754 3.967 4.062h.006v9.064h2.272v-11.344h-.028c-.7-2.844-3.163-5.002-6.217-5.002z" class="F"/><path d="M-679.567-196.77c-1.96 0-3.526 1.754-3.97 4.062h-.02v9.218h7.98v-9.218c-.444-2.3-2.03-4.062-4-4.062z" class="I"/><path d="M-685.612-192.903h2.2m7.802 0h2.38m-12.372 4h2.2m7.802 0h2.38m-8.785-6.71l-2.217-2.217m7.2 2.19l2.23-2.228" class="F"/><path d="M-746.4-220.262l.875 3.26m1.067 3.562l1.108 4.133m1.208 4.365l.606 2.258m1.07-15.518l.865 3.228m1.324 4.624l1.083 4.044m3.8-16.66l.63 2.357m.785 3.694l1.172 4.374m1.018 4.64l.535 1.995m3.583-15.772l.644 3.22m1.03 4.634l.772 4.378m4.248-17.124l.514 3.35m.773 3.604l.644 4.504m.902 4.764l.257 2.574m9.787-20.34l.257 3.345m.256 3.605l.514 4.765m.387 4.763l.257 2.963m-7.34-15.45l.516 3.734m.515 4.89l.514 4.12m17.896-17.38v2.96m-.257 3.864v4.765m.387 4.633v3.605m-5.023-7.983v4.508m0-12.876v3.605" class="E"/></g><path d="M344.353 975.998l.875 3.26m1.057 3.562l1.108 4.133m1.21 4.365l.606 2.258m1.068-15.518l.865 3.228m1.324 4.624l1.083 4.044m3.8-16.66l.63 2.357m.786 3.694l1.172 4.374m1.017 4.64l.535 1.995m3.584-15.772l.644 3.22m1.03 4.634l.772 4.378m4.25-17.124l.514 3.35m.774 3.604l.644 4.504m.89 4.764l.257 2.574m9.795-20.34l.257 3.345m.257 3.605l.514 4.765m.388 4.763l.257 2.963m-7.34-15.45l.514 3.734m.517 4.89l.514 4.12m17.896-17.38v2.96m-.257 3.864v4.765m.386 4.633v3.605m-5.022-7.983v4.508m0-12.876v3.605" transform="matrix(-1 0 0 1 -268.3986 -1196.26)" class="E J K"/><g class="J K"><g class="E"><path d="M-680.085-229.146v3.088m.127 3.864v4.893m0 4.633v3.605m-5.407-8.237v4.506m.13-13.134v4m9.783-4v3.477m0 5.28v4.376"/><g class="M"><path d="M-605.567-214.014c-16.624-7.272-43.5-12.03-74.03-12.03-30.323 0-57.028 4.712-73.686 11.907m146.175 3.304c-16.715-6.922-42.855-11.438-72.5-11.438-29.038 0-54.65 4.35-71.406 11.033"/><use xlink:href="#T" y="-25.749"/><path d="M-609.358-202.364c-16.768-6.415-41.89-10.563-70.25-10.563-27.768 0-52.393 3.97-69.156 10.158"/></g></g><path d="M-632.362-244.297l1.958 4.247-1.34-.186-2.608 23.7-.032-.004c-.05.3 1.087 9.028 3.343 11.045l-.04.36-28.776-4.002.036-.332c2.647-1.322 5.652-9.526 5.668-9.822l-.032-.004 2.604-23.67-1.278-.178 2.835-3.613 1.96 4.25-1.343-.186-.348 3.13 3.77.524.346-3.1-1.3-.182 2.835-3.613 1.958 4.25-1.34-.186-.348 3.13 3.77.522.344-3.1-1.34-.186 2.867-3.607 1.958 4.247-1.3-.182-.348 3.133 3.77.522.346-3.1-1.405-.196 2.837-3.613z" class="F"/><path d="M-642.753-233.072c.733.103 1.23.976 1.282 2.04h.006l-.06.55-.403 3.6-2.985-.415.464-4.16c.28-1.02.962-1.727 1.697-1.626zm5.02.698c.733.103 1.23.974 1.282 2.04l.006.002-.06.55-.403 3.6-2.985-.415.464-4.16c.282-1.02.964-1.727 1.697-1.626zm-10.04-1.396c.733.1 1.23.974 1.28 2.04l.008.002-.06.55-.403 3.6-2.985-.417.462-4.16c.283-1.018.964-1.725 1.7-1.624z" class="I"/><path d="M-632.563-233.7l-19.8-2.752m19.458 6.52l-19.8-2.752m19.358 6.713l-19.8-2.754m19.225 6.55l-19.5-2.7m19.3 6.55l-19.724-2.744m19.796 7.564l-21-2.92m21.728 5.966l-23.175-3.224m24.135 6.23l-25.874-3.6" class="E"/></g><g transform="matrix(-1.02204 -.142103 -.107347 .96351 -248.2609 -554.3254)" class="J K"><path d="M345.425 394.562c-3.055.001-5.495 2.157-6.188 5.002l.015 11.343h2.166l.001-9.063.006.001c.445-2.31 2.04-4.062 4-4.063s3.525 1.752 3.97 4.062l.004.001.001 1.22v7.844l2.27-.001v-11.34l-.028-.002c-.69-2.846-3.162-5-6.217-5.002z" class="F"/><path d="M345.41 397.776c-1.96-.001-3.524 1.75-3.97 4.06l-.02.001v1.217 8h7.977l.001-9.216c-.443-2.31-2.03-4.062-4-4.06z" class="I"/><path d="M339.363 401.643l2.2-.001m7.795-.002l2.378.002m-12.372 3.998h2.2m7.803.003l2.378-.002m-8.785-6.71l-2.218-2.22m7.203 2.195l2.23-2.23" class="F"/></g><g class="J K"><path d="M-637.37-234.287l-.417 3.746m-8.565 3.046l-.387 3.465m7.51-2.473l-.393 3.534m-11.034-1.46l-.43 3.9m-2.022 4.446l-.322 2.898m16.99-.724l-.34 3.042m1.568 3.016l-.213 1.908m-20.205-4.603l-.213 1.9m12.397-26.485l-.354 3.18m2.908-6.272l-.37 3.325m-6.92-4.194l-.332 2.97m14.072-1.202l-.354 3.18m2.753-2.848l-19.874-2.762" class="E"/><path d="M-687.96-248.93l-2.345 4.062h1.312l-.03 24.595h.03c.016.304-2.017 9.072-4.407 10.812v.375h28.156v-.344c-2.408-1.727-4.42-10.54-4.407-10.842h.032l.03-24.564h1.252l-2.345-4.093-2.343 4.062h1.312v3.25h-3.688v-3.22h1.282l-2.345-4.093-2.343 4.062h1.312v3.25h-3.688v-3.22h1.312l-2.375-4.093-2.343 4.062h1.282v3.25h-3.688v-3.22h1.375l-2.34-4.09z" class="F"/><path d="M-679.156-235.98c-.717 0-1.3.82-1.454 1.902h-.006v4.317h2.92v-4.317h.002c-.164-1.082-.743-1.902-1.462-1.902zm-4.91 0c-.72 0-1.292.82-1.454 1.902h-.008v4.317h2.922v-4.317c-.162-1.082-.743-1.902-1.46-1.902zm9.824 0c-.717 0-1.292.82-1.454 1.902h-.006v4.317h2.92v-4.317c-.162-1.082-.743-1.902-1.46-1.902z" class="I"/><path d="M-688.9-238.062h19.374m-19.446 3.888h19.372m-19.372 4.11h19.372m-19.224 3.96h19.078m-19.3 3.965h19.3m-19.887 4.915h20.546m-21.572 3.01h22.675m-23.923 2.935h25.315" class="E"/><path d="M-679.342-225.8c-3.056 0-5.496 2.157-6.19 5l.017 11.342h2.167v-9.06h.004c.446-2.31 2.04-4.062 4.002-4.062s3.524 1.752 3.967 4.062h.006v9.06h2.272V-220.8h-.028c-.692-2.845-3.162-5-6.218-5z" class="F"/><path d="M-679.358-222.598c-1.96 0-3.526 1.752-3.97 4.06h-.018v9.216h7.977l.002-9.216c-.446-2.3-2.032-4.06-3.992-4.06z" class="I"/><path d="M-685.403-218.732h2.2m7.803 0h2.377m-12.37 4h2.2m7.803 0h2.377m-8.784-6.71l-2.217-2.215m7.2 2.19l2.23-2.23" class="F"/><path d="M-684.213-238v3.9m7.927 4.32v3.595m-6.974-3.595v3.667m10.8.076v4.036m1.467 4.844v3.007m-16.292-3.155v3.155m-1.832 2.862v1.98m19.96-1.832v1.98m-9.1-28.84v3.303m-2.128-6.823v3.45m7.118-3.303v3.082m-13.43-3.23v3.303m-2.348-3.303h19.445" class="E"/><path d="M-726.28-244.295l-1.96 4.245 1.343-.186 2.608 23.7.032-.004c.05.292-1.087 9.028-3.343 11.045l.04.36 28.776-4.002-.036-.33c-2.647-1.322-5.652-9.528-5.668-9.824l.032-.004-2.604-23.67 1.278-.178-2.835-3.613-1.96 4.25 1.343-.186.348 3.13-3.77.524-.346-3.1 1.3-.182-2.835-3.613-1.96 4.25 1.343-.186.348 3.13-3.77.525-.346-3.102 1.343-.186-2.867-3.607-1.958 4.25 1.308-.182.35 3.13-3.77.522-.346-3.1 1.405-.196-2.837-3.612z" class="F"/><path d="M-715.9-233.07c-.733.1-1.23.974-1.282 2.04h-.006l.06.55.403 3.6 2.985-.413-.464-4.16c-.28-1.02-.964-1.73-1.697-1.626zm-5.02.698c-.733.1-1.23.972-1.282 2.037l-.006.002.464 4.16 2.985-.415-.464-4.16c-.28-1.02-.964-1.727-1.697-1.624zm10.04-1.398c-.733.1-1.23.974-1.282 2.04l-.006.002.464 4.16 2.985-.417-.464-4.16c-.28-1.018-.962-1.725-1.697-1.624z" class="I"/><path d="M-726.08-233.7l19.8-2.752m-19.457 6.52l19.8-2.752m-19.358 6.713l19.8-2.754m-19.225 6.55l19.5-2.712m-19.3 6.56l19.724-2.742m-19.797 7.562l21-2.92m-21.727 5.966l23.175-3.224m-24.135 6.23l25.874-3.6" class="E"/></g><g transform="matrix(1.02204 -.142103 .107347 .96351 -1081.36097 -554.3247)" class="J K"><path d="M317.462 390.44c-3.053-.001-5.493 2.158-6.186 5l.015 11.343h2.166l.001-9.063h.006c.445-2.31 2.04-4.062 4-4.064s3.525 1.754 3.968 4.064h.006l.001 1.22v7.844l2.27.001-.001-11.343h-.026c-.693-2.845-3.163-5.002-6.22-5z" class="F"/><path d="M317.448 393.65c-1.96.001-3.525 1.752-3.97 4.06l-.02.001v1.22 8h7.977l.001-9.218c-.443-2.3-2.03-4.062-4-4.06z" class="I"/><path d="M311.402 397.518l2.2-.001m7.793-.001l2.38.002m-12.373 4l2.2.001m7.802-.001h2.38M315 394.806l-2.218-2.22m7.192 2.194l2.23-2.23" class="F"/></g><g class="J K"><path d="M-721.272-234.287l.417 3.748m8.555 3.044l.387 3.467m-7.502-2.475l.393 3.536M-708-224.43l.433 3.888m2.022 4.458l.322 2.898m-16.987-.724l.338 3.042m-1.568 3.016l.213 1.9m20.204-4.593l.213 1.908m-12.396-26.495l.354 3.18m-2.908-6.27l.37 3.323m6.92-4.194l.33 2.97m-14.07-1.202l.354 3.18m-2.754-2.848l19.874-2.762" class="E"/><path d="M-701.18-233.927v5.72c0 1.478 1.21 2.657 2.69 2.657s2.687-1.18 2.687-2.657v-5.72h-5.376z" class="F"/><g class="M"><path d="M-701.18-233.988l2.69-2.868 2.687 2.882-5.376-.014z" class="Q"/><path d="M-697.957-230.095c0 1.34-.24 2.428-.535 2.428s-.537-1.087-.537-2.428.24-2.426.537-2.426.535 1.085.535 2.426z" class="R"/></g><path d="M-587.97-232.667l.024 4.285-1.07-.383-11.405 21.822-.026-.01c-.154.267-2.57 8.635-1.43 10.87l-.174.334-3.57-1.272-19.414-6.9.16-.306c2.768-.832 8.51-8.064 8.637-8.335l-.026-.01 11.393-21.796-1.02-.362 3.817-2.95.024 4.285-1.07-.38-1.51 2.882 3.01 1.07 1.497-2.855-1.045-.373 3.815-2.95.024 4.285-1.07-.383-1.51 2.882 3.01 1.073 1.497-2.855-1.07-.38 3.842-2.94.024 4.283-1.045-.373-1.51 2.882 3.01 1.073 1.497-2.855-1.122-.4 3.815-2.947z" class="F"/><path d="M-604.522-198.934l-.92 1.758" class="E"/><path d="M-601.18-223.74c.587.2.672 1.104.304 2.1h.004l-.263.504-1.742 3.325-2.386-.85 2.007-3.827c.637-.912 1.5-1.47 2.076-1.263zm4 1.427c.585.2.672 1.104.302 2.108l.006.004-.265.506-1.742 3.32-2.386-.846 2.007-3.83c.636-.912 1.5-1.47 2.078-1.262zm-8.03-2.853c.585.207.672 1.102.304 2.108l.004.002-.265.506-1.742 3.323-2.383-.85 2.007-3.83c.633-.913 1.5-1.472 2.075-1.26z" class="I"/><path d="M-593.998-219.282l-15.816-5.63m13.904 9.276l-15.814-5.63m13.854 9.1l-15.577-5.545m13.915 9.125l-15.755-5.6m13.95 10.14l-16.774-5.97m16.212 8.937l-18.5-6.6m18.164 9.564l-20.666-7.355" class="E"/></g><g transform="matrix(-.816361 -.290555 -.464839 .886936 -135.4651 -466.044)" class="J K"><path d="M349.502 397.92c-3.054 0-5.492 2.156-6.185 5l.014 11.345 2.167-.002.001-9.062.005-.001c.443-2.307 2.04-4.062 4-4.062s3.526 1.753 3.97 4.063l.005-.001-.002 9.064h2.272v-11.345h-.027c-.693-2.842-3.164-5-6.22-4.998z" class="F"/><path d="M349.49 401.13c-1.962-.001-3.527 1.75-3.97 4.06l-.018.001v1.217l-.001 8 7.977.001.001-8 .002-1.22c-.444-2.31-2.028-4.06-3.99-4.06z" class="I"/><path d="M343.443 404.997h2.188m7.804-.001l2.38.001m-12.373 4l2.2.001m7.795-.001l2.38.001m-8.787-6.712l-2.218-2.217m7.2 2.19l2.23-2.23" class="F"/></g><g class="J K"><path d="M-596.118-224.053l-1.808 3.45m-8.484 1.538l-1.67 3.2m7.363-1.175l-1.707 3.254m-8.84-3.07l-1.877 3.58m-3.45 3.868l-1.397 2.67m14.765 1.935l-1.466 2.8m-16.196-2.6l-.92 1.756m20.834-22.932l-1.535 2.928m4.91-5.435l-1.604 3.058m-4.275-4.996l-1.434 2.734m12.465 1.04l-1.535 2.928m3.452-2.248l-15.877-5.65m14.154 8.668l-15.816-5.63" class="E"/><path d="M-770.67-232.667l-.026 4.285 1.073-.383 11.405 21.822.026-.01c.154.267 2.57 8.635 1.428 10.87l.176.334 22.984-8.182-.16-.306c-2.768-.832-8.51-8.064-8.637-8.335l.024-.01-11.39-21.796 1.02-.362-3.817-2.95-.024 4.285 1.07-.38 1.51 2.882-3.01 1.07-1.497-2.855 1.045-.373-3.815-2.95-.026 4.285 1.07-.383 1.51 2.882-3.01 1.073-1.497-2.855 1.07-.38-3.842-2.94-.024 4.283 1.045-.373 1.51 2.882-3.01 1.073-1.497-2.855 1.122-.4-3.815-2.947z" class="F"/><path d="M-757.464-223.74c-.585.2-.672 1.104-.302 2.1h-.006l.265.504 1.742 3.325 2.386-.85-2.007-3.827c-.636-.912-1.5-1.47-2.078-1.263zm-4.01 1.427c-.585.2-.672 1.104-.302 2.108l-.006.004 2.007 3.827 2.386-.846-2.007-3.83c-.636-.912-1.5-1.47-2.078-1.262zm8.02-2.853c-.587.207-.672 1.102-.304 2.108l-.004.002 2.007 3.83 2.383-.85-2.007-3.83c-.635-.913-1.5-1.472-2.075-1.26z" class="I"/><path d="M-766.392-222.752l15.816-5.63m-14.068 9.102l15.816-5.63m-13.905 9.274l15.814-5.63m-13.853 9.1l15.577-5.545m-13.905 9.125l15.755-5.6m-13.96 10.14l16.774-5.97m-16.215 8.937l18.5-6.6m-18.163 9.565l20.668-7.355" class="E"/></g><g transform="matrix(.816361 -.290555 .464839 .886936 -1194.1567 -466.044)" class="J K"><path d="M319.542 388.105c-3.053 0-5.494 2.155-6.185 5l.014 11.345 2.167-.002.001-9.062.005-.001c.443-2.307 2.04-4.062 4-4.062s3.524 1.753 3.97 4.063l.005-.001-.002 9.064h2.272v-11.345h-.027c-.693-2.843-3.164-5-6.22-4.998z" class="F"/><path d="M319.527 391.315c-1.96 0-3.525 1.752-3.97 4.06h-.02l.001 1.217-.001 8 7.977.001.001-9.22.002.001c-.443-2.3-2.028-4.062-3.99-4.06z" class="I"/><path d="M313.483 395.182h2.188m7.804-.002h2.38m-12.373 4h2.188m7.805 0l2.38.001m-8.787-6.713l-2.216-2.217m7.2 2.193l2.23-2.23" class="F"/></g><g class="J K"><path d="M-762.524-224.053l1.808 3.45m8.483 1.538l1.67 3.2m-7.362-1.175l1.707 3.254m8.838-3.07l1.875 3.58m3.452 3.868l1.397 2.67m-14.764 1.935l1.466 2.8m-.168 3.07l.92 1.758m15.442-7.427l.92 1.756m-20.832-22.932l1.535 2.928m-4.91-5.435l1.604 3.058m4.275-4.996l1.434 2.734m-12.465 1.04l1.535 2.928m-3.453-2.248l15.877-5.65" class="E"/><path d="M-645.133-198.75c3.054.308 5.312 2.693 5.763 5.58l-.976 11.245-2.167-.22.76-8.985c-.247-2.333-1.695-4.234-3.655-4.43s-3.673 1.38-4.313 3.625h-.004l-.767 8.983-2.272-.23.962-11.245.026.002c.932-2.75 3.586-4.637 6.642-4.327z" class="F"/><path d="M-645.4-195.568c1.96.198 3.378 2.094 3.627 4.427l.018.004-.78 9.137-7.977-.806.78-9.14c.638-2.246 2.374-3.82 4.334-3.623z" class="I"/><path d="M-639.67-191.123l-2.2-.22m-7.805-.8l-2.38-.24m12.035 5.217l-2.2-.223m-7.805-.79l-2.377-.24m9.352-5.767l2.404-1.972M-648-194.7l-2.04-2.436m33.256 3.04c3.044.796 5.223 3.532 5.58 6.478l-1.35 11.03-2.16-.567 1.067-8.813h-.006c-.172-2.36-1.555-4.482-3.5-4.994s-3.718.784-4.433 2.916h-.006l-.144 1.187-.92 7.626-2.264-.6 1.335-11.033.026.008c1.025-2.587 3.74-4.037 6.786-3.242z" class="F"/><path d="M-617.146-190.97c1.954.512 3.307 2.622 3.48 4.986l.018.004-.144 1.185-.94 7.78-7.95-2.082.94-7.778.144-1.185h-.002c.714-2.13 2.5-3.422 4.455-2.9z" class="I"/><path d="M-611.575-185.63l-2.183-.57m-7.78-2.037l-2.37-.62m11.86 7.117l-2.18-.57m-7.78-2.037l-2.37-.622m9.544-4.236l2.47-1.576m-7.435.25l-1.958-2.748m-90.74-5.472c-3.054.308-5.312 2.693-5.763 5.58l.976 11.245 2.167-.22-.767-8.985h.006c.25-2.333 1.695-4.234 3.655-4.43s3.673 1.38 4.313 3.625h.004l.103 1.207.666 7.776 2.27-.23-.962-11.245-.026.002c-.93-2.75-3.586-4.637-6.642-4.327z" class="F"/><path d="M-712.238-195.568c-1.96.198-3.378 2.094-3.625 4.427l-.02.004.78 9.137 7.977-.806-.777-9.14c-.64-2.246-2.375-3.82-4.336-3.623z" class="I"/><path d="M-717.954-191.123l2.2-.22m7.8-.8l2.38-.24m-12.033 5.217l2.2-.223m7.804-.79l2.38-.24m-9.355-5.767l-2.406-1.972m7.388 1.447l2.04-2.436" class="F"/></g></g><g stroke-width="5.388" class="B"><path d="M434.573 1144.455c3.314-.01 9.492.79 13.728 1.777 9.82 2.3 18.392 2.3 25.72.027 5.375-1.666 22.065-10.227 27.744-14.477 2.255-1.687 3.46-2.107 2.37-3.42-2.293-2.762-12.443-8.024-16.878-8.55-3.496-.414-6.57 3.43-12.96 5.62-4.422 1.515-15.313 4.002-24.203 5.526-19.104 3.275-24.755 5.515-31.7 12.57-2.567 2.608-4.668 5.016-4.668 5.35s3.334-.52 7.408-1.9c5.148-1.742 9.247-2.513 13.434-2.526z" class="G"/><path d="M508.835 1126.83c5.09-3.007 15.627-20.977 12.883-22.672-1.55-.96-16.92-3.825-30.416-5.63-7.267-.972-15.257-1.25-24.028-.914-17.68.674-26.118 6.52-28.89 11.88-4.925 9.523 4.353 12.258 35.062 10.335 14.734-.923 20.22.156 26.65 5.243 4.477 3.54 5.406 3.728 8.738 1.76z" class="O"/><path d="M605.43 1115.32c1.97-.825 4.477-2.342 5.573-3.373 1.848-1.736 1.898-2.058.686-4.402-.72-1.39-1.308-3.6-1.308-4.91 0-3.18-4.93-8.02-9.47-9.3-6.654-1.877-16.084-2.066-31.048-.623-24.894 2.4-31.78 1.784-35.24-3.155-.805-1.15-1.46-3.516-1.455-5.258.01-3.27 3.003-10.594 6.14-15.013 2.308-3.252 4.283-12.37 5.598-25.837.924-9.465.82-27.776-.16-28.672-.54-.493-27.584-3.084-47.95-4.595-20.806-1.543-34.256-1.67-43.03-.4-7.272 1.05-8.807 1.99-7.77 4.748 4.49 11.942 5.6 45.484 2.07 63.058-1.094 5.46-3.002 12.904-4.24 16.545l-4.075 11.93c0 .34 4.55-4.833 7.885-5.766 12.58-3.523 32.905-3.642 53.85-.315 4.83.767 22.318 4.402 38.862 8.076 26.684 5.927 34.235 7.44 44.448 8.9 5.394.772 17.11-.157 20.64-1.636z" class="G"/><path d="M617.033 1104.757c3.836-10.35 5.932-30.004 4.38-37.09l-.786-3.587-9.838.26c-24.68.65-52.36 2.847-65.82 7.37-9.327 3.134-9.7 6.15-10.777 9.94-2.654 9.254 4.48 14.588 34.032 11.632 16.615-1.662 27.48-2.293 34.746.426 6.16 2.305 7.095 12.48 7.095 16.88 0 4.068 5.282-1.276 6.97-5.827z" class="O"/><path d="M415.195 1094.408c5.4-2.138 7.398-2.437 16.184-2.433l12.36.004 3.58-14.28-10.37 1.814c-11.83 2.038-19.5 6.063-25.504 13.402-1.772 2.162-3.04 3.932-2.82 3.932s3.178-1.097 6.57-2.437zm797.537 54.702c0-.393-2.12-2.87-4.714-5.507-7.056-7.173-12.6-9.388-31.53-12.598-8.822-1.496-19.578-3.934-23.902-5.42-8.597-2.952-13.744-6.372-18.866-4.544-3.64 1.3-12.516 6.294-12.516 7.546 0 1.02 15.192 10.42 21.955 13.834 11.8 5.955 21.348 6.994 35.003 3.8 12.745-2.972 20.933-2.138 34.346 3.497.123.052.224-.227.224-.62z" class="G"/><path d="M1126.13 1125.14c6.785-5.18 12.135-6.236 26.884-5.313 24.73 1.55 35.594-.015 36.2-5.21.348-2.983-1.93-7.512-4.456-8.865-8.267-4.424-29.6-6.5-46.23-4.493-9.424 1.137-28.322 4.34-30.466 5.162-1.793.688-1.625 2.142.993 8.598 2.367 5.837 4.7 9.057 8.477 11.703 3.067 2.148 3.915 1.992 8.6-1.584z" class="O"/><path d="M1052.45 1117.93c3.95-.706 19.247-3.684 33.673-6.936l36.426-7.7c22.046-3.77 43.125-3.82 56.285-.133 6.058 1.697 8.912 5.626 7.27 2.56-1.59-2.97-7.56-26.237-8.87-35.364-2.335-16.288-1.1-41.33 2.652-53.798.98-3.254.998-4.246.093-4.997-1.63-1.352-12.964-2.654-23.37-2.685-17.798-.053-77.454 4.883-78.575 6.596-.987 1.51-1.08 19.918.005 29.858 1.322 12.106 2.144 19.56 6.81 28.477 4.382 8.377 5.87 11.625 5.17 14.968-1.237 5.902-3.052 4.253-27.946 1.853-15.01-1.447-31.642-1.537-37.923.3-4.743 1.38-9.627 6.902-9.634 9.88-.003 1.307-1.398 5.372-2.145 6.804-1.238 2.375 1.126 2.238 2.572 3.836 1.998 2.208 5.502 4.033 9.867 5.14 4.237 1.074 18.143 3.048 27.64 1.35z" class="G"/><path d="M1013.533 1107.198c0-4.4 3.28-14.315 9.44-16.62 7.266-2.72 16.57-3.13 33.184-1.468 24.457 2.447 32.608 4.147 33.765-.463 1.414-5.633-2.673-14.474-15.165-18.597-13.772-4.547-38.323-8.725-59.245-9.348l-9.624.503-.84 6.008c-1.095 4.092-.174 18.26 1.642 25.268 2.877 11.104 6.846 21.108 6.846 14.717z" class="O"/><path d="M1215.362 1093.36c-4.646-6.284-12.962-11.208-22.256-13.178-11.62-2.463-15.13-2.97-12.618 5.982l2.194 6.337 12.38-.523c8.694-.002 10.817.3 15.873 2.32 3.2 1.277 5.973 2.202 6.14 2.056s-.604-1.494-1.714-2.994zm-345.437-18.564c12.1-1.206 32.505-3.584 45.346-5.284 96.98-12.84 125.604-12.354 163.478 1.37 2.6.946 4.94 1.72 5.175 1.72s-.2-1.478-.945-3.284c-2.413-5.775-4.1-14.8-5.167-27.466-1.216-14.573.043-35.175 3.033-49.615 2.634-12.722 2.677-12.3-1.457-14.367-39.712-1.773-82.47 7.757-123.7 10.73-86.133 5.705-173.567 5.702-261.75-.01-28.814-1.866-53.162-4.18-90.754-8.626-19.008-2.384-46.516-8.544-59.658.046-.288.908.623 3.94.876 6.94 1.903 22.576 2.807 52.013-2.098 72.953-1.02 4.355-7.842 18.26-6.838 16.897 2.227-3.028 7.432-4.46 8.428-4.993 34.92-8.815 45.556-8.37 81.308-7.46 36.802 1.35 56.144-.313 104.654 5.552 27.807 3.362 64.898 6.832 80.366 7.518 13.814.613 37.892-.443 59.713-2.618z" class="G"/></g><use xlink:href="#U"/><path d="M595.737 998.953c-4.283 0-7.718 1.588-10.307 4.765-3.224 3.953-4.836 9.742-4.836 17.366 0 7.812 1.67 13.825 5.012 18.037 2.565 3.2 5.953 4.8 10.166 4.8 4.494 0 8.207-1.753 11.136-5.26s4.394-9.036 4.395-16.6c0-8.19-1.612-14.295-4.836-18.32-2.588-3.2-6.165-4.8-10.73-4.8h0z" class="G"/><path d="M667.046 1006.777v-1.306h16.943v1.306h-1.8c-1.883 0-3.33.788-4.342 2.365-.494.73-.74 2.424-.74 5.083v19.413c0 4.8-.477 8.524-1.43 11.172s-2.824 4.918-5.612 6.812-6.583 2.84-11.383 2.84c-5.224 0-9.2-.906-11.895-2.718s-4.624-4.247-5.753-7.307c-.753-2.094-1.13-6.024-1.13-11.8v-18.708c0-2.94-.406-4.87-1.218-5.8s-2.124-1.377-3.936-1.377h-1.8v-1.306h20.684v1.306H651.8c-1.977 0-3.4.624-4.236 1.87-.588.847-.882 2.612-.882 5.295v20.86c0 1.86.17 4 .512 6.4s.96 4.27 1.853 5.612 2.183 2.447 3.865 3.318 3.747 1.306 6.195 1.306c3.13 0 5.93-.682 8.4-2.047s4.16-3.112 5.065-5.242 1.36-5.736 1.36-10.82v-19.378c0-2.988-.33-4.86-.988-5.612-.918-1.035-2.283-1.553-4.095-1.553h-1.8zm61.034 32.533h-18.53l-3.247 7.554c-.8 1.86-1.2 3.247-1.2 4.165 0 .73.347 1.37 1.04 1.924s2.194.912 4.5 1.077v1.306H695.57v-1.306c2-.353 3.294-.812 3.883-1.377 1.2-1.13 2.53-3.424 4-6.883l16.837-39.392h1.235l16.66 39.815c1.34 3.2 2.56 5.277 3.653 6.23s2.618 1.488 4.57 1.606v1.306h-18.884v-1.306c1.906-.094 3.194-.412 3.865-.953s1.006-1.2 1.006-1.977c0-1.035-.47-2.67-1.412-4.906l-2.894-6.883z"/><path d="M727.093 1036.697l-8.118-19.343-8.33 19.343h16.448z" class="G"/><path d="M757.44 1011.47h13l29.26 35.897v-27.602c0-2.94-.33-4.777-.988-5.506-.87-.988-2.247-1.482-4.13-1.482h-1.66v-1.306h16.66v1.306h-1.694c-2.024 0-3.46.612-4.306 1.835-.518.753-.777 2.47-.777 5.153v40.345h-1.27l-31.556-38.545v29.473c0 2.94.318 4.777.953 5.506.894.988 2.27 1.482 4.13 1.482h1.694v1.306h-16.66v-1.306h1.66c2.047 0 3.494-.612 4.342-1.835.518-.753.777-2.47.777-5.153v-33.285c-1.388-1.624-2.44-2.694-3.16-3.212s-1.77-1-3.16-1.447c-.682-.212-1.718-.318-3.106-.318v-1.306zm95.68 31.84H834.6l-3.247 7.554c-.8 1.86-1.2 3.247-1.2 4.165 0 .73.347 1.37 1.04 1.924s2.194.912 4.5 1.077v1.306H820.6v-1.306c2-.353 3.294-.812 3.883-1.377 1.2-1.13 2.53-3.424 4-6.883l16.837-39.392h1.235l16.66 39.815c1.34 3.2 2.56 5.277 3.653 6.23s2.618 1.488 4.57 1.606v1.306h-18.884v-1.306c1.906-.094 3.194-.412 3.865-.953s1.006-1.2 1.006-1.977c0-1.035-.47-2.67-1.412-4.906l-2.894-6.883z"/><path d="M852.13 1040.697l-8.118-19.343-8.33 19.343h16.45z" class="G"/><path d="M927.957 1042.097l1.165.247-4.095 13h-37.062v-1.306h1.8c2.024 0 3.47-.66 4.342-1.977.494-.753.74-2.494.74-5.224v-30.885c0-2.988-.33-4.86-.988-5.612-.918-1.035-2.283-1.553-4.095-1.553h-1.8v-1.306h21.672v1.306c-2.54-.023-4.324.212-5.347.706s-1.724 1.118-2.1 1.87-.565 2.553-.565 5.4v30.073c0 1.953.188 3.294.565 4.024.282.494.718.86 1.306 1.094s2.424.353 5.506.353h3.494c3.67 0 6.248-.27 7.73-.812s2.835-1.5 4.06-2.877 2.447-3.547 3.67-6.512h0zm50.2-8.787h-18.53l-3.247 7.554c-.8 1.86-1.2 3.247-1.2 4.165 0 .73.347 1.37 1.04 1.924s2.194.912 4.5 1.077v1.306h-15.072v-1.306c2-.353 3.294-.812 3.883-1.377 1.2-1.13 2.53-3.424 4-6.883l16.837-39.392h1.235l16.66 39.815c1.34 3.2 2.56 5.277 3.653 6.23s2.618 1.488 4.57 1.606v1.306H977.6v-1.306c1.906-.094 3.194-.412 3.865-.953s1.006-1.2 1.006-1.977c0-1.035-.47-2.67-1.412-4.906l-2.894-6.883z"/><path d="M977.168 1030.697l-8.118-19.343-8.33 19.343h16.448z" class="G"/><use xlink:href="#U" x="437.632"/><path d="M1033.368 998.953c-4.283 0-7.718 1.588-10.307 4.765-3.224 3.953-4.836 9.742-4.836 17.366 0 7.812 1.67 13.825 5.012 18.037 2.565 3.2 5.953 4.8 10.166 4.8 4.494 0 8.207-1.753 11.136-5.26s4.394-9.036 4.395-16.6c0-8.19-1.612-14.295-4.836-18.32-2.59-3.2-6.165-4.8-10.73-4.8h0z" class="G"/><g transform="matrix(4.189164 0 0 4.189164 931.4314 -181.0391)" class="B"><g class="G C"><use xlink:href="#V"/><use xlink:href="#W"/><use xlink:href="#X"/><use xlink:href="#Y"/><use xlink:href="#Z"/><use xlink:href="#a"/><use xlink:href="#b"/><use xlink:href="#c"/><use xlink:href="#d"/></g><g class="E"><use xlink:href="#e"/><use xlink:href="#f"/><use xlink:href="#g"/><use xlink:href="#h"/></g></g><g class="B C G H"><path d="M247.19 667.85c19.635 25.146 29.23 81.84 29.23 81.84l5.846-18.512c2.756 1.722 4.43 16.076 8.282 16.076 1.722 0 1.42-14.8 5.36-15.59 1.722-.344.58 20.46 4.384 20.46 3.1 0 3.35-14.816 4.384-14.127 2.432 1.62 2.915 19.666 4.872 10.23-2.756-96.795 186.99-176.002 183.168-284.496 4.823-112.296-115.942-154.914-189.988-249.42 0 0-20.807-61.975 17.537-34.588 31.002-4.823 28.255-35.562 28.255-35.562h17.05c7.578-66.138-58.945-50.664-58.945-50.664-61.66 0-67.227 63.817-67.227 63.817C223.55 240.332 331.122 339.2 331.122 339.2c15.846 34.447-.143 93.843-.143 93.843l-149.71 141.05"/><path d="M183 572.98c-8.267 10-50.745 60.32-61.08 77.888-14.632 16.128 13.813 11.594 13.813 11.594s-42.06 44.46-62.49 57.467c6.273 18.818 46.61-8.434 46.61-8.434s-39.27 24.113-37.202 28.935c11.987 9.14 46.848-16.534 46.848-16.534s-8.328 11.712-1.378 15.845c11.712 0 38.58-21.357 38.58-21.357s-5.51 12.4.69 14.468c11.2-7.06 81.294-65.45 81.294-65.45"/></g><g class="E B H"><path d="M140.18 660.857c-4.478 7.234 16.2 9.154 21.7.69 0 11.712 15.967 12.158 21.7 6.545 2.41 7.578 13.567 5.644 20.668-1.378 1.206 3.272 11.314 10.286 15.047 8.94 7.3-2.634 35.825-42.996 42.025-46.44"/><path d="M111.172 717.08s32.76-31.905 54.196-48.956m-42.992 60.65s43.095-39.828 64.53-56.878m-23.122 49.083s28.628-29.494 50.062-46.544m-78.562-12.812s32.013-38.155 53.448-55.205m-28.465 56.218s26.905-30.872 57.64-52.745m-33.11 57.35s12.678-24.317 51.336-54.112m-31.702 53.77s14.7-25.507 41.312-44.624m-42.986 48.042c-21.922 22.4-39.46 37.5-39.46 37.5"/><path d="M171.1 672.263c-21.922 22.4-44.33 40.433-44.33 40.433m22.896-46.766c-21.922 22.4-27.767 24.357-27.767 24.357m49.29-101.05c-4.478 7.234 5.65 24.753 27.237 14.34-6.82 18.045 3.3 13.133 17.317 6.545-3.922 15.373 13.567 5.644 20.668-1.378 1.206 3.272 1.57 11.26 8.227 11.863 7.73.7 15.85-21.56 22.052-25.006"/><path d="M197.707 603.895l39.15-35.882m-59.98 37.772l19.058-29.003m19.368 33.102l23.5-25.794m-3.124 25.247l12.38-13.557"/><path d="M263.162 563.142c-31.178 38.972 13.64 7.794 13.64 7.794M223 581.712s-18.285 3.35 2.662-21.98m-15.6-16.562s-20.947 27.767-6.82 23.383M258.3 541.22l-5.846 9.256m-54.56 62.842c-4.87 5.36-16.076 13.64-16.076 13.64m37.024-8.28c-10.717 8.282-19.973 17.05-19.973 17.05m54.073-8.77c-21.922 22.4-17.05 16.563-17.05 16.563m5.358-25.82c-10.717 8.282-17.05 14.614-17.05 14.614"/></g><g transform="matrix(4.189164 0 0 4.189164 1421.2284 165.4844)" class="B"><g class="G C"><use xlink:href="#i"/><use xlink:href="#j"/><use xlink:href="#k"/><use xlink:href="#l"/><use xlink:href="#m"/><use xlink:href="#n"/><use xlink:href="#o"/><use xlink:href="#p"/><use xlink:href="#q"/><use xlink:href="#r"/><use xlink:href="#s"/><use xlink:href="#t"/><path d="M-298.808 44.57s-16.28.33-23.188-5.263"/><use xlink:href="#u"/><path d="M-296.34 55.59s-10.854.33-17.76-3.454"/><use xlink:href="#v"/><use xlink:href="#w"/><use xlink:href="#x"/><use xlink:href="#y"/><use xlink:href="#z"/><path d="M-290.914 64.798s-16.6.164-24.175-3.29"/><use xlink:href="#AA"/></g><g class="E"><use xlink:href="#AB"/><use xlink:href="#AC"/><path d="M-298.973 6.58s2.302 8.058 4.44 8.058m-6.413-1.808s.658 5.263 2.796 5.263"/><use xlink:href="#AC" x="-7.548" y="1.745"/><path d="M-304.4 26.48s1.973 4.276 4.11 4.276"/><use xlink:href="#AD"/><use xlink:href="#AE"/><use xlink:href="#AE" x="0.822" y="5.59"/><use xlink:href="#AF"/><path d="M-299.63 57.9l7.894.493m-3.2 4.23l6.964-.204"/><use xlink:href="#AG"/><use xlink:href="#AG" x="3.837" y="2.676"/><use xlink:href="#AH"/><path d="M-281.215 75.17s1.686.493 4.522-.67m.363 2.765s1.453-.088 4.3-1.25"/><use xlink:href="#AC" y="0.002"/><use xlink:href="#AC" x="-1.036" y="5.932"/><use xlink:href="#AI"/><use xlink:href="#AI" x="0.813" y="6.28"/><path d="M-296.27 41.668s2.507.583 4.645.583m-3.135 4.07s.53.118 2.668.118m-.108-32.912s-.284 2.676 1.854 2.676m.636 39.974s2.673-.3 2.203-2.397m-6.155-1.325s4.65-1.358 4.18-3.443m5.588 12.514s.812-5.428.342-7.513"/><use xlink:href="#AJ"/><use xlink:href="#AK"/><use xlink:href="#AL"/><use xlink:href="#AL" x="8.14" y="0.233"/><use xlink:href="#AM"/></g></g><path d="M349.32 144.467c-14.127-26.793-28.742-23.87-28.742-23.87-7.307 0-9.743 4.872-18.025 4.872-10.23 0-7.794-10.717-7.794-10.717" class="B E H"/><path d="M326.425 121.084c-2.923 12.666-12.228 15.126-12.228 15.126s2.017 12.086 9.792 12.64c14.276 2.558 18.938-10.284 12.18-21.435-2.436-2.923-9.743-6.333-9.743-6.333z" class="C"/><path d="M335.28 135.703c.298 1.013-.595 2.34-2.342 3.48s-4.083 1.922-6.127 2.05-3.486-.42-3.782-1.432.595-2.34 2.342-3.48 4.083-1.922 6.127-2.05 3.486.42 3.782 1.432z" class="G"/><path d="M292.066 160.662c-6.9 0-8.956 4.134-8.956 4.134M269.33 201.3c-2.923 8.282 6.284 19.66 4.823 17.223m-4.37-84.003c-6.82 0-7.307 13.153-7.307 13.153m44.33 100.84l9.743 12.666m-4.87 24.358l10.23 11.692m32.638 27.767l12.18 13.153" class="B E H"/><g class="C"><path d="M417.213 371.452s5.787 15.992 9.92 17.37c0 0 4.694 1.58 7.794-.487 2.823-1.882 0-5.846 0-5.846-3.79-5.51-17.715-11.037-17.715-11.037z"/><use xlink:href="#AN"/><use xlink:href="#AN" x="16.878" y="59.937"/><path d="M444.665 427.968s9.747 8.64 10.334 12.745c.344 2.41-5.167 15.157-5.167 15.157-2.41 0-.344-16.534-.344-16.534s-7.578-9.645-4.823-11.367z" class="B H"/><use xlink:href="#AO"/><path d="M389.337 540.33s-6.867 15.56-4.83 19.4c0 0 2.302 4.385 5.97 5.033 3.34.6 4.04-4.226 4.04-4.226 1.07-6.602-5.18-20.22-5.18-20.22zm-20.007 40.2c-10.205 3.363-12.346 15.455-11.6 19.746 0 0 .844 4.88 4.137 6.624 2.998 1.587 5.142-2.782 5.142-2.782 3.045-5.955 9.546-18.077 2.312-23.588z"/><path d="M338.9 625.998s2.353 12.8.285 16.406c-1.215 2.1-7.2 5.652-7.2 5.652-1.9-1.486 3.717-10.134 3.717-10.134s-.025-12.266 3.207-11.924zm-45.47 8.956s4.075 16.6 2.007 20.195c-1.215 2.1-5.142.485-5.142.485-1.9-1.486-.072-8.756-.072-8.756s-.025-12.266 3.207-11.924zm38.58-60.97s1.664 11.088-.404 14.684c-1.215 2.1-5.142.485-5.142.485-1.9-1.486-.072-8.756-.072-8.756s2.387-6.755 5.618-6.413z" class="B H"/><path d="M314.225 520.428c-6.88 4.644-6.903 8.7-6.947 13.046 0 0-.064 4.952 2.854 7.27 2.657 2.1 11.765-1.792 11.765-1.792 4.084-5.297-7.327-5.434-7.67-18.523zm73.715-66.482c-6.88 4.644-6.903 3.867-6.947 13.046 0 0 2.347 7.364 5.265 9.68 2.657 2.1 5.564-4.548 5.564-4.548 4.084-5.297 1.974-16.457-3.882-18.18z"/><use xlink:href="#AO" x="79.572" y="-15.501"/><path d="M417.24 517.25c-4.43 14.317-9.623 18.66-7.587 22.512 0 0 5.058 1.285 8.727 1.933 3.34.6 4.04-4.226 4.04-4.226 1.07-6.602-4.146-4.718-5.18-20.22z"/><use xlink:href="#AO" x="-62.354" y="177.809"/></g><g transform="matrix(-4.189164 0 0 4.189164 694.2694 -181.0391)" class="B"><g class="G C"><use xlink:href="#V"/><use xlink:href="#W"/><use xlink:href="#X"/><use xlink:href="#Y"/><use xlink:href="#Z"/><use xlink:href="#a"/><use xlink:href="#b"/><use xlink:href="#c"/><use xlink:href="#d"/></g><g class="E"><use xlink:href="#e"/><use xlink:href="#f"/><use xlink:href="#g"/><use xlink:href="#h"/></g></g><path d="M1378.51 667.85c-19.635 25.146-29.23 81.84-29.23 81.84l-5.846-18.512c-2.756 1.722-4.43 16.076-8.28 16.076-1.722 0-1.42-14.8-5.36-15.59-1.722-.344-.58 20.46-4.384 20.46-3.1 0-3.35-14.816-4.384-14.127-2.432 1.62-2.915 19.666-4.87 10.23 2.756-96.795-186.99-176.002-183.168-284.496-4.823-112.296 115.942-154.914 189.988-249.42 0 0 20.807-61.975-17.537-34.588-31.002-4.823-28.255-35.562-28.255-35.562h-17.05c-7.578-66.138 58.945-50.664 58.945-50.664 61.66 0 67.227 63.817 67.227 63.817 15.845 83.017-91.727 181.884-91.727 181.884-15.845 34.447.143 93.843.143 93.843l149.71 141.05" class="B C G H"/><g transform="matrix(-4.189164 0 0 4.189164 88.1098 -44.4974)" class="B"><path d="M-323.355 147.398c-1.973 2.385-12.113 14.4-14.58 18.593-3.493 3.85 3.297 2.768 3.297 2.768s-10.04 10.613-14.917 13.718c1.497 4.492 11.127-2.013 11.127-2.013s-9.374 5.756-8.88 6.907c2.862 2.182 11.183-3.947 11.183-3.947s-1.988 2.796-.33 3.782c2.796 0 9.2-5.098 9.2-5.098s-1.316 2.96.164 3.454c2.674-1.685 19.406-15.623 19.406-15.623" class="C G"/><g class="E"><path d="M-333.578 168.376c-1.07 1.727 3.865 2.185 5.18.164 0 2.796 3.812 2.902 5.18 1.562.576 1.81 3.24 1.347 4.934-.33.288.78 2.7 2.456 3.592 2.134 1.743-.63 8.552-10.264 10.032-11.086"/><path d="M-340.502 181.797s7.82-7.616 12.937-11.686m-10.262 14.477s10.287-9.507 15.404-13.577m-5.52 11.717s6.834-7.04 11.95-11.1m-18.753-3.058s7.642-9.108 12.76-13.178m-6.796 13.418s6.423-7.37 13.76-12.6m-7.905 13.7s3.026-5.805 12.255-12.917m-7.568 12.835s3.512-6.1 9.862-10.652m-10.262 11.468c-5.233 5.35-9.42 8.954-9.42 8.954"/><path d="M-326.198 171.1c-5.233 5.35-10.582 9.652-10.582 9.652m5.465-11.165c-5.233 5.35-6.628 5.814-6.628 5.814m11.766-24.12c-1.07 1.727 1.35 5.9 6.502 3.423-1.628 4.308.788 3.135 4.134 1.562-.936 3.67 3.24 1.347 4.934-.33.288.78.375 2.688 1.964 2.832 1.845.167 3.784-5.147 5.264-5.97"/><path d="M-319.845 154.778l9.345-8.565m-14.317 9.017l4.55-6.923m4.623 7.9l5.6-6.157m-.736 6.027l2.955-3.236"/><path d="M-304.22 145.05c-7.442 9.303 3.256 1.86 3.256 1.86m-12.836 2.573s-4.365.8.635-5.247m-3.73-3.954s-5 6.628-1.628 5.582m13.14-6.047l-1.395 2.2m-13.025 15c-1.163 1.28-3.837 3.256-3.837 3.256m8.838-1.977l-4.768 4.07m12.908-2.093l-4.07 3.954m1.28-6.164c-2.558 1.977-4.07 3.5-4.07 3.5"/></g></g><g transform="matrix(-4.189164 0 0 4.189164 204.4714 165.4844)" class="B"><g class="G C"><use xlink:href="#i"/><use xlink:href="#j"/><use xlink:href="#k"/><use xlink:href="#l"/><use xlink:href="#m"/><use xlink:href="#n"/><use xlink:href="#o"/><use xlink:href="#p"/><use xlink:href="#q"/><use xlink:href="#r"/><use xlink:href="#s"/><use xlink:href="#t"/><path d="M-298.808 44.57s-16.28.33-23.188-5.263"/><use xlink:href="#u"/><path d="M-296.34 55.59s-10.854.33-17.76-3.454"/><use xlink:href="#v"/><use xlink:href="#w"/><use xlink:href="#x"/><use xlink:href="#y"/><use xlink:href="#z"/><path d="M-290.914 64.798s-16.6.164-24.175-3.29"/><use xlink:href="#AA"/></g><g class="E"><use xlink:href="#AB"/><use xlink:href="#AC"/><path d="M-298.973 6.58s2.302 8.058 4.44 8.058m-6.413-1.808s.658 5.263 2.796 5.263"/><use xlink:href="#AC" x="-7.548" y="1.745"/><path d="M-304.4 26.48s1.973 4.276 4.11 4.276"/><use xlink:href="#AD"/><use xlink:href="#AE"/><use xlink:href="#AE" x="0.822" y="5.59"/><use xlink:href="#AF"/><path d="M-299.63 57.9l7.894.493m-3.2 4.23l6.964-.204"/><use xlink:href="#AG"/><use xlink:href="#AG" x="3.837" y="2.676"/><use xlink:href="#AH"/><path d="M-281.215 75.17s1.686.493 4.522-.67m.363 2.765s1.453-.088 4.3-1.25"/><use xlink:href="#AC" y="0.002"/><use xlink:href="#AC" x="-1.036" y="5.932"/><use xlink:href="#AI"/><use xlink:href="#AI" x="0.813" y="6.28"/><path d="M-296.27 41.668s2.507.583 4.645.583m-3.135 4.07s.53.118 2.668.118m-.108-32.912s-.284 2.676 1.854 2.676m.636 39.974s2.673-.3 2.203-2.397m-6.155-1.325s4.65-1.358 4.18-3.443m5.588 12.514s.812-5.428.342-7.513"/><use xlink:href="#AJ"/><use xlink:href="#AK"/><use xlink:href="#AL"/><use xlink:href="#AL" x="8.14" y="0.233"/><use xlink:href="#AM"/></g></g><path d="M1276.378 144.467c14.127-26.793 28.742-23.87 28.742-23.87 7.307 0 9.743 4.872 18.024 4.872 10.23 0 7.794-10.717 7.794-10.717" class="B E H"/><path d="M1299.275 121.084c2.923 12.666 12.228 15.126 12.228 15.126s-2.017 12.086-9.792 12.64c-14.276 2.558-18.938-10.284-12.18-21.435 2.436-2.923 9.743-6.333 9.743-6.333z" class="C"/><path d="M1290.42 135.703c-.298 1.013.595 2.34 2.342 3.48s4.083 1.922 6.127 2.05 3.486-.42 3.782-1.432-.595-2.34-2.342-3.48-4.083-1.922-6.127-2.05-3.486.42-3.782 1.432z" class="G"/><g transform="matrix(-4.189164 0 0 4.189164 962.2984 -65.9975)"><path d="M-88.642 54.106c-1.645 0-2.138.987-2.138.987m-3.3 8.717c-.698 1.977 1.5 4.693 1.15 4.1m-1.04-20.052c-1.628 0-1.744 3.14-1.744 3.14m10.58 24.072l2.326 3.023m-1.163 5.814l2.442 2.8m7.79 6.63l2.907 3.14" class="B E"/><g class="C"><path d="M-58.768 104.424s1.38 3.818 2.368 4.146c0 0 1.12.377 1.86-.116.674-.45 0-1.395 0-1.395-.905-1.316-4.23-2.635-4.23-2.635zm-5.885 1.916s-.227 4.053.55 4.743c0 0 .883.786 1.757.623.796-.15.547-1.284.547-1.284-.316-1.565-2.856-4.082-2.856-4.082zm4.03 14.307s-.227 4.053.55 4.743c0 0 .883.786 1.757.623.796-.15.547-1.284.547-1.284-.316-1.565-2.856-4.083-2.856-4.083z"/><path d="M-52.215 117.915s2.327 2.062 2.467 3.042c.082.576-1.233 3.618-1.233 3.618-.576 0-.082-3.947-.082-3.947s-1.81-2.302-1.15-2.714z" class="B"/><use xlink:href="#AP"/><path d="M-65.422 144.737s-1.64 3.714-1.153 4.634c0 0 .55 1.047 1.425 1.202.798.14.964-1 .964-1 .255-1.576-1.236-4.826-1.236-4.826zm-4.776 9.593c-2.436.803-2.947 3.7-2.767 4.714 0 0 .202 1.165.988 1.58.716.38 1.227-.664 1.227-.664.727-1.422 2.28-4.315.552-5.63z"/><path d="M-77.462 165.187s.562 3.058.068 3.916c-.3.504-1.72 1.35-1.72 1.35-.453-.355.887-2.42.887-2.42s-.006-2.928.766-2.846zm-10.854 2.138s.973 3.963.48 4.82c-.3.504-1.227.116-1.227.116-.453-.355-.017-2.1-.017-2.1s-.006-2.928.766-2.846zm9.2-14.555s.397 2.647-.097 3.505c-.3.504-1.227.116-1.227.116-.453-.355-.017-2.1-.017-2.1s.57-1.612 1.34-1.53z" class="B"/><path d="M-83.352 139.986c-1.642 1.1-1.648 2.074-1.658 3.114 0 0-.015 1.182.68 1.735.634.504 2.808-.428 2.808-.428.975-1.264-1.75-1.297-1.83-4.422zm17.597-15.87c-1.642 1.1-1.648.923-1.658 3.114 0 0 .56 1.758 1.257 2.3.634.504 1.328-1.086 1.328-1.086.975-1.264.47-3.928-.927-4.34z"/><use xlink:href="#AP" x="18.994" y="-3.7"/><path d="M-58.762 139.228c-1.057 3.418-2.297 4.454-1.81 5.374l2.083.46c.798.14.964-1.01.964-1.01.255-1.576-1-1.126-1.236-4.826z"/><use xlink:href="#AP" x="-14.885" y="42.446"/></g></g><path d="M300 658.5s298.5-112.32 298.5-397.772V2.176H1.5v258.552C1.5 546.18 300 658.5 300 658.5z" fill="url(#A)" transform="translate(513.661 319.287)" class="C"/><path d="M813.66 977.787s-298.5-112.32-298.5-397.772V321.463h597v258.552c0 285.452-298.5 397.772-298.5 397.772z" class="B E S"/></svg>