<svg xmlns="http://www.w3.org/2000/svg" xmlns:xlink="http://www.w3.org/1999/xlink" height="480" width="640" xmlns:v="https://vecta.io/nano"><style><![CDATA[.B{fill-rule:evenodd}.C{fill:none}.D{stroke:#000}.E{stroke-width:1pt}.F{fill-opacity:.996}.G{stroke:#2b2b2b}.H{stroke-width:11.119}.I{stroke-width:11.108}.J{stroke-width:11.125}.K{fill:#d40f0f}.L{stroke-width:1.205}.M{fill:#b03f00}.N{stroke-width:10.466}.O{stroke-width:1.285}]]></style><path fill="#c00" d="M0 0h640v480H0z"/><path fill="#006" d="M0 0h512v256H0z"/><g fill="#fff"><path d="M0 0v28.622L454.757 256h57.24v-28.62L57.24.001H0zm511.998 0v28.62L57.24 256H0v-28.62L454.757 0h57.24z"/><path d="M213.333 0v256h85.333V0h-85.333zM0 85.333v85.333h511.998V85.333H0z"/></g><path d="M0 102.4v51.2h511.998v-51.2H0zM230.4 0v256h51.2V0h-51.2zM0 256l170.666-85.333h38.16L38.16 256H0zM0 0l170.666 85.333h-38.16L0 19.08V0zm303.17 85.333L473.837 0h38.16L341.332 85.333h-38.16zM511.998 256l-170.666-85.333h38.16l132.505 66.253V256z" fill="#c00"/><g transform="matrix(.19009 0 0 .15565 1176.6 400.88)"><g class="B"><use xlink:href="#B" fill="#fff"/><path d="M-2982.44-131.37c1.22 325.7-655.5 534.47-673.23 531.5 0 0-674.45-205.8-673.23-531.5 7.16-10.536 9.96-14.595 10.43-27.844 2.3-6.875 1.64-15.152 1.64-23.02v-23.02c-1.73-5.202-1.64-13.795-1.64-21.376-.22-5.804-1.64-15.454-1.64-16.443 1.28 9.47 3.02 14.092 6.57 1.644 2.5-6.278 3.92-11.44 6.58-19.732.3-8.094 1.64-14.587 1.64-23.02 0-7.972.38-15.56 1.65-21.377 2.53-2.073 4.74-5.722 8.22-3.288-.3 8.37-2.27 12.79-3.3 21.376v46.04c.16 5.44.9 9.983 3.3 13.155.3-8.095 1.64-14.587 1.64-23.02 1.9-5.69 3.07-13.14 6.58-18.088 2-7.394 5.22-13.502 8.22-21.376 2.5-7.807 5.04-13.192 6.58-19.732 3.63-4.077 7.64-11.014 11.5-14.8 8.45-5.43 5.95 2.76 3.3 9.866v23.02c5.8 1.657 2.1-2.335 6.58-6.577 1.58-6.083 5.3-14.346 8.22-19.732 2.92-4.74 6.7-9.218 9.86-14.8l13.16-8.222c-3.65 3.824-6.8 9.365-9.87 14.8-1.26 5.818-1.64 13.405-1.64 21.376.6 15.793 3.82 3.08 6.58-3.288 3.35-2.744 1.82-4.597 8.22-4.933 9.7-6.53 6.58.646 4.93 8.22-1.3 7.35-1.64 14.84-1.64 23.02 0 8.924 1.54 12.746 1.64 21.376 0 7.582-.1 16.175 1.65 21.376 1.17 8.88 3.58 12.586 6.57 19.732 2.5 7.252 5.42 11.873 8.22 18.088 6.44 7.893 3.3.717 3.3-8.222v-46.04c3.02-5.157 3.9-11.445 8.22-16.443 1.65-6.02 4.65-10.675 8.23-14.8 2.45-3.91 6.16-8.807 8.22-13.155v23.02c0 8.18.33 15.67 1.64 23.02 2.26 7.62 3.93 12.286 4.94 19.732 4.3 2.78 5.9 6.903 9.86 9.866 2-7.598 3.3-14.388 3.3-23.02v-23.02c1.37-7.684 2.92-14.073 4.93-19.732 2.22-6.977 3.68 1.805 4.94 4.933 2.84 6.012 5.8 9.158 9.86 16.443 4.83 3.45 6.08 8.786 9.87 13.155.87 4.034 1.3 13.115 3.3 16.443 1.77-8.002 4.74-12.822 6.57-21.376 4.93-4.83 7.83-8.23 13.16-11.5 8.36-1.61 12.2-3.916 19.73-4.933 10.4 0 8.54 1.064 1.64 6.577-2.6 4.246-6.36 10.867-9.86 14.8-1.02 7.514-2.97 11.212-3.3 19.732.6 8.43 3.02 15.088 4.93 21.376 4.12-4.61 8.7-14.515 11.5-19.732 4.4-5.036 6.44-12.48 9.87-16.443 3.54-4.29 8.13-7 14.8-8.222 4.08-3.065 8.9-3.288 16.44-3.288 15.1 4.827 31.93 3.435 47.7 4.933 12.2 0 19.9-2.238 31.24-4.933 12.34-2.54 25.4-2.794 37.82-4.933 12.52 0 26.4-1.114 37.82 1.644h32.88c11.9 0 23.53-.245 34.53-1.644 13.27 0 26.77.605 39.47-1.645 14.64 0 28.33-1.158 42.75-1.644 19.75 0 38.05-2.356 57.55-3.288 14.92-.634 26.9-5.416 41.1-8.222 9.53-2.17 20.7-1.644 31.24-1.644 12.48 0 22.46 2.218 34.53 3.288 10.27 0 19.68.85 29.6 1.645h101.95c12.08 0 23.18.743 34.53 1.644 10.3 0 19.66.83 29.6 1.644h26.3c7.22.86 16.2 1.02 23.02 3.29 9.55 0 17.27 1.32 26.3 1.644 8.5.516 15.72 1.644 24.66 1.644 8.26.295 15.3 1.91 23.02 3.29 6.98.943 12.6 2.733 18.1 4.933 4.64 2.197 12.24 5.28 16.44 8.222 9.13 0 13.1-1.725 19.74-3.29 4.58-3.537 9.64-3.654 9.86-6.577-5.07 4.52-9.44 5.577-11.5 13.154-1.03 2.565-4.34 12.035 0 9.866 6.04-3.525 10.35-7.542 13.16-13.154 4.7-6.623 6.86-10.678 11.5-16.444 3.44-6.616 9.2-10.764 13.15-14.798 4.6-6.76 7.28-10.17 3.3 1.644-1.4 7.913-2.72 14.015-3.3 21.376-.94 6.975-2.73 12.587-4.93 18.088 0 5.08-.42 10.4 1.64 13.154 7.6-2.167 15-6.207 19.73-9.866 6.5-1.774 11.97-5.252 18.1-9.866 8.1-2.025 13.33-2.29 14.8-4.933-4.43 4.523-8.65 8.448-13.15 11.51-2.2 4.612-5.98 7.345-4.94 11.5 5.1-1.11 14.94-1.7 19.73-3.29 7.7-2.667 11.16-4.304 19.74-6.577 14.765.192 2.498 2.24-4.94 6.577-4.46 3.036-9.07 7.542-14.8 11.51-3.67 6.82-6.16 12.168-9.86 16.443-1.93 7.157-4.6 12.247-8.22 16.443-1.46 6.188-3.54 11.66-4.94 18.088-1.42 10.552-5.32 13.11 6.58 8.22 5.1-5.562 10.03-10.196 13.16-14.8 3.03-4.728 7.17-10.545 11.5-14.8 2.26-6.386 5.8-8.9 9.86-16.443 3.66-3.837 8.797-9.617 13.157-14.8 3.764-3.6 8.946-7.383 14.798-9.866 9.013-3.004 7.87-8.78 4.933 1.645-3.466 4.196-5.575 9.794-6.577 16.443-3.57 14.82.355 9.164 6.577 4.933 5.34-4.412 3.347-7.48 11.51-9.866 1.8-1.517 10.546-6.293 8.22-1.644-1.116 7.408-3.903 10.798-6.577 16.443-3.615 6.524-6.483 11.714-8.222 18.087-2.91 3.88-5.027 8.337 0 6.578 8.47-1.883 11.08-4.92 16.444-8.222 3.2-7.303 6.352-9.63 9.866-14.8-2.013 8.052-4.9 13.58-6.578 19.732-3.786 4.37-5.75 9.307-8.22 16.443-3.603 7.016-4.82 10.37-4.933 19.732-2.215 7.477-5.063 12.895-1.645 19.732 5.21-5.417 9.865-8.835 13.155-16.443 3.386-4.1 5.154-10.395 6.577-16.443 1.567-6.658 3.942-10.753 4.933-18.088 2.292-6.875 1.645-15.153 1.645-23.02v-23.02c-.094-7.86-2.588-14.365 0-19.732 5.006 5.11 6.258 9.69 9.866 16.443 2.1 8.442 5.844 13.214 6.577 21.376 3.342 4.915 3.84 10.934 6.577 18.088.577 8.072 2.097 15.085 0 21.376-.496 5.29-3.066 9.066 0 13.155 5.308-4.385 5.538-10.92 6.577 3.29 0 7.198.252 14.07.836 21.266z" fill="#007a0f" stroke="#002b00" class="F J"/></g><path d="M-4257.6-267.74c-.62 4.245-1.64 17.06-1.64 26.3 0 8.38.75 14.816 1.64 21.376.55 5.92 1.88 6.805 0 11.5m24.6-72.346c.63 4.245 1.65 17.062 1.65 26.3 0 8.736-1.08 14.023-1.65 21.377-.3 8.08-1.64 12.433-1.64 21.376v6.577m-16.46 11.5c1.55 0 .93 4.205 1.64 9.866.95 6.998 2.5 12.974 4.93 18.088.35 9.4 2.15 11.425 8.23 14.8 5.87 5.788 8.03 9.685 11.5 14.8 4.2.74 4.9 1.85 6.57 4.933m-90.37-13.157h1.64c8.48 1.413 20.16 1.238 26.3 3.3 6.33 1.47 13.95 4.538 18.1 8.22 6.65 7.382 9.26 12.74 18.08 16.444 7.4 4.315 14.86 5.888 23.03 8.22 7.6 3.202 12.6 5.624 18.08 8.222 7.8 3.994 14.04 8.476 23.02 9.866h23.02c7.7 0 12.64.26 16.45-3.3l-16.45 3.3c7.7 0 12.64.26 16.45-3.3M-4279-26.03h52.62c3.4 7.075 6.48 9.284 13.16 11.5 5.33 3.905 12.28 6.004 19.73 6.577h3.3m-74 9.883c4.47-.92 17.27-4.287 26.3-4.933 9.62 0 14.8 2.073 19.73 6.577 5.04 3.425 8 6.602 14.8 9.866 7.27 2.5 14.62 3.3 23.02 3.3.78 2.32.48 1.644 3.3 1.644M-4242.8 34.8h29.6c5.9 2.794 10.77 3.15 13.15 9.865 6.82 5.74 9.83 9.5 19.73 9.87 3.8 1.97 11.83 1.64 18.1 1.64m-1.68 36.205h29.6c9.66.98 16.5.28 21.38 6.58 5.42 7.8 9.97 6.08 16.44 9.87 5.7 0 9.45 1.18 14.8 1.64m-11.52 27.9c4.25.62 17.06 1.64 26.3 1.64 9.08 1.23 9.76 3.4 14.8 9.87 2.74 9.6 7.48 8.92 18.1 9.86 7.2 0 12.97-.53 18.1-1.64M-4228-190.46l1.64 1.644c-3.73-3.73-1.93-2.363 1.65 6.578.62 8.063 2.05 12.855 4.93 19.732 3.9 5.6 7.18 10.98 9.87 16.443 2.92 6.68 6.8 11.845 11.5 16.443.7 2.087 1.2 2.593 3.28 3.3m1.63-57.55c.84 0 5.23 5.086 8.22 9.866 5.7 4.074 10.23 9.203 14.8 14.8 5.13 3.386 11.1 7.55 18.1 11.5 7.98 2.764 10.74 5.003 18.08 8.222 3.87 3.348 10.82 5.812 16.45 8.222 2.42 0 1.25-.388 3.3 1.644m-41.15-70.694c-1.8 0 0 4.24 0 9.866 2.75 6.088 7 12.12 11.5 18.088 5.2 3.442 10.5 10.505 14.8 16.443 2.65 4.223 5.7 7.3 11.5 9.866m1.7-67.423c.06 5.876 1.62 16.938 3.3 26.3 2.86 6.823 4.98 11.276 6.58 18.087 1.03 6.853 3.62 12.832 8.22 18.088 3.77 4.78 10.23 9.5 16.44 11.5 6.35 2.72 10.8 4.826 19.73 4.933 6.56-.886 13-1.644 21.38-1.644h13.16m-51-64.104c.14 5.28-1.4 10.768 4.93 14.8 2.13 6.66 6.84 14.364 11.5 21.376 4.17 5.286 9.96 9.137 18.1 9.866 5.77 1.34 14.5 2.64 21.38 4.933 6.24 4.06 12.78 10.903 21.37 13.155l-21.37-13.155c6.24 4.06 12.78 10.903 21.37 13.155m-62.48-64.13c4.35 5.55 16.15 17.8 24.67 26.3 5.88 4.862 11.94 8.736 18.08 11.5 7.52 1.163 15.8 4.454 21.38 6.577 3.6 1.537 4.6 3.012 9.86 3.3m-51-67.427l1.65 1.645c-4.68-4.672-2.25-2.142 8.22 6.577 6.14 4.954 8.58 6.28 9.86 14.8 3.02 2.854 4 7.924 8.22 4.933-.52-9.732-5.03-13.12 3.3-8.222 3.03 6.332 6.75 11.464 11.5 14.8 3 3.173 6.52 4.743 13.16 4.933M-3869.6 1.93c4.13.516 21.43.566 29.6 3.3 7.35 1.312 14.84 1.644 23.02 1.644 8.32-.308 13.02-2.784 21.38 0 9.6.738 10.67 3.03 18.08 9.866 6.1 4.14 8.73 8.8 13.16 16.443 1.94 1.254 14.26 8.828 4.93 3.3M-3877.8-37.54c5.5 2.905 18.24 10.32 24.66 14.8 8.63 1.917 11.1 4.66 19.74 6.577 8.8-.104 14.34-2.338 21.37-3.288 5.52-1.84 14.4-2.33 21.38 0 7.45 2.58 12.13 4.848 18.1 8.22 3.26 4.078 13.55 11.503 3.28 3.3-2.74-3.837-3.83-4.385-8.22-6.577m-65.8-26.302c6.03.172 21.04 2.167 31.24 3.288 6.88 2.293 15.55 2.755 23.02 3.3 8.66 1.546 15.1 2.1 21.38 6.577 4.43 2.98 10.56 8.747 14.8 13.155 9.3 4.03 3.64 3-3.3-3.3m-62.44-37.82c6.48 0 16.65 1.448 26.3 3.288 3.82 4.62 9.98 5.905 18.1 8.222 5.73 1.4 9.92 4.725 16.44 8.222m62.46 103.568l1.64-1.64c-3.62 3.62-2.4 1.8 6.58 0 9.97-2.7 19.28-3.77 29.6-1.65 8.04 0 15.9.14 23.02-1.64 3.3-2.48 7.45-1.3 9.86-4.94 4.74-.83 4.58-4.6 4.94 0m-70.64 36.17c8.7-.44 26.4-1.55 36.18-8.22 6.37-1.94 12.67-5.53 19.73-6.58 8.38 0 15.17-1.08 23.02-1.64 9.47-.5 17.94-1.65 27.95-1.65h24.67c8.3 0 15.43.74 23.02 1.65 6.47 1.13 14.2 4.9 18.1 8.22 5.84 1.27 12.44 1.88 18.08 0M-3521 240.38l1.64-1.64c-3.38 3.38-2.34 2 4.93-1.64 9.8 0 18.97-.48 27.96-1.65 8.6.28 17.5 1.2 23.02 4.93 7.66 2.47 15.1 3.36 21.37 6.58 8 2.96 13.02 4.97 21.38 6.58 4.48 2.24 15.13 1.73 21.38 3.3 8.04 0 15.9.13 23.02-1.65 8.55-1.83 13.37-4.8 21.37-6.57 5.35-5.16 12-8.15 19.74-9.87 3.18-3.85 7.65-8.33 11.5-11.5l-11.5 11.5c3.18-3.85 7.65-8.33 11.5-11.5m24.7-393.05c6.1-.42 18.58-2.76 26.3-6.577 6.46-1.82 14.22-5.025 18.1-8.222 6.5-1.777 10.7-4.02 18.1-6.577 6.9-4.925 14.68-9.035 18.08-13.155 9.14-4.185 11.3-6.836 14.8-14.8 1.86-2.48.95-4.152 3.3-4.933m37.82.004c-.84 0-5.23 5.086-8.22 9.866-5.65 5.273-11.05 12.922-14.8 19.732-4.4 2.986-9 7.95-14.8 11.5-7.43 6.356-13 10.315-21.38 14.8-6.2 4.134-11.8 6.457-19.73 8.222-7.7 2.667-11.15 4.304-19.73 6.577M-3128-215.12l-1.64 1.644c4.12-4.126 2.12-2.248-4.94 6.578-5.63 5.145-11.9 12.18-14.8 16.443-4.66 3.108-12.7 11.297-18.08 14.8-7.3 6.078-14.1 8.026-19.73 13.155-8.1 3.12-13.17 6.542-21.38 9.866-4.7 2.222-11.82 3.87-16.44 6.577h-4.94m92.05-9.873l-1.64 1.644c3.9-3.904 2.04-2.3-3.3 6.577-5.9 4.086-8.52 7.957-14.8 11.5 0 2.192.55 1.644-1.64 1.644m92.14-49.325c0 .482-3.036 4.807-4.933 9.866-4.54 4.633-6.777 11.236-11.508 16.444-3.62 7.555-6.47 9.195-13.16 16.443-4.38 2.814-11.43 7.306-14.8 11.5-6.74 2.956-11 6.373-18.08 8.222m6.52 13.165c6.05-2.192 16.37-7.738 23.02-11.5 5.6-3.013 12.12-7.204 16.45-9.866 2.2-6.174 7.13-9.368 14.797-13.155 3.3-4.854 8.1-7.802 13.154-13.154 5.008-2.754 6.664-6.426 9.866-9.866m-80.487 65.76c6.9-.06 19.93-.15 27.95-4.933 8.64-2.708 11.64-6.043 19.73-8.222 4.512-3.16 11.57-6.276 16.443-9.866l-16.443 9.866c4.512-3.16 11.57-6.276 16.443-9.866m64.097-18.09c-3.606 6-11.343 19.205-19.732 24.665-3.205 3.88-11.5 7.53-16.444 11.5-5.166 2.447-12.76 5.717-19.732 9.866-7.788 1.67-13.168 3.716-19.73 6.577M-3129.6-55.62c5.66-2.4 16.06-8.195 24.66-11.5 4.1-2.047 8.2-1.644 13.16-1.644m-.02 23.014c.57 0 4.97-4.13 9.86-6.578 6.454-4.053 13.696-8.155 19.734-11.5 6.845-1.786 14.33-6.823 23.02-8.222 4.438 2.22 14.728 2.814 21.377 3.3h9.866m-62.487 36.17c7.102-.182 17.88-.32 24.665-4.933 5.422-.93 10.272-2.506 13.155-4.933m-154.6 87.146c1.36.072 9.17 1.584 13.15 3.3 5.72 2.86 8.5 6.15 14.8 9.86 5.45 4.78 12.54 6.27 21.37 6.58h23.03c9.67-.55 14.08-2.96 23.02-3.3 7.7 0 13.062-1.08 18.084-3.3m-131.554 6.57c6.77.18 10.95 1.22 18.1 4.93 8.07 7.02 13.64 11.2 23.02 13.16 7.35.56 12.64 1.64 21.37 1.64 8.05 0 15.9-.13 23.02 1.65 6.36.18 8.03 1.64 14.8 1.64" stroke="#002b00" class="C J"/><g class="G H"><path d="M-4078.056-1090.097c-7.976 0-17.495.714-22.208-2.612-9.012-1.94-15.202-6.248-19.988-13.062-8.238-6.72-10.873-12.952-17.767-20.9-2.217-9.562-6.277-16.96-11.104-23.51.15-14.794 2.362-20.09 6.662-28.737 10.5-4.275 14.652-7.728 26.65-10.45 5.778-4.62 14.958-9.2 22.21-13.062-3.33-6.63-6.837-10.628 0-18.286 5.622-6.305 12.027-11.283 22.21-13.062 11.305 1.21 13.918 6.254 19.988 13.062 10.867 0 21.465-.218 31.09 2.613 8.95 2.87 14.585 6.485 24.43 13.062 9.02 3.536 13.19 7.046 17.767 18.286 7.144 8.17 2.414 13.6 2.22 26.124-1.238 17.256-6.043 16.087-13.325 23.51 10.054 6.054 17.702 7.35 28.87 7.837h62.184c10.425-3.345 11.823-7.344 15.544-18.286 2.812-8.26 6.73-19.02 8.886-28.737 4.92-6.684 7.487-15.225 13.325-20.9 4.004-9.84 9.145-17.49 15.548-23.51 6.25-10.657 11.63-15.327 19.987-20.9 6.9-9.512 13.01-12.61 0-13.062-10.612 2.192-15.105 8.27-26.65 10.45-2.23-6.563-1.795-14.996 2.216-20.9 2.926-12.987 8.634-20.188 11.11-31.35 5.18-7.033 6.914-16.575 11.1-28.736-.74-11.387-2.6-21.338-4.44-31.348-3.102-9.11-4.447-17.135-4.447-31.348 2.23-11.123 4.34-17.826 11.11-23.51 4.103-8.683 8.656-13.155 17.764-18.287 4.454-7.338 10.666-11.497 17.77-15.675 4.99-7.103 10.85-11.15 15.54-20.898 2.766-9.17 5.425-17.946 6.662-28.737 3.1-7.306 4.1-22.832 4.447-33.96-.145-13.87-1.5-21.372-6.662-28.736-2.758-8.115-4.905-19.242-8.886-26.124 0-14.213 1.345-22.237 4.44-31.348 2.368-13.92 2.223-17.5 2.223-10.45v-2.613c12.698 8.793 16.167 12.412 31.096 13.062 6.227 0 10.238-.74 15.54-2.613 12.622 1.604 17.35 1.657 17.77-15.675 1.97-9.303 3.744 3.187 4.44 7.838 4.913 11.558 5.302 4.2 11.1-2.613 3.644-12.838 7.724-5.396 15.548-2.613.886-3.133 3.767-4.433 6.662-7.837 1.666 9.797 4.118 17.963 11.11 20.9 11.208-2.414 11.797-7.654 13.325-20.9 7.938-1.932 8.565-4.888 8.878 7.837 5.86 1.424 10.528 4.427 15.548 0 1.97-5.802 4.24-10.846 6.662-15.674 2.888 15.3 3.92 17.682 17.77 18.286 4.477-4.983 6.395-7.832 6.662-18.286 5.027 7.162 11.384 11.92 22.203 13.06 8.947.987 7.763 4.878 17.77 5.225 2.537 6.313 3.7 17.573 8.878 23.51 7.64 5.773 17.97 7.805 22.2 5.225 0-7.27-.833-14.7 2.223-18.287 8.695-3.4 16.26-.797 24.426 2.613 11.262 3.613 11.11 6.76 11.11 23.51-.772 12.62-2.078 24.82-6.662 31.348-1.803 9.758-2.025 23.3-6.662 33.96-3.835 14.597 3.293 15.396 4.44 31.348 1.788 8.825-2.086 20.5-2.223 33.96.153 14.493-.046 21.67 8.886 26.124 5.127 8.886 11.415 13.274 17.764 20.9 7.533 10.142 10.926 14.67 15.548 23.51 8.045 10.837 9.214 15.433 15.548 26.123 3.706 8.715 7.15 15.035 11.1 26.124 2.674 9.42 1.795 21.666 0 31.348-7.113 6.598-10.666 14.3-11.1 28.737-3.133 7.37-3.813 21.7-4.44 31.348 2.17 10.864 6.685 18.03 11.1 26.124 4.63 6.806 12.247 13.87 17.764 18.286 4.86 6.6 8.244 14.63 13.325 20.9 2.926 11.31 6.5 16.387 6.662 31.35 1.857 10.01 3.698 19.96 4.447 31.348 5.165 5.74 4.538 7.837 15.548 7.837 6.83 4.702 15.22 5.225 26.65 5.225 9.932.9 17.068 2.612 28.865 2.612 9.046 0 18.5-.056 24.434-2.612 4.638-8.558 7.266-23.185 11.1-31.348.75-11.387 2.598-21.34 4.447-31.35 5.234-6.457 9.1-13.136 15.54-18.286 9.184-5.545 15.006-7.33 26.657-7.837 10.758 3.586 18.146 6.986 24.426-2.613 8.618-2.766 14.005-5.225 26.65-5.225 13.157-3.868 16.648-1.782 22.2 7.838 1.818 9.83 3.59 21.114 6.662 28.736 5.05 4.04 12.935 10.612 17.764 15.675 3.117 7.733 4.447 13.245 4.447 26.124 3.996 7.845.932 16.992 0 26.123-5.226 6.443-9.245 13.634-15.548 20.9-2.705 3.883-5.93 6.763-11.1 7.838l4.44 5.224-77.702 91.418-810.56-7.837-37.78-109.716z" class="B F K"/><path d="M-3658.336-1570.777l2.216 2.612c-5.577-6.56-2.85-3.537 6.662 10.45v36.573c0 14.87 2.093 21.206 4.447 31.348 3.033 2.924 3.622 7.526 6.662 10.45m46.637-88.818v2.613c0-7.7.382-3.36-6.662 10.45-4.477 12.084-4.44 19.342-2.223 31.35 2.346 8.265 2.223 21.915 2.223 33.96-1.184 4.18-1.04 1.043-2.223 5.224m55.567-15.68h-2.223c6.54 0 2.857-.446-8.878 7.838-9.88 7.3-13.668 11.154-24.434 13.062-7.235 8.343-11.483 10.266-24.426 10.45-1.047 3.684-.65 2.613-4.447 2.613m11.078 13.067v2.613c2.926-1.293 13.195-4.628 17.764-5.225 5.562-5.407 14.57-7.533 19.987-13.062 8.527-1.293 5.8-4.887 15.548-5.225l-15.548 5.225c8.527-1.293 5.8-4.887 15.548-5.225m-19.987 31.342c3.8 0 19.406.76 26.65 2.613h11.1m-295.382 57.476h2.223c-5.998 0-2.92.164 8.886-2.613 9.94-.9 18.184-2.98 28.873-5.225 11.865-3.492 16.58-3.524 24.426-13.062 8.893-6.977 11.827-13.074 13.325-26.124 1.543-8.343 2.5-18.243 6.662-23.5m13.325 33.965v13.062c0 13.44.443 23.3 4.447 31.348 4.56 11.22 7.434 16.128 15.54 20.9l22.2 10.45h6.662m6.697-13.065h11.1c16.457 0 30.722 2.082 46.636 2.613h31.088c10.933-.46 19.704-2.613 31.096-2.613h22.203m-193.247-88.822h11.1c9.2-3.604 21.523-3.213 31.088-5.223 3.95 2.5 6.685 5.605 11.1 7.836m-44.36-39.2h2.223c-6 0-2.957-.174 8.886 2.613 5.486 5.592 10.895 8.84 19.987 10.45m-24.448-39.19h2.223c-6 0-2.957-.174 8.886 2.613 5.715 6.862 14.876 13.275 19.987 20.9 4.86 3.38 7.77 7.456 13.325 10.45m-106.613 122.783v2.613c0-7.7-.374-3.36 6.662 10.45.74 12.18 1.612 26.218 6.662 33.96 1.467 12.708 1.788 16.173-2.216 26.124-3.453 9.134-7.892 20.84-13.325 26.124-4.44 7.67-11.025 10.84-15.548 18.286-5.8 4.768-11.682 14.22-15.548 20.9-8.504 11.15-10.383 17.6-17.764 23.5-2.857 10.073-6.945 14.955-11.1 26.124-6.662 9.243-11.56 18.187-15.54 28.737-3.117 8.547-3.553 22.974-6.662 33.96v7.838m59.94-23.512v-13.06c0-13.176 1-24.518 2.223-36.573 3.4-9.335 6.7-19.794 8.878-31.348 4.57-7.902 6.5-16 11.1-26.124 2.368-10.213 6.792-18.132 13.325-23.5 2.78-9.813 6.32-15.587 11.1-26.123 3.492-8.365 10.5-18.603 13.325-31.35 3.392-4.74 4.63-12.52 6.662-20.9m20.018 13.058v2.612c0-7.3.275-3.42-4.44 10.45-3.415 11.196-8.7 20.543-11.1 31.348-4.622 11.696-7.747 24.28-11.1 36.573-1.773 11.677-2.216 23.578-2.216 36.573v36.573c0 13.367-2.093 23.394-2.223 36.574-2.835 6.663-3.897 13.7-2.223 15.674m57.76-195.924c-2.1 0-1.268 6.68-2.223 15.675-.802 12.32-2.223 21.725-2.223 36.573-2.254 12.392-5.38 22.84-6.662 33.96-3.125 12.42-6.212 19.245-6.662 33.96 4.546 7.863 10.3 13.495 13.325 26.124 3.6 8.598 7.778 17.422 11.1 28.737 0 14.178 2.078 20.25 2.216 33.96 0 6.445-.428 10.48 2.223 15.674m33.286-206.373v2.613c0-7.3.275-3.42-4.44 10.45-7.03 11.197-11.483 20.976-15.548 28.737-3.377 12.366-7.205 24.164-4.44 36.573.726 11.97 2.636 26.165 6.662 33.96.405 12.836 2.223 19.753 2.223 33.962.764 11.682 2.216 20.082 2.216 33.96 0 10.635-.046 21.75-2.216 28.737-4.18 2.105-3.1 4.47-8.886 5.225m-4.45-276.922c-2.796 0 1.3 6.988 2.216 15.675 3.07 6.017 2.223 18.78 2.223 28.736m35.52-36.574h2.216c-6.96 0-2.796-.542 8.886 10.45 1.658 8.976 3.33 19.064 4.44 28.736m31.14-47.023v13.062c2.284 12.53 4.44 22.308 4.44 36.573l-4.44-36.573c2.284 12.53 4.44 22.308 4.44 36.573m22.148-47.02h2.223c-6.54 0-2.857-.447 8.878 7.837v7.838m-24.395 47.02h-2.223c6.96 0 2.7-.682-6.662 13.062-3.507 8.255-7.663 14.974-11.1 23.5-4.072 8.867-5.63 13.368-6.662 23.5m-11.095-54.852c-1.284 0-3.88 8.16-8.878 13.062-1.98 10.694-4.3 17.577-4.447 31.348 0 16.94 2.682 19.8 8.886 31.348 5.2 7.075 8.06 13.54 8.886 26.124v73.146c-1.536 12-4.378 17.86-11.1 23.5-8.52 6.528-9.596 1.657-15.54-7.837-2.078-8.062-5-11.826-6.662-20.9m86.625-175.03v2.613c0-7.053.145-3.464-2.223 10.45-4.042 11.765-9.925 23.2-13.325 31.348-3.094 9.1-4.44 17.136-4.44 31.35 1.864 12.26 4.042 23.46 4.44 36.573 0 14.336-3.018 22.74-4.44 33.962-4.355 9.718-8.167 21.93-13.325 28.736-1.184 4.18-1.04 1.044-2.223 5.224m62.124-208.988v2.613c0-7.303.275-3.42-4.44 10.45-.787 12.997-3.2 23.128-4.447 33.962l-11.1 31.348c-4.592 8.783-6.662 13.004-6.662 28.736 4.592 9.257 11.636 17.47 19.987 20.9 3.415 8.482 4.897 17.978 8.886 28.737.78 12.875 3.17 23.988 4.44 36.573v10.45m17.785-182.874l-2.223 2.613c4.9-5.753 2.422-3.817 0 10.45 0 13.324-1.467 24.108-2.223 36.573-3.958 9.324-7.602 20.192-8.878 31.35 1.925 12.414 6.93 15.157 15.54 20.9 5.165 5.793 12.652 10.782 19.987 15.674 8.297 5.7 14 12.14 19.995 20.9 6.616 9.65 10.765 11.774 15.54 23.5 1.276 11.096 4.24 21.6 2.223 31.348 0 3.485.74 2.613-2.223 2.613m-42.152-256.01h2.223c-6.96 0-2.674-.667 6.662 13.062 2.407 11.323 2.223 23.8 2.223 36.573 4.248 7.352 5.906 17.138 6.662 28.736 2.338 8.265 2.216 21.916 2.216 33.96-.74 10.2-3.507 16.5 0 26.124 9.65 6.865 16.343 14.455 22.2 20.9 8.167 4.802 11.4 9 17.77 18.286 4.042 8.392 8.7 17.255 13.325 23.512 1.773 11.677 2.216 23.578 2.216 36.573 0 15.34.405 22.872-6.662 31.35-3.362 0-7.083.704-2.216 2.612m-97.715-378.798v13.06c1.566 12.408 6.555 20.633 13.325 28.737 4.15 7.18 9.443 13.405 15.548 18.287 8.572 3.425 11.7 5.224 22.203 5.224m-24.41 13.06h2.223c-5.998 0-2.964-.173 8.878 2.613 7.5 4.418 11.27 10.473 17.77 15.675 1.88 8.12 4.57 21.258 8.886 28.737 1.582 10.44 2.903 20.23 6.662 26.123m-235.427-133.227v13.062c6.38 6.5 11.842 7.837 24.426 7.837 9.932.9 17.076 2.613 28.873 2.613h31.096c11.865 0 14.28.2 17.764-13.062 4.554-7.273-1.482-9.784-4.44-15.675l4.44 15.675c4.554-7.273-1.482-9.784-4.44-15.675m197.655 368.344h2.223c-6.968 0-2.804-.542 8.878 10.45 1.375 7.815 4.187 11.927 6.662 18.286" class="C"/></g><path d="M-4013.656-1178.917h-2.22c6.538 0 2.853-.447-8.883 7.837-6.534 5.38-10.958 13.3-13.325 23.512-7.75 6.077-3.372 10.11 6.662 10.45 13.3-.19 16.765-1.75 24.43-10.45 5.383-4.75 8.787-12.38 4.44-20.9l-4.44 20.895c5.383-4.75 8.787-12.38-6.662-31.35z" class="B D H"/><path d="M-3342.944-1066.586v2.612c0-7.05-.145-3.468 2.216 10.45 1.184 3.235 2 5.927 4.447 7.837m15.57-23.515v13.062c3.9 6.2 7.358 13.55 11.1 18.286m11.046-23.51v2.613c0-7.7-.382-3.36 6.662 10.45.94 3.315 1.627 4.12 4.447 5.225m-699.56-28.73v13.062c-1.656 9.735-6.86 16.43-11.104 20.9l11.104-20.9c-1.656 9.735-6.86 16.43-11.104 20.9m35.537-26.124v13.062c-3.193 5.365-5.023 8.504-8.883 10.45m28.87-28.744v13.062c-.545 6.406-2.968 9.896-4.44 15.674m33.313-33.957h2.22c-.6 1.738 0 11.66 0 18.287-2.4 5.244-5.928 6.2-8.883 10.45" class="C G H"/><path d="M-3760.487-1602.125h-2.216c.772 2.44 3.1 14.63 4.44 18.286 6.143 5.163 9.367 13.33 13.325 20.9 5.532-7.5 6.662-13.928 6.662-28.736-2.95-10.035-11.9-9.026-22.2-10.45zm259.847 10.453c-.65 0-6.494 4.823-13.325 7.837-1.65 14.33-.917 15.882 4.44 26.124 10.605-.96 10.842-3.768 13.325-15.675 4.905-7.698 1.46-5.946-4.44-18.286z" fill="#2b2b2b" class="B"/><path d="M-3549.462-1552.488h-8.886c-11.842-2.488-18.367-3.3-26.65 5.225-2.552 11.2-3.935 20.282 2.223 26.124 7.556 2.174 12.033 5.805 19.987 7.837 4.286-8.193 7.778-14.15 13.325-23.5 5.127-2 1.467-6.478 0-15.675v15.675c5.127-2 1.467-6.478 0-15.675m-113.304-.001l-2.216-2.613c5.035 5.926 3.2 3.075-8.886-2.612-10.238 0-21.844-.143-28.873 2.612-2.8 6.562 3.37 11.48 8.886 15.675 6.105 4.882 11.392 11.108 15.54 18.287 6.173 5.335 7.518 12.818 15.548 15.674 3.6-8.914 6.7-15.385 8.886-28.736-1.398-4.922-5.073-10.32-8.886-18.287z" class="C G H"/><g class="B"><path d="M-4053.63-1191.985c-2.567 0-18.52-.168-24.43 2.612-6.13 11.22-4.847 17.398 2.22 23.5 1.854 14.477 5.944 15.085 19.988 15.675 5.898 5.203 11.507 3.33 13.325-5.225 3.8-7.45 1.963-15.613-2.22-20.9 0-8.188.462-1.932-8.883-15.674zm-46.636 49.637h-2.22c6.208 0 2.495-.804-2.22 13.062 0 8.07-.57 16.523 2.22 20.9 7.976 0 17.495.714 22.2-2.613 3.664-11.492 4.224-20.112-4.442-23.5-2.937-5.182-7.556-5.1-15.546-7.838zm84.396 31.348h-11.104c-4.688 4.762-10.434 10.514-13.325 18.287 9.297 2.982 12.034 8.93 17.768 15.674 14.486-.205 16.528-1.015 17.767-18.286 0-10.205.324-4.023-11.104-15.675zm757.275 13.066h-11.1c-10.414 3.962-12.393 8.2-13.325 23.5 6.517 4.63 14.807 10.015 24.426 13.062 6.953 4.783 16.213 6.707 26.657 2.613 4.324-8.27 7.877-10.512 8.878-23.5-7.6-2.726-19.445-8.093-24.426-13.062l24.426 13.062c-7.6-2.726-19.445-8.093-35.535-15.675zm22.233-62.694h-2.223c6.968 0 2.7-.683-6.662 13.062-2.353 12.76-.45 17.58 4.447 28.736 9.833 5.7 10.82 14.46 19.987 18.286 4.263 5.018 2.223-6.754 2.223-13.062 1.887-13.828 5.753-17.523 6.662-31.348-2.04-9.784-4.706-15.133-13.325-18.286l13.325 18.286c-2.04-9.784-4.706-15.133-24.434-15.674zm51.114 7.836h-2.223c6.96 0 2.682-.68-6.662 13.062-4.294 8.325-4.44 20.926-4.44 33.96 3.667 11.645 9.07 4.453 13.325-2.613 7.526-6.024 10.628-8.452 11.1-23.5 0-12.335.122-6.8-11.1-20.9zm31.096 36.57h-2.216c6 0 2.957-.173-8.886 2.613-7.373 9.937-12.966 15.054-15.548 28.737 10.414 2.662 17.183.825 28.873-2.613 4.768-12.245 5.287-9.86-2.223-28.737z" class="D H"/><path d="M-3676.606-1547.364h-5.2c-2.04 3.166-.9 6.542 1.04 9.644 1.07 4.137.626 5.726 4.15 7.232 2.515 3.487 5.97 5.255 10.383 6.026 7.16-.757 4.414-2.884 3.1-8.438-2.414-3.235-2.343-6.632-6.232-8.437-1.12-1.965-4.383-3.765-7.262-6.028zm108.55.684c-.876.246-5.675 2.933-7.772 4.436-3.567 5.64-4.875 7.46-3.34 13.3 3.686 1.963 7.848 3.566 13.34 4.436 5.437-1.394 5.254-4.9 5.556-11.83-1.178-3.66-3.946-5.904-7.783-10.35zm-120.036 142.997v14.967c2.8 14.483 3.112 19.397 17.23 20.963h103.383c10.826-1.236 9.846-4.193 9.846-17.965 1.62-3.07-1.242-12.65-4.923-17.965-9.734 4.203-12.138 15.1-24.615 17.965-14.183 0-20.848.185-27.076-8.982-7.078-5.573-7.788-16.605-14.77-5.995-7.948 5.84-15.367 8.982-29.538 8.982-15.038 0-15.262-2.02-29.538-11.97z"/></g><path d="M-3655.098-1477.21h2.462c-7.713 0-3.117-.64 9.846 11.98 1.04 7.17 2.462 8.725 2.462 17.965" class="C G N"/><path d="M-3658.776-1457.525h-6.4c1.85 2.872 3.24 17.973 6.4 23.854 31.94 0 16.986-3.337 0-23.854zm47.94 6.973h-1.543c4.315 0 2.018-.287-6.175 4.64-2.957 6.277-7.312 9.3-1.543 16.25 6.405.543 9.636 2.316 16.98 2.316v-16.243 16.243c0-5.414 0-10.83-7.718-23.206z" class="B"/><g class="G"><path d="M-3604.15-1474.222h-2.462c6.642 0 3.28-.206-9.846 2.987-2.572 5.295-6.24 10.826-9.846 14.978" class="C N"/><g class="I"><path d="M-4003.947-723.2c-4.68 0-22.16.406-31.97-2.676-11.985.554-14.34 4.918-23.443 8.046-10.472-.49-16.115-2.685-27.706-2.685-8.332-5.656-14.164-10.196-25.574-10.73-8.503-1.44-16.844-2.676-27.706-2.676-12.425.185-16.917 4.844-25.575 10.72-3.97 7.344-9.057 14.228-14.918 21.46-4.69 8.673-8.795 12.382-17.05 21.452-4.523 8.37-9.236 12.558-12.788 26.822 0 12.364-.116 26.38 2.13 34.868 1.397 13 3.927 19.533 4.263 34.858 0 14.09-.743 25.55-4.263 37.553-2.35 13.314-6.4 21.637-10.656 34.868-2.235 8.442-3.598 23.168-4.262 34.868 1.564 11.2 5.86 22.052 8.525 34.858 2.576 12.973 4.665 24.146 8.525 32.183 2.483 10.343 6.18 9.384 6.393 24.137 0 14.56 1.996 20.797 2.13 34.868 3.182 8.01 4.698 21.12 6.393 32.183 5.07 7.75 6.34 15.953 14.92 21.46 1.832-12.908 3.528-22.855 4.262-34.868 1.23-8.673 1.61-23.943 4.263-29.498 2.326 10.73 6.198 16.082 8.525 26.813 4.076 6.2 7.586 18.27 10.655 26.822 4.377 1.504 4.263-.507 4.263-10.73 2.51-9.467 3.917-20.42 6.393-32.183v-10.72c5.27 7.64 8.878 18.14 12.788 26.813 4.005 7.418 8.117 15.04 14.918 21.46 10.25 3.036 8.525.018 8.525-13.416v-37.543c.444 15.086 3.912 18.047 6.394 29.498 5 6.293 7.366 11.71 17.05 13.416 4.21-8.61 8.605-13.148 12.787-24.137 0-14.8.92-23.307 4.263-32.183 6.346-9.91 9.18-13.47 17.05-21.46 8.303-9.32 16.208-18.564 25.574-24.137 5.244-9.513 11.45-15.732 19.18-24.137 8.664-10.103 15.966-21.996 21.312-34.868 6.21-7.815 11.893-21.065 14.918-34.868 5.68-11.2 7.523-24.202 8.525-40.228 4.556-13.083 8.48-25.853 10.656-40.228 0-14.42-.92-26.26-2.13-37.543-5.28-11.164-8.776-24.764-12.788-32.192-2.517-9.928-8.537-21.96-10.656-32.183-5.465-12.87-4.93-17.254-19.18-18.767-6.7 0-5.746-1.043-14.918-5.37z" class="B F K"/><path d="M-4197.9-664.24v2.685c0-7.243-.14-3.562 2.13 10.72 1.15 10.703 2.13 21.203 2.13 34.868 0 13.674.982 24.165 2.13 34.868 1.06 11.127 2.957 17.134 10.656 24.137m4.278-42.878c1.503 0 2.295 8.258 6.393 13.416 2.155 9.946 6.012 20.206 10.656 32.183 2.1 13.702 5.08 20.345 8.525 29.498 2 6.293 2.76 14.458 6.393 18.776v-75.096c-1.948-13.73-4.178-22.32-6.393-34.868v-16.1m14.92 40.21c.4 5.536 3.284 23.27 6.393 32.192 2.846 9.393 6.244 20.4 10.656 26.813.9 6.422 3.056 9.633 6.394 16.1 7.356-7.464 12.904-13.425 14.918-26.813 3.227-9.476 5.662-20.225 6.393-32.192.757-13.342 3.068-23.74 4.263-34.858 0-14.06-.012-24.322-4.263-32.183l4.263 32.183c0-14.06-.012-24.322-4.263-32.183m10.653 69.773v2.685c0-7.243-.14-3.562 2.13 10.73 1.535 8.876 2.13 19.893 2.13 32.183-2.315 1.938-3.187 7.566-4.263 10.72m19.2-96.546v13.406c0 11.727.883 27.283-2.13 34.868 0 13.674-.982 24.165-2.13 34.868 2.813 17.697 5.183-1.033 6.394-8.046 2.56-8.452 5.248-22.458 8.525-29.507 1.325-13.997 3.86-21.212 4.262-34.858 2.16-10.87 2.13-22.54 2.13-34.868m12.783-32.238c.742 0 6.443 6.735 12.787 10.73 1.48 12.364 5.02 16.7 6.394 29.498v13.406m-21.315-72.364c2.736 1.44 12.676 10.16 17.05 13.406 5.846.738 7.9 1.07 8.525 8.046m-27.7-37.6h10.656c5.106.7 4.654 2.685 10.656 2.685" class="C"/></g><g fill="#d30f0f" class="B F I"><path d="M-3240.12-687.345h-10.66c-9.53 2.196-12.633 7.917-17.047 16.1l17.047-16.1c-9.53 2.196-12.633 7.917-17.047 16.1m31.96-32.235l-2.126-2.685c4.692 5.905 3.1 2.925-8.527 0-7.127-1.855-7.794-1.855-14.92 0"/><path d="M-3255.004-722.222h10.66c12.897 1.3 23.33 5.167 36.227 5.36 10.75 0 20-1.21 29.834-2.676 6.034-3.8 18.396-2.685 27.707-2.685 12.134 0 17.692 1.633 27.707 5.36 7.288 2.4 18.887 7.123 25.574 10.73 7.024 4.18 13.68 7.197 21.314 13.406 8.16 6.966 10.206 11.432 10.653 26.822l-4.26 34.868c.748 13.222 3.043 24.626 4.26 37.543 2.3 11.626 2.134 24.432 2.134 37.553-1.635 9.937-5.088 9.2-8.527 18.776 6.005 4.982 13.36 14.615 17.054 21.452 1.782 12.585 3.88 24.09 4.26 37.543 0 15.05-.28 23.362-4.26 34.868-2.78 12.973-6.1 18.444-8.527 32.183-1.826 10.565-5.345 21.36-8.527 29.507-3.527 6.523-5.954 21.018-8.52 29.498-1.334 12.77-4.597 24.92-8.527 32.183-2.17 10.01-3.248 17.512-10.653 21.46-6.342-1.993-4.267-7.16-4.267-16.09 1.518-10.694 2.4-18.6 0-26.822-6.973-2.067-7.442 4.19-10.653 16.09-4.524 6.117-4.795 14.006-10.66 18.776-7.273 11.08-9.84 7.17-14.913-8.046 0-14.255-1.4-22.873-2.134-34.868-1.144-17.31-2.47 9.66-4.26 13.406-2.412 13.656-6.122 18.39-8.527 29.507-8.762 4.032-12.127 3.93-12.787-10.73 1.7-11.985 2.134-24.202 2.134-37.543-5.352-7.77-5.74-1.652-8.527 5.36-.47 15.88-3.644 17.79-8.527 26.822-7.12 5.296-5.477 5.37-8.527-8.046-3.387-10.168-5.888-14.006-12.787-18.776-6.122-6.68-11.357-8.046-23.44-8.046-11.137-.517-16.563-5.093-25.574-8.046-8.505-3.063-16.775-5.416-21.314-10.73-4.047-7.492-9.883-17.134-14.92-29.498-5.492-12.622-8.102-20.548-8.52-34.868-1.833-12.88-3.035-27.08-4.267-40.228-2.412-18.24-5.983-38.097-8.52-56.32-3.673-14.366-7.244-27.025-8.527-42.913-4.238-11.782-6.57-24.598-8.527-37.553 0-12.364-.117-26.38 2.134-34.858 4.062-9.92 8.718-16.617 12.787-24.146 5.997-9.356 9.957-16.184 19.18-24.137 4.758-7.15 14.15-12.022 21.314-16.09 4.817-2.593 8.094-3.377 17.047-5.36z"/><path d="M-3233.668-657.9v2.685c0-7.898.6-3.146-10.653 5.36-5.822 6.975-11.027 9.365-17.054 18.776-1.364 4.014-4.084 7.298 0 10.73m25.507-8.027v2.676c0-7.234-.14-3.562 2.134 10.73.374 12.705 2.134 18.453 2.134 32.183-3.923 8.22-1.62 19.717 2.126 29.507 3.343 11.7 7.6 19.847 10.66 29.498 4.546 1.9 2.126-2.058 2.126-10.73-2.757-10.417-1.642-23.916 0-37.543v-32.183m38.376-29.49h-2.126c5.954 0 2.4-.82-2.134 13.416v37.543c-2.244 8.5-2.134 22.504-2.134 34.868-2.266 13.148-3.776 17.032 8.527 21.452 3.2 6.246 7.45 9.854 10.66 16.1 4.047-12.576 8.336-23.953 10.653-37.543 3.4-7.75 4.795-23.63 6.393-34.868 3.512-5.37 7.955-15.28 10.653-21.452m14.937-26.83v2.685c0-7.243-.14-3.562 2.134 10.72.16 11.727 2.126 20.243 2.126 32.183-4.194 7.778-4.788 18.72-8.52 29.507-3.732 12.724-6.254 22.57-6.393 37.543 0 9.005-1.906 18.75 4.26 13.416 4.384-11.875 8.116-24.755 10.653-37.553 4.685-11.644 7.28-20.52 10.66-29.498 1.114-11.792 1.32-26.453 4.26-37.553l-4.26 37.553c1.114-11.792 1.32-26.453 4.26-37.553m31.996-40.18l-2.126 2.685c4.2-5.287 2.376-3.912 0 8.046 0 12.327 1.1 29.405-2.134 37.543-1.5 15.962-3.343 21-10.653 32.183-1.48 4.66-4.253 11.616-6.393 13.416m-100.183-2.713v2.685c0-7.243.14-3.562-2.134 10.73-4.07 5.905-10.147 17.272-12.787 26.813-1.752.738-5.792 2.685-2.134 2.685m10.676-13.388h2.126c-5.954 0-2.398-.84 2.134 13.406 1.708 8.6 4.685 7.492 6.393 16.1"/></g></g><path d="M-4039.297-11.534c-2.013 0-1.213 6.855-2.13 16.1V42.1c1.382 13.277 5 25.853 10.656 32.183 3.395 4.272 10.578 11.1 14.918 16.1 0-14.246 1.398-22.873 2.13-34.868 3.566-7.667 4.667-19.68 8.525-26.822.94-15.38 5.35-15.5 8.525-29.498 3.645-6.67-3.915-7.252-10.656-8.046-7.958-2.353-15.425-5.693-21.312-10.73l21.312 10.73c-7.958-2.353-15.425-5.693-31.97-2.685zm110.82-5.352h-2.13c6.272 0 2.5-.775-4.263 13.406 0 13 .492 25.383 2.13 34.868 4.4 6.7 5.954 17.706 8.525 26.822 3.813 2.953 6.188-4.3 8.525-10.73 4.316-13.416 9.162-19.7 10.656-32.183 2.342-10.804 6.36-15.243 8.525-26.822-4.53-11.902-6.922-17.06-19.18-18.767-5.354 6.735-1.318 1.864-12.788 13.406zm558.36-2.676h2.126c-1.15 3.884-2.126 15.962-2.126 24.137-1.6 11.22-3.3 21.12 0 32.192 6.115 3.386 10.067 5.942 12.787 13.406 4.978 5.278 6.078 8.027 6.393-5.36 4.62-12.807 6.804-16.018 12.787-26.822 4.23-9.107 5.873-15.28 4.26-29.507-5.506-14.043-8.622-15.695-21.314-18.767-13.366 0-13.175 12.558-17.047 24.137m106.614 2.64h-2.134c1.708 5.6 4.26 17.2 4.26 26.822 1.7 11.985 2.134 24.2 2.134 37.553-1.268 10.657-3.4 10.72 6.393 10.72 4-11.95 7.134-20.935 12.787-26.813 2.727-11.275 5.975-18.047 6.393-32.192 0-11.072.66-25.16-2.126-32.183-15.463 0-14.964 2.685-27.707 16.1zm93.775-58.96h-2.134c5.954 0 2.786-.323-8.527 5.37-5.28 8.7-13.388 13.056-10.653 26.822 10.653 4.52 16.62 7.824 21.314 16.1 6.782 4.687 11.702 8.22 14.913 16.1 3.893 3.257 6.16 8.36 8.527 13.406-1.276-13.5-3.512-22.55-4.26-34.868-.147-15.187-2.273-20.622-6.393-29.498-.865-9.734-3.116-7.52-12.787-13.416zm14.883-53.7h-2.126c6.27 0 2.735-.46-8.527 8.046-4.773 10.85-4.9 20.013-2.134 29.498 10.44 1.956 14.627 7.658 19.18 16.1 6.357 8 10.763 13.397 17.054 18.776-4.56-9.77-8.637-18.684-10.66-29.498-.352-11.93-1.9-20.603-4.26-29.507l4.26 29.507c-.352-11.93-1.9-20.603-12.787-42.913zm-939.86 53.7c-.716 0-6.828 4.955-10.656 10.73-10.367 7.197-15.946 11.34-17.05 26.822-.374 12.705-2.13 18.453-2.13 32.183 3.02 3.8.548 15.4 4.262 10.73 6.498-8.996 9.84-17.17 17.05-24.137 4.83-5.794 13.788-11.884 21.312-16.1 11.922-4.364 10.993-2.888 4.263-16.1-3.792-8.083-8.792-12.465-17.05-24.146zm-14.922-50.93h-2.13c6.274 0 2.738-.46-8.526 8.046-5.334 8.387-11.922 10.823-14.918 21.452-4.962 7.557-6.257 15.26-6.393 29.498.196 8.682 1.328 16.848 4.262 21.46 2.846-10.094 6.312-16.045 14.92-21.46 5.294-4.3 6.737-10.085 12.787-13.406 4.388-2.362 9.244-.932 10.656-8.046-1.4-16.442-5.338-21.258-10.656-37.543z" fill="#000f0f" class="D I B F"/><g class="G I"><path d="M-3947.656-196.622v2.676c0-7.9.365-3.45-6.394 10.73-7.433 3.737-13.98 5.36-25.574 5.36-6.456 6.1-10.68 4.217-14.918 16.1-5.7 7.538-8.33 11.7-17.05 16.1-9.825 0-20.964.138-27.706-2.685-7.154-4.862-17.385-8.5-25.574-10.73-11.566.175-17.35 3.608-25.574 8.046-8.805 2.6-14.33 6.025-19.18 13.416-5.73 2.88-5.73 7.188-6.393 16.1 3.042 6.376.27 9.863 6.393 10.72 3.4 5.25 4.263 5.435 4.263 16.1 2.288 11.524 1.974 26.03 4.262 37.553 4.9 14.717 8.625 15.888 17.05 24.137 7.3 4.355 12.538 8.572 21.312 13.406 7.847 5.075 17.283 5.785 25.574 8.046 6.813 10.122 11.177 14.135 21.312 18.776 10.456-1.984 12.088-7.566 21.312-10.73 3.6-4.53 9.2-.82 12.787-8.046 3.128-7.594 4.514-24.746 8.525-32.183 4.677-11.94 11.1-17.992 21.312-21.452 5.6-5.296 12.1-5.95 19.18-2.685-.47 15.925-4.514 16.58-6.393 29.507-3.654 8.507-5.998 16.027-2.13 24.137 8.9 3.737 19.64 2.676 29.837 2.676 13.755-2.916 14.753-6.874 14.918-24.137-2.03-10.86-5.1-17.54-6.393-29.498 0-8.286-.547-16.968 2.13-21.46 4.454 2.058 14.728 3.312 19.18 5.37 3.646 9.17 6.745 11.552 14.92 8.046 2.588-5.075 6.547-8.793 8.527-13.416 2.156 7.38 6.342 13.988 10.653 10.73 4.494-11.8 7.618-15.538 17.047-18.776 9.026-2.464 14.957-5.804 21.314-10.72 6.452-5 10.463-11.487 17.054-16.1 4.516-8.876 9.1-14.772 10.653-29.507 0-15.787-2.537-26.213-4.26-40.228-4.75-9.384-7.1-19.505-14.92-26.822-6.2-4.687-14.942-1.144-23.447 0-9.53-.923-16.38-2.676-27.7-2.676-10.932 0-19.35 2.205-29.84 2.676h-29.836c-12.368 0-18.85 2.178-27.706 8.046-6.274 0-1.767-.766-8.525 13.416zm496.596 96.604c3.66 1.153 13.373 7.114 21.314 8.046 8.263.544 6.393 3.368 6.393 13.406 3.057 2.205 6.027 8.406 10.653 10.73 1.7-3.967 5.147-10.14 8.527-13.406 1.972 5.785 4.216 12.04 10.653 16.1 5.404-12.9 4.942-15.88 19.18-16.1 8.96 10.694 6.3 20.622 0 29.498-3.138 11.432-4.472 21.35-6.393 34.868 4.172 6.505 9.715 5.36 19.18 5.36 6.393-4.816 14.73-2.528 19.18 2.685 12.794-.803 12.325-2.925 12.787-18.776V-65.15c4.714-5.933 9.788-7.53 14.92-2.685 5.323 5.536 7.882 18.38 12.787 26.822.726 11.792 1.884 22.633 6.393 29.498 4.8 12.63 6.38 15.5 19.18 16.1 11.16-.166 17.34-2.104 27.707-5.36 9.54-2.196 12.64-7.926 17.054-16.1 10.55-3.57 13.505-7.483 25.574-8.046 10.976-3.072 14.356-8.027 21.307-13.406 4.6-6.67 6.628-16.673 10.66-24.146 3.2-10.02 7.06-14.624 8.527-26.813.872-14.283 5.47-17.632 8.52-29.507 1.892-9.494-1.877-15.482-8.52-21.452-5.47-5.97-13.447-7.427-21.314-10.73h-59.674c-10.873 0-19.67-1.762-29.84-2.685-8.593-6.237-12.64-10.37-19.18-18.767-9.246-1.735-18.022-8.286-25.574-13.416-6.02-9.393-11.966-11.026-17.047-18.767-8.674-4.632-13.117-10.638-23.447-16.1-8.8-5.914-13.733-8.96-25.574-10.73-10.17-.913-18.968-2.685-29.834-2.685-12.28 0-18.938 4.53-27.707 8.046-7.398 9.836-12.955 10.648-14.92 24.137-3.013 7.594-2.134 23.14-2.134 34.868 2.14 12.576 6.408 24.626 8.527 34.868.843 11.293 2.134 17.245 2.134 32.183z" class="K B F"/><path d="M-3998.803-116.165c-4.638-.858-20.872-2.685-31.968-2.685-8.548 2.344-15.224 4.88-25.575 5.37-7.84 2.316-16 5.204-21.312 10.72-7.158.85-9.393 3.718-17.05 5.37m98.038 5.4h-2.13c6.274 0 2.738-.46-8.525 8.046-8.46 9.3-14.35 13.97-19.18 26.822-5.785 6.062-7.405 11.45-14.918 13.406-4.458 5.96-8.924 11.23-12.788 16.1m775.745-56.338h2.126c-5.954 0-2.786-.332 8.527 5.36 8.916 9.8 9.3 14.717 21.314 16.1 11.232 5.148 12.435 8.212 17.047 21.46 1.554 4.55 2.134 8.442 2.134 16.1m-46.896-93.876c3.43 1.66 15.536 9.8 23.44 10.73 8.505 1.45 16.85 2.685 27.707 2.685 10.037 1.707 15.22 5.702 25.574 10.72h17.054" class="C"/></g><g transform="matrix(.8956 0 0 .96835 -4129.7 -983.53)"><path d="M520.83-31.396c-1.257 30.996-9.085 49.26-35.434 49.26-17.716 0-35.764-14.533-35.433-32.84s22.568-19.43 37.86-17.924c5.425-14.917-20.142-31.337-91.008-31.337-70.164-.856-124.67 67.913-216.75 65.682s-132.95-105.69-115.44-131.362c-6.86 22.856-22.32 37.052-29.182 59.91S60.02-15.313 53.158 7.543 1.137 44.273-5.724 67.13s-5.123 54.373-11.984 77.23c0-16.42 31.404-55.358 73.414-55.358 35.433 0 152.45-25.056 159.45 246.3 0 213.657-140.57 222.092-185.5 206.93-.1 25.76 15.59 105.828 87.422 187.77 77.143 82.1 166.25 93.566 183.74 92.425-8.22-22.856-42-49.262-10.087-49.56 21.226.297 27.953 42.68 27.953 42.68s34.536-24.32 46.04-12.197c11.11 19.075-35.05 35.498-35.05 35.498s23.432 51.7 53.15 82.1c35.434 43.395 86.746 57.826 106.3 58.4 9.5.287 27.872 7.23 27.21 23.7-1.315 32.788-1.273 48.628-18.42 49.258h127.47c-17.146-.63-17.104-16.47-18.42-49.258-.66-16.47 17.7-23.412 27.21-23.7 19.554-.584 70.866-15.015 106.3-58.4 29.718-30.4 53.15-82.1 53.15-82.1s-46.16-16.424-35.05-35.498c11.505-12.123 46.04 12.197 46.04 12.197s6.727-42.385 27.953-42.68c31.923.297-1.866 26.703-10.087 49.56 17.494 1.14 106.6-10.325 183.75-92.425 71.83-81.943 87.53-162.013 87.42-187.77-44.95 15.16-185.52 6.725-185.52-206.93C915.12 63.948 1032.144 89 1067.574 89c42 0 73.42 38.937 73.42 55.358 0 4.094 4.05-23.32-3.67-48.265s-46.3-42.918-56.6-78.226 7.72-87.95 0-114.948-22.06-32.84-22.06-32.84c17.5 25.67-23.37 129.13-115.45 131.362s-146.6-66.54-216.75-65.682c-70.866 0-96.433 16.42-91.008 31.337 15.29-1.504 37.527-.384 37.86 17.924s-17.717 32.84-35.433 32.84c-26.35 0-34.177-18.266-35.434-49.26h-81.6z" fill="#0068bd" class="B"/><g class="D"><path d="M215.15 335.313c0 213.657-140.57 222.092-185.5 206.93-.1 25.76 15.59 105.828 87.422 187.77 77.143 82.1 166.25 93.566 183.74 92.425-8.22-22.856-42-49.262-10.087-49.56 21.226.297 27.953 42.68 27.953 42.68s34.536-24.32 46.04-12.197c11.11 19.075-35.05 35.498-35.05 35.498s23.432 51.7 53.15 82.1c35.434 43.395 86.746 57.826 106.3 58.4 9.5.287 27.872 7.23 27.21 23.7-1.315 32.788-1.273 48.628-18.42 49.258h127.47c-17.146-.63-17.104-16.47-18.42-49.258-.66-16.47 17.7-23.412 27.21-23.7 19.554-.584 70.866-15.015 106.3-58.4 29.718-30.4 53.15-82.1 53.15-82.1s-46.16-16.424-35.05-35.498c11.505-12.123 46.04 12.197 46.04 12.197s6.727-42.385 27.953-42.68c31.923.297-1.866 26.703-10.087 49.56 17.494 1.14 106.6-10.325 183.75-92.425 71.83-81.943 87.53-162.013 87.42-187.77-44.95 15.16-176.2 15.347-176.2-198.31-2.107-8.48-2.776-25.292-4.275-33.203s-35.472 24.808-38.855 24.642c-11.423-.333-46.732-30.295-71.856-34.36-11.852-1.755-50.628 30.87-60.175 31.507-12.495.673-28.5-33.342-55.13-29.85-19.595 2.876-35.643 33.867-40.445 29.435-12.35-11.398-25.95-18.557-41.7-21.264-23.548-1.89-36.935 15.21-49.6 29.28-.443-11.488-17.165-22.978-36.213-21.534-13.7-129.75-122.9-262.234-131.8-266.386-6.593-2.444-4.078 12.607-6.117 18.91L331.424 58.43c-3.18 7.493-1.712 14.986-9.545 22.48-19.86-13.854-30.42-40.64-45.63-41.562-5.423 16.507-1.544 50.257-2.316 75.385l-37.724-23.26-3.03 24.6c-1.214 9.853-51.204-26.508-61.016-26.745s-21.48 25.445-30.295 25.307 56.995 39.836 73.293 220.674z" fill="#e8e1cb" class="B L"/><path d="M200 239.8s23.255-30.175 51.16-25.864 58.135 99.145 58.135 99.145M279.05 114.8c0 4.3 18.603 73.28 34.88 94.835s53.485 38.795 72.088 64.66 27.905 96.986 27.905 96.986M320.9 82.47s6.977 34.485 18.604 60.35 39.532 34.484 53.484 56.038 23.255 64.66 23.255 64.66M211.6 388.523s32.555-4.3 60.46 30.175 32.556 79.746 32.556 79.746M813.9 341.105s20.93-2.156 34.88 12.93 11.627 25.864 9.302 25.864m-46.512-17.235s18.603 0 25.58 4.3 9.302 25.864 9.302 25.864m-46.502-8.625c2.325 0 16.278-12.93 25.58-8.622s11.627 28.02 11.627 28.02m-48.837-8.618s16.278-2.155 25.58 4.3 6.976 17.242 6.976 17.242M741.8 394.993c2.325 0 30.23 8.622 41.858 19.398s9.3 34.485 9.3 34.485m81.402-40.954s6.976-4.3 23.254 8.62 18.604 28.02 18.604 28.02M872.03 431.63s18.603 2.156 27.905 8.622 23.254 21.553 23.254 21.553m-58.13-2.155s23.255-8.622 32.556-4.3 25.58 17.242 25.58 17.242" class="C O"/></g><g transform="matrix(.54483 -.22219 .23288 .49056 695.97 290.53)"><path d="M-549.2-134.65v442.9h17.716v-442.9l-8.858-35.433-8.858 35.433zm283.453 0v407.48h17.716v-407.48l-8.858-35.433-8.858 35.433z" class="B D E M"/><g stroke-width="1.465" class="C D"><path d="M-248.027-99.215L-230.3 301.52"/><path d="M-248.033-99.215l53.15 400.734M-248.03-99.215l88.584 400.734"/><path d="M-248.03-99.215l124 400.734M-265.75-99.215l-17.717 400.734m17.717-400.734L-318.9 301.52"/><path d="M-265.75-99.215l-88.584 400.734"/><path d="M-265.75-99.215l-124 400.734"/><path d="M-265.75-99.215l-177.16 421.83m194.88-421.83l177.16 421.83m-336.6-84.367h301.18m-17.72-42.18h-265.75"/><path d="M-372.05 153.9h230.32m-17.72-42.2h-194.88m17.73-42.182c0 .692 159.45 0 159.45 0m-17.73-42.183H-318.9m17.72-42.183h88.583m-70.863-42.184h53.15m-301.2-21.092l17.717 400.734M-531.5-78.124l53.15 400.734"/><path d="M-531.5-78.124l88.584 400.734"/><path d="M-531.5-78.124l124 400.734M-549.22-78.124L-566.937 322.6"/><path d="M-549.2-78.124L-602.36 322.6"/><path d="M-549.2-78.124L-637.794 322.6m88.574-400.724l-124 400.734"/><path d="M-549.2-78.123l-177.16 421.83m194.86-421.83l177.16 421.83"/><path d="M-690.94 259.34h301.18m-17.72-42.18h-265.75m17.73-42.18h230.32m-17.72-42.188h-194.9m17.73-42.182c0 .692 159.45 0 159.45 0m-17.72-42.184h-124.02m17.72-42.183h88.583M-566.92-35.94h53.15"/></g><g class="B"><g class="D M"><g class="E"><path d="M-407.48 237.4h372.05v53.15l17.717 17.717H-35.43V343.7h17.717l-17.717 17.716 53.15 70.866-106.3 212.6H-655.5V361.42h88.583v-70.866h53.15l106.3-53.15z"/><path d="M-566.93 361.42h531.5m-531.5-17.716h531.5m-531.5-35.434h531.5"/></g><path d="M-513.78 290.554h478.35" stroke-width="1.268"/><g class="E"><path d="M-35.433 361.42l-141.73 283.46M-407.48 272.84h230.32m-265.74-17.72c34.35 1.54 407.48 0 407.48 0"/><path d="M-53.15 255.12l-17.716 35.433m0 17.717l-17.717 35.433M-230.32 308.27l-17.716 35.433m35.436-35.433l-17.717 35.433M-53.15 396.85h-88.582l17.716-35.433"/><path d="M-70.866 432.28h-88.583l18.76-36.853-1.044 1.42m53.15 70.873h-88.582l17.716-35.434m53.15 70.864h-88.583l17.717-35.433m53.146 70.863h-88.582l17.716-35.433"/><path d="M-141.736 574.013h-88.582l17.716-35.433M-53.15 396.85l70.866 35.433"/><path d="M-88.583 467.72l70.866 35.433M-160.45 433.8l-495.32-1.16m480.2 36.04c-1.162 1.162-480.2-2.326-480.2-2.326m443.17 72.226l-442 1.023"/></g><path d="M-230.317 574.02s-426.062-1.023-425.196 0" stroke-width="1.308"/><path d="M-159.454 609.446h-88.582l17.716-35.433m53.15 70.867h-88.582l17.716-35.433" class="E"/><g stroke-width="1.133"><use xlink:href="#C"/><use xlink:href="#C" x="124.016"/><use xlink:href="#C" y="106.3"/><use xlink:href="#C" x="124.016" y="106.3"/></g></g><path d="M-496.06 379.13h70.866v23.622h-70.866zm124 0h70.866v23.622h-70.866zm-124 106.3h70.866v23.622h-70.866zm124 0h70.866v23.622h-70.866z"/><path d="M-301.18-99.213h88.583v17.717h-88.583zm-283.47 0h88.583v17.717h-88.583z" class="D E M"/></g><path d="M-407.48 237.4v-17.717h372.05V237.4m-354.33-17.72v17.717m17.717-17.717v17.717m17.716-17.717v17.717m17.727-17.717v17.717m17.706-17.717v17.717m17.717-17.717v17.717m17.717-17.717v17.717m17.72-17.717v17.717m17.7-17.717v17.717m17.73-17.717v17.717m17.7-17.717v17.717m17.72-17.717v17.717m17.72-17.717v17.717m17.72-17.717v17.717m17.7-17.717v17.717M-124 219.68v17.717m17.7-17.717v17.717m17.72-17.717v17.717m17.72-17.717v17.717m17.7-17.717v17.717" class="C D E"/></g><g class="D"><path d="M32.92 587.963c-.1 25.76 12.3 60.104 84.133 142.05 77.143 82.1 166.25 93.566 183.74 92.425-8.22-22.856-42-49.262-10.087-49.56 21.226.297 27.953 42.68 27.953 42.68s34.536-24.32 46.04-12.197c11.11 19.075-35.05 35.498-35.05 35.498s23.432 51.7 53.15 82.1c35.434 43.395 86.746 57.826 106.3 58.4 9.5.287 27.872 7.23 27.21 23.7-1.315 32.788-1.273 48.628-18.42 49.258h127.47c-17.146-.63-17.104-16.47-18.42-49.258-.66-16.47 17.7-23.412 27.21-23.7 19.554-.584 70.866-15.015 106.3-58.4 29.718-30.4 53.15-82.1 53.15-82.1s-46.16-16.424-35.05-35.498c11.505-12.123 46.04 12.197 46.04 12.197s6.727-42.385 27.953-42.68c31.923.297-1.866 26.703-10.087 49.56 17.494 1.14 106.6-10.325 183.75-92.425 71.83-81.943 87.53-140.677 87.42-166.434-2.8.946-59.78-12.77-69.48-3.974-12.98-9.49-38.1-19.083-57.6-19.43-22.8-.35-43.29 8.545-50.318 23.83-13.606-18.242-53.266-27.396-61.64-26.204-27.333 4.36-44.374 38.295-35.418 80.948-20.64-18.31-27.998-20.11-51.11-20.168-50.423-.112-55.38 83.25-129.14 82.75-58.4-.412-83.08-29.12-100.3-49.864 22.25-17.695 20.85-24.602 6.13-42.417-16.69-16.74-42.762-15.24-60.658 1.673-17.897-16.42-18.06-25.992-35.776-49.262-17.315-22.743-29.608-24.994-61-24.877s-55.464 1.672-67.577 32.153c-15.402 7.964-37.213 24.622-54.09 21.336-10.298-25.99-43.228-56.183-71-56.538s-72.792 52.3-82.747 76.857c-17.683-34.35-36.276-39.048-51.79-39.762s-21.083 23.06-27.18 37.36z" fill="#00c8ff" class="B L"/><g class="C O"><path d="M167.72 531.138s16.443 9.144 36.175 36.577 3.29 39.625 3.29 39.625"/><path d="M184.16 546.384s32.886 3.048 46.04 24.385 6.577 45.72 6.577 45.72m-16.437 45.724s23.02-51.817 65.773-30.48 39.464 54.866 36.175 54.866H319v3.048m-55.9 24.377s23.02-9.144 49.33 0 9.866 30.48 9.866 30.48M259.8 726.22s26.3-6.096 42.752 3.048 3.3 24.384 3.3 24.384M200.6 735.36s3.3 24.384 19.732 39.626 46.04 21.336 46.04 21.336m95.378-48.765c32.886 15.24 39.463 42.673 39.463 42.673M374.9 735.36c49.33 0 46.04 27.433 46.04 27.433M302.56 589.056s29.598-21.336 69.062 0 16.443 48.77 16.443 48.77M322.3 552.474s39.464-24.384 72.35 0 23.02 42.673 23.02 42.673m19.73-27.427l19.73 30.48c9.866 15.24 26.3 12.193 26.3 12.193m42.75 67.057s23.02 30.48 75.64 36.577 98.66-12.193 98.66-12.193m-174.3 15.24s29.598 27.433 69.06 27.433 95.37-15.24 95.37-15.24m-164.43 15.242s16.443 24.384 75.64 24.384 85.504-12.192 85.504-12.192M522.9 781.08s6.578 12.193 36.175 18.3 59.196-9.144 59.196-9.144m-.01 15.24s19.732 24.384 46.04 24.384 0-36.576 19.732-42.673 49.33 0 49.33 0M605.1 842.05s19.732 24.384 49.33 18.3 65.773-51.817 65.773-51.817l23.02-15.24M388.06 899.96s3.288-15.24 39.464-9.144 0 51.817 39.463 51.817 75.64-21.336 98.66-24.384 65.772 21.336 88.793 27.433 65.773-24.384 65.773-24.384m-151.273 42.67c3.3 0 13.155-6.097 36.175-3.048s49.33 3.048 49.33 3.048M559.07 994.45s16.444-6.096 29.598-6.096 9.866 18.286 9.866 18.286M483.43 656.114c-3.3 0 16.443 0 26.3 3.047s13.154 24.384 13.154 24.384m-42.754-6.095s13.154-6.096 26.3 0 6.577 27.433 6.577 27.433m-42.747-3.048c0-3.047 19.732-9.144 26.3-6.096s6.577 30.48 6.577 30.48m-39.467 9.14s16.443-12.192 26.3-12.192 6.577 21.336 6.577 21.336m-36.187 18.3l23.02-12.192 9.865 18.288m253.235-146.3s13.155-3.048 32.886 0 26.3 24.384 26.3 24.384m-52.606.002c0-3.048 19.732-3.048 26.3 0s16.444 18.3 16.444 18.3m-6.584 45.718c-3.288 0 3.3 12.193 6.578 27.433s-13.155 30.48-13.155 30.48m72.357-70.1c-3.288 0 19.732 21.336 23.02 39.625s-16.444 36.577-16.444 36.577m9.874-85.35s23.02 30.48 23.02 45.72-16.443 39.626-16.443 39.626M894.5 668.302s9.866 12.193 13.154 27.433-6.577 39.625-6.577 39.625m23.023-30.475s16.443 18.3 9.866 33.53-19.732 27.433-19.732 27.433m36.186-51.824c-3.3 3.047 6.577 21.336 3.288 30.48s-19.73 24.384-19.73 24.384M957 665.253c0 3.047 23.02 21.336 23.02 42.673S966.866 750.6 966.866 750.6m-101.13-154.687s16.443 3.048 19.732 18.3-9.866 30.48-9.866 30.48m-3.286-76.205s26.3 27.432 32.887 36.576-3.3 30.48-3.3 30.48m-36.177-70.104c3.3 3.048 32.886 3.048 46.04 18.3s6.577 42.673 6.577 42.673"/></g><g fill="#ffd400" class="B"><path d="M503.45 7.085c5.813-4.65 24.417-15.115 59.298-13.953s59.3 17.44 59.3 17.44l-2.326-45.346S596.467-46.4 565.074-46.4s-58.136 6.976-58.136 6.976l-3.488 46.51z" class="E"/><path d="M-17.7 144.354c0 16.376 2.547 26.745 20.264 26.745s24.24-16.53 24.664-28.27c.538-14.822 3.5-37.413 38.92-37.413 17.717 0 128-10.9 131.3 229.887S13.2 526.902 13.2 526.902s-20.175 82.1 90.067 215.493c84.663 96.457 205.54 99.062 205.54 99.062s18.724 38.715 56.3 88.644c54.318 72.202 124.02 56.538 124.02 72.962 0 16.415-17.545 9.194-17.717 24.033.172 18 9.363 25.86 26.5 25.23s17.104-16.47 18.42-49.262c.66-16.47-17.7-23.412-27.2-23.7-19.554-.584-70.866-15.015-106.3-58.4-29.718-30.4-53.15-82.1-53.15-82.1s46.16-16.424 35.05-35.498c-11.505-12.123-46.04 12.197-46.04 12.197s-6.727-42.385-27.953-42.68c-31.923.297 1.866 26.703 10.087 49.56-17.494 1.14-106.6-10.325-183.74-92.425-71.832-81.943-87.53-162.013-87.42-187.77 44.945 15.16 185.5 6.725 185.5-206.93-7.02-271.363-124.04-246.3-159.47-246.3-42 0-73.414 38.937-73.414 55.358zm1158.7 0c0 16.376-2.547 26.745-20.264 26.745s-24.24-16.53-24.664-28.27c-.538-14.822-3.5-37.413-38.92-37.413-17.717 0-128-10.9-131.3 229.887s184.24 191.598 184.24 191.598 20.175 82.1-90.067 215.493c-84.663 96.457-205.54 99.062-205.54 99.062s-18.724 38.715-56.3 88.644c-54.318 72.202-124.02 56.538-124.02 72.962 0 16.415 17.545 9.194 17.717 24.033-.172 18-9.363 25.86-26.5 25.23s-17.104-16.47-18.42-49.262c-.66-16.47 17.7-23.412 27.2-23.7 19.554-.584 70.866-15.015 106.3-58.4 29.718-30.4 53.15-82.1 53.15-82.1s-46.16-16.424-35.05-35.498c11.505-12.123 46.04 12.197 46.04 12.197s6.727-42.385 27.953-42.68c31.923.297-1.866 26.703-10.087 49.56 17.494 1.14 106.6-10.325 183.74-92.425 71.832-81.943 87.53-162.013 87.42-187.77-44.945 15.16-185.5 6.725-185.5-206.93 7.02-271.363 124.04-246.3 159.47-246.3 42 0 73.414 38.937 73.414 55.358zM999.24-162.764c-26.42 0-22.65 24.762-17.717 39.834s35.433 25.848 63.117 9.428c-7.642 24.873-27.684 98.524-109.4 100.415-95.37-1.888-103.64-66.545-209.37-67.058S601.03-65.78 602.43-31.395c1.257 30.996 9.085 49.262 35.434 49.262 17.716 0 35.764-14.533 35.433-32.84s-22.568-19.43-37.86-17.925c-5.425-14.917 20.142-31.337 91.008-31.337 70.164-.856 124.67 67.914 216.75 65.682s132.95-105.698 115.45-131.362c-18.525-31.336-31.256-32.84-59.4-32.84zm-875.22 0c26.42 0 22.65 24.762 17.717 39.834s-35.433 25.848-63.117 9.428c7.642 24.873 27.684 98.524 109.4 100.415 95.37-1.888 103.64-66.545 209.37-67.058s124.84 14.364 123.44 48.75c-1.257 30.996-9.085 49.262-35.434 49.262-17.716 0-35.764-14.533-35.433-32.84s22.568-19.43 37.86-17.925c5.425-14.917-20.142-31.337-91.008-31.337-70.164-.856-124.67 67.914-216.75 65.682s-132.95-105.7-115.45-131.363c18.525-31.336 31.256-32.84 59.4-32.84z" class="L"/></g></g></g><use xlink:href="#B" class="C D J"/></g><defs ><path id="B" d="M-3655.7 400.08c17.72 2.98 674.45-205.8 673.23-531.5v-1594.5h-1346.5v1594.5c-1.22 325.7 673.23 531.5 673.23 531.5z"/><path id="C" d="M-496.06 379.13l-17.717 11.81v23.622h70.866l17.717-11.81"/></defs></svg>