<svg xmlns="http://www.w3.org/2000/svg" width="2000" height="1400" xmlns:v="https://vecta.io/nano"><path d="M0 0h2000v1400H0z" fill="#fff"/><path d="M1188.64 590.994l6.497-6.844 8.553 2.907-10.223 5.578-4.826-1.64zm-90.774 17.57l11.38-40.446 7.95 2.236 8.956 31.67 7.602-27.005 7.6 2.136-11.385 40.446-8.2-2.3-8.882-30.962-7.422 26.372-7.6-2.137zm101.4 32.95l-8.75-2.97-.404-10.223-15.906-5.398-6.348 7.932-8.522-2.894 29.006-34.527 8.497 2.882 2.43 45.198zm-9.453-20.764l-.472-16.627-10.385 12.944 10.857 3.683zm-118.973-20.633l-9.136-1.373-2.205-9.987-16.615-2.503-4.845 8.932-8.9-1.342 22.434-39.117 8.876 1.335 10.4 44.055zm-12.98-18.764l-3.4-16.28-7.925 14.578 11.335 1.702zm-89.73 4.28l4.192-41.807 17.77 1.782c4.472.447 7.677 1.155 9.627 2.105 1.944.95 3.435 2.447 4.466 4.485 1.02 2.05 1.404 4.298 1.155 6.77-.3 3.137-1.497 5.646-3.54 7.5-2.043 1.845-4.938 2.864-8.658 3.025 1.72 1.248 3.112 2.565 4.174 3.963 1.056 1.397 2.428 3.813 4.118 7.267l4.292 8.67-10.093-1.013-5.192-9.708-3.832-6.596c-.714-.925-1.503-1.584-2.366-1.994-.87-.404-2.26-.702-4.2-.888l-1.702-.18-1.745 17.46-8.453-.85zm10.87-23.28l6.236.62c4.05.404 6.602.5 7.646.255 1.037-.242 1.888-.758 2.547-1.535.646-.782 1.043-1.795 1.168-3.05.143-1.4-.124-2.578-.8-3.52s-1.67-1.6-3.02-1.963c-.67-.155-2.72-.4-6.15-.752l-6.584-.658-1.056 10.602zm-42.25 20.027l-9.217-.602-3.037-9.764-16.764-1.093-4.074 9.304-8.98-.584 19.055-40.862 8.956.578 14.062 43.024zm-14.5-17.602l-4.77-15.938-6.677 15.193 11.447.745zm-85.986 13.547l.534-42.018 13.602.174c5.155.062 8.522.323 10.08.764 2.397.658 4.404 2.05 6 4.18 1.596 2.136 2.38 4.876 2.335 8.2-.03 2.584-.528 4.745-1.5 6.484-.963 1.752-2.16 3.118-3.62 4.105-1.453.982-2.925 1.627-4.422 1.932-2.025.372-4.963.546-8.813.496l-5.522-.068-.2 15.844-8.484-.105zm8.925-34.795l-.155 11.913 4.64.056c3.348.044 5.6-.142 6.72-.57 1.13-.422 2.02-1.1 2.677-2.032.646-.932.988-2.012 1-3.255.02-1.52-.416-2.795-1.304-3.8-.876-1-2.012-1.64-3.38-1.9-1.012-.212-3.05-.323-6.106-.36l-4.093-.05zM717.1 914.1c-.708 1.267-.708 1.267-.478 4.627.807.255 1.615.5 2.708 1.05 3.13 7.16 6.478 13.7 8.335 21.54 3.478.702 5.286 3.956 8.646 2.826-.373-5.497-2.727-9.025-3.602-14.18l-1.578.1-7.4-11.788c-.95-2.392-1.646-4.8-2.317-6.9-.186-2.745-.106-5.5-.03-8.273-.807-.255-1.354-.528-1.882-.496-2.44-8.733-.913-17.4-4.938-26.043 4.696-16.547-15.298-26.925-17.993-.392 1.093.54 2.447 1.068 3.807 1.596 4.286 12.596 2.85 14.838-7.26 17.62-.484.646-.975 1.292-1.193 1.92-8.75-4.354-10.223-14.373-3.205-20.03 3.422-11.863 2.913-15.5 10.813-23.67l-.33-4.882c-15.192-5.782-18.236 15.56-16.577 28.328l-1.845.118c-2.783 9.677-10.863 3.447-16.05 1.013-1.466-6.038-1.466-6.038-1.15-9.118 11.3-4.702 12.745-6.938 18.478-19.87 2.77-2.012 5.578-3.422 7.192-6.895-4.137-6.478-20.05-7.3-26.763-5.043-.3-.596-.348-1.205-.4-1.814l-18.416 1.162.143 2.143c-8.242-.708-15.167-5.478-22.583-9.602-3.18-.105-6.074.075-8.97.26-1.876-8.155-11.05-14.932-16.44-20.416-1.286-7.273-10.708-25.372-6.1-31.5-2.3-2.92-2.3-2.92-5.33-4.565-1.453-9.714 2.5-13.95 8.2-19.217-1-3-1.733-6.018-2.44-8.733a13.49 13.49 0 0 1 1.876-3.49c4.733-.304 8.018 1.33 12.795 1.64L604.7 741c7.975.72 13.13 10.5 19.62 4.888-.963-6.38-1.634-12.465-2.3-18.552l6-4.98c-1.043-11.578-1.932-20.72-8.863-29.472-16.422-.497-8.553 21.993-10.217 32.52-10.534 8.335-12.112 8.435-22.05-1.665 1.373-3.155 2.764-6 4.16-8.844 10.522-.67 11.16-6.84 13.33-17.708l1.584-.1-.143-2.136 1.838-.118c.764-4.335 4.404-5.18 7.416-7.515l-.286-4.273c-14.16-6.155-23.124 9.74-34.738 13.85-2.956-.733-5.913-1.465-8.584-1.907-2.26-9.975-4.447-11.062 3.397-16.155 6.577-.416 12.006 1.7 18.056 1.305 6.273-4.994 14.205-4.888 21.614-4.74 9.1-6.1-16.577-14.584-17.937-15.112-4.453-3.397-4.453-3.397-17.602-10.223-9.82-.602-16.465-5.087-19.316-15.938-.807-.255-1.354-.528-1.882-.497l-.143-2.136c-5.82-3.92-5.174-6.105-5.143-13.466-3.242-5.006-5.168-6.112-6.373-12.16.5-.34 1.012-.677 1.783-1.037l-1.1-4.522c-9.807-4.285-6.602-27.167-7.565-37.527 1.33-3.764 7.08-4.745 10.13-6.472 2.913-3.857 2.913-3.857 4.97-8.6 6.578-.416 13.403 2.833 20.552 2.994.5 3.646 3.3 21.546 9.453 14.72-.075-8.882-.913-13.428 6.534-16.658-.54-7.932-4.956-10.72-8.304-17.248-3.764-.987-3.764-.987-8.987-.043-3.925-11.093-1.9-12.447 7.404-15.5 2.472 1.38 4.97 3.056 7.72 4.72 2.236 5.683 1.03 11.28 4.826 16.553 1.273-.7 2.807-1.404 4.348-2.112.2-.932.422-1.56.646-2.186l1.578-.1c-.98-6.683-1.186-21.385-4.956-26.353 1.155-10.186 1.155-10.186 2.975-14.596 4.714-.602 8.217.398 11.844 3.236l.783 11.596c-8.286 6.348-6.963 10.248-5.652 21.813l-1.584.1c.05 4.596.05 4.596 1.025 7.292 1.863.187 7.38.988 9.26 1.478 7.44-7.2 9.615-18.08 19.77-20.254-.348-1.205-4.342-3.02-4.67-3.92-2.627.168-1-.776-3.615-.304-.006-3.98-4.26-2.87-3.38-5.38 8.1-1.435 18.6 1.273 15.428 13.124-5.522 4.33-11.74 2.273-16.528 9.627-1.025 4.354-2.03 9.02-2.77 13.658 2.98 5.025 7.124 15.5 13.44 15.093.304.6.894 1.472 1.478 2.355l1.845-.118c1.503 6.652 3.28 13.28 5.068 20.217 5.708 2.398 5.708 2.398 7.174 4.447 8.695-4.23-1.98-9.683-5.124-13.16-.4-6.105-.565-12.224-.714-18.34 3.944-4.236 6.466-9.913 12.863-9.093 18.8 12.292 17.602 10.224 18.428 34.08 1.57 7.565 3.62 14.484-2.95 18.882-1.062 7.733 2.74 5.34 1.863 11.838l-1.584.1c-4.23 15.596-15.298 31.62-27.13 40.34-2.646 3.845-2.646 3.845-4.18 4.553l.124 1.832c-2.304 1.068-4.348 2.118-6.4 3.168-4.428 16.52 6.13 12.484 15.372 8.52 4.416-12.844 9.658-13.484 21.08-8.7 1 3 2.255 5.987 3.534 9.28-6.354 15.422-26.813 2.006-37.086 10.316-4 7.304-2.286 17.006 1.894 24.093 11 6.354 21.1 15.217 30.57 2.665l3.348-9.1c7.366-.472 28.62 12.894 33.6 19.938 1.783 14.596 8.223 31.658 17.105 41.825 1.28 3.292 1.988 6.006 1.714 9.702-7.8 17.652-17.484 34.515-17.962 54.775l6.056-.385-.2-3.05 1.845-.118c.516-8 3.217-14.92 9.348-18.062l.143 2.137c3.44.087 3.44.087 9.98 3.043 3.845 9.87-2.292 9.03-3.416 15.85-15.52.98-14.5.608-21.515 17.913 1.118 16.478 19.372 1.224 24.577 15.608 1.012-.677 2.286-1.372 3.56-2.068 2.584-8.745 14.857-3.087 19.186-17.155 1.826-.422 15.938 5.124 24.745 6.404 7.192 4.752 5.938 17.397 16.428 20.105.342 1.205.7 2.4 1.056 3.92l1.845-.118c.87 1.173 1.764 2.645 2.658 4.124 8.807 5.267 6.963 17.03 16.745 21.006 1.16 5.44.118 9.496.752 14.968 4.826 4.907 2.602 7.193 2.248 13.652 6.025 10.962-1.658 18.496-6.522 28.614.174 6.422.08 12.87-1.087 19.068 2.15.478 4.987 3.367 11.025 6.658l12.242-2.615c3.54 1.615 3.54 1.615 11.52 2.335 7.435-7.217 19.596.596 24.832-4.025l-.2-3.05c-2.248-2.007-4.497-4.007-6.727-5.708-.472-7.018.956-13.242 1.006-20.292 7.845-5.093 9.695-1.23 17.7-.205 7.447-14.875 20.826-.702 29.726 5.782 17.372 2.882 15.764 10.342 27.397 22.167 10.832 3.913 9.832 8.572 11.994 21 1.702 1.733 1.702 1.733 7.857 2.875 7.745 9.013 15.565-.372 21.9 11.18 1.1 4.528 1.1 4.528.292 8.255-11.627 7.788-12.72 22.875-.87 30.093 14.316.627 28.223 3.118 42.353.993l.118 1.833c4.578 1.242 4.578 1.242 16.44.8 6.484 2.037 12.98 4.385 19.745 6.714 15-.95 29.26-8.907 43.85-11.975 5.56-3.726 9.136-9.465 2.168-14.85l-5.814-15.57c2.416-7.2 2.975-14.596 7.037-20.98 1.05-3.515 3.994-8.335 5.08-12.615 1.814-7.124 2.267-13.484 8.1-15.192 1.224 6.36 3.795 9.26 7.043 14.267.752 3.323 1.522 6.95 2.565 10.565l1.838-.118c.124 1.832.273 3.968.677 6.087 5.963 10.043-1.46 13.577-2.72 22.242l.124 1.832c-3.012 2.335-5.745 4.962-8.472 7.584.714 2.715.714 2.715 2.677 4.428 3.074-1.422 3.9-4.845 7.522-5.994.385-2.167 1.03-4.354 1.67-6.54.77-.36 1.54-.714 2.57-1.087.118-2.15.497-4.323.9-6.187 17.515-10.615 26.677-4.142 10.186-25.167.57-6.124 6.335-12.584 9.105-18.782 3.925-8.782 5.397-17.273 8.242-25.533l4.2-.267c5.255 7.33 5.255 7.33 7.428 12.1l1.838-.118c.453 6.714 3.05 9.92 6.056 15.248-.056 3.068-.093 6.44.13 9.8-6.124 3.142-16.64 11.782-18.757 19.577 13.167 3.15 14.826-10.813 25.086-15.447l-.15-2.137c3.074-1.422 17.453-6.596 18.217-10.938l1.845-.118c-.596-4.864-3.5-10.16-3.8-14.74-5.484-10.7-.1-15.037 4.478-25.44 6.975-6.267 7.62-18.236 15.944-20.298 1.67 9.093 8.236 16.335 11.223 25.34-8.068 1.74-9.62 6.13-11.633 15.453-3.037 2.03-5.298 3.708-6.913 7.18.6.882 1.435 1.745 2.292 2.615 4.018-3.012 5.56-3.726 6.764-9.322 5.602-3.112 7.062-5.044 10.068-11.36 2.876-.5 8.38-1.15 9.16-5.18 12.403-4.16 16.453-2.882 16.776-17.615-3.043-5.938-3.043-5.938-4.776-11.962l-1.578.1-.205-3.05 1.578-.1c.634-10.155 6.74-17.6 7.087-28.037l1.578-.1c1.105-7.118 3.298-13.695 10.56-8.024 8.366 22.155 8.366 22.155 10.764 26.3 9.82.603 14.23-.596 21.95-7.52-.472-7.02-8.826-17.217-13.813-20.577.193-8.907 3.2-15.224 5.838-23.056.578-7.087 1.82-16.056 7.646-19.795 7.56 6.267 12.453 16.068 14.975 26.024 6.907 4.466 21.968-11.205 23.173-16.795-7.522-9.64-13.124-16.64-14.03-30.068 3.435-33.185 6.16-25.546 11.863-17.615 4.478 6.472 18.596 14.105 17.416 18.323-8.118.702-9.043 14.552-7.528 22.434 1.522-1.02 3.298-2.05 5.08-3.08 1.36-6.304 5.814-12.515 5.664-18.7l5.13-8.466c5.57-1.404 5.702-6.478 2.64-16.292-4.15-2.8-8.037-5.62-11.93-8.435-3.397-11.13-3.6-33.5-.932-45 1.03-.373 2.323-.764 3.64-.845l15.92 20.447c.702 10.38-1.46 13.578 3.453 23.7 5-.317 2.776-13.664 2.5-17.633 12.5-14.28 12.5-14.28 13.64-17.105-6.242-6.347-14.97-6.4-20.528-14.335-2.2-9.056-10.18-25.404-5.453-33.676 11.577-.733 16.708 4.764 25.95 12.46 5.1 12.85 16.03-12.975 17.646-16.447-.72-10.683-19.633-12.856-25.875-19.198l-9.025-27.937c7.236-6.28 7.863-4.8 15.888.528 12.155 3.826 17.478 4.4 18.043 20.615 1.627 4.496 1.814 3.975 3.72 8.758-.38 2.167-.497 4.322-.596 6.776.85.87 1.702 1.733 2.57 2.907 1.1.54.255-2.845 1.366-1.994 2.528-1.696 3.876-.826 3.385-4.16-.547-.273-.33-2.708-.857-2.677-1.745-6.323-.54-6.503-.466-13.248l-1.838.112c-.646-9.46.838-9.248 5.28-17.8-1.286-7.28-2.54-6.28-7.844-6.553l-.143-2.136c-8.286-5.298-8.286-5.298-22.732-11.74-1.97-5.702-2-10.16-2.677-16.25.528-.03-.08-1.05.714-1.1-.944-6.068-2.323-10.888-2.516-17.62 3.416-.217 4.248.348 7.534 1.975l.143 2.137c9.236 3.708 17.478 4.4 24.894 12.52.317 8.565-1.366 18.8 3.845 25.502 1.292-.385 2.6-.472 4.186-.572.224-.627.708-1.273 1.193-1.913-1.404-16.77-6.074-31.185 6.882-42.738-2.13-4.15-16.925-4.136-22.745-8.056-8.944.565-8.602-2.218-11.372-11.844l-1.578.1c-2.267-6.193-10.484-14.354-10.98-21.683 12.92-4.77 22.534 1.025 32.4 2.242 3.397-4.5 4.484-7.95 6.2-13.882 9.602-6.435-1.186-21.38 14.192-24.502l12.97 39.335c.776 1.025.876 3.428 2.18 3.825 8 2.416 25.155-5.9 32.527-7.7.615 1.193 1.826.932 2.702 2.1-7.8 9.696-12.186 15.18-15.832 27.67l-11.205 6.23c-12.832 1.733-21.428 7.5-17.577 25.328-5.503.658-3.54 2.373-3.7 7.895-3.56 6.05-9.316 10.708-4.6 18.068 10.223 2.3 9.615-18.844 14.453-24.515l-.118-1.832c1.006-.677 2.037-1.05 3.335-1.435l-.124-1.832c4.6-2.435 17.937-12.173 22.515-10.932 2.8 9.938-8.813 26-12.056 36.627-9.584 6.74-22.64 9.1-29.08 19.316l2.2 9.056 1.578-.1.15 2.136c8.46.075 20.93.82 27.968-4.534 1.578-.1 3.155-.2 4.758.006.118 1.833.5 3.646.894 5.46-2.807 5.385-6.323 8.062-10.85 11.416-8.85 13.74-8.85 13.74-11.093 15.72-13.03 2.665-28.968-2.453-27.67 16.776l6.56 14.906c7.087-.752 17.975-3.894 25.558-4.993.832 12.2-14.74 24.23-22.484 30.856-21.192 3.18-24.434-1.826-27.155 20.416.87 1.167 1.74 2.34 2.876 3.497 4.435-.895 6.962-2.6 10.745-5.28l20.726-2.236c.348 5.193-3.857 9.44-6.826 12.385-4.205 19.888-28.33 22.645-43.384 26.664l.124 1.832c-8.093 1.428-8.03 2.348-8.447 11.87-4.72 8.273-24.055 19.304-21.472 30.173 7.894-.497 14.397-9.8 18.1-17.4 9.348-2.428 21.105-4.404 30.366-.4.186 2.745.043 4.596-1.124 6.813-9.366 6.112-17.068 13.34-25.645 19.403l-26.57 1.684c-3.944 4.236-6.087 19.26-4.584 25.912 9.03.652 19.3-3.547 27.515.528.062.913.143 2.137.5 3.342-2.708 2.925-5.397 6.16-7.82 9.385-12.745 6.938-15.6 15.7-31.93 12.44-11.633 3.807-20.428-5.136-28.142 9.758.416 6.105-.205 12.578 3.286 17.26l20.708 1.447.15 2.136 1.578-.1.205 3.05c-2.832 1.1-5.64 2.503-8.192 3.895-11.1 7.75-23.614 18.043-36.776 18.88-10.5-2.708-21.323-6.615-31.64-2.9-9.745 8.28-16.155 15.124-27.85 18.012-2.466 2.608-4.447 4.572-7.826 5.398l.267 3.97c3.36-1.13 5.18-1.553 8.95-.565 13.205-7.888 21.46-10.863 36.024-2.6 3.422-.217 6.82-.74 9.2 3.093-1.025 8.34-32.683 20.77-40.98 23.136-10.92-5.13-18.236-11.72-29.993-9.745-3.783 2.7-7.174 7.2-12.956 11.547-4.15 1.186-15.97 2.236-17.36 9.068-3.112.814-11.366 3.788-8.627 9.13 2.6-.472 5.224-.944 8.118-1.124.398-1.87 2.565-3.845 2.97-5.708 3.373-.826 5.012-1.236 8.677-1.776 10.578-7.72 26.378 3.23 37.658 5.888l.15 2.137c2.646.136 2.646.136 3.28 1.633-7.422 3.534-14.546 7.664-22.7 8.18-13.534 6.987-18.124 9.422-32.304 2.968-13.52-.677-18.304-4.968-22.757 11.248-11.788 5.348-19.254-3.373-30.6 8.683.85.864 1.702 1.733 2.572 2.9 10.26-.646 22.993 3.633 29.173-6.565 3.018 1.645 6.385.944 9.428 2.894 11.57-.733 23.813 8.298 35.397 11.547l.224 3.36c-8.615 1.466-18.33 6.373-25.93 11.15-6.782 1.347-21.5 6.57-24.788 8.615-12.285-1.975-19.4-13.478-30.105-19.236-5.745-10.67-14.043-12.292-23.652-5.857-2.627.168-5.242.64-7.85 1.112l-.143-2.136c-7.366 4.447-13.944 4.863-13.28 14.633 8.323 5.907 21.583 18.248 30.695 20.124l.143 2.136c5.26-.335 14.323 8.6 18.764 11.683l32.614 17.242.162 2.44c-1.832 2.44-4.87 3.64-5.6 3.478-.447-.093 1.2-1.006.882-1.528-.5-.84-.988-1.987-1.85-2.658-1.043-.814-3.317-1.068-3.422-2.646-8.018-1.33-25.602-7.26-31.9 1.105 3.956 7.72 16.292 5.155 23.298 7.168 4.98-.627 10.875-2.684 11.726-1.82-4.36 5.795-24.167 2.85-29.732 2.596-19.733-10.398-31.863-29.552-51.657-40.862-5.2-6.72-13.4-10.497-20.546-14.64-9.57 3.062-19.466 5.217-26.577 13.335-16.403 7.472-33.316 19.273-42.7 36.726-6.5 5.317-55.844 18.255-52.974-1.85 5-.316 9.528-3.658 12.98-7.248 7.75-2.634 13.105-9.422 19.9-14.453-.043-.608-.087-1.218.137-1.845 7.366-.472 12.298-5.7 19.608-7.068 16.018-9.292 16.018-9.292 24.285-15.95 8.826-2.397 8.826-2.397 21.608-8.72l-.354-5.193c-28.28-4.03-28.28-4.03-31.297-5.677-8.074 1.74-25.037 4.957-32.5-.087-8.683.553-7.36 8.44-3.727 15.26 4.38 2.174 8.77 4.652 13.428 7.112.888 13.124-7.037 13.627-15.726 10.192-1.652-8.782-4.205-19.652-8.664-27.03l-5.267.33c-3.323 9.4 1.503 18.298-4.3 26.024-13.18.528-13.18.528-14.82-.285-3.664-15.1 12.975-15.23 12.062-28.658-10.522.664-16.466 6.56-23.844 14.7-13.4 4.832-27.298 6.633-41.608 6.012-8.466-4.062-13.273-8.664-22.745-8.062-5.087-4.888-6.6-7.553-13.056-13.273-8.385-2.838-11.664-4.472-15.18-13.44-4.478-3.702-12.112-7.205-13.863-13.528 3.758-6.98-2.752-13.3-.093-20.838 1.273-.7 2.832-1.1 4.4-1.503l.15 2.136c5.217-.944 11.795-1.36 15.192-5.87-1.913-4.782-1.373-8.496-3.26-12.968-3.602-2.534-3.602-2.534-17.764-8.683-10.217-10.4-17.05-5.968-25.695 6.838 2.068 18.87 4.037 20.584-13.416 20.465-4.696-14.72 6.944-14.54 8.205-27.185 2.907-3.864 6.907-7.18 8.062-9.708-.913-1.782-1.565-3.578-2.192-5.068l-9.2.584c-2.74-5.342-14.92 2.167-18.453 4.54-5.043-.292-9.8-.298-14.56-.304-3.776-8.956-8.6-5.888-16.198-5.1l-.124-1.832c-8.304-1.62-13.552-8.95-22.204-11.776-.627-1.5-1.26-2.98-1.602-4.186-4.578-1.242-16.093-15.223-18.813-20.26.534-7.702 1.838-15.75.776-23.652 7.323-1.08 19.807-8 26.23-2.888.795 3.932 1.85 7.85 2.913 11.77zm599.192-60.868l2.05-.54 1.994 3.72-1.596 2.118-2.77.18.323-5.478zm-362.16 275.4c-2.267-2.3-4.373-2.174-7.3-2.602.18-1.236.36-2.472.565-3.404 5.944-1.913 23.552-7.322 29.08-3.683-.2.932.67 3.503.472 4.435-2.634.162-3.397.36-4.3 2.565-6.248 1.316-12.528 1.087-18.496 2.7zm-12.832-45.16c-2.012-2.33-2.012-2.33-2.416-4.447 3.025-6.013 4.6-2.435 4.92 2.447-1.012.677-1.758 1.342-2.503 2zm-35.2-20.453c-11.67-4.472-22.944-3.143-33.415-9.528-1.242-6.664-1.242-6.664-.838-8.528 4.528.634 4.615 1.85 7.776 5.64 8.726.056 16.323 2.95 24.782 3.025 6.727 1.72 12.807-2.038 18.54.664.087 1.218.168 2.44.516 3.646-5.298 3.702-11.068 4.38-17.36 5.08zm-47.3-15.695c-4.702-3.075-5.838-4.23-8.093-10.218 1.758-5.322 7.814-1.72 10.85.236l.54 7.932c-1.28.696-2.286 1.373-3.298 2.05zm105.544-14.05c-2.98-5.018-4.323-9.223-2.92-15.75 2.062-.745 3.056-1.727 5.26-.336.354 5.193.565 12.224-2.342 16.087zm-118.358.453c-5.57-4.242-16.497-13.353-10.192-21.726 1.317-.08 2.634-.168 4.23.038 1 3 .354 5.186.82 8.223 4.062 5.26 6.248 6.348 8.093 10.218-.988.98-1.98 1.962-2.95 3.248zm-65.322-28.036c-.832-.565-1.658-1.124-2.205-1.398-.168-2.44-.168-2.44.98-4.962l3.16-.2c.342 1.2.708 2.708 1.074 4.223-1.012.67-2.02 1.355-3.012 2.336zm140.674-22.1c-4.826-4.907-13.888-2.187-20.105-4.242-2.82-2.584-2.82-2.584-7.46-4.74l-.205-3.056c4.3-2.72 29.9.56 29.552 11-.77.36-1.28.696-1.783 1.038zm-70.663 2.33c-1.075-.236-1.882-.5-2.696-.745-.342-1.205-.67-2.105-.733-3.02l7.248-2.298c1.702 1.733 1.702 1.733 1.8 3.255-1.714 1.95-1.714 1.95-5.62 2.807zm34.074-11.97c-1.422-1.44-1.764-2.645-1.404-5.118 2.87-.5 4.832-2.758 7.6-.8-.7 1.578-1.087 3.44-1.5 5.304-1.578.1-3.155.2-4.714.602zm-126.2-9.776c-2.528-2.292-4.8-4.596-7.05-6.602-.062-.913.16-1.54.38-2.168 5.143-2.16 12.5 1.05 18.124 2.224l.267 3.97-11.72 2.578zm20.906-3.472l-3.217-.715-.224-3.354c1.292-.4 2.87-.5 4.447-.6l.273 3.968a1.89 1.89 0 0 0-1.279.69zm532.672-47.868c2.5-1.994 2.5-1.994 5.118-2.466.106 1.522.472 3.03.838 4.54-.77.354-1.54.714-2.043 1.05-.422 1.56-.565 3.4-.702 5.255-1.03.373-2.043 1.05-3.056 1.727-4.33 2.422-5.826 3.74-10.826 4.062-3.453 3.584-3.453 3.584-5.516 4.33-1.118-.845-2.23-1.696-3.323-2.236-.112-5.516 15.267-12.615 19.5-16.26zm-32.9 9.752c-.366-1.5-.447-2.733-.534-3.95l2.894-.187.23 3.36c-1.056.062-1.82.422-2.6.776zm-542.08 33.75c1.33-3.758 1.33-3.758 1.727-9.608 1.03-.372 2.33-.758 3.64-.844 2.515 1.987 2.515 1.987 3.814 5.584-1.85 3.795-5.54 4.03-9.18 4.87zm64.682-8.695c-.106-1.528-.205-3.05-.025-4.292l2.304-1.062c.466-.95.925-1.9 1.416-2.547a27.34 27.34 0 0 0 2.689.752c-.15 5.528-1.764 9-5.286 11.677l-1.1-4.528zm480.586-32.615c-3.615-10.496 1.143-10.496 3.72-19.242l4.733-.298c.193 6.733-3.907 12.508-5.863 18.763-1.05.062-1.82.422-2.6.776zm-473.828 15.33l-1.4-8.8-3.913-3.124-.286-4.273c4.472-.286 9.372 1.857 11.323 7.255l-2.907 3.857c.304.596.627 1.497.956 2.4 1.62 4.497 1.08 8.212-3.2 7.255-.366-1.5-.472-3.03-.57-4.56zm536.168-50.85c-1.484-2.36-1.484-2.36-1.124-4.832 6.13-3.15 7.82-13.373 16.403-11.465.4.98 2.224 1.907 1.8 2.776-1.546 3.106-9.16 5.845-9.85 10.92-2.6.776-4.913 1.534-7.217 2.602zM797.32 892.764c-.043-.608-.087-1.217.162-1.54l2.366-.15c2.025-1.354 2.242-1.98 5.18-1.56 1.36 4.515 1.36 4.515 1.08 8.2-2.286 1.366-5.515 4.335-8.2 3.584l-.168-2.44-4.857-1.528c-1.932-5.093-1.932-5.093-2.242-9.67l6.7 5.093zm530.523-32.713l-1.1-4.528c1.03-.373 2.33-.758 3.646-.845l.286 4.273c-1.03.373-2.062.745-2.832 1.1zm-552.398 10.192c2.23 1.702 7.292 2.298 12.236 5.05.106 1.528.5 3.342.876 5.155-1.845.118-3.664.54-5.484.963-.323-.9-.627-1.497-.932-2.087-2.13-.174-4.23-.037-6.074.075l-2.012-6.304 1.4-2.85zm-105.128 8.503c-.8-3.932-.8-3.932.093-6.44l3.95-.248.3 4.578c-1.54.714-3.074 1.422-4.354 2.112zm103.252-16.658c-6.292.708-7.018 1.67-10.664 2.516-3.317-2.242-6.62-4.18-9.925-6.112.16-1.547.342-2.783.783-4.038 6.056-.385 13.285 1 18.75 3.715.348 1.205.7 2.4 1.056 3.92zm-96.675-30.652c-3.7-3.752-8.08-2.242-12.192-4.435 1.944-14.223 22.5.715 12.192 4.435zm-21.527-5.683c-8.385-2.844-13.167-7.136-20.906-12.16.137-1.85.137-1.85 2.342-4.44 4.534.633 4.838 1.224 8.248 4.7 5.143 1.82 10.304 3.944 15.472 6.068-.18 1.236-.36 2.472-.26 4-1.82.422-3.354 1.13-4.894 1.844zm38.807-12.273c-1.702-1.727-2.72-5.038-.74-7l2.43.764c.087 1.223.168 2.44.516 3.645-.752.66-1.478 1.627-2.205 2.6zm715.394-49.95c-.106-1.528.056-3.068.236-4.304l2.366-.15c1.484 2.354 5.217 4.92 4.9 8.006-.77.36-3.267.465-3.776.807-2.26 1.677-3.938 4.236-6.304 4.385.217-4.608.15-5.528 2.578-8.745zm-782.573 41.334c-1.658-1.118-3.056-2.255-4.453-3.4-.335-4.882.975-8.95 1.98-13.615 1.012-.677 2.043-1.044 3.342-1.435l.143 2.137 1.845-.118c.553 4.255 1.366 8.497 2.205 13.037-1.963 2.273-1.963 2.273-5.062 3.385zm-22.422.504c-.087-1.218.093-2.453.298-3.385 1.56-.4 3.112-.813 4.696-.913l.267 3.968-5.26.33zm101.44-23.9c-2.3-2.92-1.466-6.037-.62-9.155l1.845-.118.143 2.136c.528-.03 1.075.242 1.882.497-.155 1.54-.056 3.068.068 4.9-1.298.385-2.304 1.062-3.317 1.74zm-88.346-5.124c-1.62-.5-2.975-1.038-4.335-1.565-.435-6.4 4.627-5.813 9.168-5.18l.3 4.578c-1.8.727-3.602 1.453-5.143 2.168zm790.97-57.813c-4.38-2.174-2.944-11.16-2.994-15.758 1.82-.422 3.77-1.198 5.876-1.335-.193 4.913 1.05 8.64.87 13.857-.8.056-3.23 3.205-3.75 3.236zm22.36-1.416c-.5-7.33 2.665-17.18 9.118-19.428.273 1.056 2.522 5.962 2.602 6.913.242 2.84-4.1 5.062-4.882 8.093-.77.36-1.273.696-1.783 1.037l.15 2.137-5.205 1.248zm-738.282 35.77c-.366-1.5-.472-3.03-.578-4.56l2.894-.18.248 3.658c-1.03.373-1.795.727-2.565 1.08zm752.816-94.315c-.373-5.5-2.46-9.037 3.143-12.155 4.472-.28 5.143 3.404 5.92 7.037-2.422 3.218-5.44 3.97-9.062 5.118zM656.2 670.296a11.8 11.8 0 0 1-1.9-.795l.478-4.627 5.522-.354c-.155 1.546-.317 3.087-.2 4.615l-3.888 1.16zm-56.6-16.328l-.5-7.33c1.068.242 2.143.478 3.478.702.4 1.813 1.037 3.608 1.708 5.714-1.578.1-3.137.503-4.696.913zm23.335-18.34c-.366-1.5-.466-3.038-.553-4.255l3.16-.2.224 3.354c-1.03.373-2.062.745-2.832 1.1zm28.378-18.043c-3.174-7.77-1.15-9.124-.553-15.9-1.658-1.124-3.323-2.242-4.696-3.075-.366-1.5-.453-2.733-.534-3.95 1.8-.727 3.62-1.15 5.44-1.572 8.857 5.876 4.236 15.67 2.143 23.77-.8.05-1.298.4-1.8.727zm806.976-55.452c-.826-.56-1.397-1.137-1.944-1.4-.534-7.932 4.546-11.6 6.18-18.745 1.006-.677 2.037-1.05 3.335-1.435 3.975 4.037-2.938 15.776-4.186 20.764-.8.05-2.615.472-3.385.826zm-15.323.05c-5.18-2.428-7.714-10.864-7.646-17.608 6.913-7.186 11.335.652 11.186 10.16-.137 1.845-.6 3.895-.466 6.03-1.03.367-2.062.74-3.074 1.416zM572.607 614.3c-5.478-6.7-12.888-22.478.267-23.3 1.553 7.255-1.292 16.018 1.57 23.192l-1.838.118zm-.64-36.738c-3.832-1.907-2.26-9.975 2.764-6-.16 1.54-.056 3.068.043 4.596-1.03.373-2.062.745-2.807 1.404zm85.452-6.34c-.366-1.5-.472-3.03-.57-4.56l2.894-.18.248 3.66c-1.03.372-1.8.727-2.57 1.08z" fill="#008d43" fill-rule="evenodd"/><path d="M1037.5 331.155c166.003 0 301.863 133.3 306.012 298.33-71.47-37.297-164.537-70.32-267.646-91.662-117.463-24.316-230.597-30.198-320.03-20.254 46.75-109.408 155.5-186.412 281.665-186.412zm4.006 39.93l11.664 35.888 37.658-.056-30.546 21.938 11.708 36.043-30.434-22.118-.056.03-.037-.025-30.434 22.112 11.875-35.664-30.714-22.316 37.658.056 11.658-35.888zm7.85 297.97l6.36 26.484 27.1 2.093-23.23 14.056 6.39 26.602-20.652-17.64-.037.02-.03-.02-23.155 14.18 10.57-24.987-20.832-17.8 27.093 2.174 10.422-25.16zm142.767 10.112l9.782 28.235 29.825-.615-23.857 17.838 9.832 28.365-24.447-17.043-.043.025-.03-.025-23.757 17.98 8.85-28.428-24.664-17.2 29.825-.534 8.683-28.602zM1034.588 825.61l7.404 27.036 27.95 1.28-23.434 15.21 7.435 27.16-21.82-17.478-.043.02-.025-.02-23.36 15.347 10.056-26.055-22.012-17.627 27.944 1.354 9.907-26.23zM840.56 632.962l8.372 28.907 30.024.92-24.912 16.708 8.416 29.03-23.7-18.41-.043.024-.03-.018-24.82 16.844 10.372-28.13-23.913-18.57 30.018 1.006 10.217-28.3zm494.94 74.297c-31.8 135.06-153.47 236.12-298 236.12-168.6 0-306.11-137.513-306.11-306.112 0-16.316 1.3-32.34 3.79-47.98 89.607-10.112 203.2-4.267 321.154 20.15 108.743 22.515 206.194 57.937 279.168 97.824z" fill="#2549a5" fill-rule="evenodd"/><path d="M700.33 0H2000v713.55L700.33 0zm638.215 1400H0V665.1L1338.544 1400z" fill="#008d43" fill-rule="evenodd"/></svg>