<svg xmlns="http://www.w3.org/2000/svg" xmlns:xlink="http://www.w3.org/1999/xlink" width="1000" height="700" viewBox="-1000 -700 2000 1400"><defs><clipPath id="shield_cut"><ellipse id="field_shield" fill="#fff" rx="650" ry="890"/></clipPath><style>.str0,.str1{stroke:#373435;stroke-width:1}.str1{stroke-width:5}.fil0{fill:none}.fil1{fill:#76c04e}.fil2{fill:#373435}.fil3{fill:#fff}.fil4{fill:#ffdd21}.fil5{fill:#00afef}.fil6{fill:#a93c40}.fil7{fill:#c0c2c8}.fil8{fill:#efdd00}.fil9{fill:#f58634}</style><path id="base_star" d="M0-225l73 124 141 31-95 109 13 143L0 125l-132 57 13-143-95-109 141-31z"/></defs><rect class="fil3" x="-50%" y="-50%" width="100%" height="100%"/><rect class="fil5" x="-50%" width="50%" height="50%"/><rect class="fil5" y="-50%" width="50%" height="50%"/><g id="coat_of_arms" transform="scale(.3145)"><g id="shield"><g transform="translate(0 -4)"><path id="path564" class="fil2" d="M-368-838c26-38 63-60 102-62 11-24 75-46 100-42 28-28 67-31 111-21 30-14 63-19 108 1 49-13 85-1 114 26 36-1 71 6 102 43 39 2 71 22 100 56 34 15 66 37 87 85 35 21 66 47 84 99 34 25 62 59 68 124 27 26 48 59 48 122 31 32 48 73 42 131 21 32 30 71 17 123 16 25 23 60 8 124 14 29 18 62-1 108 11 31 9 66-12 109 12 34 8 71-20 115 6 40 3 79-28 115 7 45-11 88-57 130 1 32-16 65-55 100-13 49-41 85-85 108-14 40-44 65-86 78-23 41-57 62-103 64-27 38-68 48-116 44-22 26-64 31-119 23-32 21-72 19-118-5-42 14-84 10-127-32-29 5-62-2-104-44-32 2-65-21-97-72-35-5-64-29-83-84-33-12-61-39-75-97-40-39-57-82-59-127-29-20-44-59-45-115-28-24-36-66-31-123-32-30-33-77-17-132-20-31-20-73-6-122-15-30-14-68 5-114-12-43-9-83 15-116-14-35-9-72 19-112v-19c-1-35 11-66 36-93l-1-14c0-33 19-68 54-104 1-36 22-72 65-111 12-38 33-70 76-87 5-36 35-64 84-80z"/><path id="path566" class="fil4" d="M-235-898c16-14 38-24 81-25 50 9 77 18 97 28-20-1-52 11-100 9-32-8-51-12-78-12z"/><path id="path567" class="fil4" d="M-339-841c14-16 33-33 75-41 50 2 76 6 96 10-15 3-35 21-87 29-32 4-57 1-84 2z"/><path id="path568" class="fil4" d="M-433-762c11-18 28-34 63-56 49-18 82-12 103-9-13 12-36 26-84 42-30 7-57 14-82 23z"/><path id="path569" class="fil4" d="M-507-676c14-13 26-37 57-61 47-24 84-32 105-33-14 12-39 40-80 64l-82 30z"/><path id="path570" class="fil4" d="M-578-572c14-23 29-58 53-75 47-31 80-38 95-42-12 14-29 39-64 71-27 16-62 36-84 46z"/><path id="path571" class="fil4" d="M-628-460c5-25 20-60 40-82 41-35 78-55 92-61-9 16-27 47-56 85-27 18-57 41-76 58z"/><path id="path572" class="fil4" d="M-664-348c3-26 9-56 26-81 38-38 69-62 83-70-8 17-18 44-43 85-12 16-46 48-66 66z"/><path id="path573" class="fil4" d="M-687-235c1-26 4-55 17-83 31-47 62-63 73-76-6 18-9 44-29 87l-61 72z"/><path id="path574" class="fil4" d="M-702-125c-2-25 7-62 16-80 28-49 49-71 60-84-2 18-4 49-25 90-14 15-37 51-51 74z"/><path id="path575" class="fil4" d="M-706-16c-5-25 1-59 8-78 11-44 36-70 50-89 3 18-2 45-15 90-7 18-28 54-43 77z"/><path id="path576" class="fil4" d="M-703 105c-8-3-10-60-1-80 1-28 31-69 44-90 3 19-2 64-6 98-6 7-27 44-37 72z"/><path id="path577" class="fil4" d="M-692 234c-10-2-16-77-7-98 0-28 27-80 35-90 5 18 3 73-2 93-3 9-17 67-26 95z"/><path id="path578" class="fil4" d="M-661 357c-10 0-25-79-20-102 5-28 20-91 27-103 5 18 11 72 8 92-1 10-10 84-15 113z"/><path id="path579" class="fil4" d="M-619 484c-10 0-32-74-31-97 1-28 10-91 15-103 8 17 22 80 22 100 3 10-2 71-6 100z"/><path id="path580" class="fil4" d="M-567 595c-13 2-39-72-37-95-1-28 3-75 7-88 8 17 25 70 28 90 3 10 3 64 2 93z"/><path id="path581" class="fil4" d="M-496 702c-13 0-54-67-54-90-6-28-4-74-2-87 10 14 33 56 39 75 4 10 12 73 17 102z"/><path id="path582" class="fil4" d="M-412 793c-14 2-66-68-69-92-11-26-15-75-16-88 14 13 47 68 51 88 3 11 19 68 34 92z"/><path id="path583" class="fil4" d="M-319 860c-14 3-70-51-81-73-17-23-28-70-32-83 13 12 54 57 66 74 5 10 30 62 47 82z"/><path id="path584" class="fil4" d="M-223 906c-13 5-59-21-74-39-21-20-36-59-42-71 16 9 58 34 71 54 6 9 24 39 45 56z"/><path id="path585" class="fil4" d="M-93 949c-7 3-29 1-43-2-8-2-34-18-45-24-23-17-54-58-62-68 17 5 63 21 79 41 7 9 47 42 71 53z"/><path id="path586" class="fil4" d="M25 956c-23 10-63 3-95-10-37-19-70-49-78-59 17 3 70 11 90 27 9 7 57 34 83 42z"/><path id="path587" class="fil4" d="M139 935c-22 11-57 17-91 15-44-9-75-38-82-47 16 5 69-2 91 10 11 2 56 20 82 22z"/><path id="path588" class="fil4" d="M242 901c-21 14-44 23-78 27-45-2-80-19-89-27 17 0 64-15 88-8 11 1 52 7 79 8z"/><path id="path589" class="fil4" d="M355 838c-17 19-49 37-78 45-15 5-36 2-51 1l-47-2-3-2c14-13 71-28 94-31 11-1 59-1 85-11z"/><path id="path590" class="fil4" d="M447 762c-13 21-43 42-70 55l-48 16c-5 1-43 7-53 5l-5-2c11-15 70-41 93-47 10-3 59-16 83-27z"/><path id="path591" class="fil4" d="M520 670c-4 24-34 49-59 68-2 8-86 37-90 32 11-16 47-47 67-58 10-7 58-29 82-42z"/><path id="path592" class="fil4" d="M576 569c0 15-22 57-48 78-2 6-74 45-79 42a337 337 0 01127-120z"/><path id="path593" class="fil4" d="M644 438c4 4-16 60-38 85-3 15-80 67-86 67 4-25 42-79 61-91 10-7 45-46 63-61z"/><path id="path594" class="fil4" d="M670 338c3 4-12 59-37 86-7 15-59 61-65 61 6-22 29-65 42-80 8-8 42-52 60-67z"/><path id="path595" class="fil4" d="M694 219c3 4-3 60-22 90-5 15-62 76-68 77 4-23 30-77 39-93 7-9 37-57 51-74z"/><path id="path596" class="fil4" d="M704 110c-1 6-3 60-18 91-4 16-51 87-57 88 3-23 12-83 27-103 7-9 35-58 48-76z"/><path id="path597" class="fil4" d="M710-3c-1 6 8 58-6 90-6 15-54 84-59 88 3-23 5-76 20-95 4-13 32-65 45-83z"/><path id="path598" class="fil4" d="M704-112c3 6 8 56-4 89-5 14-36 72-40 76-1-23 0-57 7-78 4-13 25-68 37-87z"/><path id="path599" class="fil4" d="M690-244c7 6 14 64 5 98-3 15-29 84-32 89-3-24-2-74 3-96 2-13 16-71 24-91z"/><path id="path600" class="fil4" d="M657-368c7 5 22 67 18 101-2 16-22 87-25 92-6-23-12-78-10-99 5-14 18-72 17-94z"/><path id="path601" class="fil4" d="M607-491c10 1 35 59 32 98 5 17-6 90-14 94-1-23-15-68-19-90 1-14 4-80 1-102z"/><path id="path602" class="fil4" d="M551-609c10 0 44 55 45 93 4 12-2 91-8 96-4-16-18-58-26-71-4-14-2-97-11-118z"/><path id="path603" class="fil4" d="M471-718c8 0 52 47 62 84 6 10 12 96 7 102-4-16-49-73-45-93-7-13-15-74-24-93z"/><path id="path604" class="fil4" d="M385-803c8-1 48 35 64 70 8 8 28 84 24 91-7-15-44-54-49-76-6-13-25-69-39-85z"/><path id="path605" class="fil4" d="M285-873c8-3 55 22 77 54 9 8 39 90 40 97-10-11-56-48-63-73-8-13-36-66-54-78z"/><path id="path606" class="fil4" d="M191-916c8-1 56 22 78 51 8 8 47 64 49 70-14-7-54-39-67-47-8-13-45-60-60-74z"/><path id="path607" class="fil4" d="M79-944c7-2 57 5 84 31 9 8 50 56 53 61-8-3-37-13-40-20l-31-18c-15-9-53-41-66-54z"/><path id="path608" class="fil4" d="M-37-952c7-3 59-5 91 13 10 6 64 42 64 55-19-3-67-18-80-27-13-12-58-33-75-41z"/><path id="path609" class="fil4" d="M-134-937c7-6 54-17 88-3 11 4 67 35 72 43-19 0-59 3-80-9-13-11-68-27-80-31z"/></g><path class="str1" clip-path="url(#shield_cut)" fill="#00a859" d="M-700 0H700v450H-700z"/><path id="sea" class="fil5 str1" clip-path="url(#shield_cut)" d="M-700 450H700v500H-700z"/><path id="sky" class="fil5 str1" clip-path="url(#shield_cut)" d="M-700-900H700V0H-700z"/><g id="mountain"><path class="fil6 str1" clip-path="url(#shield_cut)" d="M-334-264l-15 43-5 22-12 6-55 2-17-2-7-1h-50l-16-35-17-33-17-39-39-1-4 6-2 12-10 14-85 70c-16 74 1 112 1 200H665c-3-261-77-572-282-753l-45 42-12 2-19 11-19 16-20 10-9 26-14 35-8 22-8 15-10 22c0 8-1 16-4 23l-5 14-5 12-1 14-3 7-4 10c-1 8-2 16-5 20l-8 19v8l-12 8-13 9-3 4v8c-1 4-3 7-5 9l-29 23 3 14-10 6 5 3-6 16-20-4-2-22-8-35-2-13-1-6-14-14-22-18 24-41v-4l-14-35-9-31-7-21-13-22v-14l2-15 7-42 5-29-16-18 5-21-8-7-5-4-19-20-5-1-1 2-3 16-9 29-6 19-5 14-7 14 1 7-4 12-3 5 7 11 1 6-2 15-2 6-17 30-7 10-3 19-21 8-5 10-2 3-8 6-5 7-4 13-11 22-16-3 1-28-3-4-4-3-9 5-11 8-7 8-3 8-12 10-22 9-17 6-17-25-4-3-25 20v10l-1 6-12 16 1 10-3 9-3 12-3 10-4 16-36 117z"/><path id="polygon632" class="fil2" d="M609-315l-55 36-22-19-22-16h-12l-1 22-50 41v2l54-35 4-24 21 14 28 24 59-39z"/><path id="path633" class="fil2" d="M449-240l-6 1v14l-17 27-11 31-13 29-7 7-14 6-16 7-8 6c15-6 30-11 46-15l8-16 11-25 9-26 8-14 11-13-1-19z"/><path id="polygon634" class="fil2" d="M514-559h-3l-1 7-11 8-10 11-2 29-32 24-1 4 23-16 18-9-1-31 15-11 4-1 3 5 6-1z"/><path id="polygon635" class="fil2" d="M420-691h-4v6l-8 7-10 7-1 21-3 3-2 16-5 10 1 6h2l2-11 4-7 2-10 3-5 2-12 2-7 5-1 14-9 5-3z"/><path id="polygon636" class="fil2" d="M288-682l18-14 33 77-21 26 43 55 10 17 15 19-4 1-27-34-21-28-23-27 22-31-27-60z"/><path id="polygon637" class="fil2" d="M241-600l-1 6h16l-7 8 17 37-3 6-12 28-7 24-1 7 20 44 20-25h7l4 7 2 12 6 11-10-10-1-8-6-6-18 26-6 1-25-52v-9l5-6 5-21 11-21 1-10-7-18-10-16-8 3z"/><path id="path638" class="fil2" d="M51-448l-14-9-7-11-10 2-9 9H6l-8-13-2-3h-5l-6 8-10 3-37 27-7 3 1 5 15 24 3 9-3 7-2 14-2 17 1 8 2-5 4-21 6-20-1-6-7-14-9-13 1-4 32-22 14-6 7-4 13 14 5-1 12-11h6l9 13 7 11 6-11z"/><path id="path639" class="fil2" d="M-29-691l24 44v11l-3 7-3 6-3 42-3 35 3 6c10 14 21 18 33 26l-1 5-7 1v-5c-11-4-21-12-30-22l-4-11v-19l3-6 2-40 6-29-3-12-12-10-12 1v-7l10-23z"/><path id="polygon640" class="fil2" d="M-77-522l-3 1-3 18-8 29-7 20-15 15-13 13-15 7h-2l-4-7-3-23-2-5-2-12-18-10-2-19-12 18 27 16 4 22 7 29 6-1 15-9 16-13 12-11 9-10 6-29 1-12 5-15z"/><path id="polygon641" class="fil2" d="M-226-462l25-9-14 21 3 4-1 12 7 19 1 36-2-4-2-1 1-23-9-20-4-21z"/><path id="polygon643" class="fil2" d="M-451-149l-4-1-19 19-7 7-2 5-1 3-9 11-1 2v3l2-1 1-2 3-3 11-10 2-3 1-5 22-19z"/><path id="path644" class="fil2" d="M-601-144l15-14 1 3c-10 8-19 19-28 31l1 5 15 13h4l11 12 10 14c3 12 6 19 10 25h-2c-5-4-7-11-10-18l-7-11-7-9-16-10-5-5-9-5-1-12 18-19z"/><path id="polygon645" class="fil2" d="M-622-246l16-2 29 36 2 9-2 4-2 31h-1l-1-40-24-29-13 5-10 20z"/><path id="path646" class="fil2" d="M118-320v9l2 1v2l1 3v3l10-7-6-2-3-2v-7h-1v-1h-3v1z"/><path id="path647" class="fil2" d="M140-340v2l-1 5h1v1l3 1v1h1v9l12-8-2-1-5-1-1-2v-1l-1-2-1-1h-1l-3-3h-1-1z"/></g><g id="eagle"><path id="polygon616" class="fil6 str0" d="M537-432l10-5-10 8z"/><path id="polygon617" class="fil6 str0" d="M254-80l-10 11 9-5z"/><path id="path620" class="fil7 str1" d="M118-126l15-7 31-10c13 8 26 17 36 27l17 10c7 3 14 5 24 5 6 5 8 12 11 20l-1 5c11-3 19-9 24-17 4-10 2-20-6-30 3-3 6-9 9-11 1-6-1-11-6-16l-22-34 3-2 31-4v-16l18-2 19-23 4-9 4-6 16-9 2-5-6-17 22-10 8-5 8-9 11-16 47-2 14-15 16-3 16-24 26-31 31-40-57 8-38 4-42-6-51 15-36 12-43 19-18 12-99 40-16 12-6 12-24 36 26-43-38 30c-28-2-57-3-86 0l-31 8-62-73-7-9-3-2-35-4-26-5-83-10-18-6-11 4-6 6-3 2-68-9-64-15h-5v9h-8l-25-6-12-4-3-2v-2l-102-1 4 5 95 2h-94l15 18 13 12 19 6 5-1 8 21 6 12 13 1h9l1 22 5 5 18-4 4 9-1 10 35 8 15 2 45-6 7-4 5-1 1 1 1 7h1v3h1v2h1v1l2 3v1l5 1 3 2h1v3c2 0 5 5 7 5l1 1v2h1v3l1 1 1 2h2v1l3 1v1l2 1h1c0 2 2 2 2 2v1l2 1 3 1v1l1 1v3h1v4h1v2l2 1v1l7 3v1h3v-1h2l1-2h4v1h2c0 3-6 13-4 16v2h1v2h2l1 1h1v1h18c0 2 4 1 4 3l4 1h4v2h1v3h1v13h-1l-1 3-1 1-3 1-1 1-1 1v2h-2l-15 4-1 2-1 1-1 1h-1v1l-10 2v1h-2v1l-8 2-8 2c0 3-14 4-16 5v1h-2v1h-2v1h-3v1c0 3 7 5 7 7l-2 2-11 3-4 1v1l-2 1v1h-1v2h-1v2l-2 1-1 1-3 2-8 1-7 1-1 1v2h-1l-1 3 3 3 1 1h6l2 2 6 1v1c1 1 6 2 6 4h6v1c2 2 12 1 15 1l1-2 2-1 2-1 1-1v-1h1v-1h2l1-2 3-1v-1h9v4l-1 9h-1v4h1v1l1 1h2v1l3 1c3 0 16-1 17 2h2c3 2 15 0 18 0h1l1-1v-2h1v-1h16l2-5v-1l1-1 1-1 2-1h10v-1h3v-1l1-1h1v-1h9l1 2 1 1h2v1l1 1v2l2 1v1h1v2l1 1v1h2v1c2 1 25 5 25 3h27l1-2 8-2 1-1 1-1h2v1l1 1v1c3 0 9 5 11 7l3 1h1v1l1 1 3 3v2l1 1h1l1 1 2 3 2 8 1 3v4l2 2 3 3 3 4h1l2 5 2 1 2 1 1 1 1 1v1l2 1 1 1 2 3 5 3v8h1l1 1 1 6h1v1h1v5h1v3h1v5h1l5 10 19-3c0-2-6-7-5-7h1V2c1 0 3-4 5-4l1-2h2l1-1 1-1v-2c2 0 2-6 3-7l1-5h1l1-4h2v-2l1-1 2-1 2-2v-4l-1-8 1-3 1-1h1v-1h1l1-1h1v-2l1-1h1v-1h1l1-1 1-2 1 1v3h1l1 4v2l3 2 8 4v10h-1v1h-1v7l3 6 3 7c2 0 2 2 3 2v2h1l1 1 2 2v2h1v3l-3 7c6 5 12 6 24 6 0-2 7-14 7-17 0 0 1-2 3-2v-2l4-1 1-2v-2h1v-2h1v-3h1c1-1-1-10-1-10h-1v-6c1 0 1-2 3-2v-3h1v-2l2-1v-1h1v-2l1-1h1l3-2 1-1c0-4 4-11 4-16h1v-2h1v-2h2l1-3v-2h1v-3h1v-2l2-2v-1l3-1h2v-1h2l4-4 2-3 1-1v-1c2 0 2-3 2-4h1l1-6 2-3v-1h1c0-1 0-4 2-4l3-11h1v-7l1-1h3c0-2 1 0 0 0zm136 46l-10 11 9-5 1-6zm283-352l10-5-10 8v-3z"/><path id="polygon642" class="fil2" d="M-422-190l-3-2-14-1v6l-7 5-7 4-3 6v13l-3 2-1 5h3l6-8v-12l2-3 13-8z"/><path id="path648" class="fil0 str0" d="M118-126l15-7 31-10c13 8 26 17 36 27l17 10c7 3 14 5 24 5 6 5 8 12 11 20l-1 5c11-3 19-9 24-17 4-10 2-20-6-30 3-3 6-9 9-11 1-6-1-11-6-16l-22-34 3-2 31-4v-16l18-2 19-23 4-9 4-6 16-9 2-5-6-17 22-10 8-5 8-9 11-16 47-2 14-15 16-3 16-24 26-31 31-40-57 8-38 4-42-6-51 15-36 12-43 19-18 12-99 40-16 12-6 12-24 36 26-43-38 30c-28-2-57-3-86 0l-31 8-62-73-7-9-3-2-35-4-26-5-83-10-18-6-11 4-6 6-3 2-68-9-64-15h-5v9h-8l-25-6-12-4-3-2v-2l-102-1 4 5 95 2h-94l15 18 13 12 19 6 5-1 8 21 6 12 13 1h9l1 22 5 5 18-4 4 9-1 10 35 8 15 2 45-6 7-4 5-1 1 1 1 7h1v3h1v2h1v1l2 3v1l5 1 3 2h1v3c2 0 5 5 7 5l1 1v2h1v3l1 1 1 2h2v1l3 1v1l2 1h1c0 2 2 2 2 2v1l2 1 3 1v1l1 1v3h1v4h1v2l2 1v1l7 3v1h3v-1h2l1-2h4v1h2c0 3-6 13-4 16v2h1v2h2l1 1h1v1h18c0 2 4 1 4 3l4 1h4v2h1v3h1v13h-1l-1 3-1 1-3 1-1 1-1 1v2h-2l-15 4-1 2-1 1-1 1h-1v1l-10 2v1h-2v1l-8 2-8 2c0 3-14 4-16 5v1h-2v1h-2v1h-3v1c0 3 7 5 7 7l-2 2-11 3-4 1v1l-2 1v1h-1v2h-1v2l-2 1-1 1-3 2-8 1-7 1-1 1v2h-1l-1 3 3 3 1 1h6l2 2 6 1v1c1 1 6 2 6 4h6v1c2 2 12 1 15 1l1-2 2-1 2-1 1-1v-1h1v-1h2l1-2 3-1v-1h9v4l-1 9h-1v4h1v1l1 1h2v1l3 1c3 0 16-1 17 2h2c3 2 15 0 18 0h1l1-1v-2h1v-1h16l2-5v-1l1-1 1-1 2-1h10v-1h3v-1l1-1h1v-1h9l1 2 1 1h2v1l1 1v2l2 1v1h1v2l1 1v1h2v1c2 1 25 5 25 3h27l1-2 8-2 1-1 1-1h2v1l1 1v1c3 0 9 5 11 7l3 1h1v1l1 1 3 3v2l1 1h1l1 1 2 3 2 8 1 3v4l2 2 3 3 3 4h1l2 5 2 1 2 1 1 1 1 1v1l2 1 1 1 2 3 5 3v8h1l1 1 1 6h1v1h1v5h1v3h1v4l3 3 3 8 20-3c0-2-7-7-6-7h1V2c1 0 3-4 5-4l1-2h2l1-1 1-1v-2c2 0 2-6 3-7l1-5h1l1-4h2v-2l1-1 2-1 2-2v-4l-1-8 1-3 1-1h1v-1h1l1-1h1v-2l1-1h1v-1h1l1-1 1-2 1 1v3h1l1 4v2l3 2 8 4v10h-1v1h-1v7l3 6 3 7c2 0 2 2 3 2v2h1l1 1 2 2v2h1v3l-5 7c9 4 17 7 26 7 0-2 4-12 8-16 0 0 0-4 2-4v-2l4-1 1-2v-2h1v-2h1v-3h1c1-1-1-10-1-10h-1v-6c1 0 1-2 3-2v-3h1v-2l2-1v-1h1v-2l1-1h1l3-2 1-1c0-4 4-11 4-16h1v-2h1v-2h2l1-3v-2h1v-3h1v-2l2-2v-1l3-1h2v-1h2l4-4 2-3 1-1v-1c2 0 2-3 2-4h1l1-6 2-3v-1h1c0-1 0-4 2-4l3-11h1v-7l1-1h3c0-2 1 0 0 0zm136 46l-10 11 9-5 1-6zm283-352l10-5-10 8v-3z"/><path id="path649" class="fil0 str0" d="M222-265c1 3 1 3 3 3 2 4 15 3 20 6v1h3"/><path id="path650" class="fil0 str0" d="M234-297v7c-2 0-3 7-5 7l-1 7-2 1v3h-1v6l-2 2-8 1v1c-3 2-21 0-26 0"/><path id="path651" class="fil0 str0" d="M248-185l-6-4v-2l-2-1v-2l-2-1v-1l-5-3h-3c0-3-14-4-16-7l-3-6v-2l-2-1"/><path id="path652" class="fil0 str0" d="M321-242c-4 0-7 3-11 4-12 4-38-7-49 0v1h-3v1c-3 2-10-1-13 1v1h-2l-1 1v1h-1l-1 1v6l3 4 1 1h2l1 2h3l1 2 5 1v1h3v1h2c0 2 11 4 13 5h4v1c1 0 4-1 4 1"/><path id="path653" class="fil0 str0" d="M275-317l2 4 1 1h2l1 1c3 0 9 8 13 8l1 3h1l1 4h1v5l3 1v1l8 2v1h4v1h2v1h6v1l16 4 1 1v8l-21 1-1 2h-2v1h-2v1c-4 2-18 3-23 3-3-3-18-3-24-3l-1-4v-10l-7-5-4-1v-2l-2-1v-2l-1-1c-3 0-5-7-9-7l-5-3"/><path id="path654" class="fil0 str0" d="M329-318l-3-3v-2l-1-1-1-1-3-3-4-1-1-2-7-2v-1l-4-2"/><path id="path655" class="fil0 str0" d="M452-335c-7-6-19-4-26-8v-1l-11-1v-1c-2-1-6 0-7-3-6 0-12-6-18-1v1l-3 2-2 1h-2l-2 1-1 2h-8l-1-2c-6-2-18-11-22-11v-2l-1-1-1-1"/><path id="path656" class="fil0 str0" d="M480-364c-20 0-46-6-66-6 0 3-8 1-8 3-6 0-23 2-26-4h-2l-1-2"/><path id="path657" class="fil0 str0" d="M510-394c-14 1-38-4-49 2v1h-37"/><path id="path658" class="fil0 str0" d="M426-398l-3 11-1 1-4 4h-2l-4 3-3 13c-6 0-14 7-17 7l-1 4-2 1v2l-4 1c-2 2-8 4-11 4l-1 2h-1l-2 7h-1v3l-2 1-1 3h-2l-1 1-1 1-1 3h-2l-1 1v1l1 1 10 3c0 3 14-1 14 2 14 0 8 4 1 0v-1c-2-1-29-7-32-5v1l-7 1c0 2-4 2-5 2v1h-3v1h-2l-1 2-6 2-1 2h-2v1h-6v1h-2l-4 3-4 1-1 3h-1c0 1-1 3-3 3 0 1-5 3-5 5l-4 2-3 3h-2l-3 2-2 2v2l-1 1-17 2c0 6-4 12-4 17l-1 1-1 1-3 2c-4 0-11 1-11 7-6 0-4 17-6 20h-1v2l-1 1h-1v1h-1c-3 3-9 7-15 7l-1 1-2 5-15-1-1-1v-2l-1-1h-2l-1-3c-3 0-6-5-8-5v-2l-1-1h-1l-1-1-4-4-1-3-2-1c0-2-7-11-8-11l-2-2-1-1"/><path id="path659" class="fil0 str0" d="M446-416l-3 4c-2 0-4 3-5 3 0 2-2 3-3 4v1c-8 6-25 1-33 6v1c-2 1-15 3-15 7l-1 1h-1l-1 1-1 4v2l-2 1-1 1-4 4-2 1c-6 0-12 4-17 4l-2 2-1 1v1l-1 1h-2v1c-3 2-12 1-16 1l-1 1-1 1h-2v1h-3l-13 6-2 3v2h-1v3c-1 1-3 3-3 5l-3 3-8 3-6 2-1 1v2l-2 2v2l-2 1c0 2-2 2-2 2v1l-14 5-1 1v1h-1v1l-1 1h-2v1h-2v1l-11 1-5 1c-1 2-5 3-7 3 0 2-4 2-4 4h-2v1h-2v1h-2c0 3-13 4-15 6v1l-3 2h-1l-15 8v1l-6 4v2h-1l-3 11-1 2v2l-1 1-2 1-10 2v1c-1 1-11 0-11 2-14 0-29-5-41-5 0-3-17-17-19-17"/><path id="path660" class="fil0 str0" d="M-301-140l3 2 9 4v1h2l1 2 4 1 1 1v6l-2 1-1 6c-1 0-1 7-1 1l3-2 1-1v-1h1l1-1v-9h2v-1l9-1 1-1 1-1v-2h1v-3l1-1 1-1c4 0 18 2 21 0v-1c1 0 2 1 2-1h3"/><path id="path661" class="fil0 str0" d="M-235-175l19-1 1-1v-2h2v-1h12c0 4-3 7-3 11l1 1h2l2 2v2l-1 1-1 2-5 1v1h-3c0 2-4 1-4 3h-3l-1 1-3 4v2l-1 1-4 2-2 1h-2v1l-4 1v1l-3 2c0 4-3 8-3 11l-1 1-1 1-7 2v1h-2v1h-2c0 2-5 4-6 5v1h-1l-2 1-1 9-1 4h-1v3l-2 3-2 2c-2 0 0 2-2 2"/><path id="path662" class="fil0 str0" d="M-106-254l-2 4-1 1h-1l-1 1c0 6-18 4-18 9h-2v2h-1v2l-1 1h-1v1l-1 1h-17l-5-3-1-1v-2l-1-1h-2l-4-4-1-2h-2v2c-2 0-3 2-3 3-2 0-2 2-3 2v3c-2 2-1 9-2 11h-1l-1 9h-1v2h-1v2l-1 1h-1v1l-1 1-2 2-3 1-3 4c0 4-5 8-5 11l-3 1v2h-1v6l2-4 22 1 1-1v-1l1-1 15-2 1-1v-1h1v-1h1l1-1c0-6 4-10 6-14l3-2 12-4v-1l3-2v-2l1-1 18 1 31 3 34 1"/><path id="path663" class="fil0 str0" d="M-110-261c-5 0-23 1-27 3v1c-5 3-19 3-25 3 0 3-9 4-11 5v1c-4 3-17-2-20-2 0 5-4 12-4 15l-1 1h-1v1h-1l-1 1v2h-1v4l-4 4-2 2-6 3h-2v1l-9 5v2h-1l-1 4-2 1c0 2-2 2-3 2l-1 1v1h-1l-1 1"/><path id="path664" class="fil0 str0" d="M-153-296c-31 6 11-10-5 1v1l-5 1-1 2-1 1-1 1h-3l-1 1v2l-2 2-3 2-14 1v1h-2v1l-7 1c0 2-5 0-5 2l-5 2h-3l-2 1-1 2-10 1-1 1h13v1h3c0 2 4 2 5 2v1h2l1 1v1l6 5v2h1v8l-4 1v1c-1 0-4 0-4 2h-2v1h-2v1h-2v1l-10 1-8 2-3 3c-5 0-21 0-25 3v1c-1 0-3 1-3 3l-4 1-11 1"/><path id="path665" class="fil0 str0" d="M-309-259c5 0 16 0 18-2h2v-1h2l1-3 3-3 10-2v-1c1 0 4 0 4-2l8-1 2-1v-5h-2v-2l-2-2 4 1v1c1 1 5 0 5 3l4 1 1 2 5 2 6 2h3l10 1-4 2-1 1v1l-1 1h-2c0 3-4 5-6 5 0 2-11 4-13 4l-2 2-9 2c-2 0-9 1-9 3h-2l-1 2c-1 0-5 2-5 4l-1 1h-2l-1 1v1h-1v1l-1 1"/><path id="path666" class="fil0 str0" d="M-359-301l4 3v2h1l2 3c3 0 12 6 13 8h2v1c4 2 21 0 26 0l1-1v-1l1-1h2v-1c6-4 18 8 24 4v-1h2v-1h2l2-2h6v-1c1 0 4 0 4-2l12-3v-1l8-3c0-2 6-3 6-5 3 0 7-3 11-3l1-2 2-1v-2h1v-3l2-3h2v-1l13-1"/><path id="path667" class="fil0 str0" d="M-331-352l-6 2-1 1v2l-1 1-1 1-3 2c-4 0-18 3-21 6l-11 1-2 1v2h-1c-2 4 2 13 2 16l1 1c2 0 2 3 4 3l2 2 1 1v1h1v1h1v1l1 1h5l1-2 21-1 1-1 1-1v-2h1v-2c5 0 30 3 35 0v-1h3v-1h2v-2l1-1h1l1-1v-2l10-2v-1l9-1 2-2v-2h1v-2l1-1"/><path id="path668" class="fil0 str0" d="M-467-326l15-1 1-1v-1l4-3h3v-1l9-1 1-2h3v-1c5-3 28-2 33-2l1-1v-9c-1 0-2-3-4-3h2l1 1v1h1l1 1v3h1v2h1v2l1 1h1v1h1v1h1v1l1 1 2 2 1 1 1 1 3 1v2l2 1 2 3v8l-1 1h-2v1h-4v1h-2v1h-2v1h-2v1h-2l-1 2-4 2c-7 0-22 1-27 4v1l-8 1-8 2"/><path id="path669" class="fil0 str0" d="M-505-358c3 0 21 2 23 1v-1c10-7 32 8 44 1v-1c6-4 27 2 34 2 0-2 0-6-2-6v-3l-2-1v-16l4 3h3c0 2 19 4 22 5v1h3l1 1v1l1 1h2c0 2 13 8 16 8l2 2h4v1l17 1c0 4 12 3 14 4v1c1 1 7-1 7 1h3c0 2 12 2 12 5l4 1c3 0 13 3 16 5v1h3v1c2 1 25 4 28 3v-1h18v1h4v1h2v1h2l4 3 1 1 1 1 2 3v2l2 1 4 4 1 1v1h1l1 1v2l1 1 1 1 2 1 24 5v1c5 3 17 3 23 3 0 2 10 4 12 6v1h4v1l14 3 1 1 1 1v3h1v3h1l1 5h1c1 1 4 9 6 9v2l2 1 2 4v4l4 3v1l3 2h5v1c4 2 13 2 16 4v1h6v1h4c2 2 10 2 13 4v1h2v1h3v1h3l2 3 2 1v3h1c2 5 1 18 1 23h-14l-1 1v1l-1 1h-3v1c-4 2-9 0-13 4v2l-2 3-1 1-5 1c0 2-7 2-8 3v1c-1 0-3-1-3 1h-3l-1 2-2 1v2h-1v2l-1 1c-5 0-17 3-22 0v-1c-2-1-6 0-7-3l-6-1v-1l-3-1v7h-1l-1 8-1 1-9 1v1l-9 1-1 2h-3v1l-9 1-1 3-3 1-1 3-2 1-2 4h-2l-1 1v1l-1 1h-2v1h-3v1h-2v1h-2l-1 2h-2l-1 1-2 2-1 1-2 3v5h-1v2l-2 4-6 8v2l-3 1-1 2h-2v1h-3v1h-3l-1 1v2h-1l-3 13-1 2"/><path id="path670" class="fil2" d="M58-31h-2v1l-2 2h-2-2v1h-1l-2 1c-3 1-8 0-10 2h-1v5l4 1v5l1 1h1v-1h1v-2l1-1 4-1v-1h1v-1-2h1v-2h7v-1l1-7z"/><path id="path671" class="fil2" d="M-130-94l23-25 54 2 20-3 43-46 3 4 2 10 4 12v19L8-109 7-99l1 7 4 9 18-5 1-3h17l9-5h7v4l-6 3-4 9-18 15-10 11-5 6 1 3 12-4 22-11 20-10v5l-2 3v6h-9l-1 2-6 1-2 1v1h-2v1h-8v1l-1 1-1 1-3 1-6 1-1 1-1 1-1 1-6 2-2 2h-1v1h-7l-1-1v-7l1-1v-3h1v-2l2-1 2-1v-1l1-1h1v-1l2-2v-1l1-2v-1l1-1h2l1-1 2-1 1-1 1-1 1-3v-1l1-1h1l2-1h1v-1h1l1-1h1v-3h1v-1l1-6H35v1l-3 2-2 2-8 2-5 2-2 1v2l-6 1-2 1v12l-1 5-1-2H4l-1-2-2-1H0v-1h-1v-1h-1v-1h-2v1h-1l-2 1-1-1v-4l1-1h2v-1h1v-1l1-3 1-1v-1l1-1h1v-2h1v-1-4l-1-1h-1v-2h-2v2l-3 2h-1l-1 1-8 1v1h-3v1l-3 1h2l1-1v-2l1-1 1-2h1v-1h1l1-1 1-1 1-1h1v-1h1l1-1h1v-1h1l1-1h1l1-1 1-1v-1-1h1v-1h2v-1-8l1-1v-1l1-4 1-1 1-2v-3l1-2v-1l2-2v-1h4l1-28-2-2-1-2H7v-1l-14 17-5 1-20 21-11-1v1h-2v1h-6l-1 2h-51l-14 15v3l3 1 3 1 2 2h2v2l2 2v1h2l3 2 1 1 1 1 1 1 13-1v-1h1l1-1 8-1v-1h1v-4h12v-2l1-1h1l7-1h10v-2h1l12 2v3h-1v1h-1l-1 3h-2v1l-2 1v1h-1v1h-1v2l1 1 2 1 3 2h3v1h3v3h-17l-1-1v-3l1-2v-1h1v-1-3l1-1h2v-1h2v-1h1v-2h-1v-1h-8v1l-2 1h-8l-3 1-5 1h-1v1h-1v1l-2 1h-4l-2 1-1 1v3l-1 1h-1l-1 1h-2l-4 1-1 1-7 1 1 1v2h1l1 1v2l1 1 3 3h2c0 2 4 2 5 3h2l1 1v1l2-1 8 1 1-1 4 1h3v1h1v1h-4v1l-8 1v1h-1l-1 1-8 1v-1l-4-1h-1v1l13 14 1 1 2 1 2 2 1 1v1l2 2 8 1v-1h9l2-1v4l-1 2h-1l-1 6h-2v-5l-1-1-1-1h-1l-10-1v-1l-1-1v-1l-22-22-3-12-11-17-20-14h-13z"/><path id="path672" class="fil2" d="M-208-106l3-2 1-2 3-1 1-2v-1l6-1 1-6 7-1 1-1 1-4v-1h7l1-1h1v-1l6-1 1-1v-1h10v-1h1v1h1c0 3 7 3 8 3h1v-1h1v-1h1l3-1h1v-1h2l4-1 1-1h1v-1h1v-1h5l1-1h3v2h-2v1h-1v2l-1 1-8 4h-2l-3 1h-1v1h-1c0 1-4 2-4 4h-1l-1 1h-11v-1h-1c-1-2-6-3-8-3l-2 1-1 2h-2l-1 1h-1l-1 2-5 4-4 2v2l-3 3h-1l-1 1h-3l-15 2z"/><path id="path673" class="fil2" d="M-44-137l-5-2h-1v-1c-4-3-12-3-16-6h-1v-1h-1l-7-3v-1l-2-1h-1l-2-2h-1l-1-3v-2l-1-1h-3v9h-1l-1-1h-1v-1l-1-1h-2l-6-1c-4-1-14 1-17-1v-1h-2l-8-2v-1h-1v-1l-1-2-5-1-1 1-1 1-1 1-6 2v1h-3l-2 2v4h1v2h6l5-1 1-1h1v-1h6l1 1v1l25 3h1v1h1v3l9 1h1v-2l2-1h3l1 1v1l6 2 32 5z"/><path id="path674" class="fil2" d="M-127-171v4h4l1-3v-1h-1v-1l-3 1h-1z"/><path id="path675" class="fil2" d="M-35-217l2 1 2 4v1l1 2 1 4 1 1 8 3 3 1 5 1 8 3 2 1 4 2v2l-7-1c-7-5-20-2-26-7l-8-2h-1l5-16z"/><path id="path676" class="fil2" d="M271-136c-15 3 6-5-3 0v1l-4 1h-1v1c-2 1-8-1-8-2h-1v-1l-2-1-1-1v-1c-1 0-4-2-4-4h-2v-1h-1v-1l-1-3-1-2-1-1-1-1-4-3-1-2-1-1-1-1-2-1-1-1h-1l-8-2h-1c0-1-3-1-3-3l-2-1h-1v-1 3l1 1h1v1h1v1l2 2h1v1h1v1h1v1l1 1 2 3h1l2 1 4 2 1 2v1h1v2h1v2h1l1 3v1l4 4h1v1h1l1 2v2l1 1h1v1l8 3v3l-3 1-3 1-1 1h-3v1l3 1c2 0 7 4 9 2h1l1-1v-1h3v-1h2v-1h1v-2h1v-1l1-3 1-1v-1l4-9z"/><path id="path677" class="fil2" d="M109-122l-4 1h-4v1c-6 3-19 0-26 1l-6 1-1 1-8 1v1h-1v1h11v-2l27 2v1h1l2 2 1 1v1h1l1-2h1v-1h1v-1h2v-1h2v-8z"/><path id="path678" class="fil2" d="M161-151l-2-2h-2v-1h-1l-2-2-6-2v-1l-11-2-12-1v2l-1 1h-3v1h-1l-12 1v-2h1v-1-5h1v-2l-8-1v1h-1v1l-2 1h-2v1l-7 1c-2 2-9 0-11 0l-7 1-1 5v1h-1v1h-1l-1 1h-1v1h-1v1h-1v3l1 1h4v-1l1-1h1v-1h2l3-1v-1l2-1v-2l1-1 10 1 1-1h1v-1l6 1v1h2v2h1v3h1l5 1h8v-1h8v-1h2v-2l1-1 8 1h6v1h2v1h3l1 1v1h1v1h2l1 1 1 1 10-4z"/><path id="path679" class="fil2" d="M188-175c-6 0-11-4-17-4-4-4-18-5-23-6h-11l-8 1h-9c0 2-5 0-6 0l-2-1h-1v-1h-11v-1l1-1v-1h1v-1h1v-1h1v-1h1l1-1v-1l2-1 1-1v-4l-1-1h-6v2l-1 1-2 1-8 2-4 2h-2c-4 0-13 3-17 1v-1h-1l-9-2v-2c2-1 14 0 14 1l3-1h1l6-1h2l2-1v-1l2-1v-2h1v-2l14-1 3-1h2l1-1 1-1h4v-1h2l8-1v1h2l-1 9-1 1-1 1h-1v6l3 2 6 1v-1h12c4 1 14 2 17 5h2l10 3 13 2 1 2 2 1v3z"/><path id="polygon680" class="fil2" d="M17-195l2 4h6l2-3z"/><path id="polygon681" class="fil2" d="M63-281l14 16v7l5-8-12-16z"/><path id="polygon682" class="fil2" d="M34-280l19 23-8-24z"/><path id="polygon683" class="fil2" d="M8-280l26 22-15-22z"/><path id="polygon684" class="fil2" d="M-21-271l45 19-30-23z"/><path id="polygon685" class="fil2" d="M113-260l-17 26-26-2 20 7 2 3 4 1 1-5 18-22z"/><path id="path686" class="fil7 str0" d="M7 39c34-1 66 5 98 14l-5-9v-4l-1-4v-1l-4-4-1-1v-1h-1v-1H81h-1l-1 1-10-1v1c-2 0-11-3-11-1-4 0-10 2-12-1h-1l-1-9-2-1H27l-3-1-3-2v-1h-1v-1h-2v5l-2 2v1l-1 1-6 2-3 2-1 2H4l-1 1v1l2 1v7h1l1 2z"/><path id="path687" class="fil7 str0" d="M-108 56A303 303 0 016 37v-2H5v-2-2H4v-2H3l-2-2-1-2v-5h-1l-3-1v1h-1l-7 1v1l-1 1h-5v1h-8l-1-1v-1h-1v-2l1-4v-4l-1-1v-1l-5 1h-1v1l-9 1-5 1h-2l-2 9-1 2h-1l-2 1-2 1-2 2v1h-1l-7 1v1c-2 1-13-1-15-2h-11c-2-3-9 0-12 0l-1 1c0 6-4 13-2 19l1 6z"/></g><g id="seal"><circle class="fil3 str0" cy="390" r="355"/><circle class="fil7 str0" cy="390" r="305"/><path class="fil2" d="M-265 343l2-8 4-8c1-2 2-4 5-4l7-1 4 3 3 6-2 8 22-9-1 5-22 8-1 2 18 6-1 4-38-12zm5-3l13 4 2-6 1-6-2-4-3-2a6 6 0 00-7 2l-2 6-2 6zm14-52l11-21 3 2-8 17 11 5 8-16 4 2-9 16 14 7 8-16 4 1-11 21-35-18zm58-24l-27-29v-1l36 8-15-33 34 20-2 3-24-15 12 29v1l-31-7 19 21-2 3zm25-85l6-5 8-5h7l5 4c2 2 2 4 2 7l-2 6-8 6-3 2 11 15-3 2-23-32zm5 1l8 11 6-4 4-4 1-4-1-4-3-2h-4l-5 3-6 4zm46-33l4-2 9 22 2 5 3 3 4 1 4-1a9 9 0 006-5v-4l-2-6-9-22 4-2 9 22 2 9c0 2 0 4-2 7-1 2-3 4-6 5l-8 1-7-4-4-7-9-22zm62-22l8-1h7l4 3 3 5a9 9 0 01-4 9l5 2 3 3 1 4c0 3 0 6-2 9-3 2-5 4-9 4l-11 2-5-40zm4 4l2 12h2l6-2a7 7 0 003-6l-2-4-6-1-5 1zm2 16l2 15h5l6-2a7 7 0 004-7l-2-5-5-2-7 1h-3zm52-24h4l-3 36 15 1v3l-19-1 3-39zm50 6l4 1-11 39-3-1 10-39zm67 34l-4 1a17 17 0 00-10-12 18 18 0 00-17 1l-6 7c-2 4-2 9 0 13 1 4 4 7 9 10 5 2 10 2 15 0l2 3c-3 2-6 2-9 2l-10-2a20 20 0 01-10-28c2-6 6-9 12-11 5-2 11-2 16 1l8 6c2 3 4 6 4 9zm45 23l-10 43-4-3 4-14-14-11-13 7-3-3 40-20v1zm-5 6l-15 7 11 9 4-16zm11 52l34-21-14 34 35-10v1l-26 30-3-3 19-21-30 8-1-1 13-30-25 16-2-3zM260 430l-3-4c3-2 5-4 6-7l3-7a18 18 0 00-7-16 16 16 0 00-17-2c-3 1-5 3-7 6-2 2-3 5-3 9-1 4 0 7 2 11 2 3 5 5 8 6l2-13h4l-2 17c-6 0-11-3-14-7s-5-9-4-15c1-7 4-13 9-16 4-3 9-4 14-4a21 21 0 0117 13c1 3 2 7 1 11a25 25 0 01-9 18zm0 29l-6 21-4-1 5-18-12-3-5 18-3-1 5-18-15-5-5 18-4-1 6-22 38 12zm-16 47l-3 7-5 8c-2 1-3 3-6 3-2 1-4 0-7-1l-4-4-1-6 2-7-23 4 2-4 23-4 1-2-16-9 2-3 35 18zm-5 1l-12-6-3 6-2 6 1 4a7 7 0 006 3l3-1 4-5 3-7zm-22 45l-14 18-3-3 12-15-10-7-11 14-4-2 12-15-12-9-12 14-3-2 14-18 31 25zm-33 37l-7 5-7 6-6 1c-3-1-5-2-6-4-2-2-3-3-3-5l1-6 5-6-22-5 3-3 23 5 2-1-12-15 3-2 26 30zm-6 0l-9-10-5 4-4 4-1 4a7 7 0 005 6h4l5-4 5-4zm-35 31l-19 12-2-3 16-10-7-10-16 9-2-3 16-10-8-13-16 10-2-3 19-12 21 33zm-258 12l-7-4c-4-2-6-3-7-5l-4-5c0-3 0-5 2-7l4-4 5-2 8 3-4-23 5 2 3 24 2 1 9-16 4 1-20 35zm-1-5l6-12-6-3-5-3-4 1a7 7 0 00-4 7l2 3 4 3 7 4zm-42-22l-18-14 2-3 15 12 7-10-14-11 2-4 15 12 9-13-15-11 3-3 18 14-24 31zm-56-65l3 1a17 17 0 005 15 18 18 0 0016 6l8-4c4-4 6-8 6-12 0-5-2-9-5-13-4-4-8-6-14-6v-4c3 0 6 0 9 2 3 1 6 3 8 6 5 5 7 11 6 17-1 5-3 9-7 13-5 4-10 5-15 5-6 0-11-3-15-7-3-3-4-6-5-9v-10zm-16-18l-3 2-11-19 3-2 5 8 31-18 2 4-31 17 4 8zm-25-39l-7-22 3-1 7 18 11-5-6-17 4-2 6 18 15-5-7-18 4-1 8 21-38 14z"/><circle id="esphere" class="fil5 str0" cy="390" r="205"/><clipPath id="esphere_cut"><use xlink:href="#esphere"/></clipPath><path id="path821" class="fil7 str0" clip-path="url(#esphere_cut)" d="M-205 375a400 400 0 01410-15v80a400 400 0 00-410 15z"/><use xlink:href="#base_star" transform="matrix(.2 0 0 .2 0 255)"/><path id="path823" class="fil2" d="M-170 416l-3-1 5-19-3 2c-3 1-6 1-9-1s-5-4-6-7v-6l3-6a13 13 0 0112-4l5 3 4 6v5l-1 7-7 21zm-2-22c3 0 4-2 5-4s2-4 1-6l-4-5-6-1c-3 1-4 2-5 4s-2 5-1 7l4 5h6zm46-34l28 34-4 1-10-11-16 4-3 15-4 1 8-44h1zm1 8l-3 16 14-3-11-13zm31-16l8-2h7l5 2a10 10 0 01-1 14l5 2 3 3 2 4c1 3 0 6-2 8-2 3-4 5-8 6l-11 2-8-39zm5 3l2 12h2l6-2 3-3v-4c0-2-1-3-3-4h-6l-4 1zm3 16l3 15 5-1 6-2a7 7 0 003-7c0-2-1-3-3-5l-5-1-7 1h-2zm31-27l8-2h9l6 2 3 6v6l-4 4c-2 2-4 2-8 3l17 16-5 1-16-16h-3l3 18-4 1-6-39zm5 3l2 13 7-1 5-1 3-3a7 7 0 00-1-8l-4-1h-5l-7 1zm37-9h4l3 39-4 1-3-40zm22-1h4v36h15v4H9v-40zm50 2l8 1-4 39h-4l3-36h-6l3-4zm47 24l5 5 1 7c0 3-2 5-4 7-3 3-7 4-11 3-5-1-8-2-10-5l-2-9 3-6 6-4c-1-1-3-2-3-4l-1-5 2-5 5-3a13 13 0 0112 2l3 4 1 6-2 4-5 3zm-4-16c-2 0-4 0-5 2-2 1-3 2-3 4s0 3 2 5a8 8 0 0011 0l2-3-1-5-6-3zm-2 17c-3 0-5 0-7 2-2 1-3 3-4 6a8 8 0 004 7l4 2c3 1 6 0 8-1l3-6c0-2 0-4-2-6-1-2-3-3-6-4zm28 27l-3-3 14-14h-4a12 12 0 01-9-14l3-6 5-3a13 13 0 0112 2l4 5v7l-2 5-4 5-16 16zm9-20c2 0 4 0 6-2 2-1 3-3 3-5 1-2 0-4-1-6l-5-4-6 1c-2 2-4 4-4 6l1 6 6 4zm30 0l-4-1c1-4 3-7 7-9 3-2 6-2 9-1a12 12 0 019 14c0 3-1 5-3 6l-8 6-12 8 18 5-1 4-26-7 18-12 8-6 3-4-1-7-6-4-6 1-5 7z"/></g></g><g id="star" class="fil7 str1" transform="translate(0 -1260)"><use xlink:href="#base_star"/><path class="str0" d="M0-225v350M73-101l-205 283M214-70L-119 39M119 39L-214-70M132 182L-73-101z"/><circle class="fil7" r="50"/></g><path id="path624" class="fil1 str1" d="M-314 1461l-93 49-24-18-43 13c-1 7-5 8-12 3l2-32c14-2 90-38 102-53l773-311c126-99 269-229 348-332 73-94 115-200 157-298 107-255 108-530 40-802-58-230-187-468-362-696l19-13c189 245 315 481 377 713a1316 1316 0 01-21 783c-38 110-91 225-171 329-77 99-218 224-323 325l-64-9z"/><path id="path625" class="fil2" d="M146 1294l102 22 1-22 29 3-1 27 23 2c44-11 98 22 151 53 30 21 63 40 125 49l-2 2c-41 21-99 19-158 16-46-3-90-16-131-43l-28-1-20 39z"/><path id="path626" class="fil2" d="M-443 1117c-19-7-40-23-61-40-41-2-74 0-90 11l-43-20c36-9 72-15 108-11-27-23-53-48-78-74-26-3-51-8-77-13-22-16-43-28-58-40l-19 33c2-29-2-54-9-77 14-2 26-1 38 3 20 21 40 43 66 64l54 18c11-12 22-23 35-31l50 27c-17-35-28-74-33-115-15-11-30-21-47-29-4 14-6 30-4 48l25 52-21 25-27-1-47-44-33-38a555 555 0 00-177-36c-12-1-20-9-30-19-14-48-36-94-61-140 41 48 76 74 108 83 12 19 31 34 49 49 26 13 53 23 85 29l-18-25c-34-11-64-29-91-53-8-14-16-30-18-46l-47-4c-25-43-50-85-78-112 39 21 78 45 117 59 3-13 3-25 1-37-35-38-72-74-118-99l-29 40-2 107c-3 28-11 56-22 85 13-53 13-110 6-168-2-22-10-44-18-66 23-40 42-85 57-135 13 14 29 32 43 45 9 43 12 67 19 96l34 33v-22l42-13c14-69 18-143 4-229 15 34 30 75 46 135 9 37 17 74 18 109l-11 42-5 21c19 34 36 72 48 116-9 10-22 20-33 25-17-12-31-29-46-45-5 17 1 39 20 65 18 21 37 33 56 37-11-15-19-31-23-49 14-10 30-17 46-19 32 31 65 64 95 100-2-18-5-37-5-55 12-5 22-8 34-9 15 26 33 46 54 63l-6-80 33 109c21 20 42 33 61 45-20-8-40-18-56-29 7 39 22 73 37 106l18 27c2-22 1-44-2-67l10-11 49 34c-2-25-7-49-17-74 24 30 33 66 53 103 30 21 65 37 107 47l-1 2c-34-1-66-8-97-19 2 18 18 52 40 94 45 16 94 48 138 75 11 4 19 5 32 8l58 50 86 141c-55-24-278-139-336-171l142 66c8-2 13-20 16-28 0-4-1-5-3-8-59-8-124-35-197-104 5-15 12-29 23-42l17 5-21-57-8-34-19-4 5 62 11 10-9 32-24 15-19-9z"/><path id="path619" class="fil7 str1" d="M638 1314c-168 6-338-10-501-35l-34-56 34-62 111-76c134 38 281 54 432 38 150-15 303-81 395-141 15-10 28-22 39-32l-28 41-103 149c76 13 157 33 247 17-190 87-386 146-592 157zm-839-129l145-62 109 21 157 252 40 65-106 63-103-38-148-244-59-50-35-7zm-389 124c15 5 347 183 352 183 8-5 119-6 127-12 1-4 105-84 90-95l-471-241-93-39c-118-51-250-133-349-225l79 183-165 10c166 127 240 162 430 236"/><path id="path627" class="fil2" d="M-980 105l-2 63-43-96-12-4-31 8c0 4-7 12-7 16 2 72-2 141-12 207-8 68-17 134-34 198 32-73 44-131 55-186 12-53 20-106 28-160 18 21 51 73 79 125 4 6 11 9 22 6 10-8 24-15 34-22 2 17 0 36 1 53l-13-18c-4-1-8-4-12-3-7-2-14 1-23 5l-8 6-1 38c-25-28-46-54-67-86l-3 2c12 39 15 72 14 109l12-43c18 15 34 29 48 45 4 42 17 89 44 142 1 1 6 1 5 3 14-4 36-11 38-10l3-3c-3-54-10-99-26-155-6-33-5-72-6-105 2-18 4-35 11-48 3 4 14 20 18 37 4 13 9 19 12 13-9-24-13-46-17-70l-4-69c-5-12-5-7-11-19 0 1-6 0-5-1l-21 35c2 37 6 76-2 104-6-40-15-78-25-118-13-5-25-4-39 1z"/><path id="path628" class="fil2" d="M-857-46l-2-85c-5-6-11-12-22-14-15 15-29 31-45 40-1-29-1-58 1-88 19-47 38-93 60-126 14 60 18 120 26 180 5 23 5 33 17 55 2 7 17 23 28 25l1-2-16-16c-9-12-11-26-13-38-9-47-10-100-1-165l7-46-2-86-10-2-56 41-5 14-10 14-11-16 15-16 9-14 13-6c23-26 48-48 72-70 3-33 10-66 22-99l13-39 11-24-15 20-48 78-58 104 1-17 13-60-19-6v-14c4 4 13 6 18 5 33-34 50-76 71-129v-5c-8-11-17-17-27-19h-6l-32 41c7-68 20-132 40-188-1 0-2 3-3 1l-41 102c-31 50-52 102-68 161l-5 54 4 68c2 28 0 56-4 83-3 15-6 29-11 41l-4-1c-4-21-5-42-6-63a386150 386150 0 00-7-149c-2 22-4 44-11 64l-22 89c-6 31-10 62-11 94l11 92c7 24 12 49 16 74 0 5 4 12 5 17 5 7 7 13 13 19-5 0-8 3-12 4-3 2-7 15-10 24l-8-38c-5-45-17-102-28-123-39-34-71-45-113-63l20 130c2 29-1 60-4 89 3-9 6-20 10-28 7-45 7-90 8-135 4-3 9-1 10-2 7 5 11 9 14 17 9 21 19 43 23 64l13 39c17 23 37 60 49 88 0 28 1 56 7 84 3 6 1 7 4 13 11 7 28 2 40 0 2-7 7-45 9-69-1-30-2-60-6-90l-12-6 24-7c9 4 18 10 27 22l21 77c16 21 27 43 38 65l-7-31-9-50-4-47z"/><path id="path629" class="fil2" d="M-738-810c9 5 17 13 20 26l-26 51c-4 8-9 13-10 21 16-3 32-12 49-24l56-41h1c-27 32-49 66-71 101-26-1-51 1-77 3-6-5-13-9-22-12v-11c20-48 43-90 80-114z"/><path id="path630" class="fil2" d="M-500-1060c-27 25-49 53-73 81l-35 43 3 12 89-67a598 598 0 01103-64 1299 1299 0 00-191 141l1 21-4 25-13 40-11 26 4-29 2-36c0-5-2-9-20-4l-30 29-37 39-19-13c-8-20-17-36-33-48-10-2-22-2-37 3-19 1-38 7-57 12-14 3-29 7-43 8v-3a263 263 0 0096-36c20-14 42-27 65-39 23-3 37 3 31 31l-8 33 1 2h2l23-28 4-9c4-15 8-32 7-48v-10h-12l-11 2-18 9h-3c27-16 52-35 76-57l7 7-2 6h-2c-9 27-18 52-22 76l2 1 14-15 13-16 19-26 22-30 23-35c29-47 59-82 89-115h1c-42 53-79 109-114 169l-1 5 2-1 85-91a1709 1709 0 01128-106c-40 33-78 68-116 105z"/><path id="path688" class="fil2" d="M571-1000l18-17 8-12 4-32-1-42-1-5c-7-6-9-10-17-15-10-7-5-13-10-26-9-9-33-28-42-32-9-5-16-13-25-19v35l-22-8-6 2v-1h-2v-1l-3-1-2-1-4-2v-1h-2l-2-1c1-1-2-2-3-2l-1-1-2-1-1-1-1-1h-1v-1c-2 1-5 2-15-3l1-1h-5l-28-13 11 25v5c0 9 5 11 5 13h1l1 1v2l2 1v1h1v2c0 1 0 3 2 3v2h1v2h1l1 4h1v5h1v3h1l1 10h1v3c2 0 2 9 4 9l1 4 3 5-41-4c6 10 14 16 18 26 4 9 8 19 16 28 12 7 24 14 30 26l13 20 5 3 37 1 36-1 12 4z"/><path id="path689" class="fil2" d="M782-718l10-9h8l4-2 19-41v-6c-7-7 7-24 0-31-10-9 2-19-2-33-2-3-12-18-16-29-3-8 2-17-2-25-3-6-7-5-10-11-8-17-16-31-19-33-10-7-8-16-17-24-2 13-11 24-13 38l-6 45c-16-4-30-12-44-22l-10-7-5-1-26-20c2 9 2 21 5 30l1 5h-1c2 21 4 40 1 55l-18 1c-14-3-28-12-42-15 10 9 22 43 29 54 5 9 13 26 21 37 12 9 22 6 27 13l8 12c7 10 12 11 15 17 1 0 17 2 16 4h33l17 9 17-11z"/><path id="path690" class="fil2" d="M933-403c4-3 9 4 13 2 6 0-4-4 1-7 6-8 18-19 28-29l14-12c-2-7 5-16 3-23-6-10 4-23 2-38-2-3-9-12-12-24-2-9 4-21 1-29-2-7-4-7-8-13-13-16-13-30-17-33-9-7-10-22-17-32-4 14-15 27-19 41-11 16-15 32-18 49-8-4-8-12-15-17a25908 25908 0 00-33-25l-24-23c2 9 0 21 2 30l-1 6c1 21-4 42-10 56l-25-16c-14-4-64-8-77-12 3 4 5 18 15 28 6 6 3 22 6 29 2 5 17 13 23 27 7 15 19 31 22 38 12 10 24 7 28 15 0 3 17 11 19 16 1 2 35 1 34 2l33 4c8 1 14-3 21-2 4 0 7-8 11-8z"/><path id="path691" class="fil2" d="M1028-6c4-1 6-4 10-6 6 2 8-7 14-8 4-4 10-6 15-11l8-11c-2-2 7-5 8-6 8-3 34-23 34-30v-26c-4-11-3-23-4-34l-2-40c-2-20-6-26-7-29-2-12-5-26-11-37-5 18-16 26-23 38-14 14-28 36-34 51-3-3-11-9-13-14-1-6 1-12 1-15-1-7-2-10-7-17l-12-13c-5-11-27-33-35-41 0 10-18 28-18 38l-10 25-7 18c1 2 1 11-3 23l-27-25-57-28c2 4 3 25 4 39 1 8-4 25-3 33 1 5 10 11 14 26 4 16 3 28 5 35 4 6 5 13 13 18 7 4 23 9 24 13 0 3 5 11 7 16 0 1 15 7 34 8 10 1 27 8 31 6 10 3 12-3 23 1 1 1 10-6 14-5 11 3 10 8 14 8z"/><path id="path692" class="fil2" d="M1015 359l27-13c-1 1 25-13 25-24 2-10 22-15 26-29 4-12 1-19 7-28l13-34c6-14 7-33 7-37 1-11 4-15 1-27-9 16-21 21-31 31-10 7-17 14-25 16-5 0-12-7-15-2-3-3-19 14-19 9 0-6-11-18-12-21-2-7-3-19-3-27-3-5-12-50-20-62-3 9-22 30-24 39l-11 18-19 20c1 2-6 14-12 25-6-9-13-10-18-18-9-5-40-15-60-26-8-5-18-5-21-8l6 26c2 7 9 38 8 46 0 5 11-3 11 12v24l11 28c3 6 2 12 5 14 6 7 17 8 17 12 0 3 6 8 6 13 0 2 12 14 31 19 9 3 24 14 28 13 9 5 13 0 23 6l14-1c5-1 22-12 24-14z"/><path id="path693" class="fil2" d="M859 726l42-4c-1 1 23-14 26-24 10-3 39-12 47-24 7-10 3-6 10-14 5-5 24-18 27-26 5-14 13-25 15-28 8-9 14-23 18-22-7 1-21-8-33-5l-25 7-21-1c-4-1-18 5-22 9-2-4-27 8-26 3l1-38c1-11 6-9 6-14 1-3 0-49-8-65-8 3-29 17-38 25-1 1-12 9-23 14 0 0-24 26-18 22 0 2-16 15-25 24-4-9-16-20-19-29l-31-28-17-17c1 5-5 13-5 28 1 8-8 18-10 26-2 5 3 9 5 24 1 17 0 21-1 28 0 5-6 10-5 21 1 7 6 11 8 14 4 7 0 27-1 31-1 3 17 11 15 17 0 1-1 10 18 14 12 3 40 22 42 24 23 11 26 8 31 9 5 2 15 0 17-1z"/><path id="path694" class="fil2" d="M612 1063c6 4 39 4 42 0-1 1 14 8 23 9 10 0 23-15 36-13 9-8 11 10 21 5 6-4 27-8 32-14 10-10 27-11 30-13 10-7 18-17 22-15-10 0-56-38-66-39-17-1-42-15-42-15s-18-2-23-8c-4-4 32-40 26-38 1-3 9-22 9-27 1-6 13-18 14-21 4-10 5-20 6-25 1-3-3-50-4-68-10-1-23 13-31 20-1 1-19 10-31 11 0 0-23 14-17 12 0 1-23 9-39 24-12 11-18 5-23 8-1-10-11-4-11-14-1-9-6-34-18-54l-15-28c-1 5-10 7-16 20-3 7-16 9-14 17 2 13-22 42-24 50-8 23-1 34-2 37-2 12-6 28-6 21 0-9 3 36 1 39s10 27 7 31c0 1 2 13 19 22 11 6 32 20 33 22l32 28 29 16z"/><path id="path695" class="fil3" d="M-180 1262c32 14 63 30 94 47-9 3-20 17-29 21l-80-41 15-27z"/><path id="path700" class="fil2" d="M-788 1049l60 32-16 31-3-2c8-22 2-34-12-42-4-2-8-3-10-2s-5 4-7 9l-15 27 1 1c15 7 20 0 26-9l2 2-18 37-3-2c7-18 6-17-7-24l-3-2-15 29-4 12c1 2 4 5 9 7 24 11 32 0 43-15l3 1-17 34-62-33 2-3c8 5 14-3 18-9l29-55c6-13 4-17-2-21l1-3z"/><path id="path701" class="fil2" d="M-656 1119l3 1-14 31-2-1c2-14 2-18 0-27-3-9-5-9-11-13-9-3-19 5-22 12-4 13 8 22 12 27 9 10 12 17 12 23 1 7 0 16-3 23-6 14-20 16-32 15-13-3-14-10-20-19l-2-3c-4-1-7 2-7 3l-5-1 18-36 3 2c-3 13-3 20-1 30 3 10 6 15 14 17 5 2 9 1 13-3 13-12 10-27-1-40-8-9-11-15-12-22-2-7 0-14 2-20 5-9 20-18 30-15 8 0 15 15 19 16-2 0 4 4 6 0zM-631 1130l63 30-17 37-2-2c3-16 3-25 2-31-2-7-1-9-8-12l-3-2-33 70c-3 6-3 11-2 14 1 2-1 7 7 11l-1 3-39-18 1-3c8 3 12 1 15 0 3 0 6-4 9-10l33-70-3-2c-6-3-9-2-15 1s-12 10-22 22l-3-1 18-37z"/><path id="path702" class="fil2" d="M-530 1246l5-43-28 32zm20-62l-12 86c-2 9 1 20 4 21l2 1-1 3-31-13 1-4c5 2 10 4 13-1l4-28-25-11-14 15c-10 12 0 14 7 18l-2 3-30-13 2-3c12 3 22-12 29-21l48-55 5 2z"/><path id="path704" class="fil2" d="M-476 1296c-3 6-4 11-3 13 0 2 3 4 9 7 24 11 39-11 48-28 7-16 10-28 7-37-2-10-2-14-16-21-4-2-7-3-9-2-2 0-4 3-6 7l-30 61zm18-83l32 15c6 4 11 6 16 12 6 6 7 14 7 24-1 11-3 19-7 28-4 7-8 15-15 20-13 9-21 15-36 12l-12-5-30-15 2-3c8 4 14-4 17-10l27-55c5-13 3-17-3-20l2-3z"/><path id="path705" class="fil2" d="M-337 1271c7 4 10 10 12 16s3 16 1 23a85 85 0 01-42 63c-8 2-16 1-22-2s-9-7-12-12c-8-19-5-42 6-59l12-16c4-4 12-12 18-14 9-2 20-4 27 1zm-20 7a93 93 0 00-36 68c2 18 12 26 26 16 17-17 31-45 33-69 0-19-11-22-23-15z"/><path id="path706" class="fil2" d="M-259 1368c-5 3-10 9-14 19-5 9-7 17-7 23 0 12 9 11 16 6 6-4 11-11 15-21 6-12 6-22 3-27-6-5-9-3-13 0zm31-36l19 7-38 81c-3 7-5 11-2 13l1 1-1 3-15-6 4-8c-4 3-19 3-23-1s-5-6-6-15a47 47 0 0122-44c7-5 11-5 18-4 5 1 9 7 11 11s2-1 2 3l11-18c5-10 3-17-2-19l-2-1 1-3z"/><path id="path707" class="fil2" d="M-199 1391c-5 4-9 10-13 20s-6 18-5 24 9 10 14 8 6-4 9-9 5-9 8-19c4-10 3-9 3-15 0-12-10-13-16-9zm23 33c-5 14-22 28-34 26-6-1-12-5-14-11-4-12-3-23 1-34 3-8 9-15 17-19 8-5 16-5 23-1 12 10 12 27 7 39z"/><path id="path708" class="fil2" d="M28 1255h5c7-3 19-11 21-15 1-3 2-5-2-12-2-4-8-11-10-10l-30 18c5 7 11 17 16 19zm11-63l19 32c7 14 5 34-5 40-11 5-15 6-22 4-7-3-7-6-11-15 2 5 5 10 2 14-5 8-19 19-23 25-1 3-3 5-1 7 4 1 7-1 11-2 2-2 4 2 1 5-2 2-6 3-11 4-6 2-13 3-16-4-2-5-4-7-1-11 5-10 12-13 19-19 6-5 16-12 12-21l-4-6-3-6-28 19c-6 5-4 11-4 19l-5 2-19-32 5-2c7 8 14 4 20 0l49-31c10-6 13-14 7-22h8z"/><path id="path709" class="fil2" d="M110 1310l-4 2c-4-7-10-7-17-3l-50 33c-10 6-15 13-10 21l-4 4-21-33 4-2c5 8 14 6 21 2l54-35c8-6 5-14 2-18l5-3z"/><path id="path710" class="fil2" d="M145 1362c10 20-9 46-23 56-19 13-50 22-64 12l-7-8c-3-5-5-10-4-16 2-20 17-38 34-48 20-9 52-18 64 4zm-5 3c-11-15-38-2-48 3-15 9-46 35-35 53 12 14 47-7 58-16 10-10 31-26 25-40z"/><path id="path711" class="fil2" d="M210 1203c-1 11-3 27 6 32 14 3 19-21 21-30 1-13 0-24-6-27-13-7-19 17-21 25zm30-65l20 2-16 88c-1 8-1 13 2 13l2 1-1 3-15-1 1-9c-3 5-3 2-7 4s-11 4-15 2c-6-4-7-5-10-13a47 47 0 019-49c6-7 9-8 16-9 5 0 11 5 14 8s1-2 3 3l5-21c2-11-1-17-7-18h-2l1-4z"/><path id="path712" class="fil2" d="M311 1222l-36-5-1 4c-1 9 0 15 2 20 3 5 5 5 11 6 7 1 13-6 15-11h3c-4 12-12 16-19 16-8 0-15-2-20-9s-6-19-5-29c2-9 4-18 11-24 7-7 15-9 22-8 20 5 18 24 17 40zm-21-10l10 1c2-1 1-4 2-7 1-6 0-11-2-14-2-4-3-6-7-6-8 0-11 4-13 8s-4 7-4 15v1l14 2z"/><path id="path713" class="fil2" d="M378 1161l37 1-1 7c-8 0-13 5-13 12l-3 46c-2 23-7 38-27 39-13 0-20-12-19-23 0-5 2-9 5-12 13-11 17 9 10 15s-4 2-5 3l-1 1c1 9 8 11 10 11 11 0 14-20 15-28l3-52c1-16-2-15-11-15z"/><path id="path714" class="fil2" d="M467 1228l-12-42-14 41zm-5-65l20 85c2 9 9 18 11 18h3l-1 3-33-1v-3c5 0 11-1 11-6l-5-28-29-1c-2 7-4 14-7 19-6 16 0 12 12 14h1v4l-33-1v-4c12-1 16-19 20-30l25-69h5z"/><path id="path715" class="fil2" d="M514 1169h22l45 79v-52c0-13 0-24-11-25v-3h27v4c-13 1-11 16-11 24l-1 75h-3l-50-86v57c0 13 1 24 13 25v3h-31v-3c12-1 13-17 13-25v-62c-4-5-9-8-11-8h-2v-3z"/><path id="path716" class="fil2" d="M616 1166l67-4 3 35h-4c-4-23-16-30-32-30-5 1-8 2-10 4-1 1-2 5-2 11l2 31h1c17-1 18-10 18-20l3-1 3 42h-3c-3-19-4-18-19-17h-3l2 32c0 7 2 11 3 12 2 2 6 3 12 2 25-3 27-17 28-36h3l3 38-69 4-1-4c10 0 11-9 11-17l-4-62c-1-14-5-16-12-16v-4z"/><path id="path717" class="fil2" d="M705 1157l40-5 2 7c-9 0-13 7-12 15l7 59c1 8 1 12 3 14s6 3 14 2v7l-39 6v-6c8-1 6-1 8-4 2-2 3-6 2-13l-7-65c-2-9-13-11-17-10l-1-7z"/><path id="path718" class="fil2" d="M814 1183c10-2 11-1 16-6 4-6-3-26-6-30-4-5-27-1-26 4l6 35 10-3zm-41-38l39-7c13-3 17-2 23 2 11 9 14 28 6 37-4 6-10 8-20 8 6 0 14-2 17 2 6 9 12 28 18 34h3c3-3 2-7 2-12 0-2 2-2 3 2 1 2 3 7 2 11-1 6-3 13-10 14-17-1-18-16-21-27-3-8-6-22-15-20l-14 3 7 33c2 8 10 12 16 10l2 5-39 8-1-6c10-3 9-11 8-18l-10-57c-1-12-8-18-16-15v-7z"/><path id="path719" class="fil2" d="M898 1112c8-1 14 0 20 4 6 3 12 10 16 16a85 85 0 0110 76c-4 6-11 11-18 13-13 3-29-7-37-17a94 94 0 01-16-52c1-6 1-17 5-22 4-8 12-17 20-18zm1 6c-17 6-13 35-11 47 3 16 19 54 38 50 18-8 9-47 3-60-6-14-15-39-30-37z"/><path id="path722" class="fil1" d="M478-1051c-6-18-19-30-36-36l-2 1c6 20 18 34 34 38 1 0 2-3 4-3z"/><path id="path723" class="fil1" d="M439-1170l6 1 3 1h2l1 1 3 1 1 1h1l1 2 5 3 1 1v1l1 1v1l4 2 1 1 1 5v3l4 2h1l1 1v7h1v-3l2-6v-1-9h1l1-1c1 0 8 0 8 2h2v2h1l5 1v8l1 1h4v-2h1l1 2c0 1 0 8 2 8 0 1 0 8 3 8v5l2 1v16h-1v1l-6-2-2-1-2-2v-1h-1l-1-2-1-2v-1h-2l-3-2v-1h-1l-1-2v-1h-1v-1h-1l-1-1-2-1h-4l-1 2v3l1 1h3l1 1h1v4h1v4h-4-4c-6-1-13 1-16-4h-1v-1h-1l-1-1-3-3h-1l-1-1-1-1-1-1v-1l-1-1v-1h-1v-1l-1-2v-7l-2-7h-1v-4l-1-1v-1h-1v-2l-1-7-2-1v-1c-2-1 0-5-1-6v-1h-1v-1l-1-2v-4z"/><path id="path724" class="fil1" d="M517-1175v6h1v1h1v1l1 1 1 2v3h-1v5l1 7v1l1 2h1v1h1l1 1 4 3h1v1l5 2h1v1l1 1 1 1v1h1l1 1 1 1 4 3 1 1 1 1 2 1 1 2 2 6v5l3 3 1 2v2h1l4 2 2 2h3v-1h2v-1h1v-1h1v-9c-2 0-1-3-2-4s1-9-1-9h-1v-1l1-2-1-4v-1c-5-10-28-25-49-40z"/><path id="path725" class="fil1" d="M535-1076v2h7v-30h-1v-2l-1-2v-1l-1-1-3-3h-1v-4l-1-1-4-2-1-1-1-1v-1h-1v-3l-6-3v-1l-3-1-2-1h-1v1l-1 1 1 3v1l1 2h1v2h1v2h1v9h1v2h1v4l2 3h1l1 2v4l1 7 1 1 1 1 1 2 2 2 1 1v1h1v2l2 3z"/><path id="path726" class="fil1" d="M455-1102l1 1v1h1l1 1v1l1 1v1h1v4h1l1 1 2 2h2v1h1v3h1v1l4 3h1l1 1v1l5 3 1 1 1 1 1 2h1v1l7 1v1h1l5 3h5c3 2 10 2 13 2v-1h7v-1h1v-2l-1-1v-1l-7-4-1-3v-2l-3-3-3-1v-2h-1v-1l-3-4h-1l-1-1-2-2c-4-3-7-2-11-3-5-2-15-3-21-3l-7-3h-1v-1h-1v-1h-3v2z"/><path id="path727" class="fil1" d="M553-1093v38l3 4v1h1v1h1v3l1 1 2 2v1l3 1 1 1v2h1v1l7 2v1h2v-22l-1-1v-1c-3-1-1-8-2-10v-1h-1v-2l-1-2-1-1v-2h-1c0-5-3-9-3-13h-1v-1h-1v-1l-5-2h-5z"/><path id="path728" class="fil1" d="M586-1100h-7v1l-1 1h-1l-3 1v2 4h2v2h1v1h1v3l1 18v2h2l1 1h1l1 2h2v-12l1-1h1v-21l-1-2v-1h-1v-1z"/><path id="path729" class="fil1" d="M495-1055v2h1v3h2v1h1v1h1v2l1 1v2l5 2 1 2v1l2 2v2h1v2h3l32 3 3-1 1-1 1-1v-1l1-1v-2l-1-1v-1h-1v-1h-1v-1l-1-2-1-1-1-1-2-1v-1h-1v-2l-1-1h-1l-10-3-1-1-9-1h-5c-6-2-13-2-20-1z"/><path id="path730" class="fil1" d="M487-1036v1h-1v11h1v2l3 1v2h1v1l1 1 3 1v1l2 1h1l8 1 3-1h1v-1h1v-1h1l1-1v-2h-1l-3-2-3-1v-1l-2-1-3-1-2-1v-1h-1v-1l-2-1-1-1v-1l-2-1v-1l-2-1v-1h-1v-1h-3z"/><path id="path731" class="fil1" d="M633-823l1 5v2l4 4v1h1v2l1 1v2l1 5 4 3 1 1 1 1v1h1c1 2 1 5 3 6l1 2 1 1 1 2 1 2v1c2 0 3 5 5 5l1 4v2l1 2h1v1l1 1 6 1 2 1c5 2 12 2 17 2v-1l2-1-2-5-1-3-3-7-2-2-1-2-2-6-2-1-1-3-1-2-1-1c0-3-3-5-3-7v-1h-1l-1-1c-2 0-5-4-8-4l-1-1-7-4-1-2h-1c0-2-3-2-4-3l-1-1-2-1-6-1-6-1z"/><path id="path732" class="fil1" d="M702-756h-2-3l-2 2h-1l-1 2h-1v3h-1v3l1 1v1h1v2h1v1l7 2v1h1v1h1v1l3 1 5 1 7 2h1v1l2-1h5v-1-3l-1-1-3-2-2-1h-1v-1h-1l-3-3-2-2-2-1-1-2-2-1v-1l-1-1h-1l-1-2h-1v-1h-2v-1s0 1 0 0z"/><path id="path733" class="fil1" d="M791-783l3 1h4l2 2 12 1v11l-2 1c0 3-1 5-3 6l-3 4c-2 0-3 3-4 3v1l-3 2h-3v1h-1l-1 1-1 1h-5l-1-1v-10h1v-1l1-1v-2h1v-1-7l1-1h1v-1-10h1z"/><path id="path734" class="fil1" d="M748-835l-1 11c-2 6 1 15-2 21h-1l1 5 2 4v5l4 3 2 4 1 2 3 3 2 1v3c1 0 1 3 3 3v2l2 3 2 4v1l1 1 7 2v1l1-6c2-7 1-17 0-23-1-3 0-7-2-9l-2-1-1-6-1-1v-3h-1v-1h-1v-3l-1-1-1-4v-2l-1-1-1-3-2-2-3-7-2-1h-1c0-2-4-3-4-5h-2v-1h-1v1z"/><path id="path735" class="fil1" d="M763-934h-1v1h-1v2h-1v2h-1v5c-2 1-2 3-2 6h-1v19c-1 4-1 10 1 13h1v2l2 4 5 5 1 3 1 1c3 0 4 5 4 7l1 1v2h1v1l1 1v1l-1 1h-1l-1 1h-3l-2-1-1-2h-1l-2-1h-1l-1-1v-1l-7-2h-4c0 4 1 5 2 7v3h1v1l1 1 1 1 2 1 3 3 1 1 1 1v1l1 1 1 1 2 4 3 2 1 1 2 2 1 4h1v1l2 2h9v-1l1-1h4v5h-1v12h-1v1l-2 2v7h1l1 2 1 2 1 1v1l2 1h2v2h7v-7-1h1v-2l1-2 1-1 2-1 1-13v-16l-3-10v-1h-1v-1l-1-4v-1h-1v-4h-1v-1h-6-1v2l-1 3h-1v-14c2-2 2-10 2-13v-6h-1v-2l-1-1-1-1v-1l-2-2h-1v-1l-3-3v-5-2h-1l-2-7-1-1-1-2-2-3-1-1-2-1-2-3h-1v-1l-2-3v-1-2h-1l-1-2v-1l-1-3v-1l-2 1z"/><path id="path736" class="fil1" d="M668-897l1 14c1 5-3 14 0 19 2 3 1 10 1 14v4l1 1 2 13v7l1 5 3 2 7 1c0 4 15 3 17 6h1l2 1v1h1v2l2 1 1 6h-8l-2-3c-1 0-3-2-5-1h-1v1h-2c0 2 0 10 2 11l1 4v1h1v1c3 0 7 5 10 5l1 1h1l6 2 3 2v1l6 2v1h3l1 1 4 2 3 1 2 1v4h1v5h-10v1 6h1v1l1 1 4 1 3 1 2 1h1v1h2l3 3 6 3h3v1h1l1 1 3 2 3 1 1 1h6l-1-5-1-1-2-1-1-4v-5h-1v-2l-2-2-2-1-1-1-3-3-2-6v-1l-8-13-1-4-1-1-2-4-2-5c0-2-2-8-4-8l-1-1-1-1-2-3c-1-1-3-2-3-4l-1-2v-1h-1v-1l-1-1v-1l-1-1-1-1-1-1-5-2v-1h-1v-2h-1v-2l-3-6c-1 0-3-8-5-8v-1h-1v-1l-1-1v-1l-1-1-3-1-4-2 1-8v-1h2v1l4 4 2 1 1 1v1h1l6 7 1 3 1 4 1 1 6 4 1 1 1 1 1 2h2v2c0 2 9 7 11 7h1v-3l1-16v-3l1-7-1-2h-1v-1h-1v-1l-2-7v-1c-3-1-6-6-9-6l-1-1-3-3-1-1-6-4h-1v-1h-1l-8-5-1-1h-1l-1-1-1-1-7-2-1-2-3-1-2-2h-2l-1-1v-1h-2v-1l-3-2h-2v-1l-1-1-2-1h-1l-1-1h-4z"/><path id="path737" class="fil1" d="M743-532l2 2 1 1v2h1c3 2 1 10 2 13h1v5l1 2 1 6 1 2h1v1l3 3 1 1h1v1l1 1 1 1 3 1 1 1 3 1c4 3 12 0 16 3l2 1 2 1 4 1 2 2c2 3 9 4 11 6l5 4h1v1h1v14c-3 0-4-2-7-3v-2l-1-1c-3 0-7-4-10-4l-4-3-5-1v-1h-2l-3-1-2-1v2l4 2 3 4v2h1v1l1 1 5 6 1 2 1 2v1h1v2h1c0 2 7 2 7 3 4 0 13-2 16 0l13 2 2 1v2h1v3l9 3v3h-8c0 2-6 2-8 2v1h-1v4l2 1 3 2c1 2 10 0 12 1 5 2 14-2 18 1v1l10 3v-4l-1-1-4-5v-1h-1l-3-3v-1-5h-1v-1l-1-1c-2-1-5-4-8-4v-1l-7-4-1-1v-2h-1v-2c-4-3 0-9-3-13l-4-6v-1-5h-1v-2h-1v-1l-3-6-4-3v-1h-2v-1h-1l-3-1v8h-1v1h-1v2h-1v1l-1 1h-1v1h-1v1h-2v-1h-1l-1-1-1-8v-1l-1-4-1-1v-2l-1-2v-2h-1v-2l-1-3h-1l-3-8-2-1c0-2-4-3-4-5h-1v-1l-9-4-7-3h-1v-1l-8-2v-1h-2l-3-1-11-1v-1h-4l-3-1h-4z"/><path id="path738" class="fil1" d="M959-465c2 2 6 3 8 3h1v2l1 2v1l-2 4v1l-4 2c0 4-1 9-3 11h-1l-2 3-5 3-1 1-6 3h-5v-3l1-3 1-1c3-3 3-4 4-8 1-2 5-3 5-6l1-1 3-4v-6l2-1 1-1 1-1v-1z"/><path id="path739" class="fil1" d="M919-539v-2h-1v-7l1-2h5v1h1l1 1h1l1 2c2 3 4 2 6 2v-9h-1l-1-3-1-1-3-3h-1l-2-3c0-3-3-8-1-11h1l1-4c2-2 4-11 4-13v-2l2-2 1-1 1-5 2-3v-1h1l1-1h2l1 1v4h1l1 3v1c2 1 1 12 1 15 0 5-1 14 1 18h1v1h2l3-8 1-5 2-1 1-1h1c0 2 5 6 7 6v1l2 6 2 4v2l-1 4-3 2v1l-3 3v5l-2 3-2 8-1 1-1 1v8h-1l-1 4c-2 0-1 5-1 6h7l1-2v-2h1v-2h1l2-2 1-1 2-1h3l3 3c0 2 2 5 3 5v2h1v3l1 3 1 2c0 2 2 5 0 7v1l-2 2v3l-1 3-1 1-2 1-2 2c-2 0-2 1-3 2v2h-1v3l-2 1v1h-1l-1 1-2 1-2 4h-2v1l-1 1h-1v1h-1v1h-3l-3-2v-2l-1-1-2-4-1-1-1-1v-26l-1-3h-1v-2h-1l-1-2v-1-1l-2-1-1-1-1-1-1-2v-2l-1-2-2-2-1-1h-1l-1-1-2-2-1-1v-3h-1v-1h-1v-1l-1-1v-2l-1-1v-1l-1-1z"/><path id="path740" class="fil1" d="M901-532l-2 1v1l-1 3-3 3-2 7-2 4-2 1c0 2-1 12 1 13v1h1l1 5 2 6 7 9c1 4 3 9 6 13l2 2 3 9 1 3v2l3 4 1 1v1l1 2v4l2 1 5 1v-2c4 0 6-1 6-5l1-1v-1h1l1-1v-1l1-4v-1h1v-1-4l-1-8-3-3-3 3h-4l-1 2-6-2 1-4 4-2v-1c2-2 1-12 1-15l1-9v-2h1v-1l1-1v-3l-2-2v-1h-1c-1-4-6-6-8-11l-9-10-3-4-3-1v-1z"/><path id="path741" class="fil1" d="M844-584l-1 4c2 2 3 11 1 14l-1 2v1l-1 15h-1l-1 2c0 9 3 18 3 28l1 2 3 4 1 3h1l1 1v1l6 5 1 1 1 3 2 2 2 1v1h1l2 4 2 2h1v2l1 8-2 2h-5c-2-3-5-3-8-3l-1 1-3 4v2 5l3 4 1 4c2 0 3 3 4 3 1 2 8 6 9 6 0 3 9 5 9 8l1 1v1l9 6h2l1 2c4 1 7 6 11 6l7 2v-3l-1-14-5-9-5-11c0-6-2-10-5-15-1-3-2-10-4-12h-1l-1-5c-3-2-5-8-8-10l-2-7h-1l-4-8h-1v-3h8v-1h1v-1h9l2-12c1-4-3-9-3-13l-1-2-1-1-7-5-1-2v-1l-2-1-2-2-5-5h-1l-5-5-4-3-2-1-3-4-4-4h-2v-1h-3c0 1 1 3 1 1z"/><path id="path742" class="fil1" d="M863-179l1 46 29 22v5l-1 1h-7l-2-1v-1h-2l-2-2h-2-4v3h1l2 2v1l2 4h1v1l1 1 1 1 1 2 2 1h3v1h2l1 1 1 1h19l2-1v-3-1l-3-4-2-2-1-1v-5h-1v-2l-2-2v-7h2l1 1 5 4 1 1 3 7v1h1l3 1 3 2v1l1 1v1l1 1v2l1 1v1h2l2 1v1h1v1l1 1 1 3h1l1 1v1l2 1 2 1h1v-9l-9-13-1-8-1-18-1-2-2-2-1-2h-1v-2l-1-2-2-1v-4h-1v-1h-1l-2-1h-1c0-2-6-2-7-2 0 2 0 4-2 5v13l-1 2h-2l-1-1-2-5h-1v-1h-1v-10l-2-5v-2h-1l-3-4v-1l-1-1v-2l-2-2-7-4-1-1v-1l-3-1v-1l-2-1-3-3c-1 0 0-2-2-2v-1h-1l-1-1h-6z"/><path id="path743" class="fil1" d="M920-78l3 2v1h1v1l6 3v1h1v3h1v2l1 1 3 2h1v1l2 2v1l1 2v2h1v1l2 3 1 1v7h-3c0 2-10-1-10-1v-3h-1v-2h-2v-2l-5-3v-2h-1v-1h-1c-1-1-5-1-5-3l-16-1-7-2-1-1v-2h-1v-1l-1-1h-2v-1l-1-1-2-3v-3l-1-5h2c3-2 10 0 14 0l1 1v1h19z"/><path id="path744" class="fil1" d="M1029-117l-2 2h-1l-1 2-1 1c-1 2-8 4-8 6l-2 2-1 1h-1v1l-1 2-11 1h-2c2 9 5 21 5 30l2 2 1 6 1 2v4l1 1 1 1 2-1v-1l1-2v-1h1l1-2h1l2-1 1-2 1-3 1-1h1l1-1v-2l2-2 1-5v-1l1-1v-1l1-2c1 0 1-2 3-2v-1c1-2-2-6 1-8v-1h1c1-1 1-12-1-12v-1-1l-2-7v-2z"/><path id="path745" class="fil1" d="M1084-74l-6 3v1h-7v1h-1l-1 1h-2-6l-3 1v3h1l1 1v1h1l1 1h1v1l1 1h2v4l-1 1-4 1v2l-1 2c-7 0-7 3-8 5-2 2-3 3-12 3v2l-2 2h-1l-5 1-2 2v1h-5v-3l1-1v-2l3-4v-1h1l1-2 3-4c2 0 3-2 4-3v-2h1v-2l1-1 2-2 5-2 2-6 4-2v-1h1v-8l1-1h1l1-1h1v-1h1l1-1h1v-1l1-1 2-1 1-2h1l1-3v-1l1-1c2 0 4-4 6-4v-1h1c1-1-2-4-2-6-1-1-4-3-4-5h-2v1l-1 1v1l-3 1-4 1-2 3-1 1-1 1h-1l-4 3v1h-2l-1-4h-1l-1-1v-2c-2-3 0-16 0-19v-7l1-7h1l1-2h1l1 2h2v2h1l1 1 2 2v4h3v-1h2v-1l1-1h1l1-2v-1h1v-1c2-4-2-13 1-17 3-5-3-18 0-23h1v-3l1-2 1-1c2 0 3-1 3-2l2-1 3-6v-1l2-6h1l4-3h1l2-2 2-1v-1l1-1v-1l1-2 1 1 2 1c0 1-1 7 1 7l1 25 1 3c2 4 0 11 0 15h-2l-1 1v7l-1 1-2 1-2 3-2 5v2h-1v3l-1 3-1 1-2 1-2 2-3 1v2h-1v3h9l1-1v-2-1h1v-1h2l10-2c0 5 2 14 0 19s2 18-1 23l-2 1-1 1-4 2h-1v1l-1 1v2h-5v1z"/><path id="path746" class="fil1" d="M986-106v18l2 2v48c-1 0-6 1-6-1h-1l-5-3-1-1-1-1-2-1c0-2-6-3-6-5l-2-2-4-2-1-1-3-5-1-1v-1l-3-3v-10l1-1h3l1 1 2 1 5 3 1 1 1 1v1l5 2v-1c2-1 1-4 1-6l-2-2-1-1-2-2-2-3c-3 0-6-7-6-10l-1-1-6-6v-1l-1-5-4-7-2-4c-4-5 0-17 0-23v-1h4v1l1 1h1v3l1 1c1 0 3 4 5 4v2h1l2 4 5 3h1v-5l-1-2-3-6-1-2v-3l-4-4c-2-3-4-11-4-14l-2-6c0-5-1-10 1-15l3 1 1 1 7 8v1l7 6 2-1v-2l-1-6-1-4-1-1-5-3-1-6-1-1c0-3-3-9-1-13l1-4v-1h1v-1h1l1-2 2-4 2-1 1-2 1-4v-1l1-4v-2l1-1h5c4 2 4 4 5 7h1v4l2 1 8 3 1 4h1l2 5v1l1 1v1l3 1v1l1 12c-1 0 0 8-2 8 0 4-2 12-4 15h-1c0 1 0 8-2 8v9h5l1-1h1v-1h4l1-1 1-1v-1l1-1v-2h1v-1l2-1h1l1-1v-1l8 2v2h1v6c1 5 1 15-4 18l-2 3h-1l-1 6-6 6-1 2v1c-1 1-3 2-3 4l-1 2h-3l-2-3v-2l-2-9v-1h-1v-2l-4-5-2-3v-1h-1v-2h-1v-5h-3v3c-3 2-3 5-3 8h1l2 3v1c3 0 1 10 2 12v3z"/><path id="path747" class="fil1" d="M850 184h-2v2h-1v3l1 1 2 1v1h1c3 6-3 17 1 23v2h1l1 4 1 1c3 2 8 5 12 5v1l1 4h-1v6c4 0 11 4 17 4v2h1v2l4 1v1l-1 1-1 1-10-2h-3v1l-7 1v1h-1l1 9v4h1l1 2 1 1 1 1 2 4 1 1 12 1 4 1h2v1h-1v1h-2v1l-1 1-1 2h-1l-1 2-1 1v3h-1v1h-1v1h-1v1h-1l-1 2 1 1v7l2 1h1l1 2h2l1 1 1 1v1c3 1 6 4 10 4v1l6 2 4 4v1l1 2 3 2 1 1 3 3v1h1v2h1l4 1c1 2 3 2 4 2v1h9v-2h-1v-1c-1 0-1-2-3-2l-1-3-1-1v-1h-1l-1-2v-1l-3-4h-1l-1-1-2-2c-3 0-3-3-3-4h-1v-2h-1v-1l-3-3h-1l-4-4v-1h2l2 1 3 3 2 2 1 2v1h1l1-1c0-1 2-12-2-12v-2-6h-1v-2h-1v-1l-1-1v-2h-1v-1l-1-2h-1v-1l-4-3-1-1v-2l-1-6h-1l-2-4-1-1-1-1v-1h-1v-1l-1-11h1v1l1 1h1l2 2 2 1 1 1 2 1v1l1 2 1 1 2 1v1h1l2 2 2 2v4l1 1h6v-12h1c1-2-1-16 1-16v-1c2 0 0-8 0-8v-1h-1l-1-1-1-1c-1-1-4-4-6-4l-1-2v-1h-1v-1l-2-1-2-2-1-1h-4v4h-2l-1 1v10h-3l-1-2v-2h-1v-7h-1v-3h-1v-1h-1v-3h-1v-1l-1-2-1-1-2-1h-1v-1h-1v-2h-2l-8-3v-1h-2v-1h-1l-2-1-2-1v-1h-1l-6-4h-2l-4-3h-1l-1-1v-1l-1-1h-1l-1-1-2-1h-1z"/><path id="path748" class="fil1" d="M948 244h-2l-1 1v1l-1 1v1l-1 1v1h-1l-1 1-2 1h-1v1l-1 5h-1v17h1c0 1-1 4 1 4l1 1v1l5 5v1l1 2c-2 0-7 0-7-2h-6l2 13v1h1v3h1l1 3h1v2c1 1 0 3 2 5v1c2 0 2 2 3 2l1 2v1h1v1l1 4 7 3v1l1 1h5l1-4 1-2 1-7c2-2 0-8 1-10h1v-5h1v-3l1-1v-1h1l1-2 2-2v-17l-3-2-3-2h-1l-1-1v-1l-3-2-1-7h-1v-2l-2-2-1-7-1-3h-2l-1-2h-1v-1h-1z"/><path id="path749" class="fil1" d="M1067 268l-2 4h-1v1h-1l-3 2-3 1v1l-1 2v1l-2 1v4h9l2-1v-3h1l2-3v-1l2-1h2l1-2h2v-1h3v1h2l1 2v7l-1 1-2 2v1l-2 1-1 2-1 3h-8l-1 1v1c-1 0-7 1-7 3h-2l-5 3v1h-1l-1 1-4 1h-1v1h-1v3l12 2 1 1-1 11h-2l-10 1v1l-6 1h-1v1l-1 1h-1l-4 1-1 1h-3v1l-1 1h-2v-8h1v-1h1v-1l2-4 1-1c2-2 1-9 2-11 2-8-1-18 0-26l1-2c3-7 5-16 5-23v-8c1 0 0 0 0 0l1-1 4-2h1l1-1v-2l4-3 3-2 1-1 5-3 1-2 2 1h1l1 13v1l2 1 1-1h1c0-3 8-3 8-6l1-1h1v-1l1-2 1-1 2-1v-1c2 0 3-6 5-6l1-1 1-3 1-1 3-2v-1h1l1-2 2-2 2-2 3-3h1l5-1v3h-1l-1 1-1 5v11l-1 3-2 4-3 5-1 3-1 2-1 1v1c1 3-1 5-1 7l-1 1c-2 0-6 5-6 7h-1l-2 2-1 1-3 2-11 2z"/><path id="path750" class="fil1" d="M1000 293l-2 1h-1l-1 2h-2v5h8l4-3 2-2 1-1 1-1 2-1 3-3h2l1 1-1 14-2 6-4 3-1 2h-1v1l-1 2-2 3-3 3-5 2-4 1-2-1v3h-1v3l-3 1-8 2-1 1-1 1v1h-1l-2 3h-3v-2l-1-6 2-6h1v-1l1-3 2-7c2-2 1-9 1-12 1-5-1-21 2-24v-24l1-2 1-3h1l1-2h1v-1-10l-1-2-1-9h-4v1h-1v5h-1v1l-1 1v2h-1v2h-1v1c-2 3 0 15 0 18h-2v3l-3-1h-2v-2h-1c0-2-1-12-3-14l-1-2v-1l-5-3-2-1v-1l-1-4v-3h-1l-1-2-2-5v-2l-1-1-1-1v-11h1v-1l1-1 1-1v-1h1v-1h1v-3h1v-4h1v-1l1-1 3-1v-1l3-1 3-7 1-2 2-11h1l1-1 2-1h1l2-4h1l2-3v-3h1v-1l1-2 3-3h1v-1h1l1-1h1l1-1v-2h2v-3h1v-4l3 1h-2l3 4 1 1 2 5 3 14c1 3-1 9 1 11l1 2-1 9v2l-3 3-2 2-1 5v1l-2 2-1 10 1-1h2v-1l8-1v-1l1-3h1v-1h2v2l2 3 1 1 1 4v1l2 1v1l2 4v2l2 10 1 11c0 7 1 17-3 23v1l-1 2-3 2-1 1v1l-2 4h-1v3l-2 1-2 2-2 2-3 3 1 3z"/><path id="path751" class="fil1" d="M751 512c-2 1-1 1-2 3h-1v1c-3 0 0 12-2 12v1l-2 2c-3 8 1 20 1 28l2 3h1l1 1 1 2h1l1 2 2 3v1h1v3l2 3 7 4h1v7c-3 2-6-4-8-4 0-2-3-2-3-3l-1-1v-1l-2-1c-1-1-5-3-7-2v1l-1 12-2 1v2l-1 2c0 2-2 11-1 13h1v2h1v3l1 2v1h1v1l2 2v1c2 0 3 4 5 4l3 3h1v3h1v1l1 3c2 3 6 5 10 7l1-1-1 3h-1v1c-1 1-5-1-6-1-1-2-8-1-10-1l1 11h1v2c1 0 0 4 2 4v2h1v1l2 2 1 1h1v1h1l1 2 5 2 3 2h1v1l1 1 5 3h2l3 1 3 2h2l4 1h1v-5h-1l-2-4v-1l-1-1-2-2v-2h-1v-1l-1-1v-1h-2l-1-3-1-14v-1l-1-1-1-3h-1v-2l-3-3-1-10h-1v-2h-1v-8h-1v-2h-1v-1l-1-1v-2h4v2c2 0 6 5 8 5l1 1c2 0 2 5 3 5v7h1v3l2 1v3h1v1h1v2l1 1h1l1 1 2 1 1 4v1l1 1h4v-4c1-1 2-6 1-8v-1h-1v-4h-1v-1l-1-2-1-2v-1l-1-2h-1l-1-3-1-5h-1v-7h-1v-5h1v-1l1-5h1v-2h1l2-4 1-1v-1h1v-1h1v-2h1v-1l1-1v-1h1v-1-6h-1v-1l-1-3-1-1h-1v-2h-1l-1-1-3-3v-1h-1l-1-1v-2h-1v-1h-5v3l-1 3h-1l-1 1v1h-1v1h-1v2l-1 2h-1v1l-1 1h-2v-8-2l1-2h1v-9-10h-1l-5-5v-1h-1v-2l-2-3-2-3-3-4-1-2-2-1v-1h-1v-1l-1-2-1-3-1-1-1-1v-1h-2v-1h-1z"/><path id="path752" class="fil1" d="M818 586l-2 2h-1v1l-2 4-2 1v1l-1 2v1l-1 1-2 2-4 2v2l-2 4v2h-1v7l1 5 2 3 2 3 1 1 1 2 2 2 1 2v1h1l3 3v1h1v1l1 1v5l1 6h-1v-1l-2-2-1-1-1-2-2-2v-1l-2-1-1-1h-1v1c-3 0-2 11-2 13l2 4v2l2 3v1h1v2h1v3h1l1 3 2 2h1v1l3 1v-1l1-2h1l3-8 1-4 2-1v-2l2-6v-1l1-2h1l1-1 1-3v-3-3h1l1-9v-2h1c2-4-2-13-2-17l-1-1-1-1-3-3v-1l-2-3v-1h-2v-1l-1-3-3-5-1-5v-1h-1v-2-1z"/><path id="path753" class="fil1" d="M929 605l-3 15-2 2c0 2 0 13-3 14h-1v6a54 54 0 00-10 5l-5 2-4 2c0-6-1-12 1-16 1-3 0-11 2-13l2-6h4l2-2 1-2 7-2v-3h1l8-1v-1z"/><path id="path754" class="fil1" d="M906 683v1h-6l2 1v1h1v1h2v1l1 1 4 5h1v1h2v4h-1l-3 1h-3v2h-1c-1 0-6 0-6 2h-8v1c-6 0-16 0-20-3l-8-1-6-1v-3l4-2 1-1h1l1-1v-2l1-1h2l1-1 3-1 4-3h1v-1l5-2 2-1c0-1 5-3 5-5l2-1c0-3 8-4 8-6l1-1v-1h1l3-2v-1h1l1-1 1-1 7-3 1-1h1v-1l2-1h1l4-2 1-2h1v-1l1-1 2-1 4-3 3-1 2-2 2-1 2-2 3-1 1-1 2-1 2-1 3-2v-1l1-1v-3 1h-1v1l-6 1h-1v2h-11v-5-7h1v-1h1v-1l2-5 2-1v-2l1-1 1-1 1-2h1l1-1v-1l1-1 5-2 2-2v-1h17l7 1 9-2v12c-2 0-1 5-1 6h3v-1l1-1h1l1-2 1-1h1v-1h1l1-3 2-1 2-1v-2c2-1 6-3 7-5v-3l6-2 1-1 1-1 2-2 4 1h3v2h-1v3h-1v1l-1 1h-1v1l-2 1-2 6h-1v1l-2 1-1 1-2 2v2l-2 1v3l-1 2v1l-1 1h-1l-1 2v1l-2 2-1 1v1l-1 2h-1v2l-1 1v1l-1 2-1 1h-1l-1 1v1l-1 1h-1l-1 2h-1l-9 2v1h-1l-10 1-1 1-12 1-1 1v1h1l1 1 1 1h1l1 2 2 2h1v1h3v1h4v1h1l-1 7v2h-1l-1 1-2 1-3 1-1 2h-1v1h-6v1h-2v1l-6 1c0 3-8 1-8 3-7 0-14 1-20 3-3 1-8-2-10 0h-2z"/><path id="path755" class="fil1" d="M834 685v1l8-1v-1h1v-1l4-1h1l4-3h1v-2l9-2 2-2 1-2c0-4 8-5 10-7h2v-1h1v-1c2-2 3-8 3-11l3-6 1-2c2 0 3-8 3-10l1-1 3-4 3-4v-3l-4 2-3 1-6 2-3 2-1 1h-1v1l-11-1-1 1v-3h1v-2l1-1 1-1 1-1 7-4 1-1c0-3 7-7 7-9 2 0 11-9 11-10l4-5h1v-1l3-2 2-5 2-11v-9l-2 1v1h-10v1h-3v1c-1 0-4 0-4 2l-1 1h-3v-4l1-1v-1l2-2c2 0 6-3 7-5h1v-2h1l1-1 6-4 2-2 1-3v-1l2-1-1-44-2 2-2 1h-1l-1 2-1 1-12 5h-1v1l-1 1h-1v1l-1 1h-1v1c0 1-3 1-3 3h-1l-3 2-1 1v2h-1v1l-2 4v1l-1 1-3 1v1h-2v3h-1v2l-1 9-1 16-1 1v1l-1 1h-1v1h-1l-1-4-2-8c-2 0-2-5-2-6h-1v-1l-1-1v2h-1l-1 2c0 2-4 4-6 4l-2 2-1 3-2 2-3 2h-1l-1 1v1h-1v1l-1 1v2 12c2 0 1 8 1 9h1l1 3 1 3v2l2 9v1h1v1l1 1h1l1-1v-1l1-1v-1l1-1 1-1 3-2 1-2 2-4v-4h1v-2l1-1v-6h1l1-1v1l2 1 2 3v5c-1 2-1 6-3 7l-1 1-2 8v1l-1 1-2 6-1 2h-1l-2 2c0 2 1 15-1 15 0 1-1 11-4 11v1c-4 4-2 13-2 19l-2 1v1l-1 3-1 2-2 3v7h1z"/><path id="path756" class="fil1" d="M615 866l-1 1h-2v2l-1 2-4 2h-1v1h-1v1l-2 1-4 2v1l-1 4-1 1-2 1-1 1-2 13c-1 6 2 13 0 18v1h-1l-5 4v4l-1 1-4 3-3 7v21h-1v2h-1l-1 12h1v2l2-2h1l1-1h1l5-4 1-4c1 0 3-3 5-3v-1l1-2 1-1 4-5 1-2v-3l1-1 1-1 2-1 3-2v-2l2-3 2-1 2-3v-2l1-1 2-1v-1c0-7-1-16 1-22v-9h-1l-1-4-1-9 3-6v-9l-1-1v-1z"/><path id="path757" class="fil1" d="M566 825l-1 18-1 4-1 1-1 3-2 4-1 5 4-1 2-2v-1l2-3v-4l1-1v-1l6 1 2 1h1v1h1v2l3 4v2l1 1c0 5 2 16 0 19h-1v1l-1 2v1l-2 4v1h-1v1l-1 2-1 5v1l-1 1v1h-1l-1 7h1v1l2 1v8l-1 2v1h-1v1c-1 0-1 3-3 3l-1 1v1l-2 4v1h-1v2h-1v1l-3 2 1 35-5 2h-1v1h-1l-1 2-1 2v1h-1l-1 3-1 2-4-2v-2h-1l-1-9-3-19-1-3-2-4v-1l-1-1-1-1 2-8c1-3-1-11 3-13l1-12v-17h-1v-1l-1-8-1 3h-1l-1 2h-1v1h-1l-1 7v2c-1 4 1 14-1 18h-1v1l-1 2c-2 0-2 13-2 14h-1v3h-1c-1 3 1 15 2 17l2 9 1 2c2 2 0 11 0 14v1h-3l-1-1h-1v-1l-4-3-5-4-1-1-1-2h-1v-1l-1-1-1-6-1-1-4-13h-1l-1-2h-1l-1-1-2-3h-1v-5h-1v-8h-1v-6l1-3 2 1v2l2 1 3 4 3 3 3 3 1 1h3l1-9h-1v-1h-1l-1-1-1-1v-3l-2-5-3-5h-1l-4-5v-1h-1l-2-1-1-1v-13l5-4h2l3 2 2 2v2l1 1h1v1c0 2 1 3 3 5v1l2 2v3h2v-14h-1l-2-4v-1l-1-2c-2 0-2-2-2-2l-1-1-1-3c0-6-4-19-2-23h1v-2h1v-1l1-1v-2l3-6 2-2 1-3h2l2 4v3h1v3h1v3l1 2 1 3v1c2 0 4 9 4 10h3v-2h3c0-4 1-11-2-13v-1l-1-1v-2h-1l-1-9v-4h-1l-1-10h-1v-1l-1-3-1-6h1v-1h1l1-3 1-1 2-6h1l3-1 3-4v-1h1v-1h1v-1l2-1v-1h1l5-2h2v1h1v1l1 1 1 7 3 10v2l2 4 1 1v1l1 1 2 10z"/><path id="path758" class="fil1" d="M673 954v-1l2-4v-1l3-2v-1 1l-28-2v1h-1l1-5 12-2v-1l7-2 4-4c0 3 4 1 4 0l5-4 3-1v-1l3-1v-1l7-2 3-3 3-4 4-2 2-3 1-3c2-1 2-6 3-7h1v-3l1-3h1v-2h-4v1c-5 4-16 3-23 3l-1-1 1-3v-1l8-2 3-1 2-2v-2c2 0 4-3 5-4l4-4c1-1 6-5 8-5v-2c2 0 4-3 7-3l2-1 1-4 2-9c1-2-1-14 2-14v-39l-2 2h-1l-2 2v1c-2 0-2 2-3 2 0 1-2 1-2 3l-2 4h-10l-2 1v1l-1 1v1l-4 1v1h-2l-1 1-5 1-1 2-2 1-2 1h-1l-4 2v2h-1v1l-1 1-1 1-1 2-1 3-1 1v1l-3 2-3 4v15l-1 4-1 2h-3v-9l-3-8-2-7-1-1-1-1h-2v1h-1c-2 2-3 5-6 5l-1 1h-1v1l-9 2-1 1-3 3-7 11v1l-4 3v1l-1 1-1 1 2 43 1 2c1 0 4-6 6-6v-1l1-2h1v-1h1v-1h1v-1l2-1h1l1-1 1-1h1l2-2 5-5 4-8 1-1 4-3h1l1-3 1-2v-1l2-2h1v-1l3-1-2 4v5h-1v1l-1 7h-1l-1 2v1l-1 2v1h-1l-1 1-3 2-2 5-1 2c-1 1-1 2-3 2v2h-1l-2 2-1 2-1 1v1l-1 1v1l-2 2h-1l-1 2-1 2v1l-1 2c-4-1-9 16-17 17v3l-1 4-1 1v1h-2v1l-2 1-1 1-2 1-1 2-1 1v1h-1v2l-1 1v1h-1l-2 2h-1v1l-2 1h-1l-1 3-1 10 1 1 8 2c0-2 1-1 1-1v-1h12l1-2 1-1h16l1-1 1-1c3 0 5-3 7-3l2-1 2-1h1v-1l3-2 2-1 2-1 1-1v-1h2l3-2 2-4 1-3 2-1c0-1 1-2 3-1z"/><path id="path759" class="fil1" d="M587 1025v-3l16-1 1-1h10l7-1c5-1 10 0 14 2 4 1 9 0 12 3l35-2v1h15v-1h7v-2h-1v-1-1h-1v-1l-4-2-28-2-13-1c-2-1-6-2-8-1h-1l-9-2c-6-4-14-5-22-5v-2h2v-1l1-1 1-2h1l4-1 1-1v-1l7-2 1-1h4l9-2 6-2h1l2-2 8-3 2-1 6-2 1-1v-1l1-1 27 3 1 2-1 1h-1v1h-1l-1 4-1 1-5 2v2l-2 3-1 1-3 1v2h6v-1-1h9v-1h5l1-1v-1l7-2v-1h10c2 2 7 2 10 4h1l5 2 6 1v3l-6 2-1 2-1 1h-1l-4 2-4 3h-2l-1 1-2 2h16l1-1h6v-2l1-1h3l17 3h1v1l7 3h1l2 2h1l3 2h1l2 2 1 1v4l-10 3-2 1-6 1h-1v1h-2c0 1-7 0-7 2h-4l-1 1v1l-7 2c-2 3-11 3-15 4l-9-1h-1l-2-1-6-3h-1l-4-4-2-1-2-1-4-1-1-1-5-2v3l1 1 2 2 2 2v1h1l1 1 2 3 1 2 2 1v2l-1 1-6 1v1l-7 1h-1v1l-3 1-1 1v1h-17l-9-4v-1h-1l-1-1-5-4h-1v-1c-1 0-6-2-6-4h-1c-3-3-13-5-18-5v3h2v1l2 1 1 2v1l1 1 4 4h1l-1 3c-7 0-17 2-23 0l-8-2-1-2-5-3h-1v-1h-1v-1l-1-1-1-1-4-3-1-1v-1l-1-1v-1l-1-1-4-2v-1-2h-1v-3z"/><path id="path768" class="fil1" d="M-727-688c13-14 25-29 35-46-24 16-47 29-71 35l-4 6c13 3 27 4 40 5z"/><path id="path769" class="fil1" d="M-744-909c12-4 19 0 23 7a97 97 0 01-6 54h-10l-1-16-25-22-19 1c9-10 22-18 38-24z"/><path id="path770" class="fil1" d="M-856-691c-17 93-32 181-55 246l-6-1c-4-88 15-170 61-245z"/><path id="path771" class="fil1" d="M-793-559c-14 16-24 38-36 57-16 29-29 55-32 77l55-56 13-78z"/><path id="path772" class="fil1" d="M-885-348l14 15c-15 32-31 65-46 93 2-35 11-71 32-108z"/><path id="path773" class="fil1" d="M-834-395c6 22 7 45 6 67-5 31-6 67-11 98l-22-136c7-14 16-23 27-29z"/><path id="path774" class="fil1" d="M-971-179c11-81 9-162 0-245-9 20-12 50-16 97-3 40-4 114 16 148z"/><path id="path775" class="fil1" d="M-1080-229c15 4 29 13 43 21 11 41 20 80 27 122-19-23-35-56-44-110-6-10-16-20-27-29l1-4z"/><path id="path776" class="fil1" d="M-912-101c11-11 23-21 33-24 6 2 9 5 9 9-1 36 0 77 3 123-7-9-13-46-20-83-6-12-17-15-25-25z"/><path id="path777" class="fil1" d="M-882 105c-4 32-10 65-19 97-3-27-2-53-3-80 9-10 16-16 22-17z"/><path id="path778" class="fil1" d="M-1056 84c11-4 18-5 23-2 20 38 37 69 51 111-1 6 2 17 2 22-24-40-49-80-76-121-3-4-2-6 0-10z"/><path id="path779" class="fil1" d="M-1062 120l18 25c-9 60-19 119-33 174h-2c9-66 13-133 17-199z"/><path id="polygon780" class="fil1" d="M-993 404l28 27 13 82-56-57z"/><path id="polygon781" class="fil1" d="M-1025 486l19 14-20 26-3 10-8-30z"/><path id="path782" class="fil1" d="M-834 418l25 99c-6 48-21 88-40 126-4-82-1-159 15-225z"/><path id="path783" class="fil1" d="M-943 636c25 15 49 27 73 32l-1 17c-38 3-59-19-72-49z"/><path id="path784" class="fil1" d="M-939 731c12 23 23 47 30 72 27 10 41 9 53 6-8-13-14-27-26-39-19-11-38-24-57-39z"/><path id="path785" class="fil1" d="M-624 775c3 27 4 54 3 81-10-18-16-40-21-62-4-21 9-17 18-19z"/><path id="path786" class="fil1" d="M-738 897l30 31 14 14c-21 0-37-20-56-31-2-12 4-17 12-14z"/><path id="path787" class="fil1" d="M-467 993l4-41c3-2 6-5 9-3 28 20 42 28 54 38-14 1-29-2-45-8-7 6-14 12-22 14z"/><path id="path788" class="fil1" d="M-441 992c9 2 15 5 20 9 5 19 7 38 6 56-14-16-30-30-46-43 5-8 11-15 20-22z"/><path id="path789" class="fil8" d="M-671-889l-52 55 15 12 50-52c0-15-2-22-13-15z"/><path id="path790" class="fil8" d="M-757-780c-21 23-42 45-46 81l7 4c12-20 41-73 55-92-7-6-7-2-16 7z"/><path id="path791" class="fil8" d="M-731-779c-11 27-30 69-56 87l-5-3c11-22 44-73 54-95 7 1 10-2 7 11z"/><path id="path792" class="fil8" d="M-814-658l-6 1c-24 31-43 70-58 119l3 5c28-41 50-81 61-125z"/><path id="path793" class="fil8" d="M-804-649l-5-1c-15 42-36 81-63 117l6 4c35-34 59-82 62-120z"/><path id="path794" class="fil8" d="M-887-501l9 2c5 18 0 35-5 53-8 29-11 58-27 72l-8-1v-11l8-24c11-31 16-61 23-91z"/><path id="path795" class="fil8" d="M-909-343l-6 2c-9 3-23 70-25 122l8 1c9-19 9-40 15-61 6-19 8-41 8-64z"/><path id="polygon796" class="fil8" d="M-951-205h21l-3 16-26 1z"/><path id="path797" class="fil8" d="M-939-175l-13 1c-5 26-8 55-5 82l7 5 7-4c5-27 5-56 4-84z"/><path id="path798" class="fil8" d="M-940-59h-9c4 47 2 94-4 140h7c9-19 14-93 6-140z"/><path id="path799" class="fil8" d="M-955-57h-7c-16 56-17 100-5 133h7c8-39 9-84 5-133z"/><path id="path800" class="fil8" d="M-960 111l7-1c11 3 20 64 28 136l-5 9-4-2-26-142z"/><path id="path801" class="fil8" d="M-969 109h5c9 52 18 104 23 156l-9-1c-22-91-26-138-19-155z"/><path id="path802" class="fil8" d="M-944 315l8-4c20 55 32 116 40 182h-7c-25-52-41-110-41-178z"/><path id="path803" class="fil8" d="M-929 306l10 2c27 60 41 120 44 180l-9 6c-11-62-26-124-45-188z"/><path id="polygon804" class="fil8" d="M-864 535l-7 49-5-1-11-19-3-26 15-8z"/><path id="path805" class="fil8" d="M-841 659l11-28c15 27 30 53 41 79l-10 3c-17-15-31-34-42-54z"/><path id="path806" class="fil8" d="M-825 624l7-17c18 28 34 55 45 91l-9 7c-15-30-23-50-43-81z"/><path id="path807" class="fil8" d="M-755 741l7-5c55 42 100 103 142 167l-1 11-16-11c-94-96-126-141-132-162z"/><path id="path808" class="fil8" d="M-760 762l1-12c39 68 92 125 147 180l-12 6c-93-83-131-140-136-174z"/><path id="path809" class="fil8" d="M-593 974l10-8c49 44 102 91 166 136l-16 8c-62-43-115-88-160-136z"/><path id="path810" class="fil8" d="M-578 958l10-1c58 33 112 72 161 129l-6 7c-108-81-159-124-165-135z"/><path id="path811" class="fil8" d="M-177 1200v13l-1 5-1 4-1 4h-1v6h-2v1h-9l-1-1h-1v-1h-1l-1-2v-6h2v-2h1v-1h2v-2l2-1v-2h1v-4h1v-1h2v-8h2v-2h6z"/><path id="path812" class="fil8" d="M-381 1118l8-5c60 23 121 49 175 90l-3 9a554 554 0 01-180-94z"/><path id="path813" class="fil8" d="M-379 1141l3-8c45 35 103 64 170 87l-6 8c-67-13-122-44-167-87z"/><path id="path814" class="fil8" d="M-173 1233c21 10 42 23 61 28l9 19-12-4c-21-3-43-15-62-31l4-12z"/><path id="polygon815" class="fil8" d="M-169 1216l32 9 11 17v5l-46-18z"/><path id="path816" class="fil8" d="M166 1324l120 22-5 18-99-14-16-26z"/><path id="polygon817" class="fil8" d="M184 1353l12 21 40 10 21 4h30l-3-16-18-2-5-2-38-8z"/><path id="path818" class="fil8" d="M355 1342c38 10 69 27 99 50-3-1-2 2-4 1-29-14-58-27-87-32-28-4-46 3-52 26l-4-4-1-7c1-28 18-40 49-34z"/><path id="path819" class="fil8" d="M379 1426c40 11 88 18 151 7l4-5-136-30c-24-8-43-20-63-28-6 2-11 7-14 13-2 7-1 13 5 21 11 7 27 15 53 22z"/><ellipse id="ellipse825" class="fil9 str0" cx="581.2" cy="-980.8" rx="12.1" ry="11.3"/><ellipse id="ellipse826" class="fil9 str0" cx="600" cy="-976.4" rx="10.8" ry="13.2"/><ellipse id="ellipse827" class="fil9 str0" cx="592.6" cy="-1003.7" rx="13.6" ry="15.8"/><circle id="ellipse828" class="fil9 str0" cx="625.7" cy="-977.5" r="14.9"/><path id="path829" class="fil9 str0" d="M613-1018c8 0 15 9 15 15s-9 13-15 15c-6 1-14-7-14-15s6-15 14-15z"/><path id="path830" class="fil9 str0" d="M610-948c-4 0-8-3-10-6-3-2-1-2-1-5 1-6 10-5 11-9 2-3 10 4 12 5 1 1-4 15-12 15z"/><path id="path835" class="fil9 str0" d="M799-638c-8 2-18-6-20-13-1-8 7-19 12-22 6-4 17 4 19 13 3 10-2 19-11 22z"/><path id="path836" class="fil9 str0" d="M785-720c5-2 10 0 15 3 4 3 1 3 2 8 1 8-10 9-11 14s-13-1-16-2c-2 0 0-21 10-23z"/><path id="path829_0" class="fil9 str0" d="M777-699c10 0 18 10 18 18 0 7-11 16-18 17-6 2-16-8-16-17 0-10 7-18 16-18z"/><path id="path829_1" class="fil9 str0" d="M803-707c7 0 12 10 12 17 0 8-7 16-12 18s-12-8-12-18c0-9 5-17 12-17z"/><path id="path835_2" class="fil9 str0" d="M823-641c-10 2-20-6-22-14-1-8 7-20 13-23 6-4 18 4 20 14 3 10-2 20-11 23z"/><path id="path835_3" class="fil9 str0" d="M828-677c-7 2-14-4-16-10-1-6 5-15 10-18 4-2 13 3 15 11s-2 15-9 17z"/><path id="path835_4" class="fil9 str0" d="M543 1053c-7 6-19 4-24-1-5-6-4-19-1-25s16-6 23 1c7 8 8 18 2 25z"/><path id="path836_5" class="fil9 str0" d="M495 995c4-4 9-5 14-5 6 1 4 2 6 6 6 6-4 13-2 18s-12 6-14 6c-2 1-11-18-4-25z"/><path id="path835_6" class="fil9 str0" d="M563 1039c-7 7-20 4-26-1-5-6-4-21-1-27 4-6 18-6 25 2 7 7 8 19 2 26z"/><path id="path835_7" class="fil9 str0" d="M555 1010c-6 6-15 4-20 0-4-5-3-16 0-20 2-5 13-5 18 1 6 6 7 14 2 19z"/><path id="path835_8" class="fil9 str0" d="M535 1000c-5 5-15 3-20-1-4-4-3-15 0-20 2-5 13-4 18 2 6 5 7 14 2 19z"/><path id="path835_9" class="fil9 str0" d="M946-327c-9 2-19-6-20-13-2-8 6-19 12-22 5-4 16 3 19 13 2 10-2 19-11 22z"/><path id="path836_10" class="fil9 str0" d="M914-402c5-1 10 0 15 3 4 3 1 4 2 8 1 8-10 10-11 15s-14-1-16-2 0-21 10-24z"/><path id="path829_11" class="fil9 str0" d="M915-379c9 0 17 11 17 18s-11 16-17 18c-7 1-17-8-17-18s7-18 17-18z"/><path id="path829_12" class="fil9 str0" d="M934-392c7 0 13 11 13 18s-8 16-13 18c-5 1-12-8-12-18s5-18 12-18z"/><path id="path835_13" class="fil9 str0" d="M962-345c-9 2-20-6-21-14-2-8 6-20 12-23 6-4 18 4 21 14 2 10-3 20-12 23z"/><path id="path835_14" class="fil9 str0" d="M958-369c-7 2-15-4-16-10s5-15 10-18c4-2 13 3 15 11s-2 15-9 17z"/><path id="path835_15" class="fil9 str0" d="M944-386c-7 2-14-5-16-11-1-6 5-15 10-17 5-3 13 3 15 10 2 8-1 16-9 18z"/><path id="path835_16" class="fil9 str0" d="M1007 48c-6 6-19 3-24-2-4-6-2-20 1-25 4-6 17-5 23 3 7 8 7 18 0 24z"/><path id="path836_17" class="fil9 str0" d="M966-16c3-3 9-4 14-3s3 2 6 6c5 6-5 13-3 18 1 4-13 5-15 5s-10-18-2-26z"/><path id="path829_18" class="fil9 str0" d="M960 4c9-4 20 1 24 8 3 7-3 19-8 24-5 4-18 0-23-9-4-8-2-18 7-23z"/><path id="path829_19" class="fil9 str0" d="M984-9c6-3 16 3 19 10 4 6 0 18-3 21-4 4-14-1-19-10-4-8-3-18 3-21z"/><path id="path835_20" class="fil9 str0" d="M1027 35c-8 7-21 3-26-3s-3-20 1-26 18-5 25 3c6 8 7 19 0 26z"/><path id="path835_21" class="fil9 str0" d="M1015 1c-5 5-15 2-19-2-4-5-2-16 1-20 3-5 13-4 18 2 6 6 6 15 0 20z"/><path id="path835_22" class="fil9 str0" d="M996-11c-5 5-15 3-19-2-4-4-2-15 1-20 3-4 13-3 18 3s6 14 0 19z"/><path id="path835_23" class="fil9 str0" d="M936 434c-9 1-17-10-17-17 0-8 10-17 17-19 6-2 15 8 16 17 0 10-7 19-16 19z"/><path id="path836_24" class="fil9 str0" d="M940 361c6-1 11 2 14 6 4 4 1 4 1 8-1 8-12 7-14 12s-13-4-15-5 4-21 14-21z"/><path id="path829_25" class="fil9 str0" d="M928 376c9 2 15 14 13 21s-14 13-21 14c-7 0-14-12-12-21 2-10 10-16 20-14z"/><path id="path829_26" class="fil9 str0" d="M953 373c7 2 10 13 8 20-1 7-11 14-16 14-5 1-10-10-8-19 2-10 9-16 16-15z"/><path id="path835_27" class="fil9 str0" d="M959 436c-9 1-17-10-17-18s10-18 17-20 17 8 17 19c0 10-7 19-17 19z"/><path id="path835_28" class="fil9 str0" d="M971 403c-8 0-14-8-14-14s8-13 14-15c5-1 12 6 12 14s-5 15-12 15z"/><path id="path835_29" class="fil9 str0" d="M962 382c-7 0-13-8-13-14s8-14 13-15c5-2 12 6 12 14s-5 14-12 15z"/><path id="path835_30" class="fil9 str0" d="M817 757c-6 7-18 7-24 2s-6-18-4-25c3-6 16-7 23-1 8 6 11 17 5 24z"/><path id="path836_31" class="fil9 str0" d="M759 704c3-4 8-6 13-6 6 0 4 2 7 5 6 5-2 14 0 18 3 4-11 7-13 8s-14-16-7-25z"/><path id="path829_32" class="fil9 str0" d="M766 726c8-6 20-3 25 3 4 6 1 19-4 25-4 5-17 4-23-4s-6-18 2-24z"/><path id="path829_33" class="fil9 str0" d="M781 704c5-4 16 0 21 6 4 6 3 17 0 22-3 4-14 1-20-7-6-7-7-17-1-21z"/><path id="path835_34" class="fil9 str0" d="M834 740c-6 8-20 8-26 3-6-6-7-20-4-27 3-6 17-7 25-1 8 7 10 18 5 25z"/><path id="path835_35" class="fil9 str0" d="M820 712c-5 6-15 6-19 2-5-4-6-15-3-20 2-5 12-6 18-1s8 14 4 19z"/><path id="path835_36" class="fil9 str0" d="M799 704c-5 6-15 6-19 2-5-4-6-15-4-20s13-6 19-1 8 14 4 19z"/><path id="path835_37" class="fil9 str0" d="M507 1034c-6 6-19 4-24-1-5-6-4-19-1-25 4-6 17-6 24 2 6 7 8 17 1 24z"/><path id="path835_38" class="fil9 str0" d="M527 1066c-6 6-19 4-24-1-5-6-4-19-1-25 4-6 17-6 24 1 6 8 8 18 1 25z"/><path id="path835_39" class="fil9 str0" d="M507 1061c-7 7-19 5-24-1-6-5-4-19-1-25s16-5 23 2 8 18 2 24z"/><path id="path829_40" class="fil9 str0" d="M499 1017c9-5 21 0 24 7 4 6-1 19-6 24s-18 1-23-7-3-19 5-24z"/><path id="path829_41" class="fil9 str0" d="M517 997c6-3 16 3 20 9s1 18-2 22c-4 4-14-1-19-9-5-9-5-18 1-22z"/><path id="path835_42" class="fil9 str0" d="M813-691c-7 2-15-5-16-11s5-15 10-17c4-3 13 3 15 10 2 8-2 16-9 18z"/><path id="path835_43" class="fil9 str0" d="M811-660c-7 2-14-5-16-11-1-6 5-14 10-17s13 3 15 11c2 7-2 15-9 17z"/></g></svg>