<svg xmlns="http://www.w3.org/2000/svg" width="900" height="600"><style>.N{fill-rule:evenodd}.O{fill:none}.P{stroke:#231f20}.Q{stroke-miterlimit:22.92560005}.R{stroke-width:1.303}.S{fill:#fff200}.T{fill:#00a650}.U{fill:#231f20}.V{stroke-linejoin:round}.W{stroke-width:2.606}.X{fill:#229845}.Y{fill:#d2cb54}.Z{fill:#e39125}.a{stroke-width:2.585}.b{stroke-width:1.477}</style><path d="M0 0h900v300H0V0z" fill="#009b3a"/><path d="M0 300h900v300H0V300z" fill="#fff"/><path d="M620 126v258c0 38-36 70-79 70h-71c-11 4-18 12-20 20 0-9-7-16-18-20h-73c-43 0-79-32-79-70V126h340z" fill="#fedf00"/><path d="M357 222c3 0 5 3 5 8s-2 7-5 7-6-3-6-7 2-8 6-8" class="N U"/><path d="M357 222c3 0 5 3 5 8s-2 7-5 7-6-3-6-7 2-8 6-8z" class="O P Q R"/><path d="M350 239c3 0 6 3 6 8s-3 8-6 8-6-4-6-8 2-8 6-8" class="N Y"/><path d="M350 239c3 0 6 3 6 8s-3 8-6 8-6-4-6-8 2-8 6-8z" class="O P Q R"/><path d="M486 390c7 0 12-1 19-10 6-8 8-16 16-21 10-5 21-5 30-4 12 3 23 14 22 27-1 16-20 25-38 17 4 0 10-5 15-11 12 3 24-17 8-27-9-4-18-5-25 0-4 2-5 6-8 10-7 13-16 24-34 24 2-3 0-4-3-5h-2" class="N S"/><path d="M486 390c7 0 12-1 19-10 6-8 8-16 16-21 10-5 21-5 30-4 12 3 23 14 22 27-1 16-20 25-38 17 4 0 10-5 15-11 12 3 24-17 8-27-9-4-18-5-25 0-4 2-5 6-8 10-7 13-16 24-34 24 2-3 0-4-3-5h-2z" class="O P Q R V"/><g class="N"><path d="M541 397c8 1 15 1 21-4 10-10 10-25-2-33-5-3-12-4-20-4a56 56 0 00-8 1l-5 1c-6 1-10 4-13 9-3 4-5 9-9 13-8 9-11 10-17 10h1c2 1 3 2 3 4 23-1 24-33 46-35 6-2 13-1 20 2 16 10 4 30-8 27l-9 9" class="T"/><path d="M537 263v109c0-4 19-20 19-15 2-1-4-94-5-94h-14" class="Z"/></g><path d="M537 263v109c0-4 19-20 19-15 2-1-4-94-5-94h-14z" class="O P Q W"/><g class="N U"><path d="M536 363c1-9 3-8 5-1l-2-7c-1-3-1-1-2 1l-1 7m8-5c2-9 4-8 6-1l-2-7c-2-3-2-1-3 1l-1 7"/><path d="M539 354c2-9 4-8 7-1l-3-7c-1-3-2-1-3 1l-1 7m9-1c2-9 4-9 7-2l-2-6c-2-3-2-2-3 1s-3 6-2 7M544 345c2-9 4-8 6-1l-2-7c-2-3-2-1-3 2l-1 6"/><path d="M539 341c2-9 4-8 7-1l-3-7c-1-2-2-1-3 2l-1 6m9-1c2-9 4-8 7-1l-2-7c-2-3-2-1-3 1l-2 7M544 332c2-9 4-8 6-1l-2-7c-2-2-2-1-3 2l-1 6"/><path d="M539 328c2-9 4-8 7-1l-3-7c-1-2-2-1-3 2l-1 6m9-1c2-9 4-8 7-1l-2-7c-2-3-2-1-3 1l-2 7"/><path d="M543 321c2-8 4-8 6-1l-2-7c-1-2-1-1-2 2l-2 6"/><path d="M539 317c2-8 4-7 6-1l-2-6c-2-3-2-1-3 1l-1 6m9-1c1-8 3-8 5-1l-2-7c-1-2-1-1-2 2l-1 6"/><path d="M543 311c2-8 4-7 6-1l-2-6c-1-3-2-1-3 1l-1 6"/><path d="M539 308c2-9 3-8 6-2l-2-6c-2-2-2-1-3 1-1 3-2 6-1 7m8-2c2-8 4-7 6-1l-2-6c-2-3-2-2-3 1l-1 6"/><path d="M543 302c1-8 3-7 5-1l-2-6c-1-3-1-1-2 1l-1 6"/><path d="M539 298c1-8 3-7 5-1l-2-6c-1-2-1-1-2 1l-1 6m8-1c1-8 3-7 5-1l-2-6c-1-3-1-1-2 1l-1 6"/><path d="M544 290c2-6 3-6 5-1l-2-5c-1-2-1-1-2 1l-1 5"/><path d="M541 287c1-6 3-6 4-1l-1-5c-2-2-2-1-2 1l-1 5m7-1c1-7 2-6 4-1l-1-5c-2-2-2-1-3 1v5m-12 62c1-7 3-7 5-1l-2-6c-1-2-1-1-2 2l-1 5m0-13c1-7 3-6 5-1l-2-5c-1-3-1-1-2 1l-1 5M536 324c1-8 3-7 5-1l-2-6c-1-2-1-1-2 1l-1 6m1-11c1-7 2-7 4-1l-2-6c-1-2-1-1-1 2l-1 5m0-10c1-7 2-6 4-1l-1-5c-1-2-2-1-2 1l-1 5m1-9c0-8 2-7 3-1l-1-6c-1-2-1-1-2 1v6m15 54c1-9 3-8 4-1l-1-7c-1-2-2-1-2 2l-1 6m-1-12c1-9 3-8 5-2l-2-6c-1-3-1-2-2 1l-1 7m1-15c0-9 1-8 2-1l-1-7-1 2v6m-1-9c1-9 2-8 3-1l-1-7c-1-3-1-1-1 1l-1 7"/><path d="M552 302c1-9 2-8 3-1l-1-7c-1-3-1-1-1 1l-1 7m-1-9c1-8 2-8 3-1l-1-6c-1-3-1-2-1 1l-1 6m-7-10c1-7 3-6 4-1l-1-5c-1-2-2-1-2 1l-1 5m0-8c1-7 3-6 4-1l-1-5c-1-2-2-1-2 1l-1 5"/><path d="M539 280c1-7 3-6 5-1l-2-5c-1-2-1-1-2 1l-1 5m8 0c2-7 3-6 5-1l-2-5c-1-2-1-1-2 1l-1 5"/></g><path d="M365 240c3 0 6 4 6 8s-3 8-6 8-6-4-6-8 3-8 6-8" class="N Y"/><path d="M365 240c3 0 6 4 6 8s-3 8-6 8-6-4-6-8 3-8 6-8z" class="O P Q R"/><path d="M355 244c3 0 6 4 6 8s-3 8-6 8-6-3-6-8 3-8 6-8" class="N Y"/><path d="M355 244c3 0 6 4 6 8s-3 8-6 8-6-3-6-8 3-8 6-8z" class="O P Q R"/><path d="M357 232c3 0 6 3 6 8s-3 7-6 7-6-3-6-7 3-8 6-8" class="N U"/><path d="M357 232c3 0 6 3 6 8s-3 7-6 7-6-3-6-7 3-8 6-8z" class="O P Q R"/><path d="M351 261l6 2h-6v-2" class="N U"/><path d="M559 222l19-20-3 8 10-8-7 9 11-6-8 8 14-7-11 9 13-5-12 8 16-4-15 6 18-3-15 6 14-1-14 4h14l-15 3 12 2-11 1 11 3-14 1 10 4-11-1 8 6-34-7v-16z" class="O P Q W"/><path d="M559 222l19-20-3 8 10-8-7 9 11-6-8 8 14-7-11 9 13-5-12 8 16-4-15 6 18-3-15 6 14-1-14 4h14l-15 3 12 2-11 1 11 3-14 1 10 4-11-1 8 6-34-7v-16" class="N X"/><path d="M556 220l13-25-7 5 4-12-6 9 2-12-4 10 1-15-4 14v-14l-3 13-2-16-1 16-3-18-1 17-4-14 2 15-6-14 3 15-6-10 2 11-6-9 4 12-7-7 4 9-8-5 19 30 5 3 9-8z" class="O P Q W"/><path d="M556 220l13-25-7 5 4-12-6 9 2-12-4 10 1-15-4 14v-14l-3 13-2-16-1 16-3-18-1 17-4-14 2 15-6-14 3 15-6-10 2 11-6-9 4 12-7-7 4 9-8-5 19 30 5 3 9-8" class="N X"/><path d="M566 244l26 10-9 1 11 6-10-3 10 8-11-5 11 10-12-7 9 11-11-8 9 13-11-11 9 15-11-12 6 13-8-12 4 13-8-12 3 11-6-10 1 11-5-12v10l-3-10-3 10-5-35v-12l14 7z" class="O P Q W"/><path d="M566 244l26 10-9 1 11 6-10-3 10 8-11-5 11 10-12-7 9 11-11-8 9 13-11-11 9 15-11-12 6 13-8-12 4 13-8-12 3 11-6-10 1 11-5-12v10l-3-10-3 10-5-35v-12l14 7" class="N X"/><path d="M531 243l-26 11 9 1-10 6 10-3-10 8 10-5-10 10 12-7-9 11 11-8-9 12 11-10-10 15 12-12-6 13 8-12-4 13 8-12-3 11 6-10-2 11 5-12 1 10 3-10 3 9 5-34-2-12-13 6z" class="O P Q W"/><path d="M531 243l-26 11 9 1-10 6 10-3-10 8 10-5-10 10 12-7-9 11 11-8-9 12 11-10-10 15 12-12-6 13 8-12-4 13 8-12-3 11 6-10-2 11 5-12 1 10 3-10 3 9 5-34-2-12-13 6" class="N X"/><path d="M534 222l-19-20 2 8-9-8 6 9-11-6 8 8-13-7 11 9-13-5 11 8-15-4 14 6-18-3 16 6-15-1 15 4h-15l15 3-12 2 12 1-11 3 13 1-9 4 10-1-8 6 35-7 12-5-12-11z" class="O P Q W"/><path d="M534 222l-19-20 2 8-9-8 6 9-11-6 8 8-13-7 11 9-13-5 11 8-15-4 14 6-18-3 16 6-15-1 15 4h-15l15 3-12 2 12 1-11 3 13 1-9 4 10-1-8 6 35-7 12-5-12-11" class="N X"/><path d="M540 233l-13-2 3 2h-5l4 1-5 1h5l-7 1 6 1-6 1h7l-7 3 7-2-8 4 8-2-6 3 6-2-5 4 6-3-4 4 5-2-3 3 5-3-3 4 4-3-1 4 11-11-4-6z" class="O P Q W"/><path d="M540 233l-13-2 3 2h-5l4 1-5 1h5l-7 1 6 1-6 1h7l-7 3 7-2-8 4 8-2-6 3 6-2-5 4 6-3-4 4 5-2-3 3 5-3-3 4 4-3-1 4 11-11-4-6" class="N X"/><path d="M546 226l-2-12-1 4-2-6 1 5-3-5 1 5-3-6 2 6-4-5 2 6-4-6 3 6-5-5 4 6-5-4 4 5-5-4 4 5-5-2 4 3-4-2 4 4-4-1 4 2-5 1 15 6 4-6z" class="O P Q W"/><path d="M546 226l-2-12-1 4-2-6 1 5-3-5 1 5-3-6 2 6-4-5 2 6-4-6 3 6-5-5 4 6-5-4 4 5-5-4 4 5-5-2 4 3-4-2 4 4-4-1 4 2-5 1 15 6 4-6" class="N X"/><path d="M555 232l12-2-3 2h6l-5 1 6 1-5 1 6 1h-6l6 2h-6l7 2-7-1 7 3-7-2 5 4-6-3 5 4-6-2 4 3-5-2 4 4-5-4 2 4-4-3 2 5-11-12 4-6z" class="O P Q W"/><path d="M555 232l12-2-3 2h6l-5 1 6 1-5 1 6 1h-6l6 2h-6l7 2-7-1 7 3-7-2 5 4-6-3 5 4-6-2 4 3-5-2 4 4-5-4 2 4-4-3 2 5-11-12 4-6" class="N X"/><path d="M555 231l11-6h-4l5-3-5 2 4-4-4 2 4-5-5 4 4-5-5 4 3-6-4 5 4-7-5 6 2-6-3 6 1-7-3 6 1-5-2 5v-5l-2 5v-4l-1 5-2-4-1 15 7 2z" class="O P Q W"/><path d="M555 231l11-6h-4l5-3-5 2 4-4-4 2 4-5-5 4 4-5-5 4 3-6-4 5 4-7-5 6 2-6-3 6 1-7-3 6 1-5-2 5v-5l-2 5v-4l-1 5-2-4-1 15 7 2" class="N X"/><path d="M552 242l7 11-3-2 2 5-3-4 1 5-2-4 1 6-2-5v6l-2-6v7l-1-7-1 8-1-7-1 6v-6l-2 6 1-7-2 5v-5l-2 4 1-5-2 3 1-4-4 2 7-14 7 2z" class="O P Q W"/><g class="N"><path d="M552 242l7 11-3-2 2 5-3-4 1 5-2-4 1 6-2-5v6l-2-6v7l-1-7-1 8-1-7-1 6v-6l-2 6 1-7-2 5v-5l-2 4 1-5-2 3 1-4-4 2 7-14 7 2" class="X"/><path d="M548 226c5 0 8 4 8 8s-3 9-8 9-8-4-8-9 3-8 8-8" class="U"/></g><path d="M357 187l-1 11v11c-6-9-13-13-22-16-7-2-6-1 0 1 10 4 17 10 21 20-20-2-36 4-46 19 14-14 30-19 46-17-10 8-18 17-22 28 7-12 15-20 24-27 8 7 16 15 23 27-4-11-12-20-22-28 16-2 32 3 47 17-11-15-27-21-47-19 4-11 13-16 24-21h1c-11 3-19 7-26 16v-22zm-25 40c-1 4-1 8 1 11l2-2c-3-2-3-5-3-9zm4-3c-1 3-1 7 1 10l2-2c-3-2-3-5-3-8zm4 1v4l1-1-1-3zm8-15l-3 3 2 1 1-4zm-4-2l-3 5h2l1-5zm4-11c-29-18-39-6-48 4 3-2 7-5 10-5l-8 8c3-2 6-3 8-2-6 5-8 10-11 16l13-11c-2 3-4 7-4 11l8-10v8l6-11-2 8c3-7 6-9 9-11-2 3-4 6-4 10 2-5 5-8 9-11-2 3-3 7-2 11 1-4 3-7 5-9l-2 9 6-6-3 7c-29 3-42 19-41 47l6-15c-1 7-2 13-1 19l4-15c1 17 3 25 6 28l1-24c1 5 2 11 6 13-3-8-2-12-1-17 1 3 2 6 6 7-2-4-4-8-4-13l4 6-3-15c2 4 4 9 6 10-2-4-1-9 0-14l5 10c-8 17-1 25 3 34l-2-10 5 8c-1-2-2-5-1-8 3 5 7 8 11 11-4-4-6-8-6-12 2 3 5 5 8 6-3-3-6-5-7-10l6 3-8-8 6 3-8-9 7 5-6-9 8 4c-3-2-5-4-6-7 2 2 5 3 7 3-3-2-4-4-4-7 2 3 4 4 6 4l-4-4 7 2c-3-2-4-4-5-6 1 1 3 2 5 1-3-5 0-9 2-12 3 3 6 7 3 12 2 1 4 0 5-1-1 2-2 4-5 6l7-2-4 4c2 0 4-1 6-4 0 3-1 5-4 7 2 0 5-1 7-3-1 3-3 5-6 7l8-4-6 9 7-5-8 9 6-3-8 8 6-3c-1 5-4 7-7 10 3-1 5-3 7-6 0 4-2 8-5 12l11-11c1 3 0 6-1 8l5-8-2 10c4-9 11-17 3-34l5-10c1 5 2 10 0 14 2-1 4-6 6-10l-3 15 3-6c1 5-1 9-3 13 4-1 5-4 6-7 1 5 2 9-2 17 4-2 6-8 7-13l1 24c3-3 5-11 6-28l4 15c1-6 0-12-1-19l6 15c1-28-12-44-42-47l-2-7 6 6-2-9c2 2 4 5 5 9 1-4 0-8-2-11 4 3 7 6 9 11l-4-10c3 2 6 4 8 11l-1-8 6 11v-8l8 10c0-4-2-8-5-11l14 11c-3-6-5-11-11-16 2-1 5 0 8 2l-8-8c3 0 7 2 10 4-8-9-18-21-48-3l5-9c-2 2-5 3-7 3 3-2 4-5 5-9l-5 3 1-7-3 4c1-3 0-7-1-10 0 3-1 5-3 8v-16l-1 3v-3 6l-1 10-2-8c-1 3-2 7-1 10l-3-4v7l-4-3c1 4 2 7 5 9-2 0-5-1-7-3 1 3 2 6 5 9z" class="O P Q a"/><g class="N X"><path d="M357 187l-1 11v11c-6-9-13-13-22-16-7-2-6-1 0 1 10 4 17 10 21 20-20-2-36 4-46 19 14-14 30-19 46-17-10 8-18 17-22 28 7-12 15-20 24-27 8 7 16 15 23 27-4-11-12-20-22-28 16-2 32 3 47 17-11-15-27-21-47-19 4-11 13-16 24-21h1c-11 3-19 7-26 16v-22zm-25 40c-1 4-1 8 1 11l2-2c-3-2-3-5-3-9zm4-3c-1 3-1 7 1 10l2-2c-3-2-3-5-3-8zm4 1v4l1-1-1-3zm8-15l-3 3 2 1 1-4zm-4-2l-3 5h2l1-5zm4-11c-29-18-39-6-48 4 3-2 7-5 10-5l-8 8c3-2 6-3 8-2-6 5-8 10-11 16l13-11c-2 3-4 7-4 11l8-10v8l6-11-2 8c3-7 6-9 9-11-2 3-4 6-4 10 2-5 5-8 9-11-2 3-3 7-2 11 1-4 3-7 5-9l-2 9 6-6-3 7c-29 3-42 19-41 47l6-15c-1 7-2 13-1 19l4-15c1 17 3 25 6 28l1-24c1 5 2 11 6 13-3-8-2-12-1-17 1 3 2 6 6 7-2-4-4-8-4-13l4 6-3-15c2 4 4 9 6 10-2-4-1-9 0-14l5 10c-8 17-1 25 3 34l-2-10 5 8c-1-2-2-5-1-8 3 5 7 8 11 11-4-4-6-8-6-12 2 3 5 5 8 6-3-3-6-5-7-10l6 3-8-8 6 3-8-9 7 5-6-9 8 4c-3-2-5-4-6-7 2 2 5 3 7 3-3-2-4-4-4-7 2 3 4 4 6 4l-4-4 7 2c-3-2-4-4-5-6 1 1 3 2 5 1-3-5 0-9 2-12 3 3 6 7 3 12 2 1 4 0 5-1-1 2-2 4-5 6l7-2-4 4c2 0 4-1 6-4 0 3-1 5-4 7 2 0 5-1 7-3-1 3-3 5-6 7l8-4-6 9 7-5-8 9 6-3-8 8 6-3c-1 5-4 7-7 10 3-1 5-3 7-6 0 4-2 8-5 12l11-11c1 3 0 6-1 8l5-8-2 10c4-9 11-17 3-34l5-10c1 5 2 10 0 14 2-1 4-6 6-10l-3 15 3-6c1 5-1 9-3 13 4-1 5-4 6-7 1 5 2 9-2 17 4-2 6-8 7-13l1 24c3-3 5-11 6-28l4 15c1-6 0-12-1-19l6 15c1-28-12-44-42-47l-2-7 6 6-2-9c2 2 4 5 5 9 1-4 0-8-2-11 4 3 7 6 9 11l-4-10c3 2 6 4 8 11l-1-8 6 11v-8l8 10c0-4-2-8-5-11l14 11c-3-6-5-11-11-16 2-1 5 0 8 2l-8-8c3 0 7 2 10 4-8-9-18-21-48-3l5-9c-2 2-5 3-7 3 3-2 4-5 5-9l-5 3 1-7-3 4c1-3 0-7-1-10 0 3-1 5-3 8v-16l-1 3v-3 6l-1 10-2-8c-1 3-2 7-1 10l-3-4v7l-4-3c1 4 2 7 5 9-2 0-5-1-7-3 1 3 2 6 5 9"/><path d="M452 383l-21-12-31-11c-7-3-13-7-17-14-10-17-6-43-2-62 5-25 3-50-7-74h1c51-4 102-3 153 0h1l-1 1c-12 28-10 58-3 87 3 15 4 33-4 46-9 15-24 18-39 24-10 4-21 8-30 15"/></g><path d="M452 383l-21-12-31-11c-7-3-13-7-17-14-10-17-6-43-2-62 5-25 3-50-7-74h1c51-4 102-3 153 0h1l-1 1c-12 28-10 58-3 87 3 15 4 33-4 46-9 15-24 18-39 24-10 4-21 8-30 15z" stroke-width=".3" class="O P Q"/><g class="N"><path d="M372 208l10 40h139l9-39c-52-4-105-4-158-1" fill="#d3d2d2"/><path d="M453 390c-3 1-7-2-9 2l1 6c1 1 1 4 3 5h4c3-1 7-2 8-6v-6l-1-3h-6v2" class="S"/></g><path d="M453 390c-3 1-7-2-9 2l1 6c1 1 1 4 3 5h4c3-1 7-2 8-6v-6l-1-3h-6v2z" class="O P Q R"/><g class="N"><path d="M373 380c-5-8-21-29-29-12-2 3-2 7 0 10 4 8 14 3 11-1-5 1-4-9 3-6l15 9m80 10c-2 0-3 13 0 12l3-1c1 1 7-8 4-11l-2-2c-2-1-3 0-4 1l-1 1m79-10c5-8 21-29 29-12 2 3 1 7 0 10-4 8-14 3-12-1 6 1 5-9-2-6l-15 9" class="T"/><path d="M549 368c-19 17-38 26-57 24l-5 6c25-1 49-6 66-29l-2-2c-2-1-1-1-2 1" class="Y"/></g><g class="O P Q R"><path d="M549 368c-19 17-38 26-57 24l-5 6c25-1 49-6 66-29l-2-2c-2-1-1-1-2 1zM497 393l1 5"/></g><path d="M460 391l8-4c3-2 5-4 8-3 5 1 5 7 11 6 3 0 5 3 3 6-3 2-4 3-3 6l1 5c2 5-4 8-10 8l-6-3-13-11 1-10" class="N S"/><path d="M460 391l8-4c3-2 5-4 8-3 5 1 5 7 11 6 3 0 5 3 3 6-3 2-4 3-3 6l1 5c2 5-4 8-10 8l-6-3-13-11 1-10z" class="O P Q R"/><g class="N"><path d="M481 414l2-4-1-6-1-10c0-4-5-5-8-4-4 0-6 4-10 6l-3 1v-5c3-1 6-2 9-5 2-2 4-3 7-3 5 2 5 7 11 7 3-1 5 3 2 5-2 2-3 3-2 6l1 5c1 4-2 6-6 7h-1" class="T"/><path d="M440 227c-2 3-13 2-10-3-4-3-3-5 0-7-1-4 1-5 5-4 2-3 5-3 7 0 2 0 3 1 3 5l-3 6-2 3" fill="#fff"/></g><path d="M440 227c-2 3-13 2-10-3-4-3-3-5 0-7-1-4 1-5 5-4 2-3 5-3 7 0 2 0 3 1 3 5l-3 6-2 3z" class="O P Q R"/><path d="M550 382a90 90 0 01-61 16c-3 2-2 3-2 5 25-2 50 1 68-20l-2-2c-2-1-1-1-3 1" class="N Y"/><path d="M550 382a90 90 0 01-61 16c-3 2-2 3-2 5 25-2 50 1 68-20l-2-2c-2-1-1-1-3 1z" class="O P Q R"/><path d="M460 398c3 0 6-1 8-3 7-2 10-2 10 3 1 4 0 8-5 6l-8-4-5-2" class="N Y"/><path d="M460 398c3 0 6-1 8-3 7-2 10-2 10 3 1 4 0 8-5 6l-8-4-5-2z" class="O P Q R"/><path d="M463 399l15 2v-4l-15 2" class="N S"/><path d="M463 399l15 2v-4l-15 2z" class="O P Q R"/><path d="M463 399l15-2c0-3-1-2-3-3-1-1-12 5-12 5" class="N T"/><path d="M463 399l15-2c0-3-1-2-3-3-1-1-12 5-12 5z" class="O P Q R"/><g class="N T"><path d="M494 386c23-25-21-14-9-5 0-8 18-10 9 5m14-17l-5 9-1-1 6-8m-38 12l-8 6-1-1 9-5m58-9l-7 13-1-1 8-12m-1 48l-23-11 2-1 21 12m-5 4l-13-9h2l11 9m-2-12l9 3-9-1v-2m-8-3l23 1-22 1-1-2"/><path d="M527 408l10-3-8 4-2-1m-9-2l17-4-15 6-2-2m-24 0c32 13 8 26-2 8 19 11 17 1 2-8m39-37l-4 12-2-1 6-11m-55 34c4 10-11 2-16-4l8 5c4 2 7 1 8-1"/></g><path d="M540 375l3 5m-15 4l4 4" class="O P Q R"/><path d="M539 368c2-9 4-8 6-1l-2-7c-2-3-2-1-3 1l-1 7" class="N U"/><path d="M514 390l2 5m25-7l4 4m-15 1l2 6m-16-3v6m-19-4v6" class="O P Q R"/><path d="M382 248c46-4 92-4 139 0-2 15 1 32 4 46l3 21c-49-6-100-5-153 0 0-11 9-55 7-67" fill="#2498dc" class="N"/><path d="M382 248c46-4 92-4 139 0-2 15 1 32 4 46l3 21c-49-6-100-5-153 0 0-11 9-55 7-67z" class="O P Q a"/><path d="M460 227c2 3 13 2 10-3 4-3 4-5 0-7 1-4-1-5-5-4-2-3-5-3-7 0-2 0-3 1-3 5l3 6 2 3" fill="#fff" class="N"/><path d="M460 227c2 3 13 2 10-3 4-3 4-5 0-7 1-4-1-5-5-4-2-3-5-3-7 0-2 0-3 1-3 5l3 6 2 3z" class="O P Q R"/><path d="M453 257c-19 8-31 24-22 51 9-5 19-12 31-12-16-12-15-25-9-39" class="N Z"/><path d="M453 257c-19 8-31 24-22 51 9-5 19-12 31-12-16-12-15-25-9-39z" class="O P Q V b"/><path d="M356 368c19 17 38 26 57 24l4 6c-25-1-48-6-66-29l2-2c2-1 1-1 3 1" class="N Y"/><g class="O P Q R"><path d="M356 368c19 17 38 26 57 24l4 6c-25-1-48-6-66-29l2-2c2-1 1-1 3 1zM408 393l-1 5"/></g><path d="M445 391l-9-4c-2-2-5-4-7-3-6 1-5 7-12 6-3 0-5 3-2 6 3 2 3 3 3 6l-1 5c-2 5 3 8 9 8l6-3 14-11c-1-2-2-5-1-10" class="N S"/><path d="M445 391l-9-4c-2-2-5-4-7-3-6 1-5 7-12 6-3 0-5 3-2 6 3 2 3 3 3 6l-1 5c-2 5 3 8 9 8l6-3 14-11c-1-2-2-5-1-10z" class="O P Q R"/><g class="N"><path d="M423 414l-1-4v-6l1-10c0-4 5-6 9-4 3 0 6 4 10 6l2 1 1-5h-1l-8-5c-2-2-5-3-7-3-6 2-5 7-11 7-3-1-5 3-3 5 3 2 4 3 3 6l-1 5c-1 4 2 6 6 7" class="T"/><path d="M418 390c-7 0-11-1-19-10-5-8-7-16-16-21s-20-5-29-4c-13 3-23 14-22 27 1 16 20 25 38 17-5 0-10-5-16-11-11 3-23-17-8-27 10-4 18-5 25 0 5 2 6 6 8 10 8 13 16 24 34 24-1-3 0-4 3-5h2" class="S"/></g><path d="M418 390c-7 0-11-1-19-10-5-8-7-16-16-21s-20-5-29-4c-13 3-23 14-22 27 1 16 20 25 38 17-5 0-10-5-16-11-11 3-23-17-8-27 10-4 18-5 25 0 5 2 6 6 8 10 8 13 16 24 34 24-1-3 0-4 3-5h2z" class="O P Q R V"/><g class="N"><path d="M364 397c-8 1-16 1-21-4-11-10-11-25 2-33 5-3 11-4 20-4l7 1a56 56 0 016 1c5 1 9 4 12 9 3 4 5 9 9 13 8 9 11 10 17 10h-1c-2 1-2 2-2 4-23-1-24-33-46-35-6-2-13-1-21 2-15 10-3 30 8 27l10 9" class="T"/><path d="M354 382c20 15 43 17 62 16 3 2 1 3 1 5-24-2-50 1-68-20l3-2c1-1 0-1 2 1" class="Y"/></g><path d="M354 382c20 15 43 17 62 16 3 2 1 3 1 5-24-2-50 1-68-20l3-2c1-1 0-1 2 1z" class="O P Q R"/><path d="M445 398l-9-3c-6-2-9-2-10 3 0 4 0 8 6 6l7-4 6-2" class="N Y"/><path d="M445 398l-9-3c-6-2-9-2-10 3 0 4 0 8 6 6l7-4 6-2z" class="O P Q R"/><path d="M441 399l-14 1c0-3 0-5 3-6l11 5" class="N S"/><path d="M441 399l-14 1c0-3 0-5 3-6l11 5z" class="O P Q R"/><g class="N"><path d="M450 385c-6-5-13-9-20-12l-30-11c-8-3-15-8-19-15-11-17-6-44-3-63 5-25 4-50-6-73l-2-4h4c52-4 103-3 154 1h4l-1 4c-12 28-11 57-4 86 3 15 5 33-4 48s-24 18-40 24c-10 4-21 8-29 15l-2 2-2-2zm-75-175c9 23 12 47 6 74-6 31-10 64 20 76 24 7 40 14 51 23 7-6 17-11 30-16 15-5 30-9 39-23 7-12 7-28 3-45-8-37-6-64 4-88-51-4-102-5-153-1" class="U"/><path d="M411 386c-23-25 20-14 8-5 0-8-17-10-8 5m-14-17l5 9 1-1-6-8m38 12l8 6 1-1-9-5m-59-9l7 13 2-1-9-12m2 48l22-11-2-1-20 12m5 4l12-9h-1l-11 9m2-12l-9 3 9-1v-2m7-3l-22 1 22 1v-2m-15-2l-9-2 7 4 2-2m9-1l-17-4 16 5 1-1m24 0c-32 13-7 26 3 8-19 11-18 1-3-8" class="T"/><path d="M454 253c-19 11-32 25-19 53 9-6 20-10 34-11-20-11-20-26-15-42" fill="#fff"/></g><path d="M454 253c-19 11-32 25-19 53 9-6 20-10 34-11-20-11-20-26-15-42z" class="O P Q V b"/><g class="N"><path d="M371 369l5 12 2-1-7-11" class="T"/><path d="M350 259l-2 97c7 1 14 2 18 9l-6-106c-2 3-6 3-10 0" class="Z"/></g><path d="M350 259l-2 97c7 1 14 2 18 9l-6-106c-2 3-6 3-10 0z" class="O P Q W"/><path d="M350 290l8 1-8 1v-2m0 6l8 2-8 1v-3m0 19l9 2c-3 1-6 2-9 1v-3m-1 27l10 2h-10v-2m14-19c0 1-11 3-12 2 4 1 8 2 12 1v-3m1 21c0 1-14 4-15 3 5 1 10 2 16 1l-1-4m-2-47l-12 3 12 1v-4m-1-14l-10 2c3 1 7 2 10 1v-3m-1-7s-7 2-8 1l8 1v-2m0-10l-8 2h8v-2m-10 12l8 1-8 1v-2m1-10l8 2h-8v-2m10 11c0 1-6 2-7 1l7 1v-2m0-9l-7 1h7v-1" class="N U"/><path d="M426 403c-3 10 12 2 17-4l-9 5c-4 2-6 1-8-1" class="N T"/><path d="M365 375l-4 5m16 4l-4 4m17 2l-2 5m-25-7l-3 4m15 1l-2 6m16-3l-1 6m19-4v6" class="O P Q R"/><g class="N"><g fill="#99d420"><path d="M448 339c4-4 8-6 17-3 4 1 8 2 12 0-2 2-2 4-12 2-7-2-12-1-17 1m43-13c4-4 8-6 17-3 4 2 9 3 12 0-2 2-2 5-11 3-8-3-13-2-18 0m-92 18c2-3 6-6 13-3 4 1 7 2 10 0-1 2-1 4-9 2-6-2-10-1-14 1m85-4c5 4 9 4 14 0-5 3-6 3-14 0m-24 11c5 4 9 4 14 0-5 3-6 3-14 0m-23 12c4 4 9 4 13 0-5 2-6 3-13 0m-29-12c5 4 9 4 14 0-5 3-6 3-14 0m-18-7c5 4 9 4 14-1-5 3-6 3-14 1"/><path d="M409 330c6 6 12 6 18 0-6 4-8 4-18 0m27 9c6 6 12 6 18 0-7 3-8 4-18 0m33 13c2-3 5-4 11-2h9c-2 1-2 3-8 2-5-2-9-1-12 0m25-12c2-3 5-4 11-2 3 1 6 2 8 0-1 1-1 3-7 2-5-2-9-1-12 0m-50 23c2-3 5-4 11-2 3 1 6 2 8 0-1 1-1 3-8 2-4-2-8-1-11 0m-28-12c3-2 5-4 11-2 3 1 6 2 9 0-2 1-2 3-8 2-5-2-8-1-12 0m-21-28c3-3 8-6 16-2 5 1 9 2 13-1-2 2-2 5-12 3-7-3-12-2-17 0m26 8c3-4 8-6 16-3 5 2 9 2 13 0-2 2-2 5-12 2-7-2-12-1-17 1m38-9c3-3 7-6 16-2 4 1 9 2 12-1-2 2-2 5-11 3-7-3-13-2-17 0m-13 0c6 6 13 6 19-1-7 4-8 5-19 1m33 3c7 7 13 6 19 0-7 4-8 4-19 0m-97-1c6 6 12 6 18-1-7 4-8 5-18 1"/></g><path d="M459 174l17 2-13 11 4 17-15-9-15 9 4-17-13-11 17-2 7-16 7 16" class="U"/><path d="M452 163l6 13 14 1-11 9 3 14-12-7-12 7 3-14-10-9 14-1 5-13" fill="#fff"/><path d="M401 227l6 5-3-10-3 5" class="T"/></g><path d="M401 227l6 5-3-10-3 5zm-4-9c-1-1-1-5 1-5 1-2 2 1 1 2 0 0 3-4 4-3a2 2 0 010 1c0 2 0 7-2 5h-4z" class="O P Q R"/><path d="M397 218c-1-1-1-5 1-5 1-2 2 1 1 2 0 0 3-4 4-3v1c0 2 0 7-2 5h-4" class="N S"/><path d="M408 213c2 1 0 4-1 3 0 0 3 1 2 3s-3 1-3 1l-4-2c-2 1 1-7 6-5z" class="O P Q R"/><path d="M408 213c2 1 0 4-1 3 0 0 3 1 2 3s-3 1-3 1l-4-2c-2 1 1-7 6-5" class="N S"/><path d="M397 222c-3-1-5 3-5 4 0 2 3 2 3 1l1 3 3-2-2-5v-1z" class="O P Q R"/><path d="M397 222c-3-1-5 3-5 4 0 2 3 2 3 1l1 3 3-2-2-5v-1" class="N S"/><path d="M397 218c0-2-3-3-4-2-2 1 0 2 1 2 0 0-4 0-3 1l2 2c0 1 3 1 3-1l1-2z" class="O P Q R"/><path d="M397 218c0-2-3-3-4-2-2 1 0 2 1 2 0 0-4 0-3 1l2 2c0 1 3 1 3-1l1-2" class="N S"/><path d="M399 218l2 2-2 3c-1 0-3-1-3-3s1-2 3-2z" class="O P Q R"/><path d="M399 218l2 2-2 3c-1 0-3-1-3-3s1-2 3-2" class="N S"/><path d="M400 228c2 1 4-2 3-4 6 4 6-7-2-5 1 2 0 4-3 4-1 2 1 4 2 5z" class="O P Q R"/><g class="N"><path d="M400 228c2 1 4-2 3-4 6 4 6-7-2-5 1 2 0 4-3 4-1 2 1 4 2 5" class="S"/><path d="M411 233c-2-2-2-6 0-11l3 2 5-3-1 7 3 1c0 2-9 5-10 4" class="T"/></g><g class="O P Q R"><path d="M411 233c-2-2-2-6 0-11l3 2 5-3-1 7 3 1c0 2-9 5-10 4zM408 237l8-12m-3 4l-1-4"/></g><path d="M409 237c-1-3-5-5-10-7v4l-5 3 7 4-1 2c1 1 9-5 9-6" class="N T"/><g class="O P Q R"><path d="M409 237c-1-3-5-5-10-7v4l-5 3 7 4-1 2c1 1 9-5 9-6zM399 237h9m-6-1l-1-3m6-2l4 6c2 2 5 0 6 2l1 2"/></g><path d="M449 230c2-4-10-4-11-1 1-2 0-3-2-3 7-2 3-6 0-10l4 1c4 6 5 4 4-4 5 6 6 3 6-1 2 4 3 4 5 0 0 5 0 11 3 5 0 4 2 6 6 3-2 3-1 5 2 6l-10 2-4 2h-3" class="N T"/><path d="M449 230c2-4-10-4-11-1 1-2 0-3-2-3 7-2 3-6 0-10l4 1c4 6 5 4 4-4 5 6 6 3 6-1 2 4 3 4 5 0 0 5 0 11 3 5 0 4 2 6 6 3-2 3-1 5 2 6l-10 2-4 2h-3z" class="O P Q R V"/><path d="M449 231c-1-2-6-4-10 0-4 2-4 0-6 0 2 4 1 7-2 9 3 1 6 1 9-2l-1 4c4-1 7-6 10-8 0 0 2 0 1-1l-1-2" class="N T"/><path d="M449 231c-1-2-6-4-10 0-4 2-4 0-6 0 2 4 1 7-2 9 3 1 6 1 9-2l-1 4c4-1 7-6 10-8 0 0 2 0 1-1l-1-2z" class="O P Q R V"/><path d="M453 232c-2 2 7 11 9 9l1-2c4 1 6 0 8-2l-7-4 1-1c0-2-13-2-12 0" class="N T"/><g class="O P Q R"><path d="M453 232c-2 2 7 11 9 9l1-2c4 1 6 0 8-2l-7-4 1-1c0-2-13-2-12 0z" class="V"/><path d="M449 234c-2 0-6-3-7-1s-1 2-3 3l-3 1m19-4l3 3M455 233s2-1 4 1l4 2 4 1m-17-8l-2-6c-1-1-3-1-2-2m5-2v5 5m4-8s1 1 0 3l-3 3-1 3"/></g><path d="M501 227l-6 5 3-10 3 5" class="N T"/><path d="M501 227l-6 5 3-10 3 5zm4-9c2-1 1-5 0-5-2-2-2 1-2 2 0 0-2-4-3-3a2 2 0 00-1 1c0 2 0 7 3 5h3z" class="O P Q R"/><path d="M505 218c2-1 1-5 0-5-2-2-2 1-2 2 0 0-2-4-3-3l-1 1c0 2 0 7 3 5h3" class="N S"/><path d="M494 213c-2 1 0 4 1 3 0 0-3 1-2 3s3 1 3 1l4-2c2 1-1-7-6-5z" class="O P Q R"/><path d="M494 213c-2 1 0 4 1 3 0 0-3 1-2 3s3 1 3 1l4-2c2 1-1-7-6-5" class="N S"/><path d="M506 222c2-1 5 3 4 4 0 2-3 2-3 1l-1 3-3-2 2-5 1-1z" class="O P Q R"/><path d="M506 222c2-1 5 3 4 4 0 2-3 2-3 1l-1 3-3-2 2-5 1-1" class="N S"/><path d="M506 218c0-2 3-3 4-2s-1 2-2 2l4 1-2 2c-1 1-4 1-4-1v-2z" class="O P Q R"/><path d="M506 218c0-2 3-3 4-2s-1 2-2 2l4 1-2 2c-1 1-4 1-4-1v-2" class="N S"/><path d="M504 218c-2 0-3 1-3 2s1 3 3 3 2-1 2-3-1-2-2-2z" class="O P Q R"/><path d="M504 218c-2 0-3 1-3 2s1 3 3 3 2-1 2-3-1-2-2-2" class="N S"/><path d="M502 228c-2 1-4-2-3-4-6 4-6-7 2-5-1 2 1 4 3 4 1 2 0 4-2 5z" class="O P Q R"/><g class="N"><path d="M502 228c-2 1-4-2-3-4-6 4-6-7 2-5-1 2 1 4 3 4 1 2 0 4-2 5" class="S"/><path d="M491 233c2-2 2-6 1-11l-3 2-5-3v7l-3 1c0 2 10 5 10 4" class="T"/></g><g class="O P Q R"><path d="M491 233c2-2 2-6 1-11l-3 2-5-3v7l-3 1c0 2 10 5 10 4zM494 237l-8-12m3 4l1-4"/></g><path d="M494 237c1-3 4-5 10-7l-1 4 5 3-7 4 1 2c-1 1-9-5-8-6" class="N T"/><g class="O P Q R"><path d="M494 237c1-3 4-5 10-7l-1 4 5 3-7 4 1 2c-1 1-9-5-8-6zM503 237h-9m6-1l1-3m-6-2l-4 6c-2 2-5 0-6 2l-1 2"/><path d="M448 302l-4-2 1-2-2 2h-2l-2 3c0 1 2 0 2 2l1 2v-3l2 1v2c0 2 0 1 0 0l2-4 2-1z" class="V"/></g><path d="M448 302l-4-2 1-2-2 2h-2l-2 3c0 1 2 0 2 2l1 2v-3l2 1v2c0 2 0 1 0 0l2-4 2-1" class="N U"/><path d="M453 300l1 2s2 0 2 2l-2 3 3-1s0-3 1-1 1 1 1-1l-2-4-3-1-1 1z" class="O P Q R V"/><path d="M453 300l1 2s2 0 2 2l-2 3 3-1s0-3 1-1 1 1 1-1l-2-4-3-1-1 1" class="N U"/><path d="M467 309c-1-4-4-7-9-9v-1l2-1h-2l-2-1v-2l-4 1 1 2-2 2h5l1 2 2 2v2h2l3 1h-4l-1 3h3l5-1z" class="O P Q R V"/><path d="M467 309c-1-4-4-7-9-9v-1l2-1h-2l-2-1v-2l-4 1 1 2-2 2h5l1 2 2 2v2h2l3 1h-4l-1 3h3l5-1" class="N Z"/><path d="M445 303v5h2l1-4 3 1-2 4 2-1 3-3-4-2-3-1-4-1 2 2z" class="O P Q R V"/><path d="M445 303v5h2l1-4 3 1-2 4 2-1 3-3-4-2-3-1-4-1 2 2m-24 8l4 2h57l1-2h-62" class="N Z"/><g class="O P Q R V"><path d="M421 311l4 2h57l1-2h-62z"/><g stroke-linecap="round"><path d="M444 307l-1 3 1 3v4m3-11l1 5v6m1-11l1 6v4m3-15l1 1 1 1v2l-5 5v7"/><path d="M453 301l3 2-2 4-2 4v6m1-8l1 8m0-10l2 10m2-8l-1 6v2m2-8v8m1-8l1 5-1 3"/></g></g><path d="M431 293l-2 1 4 13-1 2 5 1 4-3-7-2 2-1c-2-2-4-5-5-9v-2" class="N U"/></svg>