<svg xmlns="http://www.w3.org/2000/svg" xmlns:xlink="http://www.w3.org/1999/xlink" width="1000" height="700" viewBox="-1000 -700 2000 1400"><style>.B{stroke-width:.3}.C{stroke:#000}.D{fill:none}.E{fill:#c0a062}.F{fill:#1f1a17}.G{stroke-linecap:round}.H{stroke:#1f1a17}.I{stroke-width:.249}.J{stroke-width:.005}.K{fill:#dededd}.L{fill:#3c746b}.M{fill:#da251d}.N{stroke-width:.362}</style><path d="M-1000-700h2000V700h-2000z" class="M"/><path fill="#00923f" d="M-1000 0v-700h2000z"/><path fill="#fff500" d="M1000 0v700h-2000z"/><ellipse fill="#fff" rx="300" ry="350"/><g transform="matrix(2.25 0 0 2.25 -225 -299)"><path d="M88 228c-4-2-4-6-4-10v-3c-3 0-7-1-7-4l1-5h-2l-10 2-12-3a403 403 0 00-27 5h-1l-5 2c-5 7-9-6-12-6H6c-9 1-8-11 1-9l1-1c1-5 1-13 8-9h7c2-2 4-2 6 0 3 2-1-3-1-4l-9-1c-2 1-3-1-6-1-4 2-5 1-6-3 0-4 0-13 6-13 1 0 2 0 3 2l2 1c1 0 2-1 3 1l-2-8-2-16a404 404 0 014-60c0-8 0-17 2-25 0-1 2-5 1-7-2-1-1-1-1-3l2-1h-2l-2-2v-1c0 2 2 4-1 5l-3-3c1 0 1 2 2 0v-2l-2 1v-2l2-1h-2l-6-9a1 1 0 011 0l8 5 1 3c0-2 0-3 3-2l-2 1c1 1 3 2 3 0v-1c1-1 2 1 3 2 0 3-3 2-5 2l3 1v2l2-2h1c1 1 2 3 0 4h-1l2 2 3-8c2-3 3-7 6-10l-1-1v-2l-1 4c-2 2-3 0-4-2 2 0 3 1 3-2l-1-1-2 1v-1c1-1 2-2 3-1l-3-2-4-10 9 7v4c1 0 0-4 3-3l-1 3s1 2 2 0v-2h1c0 1 2 2 1 4s-4-1-5 0l2 1c1 4 5 8 8 12l4 6 7 10c7 10 6 10 8 11l7-6-4-8-1-2-2-4-2-1-9-27c2 2 7 16 8 20l3 5 2-1 3 7 1 2 3 8 10-4-2-9v-2l-2-6h-2l-5-29v-2h1l5 27 1 2 2-1 1 2 1 6c2 1 1 2 0 3l2 8 9-1V37c0-2-2-3-3-1v1c-5-3 1-8 4-3v-3h-6c-3-2 6-2 6-2l-1-2 2-27h1l2 27-2 2h7c3 2-6 2-7 2v2c3-1 7-1 5 3h-4v21l9 1 2-8c-2-1 0-1 0-2l2-7c1-1 0-3 2-2v1l2-6 5-23-4 29c-1 2-1 3-3 3 0 1-2 5-1 6s0 1-1 2l-1 8 9 4 4-7c-1-2-1-2 1-3l3-7 2 1v-1l6-15 6-13-10 29c0 1-1 4-3 3l-2 4-1 2c-1 2-4 8-3 9a82 82 0 017 5l2-2 21-30 3-5c0-3 0-2 2-4-2 1-5 2-5-1l2-2c1 1-2 2 2 2l1-2h-1v-1c2-1 2 0 2 2l1-3 7-6-2 7-1 2-2 2c1-1 3-1 3 1h-3c0 1-1 3 1 3l1-1c0 2 0 3-2 3-3 0-2-2-2-4v-1l-1 3-1 1c3 3 4 7 6 11l3 6 2-2c-4 0-2-1-1-3l2 1 1 1 1-2 2-1v-1c-1 0-4 3-5 0l3-3c-1 2 1 3 2 2l1-1-2-1v-1c3-1 2 2 3 2l1-2 9-6c1 1-2 4-2 4l-3 5-3 1 2 1v1l-2-1c0 1-2 2 0 4l2-1c0 2-1 3-2 3-4 0-2-3-2-5l-2 2-2 1 2 1v1h1l-2 3c-1 1 0 4 1 6l1 6 2 34 1 11 2 21-1 23c0 5-2 9-3 13l1-1h4c1-6 5-2 7 2 1 3 2 9-1 13l-4-2-2 1c-1 1-3 2-4 0l-8 2-2 3 2-1 4 1h8c6-5 7 5 8 10h3c5 0 7 5 3 9h-6-2c-1 3-5 10-9 8l-2-2-6-1c-2 1-4 0-5-2l-20-3c-8 4-18 5-26 1l1 5c0 3-4 4-6 4-1 4 0 10-5 13-2 0-2-3-2-4-3-2-3-7-4-9v-5h-3v-13h-5v11l-1 2h-2l-2 10-2 3c0 2-1 5-3 5z" class="F"/><g fill="#fcdb00"><path d="M112 218v-1 1zm0 1l-1-1h1v1zm0 1l-1-1h1v1zm0 1l-1-1 1 1zm-1 2l-1-2 1 1v1zm1 4v-2c-1 0-4-4-3-5h-1l1-1-1-1h1-1l1-1h-1 0v-1l7-1v7h-1v2c0-1 0-1 0 0v1l-1-1 1 1h-1v1l-1-1v2zm-1-25v-1h1v1h-1zm1 1h-2v-1h3l-1 1zm-2 1l2-1-2 1zm0 1v-1h4l-4 1zm1 0h-1 3a38 38 0 00-2 0zm-1 1h3-3zm0 1h4-4zm-5 1h-1l1-1-1 1v-1h1v-1l-1 1v-1h1-1v-1h1-1v-1l1-1h-1l1-1h-1v-1h1-1v-1h1-1l1-1h-1l1-1h-1l1-1h-1v-3l7 6v1h-1l4 1 7 4-2-1v1h3v1l-3-1 3 2-3-1 3 1v1l-3-1h-14zm-24 3s0-1 0 0zm0 1l-1-1h1v1zm5 0h-1 3-2zm-8 0v-1 1zm2 1l-1-2a52 52 0 012 2h-1zm6 0h-1 3-2zm0 1h-1v-1l2 1h-1zm1 1l-3-1h4v1h-1zm6 1h-2l-11-3-2-3c4-2 9-1 13-1l3 1h-2 2v1h-2 1v1h-1a20 20 0 011 0v1h-1s2-1 1 1h-1c1 0 2 0 1 1h-1l1 1z" class="C J"/><path d="M87 202h1-1zm0 1h2-2zm1 1h-3v-1l5 1h-2zm-2 1l1-1 1 1h-2zm1 1h-1v-1l2 1h-1zm1 1l-3-1h4v1h-1zm2 1l-6-1h6v1zm-12 1l2-1h-1l1-1h-1l1-1h-1l2-1 3-2 6-2h-2l2-2 7-6-1 3v2h1l-1 1h-1 2l-1 1h-1a4 4 0 011 0v1l-2-1v1h2v1h-1 1v1h-1 1l-1 1h0a1 1 0 000 1h0l1 1h-1l1 1h-1l1 1c-3 0-2 0 0 1h-4l-11-1-3 1zm31 6h-2l1-1h-1 1v-1h-1 1l-1-1h0v-1h1l-1-1h0v-1c2 0 15-1 15 2l-1 1-3 1c-1 2-6 1-7 2h-2zm11-4v-1 1zm0 0h0zm-7 1l2-1-2 1zm7 0l1-1-1 1zm-7 0zm5 1c-1-1 1-1 1-1l-1 1zm-6 0a103 103 0 013-1v1h-3zm1 1l2-1v1h-2zm-22 4v-1 1zm0 0h0zm-3 1h1-1zm0 2c-1-1 0-2 1-1l-1 1zm0 1l1-1a10 10 0 00-1 1zm0 2l2-2-2 2zm0 3l-1-1a4 4 0 00-1 0l1-1a2 2 0 00-1 0v-2l-1 1v-1l1-1h-1l1-2h-1a5 5 0 011-1h-1v-3c2 0 10 1 7 3h-1 1l-1 1v1l-3 6z"/><path d="M66 207c-11-1-20-6-28-13l-3-2-8-13-3-6h6c1 1 3 3 5 3l-4-3 3 1-2-1v-1l13-7 2 2-1-1 1 1 4 3-3-2 2 1-3-2h2l-3-2 2 1-2-2h1l8-5 10 13c5 5 10 9 17 12l9 3v1l-2 2 2-3 7 1-1 3-9 8-5 3 5-4-3 2v1l-6 3h1c-3 2-8 2-11 3h-3zm14-3l2-1-2 1z" class="C J"/><path d="M129 207l-12-5c2 0 6 4 8 3l-4-2 3 1-4-2h1a78 78 0 01-2-1l1 2-4-2-3-1 8 4-9-4-8-8-1-4c5 0 10-2 14-4l3-1 3-1-3 1 2-1c10-6 17-15 23-24l5 4 3 1-1 2 2-2 8 5 2 2-2 2 2-2a225 225 0 015 1l-1 1h2l-3 2 4-2-5 3v1l5-4h5l-13 22-5 4c-6 4-10 6-17 8l-12 1z"/></g><path d="M193 203l-2-1c-1-4 3-6 7-4l1 1c-2 3-3 4-6 4zm-2 2c-4-2-1-11 2-8-2 2-3 3-2 6 0 0 2 2 0 2zm-11 2c-1-5 0-11 3-16 2-3 2-4 6-3 2 2 2 4 2 8-2 1-2 4-2 6l-1 1v-2c-1 0 1 2-1 2v-2 3h-1v1h-1v-4l-1 4v1-4h-1v4h-1v-4l-1 5v-5l-1 5zm-3-3v-3 3zm4 9c-4-2-3-10-3-13 1-6 3-11 7-14 2-1 3-1 4 1-6-2-6 4-9 8 0 4-3 14 3 17l-2 1zm-4-6l-1-6v6l-1-1v-5l-1 5v-5a1 1 0 00-1 0v4h-1v-4h-1l1 4h-1v-5l-1 5-1-5v4c-1-6 0-10 2-14l4-3h8c-4 5-5 8-6 14a66 66 0 000 6zm-7 3c-3-1-3-9-3-11 0-3 3-18 8-13-6 2-7 9-7 15 0 3 0 6 3 8h1l-2 1zm-4-6v-5l-1 5h-1v-5 4h-1v-4l-1 4v-4l-1 4h-1a126 126 0 010-4l-1 4v-4l-1 3h-1l1-3c5-4 8-7 11-12h1a35 35 0 00-3 17h-1zm-11-2l-1-1h1a7 7 0 000 1zm1 0l1-3v3h-1zm-110 0v-1a16 16 0 011 1h-1zm-2 1v-3l1 1v1l-1 1zm-1 0l-1-4c2 1 1 1 2 3l-1 1zm-9 1c0-6-1-10-4-16h2c2 4 6 8 10 10v5a9 9 0 00-1 0l-1-4v4h-1v-4c-1 1 1 5-1 5a38 38 0 000-4l-1-1v5l-1-4v4h-1v-4h-1l1 4h-1zm-16 9h-2c2-1 3 0 4-2l1-7c0-7-2-15-9-17 5-4 9 10 10 13 0 2 1 12-3 13h-1zm10-3h-1l3-1c2-3 2-5 2-7 0-5-2-15-8-15l3-1c6 3 7 16 5 22-1 2-2 2-4 2zm-8-3v-4c-1-1 0 3-1 4h-1v-4-1l-1 5v-4l-1 3h-1v-3 2h-1l-1-3v2a10 10 0 00-1 0v-2l-1 1-2-7v-2c1-4 2-9 6-6 4 5 7 13 6 19h-1zm3 0a27 27 0 00-6-20l9 1c5 3 5 11 5 17v-4h-1v4h-1v-4 4l-1 1v-5h-1v5h-1v-4l-1 4-1-4v4l-1 1zm-15-2c2-3 2-5-1-8l1-1c3 2 3 5 2 8l-2 1zm-3-2c-3 0-4-3-3-5 3-1 6-1 7 3 0 2-3 3-4 2zm93-9l1-6h3l1 5a4 4 0 00-1 0v-1 1l-1-1v2h-1l1-2-1 1v0h-1v0l-1 1z" class="E"/><path d="M41 184l-6-4 4 3 3 1h-1zm1 2l-5-3 6 3h-1zm1 1l-5-2 6 1-1 1zm2 1l-6-2 6 2zm29 2c2-1 3 0 0 0zm-27-1l-6-2 6 2zm2 2l-6-2 6 1v1zm23 0h0zm13 1l4-3 1-1-5 4zm-35 0l-6-2 7 2h-1zm18 1l-1-1h2l-1 1zm-2 0v-1 1zm-1 0h1-1zm-12 0l-7-2 7 2zm30 0l4-4s-3 5-4 4zm-2 1l4-4v1s-3 4-4 3zm-27 0l-5-1 6 1h-1zm2 1l-6-1 7 1h-1zm-1 1l-2-1h6v1h-4zm0 1l-1-1h8l-7 1zm21 0l4-4h1l-1 1 3-3-4 5-3 1zm-19 0l7-1-7 1zm15 1l5-4v1l-1 1 3-2c-1 1-4 4-5 3l2-1-4 2zm-12 0l6-1-6 1zm11 0l4-3-4 3zm-2 1l5-4-5 4zm-3 0l6-3-6 3zm-1 0l4-2c-2 0-4 2-7 1h3c1-1 3-2 5-1l-5 2zm-15 1v-1h1l-1 1zm2 0h1-1zm1 1h1-1zm0 1v-1h2l-2 1zm2 0l2-1-2 1zm27 1h0zm-26 0h-1l4-2c0 2-3 1-3 2 2 0 4-2 5-1l-5 1zm21 1l1-1 6-3-7 4zm-20 0l6-2-6 2zm16 0l6-3-6 3zm-11 0l6-2-6 2zm-3 0l6-2-6 2zm15 0c1-1 6-2 7-4h2l-9 4zm-4 0l7-3-7 3zm-4 0l6-2-6 2zm-2 0l6-2-6 2zm4 0zm-28-21l-7-5 6 4 1 1zm-4-5l-5-4 6 4a1 1 0 00-1 0zm2 2l-6-4 5 3 1 1zm21-9l-2-1 3 1h-1zm1 1l-2-1 3 1h-1zm4 3l-3-1v-1l-1-1 2 2 2 1zm0 2l-3-2c1-1 3 1 4 1v1h-1zm2 1l-3-2 3 2zm3 2l-3-1h1l-3-1 4 1 2 1h-1zm3 2l-5-2 5 2zm1 1l-5-2 5 2zm4 2l-4-1h1l-3-1a1 1 0 011 0h-2l5 1h-2 3v1l-2-1 4 1h-1zm-22-9l-5-3c1-1 3 2 4 2l1 1zm-1-2l-5-3 5 3zm-2-2l-5-3 6 3h-1zm4 5c-2 0-4-2-5-3l5 3zm5 6l-5-3 3 1-5-3v-1l-1-1 5 3-4-1 6 3h-1l3 2a1 1 0 00-1 0zm2 1l-5-3 5 3zm7 6l-5-2v-1l-1-1-3-1h1l-3-2 6 3-3-1 5 2h-2l4 2-2-1 4 2h-1zm10-4l3-1-3 1zm-9 6l-3-1h4l-5-2c1 0 7 3 8 1h-3 2v-1c1 0 3 1 4-1h-3 3-1l3-1h-2 1v-1h2l-1 2h-2l1 1h-3l1 1h-2 1l-2 1c-1 2-3 0-4 1h3-2zm-5 1l-6-2 7 1h2l3 1h-6zm-4 0l-5-2 3 2-5-2v-1l2 1 7 2h-2 1-1z" class="F"/><path d="M10 181c-4-3-1-18 4-16l1 1-2 1c-4 1-5 10-3 13l1 1h-1zm8 1c-5-2-1-17 2-13h-1c-3 2-3 7-2 10l2 3h-1zm8-1l-2-3 1 3-2-3 1 2a3 3 0 00-1 1l-1-3 1 2h-1l-1-2v2l-1-2h-1l1 2-1-2h-1l1 1c-2 0-1-1-2-2l1 2c-2-2-1-8 1-9h3l5 11h-1zm-11-2l-1-2v2l-1-2v2l-1-2v2l-1-2h-1v-5c1-4 3-6 7-4l-2 4v7zm167 2h-1c3-3 3-7 2-11l-2-2c3-2 6 12 1 13zm6 0l-1-1h2c3-3 1-15-4-14l2-1c4 2 5 10 4 15l-3 1zm-15-1l5-11c5-2 6 5 5 9l-1 1v-2c-1 0-1 3-2 2l1-2h-1l-1 3v-2l-1 2v-2l-1 2h-1l1-2h-1l-1 2v-2l-2 2zm13-1v-3l-1 2v-1c0-4 0-6-2-9l4-1c2 2 3 5 3 9l-1 2v-1-1l-1 2v-2l-1 2v-2l-1 3z" class="E"/><path d="M97 187c-8-1-14-3-20-6l-9-7-12-16-1-1a67 67 0 01-6-49l2-9c5-15 13-27 27-35l10-5a46 46 0 0139 7c7 6 12 12 17 20 2 3 5 8 5 11l4 16v11l-4 22c-3 7-6 14-11 20l-8 9c-5 4-11 8-18 10-3 2-11 2-15 2z" fill="#7c9ccd"/><path d="M97 176c-6-1-12-3-17-7l-3-2-5-5-6-8c-5-9-7-18-7-27v-7c0-14 5-27 14-37v-1l3-2 10-8c1 0 6-3 7-2 8-3 18-1 25 3 9 6 15 14 19 23l5 18v10c0 9-2 17-6 26-3 7-8 13-14 18a105 105 0 00-4 2c-7 4-13 6-21 6z" class="F"/><path d="M24 172l-4-9a138 138 0 01-1-40l4-2 1 3-1-3 1 1-1-2h1v0l8-6c1 1 1 4 3 5l-2-5 2 3-1-4 1 1-1-1 4-3 5-2 1 4-1-4 2 1-1-2 4-3-2 16 1 18c2 7 4 13 8 20l-8 5-4-3 4 3c-1 1-3-2-4-2l3 3-2-1v1h1l-6 4-8 4-4-4 4 4-3-2 2 2h-6z" fill="#de4046"/><path d="M44 113l-1-4 1 4zm0 2l-1-5 1 5zm-10 5h-1 1zm-11 1v-1 1zm12 3c-1-1-3-5-2-6v-2l2 6-1-1 1 3zm10 0l-2-4v-8l1 4v1l-1-1 2 4-1-2c-1 1 1 3 1 4l-1-1 1 3zm-21 2c0-1-2-3-1-4l2 5-1-1zm0 3l-2-6 3 6h-1zm0 1zm1 0l-2-4 2 4zm10 1l-2-6v-1l-1-3h1v-1l2 6-2-4 2 5-1-3 1 5 1 1h-1l-2-5 2 6zm11 1l-3-9 1-1 1 5-1-1 2 5v1zm-20 4l-3-5 1 1-1-3v1l1-1-1-2 2 5-1-2 1 4-1-2 2 4zm10 1l-2-6-1-4 3 8-2-4 1 3 2 3h-1zm-10 1l-2-5 2 5zm1 3l-3-6 3 6zm11 1l-4-8 3 6-1-3c-1 1 2 5 2 5zm0 2l-3-5 4 5h-1zm1 2l-3-5 3 5zm-11 0l-3-6 1 1-1-3 2 5a33 33 0 01-1-1l2 4zm1 5l-3-5a2 2 0 011-1l-1-1 3 4-2-1 2 4zm12 1l-2-2-2-6-1-2c1 1 2 5 4 6l-3-4c-1 1 4 5 4 6h-1v-1h-1l3 3h-1zm-11 1l-3-5 3 5zm12 2l-3-4-1-1 4 3-3-2 3 4zm-11 2l-4-7 4 5h-1l2 2h-1zm13 1a18 18 0 01-4-4v-1l3 4-2-2 3 3zm2 4l-4-4-1-2 5 5-3-2 3 3zm-11 2l-4-6-2-3 4 5 2 4zm-4 7l-5-4 3 2-4-4 4 4 2 2z"/><path d="M173 171h-2l1-1-2 1 3-2-4 2 4-3-2 1 2-3-3 3-2 2-3-2 1-1-2 1 3-4-3 4-10-6 2-2-2 2 2-3c-3 2-3 3-6 2l-4-4-1-1 5-10a149 149 0 005-22h-1c1-1 2-4 1-5v1l1-6-1 2c-1-1 2-4 1-5l-1 5-1 4a5 5 0 001 0l-1 1h1l-1 3v3c0-8 0-16-2-23h1l2 1v1h1l-1 1h1v-1l-1 3 2-3-2 5v1l2-6 6 3-1 2 1-1v3l-1 1 2-4 8 6v0h1l-2 3h1l1-3-2 5 3-4 7 5v22c0 8 0 14-3 21-1 5-1 6-5 5z" fill="#de4046"/><path d="M171 167l3-3-3 3zm-7 0l3-4v1l-3 3zm7-1l4-3-4 3zm-6-1l3-4-3 4zm0-1l3-5-3 5zm1-3l2-3-2 3zm-12 0l1-2 1-2 3-6-2 4c1-1 1-2 2-1l-2 2 1-1-1 2h1l-4 4zm13-1c-1-1 2-4 2-4l-2 3v1zm-12-1l1-1-1 1zm12-2l3-4-3 4zm0-1l1-2v-1l2-4-2 3h1l-1 2 2-2-3 4zm-10-3l2-4-2 4zm0-1l1-3 2-5-2 3 1-3 2-3v-1 1l-1 4-2 4h1l1-3-3 6zm11-1l3-4-3 4zm1-3c0-1 0-4 2-4l-1 2 1-2-2 4zm0-2l2-4-2 4zm-9-2l1-2-1 2zm9 1c0-2 2-4 3-5l-3 4v1zm-10-3l2-8 1-2h-1l1-2h-1l2-5c1 0-2 4-1 5l1-3-2 6 1-1-1 4 1-2v4l-3 4zm10 0l3-6-2 4 2-2-2 4h-1zm-9-2l1-2-1 2zm10-1c0-1 3-4 2-5l-1 2h-1l2-4-1 4 2-2-3 5zm-9-1l1-2-1 2zm9-3l2-4c1 1-1 3-1 4h-1zm0-1l3-4-3 4zm0-2l3-4-2 4h-1zm-8-1l1-2-1 2zm9 0l2-5-2 5zm0-2l2-4-2 4zm-10-1l1-1c-1-1 1-4 2-5l-1 1c1 1-1 4-1 5h-1zm1-1v-1 1zm9 0l2-4-2 4zm-9-1l1-1-1 1zm9-1l2-4-2 3 3-5-1 1 1 1-3 4zm-8 0v-1 1zm-1-1l2-4-2 4zm0-2l2-4-2 4zm0-2l2-5-2 4 2-5-2 6zm0-3l2-5-1 4-1 1zm-7-2l1-3-1 3zm8-2l1-2-1 2z"/><path d="M151 167l3-3-3 3zm-3 4l5-4h-1l-2 2 4-4-1 1c1 1-4 5-5 5zm-21 34h-1 1zm5 0c-3-1-7-1-9-3l3 1 2 1v-1l6 2h-2zm0 0l-2-1 2 1zm-7-1h-1 1zm11 1a39 39 0 01-5-1l-1-1 3 1v-1h2l6 1h-7 2v1zm-7-1h-2 2zm12-1h-5 2v-1h3l2 1h-4 3-1zm2-2h4-4zm2-1h4-4zm2 0l1-1 4-1c1 1-1 1-1 1l-4 1zm4-2l1-1v1h-1zm-24-1l-7-2v-1l3 2-1-1 6 2-4-2h1l5 2h-2-1zm7 0l-5-1 6 1h-1zm-3 0l-5-2 6 2h-1zm5 0l-4-1 5 1h-1zm-14 0l-8-4c-1-1-5-5-4-6l1 2v1l1-1 1 2 4 3-2-2 4 3-1-2 5 4zm30 0h0zm-13 0l-5-2 6 2h-1zm15-1h1-1zm-17 0h-1v-1l5 1h1-5zm2-1h-1 6v-1l-2 1v-1h5l4-1-4 1-8 1zm5 0h1-1zm1-1zm1 0zm0-1h2l5-2 1-1-8 3zm3-1l6-2-6 2zm2-2l6-3-4 2 5-2-7 3zm-22-2c-1-1 0-1 1-1l5-2-6 3zm2 0l6-3-6 3zm2 0l5-4 8-6-3 3h1l-2 1-9 6zm-6 0v-1a120 120 0 010 1zm8 0l5-4-5 4zm-10-1c-1-1 4-1 5-2a18 18 0 01-1 0l1-1a10 10 0 011-1l1-1 4-3v1l-3 1a4 4 0 012 0l-4 2 3-1-4 2v1l2-1-1 1h-1l-4 2h-1zm12 0l5-3-5 3zm-14 0l5-2-5 2zm3 0l1-1-1 1zm13 0l5-3 2-2v1l-5 3h-1l-1 1zm16 0l7-3-7 3zm-28-1h1a3 3 0 00-1 0zm-4 0l4-1-4 1zm5 0h1-1zm-6 0v-1l3-1-3 2zm21 0l5-4-5 4zm13 0l8-4-8 4zm-35-1l4-2-4 2zm24 0l3-2-1 1 5-4-5 4-2 1zm-25-1l3-1-3 1zm39 0l1-1v-1l8-5-4 3 2-1-5 3 4-2-6 4zm-10-1l4-3-4 3zm12-1a2 2 0 000 1v-1zm-28-2a9 9 0 011 0h-1l4-3-3 2v1l3-2-4 3v-1zm10 0l4-5-3 3 5-5h-1l-2 2c1-1 2-3 4-3l-1 1-2 3-4 4zm20-1l5-4-5 4zm-29-1l4-3v1l-4 2zm30-1l6-4-6 4zm-29-1s3-3 4-2l-4 2zm1-2l4-3-4 3zm11-1l4-4-4 4zm-10 0l4-3-4 3zm1-2a19 19 0 011-1l4-3-3 2v1l2-2-4 3z" class="F"/><g fill="#009a50"><path d="M19 122v-12l3-24c0-9 0-17 2-25l-1 11c0 1 0 2 2 2v7h1l1 4v-2h1l-1-2h1v-1-29l10 10 3 2 6 6 6 6 6 5-3 5-4 7-3 11-5 3-1-3 1 2-1-5v2l1 4v1l-1-3v3l-8 5-3-7c0 1 2 2 1 4a13 13 0 000-1l1 4-1 1v-2 2l-8 6-1-4 1 3-2-5 1 2h-1l1 4-1-3 1 3-1 1v-1h-1l1 1-5 2zm162 0l-7-5v-1l-1 1v-2l-1 1c0-1 2-3 1-4l-1 4c-2 0-7-5-7-5h-1l1-2h-1v1h-1l2-3-2 3-5-3-1-1v0-1l-1 1c0-1 2-3 1-4l-1 4-4-2-2-8-5-10-3-6 10-11c5-3 9-9 14-13l5-5v10l1 19 2 1-2 4 2-2-2 3 2-4v-1h1v-7h2l-1-12 1 14a312 312 0 012 31l2 15z"/><path d="M59 80l-4-6-1 1 2 2-9-9-1-1v1L31 53l2-5 2-7 6-7 2 2h-1l1 5c1-1-1-4-1-5l2 4-1-4 5 8s1 5 2 4l-1-3 3 3 5 9 2 4-1-3 9 13-4 3-4 6zm82-1l-7-8 4-6 14-21-1 3c1 1 2-3 2-4l6-9c3 2 5 6 7 10l3 8-5 6h-1a10 10 0 011-1c-1-1-1 1-2 2l-6 6v-1l-1 2-8 8v-1l-1 2-5 4z"/></g><path d="M57 76l-2-3 2 3zm0-1l-2-3 2 3zm0-1l-2-3 2 3zm-1-2l-1-2 2 2h-1zm0-2l-1-2 2 2h-1zm1-1l-2-3h1l1 3zm-10-1l-2-4 3 4h-1zm10-1l-2-2 1-1 1 3zm-11 0l-1-2 1 2zm11-1l-1-3 1 3zm-10-1l-2-2c1-1 2 2 2 2zm10 0l-1-4 2 4h-1zm-10-1l-1-2 1 2zm11-1c-1-1-2-3-1-4l1 4zm-11 0l-1-3 1 3zm11-1l-1-4 2 4h-1zm-11-2l-1-2 1 2zm0-1l-1-3 1 3zm-10-1l-1-2 1 2zm2 0c-2-1-2-2-2-3l2 3zm8-1l-1-3 2 3h-1zm-9-1l-1-2 1 2zm1 0l-2-4 2 4zm9-1l-2-3 2 3zm0-1l-1-5c1 1 2 3 1 4v-1 1zm-9-1l-1-2 1 2zm1-1l-2-4 2 4zm8-2l-1-3c1-1 2 2 2 3h-1zm-8 0l-2-3c1-1 2 1 2 2v1zm9-1l-1-3 1 3zm-9-1l-1-3 1 3zm1-1l-2-3 2 3zm0-2l-1-2 1 2zm1 0l-2-5 2 5zm0-2l-2-4h1l1 4zm1-1l-2-4 2 4z"/><path d="M24 74a2 2 0 011 0l-1-2v2-4h1v-1h-1l1-14v18l-1 1zm2-20c0-2 0-2 0 0zm0 3v-1-1 2zm0 23v-1l-1 1 1-5v-1-12-11l1-1v-1l1 2v29l-1-1v0h-1v1zm0-4s0-3 1-2v2h-1zm1 1v-5 5zm148 3l-1-1v0h-1v1-1 1h-1v-5 2l1-1v-3 2h-1V55l1 3-1-6 1 3v-3l1-1v24l1 5zm-2-4zm2-2V57l1 12h-1l1 1v2h-1v2zm0-3v-3 3zm-1-14l-1-4h1v4zm-2-6v-1 1zm-43 3h-1l2-5h1l-1 5h-1zm-4 10h-1l3-8h1l-3 8zm-10-15h-1l1-7 1 1-1 6zm-2 9h-1l1-7h1l-1 7zm-13-1h-1V38l1 1 1-2v20h-1zm-29-3l-2-5h1l2 4-1 1zm4 10l-3-8h1l3 7-1 1zm10-16l-1-6h1l1 5-1 1zm2 11c0-3-2-8-1-9h1l2 8a13 13 0 00-2 1z" class="M"/><g class="E"><path d="M128 56v-1-1l1 1v1h-1zm-14-6v-1h1l-1 1zm-43 5v-1h1l1 1h-2zm14-6v-1h2v1h-2zm-18 0l-2-4-3-10 5 13a16 16 0 001 0h2l-3 1zm15-7h-1l-2-13v-6l3 16 1 2h2l-3 1zm-4-19v-1 1zm55 26l-2-1 3-1 7-17-7 19h-1zm-16-7l-2-1h1l2-1 4-16-3 17-2 1z"/><path d="M25 54l-1-1 1-1v2zm-1-1l-1-1h1v1zm1-1l-2-1 2-1-1 1h2v1h-1zm-5-1l-1-1 1-3c1 0 2 4 0 4zm6-1v-1 1zm3-1v-1a1 1 0 011 0l-1 1zm-1 0v-2l-1 1v-1l2 2h-1zm-5 0c-1-2-2-3 0-4l2 1c1 3 1 3-2 3zm6-1v-1l1 1h-1zm-9-2l3-3-3 3zm5-1l-1-1h1l1-2c1 0 2 2 0 3h-1zm-5-2h-3l-3-5 5 3 1 2z" class="C J"/><path d="M176 53l-1-1h1v-1h1l-1 2zm-1-1l-1-1h2v-1h-1 1l-1 2zm-1-2l-1-1s1-1 2 1h-1zm6 1c-2-1-1-3-1-4h1c-1 1 0 2 2 2l-2 2zm-8-2v-1l1-1v1 1h-1zm-2 0v-1a2 2 0 011 0v1h-1zm4 0v-1c1-1 2-3 4-2l-4 3zm-3-1l1-1-1 1zm9-2l-3-3 3 3zm-6-1c-2-1-1-2 0-3l2 2-2 1zm6-2l1-2c1-1 4-4 6-4l-4 5-3 1z"/><path d="M100 38c-2-3-1-3 0-5v-2l1 5-1 2zm-6-2c-2-3 2-4 5-1h-1c-2-2-3 1-4 1zm12-1c-1-2-3-1-4 0-2-1 2-4 4-1v1zm-12-4h-1c0-2 1-1 14-1h1l-14 1zm6-3l-1-2 1-19 2 19-2 2z" class="C J"/><path d="M35 35l-1-1h1l1-3h1c0 2 1 4-2 4zm5-1l-1-2-1-2h1c1 1 2 1 2 3l-1 1zm-4-3v-1l4-2v1l-4 2zm7-1l-2-1 2-1v2zm-9 0h1-1zm3-1l-3-2-3-7 6 5v4zm128 6c-2-1-1-3-1-4 0 2 0 2 2 2l-1 2zm-5-2v-2l2-1c0 2 0 3-2 3zm4-3l-3-2 4 2h-1zm-7 0v-3c1 2 1 2 3 2l-3 1zm7-2h-1l1-4 4-4-2 6-2 2z"/></g><path d="M34 112l-1-3 1 3zm-10 0v-1 1zm1 4l-2-5h1l-1-2v-2l2 5-1-1 1 3-1-2 1 4zm0-6l-2-4 2 4zm9-1c0-1-2-5-1-6a2 2 0 010 1v-3-2s2 5 1 6l-1-4c0 2 2 5 1 6l-1-2 2 4h-1zm-9-1l-2-4 2 4zm0-2l-1-4 1 4zm0-2l-1-4 1 2-1-3s2 3 1 4v1zm8 0zm12 0l-2-6 2 6zm-20-1v-1 1zm18 0v-1 1zm-8-1zm10 1l-2-7v-2l2 6-1-4 1 7zm-19-2l-2-4 2 4zm9-1l-2-6 1 1-1-4 2 7-1-3 1 5zm-9-1l-2-5 2 5zm19-1l-2-6 2 6zm-19-1l-1-5 1 5zm19-1c-1-2-2-5-1-6l1 6zm-19-1l-1-5 2 5h-1zm9 0l-2-6 2 6zm10-1l-1-5 1 4v1zm-19-1l-1-5 2 5h-1zm9 0l-1-6 1 6zm11 0l-2-6 2 6zm-19-2c-1-2-2-3-1-4l1 4zm8-1l-1-5s2 4 1 5zm-8 0l-1-5 1 5zm18 0l-1-6 1 6zm-18-1l-1-5 1 5zm8-1l-1-5v-2-2h1l-1-1h1l1 4-1-1 1 3h-1l1 2c-1 1-1-2-1-3l1 5h-1zm10 0l-1-5v-2l2 5h-1l-1-3 2 5h-1zm-18-2l-1-4v1l1 3zm19-1l-2-6 2 6zm-11-1v-1 1zm-8-1v-1 1zm19 0l-2-5 1 1v-2l1 4-1-2 1 4zm-11 0v-2 2zm0-5v-2l1 2h-1zm0-2v-2l1 2h-1zm1-2l-1-2h1v2zm0-2v-3l1 2h-1v1zm1-3l-1-1c1-1 1 0 1 1zm0-2v-1h1l-1 1z"/><path d="M58 110l-7-2 1-2v-2a2 2 0 011 0h2l1 2v-1h1l2-1v2h-2l-1 1a1 1 0 00-1 0v1l3 1v1zm-4-2v-1l1-1a1 1 0 00-1-1h-1c-1 0 0 0 0 0v2l1 1zm5-5l-6-2 1-4h1l-1 3 2 1 1-3h1l-1 3 1 1 2-4 1 1-2 4zm2-5l-6-3 1-2 1-1 1-1h1l1 1a2 2 0 010 1v2h-1l3 1-1 2zm-4-4l1 1 1-1v-1a1 1 0 00-1-1 1 1 0 00-1 1v1zm1-5l1-1 3 1 1 1 1-1v-1c0-1 0 0 0 0l-1-1-3-2 1-1 3 2 1 1v1l1 1-1 1-1 1h-2l-1-1-3-1zm1-2l-1-1v-2l1 2v1zm3-5l1-2 1-1a2 2 0 011 0h1l1 1a2 2 0 010 1l1-1 1 1a2 2 0 011 1l-1 1-1 1-1 2-5-4zm1 0l2 1v-1l1-1v-1a1 1 0 00-1 0l-1 1-1 1zm3 1l1 2 1-1v-1a1 1 0 000-1h-1c-1 0 0 0 0 0l-1 1zm5-2l-5-5h1l4 3 3-2v1l-3 3zm4-4l-4-5 1-1 4 5-1 1zm4-6h1v1l-1 2h-2l-2-1-1-3 1-2h4l-1 1h-1-1l-1 1 1 2 1 1h2a1 1 0 000-1v-1zm9-2l-2 1-1-1-2 1v1l-1 1-1-7 2-1 5 5zm-4-1l-1-2v3l1-1zm7 0l-1-6 2-1h3v3h-1l1 1 1 1 1 1h-2l-1-1-1-1h-1v3h-1zm0-4h3v-1-1h-1-2v2zm6 3v-7h1l1 7h-2zm3-4v-1a3 3 0 011-1 3 3 0 011-1h1l2 1 1 3-1 2-2 1-2-1-1-2zm1 0l1 2a2 2 0 001 1 2 2 0 001-1l1-1-1-2-1-1-1 1-1 1zm6 3l1-2 2 1v1h-3zm7 1v-1l3 1-1 2h-1a4 4 0 01-2 0l-2-1a3 3 0 010-1 4 4 0 010-2l1-2a3 3 0 012 0h1l2 1v2l-1-1a1 1 0 000-1h-3l-1 1v2l1 1h1a3 3 0 001 0v-1h-1zm3 4l3-6 2 1 2 1v1a2 2 0 010 1l-1 1h-2a3 3 0 011 1v3l-2-1v-3-1c0-1 0 0 0 0h-1l-1 2h-1zm3-3l1 1h1a1 1 0 001 0v-1h-1v-1h-1l-1 1zm7 10l-1-1v-1l-2-2-1 1-1-1 6-4 1 1-2 7zm0-4l1-2-3 1 2 1zm0 5l5-5 1 1-1 5 3-3 1 1-5 4-1-1 1-4-3 2h-1zm10 1l2 2v1a2 2 0 010 1v1l-1 1-2 1h-1l-1-1h-1l-1-3 5-3zm0 2l-4 2 1 1 1 1h1l1-1 1-1c0-1 0 0 0 0a1 1 0 000-1l-1-1v-1zm-2 7l6-3 3 4-1 1-2-3h-1l1 3-1 1-1-3-2 1 2 3h-1l-3-4zm3 6l6-3 1 1-3 4 4-1v1l-6 2v-1l3-4-4 2-1-1zm5 5v1l-1 1v1l1 1c0 1 0 0 0 0a1 1 0 001-1 16 16 0 000-1v-2a2 2 0 012-1 2 2 0 011 1l1 1v2l-2 1v-1l1-1v-1l-1-1-1 1v2a2 2 0 010 1l-1 1h-1l-1-1-1-1v-2l2-1zm-1 7l7-2 1 5h-1l-1-3h-2l1 3-1 1-1-4-1 1v3l-1 1-1-5zm-89 10l1 3 3 1-2 2v3l-2-2-3 2 1-3-3-3h3l2-3zm95 2l1 3h3l-2 2 1 4-3-2-3 2 1-4-3-2h4l1-3z" class="F"/><path d="M171 115l3-4-3 4zm0-2c1 0 2-4 3-3l-3 3zm1-1zm0-2l2-5-2 5zm-9-1l1-3-1 1 1-2h-1l3-5-1 4-2 5zm9-1l2-5-2 5zm0-2l2-5-2 5zm-17-1l2-4-1 2 2-5-3 7zm9 0l1-3-1 3zm8-1l2-4-2 4zm-8-1l2-5-2 5zm-8-1l2-5-2 3 2-4v1l-2 5zm16 0l2-5-2 5zm-8-1l2-5-2 5zm-7 0v-1h1l-1 1zm15-1l2-5-2 3 2-4-2 3v-1l2-4v3l-2 5zm-8-1l3-5-3 5zm-8-1l3-6-3 6zm8-2l3-4-2 4h-1zm-8 0l3-6-2 6h-1zm9-1l3-6-3 6zm-9-1l3-6-3 6zm16 0l3-4-2 4h-1zm0-1l2-5-2 5zm-7-1l3-5-3 6v-1zm-8-1l2-4-2 5v-1zm15 0l2-4-1 4h-1zm-6-1l2-4-2 5v-1zm-9-1l2-5-2 5zm15 0l2-4h1l-2 4h-1zm-15-1l2-5-2 5zm15-1l3-4-2 4zm-5 0l2-5-2 5zm-10 0l2-6-2 6zm10-2l2-4-3 3 3-5-1 1 1-3h1l-1 2v-1c1 0 1 0 0 0a3 3 0 001 1l-1 1-2 5zm-9-1v-1l1-5-1 6zm0-2l1-6-1 3 1-5v2l-1 6zm10-5l1-1v-1l-1 2zm-10-1l1-3-1 2 1-4-1 1 2-3-1 3-1 4zm-12-3l2-2v1l-2 1zm23 1v-1 1zm-10-1zm10 0v-1 1zm-23-1l1-2-2 2 2-2 1-1-2 3zm0-2h-1l2-3-1 3zm12 0l1-2-1 2zm-13-1l2-3-1 3a1 1 0 00-1 0zm13-1l1-1-1 1zm-12-1l1-3-1 3zm8 0v-1 1zm-8-2l1-2-1 2zm8 1l2-4-2 4zm-9-1l2-4-2 4zm9-1l1-1h-1l1-3h1l-1 2h1l-1 2h-1zm-9-2l2-3-1 3h-1zm9 0l2-4-2 4zm-9-1l1-3-1 3zm-1-1l2-3-1 3h-1zm10-1l1-2-1 2zm-10 0v-1l2-3-2 4zm18-1v-1h1a13 13 0 00-1 1zm-1 0l2-3-2 3zm-17-1l2-3-2 3zm10 1v-1l1-2-1 3zm-1-1l2-4-1 3a1 1 0 00-1 1zm8-1l2-3-2 3zm2 0h1-1zm-10-1l2-3-2 3zm8-1l1-2-1 2zm0-1l1-2-1 2zm-8 0l1-2-1 2zm8-1l1-3-1 3zm-8-1l1-2-1 2zm-1-1l2-3-1 3h-1zm9 0h-1l2-3-1 3zm-1-2l1-2-1 2zm-8 0l1-2-1 2zm8-1l1-3-1 4v-1zm0-1l1-3-1 3zm-1-2l2-2-1 2h-1zm0 0l1-3-1 3zm-1-1l2-4-1 4h-1zm0-2l1-3-1 3zm-1-1l2-4-1 4h-1zm0-1l1-4h1l-2 4z"/><g class="H N"><path d="M19 217c7 12 32 27 45 29l-3 8-3 3c-6 2-39-17-46-28l-1-2c1-3 5-5 7-10h1" class="D G"/><path d="M181 217c-3-3-8 5-36 6 5 2 11 4 18 4-8 3-14 6-18 10l22-3c7-6 15-11 14-17zm-163 0c3-4 9 4 36 6-5 2-11 4-18 4l19 9-23-2c-6-6-15-11-14-17z" class="K"/></g><path d="M118 247l3 9c10 3 17 0 21-6l-1-9c0-1-1-2-3-1-6 4-10 5-17 6l-3 1z" class="B C K"/><path d="M124 251c4-2 2-3-1-3h-4m19-1c-5 0-4-2-1-3l4-3" class="D G H I"/><path d="M58 240l-3 8c7 9 14 10 21 8l5-8-3-3c-7 0-11-2-17-5h-3z" class="B C K"/><path d="M60 246c5 0 4-1 2-3l-4-2m16 10c-4-3-1-4 1-3h6" class="D G H I"/><path d="M19 217c7 12 32 27 45 29l-3 8-3 3c-6 2-39-17-46-28l-1-2c1-3 5-5 7-10h1zm162 0c-7 12-34 27-46 30l3 8 3 3c6 2 39-17 47-28l1-4-7-9h-1zM72 249l-2 11c0 1 0 2 2 2 20 5 38 4 55 1 1 0 2-1 1-3l-2-11c-7 5-46 5-54 0z" class="B C K"/><g class="F"><path d="M50 251h1a5 5 0 000-1l1-1v-1l1-1h-1l1-1 3 1v2l-1-1v-1h-1v1l-1 1h1l1-1a6 6 0 01-1 2v1h-1v-1-1l-1 2v1a2 2 0 002 0l1-1-1 1-1 1-3-2zm0-1v-1l1-1v-1-1l-1-1v5zm0-5v1l-1-1v1h-1v-2l2 1zm0 2v3h-1-1v-1h1l1-1v-1zm0 4zm-2-7v3l-1 1v1h1v1h-1l-2-1v-1l1-1 1-1v-1-1h1zm-3 1l1-2-1-1v3zm0-3v6l-1 1-1-1v-2h1-1v-1h1v-1-1a2 2 0 000 1h-1v-1l2-1zm0 6l-1 1h1v-1zm-2-5v3l-1-1v1h-1 1l-1 1-1-1v-1h1l2-1v-1zm0 3v1h-1l1 1v-2zm-3-1l1-1 1-2v-1l-2-1v-1 6zm0-6v1h-1v1-2h1zm0 4v2h-1v-1l1-1zm0 2v1h-1l1-1zm-1-6v2l-1 1-1 1v1h2v1h-2l-1-1v-1-1l1-1 1-1v-1-1l1 1zm-3 1l1-1v-1l-1-1v3zm0-3v3h-1v-1h1v-1l-1-1v-1l1 1zm0 6v1h-1v-1h1zm-1-7v1-1zm0 3v4-4zm0 4v1-1zm0-7v1l-1 1v1h1v4l-2-1 1-1v-2h-1v1l-1 1h1l-1 1-1-1v-1l1-1v-1l1-1 1-1h-1l1-1 1 1zm-3-1v2l1-1v-1l-1-1v1zm0-1v1a1 1 0 00-1-1l-1 1v1l1-1-1 2v1l-1-1h1l-1-1-1 1v1h3l-1 1-1 1-3-2v-1h1l1-1v-1a7 7 0 001-2l1-1 2 2zm0 6h-2l1 1v-1zm-6-4h1v-1-1h1v-1-1c1 0 1 0 0 0v-1a5 5 0 00-1-1h-1v1h1v1c0 1 0 0 0 0v1h-1v3zm0-6v2-3 1zm0 3v3-3zm0 4v0zm0-8v3h-1l1 1v0h-1v-2-1-1h1zm0 5v2a1 1 0 01-1 0v-1h1v-1zm0 3l-1-8v-1 1l1 8zm-4-12zm3 3v1h-1v1l-1 1-1 1v1-3l1-1v-1l1-1 1 1zm0 3l-1 1-1 1v1l-1-1v1l2 2h1v-1h-1v-1l1-1v-2zm-3 2zm-1-9l1 1-1 1v-2zm0 6zm1 0l-1 1v3l1-1v-3zm0 4l-3-2-3-3 1-1v1l1-1 1-1v-1l1-1v-1h1v2l-1 1-1 1-1 1v1h3l-1 1-1 1 3 2-1-2h-1l1 1v-1l1 2zM117 259v-1 1zm0-4l1 1v5l4-1v-1l1-1h-1l-1 1a2 2 0 01-1 1v-1l-1-1h1l1 1v-1-1-1h-1v1h-1v-2h2l1 1v-1l-1-1-4 1zm0 0zm0 3v2l-2 2v-1l1-1v-1-1-1l-1-1v-1l1 1 1 1v1zm-2-3v1h-1v5h1v1h-3v-1l1-1-1-1v-2-2h3zm-3 7v-1 1zm0-7v1-1zm0 6l-1-1-1-2-1-2v4h1v2h-1 3v-1zm-3-5v1l-1 1v1h1v1h-1v2l-2 1v-1l1-1 1-3v-2h1zm-6 7v-1a1 1 0 001-1l1-1v-1l-1-1v-1h-1v-1l2 1 1 1v3l-1 1-2 1zm0-7v1h-1v4l1 1c1 0 0 0 0 0v1h-2v-1-4-1h-1v-1h3zm-11 4v-1h1l-1-1v-1 1-2h1l1 2 1 3a4 4 0 000 1v1h-2v-1-1-1h-1zm8 3h-5v-1h1v-3-1-1h-1v-1h3v1h-1v5h1l1-1 1-1v3zm-8-7v4h-1v2h1v1l-2-1v-2l1-2 1-2zm-2 0zm-11-2zm11 2l-1 1v5h-1-3v-2-2-2-1h2v2l-1 2v2h2v-2l1-1v-2h-1v-1l2 1zm0 6h-1 1zm-11-3v-2-1l1-1 1-1h1v1h1l1 1v1h-1v-1l-1-1-1 1-1 1v3h2v-1-1h2v1l-1 1v2l-1-1a1 1 0 01-1 0h-1l-1-1v-1zm0-5v1h-1v6l-2-1v-1-1l1-1v-1-1l-1-1v-1l3 1v4a1 1 0 000 1v-5zM178 234v-1h1v-2l-1-1v-2l1 1 1 1v1l-1 2-1 1zm0-7h1v1l1 1h1v2l3-2v-1-1h-1v2h-1l-1-1h2l-1-1-1-1h-1l1 1h-1v-1l1-1 1 1v-1h-1l-1-1-2 2v1zm0-1v0zm0 2v1h-2v-1h2zm0 5v1l-1 1v-1-1h-1v-2h1l1 1v1zm-2 2h1v-1h-1v1zm0-7v4a4 4 0 01-1-1v-1l-1 1v-1l2-1v-1zm0 6l-2-1-1-1v1l1 1h-1v4l2-1-1-1h-1v-1l1-1 1 1v1l1-1v-1zm-3-2v1h-1l1 1v2l-1-2v-2-1l1 1zm-1 6v-1-1 2zm0-6v0zm0 4v2l-1 1-2 2-1-1h1l-1-1v-2h1l1 2 1-1v-1l-1-1-1-1h-1v-1h2l1 1 1 1zm-4 5h1l-1-1v1zm0-7v4l-1-1h-1v-1l2-1v-1zm0 7l-1-1v-1l-1-1v3h1l-1 1h1l1-1zm-2 2zm0-6v-1 1zm0 0a1 1 0 000 1v2l-1-1v-2l1-1v1zm0 6h-1v-2l1 2zm-1-6v1h-1v-1h1zm0 4l-1-2v-1h-1l-1 1h1v1h1v1l-1-1-2-1v3l1 1v2l2-1h-1v-1l-1-1-1-1 2 1 2 1v-2zm-4 5v-2l1 1-1 1zm0-7v2h-1v-1l1-1zm0 5l-2-1-1-2v2l1 1h-1v-1 5l2-1-1-1-1-1 2-1v2h1v-2zm-3 4zm0-7v5l-1-2v-3h1zm0 7v-1h-1v1h1zm-1-7v0zm0 6l-1-1-1-2c-1-1 0 0 0 0v-1h-2l1 2v2l-1-1-1-2-1 1v2l1 1v2l1 1 1-1v-1h-1v-1l-1-1v-1l1 2 2 2v-1-2l-1-2 1 1 1 1v2l1-1v-1zm-6 5v-4 4zm-5-1l1 1 1 1h-2v-2zm5-6v1h-1v-1h1zm0 3h-1v-1-1-1l-2 1h1v1l1 1v3a1 1 0 01-1 0v-1l-1-1v-1l-1-1h1l-1-1h-1v2h1v2l1 1 1 1h2v-4zm-8 7v-1-1-1l-1-1v-1l-1-1-1-1h3l-1 1 1 1h1v-1a2 2 0 000-1h-1l2-1v2l1 1a13 13 0 000 1v3l-1-1h1l-1-1v-1h-2l1 1v1h1v1l-2 1 3-9-1 1h1v1-2l-3 9z"/></g><path d="M101 176c23 0 42-24 42-54 0-29-19-53-42-53-24 0-43 24-43 53 0 30 19 54 43 54z" fill="#fff"/><path d="M142 122h1v6l-1 3v5l-1 2-1 3v2l-1 3-1 2-1 2-1 3-1 2-2 2-1 2-1 2-2 1-1 2-2 2-2 1-1 2-2 1-2 1-2 1-2 1-2 1-2 1h-2l-2 1h-4l-2 1v-1h2l2-1h4l2-1 2-1h2l2-1 2-1 1-2 2-1 2-1 1-2 2-1 1-2 2-2 1-2 2-2 1-2 1-2 1-2 1-2 1-2 1-3 1-2v-3l1-2v-3l1-2v-9zm0 0zm-41-53v-1h2l2 1h4l2 1 2 1 2 1 2 1 2 1 2 1 2 1 1 2 2 1 2 2 1 1 2 2 1 2 1 2 2 2 1 2 1 2 1 3 1 2 1 2v3l1 2 1 3v5l1 3v5h-1v-8l-1-2v-3l-1-2v-3l-1-2-1-3-1-2-1-2-1-2-1-3-1-2-2-1-1-2-2-2-1-2-2-1-1-2-2-1-2-2-1-1-2-1-2-1-2-1h-2l-2-1h-2l-2-1h-4zm0 0zm-42 53h-1v-8l1-2v-3l1-3 1-2v-3l1-2 1-2 1-3 1-2 1-2 2-2 1-2 1-2 2-2 1-1 2-2 2-1 1-2 2-1 2-1 2-1 2-1 2-1 2-1 2-1h4l2-1h3v1h-5l-2 1h-2l-2 1h-2l-2 1-2 1-2 1-1 1-2 2-2 1-1 2-2 1-2 2-1 2-1 2-2 1-1 2-1 3-1 2-1 2-1 2-1 3-1 2v3l-1 2v3l-1 2v8zm0 0zm42 54v1l-3-1h-4l-2-1h-2l-2-1-2-1-2-1-2-1-2-1-2-1-1-2-2-1-2-2-1-2-2-1-1-2-1-2-2-2-1-2-1-3-1-2-1-2-1-3v-2l-1-3-1-2v-3l-1-2v-9h1v9l1 2v3l1 2v3l1 2 1 3 1 2 1 2 1 2 1 2 1 2 2 2 1 2 1 2 2 2 2 1 1 2 2 1 2 1 1 2 2 1 2 1h2l2 1 2 1h2l2 1h5zm0 0z" class="F"/><path d="M70 152h12c4 1 5 5 9 5 3 0 5-4 9-4 3 0 5 4 8 4 4 0 6-5 10-5h12l4 3c-5 9-19 21-33 21-15 0-29-11-34-22l3-2z" fill="#5e7d58"/><g class="H"><path d="M100 89l-20 32 20 32 19-32-19-32z" fill="#495f5f" class="N"/><g class="I"><path d="M76 88l2-2-2-3c-1 0-3 1-3 3s1 2 3 2z" fill="#fff"/><path d="M76 84h2v2a3 3 0 01-2 2l-2-1v-1l3 1c1-2-2-3-1-3z" class="F"/></g></g><g class="C B"><g class="E"><path d="M73 93h6l1 44-8 1 1-45zm0-5h6v1l-6 1v-2zm1 3l5-1v2h-5v-1zM74 92h5v1h-5v-1z"/><path d="M72 94l2-2-2-2-2 2 2 2z"/></g><path d="M74 93c0-3-2-2-2-2v1" class="D"/><path d="M80 94l2-2-2-2-2 2 2 2z" class="E"/><path d="M78 93c0-3 2-2 3-2 1 1-1 2-1 1" class="D"/></g><g class="E"><use xlink:href="#B"/><path d="M71 136h9v13h-9v-13z" class="B C"/></g><path d="M72 91h8m1-1H71" class="D B C"/><use xlink:href="#C" class="B C E"/><path d="M72 132h8m-9 2h9" class="D G H I"/><g class="B C E"><path d="M71 148h10v2H71v-2zM70 150h12v2H70v-2z"/></g><g class="H"><g class="I"><path d="M89 107h22v28H89v-28z" fill="#fff"/><path d="M99 128l-4 3c2 0 3-1 4-3zm1 0l4 3h1l-5-3z" class="F"/><g class="L"><path d="M93 111l1 3v2l-2-2 1-3zM95 111l-1 2v3l1-2v-3zm1 4l-2 2v3l2-2v-3z"/></g><g class="M"><path d="M97 113c0-1 0-3 2-4h2l1 2-1-1 1 1v2h-5z"/><path d="M100 114l2-1-2-1-3 1 3 1z"/></g><path d="M99 128l1 4 1-4v-2l-1-14-1 15v1z" fill="#fddc00"/><path d="M91 115l2 2 1 2-3-1v-3z" class="L"/><path d="M99 128l2 1m-2 0l1 1m-1 0l1 1" class="D G"/><path d="M90 119l3 1 2 2h-4l-1-3zm1 4h3l2 2h-3l-2-2zm6-4l-2 2 1 3 2-3-1-2z" class="L"/><path d="M94 116c-1 6 2 8 5 11" class="D G"/><path d="M104 114v3l3 1-1-2-2-2zm6 2l-1 4-3 1 1-3 3-2zm-8 10l2-3-1-3-1 3v3zm2-1h3l2-3-3 1-2 2zm1-3l1-3-3-2 1 3 1 2zm3-10l-2 3 1 1 2-2-1-2z" class="L"/><g class="D G"><path d="M106 110h1v1h-1v-1m-2 1h1v1h-1v-1M104 113h0c-1 0 0 0 0 0m2-2v4M106 115c1 5-1 9-5 12m4-15l1 1M104 113l2 2"/></g><path d="M99 127l-3-1v3l3-1h4v-2l-2 1h-2z" fill="#fddc00"/><path d="M99 127h2v1h-2v-1z" class="D"/></g><path d="M100 136l1 4h4l-3 2 1 4-3-2-3 2 1-4-3-2h4l1-4zm0-40l1 4h4l-3 2 1 4-3-2-4 2 1-3-3-3h4l2-4z" class="E N"/><g class="I"><path d="M124 88l2-2-2-3c-1 0-3 1-3 3s1 2 3 2z" fill="#fff"/><path d="M124 84h1l1 2a3 3 0 01-2 2l-3-1 1-2c0 1 1 2 2 1 2-1-1-2 0-2z" class="F"/></g></g><g class="C B"><g class="E"><path d="M120 93h7v44l-7 1V93zm1-5h6v1h-6v-1zm0 2h5v2h-5v-2zM121 92h5v1h-5v-1z"/><path d="M120 94l2-2-2-2c-2 0-3 1-3 2l3 2z"/></g><path d="M122 92c0-2-2-1-3-1-1 1 1 2 1 1" class="D"/><path d="M128 94l2-2-2-2-2 2 2 2z" class="E"/><path d="M126 92c0-2 2-1 2-1 1 1 0 2-1 1" class="D"/></g><g class="E"><use xlink:href="#B" x="47.7" y="-.1"/><path d="M119 135h9v14h-9v-14z" class="B C"/></g><path d="M120 91h8m1-1h-11" class="D B C"/><use xlink:href="#C" x="47.7" y="-.1" class="B C E"/><path d="M119 132h9m-9 2h9" class="D G H I"/><g class="B C E"><path d="M118 148h11v2h-11v-2zM117 150h13v2h-13v-2z"/></g><path d="M53 141l-1 1-1-5a3 3 0 011 0l2 1 2 1h1v-1h-1v-2l1 1 1 1v2h-1a2 2 0 01-1 0h-1-1l-1-1v2zm5 1l-2 1-3 1v2l1 1h3l2-2 1-1-1-2h-1zm0 2a1 1 0 011 0l-1 1h-1l-2 1h-1v-1c0-1 0 0 0 0h1l1-1h2zm4 6l-6 3 1 2 1 1 1 1h3l1-1 1-1v-2l-1-1-1-2zm0 2v3h-1l-1 1h-1a1 1 0 010-1h-1v-1l4-2zm-2 8l6-3 2 4h-1l-2-3-1 1 2 3-1 1-2-3-1 1 2 3h-1l-3-4zm8 7l1 1v2l1 1 1-1v-1l-1-1v-1a2 2 0 011-2h1l1 1 1 2-1 1v-1l-1-1v-1h-1v1l1 1v3l-1 1a2 2 0 01-2 0l-1-1-1-2 1-2zm4 7l4-5 4 3-1 1-2-2-1 1 2 2v1l-3-2-1 1 3 2-1 1-4-3zm8 5l2-5-1-1v-1l5 3-1 1-1-1-3 5-1-1zm5 2l2-6 4 2v1l-3-1-1 1 3 1v1l-3-1-1 2 4 1-1 1-4-2zm7 3l1-7h2v5l2-4h2l-1 6h-1l1-5-2 5h-2v-5l-1 5h-1zm12-6h-4l1 6h5a2 2 0 000-1v-1-1l-1-1h1a2 2 0 000-1l-1-1c-1 0 0 0 0 0a2 2 0 00-1 0zm0 1v1h-2v-1h2zm0 2l1 1c0 1 0 0 0 0v1h-1-2v-2h2zm7-5h-1l-3 1 2 6h1l-1-3h1a1 1 0 011 0l1 1 1 1h2l-2-1-1-1 1-1v-2l-1-1h-1zm0 1l1 1-1 1h-2v-1l1-1h1zm7-4l-2 1h-1v1a3 3 0 00-1 1l1 2 2 2h2l2-2v-3l-2-2h-1zm0 1l1 2 1 1-1 2h-2l-1-2v-1l1-1 1-1zm8-7a2 2 0 00-1 0l-1 1-2 2 5 5 2-2 1-1v-1-1l-1-1-1-1-2-1zm0 2h1l1 1v1h1a1 1 0 01-1 1l-1 1-3-3 1-1h1zm7 0l-5-4 3-4 1 1-2 3 1 1 2-3 1 1-3 2 2 2 2-3 1 1-3 3zm8-11l-1 1-4-2v2l-1-1v-1-2l6 3zm-2-9l-1 2-1 1 1 1a1 1 0 001 0h1a2 2 0 001 2h2l1-2v-1l-1-1a2 2 0 00-2 0v-1h-1a2 2 0 00-1-1zm0 2a1 1 0 011 0v1h-1c-1 0 0 0 0 0h-1v-1h1zm3 1h1v1a1 1 0 01-1 0h-1v-1h1zm4-9v-1l1-1c0-1 0 0 0 0v-1h-1-1c-1 0 0 0 0 0v2l-4-1 1-4 2 1-1 2 1 1a2 2 0 010-1l1-2h2l1 1v2l-1 1-1 1zm-2 6v-1h1a1 1 0 000-1v-1h-2a2 2 0 000 1l-1-1v-1c0-1 0 0 0 0h-1v2h-1v-1-1l1-1h1l1 1 1-1 1 1a2 2 0 011 1v1l-1 2h-1" class="F"/></g><defs><path id="B" d="M72 91h8l1-1H71l1 1z"/><path id="C" d="M72 130v2l-1 2v2h10l-1-2v-2-2h-8z"/></defs></svg>