<svg xmlns="http://www.w3.org/2000/svg" width="595" height="432" viewBox="0 0 1100 800"><path fill="#e33" d="M0 0h1100v800H0z"/><path fill="#fff" d="M0 267h1100v266H0z"/><path fill="#a9d046" d="M1000 400L550 700 100 400l450-300 450 300z"/><path fill="#221e1f" d="M698 270l3 9 1 11c3 0 10-2 13 0 3 4-11 8-13 8v10c5-1 11 2 7 9l-4 2v4h1c7-7 13-11 23-12h3l-6 7c-3 5-2 10-3 16 1 1 11-5 13-3-9 7-14 14-20 23 7-4 12-7 20-9l1 1-6 12-1 5c-2 12-7 22-16 30v1c6-2 12-2 19-1l6 1v1l-5 3-6 4-9 11-3 3 4-1c7 0 14 0 21 2v1c-2 0-20 9-19 11 5 0 9 0 14 2l5 2v1c-1 0-5 1-7 3l-16 11c-7 3-11 5-19 5 6 2 8 3 13 8l3 4c0-7 1-11 6-15 6-3 4 0 2 4 0 7 4 14 3 21s-4 11-8 16v1c6-1 9-4 13-9l1-5c2-8 2-11 8-16l4-1h1l-1 1c-5 7-3 18-5 26l-11 14c-9 5-18 6-28 8l-2 1v-25l7-2c4-1 8-5 10-9v-9c-6-1-11-3-16 0v1c4 1 7 3 9 7 1 1 3 6 1 6-4-3-8-4-11-5v-48l2-2-2-1v-82-72zm0 251c7 3 14 7 15 15 0 3-2 5-4 8-2 6-2 11-2 17-2 5-5 8-9 10v-50zm-5-263l5 12v69l-3 2 2 3 1-2v82l-2 4 2-1v48h-5v-54-163zm5 253l-5 2v-26l5-1v25zm-5 8l5 2v50h-5v-52zm-4-259l3-4 1 1v218l-4 1v-52 3h1v-4l-1-3v-11h1l-1-3v-98l2-2-1-1h-1v-45zm4 253l-4 3v-28l4-1v26zm-4 5l4 1v52h-1l-3-1v-52zm0-34v-3l3 1v1l-3 1zm-5-220v4l3-4 2-4v45h-2l1 3h1v98l-5-4V264zm5 252l-2 1v1h2v52l-5-1v-80l5-1v28zm0-107v11h-2l2 4v52l-5 1v-66l5-2zm0 72v3l-5 2v-6l5 1zm-16-240l9 13 2 10v138l-1-1-10-6v-25l6 2-6-11v-42l7 4h4c-5-2-8-3-11-6v-38l6 1h1c-1-2-4-5-6-5h-1v-34zm11 328c-4-1-7-3-11-6v-69l11-5v80zm0-158v2l-4-4-7-4v26c3 4 6 9 6 14l-1 4-5-1v44l7-4 4-2v-6l-3-2 3-1v-66zm-61-123h18l19 2v-5c-4-1-10 0-13 1h-1v-1c4-7 9-14 18-10l-1-6c-6 2-11-3-8-9-4-1-15 5-17 8-3 2-10 8-15 9v-23c3-3 7-4 12-4h4l-1-5c-5 3-10 3-15 1v-19l7 2 5 2c0-7 0-11 2-17h1l3 6c3 4 8 4 11 10v2c4-2 5-3 9-1l5 1h-1c-7 5-9 8-7 17l2 4c1 1 3 6 5 7l-1-6c0-8 2-12 6-18h1l2 5v34c-2 2-4 2-6 2l1 1 5 1v38l-5-5-5-1-11-2c3 1 12 3 12 6-4 5-18 0-23-1 2 1 5 2 7 5-2 2-8 0-11-1l-5-2 6 5-2 2h34c0-1-2-8 0-7l3 3v42l-2-4-48 35v-68l5-1-5-2v-33zm50 275c-7-5-12-11-13-19l-15 3-22 8v-30l26-8 8-2 3-7c-8 1-15 6-23 8l-10-1-4 1v-24l1 1c3 4 3 8 3 13 2-1 4-9 4-11-2-3-5-4-8-6v-76l16 48 3-12 1 1c3 5 8 8 11 14v-2l-9-16h-4l3-2 2-22c-1-1-2-2-1-3 8 2 19 17 22 24l6 5c0 1 0 0 0 0v44l-13 8-7 1 8 5c2 0 5-6 7-8l5-4v69zm-50 18v1-1zm0 4l2 1c2 1 8 7 7 9l-9-1v-9zm50-215l-9-3c-1 1 1 4 2 5 1 8 0 14 6 21l1 2v-25zm0 35l-2-1-16-1c-1 1 4 12 5 14 3 5 8 9 12 12l1 2v-26zm-56 194l-14-3-6-5v-6c19 12 20 13 20 14zm-20-310l3-1h23v33l-5-3 2 5 3 1v68l-5 4 5 17v76l-6-5c-1 2 4 6 6 8v24l-11 8c-2 6-9 9-15 11v-54l13 12c1-3 4-8 6-9l-19-14V289zm26-12l-2 1-1-2c5-6 2-6-1-12 0-4 1-8 4-10v23zm0-31c-9-2-18-8-26-13v-3c9-3 17-5 26-3v19zm0 309v-30l-26 11v27l8-2 18-6zm-26 8v19l6 4c1 0 7 2 8 1l11 7h1v-9l-4-2v-1h4v-1l-22-11 9 4 1-1-9-7-5-3zm0 28l-19-15h-1l10 14h-1l-9-5c-6-9-12-16-20-23l-1 1-6 2v-36l4 1h1l1-7c0-5 3-7 6-12 3-6 1-10 0-17 1-9 12-16 20-19 3 0 5-1 8 1l7 5v54h-2l-8 2c-1 0-7 0-9 2l7-1 12-3v28h-1 1v19l-17-12c8 7 9 6 9 9l8 6v6zm-47-414c9 4 20 11 22 23l-1 10 3 8 1 10c1 6 6 18-3 21h-3c4 16 10 31 15 46 5-4 8-5 13-6v181l-41-29-6 4V177zm47 56v-3h-2v1l2 2zm-47 332c-3 0-6-2-8-4h-1l-28 16v-8l9-4 16-9-13 4-12 2v-24h10l-5-2h-5v-61h12l15 15c3 5 0 13-2 19 0 7 2 13 4 20l5-1 3 1v36zm-37-267l4 5 21-65-10-6c-6-4-11-8-5-14l3-4c2-6 3-13 6-17l-2-1c-8-7-1-20 9-21l11 2v268l-37 26V298zm0 279l-11 6c-4 4-10 7-16 8v-11l6-3 21-8v8zm0-15l-3 1-8-1-16-5v-29l16 6-5-3c-5-3-9-5-11-9v-28l4 7c4-10 14-20 23-25v-1 61l-9-1 9 3v24zm-27-330h1c4-2 4-3 5-2v1c2-1 6-3 8-2v1c-1 0-2 1-1 2h7l-2 3c-1 3-2 3-5 4-3 3-3 4-7 4-3 3-4 4-6 4v-15zm0 27h3c2 2-2 3-3 4v-4zm0 4l2 1-2 2v-3zm0 26v109l2 1-2 5v86l27-19V298v-1c-8-6-17-8-27-8zm0 302l-8 1v-6l8-6v11zm0-34l-8-3v-29l8 3v29zm-8-322h2l6-4v16h-2c-2 2-3 3-5 3l-1 1v-16zm0 22l6-1c1 1-1 2-1 3h3v7l-3 2-5 2v-13zm0 32h8v109l-8-6v-68h1l2-2h-3v-33zm8 115v86l-2 1 2 3v27h-1l-7-2v-17l3 1-3-4v-70l8-25zm-8 188h-9l6-4 3-2v6zm0-38c-6-2-11-5-17-6v-29l14 5 3 1v29zm-17-320v1c4-3 8-6 10-11l2-10h1c1 5 2 17-2 22l-3 4 9-5v16c-2 1-3 3-6 3l-3 3 8-2v2h1v13l-1 1-6 2c-2 2-3 3-5 3-1 2-3 2-5 3v-45zm0 47v2l6-3v-1l-6 2zm0 9l17-1v33l-2 1 2 1v68l-17-12v-56c0-2 5-3 7-4h-1l-6 2v-32zm17 139v70l-1-2-3 1 4 4v17l-17-6v-30l3-11-2-10-1-8v-22l1-3 4 18 3 10 9-28zm-17 49l1-2v-10l-1-1v13zm0-52l4 4 5 10h1c1-1-2-12-2-14l-8-9v9zm0 122l-6-2v-28l6 1v29zm-6-41h1v-1h-1v-77l1 4 2 7c1 1 0 6 2 7-1 1 0 13 1 14v17c-2 2-2 2 0 6v-1 30h-1l-5-1v-5zm0-275l5-2-1 4h2v45l-1 2h1v2l-6 4v-55zm0 59l6-1v32l-6 1v-8h0v-24zm6 33v56l-6-4v-52h6zm0 93v9l-4-3-2-1v-8l3 1 3 2zm0 15v6 16-22zm-6-39v-2l4-1h1l-4 3h-1zm0 153l-5-1v-28h1l4 1v28zm-5-38l5-1v5h-5v-4zm5-2l-5-3v-72l2-7c1 0 1 5 3 7v-1 76zm-5-272l3-1 1 1 1-2v55l-5 3v-38l2-2 3-6c-3 1-2 4-5 5v-15zm0 58l5-1v24l-5 2v-25zm5 23l-5 3v54l5 4v-52h-1l1-1v-8zm0 76v2l-5 4v-4l5-2zm0 23v8l-5-1v-8l5 1zm-5 131l-4-1v-28l4 1v28zm-4-37h4v4h-4v-4zm4-5l-4-3v-65a12 12 0 000-8c2 0 2 4 4 5v-1 72zm-4-263l2-2 2-4v15l-1 2-3 3v-14zm4 50v-38l-3 3h-1v13l1-1 2 1-3 2v48l3-1h1v-25h-1v-1l1-1zm0 28v54l-4-3v-45h3l-3-2v-1l4-3zm0 75v4l-4 4v-7l4-1zm0 20v8l-4 3v-9l4-2zm-4 131h-1c-1 5-4 10-7 13v-51l1 1 2 3 4-1 1-1v4h-4c1 3 2 4 4 4v28zm0-44l-3-2c-1-2-3-1-5-2v-76l5-4 3-1v9h-1v1c-2 6-5 13-4 19l2 4 1-1h1v-6c0-2-2-7-1-8l1 3 1-1v65zm-8-252h1l3-5h1c1 0 1-3 3-3v28l-3 3 1 1 2-2v48l-8 2v-8l3-1-3 1v-43c2-2 4-4 4-8-3 1-1 2-1 3l-3 4v-20zm8 73v1l-1-1h1zm0 3v45l-8-5v-40h8zm0 70v7l-8 11v-12l5-4 3-2zm-8 163l-3 4v-58l3 3v52zm0-61v-1h-3v-47l1 3v-17l-1 3v-14l3-3v76zm-3-242l2-4 1-2v20l-1 1-2 2v-17zm3 15l-3 3v40h3v-43zm0 43v8h-3v-6l3-2zm0 12v40l-3-3v-37h3zm0 76v12a50 50 0 00-3 7v-15l3-4zm-3-5v-1 1zm0-7v-3h1l-1 1v2zm0-7v-9c3-1-1 5 0 7v2zm0-13v-3 3zm0 193l-7 5v-69l7 6v58zm0-66l-4-1v-1l-3-1V367v-2l2-5 1 2 3 4v-1h1v3l-1 4h1v9l-1 4h1v3l-1 6h1v1l-1 1v6l-1 4 2-2v15l-2 5v2l2-3v14l-2 7 2 4v47zm-7-232l2-3h1c0-2 3-6 4-6v17l-1 1v1l1-1v40l-5 1-2 3v-26l1-3h1v-3l-2 3v-6l5-8c-2 0-4 2-5 5v-15zm7 51l-4 2-3 1v1l7 2v-6zm0 10h-7v34h1l6 3v-37zm-7 242l-2 1v-70h2v69zm0-74h-2v-1-124l1 1 1-1v125zm-2-228l2-1v15l-2 1v-15zm2 17v6l-2 2v-7l2-1zm0 9v26l-2 2v-27l2-1zm0 34v37h-1a3 3 0 01-1 2v-6a38 38 0 011-1h-1v-32h2zm-2 243l-7 3v-77l7 4v70zm0-75v-1 1zm0-2l-6-1v-1l2-1-3-1v-61-9l1 1c2-1-2-6 0-7v1-1l-1-4v-3l2 1-1-2v-7h1l-1-4v-3-9h-1v-14l7-8v6 127zm-7-229l1 1c1 7 0 13-1 20v-21zm0 22v35l3-4-3 6v36l1-4 6 4v-32h-3l3-6v-27l-1 1 1-3v-7l-4 6 4-9v-8l-1 3-6 9zm0 287a28 28 0 01-14 0v-48h1l8-4-9-5v-24l14 4v77zm0-84l-7-1 3-2c-4-2-6-5-10-6v-1l9 1-2-2c0-2 5 1 5 0l-7-7-5 1v-7h3l-1-1-2-2v-2l1 1-1-2v-39l2 4-2-11V281l2 4 2 5 6-17c1-4-3-11-5-13l-5-4v-4c5 1 10 5 14 9v57l-2 6 2-4v36l-5 15v1s3-6 5-7v15c-3 8-4 16-5 26l4 15 1 2v63zm0-83h-1l1 3v-3zm0 13h-1l1 3v-3zm-14 154l-5-2-1-1v-42l6-3v48zm0-57l-3-1-3-1v-23h2l4 1v24zm0-36v-1 1zm0-8l-6 2v-5a39 39 0 015-4h1v7zm0-10l-6-5v-1l6 4v2zm0-3v-39c-2-4-4-7-2-11l2 4V281l-6-8v7l2 12h-2v9h2c0 2-1 2-2 2v3l3 1 1 17-2-10-2-3v78l2 8c-3-2-1-3-2-4v-1 55l2 1 1 3-3-2v1c2 2 4 3 4 5l2 1zm0-200l-3-4h3v4zm-6 311l-2-2v-39l2-1v42zm0-56h-2v-24l2 1v23zm0-40h-2v-4l2-1v5zm0-17l-2-1v-2l2 2v1zm0-3v-2l-2-1v1l2 2zm0-4l-2-2v-1h1l-1-2v-16-39l1-1-1-5v-26l1 6-1-25v-29l2 4v78l-2 2 2 1v55zm0-141l-1-2 1-1v3zm0-5l-2-1v-8h2v9zm0-21l-1-2-1-2v-6l2 3v7zm-2 285c-3-4-1-8-2-13-2-6-5-10-8-14 0-5 5-9 10-12v39zm0-54l-13-3c-11-3-22-11-24-24 0-6 2-14 0-19v-1h1c4 3 7 5 7 10 0 7 0 10 6 14l6 2c-6-6-6-10-6-17 1-7 4-15-1-22 2-1 6 2 8 3 5 6 2 16 5 24 3 4 6 7 11 9v24zm0-40v-4l-2 1-7 3 1 1 8-1zm0-18v-2h-1l1 2zm0-4l-4-4h1l3 3v1zm0-4v-1l-6-5c-2 0 1 2 6 6zm0-3l-5-5c1-1 1 2 3 1-2-4-6-5-10-7l-9-7-9-10c1-1 11 6 13 6l12 6v-3c-1-2-7-7-7-9h1l7 9c2 0 3 1 4 3v16zm0-18v-37l-2-1c0-3 0-5-2-7v-4l-2-1c1-3 0-5-2-7 1-4 0-4-3-7 0-1-1-7-3-5v2l-2-2-3-9h-1l2 9 1 8c-2-2-2-7-3-7h-1l2 6 1 7c-2 0-2-1-2 1 2 2 2 6 3 10h-1c0 1 3 2 3 5s3 6 3 8c1 2 0 5 2 7 0 2 0 4 2 5v1l-8-7c-8-4-17-6-25-9l-4-2v1c0 3 16 13 20 15l6 3c1 1 16 12 19 17zm0-43l-6-14-5-12-13-28v-1c2-2 12 12 13 14l3 5h1c0-6 2-18-3-22l-9-9c-2-1-6-3-6-5 1-1 9 3 11 4 4 2 7 3 10 7 1 2 1 4 3 4 1-8-2-14-3-21 1-1 3 1 4 4v29l-1-1 1 20v26zm0-81c-7-2-21-5-18-8h18v8zm0-24c-2-2-4-6-4-9l4 3v6"/><path d="M456 503l35-109v-1l-96-68h84l-1 2-75 1 90 64v1l-33 102 1 2 89-65 1 1 89 63h1l-35-102v-2l35-24 56-40-1-1h-77l1-2h86l-5 3-93 66 33 95 4 14-94-68h-1l-94 68m6-9l32-102v-1l-39-27-49-35 71-1v5c0 2 6 0 8 0l1 9 7-3c0 2 0 8 3 8l5-4c0 2 1 6 3 7l4-3c1 3 1 5 3 7 1 1 3-2 4-2l2 5 6-3 1 3-1 8c0 5 3 9 4 15 0 4-1 6-6 8l-18-12 2-2c6-6 2-13-5-14l-6 2-3-1c-9-1-15 8-7 15-2 6 1 9 7 10 3 0 7-2 8-6l16 11-1 2c0 3 1 7 5 6 1 2 2 3 4 3 3 0 5 2 7 0l9 5-19 13v-1l8-12c-10-1-19-1-23 8l-1 4c-9 6-19 15-21 26l1 3c14 3 29-2 41-8l3 1h6l3-1-75 54m176 0l-87-63c-2 0-6 4-8 5l4-5c1-1 4-9 3-10-7 0-12 0-19 2h-1l15-11h1l53 37c3 0 5-4 2-7 0-3 9-10 9-13-2-3-5-4-8-6h-1c-1-2-6-5-8-5-2-3-4-5-7-5l-9 13h-1l-24-18 15-9c1 1 2 2 5 2l2-1c4 2 5 0 7-4 3-1 4-3 4-6 1 0 5-2 6-1l6 10c3 3 3 4 7 3 1 0 3-2 4-1l31 93h-1m-131-57c1-1 16-11 17-10l-2 7-15 3m-8-5c0-4 5-7 8-9l3 1 3 1c-4 2-10 7-14 7m207-12l1-1-1 1m-161-16l-12-8c0-3-1-3-2-5-1-3 0-5 1-8 1 1-1 3 2 3l3-6 1 3h1v-2l1 1h1c3-4 6-9 7-14h1l4 6 4 5 1-1 4 4 4 2h1v4c-3 1-3 2-3 4l-19 12m61-13l-3-9 2-3c7 2 13-2 13-10-2-14-20-12-19 1h-1l-9-15c-1-2-3-1-5-1l5-7s3 5 5 4l2-11s3 7 6 6l3-10v-3l7 4v-8l6 2c2 0 1-1 1-3h75l-88 63m-31-6c-6-3-3-9-2-13v-3h1l-1-9v-7c1 0 3 4 4 3 3-7 2-6 6-1-2 0-2 1-2 3l2 10 3 10-11 7m34-11c0-5-1-6-4-7 3-6 9 1 4 6v1m-88-57l-3-1 8-24c1-1 1-2 3-2 4 4 0 0 0 2 1 3-1 0-2 1 0 3 7 5 9 7 1 6-8 12-7 14l-5 3h-3m-4-3c-1-3 1-4 1-7l-1-2 25-77 2 1-27 85m53 2l-3-2h1v-1l-3-1c-5-2-5-3-5-6v-3l-3-8c2-1 4-3 4-5h-3l-7-4c-4-1-16-5-19-1l-4 1v-1l17-56 5 1 28 84-8 2m9-4l-28-81v-1l3 1 25 75v6m-43-17h1-1m8-3c-2 0-5-1-3-3 1 3 3 2 6 3h-3" fill="#fff"/><g fill="#99642e"><path d="M540 322l1-2v2h-1m16 0v-2-1l4 1-4 2m-14-1a7 7 0 011-4c2 0-1 4-1 4m-6-1l-3-2 4-2v4h-1m8 0l1-1v1h-1m9 1c-2-1-4-2-4-4l1-3 1 3 4 4h-2m-7-2l-2-5 3-5 2 3c-1 2-1 6-3 7m13-1c-4-1-3-2-3-5l4 5h-1m-5 0c-4-3-4-4-3-7l2-7 1 2 7 6 4 2h-4l-7-4v8m5-10c-3-2-5-3-5-5h3c1 1 2 2 2 5m-22 12l2-5c0-3-6 2-8 3l-5-1s9-3 8-4h-3c3-4 6-7 6-11s0-2 2-2c4-4-2-9-2-10l2-1c-1 3 8 7 9 2l8 4c0 1 3 5 2 7-3 0-3-2-4-4l-1 2-2-3c-1-1-2 3-2 4h-1c-1-1-2-6-3-5 0 1 3 9 5 7l1-4 1 2-2 10-3-4c-3 1-3 6-5 7l-1-3h-1v1c1 4 4 5-1 8h-2m34 34c1-5 1-8-1-13l2 3 1-1c2 1-1 12-2 11m5 0c-3-2-1-4-1-7l-1-6 4-6c4 4 3 8 2 13l-4 6m7-1c-3-3-3-4-1-8v-5l3-8 3 5c0 3 0 7-2 11 0 2-2 3-3 5 0-1 0-1 0 0m9-3c-5-5-3-9-3-15 2-3 2-6 2-9l3 2v14l-2 8m8-5c-4-4-4-12-4-16l1-5 3 2c3 5 4 8 2 14l-1 5h-1"/><path d="M572 341l-3-6c1 0 1 2 3 2l3-8 4 4h1v-8h2c2 3 2 5 2 8l-3 5-3-5-3 3-3 5m-1-6c-3-3-2-5 1-8l1 3-2 5m17-1l-4-8 3 1c1-3-1-6-1-7 5 3 4 6 3 11l-1 3m23 1c-6-4-7-5-10-10v-8c5 0 10 10 10 15v3m-32-4l-4-3 1-5c3 2 3 3 3 8m38-2c-4-2-7-5-9-9 1-2-1-7-2-9l7 3c3 4 7 9 5 15h-1m-43-2l-10-9-2 1-2-4h6l3 2c6 0 11-1 11-8v-5c3-9 11-13 20-15l37 1 27 2h26l21-2 3 1c-2 4-15 6-19 7-11 0-23 0-33-3l-12-3h-1l6 2 5 2c-4 3-17-7-18-4v1c3 0 7 1 9 3l-4 1c-7 0-11-2-16-5h-1l5 4v1l-11-2-10-3v1c1 1 5 1 6 3-4 3-14 0-17-2-3 0-10 0-11 3l5-2c3 0 5 0 8 2l3 2-8 2c-4 0-8-2-12 0l1 1c4-1 6-1 10 2h-12v1c5 1 7 0 10 4l-5 2-6-2-1 1c0 1 5 1 7 4l1 3-7 1-6-2v1c3 2 6 3 6 8l-6-1-6-6-1 1c2 2 2 5 1 8m20 0c-1-2-5-6-5-8 6-1 5-2 7 4l-2 4m6-3c-4-2-6-9-8-12 4-3 8 4 8 8v4m30-2c-5 0-12-4-15-8l1-1-2-5h2l20 13-6 1m-23-4c-2 0-11-5-10-7h1c1-3-2-4-2-5h1c5 3 9 5 10 12m36 0c-7-1-17-5-22-9 1 0 3 2 5 1l-2-4c7 3 16 7 22 12h-3m13-2c-11-2-21-6-31-11l15 1v-1l12 5 10 5-6 1m-43-4c-5 0-9-4-13-6l1-2-2-1c2-1 6 1 8 3l6 2 2 4h-2m51-2c-7-1-14-2-19-5l15-2c2 0-3-2-3-2 6 0 14 3 19 8-2 2-10 1-12 1m-41-1l-10-3-10-4 8-2 10 4 3 5h-1m-99 22h-1l1-4c2-4 1-3-1-1l-6 2c0-3 2-5 3-7l-1-1c-3 3-4 5-8 3l-2-1c1 0 5-1 6-3h-1l-3 1c-2 1-3 0-5-1l5-2v-1c-1 0-8 2-7 0 2-2 5-2 7-3v-1c-5 2-7 3-10 0l9-3v-1c-1-1-6 1-6 1-2 0-6-1-5-3 1 0 7-2 7-4l-7 2a19 19 0 01-6-1l10-4v-1c-2-1-8 3-10 3h-8c4-3 10-4 15-5v-1c-1-2-10 2-12 2-5 3-10 3-16 2 1-2 10-4 12-4l4-1 6-1v-1c-1-1-9 1-10 1-8 2-14 4-21 3l-3-1c0-3 14-3 16-3v-1c0-2-10 0-11 1l-7 2-28 4c-3 0-7-2-8-3l25-2 32-4c11 1 23 2 32 8a28 28 0 016 10c0 4-4 7 1 10l7 1 6 1-5 6 1 5-3 1m10 52l-2-4c-1-2-2-4-1-6l2 5 2-6c2 1 1 6 1 8l-2 3m31-2c-3-1-2-4-1-6l3-3c1 3-1 6-2 9m-27-2v-8 8m3 0c-1-2 0-8 1-10 2 3 1 6 0 9l-1 1m-13-1c-2-6-6-13-1-17h1l1 8c0 2 1 7-1 9m33 1c-3-2-3-3-3-6l1-2 2 6v2m-4-3c-3-3-4-6-3-10 2 3 3 5 3 10m13 0l-1-6v-6c3 3 3 7 2 12h-1m-37-2c-3-5-5-10-4-16l3 1 3 9c0 1-1 7-2 6m29 1c-1-3-2-4-1-7v-4h1c1 2 2 9 0 11m-17-1l-2-7-3-7c8 2 9 4 6 11l-1 3m-5-2l-1-3 1-5 2 3c0 1-2 6-3 5m26 0l-2-7-1-5 3-1c2 4 5 8 1 12l-1 1m-13-1c-3-5-4-8 1-10l-1 10m6-1c-3-3-4-6-3-10h5c0 2 1 9-2 10m-21-1l-4-9 6 1s-1 9-2 8m35-4l-6-6 4-3c2-1 2 9 2 9m-47-4l1-6c2-1 2 2 2 3l-3 3m-8-5c-2-6-2-12 0-17l3 3 2-3-1 8c1 6 2 5-3 9h-1m8-1c-3-5-3-10-2-16h1l2 3-1 4 1 7-1 2m-13-3c-3-4-3-7-3-12l1-4c0 1 2 4 3 3l4-3c-3 5-3 9-3 15l-2 1m-8-3c-3-7-2-11 0-17l1 2 5-2v1c-2 3-3 8-2 12l-4 4m-9-4c-2-4-2-9 0-14l3-6 1 4h4l-3 12c0 1-4 5-5 4m-8-5c-2-9 1-15 7-22l1 1c-2 4-2 3 3 4l-5 9c0 2 0 4-2 6l-4 2m39 1c-2-2-2-6-1-8l3-2v6s-1 5-2 4m-7-1c-2-5-1-6 0-10 1-2 1-1 3-2h1c0 1-2 4 0 5 0 3-1 5-3 7h-1m-7-2c-3-4 0-10 4-12v3h1c1 2-2 8-5 9m-34-5c0-8 4-11 8-15l6 1-6 9-1 3-7 2m28-1c-2-4 1-9 6-7l2 1c-1 1-6 7-8 6m-6-4c0-4 1-7 5-8l2 2v1l-3 4-4 1m-35-5h-2l16-8 3-2 7 2-2 1-3 2c-6 4-13 5-19 5m-16 0l-2-1v-1l24-11v1l9 1c-8 5-21 11-31 10m50 0l-3-1h-1c2-3 4-4 8-4l2 1c-1 2-4 3-6 4m-65-3l-4-2 26-11c6 2 10 2 16 1-10 5-22 9-32 11l-6 1m56-2h-2l11-5 3 3c-2 2-9 2-12 2m-74-4l-2-1c-2-3 38-9 39-9l7-1-3 3c-13 4-27 9-41 8m75 1l-7-2c4-2 9-3 12-6l5 4-10 4m-17-3l-2-1c3-3 9-5 13-7h6v1l5 2-12 4-10 1m-55-3c0-1 3-1 0 0m-12-2c-2 0-7 0-8-2l6-2 17-1 10-1c6-2 7-2 8-1l-1 1c2 2 4 2 7 3h-1c-13 2-26 4-38 3m55 0h-4v-1l12-5 10 1 4-1-2 3c-6 2-13 3-20 3m-58-5l-19-5c-9-4-3-3 3-3l31 2 9 4-18 1h-6m42 1l-5-1 1-1 17 1 10-1c-1 2-15 2-17 3l-6-1m2-2l-7-1c1-2 14-2 16-2l10 2-19 1m188 5l-12-1-15-5c5 1 9 0 14-1 5 1 9 3 13 6 1 1 2 2 0 1m9 0l-9-2-6-4h7v-1-1c4 2 6 2 11 2 0 0 10 3 9 5l-12 1m32 0c-4-1-10-1-13-4h11l-2-2 20 2 3 1c-1 2-10 3-12 3h-7m-19-5l-7-1h8l4-1c1 0 6 0 7 2h-12m-102-6c-4 0-7-3-10-4l-4-1c-3 0-6 0-6-3 5-1 11 1 15 3l7 3c0 2-2 2-2 2"/></g><g fill="#fff200"><path d="M434 288h-1c0-4 2-4 5-5 0 3-2 5-4 5m2 2l-2-1h7l-5 1m5-2l-3-1 1-2h7c1 2-5 3-5 3m-10-3c0-2 3-5 6-6l-1 3-5 3m16-1h-3c1-4 5-3 8-2l-5 2m-6-1v-1h-3c1-3 5-3 7-3-1 3-2 4-4 4m12-2l-4-1 2-2 8 1c-1 2-4 2-6 2m-15-2c-1-2 3-4 4-5v4l-4 1m9 0v-1h-2c0-3 4-3 7-3-1 2-3 4-5 4m12-2l-3-1c2-3 3-1 8-1-1 2-4 2-5 2m-15 0c0-3 3-6 5-7l-1 4-4 3m8-1l1-2h-3c1-2 5-3 8-2-2 2-3 4-6 4m13-2l-3-1 1-2 6 2-4 1m-35-1l-1-1c0-3 3-3 5-3-1 2-2 4-4 4m10 0s2-3 3-2l-3 2m18 0l2-2-3-1c0-2 4-2 6-2h1c-2 3-3 5-6 5m-30-2c-2-3-2-3 0-6l2 4-2 2m23 0c0-2 2-3 4-5 0 6 1 4-4 5m21 1l-5-1 2-2 6 2-3 1m-7-3l1-2h-3c0-2 7-2 8-2-2 2-4 4-6 4m-32-1c0-3 3-3 5-3-2 4-2 2-5 3m44 1l-5-1c1-2 6-1 8-1 1 1-3 2-3 2m-20-1c-1-3 2-4 4-5l-1 4-3 1m-27-1v-5l2 3-1 2h-1m19-2l2-2h3c-1 1-3 3-5 2m-3 0h-1c-2-3 3-4 5-4-1 3-1 4-4 4m26 1v-1c2-1 1-1 0-1v-1l5-1c-1 3-2 4-5 4m10 0l-5-1 1-1 8 1-4 1m-20-1c1-3 3-5 6-5l-1 4-5 1m-28-1c1-3 3-3 5-4-1 4-1 3-5 4m9-1c0-4 1-4 5-6l-1 3-4 3m-10-1c-1-3-1-5 1-6 2 1 0 5-1 6m36 1v-1c1-3 1-3 6-5-1 3-3 5-6 6m-14-1l2-2h1c-1 1-1 2-3 2m24 0c3-3 3-2 8-2-2 2-5 3-8 2m-26-1l-1-1v-2l5-1c0 2-1 3-4 4m7 0v-2h-2c0-2 5-2 7-1l-5 3m15 0c0-2 4-4 7-4-2 3-3 4-7 4m-38-2c1-2 4-3 6-2-2 2-3 2-6 2m12 0l1-4v-1l-2 1 4-3c0 2-1 7-3 7m-12-3c-1-3-1-3 1-5h1c0 1 0 5-2 5m29 0h-3v-2h8c-2 2-3 2-5 2m-7 0v-1h-2v-2l6-1c-1 3-1 4-4 4m-6 0c0-3 0-5 3-6 0 2-1 5-3 6m-13-1c2-3 2-3 5-3-1 3-1 3-5 3m24-2l1-2v-1l-3 1c0-2 5-2 7-2-2 3-2 4-5 4m-24-2c0-2 0-4 2-5 2 1 0 5-2 5m32 2l-3-1 1-1 7-1c-1 1-3 3-5 3m-15-1l1-5 3-1c0 3 0 5-4 6m134 168v-1 1m1-2v-1 1m-66-16c-3-3 2-9 0-10-2 1-2 6-2 8-3 1-5-2-5-4 1-3 3-4 5-5v-1c-1-2-5 4-6 6h-1c-3-2-1-5 1-6 7-2 9-2 11-9l1-4c3 4 0 7-1 11l2 6-2-1c0 1 2 9-3 9m-8-4h-1l1-1v1m52 2l-1-1 1 1m6 0l-1-1h2l-1 1m-4-1l-2-1 1-2-2-8-1 1 1-3c-2-5-2-6 0-10l3 8c3 2 15 3 11 10l-2 1c-1-4-3-8-7-8-1 1 1 2 2 2 2 1 5 6 3 9h-3c0-4-1-7-3-9l-1 1c1 2 6 9 0 9m-7-8l2-1-2 1M446 498c3-4 4-4 8-3v1c-1 2-6 2-8 2m10-1v-1l1-1-1 2m-13-1l-2-1c3-2 4-3 8-1l-6 2m-5-2h-4c-1-1 9-8 10-2l-6 2m17 0c-4-1-2-2-2-5 3 1 5 1 3 5h-1m-5-1l-3-1-1-6c2 1 8 2 5 7h-1m-18-1l-3-1 7-4c2 0 2 0 3 2l-6 3h-1m13-1c-1-2-2-2-4-2l-1-4 4 1 1 5m-17-1l-4-2 5-2c1 0 2 1 2 3l-3 1m4-2l-1-2h2v1l-1 1m-11-2l-5-1c-1-1 6-2 7-2l3 2-5 1m18 0h-4l-2-5c4 2 5 1 6 5m-7-2c-3 0-5-4-6-6l5 2 2 4h-1m-5-1c-3 0-4-3-5-6 3 0 4 3 6 6h-1m-11-1l-6-4c3 0 6 0 8 3l-2 1m5-1c-3 0-4-3-6-5 4 0 4 1 7 5h-1m33-2l-5-6 6 3-1 3m2-1v-6l4-3 1 6c-1 1-3 3-5 3m-26-3l-3-3 3 3m24-2l1-5 4-4v3l-5 6m-2 0c-3-2-5-7-5-11 3 2 8 6 5 11m-24-1l-2-3c2-1 5-2 4 2l-2 1m-4-2c-3-2-6-5-6-8 1 1 6 5 6 8m8-1c-1-2-2-2 0-4 2 1 1 5 0 4m-6-2l-5-5c4 0 6 1 6 5h-1m3-1v-6h1c0 1 2 6-1 6m-12 0l-2-2h2l1 2h-1m36 1c-2-4 2-8 5-10l1 5-6 5m-39-4c-2-1-7-2-7-4 3-1 9 0 10 4h-3m37 1c-3-3-6-6-5-10 2 2 6 4 6 8l-1 2m-25-2c-2-1 0-7 2-6 0 1 0 5-2 6m-7-1c-3-1-4-7-2-8 1 1 4 9 2 8m4 0h-2l-1-5c1 1 4 3 3 5m30-1c-2-6-1-5 4-9l1-1v5c-1 1-3 5-5 5m-42-3c-2 0-7-1-7-4 3 0 10 0 10 4h-3m13-1c-1-2-1-5 1-6l1 4-2 2m-3-1l-3-3v-2c2 0 4 3 3 5m29 1c-2-3-4-5-4-8 4 2 6 4 5 8h-1m-36-2c-3-2-2-3 0-5 1 1 2 2 1 4l-1 1m-8-2c-2-1-4-2-4-4 3 0 8 0 8 4h-4m46 1c-3-5 2-4 5-8v3l-5 5m-30-3c-2-2 0-4 1-6h1c0 2 1 6-2 6m-11 0l-2-2c1-8 5 0 2 2m8-1c-2-1-3-4-3-6 3 2 4 2 3 6m-4-1l-1-1c0-2 1-1 1 1m34 1c-4-2-3-4-3-8l5 5-1 3h-1m-42-2c-1-2-2-5 0-7 2 0 2 7 0 7m-5 0c-2-1-4-3-3-5 1 0 4 0 5 2 2 3 1 3-2 3m83 1v-2h12c-4 2-8 2-12 2m-32-2c-2-6-1-6 2-11 2 5 3 7-2 11m-31-2c-2-2-1-6 1-7 1 0 1 6-1 7m-4-1c-3-1-3-2-4-5 3 1 5 1 4 5m69 2h-3c0-7 8-14 12-19l6-5 3-2c2-8 3-9 11-11l10-1c-1 5-7 12-11 15-3 1-6 0-8-2-3 0-10 7-11 11l-1 1c2 2 8 0 10-1l34-22h1l-28 19c-2 1-11 7-11 9 6 3 14 2 21-2 2-1 1-2 1-4 2-8 13-8 19-9h5l-4 4c-13 9-26 14-42 18l-14 1m-84-3c-1-3-1-4 1-6 2 1 1 4 0 6h-1m-4-1c-1-1-4-3-4-5 3 0 7 1 6 5h-2m201 7l1-4-1 4m-151-6c-3-5-2-5-1-10l3 7-2 3m149 5l-67-47v-4h1l68 47-1 4h-1m-178-8c0-2 1-7 2-6v2l-2 4"/><path d="M518 442c1-3 5-3 7-4l-7 4m-101-5c-2 0-3-3-3-5l3 1 1 4h-1m-16 0v-6l2 4-2 2m-2-2c-4 0-4-1-5-3 2 0 4 0 5 3m53 2l-2-4 2-4c2 3 3 4 0 8m77 2l11-9 3-2v1l-14 10m3 0l11-8c-1 1-9 9-11 8m-28-2c0-1 2-5 3-4l-2 4h-1m93 3l-19-14 8-12 5 3c-2 2-8 8-1 8l4-6 5 3c0 3-6 5-3 9 3 0 4-4 6-6l5 2-10 13m-178-7c-2-4 1-10 2-2l-2 2m-20-1c-2-1-1-3-1-5 3 1 2 5 1 5m140 5h-1l7-8c-1 3-3 6-6 8m-143-6c-3-2-3-4-3-6l4 2-1 4m20 1c-2-2-2-4-2-6l3 3-1 3m14-1v-2h1l-1 2m82 1l1-4 9-5-4 5-6 4m-84-4c-1-3 0-4 3-5 0 1 1 3-1 4l-2 1m-3-1c-4-2-4-4-5-8 4 0 7 4 5 8m-8-1l-1-1 2-1s0 3-1 2m11-3c-1-5 0-6 3-8l1 4c-1 2-2 4-4 4m180 6h1-1m-182-9c-4-2-4-4-5-7 5 2 6 2 5 7m101 3l5-7c1 0 5-4 6-3-1 1-4 3-4 5l-6 5h-1m-99-8c-2-5 0-5 3-6 0 3 1 4-3 6m-3-2c-2-2-5-4-5-8 5 2 6 2 6 8m-30-1l-1-1v-1h1l1 1-1 1m3-1c-3 0-3-5-2-6 2 2 3 3 2 6m-6-1c-2-2-2-3-2-5l4 2v2l-2 1m149 3l2-2 1 1-3 1m-141-5c-2-4-3-2-1-6h1v6m27 0c-1-3 1-9 5-10-1 2-1 8-3 10h-2m-33-3v-5c1 1 3 2 3 4-1 1-1-2-2-2v3h-1m30 1c-4-3-3-3-4-8h1c3 2 4 2 4 6l-1 2m-32-2c-4 0-4 0-5-4 2 1 5 2 6 4h-1m5-2v-4h1l1 3-2 1m-5-1c-3-2-6-2-6-6 3 1 4 2 6 5l1 1h-1m9 1l-1-1h1v1m145 4v-1l21-14v1a180 180 0 01-21 14m5-1c2-3 5-4 8-6-3 4-3 5-8 6m-159-6v-5c0-1 3 3 2 4l-1-1v2h-1m35 1c-1-5 1-9 5-12l-1 8-4 4m-2 0l-3-3-1-6 4 5v4m-30-2v-6h1v6h-1m-5-2c-5-3-5-3-7-8l4 2 3 4v2m169 5c2-2 5-7 8-7 0 3-5 6-8 8v-1m41 1l-9-14c1-1 4-1 4-3l-2-7-7-1c-1-3-6-16-5-18h4c6 11 11 22 15 35l1-2c-4-12-9-23-15-34h1c8 13 13 28 17 42 0 2-4 2-4 2m-210-9c-1-1-2-5-1-6l3 4h-1v2h-1m3 0v-5h1c1 1 1 3-1 5m34 0c-2-6 1-8 5-11l-1 6-4 5m178 7l-5-16-10-23h1c4 7 8 15 11 24 0 3 4 13 3 15m-180-8c-5-3-6-7-5-12 4 4 5 6 5 12m-39-4l-4-4c2 0 5 1 5 4h-1m5-1v-3c0-1-1-3 1-4 2 2 0 7-1 7m-1-1c-2-3-2-1-3-1v-4h1c2 1 2 2 2 4v1m127 2c-2-1-19-13-21-13l-1 5c-3 6-12 5-12-2l1-2-1-2c-6-6 1-14 8-12l3 1c4-3 8-3 10 3 1 5-3 5-6 8l20 14h-1m-91-3l-3-4v-6c1 1 3 3 3 5v5m-41-3c-3 0-4 0-4-3l-1-2c2 0 5 3 6 5h-1m20 1c-2-2-3-4-2-6 2 1 5 2 4 6h-2m22 1c0-5 2-6 6-9l-1 5-5 4m-18-2c-1-4 0-3 3-6 0 3 0 6-3 6m174 6l1-3 1 3h-2m3 0v-3l2 3h-2m-196-8c-2-1-1-4 0-5l1 4-1 1m-4 0c-2-2-1-3-1-6h1s3 4 1 5l-1-1 1 2h-1m195 7a6 6 0 00-1-1c1-1 1-2 3-2l-2 3m8 0c-3-5-3-3 1-7h1l-2 7m1-1l2-4v3l-2 1m-169-7c-3-2-2-3 0-6v6m157 6h-1l10-7 3 1-12 6m-195-8l-1-2h2v2h-1m211 8l-1-2 1 2m-98-3v-1l1-1-1 2m-90-4c-3-2-3-1-3-5 2 1 4 2 3 5m2-1c-1-3 0-5 3-6 0 2 0 6-3 6m-27-1c-2-1-2-3-2-4h1v1l1 1v2m46 1c-3-3-3-4-2-8 3 2 2 5 2 8m1 0c-1-4 2-6 4-9v5l-4 4m-41-3v-5c1 1 2 4 0 5m-3 0v-5l2 4-2-2v3m-2 0l-1-1 1 1m24-1c-3-2-3-2-3-5l-1-1c3 1 4 3 4 6m17 0l-1-2 2-4c1 1 0 4-1 6m-42-2c-2-1-3-5-3-7 2 2 4 4 4 7h-1m26 1c-1-4 2-5 4-7v5l-4 2m200 7h-1l1-3c9-5 3-16-3-11-2 2-2 5-4 6-3-5 1-9 4-11 7-1 12 4 11 11-1 5-4 7-8 8m-179-8c-1-2-1-6 2-7 3 2-2 7-2 7m176 6l1-6-1 6m-220-10l-2-1-1-4c2 1 4 3 3 5m2 0v-2l-2-3h1c2 1 2 2 1 5m20 1c-3-2-3-2-3-6 2 1 3 4 3 6m201 6v-4 4m-199-8c-1-3 0-3 3-5v2l-3 3m191 7l-1-2 3 1a3 3 0 01-2 1m3-2l1-2 2 1-3 1m-222-9v-6l1 2-1 4m25 0c-3-2-2-1-2-4 2 1 3 1 2 4m-23-1v-1 1m25 0c-1-3 1-4 3-6v1c1 1 0 5-3 5m-2-4c-2-2-4-4-2-6 2 2 2 3 2 6m2 0c0-3 1-4 3-6 1 1-2 5-3 6m-1-4c0-3 0-4 2-6 1 2 0 5-2 6m-1-2c-3-1-2-3-2-5 2 1 2 3 2 5m176 6c1-1 5-3 7-2-2 3-5 3-7 3m-175-11c-3-2-1-3-1-6h1v6m129-48c-2-2-5-2-6-4l8 2c2-2-3-5-3-5l-6-3h-2c1-3 2-3 4-3 3 3 7 6 8 10 0 3-1 1-2 3h-1m1-10c-2 0-4-2-4-4h1l3 4m-93-38c2-3 2-3 5-3l-1 2-4 1m27-2h-1l1-1h-3c0-3 4-3 6-3 1 2-2 4-3 4m-8 0c0-4 1-6 4-7l-1 6-3 1m-19-1c-1-3 0-4 1-6 2 1 0 5-1 6m32 1l-1-1c2 0 4 0 5-2h3c-3 3-4 3-7 3m-29-2c2-2 2-3 5-3l-1 2-4 1m29-1l1-2h-3c1-2 5-2 7-1-2 3-2 3-5 3m9 0c0-2-2-1-3-1 0-2 1-1 3-1 2-1 3-2 5-1-1 2-3 3-5 3m-17-1c1-3 1-4 4-5v4l-4 1m-21-1c0-2 0-5 2-6 1 2 0 5-2 6m4-1c1-3 2-3 5-3l-1 3h-4m22 0c1-4 1-5 4-6v4l-4 2m10 0c0-2-1-2-2-2 2-3 5-2 7-2 0 2-3 3-5 4m9-1h-4c1-3 3-1 5-1l3-2 1 1-5 2m-42-2c0-3 0-4 3-6 0 2 0 5-3 6m29 1v-2c0-2 3-5 5-5v4l-3 1-2 2m-23-3h-1c0-2 2-3 4-3-1 3-1 3-3 3m35 1v-1h-1c0-3 4-2 6-2-2 3-2 3-5 3m6-1v-1h5l-5 1m-11-1c0-3 1-4 4-5 0 3-2 5-4 5m-31-1c0-3 0-3 3-4 0 3 0 2-2 3l-1 1m44 0v-1h-2c1-2 4-2 6-2l-4 3m-7-1l-1-2c2-2 4-3 7-3-2 4-3 5-6 5"/></g><path d="M548 321c6 3 11 2 16-1l6 6c-6 8 0 15 0 21 0 16-16 9-22 15v-2h1l2-1 1-1h4l1-1h4l1-1 2-1h1l1-1 1-1v-2l1-1v-5l-1-1v-4l-1-1v-3l-1-1v-2l1-1v-4l1-1v-1l-1-1-1-1h-1v-1l-1-1-1 1h-2l-1 1h-8l-1-1h-2v-2zm0 37h2l2-1h1l3-1h3l2-1h2l1-1 2-2v-1l1-2v-4l-1-1v-2l-1-1v-3l-1-2v-5l1-1v-2l1-2h-1l-1-1-1-1h-1l-1 1h-12l-1-1v34zm0 4c-5-6-21 1-21-15 0-6 6-13 0-21l6-6c5 3 10 4 15 1v2h-1l-1 1h-9l-1-1h-2l-1-1v1l-1 1h-1v1l-2 1v1l1 1 1 2v9l-1 2-1 2v8l1 2 1 1 1 1h1l1 1 2 1h3l2 1h4l1 1 2 1v2zm0-38l-1 1h-11l-1-1h-1l-1 1h-1v1h-1l1 2v11l-1 2v2l-1 1v5l1 2v1l1 1v1l3 1h1l2 1h3l2 1h4l1 1v-34" fill="#fff"/><path d="M561 344v-1h1l1-2-1-2h-1v-1l2 1 1 2-1 2-2 1zm0-6v1l-1 2 1 2v1l-1-1-1-2 1-2 1-1zm-3 14v-4 4zm0-9v-5 1h1v2h-1v1l1 2h-1v-1zm0-5v1h-1v2h1v2l-1-1v2-6h1zm0 10v4l-1 2v-3l1-1-1-1v-1h1zm-1-10v6h-1v-6h1zm0 10v1h-1v2h1v3h-1l1-2h-1v-2-1l1-1zm-2 6v-3 3zm0-10v-6l1 1v1l-1 1 1 1v1l-1 1zm0-10v-1 1zm0-3zm0-2v-1 1zm0-1v1h-1v-1h1zm0 3h-1 1zm0 2v1h-1v-1h1zm0 5v1h-1v1h1v2h-1v1h1v1h-1v-6h1zm0 10v6h-1v-2-4h1zm-1-20v6h-1v-6h1zm0 10v6h-1v-6h1zm0 10v1h-1v1h1v1l-1 1v1h1v1h-1v-4-1l1-1zm-3 6v-2-4h1v6h-1zm0-10v-2l1-4h1v6h-1v-5l-1 5zm0-10v-2l1-1-1-1v-2l1 1v2h1-1v3h-1zm-9-5v-1h1v6h-1v-5zm9-1v1h-1v4h1v1h-2v-6h2zm0 14v2h-1l-1-5v5h-1v-6h1l1 5 1-1zm0 6v1h-1v1h1v1l-1 1v1h1v1h-1v-5l1-1zm-11 6v-1h1v-3l-1-1v-1l1 1 1 1v3h-1l-1 1zm0-10v-2l1-1-1-1v-1h1v4l-1 1zm6-15h-1v-1h2v1l-2 5 1-5zm-4 9l1 5 2-5-1 6h-1l-1-6zm3 0h3v1h-2v2h1v1h-1v1h2v1h-3v-6zm-3 10h3v1h-2v1h2v2h-2v1h2v1h-3v-6zm5 1v-1h1v6h-1v-5zm-7-10h-1v-1l1 1zm0 3v2l-1 1v-2h1v-1zm0 6v1h-1v4h1v1h-1v-6h1zm-1-10v1h-1v4h1v2l-1-2-1-2 1-2 1-1zm0 10v6-6zm-5-10l2 4v-4 6l-2-4v4-6" fill="#221e1f"/><g fill="#fff"><path d="M509 557v-3l1-2v-3l1-3v-3h-1v-1-1h2l6 1h3l2 1v3h-1l-1 1v-1l-1-1-2-1h-2l-1 1v3h2l1-1v-1l1 1v3l-1 2v1h-1v-2l-1-1-1 1v3l1 1h3l1-1 1-1v-1l1 1v2l-1 1v1l-1 1h-1l-1-1h-9zm0-8v-3-3 6zm0-6v6l-1 1-4 5-3 1v-4l2-3 1-4c0-2 0-2-2-2v-1l-1 1v1-5 1h3l3 2 2 1zm0 12h-1v1l1 1v-2zm-8-16v5l-3 7-1 1 1 1 3-1v4l-3-1h-1l-1-1h-2-1v-1h-2l-1-1v-1h2v-1l1-1 1-2 1-1 1-2v-2l1-1v-1h-1v-1l1-1h2l1 1h1zm-11 3v-1-3 4zm0-4v4l-1 2v1l-5 4h-1v-4-1l1-1 1-2 1-3-1-2h-2v1-4l5 1 2 2v2zm0 13v0zm-7-18v4l-1 1-1 1-1 2v4h3v4l-5-1-3-3v-5l1-3c2-2 3-3 6-3l1-1zm-8 4v-3-2 5zm0-5v6l-4 5-4 1v-3l2-3 1-5-1-3h-1l-1 1v-4l1 1h2l3 2a3 3 0 011 1l1 1zm0 8l-1 3 1 2v-5zm-8-13v4l-3 9v1h3v3h-3l-1-1h-3l-1-1h-1l-1-1v-1h2l1-2v-2l1-2 1-2 1-2v-1l-1-1v-1h5zm-19 9v-3h1v-2-2h-1v-6h2l1 1 1 1 1 3 1 4 1 5v1h1v2h-1-3-2-1l-1-1v-1h2v-2h-2zm0-12v6h-1v2l1 1v3l-1-1h-2l-1 1v1l1 1-1 1h-2l-2-1v-2h1l1-1 1-1 2-4 1-2 1-2v-1l1-1zm-8 3l1-2-1-1v3zm0-3v3h-2l-1-1v-1h-1v8l1 2h1l1 1-1 2h-7l-1-1v-1h1v-6-2-2l-1-1v1h-1v1l-1 1v-6h2l6-1h3l1 2v1zm0 12v1h-1l1 1v-2zm-12 2v-2-5-1 8zm-13-1l1 1v2l1 1-1 1v1h-1v-6zm13-15v6h-2v-2-1l1-2 1-1zm0 8l-3-1h-6l-1-1v-1l1-1h1l2 1h2v-3h-1l-1-1h-3l-1 1h-1l-2 1v7l1 1 1 1h2l1 1h4v1l-1 1h-2-1v-1h-1l-1-1h-1v3h1l1 2h6v-1l3-1v-8zm-29 1l5-2 2-1v-1h3l1 2 1 2h-1-1l-2-1-2 1-1 1v1l1 2 1 1 1-1s1 0 0 0v-1-1-1l1 1 2 2 1 3v1h-1v-1h-2v2l2 2h1l2-2 1-2v-1h1v6h-1l-8 3v1l-1-1v-2l-1-2-1-3-2-3-1-2h-2l-1-1v-1l2-1zm16-6l-1 2v5h1v-7M704 539l-1 5v2h1v1l-1 1-2-1-2-1c-1 0 0 0 0 0v-3-4h1v-4l-1 1v-3-1h1l1-2h2l1 2v7zm-5 7h-1v-2h1v-1 3zm0-4v-3l-1-1v-1l1-1v-3l-1 1-1 2-2 3-1 1v4h1v-1c1 0 1 0 0 0v-1l1-1h1l1 1h1zm-5-10v-6l1 1 2 1v1l-1 1h-1v1l-1 1zm0 12h-1l-2-1v-2h2l1-1v4zm0-18h-2v5l-1 1h-1v-1l-3-7v-1h-1l-2-1-2 1 1 1v3l-2 3-1 4-1 1v3h1l2 1 1-1v-3-2l1-1h1v1l3 8 1 1h1l1-3 1-2 2-4v-7zm-15-2v-3 3zm0-3v3l-1 1-1 3v7l1 1-1 1-1 1-1-1h-1l-2-1-1-1 1-1 1-1v-6l1-3-1-1v-2h1l1-1 1 1h3zm0 14l-1 1v1l1 1v-3zm-15 1v-1 1zm0-6l1 1v4l1 1 1 1 1 1 2-1 1-1-1-1v-2l-1-2-1-2v-2h1v-2l-1-3-3-2h-1v3h1v4h-1v3zm0-10v3h-1v4h1v3h-1v3l1 1v2h-1l-2 1-2-1-1-1v-1h1v-11-1h-1v-1l1-1h5zm-15 15v-3h1v-1-1h-1v-8l1 2 2 2 2 4 2 4v1h1l1 1-1 2h-3-2-1v-2h1v-1h-3zm0-13v7h-1v3h1v3h-1v2h1v2h-4l-1-1 1-1v-1l1-1v-5-7l2-1h1zm-15 22v-4l1 1h1v2l-2 1zm0-12v-2h1v2l1 1v1l1 3 1 2-1 1v1l1 1 3-1 2-1v-2h-1v-1l-1-1-2-6-1-2h1l1 1 1 1h1l1-1-1-2-1-2-1-1h-2v1l-4 2v5zm0-5v5h-1v1h-1l-1-1v-1-1-2l1-1h2zm0 13l-3-4-2-3-2-1v6h1v2h-1v3l1-1h2v3h2l1-1h1v-4zm-7 7v-2l1 1-1 1zm0-15v6l-1-1v3h1v3h-1l1 2v2l-1 1h-2-1v-2h1v-10l-1-1v-1-2l1-2h1l2 1v1zm-16 21v-4l1 1-1 3zm0-7l2 3c2 2 4 3 5 2h1l1-1h1v-1l1-1 1-1v-1l-1-1s0-1 0 0h-1v1h-1-1c-1 1-2 0-3-1l-1-4v-2l1-1h2l1 1v1l1 1h1v-1l1-2-1-2-1-1h-1-1l-1-1h-1c-2 1-3 1-4 4l-1 1v7zm0-7v5-5zm0 10v4l-1 1-1-1-1-2v-2l1-1 2 1zm-14 8v-2l1 1-1 1zm0-4h3l1 1h-1v2h4l3-1v-2h-1v-1h-1l-3-5-2-3-2-2-1-1v7h1l1 1v1h-2v3zm0-12v6h-1v3h1v3l-1 1v1h1v2l-2 1h-2v-2l1-1v-1-5-8h3zm-4 7v-2-2 4zm0-4v4h-1-1l-1-1v-1h-1v9l1 1 1 1-1 1-3 1-3-1-1-1v-1h1v-1l1-2v-3l-1-1v-3-1l-1 1v1l-1 1h-1l-1-2 1-2v-1l1-1h9l1 1 1 1zm0 12l-1 1 1 1v-2zm-15-13l1 1 1 1v3h-2v-1l-2-1-1-1v1h-1l1 1 1 1v1h1l2 2 1 3-2 4-4 1h-1l-2-1-1-1-1-1v-3-1h1l1 1v1l1 1 1 1h2v-1-1h-1l-1-1-1-1h-1v-1l-1-1v-3l1-3c1-2 2-2 4-2l1 1h2"/></g><g fill="#ee1c23"><path d="M538 236l-9-5 10 4-1 1m10 327c-8-1-11-11-12-17v-1l4 4c6 4 15 0 19-6v-1c1 2 0 5-3 6v2h2l-1 2-2 2 1 2-1 1h1l-2 1 1 1-2 1h2l-3 3h-4"/><path d="M544 550c-7-2-10-10-7-15s8-6 14-5c2 1-1 5 1 5v1l1 1v1l1 1-1 1h1l-1 1 1 1c1 0 2-3 3-2l-4 4 3-1-2 3v1c-3 2-6 3-10 3m8-15l1-2v-1l-1 3m-27 3c-8-4-12-3-20-5-6-1-15-6-17-11-1-7 2-16 3-22 3-7 10-14 16-19s8-6 16-5c3 1 7 5 9 7 6 6 9 7 8 16l-3 7v-4l-3-9-1-1 3 13 1 12 4 13-4 3-2 2-10-8c-6-5-5-13-10-17-8-5-16 3-22 7-2 1-4 1-4 4 1 2 3 3 5 3l10 5 15 2 10 5 5 1c2 1-8 1-9 1m35 1l-1-3c4-3 5-9 7-13 0-2 4-8 3-9-5 6-5 14-10 20l-3-3c1-4 0-8 2-12 3-5 8-10 9-15v-9c2-4 9-9 9-12h-1c-4 4-8 7-9 12 0 4 1 9-2 12v-15c3-8 13-17 23-16 5 2 11 8 16 12 4 3 7 6 8 12l-1 12-8-9-5-12-8-8-1 1 5 4c3 2 4 5 6 8l3 8 9 10 1 6-2 5-4 5c-6 3-13 5-19 6h-7l-4 2c-4 1-9 2-13 1l12-5v-2h2v-1l3-1-1-1 4-1 1-1-4-1h8v-1h1v-1l-3-1 2-2 2-1h3l-2-1h5c-2-2-5-1-7-2 2-1 4 0 6 1v-1l-1-1 1-1h-1v-2h-3c1-2 3-1 4-1v-2-1l-1-1 2-1v-1c4 0 4 2 6 6 2 2 5 4 6 7 0 5-12 9-15 11v1c3-1 17-7 16-12l-5-7c-3-4-4-8-9-7-4 3-12 4-14 8l-10 18c-2 1-9 8-11 8m-31-4l-9-5-17-3c-4-1-6-4-9-5h-3c0-3 0-3 3-4l8-6c2-1 5-3 8-1v1c-1 1-2-2-3-1l1 2v1l3 1v1h-4v1c2 1 0 2 3 4v2c-1 4 10 3 11 5l-1 1 3 1s9 5 6 5m-12-11l-6-3 7 3h-1m60 2c0-2 5-2 7-2l-4 1-3 1m-162-8c-9-8-17-8-28-11-11-2-22-9-25-19v-22c6 4 5 8 5 14 2 8 8 10 16 13v-2c-6-5-8-9-8-16 1-8 4-15 1-22 4 0 6 5 7 9 0 12 1 21 15 26 15 5 27 6 38 18l7 10a100 100 0 00-28 2m100 2l-2-1 2 1m64 2c1-2 4 0 5 0h-5m-69-4l-1-2 1 1v1m76 3l-3-1c1-1 5 1 3 1m7-5h-2 2m-2-2h2-2m94 3l-15-2h-11c2-9 9-15 16-21 8-5 19-6 29-8 5-1 12-6 13-12-1-9-2-19 6-24l-1 3c0 8 4 15 3 22l-3 9-6 8c7 1 12-3 16-9l3-11c1-3 4-10 7-9-4 7-2 16-4 25l-9 12c-10 7-24 6-35 11l-9 6m-93-7a1 1 0 012 0h-2m43 1c-6-1-5-8-2-8 1 2 3 2 5 2l1 3c0 2-3 3-4 3m8-3c-2 0-4-1-4-3l3-2 5 3c-1 2-2 3-4 3m-6-5c-5-1-4-7-2-7l6 4c0 2-3 3-4 3m44-31c-5-1-5-5-3-7l5 1h1c3 3 0 6-3 6m1-8c-4 0-5-3-3-6 7-7 12 7 3 6m-8-7c-8-2-1-12 5-7 3 4 0 7-5 7m25-35c-7-2-4-11 3-8 4 4 2 9-3 8m-11-4c-7-3-1-12 5-8 2 4 0 8-5 8m17-35c-4-1-6-6-2-8l2 1c3 1 7 0 4 4-1 2-2 3-4 3m-10-3c-4 0-5-4-3-7 3 3 3 3 7 3 1 3-2 4-4 4m12-5c-8-2-2-13 5-7 2 4 0 8-5 7m-10 0c-5-1-5-5-3-7 2-3 6-3 8 1 0 4-1 6-5 6m-8-53c-4-2-2-6 1-7l3 1v6h-4m6 0c-3-3 0-6 4-6l4 2v4h-8m8-6c-5 0-5-6-1-8 4-1 7 0 7 5-1 3-3 4-6 3m-10-1c-8-2-2-13 5-7 2 4-1 7-5 7m-25-40c-5-1-5-8-1-8h5c3 3 1 8-4 8m-9-8c-4-1-5-4-3-6 5-7 14 3 5 6h-2"/><path d="M669 267c-7-2-1-11 4-6 2 3 1 6-4 6m-100-19l-1-1c4-1 5-1 5-4-2-7-13-11-18-13l-12-3-12-4c-6-2-11-1-5 6h-1c-8-6-2-9 2-14 2-6 2-13 6-17 4-3 7-1 12 1 1 1 4 3 6 2v-1l-10-5c4-2 6-2 11-2 1-3-9 0-10 0-6 3-12 5-14-2-1-8 3-11 9-14 12-1 20 4 29 13 0 1 4 5 3 6l-6-8-1 1-1 2 3 3h-1l-2-2v1h-1v1l2 2h-1c-1 2 6 7 5 8l-4-4v2c-1 2 6 4 6 8l-3-3c-1-1-6-5-7-4v1s8 4 8 6c-3-2-6-5-8-5v1c4 3 8 5 12 10l-12-8c-3 0 5 4 6 6v1l5 4c-2-1-3-3-5-3v2l-1-1v1l7 6v1c-2-2-6-6-8-6l2 2v1l-4-2 1 1v2s11 6 11 8c-2-2-13-9-14-8-1 3 6 3 7 5-1 0-11-5-8-2l7 3 11 8c1 4 2 9-3 11h-3m4-22l-1-2 1 2m-9-27l-2-2c2 0 2 1 3 2h-1m-47 340l3 1c3 0 12-2 14-1 0 4 0 7 2 12l1 3-20 6v-2l1 1h3v-1h1v-1h1v-5h-3v-4h3v-2h1v-3h-1v-2h-6v-2zm0 15h1-1zm0-8v-1 1zm-11-9l11 2v2h-5v-1h-2v1h-1v1l-1-1h-1l-1-1v-3zm11 23l-1 1a34 34 0 01-10 0v-7h1l1-1v-1h1v-1 2l-1 1h-1v1h-1v1h1v1h2l8 1v2zm0-15v1-1zm0 9h-1v-1 1h1zm-16-19l5 2v3h-1l-1-1h-2v-1h-1v-3zm5 26l-5-1v-3h2l1-1 1-1h1v-1 7zm-5-10v-4l1-4 1 1v3l-1 1v1h-1v2zm-11-19l11 3v3h-3v-1h-1v1h-2v3h1-1v2l-1 1v2h-1v2h-1v2h-2v-6h1v-1l1-1v-1-4h-1v-2h-1v-3zm11 28c-4 0-7-2-11-3v-3h3v1h2l1 1h2v1h3v3zm0-13l-3 4v1h2v-1h1v-4zm-18-19l7 4v3-1h-1l-1-1h-1l-1-1h-3v-4zm7 29c-2 0-5-1-7-3v-4h1l1-1h2v-1h1l1-1 1-1v-1 6h-1v2h1v4zm-7-14v-5h2v1h-1v3h-1v1zm-16-21l5 2 11 4v4h-2l-1 1h-1v1h-1l-1 1h-1v-4h-1v-1h-1v-1l-1-1h-2v-1h-4v-5zm16 32l-16-5v-3h1l1-1h2v-1h1l1-1h1v4h1l1 1v1h2l1 1h4v4zm0-15h-1v3h-1v3h1v-2h1v-4zm-16 0l1-1v-1-1l1-1v-3h-1l-1 3v4zm-23-22l23 5v4h-2v-1h-3v1h-1v1h-1v1h1v2l-1 2v3h-1v3h-1v1h-1v-1h-1v-1l-1-5v-2h-1v-5h-1v-1h-1v-1l-1-1h-4v1h-1v4h-1v1l-1 1v-12zm23 32v-3h-1l-1-1h-2v-1h-1-2v-1h-3v-1h-5l-1-1h-3v-1h-1v-3h1-2v-1 4h-2v3l9 1 9 3 5 2zm0-14l-2 5h2v-5zm-38-18h15v13l-3 3v2h-3v-2l-1-6v1h4v-6l-1-1h-1v-1h-4l-5 1h-1v-4zm15 26h-15v-5h1v1h1v1h4l1-1h2v-1l1 1 1 1h4v3zm-15 1h14l-3 9-11 11v-20zm0-13v1h1v3-7h-1v3zm-4-14h4v4h-3v1l-1 1v1-7zm4 26l-4 1v-3l1-1h1v-1l1-1h1v5zm-4 2l4-1v20l-4 2v-21zm4-16v2-1h-1v-1h1zm-4-1zm-5-10l5-1v7h-1v-1h-1v-1h-1v-1h-2v-3zm5 26l-5 1v-4h5v3zm-5 2l5-1v21l-5 2v-22zm5-18zm-5 8v-1h2l1 1h-3zm0-9zm-9-6l8-3h1v3h-1v1h-2v1h-1-1v1h-1l-2 4v2l1 1v1h1v2h2v1l-1 1v-1h-1l-1 1h-1v1-1l-1-1v-4h1v-1h-1v-9zm9 24l-9 3v-2l3-2h2v-1h1v-1h1v-2h-1 2v1h1v4zm-9 23v2l9-2v-22h-1l-8 4v15h1l-1 1 3 1-3 1zm9-41h-1 1zm0 8v1-1zm-9 5h1v-1 1h-1zm-2 30l-4-1v-2l3 1h3v2h-2zm-4-47l6-2v7c-3-3-4-2-5-1v-4zm6 25l-6 3v-3h2l4-2v2zm0 18h-3 3zm0-1v-15l-6 2v8l1 1-1 1h3c1 1-2 1-2 1h4c1 1-2 2-2 2h3zm0-33v2-1h-1v-1h1zm0 8l-1 1v-1h-1 2zm-6-7v-1h1-1v1h1-1zm0 36c-3-1-5-2-8-6 0-6 0-12-3-17l-6-8c0-6 9-11 17-15v4l-1 1h-1l-5 3h-1v1h-1v2h1v1h2v1h1v2h1v1h1v1l1 1v2h1v2h-1v1h1v2h1v3l-5 5c-3 6 0 9 5 11v2zm0-7zm0-2v-8c-2 2-3 3-2 5v2h2l-2 1h2zm0-28v1-1M693 570c-13-2-25-10-31-21l-1-5c12-1 26-1 36 8h-3l2 1c0 1-2-1-3 1h4c0 3-4 0-4 2l3 1 2-1c0 3-5 0-6 1l4 2-5-1v1l7 1c0 3-8 0-8 0l5 2h-6l7 2c4-1 4-2 5-5 1 4-2 6-6 6l-6-1 7 2v1c-3 0-7-2-9-1 2 2 10 2 13 1 9-6-1-15-6-19-16-9-34-7-49-2l-9 3v-5h1v-1h3l1-1h2v-1h5v-1h1v-1h1v-1l1 1h1v1l1-1h4v-1h7v-1h1v1h3v1h1v-1h9v1h1l1 1h3l1-1v-5l3 7v2h1v1h4v1h2v1h1v-1h1v-1h1v3h2v1h1l1 1h3v-1h1v-18h-1v-1h-1v-1h-2l-1 1-1 1v1h-1v2h-1v2h-1l-3 3v1h-1l1-2 2-4v-2h2v-1h1v-2l-1-1v-1h-1l-1-1h-4v2h-1v1h1v2l-2-6v-1h-1v-1h-2v-1h-4v1h-1v2l1 1v1h-1v4h-1v2h-1v2h-1v-7h1v-3h2v-2h-1v-1l-1-1h-1v-1h-5v1h-1v3h1v3l-1 1v6h-1v1-1h-1v-4h-1v-1h1v-6l-1-1h-1v-1l-1-1h-9l-1 1v3h1v10h-1v1l-2-5-1-2v-1l-1-1h-1v-2h-1v-1l-1-1h-3l-1 1h-1v8l-1 4v2l-1 1v-1h-1v-1l-2-5h1v1h1v-1h1v-1h1v-2h-1v-2h-1v-1h-1v-1h-3l-1 1h-1v-2l7-3a87 87 0 0153 3c7 3 15 6 16 16-4 6-5 9-7 16 0 6 1 11-5 15l-7 1zm-57-21c-5 3-11 5-17 6v-3h2v-1h1v-1h1v-1h4v-1h1l1-1v-1h1v1h2v-1h2l1-1h1v-1 5zm-17-21l17-6v2l-3 1v1h-2l-1 1v6l1 1h1v1h1v-1h1v-1h1v2l1 2v3h-1l-3-4-1-2-1-1h-1v-1l-2-2h-1l-1-1h-1v1h-2v2h-1v1h1v2h-1v-1l-1-1h-1v1-6zm0 18c1-1 2-3 3-2h1v-3l-2 1h-2v4zm0 9c-9 4-18 6-28 7v-4l1 1h5v-1h1l1-1v-2h-1v-1h1v3h7v-1h1v-1h1v-1l2 1s3 0 3-5v1h1l1 1h4v3zm-28-17v3l2 1v-1l1-1 1-1h2v1h2v1l1 1v1h1v1h1v2l1 1 3 4v1h1c-1-3 0-5 3-5v-10h1v-1l1-1 1-1h1l1-1h3v1h1v-6l-28 10zm28 4v4c-2 0-4-6-3-7s2 2 3 3zm-28 14l1-1 1-6h-2v7zm0 6c-10 1-21 0-30-6v-15l6-1h16-1l9-1v-1 3h-11v2-1h-3v-1h-5l-1 1-1 1-1 1v1l-1 1v3h1v2h-1v2h-1v1h1v4h1v1h1v1h8v-1h1v-1h1v-2l1-1v-3h-1v-3h3v-1 7h-1v3l1 1v1h8v-1 3zm0-13h-1v6l1 1v-7"/></g><g fill="#37b549"><path d="M697 414c2-10 4-20 4-30l3 1-3 17-3 11-1 1m6-16l3-13c3 0 6-3 6-7l-1-1c4-3 3-4 3-8 4-6 8-12 14-17 0 0 3-2 0-2l-15 18c-2-2-4-2-6-2l6-8 15-9 7-2-5 11-2 11c-4 10-8 18-17 25l-8 4m-32-75a25 25 0 00-1-4l8 4h-7m14-1c-3-1-15-7-15-11l8-1 8 8-1 2 1 2h-1m2-6l-13-11h11c2 3 3 4 3 8l1 2-2 1m12-7c-1-2-2-3-4-3l-1-3c1 0 5 0 5-2l-3-2 5-1s0 12-2 11m-7-3l-1-2h2v2h-1m-27-15l-3-1-1-3 8 3-4 1m7 0l-10-5v-1c5-1 8 2 12 6h-2m15 0c-2-7-7-14-12-18l-1-4c6 6 11 13 14 21v1h-1m3 0l-6-12c1-6 2-11 5-16l3-4 1 3c4 10 9 16 8 28l-9 1-1-26c-2-3-1 9-1 10v16m-42-7c2-6 8-11 15-8l4 3a92 92 0 00-15 3v1l5-1c1 0 13-3 13-1-2 2-9 3-12 3h-10m-23-9c4-4 6-8 8-14 6-7 12-8 21-7l7 4-12 1c-10 4-15 12-24 16m57 2l-7-11c2-4 0-6-3-8l-2-14h-1a78 78 0 001 14l-4 1v-13l4-8c2 5 5 8 8 11 5 9 6 18 5 28h-1m-59-3c2-3 2-6-1-8-5-9 3-14 11-15 2 0 8 0 9 2-3 2-6 3-9 7-2 4-5 11-10 15v-1m74 178l4-4c6-2 10-4 14-9 5-3 11-4 17-5v-1c-2-1-12 3-14 3l2-5h13l5 2-8 4c-9 7-21 16-33 15m5-6l6-17 16-9c1 0 9 0 9-2-2-1-11 2-13 2l-11 7h-10c10-9 18-11 31-10h8l-12 7c-5 3-7 6-9 12-4 5-8 9-15 10m-21-3c-2-6-4-10-8-14 0 0-4-3-3-4 7 4 9 7 11 16v2"/><path d="M682 439c-1-6-3-10-8-13s-8-4-12-9c-1-2-6-10-5-13 12 1 18 0 26 10l3 5 2 12-3 4c-3-9-6-15-12-20-4-2-8-4-10-7h-1c0 3 8 7 10 8 7 6 10 12 12 21l-2 2m9-9v-10l2 4 1-2h1l-1 3h1l1-1-1 4-4 2m15-12c-1-3-3-3-5-5 7-5 13-10 21-14l7-3c-5-1-16 6-20 10l-9 7 2-10c10-10 20-11 34-8l-4 2-5 5c-5 8-11 15-21 16m-13-8c-4-5-7-9-13-11l-2-2c7 0 12 6 15 13m2 0c-4-7-6-10-13-13l-7-3c-5-3-7-9-8-13 0-5 0-8-2-12l8 2c14 6 22 11 23 28l-1 7-3-8c-6-12-14-18-24-27v1l19 19c3 5 7 13 8 19m2-4c0-6 0-12-2-18l-3-6h4l4 7-3 17m3-20l-2-4 2-1v5m-11-6c-2-3-5-5-8-6-3-4-8-15-8-18l5-3c9 0 14 4 18 13l-4 2-1 3c-4-7-8-12-13-16h-1l7 8 7 10c-1 2-2 2-2 5v2m14-12v-14l-2-11-1-6 3-2 2 32-2 1m-2-2h-1l-2-18 1-8c2 1 2 14 2 17v9m-3-1c-4-8-10-12-18-13l14-11c4 4 4 18 4 24v0m8-2v-11c2-13 7-28 18-37v-1l-7 7c-4 5-6 11-9 18l-2 8-2-13 6-5c0-1 0-6-2-6 5-7 13-10 22-11h-1c-7 8-6 11-7 21-2 10-9 18-13 27l-3 3M712 357c3-7 8-13 11-21 1-1 8-4 9-3l-4 3a59 59 0 00-6 8l-10 13M611 596l-7-1-24-19 4 1 28 19h-1m-132-5c5-1 19-4 19-11-2-2-2-2-5-2l-17 11c6-4 11-9 17-11 16-4 31-13 45-21l3 3-40 22c-6 6-14 8-21 9h-1m-1-1l15-10 3-1c3 4-7 8-9 9l-9 2"/><path d="M630 593h-8c-13-9-27-19-41-26l-7-4h4l46 24a39 39 0 016 6m-47-6l-5-3c-6-9-12-15-18-21l-2-2 6 3 19 22m25 0l-5-1-16-12-7-5 28 16 1 2h-1m9-5l-34-17h-1l1-1 37 18h-3m-33-5l-7-1c-5-6-11-10-18-15l1-1c8 5 17 10 25 17h-1m21-6l-16-6c3-2 10 1 13 3l4 3h-1m-119-50l-13-4-12-5-17-1c8-4 23-2 33 1l9 5v4m127 1v-3l16-11 1 3c3 3 7 3 10-1l2 1c3 0 5-1 6-3h6v-4l5 3-7 3c-6 2-12 6-18 5-5-1-6-1-10 1l-11 6m-126-7l-17-12v-1l1-1 16 11v3m126 2l-1-6c0-5 1-11-1-15l5-9 8 10c2 4 2 11-1 14l-7 5 1-5c2-6 0-13 0-19-1-2-1 1-1 4 1 8 2 14-3 21m-133-5l-12-4h-6l6-5 12 8v1m8-1c-2-2-10-12-10-15l5-3 6 11-1 7m-5-3l-11-7 1-1 10 7 1 1h-1m-29-3l-7-5 6-1h3l-2 6m174 3v-1l5-10s0-1 0 0h1l-2 6-4 5m24-7l-1-4 6-5 13-6 12-3 1-1c-2-1-13 3-15 4l-7 3c2-4 5-6 7-8 8-2 13 0 21 2l-8 3-15 11c-3 2-11 5-14 4m-194-9l-12-17-16-29-4-16 1 1h1c1 11 7 22 13 32 5 9 11 18 18 26l-1 3m-4-3l-4-2v1l-1-1c-10-9-14-17-16-29v-1l5 8 9 14 7 10m196 7c-1-5-1-4 1-8l5-13-1-13-8-14c3 0 9 3 11 6v19h1l1-17 4 6c0 6-3 9-7 14 0 3-4 7-3 10 2 1 6-3 7-4 6-6 10-12 12-19 0 0 0-3 1-2v4c-1 5-8 10-8 15-4 6-9 11-15 16h-1m-191-8l-3-6h-1v-1h3l2 5-1 2m-16-2c-5-2-9-9-12-13l1-1 4 6 8 8h-1m0-3c-4-3-7-6-9-10l10 10h-1m206 7c-3-6-2-4 0-10 2-8-2-15-4-22h-1v1c2 7 5 13 4 20l-2 4-6-19 3-11 3 3c5 6 8 10 9 19l-5 12-1 3m-219-11c-1 0-6-4-6-2l1 1-6-2-11-11c9 0 16 8 23 14h-1m226 6l2-5c7-12 11-19-1-29-5-3-6-4-12-5 4-2 8-4 12-4 7 0 10 3 14 8l-2 3c-1 0-5-8-6-5 5 3 6 8 7 13-2 10-6 17-14 24m-263-14l6-3c4-3 5-5 10 0l-4 1c-3 0-9 3-12 2m43 2c-1-1-4-3-2-3l2 2v1m232 6l6-11 3-2-1 3c-1 10 14 7 10-2l1-1c2-5 10-5 15-5l7 1-7-2-10 1-4 1c-1-5-4-3 3-5 10-2 14-1 21 8l-9-1c-5 1-8 5-12 9-7 4-15 6-23 6m-221-9c-6-8-11-18-10-28l5 7s7 20 5 21m18 0c-3-11-4-21-3-33v-1l3 13 3 11-3 10m243 9c-6-4-11-6-17-4h-1c5-5 10-3 15 0 1 1 1 0 1-1-4-3-6-3-11-4 3-2 3-2 8 0 2 3 4 4 5 9m-276-15l-1-6-2-1v-3l-1-10c3 1 5 20 4 20m238 3l1-8 1 1-2 7m6-3v-3s1 4 0 3m-250-16l-1-13c-2 0-1-3-1-4l-1-1-1-3 2 2 3 10v9h-1m259 9l-2-1c4-6 10-11 16-17l4-5v-1h-1c-7 8-15 15-20 23-1-3-1-4-3-5 3-10 8-19 18-21h10l-3 11c-3 6-6 10-11 14l-8 2m-272-11c-2-3-2-2-2-5h-2l-2-1v-3c-3-2-3-1-3-4l8 9 2 2v1l-1 1m26-3c-2-3-2-9 0-12l4-2-3 9-1 5m-26-2l-13-27 1-2 12 25v4m19 1c-2-7-2-7 1-13 4-7 11-12 18-14l7 2 9 10 2 9-1-1c-2-5-8-13-14-14-4 0-7 1-10 3-5 3-8 8-10 13l-2 5m-23-5a215 215 0 00-30-30c-6-3-17-9-22-14l19 6 13 10 11 7 9 20v1m237 7c-1-7 1-13 1-20v-2c6 2 13 13 17 20l-7-2c-1-3-4-11-6-11 1 3 5 8 5 11l-10 4m-253-10l-4-2c-7-3-12-8-17-13l16 8 4 5 1 2m19-2l-4-8v-27l1 6 5 19v2h-1c-2 2 1 5 0 7-2 0 0 1-1 1m-19-1l-3-3c1 0 4 2 3 3m48-2c0-2 1-2 3-3l-3 3m-25-5l-5-21-2-17h-2v-1h3l2 17 5 21-1 1m17-3c-1-1 1-7 1-8h-1c0-7 7-13 12-16l8-3-4 3c-5 5-8 8-11 14l-5 10m-27-8c-3-8-4-16-5-24h2l3 14v10m7-12c-1-5-3-12-1-16 3-2 3-10 3-12l11-12c-2 8-7 15-10 24l-3 17v-1m-6-2l-2-9 3 2-1 7m1-9l-7-2-3 1 2-2c3-1 8-3 8 3m-8-5c-2-4-3-8-6-11l-7-20-12-24c8 6 14 17 18 27l7 23s3 3 2 5h-2m4 0l-1-2c1 0 3 2 1 2m-2-8c-3-13-3-27-4-40l3 2c2 5 1 11 1 16l1 2-1 14v6m-4-8l-4-13-3-7v-17l3 3 3 27 1 7m16-1l-2-13 2-7 5 4-5 16m-2-17l-1-2-1-3h-1v-1l4 2-1 4m-8-6h-1v-5l1 2v3m-14-18c-2-4-7-9-10-12l-3-2c4 0 10 4 13 7 1 0 4 4 3 5h-3v2m8-2l-1-10c0-2-3-7-2-8l2 2 4 16h-3m8 0l5-16h3l-4 9-2 7h-2m3 0c0-4 2-8 3-10h3l-4 10h-2m3 0l4-10h3l-4 10h-3m6 0l5-10 4-1-6 11h-3m-14-2l-1-15 5 1-4 14m5-12v-2h1l-1 2m5 0l1-2h3l-4 2m-3-17h-1c1-9 5-18 9-26 0 9-2 17-5 26h-3m5 0c2-6 6-13 10-18l1-3 2 2c-5 6-8 12-12 19h-1m4 0h-1l22-26 2-2 2 2-5 4c-7 7-13 14-18 22h-2m-13 0l-5-1-3-15c-1-1-5-6-4-7 5 5 10 13 13 20v3h-1m19 0l4-4v-1l3 1v1l-2 1-5 2m4 0c2-2 5-2 8-1l-8 1m10-1c1-2 4-3 7-4v-1c3-1 10-5 13-5l-14 10h-6m-24-23l-4-9-7-6c4 0 10 4 13 8l-2 7m38-20l8-13 9-8 2-9c1 2 0 12-1 15l-9 9c-3 1-6 2-7 5l-2 1m205 6c-5-4-8-7-9-13-1-7 1-9 7-11l5 1v1c-6 5-7 8-5 15l2 7m-4-1c-4-2-8-2-11-2-6-3-5-7 0-12 1 0 2-2 5-1-1 6 2 10 7 14l-1 1m-27-8l-9-2-22-13c10-3 18-5 29-2 3 0 6 1 9 4l4 7-15-5c-4-2-9-3-14-3l-8-1v1c9 1 17 3 26 6l12 4c-2 4-9 4-12 4m13-5c-5-8-6-13-5-21l2-4 3 5c4 4 9 5 10 11l-2 5h-3c-4-5-6-9-8-15l-1 1c2 6 4 9 8 15l-4 3m26 43c11-6 16-2 18 7h-9c-3-2-4-5-9-7"/></g><path d="M489 381c-4-2-3-4 0-7-9-2-1-15 4-7h1c2-3 6-6 9-1 1 5-4 5-8 6-1 4 0 9-6 9" fill="#221e1f"/><path d="M489 380c-1-1 2-4 2-4 0-4-2-3-3-5-1-4 4-5 6-1 4-1 4-3 7-4 1 1 0 3-1 3l-7 2c0 2 1 8-4 8" fill="#fff"/></svg>