<svg xmlns="http://www.w3.org/2000/svg" xmlns:xlink="http://www.w3.org/1999/xlink" height="480" width="640" xmlns:v="https://vecta.io/nano"><style><![CDATA[.B{fill:#309e3a}.C{fill:#fff}.D{fill-rule:evenodd}]]></style><path fill="#229e45" d="M0 0h640v480H0z" class="D"/><g transform="matrix(.9811 0 0 .9811 64.633 -11.162)"><g class="D"><path d="M261.72 455.7L569 256.27 259.86 56.3-48.44 256.75 261.72 455.7z" fill="#f8e509"/><path d="M395.615 256.006c0 71.683-58.204 129.793-130.002 129.793s-130.002-58.11-130.002-129.793 58.204-129.793 130.002-129.793 130.002 58.11 130.002 129.793z" fill="#2b49a3"/><g fill="#ffffef"><use xlink:href="#B"/><use xlink:href="#B" x="87.119" y="22.06"/><path d="M272.447 320.564l-3.47-2.003-3.604 1.783.807-4.005-2.784-2.935 3.98-.466 1.87-3.592 1.668 3.716 3.927.713-2.945 2.757zm87.986-12.67l-3.407-1.966-3.54 1.75.792-3.932-2.733-2.882 3.908-.458 1.835-3.527 1.637 3.648 3.856.7-2.892 2.707z"/><use xlink:href="#B" x="47.978" y="-52.23"/><use xlink:href="#B" x="-59.29" y="-92.502"/><use xlink:href="#B" x="-46.39" y="-38.93"/><path d="M310.347 221.52l-3.548-2.048-3.685 1.823.825-4.095-2.846-3 4.07-.477 1.9-3.673 1.705 3.8 4.015.73-3 2.82zM303 256.373l-2.794-1.613-2.902 1.436.65-3.225-2.242-2.364 3.206-.376 1.505-2.893 1.343 2.992 3.162.574-2.372 2.22z"/><use xlink:href="#C"/><path d="M361.177 316.86l-2.185-1.158-2.27 1.03.508-2.316-1.753-1.697 2.507-.27 1.177-2.077 1.05 2.148 2.473.412-1.855 1.594z"/><use xlink:href="#C"/><use xlink:href="#C"/><use xlink:href="#C" x="42.686" y="-0.01"/><use xlink:href="#C" x="37.382" y="14.19"/><use xlink:href="#C" x="126.02" y="-11.66"/><use xlink:href="#C" x="100.01" y="-11.67"/><path d="M187.07 283.783l-1.68-.97-1.745.863.39-1.94-1.348-1.42 1.928-.226.905-1.74.808 1.8 1.902.345-1.426 1.335z"/><use xlink:href="#C" x="200.262" y="23.57"/><path d="M336.212 330.93l-2.22-1.285-2.307 1.144.517-2.57-1.782-1.884 2.548-.3 1.197-2.305 1.068 2.385 2.514.458-1.885 1.77zm10.218-.25l-2.07-1.195-2.15 1.064.48-2.4-1.66-1.752 2.373-.278 1.115-2.144.994 2.217 2.34.426-1.756 1.645z"/><use xlink:href="#D"/><path d="M335.955 345.38l-2.602-1.42-2.703 1.265.605-2.84-2.088-2.082 2.985-.33 1.402-2.548 1.25 2.636 2.945.506-2.2 1.955zm.147 11.66l-2.374-1.42-2.466 1.265.552-2.84-1.904-2.082 2.723-.33 1.28-2.548 1.14 2.636 2.686.506-2.015 1.955z"/><use xlink:href="#D" x="-59.34" y="25.6"/><use xlink:href="#D" x="-77.78" y="25.6"/><use xlink:href="#D" x="-109.09" y="-1.78"/><path d="M270.17 359.102l-1.688-.974-1.753.867.392-1.948-1.354-1.428 1.936-.227.91-1.747.81 1.807 1.9.347-1.433 1.34z"/><use xlink:href="#B" y="-64.904"/></g><path d="M387.05 302.7c1.98-5.18 4.537-12.995 5.894-20.167-69.048-60.656-146.02-91.728-243.28-85.335-3.487 6.686-6.278 13.683-8.63 21.256 115.24-10.994 199.7 40.026 246.02 84.246z" class="C"/></g><path d="M356 268.6l2.467 1.347c-.387.875-.5 1.64-.315 2.292.182.66.636 1.232 1.36 1.722.767.524 1.453.753 2.056.692s1.066-.312 1.36-.748c.186-.28.263-.573.228-.88-.027-.306-.196-.673-.505-1.096-.213-.286-.733-.9-1.558-1.8-1.06-1.183-1.693-2.18-1.898-2.994-.283-1.143-.1-2.182.52-3.12.407-.603.955-1.05 1.644-1.344.7-.294 1.46-.36 2.283-.202s1.697.55 2.6 1.166c1.48 1.005 2.373 2.087 2.68 3.244s.12 2.297-.575 3.4l-2.45-1.5c.307-.678.382-1.263.222-1.756-.15-.495-.56-.97-1.233-1.424-.7-.47-1.328-.695-1.9-.676a1.03 1.03 0 0 0-.873.478c-.2.28-.232.6-.13.96.13.457.68 1.215 1.656 2.277s1.635 1.926 1.988 2.597c.36.67.525 1.366.5 2.088-.024.72-.3 1.455-.793 2.203-.457.68-1.072 1.185-1.846 1.522s-1.6.42-2.484.243c-.878-.18-1.83-.618-2.853-1.315-1.5-1-2.404-2.133-2.738-3.363-.33-1.236-.128-2.57.6-4zm-11.7-7.68l2.52 1.244c-.35.888-.425 1.66-.223 2.302.2.65.684 1.207 1.427 1.667.8.5 1.482.693 2.082.608s1.055-.353 1.33-.8a1.28 1.28 0 0 0 .194-.888c-.04-.306-.223-.666-.55-1.077-.223-.277-.764-.858-1.628-1.746-1.107-1.14-1.778-2.112-2.015-2.915-.33-1.13-.198-2.176.392-3.137a3.69 3.69 0 0 1 1.59-1.407c.7-.322 1.448-.42 2.274-.296.834.13 1.717.483 2.644 1.06 1.52.943 2.455 2 2.806 3.132.358 1.15.213 2.3-.435 3.43l-2.512-1.412c.28-.688.332-1.275.152-1.76-.17-.5-.6-.947-1.287-1.375-.7-.442-1.357-.64-1.937-.597a1.03 1.03 0 0 0-.854.514c-.176.288-.208.606-.092.962.148.452.728 1.188 1.744 2.2s1.712 1.857 2.1 2.513.58 1.344.575 2.066c.007.722-.232 1.465-.702 2.236-.43.693-1.028 1.226-1.785 1.595s-1.586.483-2.474.342c-.88-.144-1.85-.546-2.902-1.198-1.528-.952-2.486-2.035-2.87-3.252s-.234-2.562.447-4.02zm-14.47-3.88l7.417-12.196 9.008 5.52L345 252.43l-6.552-4.017-1.647 2.703 6.1 3.738-1.25 2.054-6.1-3.737-2.017 3.32 6.786 4.16-1.252 2.056-9.238-5.664zm-21.1-17.32l1.1-2.14 5.505 2.85-2.595 5.058c-.805.243-1.816.3-3.04.173a9.52 9.52 0 0 1-3.38-1.005c-1.323-.685-2.334-1.556-3.033-2.62a6.03 6.03 0 0 1-.992-3.538 8.75 8.75 0 0 1 .996-3.773c.677-1.323 1.56-2.354 2.64-3.098s2.3-1.1 3.637-1.1c1.028-.003 2.145.312 3.354.933 1.572.815 2.627 1.78 3.164 2.9.55 1.118.65 2.325.303 3.624l-2.78-.837c.142-.715.058-1.38-.254-1.994-.302-.618-.822-1.116-1.557-1.498-1.118-.58-2.187-.683-3.216-.312-1.02.37-1.887 1.253-2.604 2.65-.776 1.508-1.025 2.812-.745 3.915.283 1.094.963 1.922 2.048 2.484a4.96 4.96 0 0 0 1.763.517c.65.067 1.245.05 1.787-.05l.827-1.612-2.928-1.513zm-91.98-22.82l2.073-14.135 4.252.63 1.144 10.017 3.935-9.27 4.268.63-2.072 14.137-2.64-.4 1.633-11.128-4.428 10.715-2.737-.406-1.156-11.54-1.632 11.126-2.64-.4zm-14.38-1.66L203.7 201l10.506.993-.222 2.407-7.647-.72-.297 3.155 7.113.67-.223 2.398-7.115-.67-.36 3.872 7.913.745-.222 2.4-10.777-1.017z" class="B"/><g transform="matrix(1.397 -.89423 .89074 1.4025 -199.05 128.1)"><path d="M154.8 154.48c.5-.725 1-1.26 1.56-1.605.406-.253.847-.43 1.32-.53s.928-.103 1.356-.016c.57.112 1.145.364 1.724.755 1.048.7 1.666 1.602 1.853 2.676s-.105 2.196-.888 3.354c-.777 1.148-1.698 1.837-2.763 2.064s-2.116-.016-3.16-.723c-1.06-.716-1.68-1.607-1.87-2.673s.103-2.17.87-3.303z" class="B"/><path d="M156.3 155.43c-.545.805-.773 1.543-.683 2.212s.424 1.193.997 1.58 1.18.5 1.824.336c.65-.165 1.252-.66 1.81-1.485.55-.815.783-1.545.696-2.19s-.423-1.163-1.015-1.564-1.207-.52-1.846-.357-1.23.648-1.784 1.467z" fill="#f7ffff"/></g><g transform="matrix(1.383 -.91592 .91234 1.3884 -199.32 133.77)"><path d="M160.44 163.42l4.814-7.115 3.023 2.046c.76.515 1.27.952 1.524 1.314.26.36.384.774.37 1.24a2.47 2.47 0 0 1-.448 1.331c-.36.534-.817.87-1.367 1.006s-1.165.035-1.85-.297c.188.39.3.764.363 1.116s.07.924.04 1.7l-.07 1.975-1.718-1.162.01-2.25-.05-1.555a1.3 1.3 0 0 0-.232-.589c-.115-.157-.337-.348-.668-.57l-.3-.197-2 2.97-1.437-.972z" class="B"/><path d="M164.66 160.3l1.063.72c.69.467 1.14.73 1.35.787s.413.048.606-.03.362-.222.507-.435c.162-.24.228-.476.196-.71-.025-.234-.14-.45-.348-.646-.106-.095-.45-.34-1.032-.734l-1.12-.758-1.22 1.805z" class="C"/></g><g transform="matrix(1.4175 -.86112 .85776 1.4231 -194.72 119.26)"><path d="M172.42 161.16l2.626 1.776c.592.4 1.012.75 1.26 1.052a2.87 2.87 0 0 1 .629 1.381c.086.515.052 1.053-.1 1.615s-.452 1.17-.903 1.836c-.396.586-.81 1.04-1.243 1.367-.53.397-1.065.644-1.613.74-.412.075-.877.036-1.393-.115-.385-.114-.843-.35-1.374-.7l-2.702-1.828 4.813-7.115z" class="B"/><path d="M173.05 163.33l-3.188 4.713 1.073.725c.4.272.706.445.914.52.272.1.532.13.778.095s.53-.177.84-.43.657-.656 1.03-1.206.61-1.006.712-1.366.12-.68.058-.965a1.65 1.65 0 0 0-.438-.784c-.17-.18-.548-.47-1.134-.866l-.645-.437z" class="C"/></g><g transform="matrix(1.5511 -.58458 .58229 1.5572 -164.55 46.058)"><path d="M200.75 190.7l4.813-7.115 2.306 1.56c.873.59 1.42 1.012 1.636 1.263.335.382.52.846.55 1.39s-.14 1.096-.524 1.662c-.295.437-.622.75-.983.94s-.72.288-1.082.294-.68-.052-.97-.168c-.388-.164-.908-.466-1.558-.906l-.936-.634-1.816 2.684-1.437-.972z" class="B"/><path d="M206.2 185.75l-1.366 2.02.786.532c.567.383.97.602 1.21.656a1.12 1.12 0 0 0 .683-.047c.217-.084.397-.23.54-.442.175-.26.244-.523.206-.794a1.2 1.2 0 0 0-.364-.706c-.15-.15-.483-.398-1-.748l-.694-.47z" class="C"/></g><g transform="matrix(1.6028 -.42116 .41952 1.6091 -143.19 2.8883)"><path d="M207.4 195.18l4.813-7.114 3.024 2.046c.76.514 1.27.952 1.524 1.313.26.36.384.774.37 1.24s-.163.91-.448 1.33c-.36.534-.817.87-1.367 1.006s-1.165.035-1.85-.296c.188.39.3.763.363 1.115s.07.925.04 1.7l-.07 1.976-1.718-1.162.01-2.25-.05-1.556c-.038-.237-.115-.433-.232-.588s-.337-.348-.668-.572l-.3-.197-2 2.97-1.437-.973z" class="B"/><path d="M211.6 192.05l1.063.72c.69.466 1.138.728 1.35.785s.413.05.607-.028.362-.222.506-.435c.162-.24.228-.476.197-.71-.025-.234-.142-.45-.348-.646-.106-.095-.45-.34-1.032-.733l-1.12-.76-1.22 1.806z" class="C"/></g><g transform="matrix(1.5864 -.47997 .47809 1.5926 -149.72 20.414)"><path d="M216.64 196.32c.49-.725 1.01-1.26 1.56-1.605a4.06 4.06 0 0 1 1.321-.529 3.37 3.37 0 0 1 1.355-.017c.57.112 1.145.364 1.724.756 1.05.71 1.666 1.6 1.854 2.676s-.105 2.195-.89 3.353c-.777 1.15-1.698 1.837-2.762 2.065s-2.116-.017-3.16-.724c-1.058-.715-1.68-1.606-1.87-2.672s.103-2.17.87-3.303z" class="B"/><path d="M218.16 197.28c-.545.805-.773 1.542-.683 2.212a2.2 2.2 0 0 0 .997 1.58c.573.387 1.18.5 1.824.335s1.253-.66 1.81-1.484c.552-.816.784-1.545.696-2.2s-.423-1.163-1.015-1.563-1.207-.52-1.845-.357-1.23.648-1.785 1.467z" class="C"/></g><g transform="matrix(1.6454 -.19485 .19409 1.6519 -103.71 -53.916)"><path d="M230.03 210.5l4.813-7.115 3.024 2.046c.76.515 1.268.952 1.524 1.314a1.96 1.96 0 0 1 .37 1.241c-.014.467-.164.9-.448 1.33-.36.534-.817.87-1.368 1.006s-1.164.035-1.85-.297c.188.39.31.764.363 1.116s.07.924.04 1.7l-.07 1.975-1.717-1.162.008-2.25-.05-1.556c-.037-.237-.115-.434-.232-.59s-.337-.348-.667-.57l-.29-.197-2.01 2.97-1.437-.972z" class="B"/><path d="M234.24 207.36l1.063.72c.69.467 1.14.728 1.35.786a.94.94 0 0 0 .607-.028c.193-.077.36-.222.506-.436.162-.24.227-.475.197-.708s-.142-.45-.348-.646c-.106-.095-.45-.34-1.033-.734l-1.12-.758-1.222 1.805z" class="C"/></g><path d="M368.438 275.065c.812-1.206 1.673-2.096 2.585-2.67a6.74 6.74 0 0 1 2.187-.88c.8-.16 1.538-.17 2.245-.028.946.188 1.9.607 2.858 1.26 1.736 1.18 2.76 2.663 3.072 4.45s-.176 3.65-1.475 5.577c-1.287 1.91-2.812 3.055-4.574 3.435-1.76.373-3.506-.028-5.24-1.204-1.75-1.19-2.785-2.673-3.098-4.446-.3-1.78.17-3.61 1.44-5.494z" class="B"/><path d="M370.956 276.645c-.903 1.34-1.28 2.566-1.133 3.68.154 1.108.704 1.983 1.652 2.628s1.957.83 3.024.56c1.075-.274 2.076-1.096 3-2.47.913-1.356 1.297-2.57 1.15-3.64s-.7-1.934-1.682-2.6-2-.865-3.057-.594c-1.054.264-2.038 1.08-2.956 2.44z" class="C"/><path d="M241.76 219.84l2.292-10.03 7.408 1.708-.385 1.695-5.39-1.24-.513 2.224 5.02 1.157-.39 1.688-5.013-1.154-.626 2.728 5.58 1.286-.385 1.69-7.6-1.75z" class="B"/></g><defs ><path id="B" d="M222.878 333.744l-4.016-2.318-4.172 2.064.934-4.636-3.222-3.398 4.608-.54 2.164-4.158 1.93 4.3 4.546.826-3.41 3.19z"/><path id="C" d="M157.61 304.52l-2.68-1.548-2.785 1.378.624-3.095-2.15-2.268 3.076-.36 1.445-2.776 1.29 2.872 3.035.55-2.276 2.13z"/><path id="D" d="M375.77 305.077l-1.993-1.15-2.07 1.024.463-2.3-1.6-1.686 2.286-.268 1.073-2.063.958 2.134 2.255.4-1.69 1.583z"/></defs></svg>