<svg xmlns="http://www.w3.org/2000/svg" height="480" width="640" xmlns:v="https://vecta.io/nano"><style><![CDATA[.B{stroke-width:.993}.C{fill:none}.D{fill-rule:evenodd}.E{fill:#fff}.F{stroke-linecap:round}.G{stroke-linejoin:round}.H{fill-opacity:.3}]]></style><g class="D"><path d="M0 0v480L640 0H0z" fill="#ffca00"/><path d="M0 480h640V0L0 480z" fill="#ff6500"/></g><g stroke="#000" class="B"><g class="D E G"><path d="M222.393 340.58s-18.31-.63-25.887 8.628-36.75 35.225-39.146 37.045c-1.086.73-24.416 5.47-24.416 5.47 11.455-11.434 24.267-15.61 34.777-35.636-5.245 10.048-9.256 14.446-15.39 19.972-5.333-2.482-19.168 8.28-30.75 13.35.2-.42 12.702-10.52 19.474-23.407-3.86 3.367-12.67 11.834-16.528 15.2-9.175.874-13.332 11.04-16.838 12.416-21.492 6.986-15.125 2.73-19.995 7.367-1.965 3.844-6.16 6.91-8.72 7.163-20.165 1.995-20.747 8.618-31.058 12.41-6.59 1.926-10.774.064-14.522-2.527 5.05-1.823 11.34-1.388 15.154-5.47 0 0 18.468-22.003 35.358-24.414 9.682-1.685 11.155-7.367 11.155-7.367s-28.624 7.998-33.463 12.207c-4.55 1.295-12.3 2.413-19.153 1.685 12.663-4.66 20.5-11.063 23.993-14.944 2.002-2.223 13.89-2.315 13.89-2.315l20.416-8.63c.42 0 15.154-8.628 15.154-8.628l-18.1 4.63c-.42 0-20.65.84-20.65.63 5.39-6.898 24.81-7.378 27.596-9.05 6.503-6.504 26.73-4 27.572-4.843s-21.257-7.576-30.518-5.682-23.362-9.68-23.362-9.68 19.363-2.948 25.677-.212 29.045 8.63 30.308 7.576 26.193-9.892 29.045-6.734c-2.456-5.25-5.555-5.1-5.473-9.682l13.892.633s7.155-9.473 6.943-9.892c-6.496-2.382-7.963-8.97-7.963-8.97 8.326 1.388 11.12.34 11.12.55s7.367-8.2 7.367-8.2l5.052-7.998 3.788-17.26c-7.653 4.138-22.31-.21-22.1-.42 15.932-5.587 20.75-13.683 28-14.1-3.102-15.725 6.104-21.047 6.104-20.835s6.315-13.683 6.315-13.683-6.747-2.27-19.365 0c11.958-14.193 30.94-9.05 30.94-9.05 3.915-12.585 15.995-7.998 15.995-8.42-3.076-6.853 6.154-10.33 12.15-10.124-.86-5.107-6.334-10.5-8.437-14.78 10.03 6.447 20.478 3.944 25.752 13.327l9.47 1.052 10.734 1.894c.21 0 10.943 1.052 10.943 1.052 1.884-5.334-4.763-4.654-3.158-17.68 12.82 6.37 11.937 19.03 22.1 26.238 8.01-.552 10.43 2.253 14.385 5.896 4.615-.98 10.252 1.068 13.187 5.75-.14-4.964 1.287-11.967 7.58-3.158l11.574-.42s-15.206-22.152-28.624-9.68c3.923-13.538 17.68-12.207 17.68-12.207s-3.576-6.197-3.367-13.05c-7.343-2.937-9.682-15.364-9.892-15.154s-12.51 2.437-18.1 17.048c-10.488-11.4 3.722-25.555 4.56-28.073l4.334-16.177c-1.134-5.312-.694-7.948 4.156-12.158-3.235-3.35-1.746-6.54 2.103-8.63-1.3-2.3-.238-4.58.352-6.87l51.42-2.94 11.582 15.913 1.894 8.63-4.42 11.365 13.26 15.785 4.84 5.05 10.1 5.893 9.682 4.21c.212.2 11.365 2.947 11.786 3.157s9.26 5.262 10.734 5.683 28.624 0 28.624 0l15.156-1.263-.212 24.835-7.998 1.894c-3.446 2.962-4.445 4.693-10.34 8.885-8.162 2.286-14.075 1.85-14.284 1.85s-8.2-2.106-8.42-2.315-9.052-2.947-9.052-2.947l-13.89-3.368c-5.714-.898-7.998 2.947-8.42 3.578s-2.737 27.993-2.737 27.993l-4.843 12.628c0 .21-4.488 8.3-7.998 11.155-.652 3.346-1.176 6.914-9.26 12.838-1.714 5.354-.326 10.514 5.47 11.577l8.42 3.367 12.628 2.946 13.892 2.948-9.892 21.678-24.414-4-16.416-4.21c-.212 0-17.892-9.47-17.892-9.47l-5.682-13.05c0-.21-5.052-10.734-4.84-11.365s.21-6.734.21-6.946-17.047-3.576-17.047-3.576l-17.89-1.894-19.574-5.264-14.944-4.42-9.682-3.367-10.734-.842s-14.1 2.103-14.1 2.315-12.416 3.576-12.416 3.788-7.998 18.732-7.998 18.732l-3.788 14.3 5.892 10.946 2.106 30.518-5.473 11.365 3.788 8.42 7.576 12.42 4.42 8.628-27.58 8.742-3.57-14.215-9.26-23.572c.21-.21.42-7.788.42-7.998z"/><path d="M250.288 307c5.733 1.72 5.84-9.547 10.414-13.746 3.632-15.193 23.278-14.663 29.506-4.47-20.83-1.568-12.814 10.135-19.222 15.2 16.385-7.74 31.47-6.395 34.87 4.47l-19.325 36.7c-10.493 5.24-15.22-1.93-26.724-8.522l-8.045-1.343c-.297-9.1-1.174-19.187-1.473-28.28zm12.812 70.456s28.027-.877 28.128 12.612c2.562 7.75 10.68 7.155-1.75 27.625.498-26.33-16.4-26.97-28.234-26.36 14.774 2.07 17.405 24.18 10.925 32.63-16.734-.6-30.732-4.233-47.467-4.832-5.847-6.46-12.758-21.574 9.786-32.285l28.613-9.388zm187.62-74.652l8.045-3.13s24.732-30.04 43.813-13.412c-13.097 1.97-23.768 17.786-23.768 17.786 7.1-5.288 33.77-3.62 30.9 19.8-28.555 8.453-29.36 23.43-27.696 41.257-19.007-.32-39.978-10.157-40.857-40.7 2.533-7.3 7.03-14.302 9.563-21.603zm102.308-127.22c0 10.345-8.387 18.732-18.732 18.732s-18.732-8.387-18.732-18.732 8.387-18.732 18.732-18.732 18.732 8.387 18.732 18.732z"/><path d="M508.125 209.678c6.896 5.317 15.105 7.26 30.25 9.013 7.976-4.684 22.7-4.493 23.834-14.896 7.953-2.84 9.72-12.427 3.142-15.078-.28-2.813.167-13.73-12.06-13.982 1.642 4.06 3.107 15.2 3.107 15.2-6.374-.75-10.73 10.283-10.73 9.836 0-.223 3.513-17.49-13.505-18.015 5.855 9.788-1.695 17.57-1.695 17.57-1.79-2.235-1.8-6.158-5.086-7.362-8.45-3.557-10.06-13.864-9.698-19.4-4.432 3.743-7.735 7.485-7.57 12.446.066 8.158-.334 16.034.013 24.66z"/></g><path d="M533 110.03c14.414-2.008 27.32-5.773 35.816-12.097 2.742-2.04 25.88 1.828 37.792-5.287-18.056-1.04-30.017-3.608-33.233-2.544-10.114 2.952-33.675 9.496-35.522 8.663-.162 1.67-3.028 8.942-4.853 11.264z" class="D E"/><g class="G D E"><path d="M537.9 98.633c10.3-2.413 12.67-7.418 18.76-11.073 9.322-3.73 14.5-3.865 23.797-13.474-24.173 3.293-26.886 4.142-26.886 4.142-5.012 3.05-11.9 7.73-17.336 14.837 1.642 1.747 1.544 3.548 1.664 5.568z"/><path d="M536.18 93c0-.1 9.433-10.586 9.516-15.073.413-1.507 4.816-3.995 6.472-9.9 1.076-16.077 2.57-16.43 2.57-16.43 7.574-4.254 5.96-13.476 9.478-20.38L546.9 50.447c-1.656 3.576-2.1 12.745-2.2 12.745-1.754 4.14-6.28 4.68-9.757 11.55-1.958 5.212-.326 9.983-3.277 16.767 2.013.036 3.1.53 4.514 1.5zm-20.808 247.4a25.26 25.26 0 0 1-25.256 25.256 25.26 25.26 0 0 1-25.256-25.256 25.26 25.26 0 0 1 25.256-25.256c13.948 0 25.256 11.308 25.256 25.256zM270.8 425.804c0 12.67-10.27 22.94-22.94 22.94s-22.94-10.27-22.94-22.94 10.27-22.94 22.94-22.94 22.94 10.27 22.94 22.94zm41.46-100.164c0 10.926-8.858 19.784-19.784 19.784s-19.784-8.858-19.784-19.784 8.858-19.784 19.784-19.784 19.784 8.858 19.784 19.784zm-90.35 22.994c-7.158.42-14.443 2.903-14.23 3.115s7.788 4.2 6.734 5.473S203.177 369.8 203.8 369.8c7.632 2.2 17.74-2.477 17.74-2.477s-4.125 6.64-4.808 8.678c6.803-3.664 13.185 1.123 14.732-2.54l-9.584-24.827zM372.094 282.9c-4.326 2.665-18.875-.33-18.875-.33 4.286 4.44 7.002 7.608 16.888 8.6-7.063 3.203-11.66 7.75-19.924 10.498 12.925 5.53 21.58-3.544 21.58-3.213s2.5 5.918.543 13.876c5.113-1.346 6.315-6.562 10.138-5.47l-10.35-23.97zm81.063-66.7c-.366 2.4-.832 6.703-10.684 11.7 6.445 2.797 17.22-3.3 17.22-2.98s-8.758 15.603 6.292 22.186c-.4-11.786 1.656-21.193 1.656-21.193s5.534 7.6 9.603 16.557c6.5-6.988-2.318-20.2-2.318-20.2-7.176-1.656-14.838-4.406-21.768-6.062zm9.27-69.234s19.484 13.242 19.57 15.013-1.772 9.1-8.096 12.398c15.18 1.77 16.782-7.76 16.782-7.76s-3.12 10.796-.6 14c8.35-5.145 8.098-13.326 8.098-13.326s5.566 8.434 4.302 13c1.77-.928 11.386-10.965 2.697-15.856 2.024-6.58 2.784-10.712-4.554-13.664-.787-3.964 1.293-5.23 1.94-7.844 0 0-7.253-2.193-8.096 4.048-.676 1.265-23.317-13.3-23.57-13.394-.077.383-8.482 13.48-8.482 13.394z"/><path d="M467.647 139s18.043 9.58 19.225 11.857" class="F H"/><path d="M530.722 91.472c-2.392 0-11.92-2.98-18.213 1.656-2.874-4.618-5.96-8.237-15.073-6.292.082-4.126-1.552-3.595-3.733-4.892-2.297-5.005-5.974-7.22-13.08-4.05-6.188-6.366-16.19-6.645-23.21-1.72-10.615-3.15-24.666.523-50.953.23-1.817-.057-10.885 3.195-5.213 10.763-10.917-6.75-15.492 5.665-4.636 7.616 2.65 2.65 5.63 8.278 5.63 8.278s-18.978-13.57-29.405 1.606c-3.38 15.35 12.912 4.36 21.015 10.15l14.35 13.08c8.06-1.656 14.944-1.706 23-2.127-7.285 2.097-13.396 1.355-20.682 3.452 1.754 2.413 4.678 3.222 11 2.98l-13.447 4.698c8.236 6.372 18.63 2.187 26.56 3.31-5.028 7.534-15.365 15.5-28.417 11.86 5.62 8.95 16.793 7.806 28.18-3.805 9.534 1.66 15.714 2.83 27.892-1.3.588-.77 9.555-14.116 9.174-15.258 1.632.5 26.31 9.33 27.802 12.075.188-3.403 4.914-6.903-23.842-14.9-5.42-4.41 13.908-9.934 13.908-9.934l-.33 7.947c5.44-3.318 5.727-4.645 6.954-6.623 1.987-1.325 6.292 2.65 6.292 2.65l.24 7.003c2.395-.87 3.733-1.043 5.388-3.36s4.832 2.768 4.832 2.768c4.95.5 13.312-1.848 17.468-8.766-1.88-7.027-.988-8.985 2.752-10.388 6.135-9.997 7.542-18.66-2.204-18.713z"/><path d="M494.456 147.146s-3.04 3.795-2.448 11.133" class="F H"/><path d="M406.638 139.705s7.778 11.853 10.432 12.593 20.99 19.384 21.977 20.187c1.174.494 11.42.247 11.42.247-7.53-6.502-13.828-13.375-20.742-20.063l-10.68-5.37c-.06-.123-5.68-7.655-5.68-7.655-1.79-.576-3.703-1.46-5.37-2.84l-1.36 2.902z"/><path d="M481.98 162.074c3.457-.843 8.265 2.024 8.602 4.47 1.857-1.096 6-1.096 7.508.337.676-1.012 3.7-3.7 6.832-2.53m-10.36-17.205s2.527 2.024 5.902 1.012" class="F H"/><path d="M535.808 156.746c4.186-.598 38.452-20.62 46.815 4.68-2.888-21.416-18.626-21.017-18.626-21.017s-.697-10.26-15.14-8.566c9.465 6.972 1.494 12.55.797 13.547-2.458-6.607-3.52-10.027-11.057-12.95 3.023 11.62-3.32 13.18-4.98 18.726-3.35-2.39-5.9-6.773-7.868-10.06-2.657 7.703-.33 12.318 2.69 16.336a24.26 24.26 0 0 1 7.37-.697z"/><path d="M530.245 120.66c1.32 2.417 6.88 9.362-2.877 22.604-3.078-4.283-4.734-6.914-4.734-6.914s-8.316 5.41-7.367 23.983c-3.113-7.46-7.735-16.866 1.857-30.997-6.925 11.145-9.18 12.38-14.477 12.223 8.112-5.785 9.89-12.046 10.045-12.046 1.48.497 10.633.024 17.553-8.855z"/></g><g class="F D E"><path d="M524.02 90.52c1.82 6.788-3.182 11.494-7.028 15.12 8.35 16.367-18.454 15.05-8.787-.22"/><path d="M497.873 107.838s-1.976 2.526-.328 6.042M486.5 108c2.395.6 4.387 3.686.517 6.008-1.55.92-9.327-2.7-13.344 4.902" class="H"/><path d="M413.314 92.784c-3.144-.258-4.7 1.34-.927 5M416.308 82c-3.66-1.598-5.36 2.217-.98 5.258m11.496-4.938c-3.195-2.886-5.98 2.32-.874 4.278m16.796-4.278c-3.348-2.835-4.485 1.3-3.452 2.68"/></g><path d="M462.508 125.58c0 8.596-6.968 15.563-15.563 15.563s-15.563-6.968-15.563-15.563 6.968-15.563 15.563-15.563 15.563 6.968 15.563 15.563z" class="D E H"/><g class="G D E H"><path d="M461.607 130.684c-.424-.9-9.987-10.366-13.007-9.078-2.472.107-10.035 16.605-9.704 17.267 7.828 5.52 19.895.65 22.703-8.187z"/><path d="M456.52 125.7c-1.18-.763-2.082-1.458-3.123.07s-6.73 15.34-6.73 15.34m27.576-46.612c-10.4-5.83-29.733 2.813-16.9 8.85-10.967-3.332-10.482 6.108-10.482 6.108m5.067-24.736c4.127-6.13 9.826-8.228 13.555-.544 4.967 6.623 14.305 1.67 14.305 1.67" class="F"/></g><path d="M423.593 89.817s-4.636 2.152-.328 5.464m23.852-8.278s-4.472.662-2.983 5.464" class="D E F"/><path d="M442.136 95.28c-.164 0-4.636.166-3.144 4.967m-1.995 3.146c-.167.166-5.63-2.318-2.816 4.636" class="D E F H"/><path d="M457.607 76.237c-19.42-11.836-40-35.675-68.267-26.6 28.674 5.085 46.18 21.005 46.762 25.923 10.586-.833 13.502-.583 21.505.667zm-28.267-.497c-2.583-3.168-12.337-20.755-32.173-20.42 15.17 7.752 24.255 18.338 25.1 21.005 2.832-.167 4.832-.417 7.084-.583z" class="G D E"/><path d="M412.334 76.49s2.252-16.504 5.502-18.504-10.835-4.5-10.668 10.002c-11.84-9.67-23.005-8.002-24.84-7.335s-27.84-.584-30.923 5.25c19.172-.417 24.67.833 26.422 2.75 11.754-3 18.422-1.25 26.258 8.085 3.584-.667 8.25 0 8.25-.25z" class="D E"/><path d="M393.843 85.157c-4.75-4.668-8.702-7.57-22.962-8.764-2.082-.265-7.574-1.425-10.962-2.572 9.068-6.28 36.592 2.584 39.676 6.668-.917 2.834.2 4.73 1.7 6.564-2.543-1.52-4.776-2.134-7.452-1.897z" class="D E G"/><path d="M403.67 77.008s-7.1-6.5-12.562-6.4c3.168 1.912 6.774 7.374 8.957 9.34 1.53-1.748 1.147-1.638 3.605-2.95z" class="D E"/><path d="M389.234 70.944c-.273.1-11.96 7.32 1.203 16.932-.874 6.172 6.443 7.046 6.443 7.046l5.4 8.138c-11.624-7.736-21.426-5.854-25.04-2.685-7.047-10.323-18.983-12.007-23.352-13.263-5.462-1.202-20.594-2.458-21.63 11.25-14.53-14.256 8.467-20.373 12.398-19.936 3.93-.7 25.998 3.55 27.418 6.336-1.256-13.054 10.596-20 17.15-13.82zm43.498 47.5s-38.783-7.228-51.432 1.4-14.316 21.407-32.666 23.353-20.295 5.42-27.106 14.874c10.15-3.197 32.112-10.147 47.263-7.1 6.255-7.012 9.73-10.286 9.174-10.425 4.726-15.57 37.67-21.546 53.24-15.986.278-3.892 1.947-5.7 1.53-6.117zm-58.652-5.84l-57.968 1.668c-5.282 1.668-11.675 5.977-12.65 7.228s2.503-13.622 10.15-12.928c9.868.973 36.836-.14 36.836-.14 8.202-3.058 17.1-6.117 22.52-4.03-1.947 4.865 1.113 8.202 1.113 8.202z" class="G D E"/><path d="M479.833 95.626s-16.024-4.872-11.82 11.567c6.453 8.193 15.73-3.963 15.6-5.19" class="D E F H"/><path d="M436.15 114.19c-3.54-5.8-25.654-13.663-33.225-11.01 12.14 5.7 29.5 11.45 30.52 14.597 1.425-2.556 2.607-3.538 2.705-3.588z" class="D E G H"/><path d="M510.642 94.11s-13.367 3.652-18.334.672-17.285-7.394-11.852-16.91" class="D E F H"/><path d="M375.194 97.992s-33.916-.84-39.522 9.32c22.072-5.116 38.33-4.415 38.33-4.415l3.084-2.803-1.89-2.102z" class="D E G"/><g class="F D E"><path d="M437.05 90.084s-7.84.238-4.037 5.702"/><path d="M508.284 191.48s11.343-.375 12.657-1.875m35.424.467s4.78 3.375 9-1.406m-30.935 2.156s3.187 6 11.343 3.375m-29.515 9.375s-2.437 6.093 9.563 5.53c3.094 1.875.935 7.875.935 7.875m5.53-42s6.75-.375 7.968 2.625m-5.45-11.155s2.252.188 3 2.906 3.468 1.312 5.062.094" class="G"/></g><path d="M503.754 340.236c-5.892-5.6-18.58-5.74-12.538 8.16 2.114-6.347 6.043-8.763 12.538-8.16z" class="D E G"/><g class="F G"><path d="M501.344 348.528c-1.66-1.208-2.57 1.208-2.117 1.66m6.33-42.456s-9.065-1.057-5.44 9.518m-21.45-33.35s-1.2 10.726 7.25 11.934m-19.62 54.204c0-.15-7.855-3.476-10.273 7.25m2.857-57.388s0 9.063 4.08 12.387m-7.393 10.12c-.15 0-13.142 5.137-13.142 11.934m-196.72 92.255c0-.15 8.35-8.806 10.173.9-.154 3.643-1.976 7.137-1.976 7.137m-.78-5.928s-4.707-.305-5.314 2.58m25.818-28.7c0-.15-10.63-3.34-12.15 4.858m-42.5.784s8.806-5.163 13.664.456m58.7-18.337c0-.15-8.146-.056-9.36 5.4" class="D E"/><path d="M409.34 155.946c-.967.955-.837 1.008-1.836 1.243-.97.358-1.926.41-3.068.41-.784-.26-1.682-.864-2.453-1.636a7.77 7.77 0 0 1-1.431-2.453c0-.63-.268-1.556-.43-1.935l1.248 2.344 1.02 3.476a17.7 17.7 0 0 1 .411 3.884c-.207 1.564-.628 2.95-1.227 3.884-.845.45-1.317.682-2.453.818-1.232 0-1.627-.215-2.66-.614l-2.042-2.453c-.297-1.148-.546-2.065-.615-3.27-.498-.717-.734-1.35-1.227-2.045-.223-.82-.593-1.226-.82-2.044-.254-.64-.82-1.307-1.097-1.896" class="C"/><path d="M261.415 391.284s-5.923 4.678-4.935 8.73m37.068-79.408s-9.52 2.3-4.76 10.676m4.628-6.332s-2.02 6.78 1.298 9.232m4.026-8.807c.146.434-1.298 7.213-3.317 8.37m-7.49-34.49s-.432 5.77 2.164 6.782m-19.49-23.948s-2.307 6.782 6.347 9.1m-22.214 13.27c0 .3 2.307 10.962 6.925 10.673m10.955 10.387s-11.828-6.636-12.983 10.82" class="D E"/></g><path d="M477.396 96.993c1.158-1.097 5.182-2.408 6.278 3.656s-7.07 5.347-7.134 4.38c-2.193-.903-2.305-5.648.856-8.035zm17.22-13.97s-10.485-1.28-9.516 7.495c6.127 5.42 10.787.06 11.818-2.907.514-2.13.344-3.943-2.302-4.588z" class="D"/><g class="G"><g class="C"><path d="M350.37 113.367s1.26 9.447-6.297 7.243 11.65 4.724-3.15 7.558c-3.07 4.3-2.52 5.04-2.52 5.04s8.07-.814 3.052 9.806c-1.89 5.67 2.837-12.398 17.97-3.17-6.927-6.763-1.942-6.673 7.635-6.32-13.283-2.17-12.596-14.487 6.927-8.503-.026-1.836-3.603-7.32 2.835-10.392 12.596-3.464-26.14-.63-26.454-1.26z"/><path d="M347.325 120.997c2.05.978 10.165 16.423 15.736-7.918-2.442-.587-12.6.293-12.6.293.228 3.715-.424 6.158-3.126 7.625zm-2.73 6.257l-1.515 4.142c0 .78.003 1.624.138 2.2.106.966.416 1.66.827 2.485.392.554.453.694 1.105.828.527.303 2.747.3 3.452.414h2.347c1.105 0 2.082.01 3.04-.414.678-.194 1.22-.378 1.518-.966.676-.337.657-.676 1.105-1.38l.83-1.52c.318-.5.413-.6.413-1.243.196-.4.14-1.192.14-1.795-.026-.87-.143-1.666-.278-2.485-.132-.443-.344-.725-.7-.552-1.412.556-2.962-.552-4.56-.552-1.523-.23-2.352-.623-3.865-.828-.63 0-3.566.928-4.005 1.657zm146.3 59.17h.204c-.6 0-.262-.035.82.613l2.042.818c.37.542.776 1.163 1.23 1.636l.816 2.25c0 .944.1 1.625-.408 2.044-.37.94-.932 1.03-1.43 1.636-.736.246-1.314.582-2.25 1.022-.988.266-1.407.585-2.453.818-1.1.492-1.807.58-3.068.613-.75 0-3.796-.168-4.546-.168l4.954-.24c1.123 0 1.756.118 2.453.613l2.25.818c.56.223 1.672.323 2.25.613.326.544.943.832.615 1.43-.43.52-1.24.812-2.045 1.022-.535.365-4.6 1.07-5.13 1.434-1.93.165 3.873-.46 4.517-.616 1.17-.014 1.9-.15 2.86 0 .872.13 1.664.522 2.453.818.522.694 1.14 1.03 1.634 1.84.628.517.805.865.82 2.045-.257.513.223 1.962.154 2.734l-.898 2.7m-24.4-26.29h.204c-.554 0-.27-.013.82.205.7.483 1.9.668 3.065 1.022.652.3 1.258.664 1.84 1.022.6.3 1.378.844 1.838 1.43.837.278 1.012.78 1.637 1.227.217.986.485 1.508.612 2.453-.082 1.1-.448 1.304-.816 2.044-.6.408-.97.944-1.84 1.227-.813.326-1.84.594-3.068.818l-5.1.818c-.842 0-1.05.18-1.84.205 1.025.012 2.382.1 3.068.4 1.28.013 2.737.113 3.68.4l5.52.613c.376.6.68.935.82 1.84-.495.363-.84 1.042-1.227 1.43-.612.375-1.22.764-2.25 1.022-1.13.403-2.4.4-3.68.4H471.1c-.2-.08-1.634-.205-.82-.205.848.392 2.54.8 3.68 1.022.78.228 1.224.647 1.637 1.227.495.374 1.248 1.06 1.634 1.43.32.534.4.872.4 1.84-.098 1.253-.506 1.268-1.433 2.044-.988.647-1.762.78-2.86 1.022h-3.068c-.82-.22-5.558-3.004-6.164-3.188.84.298 5.36 3.303 5.756 4.2.215.647.204 1.715.204 2.658-.037.993-.16 1.7-.612 2.248-.042.795-.257.615-1.023.615l1.023-.615c-.042.795-.257.615-1.023.615"/><path d="M484.575 202.78h1.023c.673.457.668 1.033 1.637 1.227.742.283 1.483.678 2.042 1.022.3.503.4.726.4 1.636 0 1 .23 2.356-.204 2.862-.355.415-1.642.403-2.25.614-.877.304-1.627.765-2.38.913-.95.187-2.5.087-3.142.518-.914.07-1.57.204-2.657.204-.63 0-1.052-.042-1.43-.204.92.32 2.408.688 3.473 1.227.975.275 1.507.7 2.25 1.227.797.6 1.26.9 1.433 1.84.408.6.408 1.382.408 2.452-.225.676-.374 1.65-.615 2.25-.445.66-.98.784-1.634 1.227-.477.053-.342.154-.82.207m-15.743-35.578c.34.14 1.383.65 2.045 1.022 1.203.3 1.992.785 2.86 1.022.453.56.983.8 1.227 1.636.7.926.882 1.412 1.023 2.453-.087 1.143-.27 1.375-1.227 1.636-.713.238-1.53.375-2.453.4l-2.453.4c-.578.3-1.764.205-2.657.205l-3.354.26 4.17.148c1.248.133 2.477.2 3.068.818.9.34 1.4 1.073 2.25 1.43.405.6.88.944 1.227 1.636-.283.795-.73 1.06-1.637 1.227-.578.3-1.762.205-2.657.205-.623-.312-1.9-.205-2.86-.205h-2.25c.842.3 2.2.617 3.272.818.755.432 1.926.792 2.453 1.227.33.512.877.794 1.227 1.43.458.37.548 1.06.204 1.636-.085 1.018-.37 1.528-.82 2.044l-2.25 1.43c-1.444.627-2.816.805-4.498.818-1.1 0-1.653-.167-2.657-.205-.9-.314-2.064-.44-2.86-.613-.874-.238-2.053-2.084-3.203-2.127.784.1 1.717 1.972 1.976 2.535.3.578.204 1.764.204 2.658-.32.548-.395 1.6-.615 2.25-.04.7-.114 1.653-.408 2.044l.408-2.044c-.04.7-.114 1.653-.408 2.044"/><path d="M454.958 181.332c0 .08.7.455 1.19 1.003l1.43 2.25c.323.93.612 1.373.82 2.25.38.626.548 1.606.615 2.453-.037.954-.12 1.808-.615 2.453-.24.828-.652 1.155-1.43 1.43-.678.32-1.327.41-2.453.41-.75 0-2.397-.112-3.147-.112l4.782.112c1.423.1 2.366.21 3.068.818.893.252 1.61.7 2.045 1.227.694.512 1.35.633 1.634 1.43.215.647.204 1.715.204 2.658-.106 1.172-.442 1.198-1.43 1.43h-2.86c-.63-.2-1.807-.307-2.66-.41-.694-.094-1.48-.713-2.082-.913.535.508.434 1.7.448 2.753.156.723.204 1.667.204 2.658-.085 1.1-.347 1.382-1.023 1.84-1.086.237-2.686.205-4.088.205l-3.272-.205c-1.417 0-2.678-.157-3.987-.307.498.33.487 1.078.51 1.943.368.614.085 1.33 0 2.045-.07.888-.236 1.488-.615 2.044-.204 0-.352 1.12-.556 1.12"/><path d="M445.103 178.657c0 .068-.053-.043 1.023.818.623.5.932 1.127 1.43 1.84l.612 2.25c0 1.2-.143 1.667-.612 2.453-.78.52-1.717.928-2.86 1.022-.678.226-1.632.345-2.456.4-.583.194-.5.313-1.32.4 1.3-.046 1.375-.205 2.752-.205.893 0 2.08-.085 2.657.205.917.124 1.576.252 2.045.818.842.23 1.208.6 1.634 1.227.628.426.996.8 1.227 1.636 0 1.112-.125 1.74-.408 2.453-.358.7-.694 1.125-1.43 1.636-.527.455-1.3.566-2.045.818h-2.864c-.752 0 2.464.077 3.886.205.84.154 1.364.496 2.042.818.6.408 1.383.467 1.84 1.022.747.265 1.097.806 1.84 1.227.177.414.093.3.408.205m-17.85-24.77c1.004.496 1.555 2.255 1.7 3.297.283 1.036-.082 1.798-.408 2.862-1 .914-1.105 1.208-2.453 1.43-1.16.347-2.424.262-3.476.614l-2.25.818h-2.864c-.882.52.705.08 1.023 0l4.702-.205h5.93c1.046.158 1.197.515 1.637 1.43.434.527.575 1.424.612 2.453-.042 1.174-.23 1.52-.816 2.453-.588.728-1.1 1.046-1.84 1.636-.956.4-2.363.665-3.68.818-1.574 0-3.264-.092-4.702.204-1.086 0-5.423.3-5.044.67.715-.573 3.897-.465 5.044-.465 1.56-.32 2.948-.587 4.498-.613.978-.3 2.167-.396 3.27-.4 1.076.013 1.905.16 2.456.614.633.527 1.446 1.16 1.838 1.636.784.278 1.017.805 1.634 1.227.183.837.397 1.376.4 2.453-.254.718-.48 1.467-.82 2.044-.948.678-1.968 1.422-3.272 1.84-1.13.44-2.058.573-3.27.613-1.044 0-1.844.094-2.66.205l-7.63.112c1.844-.336 7.833-.112 9.063-.112 1.34 0 2.567.162 3.884.205.65.308 1.35.556 1.838 1.022.7.277 1.282 1.47 1.295 2.7"/><path d="M427.328 170.275l1.227 2.658c.22.886.204 1.862.204 2.862 0 1.28-.29 1.83-.82 2.862-1.115.748-1.98 1.47-3.272 1.84-1.08.193-1.966.127-3.065 0-.726-.3-1.33-.535-1.84-1.022-.776 0 .45.17.82.205.612.417 1.526.66 2.453 1.022 1.176.476 1.62.85 2.453 1.84.747.603.938.728 1.023 1.84.52.585.448 1.382.204 2.045-.63.42-1.31 1.098-1.838 1.636-.922.385-1.256.6-2.453.613-1.113-.04-1.687-.334-2.66-.41-.42-.394-.236-.306.41 0 .662.37 1.812 1.084 2.25 1.636.705.48.906.996 1.227 2.045.392 1.054.697 1.693 1.227 2.25.037 1.005.204 1.546.204 2.658-.286.713-.477 1.388-1.023 1.84-.228.837-.742 1.174-1.023 2.044-.803.473-1.83 1.455-2.453 2.045-.834.278-2.86.486-4.098.5"/><path d="M436.52 300.5c.302.7.638 1.494.816 2.25.1.742.204 1.314.204 2.25-.323.617-.395 1.354-.816 1.84-.268.75-.845 1.03-1.43 1.43-.8.34-1.346.6-2.456.615-1.076 0-2.032-.066-2.86-.207-.906-.424-2.983-1.16-2.355-.715.8.254 1.9.816 2.56 1.126.856.57 1.502.898 2.25 1.838.652.45.906.82 1.023 1.637-.8.28-1.94.7-3.068.816-1 0-1.934-.045-2.657-.204-.662-.315-1.224-.625-2.045-.82l2.045.82c-.662-.315-1.224-.625-2.045-.82l-2.782-1.13c.548.525 3.656 1.815 4.008 2.564.3.718.472 1.592.615 2.657-.01 1.213-.117 2.596-.408 3.476-.233.848-.607 1.227-1.023 1.838h-.4m7.974-8.996h.204c-.57 0-.268-.026.82.408 1.136.713 1.417 1.007 2.25 2.25.392.866.707 1.123.82 2.045.344.578.132 1.425 0 2.045-.543.445-.834 1.023-1.433 1.43-.403.593-.925.948-1.43 1.43-.7.15-.985.36-1.838.408" class="F"/><path d="M436.732 307.043v.204c0-.6-.034-.262.612.82.845.585 1.012 1.203 1.227 2.453.24.964.175 1.854 0 2.657-.63.368-1.457.993-2.352 1.13"/></g><g class="D E"><path d="M446.534 311.758h-.204c.55 0 .27-.013-.82.204-.853.286-1.884.204-2.86.204-.758-.268-1.457-.4-2.25-.816-.676-.14-.78-.384-1.637-.4m3.48 9.2h-.204c.554 0 .273.013-.816-.204-.882-.572-2.363-1.574-3.18-1.844"/><path d="M507.887 192.578c-.355.106-3.566.322-4.51.39h-2.86c-.996-.223-1.976-.396-3.068-.41-.816 0-.57-.504-1.388-.504" class="F"/><path d="M505 200.734c-.07 0 2.832-.224 2.766-.224.34 0-3.653.224-3.992.224-.914.163-1.846.205-2.864.205-.638.12-2.095.128-2.657.41h-2.86c-.617-.033-.612-.172-1.227-.205"/></g><g class="C"><path d="M425.473 297.427c.135.336 1.023 1.93 1.023 2.87-.013 1.076-.135 1.494-.612 2.045-.792.427-1.476.803-2.66.82h-3.68c-1.1 0-6.34-1.197-6.662-1.44.956.13 4.416 1.44 5.64 1.44 1.115.04 1.735.278 2.864.612l2.657.82c.585.342 1.54.4 2.045.82.946.334.827.795 1.227 1.838-.08 1.036-.318 1.523-1.023 2.045-.45.554-1.293 1.044-2.25 1.43-.972.45-2.085.615-3.476.615h-2.86c-.676-.225-1.65-.374-2.25-.615l2.25.615c-.676-.225-1.65-.374-2.25-.615h-.207c.78.313.925.877 1.23 1.634l.204 2.864c-.193.82-.503 1.38-.82 2.045a9.07 9.07 0 0 1-1.227 2.042c-.18.408-.413.742-.615.41" class="F"/><path d="M414.64 293.135c0 .07-.026-.064.408 1.023.424.51.572 1.348.82 2.045 0 .99-.048 1.934-.204 2.657-.41.668-.702 1.065-1.43 1.43-.48.578-1.046.742-2.045.82-.588.294-1.656.2-2.25 0-.752-.177-1.534-.397-2.045-.82-.845-.2-1.375-.458-1.838-1.023-.755-.188-.604-.612-.207 0 .625.517.652 1.073 1.023 2.045.013 1.073.204 1.547.204 2.657.188.86.313 1.627-.204 2.25-.278.784-.805 1.017-1.227 1.637-1.094.236-2.032.408-3.272.408-.63-.466-1.995-.885-2.453-1.43a6.51 6.51 0 0 1-1.838-1.227c-.567-.27-2.755-2.06-3.08-2.567l3.285 2.975c.55.376 1.068.864 1.43 1.227.554.395.983 1.12 1.637 1.637.453.803.774 1.08.816 2.246v2.864c-.013 1.28-.2 1.452-.816 2.25-.127.38-.283.026-.41.408"/></g><g class="F"><path d="M406.877 307.043v.204c0-.64-.042-.257.82.82.707.38 1.52.824 2.25 1.023.527.456 1.364.45 1.944 1.02.932.125 2.01.575 3.07.615" class="D E"/><path d="M406.162 287.8c.313.297 1.75 2.1 1.944 3.073-.013 1.2-.132 1.555-.816 2.045-.678.32-1.327.408-2.453.408-1.094-.24-1.767-.93-2.864-1.43-.58-.567-1.31-.77-1.838-1.227-1.028-.35-1.205-.567-.207.204l2.453 1.43c.866.604 1.158.7 1.637 1.84.23 1.17.532 2.223.612 3.476.453.665.52 1.417 0 2.045-.503.297-.723.408-1.634.408-.554-.48-1.13-.882-1.634-1.227a7.07 7.07 0 0 1-1.227-1.227c-.543-.482-1.24-.848-1.637-1.43-.877-.384-1.28-.795-2.045-1.227-.705-1.083-.032-.056.41.408.503.805.885 1.685 1.227 2.453v3.068c-.016.86-.2 1.674-.41 2.25-1.04 0-1.84-.095-2.657-.207l-2.25-.816c-.954-.53-1.552-1.023-1.838-1.84-.487-.556-.91-1.372-1.227-1.838-.405-.514-.564-.752-1.023-1.023.498.532.962 1.584 1.838 2.25.612.922 1.134 1.208 1.433 2.25.45.546.517 1.544.612 2.453 0 .893.085 2.08-.204 2.657-.13.962-.424 1.407-.82 2.045-.307.652-.662 1.258-1.023 1.838-.273 0-.204-.066-.204.204" class="C"/></g><path d="M410.347 284.552v.204c0-.273-.766 1.746-1.634 2.25-1.03.2-1.502.408-2.657.408h-3.068l-2.453-.816c-.673-.59-1.314-.795-2.045-1.433-.607-.593-.792-.932-1.53-1.733-.302-.395-.082-.03.917.7.91.84 1.163 1.065 1.43 2.045.29.58.204 1.764.204 2.657-.042 1.155-.14 1.53-1.023 1.84-.625.366-1.4.408-2.453.408-.525-.453-1.367-.763-2.045-1.43-.59-.39-1.282-1.306-1.838-1.838-.32-.495-1.762-2.246-2.257-2.564.532.36 2.24 2.35 2.87 2.768.427.75.94 1.12 1.433 1.634.424.718.69 1.4 1.227 1.84l.408 2.453c-.04 1.09-.22 1.55-.82 2.045-.792.776-.993.808-1.838.408l-2.045-1.43c-.763-.21-1.4-.493-1.84-1.023-.744-.262-1.27-.84-1.838-1.227-.323-.646-.856-1.232-1.43-1.637l1.43 1.637c-.323-.646-.856-1.232-1.43-1.637l-3.502-4.323 4.73 5.756c.617.493.97 1.22 1.227 2.25l.204 2.453c-.543.57-.72.978-1.637 1.227h-2.86c-1.13-.042-1.483-.278-2.453-.615-.83-.48-1.19-.774-1.634-1.43-.6-.408-.946-.882-1.637-1.227-.276-.413-.59-.527-.82-1.023-.37-.16-.3-.41-.612-.615" class="C"/><path d="M412.096 280.764c-.066 0-1.476.117-2.564-.1-1.39-.087-2.927-.196-3.682-.82-1.08-.374-1.295-.86-1.838-1.43-.6-.72-1.36-1.444-1.84-2.456-.392-.898-.6-1.672-.612-2.86v-3.272c0-.567.387-3.725.106-4.005-.013 1.12-.517 4.24-.517 5.436 0 1.044-.093 1.844-.204 2.66-.477.763-.975 1.63-1.838 2.453-1.19 1.025-2.21 1.75-3.68 2.045-1.166.344-1.44.217-2.045-.82-.747-.56-1.13-1.476-1.227-2.657-.307-1.152-.164-2.323 0-3.476l-.103-3.788c0-.477.103 1.354.103 1.54 0 1.205.008 1.9-.615 2.86-.472 1.046-1.16 1.82-1.838 2.657-.694.718-1.314 1.012-2.25 1.227-.985 0-1.836.01-2.453-.408-.755-1.052-2.1-2.2-2.66-3.476V264c.336.715.41 3.338.41 4.405-.082 1.054-.517 1.603-.82 2.657-.75.715-1.264 1.335-2.25 2.045-1.094.56-2.035.983-3.272 1.227-1.325-.016-1.306-.12-1.838-1.227-.652-.73-.917-1.64-1.023-2.657-.283-.983-.493-1.963-.615-2.864-.2-.81-.2-2.65-.408-3.274v2.252c.12.925.395 1.727.408 2.864 0 1.007-.07 1.812-.408 2.453l-.403 3.068" class="C F"/><path d="M397.075 277.797c.087.442.408 1.804.408 2.864 0 1.2-.053 1.56-.612 2.453-.596.858-.954.816-2.25.816-1.118 0-1.878-.125-2.453-.612-.758-.27-1.144-.72-1.637-1.43-.56-.678-1.216-1.756-1.634-2.25l-.922-3.28c-.215-.972.548 1.66.922 2.257l1.43 2.657c.148.678.204 1.515.204 2.453l-1.227 1.637c-.734.244-1.44.395-2.453.408-.895-.135-1.415-.45-2.042-.82-.758-.252-1.166-.683-1.84-1.023-.384-.583-1.234-1.468-1.634-2.25-.498-.7-.654-1.783-1.023-2.453-.14-.978-.27-2.005-.615-2.657-.132-1.033-.33-1.764-1.023-2.25-.058-.532-.244-.434-.408-.82m3.47 9.227l.408 2.864c-.013 1.174-.262 1.5-.612 2.25a4.7 4.7 0 0 0-.819 2.042c-.54.448-.832 1.025-1.43 1.433-.318.474-.636.408-1.43.408-.273.085-1.446-.074-2.045-.204m4.71-11.045c-.223 1.038-.633 1.905-1.023 2.864-.593.657-1.052 1.28-1.43 1.838-.713.286-1.34.4-2.453.4-.56-.38-1.285-.68-1.84-1.023l-1.023-.4m34.737-146.794v.205c0-.5.03-.265-.4.613-.872 1-1.3 1.297-2.453 1.636-1.227.692-3.02.92-4.702 1.022-1.385.235-2.898.212-4.292.4-.453-.654-1.364-1.223-1.84-1.84-.482-.555-.723-1.12-1.227-1.84-.336-1.007-.954-1.822-1.227-2.862-.34-.982-.575-2.06-.82-3.067-.12-.898-.334-1.497-.408-2.453-.734-.2-.06.26.204.818.572.857.744 1.787.82 3.067.148 1.05.204 2.122.204 3.27 0 1.183-.106 1.9-.408 2.658-.707.72-1.18.87-2.25 1.022-1.232.313-2.72.204-4.1.204-.975-.132-1.306-.47-2.25-.613-.487-.436-1.3-.902-1.838-1.227-.37-.45-.8-.628-1.023-1.022m11.674 1.26c0 .068.617.92.617 1 0-.57-.024-.268.4.818.403 1.2.164 1.717-.615 2.658-.832.912-1.783 1.7-2.657 2.453-.927.425-1.7.996-2.86 1.227-1.354.17-2.792.238-3.886 0-.787-.447-1.76-1.158-2.25-1.84-.6-.58-.9-1.154-1.227-1.84-.183-.674-.42-1.562-.816-2.045-.056-.587.02.16.13 1.05.25.742.013.28.074 1.2v2.862l-1.227 4.1c-.427.627-.792.996-1.637 1.227-.932.555-1.838 1.1-2.86 1.43-.56.46-1.383.4-2.453.4-.903-.36-1.1-.57-1.84-1.43-.525-.412-.646-.668-1.023-1.022m-3.88-.412v.205c0-.64.042-.258-.82.818-.4.636-.9 1.213-1.634 1.84-.47.845-1.48 1.794-1.84 2.658-.87.442-2.154.74-3.27 1.022l-3.476.4-4.9.204c-.978-.012-1.974-.18-2.657-.4-.654-.542-.78-1.038-.816-2.25-.3-.87-.188-1.733-.615-2.25a1.61 1.61 0 0 0-.612-1.022" class="C"/><path d="M404.016 145.946v.205c0-.572.024-.267-.408.818-.47.75-1.163 1.622-1.637 2.25l-2.453 2.25c-1.208 1.008-2.18 1.366-3.68 1.636-1.335.173-2.262-.183-3.476-.818-.96-1.008-1.097-1.305-1.634-2.453-.098-1-.18-1.813-.615-2.658-.18-.763-.434-1.48-.82-2.044.045-.702.328.423.41.818.223.558.323 1.67.612 2.25v2.862c.28 1.12.127 1.935 0 2.862-.347 1.17-.535 2.164-1.227 2.658-.797.28-1.923.41-3.065.41-1.396 0-2.933-.05-3.886-.613-.654-.445-1.203-1.07-2.042-2.045-.686-.9-1.19-1.354-1.433-2.25-.482-.725-.776-1.527-1.227-2.044-.11-.87.072-.114.41.205l1.02 2.25c.38.74.803 1.426 1.023 2.453a4.35 4.35 0 0 1 1.023 2.453c.286.63.204 1.912.204 2.862-.18.988-.405 1.277-1.43 1.43-.84.205-1.902-.122-2.86-.613-.713-.356-1.126-.694-1.637-1.43-.837-.675-1.343-1.35-2.042-2.25l-1.433-1.636c-.562-.69-1.126-1.19-1.43-2.25-.318-.3-.5-.722-.82-1.022.493.567.736 1.076 1.023 2.044.307 1.122.6 1.664.615 2.862v2.862c-.196.98-.67.892-1.637 1.022-1.12 0-2.072.074-2.657-.41-.895-.12-1.5-.355-2.045-.818-.85-.222-1.396-.698-2.042-1.022a21.19 21.19 0 0 0-1.431-1.84c-.283-.873-.82-1.24-1.23-1.84-.29-.3-.307-.917-.408-.818.397.47.755 1.478 1.023 2.045.164.914.204 1.845.204 2.862-.228 1.068-.612 1.598-.82 2.658l-1.227 2.658c-.744.507-1.332 1.058-2.246 1.43-1.208.543-2.43.775-3.886.818-.98.327-1.8.116-2.657 0-.665-.315-1.425-.633-1.84-1.227-.527-.242-.69-.508-1.023-1.227-.742-.557-1.012-1.385-1.43-2.453l-.816-2.453c-.35-.798-.567-1.798-1.023-2.453-.053-.476-.15-.342-.204-.818" class="C"/><path d="M395.01 163.732v.205c0-.552.013-.273-.204.818-.673 1.046-1.46 1.932-2.453 2.25-.588.294-1.653.198-2.25 0-.927-.476-1.555-1.058-2.25-1.84-.54-1-1.465-1.888-2.045-2.862-.514-.774-.882-1.33-1.02-2.25-.442-.52-.76-1.597-1.023-2.25-.06-.642-.053-.286-.244-.758.265.962.61 1.412.856 2.6.405 1.252.75 1.908.41 3.27-.167 1.244-.374 2.297-.82 3.476-.27 1.2-.65 2.102-1.023 2.862-.188.8-.54 1.505-1.023 2.045-.464.51-1.248.645-2.045.818h-2.86c-.872-.118-1.687-.406-2.657-.613-.95-.508-1.142-.745-1.84-1.43-.546-.676-1.073-1.165-1.43-2.044-.522-.356-1.264-.898-1.637-1.43-.625-.615-1.017-1.06-1.43-2.045-.19-.88-.395-1.502-.408-2.658-.032-.616.286.985.612 2.044.297.69.517 1.78.82 2.658v3.27c0 1 .02 1.976-.204 2.862-.138.92-.485 1.343-.82 2.045-.583.36-1.21.805-2.042 1.022-.694.48-2.064.815-3.068 1.022-1.015.265-1.9.41-3.068.41-1.176 0-1.73.013-2.25-.613-.5-.54-1.306-1.624-1.838-2.044-.283-.797-.697-1.116-1.43-1.84-.294-.815-.76-1.814-1.227-2.453-.156-.994-.63-1.85-.82-2.658l-.408-1.022" class="C"/><path d="M416.81 162.04c.04.28-.188 1.3-.336 1.896-.448 1.217-1.134 2.257-2.045 3.067-.983.592-1.372.94-2.453 1.022-.498.373-1.086.16-1.433-.205-1.054-.4-1.68-1.02-2.657-1.43l-2.25-1.43c-.477-.702-1.08-1.492-1.634-2.045-.132-.22-1.306-2.18-1.08-1.566.434.643 1.5 1.885 1.9 2.793.493.68 1.068 2.023 1.634 2.658l2.045 2.453c.458 1.133.935 1.946 1.023 3.067.318.618.408 1.698.408 2.658 0 1.112-.167 1.653-.204 2.658l-.82 2.044c-1.234 0-2.225-.206-3.068-.613-.662-.465-1.06-1.126-1.634-2.044-.403-1.13-1.094-1.917-1.634-3.067-.678-1.14-1.224-2.885-1.84-3.885-.14-.992-.532-1.88-.612-3.067-.223-.37-.29-.483-.41-.9.13.954.204 1.718.204 2.935 0 1.25.072 2.36-.408 3.067-.366 1.097-.954 1.818-1.634 2.658-.83.523-1.563 1.223-2.66 1.635-1.216.422-2.16.614-3.476.614l-3.828-.726c-1.287-.116-2.204-.196-2.713-.9-.755-.848-1.608-1.785-2.25-2.862-.596-.39-.395-.445-.78-.87.434.677.366.6.575 1.688.387.802.408 1.478.408 2.453-.485.82-.99 1.694-1.634 2.453-.668.816-1.012 1.073-2.045 1.43h-3.068c-.99 0-1.934-.047-2.657-.205-.882-.192-1.9-.597-2.86-1.022l-3.566-3.112" class="C F"/><path d="M366.796 175.793H367c-.64 0-.246-.054.615 1.022l1.634 3.475c.15 1.26.384 2.303.41 3.68 0 1.45.11 2.813-.41 4.09-1.356 1.317-1.886 1.895-3.68 2.044-1.767.36-2.16.03-2.86-1.636l-1.43-3.27c-.273-.78-1.062-1.847-1.637-2.862l-1.227-2.453c-.363-.95-.578-1.915-1.023-2.453-.154-1.503-.286-.655.204 0-.127 1.295.715 4.95-.273 5.443-.676.32-1.383.13-2.51.13" class="C"/><g class="F C"><path d="M419.857 165c0 .068.1 1.313.1 1.382 0-.62-.01-.272.207 1.022.074 1.355.397 2.72.816 3.68v2.862c-.32 1.08-.493 1.58-1.227 2.453-.43.633-.673.818-1.634.818-.657.328-2.08.205-3.068.205-1.094-.3-2.498-.4-3.27-1.022-.676-.518-1.322-.83-1.714-1.467.286.095.204.582.204.26m-5.23 3.657v.4-.4.4-.4c-.177 1.923-.713 2.778-1.84 4.293-.758.9-1.505 1.683-2.657 2.25-1.627.847-3.256 1.094-5.1 1.227-1.4 0-1.947.056-2.66-.818-.893-.714-1.854-1.7-2.25-2.862-.747-.907-1.142-2.092-1.634-3.067-.23-1.163-.657-2.176-1.023-3.27-.246-.96.196.66.204 1.43 0 1.617-.257 2.876-.612 4.293-.434 1.3-.845 2.215-1.637 3.27-.8 1.268-1.783 1.74-3.065 2.658-1.955.434-3.722.4-5.725.205-1.287-.395-2.22-.68-3.272-1.43-.964-.3-2.17-.884-2.657-1.43-.996-.407-.65-.175-1.295-.498.148.94-.774 4.185-.954 5.2-.315 1.106-.448 1.72-1.227 2.25-.82.743-1.574 2.445-2.7 2.905-.842.183-1.9.773-2.954.857-.74.335-1.568.227-2.268.425"/><path d="M419.142 177.838c.074.452.408 2.154.408 3.27v3.476c-.064 1.153-.28 2.12-.408 3.067-.28.983-.7 1.428-1.43 2.044-1.078.56-1.783.987-2.864 1.227-1.282 0-1.642-.206-2.657-.818a21.89 21.89 0 0 1-3.068-2.862l-2.045-2.25c-.14-1.073-.495-1.79-.816-2.862-.37-.518-.612-1.162-1.023-1.636.376.752.877 1.164 1.43 2.25.638 1.1.985 2.33 1.43 3.476.36.94.83 1.96 1.433 2.453.43 1.022.707 1.394 1.02 2.453l.207 3.68c-.41 1.185-.86 1.996-1.84 2.658-1.31.78-2.472 1.01-4.088 1.227-1.738-.01-3.375-.095-4.702-.613-.562-.688-1.854-1.795-2.66-2.658l-2.042-3.27c-.36-.943-.697-1.756-.82-2.658-.22-.658-.294-1.7-.615-2.25-.28-1.527-.204.845-.204 1.43v3.68c-.43 1.763-1.465 3.227-2.657 4.702-1.462 1.172-2.652 2.095-4.498 2.25-1.793 0-3.054.05-4.498-.818l-2.453-2.862c-.69-1.165-1.253-1.932-1.634-3.067-.154-.71-.252-1.78-.41-2.658 0-.83-.085-.148-.148-.83l-.056 1.853c.15 1.348.204 2.685.204 4.09-.48 1.565-.506 2.187-2.246 2.25-1.242-.09-1.605-.324-2.456-1.022a22.97 22.97 0 0 1-2.861-2.044l-1.857-1.708"/></g><path d="M410.956 193.58h.204c-.6 0-.262-.035.82.613l1.634 2.25c.538.743 1.155 2.096 1.634 2.658.41.72.805 1.24 1.023 2.044 0 1.245.164 2.287.207 3.476 0 1.252-.193 1.79-.615 2.658-.654.432-1.605 1.05-2.657 1.43-1.06.138-2.12.205-3.272.205a25.09 25.09 0 0 1-3.068-.205c-.697-.314-1.804-.76-2.453-1.227-.742-.656-1.53-1.776-2.25-2.658-.456-.73-.63-1.453-.816-2.25-.26-1.013-.38-2.103-.82-2.862-.148-.685-.33-1.512-.408-.205-.273.542-.207 1.605-.207 2.453-.228 1.076-.498 2.1-1.02 3.067-.78.72-1.303 1.67-2.456 2.044-1.36.86-2.922 1.04-4.496 1.227-1.21 0-2.607.153-3.682-.205-.686-.326-1.34-.68-2.246-1.227a9.3 9.3 0 0 1-2.456-2.249c-.763-.96-.763-1.63-1.227-2.862-.066-1.16-.33-1.85-.408-2.862-.154-.284-.38-.8-.612-1.022a11.75 11.75 0 0 0 .612 3.884l.204 2.862a5.54 5.54 0 0 1-.612 2.453c-.74.544-1.07.872-2.045 1.227-.97.182-1.99.205-3.068.205-.91-.245-1.605-.79-2.453-1.022-.5-.595-1.036-.85-1.634-1.84-.678-1.026-.82-1.18-.82-2.453.188-1.103.41-2.058.41-3.27 0-1.147.026-1.78.408-2.658.048-.85.093-.492.093-1.464" class="C"/><path d="M371.51 204.2h-.204c.6 0 .238-.058-.408 1.022-.5.945-.75 1.902-1.227 2.453-.23.844-.6 1.2-1.227 1.636-.268.75-.845 1.03-1.433 1.43-.628.297-1.32.56-2.042.818l2.042-.818c-.628.297-1.32.56-2.042.818" class="C"/><path d="M435.91 216.274c-.07 0 1.155-.616 1.086-.616.6 0-1.028.58-2.11 1.23-.617.31-1.926.205-2.86.205-.82-.19-2.154-.495-2.66-1.022-.278-1.105-.683-2.182-1.02-3.27-.328-.95-.493-2.037-.615-3.067l-.82-2.862-1.02-3.476c-.302-1.014-.54-1.89-.615-2.862-.432-.35-.477-1.006-.615-1.636" class="C F"/><path d="M428.546 214.025c-.148 0-.485.97-.82 1.636-1.335 1.565-2.853 2.8-4.294 4.1-1.272.6-2.254 1.48-3.68 1.634-.59-.535-.82-1.974-1.023-3.068l-1.43-5.723c-.51-.917-1.01-2.028-1.227-2.862-.35-.736-.474-1.59-.612-2.25.162 1.593.92 3.087 1.227 4.702.25 1.352.408 2.667.408 4.09v3.476c-.23 1.266-.623 2.46-1.43 3.27-.21.13-1.036-.44-1.84-.816l-3.272-1.84c-.78-1.13-1.984-2.414-2.86-3.68-.374-1.274-.654-2.342-.82-3.68-.27-1.178-.6-2.84-1.023-3.68-.056-.672-.344-.717-.668-1.075-.196 1.326-.72 2.115-1.17 3.324-.525.55-1.166 1.127-2.045 1.84-1.277 1.16-2.702 2.358-4.088 3.27-1.295.82-2.36 1.147-3.886 1.227-1.457-.045-2.042-.175-3.065-1.022-1.687-1.05-2.816-2.543-4.294-4.09-1.102-1.2-1.52-1.65-1.634-3.27-.07-.887-.24-1.512-.41-2.453 0 .273-.066.205.207.205" class="C"/><path d="M390.108 216.682l-.408 3.068c-.23.845-.54 1.253-1.227 1.634-.498.42-1.465.683-2.045 1.023l-2.864.408H380.5c-1.068 0-1.767.02-2.25-.612-.61-.5-1.242-1.542-1.634-2.25-.342-1.158-.42-1.873-.207-2.863 0-1.415.18-2.675.207-4.09l-.103-4.2" class="C F"/><path d="M376.836 220.364v.204c0-.55.013-.27-.204.82-.276.824-.683 1.115-1.227 1.634-1.03.225-1.338-.032-2.456-.408-.715-.578-.898-1.078-1.43-1.634a3.35 3.35 0 0 0-1.227-1.637c0-.44-.1-.305-.204-.612" class="C"/><path d="M370.4 218.616a2.9 2.9 0 0 0 .509 1.33c.41.898.88 1.785 1.227 2.86v3.272c-.1 1.24-.28 2.66-.82 3.476-.456.652-1.6 1.17-2.657 1.634-1.046.52-2.233.575-3.476.615-1.465-.323-2.694-.834-4.1-1.634l-3.68-2.045c-.564-.5-1.1-.736-1.634-1.43-.593-.434-1.08-1.054-1.637-1.433-.392-.575-1.105-.988-1.634-1.634-.514-.368-.872-.91-1.227-1.43" class="C"/><path d="M433.977 230.22c0 .12-1.936 1.674-2.572 1.992-.795.583-2.135 1.13-3.272 1.637-1.595.487-2.84.816-4.496.816-.466-.683-1.727-1.53-2.453-2.453a36.29 36.29 0 0 0-1.637-2.86l-1.227-3.476c-.358-1.057-.68-1.67-.82-2.864-.336-.466-.6-1.868-.715-1.23.673.686.758 1.812 1.126 2.866 0 1.277.172 2.416.204 3.68-.3.82-.38 1.38-1.023 1.84-.45.52-.763.612-1.634.612-.6.36-1.174.016-2.045 0-1.07-.315-1.364-.527-1.84-1.227-.6-.42-1.017-1.242-1.838-1.84-.52-.962-.82-1.32-1.227-2.246a11.88 11.88 0 0 1-.615-2.66c0-1.076-.167-2.013-.204-3.065 0-.736.056-2.435-.204-2.87-.154 1.245-.4 2.7-.4 4.096-.18.964-.236 2.098-.408 3.065-.45 1.036-1.1 2.114-2.045 3.068-1.282.726-2.4 1.012-3.884 1.227-1.55 0-2.967-.188-4.498-.204-.94-.535-1.992-1.26-3.065-2.045l-3.068-2.657c-.252-.713-.755-1.142-1.227-1.637-.3-.54-.416-.47.204-.204.532.532 1.4 1.274 1.84 2.045.336.652.82 2.072 1.227 2.657 0 1.1.2 1.584.204 2.657-.193 1.054-.824 1.3-2.045 1.637-1.166 0-2.244-.117-3.065-.408-.98-.4-1.714-.718-2.25-1.23-.525-.355-1.264-.898-1.637-1.43l-2.25-2.453c-.413-.453-1.03-1.595-1.43-2.045.2.3.342.352.615.82l1.634 2.25c.4 1 .734 1.494.82 2.657 0 1-.048 1.936-.204 2.66-.233.853-.6 1.346-1.433 1.634-.617.3-1.926.204-2.86.204l-2.657-1.023c-.474-.578-1.454-1.277-2.045-2.042-.52-.668-.82-1.354-1.43-1.84.527.434.853 1.205 1.43 1.84.315.644.78 1.64 1.023 2.453.408.903.564 1.9.82 2.86a22.36 22.36 0 0 1-.207 3.068c0 1.07 0 1.852-.408 2.453-.252.917-.72 1.34-1.634 2.042-.98.2-1.388.397-2.453.4-.413-.5-1.015-1.05-1.637-1.637l-1.023-2.042c-.403-.657-.824-1.004-1.227-1.84-.638-.615-1.383-1.6-1.838-2.657-.517-.774-1.038-3.012-1.227-3.876-.28-.188.33.525.408 1.83 0 1.1-.064 2.074-.204 3.068l.204 3.476c-.1.813-.24 1.7-.615 2.25-.503.885-1.473 1.6-2.657 2.042-.445-.623-.97-.816-1.838-1.023-.85-.434-1.46-.638-2.453-1.02-.94-.683-1.34-.816-2.045-1.84-.668-.63-1.285-1.66-1.637-2.453-.156-.723-.204-1.666-.204-2.657.013-1.285.2-2.098.615-3.068.228-.832.766-1.4 1.43-1.838.58-.58 1.197-1.073 2.045-1.23.103-.588.572-.567 0-.612v.612c.103-.588.572-.567 0-.612m75.444 16.962c0 .122-.593.5-1.227.82-1.298.413-2.744.098-4.1 0-1.327-.33-2.286-.405-2.86-1.227-.665-.477-1.687-1.53-2.25-2.25-.302-.636-.495-1.378-.612-2.25l-.4-3.272v-3.27c0-1.1-.2-1.587-.204-2.66.1-.087.154.514.408 1.023 0 1.28-.045 2.506-.204 3.68-.1 1.15-.5 1.9-.82 2.66-.596.74-.93.978-1.838 1.227-.668.397-1.833.575-2.864.612-1.258-.072-1.968-.334-2.657-1.023-1.004-.797-1.648-1.672-2.25-2.86-.352-1.147-.612-2.178-.612-3.476-.14-.9-.074-2.6-.4-3.272-.03-.596.172-1.852-.098-2.148.138 1.052-.095 2.993.098 4.194 0 1.346-.037 2.644-.204 3.884-.548 1.245-.805 1.915-1.838 2.453-.623.623-1.415.93-2.453 1.227-1.574 0-3.205.117-4.702-.204-.742-.2-1.438-.607-2.25-.82-.56-.472-1.396-.76-2.045-1.43-.752-.824-1.3-1.597-1.634-2.657-.996-1.28-1.733-2.506-2.25-3.884" class="F C"/><path d="M427.513 256.763h-.204c.55 0 .27-.013-.82.204-1.065.355-2.032.106-3.068-.204-.69-.305-1.412-.784-1.838-1.227-.713-.874-.99-1.107-1.43-2.25-.344-1.407-.41-2.58-.41-4.088.016-1.192.328-1.958.615-3.068.363-1.123.856-2.92.856-4.167-.045 1.354-.78 3.41-.856 4.782v3.27c-.328.983-.328 1.89-.82 2.66-.657.932-1.248 1.25-2.453 1.43-1.195-.11-1.205-.456-1.84-1.43-1.08-1.303-1.685-3.052-2.042-4.702v-3.272c0-1.367.103-2.596.204-3.884.085-.845.148-.964.148.13l.26 4.366c-.29 1.197-.76 2.2-1.227 3.068-.874.12-1.563.395-2.657.408-1.09 0-1.926-.048-2.657-.408-.51-.858-1.526-2.003-2.045-3.068-.238-1.12-.57-2.06-.615-3.27-.254-.51-.32-1.61-.408-2.25.217 1.277.204 2.69.204 4.088-.01 1.3-.048 2.572-.612 3.272-.564.76-1.293.8-2.25 1.023-1.038 0-2.156.098-3.068-.204-1.023 0-2.193-.064-2.86-.41-.927-.405-1.264-.705-2.045-1.227-.42-.62-1.23-1.415-1.634-2.453 0-1.083.138-1.976.612-2.657.193-.887.384-1.436.82-2.25.413-.985.803-1.42 1.227-2.045.366-.196-1 .92-1.637 2.045l-2.453 2.453c-1.036.654-1.576 1.134-2.86 1.227-1.277 0-1.8-.225-2.657-.612-.554-.607-1.097-.713-1.227-1.637-.374-.92-.54-2.29-.82-3.065-.013-1.152-.196-2.15-.408-3.272l-.204-1.632c0 1.767-.085 2.803.204 4.493v3.476c0 1.076-.148 1.72-.41 2.453-.946.13-1.31.395-2.453.41a11.51 11.51 0 0 1-2.249-.819c-.482-.458-.887-1.044-1.43-1.43l1.43 1.43-2.254-1.944" class="C"/><g class="F C"><path d="M420.467 268.525c-1.77 0-4.056-.927-5.828-.927-1.1-.273-2.352-.368-2.86-1.023-.437-.678-.76-1.5-1.023-2.657 0-1.45.11-2.278.816-3.476.535-1.057 1.396-1.897 1.84-2.657a14.43 14.43 0 0 0 1.634-2.657c.41-.64.397-.713.872-1.393.62-.11-1.897 1.372-3.733 2.62-1.417.633-2.62.805-4.294.816l-4.088-1.02c-.82-.72-.82-1.854-.82-3.272v-3.68c0-.78.034-.872-.148-1.372-.085 1.163-.318 1.656-.466 2.803-.11 1.338-.334 2.477-.816 3.68-.53 1.004-1.18 2.358-1.84 3.068-.644.827-1.507 1.285-2.25 1.838-1.378.244-2.525.098-3.884-.204-1.457-.5-1.735-1.06-2.25-2.453-.448-1.526-.408-3.208-.408-4.906.045-1.264.318-2.445.612-3.68v-3.476c0-.342.392-1.187.392-1.526"/><path d="M412 267.386c-.498.066-2.17.4-3.272.4-.8.265-2.162.204-3.272.204-1.2-.28-1.775-.3-2.25-1.023-.73-.506-1-1.004-1.634-1.43l-1.023-1.84c-.103-1.155-.395-2.064-.408-3.272 0-1.07-.003-1.852-.4-2.453v-.408m-.007.408v3.272c0 1.073-.162 1.918-.408 2.86-.114.962-.38 2.03-.82 2.66-.487.935-1.174 1.248-2.045 1.634-.993.135-1.264.164-2.042-.204-.713-.193-1.634-.678-2.25-1.227-1.068-.442-1.936-.967-2.657-1.637-.895-.628-1.513-1.27-2.045-1.838-.413-.827-.7-2.02-1.023-2.657 0-1.13.087-1.778.408-2.453.326-.654.752-1.14 1.227-1.637.495-.472 1.748-1.385 2.46-1.637"/></g><path d="M386.426 261.054h-.204c.694 0 .262-.04-1.023.816-.906.697-1.526 1.03-2.453 1.433-1.31.307-2.143.408-3.68.408-1.343 0-2.665.013-3.886-.204-.887 0-1.854-.005-2.453-.204-.223-.67-.6-1.35-1.023-1.84-.156-.723-.204-1.666-.204-2.657.366-.583.65-1.796 1.023-2.25.52-.935.864-1.248 1.634-1.84.72-.5 1.285-.744 1.84-1.227.85-.283 1.184-.638 2.045-1.43l1.838-1.838 1.637-1.433c.27-.853.74-1.433.816-2.453v-3.884" class="C"/><path d="M363.83 273.214c-.24-.122-.882-1.3-1.53-1.947-1.428-1.436-2.633-2.114-2.657-4.088.458-.68 1.264-1.213 2.25-1.634.556-.546 1.16-.985 1.84-1.227.774-.17 1.807-.207 2.86-.207 1.113 0 1.653-.167 2.657-.204 1.073-.013 1.55-.204 2.66-.204.376-.38.8-.204-.207-.204-.726.33-1.547.408-2.657.408-.903-.392-1.446-.593-2.453-.816-.543-.472-1.205-.628-1.634-1.23-.91-.51-1.192-.967-1.433-2.042-.132-.996-.167-1.436.41-2.25.3-1.15.866-1.833 1.43-2.657.676-.69.985-.82 2.25-.82h3.068l2.246.408c-.972-.278-1.95-1.3-2.86-2.25-.872-.946-.917-1.248-1.43-2.25-.34-1.28-.77-2.01-.82-3.27v-3.068c.196-1.102.47-1.55.82-2.25" class="C F"/><path d="M360.465 244.074c-.12.244-1.007 1.566-1.227 2.045a6.56 6.56 0 0 0-.411 2.453c-.18.882.008 1.338.207 2.25a5.86 5.86 0 0 1 1.634 1.634c.887.427 1.18.837 1.634 1.637a7.62 7.62 0 0 1 1.74 1.841c-1-.074-2.164-.893-3.17-1.23-.585-.273-1.825-.64-2.453-1.02h-3.476c-1.1.082-1.303.445-2.045.816-.42.66-.736 1.22-.816 2.25a4.49 4.49 0 0 0 0 2.453c.46.495 1.054 1.245 1.634 1.637l2.25 1.43 2.86 1.634c.7.188 1.505.45 2.045.82.498.087 1.13.204.204.204-.548-.32-1.6-.395-2.25-.612-.967-.162-1.907-.498-3.065-.615-1.073 0-1.428-.024-1.84.615-.832.24-1.076.74-1.634 1.227-.366.77-.58 1.256-.615 2.453.22.82.432 1.232.615 1.838.15.355.535 1.1.82 1.332l-.82-1.332m-.616-46.82l-3.476 1.023c-.73.244-1.24.654-1.838 1.023-.593.403-.95.927-1.43 1.43-.244.73-.654 1.24-1.023 1.84-.32.676-.538 1.272-.615 2.25.016 1.375.477 1.905 1.023 3.272.702 1.2 1.258 2.58 2.25 3.27l2.453 1.433c.652.177 1.648.646 2.25 1.023 1 .132 1.658.416 2.25.816h-1.634c-.956.037-1.8.17-2.456.615-.7.28-1.004.837-1.634 1.227-.23.848-.585 1.208-.82 2.25-.34.678-.156 1.78 0 2.657.427.615.8 2.058 1.227 2.657.44 1.505.856 2.72 1.84 3.886.175.506 1.428 1.287 1.846 1.534-.63-.43-2.2-2-3.073-2.763-.517-.654-1.158-1.107-2.045-1.43-1.08-.413-2.1-.734-3.272-.816-1.113 0-1.74.122-2.453.408-.522.453-1.2.7-1.634 1.227-.583.416-.885 1.083-1.227 1.84.04 1.1.283 1.65.82 2.453.477.715.827 1.224 1.43 1.634.6.705 1.282 1.118 2.25 1.634.805.575 1.53.705 2.453 1.227.9.3 1.658.713 2.86 1.227 1.025.562 3.77 2.554 4.612 2.874.18.27-2.723-1.738-3.6-2.26-1.04-.23-1.4-.585-2.25-.82-1.062-.5-1.624-.882-2.657-1.023-.9-.408-2.056-.64-2.864-.816-1.23 0-2.225-.196-3.476-.204-.882 0-.954.02-1.227.612-.686.53-1.076 1.136-1.634 1.84-.384.678-.827 1.28-1.227 1.838-.297.694-.63 1.563-.82 2.25-.18.837-.395 1.375-.408 2.453m1.665-6.754c0-.066.207.276.207.207 0 .575-.18-.143-.615-1.227l-2.453-2.864c-1.306-.93-2.66-1.873-4.1-2.453l-3.884-1.634c-1.192-.23-2.424-.204-3.68-.204-1.234.013-1.415.334-2.25.612-.48.54-.925 1.1-1.227 1.84-.24.6-.4 1.574-.612 2.25 0 1.044-.193 1.83-.207 2.86 0 .837.2 2.228-.305 2.562l.715-3.788c-.016-1.232-.384-1.587-.82-2.657l-2.453-2.864c-.707-.898-1.605-1.955-2.453-2.657l-2.045-1.227c-1.038-.42-1.523-.776-2.657-.82-.485.464-1.052.866-1.637 1.227a2.94 2.94 0 0 0-1.227 1.637c-.374.548-.498 1.494-.612 2.453-.328.94-.408 1.56-.408 2.657-.262.347-.358.87-.4 1.43.122-.914.395-1.725.4-2.86-.162-1.057-.572-2.1-.82-3.476-.037-1.4-.305-2.268-.82-3.068-.882-.787-1.693-1.93-2.86-2.657-1.02-.5-1.828-.803-3.068-.82-1.1.013-1.664.276-2.453.615-.286.713-.408 1.34-.408 2.453.013 1.158.217 1.57.612 2.25.122.903.525 1.587.615 2.657.28.472.204 1.47.204 2.25-.095-1.102-.766-1.9-1.023-2.86l-.82-3.068c-.448-1.2-1.13-2.254-1.838-3.476-.72-.58-1.102-1.176-2.045-1.84-.925-.803-1.624-1.277-2.657-1.43h-2.864c-.837.334-1.086.652-1.634 1.227-.254.975-.744 1.76-1.023 2.453 0 1.017.042 1.95.204 2.864a4.02 4.02 0 0 1 1.023 1.838c.344.588.82 2.604.82 3.587-.313-.837-1.102-3.57-1.43-4.6-.3-.832-.776-1.84-1.227-2.657-.323-1.17-.795-1.78-1.433-2.657-.52-.8-1.343-1.497-2.25-2.045-.877-.734-1.245-.978-2.453-1.023-1.052.313-1.253.668-2.25.82-.384.347-1.068.6-1.43 1.023-.193.82-.503 1.38-.82 2.045-.156.723-.204 1.666-.204 2.657.363.535.8 1.322 1.023 2.045.628.7.893 1.393 1.43 2.25.302.903 1.666 3.05 2.05 3.688-.122.122-1.197-1.558-1.64-2.053-.797-1.102-1.192-1.78-1.637-3.068-.527-.7-1.152-1.645-1.634-2.042a11.01 11.01 0 0 0-2.657-2.249c-.914-.644-1.4-.615-2.66-.615-1.3-.268-2.217.008-3.065.408-.6.62-1.897 1.627-2.453 2.045l-1.433 1.84c-.273.683-.495 1.38-.612 2.25.087 1.13.532 1.383 1.023 2.453.543.42 1.35 1.5 1.838 1.838.392.485 2.9 2.766 2.05 2.766-.37-.546-1.62-1.857-2.254-2.355-.6-.73-1.34-1.364-1.838-1.84-.84-.363-1.518-.7-2.453-.82-1.18-.236-1.93-.37-3.068-.408-1.033.093-1.595.604-2.25 1.023-.368.6-.78 1.1-1.023 1.84-.46.556-.408 1.383-.408 2.453.366.538.747 1.325 1.023 2.042.623.6 1.076 1.57 1.838 2.25.8.68 1.518 1 2.453 1.227 1.007.037 1.547.204 2.66.204.707.045-.342.18-.615.4m-4.894-2.227l-.204-.204c.5.5.28.265-.82-.615-1.245-.585-2.6-.77-4.088-.816l-3.476.816c-.654.668-1.078.948-1.84 1.84-.3.776-.477 1.367-.204 2.453.55 1.13.784 1.53 1.634 2.453.593.403 1.083.72 1.84 1.023 1.547.233 3.065.76 4.702.82 1.18 0 4.117.376 5.23.4 1.383 0-3.5-.207-4.003-.207l-4.294.204c-1.303.265-2.55.562-3.68 1.227-.932.53-.82.983-.82 2.25.294.73.65 1.232 1.023 1.838.638.6 1.17 1.15 2.045 1.433 1.07.588 2.183 1.126 3.476 1.227.848.286 4.448-.03 3.2-.1-.654.554-5.068.67-6.257.917l-3.68 1.637c-.23.885-.405 1.53-.204 2.453.44.718.8 1.372 1.43 2.045.5.5.8.792 1.637 1.02.874.43 2.305.668 3.476 1.023.9 0 .925-.135 1.43-.408" class="C"/><path d="M339.22 251.65c0-.07-.408-.678-.82-1.227-1.08-1.266-2.9-2.662-4.294-3.886-1.5-.6-2.58-1.322-4.088-1.43-1.27 0-1.677.01-2.045 1.023-.445.538-.63 1.282-.82 2.25-.42 1-.408 1.958-.408 3.272-.307.612-.26 1.727-.612 2.25-.03.543-.132.9-.207.816-.34-.68.217-2.087.4-3.065 0-1.242.164-2.28.204-3.476-.477-1.862-.644-2.337-2.045-3.884-1.388-1.46-2.382-2.34-4.088-3.476-.895-.23-2.072-.6-3.272-.615-.74.4-1.74 1.046-2.453 1.634-.718.972-1.007 1.592-1.023 2.864.148 1.123.5 1.844 1.023 2.86a17.39 17.39 0 0 1 .82 2.66c.374.956.527 2.344 1.02 3.065.138 1.1.13.702-.204 0-.106-1.385-.546-2.673-1.023-3.68-.397-1.5-.837-2.037-1.634-3.272-.8-1.227-1.136-1.722-2.453-1.838a4.8 4.8 0 0 0-2.864 0c-.755.42-.978.67-1.02 1.838-.233.697-.3 2.382-.3 3.378 0 .302 1.038-4.244.718-5.42-.766-1.412-1.627-2.514-2.864-3.682-1.205-1.446-2.297-2.774-3.884-3.68-1.1-.328-1.722.16-2.453.82-.954.636-1.695 1.54-2.045 2.25-.23.85-.532 1.34-1.023 2.25-.768.96-1.396 4.47-1.53 3.796-.164-1.1.236-3.926.5-5.023.114-1.407.238-2.625-.207-3.68-.848-1.123-1.6-1.95-2.657-2.453-.7-.776-1.245-.82-2.453-.82-.9.3-2.095.975-3.068 1.634-.596.56-.853.943-1.02 1.637-.368.636-.657 1.952-.82 2.657-.212.877-.6 1.698-.615 2.86-.424 1.388-.204-.946-.204-1.634-.326-.983-.164-2.32-.612-3.068-.554-1.025-.8-1.264-1.84-2.042-1.046-.474-1.58-.82-2.86-.82-.572.4-1.26.657-1.84 1.227-.65.832-1.2 1.658-1.838 2.657-.223.887-.207 1.862-.207 2.864.024.832.172 1.32.207.204v-3.272c-.223-1.144-.424-1.674-1.433-2.045-.7-.384-1.67-.408-2.86-.408-.832.294-1.078.65-1.227 1.634-.5.715-.615.954-.615 2.045-.3.578-.204 1.764-.204 2.657-.326.437-.37 1.32-.408 0-.07-1.025-.33-2.138-.615-2.86-.68-.53-1.62-1.123-2.25-1.43-1 0-1.976-.02-2.86.204-.8.403-.787 1.025-1.43 1.634-.207.88-.535 1.224-.615 2.25-.185.86-.122 1.555 0 2.453.228.64.57 1.42.4 1.84-.5-.583-1.346-1.65-2.045-2.657-.758-.612-.967-.877-2.045-1.023-.88-.07-1.423-.207-2.453-.207-.495.432-1.102.864-1.634 1.23-.48.705-.874.856-1.023 1.838-.3.617-.2 1.83 0 2.453.498.323.665.734 1.227 1.023.424.527 1.062 1.038 1.43 1.634.244.5.33.244-.408.207-.64-.768-1.476-1.06-2.66-1.637-1.274-.228-2.188-.02-3.476.204-.58.84-.978 1.627-1.02 2.864.04 1.1.73 2.684 1.33 3.18m99.235-18.736h-1.023l-4.702-.4c-1.5 0-2.65.016-3.884.615-1.2.42-1.436.866-2.25 1.634-.522.975-1.147 1.783-1.43 2.864-.368.9-.776 1.722-.82 2.86.262 1.566 0-1.126 0-1.84.326-1.844.207-3.627-.204-5.518a22.23 22.23 0 0 0-1.431-3.68c-.458-.813-.983-1.513-2.045-1.84-.736-.212-1.93-.24-2.657 0-.517.363-1.37 1.34-1.84 2.045-.522.694-1.2 1.748-1.634 2.453-.5.853-.9 1.923-1.227 2.657-.103.593-.252 1.245-.4 1.637-.408-.82-.9-1.1-2.042-1.637-1.062-.9-2.252-1.738-3.272-2.25l-2.864-1.634c-.628-.437-1.695-.705-2.657-.82-.993 0-2.4-.127-3.065.204-.795.283-1.078.726-1.433 1.433-.36.585-2.122 2.625-2.053 2.46 0-1.14 1.004-3.44.623-4.506-.543-1.078-1-1.592-1.227-2.453-.644-.713-.877-1.483-1.634-2.045-.278-.78-.805-1.015-1.227-1.634-.9-.387-1.017-.774-2.25-.82-1.017 0-1.96.164-2.66.408-.76.2-1.4.5-1.838 1.023-.92.44-1.086.82-1.84 1.43-.525.368-1.17 1.163-1.43 1.84-.596.726-.085.93 0 2.045m52.954-5.9v-.207c0 .604.037.265-.612-.816-.413-.67-.845-1.2-1.637-2.045-.707-.83-1.2-.82-2.453-.82-.893 0-2.08-.085-2.657.204-.797.305-1.264 1.076-1.84 1.84-.646.898-1.3 1.547-1.634 2.25-.4.978-.8 1.396-1.023 2.25-.517.387-.493.8-1.227 1.023-.368-.668-1.044-1.065-1.43-1.637-.914-.315-2.127-1.208-3.068-1.838-1-.665-1.913-1.038-2.86-1.637-.9-.315-1.486-.408-2.657-.408-1.285.058-1.88.355-2.864 1.023-.893.42-1.5 1.054-2.25 1.634-.72.5-3.672 4.837-4.4 5.447-.755.7 2.564-3.293 3.184-4.424.477-1.208.82-1.942.82-3.272-.233-1.672-.384-3.2-1.637-4.292-.98-.384-2.14-.604-3.476-.615-.935.127-1.412.413-2.453.615-.784.42-1.566.628-2.25 1.227-.654.403-1 .824-1.838 1.227-.408.6-1.015.848-1.43 1.43-.302.13-1.412 1.24-1.542 1.542m36.49-4.416h-.204c.6 0 .265.034-.816-.615-.562-.38-1.086-.87-1.637-1.43-1.15-.3-2.066-.83-3.272-1.023-1.023-.42-2.172-.816-3.065-1.023-.882 0-1.868-.005-2.453.204-.408.6-.882.946-1.227 1.637-.273.575-.464 1.52-.82 2.042-.024.82-.432 2.238-.925 2.567.456-.805 1.287-3 1.536-4.405-.315-1.5-.9-2.882-1.634-4.294-.797-.97-1.717-1.922-2.657-2.862-.946-.237-2.003-.205-3.068-.205-1.245 0-1.648.015-2.25.818-.583.46-1.097 1.27-1.634 1.636-.585.782-1.13 1.116-1.43 2.25-.416.8-.623 1.417-.82 2.25l.82-2.25c-.416.8-.623 1.417-.82 2.25v.204c.254-.853.797-1.666.82-2.863 0-1.058.045-2.32-.204-3.067-.326-.8-.652-1.306-1.433-1.84-.954-.943-1.74-1.577-2.86-2.045-.914-.467-1.86-.54-2.864-.205-1 .42-1.396.78-1.838 1.43-.882.312-.98.686-1.023 1.84-.037 1.1-.185 2.007 0 2.862.138 1.168.474 1.906.82 2.863.445.7.962 1.097 1.227 1.838.273 0 1.234 1.478 1.234 1.75" class="C"/><path d="M335.537 222.404c0-.458-.413-2.808-.413-3.886 0-1.1-.2-1.586-.204-2.66 0-.743.196-2.36-.305-2.05l.1 3.48c-.3.818-.38 1.38-1.023 1.84-.662.442-1.695.408-2.86.408-.978-.106-2.212-.17-2.864-.612a6.66 6.66 0 0 1-2.453-1.022c-.7-.397-1.28-.846-1.84-1.227-.236-.872-.662-1.094-.816-2.25-.464-1.067.615-3.588.32-3.88-.08 1.045-3.92 2.672-5.023 3.062-1.12.38-2.02.4-3.272.4-.832 0-1.7-.005-2.25-.205l-2.045-1.636c-.956-.732-1.677-1.136-2.657-2.044-.85-.807-1.298-1.548-1.838-2.25-.35-.757-.97-2-1.433-2.658-.1-.816-.204-1.616-.204-2.658v2.862c-.408.9-1.068 1.83-1.838 2.658-1.12.514-2 1.066-3.272 1.227-.707-.393-1.616-.723-2.25-1.022-1.065-.158-1.44-.48-2.045-1.227-.7-1.128-1.32-1.934-1.43-3.27-.313-.558.1-1.048.204-1.84 0-.44.1-.304.204-.613m-20.43-3.47c-.064 1.233-1.852 2.753-2.257 3.685-.33 1.05-1.033 1.67-1.436 2.45-.972.552-1.772.775-2.864 1.227-1.497.054-2.707.363-4.292.4-1.282 0-3.163.357-3.78-.4-.86-.932-2.466-2.174-3.17-3.067-.702-.68.514-2.414.326-2.762M228 217.977c-.424 1.273-.885 5.448-2.46 7.904-.713.93-1.682 1.285-2.657 1.634-1.16.302-2.07.7-3.476.82-.985.376-1.53.405-2.453.204-.572-.117.07-1.22-.503-1.335.76.38.085 1.987.707 2.972.08 1.046.368 1.338.408 2.453 0 1.205-.045 2.323-.204 3.476l-.408 2.86c-.617.927.01.14-.8.607-.842.254-1.767.676-2.86.816a26.46 26.46 0 0 1-2.66.511c-1.115.662-.63.52 0 1.43.736.593.983.805 1.227 1.944.3.575-.3 2.996-.824 3.892-.1 1.062-.5 1.8-.615 2.86-.34 1.195-.5 2.5-.82 3.68l-.816 2.66c-.363.652-1.274 1.8-1.637 2.453-.58.358-2 1.123-2.662 1.436-.175.676 1.195.6 1.64 1.22.662.662.983 1.105 1.227 2.25.172 1.136.42 1.82.615 2.657-.13.887-.45 2.005-1.023 2.657-.313 1.176-.747 1.785-1.43 2.25-.657.612-1.55 1.094-2.453 1.227-.63.44-1.695.705-2.657.82-.34.286-2.03 1.574-2.464 1.748M300.78 217.1c-.23 0-1.5-.065-2.045-.205-.978-.57-2.056-.4-3.272-.4-1.078.206-1.8.384-2.246 1.022-.482.907-.803 1.588-.82 2.862.013 1.15.368 2 .612 2.864.432.52.48 1.4.82 2.042 0 .4.514 1.952.514 2.36-.44-.985-1.35-3.5-1.74-4.813-.22-1.462-.38-2.135-1.43-2.86-1.385-1.13-2.087-1.742-3.68-2.045-1.107.178-1.963.906-2.864 1.43-.588.7-1.695 1.325-2.453 1.84-1.012.88-1.695 1.5-2.045 2.86 0 1.044.095 1.844.207 2.66.162.747.374 1.574.612 2.246.273 1.192.527 2.262.615 3.476.207.2.204 1.242.204 1.023-.5-.67-.758-1.56-1.023-2.453-.315-.895-.742-1.756-1.227-2.657-.935-.816-1.17-.887-2.453-1.227-1 0-1.934.048-2.657.204-.45.37-1.187.723-1.637 1.227-.556.707-1.14 1.346-1.43 2.453 0 1.044.095 1.844.204 2.657v2.456-2.456 2.456" class="C"/><path d="M299.35 208.3h-.204c.57 0 .268.025-.82-.4-.543-.37-1.46-.476-2.045-.818l-3.476-.204c-1.197.107-1.444.6-1.634 1.84-.286.855-.204 1.884-.204 2.862-.072 1.087-.286 2.017-.4 3.067-.12.552.14 3.933-.098 4.413-.177-1.196-.935-4.503-1.332-5.435-.7-1.54-1.58-2.695-2.86-4.1-.946-.82-1.438-.616-2.66 0-1.176.15-1.42.414-2.042.818-.617.45-1.248 1.05-1.637 1.84-.652.515-1.028 1.203-1.227 2.044.07.898.34 1.732.615 2.453l2.26 4.62c.215.355-1.783-3.206-2.464-3.802-.702-.686-1.388-.613-2.66-.613-1.63.203-2.98.446-4.292 1.227-.7.675-.943 1.276-1.433 1.84l-.408 2.657c.154 1.012.477 1.436 1.023 2.25.185.424 1.523 2.268 1.642 2.768-.787-.434-3.12-1.746-4.3-1.746-1.197.16-1.642.532-2.25 1.43-.427 1.052-.4 2.064-.4 3.272l-.204 2.86c0 .4.413 4.938.413 5.346l-1.23-6.162c-.427-1-1.136-2.228-2.045-2.864-.654-.392-1.38-.154-2.045.204a15.7 15.7 0 0 1-1.431 2.249c-.273 1.025-.6 1.303-.615 2.453.114.845 1.53 4.596 1.645 5.44 0 .302-1.37-3.436-1.44-3.597l-1.43-3.068c-.707-.48-1.052-.964-1.838-1.43a11.85 11.85 0 0 0-2.045-1.227c-1.007-.286-1.902-.408-3.068-.408-.816.4-1.234.702-1.838 1.634-.286 1.03-.4 1.873-.4 3.068v3.065c.223.813.554 1.407 1.227 2.045l2.464 3.282c.83.83-1.38-2.027-1.85-2.26-.84-.448-1.274-.686-2.25-.82-.578-.3-1.764-.204-2.657-.204-.97.334-2.355.54-3.068 1.023-1.144.43-2.12.5-2.453 1.43.042 1.232.28 1.9.615 2.864.506.935.837 1.642 1.43 2.246a2.94 2.94 0 0 0 1.634 1.23c.363.532 2.347 1.608 2.872 2.252-.633-.38-2.7-.644-3.484-.413l-2.25 1.634c-.887.702-.82 1.2-.82 2.456.074.975.294 1.57.615 2.246l1.023 2.045c-.14.3 4.837 3.537 4.837 3.8m47.3-57.165h-.204c.6 0 .262-.035-.82.613-.925.308-1.825.462-2.657.205-1.216-.144-2.416-.205-3.68-.205-.4-.308-.927-.163-1.227-.613-.832-.366-1.232-.607-1.433-1.43-.472-.787-.914-1.96-1.227-2.862l-1.227-2.453c0 1.25.212 2.338.4 3.475v3.067c-.5.967-.477 1.46-1.637 1.636-1.015 0-1.96-.165-2.657-.4l-4.906-1.022c-.67-.957-1.425-1.276-2.65-2.444" class="C"/><path d="M271.958 205.03c-1.012.276-1.982.115-2.657.818-.456.685-1.05.94-1.227 1.84-.63 1.225-.82 2.818-.82 4.498.233 1.178.927 2.294 1.637 3.067l1.844 2.764c.596 1.176-.466-.353-1.232-.72-1-1.13-2.244-2.217-3.68-2.453-1.566-.38-2.8-.522-4.292 0-1.044.514-1.27.998-1.433 2.25-.3.578-.204 1.763-.204 2.66.013 1.13.204 2.127.204 3.27.297.92.175 2.13.4 3.068.37.514.668 2.755.92 3.184-.257-1.274-.858-4.575-1.534-5.637-.498-.73-1.248-1.205-2.045-1.634a9.25 9.25 0 0 0-2.453-.615c-.996-.25-2.106-.252-2.86 0-1.197.424-1.603.74-2.045 1.634-.175.803-.477 1.762-.82 2.66-.07.914.003 3.94.003 5.025m9.198-25.476c0-.3-2.228.892-2.453 1.636-1.13.712-1.552 1.46-2.962 1.535-1.385.22-2.575.72-4.088.72h-5.317" class="C"/><path d="M252.116 208.708v.205c0-.602.034-.262-.615.818-.84 1.096-1.118 1.623-.82 3.067 0 1.183.167 2.132.207 3.27l1.838 4.497c.506.922.342.437-.612.4-.993-.38-1.9-.4-3.068-.4-1.083 0-2.1.032-3.068.207-.768.5-1.523.837-2.453 1.227-.575.442-1.587.874-2.042 1.43-.217.646-.207 1.714-.207 2.657.114.837.286 1.483.615 2.045.604.9 1.174 1.526 2.045 2.453.464.442 1.2.917 1.838 1.43.633.2 2.05 1.025 2.46 1.436l-4.3-3.07c-1.92-.85-3.96-1.566-6.135-1.84-1.295.048-2.24.7-3.065 1.43-.554.795-.832 1.242-1.637 1.637-.633.776-1.28.652-1.43 1.838-.3.93-.03 1.597.204 2.66l1.227 2.86c.62.607 1.004 1.094 1.637 1.84.766.668 1.23 1.144 2.045 1.43.493.472 1.85.972 2.562 1.227-.495.43-2.146.73-2.768 1.023l-2.042 1.838c-.1.816-.207 1.616-.207 2.66-.048.848-.204 1.274-.204 2.246.416.593.975 1.703 1.637 2.25.567.654 1.264.92 1.838 1.433.408.172.66.416 1.023.612l-1.023-.612c.408.172 2.204.52 2.567.715m3.557-46.715c-.095 0-.68.682-1.227 1.227-.864.836-.932 1.4-1.43 2.658 0 1.263.008 2.107.82 2.862.487.883 1.245 1.678 1.838 2.453.707.686 1.017 1.242 1.433 2.045-.408-.6-1.216-1.258-1.84-2.25-.7-.497-1.356-1.4-2.25-2.045-1.216-.44-1.748-.58-2.86-.4-.943.628-1.93 1.08-2.66 1.84-.837.7-1.608.918-2.042 1.84-.657.47-.776.932-.82 2.045 0 1.306.3 1.868.615 3.065l1.43 2.456c.32.262 1.378 1.703 1.54 1.54-.564-.34-1.836-1.558-2.766-1.746-.77.352-2.376.207-3.476.207-1.2 0-1.942.005-2.864.408-.82.313-1.775.736-2.657 1.43-1.1.38-1.727.797-1.838 2.045.18.993.62 1.166 1.43 2.045.895.943 1.722 1.942 2.86 2.657.5.736 1.775 1.67 2.25 2.25.58.265 3.6.2 2.472.2-.898.233-4.816.914-5.54 1.433-.906.866-1.1 1.66-1.227 3.068.074 1.27.408 2.3.615 3.476.517 1.057.67 1.86 1.227 2.657.44.678 1.5 1.68 2.045 2.045l3.272 1.43c.546.2 1.468.416 2.246.612h-3.68c-.956.254-1.693.36-2.25.82-.845.283-1.046.742-1.634 1.227 0 1.12.12 1.756.615 2.453.132.895.633 1.764 1.227 2.25.48.76 1.205 1.423 1.838 1.84.824.718 1.2.885 2.045 1.227.927.125 1.746.477 2.657.612.464.384 1.664.615 2.25 1.023l-2.25-1.023c.464.384 1.664.615 2.25 1.023l1.028.3c-.954.146-2.413.188-3.48.713-1.457.448-2.898.742-3.476 1.634-.92.46-1.004.893-1.227 1.84-.085 1.184-.132 1.608.204 2.453a6.11 6.11 0 0 0 1.637 1.637c.604.506 1.772 1.47 2.657 1.838 1.017.588 1.725.882 2.453 1.227-.975.162-2 .204-3.068.204-.665.4-1.192.405-1.634 1.023-.683.498-1.13.978-1.227 2.045-.297.885-.1 1.494.408 2.453l2.045 1.634a17.68 17.68 0 0 0 2.86 1.023c.33.132 1.507.204.4.204-.525.27-1.62.207-2.453.207-1.07.095-1.486.487-2.25 1.023-.654.652-.978.792-1.023 2.042 0 1.16.103 1.66.612 2.25.538 1.13 1.03 1.48 1.84 2.045.7.42 1.8.58 2.86.612 1.258 0 2.485-.03 3.68.207.517 0 4.546.673 4.623.617M224.9 241.213c0 .06-.376.596-.612 1.227-1.02.77-1.038 1.452-2.25 1.634-.86.188-1.555.122-2.453 0-.366-.5-1.078-1.054-1.634-1.43-.464-.668-1.22-2.03-1.743-2.458m10.452 8.18c-.05.3-1 2.013-1.126 2.66-.776.78-1.915 1.976-3.068 2.66-.866.204-1.502.5-2.657.612-.97.313-2.17.204-3.272.204-.895-.207-1.534-.58-2.453-1.023-.395-.487-2.82-2.52-3.486-2.972m14.948.588c0 .313-.458 4.707-1.025 6.678-.495.874-1.224 1.873-1.838 2.86-.657 1.102-1.04 1.703-2.25 2.25-1.36.5-2.707.615-4.294.615-1.015-.244-2.284-.885-3.476-1.227l-2.453-1.637c-.742-.612-1.627-1.168-2.048-2.045m21.252 10.44h-.204c.554 0 .27-.013-.82.204-1.383.204-2.257.08-3.476-.4-.882-.307-1.934-1.107-2.86-1.838l-2.25-2.045a2.47 2.47 0 0 0-.819-1.634c0 1.03.093 1.918.207 2.86 0 1.152-.15 2.053-.4 3.068-.323 1.136-.774 1.558-1.634 2.453-1.224.254-2.307.408-3.68.408-1.476-.01-2.744-.25-4.1-.408l-2.045-1.023m21.8-1.45c-.73 2.284-3.306 3.468-3.8 4.096-1.158.28-2.146.6-3.476.615-1.195 0-1.327-.05-2.045-.615-1.184-.395-1.56-.718-2.045-1.43 0-.273.07-.204-.204-.204" class="C"/><path d="M231.665 281.294l-.204.204c.464-.464.24-.294-.204.82-.636 1.195-1.478 1.39-2.657 1.838-1.08-.162-1.502-.556-2.66-1.227-1.078-.604-1.894-1.64-2.657-2.657-.617-1.372-1.023-2.527-1.023-4.088-.283-.64-.38-1.425-.82-1.84v4.294c-.318.956-.36 1.703-.612 2.657-.17 1.245-.427 2.154-.82 3.068-.752 1.044-1.92 1.303-3.476 1.43-1.248.268-2.7.204-4.088.204-1.073-.127-1.717-.334-2.657-.612-1.083-.615-1.378-.803-2.25-1.84-.956-1.08-2.095-2.448-2.66-3.476-.323-1.144-.88-4.594-1.126-5.844 0-1.208.114 2.808.106 3.39-.297 1.83-.41 3.592-.41 5.52v3.27c-.212 1.354-.38 2.048-1.227 2.864-.59.662-1.698 1.486-2.25 1.838-.437.532-1.007.93-1.838 1.227-.898.493-1.756.697-2.66.82-.493.087-.837.39-1.227 0" class="C"/><path d="M232.3 290.062c-.485.705-1.412 2.286-2.254 2.46-.895.472-2.286.408-3.68.408-.983-.225-2.016-.172-2.453-.82-1.584-1.062-3.036-2.278-4.294-3.68a14.36 14.36 0 0 1-1.433-2.249c-.472-.162.058.472.207.82.744 1.094 1.234 2.196 1.43 3.476.262.978.262 2.28 0 3.065-.24 1.086-.562 1.857-1.43 2.66-.42.52-1.1.408-2.045.408-1.322-.167-2.38-.718-3.68-1.227-1.417-.837-2-1.08-2.657-2.453l-.615-4.702c-.026-.56-.04-2.813-.305-3.078-.3.76-.747 3.595-1.126 4.5-.24 1.314-.376 1.725-1.634 1.84-.668.326-1.6 0-2.66 0-.74-.252-1.216-.43-1.634-.82-.188-.347-.427-.47-.615-.82m33.528 2.666h-.204c.6 0 .238-.058-.4 1.02-.485.73-.636 1.624-.816 2.456.085 1.107.368 1.383.816 2.042 1.192.72 1.4 1.023 2.864 1.227 1.6.305 6.504-.106 8.1.2 1.256.18-3.547.925-4.013 1.025-.8.424-1.65.556-2.453 1.227l-2.657 2.045c-.207.8-.408 1.566-.408 2.657.278.697.652 1.327 1.023 2.045.755.795.988 1.253 2.042 1.637l4.906.204c1.637-.424 4.594-1.158 5.63-1.74.3 0-1.17.442-1.335.514-.686.342-1.364.866-2.25 1.634-.842.42-1.123.898-1.634 1.634-.532.683-.747 1.287-1.227 1.84-.143 1.052-.148 1.356.408 2.25.75 1.036.935 1.468 2.045 1.634a11.68 11.68 0 0 0 1.838 1.433c.5.223 3.515.244 3.3.6-.996.072-4.684.387-5.333.82-.834.294-1.078.65-1.227 1.634.042 1.168.26 1.45.816 2.25a4.33 4.33 0 0 0 1.637 1.43c.498.477 4.056 1.192 4.72 1.743.858.3-2.983-.3-3.698-.3-.58.3-1.764.204-2.66.204l-1.227 1.838c-.368.615-.085 1.33 0 2.045.535.575 1.274 1.8 1.637 2.453.673.458.834.86 1.838 1.227.413.453 4.154 1.9 4.83 1.952m-8.528-5.233v.207c0-.604.058-.24-1.023.408l-1.634 1.838c-.2.92.034 1.378.408 2.25a7.3 7.3 0 0 1 1.637 2.045c.95.87 1.597 1.388 2.042 2.045.617.185 2.842 1.136 3.492 1.54-1.155-.016-4.016-1.054-5.126-1.13-1.356 0-1.97.154-2.864.615-.368.6-.776 1.1-1.02 1.838-.254.718-.5 1.404-.615 2.25-.283.88.01 1.362.408 2.045.713.575 1.015.95 1.84 1.227.6.527 1.298.803 2.453.82.5.254 2.668.1 3.282.1-.707.46-2.885.906-3.7 1.126-.64.328-1.428.567-1.84 1.023-.442.7-.776 1.113-.82 2.246.342.856.86 1.648 1.84 2.456.9 1.025 1 1.23 2.25 1.634 1.06.5 5.412.048 6.57.098-1.025.154-5.515 1.404-6.57 2.15-.744.53-.784 1.13 0 1.838.503.898 1.08 1.362 2.045 1.637 1.1 0 1.584-.2 2.657-.204.943.1 4.405-.106 5.436-.106-.792.448-4.874.993-6.05 1.13-1.023.352-1.444.384-1.634 1.43 0 .943-.1 1.624.408 2.045.53.935.842 1.007 2.045 1.02.593.358 1.404.045 2.25 0h7.076M257 379.178c.617 0-6.32-8.867-9.158-7.93-1.306.223-2.154.24-2.657 1.227-.734.73-1.462 1.968-1.84 3.065-.098 1.107-.268 1.995 0 3.068.188.808.665 1.664.82 2.657.225.44.5 1.396.204 1.84-.146-.7-.352-1.134-.615-2.045-.24-1.555-.384-3.22-.612-4.702-.638-.482-1.4-1.242-2.25-1.84-1.152-.164-2.156-.196-3.068 0-.755.662-1.038 1.184-1.838 1.637-.657.217-2.337.363-3.274.408" class="C"/><path d="M218.79 294.99c.07 0-.042-.056.82 1.023.5.374.67.736 1.43 1.227.874.662 1.804 1.023 3.068 1.227 1.248.42 2.578.6 3.884.816 1.126 0 2.262.02 3.272-.204 1.17 0 1.775-.167 2.86-.204l.824-.3" class="C"/><path d="M235.77 306.434v.207c0-.554-.013-.27.204.816 0 1.232-.2 1.563-.615 2.25-.893.646-1.9.85-3.065 1.227-1.505-.066-2.805-.334-4.1-.816-1-.82-1.407-1.385-2.045-2.66-.665-2.024-1.205-3.582-1.227-5.725 0-1.18.032-2.082-.612-2.657-.313-.3-.344.532-.615 1.023-.1 1.23-.623 1.952-1.227 3.068-.744.718-1.616 1.55-2.657 2.25-1.076.238-1.452.42-2.453.204l-2.045-2.25c-.25-.956-.96-2.114-1.43-3.272-.44-1.1-.935-2.04-1.023-3.272-.4-1.13-.328-.975-.612.204-.6 1.295-.774 2.146-1.433 3.272-.856.665-1.64 1.253-2.86 1.637-1.428.215-2.36.1-3.68-.207-.996-.358-1.476-.797-2.045-1.634-.633-.623-.887-1.057-1.023-2.045-.416-.678-.866-2.146-1.227-3.065-.405-.493-.697-1.44-.82-2.25-.283-.233-.46-.668-.612-1.023m44.27 18.584c-.03.395-.453 3.115-.922 3.897-.556 1.168-.766 1.6-2.045 1.634-1.27-.204-2.26-.842-3.272-1.634-.845-1.068-1.68-1.873-2.246-3.065-.615-.506-.548-.797-.408 0 .652.668.596.646.612 1.838v3.068c-.013 1-.164 1.717-.4 2.453-.387 1.08-.834 1.62-1.838 2.453-1.166.26-1.36-.164-2.25-.82-1.1-.442-1.518-.842-2.25-1.43-.58-.58-1.18-1.287-1.637-2.045-.1-.816-.204-1.616-.204-2.657 0-1.023.824-3.486.824-4.5-.156-1.25-1 1.06-1.64 1.852-.527 1-1.197 1.796-1.84 2.25-.858.797-2.188 1.16-3.476 1.43-1.2 0-2.186-.185-3.272-.4-.713-.985-.962-1.54-1.43-2.453 0-1.274.185-2.146.408-3.27.215-1.065.5-2.895.514-3.995 0-1.1-.2 1.208-.514 1.746-.268 1.2-.548 1.274-1.43 2.042a24.08 24.08 0 0 1-3.272.207c-1.24 0-2.368.1-3.476.408-.763-.268-1.166-1.343-1.634-2.25-.265-.795-.4-1.55-.408-2.657 0-1.054-.244-1.674-.4-2.453-.466 1.038-.887 1.12-2.042 1.227-.673 0-1.47.074-1.84-.207-.4-.654-.938-1.258-1.227-1.838L201 302.95l-2.154-3.28" class="C"/><path d="M244.354 318.1c0 .196-.1 1.303-.204 1.84-.368.845-.5 1.6-.615 2.657-.01 1.012-.164 1.72-.408 2.453-.474.65-1.038 1.007-1.634 1.43-1.383 0-1.8-.127-2.864-.816l-2.453-1.84c-.585-.985-1.195-1.756-1.84-2.657l-.72-.72c-.416-.87.46.482.72 1.54.3 1.078.4 2.03.4 3.27-.037 1.306-.273 2.395-.4 3.682-.554 1.094-.575 1.332-1.838 1.43-1.335 0-2.6-.02-3.884-.204-1.258-.193-2.204-.54-3.272-1.227-.273-.713-.4-1.613-.4-2.66.016-1.245.305-2.3.4-3.476l1.023-3.065c.334-.448.527-.932.612-1.637-.183 1.27-.858 2.164-1.227 3.272-.65 1.22-1.674 2.47-2.25 3.68-.78.747-1.06 1.044-1.838 1.43-.922-.138-1.343-.485-2.045-.816-.4-.588-.877-.93-1.227-1.84-.646-.9-.805-1.32-.82-2.657v-2.453c-.085-.26-1.076-3.825-1.335-3.9m-.093-.01c-.318.204-1.658.588-2.657.612h-3.68c-1.195-.1-1.083-.56-1.433-1.43a10.84 10.84 0 0 1-.612-3.068c-.177-.988-.694-1.083-.82-1.936-.588.38-.617-.117-1.632.098-1.407.215-2.535.514-3.886.816-1.264.175-2.405.395-3.68.4-1.2 0-2.122.114-2.657-.615-.342-.686-.397-1.637-.408-2.657 0-1.15.127-2.262.408-3.068.42-.776.96-1.603 1.634-2.25a5.45 5.45 0 0 1 1.433-1.431c.42-.62.948-.853 1.227-1.634.5-.405.736-1.033 1.023-1.637" class="C"/><path d="M188.5 302.248c.366.085 3.084.7 3.7 1.13 1.004.56 1.396 1.195 2.042 1.838.323.683.538 1.306.82 2.25.156.78.204 1.817.204 2.864-.38.628-.742 1.674-1.023 2.453a3.63 3.63 0 0 1-1.634 1.431c-.985.758-2.7 1.44-4.1 2.045l-2.86.204c-1.023 0-2.148.617-3.17.617-.988 0-2.403-.127-3.065.204-.302 0-.156.048-.4-.204m38.558 5.92c-.082 0-.644.657-1.227 1.02l-1.227 2.25c-.352.956-.538 1.693-.612 2.66v2.86c.01 1.073.204 1.547.204 2.657v5.725m5.3-14.322c0 .4-.246 3.778-.003 4.5.066 1.24.416 1.934.82 2.86.638.495 1.486 1.632 2.25 2.453a4.18 4.18 0 0 0 2.249 1.227c1.184.236 2.125.4 3.065.207.77-.336 1.944-.996 2.864-1.433l1.43-3.065c.35-1.078.376-2.193.408-1.84.434.352 1.248 1.325 1.637 1.84.866.522 1.717 1.136 2.453 2.042.766.853 2.003.57 3.174.6" class="C"/><path d="M222.473 340.766c0-.07 2.408 3.086 3.277 3.086.946.236 2.016.374 3.068.41 1.256-.016 2.22-.328 3.272-.82.85-.9.612-2.24.612-3.68v-3.068c-.024-.837-.28-1.494-.408-2.25.188 1.327.827 2.432 1.227 3.68.456.985 1.886 4.596 3.27 4.808.628.76 1.23.368 1.84-.514 1.107-.726 1.39-4.13 1.84-4.702 0-.575.148-.532.204-1.023" class="C F"/><path d="M222.05 348.528c0 .07 1.59 1.407 2.67 2.056 1.118.842 1.295 1.023 2.66 1.023.925-.175 1.295-.887 2.042-1.637 1.044-1.017 1.285-1.83 1.023-3.27-.04-1.115-.344-2.895-.612-2.45.472.617.91 1.518 1.227 2.04.42.623.72 1.06 1.634 1.227.538.456 1.314.747 2.25.82.495.37 1.13.244 1.43-.204.69-.3 1.203-.62 1.637-1.023.196-.65.538-1.05.816-1.634" class="C"/><path d="M237.6 347.733v.204c0-.55-.013-.273.204.816l.207 3.476c-.297 1.227-.5 2.11-1.227 2.864-.694.347-1.92.188-2.864 0-1.234-.556-4.46-2.87-4.906-3.884-.302-.175 2.668 2.07 3.068 2.657.46.7.8 1.237 1.02 2.045.2.593.342 1.9.207 2.246-.17 1.115-.56 1.083-1.433 1.433-.885.22-1.86.204-2.86.204-.91-.125-1.423-.42-2.25-.615l-.3-.207" class="C F"/><path d="M241.493 356.713v1.023c-.238.943-.347 1.788-.615 2.453-.2 1.152-.697 1.203-1.43 1.84-.906.225-1.936.24-2.657 0-1.293-.774-1.966-1.187-2.864-2.25-.898-.898.384.514.82 1.227.707.625 1.126 1.07 1.227 2.25.244 1.22.3 1.738-.4 2.453-.506.726-1.272 1.094-2.453 1.43h-2.86c-1.08-.24-.975-.556-1.43-1.227m15.64-3.052c.05.4-.016 2.114-.103 3.068-.792 1.317-.8 1.375-2.25 1.84-1.18.16-2.395.204-3.68.204-.864-.302-1.494-.882-2.045-1.84-.805-.604-.254.238 0 .82.427 1.107.787 1.828 1.023 3.068.072.845.52 1.105-.408 1.227-1.033.3-2.114.408-3.272.408-.893-.122-1.897-.095-2.662-.305m6.324-1.63c.074.352.466 1.044 1.025 1.534.408.85.954 1.197 1.634 1.634.72.408 1.242.803 2.045 1.023 1.134 0 1.627-.215 2.453-.408 1.232-.42 1.272-.636 1.84-1.433.392-.638.686-1.08.816-2.042.294-.588.2-1.656 0-2.25-.082-1.08-.538-1.45-.816-2.25-.3-.098-.384-.82-.617-1.13m-36.38-48.772l-.204.204c.485-.485.286-.252-.82.4-.996.268-1.4.583-1.838 1.227-.932.514-1.58.972-1.84 2.045v2.86c-.223.744-.204 2.013-.204 3.068 0 1.1-.13 2.032-.204 3.065.143.668.54 1.624.3 2.254-.077-.893-.514-2.093-.514-3.07-.374-.543-.784-1.754-1.227-2.25-.6-.5-1.195-.736-2.25-1.023-1.1-.363-1.8-.225-2.453.408-.47.5-1.036 1.3-1.433 2.25-.223 1.123-.572 1.746-.612 2.86-.23 1.073-.408 1.722-.204 2.66v3.065c0 .954.207 2.22.207 3.174-.13 1.513-.5-.236-.82-.72-.22-1.025-.442-1.86-1.023-2.453-.514-.62-1.364-.816-2.453-.816-1.044 0-1.627-.244-1.838.612-.302.604-.355 1.976-.4 2.864v5.722c-.175-1.086-.6-1.58-1.227-2.453-.713-.82-1.282-1.038-2.657-1.227-1.335-.323-1.995-.2-3.068.4-1.028 1.004-1.706 1.346-1.838 2.453-.416.5-.503 1.438-.615 2.25v3.065c0 .57-.842-.62-1.43-1.43-.686-.943-1.094-1.184-2.25-1.227-.784.403-2.344 1-3.065 1.634-.522.42-.4 1.102-.4 2.045v2.864c-.056.7-1.118.7-1.634.204-.758-.374-1.754-.887-2.657-1.023-.78-.368-1.428-.453-2.045-.204-.318 1.033-.615 1.85-.615 3.065-.313.84-.408 1.454-.408 2.453" class="C"/><path d="M214.5 322.38c-.07 0 2.744-.927 2.676-.927.572 0-2.612.9-3.698 1.335-.827.302-1.72 1.197-2.453 2.045-1.682 1.502-3.72 3.764-5.317 5.52-1.478 1.483-2.53 2.498-3.476 4.088-2.042 1.62-3.555 3.17-5.314 5.113l-5.52 4.292-5.317 2.453c-1.738.58-3.237 1.35-4.906 2.045a8.93 8.93 0 0 1-2.453 1.431l-4.702 2.453c-.612.416-1.036.97-2.045 1.433-.644.752-1.5 1.06-2.453 1.634l-3.68 1.227-3.68 1.43c-3.76 1.317-7.603 2.827-11.45 3.476-1.102.403-2.213.736-3.27.82-1.552.562-3.48.588-5.1.82l-3.27.816c-1.05.3-2.08.535-2.862.82-1.05.122-2.226.42-3.067.615-.996.294-1.42.6-2.25.816-.467.405-2.405 1.958-2.87 2.36m57.055-51.65c.12.392.4 1.63.4 2.66-.167.975-.366 2.193-.82 2.86-.366.917-1.54 1.78-2.25 2.453l-2.453.615c-1.054.077-3.444 2.384-4.6 2.47-.68.135-1.523.2-2.456.2-.3-.307-.4-.132-.816-.302.686.5.477.657.612 1.733 0 1.1.763 2.178.62 3.17-.252 1.208-1.295 2.676-2.14 3.152-1.033.64-1.942 1.036-3.068 1.433l-2.86.204c-.68 0-1.22-.037-1.637-.204m32.302-26.776v1.227c.268 1.34.464 2.276 1.43 3.272.683.917 1.775 1.634 2.86 2.25h3.068c.736-.127 2.376.127 3.18.103m-8.1-.097c-.07.066.48-.175.413-.106.5-.514-.34.045-1.436.922-1.232 1.046-1.762 1.507-2.045 3.068.016 1.174.265 1.5.615 2.25.257.9.755 1.754 1.43 2.25.273 0 .204.07.204-.204" class="C"/><path d="M184.962 322.17c0 .098.96.5 1.332 1.023 1.044.665 2.37 1.85 3.68 2.657 1.274.424 2.458.12 3.68-.408.813-.215 1.415-.5 2.045-1.227l.207-.207m-7.156 1.446c-.538.95-1.35 1.52-1.433 2.657 0 1.046.138 1.944.4 2.657.38.707.83 1.82 1.43 2.453.374.612.758 1.13 1.227 1.43-.363-1.004-1.282-1.783-2.25-2.657-.376-.43-.82-.612-1.227-.204-1.05.074-1.762.336-2.453.615a12.72 12.72 0 0 0-2.861 1.431c-.75.774-.82 1.2-.82 2.453l-.204 3.884c.315.26.38.453.408 1.023-.223-.858-.676-2.193-1.227-2.86-.5-.686-.845-.805-2.045-.82-1.038.2-1 .702-1.634 1.227-.62.898-1.05 1.18-1.43 2.25-.498 1.166-.615 2.15-.615 3.476.273 0 .615 2.127.615 1.854" class="C"/><path d="M179.53 325.454v.204c0-.546.04-.26-.615.612-.283.962-.408 1.494-.408 2.66.154 1.18.6 1.796.82 2.86.8.954 1.118 1.396 2.042 1.84.28.28.644.38.82.204m-8.38-1.042h-.204c.053.135 0 .9 0 1.43 0 .978-.082 2.008.204 2.864.204.832 1.356 1.147 1.846 1.637m-12.47-.818c0 .07.4-.48.4-.413 0-.57-.387.35-.82 1.436l-2.864 3.272c-1.256.392-2.05 1.152-3.272 2.045-1.332.755-2.63 1.192-3.884 1.838-1.368.575-2.954 1-4.498 1.43a18.34 18.34 0 0 1-4.498 1.023c-1.037.358-2.185.6-3.27.82l-3.885 1.43c-.943.326-1.464.514-2.25 1.023-1.23.424-2.43 1.242-3.68 1.84-.448.54-1.672 1.287-2.453 2.042-1.275.683-2.577 1.844-3.884 2.453-1.507.962-3.013 1.754-4.702 2.25l-3.884 1.84c-.92.625-1.86 1.523-2.862 2.25-.624.917-1.4 1.6-2.25 2.25-.662 1.224-1.744 2.164-2.658 3.065-.544.37-1.176.962-1.636 1.433-.628.646-1.23 1.224-1.84 1.634-.6.744-.938 1-1.84 1.43-.562.578-1.26.744 0 .82 1.17-.374 2.594-.376 3.884-.408 1.27-.276 2.746-.42 4.1-.615l3.884-.408c1.488.25 3.677-.4 5.316-1.023l3.884-2.25c.746-.52 1.392-.752 2.25-1.227.74-.2 1.438-.607 2.25-.82m40.472-31.89c0 .252.085 1.465.204 2.045.395 1.264.92 2.233 1.838 3.065.713.42 2.186.307 3.378.307" class="C"/><path d="M164.405 337.507c-.162 0-.1.482-.408 1.023 0 1.054.143 2.133.408 2.86 1.354.633 2.286.943 3.884 1.023.975-.074 1.523-.323 2.25-.612.638-.132-.215.493-.82 1.02-.856.858-1.242 1.584-.816 2.864.43.895 3.743 2.02 4.313 2.562m-13.103-6.447c-.207.954-.236 1.505.4 2.246.556.46 1.383.4 2.453.4l5.314-.4c.86 0-.707.117-1.023.207-1.028.36-1.558.474-2.25 1.02-1.1.448-1.64.96-2.657 1.84-.4.6-.6 1.4-.204 2.045.403.593.9 1.02 1.634 1.43.766.593.948.922 2.045 1.023h.408" class="C"/><g class="F C"><path d="M157.358 343.653c-.095.387-.514 1.02-.514 2.04.085 1.1.35 1.38 1.023 1.838.56.46 1.385.4 2.453.4h1.227c-.583.342-1.5.448-2.042.816-.644.44-.96.845-1.227 1.84-.016 1.142-.196 1.56 0 2.657.445.834.694 1.45 1.227 2.25.4.588 2.432 1.783 3.182 2.048m-10.953-10.64c-.187.86-.12 1.555 0 2.453.483.54.85 1.24 1.43 1.634.576.477 2.4.188 3.483.2.86.024 1.338.204.204.204-.546.522-2.17 1.163-2.46 2.254-.294.588-.198 1.653 0 2.25.08 1.04.386 1.415.614 2.246.548.575.8.893 1.634 1.23l-1.634-1.23c.548.575.8.893 1.634 1.23v.204c-.1-.254-.183-.464-.408-.615m-11.138-10.524c-.5.73-.77.98-.513 1.94.535.747 1.094 1.536 1.84 2.045 1.187 1.078 7.618-.456 8.534-.318.278.28-7.793 1.592-8.33 3.383-.222.73-.304 1.952 0 2.864.014 1.174.264 1.5.613 2.25.282.593.488.996 1.227 1.227-.273 0-.204.066-.204-.207M137.22 351c-.288.895.057 1.303.4 2.045.5.734 1.338 1.68 2.045 2.146.413.238 7.118-.313 6.995-.313l-8.018 2.46c-.423.82-.4 1.518-.4 2.657.083 1.073.158 1.534 1.022 1.84.577.286 1.7.35 2.453.408l1.442.3"/><path d="M131.498 353.35c0 .225-.333 1.205-.207 1.94.287.67.137 1.113.613 1.43.173.985.458 1.648 1.43 1.84 1.07 0 1.895.05 2.453-.41.842-.368 1.343-.69 2.045-1.02l-2.045 1.02c.842-.368 1.343-.69 2.045-1.02l3.81-1.134c-.63.458-4.674 2.103-5.444 2.36-.576.548-1.044.638-1.227 1.634-.12.898-.187 1.592 0 2.453l1.43 1.43"/></g><path d="M127.2 356.104c-.106.236-.613 1.147-.613 2.042.1 1.097.428 1.282 1.022 2.045h2.862c.797.143 3.106-.827 3.998-.827-.896.196-3.135 1.404-3.6 2.053-.55.22-.55.548-.614 1.227-.317.53-.196 1.5 0 2.045l1.227 1.634m-9.402-7.358c0 .302.076 1.63.205 2.25l2.25 1.634c1.005.04 5.15-1.852 6.262-1.852.793 0-4.013 2.175-4.218 2.262-.412.67-.736.978-.818 2.045-.373.62-.114 1.552 0 2.246.327.506.66.755 1.227 1.023-.273 0-.205.07-.205-.204m-10.02-6.73c0 .07.013-.066-.205 1.023-.4.535-.05 1.036.4 1.433.587.8 1.527.98 2.453 1.227.914.162 1.845.204 2.862.204.773 0 3.703-1.923 4.107-2.265-.677.273-3.98 2.403-4.925 2.673-1.145.525-1.452.964-1.84 2.045.043 1.166.363 1.446.818 2.25.413.766 2.186-.06 2.87.395M112.9 364.9v.204c0-.6.035-.262-.614.82-.207.95-.27 1.483.4 2.045.5.74.853 1.078 1.84 1.227.32.138 5.326-2.678 5.862-2.678-.806.55-6.443 3.8-6.884 4.723-.387.8-.4 1.476-.4 2.453m-5.528-3.47c0 1.07-.052 1.894.4 2.453.112.935 2.08 1 2.773 1.327" class="C"/></g></g></svg>