<svg xmlns="http://www.w3.org/2000/svg" height="480" width="640" xmlns:v="https://vecta.io/nano"><defs><clipPath id="A"><path fill-opacity=".67" d="M0 0h682.6v512H0z"/></clipPath></defs><g fill-rule="evenodd" clip-path="url(#A)" transform="matrix(.93759 0 0 .9375 0 -.000001)"><path fill="#b20000" d="M.001 0h1024v340.1H.001z"/><path fill="#429f00" d="M.001 340.1h1024V512H.001z"/><path fill="#fff" d="M.001 0h113.37v512H.001z"/><g fill="#b20000"><path d="M5.394 8.682h5.4v8.678h-5.4zm16.206 0h16.196v8.678H21.6z"/><path d="M26.983 0h5.4v8.678h-5.4zM53.98 0h5.4v8.678h-5.4zm21.6 8.682h16.196v8.678H75.57z"/><path d="M80.98 0h5.4v8.678h-5.4zM16.196 17.36h10.797v8.678H16.196zm16.196 0H43.2v8.678H32.392zm37.785 0h10.797v8.678H70.177z"/><path d="M86.373 17.36H97.17v8.678H86.373zm-75.586 8.68h10.797v8.678H10.787zm27 0h10.797v8.678H37.786zm26.998 0H75.58v8.678H64.784z"/><path d="M91.767 26.04h10.797v8.678H91.767zM102.57 8.682h5.4v8.678h-5.4zM5.394 34.718H16.2v8.678H5.394zm37.786 0h10.797v8.678H43.18z"/><path d="M97.175 34.718h10.797v8.678H97.175zM10.787 60.75h10.797v8.678H10.787z"/><path d="M16.196 69.43h10.797v8.678H16.196zm21.6-8.68h10.797v8.678H37.786z"/><path d="M32.392 69.43H43.19v8.678H32.392z"/><path d="M21.6 78.107h16.196v8.678H21.6z"/><path d="M26.983 86.784h5.4v8.678h-5.4zm37.8-26.032H75.58v8.678H64.784z"/><path d="M70.177 69.43h10.797v8.678H70.177zm21.6-8.68h10.797v8.678H91.767z"/><path d="M86.373 69.43H97.17v8.678H86.373z"/><path d="M75.57 78.107h16.196v8.678H75.57z"/><path d="M80.98 86.784h5.4v8.678h-5.4zm-27-8.677h5.4v8.678h-5.4zm-53.98 0h5.4v8.678H0zm107.963 0h5.4v8.678h-5.4zm-80.98 43.4h5.4v8.678h-5.4z"/><path d="M21.6 130.174h16.196v8.678H21.6z"/><path d="M16.196 138.852H43.2v8.678H16.196zm64.784-17.355h5.4v8.678h-5.4z"/><path d="M75.57 130.174h16.196v8.678H75.57z"/><path d="M70.177 138.852H97.17v8.678H70.177zm5.393 43.4h26.994v8.678H75.57z"/><path d="M64.784 147.53h37.8v8.678h-37.8zm-53.997 0h37.8v8.678h-37.8zm5.41 43.4h16.196v8.678H16.196z"/><path d="M10.787 182.242H37.78v8.678H10.787zm75.586-17.356h26.994v8.678H86.373zM80.98 190.92h16.196v8.678H80.98zm-59.38 8.677H27v8.678h-5.4z"/><path d="M86.373 199.597h5.4v8.678h-5.4zM0 164.886h26.994v8.678H0zm48.588 17.356h16.196v8.678H48.588z"/><path d="M53.98 190.92h5.4v8.678h-5.4zm-16.194-26.034h37.8v8.678h-37.8zm21.59-130.168h10.797v8.678H59.375z"/><path d="M48.588 43.395h16.196v8.678H48.588z"/><path d="M43.18 52.073h10.797v8.678H43.18zm16.195 0h10.797v8.678H59.375zM0 43.395h10.797v8.678H0z"/><path d="M5.394 52.073H16.2v8.678H5.394zm97.176-8.678h10.797v8.678H102.57z"/><path d="M97.175 52.073h10.797v8.678H97.175zM0 130.174h5.4v8.678H0zm107.963 0h5.4v8.678h-5.4zm-59.375 69.423h16.196v8.678H48.588z"/><path d="M43.18 208.276h10.797v8.678H43.18zm16.195 0h10.797v8.678H59.375z"/><path d="M37.786 216.954h10.797v8.678H37.786zm26.998 0H75.58v8.678H64.784z"/><path d="M32.392 225.63H43.2v8.678H32.392zm37.785 0h10.797v8.678H70.177z"/><path d="M26.983 234.3H37.78v8.678H26.983zm48.587 0h10.797v8.678H75.57z"/><path d="M16.196 242.987h16.196v8.678H16.196zm64.784 0h16.196v8.678H80.98z"/><path d="M91.767 234.31h10.797v8.678H91.767z"/><path d="M97.175 225.63h10.797v8.678H97.175z"/><path d="M102.57 216.954h10.797v8.678H102.57zM10.787 234.3h10.797v8.678H10.787z"/><path d="M5.394 225.63H16.19v8.678H5.394z"/><path d="M0 216.954h10.797v8.678H0zm21.6 34.71H27v8.678h-5.4zm64.773 0h5.4v8.678h-5.4zM53.98 225.63h5.4v8.678h-5.4zm-16.194 26.035h5.4v8.678h-5.4zm32.39 0h5.4v8.678h-5.4zm-16.197 0h5.4v8.678h-5.4zm-53.98 0h5.4v8.678H0zm107.963 0h5.4v8.678h-5.4zM53.98 130.174h5.4v8.678h-5.4zm-26.997-86.78h5.4v8.678h-5.4zm53.997 0h5.4v8.678h-5.4zM48.588 104.14h16.196v8.678H48.588z"/><path d="M37.786 112.818H53.98v8.678H37.786z"/><path d="M43.18 121.497h5.4v8.678h-5.4zM32.392 104.14H43.2v8.678H32.392z"/><path d="M37.786 95.463H53.98v8.678H37.786z"/><path d="M43.18 86.784h5.4v8.678h-5.4zm16.195 8.68H75.57v8.678H59.375z"/><path d="M64.784 86.784h5.4v8.678h-5.4zm5.393 17.356h10.797v8.678H70.177z"/><path d="M59.375 112.818H75.57v8.678H59.375z"/><path d="M64.784 121.497h5.4v8.678h-5.4zm21.59-17.357H97.17v8.678H86.373z"/><path d="M91.767 95.463h16.196v8.678H91.767z"/><path d="M102.57 104.14h10.797v8.678H102.57z"/><path d="M91.767 112.818h16.196v8.678H91.767z"/><path d="M97.175 121.497h5.4v8.678h-5.4zm0-34.713h5.4v8.678h-5.4zM0 104.14h10.797v8.678H0z"/><path d="M5.394 95.463H21.6v8.678H5.394z"/><path d="M16.196 104.14h10.797v8.678H16.196z"/><path d="M5.394 112.818H21.6v8.678H5.394z"/><path d="M10.787 121.497h5.4v8.678h-5.4zm0-34.713h5.4v8.678h-5.4zm-5.393 69.424h21.594v8.678H5.394zm26.998 0h21.594v8.678H32.392zm26.983 0H80.97v8.678H59.375zm26.998 0h21.594v8.678H86.373zM43.18 173.563h26.994v8.678H43.18zm-37.786 0h26.994v8.678H5.394zm75.586 0h26.994v8.678H80.98zm26.983 34.713h5.4v8.678h-5.4zM0 208.276h5.4v8.678H0zm5.394 295.05h5.4v-8.678h-5.4zm16.206 0h16.196v-8.678H21.6z"/><path d="M26.983 511.997h5.4v-8.678h-5.4zm26.997 0h5.4v-8.678h-5.4zm21.6-8.67h16.196v-8.678H75.57z"/><path d="M80.98 511.997h5.4v-8.678h-5.4zm-64.784-17.352h10.797v-8.678H16.196zm16.196 0H43.2v-8.678H32.392zm37.785 0h10.797v-8.678H70.177z"/><path d="M86.373 494.645H97.17v-8.678H86.373zm-48.587-8.682h10.797v-8.678H37.786z"/><path d="M64.784 485.963H75.58v-8.678H64.784zm26.983 0h10.797v-8.678H91.767zm10.803 17.364h5.4v-8.678h-5.4zM5.394 477.293H16.2v-8.678H5.394z"/><path d="M43.18 477.293h10.797v-8.678H43.18zm53.995 0h10.797v-8.678H97.175zM10.787 451.26h10.797v-8.678H10.787z"/><path d="M16.196 442.577h10.797V433.9H16.196zm21.6 8.683h10.797v-8.678H37.786z"/><path d="M32.392 442.577H43.19V433.9H32.392z"/><path d="M21.6 433.895h16.196v-8.678H21.6z"/><path d="M26.983 425.225h5.4v-8.678h-5.4zm37.8 26.035H75.58v-8.678H64.784z"/><path d="M70.177 442.577h10.797V433.9H70.177zm21.6 8.683h10.797v-8.678H91.767z"/><path d="M86.373 442.577H97.17V433.9H86.373z"/><path d="M75.57 433.895h16.196v-8.678H75.57z"/><path d="M80.98 425.225h5.4v-8.678h-5.4zm-27 8.67h5.4v-8.678h-5.4zm-53.98 0h5.4v-8.678H0zm107.963 0h5.4v-8.678h-5.4zM26.983 390.5h5.4v-8.678h-5.4z"/><path d="M21.6 381.84h16.196v-8.678H21.6z"/><path d="M16.196 373.157H43.2v-8.678H16.196zM80.98 390.5h5.4v-8.678h-5.4z"/><path d="M75.57 381.84h16.196v-8.678H75.57z"/><path d="M70.177 373.157H97.17v-8.678H70.177zm5.393-43.385h26.994v-8.678H75.57z"/><path d="M64.784 364.475h37.8v-8.678h-37.8zm-53.997 0h37.8v-8.678h-37.8zm5.41-43.375h16.196v-8.683H16.196z"/><path d="M10.787 329.772H37.78v-8.678H10.787zm75.586 17.352h26.994v-8.678H86.373zM80.98 321.1h16.196v-8.678H80.98zM0 347.124h26.994v-8.678H0zm48.588-17.352h16.196v-8.678H48.588z"/><path d="M53.98 321.1h5.4v-8.678h-5.4zm-16.194 26.024h37.8v-8.678h-37.8zm21.59 130.17h10.797v-8.678H59.375z"/><path d="M48.588 468.61h16.196v-8.678H48.588z"/><path d="M43.18 459.93h10.797v-8.678H43.18zm16.195 0h10.797v-8.678H59.375zM0 468.6h10.797v-8.678H0z"/><path d="M5.394 459.93H16.2v-8.678H5.394zm97.176 8.68h10.797v-8.678H102.57z"/><path d="M97.175 459.93h10.797v-8.678H97.175zM0 381.84h5.4v-8.678H0zm107.963 0h5.4v-8.678h-5.4zM43.18 303.738h10.797v-8.678H43.18z"/><path d="M59.375 303.738h10.797v-8.678H59.375zm-21.59-8.682h10.797v-8.678H37.786z"/><path d="M64.784 295.056H75.58v-8.678H64.784zm-32.392-8.682H43.2v-8.678H32.392z"/><path d="M70.177 286.374h10.797v-8.678H70.177zm-43.194-8.67H37.78v-8.678H26.983z"/><path d="M75.57 277.704h10.797v-8.678H75.57zm-59.374-8.682h16.196v-8.678H16.196z"/><path d="M80.98 269.022h16.196v-8.678H80.98z"/><path d="M91.767 277.704h10.797v-8.678H91.767z"/><path d="M97.175 286.374h10.797v-8.678H97.175z"/><path d="M102.57 295.056h10.797v-8.678H102.57zm-91.783-17.352h10.797v-8.678H10.787z"/><path d="M5.394 286.374H16.19v-8.678H5.394z"/><path d="M0 295.056h10.797v-8.678H0zm21.6-34.713H27v-8.678h-5.4zm32.38 26.03h5.4v-8.678h-5.4zm0 95.466h5.4v-8.678h-5.4zM26.983 468.6h5.4v-8.678h-5.4zm53.997 0h5.4v-8.678h-5.4zm-32.392-60.737h16.196v-8.678H48.588z"/><path d="M37.786 399.19H53.98v-8.678H37.786z"/><path d="M43.18 390.5h5.4v-8.678h-5.4zm-10.788 17.363H43.2v-8.678H32.392z"/><path d="M37.786 416.543H53.98v-8.678H37.786z"/><path d="M43.18 425.225h5.4v-8.678h-5.4zm16.195-8.682H75.57v-8.678H59.375z"/><path d="M64.784 425.225h5.4v-8.678h-5.4zm5.393-17.352h10.797v-8.678H70.177z"/><path d="M59.375 399.19H75.57v-8.678H59.375z"/><path d="M64.784 390.5h5.4v-8.678h-5.4zm21.59 17.363H97.17v-8.678H86.373z"/><path d="M91.767 416.543h16.196v-8.678H91.767z"/><path d="M102.57 407.873h10.797v-8.678H102.57z"/><path d="M91.767 399.19h16.196v-8.678H91.767z"/><path d="M97.175 390.5h5.4v-8.678h-5.4zm0 34.715h5.4v-8.678h-5.4zM0 407.873h10.797v-8.678H0z"/><path d="M5.394 416.543H21.6v-8.678H5.394z"/><path d="M16.196 407.873h10.797v-8.678H16.196z"/><path d="M5.394 399.19H21.6v-8.678H5.394z"/><path d="M10.787 390.5h5.4v-8.678h-5.4zm0 34.715h5.4v-8.678h-5.4zm-5.393-69.42h21.594v-8.678H5.394zm26.998 0h21.594v-8.678H32.392zm26.983 0H80.97v-8.678H59.375zm26.998 0h21.594v-8.678H86.373zM43.18 338.442h26.994v-8.678H43.18zm-37.786 0h26.994v-8.678H5.394zm75.586 0h26.994v-8.678H80.98zm26.983-34.704h5.4v-8.678h-5.4zM0 303.738h5.4v-8.678H0zm48.588-43.395h5.4v8.678h-5.4zm10.787 0h5.4v8.678h-5.4zm0-17.356h5.4v8.678h-5.4zm-10.787 0h5.4v8.678h-5.4zm-37.8 234.306h10.797v8.678H10.787zm75.586-164.885h5.4v-8.678h-5.4zm-64.773 0H27v-8.678h-5.4zm26.985-8.674H64.78v8.678H48.585z"/></g></g></svg>