<svg xmlns="http://www.w3.org/2000/svg" xmlns:xlink="http://www.w3.org/1999/xlink" height="480" width="640" xmlns:v="https://vecta.io/nano"><style><![CDATA[.B{fill-rule:evenodd}.C{fill:none}.D{stroke:#000}.E{stroke-width:1pt}.F{fill:#006a00}.G{fill:#fff}.H{stroke-width:1.646}.I{stroke-width:1.501}.J{fill:#520900}.K{fill:#ffc600}.L{fill:#af8000}.M{fill:#00cfe6}.N{stroke-width:1.796}.O{stroke-width:1.25}.P{stroke-width:1.733}.Q{stroke-width:1.648}.R{stroke-width:1.723}.S{stroke-width:1.659}.T{stroke-width:4.501}.U{stroke-width:6.528}.V{stroke-width:1.448}.W{stroke-width:1.09}.X{stroke-width:.638}]]></style><defs><clipPath id="A"><path fill-opacity=".67" d="M0 0h640v480H0z"/></clipPath><path id="B" d="M200.16 613.18l4.7-7.064-12.952-2.355 9.42-9.42-12.952-4.7 12.952-9.42-12.952-7.065 14.13-5.887-7.064-11.774 14.13 2.355-5.887-14.13 16.484 7.065v-18.84L231.95 544.9l9.42-16.484 7.065 15.306 14.13-16.484 4.7 12.952 21.193-10.597-5.887 16.484 22.37-9.42-4.7 18.84 21.194-9.42-8.242 17.662 21.194 1.177-17.662 10.597 17.662 7.064-16.484 9.42 14.13 11.774c-45.135 20.8-79.673 27.473-131.87 9.42z"/><path id="C" d="M463.363 596.99c0 9.78-5.154 17.7-11.512 17.7s-11.512-7.93-11.512-17.7 5.154-17.7 11.512-17.7 11.512 7.93 11.512 17.7z"/><path id="D" d="M244.77 87.42c7.322-5.947 11.157-3.718 17.65 3.102 9.323 9.815 41.318 58.855 46.313 63.018s4.24-6.417 10.344-1.387c3.032 3.727-10.437 17.026-13.737 14.57-6.41-5.02 3.915-5.374-.354-9.643-4.925-5.133-51.215-40.497-60.282-50.57-5.92-6.578-6.314-13.97.067-19.087z"/><path id="E" d="M371.33-24.98c0 3.22-4.1 5.828-9.158 5.828s-9.158-2.61-9.158-5.828 4.1-5.828 9.158-5.828 9.158 2.61 9.158 5.828z"/><path id="F" d="M336.6 432.28c70.866 70.867-14.03 141.73-53.15 141.73s-124.02-70.866-53.15-141.73c-17.717 70.867 53.15 88.583 53.15 124.02-.001-35.433 70.866-53.15 53.15-124.02z"/><path id="G" d="M336.6 432.28c35.433 124.02-53.15 106.3-53.15 141.73 0-35.433-88.583-17.717-53.15-141.73"/><path id="H" d="M239.6 381.52c0 7.316-1.58 13.246-3.532 13.246s-3.532-5.93-3.532-13.246 1.582-13.246 3.532-13.246 3.532 5.93 3.532 13.246z"/></defs><g clip-path="url(#A)"><g class="B"><path fill="#c60000" d="M-40 0h720v480H-40z"/><path fill="#003bb2" d="M-40 68.57h720v342.86H-40z"/></g><g transform="matrix(.36443 0 0 .36443 185.28 33.681)"><path d="M745.98 566.137c0 207.84-168.5 376.32-376.32 376.32-207.84 0-376.32-168.5-376.32-376.32 0-207.84 168.5-376.32 376.32-376.32 207.84 0 376.32 168.5 376.32 376.32z" class="B G"/><g transform="matrix(1.27 0 0 1.2716 -11.328 -118.57)"><g class="D"><g class="B"><path d="M354.544 442.977c2.98.375 6.192.443 10.03 0 3.186.733 5.535 2.076 7.88 3.06 1.315 2.083 3.158 5.146 5.015 6.733.806 2.526 1.997 3.586 3.582 6.12.395 2.498 1.37 5.006 0 7.345-1.633 1.744-4.2 2.763-6.448 3.673-2.97 1.356-4.706 1.855-8.598 2.45-3.203.49-6.467.612-10.03.612-3.448-.526-6.107-1.014-9.314-1.224-3.2-.487-6.84-.738-10.03-1.225-2.07-1.035-4.744-1.884-7.165-2.448-1.68-1.37-4.114-2.924-6.448-4.285-1.803-2.758-3.444-3.752-5.015-6.12-1.427-1.792-2.104-4.106-2.15-7.345 1.13-1.965 2.995-3.87 4.3-5.51 2.236-1.262 4.764-2.937 7.88-4.285 4.2-.127 5.854-1.18 10.03-1.225h10.747c2.432.208 3.633 2.053 5.732 3.673z" fill="#030" class="I"/><path d="M328.75 535.406c-2.866-14.08-7.165-48.97-7.165-64.273.716-11.63 52.305-51.418 53.738-55.704s27.942-36.728 32.24-46.52c-10.747 6.733-28.66 36.115-32.24 39.176s7.88-30.606 4.3-41.01c-3.583 12.243-9.314 43.46-13.613 46.52-2.15 1.837-39.406 38.562-43.704 37.338s-15.762-7.345-13.613-11.018 30.808-26.32 32.24-34.28 3.583-26.933 6.448-28.77 7.165-11.018 10.747-18.364c-9.314 3.673-10.747 14.69-14.33 15.303s-12.18-12.243-12.18-12.243 5.732 14.08 6.448 17.14-2.866 23.26-5.015 25.71-17.912 19.588-20.778 20.2-10.747-28.157-10.747-33.666 5.732-26.933 0-28.158c-3.583 0-4.3 25.097-6.448 25.097s-7.165-25.097-7.165-25.097-2.865 11.63-1.433 19.587c-4.3.612-15.762-14.7-15.762-14.7s21.494 31.83 25.794 33.054c4.298 1.836 8.597 25.097 7.88 26.32s-21.494-6.12-25.793-8.57-12.897-29.382-12.897-29.382 4.3 26.32-.716 22.65-12.896-6.734-17.195-12.243-2.15-28.158-2.15-28.158-7.165 20.2-10.03 20.2-12.18-26.933-12.18-26.933 1.433 29.382 5.732 31.218 68.78 38.562 69.5 42.238 8.598 17.75 12.897 22.036c-.717 7.958 2.866 59.376 4.3 71.618l12.896 3.673z" stroke-width=".533" class="J"/><g fill="#030"><g class="I"><path d="M204.802 362.8c.796 2.36 1.088 4.465 5.015 5.5l8.598 2.45c2.256.913 4.793 2.056 7.88 2.448 2.32.66 6.273 1.342 9.314 1.837 3.203.5 6.467.612 10.03.612 4.112-.628 5.943-1.26 8.597-3.06.796-2.495 1.87-3.614 2.15-6.734.244-2.92.716-5.448.716-8.57-.663-1.7-.77-5.646-1.433-7.346-2.4-2-3.034-3.18-7.165-4.285-3.217-1.243-6.156-1.224-10.03-1.224-2.995.853-6.602.612-10.03.612h-10.03c-3 .557-5.3 1.015-7.88 2.45-3.5 1.35-4.018 2.322-5.732 5.5-1.262 3.235-1.306 5.667 0 9.794zm1.43 25.096c0-1.022-2.6 1-3.583 1.836-2.32 1.387-3.3 3.24-3.583 6.734-1.077 1.908 0 5.04 0 7.957 0 3.375.027 5.73 2.15 7.346 2.4 1.266 3.567 1.836 7.88 1.836h20.06c2.537-.722 5.633-1.086 8.598-1.836 3.315-1.502 5.624-1.66 9.314-2.45 2.1-1.558 5.006-3.16 8.598-3.672 4.108-.167 6.565-1.393 9.314-3.06 3.535-.755 6.727-2.34 9.314-3.673 2.08-1.2 3.575-2.726 5.015-4.897 1.46-2.913 1.93-4.74-.716-7.958-5.225-1.623-2.628-3.38-6.45-4.897-1.748-.902-5.82-2.085-7.88-3.06-3.568.226-6.107.985-10.03 1.225-2.027.866-6.182.612-9.314.612h-11.46c-3.428 0-7.035-.24-10.03.612-2.87.668-4.296 1.78-7.165 2.448-1.9 1.098-4.95 2-7.165 3.06l7.165-3.06c-1.9 1.098-4.95 2-10.03 4.897z"/></g><path d="M271.43 340.57c1.426 0-2.237 1.248-3.583 2.088-1.726 2.215-1.925 4.21-2.866 6.265-1.104 1.8-2.464 4.097-2.866 6.265-1.35 2.35-2.1 3.206-2.15 6.265 0 2.407-.04 5.136.716 6.787 2.172 1.995 4.26 3.128 7.88 4.7 3.1.782 5.374 1.25 8.598 1.566h10.03c2.266.55 6.01.522 9.314.522 3.654-.995 5.038-2.26 8.598-2.61 3.922-.26 4.598-1.455 6.448-3.655 1.72-1.62 2.44-3.453 2.866-5.743 0-2.634-.323-4.9-.716-7.31-1.724-1.41-3.035-3.354-4.3-5.743-2.214-2.766-2.217-3.994-5.732-5.22-1.71-1.703-4.668-2.53-6.45-3.655-3.722-.194-6.548-.53-9.314-1.566-3.304 0-7.048-.028-9.314.522-2.595 0-4.495.18-7.165.522z" stroke-width="1.412"/><g class="I"><path d="M323.736 336.466c-.425 0-1.754 1.773-2.866 3.673-1.87 2.542-2.12 4.895-3.582 6.733-.572 2.736-.716 5.524-.716 8.57.325 3.056 1.375 4.162 3.582 5.5 3.32 1.6 4.9 2.357 8.598 3.06l9.314.612c3.428 0 7.035.24 10.03-.612 3.564 0 6.828-.124 10.03-.612 1.645-1.2 5.18-2.257 7.165-3.06 2.36-2.442 3.488-4.87 5.015-6.734 0-3.6.034-5.72-2.15-8.57-1.558-2.348-3.425-3.426-5.732-5.5-2.9-.86-5.326-2.645-8.598-3.06h-30.092zm53.734 18.364c-2.705.963-3.696 1.213-5.015 3.673-1.988 2.616-3.16 3.846-5.015 5.5-.426 2.45-1.567 5.102-2.866 6.734-.394 2.825-.717 5.482-.717 8.57 1.816 2.384 4.34 4.633 7.165 6.12 2.922.864 6.002 2.18 8.598 3.06 3.34.747 6.433 1.617 10.03 1.836 3.105.664 6.525.612 10.03.612 3.186-.6 5.916-1.28 8.597-3.06 1.434-1.9 3.08-4.06 3.583-7.346 1.185-3.038.232-7.007-1.433-9.794-.877-2.75-2.158-3.813-5.732-5.5-1.977-1.784-4.605-3.794-6.45-4.897-2.272-1.685-5.224-1.894-8.597-3.06-3.654-.694-4.878-1.592-8.598-1.836l8.598 1.836c-3.652-.693-4.876-1.592-12.18-2.448z"/></g><path d="M310.588 379.4c-4.146.986-6.075 2.175-9.062 3.795 0 2.52.594 4.045.906 6.167 1.886 1.35 3.888 4.06 5.437 5.218 1.182 1.94 3.766 3.457 5.437 4.744 4.185.887 8.433 1.55 12.687 2.372 5.006 0 8.217.587 12.687.95 3.79.66 8.35.474 12.687.474 4.434 0 8.76-.04 12.687.474 4.192.4 7.3 1.242 11.78 1.423l10.875-.474c4.173-.993 5.977-1.626 8.156-3.32 2.042-1.294 1.812-3.2 1.812-5.692.872-2.556 1.14-4.275-.906-6.64-.06-2.553-.99-3.752-1.813-6.167-1.635-1.712-3.072-2.464-6.343-3.32-2.973-1.085-7-1.71-9.968-2.846-4.045-.252-8.576-.584-11.78-.95-3.543-1.237-6.494-1.864-11.78-1.898-5.177-.322-7.617-.645-11.78.474-4.347.163-8.244.618-10.875 1.423-3.344.134-8.317.28-10.875.95-4.034 0-5.435.367-9.062.474l9.062-.474c-4.034 0-5.435.367-9.968 2.846z" stroke-width="1.629"/><path d="M299.376 422.162c-1.85-.232-7.434-.612-11.464-.612-3.764 0-6.824.213-10.03 1.224-3.43.565-5.974 1.488-8.598 2.45-2.174.88-4.713 1.776-6.448 3.06-2.132 1.238-3.928 2.33-5.732 4.897-1.926 2.36-2.127 3.882-3.583 6.734v8.57c.253 2.806.706 5.23 2.15 7.958 2.16 1.477 5.153 1.942 7.88 2.448 2.594.482 5.97 1.02 9.314 1.224 3.975 0 6.093.17 9.314 1.225 4.194-.133 4.994-.966 8.598-2.45 4.008-1.357 6.394-1.86 10.03-3.673 2.226-1.5 3.69-4.038 5.015-6.733 2.018-2.785 3.404-5.472 5.015-7.958.776-2.653.716-5.574.716-8.57-.956-2.3-2.475-3.274-4.3-5.51-1.986-1.856-2.87-3.29-4.3-4.897l4.3 4.897c-1.986-1.856-2.87-3.29-7.88-4.285z" class="I"/><path d="M366.197 412.993c3.823.313 7.943.37 12.866 0 4.087.613 7.1 1.736 10.1 2.56 1.687 1.742 4.05 4.304 6.433 5.63 1.034 2.113 2.562 3 4.595 5.12.507 2.09 1.756 4.187 0 6.143-2.095 1.46-5.386 2.31-8.27 3.072-3.81 1.134-6.036 1.55-11.028 2.048-4.108.41-8.295.512-12.866.512-4.423-.44-7.833-.848-11.947-1.024-4.092-.407-8.774-.617-12.866-1.024-2.657-.865-6.085-1.576-9.2-2.048-2.156-1.145-5.276-2.445-8.27-3.584-2.312-2.307-4.417-3.138-6.433-5.12-1.83-1.5-2.7-3.434-2.757-6.143 1.45-1.643 3.842-3.237 5.514-4.608 2.868-1.055 6.11-2.456 10.11-3.584 5.4-.106 7.508-.988 12.866-1.024h13.785c3.12.174 4.66 1.717 7.352 3.072z" stroke-width="1.675"/></g><g class="F"><g stroke-width="3.711"><use xlink:href="#B" transform="matrix(.355893 -.026641 .017799 .327569 244.350364 439.689873)"/><use xlink:href="#B" transform="matrix(.355893 -.026641 .017799 .327569 160.005738 437.2455)"/><use xlink:href="#B" transform="matrix(.355893 -.026641 .017799 .327569 291.211966 438.463782)"/><use xlink:href="#B" transform="matrix(.34617 -.100602 .067216 .318612 232.969354 478.932611)"/><use xlink:href="#B" transform="matrix(.355893 -.026641 .017799 .327569 322.453034 458.01877)"/><use xlink:href="#B" transform="matrix(.355893 -.026641 .017799 .327569 287.050662 461.689235)"/><use xlink:href="#B" transform="matrix(.355893 -.026641 .017799 .327569 124.601019 437.2455)"/><use xlink:href="#B" transform="matrix(.34617 -.100602 .067216 .318612 66.352463 477.714328)"/><use xlink:href="#B" transform="matrix(.355893 -.026641 .017799 .327569 155.844434 456.800488)"/><use xlink:href="#B" transform="matrix(.355893 -.026641 .017799 .327569 120.435804 460.463143)"/><use xlink:href="#B" transform="matrix(-.72305 -.030187 .040999 -.327382 472.447706 840.98884)"/></g></g><g stroke-width="1.551"><path d="M420.733 603.363c0 14.61-11.21 4.323-22.6 4.323s-21.616 11.37-23.58.001c0-5.966 15.14-15.13 26.53-15.13 8.443 1.08 21.617-2.723 19.652 10.808z" fill="#510800"/><path d="M197.127 600.413c0 14.61 11.21 4.323 22.6 4.323s21.616 11.37 23.58.001c0-5.966-15.14-15.13-26.53-15.13-8.443 1.08-21.617-2.723-19.652 10.808z" class="K"/></g><use xlink:href="#C" class="J N"/><g transform="matrix(-1.3489 -.25318 -.80105 1.3458 740.2 222.67)" class="E"><path d="M273.75 383.58c-2.737 4.56 42.976 12.952 57.694 22.37s14.718 10.008 21.194 14.718l1.765-2.944C350.87 414.193 315.91 391.37 292 383.58c-6.805-2.273-10.3-13.248-12.95-8.83l-5.3 8.83z" transform="matrix(-.72328 -.54505 .52 -.75812 322.39 677.92)" class="L"/><g fill="gray"><path d="M319.08 369.45l-25.315-5.887s-5.887 2.354-6.475 11.185 4.71 14.13 4.71 14.13l27.08-9.42V369.45z" transform="matrix(.84438 -.2975 .28383 .88505 -89.238 -64.18)"/><rect rx="3.532" transform="matrix(.84438 -.2975 .28383 .88505 -19.207 -255.61)" height="19.428" width="7.065" y="534.62" x="175.71"/></g></g><use xlink:href="#D" transform="matrix(1.5444 .34619 .71895 1.1414 -105.28 167.64)" fill="#923d09" class="O"/><path d="M164.155 461.426c-4.315 1.952-12.012 20.346-14.925 20.2-4.622-.212-23.104-34.217-20.143-38.933 2.054-3.638 18.86 18.172 19.945 19.467.186-3.794 4.427-22.518 7.858-26.445 4.058-4.107 8.94-1.834 13.274-2.94 2.026-1.254 5.23-6.2 6.6-11.018-2.27-1.563-4.253-1.093-6.47-4.7-1.576-2.93-.66-20.696-.103-22.525 3.69-6.294-1.507-3.232 10.832-4.007 17.84-1.08 21.063 21.873 8.786 31.23.96 7.027 3.947 8.644 6.368 9.55 2.436.047 10.778-.337 15.42 5.5 9.272 10.83 2.477 13.634 4.26 15.793 1.99 2.5 4.96 8.747 6.076 12.488 2.907 2.204 27.616-2.204 32.34-.734 4.558.426 15.674 6.978 20.305 11.753-1 6.24-67.04-3.354-69.194-1.102-1.65 1.476.75 22.604-.558 24.24-.46 3.998-32.35 2.572-34.865 2.572-2.098-8.32-4.272-35.98-5.808-40.403z" class="K P"/><path d="M167.46 394.46c-.514 7.88 2.37 1.023 12.78 1.023 20.17-1.558 13.085 30.7 13.085 20.744 8.736-4.243 14.933-31.04-9.865-30-7.84 0-14.975 2.432-16.003 8.234z" class="Q"/></g><g class="C"><g class="H"><path d="M202.422 451.325c0 .74.075 3.5.364 5.142.194 1.65.672 3.563 1.1 4.775.15 1.964.913 2.283 1.1 4.408.674 1 .964 2.622 1.1 4.408 0 1.884-.3 3.334-.364 5.142-.2 1.57-.704 2.808-.727 4.775 0 1.926.002 3.33.727 4.408v2.57"/><path d="M204.242 442.5c-.253 0-.45 8.88-2.544 11.02-.453 1.417-1.996 3.24-2.544 4.407-.73 1.085-1.737 2.368-3.634 2.94h-5.087c-2.022 0-3.262.024-4.724-.735a3.42 3.42 0 0 1-1.453-1.47m-5.45 1.108h-.363c1.016 0 .477-.046-1.454.735-.753 1.12-1.645 1.6-2.907 2.204-1.3.647-2.8.735-4.724.735-1.832-.156-2.942-.744-3.997-1.47-1.765-.577-2.1-1.295-2.544-3.306v-5.142c.2-1.558.604-2.8 1.1-4.04.183-.555.364-.3.364-1.102M149 462.343c.185 0 1.157 1.136 1.817 2.204 1.12.405 1.4 1.64 1.816 2.57.292 1.18.727 1.26.727 2.94.732 1.636.962 3.1 1.1 4.775l-1.1-4.775c.732 1.636.962 3.1 1.1 4.775m15.98-41.872h.364c-.982 0-.48-.024 1.453.367.793 1.002 2.098 1.9 3.27 2.57 1.3.805 2.342 1.77 3.634 2.204l-3.634-2.204c1.3.805 2.342 1.77 3.634 2.204m17.076-6.61h-.364c.98 0 .482-.024-1.453.367-1.28.613-2.074 1.275-3.27 2.204-.563.854-1.42 1.017-1.817 2.57-.687.374-.927.737-1.1 1.836m-2.9-16.527h-1.817c-1.977 0-2.94.3-4.724.367-1.544-.187-1.912-.766-3.27-1.102m2.907 46.282c-.06.292-.72 1.878-1.1 2.57-.662 1.108-1.544 2.168-1.817 3.673-.422 1.282-.666 2.748-.727 4.407-.332 1.545-.552 2.92.364 4.04.392 1.452 1.122 2.5 1.816 4.04.485 0 .364-.123.364.367m12.73-18.364v.367c0-.992-.024-.487.363 1.47.5 1.77.938 3.26 1.817 4.408.48 1.453 1.015 1.987 1.1 4.04-.3.68-.364 1.44-.364 2.57m-1.1 2.205v1.837c-.396.534-.24.57-.727.735m30.885-20.57v.367c0-1.027.113-.413-1.817.367l-4.724.735c-1.166.58-2.298 1.535-3.27 2.204-.87.762-2.103 1.535-3.27 2.204-1.3.663-1.888 1.245-2.544 2.57-.396.534-.24.57-.727.735"/></g><path d="M190.912 402.933c-.084-.08-1.682-.845-3.406-1.102-1.23-.597-3.28-.326-4.54 0" class="R"/><g class="S"><path d="M179.44 401.83H179c1.192 0 .586.024-1.766-.367-1.846-.512-4.068-.367-6.18-.367-.623.173-.44.107-.44.735m9.266 5.142v.367c0-1.027.055-.48-.883 1.47-.34 1.307-.933 3.1-.44 4.04 1.158 0 1.516-.12 2.207-.367"/></g></g><g class="B"><use xlink:href="#E" transform="matrix(-.522389 -.075685 -.051982 .248352 366.211957 450.139312)" class="T"/><g class="U"><use xlink:href="#E" transform="matrix(-.37807 -.049704 -.037621 .163104 322.695217 425.197704)"/><use xlink:href="#E" transform="matrix(-.37807 -.049704 -.037621 .163104 311.218492 424.089779)"/></g><g class="H"><path d="M191.524 458.854c0 .913.813 1.653 1.817 1.653s1.817-.74 1.817-1.653-.813-1.653-1.817-1.653-1.817.74-1.817 1.653zm-24.71 2.756c0 .6.57 1.102 1.272 1.102s1.272-.493 1.272-1.102-.57-1.102-1.272-1.102-1.272.493-1.272 1.102z"/></g></g><g class="C H"><path d="M176.624 422.676v.367c0-1.233-.086-.454 1.817 1.47 1.625.788 2.254 1.618 2.907 2.938.76 1.7 1.022 2.917 1.1 4.775v2.938m6.17-12.854c-.252 0-.645 1.003-1.1 2.204-.8.966-1.325 2.36-1.453 4.04 0 1.994-.34 2.847-.364 4.775v1.47m-34.15 30.85c0 .212 1.135.642 1.817 1.47 1.38.2 2.603.367 4.36.367.267-.404.8-.537 1.454-.735"/></g><g transform="matrix(-.45148 0 0 .28623 377.8 437.15)" stroke-width="3.75" class="B G"><path d="M379.65 174.84l88.253 1.665v11.656s8.325 14.986 13.32 48.29 9.99 158.2 9.99 158.2l21.646 141.54s-13.32 21.647-23.312 19.982-39.963-13.32-39.963-14.987-1.665-79.926-4.995-133.2-9.99-81.592-24.977-104.9c-19.982 48.288-21.647 98.243-19.982 98.243s1.665 39.963 3.33 69.936-1.665 71.6-1.665 71.6l-58.28-3.33 3.33-64.94c1.665-28.307 6.744-41.625 8.326-73.266 1.748-34.963 4.202-53.32 6.66-109.9 3.238-45.74 14.687-75.258 17.9-103.24.87-7.133-.416-12.488.416-13.32z"/><path d="M419.62 304.72s-8.326-13.32-11.656-36.633-3.33-28.307-3.33-28.307M401.3 371.33l-10 39.963M439.6 363l11.657 54.95m39.963 138.2l-11.66-81.6m-99.9-291.395l88.253 1.665M421.28 303.05c0-1.665 4.995-29.972 4.995-29.972"/><path d="M387.98 183.165l-8.326 84.922"/></g></g><path d="M549.2 538.58c0 136.98-111.05 248.03-248.03 248.03S53.15 675.56 53.15 538.58 164.2 290.55 301.18 290.55 549.2 401.6 549.2 538.58z" stroke="#006a00" stroke-width="6.25" class="C"/><path d="M572.613 485.435c31.205 26.575-6.178 53.15-23.404 53.15s-54.61-26.575-23.404-53.15c-7.802 26.575 23.404 33.22 23.404 46.507 0-13.287 31.205-19.93 23.404-46.507z" class="B F"/><path d="M572.613 485.435c15.603 46.508-23.404 39.862-23.404 53.15 0-13.287-39.007-6.644-23.404-53.15" stroke-width=".545" class="C D"/><g transform="matrix(.048683 -.43764 .3727 .041459 101.59 391.74)"><use xlink:href="#F" class="B F"/><use xlink:href="#G" class="C D E"/></g><g transform="matrix(.065626 .43542 -.37081 .055888 496.64 630.62)"><use xlink:href="#F" class="B F"/><use xlink:href="#G" class="C D E"/></g><g transform="matrix(-.43948 -.027465 .02339 -.37427 165.81 724.76)"><use xlink:href="#F" class="B F"/><use xlink:href="#G" class="C D E"/></g><g transform="matrix(.42862 -.1009 .085927 .36502 368.06 294.31)"><use xlink:href="#F" class="B F"/><use xlink:href="#G" class="C D E"/></g><g transform="matrix(-.093297 -.43034 .36648 -.079453 77.137 459.54)"><use xlink:href="#F" class="B F"/><use xlink:href="#G" class="C D E"/></g><g transform="matrix(.20956 .38727 -.32981 .17846 510.01 563.07)"><use xlink:href="#F" class="B F"/><use xlink:href="#G" class="C D E"/></g><g transform="matrix(-.42532 .114 -.09708 -.36222 228.08 741.59)"><use xlink:href="#F" class="B F"/><use xlink:href="#G" class="C D E"/></g><g transform="matrix(.37184 -.23586 .20086 .31667 300.35 309.04)"><use xlink:href="#F" class="B F"/><use xlink:href="#G" class="C D E"/></g><g transform="matrix(-.1933 -.39564 .33693 -.16462 59.409 521.4)"><use xlink:href="#F" class="B F"/><use xlink:href="#G" class="C D E"/></g><g transform="matrix(.3114 .31132 -.26513 .2652 504.67 508.8)"><use xlink:href="#F" class="B F"/><use xlink:href="#G" class="C D E"/></g><g transform="matrix(-.38583 .21221 -.18072 -.32858 278.58 752.08)"><use xlink:href="#F" class="B F"/><use xlink:href="#G" class="C D E"/></g><g transform="matrix(.29698 -.32512 .27688 .25291 238.82 318.87)"><use xlink:href="#F" class="B F"/><use xlink:href="#G" class="C D E"/></g><g transform="matrix(-.29029 -.3311 .28197 -.24722 63.292 583.37)"><use xlink:href="#F" class="B F"/><use xlink:href="#G" class="C D E"/></g><g transform="matrix(.37605 .22908 -.1951 .32026 491.18 454.96)"><use xlink:href="#F" class="B F"/><use xlink:href="#G" class="C D E"/></g><g transform="matrix(-.31668 .30596 -.26056 -.26969 335.04 746.65)"><use xlink:href="#F" class="B F"/><use xlink:href="#G" class="C D E"/></g><g transform="matrix(.22802 -.3767 .32081 .19418 187.06 325.19)"><use xlink:href="#F" class="B F"/><use xlink:href="#G" class="C D E"/></g><g transform="matrix(-.38467 -.2143 .18251 -.32759 100.95 645.15)"><use xlink:href="#F" class="B F"/><use xlink:href="#G" class="C D E"/></g><g transform="matrix(.39973 .18469 -.15729 .34042 493.92 411.37)"><use xlink:href="#F" class="B F"/><use xlink:href="#G" class="C D E"/></g><g transform="matrix(-.19546 .39458 -.33603 -.16645 403.15 723.55)"><use xlink:href="#F" class="B F"/><use xlink:href="#G" class="C D E"/></g><g transform="matrix(.42973 .096064 -.08181 .36597 466.94 368.52)"><use xlink:href="#F" class="B F"/><use xlink:href="#G" class="C D E"/></g><g transform="matrix(.14298 -.41647 .35468 .12177 140.32 354.87)"><use xlink:href="#F" class="B F"/><use xlink:href="#G" class="C D E"/></g><g transform="matrix(-.11117 .42607 -.36285 -.094679 463.79 704.63)"><use xlink:href="#F" class="B F"/><use xlink:href="#G" class="C D E"/></g><g transform="matrix(-.4229 -.12268 .10448 -.36015 129.41 685.63)"><use xlink:href="#F" class="B F"/><use xlink:href="#G" class="C D E"/></g><g class="D"><g class="B"><path d="M447.937 464.05c4.315 1.952 12.012 20.347 14.924 20.202 4.622-.212 23.104-34.218 20.142-38.935-2.054-3.638-18.86 18.173-19.945 19.467-.186-3.795-4.427-22.518-7.858-26.446-4.058-4.107-8.94-1.834-13.274-2.94-2.026-1.254-5.23-6.2-6.6-11.02 2.27-1.563 4.253-1.093 6.47-4.7 1.576-2.93.66-20.697.103-22.526-3.69-6.295 1.507-3.233-10.832-4.007-17.84-1.08-21.062 21.874-8.786 31.232-.96 7.027-3.947 8.644-6.367 9.55-2.436.047-10.777-.337-15.418 5.5-9.272 10.832-2.477 13.634-4.26 15.794-1.99 2.5-4.96 8.747-6.076 12.488-2.907 2.204-27.615-2.204-32.338-.734-4.558.426-15.674 6.98-20.305 11.753 1 6.24 67.038-3.354 69.192-1.102 1.65 1.476-.75 22.604.558 24.242.46 3.998 32.35 2.572 34.864 2.572 2.098-8.32 4.272-35.98 5.808-40.404z" class="J P"/><path d="M444.64 397.083c.514 7.88-2.37 1.023-12.78 1.023-20.172-1.558-13.086 30.703-13.086 20.746-8.736-4.244-14.933-31.042 9.865-30.002 7.84 0 14.975 2.432 16.003 8.234z" class="Q"/></g><g class="C"><g class="H"><path d="M409.67 453.95c0 .74-.075 3.5-.364 5.142-.194 1.65-.672 3.563-1.1 4.775-.15 1.964-.913 2.283-1.1 4.408-.674 1-.964 2.622-1.1 4.408 0 1.884.3 3.334.364 5.142.2 1.57.704 2.81.727 4.775 0 1.926-.002 3.33-.727 4.408v2.57"/><path d="M407.85 445.135c.253 0 .45 8.88 2.544 11.02.453 1.417 1.996 3.24 2.544 4.407.73 1.085 1.737 2.368 3.634 2.94h5.087c2.022 0 3.262.024 4.724-.735a3.42 3.42 0 0 0 1.453-1.47m5.45 1.1h.363c-1.016 0-.477-.046 1.454.735.753 1.12 1.645 1.6 2.907 2.204 1.3.647 2.8.735 4.724.735 1.832-.156 2.942-.744 3.997-1.47 1.765-.577 2.1-1.295 2.544-3.306v-5.142c-.2-1.558-.604-2.8-1.1-4.04-.183-.555-.364-.3-.364-1.102m15.27 13.96c-.185 0-1.157 1.136-1.817 2.204-1.12.405-1.4 1.64-1.816 2.57-.292 1.18-.727 1.26-.727 2.94-.732 1.636-.962 3.1-1.1 4.775l1.1-4.775c-.732 1.636-.962 3.1-1.1 4.775m-15.978-41.874h-.364c.982 0 .48-.024-1.453.367-.793 1.002-2.098 1.9-3.27 2.57-1.3.805-2.342 1.77-3.634 2.204l3.634-2.204c-1.3.805-2.342 1.77-3.634 2.204m-17.077-6.6h.364c-.98 0-.482-.024 1.453.367 1.28.613 2.074 1.275 3.27 2.204.563.854 1.42 1.017 1.817 2.57.687.374.927.737 1.1 1.837m2.9-16.528h1.817c1.977 0 2.94.3 4.724.367 1.544-.187 1.912-.766 3.27-1.102m-2.907 46.282c.06.292.72 1.878 1.1 2.57.662 1.108 1.544 2.168 1.817 3.673.422 1.282.666 2.75.727 4.407.332 1.545.552 2.92-.364 4.04-.392 1.452-1.122 2.5-1.816 4.04-.485 0-.364-.123-.364.367m-12.73-18.364v.367c0-.992.024-.487-.363 1.47-.5 1.77-.938 3.26-1.817 4.408-.48 1.453-1.015 1.987-1.1 4.04.3.68.364 1.44.364 2.57m1.1 2.207v1.837c.396.534.24.57.727.735m-30.884-20.572v.367c0-1.027-.113-.413 1.817.367l4.724.735c1.166.58 2.298 1.535 3.27 2.204.87.762 2.103 1.535 3.27 2.204 1.3.663 1.888 1.245 2.544 2.57.396.534.24.57.727.735"/></g><path d="M421.186 405.548c.084-.08 1.682-.845 3.406-1.102 1.23-.597 3.28-.326 4.54 0" class="R"/><g class="S"><path d="M432.66 404.446h.442c-1.192 0-.586.024 1.766-.367 1.846-.512 4.068-.367 6.18-.367.623.173.44.107.44.735m-9.268 5.143v.367c0-1.027-.055-.48.883 1.47.34 1.307.933 3.1.44 4.04-1.158 0-1.516-.12-2.207-.367"/></g></g><g class="B"><use xlink:href="#E" transform="matrix(.522391 -.075687 .051982 .248358 245.888474 452.763727)" class="T"/><g class="U"><use xlink:href="#E" transform="matrix(.378063 -.049706 .037621 .163102 289.402649 427.81551)"/><use xlink:href="#E" transform="matrix(.378063 -.049706 .037621 .163102 300.884788 426.713696)"/></g><g class="H"><path d="M420.57 461.48c0 .913-.813 1.653-1.817 1.653s-1.817-.74-1.817-1.653.813-1.653 1.817-1.653 1.817.74 1.817 1.653zm24.7 2.757c0 .6-.57 1.102-1.272 1.102s-1.272-.493-1.272-1.102.57-1.102 1.272-1.102 1.272.493 1.272 1.102z"/></g></g><g class="C H"><path d="M435.47 425.3v.367c0-1.233.086-.454-1.817 1.47-1.625.788-2.254 1.618-2.907 2.938-.76 1.7-1.022 2.917-1.1 4.775v2.938m-6.17-12.855c.252 0 .645 1.003 1.1 2.204.8.966 1.325 2.36 1.453 4.04 0 1.994.34 2.847.364 4.775v1.47m34.15 30.852c0 .212-1.135.642-1.817 1.47-1.38.2-2.603.367-4.36.367-.267-.404-.8-.537-1.454-.735"/></g><g class="B"><g stroke-width="1.417" class="G"><path d="M405.704 489.804l39.844.477v3.336s3.76 4.29 6.014 13.822 4.51 45.28 4.51 45.28l9.773 40.513s-6.014 6.196-10.525 5.72-18.042-3.813-18.042-4.3-.752-22.877-2.255-38.13-4.51-23.354-11.277-30.026c-9.02 13.82-9.773 28.12-9.02 28.12s.752 11.44 1.503 20.018-.752 20.494-.752 20.494l-26.312-.953 1.504-18.588c.752-8.102 3.045-11.914 3.76-20.97.79-10.007 1.897-15.26 3.007-31.457 1.462-13.092 6.63-21.54 8.08-29.55.393-2.042-.188-3.574.188-3.813z"/><path d="M423.75 526.98s-3.76-3.813-5.262-10.485-1.503-8.102-1.503-8.102m-1.505 37.653l-4.5 11.44m21.786-13.826l5.263 15.728m18.047 39.562l-5.264-23.356m-45.108-83.407l39.844.477M424.5 526.502c0-.477 2.255-8.58 2.255-8.58"/><path d="M409.465 492.187l-3.76 24.307"/></g><path d="M172.264 598.47c0 9.78-5.154 17.7-11.512 17.7s-11.512-7.93-11.512-17.7 5.154-17.7 11.512-17.7 11.512 7.93 11.512 17.7z" class="K N"/></g></g><g transform="matrix(.43987 0 0 .51992 142.76 215.7)"><g class="B D"><g class="E M"><path d="M177.166 892.7s53.15-17.716 70.867-17.716 17.716 17.716 19.135 18.212l-1.42 34.937h-88.583V892.7zm88.584 88.6s0 17.716 17.717 17.716l53.15.001v-53.15H265.75V981.3zm336.6-88.4s-53.15-17.716-70.867-17.716-17.716 17.716-19.135 18.212l1.42 34.937h88.583V892.9zm-88.58 88.6s0 17.716-17.717 17.716l-53.15.001v-53.15h70.866V981.5z"/></g><path d="M478.35 981.5s0 17.717 17.716 17.717h-53.15L478.35 981.5z" class="E G"/><path d="M655.5 892.905l-124.02 53.15s42.047 33.3 82.68 35.433c20.67 0 41.34-35.433 41.34-35.433v-53.15z" class="M V"/><g class="E G"><path d="M513.78 910.627c-.7-8.858 2.214-35.434 19.93-35.434h-55.364c-17.717 0-35.434 17.717-35.434 35.434l1.42 35.432h69.448v-35.433zM301.18 981.3s0 17.717-17.716 17.717h53.15L301.18 981.3z"/></g><path d="M124.02 892.684l124.02 53.15s-42.047 33.3-82.68 35.433c-20.67 0-41.34-35.433-41.34-35.433v-53.15z" class="M V"/><g class="E G"><path d="M265.747 910.406c.7-8.858-2.214-35.434-19.93-35.434h55.364c17.717 0 35.434 17.717 35.434 35.434l-1.42 35.432-69.448.001v-35.433z"/><path d="M88.692 891.9c-.1 1.012 17.607-34.42 53.04-34.42s177.16 70.866 247.92 70.866c70.975 0 196.65-72.56 230.42-70.866s53.52 37.16 53.15 35.433-17.716 53.15-17.716 53.15c0-17.716-17.717-35.433-35.433-35.433s-106.3 70.866-230.42 70.866c-123.9 0-212.5-70.866-230.2-70.866s-35.433 17.716-35.433 35.433l-35.318-54.16z"/></g></g><path d="M566.02 926.934l-15.487-39.946 15.857-6.148 1.828 4.716-12.956 5.023 4.743 12.234 12.132-4.703 1.815 4.68-12.132 4.703 5.27 13.596 13.464-5.22 1.83 4.718-16.364 6.344zm-66.493 26.158l-15.487-39.946 2.9-1.125 13.658 35.227 10.802-4.188 1.83 4.718-13.702 5.312zm-20.127 7.985l-15.487-39.946 14.794-5.736 1.828 4.716-11.9 4.6 4.794 12.365 10.3-4 1.83 4.718-10.3 4 7.035 18.146-2.904 1.126zm-178.158.52l10.214-41.198 5.972 1.48-.134 30.926-.078 6.453 3.232-6.202 14.284-26.887 5.34 1.324-10.214 41.198-3.825-.948 8.55-34.484-17.263 32.324-3.58-.888.024-37.224-8.696 35.074-3.825-.948zm-1.747-45.17l3.776 1.567-9.4 22.648c-1.633 3.935-3.257 6.93-4.87 8.986-1.608 2.047-3.566 3.444-5.876 4.202-2.285.747-4.8.54-7.554-.603-2.67-1.108-4.597-2.637-5.77-4.616-1.175-1.968-1.63-4.302-1.365-6.993.272-2.7 1.27-6.135 2.993-10.3l9.4-22.648 3.776 1.567-9.388 22.62c-1.413 3.404-2.23 6.015-2.45 7.824-.2 1.795.082 3.36.834 4.702.77 1.338 1.96 2.348 3.58 3.02 2.78 1.153 5.112 1.113 7-.126s3.867-4.317 5.9-9.24l9.388-22.62zM223.52 889.1l2.827 1.307-10.4 22.464c-1.805 3.903-3.486 6.895-5.036 8.976-1.547 2.073-3.3 3.536-5.236 4.4-1.922.852-3.9.792-5.968-.16-2-.925-3.35-2.3-4.038-4.148-.694-1.84-.76-4.076-.208-6.697.56-2.64 1.792-6.014 3.698-10.135l10.4-22.464 2.823 1.306-10.377 22.437c-1.562 3.377-2.545 5.952-2.948 7.716-.387 1.75-.36 3.25.072 4.507.446 1.253 1.273 2.165 2.486 2.726 2.077.96 3.953.793 5.63-.515s3.64-4.4 5.9-9.283l10.377-22.437zm-50.42 6.978l2.862.806c-.776 2-1.224 3.742-1.352 5.215-.105 1.45.148 2.8.758 4.02a5.74 5.74 0 0 0 2.752 2.65c1.077.498 2.163.648 3.256.448s2.076-.715 2.938-1.54c.884-.837 1.604-1.86 2.158-3.057.567-1.225.864-2.377.9-3.456.035-1.097-.248-2.164-.856-3.195-.383-.673-1.36-1.885-2.93-3.637-1.558-1.778-2.558-3.222-2.992-4.348-.57-1.443-.773-3.002-.615-4.67.172-1.672.676-3.412 1.5-5.2.9-1.966 2.06-3.654 3.46-5.067 1.405-1.433 2.898-2.32 4.482-2.66s3.093-.18 4.53.485c1.582.732 2.76 1.843 3.53 3.336.8 1.48 1.1 3.273.907 5.376s-.78 4.312-1.785 6.613l-2.88-.88c.992-2.527 1.354-4.6 1.1-6.255-.254-1.645-1.202-2.84-2.843-3.6-1.7-.8-3.22-.797-4.537-.01-1.3.773-2.32 1.96-3.068 3.577-.642 1.4-.898 2.67-.76 3.825.123 1.16 1.113 2.74 2.96 4.762 1.867 2 3.068 3.546 3.594 4.648.76 1.62 1.065 3.368.914 5.25-.146 1.872-.7 3.842-1.665 5.93-.957 2.07-2.184 3.87-3.687 5.413-1.5 1.515-3.085 2.507-4.782 2.967-1.68.446-3.28.312-4.804-.393-1.93-.893-3.317-2.15-4.154-3.783-.827-1.628-1.14-3.635-.94-6.032.22-2.4.9-4.923 2.076-7.547zm408.182.472c-2.567-6.62-3.603-12.194-3.096-16.687.497-4.52 2.3-7.376 5.382-8.575 2.024-.785 4.2-.613 6.498.52s4.497 3.113 6.573 5.95c2.075 2.8 3.886 6.206 5.437 10.206 1.57 4.047 2.528 7.848 2.87 11.395.338 3.538.01 6.464-.994 8.752-1.013 2.27-2.473 3.77-4.38 4.508-2.065.8-4.258.6-6.6-.578s-4.52-3.182-6.576-6-3.767-5.984-5.126-9.5zm3.023-1.076c1.865 4.812 4.047 8.332 6.54 10.562 2.5 2.216 4.82 2.905 6.965 2.073 2.185-.847 3.437-2.942 3.753-6.293.336-3.338-.497-7.584-2.5-12.722-1.262-3.254-2.665-5.97-4.2-8.15-1.54-2.202-3.15-3.737-4.833-4.6-1.677-.895-3.24-1.065-4.686-.504-2.055.797-3.322 2.775-3.8 5.928-.483 3.136.44 7.712 2.77 13.717zm-43.76 40.866l-15.487-39.946 9.72-3.77c1.955-.758 3.582-.972 4.883-.64 1.3.318 2.6 1.263 3.906 2.845s2.392 3.466 3.246 5.667c1.1 2.835 1.522 5.417 1.27 7.757-.255 2.33-1.335 4.165-3.232 5.5 1.03.374 1.868.8 2.522 1.307 1.397 1.1 2.886 2.55 4.467 4.382l8.03 9.394-3.65 1.415-6.122-7.184-4.232-4.7c-1.04-1.056-1.88-1.76-2.516-2.093-.624-.337-1.2-.532-1.726-.554-.38-.003-.944.14-1.7.43l-3.366 1.305 6.88 17.745-2.902 1.125zm-5.75-23.44l6.237-2.418c1.325-.514 2.267-1.168 2.826-1.943.55-.803.8-1.816.776-3.058-.042-1.26-.315-2.538-.814-3.825-.73-1.884-1.7-3.294-2.94-4.218-1.22-.928-2.644-1.077-4.27-.447l-6.94 2.7 5.125 13.218zm-27.4 13.546c-2.567-6.62-3.606-12.193-3.1-16.686.498-4.52 2.292-7.377 5.382-8.575 2.024-.785 4.192-.614 6.498.52s4.5 3.112 6.576 5.948c2.074 2.8 3.883 6.207 5.434 10.207 1.57 4.047 2.53 7.847 2.87 11.394.34 3.537.01 6.465-.994 8.752-1.015 2.27-2.475 3.77-4.38 4.508-2.065.8-4.26.6-6.6-.577-2.326-1.18-4.52-3.182-6.574-6s-3.765-5.985-5.125-9.5zm3.022-1.075c1.865 4.812 4.047 8.332 6.54 10.562 2.5 2.216 4.82 2.905 6.964 2.074 2.185-.847 3.44-2.942 3.757-6.294.333-3.336-.497-7.584-2.5-12.722-1.262-3.254-2.667-5.97-4.212-8.15-1.54-2.203-3.15-3.737-4.83-4.6-1.677-.895-3.242-1.065-4.686-.504-2.055.797-3.324 2.775-3.8 5.928-.48 3.135.44 7.712 2.77 13.717zm-168.06 45.253l5.828-42.044 11.477 1.6c2.342.325 4.152 1.015 5.44 2.07 1.3 1.038 2.224 2.498 2.773 4.385a13.22 13.22 0 0 1 .444 5.704c-.25 1.796-.84 3.435-1.77 4.927a9.13 9.13 0 0 1-3.747 3.402c1.746 1.002 3 2.465 3.73 4.398.753 1.935.96 4.134.62 6.578-.272 1.963-.832 3.756-1.682 5.38-.83 1.595-1.755 2.798-2.774 3.587-1.018.8-2.234 1.34-3.647 1.625-1.4.276-3.077.284-5.025.014l-11.666-1.617zm7.427-23.82l6.618.917c1.796.25 3.104.26 3.928.054a4.5 4.5 0 0 0 2.606-1.78c.667-.898 1.1-2.088 1.304-3.56.193-1.394.118-2.655-.222-3.77-.34-1.14-.933-1.96-1.786-2.467-.85-.527-2.375-.942-4.573-1.247l-6.115-.848-1.76 12.7zm-2.7 19.414l7.618 1.056c1.308.18 2.237.24 2.785.186.963-.107 1.796-.38 2.496-.824.702-.453 1.322-1.157 1.864-2.112.55-.974.914-2.134 1.1-3.47.218-1.57.113-2.965-.312-4.195-.422-1.25-1.12-2.176-2.103-2.772-.963-.624-2.42-1.066-4.368-1.336l-7.077-.98-2.003 14.447zm31.25 9.537V933.32h13.7c2.75 0 4.844.385 6.278 1.156 1.432.756 2.58 2.095 3.435 4.027s1.284 4.06 1.284 6.397c0 3.012-.708 5.55-2.128 7.62-1.418 2.06-3.607 3.37-6.575 3.934 1.082.713 1.906 1.417 2.468 2.1 1.193 1.506 2.323 3.4 3.4 5.648l5.375 11.553h-5.14l-4.088-8.83-2.95-5.856c-.774-1.348-1.47-2.3-2.085-2.834-.604-.535-1.223-.92-1.856-1.13-.465-.14-1.223-.208-2.278-.208h-4.74v18.856h-4.088zm4.088-23.7h8.787c1.87 0 3.33-.268 4.383-.783 1.055-.545 1.85-1.387 2.403-2.547.547-1.18.82-2.457.82-3.825 0-2.002-.53-3.655-1.6-4.95-1.053-1.294-2.727-1.942-5.014-1.942h-9.78v14.045zm31.698 22.583l4.277-43.864 4.338-.77 19.853 39.6-4.586.813-5.8-12.036-12.718 2.253-1.098 13.256-4.274.757zm5.737-18.717l10.312-1.827-5.227-11-3.692-8.3a70.28 70.28 0 0 1-.226 8.271l-1.167 12.856zM221.3 933.08l17.984-38.885 8.006 3.703c1.634.756 2.754 1.757 3.366 3.008.63 1.235.84 2.8.635 4.7-.2 1.9-.696 3.723-1.523 5.5-.768 1.66-1.74 3.107-2.914 4.35s-2.47 2.076-3.888 2.522c.97 1.287 1.42 2.916 1.34 4.895-.07 1.985-.63 4.116-1.676 6.376-.84 1.815-1.838 3.414-2.996 4.796-1.135 1.36-2.212 2.327-3.225 2.883-1.015.566-2.094.85-3.236.85-1.13-.005-2.377-.317-3.736-.946l-8.138-3.764zm13.252-21.243l4.617 2.135c1.253.58 2.22.84 2.9.8.9-.058 1.74-.462 2.515-1.195.786-.728 1.494-1.777 2.124-3.14.596-1.3.95-2.503 1.06-3.63.118-1.15-.056-2.043-.525-2.688-.46-.663-1.456-1.35-3-2.06l-4.266-1.973-5.432 11.746zm-8.304 17.955l5.315 2.458c.912.422 1.583.655 2.008.708a4.12 4.12 0 0 0 2.122-.308c.668-.297 1.357-.85 2.072-1.653.723-.823 1.37-1.856 1.94-3.1.672-1.452 1.047-2.8 1.13-4.05.092-1.27-.126-2.284-.66-3.04-.512-.777-1.45-1.475-2.8-2.104l-4.937-2.283-6.18 13.362z"/></g><g transform="matrix(1.0891 0 0 1 -26.351 3.3302)"><g class="B D"><g class="W"><path d="M235.52 472.47v87.973c0 58.648 71.56 87.973 71.56 87.973s71.56-29.324 71.56-87.973V472.47H235.516z" fill="#00daec"/><path d="M235.52 472.47v87.973c0 7.33 1.118 14.204 3.075 20.62l68.486-35.28v-73.3h-71.56z" class="G"/><path d="M378.643 472.47v87.973c0 7.33-1.118 14.204-3.075 20.62l-68.486-35.28v-73.3h71.56z" fill="#fff300"/></g><g transform="matrix(.80784 0 0 .82759 63.772 114.72)"><g class="O"><use xlink:href="#D" transform="matrix(.63945 .23742 .1423 .70223 58.901 338.88)" fill="#923d09"/><rect ry="1.293" rx="2.606" transform="matrix(.75556 .65508 -.58585 .81042 0 0)" height="66.045" width="5.212" y="181.35" x="495.52" class="L"/><path transform="matrix(.83117 .55602 -.64108 .76747 0 0)" fill="#b0b0d4" d="M497.3 228.63h29.375v18.868H497.3z"/></g><g class="E"><path d="M385.112 528.567c4.885-2.106-27.333-35.603-33.785-51.842s-6.108-16.717-8.617-24.322l-3.152 1.36c.806 4.93 15.87 43.87 30.736 64.15 4.198 5.818.63 16.77 5.36 14.73l9.457-4.076z" class="L"/><g fill="gray"><path d="M341.548 453.55l-25.87 2.486s-4.83 4.107-2.574 12.665 8.965 11.892 8.965 11.892l22.668-17.557-3.19-9.486z"/><rect rx="3.532" transform="rotate(341.421)" height="19.428" width="7.065" y="534.62" x="175.71"/></g><g fill="#cf0000"><use xlink:href="#H" transform="matrix(.74465 -.71591 .63468 .39346 -105.9 523.83)"/><use xlink:href="#H" transform="matrix(-.97804 .31097 .027484 .7554 595.47 104.78)"/></g></g><path transform="matrix(.85897 -.51203 .49936 .86639 0 0)" stroke-width=".865pt" fill="#b0b0d4" d="M15.073 596.25H93.94v17.796H15.073z"/></g></g><g stroke="#0072ff" class="C"><path d="M262.565 618.287l6.814-5.847s1.364 7.308 5.452 7.308 6.815-6.334 6.815-6.334 0 6.334 4.543 6.334 8.177-6.334 8.177-5.846.454 5.846 4.088 5.846 8.177-5.36 8.177-5.36.455 6.334 4.543 5.847 5.452-6.82 5.906-6.334 3.18 6.334 6.36 5.846 7.724-5.36 7.724-5.36.908 5.847 4.543 5.847 4.997-5.36 4.997-5.36 1.817 4.385 4.997 4.385 8.177-4.872 8.177-4.872" stroke-width="1.067"/><path d="M273.027 627.057c2.536-1.137 4.597.162 7.608-6.334 0 3.4 2.38 7.796 6.66 7.796s7.134-6.334 7.134-6.334 0 6.334 4.756 6.334 8.56-6.334 8.56-5.846.475 5.846 4.28 5.846 8.56-5.36 8.56-5.36.476 6.334 4.756 5.847 5.707-6.82 6.182-6.334 3.33 6.334 6.658 5.846c2.377-.487 8.086-5.847 8.086-5.847" class="W"/></g><g class="B"><path d="M329.232 583.8v11.627h9.39l-3.38-11.627h-6z" stroke-width=".837" class="D G"/><path d="M342.006 589.975c-.376.364-15.026 7.994-34.184 7.994s-26.672-2.18-28.55-3.633-4.132-4.36-6.386-4.36-4.132 1.817-4.132 1.817 3.756 1.816 6.386 3.996 3.38 6.177 3.38 6.177l61.983.726s-.376-3.997-.376-6.177 2.254-5.45 1.88-6.54z"/><path d="M287.915 564.177h1.503v33.8h-1.503zm20.285-4.364h1.503v38.515H308.2zm19.908 6.542h1.503v31.6h-1.503z"/><g class="D G"><path d="M322.474 568.534h12.02v5.45h-12.02z" stroke-width=".643"/><path d="M321.72 573.62h13.9v5.45h-13.9z" stroke-width=".691"/><path d="M320.968 578.71h15.402v5.45h-15.402z" stroke-width=".728"/><path d="M301.48 563.812h15.2v7.73h-15.2z" stroke-width=".861"/><path d="M300.53 571.027h17.586v7.73H300.53z" stroke-width=".926"/><path d="M299.58 578.242h19.488v7.73H299.58z" stroke-width=".975"/><path d="M297.677 584.525h23.3v9.447h-23.3z" stroke-width=".824"/><path d="M283.665 568.534h10.058v6.427h-10.058z" class="X"/><path d="M283.033 574.533h11.63v6.427h-11.63z" stroke-width=".687"/><path d="M282.408 580.532h12.888v6.427h-12.888z" stroke-width=".723"/><path d="M281.15 585.753h15.402v7.854H281.15z" stroke-width=".611"/><path d="M272.02 590.222h6.302l6.762-20.598-13.064 20.598z" class="X"/></g><path d="M288.254 564.548l1.388.663-18.228 27.294-1.388-.663z"/></g><path d="M254.003 608.057l6.74-5.847s1.35 7.308 5.392 7.308 6.74-6.334 6.74-6.334 0 6.334 4.493 6.334 8.087-6.334 8.087-5.846.45 5.846 4.043 5.846 8.087-5.36 8.087-5.36.45 6.334 4.493 5.847 5.392-6.82 5.84-6.334 3.145 6.334 6.3 5.846 7.64-5.36 7.64-5.36.898 5.847 4.493 5.847 4.942-5.36 4.942-5.36 1.797 4.385 4.942 4.385 5.392-5.846 5.392-5.846.898 5.36 3.145 5.36 4.942-5.36 4.942-5.36.898 6.82 3.145 6.334 3.145-6.82 3.595-6.334 3.594 5.846 3.144 5.846" stroke="#0072ff" stroke-width="1.061" class="C"/></g></g></g></g></svg>