<svg xmlns="http://www.w3.org/2000/svg" xmlns:xlink="http://www.w3.org/1999/xlink" height="500" width="1000" xmlns:v="https://vecta.io/nano"><clipPath id="A"><path d="M376.5 307.82h244.2l.598 31.86-18.622 15.508-102.75 47.558-104-52.515c-11.8-5.607-19.55-17.815-19.55-30.9l.132-11.5"/></clipPath><g fill="#0d3692"><path d="M0,0V500H1000V0z"/><path d="M376.38 178.46v53.652h247.1V178.46h-247.1z"/></g><path d="M414.68 197.22l20.12 4.205 13.947 9.742 34.164-13.512 7.6-5.474 20.088 10.443 10.844 10.077 21.183-10.412 6.58 1.335 9.673 6.207 21.985-11.078 3.07 1.436 4.74.565 12.012 3.738 22.9 12.044.627 30.64-249.17-.803 1.004-27.765m.333 54.212v31.83h247.1v-31.83h-247.1z" fill="#bdbdbd"/><path d="M376.38 304.65v-31.83h247.1v31.83h-247.1z" stroke="#231f20" stroke-width=".609" fill="none"/><path fill="#fff" d="M374.8 94.604v80.773h250.24V94.604H374.8z"/><path fill="#feba35" d="M376.5 307.82h247.2l-.133 11.475c0 13.08-7.738 25.296-19.55 30.9l-104.1 52.55-104-52.515c-11.8-5.607-19.55-17.815-19.55-30.9l.132-11.5"/><path fill="#fc1921" d="M482.92 94.563h34.167v27.143h108.27v26.66h-108.27v26.978H482.92v-26.978H373.6v-26.66h109.3"/><path fill="#0b0b0b" d="M372.34 178.46h251.5l.18-5.108H372.35z"/><path d="M376.38 270.3v2.535h247.2V270.3h-247.2z"/><path fill="#0b0b0b" d="M376.38 304.65v3.173h247.2v-3.173h-247.2z"/><path d="M565.1 291c-1.67.97-3.438 2.065-4.34 3.867h-.395l-.7.237c-1.335.635-2.72 1.433-2.92 3-.2.038-.638.03-.868 0-1.168-1.768-3.74-1.938-4.34.395-.433.568-2.52.742-3.157.474-.966-.534-1.92-1.036-2.92-.868a2.13 2.13 0 0 0-1.342.71l-.08-.158c-1.566-.805-2.33-.82-3.867.08-1.035.74-1.414.653-2.683.8-2.47 1.067-1.556 2.863-.158 4.262l1.42-.158c2.2-.2 4.473-.145 6.708-.08h5.604c2.368-.366 4.846.1 7.182 0 12.508-.635 25.104-.183 37.646-.316 1.708 0 3.428-.092 5.13-.158 4.303-.234 8.524-.448 12.864-.08 1.77.23 2.5.183 3.315-1.42-.3-2.47-1.424-1.84-3-2.84-1.127-.736-1.8-.88-3.157-.947-.704.635-.723.925-1.657.8-1.635-.398-2.295-.84-3.867-.237l-.63.158c-2.67.303-6.087-.9-8.997-.8-.862.03-1.7.186-2.447.552-.3.035-.65-.104-.947-.237-1.373-.868-2.014-1.43-3.788-1.263l-.158-.158c-.963-2.67-2.406-3.8-4.972-2.2-1.667-1.17-3.444.515-4.578 1.58-.767-.565-2.485-.107-3.315.158-.54.135-.654.03-1.184-.237l-.947.237c-1.402-1.032-2.093-2.623-4.262-1.657-.366 0-2.118-2.538-2.683-3.078l-1.5-.395zm44.2-6.85c-.905-.055-1.8.396-2.762 1.263-.903.57-1.853.278-2.92.08l-.868.7-.237.08c-1.84.2-3.132-1.118-4.735.552-.537.398-1.2.474-1.894.474-2.134.03-4.783-1.16-6.314.7-1.105-1.102-3.068-1.752-4.34-.552h-.08c-.97-.234-2.203-.98-3.236-1.342-.638.767-.846 1.184-1.815 1.184-1.566-.136-2.734-.306-4.104.63-1.87 1.433-1.534 2.305-.63 4.104 2.807.603 5.575.272 8.445.474 2.137.3 4.095-.572 6.156-.237 2.04-.07 4 .5 5.92.7 1.17.132 2.3.173 3.552-.158.164-.07.78-.395.947-.395 2.895.767 5.613-.158 8.445.08 2.57.565 5.168-.005 7.734.158l1.657.237 2.84-2.368-.316-1.342-.237-.7c-1.2-1.97-2.84-4.227-5.446-3.157-1.067.666-.906.603-1.973.237l-.7.474h-.158l-.316-.237c-.803-1.017-1.7-1.603-2.604-1.657zm-34.26-9.25c-1.693-.13-3.9.564-5.288.8-2.57-.168-4.445-1.013-6.945-.08-1.203.666-3.924.316-5.288.316-2.507.098-5.285.474-6.55 2.84.398.868.72 1.27 1.42 1.973 4.77 0 9.588-.268 14.364 0 .3.233.944.53 1.342.63 2.005.37 4.02-.574 5.92.158 4.303-.732 8.356.053 12.628-.08 2.904-.33 6.238.635 9.234.237 1.007-.136 1.982-.38 2.92-.947 3.735 1.67 7.514.316 11.444.316l.947-2.84c-2.434-1.635-3.608-1.815-6.55-1.815-.63-.067-1.376-.306-1.973-.474-1.136.565-2.544.742-3.552 1.342l-.474-.237c-.963-.132-1.828-.568-2.762-.868-.726-.265-1.566-.426-2.368-.395-1.27-.363-2.043.158-3.078.8l-.474-.868c-3.438-.132-7.1.24-10.497-.395-1.27-.335-1.72-.688-2.92.08-.417-.292-.935-.43-1.5-.474zm-36.07 8.6c-1.038-.033-2.16.474-3.157 1.342-1.74-1.736-3.034-.938-4.735.395-1.234 1.97-3.375 1.878-5.446 1.58-.63.7-1.045 1.342-1.973 1.578-1.67-1.102-2.866-.344-4.5.158-.805.132-1.588-.158-2.525-.158-.87.03-2.497.887-3.236.8-1.4-.37-2.058.433-3.157.868l-.63-.474c-1.534.202-2.194-.03-3.63-.63-1.796-.5-2.674-.47-4.183.63-1.127.6-2.08 1.238-3.078 1.973v1.026l1.105 1.342c3.536.23 7.116.373 10.655.474 2.368 0 4.865.376 7.103-.158 2.194-.2 4.1.474 6.314-.395l8.287.552.7-.552c1.74-.635 4.196-.095 5.998.237 2.172.332 4.382.1 6.55-.08 1.537-.1 3.043-.142 4.578.158.47-.1.953-.126 1.42-.158 2 0 2.434-.486 3.394-2.3-.663-.764-.874-1.193-1.815-1.657-1.332-1.34-3.05-.606-4.183-1.342-.963-1.2-2.2-1.648-3.394-1.184-.4.17-.818.423-1.184.8-.436-.865-.818-1.7-1.42-2.526-.496-.067-.8-.14-1.105-.474-.783-1.234-1.725-1.782-2.762-1.815zm-51.3-8.43c-1.935.966-3.788.928-5.288 2.762l-.08-.316c-.966-.37-1.572-.66-2.604-.63-1.768-.095-3.78-1.746-5.446-.7-1.234.736-3.312-.13-4.578-.63-2.57 1.3-4.22 1.22-7.024.552-1.9 1.298-3.735 2.4-5.367 4.025l.474 1.105c1.234 1.837 2.548 1.1 4.42.8 5.502-.736 10.992.032 16.495-.237 1.506-.1 2.608-.2 3.473-1.5.67.666 1.105.92 1.973 1.184 4.7.268 9.58-.158 14.285-.158h.316c7.173-.167 14.64.227 21.783.395 1.765-.23 2.052-1.395 2.052-3-1.37-1.367-2.53-1.762-4.5-1.894-1.335-.2-1.367-.28-2.368-1.184l-1.105.316c-2.43.167-4.745-.998-7.182-.63-.502.1-1.045.445-1.58.474-1.402-.398-2.926-1.036-4.262-.237-.663-.164-1.272-.316-1.973-.316-.303.067-.57.17-.868.237-1.004.335-2 .755-3.078.552-2.6-.5-5.27-.947-7.97-.947zm11.03 17.53v-1.07l-.502.4.502.67m-.34 8.97v-2.17c-.167-.3-.474-.635-.84-1.168-.597.067-1.695.3-2.235 0-.994-.366-1.967-1-3-1.3-1.165-1.468-2.873-1.234-4.54-1.036l.03-.03.136-.7-.067-.837c-1.834-3.034-3.94-1.998-6.374-.496-1.332-1.036-2.103-.938-3.602-.272l-.335-.33-1.168-.9c-1.004.366-1.77.802-2.6.098-3.84-1.5-4.47 1.168-6.443 3.438-1.8-.903-3.567.6-4.937 1.566-.833.57-1.1.237-2.103-.2-.635.366-1.23.736-1.702 1.27-1.53-.635-3.2-.568-4.637.3-1.796-1.133-2.8-.067-4.536.534-2.2.736-5.206-1.133-4.903 2.87.63.6 1.3 1.2 2.166 1.402 5.708.1 11.482-.837 17.152-1.137 6.106-.13 12.315-.063 18.42-.063 4.874.164 9.875.098 14.746.098l1.37-.934m-92.788-5.233c.433.17 1.04-.464 1.468-.63 1.84-.5 2.97.398 4.64.666.7 0 1.4-.268 2.07-.433.833 2.166.73 1.9 2.933 2.267l.903.37.297.2c1.168-.37 3.34.23 4.407.704 2.27 1.332 1.234 3.068-.568 3.968-7.5-.265-15.248.363-22.7-1.004-3.068.404-6.64.035-9.774-.098-2.068-.067-2.573-.1-3.84-1.67.6-1.133.8-1.6 1.904-2.235.328-.167.732-.467 1.032-.6.63-2.204 3.034-2.036 4.87-2.036.568-.33 1.067-1.3 1.503-1.768 1.433-1.6 2.832-1.635 4.372-.1 2.567-.366 3.902.135 5.7 1.938.233.164.568.398.767.464"/><path d="M451.32 285.47c1.17-.303 1.335.066 2.336.534 1.335.464 2.77.833 4.167 1.137.704 2.232.136 2.7-1.733 3.3h-.4l-24.4-.066c-2.3.433-4.77-.13-7.072.167-3.068 0-6.377.502-9.307-.467l-.07-.03c-1.47.963-4.47.594-5.938-.237l-1.165-.868c1.032-2.235 1.765-3.135 4.066-3.937 1.102.33 2.002.5 2.97-.132 1.133-1.102 2.47-1.102 3.637-.066 1.736 1.2 3.432-.404 5.004-1.234.833-.338 3.438-.868 3.905.067 1.203-1.036 2.27-1.203 3.703-.404.534.568 2.04 2.103 2.9 1.534 1.468-2.232 3.337-1.566 5.038-.164.47.202.67.164 1.234.098.237.104 1.34.635 1.604.635 2.137-2.134 5.408.534 8.04.303.433 0 1.032-.1 1.468-.167m-43.427-9.513c1.266-.502 1.932-.568 3.337-.467.764 1.367.865.97 2.402 1.036 1 .2 1.332.833 2.235 1.032 1.904.167 2.87.436 4.634 1.27-.628 2.1-.764 2.57-2.832 2.87-1.673.934-4.975-.335-7.043.265l-.265.066c-1.203.603-4.104 0-5.64-.098-1.2-.067-2.17.067-3.267.436-3.337-.404-6.904-.167-10.247-.436-2.43 0-4.833.2-7.27.098l-.837-1.597.272-1.405 1.032-.565c.603-.135 1.468-.202 2.033-.335 1.77-1.935 4.84-2.17 7.176-2.9.534.366.77.635 1.335.7 1.635 0 3.106-.67 4.672.2 2.47-.97 4.54.934 6.768.5.502-.2 1.004-.433 1.506-.666"/><g fill="#0d6826"><path d="M609.6 278.8l-.34.93c-3.463 0-6.768 1.436-9.973-.164 0-1.935 2.305-1.27 3.473-2.204 2.27.868 4.802-.233 6.84 1.436M565.25 292.5c-1.534.868-3.198 2.02-3.63 3.788-1.5-.502-2.37.742-3.473 1.342-.167.568-.044 1.323-.7 1.657-.934.268-2.323.414-2.92-.8-.398-.265-1.247-.67-1.578 0-.335 2.103-2.658 1.806-4.262 1.973-1.102 0-2.232-1.657-3.394-1.026-.173.132-.385.32-.552.552-.5.5-1.326.253-1.657-.316-1.168-.934-2.393.534-3.394.868-.67.534-1.768-.205-2.368.63-.098.5.14.814.474 1.184 2.336-.335 4.922-.224 7.498-.158l5.2.08c2.203-.268 4.196-.268 6.393 0 13.28-.773 26.3-.306 39.225-.474 6.402.167 12.928-1 19.1 0l.474-.316c.265-.23.018-.68-.316-.947-1.433.1-2.248-1.588-3.788-1.42-1.332 1.705-3.435.26-4.972.158-4.136 1.872-8.325-1.165-12.4 0-2.434 1.27-3.293-2.008-5.76-1.105-1.496-.568-1.165-2.245-2.368-3.078-.938-.502-1.746.635-2.683.868-1.834-1.768-2.986 1.244-4.42 1.578-1.534-1.503-3.147.865-4.656-.237-1.93.736-2.34-1.626-3.946-1.894-2.37 1.537-2.986-1.73-4.42-2.762l-.7-.158z"/><path d="M539.13 284.78a1.79 1.79 0 0 0-.7.158c-.938 0-1.724.833-2.3 1.5-.77 0-1.3-.682-1.894-1.184-.833-.265-1.528.303-2.13.868-1.162 1.967-3.65 2.466-5.92 2.13-.773.93-1.818 1.487-2.92 1.42-1.698-1.604-3.27.723-5.2.395-1.935-1.206-3.435 1.086-5.367.316-1.105.265-2.37 1.8-3.473.63-2.34.502-3.55-1.537-5.92-.868-.938 1.036-2.336 1.137-3.236 1.973l.395.552c5.076.433 10.945.32 16.02.552 2.37-1.168 4.877.723 7.182-.7l8.13.474c1.537-1.2 3.962-.552 5.76-.552 2.567.97 5.158.423 7.734.158 1.566-.136 3.135-.132 4.735.237 1.102-.404 2.835.22 3.236-.947-.234-.366-.53-.552-.868-.552-1.2-1.702-3.968-.177-4.972-2.2-.865-.736-1.534-.454-2.13.08-.338.3-.597.68-.868.947-1.604-.502-1.42-2.223-2.3-3.157-1.613.058-1.6-2.255-3-2.2zm38.64-8.58c3.608 1.436 7.242.502 11.38.837 1.27 2.8 2.472-.934 4.237.098 1.705-.432 3.207 1.1 4.805 1.168.505.265.603.767.265 1.1-3.296 2.204-7.274.335-11.14.603-4.237.568-8.808-.868-13.18.167-2.365-1.036-4.836 1-6.94-.7-4.9-.335-9.376 0-14.28-.07-.234-.265-.67-.496-.335-.833 2.803-2.033 7.005-.93 10.3-1.433 2.7-1.866 5.67.837 8.543-.432 1.496 0 3.267-1.203 4.735 0 .67.335 1.004-.332 1.597-.502m35.483 10.867c1.5.868 2.434-1.5 3.87-.568 1.032 1.102 2.3 2.27 2.466 3.542l-1.768 1.433c-2.967-.502-6.102.433-8.808-.335-2.87-.268-5.973 1-8.773-.167-3.207 2.036-6.573-.436-10.143 0-1.503-.335-3.47.167-5.143.33-2.633-.6-6.005.17-8.707-.433-.167-.335-.597-.83-.167-1.168 1.6-2.636 4.57.338 6.24-2.036 1.367.436 2.97 2.036 4.142.502 1.796-.502 2.8 2.803 4.3.436 2.904-1.102 6.008 1.503 8.3-1.27 1.6-.268 3.435 1.102 4.87-.436 1.43.338 2.7.338 3.8-.833.707-.5 1.872-.934 2.535-.167.704 1 1.872 2.036 2.974 1.168M496.43 277.53c1.768-.17 3.533-1.77 5.237-.4 1.834-1.87 3.365.9 5.47-.37 2.87-.833 5.07 1.27 8.208.37 1.6 1.667 4.37.4 5.907 2.1.067.6-.268 1.102-.833 1.102-11.412-.33-22.222-.6-33.703 0-1.2-.33-2.7.237-3.57-.934.505-2.368 3.308-2.036 4.805-2.967 2.967 0 5.777.53 8.48 1.102m-21.23-.403c1.87 0 3.2 1.433 5.17 1.1.234.237.934 0 .837.57 0 .767-.603 1.266-1.272 1.53-7.106.67-13.843-.865-20.454.833a1.24 1.24 0 0 1-.666-.767c1.004-1.168 2.702-1.834 4.072-2.866 2.27.5 4.805.698 6.838-.5 1.77.666 3.87 1.266 5.474.098m.94 16.702c.76.436 1.203 1.534 2.298.93.568-.265 1.34-.666 1.935-.098l.837.6c1.768-.164 3.902-3.135 5.338-.502.328.938-1.203 1.77-.265 2.437 1.866.534 3.968-1.168 5.234.938 1.872.265 3.204 2.033 5.408 1.53.167.335.666.502.502.934l-.84.568c-9.64.167-18.913-.4-28.9 0-7.1-.4-13.417 1.367-20.858 1.102-.335-.067-.698-.335-1.032-.666-.237-.603.335-.77.698-.837 2.005.568 3.97-.335 5.74-1.2.666-.066 1.105.6 1.6.934 1.335-1.168 2.942-1.436 4.476-.67.83.767 1.168-.833 2.036-1.102 3.034 1.702 4.035-3.135 7.005-1.367h.335c1.765-1.335 2.633-5.237 5.4-3.772.837.903 2.036.568 3.04.237M400.37 295.1c2.64-.265 3.305 2.772 6.005 2.705 1.935-2.437 4.038.666 6.576-.268.6 2.466 3.24 1.2 4.57 2.633 1.6-.33 3.473 0 4.64.77.33.568-.404 1.004-.74 1.168-7.37-.335-14.976.436-22.316-1-3.473.33-7.5 0-11.15-.167-.332-.098-.76-.098-.93-.433.335-1.168 2.472-.938 2.702-2.636.93-1.234 2.204-.335 3.372-.74 2.368.07 2.8-5.4 5.433-1.765l1.837-.268m35.07-10.2c2.103-1.032 2.604 1.77 4.57 1.168.833.268 1.932 1.17 2.702.268.565-.767 1.935-.436 2.702-.268 2.005 1 4.473 1.17 6.573.603 1.534.833 3.204 1.27 4.805 1.604.338.565-.565.833-1.102.833l-24.558-.07c-2.3.565-4.57-.268-7.008.167-3.233 0-6.503.568-9.307-.6-1.503.833-4.14.998-5.405-.1.335-1 1.433-1.768 2.437-2.103 1.53.502 3.072.335 4.237-.93.934-.502 1.6.666 2.437.93 3.302 1.27 5.07-2.97 7.87-1.765.335.5 1.105.597 1.537.332.502-.767 1.503-1.27 2.27-.666 1.263 1.5 3.968 3.3 5.237.597m-36.007-7.2c2.702-1.768 5.07 1.367 7.873 0 1-.335 1.935-1.168 3.103-.934.6 1.465 2.305.868 3.473 1.203 1.2 1.5 3.637.666 5.004 1.6-.168 1.1-1.367.5-1.97 1-2.604.363-5.304-.736-7.507.433-2.702-.07-5.47-.934-8.1 0-2.77-.335-6.238 0-9.105-.335-2.702-.268-4.508.335-7.44.07-1.203-1.67 1.866-.736 2.6-1.67 1.6-1.702 3.97-1.702 6.008-2.37 1.87 1.604 4.4-.83 6.07 1.004"/></g><path d="M579.85 198.5l-11.917 6.077-30.7 15.864-3.788 1.973c-.404-.998-1.332-1.616-2.13-2.3-5.705-4.836-11.3-10-17.205-14.68l-1.026.158c-2.175.4-4.006 2.175-6.077 2.84-1.702 1.133-2.964 1.373-2.762 3.946l7.577 9.865c1.932 2.068 3.896.783 6.235.552 6.34 1.266 12.804 2.882 19.178 4.183l4.104.8c4.24 2.305 8.334 4.685 12.943 6.156l2.525.552c2.102.666 3.02.912 5.13.08.934-2.702-.436-3.125-2.605-4.025-2.668-.903-6.118-1.585-8.287-3.552 1.168-1.168 3.74-.584 5.2-.552l13.417.7c2.93.303 3.558-.117 4.893-2.92-3.533-2.235-7.3-4.05-11.05-5.92 3.542-.865 7.185-1.193 10.655-2.13 3.668 2.102 6.9 5.1 10.812 7.024 5.408 0 10.547 3.58 15.153-1.026.395-.3.893-.612 1.263-.947.66-.732.837-1.32 1.105-2.3l-1.184-1.026c-2.57-2-5.723-3.214-8.524-4.814-.136-.833.262-1.768.395-2.605 0-2.668-2.153-3.22-4.183-3.788-2.14-1.433-3.14-3.605-3.473-6.077-2.008-.833-3.378-1.998-5.683-2.13zm-42.65 5.62v8.675c.467-.63.565-1.534.698-2.702 1.136-.97 2.94-1.367 4.372-1.768.467.335.97.767 1.5 1.067l.67.234.698-.1c2.305-.2 2.876.07 3.975-2.402-2.137-2.13-4.24-4.202-7.04-5.405l-4.87 2.402"/><path d="M615.98 218.57c-1.465 1.203-4.404.3-5.872-.4-2.102-1.2-3.937-3.135-6.07-4.14-1.635-1.5-.938-3.132 1.035-3.8 4.1 1.67 8.142 3.97 12.1 5.973-.23 1.032-.3 1.768-1.203 2.368m-78.77-5.77v-8.675c-4.038 2.033-8.012 4.202-11.9 6.405.7 2 .966 2.636 2.6 3.804 1.796 1.367 2.368 2.27 4.805 1.067.7-.502 1.367-1.102 2.172-1.436 1.234-.164 1.93-.568 2.333-1.165m-151.34 5.3c-.77.736-1.37 1.348-1.736 2.447-.37 1.436-.657 2.6-1.263 3.946l1.5 1.736c1.036-.335 1.932-.657 3-.8 3.135 0 6.046 1.282 9.076 1.815l1.58.237 1.657-1.184c-.837-1.705-1.66-4.148-2.762-5.683-.167-.202-.272-.388-.474-.552-.565-.603-1.2-.988-1.973-1.42-2.876.2-5.67-.717-8.603-.552zm100.54-29.37c-16.318 8.4-32.305 17.934-48.617 26.44-4.84 2.402-9.625 5.5-14.6 7.577-2.47-.534-6.434-.385-7.498-3.157.732-.43 2.365-.376 3.236-.474 1.733-.202 2.42-.635 3.788-1.736.03-.868-.417-4.492.552-4.893 1.667-.868 3.36-2.027 5.13-2.762 2.437-.8 4.34-.316 4.34-3.552.265-.534 2.658-.152 3.394-.316 1.67.97 3.302 2.383 4.735.08.868-2.936-2.24-4.388-4.34-5.525-5.973-2.737-12.552-4.533-18.626-7.103l-1.263.8-.63.474c-6.472 3.536-13.202 6.85-19.573 10.655l-3.315 2.052c.73 1.635 1.247 3.74 3.315 2.84.066-.035.1-.044.158-.08 1.067-.268 1.332-.707 2.368.158-.205.635-1.47 1.673-1.973 2.2-.265.363-.417.726-.552 1.026-.335.77-.268 1.373 0 1.973.37.666.97 1.316 1.736 2.052 1.872 1.5 3.163.947 5.367.947l1.657 1.5c-.732 1.067-.685 1.43-.552 2.762l1.973 1.578c3.77 2.668 7.886 4.85 11.76 7.42l2.3.395 7.813-6.708c4.237-.3 8.55-1.08 12.786-1.578 2.166.7 5.05 3.258 7.42 2.3 2.166-.736 2.693-1.06 4.025-3l-.947-1.184c-1.137-1.3-2.983-2.254-4.42-3.157 1.2-.666 2.6-1.127 3.867-1.657 1.9-.87 2.53-1.067 4.5 0 1.032.597 2.384 1.26 3.55 1.657 3.068.534 2.958-2.38 4.025-4.183l5.84.947.7.63c1.768 5.035 6.46 4.562 10.497 6.63 2.87-.303 3.915-.23 5.446-2.762-1.866-3.14-4.06-6.115-6.393-8.918.666-.467 2.522-1.815 3.394-1.815 2.535 1.9 4.473 4.5 7.182 6.235 2.5-.17 4.846-.622 7.182-1.657.433-2.77.5-5.736-2.2-7.34-2.406-1.433-5.17-2.478-7.498-3.946 2.8-.603 5.493-1.626 8.13-2.762l.08-1.263c-.098-.903-.398-1.556-.63-2.3-.704-4.738-4.767-5.894-8.603-7.498z"/><g fill="#fff"><path d="M580.17 199.93l-42.934 21.94-3.394 1.894c-1.6 1.27-1.354-1.225-2.3-1.657-5.84-4.805-11.763-10.58-17.837-15.3-2.37.265-3.94 2.175-6.077 2.84-.732.6-2.472.953-2.13 2.3l7.34 9.47c1.6 1.768 3.605-.107 5.604.158l18.784 4.025c1.534.33 3.04.68 4.578.947 4.906 2.368 9.332 5.682 14.838 6.55 1.335.335 2.917 1.222 4.183.552.268-.5-.057-1.083-.552-1.184-3.64-1.77-7.93-1.894-10.734-5.13 0-1.5 1.582-1.847 2.683-2.447 5.34.33 10.942.445 16.18.947 1.667-.335 3.905.928 4.5-1.105-3.902-2.538-8.164-4.044-12.075-6.314l-.316-.474c4.243-1.768 9.348-1.957 13.812-3.157 3.877 1.935 7.065 5.234 10.97 7.103 4.565-.268 9.928 3.665 13.733-.474.666-.6 1.803-1.036 1.973-1.973-2.706-2.333-6.188-3.5-9.155-5.367-1.1-1.17.098-2.762 0-4.262-.672-1.37-2.125-1.48-3.394-1.815-2.106-1.433-3.84-3.858-4.104-6.393-1.433-.568-2.516-1.657-4.183-1.657zm-38.05 3.24l-4.893 2.447c-3.473 1.77-6.97 3.6-10.34 5.525.33 1.705 2.153 2.05 3.157 3.315 2.033.934 3.16-1.96 5.13-1.894 1.774-.234 1.102-2.147 1.5-3.078.136-.2.388-.385.552-.552 1.465-1.238 3.463-1.364 5.13-2.13.833.33 1.443 1.256 2.2 1.42 1.105-.234 2.7.212 2.92-.8-1.765-1.702-3.334-3.4-5.367-4.262z"/><path d="M615.6 216.9c0 .4-.436.568-.603.732-4.404 1.036-6.84-3.2-10.206-4.704-.508-.366-.34-1.203.23-1.266 3.637 1.436 7 3.536 10.58 5.237m-229.2 2.53c-1.5 1.036-1.14 3.28-1.973 4.814l.316.395c4.104-1.635 7.845.707 11.68 1.342a8.1 8.1 0 0 0 1.263.079l.316-.237c-.635-1.067-.98-2.336-1.58-3.473-.5-.966-1.155-1.834-2.3-2.368-2.803.164-5.032-.783-7.734-.552z"/><path d="M486.48 190.23c-16.984 8.672-34.32 19.03-51.3 27.702-3.87 1.97-7.68 4.622-11.917 6.156-3.47-.865-8.476-.313-9.076-5.05 1.872-1.932 5.294-.4 7.26-2.368.167-1.768-.575-3.86.63-5.13 2.765-1.335 5.376-3.523 8.68-3.788.9-.33.445-1.51.7-2.2.934-1.768 3.312-.568 4.814-1.105 1.032.366 2.223 1.695 3.157 1.263 2.873-3.372-13.85-7.785-21.388-10.89-6.708 4.142-14.75 7.68-21.625 11.917l-1.657 1.026.552 1.105c.338.335.77-.158 1.105-.158 1.37-.903 3.012-.23 3.946 1.105.1 1.503-1.818 2.5-2.683 3.946-.67 1 .65 1.847 1.42 2.683 1.2 1.27 3.283.63 4.893.63l2.604 2.368c.5.938-.975 1.525-.7 2.525 3.97 3.302 8.716 5.64 13.022 8.445l1.263.237 7.734-6.55c4.47-.33 8.92-1.244 13.496-1.578 2.166.666 3.864 2.257 6.235 2.525 1.165-.603 2.72-.625 3.394-1.894-1.607-2.1-4.2-2.71-5.998-4.577 2.2-1.667 5.042-2.383 7.577-3.552 2.137-.666 3.915 1.294 5.92 1.894 3.302 2.336 2.204-2.876 4.34-3.71l6.866 1.026 1.263 1.105c1.102 4.64 6.244 4.208 9.55 6.077 1.27-.268 3.097-.05 3.63-1.42-1.702-3.103-4.18-5.8-6.314-8.603v-.79c1.597-1.266 3.343-2.598 5.21-2.762 2.6 1.768 4.824 4.63 7.26 6.235 1.863-.268 3.85-.268 5.525-1.105.366-1.803.256-3.7-.947-4.972-3.204-2.033-7.144-3.245-10.18-5.683l.316-.552c3.135-.736 6.368-1.47 9.234-2.84.164-.998-.322-1.626-.552-2.29-.338-4.072-4.39-5.225-7.26-6.393z"/></g><path d="M486.72 188.5l-37.804 19.968-13.022-9.155-18.23-6.235-43.96 24.15 2.368 1.42 41.83-23.046 16.9 5.84 13.97 9.708 37.962-19.968 23.282 12.075 11.444 10.576 20.994-10.18 5.604.474 10.576 6.708 22.256-10.655 3.078 1.42 4.735.552 10.97 2.762 23.914 12.628 1.894-1.736-25.02-13.1-11.286-2.84-4.577-.552-3.71-1.736-22.098 10.576-9.944-6.235-6.787-.63-20.204 9.708-10.497-9.63-11.207-5.84-13.417-7.024z"/><path fill="#0d6826" d="M615.38 237.26c-9.44 1.566-18.417 4.637-27.525 7.406l-.237-.23-61.76-9.414c-8.407-1.03-17.016-2.1-25.492-2.368-8.87-.568-18.285-.335-27.19.3-11.176 1.168-22.326 2.77-33.236 5.708-6.3 1.5-12.74 3.536-18.913 5.57-9.48-3.5-19.12-6.97-29.028-9.105-5.51-1.506-11.68-2.305-17.32-2.907v39.443h249.97l-.063-35.503c-3.068.136-6.175.666-9.212 1.102"/><path d="M376.05 231.08c2.475.133 2.198.467 4.765.8 8.208 1.3 16.22 3.302 24.128 5.638 27.623 8.7 54.116 22.556 83.147 26.026 5.544.534 10.942.7 16.482.6 16.852-.833 33.1-4.502 49.245-9.34 9.682-3.002 19.557-6.308 29.135-9.578 13.04-4.37 28.38-8.773 42.156-10.01l-1.233 2.07c-31.534 1.367-76.26 29.298-123.87 29.298-44.008 0-79.542-27.727-123.62-32.968"/><path d="M422.63 245.13l-3.334-1.367c9.505-3.27 19.248-5.94 29-8.142 9.742-1.97 19.488-3.406 29.43-4.006 10.98-.53 21.99-.196 32.936.7 23.386 2.27 46.64 6.54 69.834 10.042l7.573 1.137.464.903-3 1.1c-68.5-10.1-102.67-20.45-162.9-.36"/><g clip-path="url(#A)"><g id="B"><g id="C"><g id="D"><path d="M385.887 395.38v6.87l8.038-.035v-6.94c3.005-3.3 5.44-9.038 5.44-11.11l-.028-53.12c0-.07.028-.164.028-.265V317.77l-.732-.635-3.1 3.267c-.098 0-.167.038-.272.038-.736 0-1.468-2.336-2.8-5.408s-2.005-4.07-2.535-4.07c-.6 0-1.203 1-2.535 4.07s-2.07 5.408-2.8 5.408c-.132 0-.272-.038-.376-.038l-3.065-3.267-.732.635v66.396c0 2.07 2.466 7.908 5.47 11.213"/><g fill="#ffeb43"><path d="M387.517 402.2h.568v-5a3.65 3.65 0 0 0 1.803.467c.603 0 1.27-.202 1.87-.537v5.07h.5v1.54h-4.74v-1.54m-5.1-78.56v6.636c0 .868.565 3.075 1.234 3.706s.97.73 1.53-.63c.57-1.37 1.774-2.674 1.806-3.943.025-1.263-1.408-2.765-2.04-3.665s-2.532-4.006-2.532-2.103m14.942-.001v6.636c0 .868-.565 3.075-1.234 3.706s-.97.73-1.53-.63c-.57-1.37-1.774-2.674-1.806-3.943-.03-1.263 1.402-2.765 2.04-3.665.63-.903 2.532-4.006 2.532-2.103m-5.742 3.43c-.764-1.566-1.266-2.1-1.667-2.1-.43 0-.903.565-1.698 2.235-1.203-1.168-1.907-3.438-1.907-4.738 0-1.9 1.27-3.536 2.24-5.705s1.298-1.604 1.298-1.635c0 .03.335-.534 1.298 1.635.972 2.17 2.24 3.804 2.24 5.705 0 1.266-.672 3.403-1.806 4.603m-9.198 9.9v6.642c0 .868.565 3.072 1.234 3.703s.97.732 1.53-.63c.57-1.37 1.774-2.67 1.806-3.943.025-1.263-1.408-2.765-2.04-3.665s-2.532-4.003-2.532-2.106m14.942-.001v6.642c0 .868-.565 3.072-1.234 3.703s-.97.732-1.53-.63c-.57-1.37-1.774-2.67-1.806-3.943-.03-1.263 1.402-2.765 2.04-3.665.63-.903 2.532-4.003 2.532-2.106"/><path d="M391.617 340.42c-.764-1.572-1.266-2.106-1.667-2.106-.43 0-.903.568-1.698 2.238-1.203-1.168-1.907-3.438-1.907-4.74 0-1.9 1.27-3.54 2.24-5.705.966-2.17 1.298-1.6 1.298-1.635 0 .034.335-.534 1.298 1.635.972 2.166 2.24 3.804 2.24 5.705 0 1.27-.672 3.403-1.806 4.606m-9.198 9.912v6.64c0 .87.565 3.068 1.234 3.703s.97.732 1.53-.635c.57-1.364 1.774-2.668 1.806-3.937.025-1.266-1.408-2.77-2.04-3.668s-2.532-4.006-2.532-2.103m14.942 0v6.64c0 .87-.565 3.068-1.234 3.703s-.97.732-1.53-.635c-.57-1.364-1.774-2.668-1.806-3.937s1.402-2.77 2.04-3.668c.63-.9 2.532-4.006 2.532-2.103m-5.742 3.44c-.764-1.57-1.266-2.103-1.667-2.103-.43 0-.903.568-1.698 2.235-1.203-1.168-1.907-3.438-1.907-4.735 0-1.904 1.27-3.542 2.24-5.708s1.298-1.6 1.298-1.635c0 .034.335-.534 1.298 1.635.972 2.166 2.24 3.804 2.24 5.708 0 1.266-.672 3.4-1.806 4.603m-9.198 9.9v6.642c0 .865.565 3.068 1.234 3.7s.97.736 1.53-.63c.57-1.367 1.774-2.67 1.806-3.937.025-1.266-1.408-2.772-2.04-3.67s-2.532-4.006-2.532-2.103m14.942-.002v6.642c0 .865-.565 3.068-1.234 3.7s-.97.736-1.53-.63c-.57-1.367-1.774-2.67-1.806-3.937s1.402-2.772 2.04-3.67c.63-.903 2.532-4.006 2.532-2.103m-5.742 3.438c-.764-1.572-1.266-2.106-1.667-2.106-.43 0-.903.565-1.698 2.238-1.203-1.17-1.907-3.438-1.907-4.738 0-1.904 1.27-3.542 2.24-5.708s1.298-1.6 1.298-1.632c0 .03.335-.534 1.298 1.632.972 2.166 2.24 3.804 2.24 5.708 0 1.266-.672 3.4-1.806 4.606m-9.198 9.9v6.636c0 .868.565 3.072 1.234 3.703.666.638.97.736 1.53-.63.57-1.367 1.774-2.67 1.806-3.937.025-1.266-1.408-2.772-2.04-3.668-.63-.903-2.532-4.006-2.532-2.103m14.942-.001v6.636c0 .868-.565 3.072-1.234 3.703-.666.638-.97.736-1.53-.63-.57-1.367-1.774-2.67-1.806-3.937s1.402-2.772 2.04-3.668c.63-.903 2.532-4.006 2.532-2.103m-5.742 3.43c-.764-1.57-1.266-2.103-1.667-2.103-.43 0-.903.562-1.698 2.235-1.203-1.168-1.907-3.435-1.907-4.74 0-1.904 1.27-3.54 2.24-5.705.966-2.17 1.298-1.604 1.298-1.635 0 .03.335-.534 1.298 1.635.972 2.166 2.24 3.8 2.24 5.705 0 1.266-.672 3.403-1.806 4.606m-1.728 15.312c2.27 0 3.17-4.805 3.17-6.54 0-2.466-1.967-6.806-3.17-7.106-1.203.3-3.17 4.64-3.17 7.106 0 1.736.9 6.54 3.17 6.54"/></g></g><use xlink:href="#D" x="22.02"/><use xlink:href="#D" x="44.045"/></g><use xlink:href="#C" x="66.071"/></g><use xlink:href="#B" x="132.127"/></g><path fill="#0b0b0b" d="M500.04 96.618V90.9H370.7v228.43c0 15.283 9.045 29.495 22.86 36.036l106.475 53.683v-6.336l-.07.03-104-52.52c-11.813-5.607-19.55-17.815-19.55-30.897l-.034-222.72h123.66m0 306.1v6.336l106.43-53.718c13.812-6.54 22.825-20.754 22.825-36.036V90.91h-129.26v5.705h123.55l.032 222.68c0 13.08-7.734 25.296-19.55 30.9l-104.03 52.52"/></svg>