<svg xmlns="http://www.w3.org/2000/svg" xmlns:xlink="http://www.w3.org/1999/xlink" width="846" height="510" viewBox="0 0 282 170" xmlns:v="https://vecta.io/nano"><style><![CDATA[.B{stroke-width:.25}]]></style><path fill="#002b7f" d="M0 0h282v72H0z"/><g transform="translate(141 36)"><g id="A" transform="rotate(75.677)"><path fill="#fff" d="M-12-150h24v300h-24z"/><path fill="#ce1126" d="M-9-150h9v300h9V0H-9z"/></g><use xlink:href="#A" transform="rotate(208.645)"/></g><path d="M0 24h129V0h24v24h129v24H153v24h-24V48H0z" fill="#fff"/><path d="M0 27h132V0h18v27h132v18H150v27h-18V45H0z" fill="#ce1126"/><g transform="translate(141 43)" fill="#ffd600" stroke="#000" class="B"><path d="M0-22L6.5-9.5 15-21l2 12.5L29-18 20 0a20 2 0 0 1-40 0l-9-18 12 9.5 2-12.5 8.5 11.5L0-22z"/><path d="M20 0a20 2 0 0 0-40 0m40.5-1a20.5 2 0 0 0-41 0m43-4a22.5 3 0 0 0-45 0M23-6a23 3 0 0 0-46 0" fill="none"/><rect x="-3" y="-7" height="3" width="6" rx=".5"/><path id="B" d="M8.5-5.245c-.1 1.9 4.84 2.155 5.04.37.198-1.765-4.93-2.278-5.04-.37zm10.6 1c-.385 1.01 2.532 2.92 3.3 1.255s-2.94-2.225-3.3-1.255z"/><use xlink:href="#B" transform="scale(-1 1)"/></g><path fill="#fff" d="M0 72h282v98H0z"/><g id="C" transform="translate(141 81)" fill="#002b7f"><path id="D" d="M0 0c10 0 18.1 5 28.2 5 10 0 18.1-5 28.2-5 10 0 18.1 5 28.2 5 10 0 18.1-5 28.2-5 10 0 18.1 5 28.2 5v14c-10 0-18.1-5-28.2-5-10 0-18.1 5-28.2 5-10 0-18.1-5-28.2-5-10 0-18.1 5-28.2 5-10 0-18.1-5-28.2-5z"/><use xlink:href="#D" transform="scale(-1 1)"/></g><use xlink:href="#C" y="28"/><use xlink:href="#C" y="56"/><g transform="translate(141 252)" fill="#ffd600" stroke="#000" class="B"><path id="E" d="M0 0l-5.86-111.84L0-175l5.86 63.16z"/><g id="F"><use xlink:href="#E" transform="rotate(12)"/><use xlink:href="#E" transform="rotate(24)"/><use xlink:href="#E" transform="rotate(36)"/><use xlink:href="#E" transform="rotate(48)"/><path id="G" d="M0 0l-5.86-111.84S-3-116-3-120s-2-6-2-11 5-9 5-13c0-6-5-8-5-14s5-8 5-17c0 22 9 22 9 31 0 7.5-7 10-7 18s3.86 14.16 3.86 14.16z" transform="rotate(6)"/><use xlink:href="#G" transform="rotate(12)"/><use xlink:href="#G" transform="rotate(24)"/><use xlink:href="#G" transform="rotate(36)"/><use xlink:href="#G" transform="rotate(48)"/></g><use xlink:href="#F" transform="scale(-1 1)"/><circle r="112"/></g></svg>