<svg xmlns="http://www.w3.org/2000/svg" width="1000" height="500" xmlns:v="https://vecta.io/nano"><style><![CDATA[.B{stroke:#4a0f00}.C{stroke-width:.709}.D{fill-rule:evenodd}.E{stroke:#000}.F{stroke-width:1.334}.G{fill:#4a0f00}.H{stroke-width:1.24}]]></style><g class="D"><path d="M0 0h1000v500H0z" fill="#c00"/><path d="M669.485 209.94l159.844-.03.03 45.08c-3.253 48.875-41.15 88.687-80.14 106.405-35.605-17.37-74.807-54.402-79.704-104.423l-.03-47.03z" fill="#016a28" stroke="#fedd00" stroke-width="3.543"/><path d="M803.27 261.293c.117.743.1-8.795 1.416-12.746 1.138-3.413 6.113-8.297 5.948-9.347-.118-.745-6.055 1.737-6.798 3.965-1.71 5.135-.733 17.076-.566 18.128z" class="G"/><path d="M780.893 276.02c-.005.275 11.897 12.746 11.897 12.746 1.51 3.116 3.136 5.774 4.262 8.56.453.136 5.368.22 5.368-.065s-7.93-14.163-7.93-14.163c-.66-9.253.666-19.38-1.983-27.758-1.41-4.463-10.787-12.638-12.027-10.43-2.632 4.685.597 20.903.413 31.107z" fill="#febb30" class="B C"/><path d="M761.018 143.917h66.54v21.087h-66.54zm-89.778-.001h67.336v21.244H671.24zm0 43.18h67.02v21.008h-67.02zm89.778.665h66.557v20.378h-66.557z" fill="#fff"/></g><path d="M669.47 142.15h159.863v67.724H669.47z" fill="none" stroke="#fedd00" stroke-width="3.537"/><g class="D"><path d="M708.02 289.095c5.805-.267 28.432 5.353 46.333 8.186 10.558-.067 23.447 2.398 34.617 1.937 8.124-.145 15.902.458 23.464 2.64-18.355 28.306-33.6 42.34-63.216 57.715-42.896-25.18-53.977-42.946-65.123-61.982 7.8-3.006 11.446-7.895 23.925-8.496z" fill="#01289a"/><path d="M754.827 304.002c.487-1.16 32.874 2.963 44.526 3.97 2.023.265-4.38 3.286-3.386 6.835-4.6-2.95-41.61-9.687-41.14-10.805zm-47.908 9.894c-1.576 4.244 37.363 17.947 54.288 22.392 3.62-5.33 14.686-7.832 19.845-9.683 1.265-2.444-6.443-8.22-9.945-9.45-1.825-.642-3.863 3.876-6.04 3.828-4.106-.09-5.804-3.42-12.55-3.722-.602-.028 8.06 3.827 8.54 4.87.3.652-5.35-1.038-6.452-.308-.683.453 2.183 4.022 1.1 3.856-7.798-1.185-27.727-8.96-27.746-7.908.203 3.412 24.402 7.92 22.245 10.577-3.337 3.7-42.613-16.376-43.287-14.45zm36.973 23.955c-7.046-1.453-20.874-7.954-24.475-8.072-1.694-.056 7.326 5.084 8.592 7.55.383.745-2.674 1.267-3.645.78-1.633-.816-2.777-3.125-4.166-4.687 0 0 0 2.604-.26 2.604s-4.686-1.04-7.81-2.343c-8.94-6.683-19.02-22-24.476-30.203-.707-2.906 14.873.51 17.705 2.343 10.62.945 21.517-.355 32.026 1.3 16.483 2.597 45.054 9.092 48.7 11.197 2.336 1.418-8.63-.982-8.593-.001.05 1.275 7.094 6.976 9.114 7.03 1.19.032.214-4.42 1.56-5.207 1.777-1.036 8.73 1.668 7.812-.26-1.528-3.76-29.148-8.35-47.648-14.06-11.068-3.466-28.78-1.964-38.797-3.906-1.178-.23.06-3.823 1.302-3.906 7.873-.525 23.592.363 26.038 2.082 6.666-2.327 44.2.953 66.135 2.343 2.704.17 8.955.505 7.812 2.343-7.2 12.656-20.1 25.785-28.902 33.588-2.827 2.178-10.747-1.626-13.02-1.3-.765.11 1.562 2.864 2.343 3.905 0 0-15.362-3.385-15.362-3.124s9.895 5.207 9.895 5.207c-1.9.173-5.53-.95-6.5-.26-.496.35 1.65 2.257 1.302 2.604-.434.434-4.06-.675-3.645-.26 1.06 1.06 8.95 3.134 8.072 4.687-1.725 3.047-12.934 8.158-15.623 9.373-2.056-.85-23.955-13.8-23.694-13.8 7.3-.52 20.31-.52 20.31-.52 1.822-1.562 5.74-3.102 5.468-4.687-.378-2.19-5.663-6.094-7.42-6.64-.76-.236 1.025 4.536-.13 4.297z" fill="#536383"/><path d="M695.652 259.932c-.007 5.682 3.076 6.427 4.497 7.877 2.918 2.976 6.72 4.485 8.853 8.072 3.007 5.36 6.752 3.647 7.55 6.5 1.165-1.544.976-4.126-3.125-7.55 3.253-.186 7.453 4.306 7.3 6.51 2.386-1.963.388-7.957 0-11.196-.14-1.074 2.067 2.668 4.687 2.605.59 5.94 5.172 9.094 10.414 10.154 2.673 4.292 9.572 9.077 11.457 7.3.65-.437-4.78-1.808-3.796-3.24 1.26-1.192 2.962 1.383 5.808.062-3.22-2.015-2.86-3.81-2.793-6.197 1.138 1.706 4.837 1.787 5.468 1.3-1.89-.516-2.635-2.168-2.083-3.906 5.468-.49 7.994-3.576 11.196-7.55 1.856.265 18.18 3.055 19.127 4.493.518 1.387 8.317 6.164 9.113 6.627-.296-.92-1.64-3.06-1.24-3.372.382-.297 1.56 1.42 3.186 2.742-1.043-2.843-1.512-6.944-.975-7.106.4 1.24 2.675 3.503 3.834 5.605-.001-4.304.475-16.97-1.222-21.285-.745-2.4-28.09-16.822-42.76-24.157-5.987-2.994-11.482-5.883-17.705-6.25-4.79-.022-9.778 1.985-13.8 4.167-6.22 3.373-12.3 7.254-17.965 11.456-2.06 1.526-4.817 3.364-5.473 5.662-.906 3.17-1.263 7.445.455 10.676z" class="G"/><path d="M704.047 273.75c-1.256-1.3 3.897-3.373 6.65-8.812 4.423 5.257-4.537 10.73-6.65 8.812z" fill="#dc6207" stroke-width=".355" class="E"/><g fill="#febb30" class="C"><path d="M698.47 260.726s.566 6.798 3.116 7.93c0 2.55 0 3.4.283 3.4 5.38.283 8.78-6.23 8.78-6.23 2.266 5.57-5.318 7.226-5.098 8.214 5.54 4.394 4.154-2.077 6.23-3.116 6.798.566 2.4-5.88 3.35-5.548 2.113-.166 6.26-3.2 4.298-9.465-1.7-2.062-7.93 3.117-8.78 5.382 1.392-2.894-2.55-5.382-1.7-5.382 1.983.85-2.55-.282-3.4.567l-7.082 4.248z" class="B"/><path d="M717.398 232.48c-.545.033-8.354 5.268-9.542 5.964-2.514 1.203-12.46 5.7-13.917 8.35-1.873 3.12-2.408 8.283-1.06 10.868 1.74 2.96 5.745 1.536 7.156 2.783 2.805 2.6 5.294-1.8 5.7-3.7-.127-3.145-1.916-8.95-2.916-12.458 1.972.68 4.894 2.58 7.024 1.988.61-.06-1.012-2.825-.397-2.65 2.654.753 7.372 4.8 10.204 5.434 1.438.173-.385-2.946.133-2.65 1.956 1.118 5.335 4.262 7.29 6.892-4.472.682 3.47 5.6 3.048 7.024-.285.962-3.945-4.047-5.17.132-2.11 4.384 3.142 7.192 2.783 8.35-.216.697-4.374-4.472-4.506-2.783 0 4.7 9.794 15.554 17.098 14.843 1.292-.056-1.84-5.71-.928-5.964 1.298-.363 7.43 10.72 8.35 4.11.623-2.443-3.097-7.855-2.916-11.266.967-.3 12.158 4.454 14.71-5.434-.52 5.824 2.698 12.5 6.36 14.05-.04 3.972 3.512 5.897 3.314 8.88-.156 2.363-3.26 4.292-4.24 6.626-.43 1.023.407 2.427 0 3.446-.652 1.63-3.9 2.66-3.975 4.505-.033.774 4.363 1.964 5.434 1.457 1.363-.73-.535-2.078.132-2.65 1.615-1.48 8.094-7.493 9.94-10.867.717-1.31-1.685-2.228-1.59-4.772.162-4.16 8.703-7.426 10.337-15.506.648-3.1 1.02-6.754.266-9.807-.882-3.574-5.43-10.224-5.17-10.072 5.52 3.067 5.722 24.273 14.844 23.856 8.166-.38 8.32-10.99 7.82-17.097-.642-8.658 1.81-5.346 1.325-10.602 0 0-7.688 1.59-7.554 7.82.08 3.7 2.386 5.567 2.65 9.145-.395 5.332-2.94 7.004-4.24 6.494-1.97-.77-3.707-6.893-5.567-10.337-2.028-3.758-3.018-8.732-6.096-11.266-3.416-2.81-8.654-4.882-13.386-4.77-6.087.538-10.008-.927-15.24-4.24-1.337-.834-4.676-1.393-4.64-.927.05.638 5.8 4.4 4.904 4.24-2.065-.37-9.57-4.853-13.784-5.83-.735-.17-.525 2.52-1.06 2.386-1.055-.264-2.474-2.386-3.71-3.578l-.663 5.434c0-.265-3.7-5.302-3.7-5.302-.486 1.28-.614 3.638-1.458 3.843-.967.236-3.014-2.933-3.975-2.518-.738.394 1.54 3.767.795 3.578-2.514-.867-8.615-5.54-10.205-5.434z" stroke="#3a1400"/><g class="B"><path d="M735.555 283.108c-.405 4.472.575 7.636-1.325 9.674-.607.7.842 2.184.133 2.784-1.23.93-4.03 3.55.927 3.445 4.72-.102 4.027-2.762 3.578-4.108-.65-2.086.84-5.967.133-8.482-.398-1.417-3.366-4.18-3.446-3.313z"/><path d="M743.772 289.868c.78 1.372.442 3.357.662 5.036 0 0-.662.53-.662.795s.53.265.796 1.856c.174 1.928-2.124 3.452-4.64 2.916-.928-.15-2.784.517-2.784-.53 0-2.253 2.733-3.72 2.65-5.037-.115-1.672-1.457-1.457-1.457-3.047 0-1.96.216-5.203 1.192-5.567.922-.343 3.39 2.08 4.24 3.578z"/></g></g><path d="M731.892 240.05c.85.85 10.764 16.144 10.764 16.144l-2.55-.85 4.815 7.082c-1.605.566-6.043-5.666-9.063-8.498.66 4.06-5.476-4.343-8.215-6.514l5.38 1.7-6.23-5.948 6.515 2.266-1.417-5.38zm27.758 15.577c-.85-7.364 3.966-10.763 5.666-11.046.56-.08 2.55 3.4 2.55 3.4-5.854-.566-7.77 11.36-8.215 7.647zm-60.33-11.047c-3.614 3.047-5.57 7.27-4.532 12.463 0 0 2.832-.566 3.116-.566s3.4 2.55 3.4 2.55 1.07-5.842.85-5.666c-1.416 1.416-7.814-1.442-2.832-8.78z" class="G"/></g><g fill="none"><g class="H"><path d="M714.615 236.934c4.9 1.228 6.703 3.02 8.78 5.38" stroke="#480f00"/><path d="M717.164 234.1c3.87 1.32 6.326 3.2 8.78 5.948" class="B"/></g><path d="M777.494 260.726c.283 3.635-4.868 13.887-5.983 16.038-.456.76-.956-.555-1.664-3" class="B F"/><path d="M781.743 263.558c-2.832 4.9-3.4 8.685-7.647 11.33" class="B H"/><path d="M772.113 284.517v.283" class="E F"/><path d="M766.732 295.28c0-3.494 5.948-4.155 5.098-10.48" class="B H"/></g><g class="D"><path d="M733.876 237.217c-1.265 3.953 9.062 20.96 14.445 23.5 1.294.576-.846-6.752.85-6.8 2.002-.066 3.965 6.514 5.665 4.532 1.723-1.723 3.4-5.098 3.965-5.665s2.266-7.364 2.266-7.364l-5.948-.283c-.283 0-6.514-5.948-6.514-5.948.378 1.794 1.807 4.94 1.133 5.38-2.6 1.516-6.267-6.172-7.93-6.23-.98-.035.948 6.083 0 5.948-1.695-.242-7.535-8.67-7.93-7.08zm29.457 13.313c-3.576 4.827.438 16.384 3.116 18.694 2.693 2.852-3.4-13.794-.85-12.18 3.677 2.225 2.773 3.9 4.815 6.23 3.486 4.62 7.625-.28 7.08-7.365-.275-3.435-11.022-7.48-10.763-7.364 2.832 1.133-1.448-.267-3.4 1.983z" fill="#fee5a3"/><path d="M708.667 255.627c.783-1.697 1.862-9.746-6.515-11.612 5.545 8.853 1.433 8.33 3.117 11.33.49.87 3.05 1.04 3.4.283z" fill="#feffff" class="B C"/></g><g fill="none"><path d="M701.02 262.142v-.283" class="E F"/><path d="M708.95 260.726c-1.7 3.4-4.816 2.832-8.498 1.7" class="B C"/><path d="M700.736 263.275h.283" class="E F"/><path d="M702.152 268.657c-.566-.802 2.55-.755 1.983-1.557-1.7-.803-1.416-3.305-4.248-4.39" class="B C"/></g><g class="D"><path d="M797.298 297.545l4.838.002s.283 5.098 0 5.098-7.364-.283-7.364-.283l2.526-4.817z"/><path d="M781.877 254.954c5.303 3.77 3.544 17.274-6.128 23.687-1.373 1.028-1.294 7.067-1.885 6.835-.787-.262-1.397-4.41.353-9.19 4.6-4.41 10.322-10.244 7.66-21.33z" fill="#fee5a3"/><path d="M712.528 262.11c-.295-.834 3.35-4.904 4.656-4.323 1.836.89.515 3.788-.333 4.49-.76.628-3.95 1.358-4.323-.166z" fill="#490f00"/><path d="M0 0h500v250H0z" fill="#006"/></g><g fill="#fff"><path d="M0 0v27.95L444.1 250H500v-27.95L55.902 0H0zm500 0v27.95L55.902 250H0v-27.952L444.1 0H500z"/><path d="M208.333 0v250h83.333V0h-83.333zM0 83.333v83.333h500V83.333H0z"/></g><path d="M0 100v50h500v-50H0zM225 0v250h50V0h-50zM0 250l166.667-83.333h37.268L37.268 250H0zM0 0l166.667 83.333H129.4L0 18.634V0zm296.066 83.333L462.733 0H500L333.334 83.333h-37.268zM500 250l-166.667-83.333H370.6l129.4 64.7V250z" fill="#c00"/></svg>