<svg xmlns="http://www.w3.org/2000/svg" xmlns:xlink="http://www.w3.org/1999/xlink" width="1200" height="600" xmlns:v="https://vecta.io/nano"><style><![CDATA[.B{fill:none}.C{stroke:#292526}.D{fill:#ffc32a}.E{stroke-width:2.102}.F{fill:#292526}.G{stroke-width:3.534}]]></style><g transform="translate(-422.765 108.036)"><path d="M422.765-108.036h1200v600h-1200v-600z" fill="#fff"/><path d="M422.765-108.036h300v600h-300v-600z" id="A" fill="#00549f"/><path d="M1022.543 387.384c16.215-.887 139.972-62.392 149.827-209.518V-3.456H872.716v181.323c9.847 147.126 133.604 208.63 149.827 209.518" fill="#fff"/><use xlink:href="#C" fill="#008165"/><use xlink:href="#C" class="B C G"/><path d="M872.693 31.698v23.548c6.04-2.46 12.813-1.72 17.928-.74 16.1 3.122 28.7 15.748 45.68 13.778 14.19-1.643 24.5-12.175 38.58-14.627 15.024-2.608 27.62 5.348 40.4 11.848 6.4 3.246 13.74 4.18 20.302.98 14.915-7.286 30.663-16.145 47.446-10.953 14.736 4.562 27.572 17.733 43.834 13.272 10.112-2.763 17.414-10.945 28-13.46 4.437-1.05 12.86-1.876 17.4-1.378h.117V30.344c-4.53-.498-12.96.327-17.398 1.378-10.58 2.514-17.89 10.696-27.985 13.46-16.285 4.453-29.106-8.71-43.842-13.288-16.79-5.184-32.53 3.682-47.454 10.968-6.554 3.2-13.91 2.273-20.294-.98-12.8-6.508-25.377-14.456-40.4-11.848-14.1 2.46-24.396 12.977-38.587 14.627-16.97 1.97-29.596-10.657-45.68-13.77-5.114-.99-11.996-1.713-18.037.747v.062" fill="#0056a3"/><path d="M872.693 31.698v23.548c6.04-2.46 12.813-1.72 17.928-.74 16.1 3.122 28.7 15.748 45.68 13.778 14.19-1.643 24.5-12.175 38.58-14.627 15.024-2.608 27.62 5.348 40.4 11.848 6.4 3.246 13.74 4.18 20.302.98 14.915-7.286 30.663-16.145 47.446-10.953 14.736 4.562 27.572 17.733 43.834 13.272 10.112-2.763 17.414-10.945 28-13.46 4.437-1.05 12.86-1.876 17.4-1.378h.117V30.344c-4.53-.498-12.96.327-17.398 1.378-10.58 2.514-17.89 10.696-27.985 13.46-16.285 4.453-29.106-8.71-43.842-13.288-16.79-5.184-32.53 3.682-47.454 10.968-6.554 3.2-13.91 2.273-20.294-.98-12.8-6.508-25.377-14.456-40.4-11.848-14.1 2.46-24.396 12.977-38.587 14.627-16.97 1.97-29.596-10.657-45.68-13.77-5.114-.99-11.996-1.713-18.037.747v.062z" stroke-width="2.654" class="B C"/><path d="M895.688 185.028h25.074v45.663h-25.074v-45.663z" class="D"/><path d="M895.688 230.69h25.074v-45.663h-25.074v45.663z" class="B C E"/><path d="M951.658 185.028h25.066v45.663h-25.066v-45.663z" class="D"/><use xlink:href="#D" class="B C E"/><path d="M922.116 253.08h25.058v45.663h-25.058V253.08z" class="D"/><path d="M922.116 298.735h25.058v-45.663h-25.058v45.663z" class="B C E"/><path d="M977.168 252.628h25.074v45.663h-25.074v-45.663z" class="D"/><path d="M977.168 298.29h25.074v-45.663h-25.074v45.663z" class="B C E"/><path d="M1035.38 253.08h25.066v45.663h-25.066V253.08z" class="D"/><use xlink:href="#D" x="83.722" y="68.045" class="B C E"/><path d="M975.385 362.988v-41.42H950.31v20.598l25.074 20.823" class="D"/><path d="M975.385 362.988v-41.42H950.31v20.598l25.074 20.823z" class="B C E"/><path d="M1008.516 321.567h25.066v45.663h-25.066v-45.663z" class="D"/><use xlink:href="#D" x="56.858" y="136.54" class="B C E"/><path d="M1088.197 347.98v-26.413h-25.066v45.663l25.066-19.25" class="D"/><path d="M1088.197 347.98v-26.413h-25.066v45.663l25.066-19.25z" class="B C E"/><path d="M1116.85 292.36v6.375h-25.066v-19.25c17.344.117 25.066 12.875 25.066 12.875" class="D"/><path d="M1116.85 292.36v6.375h-25.066v-19.25c17.344.117 25.066 12.875 25.066 12.875z" class="B C E"/><path d="M1034.025 216.368v14.323h-25.074v-21.828c9.41 3.807 15.452 5.597 25.074 7.504" class="D"/><path d="M1034.025 216.368v14.323h-25.074v-21.828c9.41 3.807 15.452 5.597 25.074 7.504z" class="B C E"/><path d="M923.004 116.97v45.228h25.292v-14.44s-18.34.85-24.28-30.787h-1.012" class="D"/><path d="M923.004 116.97v45.228h25.292v-14.44s-18.34.85-24.28-30.787h-1.012z" class="B C E"/><path d="M872.864 116.97h19.695v45.67h-19.695v-45.67z" class="D"/><path d="M872.864 162.64h19.695v-45.67h-19.695v45.67z" class="B C E"/><path d="M921.673 96.38l17.896 17.46 19.25-22.38 24.178 22.38 18.8-22.38 21.937 22.38 19.695-22.38 22.388 22.832 17.904-22.832 23.283 22.38 19.25-22.38 21.937 22.38 24.622-29.098h-.444v93.125c-3.643 54.366-22.832 97.048-46.418 129.29l.086.31c-2.164-6.4-11.513-19.75-17.398-23.128-10.595-6.08-23.174-3.347-33.605-9.645-15.732-9.466-13.615-28.647-20.418-43.227-2.88-6.19-8.244-11.038-14.837-13.45-15.49-5.667-34.205-4.663-44.325-20.146-6.89-10.548-5.03-22.972-12.214-33.636-3.892-5.768-8.812-9.474-15.133-11.42-11.28-3.495-23.09-3.814-32.796-11.38-9.622-7.496-12.307-26.7-13.638-45.056" fill="#ee3629"/><path d="M1172.36 84.745V-3.442H872.703v94.72m299.656-6.53l-1.688 1.97-22.5 27.125-21.906-22.375-19.28 22.375-23.28-22.375-17.875 22.813-22.406-22.812-19.687 22.375-21.937-22.375-18.812 22.375-24.156-22.375-19.25 22.375-17.906-17.47c1.33 18.356 4.003 37.566 13.625 45.063 9.707 7.566 21.533 7.88 32.813 11.375 6.32 1.946 11.233 5.67 15.125 11.438 7.185 10.665 5.33 23.077 12.22 33.625 10.12 15.483 28.822 14.49 44.313 20.156 6.593 2.413 11.963 7.25 14.844 13.438 6.804 14.58 4.674 33.753 20.406 43.22 10.43 6.298 23.03 3.577 33.625 9.656 5.885 3.378 15.242 16.726 17.406 23.125l-.094-.312c23.587-32.243 42.763-74.915 46.406-129.28V84.745z" class="B C G"/><path d="M1134.874 122.884c0 11.144 9.023 24.4-.53 33.963 3.182 6.9 2.652 16.448.53 23.35-3.713 12.735-17.832 20.84-27.308 28.355-10.084 1.06-12.192 9.844-22.98 11.254-7.36-2.005-13.92-9.89-21.88-13.602-6.37-2.658-5.84-10.084-9.553-14.863-8.493-4.773-14.327-13.796-11.675-24.94 7.962-9.023-6.9-18.04-.53-28.66 4.773-5.304 2.12-14.326 9.553-18.04 11.144-3.19 9.023 13.796 19.106 10.614 12.198-7.962 31.305-5.84 42.98.53 5.84-6.37 14.857-20.697 22.29-7.962" class="F"/><path d="M1132.65 125.548c0 6.9 6.727 22.9-.698 27.67-1.59 1.59-.174 1.798-.705 4.45 5.627 6.804 2.814 17.586-.473 25.56-6.364 7.962-13.596 14.766-23.207 21.57-1.59 2.652-5.79 3.75-8.44 3.75-9.85-2.814 9.042-10.717 5.86-15.497-4.773-1.06-5.834 7.432-11.144 7.432-1.06 3.182-.1 11.112-3.156 12.755l-1.876 1.876 1.32-11.448c-5.614-2.238-.207-2.53-9.023-1.06-1.675 1.255-1.675 1.488-.977 5.472l.938 7.975-3.046-3.75c0-5.3-2.22-13.408-6.468-15-4.935 0-1.74 6.086 2.25 10.07-2.814 4.93-19.23-9.14-17.353-11.953-3.75-13.37-14.3-6.565-14.534-22.043-1.59-6.895 2.218-9.637 3.28-15.47-5.627-10.316-6.093-17.12-.705-24.624 2.115-13.828 5.79-12.192 8.44-12.192 4.25 4.78 5.66 10.834 11.494 12.43 13.266-9.553 34.034-8.137 47.83-.705 8.492-1.06 10.55-24.384 20.393-7.27" fill="#fff"/><path d="M1085.996 164.59c-1.992.938-4.224-4.806-8.913-7.86-4.773-2.12-11.804-5.627-17.114-5.627l3.337.032c8.493.53 17.515 2.652 22.29 9.553 0 0 2.393 2.962.4 3.9" fill="#999"/><path d="M1085.523 170.113c0 1.59 0 3.72-2.12 3.72.016-5.608-6.474-7.593-9.133-8.66 5.16 1.177 9.663 1.23 11.254 4.942" class="F"/><path d="M1089.508 164.59c2 .938 4.224-4.806 8.913-7.86 4.78-2.12 11.8-5.627 17.114-5.627l-3.338.032c-8.492.53-17.515 2.652-22.29 9.553 0 0-2.387 2.962-.4 3.9" fill="#999"/><path d="M1089.986 170.113c0 1.59 0 3.72 2.12 3.72-.016-5.608 6.475-7.593 9.126-8.66-5.16 1.177-9.663 1.23-11.248 4.942" class="F"/><g fill="#999"><path d="M1065.596 135.865s-4.224 1.876-6.565-1.876c-2.348-3.75-3.286-7.503-5.16-8.906s-2.34-2.115-3.512-1.177-3.286 6.804-3.518 8.68-1.17.938-1.643 3.75c-.466 2.814-2.814 2.574-2.1 8.2s1.403 10.084 3.046 11.726 1.643 3.28.938 4.922-2.34 4.456-2.34 4.456l-.473.938s3.286-4.7 3.518-5.394 1.404-2.34 0-5.394c-1.4-3.046-4.224-8.44-3.286-11.953.938-3.52.705-9.618 6.1-10.556s3.75.24 5.627 1.177 8.44 1.636 9.38 1.404m46.418-1.64s4.224 1.876 6.565-1.876c2.348-3.75 3.286-7.503 5.16-8.906s2.34-2.1 3.52-1.17c1.17.938 3.28 6.798 3.512 8.673.24 1.876 1.177.938 1.643 3.75.473 2.814 2.814 2.58 2.1 8.208-.698 5.627-3.046 9.6-4.7 11.254-1.636 1.636 0 3.75.705 5.388s2.348 4.456 2.348 4.456l.466.938s-3.28-4.7-3.518-5.394c-.233-.698-3.28-2.34-1.876-5.388s6.1-8.44 5.16-11.96-.705-9.6-6.1-10.55c-5.388-.938-3.75.233-5.627 1.17s-8.44 1.643-9.38 1.404m-64.7 43.85c3.52 3.52 8.208 7.27 9.618 9.146 1.403 1.876.233 5.86 2.574 8.44 2.348 2.58 3.75 3.046 5.394 1.17s7.27-2.1 8.913-2.1c1.636 0 4.45 3.046 2.1 2.814-2.348-.233-6.798-2.348-8.913 1.404-1.28 2.3 4.93 7.742 3.52 7.742-1.403 0-5.627-.938-7.968-3.52-2.348-2.58-3.053-2.58-4.93-6.798-1.52-3.428-2.1-6.1-3.512-7.742-1.4-1.636-4-4.7-5.394-5.86s-1.4-4.7-1.4-4.7m78.768.004c-3.512 3.52-8.2 7.27-9.6 9.146-1.403 1.876-.233 5.86-2.58 8.44-2.34 2.58-4.922-3.046-6.565-4.922-1.636-1.876-5.627.233-7.968 2.574-1.158 1.164-3.784 5.608-1.876 4.224 2.58-1.876 6.565-7.736 8.674-3.984 1.287 2.283-7.03 12.9-5.627 12.9s6.1-.938 8.44-3.512c2.348-2.58 4.922-2.348 6.798-6.565 1.526-3.428 2.115-6.1 3.52-7.742 1.4-1.636 3.984-4.7 5.394-5.86 1.404-1.17 1.404-4.7 1.404-4.7"/><path d="M1077.316 185.105s1.876.233 2.58-.705.938-1.643.938-1.643-.233 8.913.233 10.316c.472 1.4 0 6.1 0 6.1s-.233-2.58-.698-5.627c-.472-3.053-1.876-7.975-3.053-8.44m18.29-.001s-1.876.233-2.58-.705-.938-1.643-.938-1.643.233 8.913-.233 10.316c-.472 1.4 0 6.1 0 6.1s.233-2.58.705-5.627c.466-3.053 1.876-7.975 3.046-8.44m-33.763-45.723s10.782-3.286 15.006-5.16c4.217-1.876 3.984-3.28 6.798-2.1s2.814 2.1 2.814 2.1 2.348-1.17 3.75-2.1 4.456-1.17 6.332-.705c1.876.472 6.798 1.876 8.674 3.053 1.876 1.17 4.224 1.636 5.86 1.636 1.643 0-6.093 1.177-7.03.705-.938-.466-7.037-3.28-10.084-2.814-3.046.472-7.03 2.814-7.03 2.814s-3.053-2.814-4.93-2.814-9.14 3.75-11.72 4.456-8.44.938-8.44.938"/></g><path d="M1063.054 170.475s-8.027-1.12-2.78 2.555c1.72 1.203 2.995 2.387 3.57 3.098s.666 2.044 2.484 3.124 5.718 2.218 8.298 1.514c1.468-.4 2.58-.35 3.046.35.466.705.317 1.242.8 1.242.466 0 1.086-.537.854-1.12l-.705-1.643c-.233-.6.35 0-1.17-2.814-1.526-2.814-1.876-2.697-2.232-3.17-.35-.466 1.526 2.348 1.76 3.402.24 1.054.938 1.876.117 2.225-.82.356-1.876.6-2.814.82-.938.24-2.975.062-7.53-1.682-1.326-.504-1.06-1.287-2.07-2.206l-5.82-4.98c-.9-.9 2.18-.764 4.204-.718m-6.626.236c-.35.023 1.197-.68 3.176-.925s4.6-.33 6.047-.343c2.27-.023 3.163.054 5.15.543 2.503.62 2.75 1.17 3.266 1.546 0 0-1.636-.142-2.412-.42-.783-.272-3.06-.847-4.05-.686s-1.6-.317-2.277.023-1.197.602-1.45 1.863c-.252 1.268.996 2.827 3.318 3.17 2.898.427 3.628-.828 3.855-1.98.233-1.15-1.63-2.594-2.7-2.7 0 0 .666.252 1.98.278 1.313.016 2.53.563 3.124.498.602-.054.828.054.828.054l-4.262-1.4c-6.035-1.203-18.485.834-13.602.473" class="F"/><path d="M1070.253 172.745s-.44-1.404-2.186-1.63c-1.746-.233-2.484.46-2.503 1.17-.023.718.757 1 1.565 1.15.802.156 1.423-.556 1.26-.944-.162-.395-.297-.9-.297-.9s2.024.647 2.16 1.15" fill="#fff"/><path d="M1112.217 170.475s8.027-1.12 2.78 2.555c-1.72 1.203-2.995 2.387-3.57 3.098s-.666 2.044-2.484 3.124-5.718 2.218-8.292 1.514c-1.475-.4-2.58-.35-3.053.35-.466.705-.317 1.242-.783 1.242-.473 0-1.093-.537-.854-1.12l.698-1.643c.233-.6-.35 0 1.17-2.814 1.526-2.814 1.876-2.697 2.232-3.17.35-.466-1.526 2.348-1.76 3.402s-.938 1.876-.117 2.225c.822.356 1.876.6 2.814.82.938.24 2.975.062 7.53-1.682 1.326-.504 1.06-1.287 2.076-2.206l5.815-4.98c.9-.9-2.18-.764-4.204-.718m6.625.236c.35.023-1.197-.68-3.17-.925-1.986-.24-4.605-.33-6.047-.343-2.277-.023-3.163.054-5.155.543-2.503.62-2.75 1.17-3.26 1.546 0 0 1.63-.142 2.412-.42.776-.272 3.06-.847 4.043-.686 1 .162 1.6-.317 2.277.023s1.197.602 1.45 1.863c.252 1.268-1 2.827-3.312 3.17-2.904.427-3.635-.828-3.86-1.98-.233-1.15 1.63-2.594 2.7-2.7 0 0-.666.252-1.98.278-1.306.016-2.53.563-3.124.498-.595-.054-.828.054-.828.054l4.262-1.4c6.035-1.203 18.485.834 13.602.473" class="F"/><path d="M1105.018 172.745s.44-1.404 2.186-1.63c1.746-.233 2.484.46 2.503 1.17.023.718-.757 1-1.565 1.15-.802.156-1.423-.556-1.26-.944.162-.395.304-.9.304-.9s-2.024.647-2.167 1.15" fill="#fff"/><use width="1200" height="600" xlink:href="#A" x="900"/></g><defs ><path id="C" d="M1022.543 387.384c10.22-.56 77.68-35.528 108.982-88.478L916.745 91.46l-19.26 22.38-24.178-22.38-.592-.18v86.586c9.847 147.126 133.604 208.63 149.827 209.518"/><path id="D" d="M951.658 230.69h25.066v-45.663h-25.066v45.663z"/></defs></svg>