<svg xmlns="http://www.w3.org/2000/svg" xmlns:xlink="http://www.w3.org/1999/xlink" width="1200" height="600" xmlns:v="https://vecta.io/nano"><style><![CDATA[.B{stroke-width:.999}.C{fill:none}.D{fill:#d21034}.E{fill-rule:evenodd}]]></style><path d="M0 0h1200v600H0z" fill="#fff" class="E"/><path d="M1200 600v-64L142 0H0v65l1056 535h144z" id="A" fill="#0047b6"/><use transform="matrix(-1 0 0 1 1200 0)" width="1200" height="600" xlink:href="#A"/><g stroke="#000"><path d="M500.082 181.735l201.18-.547L700.2 308.43c-1.923 86.645-77.123 136.438-99.527 135.157-26.123-1.473-98.05-53.334-101.105-134.185-2.25-59.597.514-127.668.514-127.668z" fill="#fdd44f" stroke-width="2.88" class="E"/><g class="B D"><path d="M653.02 223.186c-1.8 6.335-2.238 5.2-11.287 7.688-9.276 2.5-12.94 11.085-12.488 20.588.453 7.918 2.767 13.343 11.138 21.488 9.05 8.597 13.762 13.144 13.762 23.325-2.262-5.656-6.544-5.918-9.937-7.275-3.167-1.13-3.387-5.156-1.125-8.55-6.335 1.357-5.902 6.998-3.187 9.712-2.036.453-2.247.9-2.7 2.925-2.94.905-4.974.242-7.462-2.925-1.13 4.525 1.328 6.113 5.4 6.113-6.1 3.394-5.204 11.73 0 13.313-3.62-3.846-.425-7.9 1.837-10.387-.68 5.656 5.204 6.092 6.788 2.925-4.072.226-3.63-7.013 2.025-7.013 5.204 0 8.4 5.45 8.175 10.2s-4.34 12.45-13.162 12.225c-7.692-.226-11.758-5.228-14.925-9.3-.68-2.94-1.345-5.653-2.25-7.462-2.715-5.882-10.2-13.574-12-20.587-1.245-4.667-15.18-2.695-23.85-1.013 1.993-2.194 3.337-4.36 3.263-5.775-7.692-2.715-12.663-7.92-14.925-13.35-2.036-5.43-6.768-13.565-10.388-15.375-3.846-2.036-6.795-4.296-5.437-7.238 1.13-2.715 1.356-4.53.225-5.887-.34-.396-.726-.787-1.125-1.088.026-2.126-3.08-4.088-5.212-4.088 1.584 1.584 2.026 2.465 1.8 4.275-.905 1.584-.448 1.343-.9 2.7-.73-1.824-2.5-3.343-3.975-3.037-.007-.006-.03.006-.038 0-1.498-1.284-4.344-2.565-6.637.563 3.25.6 3.258.7 4.2 1.688-.128.42-.077 1.003.113 1.95-1.877-.75-3.42-.55-3.9.825-1.394-.446-3.66.643-4.725 2.775 2.06-.317 3.703-.404 4.875.112.464 1.444 1.394 2.6 2.813 2.138 2.262-.68 3.188-1.8 3.188-1.8.452 1.357-1.142 4.27 2.025 5.4-2.715 0-5.66.03-5.888 1.613-.116.695-.4 1.686-.375 2.7-1.868-.142-4.9.172-5.737-1.312 1.357 4.072 3.883 4.955 7.05 4.05 2.262 1.358 2.473-.215 2.925-2.025 1.357.226 3.406-1.394 4.537-.263s2.96 5.465 3.413 7.275c.452 1.584 1.35-1.606 1.35-2.737a117.57 117.57 0 0 0 .225 6.787c.452-1.13 1.125-3.187 1.125-3.187 0 2.715-.23 6.138.45 8.4 1-1.782 1.8-2.675 1.988-3.937-.287 4.327-1.287 6.38-.638 10.275 1.13-1.13 2.058-2.914 2.962-4.95-1.8 4.525-1.357 6.998 0 9.712.22-.983.66-1.645 1.05-2.25-.27 2.07.102 4.283 1.612 5.625 0-1.793.74-1.94 1.05-2.475-.234 2.03.08 2.564 1.462 4.537 1.188 1.782 2.745 2.523 3.112 4.5-.358.32-.737.62-1.087.938-2.262 2.036-14.686 9.244-17.175 12.638-2.262.453-4.978.664-6.788 2.7-2.5 0-7.275-.675-7.275-.675-.938-2.25-3.065-2.783-4.163-1.613-2.68-1.242-5.288 1.224-5.288 4.35 1.54-.963 3.05-1.276 4.313-.788.285.95 1.378 1.484 4.05.975l2.7.488c-2.5 1.8-3.14 1.794-4.725 2.925-2.715 0-6.155.208-5.25 3.375-1.584 2.036-2.222 5-.413 7.95.874-1.967 1.934-4.765 3.638-5.363.275-.03.516-.043.862-.075 2.5-.226 3.186-.925 3.413-3.187 2.036-.68 2.914-.18 4.95-1.763-.226 2.94-1.087 4.95-1.087 4.95-1.865.933-2.936 2.327-2.25 3.675-.695 1.813-.707 5.272 1.762 6.713.18-1.8.257-3.532 1.163-4.65.848.138 1.65-.134 2.25-.975 1.357-1.8 1.354-2.5.675-4.538.68-1.8 1.83-4.27 3.188-5.175 1.13-.68 2.027-.9 1.575.675-.905 4.3 1.58 4.295.45 7.463 2.94-3.167 4.73-5.193 3.825-8.812 1.13 3.394 1.837 4.05 1.837 4.05 1.357-2.036.902-3.854.45-5.437l1.8 3.413c.905-1.357 1.576-1.376 1.35-3.413 1.357 1.8 2.506 2.022 3.638 2.475-1.13-1.584.226-2.24 0-4.05.68 2.94 3.36 4.055 5.85 3.15-2.262-1.357-1.57-2.73-2.25-3.863 1.357 1.584 2.953 3.2 4.762 2.738-1.357-1.13-.033-2.73-.937-4.312 1.357 2.262 2.306 3.2 5.7 2.737-1.697-.943-.903-2.042-1.5-3.037 1.5 1.434 3.456 2.16 6.675 2.363-.68-1.357.45-2.246.45-2.925.68 2.262.9 2.02.675 3.15 2.262-2.036 3.86-2.694 4.538-3.825 1.8 3.394 4.075 5.43 6.337 6.788 3.394 2.262 9.736 1.33 12.225 4.95.727.97 1.087 2.136 1.2 3.412-3.084-.015-5.32-.48-7.988.188-2.94-2.715-7.483-2.9-10.65-.862s-6.12 6.542-11.55 3.375c-2.94-1.8-.87-5.433.262-6.338-4.072.453-6.8 4.063-2.737 8.588-2.715-1.584-5.23.93-9.075-4.5.226 4.977 3.184 9.275 10.65 7.012-6.335 1.584-2.735 7.247-9.975 5.438 2.94 3.62 7.26 1.785 9.975-2.288-.905 3.167-1.13 2.95 0 5.213 2.262-2.715 3.174.234 5.663-1.35-1.357 2.5-.006 5.165 1.125 6.975 1.13 1.584 1.8 1.826.225 3.862-5.656-.453-13.785-1.354-16.5-.675-2.5-2.036-3.14-2.92-5.175-4.05.452-3.394-.478-4.992-2.288-4.088l-1.087.488c-.01-.16-.014-.324-.038-.488-1.584-.905-5.883-2.27-6.788 1.125 1.584 0 4.044.93 5.175 2.063-1.92-1.067-2.853-.94-3.9.6-1.537-.495-5.173.22-3.788 4.575 1.357-.905 2.505-.45 3.863-.45-.352.352-.64.812-.825 1.313-2.324-.535-6.16.127-5.512 5.512 2.138-2.138 4.085-1.88 5.438-1.65.12.402.254.742.45.938.905.905 2.283 1.136 3.188-.9 2.5 0 5.84.68 7.875 0-.453 1.13-2.02 1.6-2.7 2.288-2.746.634-3.9 2.054-3.113 3.712-1.1 1.837-1.5 5.318 1.763 7.35 0-2.036.478-3.404 2.288-4.988 1.584-.453 2.477-1.113 2.025-3.375 1.357-1.357 2.466-4.32 4.05-3.187 2.262 2.036-.44 3.628 4.313 5.438-.452-1.357 3.152-1.342 2.7-2.7 1.13 2.94 2.276 3.365 4.313 5.175.905-1.357 2.93-2.467 2.25-3.825 1.584 3.394 4.086 3.814 4.313 5.85 2.262-2.5 2.964-3.36 2.737-6.075 1.584 4.072 2.914 5.4 4.95 3.375 1.8-2.036 2.25-2.7 2.25-2.7 2.5 1.584 5.203.47 7.012-3.375-3.394 1.584-5.65 1.774-7.912-.262-.905-2.715-2.03-3.394-1.35-6.788.452-3.394 3.405-9.5 11.55-9.038.1.005.175 0 .263 0a14.4 14.4 0 0 0 1.5 4.538c2.5 4.072 4.8 7.9 3 10.387-1.584 2.5-7.252 3.603-4.538 9.938.452-3.394.663-3.82 2.925-4.95 0 3.167-.427 5.428 2.288 7.238-.68-2.94.183-4.305 1.087-5.663 1.8 2.94 2.946 4.097 5.888 2.288-1.584-.905-5.864-3.4-3.375-7.687 2.5 2.94 4.98 3.83 6.337 3.15 1.584-.68 3.17-.46 6.113-5.662-.68 3.846-.237 6.324 2.025 8.813-2.5 1.8-3.86 6.326-4.538 8.362-.453 2.036-1.34 2.06-3.15 2.513-1.584.452-1.376-2.025-3.413-2.025-1.283 0-2.28 1.142-2.737 2.512-.13-.04-.26-.022-.413-.037-2.262 0-5.414 3.166-2.925 7.012 1.357-2.262 2.243-1.835 3.6-2.288.042-.05.072-.094.113-.15.236.65.5 1.06 1.012 1.313-1.23.684-1.613 1.595-1.387 2.625-.14.017-.26.04-.413.075-1.584 1.8-1.824 4.528 2.475 6.338-.204-1.633-.38-2.366.412-3.488.56.01 1.008-.462 1.838-.6-2.5 2.5-2.692 6.144 2.737 7.275-.216-2.373-.642-3.316.3-4.575 1.06.4 2.065.257 2.625-.862.905-2.036-.226-4.303 0-6.113.226-1.584 3.407-2.016 4.313-3.6 1.13 2.262 1.388 4.05 1.388 4.05-.677 2.256-.7 5.188 2.663 3.413.163.878-.107 2.05-.638 3.375 3.9-1.026 4.623-3.2 4.05-6.113.373-.667.42-1.44.225-2.7-.452-2.94-2.47-2.065-3.6-1.613.226-1.584.643-2.95-.263-5.437 3.394 1.358 5.236 1.145 7.725-2.475-2.715-.226-3.173-1.8-5.888-2.025 4.75 0 7.72-.915 8.625-4.988-2.036 1.13-3.18-.674-4.538-.9 2.262-.68 5.205-.47 6.563-3.413-1.8 1.13-3.215-2.025-5.025-2.025 3.167-1.13 4.57-1.564 5.7-3.6-1.8.226-3.438-2.936-5.7-.9 2.036-2.5 7.046-.92 7.725-3.863-2.036.226-3.856-.215-4.987-2.025-.905-1.8-1.154-3.862-2.738-3.862 2.036.226 3.188 0 3.188 0-2.715-1.584-4.315-3.84-3.862-7.913-2.94 3.62-7.898 6.8-10.613 6.337s-5.9-2.266-5.662-6.112c.226-3.394.938-4.07.938-7.013 2.94 2.5 7.462 4.32 14.475 3.188 11.538-1.584 18.528-10.657 18.075-23.1-.452-12.217-3.618-18.547-14.025-28.275-9.728-9.05-11.547-13.115-12-21.712-.452-9.276 3.835-15.143 8.813-16.5 3.394-1.13 5.222 2.686 3.413 5.175-1.584 2.262-2.034 6.36-.45 9.3 1.8-.452 2.05-1.38 4.087-2.963-3.62 3.394-4.77 8.15-3.187 12.45 1.8 4.525 6.55 4.088 8.587 4.088-3.167-5.882 1.613-7.924 1.613-12.675.68 5.656 3.386 7.666 8.137 4.725-3.62-.226-4.28-4.525-3.375-6.787.68-2.036 2.036-2.498 0-5.213 4.072 1.358 5.4-2.008 5.4-5.175-1.584 2.715-4.526 3.38-6.562 2.7-1.8-.905-2.92-1.564-3.6-3.6-.68-1.584-1.594-4.764-4.988-4.537 2.94-2.036 4.066-4.97 1.125-8.138zm-137.2-24.68v-1.983h5.455c-4.463-6.694 2.727-8.926 4.215-4.96.992-1.488 1.984-5.95-2.48-7.2-3.72-.992-7.438 4.215-5.703 8.678-2.48-3.967-8.43-6.942-11.9-6.942 0 3.47 2.975 9.67 6.942 11.9-4.7-1.736-9.67 1.984-8.678 5.703 1.24 4.463 5.703 3.47 7.2 2.727-3.967-1.736-1.736-8.926 4.96-4.463h0v-3.47z"/><path d="M526.985 210.14c2.23 2.975 4.7 2.975 6.694 3.223-.496-1.984-.496-4.463-3.223-6.446 1.984.496 3.47.496 5.455-.496h-8.926v8.926c.496-1.736.744-3.223 0-5.207zm81.935 23.433c-1.8 2.262-4.303 4.086-6.113 4.313-2.036.226-4.984-.234-5.663 1.35-.905 1.357-1.6 1.575-4.087 1.575s-3.82.45-4.725.225c-1.13-.226-1.36 1.605.225 2.963-.452 2.036.452 3.63 0 4.763s-.46 2.25 1.575 2.475l1.237.15c-.24.994-.012 2.312 1.013 3.45-.077.005-.148-.005-.225 0-3.394.226-9.496-3.836-7.913-8.588-2.5 1.357-3.614 4.518-1.125 8.138s5.415 3.414 9.488 3.188c4.18-.22 7.3-.65 9.975 1.2.01.665-.438 1.2-1.837 1.5-1.183.263-3.734.435-5.887.413-1-1.04-2.054-1.743-2.25-3.113-.36.54-.565 1.92-.525 2.925-.258-.056-.466-.145-.6-.225-1.357-.68-2.026-1.135-1.8.675.226 2.036.232 4.08-1.125 5.212 2.036.453 1.566-.218 3.15-1.575 3.394.68 8.6.9 11.1-.675-1.13 2.715-1.366 4.988-5.212 4.988s-4.98.436-6.112 2.925c-3.167.453-4.073 1.12-6.788 2.25s-6.1.677-8.587.225c.905 2.262 3.173 4.313 5.887 4.313-2.262.68-3.186 3.405-3.413 4.763-.226 1.584-2.273 2.92-4.987 3.825 4.525.226 6.804-.913 10.65-5.437 4.072-4.75 3.396-2.47 6.337-3.15-2.036 1.357-3.633 1.6-4.537 3.863-1.13 2.262-1.34 3.15-3.375 3.375 2.94 2.036 4.98 1.6 6.112-.9.905-2.5 3.4-4.3 5.663-4.538-3.167 1.8-3.187 2.05-3.187 4.538s-.893 5.18-2.25 4.05c1.357 2.715 3.14 2.97 4.725 1.387 1.357-1.8 1.604-3.405 3.188-4.762-1.357 2.262-2.735 5.208-3.187 6.112-.68 1.13-.67 2.245-1.575 3.15 2.036.226 5.208-.218 6.112-1.575 1-1.386 3.358-6.068 4.088-9.338-.67 4.1-.9 5.46-.9 6.863 0 1.357-.712 3.375-.712 3.375 2.715 0 4.76-1.1 4.988-4.05s-.004-4.073.675-6.787c0 3.62.45 4.073.45 6.787s1.374 3.82 3.862 4.5c-1.13-2.5.682-3.17-.675-6.113-1.13-2.94-1.13-3.365-.45-5.175 1.13 3.167 1.8 2.9 1.575 5.4s2.718 4.992 6.337 4.087c-2.036-2.036-2.705-6.566-1.8-12.675.226 7.466 4.068 9.96 7.688 6.112-2.715-.68-3.64-2.04-2.962-6.112 2.036 2.036 4.3 1.365 4.763-1.35-3.167-.68-4.053-3.405-3.6-4.762.68-1.584.645-2.468-.712-3.825 2.715.68 5.66 1.105 6.112-2.062-2.262 0-4.05-.663-4.275-2.925s-.478-4.08-2.288-5.437c2.94.68 3.854.467 5.438-2.7-2.715.452-4.986-.698-5.212-3.413s1.366-5.654-1.575-7.238c1.357-1.13 1.574-2.24 1.8-4.275-1.13 1.13-2.238 2.704-4.5 2.025-.905-3.62-3.4-6.8-7.462-6.562.905-1.8 1.13-1.825 0-4.087zm-8.175 16.762c0 1.074-.28 2.983.225 4.875-2.616-.483-5.143-.553-7.913-.412.547-1.308.737-2.536 1.2-3.3.6-.063 1.18-.196 1.762-.487 2.036-1.13 2.915.004 4.725-.675z"/></g><path d="M600.762 247.613c-.226 1.8 1.8 4.298 3.167 5.204m16.516 7.013c-2.715-1.584-3.394-2.94-4.525-5.43m4.978 15.837c-.905-1.13-2.262-1.8-2.715-3.62m2.262 13.575c.68-3.846-.68-6.335-2.715-7.692m-2.036 7.692l-.452-5.656m-15.612-2.94c-2.715.68-4.525.68-6.56 1.358-2.036.452-1.357.905-4.072 2.5-2.715 1.8-4.072 2.5-7.014 3.168m21.72 26.24c3.62 3.167 6.56 7.013 7.014 10.86m-19.683-14.027c2.715.905 3.394.905 4.977.68M548.727 234.5c2.262.905 5.656 3.394 6.787 5.656m-.454-6.786c.68 1.8 1.357 3.167 2.036 4.525m92.76 7.465c1.13-1.8 2.262-2.5 2.262-4.3m-1.808 12.22c-.453 3.62 0 6.335 4.75 7.692" class="C B"/><path d="M597.595 243.09c.452-.905 1.13-1.8 1.13-1.8 1.13 1.13 3.62 1.8 2.715 3.394-2.715.453-4.525-.68-5.43-1.584h1.584z" class="B"/><path d="M611.848 243.54c2.262.226 5.882 1.8 7.24 2.94m13.8 90.95c2.036-.226 2.715.453 4.298-.68 0 1.8-.452 3.167-.226 4.525m-22.623-6.105c.226 2.262 3.167 4.977 5.656 4.072m-59.953-2.716c1.584.68 2.262 2.036 2.94 2.94.452 1.13 1.584 2.036 3.167 2.94m-9.955-1.13c2.036-1.13 3.62-1.13 4.525.453.905 1.357 1.584 1.357 3.167 1.8m55.43 29.42c2.262-.68 3.394-1.357 4.3-3.394m-1.36 8.372c-.226-2.036.226-2.5 1.357-3.167 1.357-.905 2.262-2.036 2.715-2.94" class="C B"/><path d="M523.925 284.17c8.517 1.807 4.646 8.775.516 6.968.516 1.807 3.097 5.936 7.226 3.613 3.613-2.065 2.58-8.517-2.065-10.84 4.646 1.3 11.098-1.032 13.678-3.613-2.58-2.58-9.033-4.645-13.678-3.613 4.646-2.065 5.678-8.775 2.065-10.58-4.13-2.323-6.7 1.807-7.226 3.355 4.13-1.548 8 5.162-.516 6.968v7.743zm-8.487 2.618c-2.58-.258-4.387.774-6.7 2.323.774-2.84 2.065-4.387 4.387-5.42-3.87.516-5.678-1.3-7.226-2.58 1.548-1.032 3.355-2.84 7.226-2.58-2.323-1.032-3.613-2.323-4.387-5.162 2.323 1.548 4.13 2.323 6.7 2.065V286.8zm145.732 89.964c2.5 1.817 6.588-1.136 2.953-4.998 1.363-2.272 2.272-4.543 3.18-6.815 5.906.9 5.68-4.998 2.272-5.452v-.454c1.363-1.136 4.998-2.726 7.042.682 1.817 2.953-1.6 7.497-6.134 7.497 4.1.9 4.998 3.635 5.906 6.588-2.953.9-5.906 1.6-8.86-1.136 2.5 3.635.682 9.087-2.726 9.314-3.18 0-4.1-2.272-4.316-4.1.227-.454.454-.9.68-1.136zm-13.76-10.695c2.025-1.582 3.686-2.065 5.94-1.788-3.018-1.515-3.418-3.853-3.9-5.514 1.804.22 3.916-.206 6.4 1.93-1.132-1.97-1.163-3.576-.408-6 .878 2.168 1.416 3.378 4.154 5.316-1.713 2.765-3.228 5.783-5.392 8.493-2.7-2.164-4.288-2.358-6.796-2.437zm-43.18 56.48c-1.173.4-2.345.977-3.322 1.368l-.586.195-.586-.195-3.322-1.368h-.4c.195 2.15-.4 3.323-1.564 5.08 1.954-.586 3.127-1.368 3.9-3.127-.195 2.736 1.173 4.104 1.954 5.472.782-1.368 2.15-2.736 1.954-5.472.782 1.76 1.954 2.54 4.104 3.127-1.173-1.76-1.954-2.932-1.76-5.08h-.4z" class="D B"/></g><path d="M517.568 198.04l166.9-.47-.882 109.196c-1.596 74.356-71.123 116.537-82.563 115.988-21.682-1.04-81.338-45.77-83.87-115.154-1.867-51.144.426-109.56.426-109.56z" stroke="#d21034" stroke-width="3.6" class="C"/><path d="M608.53 411.5c1.173-.39 4.495-2.345 2.736-5.668-1.564-2.54-6.45-1.76-8.21 1.76.977-3.518-.782-8.404-2.736-10.554-1.954 2.15-3.518 7.036-2.736 10.554-1.76-3.518-6.645-4.3-8.013-1.76-1.954 3.322 1.368 5.277 2.54 5.668-1.173-3.127 3.518-5.668 5.08 2.932l3.127 1.173c.782-.195 1.954-.782 3.127-1.173 1.564-8.6 6.254-6.06 5.08-2.932z" stroke="#000" class="B D"/><path d="M525.304 204.495l150.7-.442-.796 102.872c-1.44 70.05-64.224 109.788-74.553 109.27-19.58-.98-73.448-43.12-75.735-108.485-1.686-48.182.385-103.215.385-103.215z" stroke="#d21034" stroke-width="3.6" class="C"/><g stroke="#000"><path d="M539.103 376.752c-2.5 1.817-6.588-1.136-2.953-4.998-1.363-2.272-2.272-4.543-3.18-6.815-5.906.9-5.68-4.998-2.272-5.452v-.454c-1.363-1.136-4.998-2.726-7.042.682-1.817 2.953 1.6 7.497 6.134 7.497-4.1.9-4.998 3.635-5.906 6.588 2.953.9 5.906 1.6 8.86-1.136-2.5 3.635-.682 9.087 2.726 9.314 3.18 0 4.1-2.272 4.316-4.1-.227-.454-.454-.9-.68-1.136zm13.277-10.2c-1.94-1.686-3.573-2.255-5.84-2.097 3.093-1.355 3.615-3.67 4.184-5.303-1.813.127-3.9-.4-6.493 1.593 1.233-1.908 1.35-3.5.72-5.97-1 2.12-1.6 3.3-4.426 5.092 1.566 2.85 2.92 5.944 4.94 8.764 2.82-2.02 4.405-2.13 6.914-2.078z" class="B D"/><path d="M515.638 196.1l169.977-.083s1.113 54.493-.1 111.512c-1.596 74.356-73.053 117.31-84.492 116.76-21.682-1.04-82.882-46.927-85.415-116.312-1.867-51.144.04-111.876.04-111.876z" stroke-width="1.2" class="C"/><path d="M685.83 197.964v-1.983h-5.455c4.463-6.694-2.727-8.926-4.215-4.96-.992-1.488-1.984-5.95 2.48-7.2 3.72-.992 7.438 4.215 5.703 8.678 2.48-3.967 8.43-6.942 11.9-6.942 0 3.47-2.975 9.67-6.942 11.9 4.7-1.736 9.67 1.984 8.678 5.703-1.24 4.463-5.703 3.47-7.2 2.727 3.967-1.736 1.736-8.926-4.96-4.463h0v-3.47zm-12.22 12.483c-2.23 2.975-4.7 2.975-6.694 3.223.496-1.983.496-4.463 3.223-6.446-1.984.496-3.47.496-5.455-.496h8.926v8.926c-.496-1.736-.744-3.223 0-5.207zm.448 73.723c-8.517 1.807-4.646 8.775-.516 6.968-.516 1.807-3.097 5.936-7.226 3.613-3.613-2.065-2.58-8.517 2.065-10.84-4.646 1.3-11.098-1.032-13.678-3.613 2.58-2.58 9.033-4.645 13.678-3.613-4.646-2.065-5.678-8.775-2.065-10.58 4.13-2.323 6.7 1.807 7.226 3.355-4.13-1.548-8 5.162.516 6.968v7.743zm11.726 2.618c2.58-.258 4.387.774 6.7 2.323-.774-2.84-2.065-4.387-4.387-5.42 3.87.516 5.678-1.3 7.226-2.58-1.548-1.032-3.355-2.84-7.226-2.58 2.323-1.032 3.613-2.323 4.387-5.162-2.323 1.548-4.13 2.323-6.7 2.065V286.8zM592.2 208.4c-1.173.4-4.495 2.345-2.736 5.668 1.564 2.54 6.45 1.76 8.208-1.76-.977 3.518.782 8.404 2.736 10.554 1.954-2.15 3.518-7.036 2.736-10.554 1.76 3.518 6.645 4.3 8.013 1.76 1.954-3.322-1.368-5.277-2.54-5.668 1.173 3.127-3.518 5.668-5.08-2.932l-3.127-1.173c-.782.195-1.954.782-3.127 1.173-1.564 8.6-6.254 6.06-5.08 2.932zm4.3-11.9c1.173-.4 2.345-.977 3.322-1.368l.586-.195.586.195 3.322 1.368h.4c-.195-2.15.4-3.323 1.564-5.08-1.954.586-3.127 1.368-3.9 3.127.195-2.736-1.173-4.104-1.954-5.472-.782 1.368-2.15 2.736-1.954 5.472-.782-1.76-1.954-2.54-4.104-3.127 1.173 1.76 1.954 2.932 1.76 5.08h.4z" class="B D"/><g stroke-width="1.2" class="C"><path d="M519.463 199.578l163.07-.08s1.068 52.836-.106 108.12c-1.53 72.095-70.084 113.74-81.06 113.208-20.8-1-79.514-45.5-81.944-112.774-1.792-49.59.04-108.473.04-108.473z"/><path d="M524.044 202.924l153.306-.08s1.004 51.46-.1 105.307c-1.44 70.22-65.888 110.782-76.206 110.263-19.556-.983-74.753-44.316-77.038-109.84-1.684-48.3.037-105.65.037-105.65z"/><path d="M527.1 206.54l146.876-.076s.962 49.676-.095 101.654c-1.38 67.783-63.125 106.94-73.01 106.438-18.736-.95-71.618-42.78-73.807-106.03-1.614-46.623.035-101.986.035-101.986z"/></g></g></svg>