<svg xmlns="http://www.w3.org/2000/svg" width="881.173" height="496" xmlns:v="https://vecta.io/nano"><path fill="#fdd500" d="M0 0h444.913v496H0z"/><path fill="#fff" d="M444.913 0h436.26v496h-436.26z"/><path fill="#0164bb" d="M810.72 65.92l-13.88 29.095 23.075 20.28-31.96-4.2L775.8 139.3l-5.872-31.697-30.59-2.843 28.33-15.38-6.748-29.97L784.303 81.6l26.418-15.68z"/><g fill="#d51516" fill-rule="evenodd" stroke="#000" stroke-linejoin="round" stroke-width="7.087"><path d="M444.15 3.556c7.583 1.695 39.835 38.296 42.586 46.873 2.216 8.782-8.63 85.18-18.748 110.327-18.614 4.04-48.47 1.525-65.62-3.606-3.347-7.067-10.487-99.116-7.2-112.5 3.404-6.537 41.986-40 48.992-41.104zM252.727 155.44c79.704 9.24 240.096 8.507 350.426 11.378 10.4 1.3-7.654 28.152-12.126 39.15-4.422 10.875-5.278 35.23-30.786 34.585L290.46 232.4c-33.1-1.024-58.694-79.287-37.735-76.97zm122.69 80.952c16.113 1.86 80.12.725 104.03 3.978 16.348 2.472 16.15 58.213 8.598 66.9-8.407 9.6-48.774 3.258-71.14 9.908-21.292 6.038-23.02 12.665-62.876 8.12 9.87-52.623 3.697-91.047 21.4-88.905z"/><path d="M341.237 332.642c6.143-8.157 17.6-5.816 31.277-4.86 18.685.88 59.59-14.726 86.813-14.45 16.514.595 29.235 7.246 28.902 22.19-.602 11.82.6 40.264-6.806 56.304-4.4 10.445-68.38 8.456-97.73-2.085-8.564-3.032-40.427 2.86-44.06-2.696-4.238-5.83-6.916-43.1 1.603-54.403z"/><path d="M345.83 393.668c2.534-4.693 14.4-6.297 21.927-5.77 19.874 1.395 57.453 18 99.577 10.256 25.403-4.592 52.796 50 43.82 64.288-9.196 15.126-19.815 22.07-30.882 30.32-86.24.78-148.086 8.212-147.016-24.86.555-16.955 2.263-55.927 12.575-74.235z"/></g></svg>