<svg xmlns="http://www.w3.org/2000/svg" width="2400" height="1200" fill-rule="evenodd" xmlns:v="https://vecta.io/nano"><path d="M0 0h2400v1200H0z" fill="#cf142b"/><path d="M0 0h1200v600H0z" fill="#00247d"/><g fill="#fff"><path d="M134.17 600H0v-67.083L1065.84 0H1200v67z"/><path d="M0 67.087L1065.84 600H1200v-67.082L134.17 0H0z"/><path d="M0 200.003V400h1200V200z"/><path d="M500 600h200V0H500z"/></g><path d="M0 240v120h1200V240.002zm1200 315.28V600L800.003 400.002h89.44zM710.56 200l400-200H1200L800 200zM400 200h-89.437L0 44.726V0zM89.447 600H0l400-200h89.445z" fill="#cf142b"/><path d="M1560.06 500.044l.073 99.848c.1 132.705 132.407 254.243 239.862 300.107 107.454-45.865 239.763-167.402 239.862-300.107l.073-99.808-479.87-.04z" fill="#007934" stroke="#b88b00" stroke-width="10"/><path d="M1764.52 641.267l.03-5.3-19.88-1.725 8.44-18.036-4.6-2.615 14.84-8.552-33.93-19.54 5.27-3-9.65-20.613 22.72-1.97-.04-6.045 33.93 19.552v-39.077l5.23 3.057L1800 518.78l13.12 18.642 5.23-3.057v39.077l33.93-19.552-.04 6.045 22.72 1.97-9.65 20.613 5.27 3-33.93 19.54 14.84 8.552-4.6 2.615 8.44 18.036-19.88 1.725.03 5.3-29.68-17.102.04 237.055-5.83-.04-5.84.04.03-237.055zm97.96 16.398l16.33-11.4-2.7-4.57 17.14.018-19.62-33.888 6.06.045 1.95-22.675 20.66 9.652 3-5.255 19.6 33.897 19.53-33.844 3 5.263 20.7-9.582 2.04 22.706 6.06-.032-19.54 33.84 39.16.03-3.06 5.217 18.7 13.065-18.66 13.027 3.07 5.223-39.16-.044 8.58 14.83-5.3-.04-1.7 19.84-18.08-8.445-2.62 4.597-17.16-29.654-10.03-5.794-34.26-.034 2.67-4.563zm-124.96-.315l-16.33-11.4 2.7-4.57-17.14.018 19.62-33.888-6.06.046-1.95-22.675-20.66 9.65-3-5.254-19.6 33.897-19.53-33.844-3 5.263-20.7-9.582-2.04 22.705-6.06-.032 19.54 33.84-39.16.032 3.06 5.218-18.7 13.065 18.66 13.027-3.07 5.223 39.16-.044-8.58 14.83 5.3-.04 1.7 19.84 18.08-8.446 2.62 4.598 17.16-29.654 10.03-5.795 34.26-.035-2.67-4.562z" fill="#c5892a"/><g fill="none"><g stroke="#f3cc00" stroke-width="2" stroke-linecap="round" stroke-linejoin="round"><path d="M1799.95 533.216v82.58"/><path d="M1846.1 629.14l-109.4-60.703"/><path d="M1753.63 629.217l109.65-60.95m-75.36-23.184l12.08 20.803 12.08-20.803m-24.16 0z"/><path d="M1740.98 584.112l24.06-.058-11.98-20m-12.08 20.06zm118.04-.174l-24.06-.058 11.98-20m12.08 20.06zm-17.17 29.523l-24.06.057 11.97 20m12.1-20.058zm-83.96.076l24.06.058-11.97 20m-12.1-20.06zm202.97-15.736l-41.28 71.515"/><path d="M1952.88 703.955L1888.5 596.69"/><path d="M1872.75 657.782l125.44 2.04m-53.7-57.757l.06 24.054 20.87-11.973m-20.93-12.08z"/><path d="M1884.35 612.396l20.86 11.977-.37-23.308m-20.5 11.33zm102.32 58.87l-20.8-12.076 20.37-11.335m.43 23.4zm-29.63 16.984l-20.86-11.977.36 23.3m20.5-11.332zm-72.75-41.91l20.8 12.077-20.37 11.335m-.44-23.412zm-245.13-48.852l41.3 71.516"/><path d="M1647.12 703.642l64.38-107.267"/><path d="M1727.25 657.47l-125.44 2.04m53.7-57.758l-.06 24.054-20.87-11.973m20.93-12.08z"/><path d="M1715.65 612.08l-20.86 11.978.37-23.308m20.5 11.33zm-102.32 58.872l20.8-12.078-20.37-11.335m-.43 23.413zm29.63 16.983l20.87-11.977-.37 23.308m-20.5-11.33zm72.75-41.9l-20.8 12.077 20.37 11.335m.44-23.412z"/></g><g stroke="#c5892a" stroke-width="11"><path d="M1800.16 792.217c45.41-31.313 87.778-73.148 118.825-120.82"/><path d="M1800.25 792.217c-45.412-31.313-87.78-73.148-118.826-120.82"/></g></g><path d="M1560.04 300.032H2040V500.18h-479.96z" fill="#fff"/><g fill="#f7403a"><path d="M1822.52 300.058h-45v200.1h45z"/><path d="M2040 377.602h-479.96v45.01H2040z"/></g><path d="M1560 300.002h479.963V500.15H1560z" fill="none" stroke="#b88b00" stroke-width="10"/><path d="M540 0v600h120V0z" fill="#cf142b"/></svg>