<svg xmlns="http://www.w3.org/2000/svg" xmlns:xlink="http://www.w3.org/1999/xlink" height="496.063" width="992.126" xmlns:v="https://vecta.io/nano"><style><![CDATA[.B{fill-rule:evenodd}.C{fill:none}.D{stroke-width:.875}.E{stroke:#003d00}.F{fill:#fed501}.G{fill:#016b29}.H{stroke:#000}.I{stroke-width:1pt}.J{stroke:#fed501}]]></style><g class="B"><path d="M0 0h992.126v248.03H0z" fill="#076a21"/><path d="M0 248.03h992.126v248.03H0z" fill="#fdd401"/></g><g transform="matrix(1.423471 0 0 1.423471 598.3113 78.36362)"><path d="M129.352 78.242L125.938 51.3" class="C H I"/><path d="M159.58 207.32s-9.514-6.92-10.812-14.27-2.162-17.3-2.162-17.3l6.92 3.892 1.297 14.27c.432 4.325 4.757 13.406 4.757 13.406zm14.35-83.443c7.32-.577 7.706 11.222 7.706 11.222s-12.974-6.92-18.596-6.92 10.9-4.303 10.9-4.303z" class="B D E G"/><path d="M181.41 134.57c-.284-.284-9.883-9.712-14.597-9.6s-4.828.227-4.828.227" class="C D E"/><path d="M100.332 129.044H89.088c-3.892 0-11.244-.865-11.244-.865s10.38 6.92 16 6.487 19.03.432 19.03.432l-7.784-5.622-4.757-.432z" class="B D E G"/><path d="M78.95 128.55s10.337 2.953 14.427 3.124 15.563-.568 15.563-.568" class="C D E"/><g class="B G D E"><path d="M158.283 206.456c-1.297-2.162-6.92-8.65-7.784-14.27s1.297-13.406 1.297-13.406m-70.06 15.567s21.623-27.678 25.516-31.138 21.623-12.542 23.786-14.704 22.488-21.623 26.813-23.353 16.866-1.297 16.866-1.297-4.325.865-6.92 3.027-8.217 8.217-12.1 10.812-33.732 21.623-37.625 25.948-9.514 11.677-12.542 14.27-23.786 16.434-23.786 16.434z"/><path d="M99.9 129.044s12.542 8.217 14.704 10.812S127.145 152.83 128 154.56s14.704 21.623 18.596 25.083 7.784 9.082 8.217 11.677l.432 2.595s-.865-17.73-1.73-19.46-4.757-3.027-8.217-6.92-10.38-7.352-17.3-18.164c-2.162-5.2-14.704-19.893-17.73-20.758s-10.38.432-10.38.432z"/><path d="M183.8 181.805s-2.595-11.677-12.11-18.596-25.948-13.406-43.68-13.84-27.245 1.297-28.543 1.73-4.325 7.352-4.325 7.352 17.73-3.892 28.543-3.892 32.435 8.217 36.76 10.812 23.353 16.434 23.353 16.434z"/></g><g class="C D E"><path d="M83.034 193.05l20.326-18.164c2.595-2.595 7.784-11.244 11.677-13.84s32.003-23.353 34.165-25.083 13.84-11.677 13.84-11.677h0"/><path d="M99.035 154.992s19.03-3.892 27.678-3.46 39.355 12.542 42.382 14.704 12.974 13.84 12.974 13.84"/><path d="M154.823 184.833l-31.138-39.355c-4.757-5.2-19.46-16.866-19.46-16.866"/></g><path d="M76.98 168.4l12.974-9.947 9.514-7.352 5.576-.794s-6.01 8.578-9.47 11.173-18.596 6.92-18.596 6.92z" class="B D E G"/><path d="M101.75 150.835s-5.905 6.042-8.147 7.7-14.967 8.88-14.967 8.88" class="C D E"/><path d="M131.903 243.216l-.865-128s3.027-2.162 4.325-8.217-.865-28.1-.865-28.1-15.136-3.027-14.704-1.297 1.73 20.758 2.595 24.218 4.757 13.406 4.757 13.406L124.55 231.54c0 4.325 7.352 11.677 7.352 11.677z" class="B D E G"/><path d="M124.34 84.62l-.964 12.53m1.93 1.287c0-1.285.964-13.173.964-13.173m1.928 15.743l-.32-17.67m2.57 21.526l.32-19.278m.322 23.133s2.25-5.14 2.25-9.96V87.192m-9.02 144.018s2.484-1.826 5.274 2.445c1.928 2.892 2.25 7.43 2.335 8.895" class="C D E"/><g class="B"><path d="M84.33 43.848s1.297 16.434 6.055 20.758 16.866 4.757 16.866 4.757-13.406 7.352-14.27 14.704 7.352 17.73 7.352 17.73 2.595-3.892 4.325-4.757 5.622-.432 7.784-1.73 7.352-7.352 9.514-7.352 8.65 6.055 11.244 7.352 6.487 2.595 8.217 3.892 4.325 2.595 4.325 2.595 3.027-3.027 4.325-5.2 0-3.46 1.297-5.622 7.352-8.65 6.055-12.11-3.027-4.325-6.055-4.757-6.055 0-6.055 0l6.055-3.46s3.46 1.297 6.487 1.297 13.84-3.46 16-3.892 7.352.865 7.352.865-1.73-18.596-16.434-19.46-12.974 8.217-16.866 10.812-6.92 6.055-6.92 6.055 1.297-4.325 3.46-6.92 7.352-7.784 9.082-10.38 3.892-9.082 3.892-12.11-2.162-8.217-2.162-10.812.432-5.2.432-5.2-8.65 2.595-13.84 6.92-10.812 14.27-10.812 14.27-3.892-7.352-6.487-9.514-9.514-5.622-11.244-7.352-3.892-5.2-3.892-5.2-5.622 11.677-5.622 15.57 3.027 9.947 3.027 9.947c-4.325-1.73-9.514.432-13.406.432s-9.082-2.162-9.082-2.162z" fill="#dd1810" class="D H"/><g fill="#fee500"><path d="M100.902 88.105s3.035-6.45 6.828-7.587 16.31 1.517 16.31 1.517l-1.897 4.173s-4.93 0-5.31-1.517 1.138-2.276 1.138-2.276-5.7-.38-9.104 0-7.966 5.7-7.966 5.7z"/><path d="M133.145 81.656s2.655.38 4.173 2.276 3.793 6.07 3.793 6.07 1.517-3.035-.38-5.31-3.414-3.414-3.414-3.414L138.835 79s2.276.38 3.414 2.276 2.276 2.655 2.276 2.655.76-2.655-.76-4.173-2.655-1.897-2.655-1.897 1.517-1.138 3.793-.38 6.07 3.035 6.07 3.035-2.276-3.793-4.173-4.173-4.552-.38-4.552-.38 9.863-10.242 13.656-12.518 11-3.414 11-3.414 0-1.517-2.655-1.897-14.035 5.7-14.035 5.7l2.655-4.552s-16.69 9.863-18.587 12.518 3.035-7.207 4.93-9.483 5.7-5.7 6.828-9.104 2.276-6.07 2.276-6.07-7.207 6.828-8.725 9.104-2.655 6.828-4.93 5.7-2.655-4.173-2.655-4.173-.76 5.31-2.276 4.93-2.276-2.276-2.276-2.276 0 3.414-1.897 3.035-.38-3.035-1.897-5.7-3.793-3.035-3.793-3.035 1.897 4.173 1.517 6.07-.76 6.45-3.414 4.93-3.035-3.793-4.93-3.414.76 1.897-.38 3.035-3.414 1.897-3.414 1.897 2.655.38 4.173 2.655 4.93 2.276 6.45 5.31 2.276 7.587 2.276 7.587l11-1.138z"/></g><path d="M117.972 64.966l9.104 15.173s3.035-4.173 4.93-4.173 4.173 1.517 4.173 1.517 1.138-7.207.76-9.483-1.517-4.552-4.173-4.552-3.414-.38-4.173 1.517-.76 7.966-.76 7.966-1.138-6.828-3.793-8.725-2.655-2.655-4.552-1.517-1.517 2.276-1.517 2.276z" class="G"/><path d="M108.488 75.966s2.276 2.276 4.93 2.276 10.242 1.138 10.242 1.138l-.38-1.517s-12.897-3.035-14.794-1.897zm-1.518 10.242s-2.655.76-3.793 3.035.38 3.793.38 3.793 0-2.655 1.897-3.793 1.517-3.035 1.517-3.035zM92.936 61.552s1.897 2.276 3.793 2.276 5.7.76 5.7.76-4.552 2.276-6.45 1.517-3.035-4.552-3.035-4.552zm6.828-11.76s1.897 1.517 4.552 3.035 4.552 1.517 4.552 1.517-.76-1.517-3.035-2.655-6.07-1.897-6.07-1.897zm9.862-14.415s-1.138 3.414 0 6.45 3.793 5.7 3.793 5.7 1.138-4.552-.38-6.45-3.414-5.7-3.414-5.7zm3.794-1.138s1.517 2.276 2.276 4.173 3.035 3.793 3.035 3.793 0-3.414-1.517-4.93-3.793-3.035-3.793-3.035zm37.174 1.138s-1.517 0-2.655 2.276-.38 4.552-.38 4.552.38-1.517 1.897-3.414 1.138-3.414 1.138-3.414z" fill="#fee500"/><use xlink:href="#D"/><use xlink:href="#D" x="-3.414" y="3.793"/><use xlink:href="#D" x="3.794" y="0.758"/><use xlink:href="#D" x="6.069" y="3.793"/><use xlink:href="#D" x="-13.276" y="-0.759"/><use xlink:href="#D" x="-9.104" y="-1.517"/><use xlink:href="#D" x="-5.31" y="-0.379"/><use xlink:href="#D" x="-17.449" y="3.035"/><use xlink:href="#D" x="-25.794" y="5.311"/><use xlink:href="#D" x="11.001" y="15.932"/><use xlink:href="#D" x="16.311" y="17.828"/><use xlink:href="#D" x="18.208" y="14.035"/><use xlink:href="#D" x="28.071" y="14.794" fill-opacity=".75"/><use xlink:href="#D" x="-19.726" y="27.691"/><use xlink:href="#D" x="-15.173" y="29.968"/><use xlink:href="#D" y="34.898"/><use xlink:href="#D" x="-3.034" y="33.76"/><use xlink:href="#D" x="-30.726" y="10.242"/><use xlink:href="#D" x="-26.174" y="12.528"/><use xlink:href="#D" x="-19.726" y="16.691"/><use xlink:href="#D" x="-24.656" y="17.448"/><use xlink:href="#D" x="-22.38" y="21.622"/><use xlink:href="#D" x="-17.449" y="21.243"/><use xlink:href="#D" x="-21.242" y="9.863"/><use xlink:href="#D" x="-16.69" y="7.966"/><use xlink:href="#D" x="-12.138" y="3.803"/><use xlink:href="#D" x="-9.862" y="3.035"/><use xlink:href="#D" x="-7.206" y="9.104"/><use xlink:href="#D" x="1.517" y="14.035"/><use xlink:href="#D" x="6.069" y="9.863"/><use xlink:href="#D" x="11.001"/><use xlink:href="#D" x="3.424" y="29.208"/></g><path d="M133.426 75.996c.665-5.7 2.172-10.932 2.838-16.632" class="C H I"/><g class="B"><use xlink:href="#D" x="3.424" y="25.036"/><use xlink:href="#D" x="3.424" y="21.243"/><use xlink:href="#D" x="-18.586" y="34.898"/><use xlink:href="#D" x="-14.794" y="34.14"/><use xlink:href="#D" x="-9.862" y="34.898"/><use xlink:href="#D" x="-17.449" y="12.898"/><use xlink:href="#D" x="-12.138" y="16.691" fill-opacity=".75"/></g><path d="M135.416 76.636c2.576-7.913 3.843-16.95 3.798-25.706" class="C H I"/><g class="B"><use xlink:href="#D" x="0.759" y="9.104"/><use xlink:href="#D" x="9.484" y="22.001"/></g><path d="M129.076 77.32c2.222-7.475 3.133-15.512 3.296-23.267m-5.208 24.943c-1.916-8.85-1.4-17.605-3.503-26.548M125.834 77c-3.023-6.417-4.174-13.116-7.104-19.252" class="C H I"/></g><g transform="matrix(.901639 0 0 .901639 -104.8469 9.874816)"><g id="A" stroke="#917b01" stroke-width=".5"><path d="M265.307 205.58s5.314-51.24 4.175-51.62-2.847.76-3.985.2-.033-3.522-.033-3.522c1.576-.49 3.148-.52 4.73-1.474s3.172-2.83 4.757-4.247l-4.813-27.565c5.8 6.512 9.26 22.153 10.257 23.316.907-1.6 4.127-16.093 10.382-23.843l-4.672 27.617c1.53 1.7 2.53 3.535 3.884 4.387s3.342 1.712 4.517 1.717c1.604-.802 1.165 2.095.027 3.044s-3.985.38-3.985.38l4.744 51.62s-8.16-2.277-14.423-2.657-15.562 2.657-15.562 2.657z" class="B F"/><path d="M270.048 170.85c.87-2.743 1.5-21.453 2.1-22.923m.382 21.747c.248-2.743.745-21.55.745-21.55m-5.295 56.288c1-4.04 1.732-31.603 2.453-33.768m4.082-22.326l-.124 21.356m-3.526 33.006c.3-4.04.866-31.748.866-31.748m4.397-1.454c.248-.5.124-21.062.124-21.062m-3.078 22.804l-.144 31.46m4.712-33.3l.124-20.964m-2.816 53.976c.3-.722.144-31.026.144-31.026m1.732 30.88l.144-30.882m1.876.578l.144 30.016m2.165-30.46l-.144 30.16m2.02-30.295l-.144 30.305m2.164-28.717l-.144 29.294m1.734-29.583l.722 30.016m-7.982-53.872l.124 20.376m8.578 3.48l1.732 30.016m-8.45-54.166l-.124 20.474m8.862 3.676l2.165 31.026m-9.3-55.274l-.124 20.572m1.862-19.494l-.124 19.886m1.49-20.082l.62 20.376m.62-20.376l1.5 20.376m.248-20.376l1.86 21.062" class="C"/><g class="B F"><path d="M278.816 139.772s-15.027-.423-17.304-1.182-3.606-.76-3.606-.76 1.898-3.796 3.606-4.175 6.263 1.898 6.263 1.898l11.758 4.046s14.052-6.133 18.227-5.754 4.365 3.416 4.365 3.416-2.277.95-3.226 1.518-20.082.992-20.082.992z"/><path d="M261.752 146.322s-3.325-3.754-.897-6.372 36.974-1.78 38.682-.26.663 5.24.663 5.24-1.898-.76-4.175-.95-6.452 3.796-6.452 3.796-14.423 1.708-15.182 1.328-2.467-5.124-5.504-5.124-7.135 2.34-7.135 2.34z"/><path d="M260.95 150.59c1.044 1.044 7.913-.838 9.213-.724l19.66 1.717c4.53.395 7.445-2.062 8.963-2.252s.22-5.7-3.64-5.76-25.377-.006-29.637.136-5.603 5.84-4.56 6.885z"/></g><path d="M260.632 144.228s1.206-2.482 2.766-2.624 33.05-.496 34.184-.07 2.624 2.908 2.624 2.908" class="C"/><g class="B F"><path d="M266.825 127.204s-.38-.57-1.328-2.467-1.328-5.314-1.328-5.314 4.175-.95 5.883.2S280.3 130.43 280.3 130.43s7.21-8.73 9.3-10.438 6.073-.2 6.073-.2-.95 5.883-2.657 7.59l-13.854 14.233-12.335-14.423z"/><path d="M278.212 128.153l-.2-13.854c-.2-2.277 2.277-3.416 2.277-3.416s1.898 1.708 1.708 3.796 0 14.992 0 14.992l-3.796-1.518z"/></g><path d="M258.15 137.42c.355-.07 3.546-1.844 5.46-1.56s32.552-.07 33.9.07 4.397 1.277 4.397 1.277m-40.92 13.333c1.277-1.56 2.128-3.12 4.184-3.688s29.574-.922 30.496-.638 3.333 2.624 3.333 2.624" class="C"/><g class="B F"><path d="M264.902 134.803l-6.806-4.753s3.226-1.518 5.883-.95 15.94 10.084 15.94 10.084 12.525-9.325 15.372-10.084 6.073 1.518 6.073 1.518-5.176 2.976-6.884 5.064-14.613 13.017-14.613 13.017-12.88-12.38-14.967-13.897z"/><path d="M276.694 137.262s-3.606-17.27-3.796-19.737.57-5.504.57-5.504 3.226 1.708 3.985 3.796 3.226 14.992 3.226 14.992 1.14-13.474 2.088-15.182 4.175-3.416 4.175-3.416.95 3.606.38 5.693l-5.314 19.926-5.314-.57z"/></g><path d="M260.136 129.476s2.837 1.135 4.326 2.482 15.106 13.262 15.106 13.262 13.404-12.766 14.822-13.333 6.596-1.277 6.596-1.277" class="C"/><path d="M263.79 127.773l15.75 15.94s12.905-12.525 14.803-14.803l3.985-4.744s-6.452.76-8.54 2.657-9.68 10.817-9.68 10.817-9.3-9.49-11.197-11.766-7.59-1.518-7.59-1.518l2.467 3.416z" class="B F"/><path d="M262.087 124.194l17.643 16.484 16.486-16.035" class="C"/><path d="M280.68 133.466s-10.248-11.766-11.576-14.233-.95-4.175-.95-4.175 2.657-.57 4.175 1.14 8.16 11.387 8.16 11.387 5.693-9.49 7.022-10.817 4.365-1.708 4.365-1.708-.2 2.467-1.708 5.124-9.49 13.284-9.49 13.284z" class="B F"/><g class="C"><path d="M268.533 115.438L280.3 130.05l11.197-14.803m-11.29-4.14l.213 18.58"/><path d="M273.68 112.384l6.88 18.794 6.17-18.368m-21.843 6.95l15.035 17.234 15.106-17.092"/></g><path d="M268.343 172.56h23.722l-.76-9.68h-22.014l-.95 9.68z" class="B F"/><path d="M279.523 172.8l12.122-5.34m-22.8.72l9.957-5.195" class="C"/></g><use height="1052.362" id="B" width="744.094" x="46.178" xlink:href="#A"/><use height="1052.362" width="744.094" x="45.601" xlink:href="#B" y="-.289"/><g class="B"><path d="M240.945 31.9H407.48v70.866H240.945z" fill="#fdd401"/><g fill="#0139ab"><path d="M375.388 93.563c.9-.27 1.644-.744 1.978-1.244s.197-.95-.358-1.18-1.446-.205-2.336.065-1.644.744-1.978 1.244-.197.95.358 1.18 1.446.205 2.336-.065zm7.252 2.337c.233-.9.22-1.8-.032-2.336s-.708-.664-1.194-.3-.93 1.128-1.16 2.028-.22 1.8.032 2.336.708.664 1.194.3.93-1.128 1.16-2.028zm8.106-.696c.836.406 1.712.57 2.297.43s.8-.564.54-1.1-.922-1.133-1.76-1.538-1.712-.57-2.297-.43-.8.564-.54 1.1.922 1.133 1.76 1.538zm-15.956-7.58c.928-.06 1.77-.353 2.208-.764s.407-.88-.082-1.23-1.362-.527-2.3-.465-1.77.353-2.208.764-.407.88.082 1.23 1.362.527 2.3.465zm-53.15-4.512c.9.184 1.8.123 2.33-.16s.624-.743.244-1.2-1.176-.866-2.088-1.05-1.8-.123-2.33.16-.624.743-.244 1.2 1.176.866 2.088 1.05zm-2.9 4.907c.903-.22 1.683-.65 2.045-1.13s.25-.938-.3-1.2-1.432-.287-2.336-.068-1.683.65-2.045 1.13-.25.938.3 1.2 1.432.287 2.336.068zm11.957 8.543c.045-.93-.148-1.8-.508-2.258s-.83-.47-1.233-.01-.68 1.32-.724 2.25.148 1.8.508 2.258.83.47 1.233.01.68-1.32.724-2.25zm-8.783-3.013c.638-.676 1.056-1.463 1.097-2.063s-.3-.923-.898-.846-1.357.54-1.994 1.218-1.056 1.463-1.097 2.063.3.923.898.846 1.357-.54 1.994-1.218zm-54.8-51.895c.292-.882.34-1.772.123-2.333s-.663-.7-1.17-.387-1 1.064-1.293 1.946-.34 1.772-.123 2.333.663.7 1.17.387 1-1.064 1.293-1.946zm-6.998-3.78c-.38-.848-.948-1.535-1.487-1.802s-.968-.074-1.125.507-.018 1.46.364 2.308.948 1.535 1.487 1.802.968.074 1.125-.507.018-1.46-.364-2.308zm-9.905 13.068c-.93.01-1.786.252-2.248.64s-.457.857.012 1.234 1.33.603 2.26.594 1.786-.252 2.248-.64.457-.857-.012-1.234-1.33-.603-2.26-.594zm1.52-11.575c-.87-.33-1.755-.417-2.326-.226s-.738.63-.44 1.153 1.018 1.048 1.887 1.378 1.755.417 2.326.226.738-.63.44-1.153-1.018-1.048-1.887-1.378zm1.558 41.625c-.93.027-1.78.287-2.235.682s-.44.865.036 1.233 1.342.577 2.27.55 1.78-.287 2.235-.682.44-.865-.036-1.233-1.342-.577-2.27-.55zm-2.693 7.7c-.767.525-1.343 1.204-1.5 1.782s.098.966.697 1.018 1.44-.24 2.208-.765 1.343-1.204 1.5-1.782-.098-.966-.697-1.018-1.44.24-2.208.765zm6.668 6.677c.317-.874.4-1.762.2-2.33s-.642-.728-1.16-.42-1.03 1.035-1.348 1.908-.4 1.762-.2 2.33.642.728 1.16.42 1.03-1.035 1.348-1.908z"/><use xlink:href="#E"/></g><g fill="#d4170f"><path d="M345.472 37.304s-13.565-.866-15.585 0-2.31 3.752-4.33 3.752-8.947-.577-10.68-.29-5.484 2.31-5.484 5.195.72 7.808 11.256 8.08c11.112.29 30.016-6.927 30.016-6.927l.29 2.886s4.33-4.906 6.638-5.195 4.618 1.154 3.752 2.31-1.732 2.02-1.732 2.02 5.195-1.443 5.195-3.175-1.154-2.02-1.154-2.02 3.175.29 4.33 0 2.31 1.443 1.732 2.598-1.732 2.886-1.732 2.886 5.195-1.443 4.618-2.886-.577-2.31-.577-2.31 4.618-.866 5.484.577-2.02 8.658-2.02 8.658 1.732-4.618 5.484-5.484 5.772-1.732 8.08-.29 10.102 4.618 9.813 8.658c0 2.02-3.463 3.752-8.947 4.04s-23.378-4.04-36.077-4.04-18.47 2.31-26.553 2.886-51.085 0-51.085 0-10.68-3.752-12.7-7.504 2.598-7.793 2.598-7.793L264.37 42.5l-2.02 1.443s1.732-4.33-1.732-4.33-3.175 4.33-3.175 4.33-2.31-4.33-3.752-4.618-2.31 4.618-2.31 4.618 4.04 1.443 3.752 3.463-5.195 2.02-5.195 2.02-.29 3.752.866 4.618 3.463-2.31 4.618-2.02.866 9.524.866 9.524l1.732-2.02.29 8.08 1.732-4.04.29 8.947 6.35-4.33-2.886 9.524 4.04-4.04v5.772l21.935-4.618-2.31 4.04s-5.772 4.906-11.833 5.484-10.68 1.154-13.565.866-5.772-5.484-6.927-5.195.866 3.175-.29 4.618-5.772 2.598-4.33 3.463 6.35.577 6.35 2.02-3.175 3.463-.866 4.618 5.195-3.463 5.772-2.31-.577 3.752 1.732 3.752 2.31-3.175 2.31-3.175l11.256 3.463-2.598-4.33s3.752 2.31 5.484 2.886 4.33.577 4.33.577l-3.463-4.618 7.504 4.04-1.732-4.618 6.35 3.752-1.154-4.04s2.598 2.31 4.618 2.31 3.175-1.732 3.175-1.732l-2.02-2.598s2.31 1.443 5.195 1.732 7.504-1.732 7.504-1.732l-5.484-1.732 5.195-1.732-2.598-1.732 3.752-6.35s1.443.29 6.638 0S339.41 65.3 346.338 65.588s19.626 13.565 25.398 13.276 16.45-1.154 16.45-1.154l-2.598 5.195c-.866 1.732-.866 4.04-.866 4.04l-5.484-.866s.29-1.154-2.02-1.154-1.154 4.33-1.154 4.33-1.732 2.886-.29 3.175 3.463-2.02 4.618-.866-.577 3.463 1.154 3.752.866-4.33 3.175-4.04 3.463 3.175 4.906 2.886 2.02-2.886 2.02-2.886-2.02-.866-2.02-2.31 2.31-5.195 3.752-5.195 1.154 2.886 1.154 2.886l1.443-3.175 1.732.577-2.31-4.33 4.906.577-2.886-3.175 3.175-.29s-2.31-1.154-2.31-2.886.866-4.33.866-4.33-6.35 2.31-12.988.577-15.008-9.813-15.008-9.813 15.297 2.598 19.626 2.31 9.813-.577 10.68-4.04-5.195-12.988-5.195-12.988v3.752s-5.772-6.06-25.11-7.504-33.768 11.545-50.508 10.102c-15.008-1.732-8.37-10.68-.866-9.813 4.618.577 11.833 3.175 15.297 3.175s9.236-3.752 10.4-8.08z"/><path d="M357.305 65.877c-2.02.29-24.244.866-25.11 9.236s8.947 7.215 8.947 7.215l-.29 2.886s-6.35 1.154-10.102 1.154-3.463-4.33-5.484-4.906-2.598 3.175-2.598 3.175l-3.175.29.29 3.175 2.02 1.154.29 2.31 1.732 2.598 2.598-1.443.866 3.752s.866-.866 2.02-1.154 2.02 1.443 2.02 1.443-.29-3.752 3.175-4.04 5.772 3.752 5.772 3.752v-4.04l3.175 3.175.577-4.33 3.752 3.752.866-3.752 2.02 1.732v-3.752l6.35 3.175.866-3.752 5.195 1.443-1.732-1.732h5.484s-2.02-4.618-3.752-6.35-10.967-4.618-11.256-7.215 5.484-8.947 5.484-8.947z"/><g class="D J"><path d="M281.688 52.023c-1.154 0-12.4 10.68-13.854 12.7s-.577 5.195-.577 5.195l4.906-4.906s-1.443 2.886-1.443 5.195.866 4.906.866 4.906l2.598-6.35V80.02l3.752-5.484-2.31 10.967 4.906-8.08s-2.598 3.752-1.443 6.35 2.02 3.175 2.02 3.175l2.31-9.524s-.29 5.772.866 7.793 3.175 3.175 3.175 3.175l.577-6.638c.29-2.886-.577-5.195-.577-5.195s2.598 3.463 2.31 5.484-1.154 4.618-1.154 4.618 3.175-3.175 3.752-5.772-.577-4.906-.577-4.906.577 5.484 1.732 6.927 3.175 3.175 3.175 3.175v-9.813s.29 5.484 1.732 6.927 4.33 1.443 4.33 1.443-2.31-4.04-2.598-7.504.577-4.906.577-4.906l1.154 6.35c.29 1.732.866 3.752.866 3.752l.866-6.927c.29-2.02-.29-3.463-.29-3.463s2.598 4.04 2.02 5.195 0 2.31 0 2.31 1.443-5.195 1.443-7.504-1.443-4.33-1.443-4.33l3.752 5.195s1.154-4.906-.577-9.524-10.68-9.813-10.68-9.813l-16.162-1.443z"/><path d="M277.647 45.674s-3.175 2.598-3.175 5.772 2.02 4.04 2.02 4.04l-1.154 5.772 2.02-1.154.29 5.772 2.02-2.886.866 5.484 2.02-2.02v5.484l2.02-2.598 1.154 2.886 1.732-3.175 1.732 2.886 1.443-2.886 3.463.866-.577-1.732 2.31.29-.866-4.618 2.31 3.175.29-3.752 2.598 1.732s1.732-7.504 1.732-12.122-1.443-7.215-1.443-7.215l2.886-4.33-4.906 1.443-1.443-4.04-2.886 2.31-.866-1.732-1.154 1.443-1.443-3.463-2.02 3.463-3.175-2.31-.577 3.175-2.598-1.154-.29 2.886s-4.33-3.175-5.772-3.175 1.443 5.484 1.443 5.484z"/></g></g></g><path d="M279.668 54.332c2.02-.577.866 5.195 3.175 5.772s5.484-2.02 5.484-2.02.866 2.886 3.463 2.598 4.04-6.06 4.04-6.06" stroke-width=".75" class="C J"/><g class="B"><path d="M284.286 64.722s2.93-3.72 3.05-6.183c.116-2.398-1.544-2.652-1.53-3.668s.673-1.374 2.086-1.424c1.48-.052 2.498.605 2.57 1.616.067.944-2.136 1-2.136 3.598s3.175 6.06 3.175 6.06-1.818-.29-2.395 0-1.068 2.31-1.068 2.31.135-1.8-1.308-2.088-2.444-.22-2.444-.22z" class="F"/><use xlink:href="#E" x="24.682" y="-34.476" fill="#0139ab"/><path d="M287.423 46.87c-1.437 1.2-2.576.828-4.58-.042-.113.983.866 4.33 2.598 4.04s1.983-4 1.983-4zm-1.3 2.045c0 .532-.432.964-.964.964s-.964-.432-.964-.964.432-.964.964-.964.964.432.964.964zm4.49-1.82c1.437 1.2 2.5.147 4.504-.722.113.983-.828 4.82-2.56 4.532s-1.945-3.356-1.945-3.8zm1.253 1.856c0 .532.432.964.964.964s.964-.432.964-.964-.432-.964-.964-.964-.964.432-.964.964z" class="F"/></g><path d="M306.162 80.514l2.46-5.56s.107 3.1.535 2.567 1.497-3.85 1.497-3.85 1.497 2.14 1.925 1.4l1.07-1.7s.962 2.78 1.176 2.032 1.07-2.46 1.07-2.46 1.4 2.78 1.4 2.14.428-2.673.428-2.673l1.07 1.497 1.818-2.46s-.214 2.887.214 2.14S322 71.224 322 71.224s1.176 1.818 1.7 1.07.855-1.4.855-1.4h1.4l.962-1.604 1.176 1.283.856-1.176m18.48 9.406c4.5-.107 4.705-1.7 4.705-1.7m-.962 3.314s2.032-.32 2.78-1.4m0 2.576c2.78-.107 2.673-1.497 2.673-1.497m.43 2.352c2.673.642 2.246-1.497 2.246-1.497m-.32 3.743c1.4-.107 1.604-1.818 1.604-1.818m11.976-16.254c3.53-.642 2.78-.107 2.78-.107m-.855 1.925c1.7.107 2.78-1.283 2.78-1.283m-.748 2.566c1.818-.214 2.032-1.283 2.032-1.283m.428 2.352c1.7-.214 1.925-1.176 1.925-1.176m.108 2.14c1.818-.75 1.497-1.283 1.497-1.283" stroke-width=".75" class="C J"/><g class="B"><path d="M344.157 38.05c-6.347-.807-7.337 2.972-7.337 2.972s3.78-1.504 4.11-1.137-.734 2.495-.293 2.275 3.008-2.018 3.522-4.11z" class="F"/><path d="M237.402 28.346h173.622v177.165c0 17.717-21.26 17.717-85.04 38.976-63.78-21.26-88.242-22.352-88.583-38.976V28.346zm7.087 7.087h159.45v170.08c0 7.087-14.173 10.63-77.953 31.9-63.78-21.26-81.496-24.803-81.496-31.9V35.433z" fill="#feffff"/></g></g><defs ><path id="D" d="M138.076 50.172c.001-1.048-1.018-1.898-2.276-1.898s-2.277.85-2.276 1.898 1.018 1.898 2.276 1.898 2.277-.85 2.276-1.898z"/><path id="E" d="M264.406 97.196c0-.93-.235-1.79-.616-2.254s-.852-.465-1.234 0-.617 1.324-.616 2.254.235 1.79.616 2.254.852.465 1.234 0 .617-1.324.616-2.254z"/></defs></svg>