<svg xmlns="http://www.w3.org/2000/svg" width="900" height="600" xmlns:v="https://vecta.io/nano"><path fill="#ffce00" d="M0 0h900v600H0z"/><path fill="#d00" d="M0 0h900v400H0z"/><path d="M0 0h900v200H0z"/><path fill="#d00" d="M420.25 500.53c-96.02 0-173.88-77.846-173.88-173.87V101.34h347.75v225.32c0 96.03-77.84 173.87-173.87 173.87"/><path d="M594.28 325.73C594.28 421.976 516.255 500 420 500s-174.27-78.025-174.27-174.27V100H594.3v225.73M420 491.8c91.727 0 166.1-74.955 166.1-166.67V108.2H253.92v217.52c0 91.7 74.36 166.07 166.08 166.07z"/><path d="M425.64 233.18c3.204-.848 3.4-6.845 2.644-9.894-2.71-4.97 4.462-9.293 1.22-14.97-.15-3.506-4.61-5.578-2.22-8.937 1.596-6.543-1.29-13.614-6.5-17.5-.05-5.848-.294-13.978-7-16.156-4.477-.526-2.628-4.96-4.5-7.782-2-2.523-4.924-3.28-5.656-6.656-3.284-5.868-12.258-1.03-15.094-6.812-2.682-5.036-2.7-11.088-4.25-16.25-5.608-1.445-7.18 5.464-8.343 9.344-2.795-1.813 3.61-7.656-3.938-5.094 1.587-6.65-5.38-3.935-6.78-.25-.29 4.805-5.81 2.18-8.75 4.344-3.845 1.673-3.944 7.616-1.344 10.28-3.443 2.208-10.666 1.022-10.844 6.937-4.48 3.653-9.062 6.787-13.5 10.688-4.267.493-6.52 4.42-9.656 6.844-2.28 4.698 1.426 9.358-.094 14.312-.917 7.642 9.9 3.548 10.69 8.183 1.693 5.008 7.902 2.07 11.622 2.973 5.548-.623 4.834-10.165 11.22-7.72 3.468 1.38 7.023-1.105 10-1.156 4.174 5.212-.35 12.433-3.812 16.875-5.778 6.396-12.7 13.43-12.687 22.812-2.34 3.682-7.077 5.63-8.437 10.22-1.91 2.03-.058 10.405-4.47 6.125-5.328-2.718-11.738-3.415-15.22-8.812-4.862-1.326-10.453-1.327-15.47-1.22-4.233.877-5.763 5.11-7.25 8.437-5.002 5.714-9.884 12.836-16.562 17.156-2.455 2.825-7.158 4.13-7.312 8.437-2.73 5.163.972 10.98-.36 16.642-.53 5.037-.674 10.872 5.454 12.17 3.035 2.432 6.96 6.95 10.906 4.844 2.83-7.236 6.2-15.39 3.72-23.094-2.407-1.69-3.5-4.442-6.437-5.344-1.16-3.87 3.513-7.15 5.187-2.344 7.047-1.204 8.375-9.94 11.594-15.344 1.717-6.56 11.296-6.833 13.97-.875 3.42 4.86 7.79 10.06 11.438 14.344-6.48-.007-12.545-2.603-18.188-5.187-4.715-1.38-7.2 2.768-8.844 6.25-4.7 2.387-6.906 8.404-4.156 13.03 1.02 10.215 1.364 20.57-1.164 30.516-2.048 5.394 2.715 8.966 2.555 14.052.43 4.656 4.702 7.28 4.827 11.9 1.97 4.213 7.703 3.735 11.532 5.844 5.234 2.257 9.92-.927 7.952-6.515-.302-5.975.32-13.997-4.733-17.985-3.968-.996-11.323-.81-8.5-7.25 3.713-1.543 7.438-2.575 4.938-7.594-2.617-6.612-6.075-13.446-4.062-20.858 2.276-5.133 9.893-1.846 12.218 1.796 7.954 8.34 16.888 17.073 28.874 19.063 5.904.29 10.708 7.75 16.906 4.625 1.394-4.377 5.56-3.623 9.056-1.668 6.753 2.825 12.69 7.495 20.006 8.98 11.78 4.054 24.533 3.204 36.625 1 6.24-.623 12.24 2.995 14.812 8.437 3.574 4.956 9.983 2.962 15 4 3.197 6.153 10.78 5.064 16.688 5.78 8.45 4.377 11.815 14.254 15.406 22.47 4.527 9.78 4.128 22.2-3.03 30.47-2 4.466-9.47 4.09-8.968 10.063-1.202 5.186-6.946 10.047-6.094 16.094 5.828 2.235 13.024.814 19.05-.603 6.39-1.04 13.4-5.82 11.637-13.24-2.88-3.653-.977-7.803 2.25-10.5 1.274-3.196 3.044-5.668 6.75-5.25 4.836 1.728 2.732-6 2.47-8.78-.686-4.935-4.596-8.617-5.844-13.563-.975-3.26-3.716-12.912 1.656-7.344 6.25 6.298 11.636 13.68 12.874 22.844 2.322 7.554.668 15.386-1.374 22.72-2.046 4.052-4.882 7.924-9.125 9.72-1.395 2.976-2.363 5.928-4.375 8.72-1.24 4.2-5.925 8.4-3.72 12.688 9.457 1.698 20.444.17 27.844-6.218 3.195-5.3-2.534-12.565 3.068-16.958 1.77-3.54 4.943-5.1 8.823-5.573 5.096-1.113 3.218-8.512 2.358-12.28-3.487-7.135-7.494-14.104-8.468-22.22-2.008-5.163-3.93-10.768-3-16.28-2.324-7.69-12.474-7.61-16.345-14.062-3.122-4.74-6.294-9.622-10.656-13.53.25-6.43 2.618-13.264-.001-19.78-2.298-6.197.266-13.288-2.437-19.594-.572-3.204-2.33-6.144-3.062-9.125 6.86.69 13.853-2.957 16.406-9.344 4.4-4.194 9.782 3.174 6 7.188-2.565 4.144-7.042 7.752-6.656 13.312-1.193 8.878 4.198 16.434 10.53 21.75 3.25 3.94 1.608 11.374-3.937 8.812.01 5.907 7.67 3.144 10.47 1.03 2.536-4.85 3.796-8.116 3.062.094-.376 2.937-7.275 6.566-.625 5.594 4.768-1.276 5.89-6.84 6.906-10.72-.705 6.92 3.436 2.75 3.5-1.312 1.183-.732.895 8.88-.812 11.906-2.006 4.234-9.854 7.916-12.47 2.75-3.787 4.47 5.436 7.41 9.094 5.438 9.02-2.34 14.762-11.76 15.063-20.656-.283-4.07-2.67-7.457-4.25-10.937 4.28 2.997 10.53 2.317 12.312-2.937 2.038-7.235-4.795 2.245-7.688-2.75-4.83-7.194 3.15-14.166 2.437-21.656 1.853-6.768-2.03-13.136-5.905-18.156 2.127-8.36 1.875-18.614-5.437-24.344-3.592-4.348-9.927-3.9-14.97-4.5-4.158-9.02-16.957-8.326-24.875-4.657-10.508 4.12-16.275 19.313-8.813 28.467 4.774 2.31 7.794 9.823 2.156 12.906-5.136 4.127-12.037-.59-16.594-3.437-9.225-7.603-21.44-11.814-33.595-10.674-12.83 1.427-25.992-1.584-37.28-7.512-3.487-2.002-2.135-3.52.094-5.906.536-1.905 1.984-2.937 2.668-4.606z"/><g fill="#fff"><path d="M425.02 233.98c-3.412-2.9.022-6.605-1.334-9.976-4.264-4.35-4.824-3.995-1.28.906-2.76 1.63-6.362-4.13-7.72-5.625.946 4.944 7.112 6.25 7.344 11.72-.547 5.4-2.355 6.348-2.5.53-.43-4.47-6.612-4.703-6.53-9.47-1.452 2.713 2.412 5.803 4.594 7.47 1.935 2.67 1.534 9.413-2.72 8.813 2.832-4.262.08-8.127-3.47-10.375-2.928-3.883-.756 4.535.156 7.97-2.345-4.774-.077 8.804 3.144 4.53 10.536 8.914 24.993 13.135 38.7 12.72 8.643.284 17.667-.535 25.844 3.062 9.988 3.03 16.9 12.33 27.738 12.944 5.863.1 11.062-6.106 8.022-11.702-1.14-4.953-7.778-6.8-7.885-12.334-1.524-7.17 2.666-14.86 9-18.22 5.672-3.7 14.2-4.4 20.35-1.363 3.308.966 2.906 6.172 6.682 5.8 6.165-.35 12.3 1.798 15.406 7.406 4.463 5.794 1.388 13.43 2.03 19.938 2.95 4.53 6.467 9.154 5.687 15.094-.104 5.3-1.8 10.737-4.156 15.188.05-6.076 3.3-12.3.438-18.187 2.28 7.895-4.064 15.617-.813 23.375.868 3.5 3.52 6.758 6.562 7.687-7.542.37-12.936-8.14-10.984-15.27.145-5.885 2.763-13.192-2.36-17.73.302 3.645 1.763 9.58.594 14.156-2.428 7.286-1.826 15.846 3.28 21.688 5.06 7.578 3.946 20.15-4.063 25 .355-2.3 2.72-5.72 2.343-8.875 2.885-8.358-3.92-15.05-8.406-20.906-5.144-6.726 1.102-15-1.687-22.03.154 2.52.343 6.663-.78 9.78-2.18 6.818.9 13.463 5.12 18.53 3.328 8.9.152 5.542-2.9 1.035-3.1-5.295-9.642-9-9.45-15.94-1.448 3.897 1.738 9.1 4.937 11.906 3.3 4.466 6.583 10.688 3.78 16.25-1.55-4.95-2.64-11.752-8.062-14.53-4.265-3.717-7.504-8.717-7.22-14.688-1.748 4.393 1.477 10.48 4.53 14.22 2.83 3.183 5.96 9.826 2.156 12.937.317-5.645-3.326-9.845-7.375-13.125-5.242-5.237-6.085-13.73-4.125-20.594 4.044-4.155 9.65-10.226 5.156-16.22-1.173-2.04-8.18-2.016-3.312-3.875 3.33-2.762 9.083 7.6 7.688 2.468-2.265-5.414-10.88-6.098-13.062-.375-1.686 8.387-11.892 12.642-19.406 8.875-5.892.36 3.595 4.886 3.125 8.406 2.572 6.646 3.377 14.154 2.406 21.313 2.52 6.83 3.554 14.758.306 21.45 3.78 2.66 7.44 6.86 9.85 11.238 2.717 4.644 5.983 9.34 11.312 11.344 2.542 1.96 6.772 3.905 6.53 7.437-.103 7.844 3.2 15.5 5.437 23.03 1.454 7.803 8.448 13.874 6.78 22.438-2.554 2.9-8.572-.734-8.47 3.115-.902 4.537-5.784 7.07-6.998 11.416-7.516-1.1 6.02 4.865.702 5.145-3.672-2.808-10.1-2.32-13.483-2.676 4.714 2.402 12.7.462 14.658 6.62-5.545 6.03-14.933 7.05-22.752 6.693-3.112-1.986 1.347-5.927 2.032-8.593 1.268-3.423 4.674-5.556 4.418-9.4 5.402-2.108 8.25-7.8 11.238-12.433 1.2 4.882 2.5.6 6.8-.52.045-2.163-7.927-1.114-6.435-5.293 2.465-6.557-.388-13.8-1.523-20.406-1.35-6.07-4.37-11.04-8.226-15.688-3.766-5.708-9.957-8.5-16.312-10.344-7.867-2.03-15.136-6.023-20.282-11.906-3.366-2.776-6.676-5.695-11.22-6.406-6.134-.77-9.872-5.97-11.594-11.5-3.653-6.703-12.113-9.387-19.22-9.687-3.5.67 5.506.934 7.594 2.156 4.344 1.48 9.724 4.25 10.625 9.03-3.613.885-8.845 1.15-10.625-3.187-3.935-3.67 5.1-2.745-4.25-3.82-13.347 2.043-26.925 6.23-40.508 3.175-9.93-1.25-18.858-5.903-27.43-10.637-5.936-.94-4.732-4.35.563-2.188 3.497 2.026 3.573 1.184 1.28-2.25-1.782-2.274 1.856-12.046 1.167-4.782.257 13.062 2.524.944 2.24-4.906-4.83 1.357-7.346 5.768-10.594 9.125-3.897.777-4.993 4.717-6.72 7.563-6.193.205-9.986-6.26-16.406-5.812-8.6-2.656-16.225-7.598-22.47-14.125-4.36-4.776-10.36-12.122-17.656-8.375-3 2.7-4.57 8.1-3.47 11.72 1.344-6.72 1.13 3.796 2.125 5.97.28 3.938 5.577 7.785 2.875 11.406-6.28.63-5.947 9.342-1.812 12.375-.704 4.7 6.24-2.4 8.594 2.28 2.375 5.945 3.1 13.182 1.53 19.25-4.456-.13-9.243-2.17-13.375-3.312-3.578-1.036-.248-4.784-3.28-6.5-3.16-3.718-2.873-8.918-3.75-13.47 4.574 2.032 5.15-9.596 1.687-2.094-4.077 4.308-3.688-3.795-2.563-6.78 1.963-9.577 1.24-19.6.562-29.188-2.407-4.402.118-8.596 3.75-11 1.822-3.32 5.316-7.334 9.344-4.125 7.58 4.453 16.412 3.606 24.594 6.03 5.567 2.064 10.6 5.13 14.312 9.625.896-2.02-8.504-8.17-1.437-6.187 3.008 1.13 5.53 5.285 9.125 3.937-2.418-1.606-5.982-2.866-8.53-4.937-4.657-.843-5.955-3.472-3.53-7.875 2.97-5.998-.4-13.112 3.24-19.054 1.596-5.065 6.498-7.852 10.58-10.443 2.924-3.5 7.316-4.627 11.335-6.284-4.387-.35-10.237 2.645-13.53 6.47-6.4 1.748-10.26 8.247-11.72 14.53-.388 5.2.625 10.55-2.556 15.084-.52 3.385-1.04 7.885-5.006 4.322-3.447-2.913-1.33-9.195.124-13.094 2.877-6.7-1.4-14.444 2.564-20.97 2.8-5.592 3.656-2.883 1.956 1.902-1.223 2.135 1.237 10.516 1.544 5.286-1.96-7.364 5.185-12.708 5.1-19.8.72-8.84 8.546-13.96 13.252-20.513 2.942-4.534 5.448-10.174 4.187-15.875 1.9 1.053 7.88-1.12 7.28-.937-5.033 4.37-1.003 3.478 1.78-.72 1.3-3.673 6.595-4.673 6.75-9.125 2.255-9.37-.238-11.617-1.42-2.143-.648 7.177-9.804 11.22-16.02 7.643-4.927.037-9.354 4.114-14.562 2.062-.944-5.33-2.453 2.914-5.47 3.312-2.172 9.314-5.288.782-9.438 4.844-6.314.27 3.796-1.494 3.938-5 4.04-2.484 4.606-6.218-1.406-4.687-4.217 1.2-6.55 7.104-11.75 4.844-4.527 1.056-7.376-4.68-4.156-7.625.104-3.52-3.192-8.482 1.344-10.5 1.712-3.6 5.575-3.478 8.438-5.312 2.808-5.8 10.618-6.375 13.648-11.688.365-5.496 7.932-2.707 10.634-6.437 3.164-3.556 6.857-.525 10.562-.78.617-2.215-5.774-1.904-6.72-5.25-4.887 1.485-9.207.825-3.436-3.55 3.846-1.604 8.354.815 10.936 2.925.3-7.982 4.748-4.45 6.28.78-.802 3.45-.867 7.68 1.53 10.47-.048-2.487-1.557-6.356-.03-9.687 1.674-3.843.604-9.397 4.72-11.812 1.522 3.596 1.734 8.885 3.582 12.938 1.493 3.8 3.574 10.245-1.552 12.218-2.637.884 5.42 1.403 4.406 2.75 2.324 2.13 1.765 5.707 1.626 8.53 1.185-4.436.4-11.812 3-3.656 1.77 2.18-2.114 10.46 1.22 5.688-1.088-7.437 1.172-6.32 3.445-.858 1.47 4.934 3.574 10.295 2.086 15.358 3.232-1.956.187-9.137-.625-12.72-.895-5.385 2.96.928 2.906 3.063 1 2.72.25-4.637 2.5 2.094 3.026 7.848 5.294 15.944 5.397 24.432.784 9.47-2.067 18.746-5.614 27.443 1.3-.068 4.06-8.406 2.344-1.562-.326 1.203-2.824 7.346-1.25 4.844 5.586-12.533 7.007-26.787 4.66-40.338-2.2-10.93-6.34-21.278-13.1-29.912-1.67-3.387-4.83-5.673-7.53-8-1.597-4.7 5.802-1.8 9.063-1.75 5.117.495 4.06 5.974-.875 4-5.303-.95 3.077 2.235 4.977 1.283 3.136.293 7.752 4.18 4.462 7.093-4.875-4.28-2.14.34.625 2.594 2.67 1.246 7.595 1.057 8 4.844-4.385-1.447-10.533-.614-2.906.22 3.656.34 6.644 6.638 1.313 3.375-3.876-1.33-9.2-1.25-2.094.22 2.982.172 8.484 5.96 2.937 6.094-3.76-1.845-6.367-3.55-1.406.313 3.517 1.768 8.857 2.738 9.47 7.5-2.684.64-11.885-5.275-7.125-1.062 3.933 1.338 9.498 2.773 9.125 8.22 1.26 5.8-3.326 6.616-2.28.22-.892-4.6-6.4-3.28-9-6.03 1.866 3.67 9.486 3.37 7.625 9.03-1.26 5.35-8.8-6.954-4.094 1.032 3.534 2.26 8.112 3.08 9.906 7.406 3.552 2.348-2.768 13.23-1.75 8.78 2.267-4.14-.67-10.197-5.344-10.625 1.956 1.707 5.8 4.594 4.344 7.344-2.485-2.57-6.865-2.447-7.687-6.593-1.835-1.214 1.935 6.23 5.188 6 4.965 5.763-6.156 4.93-5.78-.554-2.207-1.138 1.525 5.808 4.093 5.773 6.398 1.504 7.046 9.478 4.927 14.524-.264.833 1.64 1.072-.062 1.796zm34.63 89.66a5.82 5.82 0 0 1 2.834.913c.405.404.65.938.944 1.42.25.422.278.933.077 1.38-.1.38-.363.755-.78.82a2.62 2.62 0 0 1-1.398.243c-1.2-.006-2.38.036-3.57.036-.57-.104-1.155-.075-1.722-.166l-2.042-.708c-.3-.106-.544-.342-.814-.518-.176-.492-.102-1 .212-1.408.305-.497.833-.806 1.34-1.065.402-.2.853-.236 1.294-.214.73-.05 1.48-.126 2.156-.43.465-.185.958-.367 1.468-.306zM368.62 131.5c.273-.006.62-.065.802.2.316.548.266 1.2.298 1.8.216.754-.054 1.544-.424 2.202-.27.5-.5 1.02-.906 1.417-.335.215-.742.072-1.093-.018-.5-.172-.824-.7-.798-1.22-.04-.627-.1-1.283.142-1.88.138-.343.28-.7.47-1.008.135-.22.35-.368.522-.556.176-.216.305-.475.53-.647m-27.293 55.45c-.158.72-.738 1.224-1.148 1.803-.363.467-.882.776-1.247 1.24-.403.503-.886.946-1.462 1.244-.648.346-1.373.575-2.108.6-.422-.055-.924.046-1.252-.294l-.45-.377c-.124-.362.3-.566.602-.512.48.088.972.002 1.45-.07.38-.057.74-.222 1.132-.197.303.007.64-.086.8-.372.277-.366.583-.716.8-1.13.608-.425.844-1.217 1.505-1.585.416-.266.918-.373 1.408-.365"/><path d="M277.4 265.2c.835-.405 1.658-.865 2.27-1.623 1.412-1.153 2.673-2.52 4.343-3.296 1.05-1.118 2.382-1.978 3.424-3.12 1.942-1.738 3.657-3.7 5.275-5.718l4.604-5.56c.63-1.02 1.706-1.83 2.263-2.92.414-1.3 1.396-2.37 1.738-3.728.763-1.12 1.435-2.4 2.74-2.88 1.326-.464 2.756-.833 4.095-.204 2.233.716 4.478.727 6.704.193 1.572-.268 3.523-.594 4.652.8.872.4.778 1.5 1.585 1.98.887 1.232 1.8 2.58 3.4 2.885 2.43 1.076 5.05 1.657 7.378 2.984 2.02 1.116 4.575 1.435 6.02 3.428 1.292.74.957 2.493 1.18 3.743-.01 1.815-.005 3.68-.827 5.335-1.5.4-1.3 2-2.066 3.1-2.3.408 1.047-3.012-1.602-1.935-1.346 1.504-3.16 2.838-5.295 2.787-.128 1.688 2.02 1.748 2.286 3.3.415 1.005 1.2 1.856 2.1 2.418.883.453 2.622.392 2.483 1.75-.727.75-2.735.205-3.445-.708l-4.722-4.07c-.627-.8-1.008-1.847-1.86-2.498-1.696-1.53-3.312-3.2-4.376-5.2-.38-.92-1.25-1.433-1.6-2.397l-1.516-2.33c-1.435-1.656-3.365-2.635-5.428-3.217-1.305-.52-2.783-.742-4.15-.8-2.236.056-4.02 1.466-5.894 2.5-1.3 1.626-2.15 3.516-2.954 5.42l-3.668 7.992c-.714.702-1.405 1.477-1.887 2.4-.766 1.387-2.16 1.722-3.077.318-1.04-.8-2.54-.76-3.736-.638-1.026.813-2.274 1.583-2.805 2.845-1.25 2.22-1.7 5.097-.68 7.458.864 1.03 2.917-.604 3.585.988.564.874 1.695 1.17 2.16 2.102 1.605 2.264 1.47 5.2.882 7.798.075 2.547-.888 4.95-1.452 7.4-.665 1.362-.894 2.925-1.606 4.23-.834 1.404-2.416.25-3.522-.2-1.1-.684-2.28-1.197-3.2-2.1-.827-.337-1.433-1.012-2.15-1.58-.844-.118-2.486-1.374-1.2-2.077 1.127-.4 2.144-1.16 2.887-2.07 1.115-1.844 1.737-4.03 2.622-6.034.183-1.072 1.102-1.72 1.423-2.726.648-.934 1.47-1.75 2.482-2.303-.942-1.508-3 1.288-3.98 2.362-1.043 2.156-1.94 4.44-2.762 6.704-.64.96-1.674 1.658-2.424 2.433-.298 2.217-3.872 2.102-2.805-.124 2.013-.837-.22-3.05.03-4.535.36-2.58.426-5.2.44-7.8-.05-1.825-.293-3.677-1.203-5.298-.224-1.165-.3-2.53.678-3.373.46-1.4.445-3.068 1.75-4.014.04-.33.322-.454.53-.64M507.16 381.17c-.85-.05-1.594.353-2.402-.046-.97-.24-1.538-1.283-2.505-1.62-1.012-1.022-1.096-2.662-.415-3.895.113-1.595.077-3.195-.046-4.83l-1.563-7.177c-.686-1.9-1.495-3.774-1.918-5.765-.8-1.746-1.223-3.638-2.032-5.382-.288-.8-1.832-2.174-.527-2.705 1.137-.077 2.57-1.063 3.45.037.625.313 1.283.777 1.825 1.265 1.022.54 1.784 1.415 2.217 2.488.512.707.826 1.777 1.878 1.64 1.538.256 1.2 2.283 1.804 3.406.3 1.43 1.194.33.765-.62-.324-1.565-1.3-3.135-.784-4.732.683-1.73 2.703-.734 2.603.985.796 2.648 1.368 5.368 1.676 8.114.714 2.016 1 4.22 1.903 6.15.617.982.818 2.354 1.785 3.1.906 1.094 1.22 2.545 2.22 3.574.653 1.84 1.003 3.823 1.392 5.747-.066 1.176-.732 2.024-1.44 2.9-1.3.35-2.514 1.46-3.934.816-1.265.358-2.127-2.118-3.017-.228-.9 1.542.17 3.406-.842 4.916-.72.738-.748 1.92-1.54 2.627-.206.964-1.358 1.388-1.584 2.4l-1.07 3.607c-.457.933-3.014-.422-2.452.956 1.103.333 2.35.655 2.84 1.82 1.397 1.593.12 3.308-1.55 2.006-2.945-1.117-6.194-1.35-9.3-1.005-1.035.365-5.1-1.128-3.603.383 2.583 1.158 5.372-.1 8.037.474 1.273.022 2.595.06 3.626.906 1.368.53 2.497 1.433 3.332 2.64.33.92.77 1.975-.188 2.7-1.198.862-2.027 2.277-3.55 2.648-1.73.827-3.6 1.357-5.425 1.862-2.285.72-4.694.994-7.057 1.4-1.784.192-3.577.478-5.357.26-1.124-.352-3.862.743-3.23-1.345.166-2.562 1.465-4.846 2.757-7 .666-1.02 1.3-2.034 1.677-3.203.492-.906.176-2.107 1.08-2.794.476-1.358-.223-3.37 1.327-4.15 1.456-.297 2.53-1.35 3.827-1.97l1.93-1.414c1.276-.834 1.556-2.36 2.45-3.494l3.194-5.276c.42-.718.85-1.343 1.448-1.963 1.454-1.502 1.2 1.117 1.002 2.12 1.3.348 1.77-.497 2.745-1.08 1.05-.38 2.46-.946 2.548-2.23M411.66 229.8c.197.186.433.325.64.5l.685.575.7.733c.094.12.196.234.246.38a2.77 2.77 0 0 1 .206.545c.07.232.2.437.275.67.138.4.2.855.03 1.256l-.2.704c-.053.102-.1.184-.107.01-.185-.87-.497-1.707-.878-2.507-.48-.984-1.068-1.9-1.596-2.867z"/></g><path d="M381.3 138.03c-.676.055-.93.804-1 1.38-.23 1.548.15 3.133-.228 4.666-.027.587-.383 1.058-.583 1.58l-.452 1.972c-.105.612.01 1.232.244 1.8.055.372.274.677.574.9l.54.464c.74.184.733-.72.5-1.163.045-.608-.314-1.16-.22-1.756-.03-.625.944-.793 1.1-.2.487.658.58 1.567.296 2.327-.283.362-.557.753-.722 1.18-.322.578.195 1.558.884 1.062.508-.434 1.017-.916 1.278-1.548.318-.7.583-1.537.244-2.28-.1-.544-.27-1.052-.414-1.583-.125-.574-.547-1.015-.755-1.544-.336-.327-.434-.76-.603-1.18-.205-.47-.337-.924-.447-1.422-.3-.512-.275-1.1-.358-1.678l.073-1.86c.095-.368.138-.743.038-1.117zm-21.6 14.72c-.6.213-1.276.198-1.863.486-.544.045-1.082.114-1.58.352-.753.15-1.405.56-2.1.884-.743.446-1.113 1.278-1.355 2.073-.273.628.64 1.016.82.32.18-.532.486-1 .798-1.463a3.09 3.09 0 0 1 1.038-.998c.435-.213.887-.493 1.394-.398.614.042 1.218-.113 1.767-.378.582-.178 1.2-.158 1.808-.093.573.1 1.175.068 1.712.33.685.2 1.22.67 1.717 1.155.488.3.9.766 1.035 1.33-.1.55.624 1.134.9.458.33-.603.16-1.43-.417-1.822-.406-.267-.797-.52-1.075-.934-.475-.206-.82-.63-1.314-.804s-1.056-.056-1.52-.347c-.566-.072-1.15-.005-1.7-.106l-.08-.047zm12.64.5c-.275.276-.682.437-.767.863-.265.587-.33 1.236-.54 1.84.008.293-.183.548-.282.812-.32.2-.28.556-.493.814-.22.22-.295.524-.566.7-.293.264-.53.627-.933.73-.28.165-.582.33-.744.627-.117.328.077.795.5.724.435-.04.827-.253 1.205-.458.27-.072.485-.293.695-.445.317-.158.53-.415.753-.678.176-.208.384-.4.417-.693l.265-.6c.086-.212.05-.576.222-.794.048-.3.133-.576.066-.873a4.63 4.63 0 0 1 .457-2.154c.06-.17-.1-.35-.244-.404zm-14.87 2.05c-.55.2-1.128.312-1.678.57-.616.313-1.137.8-1.507 1.393-.427.284-.553.835-.835 1.236-.23.468-.6.84-.902 1.256-.437.53.357 1.252.842.776.453-.324.973-.536 1.306-1.014.387-.372.517-.916.77-1.38.285-.395.657-.833 1.077-1.12.462-.174 1.17-.27 1.44.255.193.593-.272 1.174-.74 1.488-.597.228-.6.988-.044 1.28.44.475 1.122.493 1.702.335.594-.2.905-.887 1.565-.9.37-.098.567.257.812.456l.9.848c.703.058 1.348.362 2.02.52.575-.04 1.288-.144 1.64-.65.4-.578-.344-.84-.804-.66-.405-.026-.857.193-1.22-.046l-1.355-.664c-.5-.592-.94-1.227-1.205-1.955-.33-.54-.837-.957-1.317-1.358-.734-.466-1.615-.664-2.478-.656zm-2.07 5.7c-.057.208-.1.437.003.64.194.405.63.605 1.024.767a6.75 6.75 0 0 0 1.036.311c.474.052.934-.105 1.386-.22.245-.027.472-.136.713-.184.3-.086.637-.244.73-.57.058-.165-.066-.3-.1-.462-.398-.008-.783.134-1.113.35-.177.1-.375.198-.588.195-.295.036-.6.095-.888.082-.313.03-.587-.145-.88-.22-.117-.118-.33-.13-.375-.315-.106-.177-.313-.27-.507-.32a2.07 2.07 0 0 0-.43-.05zm-9.87 1.66c-.626.414-1.32.7-2 1-.7.696-1.615 1.147-2.428 1.682a8.29 8.29 0 0 0-2.334 1.937c-.694.6-1.328 1.2-1.7 2.037-.6.96-.34 2.15-.5 3.22-.155 1.44-.735 2.893-1.897 3.815-.787.765-1.87 1.115-2.67 1.852-.578.185-1.103 1.47-.094 1.236 1.363-.606 2.632-1.402 3.856-2.247.53-.48.754-1.207 1.333-1.65.46-.585.694-1.317.86-2.032.128-1.008-.3-1.983-.294-2.98.118-.927.72-1.674 1.37-2.3 1.083-1.14 2.445-1.967 3.715-2.88.738-.407 1.307-1.04 2-1.5.468-.106 1.873-.87.87-1.185l-.096-.017zm-13 7.44c-.57.05-1.08.377-1.658.384-.3.382-.822.44-1.148.76-.3.468-.726.83-1.1 1.237l-1.338 1.114c-.502.27-.812.796-1.006 1.32-.104.412-.116.946.214 1.262.394.205.67-.26.87-.525.225-.365.645-.728 1.102-.56.414.14.73.552 1.2.522.572.276-.262.8-.48 1.075-.183.415-.627.598-.817.997-.337.357-.83.994-.338 1.43.55.115.762-.593 1.077-.897.354-.522.863-.917 1.358-1.297.442-.223.887-.416 1.228-.8.372-.283.827-.43 1.173-.754.4-.233.652-.62.97-.94.3-.44.534-.954.697-1.454.062-.565.01-1.144-.247-1.657-.33-.6-.877-1.192-1.602-1.24l-.076.003h-.075zm29.25 1.87c-.373.006-.656.8-.656 1.53 0 .78.26 1.472.594 2.53s.746 2.55.406 3.72c-.4 1.225-1.438 2.183-2.72 2.906-1.28.612-2.697 1.048-3.03 1.438-.278.4.523.8 1.47.625.947-.112 1.95-.67 3.063-1.562 1.06-.9 2.2-2.008 2.656-3.344.445-1.393.172-2.915-.22-4.53-.4-1.505-1.016-3.002-1.406-3.28-.056-.035-.103-.032-.156-.03zm15.75.43c-.24-.01-.488.072-.656.22-.445.445-.257 1.376-.312 2.156s-.296 1.4-.687 2.28c-.5.9-1.223 1.955-1.062 2.125.223.112 1.4-.656 2.28-1.937.836-1.337 1.5-3.084 1.344-4.03-.104-.558-.505-.797-.906-.812zm3.35.13c-.247.033-.543.387-.75.875-.336.835-.496 2.056-.72 3.28-.223 1.28-.57 2.512-1.125 3.125s-1.332.67-2 .78c-.68.15-1.236.363-1.406.813-.167.4.158 1.138.938 1.25.725 0 2.024-.502 2.97-1.562.947-1.114 1.616-2.73 2.063-4.344.4-1.67.543-3.294.375-3.906-.084-.23-.195-.332-.344-.312zm21.46 12.8c-.2.028-.423.224-.562.53-.4.612-.44 1.717-.72 2.72s-.783 1.914-1.562 3.25l-1.656 3.438c-.168.558.443.052 1-.562s1.055-1.448 1.5-2.062a9.85 9.85 0 0 1 1.156-1.594c.334-.502.668-1.002 1-2.062.28-1.003.5-2.52.344-3.187-.084-.363-.3-.497-.5-.47zm-24.5 5.76c-.293.063-.666.246-1 .47-.725.445-1.287 1.004-1.844 1.563l-2 2c-.892.837-2.12 1.943-2.344 2.5-.167.558.728.5 1.563.156.78-.4 1.5-1.143 2.28-1.812l2.375-2.406c.78-.893 1.524-1.892 1.47-2.28 0-.196-.207-.25-.5-.187zm25.63.62c-.334.1-.447 1.167-.78 2.28-.334 1.17-.957 2.56-1.625 4.063-.67 1.57-1.45 3.3-1.22 3.47.22.1 1.402-1.415 2.406-3.03 1.06-1.615 1.9-3.318 2-4.656.17-1.337-.447-2.18-.78-2.125zm-28 5.56c-.354.054-.907.6-1.687 1.28-.947.724-2.194 1.743-2.25 2.188s1.113.452 2.063.063c1.06-.4 1.8-1.2 2.125-1.97.332-.724.2-1.45-.125-1.562-.042-.014-.074-.008-.125 0zm29.15 2.12c-.2-.02-.502.166-.78.5-.502.724-.897 2.018-1.344 3.188l-1.437 3.156c-.38.9-.592 1.52-.312 1.75.247.198 1.035.035 1.47-.562.5-.502.685-1.396 1.188-2.844.557-1.448 1.443-3.522 1.5-4.47.055-.473-.072-.698-.28-.72zm1.16 6.04c-.3-.007-.652.16-.875.438-.4.556-.334 1.5-.5 2.344s-.57 1.552-1.406 3c-.82 1.4-2.05 3.55-2.22 4.5-.223.948.674.732 1.344.063.668-.6 1.053-1.623 1.5-2.625l1.563-3.28c.56-1.393 1.267-3.063 1.156-3.844-.027-.417-.263-.587-.562-.594zm-42.16 14.18c-.514-.044-1.906.428-3.125 1.063-1.28.68-2.33 1.724-2.5 2.344-.223.613.377.903 1.156.625.78-.223 1.755-1.014 2.813-1.906 1.003-.9 2.036-1.84 1.813-2.062-.035-.028-.083-.056-.156-.062zm1.26 2.58c-.28-.042-.748.052-1.25.22-.946.4-1.935 1.002-2.937 1.78-1.003.725-1.945 1.558-2.78 2.28-.77.8-1.45 1.45-2 2.28h-.03c-.558.892-.978 2-1.312 2.844-.4.9-.692 1.566-.47 1.844.223.223 1.03.001 1.53-.5.4-.5.56-1.326.78-1.937.28-.724.644-1.307 1.313-2.03s1.583-1.643 3.03-2.812l4.22-3.344c.28-.4.185-.583-.094-.625zm162.34 7.58c-.425.056-.704.218-.844.47-.28.444.022 1.172.97 1.563 1.002.445 2.73.614 3.844.78 1.225.1 1.836.288 2.28.344.4.07.62.058.78-.062-1.78-1.338-3.864-2.46-5.312-2.906-.723-.195-1.294-.243-1.72-.187zm-2.06 4.1c-1.338.057-2.562.115-3.062.563-.557.445-.312 1.277.188 1.5.502.167 1.265-.215 2.156-.437.94-.18 2.016-.173 2.906-.062s1.626.464 2.406.688c.836.223 1.644.4 2.313.844.668.4 1.126.993 1.406.938.168-.1.2-.948-.125-1.562s-1.05-.992-1.72-1.437c-.78-.4-1.512-.738-2.625-.906s-2.508-.125-3.844-.125zm16.9 1.16a.3.3 0 0 0-.187.094c-.223.224 0 .64.5 1.03.56.445 1.515.804 2.406 1.25.85.44 1.548.984 2.438 1.594.836.613 1.797 1.244 2.188 1.188.277-.1.002-.913-.5-1.47-.445-.56-1.062-.928-1.562-1.375-.56-.4-1.057-.828-1.78-1.22-.668-.4-1.643-.614-2.312-.78-.584-.168-.956-.325-1.187-.312zm-.76 3.5c-.865.01-1.182.547-.937.938.22.446 1.226.603 2.063.938.834.223 1.545.668 2.438 1.28.85.72 1.908 1.72 2.688 2 .725.224 1.223-.17 1-.78-.168-.612-1.015-1.445-2.406-2.28-1.338-.9-3.268-1.894-4.437-2.062a2.66 2.66 0 0 0-.406-.031zm-2.5 2.75c-.9.057-1.014.696-.625 1.03.4.4 1.332.37 2 .594.77.28 1.403.688 2.063 1.188.78.502 1.633 1.15 2.47 1.375s1.656.047 1.656-.344c.055-.334-.713-.817-1.437-1.375-.668-.5-1.236-1.055-2.406-1.5-1.115-.557-2.83-1.024-3.72-.97zm-175.77.2c-.205-.001-.416.035-.625.063-.835.166-1.52.548-2.187.938-.725.445-1.25.945-2.03 1.78-.84.83-1.783 2-2.562 3.28-.836 1.28-1.525 2.73-1.47 3.344 0 .612.673.44 1.063-.062.446-.446.56-1.17.78-1.78s.554-1.053 1.5-2a40.01 40.01 0 0 1 3.844-3.125c1.393-1.003 2.6-1.6 2.72-2 .084-.292-.417-.435-1.03-.437zm45.2 1.97c-.457.01-.834.425-.875.97-.1.724.296 1.688.688 2.97l1.22 3.938c.393.983.82 1.592 1.03 2.063.22-2.263.2-4.466-.03-6.187-.336-2.004-.95-3.205-1.562-3.594-.167-.098-.316-.16-.47-.156z"/><path d="M410.28 253.37l-.156 1.344h.03c.33-.28.44-.656.22-1.156-.02-.06-.065-.125-.094-.187zm2.94-7.84a.75.75 0 0 0-.406.125c-.445.28-.178.88.156 1.938.223 1.004.555 2.45.5 3.844-.1 1.34-.488 2.722-.437 3.563.113.947.73 1.35 1.063 1.125s.4-1.064.5-1.844l.344-2.844c.166-1.448.265-3.6-.125-4.78-.377-.835-1.092-1.143-1.594-1.125zm4.58 3c-.22.01-.437.093-.562.28-.277.444-.087 1.513-.03 2.906 0 1.448-.178 3.1.156 3.656.34.5 1.1-.208 1.5-.937.445-.668.438-1.498.438-2.5 0-.947.007-2.112-.437-2.78-.278-.417-.697-.64-1.062-.625zm-57.42.22a2.47 2.47 0 0 0-.53.063c-.78.222-1.67.83-2.562 1.5s-1.734 1.386-2.625 2.5c-.888 1.165-1.7 2.828-1.875 3.563-.1.836.493.696.938.25.446-.4.66-1.064 1.22-1.844.5-.835 1.3-1.745 2.125-2.47.892-.78 1.82-1.3 2.656-1.812.836-.557 1.563-1 1.563-1.344 0-.25-.397-.414-.906-.406zm61.34 2.13c-.326-.008-.73.435-.937 1.063-.223.835-.237 1.953-.125 2.844.057.892.22 1.604.5 1.438.22-.05.624-.986.844-2.156.168-1.113.223-2.586 0-3.03-.084-.112-.172-.154-.28-.156zm-26.28 4.32c-.24-.013-.572.175-.906.47-.4.4-.767 1.002-1.437 2.563-.73 1.52-1.673 4.095-3.062 6.375-1.45 2.227-3.303 4.208-4.75 5.656s-2.488 2.336-2.656 2.78c-.057.447.82.447 1.656 0 .945-.445 1.906-1.275 3.188-2.5 1.28-1.28 2.85-2.894 4.188-4.844 1.393-1.895 2.426-4.183 3.094-5.687.613-1.56.858-2.375.97-3.156.1-.725.16-1.395-.062-1.562a.35.35 0 0 0-.22-.094zm.06 8.3c-.214.03-.457.352-.75.813l-1.28 2.28c-.445.836-.87 1.67-1.594 2.563-.613.836-1.572 1.723-2.687 2.78-1.06 1.06-2.4 2.23-3.78 3.344l-3.78 2.875c-.788.6-.963.852-1.03 1.063 2.83-1.168 5.483-2.657 7.594-4.156 2.06-1.616 3.57-3.23 4.906-4.844 1.28-1.56 2.392-3.182 2.78-4.406s.067-2.027-.156-2.25c-.07-.056-.147-.072-.22-.062zm-.3 7.3c-.403-.035-1.15.627-1.687 1.406-.557.78-.836 1.82-1.28 2.656-.5.947-1.13 1.8-1.687 2.47a14.27 14.27 0 0 1-1.844 1.844c-.78.72-1.72 1.485-1.72 1.875 0 .446 1.015.446 1.906 0s1.62-1.265 2.344-2.156l2.063-2.625c.668-.9 1.334-1.785 1.78-2.844s.64-2.283.25-2.562c-.042-.035-.067-.058-.125-.062zm-86.17.8c-.334.056-1.164 1.243-2 2.47-.78 1.225-1.452 2.38-1.062 2.938.4.6 1.74.548 2.97-.062s2.263-1.766 2.375-2.156c.167-.447-.7-.125-1.312-.125-.558 0-.97-.37-.97-1.094-.056-.725.278-1.97 0-1.97zm187.4 6.02c-.042.003-.1.01-.125.03-.334.1-.33.9.063 1.688.334.725.983 1.564 1.594 2.344.67.78 1.413 1.615 1.97 3.063.5 1.53.986 3.7 1.156 5.47.164 1.822.125 3.26.125 4.313 0 1.225.036 2.116.313 2.563s.8.46 1.125.125.545-.995.656-1.72c.1-.78.055-1.58 0-2.75 0-1.226-.026-2.7-.75-4.937-.6-2.172-1.92-5.017-2.812-6.687-.945-1.672-1.505-2.18-2.062-2.625-.536-.488-.958-.894-1.25-.875zm-110.78 4.35c-.293-.007-.67.087-1.03.28-.725.4-1.4 1.206-1.344 1.594.12.33.905.17 1.625-.22s1.393-.984 1.28-1.375c-.027-.167-.24-.274-.53-.28zm108.8 7.73c-.327.007-.683.156-.906.406-.445.56-.42 1.383-.312 2.72.057 1.28.16 2.965-.062 3.97s-.737 1.337-1.125 2.063c-.44.6-.814 1.673-.594 2.063.28.4 1.063.158 1.563-.344.445-.5.666-1.275 1-2.5l1.28-4.406c.277-1.56.4-2.886 0-3.5-.195-.334-.517-.476-.844-.47zm-156.03 1.9c-1.092.356.77 1.486 1.112 2.02 1.18.606 1.9 1.747 3.016 2.435 1.06.38 2.02 1.008 2.896 1.63 1.34.5 2.825.525 3.828 1.62 1 .4 2.106.048 3.134.332 1.683.35 3.477.237 5.03 1.086 1.204.435 1.995 1.4 2.976 2.113.835.8 2.13 1.135 3.3 1.214 1.205.263 2.537.05 3.188-1.114.8-.804 1.36-1.818 1.85-2.863.655-1.202 2.022-1.848 3.222-2.406.952-.145 2.173-2.222.434-1.56-.798.655-1.844.953-2.707 1.53-1.04.517-1.96 1.216-2.713 2.105-.868 1.22-2.144 2.402-3.7 2.583-1.397-.2-2.8-.74-3.627-1.926-.98-.963-2.297-1.85-3.772-1.564-2.045.1-4.116-.152-6.065-.775-1.058-.494-2.233-.62-3.294-1.12-1.14-.242-1.915-1.053-2.927-1.526l-3.442-2.7c-.574-.33-1.022-.968-1.72-1.104zm49.76 2.02c-.303.048-.645.737-.937 1.47-.334.835-.514 1.673-.625 3.344-.16 1.6-.265 4.082.125 5.313s1.265 1.202 1.656.813c.4-.445.336-1.317.28-2.875l-.062-5.312c0-1.56-.036-2.607-.312-2.72-.042-.02-.082-.038-.125-.03zm108.74 1.48c-.254-.048-.555.567-.75 1.25l-.656 2.5c-.223.835-.382 1.6-.937 2.78-.5 1.12-1.34 2.565-2 3.625-.723 1.06-1.237 1.708-1.125 1.875s.88-.116 1.438-.562c.6-.5 1.015-1.144 1.406-1.812l1.438-2.47c.613-1.17 1.44-2.67 1.72-4.062.223-1.447-.103-2.728-.437-3.062-.035-.035-.058-.056-.094-.062zm-104.44.1c-.426-.115-1.127 1.02-1.47 2.53-.45 1.72-.452 3.938-.062 5.438v.03c.334 1.504 1.07 2.263 1.625 2.375.5 0 .844-.607.844-1.22s-.272-1.176-.437-1.844-.245-1.495-.187-3 .235-3.74-.156-4.187c-.05-.07-.095-.1-.156-.125zm4.3 1.36c-.243-.018-.625.322-.875.656-.4.4-.514.7-.625 1.156-.166.4-.22.917-.22 2.03 0 1.13.076 2.72.406 3.78.277 1.057.78 1.486 1.28 1.375.4-.057.827-.668.938-1.28.055-.668-.28-1.258-.562-2.094-.277-.78-.616-1.73-.562-2.844.057-1.058.46-2.3.406-2.625-.042-.097-.106-.15-.187-.156zm3.9 3.44c-.24-.043-.465.442-.562 1.125-.057.78.1 1.834.313 2.78.34.9.735 1.67 1.125 1.72.334.055.72-.676.72-1.344s-.385-1.32-.72-2.156c-.277-.836-.502-1.84-.78-2.062-.035-.028-.06-.056-.094-.062zm98.6 1.4c-.332-.03-.77.146-1.062.438-.4.334-.483.962-.594 1.688-.057.668-.12 1.433.156 1.656.23.23.766-.216 1.156-.656.4-.5.638-1.005.75-1.562.1-.613.152-1.3-.125-1.47a.57.57 0 0 0-.281-.094zm3.9.04c-.414-.04-.566.616-.47 1.25 0 .668.322 1.397.656 2.344.336 1.002.618 2.168.563 4.063 0 1.9-.4 4.5-1 6.22-.613 1.727-1.44 2.615-2.22 3.563-.723.947-1.455 1.972-1.344 2.53.055.445.827.445 1.438 0 .557-.447.97-1.3 1.75-2.75.836-1.45 2.043-3.463 2.656-5.97s.573-5.438.125-7.5c-.445-2.115-1.413-3.408-1.97-3.687a.53.53 0 0 0-.187-.062zm-6.04 5.3c-.224.01-.594.277-.906.625-.502.557-.725 1.315-1.28 2.094-.5.72-1.294 1.456-1.344 1.906-.055.502.616.66 1.063.438.557-.28.85-.935 1.406-1.937.502-1.002 1.28-2.397 1.28-2.844 0-.208-.085-.288-.22-.28zm3.78 1.12a72.53 72.53 0 0 1-4.28 5.938l-2.97 3.47c-.334.836.123 1.23.625 1.063.557-.1 1.107-.837 1.72-1.562.67-.723 1.327-1.342 1.938-2.344.613-.947 1.248-2.223 1.75-3.28l1.03-2.344c.23-.55.248-.717.188-.937zm-8.38 4.8c-.5 0-1.103.7-.937 1.156.17.33 1.076.4 1.406 0 .28-.447-.024-1.156-.47-1.156zm13.16 4.04c-.06.016-.1.06-.156.094-.334.28-.405 1.26-.625 2.094-.168.836-.496 1.628-1.22 2.688-.73 1.06-1.826 2.5-2.156 3.5-.277.9.16 1.407.938.625.836-.78 2.016-2.73 2.906-4.344.78-1.672 1.336-2.914 1.28-3.75-.05-.682-.552-1.017-.97-.906zm-16.22 4.14c-1.95 0-5.18 1.62-7.406 1.844-5.07.56-9.5-1.972-13.688-1.75-.502 0-.9.72-.844 1 .057.223.505.292 1.063.406.502.055 1.383.504 2.22.78 3.3 1 6.47 1.938 10.03 1.938 2.227 0 8.307-1.652 9.53-3.656.28-.447-.406-.562-.906-.562zm-175.75 3.86c-.615.708-.9 1.625-1.34 2.43-.263.743-.5 1.516-.44 2.313l-.187 2.33-.225 1.966c-.144.674-.3 1.355-.712 1.922-.6 1.014-1.434 1.858-2.292 2.655-.5.27-.736 1.6.13 1.2l1.42-1.384c.475-.482 1-.9 1.52-1.34.438-.984 1-1.95 1.163-3.025l.318-3.214.1-1.695c.245-.934.38-1.9.857-2.766.13-.412.66-1.124.087-1.38-.134-.034-.276-.03-.4-.014zm178.55.08c-.502-.1-1.28.36-2.062.75a9.55 9.55 0 0 1-2.78 1c-1.06.168-2.404.168-3.406 0-1.06-.22-1.83-.514-2.22-.344-.445.166-.562.8-.562 1.125 0 .4.1.4.656.5l2.406.438c.78.113 1.4.117 2.78-.22 1.504-.334 3.9-1.053 4.97-1.72 1.002-.727.775-1.42.22-1.53zm17.58 4.12c-.695.052-1.292.416-1.125 1 .223.668 1.775 1.748 3 2.75 1.28.95 2.223 1.813 2.5 1.813.334 0 .172-.825-.22-1.437-.34-.67-.794-1.22-1.344-2-.56-.725-1.235-1.728-2.125-2.062a2.17 2.17 0 0 0-.687-.062zm-229.35-58.82h.397c.204.23.27.6.098.868-.176.493-.723.68-1.005 1.096-.457.553-.875 1.163-1.494 1.55a3.43 3.43 0 0 1-2.348.552c-.353-.07-.62-.503-.422-.832.18-.296.56-.344.874-.298a1.73 1.73 0 0 0 .801-.06c.4-.112.815-.284 1.15-.55.248-.27.472-.574.786-.773.252-.264.447-.578.708-.834.17-.228.28-.492.454-.717m25.89-29.342c-1.67.502-2.674 1.728-2.785 2.34s.725.502 1.67.223c1.003-.223 2.117-.668 3.9-.502s4.3.892 5.627.947 1.615-.668 1.78-1.67.28-2.228-.4-2.507-2.228.502-4.066.725c-1.84.27-4.12-.06-5.74.44zm22.9 11.8c.668-.166 1.28-.5 1.95-1.058.668-.445 1.448-1.058 1.393-1.392-.1-.224-1.06-.224-1.84 0-.78.277-1.392.78-2.005 1.28-.557.502-1.17.947-1.113 1.17.1.22.88.17 1.6 0zm1.1 3.4c.668-.1 1.45-.557 2.34-1.002s1.838-.836 2.006-1.28-.502-.947-1.115-.836c-.724.056-1.447.724-2.228 1.225a16.43 16.43 0 0 1-2.062 1.115c-.445.223-.445.223-.223.4s.67.43 1.28.38z"/><path fill="#fff" d="M330.73 175.32c.088-.318.436-.457.567-.75.12-.156.116-.414.304-.502.16-.07.197-.248.258-.394.07-.213.126-.43.224-.633.07-.207.096-.424.125-.64.07-.18.123-.364.242-.516a.39.39 0 0 1 .541-.097c.34.197.474.61.46.983-.007.268-.08.532-.207.768-.147.13-.334.213-.412.406-.416.547-.942 1.045-1.598 1.28-.16.053-.33.085-.5.085"/></svg>