<svg xmlns="http://www.w3.org/2000/svg" xmlns:xlink="http://www.w3.org/1999/xlink" height="480" width="640" xmlns:v="https://vecta.io/nano"><style><![CDATA[.B{fill:#108c00}.C{fill:#ffe700}.D{stroke-width:2.5}.E{fill:#009200}.F{fill:#804bff}.G{stroke-width:1.546}.H{stroke-width:1.562}.I{stroke-width:1.464}.J{stroke-width:1.56}.K{stroke-width:2.097}.L{stroke-width:2.086}]]></style><defs><clipPath id="A"><path fill-opacity=".67" d="M-85.01 0h682.67v512H-85.01z"/></clipPath><path id="B" d="M475.897-118.95c0-.73 15.885-45.306 15.885-45.306l14.44 44.575s48.376 1.462 48.376.73-38.267 29.23-38.267 29.23l17.33 49.69c-.722-1.462-41.878-30.692-41.878-30.692l-41.155 29.23c.722 0 15.884-48.23 15.884-48.23l-37.544-28.5 46.93-.73z"/><path id="C" d="M478.058-116.685c0-.633 13.758-39.24 13.758-39.24l12.507 38.606s41.898 1.266 41.898.633-33.143 25.316-33.143 25.316l15.01 43.037c-.625-1.266-36.27-26.582-36.27-26.582l-35.644 25.316c.625 0 13.757-41.77 13.757-41.77l-32.517-24.685 40.647-.633z"/><path id="D" d="M483.878-110.265c0-.365 7.932-22.625 7.932-22.625l7.21 22.26s24.157.73 24.157.365-19.1 14.597-19.1 14.597l8.654 24.814c-.36-.73-20.913-15.327-20.913-15.327l-20.552 14.597c.36 0 7.932-24.084 7.932-24.084l-18.75-14.233 23.436-.365z"/><path id="E" d="M529.6 405.46c0 39.983 45.562 27.88 46.8 61.25-.724 35.408-76.706 3.467-78.635-61.25 1.93-64.716 75.107-97.93 76.705-61.01 1.246 30.686-44.88 21.028-44.88 61.01z"/><path id="F" d="M139.87 644c0 57.677-18.755 86.17-34.55 110.32 7.517-32.47 12.905-52.637 12.905-110.3s29.58-85.337 40.38-102c-4.186 16.652-18.733 44.312-18.733 102z"/><path id="G" d="M145.7 569.47c0 34.006-6.712 61.6-14.985 61.6s-14.986-27.604-14.986-61.6"/><path id="H" d="M276.27 345.4c-12.278 9.174.41 25.144 12.022 30.68 13.06 7.672 86.603 58.185 136.32 12-40.795.833-118.66-63.183-148.34-42.678z"/></defs><g fill-rule="evenodd" clip-path="url(#A)" transform="matrix(.9375 0 0 .9375 79.696 .000006)"><path d="M-258.27 0h1027.5v512h-1027.5z" class="B"/><g fill="#ffd600"><path d="M-260 178.16H772.6v50.162H-260z"/><path d="M181.08 0h48.432v512H181.08z"/></g><path d="M227.78 0h48.432v512H227.78z"/><path d="M-260 226.6H772.6v50.162H-260z"/><g fill="#fff"><path d="M-260 276.76H772.6v50.162H-260z"/><path d="M276.22 0h48.432v512H276.22z"/></g><rect transform="scale(-1)" ry="137.51" width="273.75" y="-393.87" x="-394.56" height="275.03" fill="#e72910"/><g transform="matrix(.35309 0 0 .35309 82.476 178.92)"><use xlink:href="#B"/><use xlink:href="#C" class="C"/><use xlink:href="#D" class="B"/></g><g transform="matrix(.35309 0 0 .35309 188.84 253.8)"><use xlink:href="#B"/><use xlink:href="#C" class="C"/><use xlink:href="#D" class="B"/></g><g transform="matrix(.35309 0 0 .35309 157.84 372.65)"><use xlink:href="#B"/><use xlink:href="#C" class="C"/><use xlink:href="#D" class="B"/></g><g transform="matrix(.35309 0 0 .35309 9.132 372.65)"><use xlink:href="#B"/><use xlink:href="#C" class="C"/><use xlink:href="#D" class="B"/></g><g transform="matrix(.35309 0 0 .35309 -18.025 250.74)"><use xlink:href="#B"/><use xlink:href="#C" class="C"/><use xlink:href="#D" class="B"/></g><g transform="matrix(-.35309 0 0 -.35309 492.65 132.14)"><use xlink:href="#B"/><use xlink:href="#C" class="C"/><use xlink:href="#D" class="B"/></g><g transform="matrix(-.35309 0 0 -.35309 535.35 248.28)"><use xlink:href="#B"/><use xlink:href="#C" class="C"/><use xlink:href="#D" class="B"/></g><g transform="matrix(-.35309 0 0 -.35309 429.46 333.25)"><use xlink:href="#B"/><use xlink:href="#C" class="C"/><use xlink:href="#D" class="B"/></g><g transform="matrix(-.35309 0 0 -.35309 329.97 248.28)"><use xlink:href="#B"/><use xlink:href="#C" class="C"/><use xlink:href="#D" class="B"/></g><g transform="matrix(-.35309 0 0 -.35309 366.69 133.85)"><use xlink:href="#B"/><use xlink:href="#C" class="C"/><use xlink:href="#D" class="B"/></g><g transform="matrix(1.0355 0 0 1.0355 -250.6 359.43)"><g stroke="#000"><g transform="matrix(.1635 -.016275 .011822 .18436 429.84 -215.63)" class="E D"><ellipse rx="30.805" ry="189.82" transform="matrix(1.4051 -.005812 .008167 .99998 -534.29 263.72)" cy="586.13" cx="680.21"/><ellipse rx="30.805" ry="189.82" transform="matrix(1.4862 -.005812 .008638 .99998 -547.22 267.05)" cy="586.13" cx="680.21"/><ellipse rx="30.805" ry="189.82" transform="matrix(1.189 -.006424 .006911 1.1052 -364.93 214.1)" cy="586.13" cx="680.21"/></g><g transform="translate(72.865 -9.797)"><path d="M238.34 971.8c29.972-1.665 16.65-16.652 31.637-24.977s36.633-3.33 43.293 6.66 1.666 19.982 9.99 19.982 234.56-12.675 242.88-4.35c8.326 8.325 9.99 24.977 1.665 31.634s-294.5 14.34-304.5 7.68-24.977-34.965-24.977-36.63z" transform="matrix(.20244 .003486 -.003937 .21385 340.86 -247.31)" stroke-width="2.505" fill="#a95600"/><g stroke-width="3.853"><g fill="#ff0"><use xlink:href="#E" transform="matrix(.14799 .001951 -.002755 .11459 340.42 -81.691)"/><use xlink:href="#E" transform="matrix(.14799 .001951 -.002755 .11459 344.42 -81.638)"/><use xlink:href="#E" transform="matrix(.14799 .001951 -.002755 .11459 348.71 -81.8)"/><use xlink:href="#E" transform="matrix(.14799 .001951 -.002755 .11459 352.71 -81.747)"/></g></g><ellipse rx="3.534" ry="3.403" transform="matrix(1.0945 .016483 -.024286 1.1537 -75.571 4.6776)" cy="-41.086" cx="478.38" stroke-width=".399" fill="#a95600"/></g><g transform="matrix(.99488 -.10102 .10102 .99488 66.684 66.338)" class="E D"><ellipse rx="20.814" ry="24.144" transform="matrix(.16619 -.008073 .001688 .3152 369.8 -361.65)" cy="905" cx="427.11"/><ellipse rx="20.814" ry="24.144" transform="matrix(.16619 -.008073 .001688 .3152 364.04 -362.7)" cy="905" cx="427.11"/><ellipse rx="20.814" ry="24.144" transform="matrix(.16619 -.008073 .001688 .3152 360.64 -370.55)" cy="905" cx="427.11"/><ellipse rx="20.814" ry="24.144" transform="matrix(.1599 -.008906 .001624 .34772 369.3 -399.35)" cy="905" cx="427.11"/><ellipse rx="20.814" ry="24.144" transform="matrix(.1599 -.00835 .001624 .32604 377.41 -379.07)" cy="905" cx="427.11"/><ellipse rx="20.814" ry="24.144" transform="matrix(.1599 -.00835 .001624 .32604 373.22 -382.21)" cy="905" cx="427.11"/><ellipse rx="20.814" ry="24.144" transform="matrix(.1599 -.00835 .001624 .32604 367.99 -386.66)" cy="905" cx="427.11"/><ellipse rx="20.814" ry="24.144" transform="matrix(.1599 -.00835 .001624 .32604 363.01 -389.54)" cy="905" cx="427.11"/></g><path d="M173.17 346.35s-54.198 64.893-21.252 208.82c33.958 144.6 178.96 189.78 178.96 189.78s26.496-47.423 1.726-164.04c-39.96-169.85-116.14-234.56-116.14-234.56H173.17z" transform="matrix(.17689 .032191 -.031422 .18236 461.79 -208.61)" class="D F"/><g transform="matrix(.99696 .07791 -.07791 .99696 60.532 -11.76)" class="E D"><ellipse rx="20.814" ry="24.144" transform="matrix(.16619 -.008073 .001688 .3152 369.8 -361.65)" cy="905" cx="427.11"/><ellipse rx="20.814" ry="24.144" transform="matrix(.16619 -.008073 .001688 .3152 364.04 -362.7)" cy="905" cx="427.11"/><ellipse rx="20.814" ry="24.144" transform="matrix(.16619 -.008073 .001688 .3152 360.64 -370.55)" cy="905" cx="427.11"/><ellipse rx="20.814" ry="24.144" transform="matrix(.1599 -.008906 .001624 .34772 369.3 -399.35)" cy="905" cx="427.11"/><ellipse rx="20.814" ry="24.144" transform="matrix(.1599 -.00835 .001624 .32604 377.41 -379.07)" cy="905" cx="427.11"/><ellipse rx="20.814" ry="24.144" transform="matrix(.1599 -.00835 .001624 .32604 373.22 -382.21)" cy="905" cx="427.11"/><ellipse rx="20.814" ry="24.144" transform="matrix(.1599 -.00835 .001624 .32604 367.99 -386.66)" cy="905" cx="427.11"/><ellipse rx="20.814" ry="24.144" transform="matrix(.1599 -.00835 .001624 .32604 363.01 -389.54)" cy="905" cx="427.11"/></g><ellipse rx="58.28" ry="186.49" transform="matrix(.15695 -.060628 .063642 .1484 369.61 -145.05)" cy="606.11" cx="624.42" stroke-width="1pt" fill="#c90000"/><g class="E"><g transform="matrix(.99984 .017802 -.017802 .99984 -34.814 -4.6285)"><ellipse rx="10.823" ry="12.905" transform="matrix(.3953 0 0 .2927 445.07 -230.53)" cy="356.75" cx="218.13" class="I"/><g class="G"><ellipse rx="10.823" ry="12.905" transform="matrix(.35412 0 0 .2927 457.17 -235.92)" cy="356.75" cx="218.13"/><ellipse rx="10.823" ry="12.905" transform="matrix(.35412 0 0 .2927 452 -235.92)" cy="356.75" cx="218.13"/></g><g class="J"><ellipse rx="10.823" ry="12.905" transform="matrix(.37059 0 0 .27478 449.48 -233.46)" cy="356.75" cx="218.13"/><ellipse rx="10.823" ry="12.905" transform="matrix(.37059 0 0 .27478 448.95 -237.93)" cy="356.75" cx="218.13"/></g><ellipse rx="10.823" ry="12.905" transform="matrix(.35412 0 0 .2927 447.01 -238.85)" cy="356.75" cx="218.13" class="G"/><ellipse rx="10.823" ry="12.905" transform="matrix(.35412 0 0 .28673 448.08 -241.58)" cy="356.75" cx="218.13" class="H"/><ellipse rx="10.823" ry="12.905" transform="matrix(.3953 0 0 .2927 432.77 -243.48)" cy="356.75" cx="218.13" class="I"/><ellipse rx="10.823" ry="12.905" transform="matrix(.37059 0 0 .27478 445.92 -243.48)" cy="356.75" cx="218.13" class="J"/><ellipse rx="10.823" ry="12.905" transform="matrix(.35412 0 0 .28673 444.16 -246.97)" cy="356.75" cx="218.13" class="H"/><ellipse rx="10.823" ry="12.905" transform="matrix(.35412 0 0 .2927 436.14 -243.17)" cy="356.75" cx="218.13" class="G"/><g class="H"><ellipse rx="10.823" ry="12.905" transform="matrix(.35412 0 0 .28673 437.42 -243.88)" cy="356.75" cx="218.13"/><ellipse rx="10.823" ry="12.905" transform="matrix(.35412 0 0 .28673 438.99 -247.02)" cy="356.75" cx="218.13"/></g></g><g transform="matrix(.17961 -.004521 .004193 .18512 420.99 -216.8)"><ellipse rx="67.438" ry="205.64" transform="matrix(.97574 -.30793 .36304 .87448 -245.81 324.4)" cy="564.48" cx="528.68" stroke-width="2.545"/><ellipse rx="13.321" ry="40.796" transform="matrix(.91788 -.39685 .39685 .91788 -210.48 304.49)" cy="646.07" cx="528.68" class="D"/><g stroke-width="1.533"><use xlink:href="#F" transform="matrix(1.8828 -.45598 .95342 1.1822 -352.26 -10.02)"/><use xlink:href="#F" transform="matrix(1.8828 -.45598 .95342 1.1822 -348.42 44.058)"/><use xlink:href="#F" transform="matrix(1.873 -.49468 .97758 1.1623 -361.92 105.78)"/></g><ellipse rx="13.321" ry="40.796" transform="matrix(1.8105 -.40052 .69907 1.6353 -915.63 -221.01)" cy="646.07" cx="528.68" stroke-width="1.389"/><g stroke-width="1.64"><ellipse rx="13.321" ry="40.796" transform="matrix(1.6257 -.23068 .54158 1.3528 -739.49 -91.775)" cy="646.07" cx="528.68"/><ellipse rx="13.321" ry="40.796" transform="matrix(1.6304 -.19719 .51251 1.3635 -750.62 -91.826)" cy="646.07" cx="528.68"/></g><g class="K"><ellipse rx="13.321" ry="40.796" transform="matrix(1.3144 -.2006 .46889 1.0101 -531.06 47.568)" cy="646.07" cx="528.68"/><ellipse rx="13.321" ry="40.796" transform="matrix(1.3258 -.13044 .40342 1.0327 -517.87 12.211)" cy="646.07" cx="528.68"/></g><use xlink:href="#G" transform="matrix(1.0254 -.49277 .46438 1.1773 12.767 -14.519)" class="L"/><g class="K"><ellipse rx="13.321" ry="40.796" transform="matrix(1.3258 -.13044 .40342 1.0327 -519.53 -34.412)" cy="646.07" cx="528.68"/><ellipse rx="13.321" ry="40.796" transform="matrix(1.3288 -.10511 .37955 1.04 -533.98 -40.121)" cy="646.07" cx="528.68"/></g><g stroke-width="2.88"><use xlink:href="#G" transform="matrix(.6722 -.47182 .45894 .7991 39.486 143.28)"/><use xlink:href="#G" transform="matrix(.6722 -.47182 .45894 .7991 51.142 125.79)"/></g><use xlink:href="#G" transform="matrix(.9374 -.64468 .64 1.0919 -40.198 -10.744)" class="L"/><use xlink:href="#G" transform="matrix(.6722 -.52022 .45894 .88108 68.626 71.179)" stroke-width="2.742"/></g></g><g transform="matrix(1.1014 .27587 -.26559 .97437 -85.415 -157.9)" class="F D"><use xlink:href="#H" transform="matrix(.13441 -.030448 .048511 .21681 448.75 -184.91)"/><use xlink:href="#H" transform="matrix(.13441 -.030448 .048511 .21681 446.2 -190.22)"/><use xlink:href="#H" transform="matrix(.13441 -.030448 .048511 .21681 443.39 -195.19)"/><use xlink:href="#H" transform="matrix(.13441 -.030448 .048511 .21681 438.61 -200.44)"/></g></g><g transform="matrix(.99984 .017802 -.017802 .99984 12.04 10.605)"><g stroke="#000" class="D"><path d="M211.17 247.3c21.773-12.065 56.618-9.75 79.734 11.165 19.36 16.943 45.307 75.194 70.322 92.834-20.227.02-31.298-5.77-42.24-15.18-28.767 15.442-38.127 16.724-63.9 15.632-35.88-1.334-62.46-17.654-68.178-40.604-6.166-21.804 4.925-52.498 24.253-63.847z" transform="matrix(.20883 -.040911 .047305 .1806 407.8 -213.64)" class="F"/><ellipse rx="14.154" ry="14.986" transform="matrix(.24521 0 0 .13433 401.82 -215.18)" cy="323.04" cx="287.23" fill="red"/><ellipse rx="23.254" ry="15.895" transform="matrix(.19364 -.075987 .06759 .17273 398.66 -208.06)" cy="348.26" cx="204.58" fill="#ff0"/></g><circle transform="matrix(.21412 0 0 .18518 411.29 -233.74)" cy="333.86" cx="283.9" r="5.828"/><path d="M516.8 260.3c4.425 18.107-6.674 43.083-33.133 52.61-26.775 13.173-46.08 41.83-55.64 88.017-47.244-103.27-23.107-148.28 20.6-160.35 37.377-14.363 60.42-13.37 68.174 19.72z" transform="matrix(.092289 .000887 -.003397 .084817 417.85 -191.49)" stroke="#000" stroke-width="6.56" fill="#ff0"/><circle transform="matrix(.18697 -.013131 .013988 .19143 418.69 -234.98)" cy="362.39" cx="198.98" r="4.71"/></g></g></g></svg>