<svg xmlns="http://www.w3.org/2000/svg" xmlns:xlink="http://www.w3.org/1999/xlink" height="480" width="640" xmlns:v="https://vecta.io/nano"><style><![CDATA[.B{stroke:#000}.C{stroke-width:1pt}.D{fill-rule:evenodd}.E{fill:#0000c4}.F{fill:#e10000}.G{fill:#ffdf00}.H{fill:#005b00}.I{stroke-width:4.104}.J{stroke-width:1.222}.K{stroke-width:.864}.L{stroke-width:.802}.M{stroke-width:1.131}.N{stroke-width:.513}.O{stroke-width:.396}.P{stroke-width:.628}.Q{stroke-width:.633}]]></style><g class="D"><path fill="#ffe800" d="M0 0h640v480H0z"/><path fill="#00148e" d="M0 240h640v240H0z"/><path fill="#da0010" d="M0 360h640v120H0z"/></g><g transform="matrix(1.2423 0 0 1.4908 -142.19 -129.94)"><g transform="matrix(-.47007 0 0 .41368 605.23 96.094)" class="D"><path d="M582.46 449.993l124.018 124.02 2.186-2.664-124.018-124.02-2.186 2.664zm-86.397 20.27l162.298 162 2.846-2.55-162.298-162-2.846 2.55z"/><g fill="gray" class="B I"><use xlink:href="#B" transform="matrix(.11739 -.11008 .15205 .14618 590.2 674.92)"/><use xlink:href="#B" transform="matrix(.11739 -.11008 .15205 .14618 632.05 611.64)"/></g></g><g transform="matrix(.47007 0 0 .41368 122.21 80.334)"><g class="D"><g class="B J"><path d="M338.8 204.633S325.2 556.29 379.63 556.29s81.66-37.017 81.66-37.017l-.66-193.3L338.8 204.63z" class="G"/><path d="M372.048 237.395c-.001 18.51-6.027 281.88 21.193 281.88s68.05-18.51 68.05-18.51l-.66-174.79-88.582-88.58z" class="E"/><path d="M389.763 255.113c-.001 18.51 3.476 227.14 30.696 227.14h40.83l-.66-156.277-70.867-70.865z" class="F"/></g><path d="M336.61 204.63L460.63 328.65l2.186-2.664-124.018-124.02-2.186 2.664z"/><path d="M301.18 272.84s-35.433 336.6 70.866 336.6c88.583 0 88.583-53.15 106.3-53.15l-17.72-124.02-159.45-159.44z" class="B C G"/></g><g transform="matrix(.51617 -.27185 .21845 .40928 202.4 380.19)" class="B"><path d="M269.6 155.24c1.133 0 28.318-94.016 118.94-147.25" transform="matrix(1.0328 .5788 -.58895 .99892 119.61 -225.32)" stroke-width="2.305" fill="none"/><g class="D"><use xlink:href="#C" transform="matrix(.64661 -.44175 .57085 .93288 81.137 184.9)" class="C H"/><use xlink:href="#D" fill="red" class="K"/><g class="C H"><use xlink:href="#C" transform="matrix(.30183 .67129 -.76402 .80884 305.07 -304.02)"/><use xlink:href="#C" transform="matrix(.49226 .20511 -.50577 .95183 218.44 -112.53)"/><use xlink:href="#C" transform="matrix(-.16649 .88938 -.69968 .30034 493.42 -380.78)"/><use xlink:href="#C" transform="matrix(.77794 -.21907 .17683 1.0498 36.133 90.53)"/><use xlink:href="#C" transform="matrix(.85513 -.32081 .38526 1.0592 -55.632 192.12)"/><use xlink:href="#C" transform="matrix(.5396 .73688 -.91599 .65671 107.95 -231.91)"/><use xlink:href="#C" transform="matrix(.11804 .90567 -1.119 .13442 289.51 -286.85)"/><use xlink:href="#C" transform="matrix(.095023 .40764 -.5638 .27251 477.35 -164.9)"/><use xlink:href="#C" transform="matrix(.26965 .20212 -.4269 .39695 400.57 -82.108)"/><use xlink:href="#C" transform="matrix(-.21477 .43025 -.45956 .020529 600.54 -168.3)"/><use xlink:href="#C" transform="matrix(.023099 .46942 -.84882 .040686 382.72 -176.4)"/><use xlink:href="#C" transform="matrix(.045414 .9122 -1.1262 .044718 406.9 -340.56)"/></g></g><path d="M269.583 155.24c1.327 0 33.172-104.142 139.326-163.11" fill="none" stroke-width="2.702"/><g fill="red" class="D"><g class="K"><use xlink:href="#D" x="100.81" y="-60.041"/><use xlink:href="#D" x="137.06" y="-61.171"/></g><g stroke-width=".763"><use xlink:href="#E"/><use xlink:href="#E" x="9.843" y="1.177"/><use xlink:href="#E" x="1.416" y="7.071"/></g><g stroke-width=".959"><use xlink:href="#F"/><use xlink:href="#F" x="9.06" y="-3.4"/><use xlink:href="#F" x="9.06" y="1.13"/></g></g></g><g class="D"><g class="C B"><path d="M336.6 308.27c-.001 17.717-35.433 212.6 53.15 265.75 35.433 17.716 88.582-17.717 88.582 0l-17.7-141.74-124.02-124z" class="E"/><path d="M372.05 343.7c-.001 17.717-17.716 159.45 35.433 194.88 35.433 35.433 124.02 25.822 124.02 25.822l-70.87-132.12-88.58-88.58z" class="F"/></g><path d="M298.333 272.832l162.298 162 2.846-2.55-162.298-162-2.846 2.55z"/><g class="B"><g fill="#cececc" class="C"><use xlink:href="#G" transform="matrix(.23199 -.22936 .17842 .17687 131.38 328.08)"/><use xlink:href="#H" transform="matrix(.17862 -.25938 .23884 .15008 178.7 314.58)"/></g><path d="M348.456 198.575c0 1.04-1.344 1.884-3 1.884s-3-.844-3-1.884 1.345-1.885 3-1.885 3 .845 3 1.885zm-4.286 3.978c0 18.01 14.358 94.474 15.5 96.36.095 2.233-3.238 3.21-4.858.42-4.497-8.724-14.24-80.44-14.643-97.195-.167-6.91 2.582-7.445 5.715-7.33 2.58.105 5.714 1.874 5.714 3.978 0 2.513-4 4.397-7.43 3.77z" class="F L"/><use xlink:href="#I" transform="matrix(.64753 .14728 -.2581 .47453 113.74 78.375)" class="C E"/><path d="M311.977 263.264c0 1.692-1.717 3.066-3.834 3.066s-3.834-1.373-3.834-3.066 1.718-3.066 3.834-3.066 3.834 1.374 3.834 3.066zm-5.477 6.472c0 29.298 18.347 153.698 19.807 156.767.122 3.634-4.138 5.224-6.207.682-5.746-14.192-18.195-130.866-18.712-158.125-.214-11.24 3.3-12.113 7.303-11.924 3.297.17 7.302 3.048 7.302 6.472 0 4.09-5.112 7.154-9.493 6.132z" class="F M"/><use xlink:href="#I" transform="matrix(.82744 .23961 -.3298 .77201 12.05 67.705)" class="C E"/></g></g></g><g class="D"><g transform="matrix(.47007 0 0 .41368 138.86 96.094)"><path d="M582.46 449.993l124.018 124.02 2.186-2.664-124.018-124.02-2.186 2.664zm-86.397 20.27l162.298 162 2.846-2.55-162.298-162-2.846 2.55z"/><g fill="gray" class="B I"><use xlink:href="#B" transform="matrix(.11739 -.11008 .15205 .14618 590.2 674.92)"/><use xlink:href="#B" transform="matrix(.11739 -.11008 .15205 .14618 632.05 611.64)"/></g></g><g transform="matrix(.47007 0 0 .41368 122.21 80.334)"><g class="B J"><path d="M724.19 204.633s13.6 351.656-40.83 351.656-81.66-37.017-81.66-37.017l.66-193.3L724.19 204.63z" class="G"/><path d="M690.942 237.395c.001 18.51 6.027 281.88-21.193 281.88s-68.05-18.51-68.05-18.51l.66-174.79 88.582-88.58z" class="E"/><path d="M673.227 255.113c.001 18.51-3.476 227.14-30.696 227.14H601.7l.66-156.277 70.867-70.865z" class="F"/></g><path d="M726.38 204.63L602.36 328.65l-2.186-2.664 124.018-124.02 2.186 2.664z"/><g class="B"><g transform="matrix(.52429 -.22358 .16895 .69382 362.76 423.13)" class="H"><path d="M516.495-14.232s43.588 74.618 59.33 126.85 29.06 128.72 29.06 128.72 1.21-70.886-19.372-134.3c-27.845-80.218-70.227-117.528-69.014-121.258z" stroke-width=".925"/><g class="C"><use xlink:href="#J" transform="matrix(.61528 .078751 -.061757 .89037 253.7 -77.628)"/><use xlink:href="#J" transform="matrix(.58869 .51998 -.35619 .81397 345.67 -312.47)"/><use xlink:href="#J" transform="matrix(.7072 .29774 -.25186 .94875 249.31 -237.18)"/><use xlink:href="#J" transform="matrix(.42062 .52704 -.35125 .71621 446.49 -285.66)"/><use xlink:href="#J" transform="matrix(.66899 .21888 -.17326 .88554 249.21 -174.23)"/><use xlink:href="#J" transform="matrix(.63368 .038274 -.065522 .87865 239.97 -48.721)"/><use xlink:href="#J" transform="matrix(.60862 .11977 -.12124 .88424 268.02 -109.93)"/><use xlink:href="#J" transform="matrix(.55418 .53394 -.40735 .75026 373.79 -312.51)"/><use xlink:href="#J" transform="matrix(.68567 .34443 -.31483 .92976 274.32 -269.42)"/><use xlink:href="#J" transform="matrix(.38774 .52048 -.39386 .64347 470.97 -270.71)"/><use xlink:href="#J" transform="matrix(.70076 .26126 -.25554 .87905 246.36 -207.5)"/></g></g><g class="C"><path d="M761.82 272.84s35.433 336.6-70.866 336.6c-88.583 0-88.583-53.15-106.3-53.15l17.72-124.02 159.45-159.44z" class="G"/><path d="M726.4 308.27c.001 17.717 35.433 212.6-53.15 265.75-35.433 17.716-88.582-17.717-88.582 0l17.7-141.74 124.02-124z" class="E"/><path d="M690.95 343.7c.001 17.717 17.716 159.45-35.433 194.88-35.433 35.433-124.02 25.822-124.02 25.822l70.87-132.12 88.58-88.58z" class="F"/></g></g><path d="M764.667 272.832l-162.298 162-2.846-2.55 162.298-162 2.846 2.55z"/><g class="B"><g fill="#cececc" class="C"><use xlink:href="#G" transform="matrix(-.23199 -.22936 -.17842 .17687 931.61 328.08)"/><use xlink:href="#H" transform="matrix(-.17862 -.25938 -.23884 .15008 884.3 314.58)"/></g><path d="M714.57 198.575c0 1.04 1.344 1.884 3 1.884s3-.844 3-1.884-1.345-1.885-3-1.885-3 .845-3 1.885zm4.286 3.978c0 18.01-14.358 94.474-15.5 96.36-.095 2.233 3.238 3.21 4.858.42 4.497-8.724 14.24-80.44 14.643-97.195.167-6.91-2.582-7.445-5.715-7.33-2.58.105-5.714 1.874-5.714 3.978 0 2.513 4 4.397 7.43 3.77z" class="F L"/><use xlink:href="#I" transform="matrix(-.64753 .14728 .2581 .47453 949.25 78.375)" class="C E"/><path d="M751 263.264c0 1.692 1.717 3.066 3.834 3.066s3.834-1.373 3.834-3.066-1.718-3.066-3.834-3.066-3.834 1.374-3.834 3.066zm5.477 6.472c0 29.298-18.347 153.698-19.807 156.767-.122 3.634 4.138 5.224 6.207.682 5.746-14.192 18.195-130.866 18.712-158.125.214-11.24-3.3-12.113-7.303-11.924-3.297.17-7.302 3.048-7.302 6.472 0 4.09 5.112 7.154 9.493 6.132z" class="F M"/><use xlink:href="#I" transform="matrix(-.82744 .23961 .3298 .77201 1050.9 67.705)" class="C E"/></g></g><g class="B"><path d="M347.068 369.095c8.328 4.407 17.434 3.42 24.984 0v-58.63h-16.656c8.328 21.987 8.328 43.974-8.328 58.63z" stroke-width=".59" class="F"/><g class="E N"><path d="M359.07 310.47c0 41.225-12.003 50.388-12.003 58.63 5.007 0 8.328-3.84 12.003-9.16 5.007-8.245 5.49-50.113 5.007-49.47h-5.007z"/><path d="M349.055 310.47c-.23 24.093-12.66 46.37-10.315 51.305 2.678 4.4 10.315-10.078 20.33-1.832 5.007-8.245 5.49-50.113 5.007-49.47h-15.022z"/></g><g class="G O"><path d="M350.24 310.47c0 27.485-11.502 29.31-11.502 36.64 5.008 0 11.476-4.006 11.502-3.658 5.007-5.497 5.49-33.4 5.007-32.982h-5.007z"/><path d="M340.227 310.47c-.23 16.063-12.36 29.694-10.015 32.982 2.678 2.94 10.015-5.497 20.03 0 5.007-5.497 5.49-33.4 5.007-32.982h-15.022z"/></g><path d="M397.036 369.102c-8.328 4.407-17.434 3.414-24.984-.006V310.47h16.656c-8.328 21.987-8.328 43.974 8.328 58.63z" stroke-width=".59" class="F"/><g class="E N"><path d="M385.03 310.473c0 41.225 12.003 50.388 12.003 58.63-5.007 0-8.328-3.84-12.003-9.16-5.007-8.245-5.49-50.113-5.007-49.47h5.007z"/><path d="M395.045 310.473c.23 24.093 12.66 46.37 10.315 51.305-2.678 4.4-10.315-10.078-20.33-1.832-5.007-8.245-5.49-50.113-5.007-49.47h15.022z"/></g><g class="G O"><path d="M393.863 310.476c0 27.485 11.502 29.31 11.502 36.64-5.008 0-11.476-4.006-11.502-3.658-5.007-5.497-5.49-33.4-5.007-32.982h5.007z"/><path d="M403.877 310.47c.23 16.063 12.36 29.694 10.015 32.982-2.678 2.94-10.015-5.497-20.03 0-5.007-5.497-5.49-33.4-5.007-32.982h15.022z"/></g><path d="M309.042 316.46l-8.7 5.33 8.7 5.33 4.35-2.665 2.175 2.665 2.175 5.33 2.175-5.33 2.175-2.665h116.59v-5.33H322.1l-2.175-2.665c0-2.665.456-5.33 2.175-5.33h8.7c0-2.665-4.35-7.995-13.048-7.995s-13.048 5.33-13.048 7.995h8.7c1.72 0 2.175 2.665 2.175 5.33l-2.177 2.665-4.35-2.665z" fill="#908f8a" stroke-width=".565"/><g fill="#b74d00" stroke-width=".376"><use xlink:href="#K"/><use xlink:href="#K" y="-3.256"/><use xlink:href="#K" y="-6.513"/><use xlink:href="#K" y="-9.77"/><use xlink:href="#K" y="-13.028"/><use xlink:href="#K" y="-16.285"/><use xlink:href="#K" y="-19.542"/></g><g fill="#908f8a"><g class="P"><path d="M338.085 309.65l27.76 22.802h3.966l-27.76-22.802h-3.966z"/><path d="M338.085 332.45l27.76-22.802h3.966l-27.76 22.802h-3.966z"/></g><path d="M338.082 309.65v22.802h3.966V309.65h-3.966z" class="Q"/><g class="P"><path d="M373.777 309.65l27.76 22.802h3.966l-27.76-22.802h-3.966z"/><path d="M373.777 332.45l27.76-22.802h3.966l-27.76 22.802h-3.966z"/></g><path d="M401.535 309.65v22.802h3.966V309.65h-3.966zm-27.762 0v22.802h3.966V309.65h-3.966zm-7.928 0v22.802h3.966V309.65h-3.966z" class="Q"/></g></g></g><g transform="matrix(.47007 0 0 .41368 122.21 80.334)"><g class="D"><g class="B C G"><path d="M655.5 396.85c0 88.016-55.56 159.45-124.02 159.45s-124.02-71.433-124.02-159.45S463.03 237.4 531.5 237.4 655.5 308.833 655.5 396.85zm-17.717.001c0 78.236-47.622 141.73-106.3 141.73s-106.3-63.496-106.3-141.73 47.622-141.73 106.3-141.73 106.3 63.496 106.3 141.73z"/><path d="M579.75 249.94c-14.836-8.072-31.144-12.537-48.258-12.537s-33.422 4.465-48.257 12.537l6.893 16.323c12.716-7.175 26.695-11.144 41.364-11.144s28.648 3.97 41.364 11.144l6.894-16.323zm.205 293.82c-14.836 8.072-31.144 12.537-48.258 12.537s-33.422-4.465-48.257-12.537l6.893-16.323c12.716 7.175 26.695 11.144 41.364 11.144s28.648-3.97 41.364-11.144l6.894 16.323z"/></g><path d="M637.8 396.85c0 78.277-47.592 141.73-106.3 141.73s-106.3-63.456-106.3-141.73 47.592-141.73 106.3-141.73 106.3 63.456 106.3 141.73z" fill="#a7cfff"/><g class="B"><g class="C"><path d="M637.8 396.85c1.133 26.658-4.634 39.635-11.9 67.356-1.912 2.98-10.966-6.537-16.447-11.236s-7.812 4.24-14.537-3.046-11.05 2.058-15.983-4.095-51.3-7.056-51.366-7.585c4.59-2.276 28.27.152 24.474-11.193-4.3-11.722-31.094-.352-34.692-15.365-2.44-14.907-53.566-15.543-57.22-19.225 1.444 5.664 39.728 8.05 38.814 22.57-.833 5.915-37.693 7.644-41.247 12.65-3.045 6.295 28.927-1.707 30.114 6.032-.078 3.185-4.705.068-21.358 5-8.326 2.46 15.454 10.33 6.4 14.637s-28.26 6.187-27.433 7.997c2.94 8.908 44.693 19.536 40.535 21.065-14.754 6.56-22.552 10.872-29.627 14.652-19.24-25.653-31.146-61.087-31.146-100.2 31.716-11.405 24.968-13.735 83.645-13.735s77.98 2.33 128.95 13.735z" fill="#afff7b"/><path d="M637.8 396.85c-8.07 0-16.454 3.4-25.07 3.4s-17.465-3.398-26.466-3.398-19.287 4.53-28.512 4.53-17.388-4.53-26.676-4.53-18.566 3.398-27.755 3.398-18.29-3.398-27.22-3.398-17.69 3.398-26.2 3.398-16.77-3.4-24.7-3.4c0-19.56 2.976-38.197 8.358-55.15 27.075 2.002 11.042-15.715 27.075-15.715 8.655 0 17.434 1.86 25.238 9.788 2.447 0 14.48-11.373 27.912-9.788s8.492 27.272 26.37 28.637c9.062 6.796 14.392 11.133 26.778 13.87 17.717 1.606 68.35-2.5 68.705-.194a188.08 188.08 0 0 1 2.161 28.552z" fill="#fff"/></g><g stroke-width=".807"><path d="M548.53 482.843c0-4.42 4.744-7.384 4.744-14.456s-4.183-7.296-4.346-13.938c-.07-2.7 3.623-5.5 5.236-5.724s2.982 5.8 2.982 7.116-1.637-3.27-3.012-3.417-4.323.492-4.323 1.818c0 2.653 5.214 5.93 4.816 14.77s-4.462 11.438-4.462 14.1 1.775 10.036 1.775 10.036-3.4-5.875-3.4-10.295z"/><path d="M553.91 482.213c0-4.42-4.744-7.384-4.744-14.456s4.195-7.295 4.346-13.938c.332-3.092-4.147-5.107-5.76-5.332s-3.506 6.18-3.506 7.507 1.9-4.054 3.274-4.2 5.11.492 5.11 1.818c0 2.653-5.214 5.93-4.816 14.77s4.462 11.438 4.462 14.1-1.775 10.036-1.775 10.036 3.4-5.875 3.4-10.295z"/></g></g><path d="M553.684 445.95c0 2.16-1.115 3.913-2.5 3.913s-2.5-1.752-2.5-3.913 1.115-3.913 2.5-3.913 2.5 1.752 2.5 3.913zm33.016 12.1h.8v31.638h-.8zm7.2-2.4h.8v31.638h-.8z"/><path d="M587.303 472.518l.006-.8 6.81 1.11-.006.8z"/><g class="C"><path d="M492.73 479.203s26.052 11.328 31.716 18.124 3.398 6.796 3.398 6.796l57.77 2.266c0-3.398 10.194-3.4 12.46-11.328s2.265-10.194 2.265-10.194l-18.123 5.664 1.132-10.194-15.858-.001-2.265 10.195-33.982-1.133 2.266-27.186-6.796 1.133-1.133 26.053c-1.133 0-31.717-7.93-32.85-10.195z" fill="#b74d00" class="B"/><path d="M440.53 316.28s37.645-11.214 92.1-10.413 92.1 12.815 91.31 12.815-10.413-18.422-10.413-18.422-38.446-10.412-81.697-11.213-80.897 8-80.096 8.81L440.53 316.28z" stroke="#fede00" fill="#fede00"/></g><path d="M507.63 291.923l23.224-.425.235 12.813-23.224.425zm-53.592 6.973l-8.2 12.622 27.682-3.228-2.223-12.62-17.27 3.227zm23.594-4.856l23.148-1.926 1.063 12.77-23.148 1.926zm83.628-1.307l-23.18-1.474-.813 12.8 23.18 1.474zm49.973 8.03l8.423 15.7-25.074-5.858 2.8-12.507 13.86 2.655zm-20.097-4.567l-23.037-2.97-1.64 12.7 23.037 2.97z" fill="#38a9f9"/><g class="B G"><path d="M532.64 323.5l-2.58-13.47-7.54 11.46 2.77-13.43-11.34 7.7 7.7-11.35-13.43 2.78 11.45-7.54-13.47-2.58 13.47-2.58-11.45-7.53 13.43 2.77-7.7-11.35 11.34 7.7-2.77-13.43 7.54 11.46 2.58-13.47 2.57 13.47 7.54-11.46-2.77 13.43 11.35-7.7-7.7 11.35 13.44-2.77-11.46 7.53 13.47 2.58-13.47 2.58 11.46 7.54-13.44-2.78 7.7 11.35-11.35-7.7 2.77 13.43-7.54-11.46z" class="C"/><path d="M547.05 296.66c0 7.74-6.455 14.017-14.417 14.017s-14.417-6.275-14.417-14.017 6.455-14.017 14.417-14.017 14.417 6.275 14.417 14.017z" stroke-width="1.207"/></g><path d="M532.64 293.053c0 .885-2.152 1.602-4.806 1.602s-4.806-.717-4.806-1.602 2.152-1.602 4.806-1.602 4.806.717 4.806 1.602zm10.4-.001c0 .885-1.614 1.602-3.604 1.602s-3.604-.717-3.604-1.602 1.614-1.602 3.604-1.602 3.604.717 3.604 1.602z"/></g><path d="M530 298.667l.996.54c-2.364-1.283-1.275-.797 2.446 2.616 2.154-1.154 2.57-2.2 3.925-3.67m-11.13 6.117l.8.8c-1.902-1.902-1.124-.995 3.204 1.602 4.027.544 8.092-1.196 10.412-4.005" fill="none" class="B C"/><path d="M468.56 330.7s1.602 12.815-8.8 28.834-8.8 10.413-8.8 10.413 4.806 8.8 4.005 8.8-8-8-8-8l-8.8 8.8s8-13.616 7.2-13.616-2.403-4.806-2.403-4.806l6.407-2.403s9.612-16.82 9.612-16.02-28.835 18.422-28.835 18.422L468.56 330.7zm6.4 4.8c-.8 0 4.005 12.816 8 19.223s4.004 14.418 4.004 14.418l13.617 6.407-17.62-24.83 11.213 4.004L474.97 335.5zm0 33.65s9.6 9.6 10.412 12.815.8 10.412.8 10.412l-4.004-8-5.607 7.208s4.005-11.213 3.204-12.014-6.408 4.005-6.408 4.005 2.403-6.408 2.403-7.2 0-4.806-.8-7.208zm-48.07 22.42c3.203-2.402 9.6-4.004 9.6-4.004s-4.005 6.407-4.806 6.407-3.203 0-4.805-2.403zm110.54-35.24s20.824 12.015 20.824 12.816-13.616-5.607-13.616-5.607l-7.208-7.2zM499.8 331.5c1.602.8 30.436 23.227 29.635 23.227s-12.815-6.407-12.815-5.606v5.606l-6.408-12.815-1.602 4.806-8.8-15.218zm7.2 36.04l8 15.218 8-1.602s-15.2-13.616-16-13.616zm24.84-9.6c0 2.403.8 14.417.8 14.417s4.806 4.005 4.806 3.204-4.806-16.82-5.607-17.62z" fill="#b7e1ff" class="D"/></g><g class="D"><path d="M261.452 147.21s16.89-7.787 36.117-13.586 40.798-9.61 43.647-9.61c5.697 0 15.464 11.93 17.092 11.93s8.14-3.313 16.278-3.313 13.023 5.302 14.65 5.302h14.65c1.628 0-4.883-13.254 0-12.592 2.442.33 23.197 2.982 42.528 8.2s46.77 14.432 46.77 14.432-44.847 4.99-56.74 3.515c-1.628.663-.08 8.766-2.36 5.2-3.747-.713-17.503-2.5-19.945-2.5s-6.995 2.3-13.506 3.624-14.65 3.314-14.65 3.314l10.58 13.917-13.023 5.302s-8.14-15.905-11.395-15.905-4.883 11.266-8.953 10.603-5.697-10.603-8.953-13.254-20.42-3.616-26.933-4.94-17.02-2.35-22.717-3.674-11.395 3.313-13.837 3.313 3.256-3.976.814-4.64-4.07 1.988-5.697 1.988-18.72-2.65-20.348-3.313 4.07-3.314 2.442-3.314h-6.51z" fill="#984000"/><g stroke="#772600"><path d="M382.455 140.417c0 3.74-3.61 6.774-8.067 6.774s-8.067-3.033-8.067-6.774 3.61-6.774 8.067-6.774 8.067 3.033 8.067 6.774z" fill="gray" stroke-width=".654"/><path d="M342.488 141.842c1.467-1.426 3.3-3.565 8.067-3.565 1.1-.357 1.1-2.496 3.667-2.496s1.833 2.14 3.667 2.852 16.867-.713 16.867-.713 1.467 1.07 1.467 2.496-1.1 2.496-1.467 2.496-15.033-1.07-16.133-.713-1.833.713-4.4.713-3.3-2.496-5.133-2.496-3.667-.357-6.6 1.426z" fill="#984000" stroke-width="1.14"/></g></g><g fill="none"><path d="M387.22 141.127h5.867c2.108.024 2.835.643 4.767.713h5.133c1.866-.067 2.852-.5 4.767-.713 3.194-.037 2.104-.28 1.467-2.14-.578-1.405-.65-2.058-1.467-2.852-.307-1.7-1.025-2.306-1.1-4.278-.336-1.504-.956-2.516-.367-4.278.846 1.2 1.186 1.706 3.3 1.783 2.212 0 3.07-.044 4.4.713 1.027 1.047 2.397.713 4.4.713 1.7.3 1.973 1.137 3.3 1.782 1.564.843 2.575 1.07 4.766 1.07 1.755.304 3.277.552 4.4 1.07.936 1.088 2.4 1.357 4.4 1.426a11.21 11.21 0 0 0 2.933-.357h5.5c1.357 1.544 1.67 2.112 4.033 2.14 1.616 1.103 2.98 1.292 4.4 1.783h5.5c1.966.147 2.596.93 4.4 1.426 1.787.807 3.462 1.36 4.767 1.783 1.297.274 3 .357 4.766.357 1.362.68 2.997.74 4.033 1.426l4.767 1.07c1.94.25 2.684.844 4.4 1.07 1.476.4-.5.762-1.467 1.07-2.164-.078-2.32-.845-4.4-1.07-1.106-.63-2.783-.546-4.4-1.07h-.367c1.453.836 2.85 1.375 2.2 2.852-1.87 0-3.384-.235-5.133-.357-1.846-.346-2.692-.713-4.766-.713 2.07-.485 2.6.058 4.033.713.528 1.725-.6 1.07-2.567 1.07-1.675-.585-2.68-1.28-4.767-1.426h-4.4c2.178.078 2.637.878 4.033 1.783.114.554-.03.53-1.1.713-1.136-.96-2.618-1.288-4.4-1.783-1.735-.06-3.57-.207-5.133-.713-1.072-.065-.906-1.323 1.467.713 1.44.823 1.945 1.487 1.833 2.14-1.888-.46-2.824-1.195-4.033-1.783-1.703-.6-3.1-.713-5.133-.713-1.896-.485.197-.765 1.467 1.07 2.726 1.877-.36 1.072-1.467.713l-4.766-1.426c-1.1-.3-2.08-.6-3.3-.713 1.9.168 2.548.818 3.3 2.14 1.928 1.3-.085.664-1.833.357-1.117-.942-2.53-1.425-3.3-2.496-1.84-.894-1.886-1.923-.733.357.3.73.245 2.3.367 2.496-1.35-1.42-1.062-1.783-2.567-1.783-1.02-.695-2.53-1.234-3.3-2.14-1.417-.13-1.507-.62-2.933-1.07l3.667 3.922c1.673.908 2.136 1.726 3.3 2.496.47.78 1.74 1.425.367.357-1.573-1.508-2.744-1.856-5.133-2.852l-3.3-2.496c-1.982-.622-1.213-.973 0 1.07l3.667 3.565c.83 1.05 2.232 2.166 3.3 2.852.33.482 1.32.57 0 .713-1.12-.985-2.73-1.612-4.033-2.496-1.828-.5-2.684-1.425-4.033-2.496-.86-1.253-2.286-2.223-3.3-3.2-2.12-.807.418.78 1.1 1.783l1.467 3.565c.612 1.2-1.865-.284-2.567-.713-1.612-.9-2.8-1.485-4.767-1.783l-4.4-.713c-1.677-.44.9 1.028 1.833 2.496 1.854 1.693-1.835.305-2.933 0-1.8-.352-3.586-.357-5.5-.357-2.35.134-.672.417 0 1.426.724.54 1.24 1.682 1.1 2.14-1.548-.203-2.868-.647-4.766-.713-1.533.497-3.38.357-5.133.357-.084.897.318.14 1.1 1.07 1.27.5 2.1 1.1 1.833 1.783H389.42c-1.165.3.25.15 1.1 1.427-.476 1.157-1.1.713-2.567.713-1-.4-2.994-.564-4.033-1.07-1.033 0-.955-.262-1.833-.357 3.1 2.126 1.557 1.595 3.3 3.2.3.098.996.357.367.357m-24.2 11.403c-.22 0-.704-1.15-1.467-2.14-.512-1.295-1.187-.554-1.833-2.496.077-2.013.15-2.375 0-4.278-1.5-1.024-2.14-1.343-3.3-3.2-1.863-1.516.272-4.082.626-5.963-1.624-.35-2.422 2.457-4.92 3.467-1.796 1.176-.2-2.43-1.077-4.537-.6-2.97-2.384 1.5-3.063 2.754-1.204.796-1.57 1.83-3.3.356 0-1.102 1.087-4.173.626-4.77-1.72.817-3.983 3.317-5.76 3.7-1.8-.378.4-3.175.4-5.25-.647-.2-3.236 5.515-4.298 5.567s-.597-5.565-1.095-5.444c-.78 1.062-2.345 3.303-3.43 4.057-2.082-.26.308-3.733.626-5.016.36-1.535-1.96 2.944-3.193 3.233-.903.76-2.695 1.3-3.3 1.426.713-1.313 4.2-4.007 3.95-4.77-2.028.073-5.133 2.7-6.883 2.987-1.143 0-2.728.376-2.933.356.1-1.697 4.276-3.137 4.942-4.168-2.05.32-5.986 2.078-7.142 3.455-1.353.286-3.07.647-4.4 0 .198-1.6 3.27-4.7 3.95-5.73-1.85.792-2.784 1.4-4.767 1.783-.364.354-1.437 1.12-1.1.357.585-1.487 1.47-2.165 2.2-3.2-1.64.292-2.264 1.206-4.033 2.14-1.122.047-4.326 3.18-5.416 3.233-2.52 1.795-3.525 2.1-6.233 2.852-1.67.3-2.48.628-3.3 1.426.836-1.432 2.113-2.803 3.3-3.565.8-1.192 1.568-2.183 3.3-2.852.418-.496 1.583-.622.367-.713-1.045.907-2.796 1.92-3.667 2.496-1.123.687-2.424 1.388-2.933 1.07.576-1.54 1.637-1.906 2.567-3.2 1.94-1.2.01-.4-1.467 0-.955.828-2.67 1.44-4.033 2.14-1.566.397-2.577 1.313-4.4 1.783 0 .5.52-.9.733-1.426 1.504-1.586 1.906-2.03 3.667-2.496.42-.614.973-.357-.367-.357-.994.86-2.38 1.33-3.667 2.14-1.297.274-3 .357-4.767.357-2.28.266-2.083.434 0-.713 1.18-1.08 2.15-.808 2.2-2.14-1.377.97-3.054 1.683-4.767 2.496-1.417.04-1.8.357-3.3.357.726-.73 1.162-1.634 2.2-2.14 1.52-1.64-.964-.316-1.467 0h-5.5c-.983 1.195-.05.01.733-.713.948-.48 1.928-1.104 1.833-1.426-1.095.924-2.362 1.35-3.3 2.14-1.02.298-2.2.446-2.2.713.8-1.145 2.097-1.836 2.933-2.852 1.236-.26 2.3-.628 2.567-1.07h-1.467c1.85 0 3.44-.16 5.133-.357 2.92-.473-.255-.713-1.833-.713-.306-.546.905-.854 2.2-1.07 1.106-.5 2.474-.962 3.667-1.426 1.157-.307 2.798-1.244 2.933-1.426-1.104.057-1.096.3-2.2.357 1.64-.123 2.82-.357 4.767-.357 1.768-.552 3.282-1.16 4.767-1.783.647-.768.933-.713-.733-.713 1.478-.462 3.576-.684 4.767-1.07 1.733-.36 3.28-.9 4.4-1.426 1.074-.7 1.693-1.536 2.933-2.14 1.437.95 1.454 1.07 4.033 1.07 2.072-.024 3.34-.508 4.4-1.426 1.587-.42 1.868-1.162 3.667-1.426 1.64.285 3.3.356 5.133.356 1.783-.454 3.452-1.287 4.767-2.14l3.667-1.783c1.337.67 2.388 1.2 4.033 1.426 1.7-.246 2.586-1.042 4.033-1.426.788-.927 1.933-1.42 3.3-1.782 2.13-1.017 1.963.337 2.933 1.426 1.078 1.1 2.504.574 4.033 1.07.843 1.262 1.463 2.123 2.567 2.852.856 1.008 1.873 1.292 3.667 1.426.653.847.132 1.458 1.467 1.783.526.54 1.435.772 2.2 1.07" stroke="#772600" stroke-width=".76"/><path d="M383.005 164.123v.178c0-.498-.023-.234.367.713.13.78-.178.69-.55 1.248-.063.797-.183 1.37-.183 2.317-.118.773-.566 1.507-.917 2.14-.353.67-1.884 1.043-1.833 1.96-.88.244-.9-.31-.916-1.248-.525-.584-.707-1.385-1.1-2.14-.244-.744-.764-1.292-1.1-2.14-.54-.81-1-1.044-1.467-1.96-.182-.442-.15-.99-.55-1.248-.6-.736-.988-.854-2.017-.89-.79.18-1.095.517-1.833.713-.566.183-1.667.124-2.383.357-.178.28.352.416.55 1.07-.47.378-.644 1.045-.917 1.604-.433.532-.723.793-.917 1.604.3.496.044 1.153-.367 1.604-.126.827-.536 1.258-.733 1.96-.59.39-.804.758-1.283 1.426-.42.574-.8.535-1.833.535-.807-.214-.92-.64-1.65-.89a.44.44 0 0 0-.367-.357" stroke="#782600" stroke-width=".679"/></g><path d="M362.103 171.367s-.367 3.324-2.933 5.54-7.883 4.8-7.883 4.8 7.15-2.83 7.883-2.216-4.583 5.54-4.583 5.54 6.967-5.17 7.883-5.17 2.933 5.047 3.667 4.924-1.65-6.4-1.283-7.386 0-6.278 0-6.278l-2.75.246zm16.497-.45s-.367 3.553-2.933 5.92-7.883 5.132-7.883 5.132 7.15-3.026 7.883-2.368-4.583 5.92-4.583 5.92 6.967-5.527 7.883-5.527 2.933 5.395 3.667 5.263-1.65-6.842-1.283-7.895 0-6.7 0-6.7l-2.75.263zM355.504 138.7c0 .662-.778 1.2-1.738 1.2s-1.738-.537-1.738-1.2.778-1.2 1.738-1.2 1.738.537 1.738 1.2z" fill="#812e00" class="D"/></g><defs ><path id="B" d="M478.35 60.236v88.583l17.717 88.583 17.717-88.583V60.236H478.35z"/><path id="C" d="M421.37-20.327c0 18.133-4.567 31.716-11.328 45.31-5.627-18.124-9.06-27.176-9.06-45.31s6.832-35.114 12.46-48.707c2.23 12.46 7.93 30.574 7.93 48.707z"/><path id="D" d="M359.072 68.597a5.1 5.1 0 0 1-5.097 5.097 5.1 5.1 0 0 1-5.097-5.097 5.1 5.1 0 0 1 5.097-5.097 5.1 5.1 0 0 1 5.097 5.097z"/><path id="E" d="M371.884 5.023c0 2.114-2.36 3.83-5.273 3.83s-5.273-1.714-5.273-3.83 2.36-3.83 5.273-3.83 5.273 1.714 5.273 3.83z"/><path id="F" d="M405.515 26.115c0 3.128-2.536 5.664-5.664 5.664s-5.664-2.536-5.664-5.664 2.536-5.664 5.664-5.664 5.664 2.536 5.664 5.664z"/><path id="G" d="M460.63 184.25l17.716 35.433V237.4c-.865-1.305 0 17.716-17.716 17.716s-17.717-35.433-17.717-35.433-17.716 35.433-17.716 70.866 17.716 53.15 17.716 53.15-2.61-36.703 17.717-35.433 17.716 17.716 17.716 17.716v35.433h17.717v-141.73l17.717-35.433-27.136-53.15-26.014 53.15z"/><path id="H" d="M557.82 95.67l-26.323 70.866 17.717 53.15-35.433-17.716 35.433 53.15v35.433h17.716v-35.433l35.433-53.15-35.433 17.716 17.717-53.15L557.82 95.67z"/><path id="I" d="M422.53 136.96c0 2.068-1.958 3.746-4.37 3.746s-4.37-1.678-4.37-3.746 1.96-3.747 4.37-3.747 4.37 1.68 4.37 3.747zm-6.244 7.91c31.488 61.415 48.722 166.77 50.387 170.52.14 4.44-4.718 6.383-7.077.833-2.48-3.315-12.667-100.18-49.138-172.18-.244-13.734 3.76-14.8 8.326-14.57 3.76.21 8.325 3.725 8.325 7.91 0 4.996-5.828 8.742-10.823 7.493z"/><path id="J" d="M428.17-16.928s81.556 90.618 111 154.05 54.37 156.32 54.37 156.32 2.265-86.086-36.247-163.1c-52.1-97.42-131.4-142.73-129.13-147.26z"/><path id="K" d="M334.117 329.19h75.348v3.257h-75.348z"/></defs></svg>