<svg xmlns="http://www.w3.org/2000/svg" xmlns:xlink="http://www.w3.org/1999/xlink" height="480" width="640" xmlns:v="https://vecta.io/nano"><style><![CDATA[.B{fill:#d61517}.C{fill:#a11011}.D{fill-rule:evenodd}.E{fill:gray}.F{fill:#ffc500}]]></style><defs><clipPath id="A"><path fill-opacity=".67" d="M-85.24 0h682.67v512H-85.24z"/></clipPath><path id="B" d="M185.594 114.512zm-77.6-1.505v1.538h78.974v-1.505l-78.974-.033"/><path id="C" d="M477.98 275.98h34.57v44.3h-34.57z"/></defs><g clip-path="url(#A)" transform="matrix(.9375 0 0 .9375 79.914 .000022)"><path fill="#fff" d="M-254.55 0h1021.8v510.88h-1021.8z" class="D"/><g class="C"><path d="M405.2 175.1zm-71.913-62.795l-12.743 64.988 88.98-.91-9.558-64.072"/><g class="D"><path d="M276.15 77.584h27.3v6.827h-27.3zm-32.77 0h26.398v6.827H243.38zm-33.68-.454h26.398v6.37H209.7z"/></g><path d="M301.84 99.56zm-91.904-16.4v16.75h93.536v-16.4l-93.536-.358m11.394 23.668l-10.926 69.082 94.438.458-12.743-69.082m2.962 66.43z"/></g><g class="D"><path d="M-256 384.54H768.2V512H-256z" class="B"/><g class="C"><path d="M82.674 175.2h347.88v26.356H82.674z"/></g></g><path d="M95.91 198.65l-7.36 131.63-37.822.455v21.157h413.5v-21.157l-37.822.455-7.357-131.92-323.12-.628z" class="C"/><g class="B"><path d="M204.56 234.3v21.755h5.338V234.3h-5.338m8.008 0v21.755h42.707V234.3h-42.707m45.377 0v21.755h40.038V234.3h-40.038m42.707 0v21.755h8.008V234.3h-8.008zM366.97 256zm-38.317-21.736v22.2h38.997v-21.736l-38.997-.475M316.67 306.2v23.548h29.36V306.2h-29.36m32.03 0v14.718h5.338V306.2H348.7m37.37 0v14.718h5.338V306.2h-5.338m8.008 0v23.548h29.36V306.2h-29.36zm-74.748-23.97v21.3h5.338v-21.3h-5.338m8.008 0v21.3h18.684v-21.3h-18.684z"/><path d="M394.07 282.23v21.3h19.135v-21.3H394.07m21.87 0v21.3h5.467v-21.3h-5.467zM317.9 201.9v5.78h102.92v-5.78H317.9zm-216.34 80.78v21.3h18.04v-21.3h-18.04zm65.64-.45v22.2h18.684v-22.2H167.2m21.354 0v22.2h5.338v-22.2h-5.338zm14.646-79.88v5.325h106.1v-5.325H203.2zm-107.857.45v5.325h97.002V202.8H95.343z"/></g><path d="M313.08 200.53c-10.186.754 1.348 96.04 1.367 125.75 0 0 12.182-119.5-1.367-125.75z" fill="#fff"/><path d="M84.444 184.62v14.6h344.33v-14.6H84.444z" class="B"/><path d="M196.57 200.98c-10.186.767 1.348 97.777 1.367 128.03 0 0 12.182-121.67-1.367-128.03z" fill="#fff"/><g class="B"><path d="M90.9 282.68v21.3h8.216v-21.3H90.9zm-.207 23.05v24.03h29.36l-.16-24-29.2-.03m28.85 23.517z"/><path d="M454.7 349.85zM51.55 331.678v18.57h410.32v-18.172l-410.32-.397m115.6-25.48v23.226h28.45v-23.203l-28.45-.023m27.954 22.73zm6.636-23.2v23.548h29.36l-.16-23.52-29.2-.03m28.85 23.045zm48.98-22.573v23.548h32.547l-.16-23.52-32.388-.03m31.98 23.045zM139.48 256.45zm-38.208-22.626v23.12h38.887V234.32l-38.887-.494m-3.588 22.634zm-3.806-22.18v22.665h3.873v-22.18l-3.873-.484M183.5 256.9zm-40.476-22.626v23.12h41.195V234.77l-41.195-.494M190.97 256.9zm-4.7-22.18v22.665h4.784v-22.18l-4.784-.484m159.96 44.98zm-27.06-20.845v21.3h27.54V259.3l-27.54-.455m101.7 20.415zm-27.507-19.954v20.4h27.996v-19.954l-27.996-.436"/><path d="M390.15 279.7zm-39.92-20.4v20.845h40.63v-20.4l-40.63-.446"/></g><path d="M315.23 183.92zm-4.7-9.264v9.466h4.784v-9.264l-4.784-.202" fill="#fff"/><g class="B"><path d="M325.23 255.57zm-5.147-21.3v21.755h5.24v-21.3l-5.24-.465m88.417 21.76zm-37.052-21.3v21.755h37.7v-21.3l-37.7-.465m48.412 21.3zm-7.383-21.3v21.755h7.514v-21.3l-7.514-.465m-69.377-2.8zm-23.482-21.736v22.2h23.9v-21.736l-23.9-.475"/><path d="M389.2 231.9zm-41.894-21.3v21.755h42.64v-21.3l-42.64-.465m70.414 21.3zm-25.27-21.736v22.2h25.72v-21.736l-25.72-.475m-190.7 70.997v21.755h12.066v-21.6l-12.066-.144m11.855 21.3zm2.695-20.85v21.755h14.93v-21.6l-14.93-.144m14.67 21.3z"/><path d="M279.58 282.07v21.755h19.348V282.05l-19.348.02m19 21.3zm12.45-.01zm-9.62-21.3v21.755h9.8v-21.3l-9.8-.465m-208.808-80.6v4.415h102.92v-4.415H92.612zm105.588 0v4.415h113.84v-4.415H198.2z"/><path d="M314.64 200.98v4.415h108.9v-4.415h-108.9zm-195.52 79.16zm-27.06-21.3v21.755h27.54v-21.3l-27.54-.465m100.38 21.3zm-24.824-21.3v21.755h25.265v-21.3l-25.265-.465m-44.686.47v21.755h42.183l.16-21.6-42.344-.144m41.447 21.3zm39.194-22.66v21.755h27.996l.16-21.6-28.156-.144m27.507 21.3zm45.693-.01zm-43.16-21.3v21.755h43.926l-.16-21.45-43.766-.305m46.42.47v21.755h28.45l.16-21.774-28.6.02m27.954 21.3zM232.42 231zm-28.402-21.3v21.755h28.906v-21.3l-28.906-.465"/><path d="M277.76 231.43zm-42.8-21.736v22.2h43.55v-21.736l-43.55-.475m71.7 21.747zm-25.27-21.736v22.2h25.72v-21.736l-25.72-.475"/></g><path d="M186.73 182.38zM113 119.585l-10.926 64.988 88.98-.91-10.014-65.44" class="C"/><g class="B"><path d="M220.62 123.84l-2.718 10.65h38.052v-10.65H220.62m38.052 0v10.65h35.334v-10.65h-35.334zm-40.772 13.3v10.65h13.503v-10.65H217.9m16.204 0v10.65h43.2v-10.65h-43.2m45.9 0v10.65h16.204v-10.65h-16.204zM223.3 110.53l-2.722 10.65h10.887v-10.65H223.3m10.887 0v10.65h43.548v-10.65h-43.548m46.27 0v10.65h10.887v-10.65h-10.887zM209.9 86.565V91.9h45.832v-5.325H209.9m48.528 0V91.9h43.136v-5.325h-43.136z"/><path d="M209.9 94.553v5.325h21.354v-5.325H209.9m24.023 0v5.325h42.707v-5.325h-42.707m45.377 0v5.325h21.354v-5.325H279.3zm-34.7-15.975v5.325h24.023v-5.325H244.6zM84.444 177.1v5.325h21.354V177.1H84.444zm322.976 0v5.325h21.354V177.1H407.42zm-280 5.56zm-20.352-4.364v4.46h20.714v-4.364l-20.714-.095M173 183.13zm-17.67-3.734v3.816h17.983v-3.734l-17.983-.082"/></g><path d="M203.25 184.34zm-5.147-10.6v10.832h5.24v-10.6l-5.24-.232" fill="#fff"/><g class="B"><path d="M124.3 176.1zm-17.67-13.088v13.374h17.983v-13.088l-17.983-.286M134.9 176.1zm-9.172-12.643v12.92h9.335v-12.643l-9.335-.276m61.402 13.962zm-15.88-14.87v15.195h16.162v-14.87l-16.162-.325m-3.1 13.63zm-12.38-12.98v13.264h12.6v-12.98l-12.6-.284"/></g><g class="C"><path d="M192.98 181.7zm-19.905-6.6v6.736h20.258v-6.6l-20.258-.144m121.985-1.382zm-74.187-66.43L209.5 99.916h93.534l-10.47 8.293"/></g><g class="B"><path d="M210.92 78.578v5.325h24.023v-5.325H210.92zm65.98.455v5.325h25.388v-5.325H276.9zm11.307 29.043zm-66.875-1.692v1.73h68.05v-1.692l-68.05-.037"/><path d="M291.718 107.166zm-74.03-1.692v1.73h75.333v-1.692l-75.333-.037"/><path d="M294.834 105.8zm-77.6-1.692v1.73h78.974v-1.692l-78.974-.037"/><path d="M294.834 105.8zm-77.6-1.692v1.73h78.974v-1.692l-78.974-.037m79.833-.13zm-80.74-1.692v1.73h82.16v-1.692l-82.16-.037m26.793 80.39zm-15.88-3.474v3.55h16.162v-3.474l-16.162-.076m55.96 3.474zm-13.644-3.474v3.55h13.887v-3.474l-13.887-.076"/><path d="M117.4 231.88zM95.696 209.7v22.665h22.08v-22.18l-22.08-.484m147.164-32.25zm-30.2-13.718v14.018h30.727v-13.718l-30.727-.3m89.9 13.718zm-25.6-13.718v14.018h26.065v-13.718l-26.065-.3m-3.67 13.718zm-7.383-13.718v14.018h7.514v-13.718l-7.514-.3"/></g><path d="M226.7 182.14zm-16.774-7.037v7.19h17.072v-7.037l-17.072-.154" class="C"/><path d="M175.2 177.1v5.78h21.354v-5.78H175.2m29.36 0v5.78h21.354v-5.78H204.56z" class="B"/><path d="M304.02 182.15zm-20.352-6.59v6.736h20.714v-6.59l-20.714-.144" class="C"/><g class="B"><path d="M165.23 231.9zm-44.578-21.736v22.2h45.37v-21.736l-45.37-.475M191.1 231.9zm-23.035-21.736v22.2h23.444v-21.736l-23.444-.475m86.915-48.593zm-40.03-11.936v12.197h40.74v-11.936l-40.74-.26M298.2 162zm-40.03-11.936v12.197h40.74v-11.936l-40.74-.26"/></g><g class="C D"><path d="M168.74 88.962h23.667v6.827H168.74zm-34.6-.455h26.398v7.738H134.15zm-29.13.455h20.937v6.827H105.02z"/></g><path d="M189.57 109.24zm-76.616 10.8l-8.147-11.473 87.617.455-10.497 9.576" class="C"/><g class="B"><path d="M105.8 102.54v5.325h18.684v-5.325H105.8m21.354 0v5.325h42.707v-5.325h-42.707m45.377 0v5.325h18.684v-5.325H172.53zM105.8 90.138v4.68h18.684v-4.68H105.8m29.36 0v4.68h24.023v-4.68H135.16z"/><path d="M169.86 90.593v4.038h21.354v-4.038H169.86z"/></g><path d="M105.02 95.8h87.387v13.654H105.02z" class="C D"/><g class="B"><path d="M142.3 160.22zm-33.845-10.416v10.643H142.9V150.03l-34.446-.227M184.9 160.22zm-39.788-10.416v10.643h40.495V150.03l-40.495-.227m1.528-48.603zm-40.476-3.92v4.005h41.195v-3.92l-41.195-.086M124.8 147zm-14.54-11.046v11.287h14.797v-11.046l-14.797-.24"/><path d="M167.22 147.04zm-39.288-9.786v10h39.986v-9.786l-39.986-.214m55.618 10.216zm-12.75-11.046v11.287h12.976v-11.046l-12.976-.24m-25.77-1.675zm-32.95-9.786v10h33.536v-9.786l-33.536-.214m69.74 9.786zm-33.32-9.786v10h33.913v-9.786l-33.913-.214m23.03-2.364zm-48.973-3.92v4.005H172.4v-3.92l-49.843-.086m57.903 3.92zm-6.936-3.92v4.005h7.06v-3.92l-7.06-.086m-52.704 3.92zm-7.83-3.92v4.005h7.97v-3.92l-7.97-.086m77.8-17.48zm-40.553-3.92v4.005H191.5v-3.92l-41.273-.086"/><path d="M126.53 109.8zm-19.905-5.593v5.715h20.258v-5.593l-20.258-.122m60.135 4.963zm-35.263-5.147v5.26h35.9v-5.147l-35.9-.112m59.203 5.156zm-19.796-4.963v5.07h20.148v-4.963l-20.148-.108m8.063 12.32zm-66.875-1.505v1.538h68.05v-1.505l-68.05-.033"/><path d="M182.478 115.727zm-74.03-1.505v1.538h75.333v-1.505l-75.333-.033"/><use xlink:href="#B"/><use xlink:href="#B"/><path d="M187.827 112.892zm-80.74-1.505v1.538h82.16v-1.505l-82.16-.033M354.2 182.67zm-14.986-3.92v4.005h15.252v-3.92l-15.252-.086m65.356 3.45zm-22.588-3.92v4.005h23v-3.92l-23-.086m24.918-1.71zm-20.167-12.305v12.574h20.525v-12.305l-20.525-.27"/><path d="M383.9 176.56zm-8.243-12.75v13.03h8.4V164.1l-8.4-.28M340.5 177zm-16.775-13.642v13.94h17.073v-13.642l-17.073-.298"/><path d="M354.26 177zm-10.59-13.826v14.128h10.78v-13.826l-10.78-.302"/></g><path d="M338.66 183.03zm-17.67-7.928v8.1h17.983v-7.928l-17.983-.173" class="C"/><g class="B"><path d="M285.54 177.1v5.78h23.613v-5.78H285.54m31.484 0v5.78h21v-5.78h-21zM298.25 162zm-38.132-11.936v12.197h38.8v-11.936l-38.8-.26"/></g><g class="C D"><path d="M387.66 88.852h23.667v6.827H387.66zm-34.6-.455h26.398v7.738H353.07zm-29.13.455h20.937v6.827H323.94z"/></g><path d="M408.5 109.13zm-76.616 10.8l-8.147-11.473 87.617.455-10.497 9.576" class="C"/><g class="B"><path d="M324.72 102.43v5.325h18.684v-5.325H324.72m21.354 0v5.325h42.707v-5.325h-42.707m45.377 0v5.325h18.684v-5.325H391.45zm-66.73-12.403v4.038h18.684v-4.038H324.72m29.36 0v4.038h24.023v-4.038H354.08z"/><path d="M388.78 90.483v3.394h21.354v-3.394H388.78z"/></g><path d="M323.94 95.68h87.387v13.654H323.94z" class="C D"/><g class="B"><path d="M361.83 160.1zm-35.372-11.046v11.287h36v-11.046l-36-.24M403.84 160.1zm-38.055-11.046v11.287h38.73v-11.046l-38.73-.24M363.04 101.1zm-37.946-3.92v4.005h38.62v-3.92l-38.62-.086m18.636 49.72zm-14.54-11.046v11.287h14.797v-11.046l-14.797-.24"/><path d="M386.16 146.9zm-38.655-11.046v11.287h39.342v-11.046l-39.342-.24m54.965 11.495zm-12.75-11.046v11.287h12.976v-11.046l-12.976-.24M364.6 133.4zm-33.583-7.896v8.07h34.18v-7.896l-34.18-.172m69.733 7.894zm-32.688-7.896v8.07h33.27v-7.896l-33.27-.172m22.388-3.026zm-48.973-3.92v4.005h49.843v-3.92l-49.843-.086m57.923 3.92zm-6.936-3.92v4.005h7.06v-3.92l-7.06-.086m-52.714 3.92zm-7.83-3.92v4.005h7.97v-3.92l-7.97-.086m77.78-17.46zm-41.818-3.92v4.005h42.56v-3.92l-42.56-.086"/><path d="M344.2 108.4zm-18.64-6.223v6.36h18.97v-6.223l-18.97-.136m58.82 6.222zm-36.528-5.777v5.903h37.177v-5.777l-37.177-.126M409.6 108.4zm-21.694-5.593v5.715h22.08v-5.593l-22.08-.122m9.99 13.618zm-66.875-1.505v1.538h68.05v-1.505l-68.05-.033"/><path d="M401.406 115.616zm-74.03-1.505v1.538h75.333v-1.505l-75.333-.033"/><path d="M404.522 114.4zm-77.6-1.505v1.538h78.974v-1.505l-78.974-.033"/><path d="M404.522 114.4zm-77.6-1.505v1.538h78.974v-1.505l-78.974-.033m79.833-.115zm-80.74-1.505v1.538h82.16v-1.505l-82.16-.033m71.88 3.887zm-66.875-.383v.392h68.05v-.383l-68.05-.008"/><path d="M401.406 114.956zm-74.03-.383v.392h75.333v-.383l-75.333-.008"/><path d="M404.522 114.646zm-77.6-.383v.392h78.974v-.383l-78.974-.008"/><path d="M404.522 114.646zm-77.6-.383v.392h78.974v-.383l-78.974-.008m79.833-.03zm-80.74-.383v.392h82.16v-.383l-82.16-.008"/></g><g class="D"><path d="M232.07 462.6h19.954v28.965H232.07z" class="E"/><path d="M234.64 464.54h17.38v25.103h-17.38z" class="F"/><path d="M237.86 469.68h11.586v17.38H237.86z" class="E"/><path d="M240.44 471.62h7.08v13.517h-7.08z" class="B"/><path d="M231.443 474.208h7.724v9.012h-7.724z" class="E"/><path d="M231.443 476.134h8.368v5.15h-8.368z" class="B"/><path d="M261.382 502.994h-9.655v-75.31h9.655z" class="E"/><path d="M259.445 501.068h-5.793v-71.45h5.793z" class="F"/><g class="E"><path d="M283.112 407.475l-4.69 4.44-25.197-23.854 4.69-4.44z"/><path d="M261.015 432.113l-4.434-4.854 21.935-24.018 4.434 4.854z"/></g><g class="F"><path d="M254.326 388.4l3.834-3.676 23.856 22.876-3.834 3.676z"/><path d="M259.698 432.207l-3.55-3.928 22.092-24.444 3.55 3.928z"/></g><g class="E"><path d="M230.87 410.55l4.434-4.357 21.936 21.557-4.434 4.357z"/><path d="M254.87 383.84l4.8 4.656-25.772 25.005-4.8-4.656z"/></g><path d="M235.31 411.494l-3.74-3.74 23.268-23.268 3.74 3.74z" class="F"/><path d="M254.14 336.22h5.15v62.156h-5.15z" class="E"/><g class="F"><path d="M255 337.05h3.54v60.114H255zm-24.568 71.912l3.992-3.992 24.837 24.837-3.992 3.992z"/></g><g transform="matrix(1.3111 0 0 1.0558 -279.63 -7.6723)" class="C"><use xlink:href="#C"/><rect ry="18.298" height="36.596" width="34.311" y="258.3" x="478.13"/></g><g transform="matrix(1.2413 0 0 1.0195 -244.64 3.9693)" class="B"><use xlink:href="#C"/><rect ry="18.298" height="36.596" width="34.311" y="258.3" x="478.13"/></g><g transform="matrix(.92478 0 0 .95717 -87.879 23.926)" class="C"><use xlink:href="#C"/><rect ry="18.298" height="36.596" width="34.311" y="258.3" x="478.13"/></g><g class="B"><path d="M355.98 289.23h28.04v40.45h-28.04z"/><rect ry="16.707" height="33.414" width="27.829" y="273.09" x="356.11"/></g><g transform="matrix(1.3484 0 0 1.0558 -412.97 -8.7173)" class="C"><use xlink:href="#C"/><rect ry="18.298" height="36.596" width="34.311" y="258.3" x="478.13"/></g><g transform="matrix(1.2766 0 0 1.0195 -376.99 2.9243)" class="B"><use xlink:href="#C"/><rect ry="18.298" height="36.596" width="34.311" y="258.3" x="478.13"/></g><g transform="matrix(.95104 0 0 .95717 -215.77 22.881)" class="C"><use xlink:href="#C"/><rect ry="18.298" height="36.596" width="34.311" y="258.3" x="478.13"/></g><g transform="matrix(.83413 0 0 .91304 -158 36.213)" class="B"><use xlink:href="#C"/><rect ry="18.298" height="36.596" width="34.311" y="258.3" x="478.13"/></g><g transform="matrix(1.3298 0 0 1.0558 -515.42 -8.5564)" class="C"><use xlink:href="#C"/><rect ry="18.298" height="36.596" width="34.311" y="258.3" x="478.13"/></g><g transform="matrix(1.2589 0 0 1.0195 -479.94 3.0852)" class="B"><use xlink:href="#C"/><rect ry="18.298" height="36.596" width="34.311" y="258.3" x="478.13"/></g><g transform="matrix(.93791 0 0 .95717 -320.95 23.042)" class="C"><use xlink:href="#C"/><rect ry="18.298" height="36.596" width="34.311" y="258.3" x="478.13"/></g><g transform="matrix(.82261 0 0 .91304 -263.97 36.374)" class="B"><use xlink:href="#C"/><rect ry="18.298" height="36.596" width="34.311" y="258.3" x="478.13"/></g></g><g class="C"><path d="M233.03 322.27v2.312h6.294v-2.312h-6.294zm-111.83-1.6v2.312h6.294v-2.312H121.2zm0-17.22v2.312h6.294v-2.312H121.2zm.15-16.24v2.312h6.294V287.2h-6.294zm38.3 34.1v2.312h6.294V321.3h-6.294zm-.15-17.38v2.312h6.294v-2.312H159.5zm-.5-16.42v2.312h6.294V287.5H159zm83.1-9.47l1.635-1.635-4.45-4.45-1.635 1.635 4.45 4.45zm29.06 44.07v2.312h6.294V322.1h-6.294zm-37.96-18.5v2.312h6.294V303.6H233.2zm-.5-16.57v2.312h6.294v-2.312H232.7zm38.46 16.9v2.312h6.294v-2.312h-6.294zm.34-17.7v2.312h6.294v-2.312H271.5zm76.74 36.68v2.312h6.294V322.9h-6.294zm0-19.3v2.312h6.294V303.6h-6.294zm.16-18.34v2.312h6.294v-2.312H348.4zm37.18 37.8v2.312h6.294v-2.312h-6.294zm-.16-19.3v2.312h6.294v-2.312h-6.294zm.16-17.86v2.312h6.294V285.9h-6.294z"/><g class="D"><g transform="matrix(.55913 0 0 .46281 88.214 34.398)"><use xlink:href="#C"/><rect ry="18.298" height="36.596" width="34.311" y="258.3" x="478.13"/></g></g></g><g transform="matrix(.52936 0 0 .44688 103.13 39.501)" class="B D"><use xlink:href="#C"/><rect ry="18.298" height="36.596" width="34.311" y="258.3" x="478.13"/></g><g transform="matrix(.39437 0 0 .41957 169.98 48.249)" class="C D"><use xlink:href="#C"/><rect ry="18.298" height="36.596" width="34.311" y="258.3" x="478.13"/></g><g transform="matrix(.34589 0 0 .40022 193.94 54.093)" class="B D"><use xlink:href="#C"/><rect ry="18.298" height="36.596" width="34.311" y="258.3" x="478.13"/></g><g class="C"><path d="M371.2 265.24h-2.312v6.294h2.312v-6.294zm-97.87 8.82l-1.635-1.635-4.45 4.45 1.635 1.635 4.45-4.45zm113.13-.16l-1.635-1.635-4.45 4.45L382 278.35l4.45-4.45zm-28.2 4.3l1.635-1.635-4.45-4.45-1.635 1.635 4.45 4.45zm-228.9-7.54l-1.635 1.635 4.45 4.45 1.635-1.635-4.45-4.45zm127.1-5.9h-2.312v6.294h2.312v-6.294zm-114.15 7.26h2.312v-6.294h-2.312v6.294zm12.44 4.2l1.635 1.635 4.45-4.45-1.635-1.635-4.45 4.45zm203.86-100.37v7.006h22.902v-7.006H358.63z"/></g><path d="M359.37 177.1v5.325h21.354V177.1H359.37z" class="B"/><g transform="matrix(1.0299 0 0 1.0299 -357.65 -111.23)" class="D"><g transform="matrix(.61374 0 0 .46256 290.81 137.49)" class="C"><use xlink:href="#C"/><rect ry="18.298" height="36.596" width="34.311" y="258.3" x="478.13"/></g><g transform="matrix(.58106 0 0 .44663 307.18 142.59)" class="B"><use xlink:href="#C"/><rect ry="18.298" height="36.596" width="34.311" y="258.3" x="478.13"/></g><g transform="matrix(.43289 0 0 .41934 380.56 151.34)" class="C"><use xlink:href="#C"/><rect ry="18.298" height="36.596" width="34.311" y="258.3" x="478.13"/></g><g transform="matrix(.37967 0 0 .4 406.86 157.18)" class="B"><use xlink:href="#C"/><rect ry="18.298" height="36.596" width="34.311" y="258.3" x="478.13"/></g></g><path d="M244.32 176.14v7.006h25.424v-7.006H244.32z" class="C"/><path d="M244.6 177.55v5.325h24.023v-5.325H244.6z" class="B"/><g transform="matrix(1.0299 0 0 1.0299 -469.44 -111.23)" class="D"><g transform="matrix(.61374 0 0 .46256 290.81 137.49)" class="C"><use xlink:href="#C"/><rect ry="18.298" height="36.596" width="34.311" y="258.3" x="478.13"/></g><g transform="matrix(.58106 0 0 .44663 307.18 142.59)" class="B"><use xlink:href="#C"/><rect ry="18.298" height="36.596" width="34.311" y="258.3" x="478.13"/></g><g transform="matrix(.43289 0 0 .41934 380.56 151.34)" class="C"><use xlink:href="#C"/><rect ry="18.298" height="36.596" width="34.311" y="258.3" x="478.13"/></g><g transform="matrix(.37967 0 0 .4 406.86 157.18)" class="B"><use xlink:href="#C"/><rect ry="18.298" height="36.596" width="34.311" y="258.3" x="478.13"/></g></g><path d="M128.32 173.9v8.407h22.342V173.9H128.32z" class="C"/><path d="M149.3 182.6zm-19.458-7.482v7.646h19.803v-7.482l-19.803-.163" class="B"/></g></svg>