<svg xmlns="http://www.w3.org/2000/svg" xmlns:xlink="http://www.w3.org/1999/xlink" width="600" height="400" xmlns:v="https://vecta.io/nano"><g transform="matrix(.925905 0 0 .92703 -.379456 -.3725)"><path d="M.4.402v144h648v-144H.4z" fill="#002488"/><path d="M410.905 328.28c0 1 3.4 3.2 7.6 5 7 3 15.4 6 77.4 28.2 26.6 9.6 37 12.4 37 9.8 0-1-24-9.8-53.4-19.4-29.6-9.8-57-19.4-61-21.6-4.2-2-7.6-2.8-7.6-2zm28.2 17.344c1.2 2 74.6 32 87 35.6 4.6 1.4 6.6-2.4 2-4-1.4-.4-15.2-5.4-30.6-11l-56.8-21.6c-1.8-.6-2.4-.2-1.6 1z" fill="green"/><path d="M.424 143.887v288h648v-288h-648z"/><path d="M214.985 225.884c2.254 5.503 10.25 9.264 20.98 10.2 7.262.515 3.93-2.613-6.218-6.307-4.767-1.522-10.32-4.394-12.677-6.104-4.15-3.214-4.15-3.214-2.085 2.22z" fill="green"/><g fill="#fcdd09"><use xlink:href="#B"/><use xlink:href="#C"/><use xlink:href="#D"/><use xlink:href="#E"/><use xlink:href="#F"/><use xlink:href="#B" x="199.724" y="0.001"/><use xlink:href="#C" x="199.723" y="0.001"/><use xlink:href="#D" x="199.723"/><use xlink:href="#E" x="199.722" y="0.002"/><use xlink:href="#F" x="199.722"/><use xlink:href="#B" x="406.136" y="-0.701"/><use xlink:href="#C" x="406.136" y="-0.701"/><use xlink:href="#D" x="406.135" y="-0.701"/><use xlink:href="#E" x="406.135" y="-0.701"/><use xlink:href="#F" x="406.135" y="-0.703"/></g><g fill="green"><path d="M113.906 184.7c5.8 8.6 12.4 14.8 25.2 23.4 9.4 6.4 17.6 11.4 18 11 .8-1-46-44.4-49.2-45.6-1.2-.4 1.4 4.6 6 11.2zm120.41 45.803c4.342 2.024 9.887 3.62 12.683 3.714 3.305.1 2.427-.7-3.74-3.1-4.828-1.884-10.602-5.053-13.165-7.017-4.595-3.755-4.595-3.755-4.113-.452.275 1.888 3.738 4.822 8.335 6.855z"/><path d="M207.306 191.482c2.8 11.2 14.4 31.8 18.4 32.6 3.6.6 3.6.4.6-3-5-5.8-15.8-27-15.8-31 0-2.2-1-3.8-2.2-3.8-1.4 0-1.8 2-1 5.2zM87.1 177.438c-.07.394 3.685 3.3 8.4 6.556s10.185 7.888 12.004 10.24c3.117 4.205 20.775 14.63 22.432 13.297 1.622-1.136-21.123-19.565-30.74-24.917-11.448-6.486-11.84-6.556-12.085-5.177z"/><path d="M93.535 192.825c0 .4 4.2 2.6 9.4 5s11.4 6 13.6 8c3.8 3.6 23 10.8 24.4 9.2 1.4-1.4-24.2-15.6-34.6-19.2-12.4-4.4-12.8-4.4-12.8-3zm89.2 7.057c7.6 14 15.4 23.2 18.6 22.2 1.6-.6-2-6.4-9.8-15.8l-13.6-16c-.6-.6 1.6 3.8 4.8 9.6zm9.828-5.457c0 2.2 7.8 17.4 12.4 23.8 2.6 3.6 5.6 5.6 9 5.6 5 0 5 0-2.6-8.6-4.4-4.6-10.2-11.6-13.2-15.4s-5.6-6.2-5.6-5.4zm-18.388 6.457c0 3 14.62 23 16.885 23 1.03 0-1.44-4.8-5.766-10.6-9.678-13.2-11.12-14.6-11.12-12.4zm-13.81 55.113c-13.2 5.2-16 7-16 9.8 0 1.2 1.4 1 3.6-.8 1.8-1.8 8.4-4.2 14.4-5.6s13.2-3.8 16-5.2l5-2.6h-6c-3.2.2-11 2.2-17 4.4z"/><path d="M122.883 222.02c9.862 8.968 42.845 25.91 59.558 30.893 4.528 1.33 11.876 1.637 16.028.764l7.74-1.54-7.64-4.03c-12.322-6.37-32.557-19.863-39.82-26.37-7.913-7.123-7.656-4.663.395 5.177 3.145 3.963 12.443 10.795 20.594 15.065 8.22 4.457 13.963 8.54 13.023 8.88-2.443.89-25.002-11.97-42.16-24.03-18.646-13.22-19.415-13.58-12.475-5.037 3.402 4.083 9.69 9.668 14.254 12.264 4.444 2.852 7.486 5.363 6.546 5.705-1.88.684-13.57-5.703-28.83-15.472-4.256-2.92-10.05-6.56-12.56-8.198-2.77-1.76-.3.957 5.35 5.928z"/><path d="M124.335 219.224l-8 2.6 6 1c3.2.8 7.4.4 9.4-.6 1.8-1 5.4-1.8 8-2 4.4 0 4.4-.2.6-1.8-5-2.2-6.2-2.2-16 .8zm9.857 5.428c-3.4 2.6-3.2 2.8 4.2 1.6 4.4-.6 10.8-1.8 14-2.6 5.2-1.4 4.8-1.6-4.2-1.8-6-.2-11.6 1-14 2.8z"/><path d="M84.506 203.624c33 6 99.2 28.2 95.2 32-1 1-19.6-3.6-22.2-5.4-1-1-10.8-.6-21.6.8-20.2 2.2-23.6 4-23.2 12.2.2 4 .2 4 1.2 0 1.8-7.4 4.8-9 16.2-9 12.4 0 46.4 5 61.4 9 20 5.6 20.6 5.6 14 2-8.6-4.8-21.6-13.6-24-16.2-4.4-5-84.2-27-95.8-26.6-5.4.4-5.6.4-1.2 1.2z"/><path d="M99.678 214.28c-2.4 1.8-5 6-5.6 9.4-1.2 5.8-1.2 5.8 2 2 8.4-10.6 9-11 19.4-11.2 8.4-.2 9.6-.6 5.6-1.8-8.4-2.6-16.8-2-21.4 1.6z"/><use xlink:href="#G"/><use xlink:href="#G" x="1.204" y="19.001"/><path d="M180.465 221.812c.288-.278 4.788 1.215 10.126 3.29s12.235 4.033 15.202 4.226c5.23.233 23.746 9.042 23.568 11.16-.035 1.98-28.032-6.57-37.846-11.552-11.78-5.863-12.057-6.15-11.05-7.124z"/><path d="M213.59 236.43c-3.73 1.442-7.483 4.05-8.65 5.916-1.378 2.205-.212 2.226 4.6-.19 3.773-1.887 9.222-3.435 12.21-3.7 5.597-.276 5.597-.276 2.035-2.502-2.035-1.272-6.36-1.144-10.197.467z"/><path d="M190.56 250.782c-11.4 10.223-13.92 17.35-10.268 27.94l3.157 9.068-.88-9.178c-1.36-12.597 2.037-18.326 15.837-28.278 6.486-4.63 11.64-8.83 11.518-9.2-.68-2.092-13.567 4.198-19.364 9.656zm-70.568-81.758c6.2 11.8 31.4 39 45.4 49.4 3.8 2.8 10.6 5.6 14.8 6.2l7.8 1.2-5.8-6.4c-9.4-10.2-23.8-29.8-28.4-38.4-5-9.4-5.6-7-1.4 5 1.6 4.8 8 14.4 14.2 21.2 6.2 7 10.2 12.8 9.2 12.8-2.6 0-19.4-19.8-31.4-37-13-18.8-13.6-19.4-10-9 1.8 5 5.8 12.4 9.2 16.4 3.2 4.2 5.2 7.6 4.2 7.6-2 0-10.8-10-21.8-24.4-3-4.2-7.2-9.6-9-12-2-2.6-.6.8 3 7.4z"/><path d="M184.506 225.024c0 1.4 3 5 6.6 7.8 10.6 8 38.8 21.4 42.4 20 2.2-.8-1.2-3-10.8-6.6-16.8-6.6-32.2-15.4-32.2-18.4 0-1.6 6.6-1.8 23-.8 24.6 1.4 32-1.4 9.6-3.4-23.6-2.4-38.6-1.8-38.6 1.4zm-52.8 21.4c-8.6 2-13.2 5-13.2 8.6 0 1.4.8 1.2 1.8-.4 1.6-2.6 18-7.4 19.6-5.8.4.4-.2 3.4-1.4 6.4s-1.6 6-1 6.6c.6.8 1.6-.8 2.2-3 2.4-8.6 9.8-11.2 27.6-9.6l22.2 2c3.4.2 8 1.4 10.4 2.8 5.2 2.8 25.4 3 23.6.2-.6-1-4.4-2.4-8.6-3-4-.6-12.4-2.6-18.6-4.2-12.4-3.2-52-3.6-64.6-.6zM204.74 269.5c-15.074-2.7-22.242-.287-28.34 9.1l-5.202 8.07 6.7-6.343c9.1-8.826 15.695-9.678 32.033-4.93 7.643 2.26 14.125 3.737 14.35 3.406 1.23-1.824-11.66-8.106-19.53-9.314zm-19.52-5.562c-27.8 7.6-31 10.4-27 23 1.6 4.8 1.6 4.6 1.8-1.6.2-3.4 2-8.2 4-10.2 3.6-3.6 19.8-8.2 39.6-11.4 4.8-.6 8-2 7.4-3-1.6-2.6-8-1.8-25.8 3.2z"/><path d="M208.85 273.7c-14 6.2-18.6 12.2-18.4 23.4l.2 9.6 2-9c2.6-12.4 7.6-16.8 23.8-22 7.6-2.4 13.8-4.8 13.8-5.2 0-2.2-14.2-.2-21.4 3.2zm-2.658 17.18c-2.4 3.2-4.2 7.4-4.2 9.6 0 2.6 1 2 3.8-2.6 2.2-3.6 6-7.8 8.4-9.6 4.6-3.2 4.6-3.2.4-3.2-2.4 0-6 2.4-8.4 5.8zm216.232 32.594c6.495 2.814 40.2 11.312 64.03 18.294s51.715 15.02 57.885 15.885c8.82-19.222-7.23 16.73 1.93-5.06l-77.673-19.485-45.17-12.937c-5.9-1.3-5.98 1.137-1 3.302zm4.12-5c6.6 2.586 40.56 9.902 64.63 16.048s52.208 13.205 58.404 13.856c8.143-19.518-6.642 16.974 1.75-5.123L473.023 326.5l-45.593-11.352c-5.94-1.092-5.937 1.345-.885 3.335zm-9.328 8.616c6.338 3.15 39.542 13.4 62.985 21.62s50.858 17.705 56.974 18.893c9.813-18.734-8.096 16.33 2.2-4.95l-76.547-23.524-44.43-15.283c-5.823-1.606-6.032.823-1.172 3.245zm-4.046 4.095c6.165 3.478 38.787 15.45 61.767 24.886s49.862 20.343 55.907 21.85c10.78-18.195-8.94 15.884 2.447-4.83l-75.2-27.498-43.57-17.587c-5.73-1.908-6.066.506-1.34 3.18zm-3.808 5.16c6.04 3.7 38.224 16.795 60.86 27.027s49.12 22.07 55.1 23.787c11.408-17.807-9.5 15.562 2.614-4.74l-74.205-30.106-42.93-19.097c-5.66-2.107-6.08.294-1.45 3.13zm-4.3 4.7c5.838 4.002 37.292 18.772 59.363 30.175s47.9 24.6 53.8 26.638c12.325-17.186-10.3 15.044 2.86-4.598l-72.528-33.948-41.87-21.318c-5.543-2.4-6.087-.025-1.613 3.05z"/></g><path d="M335.417 383.57l6.478 4.626c9.286 6.47 14.393 15.46 13.887 24.74l-.343 7.663 3.048-7.54c3.335-7.9 2.876-19.838-1.063-28.686l-2.298-5.16 7.297 3.177c10.428 4.398 17.294 12.13 18.728 21.313l1.257 7.567 1.414-8.01c1.62-8.412-1.3-20-7.005-27.835l-3.32-4.572 7.8 1.6c11.114 2.134 19.437 8.27 22.75 16.956l2.804 7.14-.284-8.13c-.163-8.565-5.44-19.3-12.64-25.772l-4.2-3.78 7.96-.064c11.314-.223 20.732 4.047 25.778 11.857l4.225 6.4-1.966-7.893c-1.94-8.34-9.332-17.735-17.72-22.578l-4.894-2.826 7.773-1.717c11.02-2.574 21.12-.352 27.68 6.235l5.464 5.382-3.565-7.31c-3.63-7.756-12.815-15.41-22.027-18.404l-5.374-1.743 7.246-3.297c10.244-4.808 20.584-4.735 28.37.343l6.465 4.13-5.007-6.412c-5.166-6.833-15.74-12.408-25.373-13.42l-5.617-.59 6.402-4.732c9.02-6.83 19.15-8.913 27.82-5.562l7.183 2.694-6.23-5.23c-6.474-5.61-17.976-8.865-27.61-7.85l-5.617.59 5.277-5.96c7.403-8.557 16.88-12.698 26.058-11.222l7.585 1.14-7.183-3.818c-7.498-4.14-19.425-4.934-28.637-1.94l-5.374 1.744 3.922-6.924c5.462-9.91 13.87-15.93 23.155-16.398l7.657-.46-7.82-2.24c-8.195-2.49-20.027-.786-28.415 4.055l-4.894 2.825 2.4-7.6c3.283-10.83 10.255-18.464 19.24-20.852l7.394-2.042-8.115-.566c-8.535-.734-19.753 3.39-26.95 9.873l-4.2 3.78.768-7.922c.96-11.278 6.19-20.195 14.484-24.4l6.808-3.533-8.055 1.13c-8.5 1.057-18.615 7.426-24.31 15.262l-3.32 4.572-.895-7.91c-1.406-11.227 1.857-21.042 9.093-26.875l5.924-4.872-7.644 2.78c-8.094 2.8-16.663 11.134-20.603 19.983l-2.298 5.163-2.52-7.55c-3.7-10.7-2.558-20.968 3.308-28.178l4.783-5.997-6.9 4.308c-7.335 4.423-13.986 14.355-16 23.83l-1.174 5.528-4.036-6.86c-5.852-9.69-6.86-19.978-2.623-28.252l3.43-6.86-5.852 5.648c-6.256 5.853-10.695 16.953-10.695 26.638v5.65l-5.374-5.87c-7.736-8.256-10.863-18.115-8.44-27.088l1.927-7.425-4.55 6.745c-4.902 7.022-6.937 18.802-4.923 28.28l1.173 5.525-6.476-4.626c-9.286-6.47-14.393-15.46-13.887-24.742l.342-7.663-3.048 7.543c-3.333 7.9-2.874 19.834 1.063 28.682l2.298 5.163-7.297-3.178c-10.428-4.397-17.294-12.13-18.728-21.312l-1.257-7.567-1.413 8c-1.62 8.4 1.31 20 7.005 27.836l3.32 4.57-7.798-1.592c-11.114-2.133-19.437-8.267-22.75-16.954l-2.804-7.14.284 8.13c.163 8.565 5.44 19.3 12.64 25.77l4.2 3.78-7.96.064c-11.314.224-20.732-4.047-25.778-11.853l-4.226-6.402 1.967 7.89c1.94 8.344 9.332 17.74 17.72 22.582l4.892 2.825-7.772 1.717c-11.02 2.572-21.12.353-27.68-6.234l-5.465-5.383 3.565 7.31c3.632 7.758 12.816 15.408 22.028 18.4l5.374 1.747-7.246 3.296c-10.245 4.81-20.586 4.735-28.37-.344l-6.465-4.13 5.007 6.41c5.166 6.833 15.74 12.408 25.373 13.42l5.62.592-6.402 4.73c-9.02 6.833-19.152 8.912-27.822 5.562l-7.183-2.693 6.23 5.228c6.474 5.61 17.976 8.865 27.61 7.852l5.62-.59-5.278 5.957c-7.403 8.56-16.88 12.698-26.058 11.225l-7.585-1.143 7.183 3.82c7.5 4.142 19.426 4.934 28.638 1.94l5.374-1.746-3.924 6.927c-5.462 9.91-13.87 15.93-23.155 16.396l-7.657.458 7.82 2.244c8.195 2.49 20.027.786 28.415-4.056l4.894-2.826-2.398 7.6c-3.283 10.83-10.255 18.468-19.24 20.854l-7.394 2.042 8.115.568c8.535.732 19.753-3.395 26.95-9.877l4.2-3.78-.768 7.925c-.96 11.274-6.19 20.193-14.484 24.396l-6.808 3.535 8.055-1.13c8.5-1.057 18.615-7.43 24.31-15.266l3.32-4.57.897 7.9c1.406 11.227-1.858 21.038-9.095 26.874l-5.925 4.872 7.644-2.78c8.094-2.8 16.664-11.137 20.604-19.984l2.297-5.16 2.52 7.547c3.7 10.694 2.558 20.968-3.308 28.18l-4.783 5.998 6.9-4.31c7.335-4.422 13.986-14.356 16-23.83l1.174-5.525 4.036 6.86c5.852 9.686 6.86 19.978 2.623 28.25l-3.43 6.86 5.852-5.65c6.256-5.85 10.695-16.95 10.695-26.636v-5.65l5.374 5.872c7.736 8.257 10.863 18.115 8.44 27.088l-1.93 7.425 4.55-6.745c4.902-7.025 6.937-18.802 4.924-28.278l-1.174-5.525" fill="#fcdd09"/></g><defs ><path id="B" d="M114.296 16.523c-7.912 13.032-8.856 23.456-3.456 41.456 2.6 8.4 5.456 20.944 6.656 27.744 1.6 9.6 1.432 10.513 1.657 12.6l8.647-.005c.302-3.324.547-7.16 1.256-12.435.827-6.15 3.28-19.015 5.92-27.95 5.273-17.855 4.92-28.8-3.28-41.2-3-4.6-7-8.4-8.8-8.4s-5.872 3.512-8.6 8.2z"/><path id="C" d="M153.152 53.395c-11.2 4.8-17.936 18.088-21.616 36.4-.68 3.44-.845 4.652-1.186 8.528l5.74.012c.517-2.607.9-3.984 2.03-7.684 4.52-14.312 17.832-20.056 17.232-6.656-.2 3.7-1.762 5.766-3.5 7.75 2.15-.536 6.712-2.665 10.412-4.765 20.6-12.4 12.488-42.784-9.112-33.584z"/><path id="D" d="M107.387 102.994l32.164.072.055-2.5c-5.524-.046-26.677.03-32.177.03.013 1.008-.013 1.496-.043 2.4z"/><path id="E" d="M110.045 113.578c-3.258 3.512-8.348 6.138-8.348 6.138s4.503.506 8.702.2 6.53-.83 9.01-2.036c-.674 5.004-.713 9.836-.713 9.836.61 6.44 1.302 8.087 2.698 11.222 1.895 2.614 2.996 2.63 4.39-.132 1.505-3.09 2.496-6.27 2.81-11.12-.11-3.635-.313-5.3-1.173-9.743 2.905 1.257 4.74 1.583 9.075 1.973 4.436.4 8.513.204 8.513.204s-5.992-3.007-8.63-6.695c-2.603-3.64-2.048-3.02-3.94-7.71-2.3-.11-13.96-.002-17.66-.002-2.026 4.275-2.23 5.168-4.733 7.866z"/><path id="F" d="M93.58 53.39c11.2 4.8 17.936 18.088 21.616 36.4.68 3.44.845 4.652 1.186 8.528l-5.74.012c-.517-2.607-.9-3.984-2.03-7.684-4.52-14.312-17.832-20.056-17.232-6.656.2 3.7 1.762 5.766 3.5 7.75-2.15-.536-6.712-2.665-10.412-4.765-20.6-12.4-12.488-42.784 9.112-33.584z"/><path id="G" d="M201.62 226.624c1.6 2.8 17.2 10.6 18.4 9.4.6-.6-1.2-2.2-3.6-3.6-2.6-1.4-6-3.6-7.4-5.2-3.2-3-9.2-3.6-7.4-.6z"/></defs></svg>