<svg xmlns="http://www.w3.org/2000/svg" xmlns:xlink="http://www.w3.org/1999/xlink" height="480" width="640" xmlns:v="https://vecta.io/nano"><style><![CDATA[.B{stroke-width:1pt}.C{font-weight:bold}.D{font-size:14px}.E{font-family:Timmons}.F{fill:#000}.G{fill-rule:evenodd}.H{stroke:#000}.I{fill:none}.J{stroke:#2b2b2b}.K{stroke-width:1.25}.L{stroke-linejoin:round}.M{stroke:#006b00}.N{fill:#fff}.O{stroke-linecap:round}.P{fill:#2b2b2b}.Q{fill:#ffc900}.R{stroke-width:.69}.S{fill:#e80000}.T{stroke-width:.625}.U{stroke-width:.993pt}.V{stroke-width:.689}]]></style><defs><linearGradient id="A" gradientUnits="userSpaceOnUse"><stop stop-color="#d5dfff" offset="0"/><stop stop-color="#fff" offset="1"/></linearGradient><linearGradient id="B" gradientUnits="userSpaceOnUse"><stop stop-color="#474747" offset="0"/><stop stop-color="#f50" offset="1"/></linearGradient><linearGradient id="C" y2="113.068" xlink:href="#B" x2="208.043" y1="142.414" x1="205.627"/><linearGradient id="D" y2="269.547" gradientUnits="userSpaceOnUse" x2="195.707" y1="252.882" x1="195.571"><stop stop-color="#b50000" offset="0"/><stop stop-color="#ffc500" offset="1"/></linearGradient><linearGradient id="E" y2="147.35" xlink:href="#A" x2="456.4" gradientTransform="matrix(.55904 0 0 1.7607 40.513 .0061069)" y1="149.38" x1="407.87"/><linearGradient id="F" y2="136.839" xlink:href="#B" x2="210.15" y1="136.839" x1="200.415"/><linearGradient id="G" y2="1003.7" xlink:href="#A" x2="78.221" gradientTransform="matrix(2.5627 0 0 .38409 40.513 .0061069)" y1="1040.4" x1="117.6"/><linearGradient id="H" y2="226.38" xlink:href="#A" x2="255.03" gradientTransform="matrix(.88634 0 0 1.1105 40.513 .0061069)" y1="245.98" x1="264.72"/></defs><path fill="#006" d="M0 0h640v480H0z"/><g class="N"><path d="M0 0v32.946l403.223 261.736h50.755v-32.945L50.755.001H0zm453.978 0v32.945L50.755 294.68H0v-32.945L403.223 0h50.755z"/><path d="M189.158 0v294.68h75.663V0h-75.663zM0 98.227v98.227h453.978V98.227H0z"/></g><path d="M0 117.872v58.936h453.978v-58.936H0zM204.3 0v294.68h45.398V0H204.3zM0 294.68l151.326-98.227h33.836L33.836 294.68H0zM0 0l151.326 98.227H117.5L0 21.965V0zm268.816 98.227L420.142 0h33.836L302.652 98.227h-33.836zM453.978 294.68l-151.326-98.227h33.836l117.5 76.263v21.964z" fill="#c00"/><g transform="matrix(.86059 0 0 .86059 337.27 11.701)"><g class="G H"><g class="B"><path d="M146.97 393.04s-3.346 8.842-5.257 8.842-8.842-3.824-8.842-3.824-5.018 8.125-7.647 8.603-9.56-1.195-9.56-1.195-6.69 0-6.93-.956.24-2.868.24-2.868-9.56 7.647-11.7 7.17-9.32-9.56-9.32-9.56l-1.198 4.8-13.62-.48-11.95-7.65s-6.69 10.993-6.93 10.754-11.7 2.63-11.7 2.63l-.717-2.15-7.647-4.54 5.974-8.603c0-.24-2.868-1.195-2.868-1.195l-4.3 3.584-8.842 5.735-8.842-4.062 3.824-7.17.478-5.257 6.93-10.515 84.835-82.445 41.82 77.188-6.213 23.18z" fill="#6a4c2d"/><path d="M207.24 398.04l22.083-.793-9.4-4.643 84.14-3.17-11.89-4.53-10.532-14.27-43.6-3.284s-3.284-2.49-8.607-1.246c-.226-3.397-4.303-7.814-4.303-7.814l-26.84-2.038-16.76 11.438 11.324 29 14.382 1.36z" class="N"/><path d="M121.32 150.76l2.224-7.56s3.892-6.56 3.892-9.452 2.89-6.338 2.89-6.338 8.896-2.558 10.786 2.89c9.563-14.456 20.794-.667 20.794-.667l3.114-3.67 6.338-7.784s9.007 8.45 9.118 9.897 1.557.445 1.557.445l9.786-.778s4.644 3.636 3.67 10.564c3.45 2.034 6.56 14.01 6.56 14.01l-80.73-1.557z" fill="url(#C)"/><path d="M207.25 240.72c1.686-1.037 7.004-2.724 6.355-10.505s-7.393-8.7-11.154-8.43-7.133 3.502-7.133 3.502l-12.45-7.91s6.225-39.298 12.84-41.762c6.282-4.527 7.393-6.485 7.393-7.522s-2.334-3.63-2.334-3.63l-40.595-4.8-38.4 4.54s-2.983 4.54-2.594 6.355.52 3.76 7.393 9.08c7.606 5.85 12.84 39.428 12.84 39.428s-10.765 5.318-11.413 4.67-3.89-1.297-5.577-1.038-7.263 3.113-7.263 10.505 5.577 11.673 5.577 11.673 36.704-4.28 42.15 5.836c5.317-12.19 40.206-7.91 44.356-9.987z" fill="#656263"/></g><path d="M246.8 199.87s.407-4.266 3.453-6.297 23.36-3.047 28.234 0 6.703 18.078 6.703 18.078 3.047 5.28 3.25 9.14.61 6.5.61 6.5 16.25 21.125 16.453 40.218c1.83 13 1.422 47.733-3.656 60.936-.203 16.452-7.11 27.218-7.11 27.218s1.625 2.843 1.422 5.9-1.83 5.89-1.83 5.89l23.765 11.78-8.734-3.25 8.734 7.312c-.203-.203-9.952-4.672-9.952-4.672l5.9 5.89c-.203-.204-14.42-6.5-14.42-6.5s6.702 6.297 6.296 6.093-10.765-5.078-10.765-5.078l6.297 6.5c-.203-.406-9.344-4.062-9.344-4.062l.406 3.453s-7.312-.406-7.312-5.89c-3.656-2.03-6.094-4.875-6.094-4.875l-16.858-2.843-19.094-57.077 4.47-96.482 1.22-4.875-2.032-13z" stroke-opacity=".98" class="K L"/><g fill="#fb0"><path d="M234.03 508.2s-9.78-20.58-14.656-20.867c-4.4-8.387 15.29-76.962 53.38-80.87 20.94 1.725 1.722 24.14-12.047 17.243 1.72 6.035 8.605 14.657 8.605 14.657S242.06 450.145 234.03 508.2z" class="U"/><path d="M102.9 511.2s8.094-23.416 13.01-23.705-13.01-78.053-52.035-78.63C42.78 410.6 62.15 433.147 76.026 426.21c-1.734 6.07-8.672 14.743-8.672 14.743s27.463 11.853 35.557 70.248z" class="B"/></g><path d="M138.7 364.93c-.094-.188-9.686 3.01-3.48 13.448.47-4.044 4.796-6.49 4.796-6.49s-6.583 7.805.376 14.388c.846-6.206 4.796-8.18 4.796-8.18s-4.9 14.388.094 17.303c.564-5.737 4.232-8.276 4.232-8.276s-4.42 12.884-.47 15.8c.47-4.9 3.76-7.053 3.76-7.053s-1.975 13.354 3.198 14.294c.094-4.7 3.855-9.3 3.855-9.3s-1.693 10.91 6.395 11.38c.094-4.138 1.6-8.84 1.6-8.84s3.667 11.567 9.027 9.686c-.093-3.385.094-9.78 0-9.78s3.386 11.003 9.78 8.934c-.94-3.103.377-6.77.377-6.77s3.385 6.865 9.498 4.608c1.034-2.07-.283-6.112-.283-6.112s8.934 9.216 11.66 3.667-7.147-7.43-7.147-7.43h6.677s-2.163-5.642-11.19-6.865c3.104-1.4 6.3-.376 6.3-.376s-1.88-7.053-11.097-7.805c3.574-1.223 7.524-.377 7.524-.377s-1.223-6.676-11.38-8.557c1.6-1.787 5.924-1.223 5.924-1.223s-4.043-6.3-8.65-5.924-46.268-4.232-46.174-4.138z" fill="#00713d" class="B"/></g><path d="M179.8 398.88s3.667 1.787 3.573 3.386m-1.403-6.296s4.702 3.3 4.608 5.736m-.478-7.436s3.762 2.35 3.95 6.02m2.35-4.5s1.88 4.044 1.222 4.796m2.548-2.636c.282 3.197-.283 3.48-.283 3.48m-46.087-23.7s4.42 2.82 4.044 6.77m-4.324-3.4s2.07 1.974 1.6 3.3m3.86-6.57s2.915 4.044 1.975 6.865m3.005-4.235s1.317 2.54.094 3.95m2.246-2.73s1.6 2.54.188 3.385m-1.958 4.985s4.137.94 4.702 4.044m-2.262-6.864s4.325.282 4.796 4.9m.934-6.5c.094 0 2.915 4.984 2.445 6.582m3.115-6.102s1.13 4.796.282 6.3m3.288-4.43l.094 5.548m-5.544-13.068s2.727 1.035 2.54 3.668M174.9 378s3.48 1.975 3.103 5.737m.957-7.337s3 3.573 1.88 7.523m3.38-6.673s-1.13 4.42-.66 6.207m3.86-3.197s-1.975 1.505-.94 3.386M170.3 397.47s.658 3.385 0 3.95m-4.32-5.92s2.163 3.76 1.4 5.642m-6-5.842s2.445 2.82 2.35 5.078m-6.12-4.508s2.257 2.163 2.07 3.385m-4.03-.095s2.163 2.257 2.07 2.727" stroke="#3ec26d" class="I K O"/><g class="G"><g class="B H"><path d="M108.86 244.78l31.103-.555s20.55 0 22.773 6.665c3.887-8.887 21.66-8.33 21.66-8.33l32.214-1.11.556 77.76c-6.295 30.178-28.142 51.47-52.2 60.54-28.696-9.258-46.84-33.51-52.765-61.097l-3.332-73.87z" class="N"/><path d="M119.94 244.5l45.307 120.74 40.93-123.37c-12.696.82-39.94-1.998-43.323 9.587-5.236-10.37-33.895-6.19-42.914-6.956z" fill="#006b00"/></g><path d="M150.78 309.86c1.742.912 1.695-32.768 3.983-33.813.654-2.79.982-4 1.8-6.972-1.962-3.487-10.8-3.312-14.06-.35 1.47 4.706 2.125 6.275 2.125 6.275 4.415 7.146 3.538 35.62 6.153 34.86z" class="M Q V"/><g fill="#cdad56" class="H L"><path d="M138.64 49.548s3.2-3.637 3.346-4.5 14.55-1.455 23.132-17.458c4.8-8.438 0-3.49 0-3.49l-.29-4.073s5.965-5.674 3.783-8.73-1.455 3.928-4.947 3.783-1.6-7.565-1.6-7.565-.3-.873-1.31-1.31c-1.455.145-1.02 2.764-2.328 3.055s-2.473-6.1-2.473-6.1-2.182-2.9-4.074 6.256c1.02 9.747 7.274 7.856 7.274 14.257S153.625 35 152.025 35.145s-1.02-5.383-1.02-5.383-.872-2.62-1.454-2.62 3.2-.582 2.62-7.856c-1.3-8.73-2.328 2.037-4.656 1.6s-.582-8 .29-8.874-1.02-4.5-6.11 4.8c-.436 4.5-1.018-1.164-2.036-.873-1.746 3.637-1.455 6.256 1.018 9.602 3.637 3.346 5.965 6.692 5.82 8.438s-2.036 5.674-4.655 5.674.145-4.8 0-6.4-4.5-7.42-4.5-7.42-3.055-4.947-2.764-5.092-.29-.873-1.746 4.22-3.2-3.346-3.2-3.346-2.036 6.256 2.328 10.038c-3.346-.436-3.637.873-3.637.873 0 1.746 4.5 2.473 5.092 5.528s-4.655 4.8-4.655 4.8 2.182 3.055 8.292-2.9c.146 3.782-2.328 6.4-2.328 6.4 2.037.92 3.637.824 3.928 3.2z" class="K"/><path d="M118.68 49.548s-2.718-4.037-2.842-4.83-13.375 1.004-19.646-15.158c-4.077-7.678 0-3.177 0-3.177l.247-3.707s-4.34-5.308-2.485-8.088 1.1 3.574 3.474 3.587c2.965-.132 1.36-6.884 1.36-6.884s.246-.794 1.112-1.19c1.235.132 1.738 4.115 2.85 4.38s3.408-4.687 4.136-5.706c1.018-.146.98-4.102 2.587 4.238-.865 8.87-8.214 7.15-8.214 12.973s4.695 10.326 6.053 10.458.865-4.898.865-4.898.74-2.383 1.235-2.383-4.317.925-3.824-5.694c1.113-6.197 3.578.398 5.554.001s-.23-6.554.335-7.493c.132-.94 3.047-4.977 4.172 3.932.37 4.104 2.6-3.532 3.475-3.268 1.483 3.3-.656 7.73-2.756 10.774-3.088 3.045-4.484 6.38-4.36 7.97s.856 3.563 3.08 3.563.75-2.768.873-4.224 3.83-6.17 3.83-6.17c.727-1.164.122-3.337.893-4.342 1.207.013 1.702-1.667 2.938 2.966s2.717-3.045 2.717-3.045 1.73 5.692-1.976 9.134c2.842-.397 3.088.794 3.088.794 0 1.59-1.356 2.25-1.85 5.03a4.72 4.72 0 0 0 1.48 4.369s-1.853 2.78-7.042-2.648c-.124 3.442 1.977 5.825 1.977 5.825-1.73.84-3.088.75-3.336 2.912z" stroke-width="1.099"/></g><g class="Q"><path d="M198.62 262.5c-2.7-2.46-3.032-.3-4.365-.86-.653-.274-1.165-.886-1.733-1.442-.494-.507-1.08-.717-1.734-.992l-.74 2.185c-.247.728.686 1.934.665 3.027-.185 1.625-.847 2.97-2.885 3.526.58-1.152.9-1.208.734-2.613-.088-.702-2.053-1.948-1.8-2.613.36-1.068.975-2.304.52-3.37-.838.57-1.93.272-2.767.62-.702.314-.75 1.62-1.728 2.165-1.002.47-3.213.237-5.058-.8 1.128-.855 2.06-.278 3.188-1.134.564-.428.538-2.26 1.102-2.688s1.915-.884 2.48-1.312c-.507-.578-.48-1.493-.987-2.07s-2.757-.453-3.265-1.03c-1.014-1.155-.82-2.676-1.836-3.83 2.626.942 2.245 2.222 2.904 2.125 1.244-.596 2.486-.715 3.138-.44s1.895 1.898 2.548 2.173l.852-2.38c.247-.73-1.108-2-.86-2.72.493-1.456 1.717-2.744 2.2-4.2l.587 4c.088.702 1.47 1.067 1.558 1.77s-.722 2.332-.633 3.034c.754-.15 1.845-.048 2.598-.2s1.255-1.902 2-2.052c1.508-.3 2.594-.2 4.13.08-1.128 1.052-2.003.98-2.7 1.95-.564.428.22 1.84-1.4 2.83-.613.355-2.224-.072-2.788.356l1.522 1.733c.507.578 2.785.846 3.292 1.424 1.014 1.156 1.552 2.536 1.274 3.775zm-69.67 1.2c2.7-2.46 3.032-.312 4.365-.86.652-.275 1.165-.887 1.733-1.442.494-.508 1.08-.718 1.733-.993l.74 2.185c.247.728-.687 1.934-.665 3.027.184 1.625.846 2.97 2.884 3.527-.58-1.152-.9-1.2-.733-2.613.088-.703 2.052-1.948 1.8-2.614-.36-1.067-.974-2.303-.52-3.37.838.572 1.93.273 2.767.62.702.314.75 1.62 1.728 2.165 1.002.47 3.213.237 5.058-.8-1.13-.856-2.06-.28-3.188-1.135-.564-.428-.538-2.26-1.102-2.688s-1.916-.884-2.48-1.312c.508-.577.48-1.492.988-2.07s2.757-.453 3.264-1.03c1.015-1.155.822-2.676 1.836-3.83-2.625.943-2.244 2.222-2.904 2.125-1.243-.596-2.485-.715-3.138-.44s-1.894 1.898-2.547 2.172l-.852-2.38c-.247-.728 1.108-2 .86-2.718-.493-1.457-1.717-2.745-2.2-4.2l-.587 4c-.1.702-1.47 1.068-1.56 1.77s.722 2.332.634 3.035c-.754-.15-1.845-.05-2.6-.2s-1.254-1.902-2-2.053c-1.508-.3-2.593-.2-4.13.08 1.128 1.053 2.004.98 2.7 1.95.564.428-.22 1.84 1.4 2.83.612.355 2.224-.07 2.788.357l-1.522 1.733c-.507.577-2.785.846-3.292 1.424-1.015 1.155-1.552 2.535-1.274 3.775z"/><path d="M196.2 270.28c-2.453 1.917-18.31 5.925-18.474 19.695s2.78 16.907-.163 17.256c-5.723 0-6.54-15.338-6.376-22.136s.326-5.752.326-5.752 3.923 1.045 3.597 4.358 3.923-8.192 2.453-11.33c2.615 2.615 6.048 1.57 6.048 1.394s-1.96-2.265-2.78-3.834 2.943.87 2.943.87.163-2.614-3.107-2.44c-4.25 0 .655-1.394.655-1.394s2.452 2.265 4.087-.175c-1.8-1.916-4.414-2.963-4.414-2.963s-2.29-4.357-5.395-5.228c-3.597-.872-3.107 1.568-7.194 1.22-.817 1.568-.817 1.743.818 2.265-2.78 1.918-1.308 5.752-1.308 5.752s4.414-1.917 4.25 1.22-2.616 2.615-4.25.698c-1.47-.872-1.962.87-1.962.87l2.29 2.44s-4.415-.174-5.56 2.79c2.453-.174 3.76.523 3.76.523s-5.07 2.266-5.56 3.486-.653-1.395-.817-1.395-4.904-1.742-4.904-1.742l-1.637 7.537s3.272 3.27 5.07 2.223 5.068-4.183 7.03-3.312c-5.722 4.358-11.444 10.632-14.55 11.504-.818-.697-3.597-3.486-4.74-2.092s-.328 3.138 1.144 2.963-4.74 1.395-3.433 4.01 1.144 2.44 2.29 1.744-.98-.872 3.27-2.092 4.087-2.44 4.087-2.44-.817 1.918-3.105 2.44-4.088.523-3.597 1.22 1.47 1.917 1.144 2.615 4.74-3.66 6.05-.175c3.434-.174 5.722-4.357 4.087-6.797.164 2.614 1.798 3.485.817 4.705s7.684-4.01 3.433-7.146c1.146 2.615 1.308 4.706 1.308 4.706s1.962-.174 2.453-.87-.98 1.917-.327 2.44 3.76 3.486 2.452 5.578c-.817-1.22-.98-3.138-1.96-2.964s-5.07 3.138-7.52 3.312 2.943 9.064 2.943 9.064-3.76-.523-4.25-.175-2.943-3.137-3.434-1.045c-.818 2.614.817 1.568.817 1.568s-2.125-1.046-3.27.175-2.29 2.44-1.472 2.962 4.415.523 4.905.35-4.087.35-4.414.872-.98 2.44 0 3.137 3.433-.35 3.596-.87.328 1.917.328 1.917 4.25.348 4.25-4.01.328 3.137.328 3.137 4.25.697 4.413-3.66.5 2.963.5 2.963 2.78-.872 2.78-1.568-.164 8.714-2.125 11.33c-3.107-2.092-5.07 1.394-5.07 1.394s.164 5.055-.163 6.275 2.125-.698 2.29-1.22 3.106-1.918 3.27-2.266l.98-2.092s-.654 2.44-1.798 2.79-2.29 1.57-1.8 2.615 2.3 1.743 2.943 2.788 2.943-6.1 2.943-6.1l.163 1.568s2.943-.696 3.27-2.09-3.106-2.614-.327-4.88 0 2.092 0 2.092.98 3.312 1.635 3.312 2.288-6.275.654-7.844 2.452 1.918 2.452 1.918 2.3-6.45-.163-7.32-3.597-1.22-3.597-1.22 1.308-1.743.654-1.917 3.433 3.835 4.087 2.79 1.635-4.184-3.105-5.926-.164-6.624-.164-6.624 2.943 3.486 5.068 1.568-.164-1.916-.164-1.916 6.05-3.834 6.212-5.752c-1.144-.175-3.106.174-3.106.174s3.434-2.265 2.617-5.926c-1.31 1.917-3.107 1.918-3.107 1.918s2.943-2.964 2.452-5.752c-1.798 1.394-1.635 2.44-2.78 2.09s-3.106-11.33 1.47-12.027 2.125 5.404 2.29 5.404 6.867-2.79 0-7.32c1.635-.523 5.068 2.615 5.068 2.615s-1.47-7.67-8.828-2.963c1.8-1.917 2.943-3.138 4.414-2.79s6.704-.174 6.704-1.743c-1.308-1.046-4.088.523-5.56 0s10.463-1.395 9.483-7.32z" class="L M V"/></g></g><path d="M144.36 274.802s6.54-3.66 9.8.872m2.615 6.973c-.163 0-2.3 2.266-2.78 2.266m7.195 5.055s6.05.523 9.972-5.926m-3.435 4.008s.5 3.486 1.472 3.486-1.635.872-2.616.174c1.144 1.57 1.798 4.358 0 5.404" class="I O R M"/><path d="M164.63 331.975s-2.125 2.44-4.74 2.614" class="G M O R S"/><g class="I M O R"><path d="M167.086 320.817s-1.308-6.972-.49-8.715c.49-2.265 2.616-3.137 4.25-6.1"/><path d="M166.43 315.762s-1.635 4.183-8.828 2.8m10.792-13.248s.5 5.577-6.05 3.486m-1.964-28.58s-2.616 2.44-1.635 5.752"/></g><g class="G"><path d="M170.188 274.108s3.433-1.394 4.087-2.092 1.798-2.092 2.125-3.137-2.288-2.615-.98-4.88c.818-1.046 1.962-1.22 3.924 0s-1.798-3.834-3.76-4.01-3.27 1.394-3.76 1.046.163 1.394-.654 1.394 1.635 1.394 1.472 2.266 2.615 3.835 2.452 4.532-4.087 4.706-4.905 4.88z" fill="#006b00"/><g class="L"><g class="R"><path d="M172.644 262.604c1.492-.362 1.732.04 1.47 1.394-.7-.376-.956-.693-1.47-1.394z" stroke="#ffc900" class="Q"/><path d="M162.2 340.258s-.552 3.65.795 3.954c-.066-1.412.287-2.377.618-2.754-.287-.142-1.347-1.177-1.413-1.2zm-3.033-4.49c-1.237-.188-3.327.906-2.726 2.226 1.004-.923 1.936.076 2.638-.865.216-.258.155-1.032.088-1.362zm-.01-2.607s-1.95-.33-2.22 1.1c1.346-.182 1.748-.336 2.194-.034.13-.308.004-1.003.026-1.075z" class="M S"/></g><g stroke-width=".736" class="M"><path d="M150.896 312.603s1.17.47 1.5 1.742c.927-.612 1.37-3.32-1.5-1.742zM148 315.705c.044-.023 2.45-1.577 2.694-.094-.508.54-.73.894-1.126 1.012-.3-.001-.928-1.012-1.568-.918zm-.24 5.038c.044-.024 1.545-1.436 2.12-.494s-.463.894-.463.894-.53-.26-1.656-.4zm-2.12-28.053c-.022 0-1.92-.776-2.715.635 1.26.165 1.7.636 2.274 1.107-.154-.6-.42-1.483.442-1.742zm-3.683 10.565s.088-2.377 1.148-3.342c.596.353.772.918 1.17 1.624-.795.188-1.854.235-2.318 1.718zm5.073-1.695s-2.097 1.036-1.413 2.166c.685-.776 1.435-.54 1.435-.565l-.022-1.6z" class="S"/><path d="M144.007 278.822c-.75.894.927 2.848 2.693 2.566.442-2.118-2.252-3.224-2.693-2.566z" class="Q"/><path d="M145.95 277.2s.33 1.67 1.854 1.224c-.243-1.295-1.302-2.26-1.302-2.26-.066.377.22.965-.552 1.036zm1.016 4.85s.84.965 2.495-1.012c-.75.235-2.075-.47-2.075-.47s0 1.365-.42 1.483z" class="S"/><path d="M143.91 274.985c-.75.894.31 2.142 2.078 1.86.442-2.118-1.636-2.518-2.078-1.86z" class="Q"/></g></g><path d="M144.62 266.62s7.037-2.01 10.77 1.005 3.734.287 3.734.287 5.457 2.01 7.037 1.58-1.148.144 1.006-1.15-4.31.288-4.883-2.44c-1.006-1.724.143-3.878-2.154-3.16-1.58-2.01 1.005-3.446.43-5.6-1.58 1.15-2.44-.43-3.734 2.442-3.015-.575-.43-4.74-3.734-5.17 0 3.016-2.442 3.16-2.585 4.883-1.436 1.006-7.755 4.74-5.888 7.325z" fill="url(#D)"/><g class="H"><path d="M63.624 495.58c4.566-1.102 29.306 5.462 38.844 15.7-2.024-18.213-7.07-32.166-7.07-32.166s-14.743-4.205-16.767-2.18c-2.968 3.126-11.884 12.492-15.007 18.658zm-7.542-84.12c-1.734.3-3.47 1.446-5.203 4.336-2.024 4.914-3.47 17.345-6.36 20.236s-5.493 3.18-5.493 5.782.3 8.672 8.094 10.985c7.805.3 20.236-12.43 20.236-12.43s6.36-6.938 8.962-14.454c-15.032 5.204-25.728-8.673-20.236-14.454z" fill="#c01500" class="B"/><path d="M273.5 492.68c-4.53-1.096-29.556 5.43-39.02 15.597 2-18.106 7.016-31.978 7.016-31.978 1.747-.476 14.47-4.18 16.48-2.168 2.945 3.108 12.426 12.42 15.525 18.55zm7-83.63c1.722.287 2.33 2.55 3.735 5.422 2.007 4.885 4.077 12.003 6.946 14.876s5.45 7.132 5.45 9.72-.605 6.08-8.35 8.38c-7.745.288-18.968-9.657-18.968-9.657s-6.3-6.898-8.893-14.37c14.917 5.174 24.578-8.146 20.08-14.37z" fill="#c01500" class="U"/><path d="M47.4 479.7s15.6 10.696 15.9 15.6c41.918-62.153 148.88-81.522 209.88-4.336 8.094-10.696 16.478-14.165 16.478-14.165-64.18-83.84-191.96-73.43-242.26 2.9z" fill="#fb0" class="B"/><g fill="#1e5aa6"><g class="B"><path d="M206.44 241.88l6.1-.145-10.9 13.82 13.094 15.276-25.75 32.443 24.296 29.242c-2.667 6.547-5.77 12.512-9.893 17.894L189.41 335l25.314-31.57-20.804-23.568 12.5-37.97zm-87.3 2.76l-6.546.146 12.22 13.238-12.95 16.15 26.915 29.242-22.26 29.824c2.667 6.547 6.498 13.82 10.62 19.203l13.24-16.73-27.205-30.26 19.93-25.313-13.966-35.498z"/><path d="M149.4 323.2l-9.602 12.803 34.334 39.716c6.062-3.055 10.815-6.546 16.003-10.765l-17.894-20.66 7.274-21.386L190 334.984l-32.733 41.754c-5.48-2.328-11.542-5.965-17.022-10.475l17.312-21.968L149.4 323.2zm-10.6-19.93l6.256 7.856-4.073-10.62-2.183 2.764z"/></g><path d="M183.6 310.22c.137-.146 5.05-6.693 5.05-6.693l-1.91-2.618-3.138 9.31z" stroke-width=".968pt"/></g></g></g><text transform="rotate(310.443)" y="362.397" x="-328.344" class="C D E F"><tspan y="362.397" x="-328.344">L</tspan></text><text transform="rotate(314.608)" y="384.266" x="-292.335" class="C D E F"><tspan y="384.266" x="-292.335">E</tspan></text><text transform="matrix(.7628 -.54464 .56769 .75422 0 0)" y="451.681" x="-239.78" class="C D E F"><tspan y="451.681" x="-239.78">O</tspan></text><text transform="matrix(.82844 -.56007 .56007 .82844 0 0)" y="429.958" x="-188.526" class="C D E F"><tspan y="429.958" x="-188.526">T</tspan></text><text transform="rotate(334.451)" y="451.479" x="-115.426" class="C D E F"><tspan y="451.479" x="-115.426">E</tspan></text><text transform="rotate(336.012)" y="453.046" x="-94.111" class="C D E F"><tspan y="453.046" x="-94.111">R</tspan></text><text transform="rotate(338.089)" y="454.982" x="-68.371" class="C D E F"><tspan y="454.982" x="-68.371">R</tspan></text><text transform="rotate(355.237)" y="445.666" x="112.016" class="C D E F"><tspan y="445.666" x="112.016">R</tspan></text><text transform="rotate(0.856)" y="430.793" x="180.225" class="C D E F"><tspan y="430.793" x="180.225">R</tspan></text><text transform="rotate(29.645)" y="275.217" x="414.759" class="C D E F"><tspan y="275.217" x="414.759">R</tspan></text><text transform="rotate(39.802)" y="193.05" x="483.878" class="C D E F"><tspan y="193.05" x="483.878">E</tspan></text><text transform="matrix(.96356 .18112 -.15531 .95184 0 0)" y="414.028" x="309.116" class="C D E F"><tspan y="414.028" x="309.116">O</tspan></text><text transform="matrix(.90188 -.1316 .13648 .975 0 0)" y="459.272" x="105.058" class="C D E F"><tspan y="459.272" x="105.058">O</tspan></text><text transform="rotate(339.708)" y="455.835" x="-45.708" class="C D E F"><tspan y="455.835" x="-45.708">A</tspan></text><text transform="matrix(.70468 .70952 -.70952 .70468 0 0)" y="144.724" x="518.35" class="C D E F"><tspan y="144.724" x="518.35">A</tspan></text><text transform="matrix(.98042 .19691 -.19691 .98042 0 0)" y="388.298" x="271.188" class="C D E F"><tspan y="388.298" x="271.188">A</tspan></text><text transform="rotate(349.355)" y="455.168" x="40.322" class="C D E F"><tspan y="455.168" x="40.322">M</tspan></text><text transform="rotate(354.06)" y="448.079" x="94.429" class="C D E F"><tspan y="448.079" x="94.429">P</tspan></text><text transform="rotate(358.537)" y="437.607" x="155.088" class="C D E F"><tspan y="437.607" x="155.088">P</tspan></text><text transform="rotate(29.499)" y="276.665" x="405.134" class="C D E F"><tspan y="276.665" x="405.134">P</tspan></text><text transform="matrix(.9934 .11468 -.11468 .9934 0 0)" y="409.793" x="232.095" class="C D E F"><tspan y="409.793" x="232.095">I</tspan></text><text transform="rotate(46.586)" y="132.089" x="530.392" class="C D E F"><tspan y="132.089" x="530.392">T</tspan></text><text transform="rotate(36.816)" y="218.519" x="464.158" class="C D E F"><tspan y="218.519" x="464.158">T</tspan></text><text transform="rotate(16.412)" y="361.961" x="313.725" class="C D E F"><tspan y="361.961" x="313.725">M</tspan></text><text transform="rotate(47.66)" y="123.248" x="513.704" class="C D E F"><tspan y="123.248" x="513.704">G</tspan></text><g stroke="#fff700" class="B I O"><path d="M255.94 200.94s6.032-5.17 10.34-5.315"/><path d="M256.8 200.22c.143-.143 36.05-5.17 37.2-6.32m-37.05 6.6c.144-.144 40.216-3.447 40.216-3.447M256.8 200.65s42.657-2 45.242.144"/><path d="M256.66 200.5s41.796.287 42.514 1.292"/><path d="M256.8 200.5l40.215 3.303M256.38 200.8c.143 0 40.934 3.6 44.955 8.76"/><path d="M303.48 216.88c-.143-.143-13.93-16.517-47.253-16.23m.153.3s23.124 1.58 30.45 9.623"/><path d="M256.8 200.65s14.937-2.872 30.592 15.943"/></g><g class="B G H"><path d="M247.4 217.74s20.718.813 20.718 2.844-15.437 5.9-15.64 14.422 11.78 9.14 12.593 19.905-9.343 12.4-11.375 15.234c-2.03 1.422-6.906 16.656-6.296 25.593s3.25 39.203 7.92 45.296c3.657 2.844 9.14 11.984 15.03 9.14s1.828-13.202 1.22-16.046 2.437-7.516 2.437-11.78-2.234-7.72-2.03-8.734 16.453 3.86 15.437 19.906-7.515 11.17-7.515 11.17 2.03 19.703-3.047 22.343c-9.14 4.875-15.843-1.015-15.843-1.015l.86 4.007-6.953-3.6s-8.937-12.797-10.968-18.484-4.47-31.077-3.656-36.56 1.42-37.578 1.015-39.203-2.03-28.436-1.015-32.5 7.312-21.937 7.11-21.937z" fill="url(#E)"/><path d="M225.06 212.46s14.42-14.015 22.75-12.4c4.266 0 .203 3.047.203 3.047s7.312.61 8.328 3.86c.203 1.422-3.453 1.828-3.453 1.828s3.047.61 3.25 3.25-30.874.61-31.077.406z" fill="#ff7000"/></g><path d="M225.87 211.85s15.437-2.03 21.937-8.53m-6.307 4.28s11.375-.406 11.375 1.22" class="I B H"/><g class="K"><path d="M281.93 373.74s9.75-2.234 12.4-5.687c1.626-1.22 10.157 12.796-12.4 5.687z" class="G H L N"/><path d="M279.3 293.1s1.22 7.515-2.235 12.593c-1.828 2.03-7.312 5.484-7.312 7.922s2.03 5.687 1.625 8.53-3.453 5.688-3.25 8.125c0 2.437 3.453 15.437 3.047 15.64m-9.755-77.18s-7.718 2.64-9.343 10.36" stroke="#fff" class="I O"/></g><g class="G"><path d="M258.16 207.6s2.64 7.313 11.172.407c-5.484-7.515-11.172-.204-11.172-.407z" fill="#c75b00" class="B H"/><path d="M264.464 207.283c0 .393-.41.71-.914.71s-.914-.318-.914-.71.41-.71.914-.71.914.318.914.71z"/><path d="M188.4 190.62s16.177 17.5 26.644 17.32c1.903 5.138-4.752 9.92-7.416 12.202-5.33-1.713-10.145.312-22.515-14.913.76-9.706 3.478-14.227 3.287-14.608zm21.9-40.72c2.094-6.47 6.28-11.6 9.896-12.18-.952-4.948 7.613-26.834 32.544-35.208 1.523 11.228-10.658 22.267-10.658 22.267s36.73-6.28 44.153-15.606c-.76 4.187-8.183 30.26-47.388 30.07 14.845 14.083-4.758 25.312-13.132 21.886 15.416-11.8-4.377-18.84-15.416-11.23z" class="B H N"/><path d="M222.86 140.76c7.422-4.758 10.087-4.758 16.177-3.806-4.377.57-4.377.76-4.377.76s-.38.57 2.284 3.045c-3.045-.76-5.71-2.474-14.083 0z" stroke="#ccc" fill="#cccccd" class="B"/></g><g class="H B"><path d="M220 137.7s14.654-7.803 22.838-13.132" class="I"/><g class="G"><path d="M207.44 220.12s20.173 5.52 22.457-23.4c-4.377-12.56-10.467-39.585-1.142-47.388-8.564-5.9-17.9.2-17.9.2-.57 1.332-8.184 12.18 2.093 31.212-24.36-6.47-14.464 16.557-14.464 16.557.952-3.616 13.893-7.042 17.128 11.42 1.332 4.568-8.754 11.6-8.184 11.42zm22.66-23.22s21.315-11.42 20.744-38.253c-18.08.38-24.55 23.8-24.55 23.8L230.1 196.9z" fill="#00f"/><path d="M134.55 195.57s-15.796 13.703-24.74 9.325c-6.66 3.997-14.464-3.045-14.464-3.045s9.135 33.686 41.87 9.325c-.57-7.422-2.284-15.035-2.664-15.606z" class="N"/><path d="M109.62 204.32c1.332-7.042 6.85-10.467 11.23-3.806 5.9 1.142 11.8-23.028-9.135-19.03 5.9-31.592-11.8-43.392-11.8-43.392s-6.28 35.018-3.426 41.49-4.187-12-26.834-17.128c-.38 26.454 25.312 38.824 25.312 38.824s7.232 6.66 14.654 3.045z" fill="#00f"/></g><g class="I"><path d="M111.7 181.3s-9.896 8.374-7.613 19.793M96.68 180.15s-2.284 8.184 2.664 19.793"/><path d="M95.157 202.6s4.568-7.422 14.464 2.094"/></g><path d="M97.06 151.22c0-.2-15.035 0-6.1 15.225-6.66 2.094-21.506-7.613-11.23-20.554-33.686-.76-47.388-16.938-47.388-31.782 9.896 10.277 33.495 6.1 41.87 12.37-10.277-9.516-8.183-22.647-8.183-22.647s28.738 8.564 33.876 34.066c-1.713 4.948-2.474 13.703-2.855 13.322z" class="G N"/><path d="M73.942 125.82c5.546 5.643 19.796 7.328 27.028 13.61" class="I"/></g><g class="G"><path d="M80.503 142.47s11.797-1.523 15.216 2.664c-4.616 0-6.155-1.142-12.823 1.332 1.88-.952 1.368-2.664 2.394-2.664s-4.274-1.332-4.787-1.332z" stroke="#ccc" stroke-width=".948" fill="#cccccd"/><g class="B H"><path d="M139.3 50.166s6.47-5.71 13.512-.57c-3.18 9.507-14.654 5.9-14.654 5.9s.38 4.758-.76 7.042c2.297 1.726 4.187 7.422 4.187 7.422s11.8-2.855 14.274 2.284c4.52-.624 7.803 0 7.803 0s9.135-2.284 12.37-2.284 13.512 2.665 14.464 4.568 4.377 14.654 6.66 14.464-5.52 3.045-7.613-.2-1.523 4.187-1.523 4.187 6.47 6.85 7.232 8.374-3.997 13.893-.38 22.457c-3.168.293-3.426 3.616-3.426 3.616-.174 3.77-4.948 4.758-4.948 4.758l-1.142-5.138-3.235 1.903 1.332-3.997s4.377-10.658 4.758-14.083-3.997-9.516-7.422-9.516-5.9 10.848-5.9 10.848-1.713 8.183-1.142 8.945-2.284-2.664-2.284-2.664-1.523 4.948-2.664 6.47-3.616 2.094-3.616 2.094-1.713-4.948-1.142-6.85 9.325-9.326 8.564-14.654 0-3.997-.2-4.187-4.567-3.997-4.758-6.1-5.71 2.664-12.94 1.142c-2.213 3.868-2.474 13.512-2.474 13.512s-.76 11.61.76 12.94-3.806 4.187-3.806 4.187l-3.806 5.138s-1.332-3.235-1.332-3.045-2.664 1.903-2.664 1.903l1.523-3.806c-.093-2.88 3.7-10.75 3.7-17.412s.487-13.8.487-13.8-7.042-.38-6.85 6.85-1.713 7.613-1.332 9.706 2.284 7.993 1.713 9.706-2.855 2.284-2.855 2.284l-.57.952s-7.042 3.235-6.85 4.568-.2-3.806-.2-3.806l-.38-5.52s4.187-2.664 4.187-9.325-.965-7.608-.775-9.13 1.155-7.046.965-7.617-3.997 1.522-5.138 1.522 2.094-3.996 2.474-6.85-3.806 2.664-7.232-.57c1.593-3.514 3.997-4.567 4.377-7.232s-2.664 2.284-5.33.38c.217-2.554 2.855-4.758 2.855-4.758s-2.17-.266-3.045 0c-1.713-.57 1.903-3.235 2.093-7.042s-2.093-5.33-2.093-5.52-3.806-3.426-4.377-4.758-.57-2.855-.57-2.855-6.28 4.568-13.703-5.14c6.797-5.803 14.083-1.523 14.083-1.523s1.903-5.33 10.658-4.948 10.467 5.33 10.087 4.758z" fill="#923f00"/><path d="M187.2 148.6c.16 0 16.167.475 16.325 9.034s-4.913 6.34-5.072 6.34-11.73-1.427-11.73-1.427l.476-13.948z" fill="#00f"/><path d="M171.65 146.23s19.97-.16 18.86 8.56-6.18 6.974-6.18 6.974l-9.668-.792-3.012-14.74z" fill="#fffeff"/><path d="M160.4 145.28l11.57.95s6.974.95 6.657 7.608-7.132 6.815-7.132 6.815l-11.253-.634.16-14.74z" fill="#00f"/><path d="M133.3 148.6c-.16 0-16.167.475-16.325 9.034s4.913 6.34 5.072 6.34 11.73-1.427 11.73-1.427l-.48-13.95z" class="N"/><path d="M148.83 146.23s-19.97-.16-18.86 8.56 6.18 6.974 6.18 6.974l9.668-.792 3.012-14.74z" fill="#00f"/><path d="M160.1 145.28l-11.57.95s-6.974.95-6.657 7.608 7.132 6.815 7.132 6.815l11.253-.634-.16-14.74z" class="N"/><path d="M191.07 241.5s8.32-12.26 11.823-10.948c3.065 1.022.73 10.5-.73 11.386l-11.094-.438zm-57.03 2.2c-2.627-3.65-6.422-13.72-9.926-10.948-3.065 1.022-.73 10.5.73 11.386l9.196-.438z" fill="#5e0043"/></g></g><path d="M139.55 219.45s16.212 9.987 21.53 10.246 22.178-12.97 22.178-12.97" class="B H I"/><g class="G"><path d="M141.1 180.3l3.113-3.89 15.564 7.91 15.823-7.004 3.113 3.242-17.64 12.45-19.973-12.7z" fill="#5e0043" class="B H"/><path d="M128.75 180.08c1.264 1.597 11.323 13.828 13.14 23.944s-1.038-13.878-1.038-13.878 12.45 6.096 12.84 9.987 5.953-.263 6.22-.928l-36.048-23.414 4.888 4.3zm61.5-.7s-13.1 17.25-11.543 36.055c-2.702-9.004-.52-23.864-.52-23.864l-2.853 1.816s-2.983 12.7-6.744 14.656c-.634-1.514-.52-2.075-.52-2.075s-4.02 5.188-4.8 5.707.26 17.5.26 17.5 1.35 12.314 2.906 12.185c-1.77.868-3.944 2.215-3.944 2.215L160.9 210.7l3.7-3.695s4.928-5.966 5.317-11.802c-2.14 1.815-4.54 2.334-4.54 2.334s-.65 8.3-2.594 9.468-2 3.333-2 3.333L160.3 199.5l29.956-20.1z" stroke="#474747" fill="#474747" class="K L"/></g><g class="H"><g class="I"><path d="M160.3 199.35l2.53 51.872" class="K O"/><path d="M128.4 224.12s5.966 3.502 8.17 14.137c19.454-1.427 25.55 5.447 25.55 5.447s15.953-7.652 23.345-6.225c2.594-5.447 9.987-12.45 9.987-12.45" class="B"/></g><path d="M120.26 173.28l40.045 26.2 36.056-24.253s7.522-4.15 6.874-7.133-3.242-1.816-4.54-1.297-37.742 26.328-37.742 26.328l-38.78-24.512s-2.853-.908-3.372.908 1.068 2.853 1.457 3.76z" fill="#b4b6b9" class="B G"/></g><path d="M191.87 166.48s-10.246-4.35-10.246-.58.3 4.156 1.933 6.573-1.256 3.963-1.256 3.963l-.967-2.707c-.58-1.643-6.1-2.803-6.573-4.736s1.16-5.026-2.127-5.413-6.476 1.353-7.153 5.123-4.93 12.566-4.93 12.566l.58-20c7.217.516 20.62 2.094 30.93 3.286-3.093-.483 1.16.193 1.063 1.256-.3.87-1.353.967-1.257.677zm-36.25-5.03c-1.837 0-11.02 1.063-13.34 2.417s3.77 3.48 2.996 5.316-.87 5.5-3.77 4.736-12.662-5.606-12.952-7.25-2.32-1.74-2.32-1.74 28.03-3.77 29.385-3.48z" stroke="#474747" fill="#474747" class="K L G"/><g class="B H"><path d="M160.04 159.15l-.07 24.582M141.1 130.2l-11.454 18.793" class="I"/><path d="M161.8 129.74s4.893 6.672 4.337 8.562c2.002 1.557 4.226 7.784 4.226 7.784" fill="url(#F)" class="G"/><path d="M180.7 128.63s-10.564 14.9-10.23 16.013" class="I"/></g><g class="G"><path d="M126.6 57.78c-.24.833-1.585 1.156-3.007.72s-2.38-1.464-2.14-2.297 1.585-1.156 3.007-.72 2.38 1.464 2.14 2.297zm4.27-.294c.24.833 1.585 1.156 3.007.72s2.38-1.464 2.14-2.297-1.585-1.156-3.007-.72-2.38 1.464-2.14 2.297z"/><g class="H"><g fill="#ff7000" class="L"><path d="M254.5 366.13s-3.917.735-3.795 1.102-11.384.734-11.63.367-1.714 1.96-1.714 1.96l1.836-1.102s2.815 2.938 3.672 2.693-.367 1.102-.122 1.347 1.102-.5 1.102-.5l19.023-.318-8.373-5.558z" class="B"/><path d="M261.58 372.05l-15.537.45s-3.917 3.55-4.162 4.407 2.57 1.102 2.57 1.102l.857 2.938 1.958-.734s13.21 1.964 25.34-.735c6.12-2.142 7.192-4.713 2.907-6.274s-13.81-1.092-13.933-1.154z" class="K"/></g><g class="B"><path d="M208.37 403.93l27.97-1.246-5.21-4.416 75.647-3.058-2.605-6.002-84.707 3.397 10.192 4.756-22.875.68.68 2.378-6.002-.227s6.68 2.605 6.908 3.737z" fill="url(#G)"/><path d="M239.73 249.42c-2.222-1.11-11.998-2.444-22.884 4.666l.444 25.106s15.997-8.665 23.773-6.665c-.444-7.776-.444-17.774-1.333-23.106z" fill="url(#H)"/></g></g></g><path d="M85.074 325.65l-65.956 65.478m95.352-64.998l-53.532 70.5m51.142-88.9l-71.455 86.5m-2.15-1.2l6.93-8.125M125.7 351.22l-27.722 38.24m-1.195 5.02l.717 14.57m40.86-44.45l-29.393 36.802m24.133-2.862l11.95-19.596m-7.4-3.824l-14.338 16.25m10.038-31.54l-9.798 11.95m-2.872-29.4s-29.87 43.732-29.393 47.316m26.283-53.046c-.717.478-25.8 33.695-25.8 33.695m-1.43 10.505l-4.54 5.496m-5.735 8.374l-6.93 9.08" class="I B H"/><g class="G"><g class="J B"><path d="M81.81 225s-2.024 6.36 0 9.54 14.743 28.908 14.743 28.908 8.673-10.696 11.853-10.985 1.734 27.752 1.734 27.752-5.203 4.915-8.383 4.626 7.805 10.985 7.516 20.525-14.454 56.95-19.658 57.817 2.313-8.673 2.024-11.275-1.734-.867-2.89-3.758 1.734-7.227 1.156-10.118-3.18-2.312-3.47-4.336 1.734-2.602 1.445-4.914-3.47-1.735-3.18-3.76.578-1.156.29-4.914-.867 2.602-4.047 2.89-5.782 7.516-5.782 7.516-6.36 8.962-12.72 4.914c3.758 8.095.867 11.564-.578 11.853s1.156 6.36-2.313 6.65 2.602 13.587-1.445 14.743c4.336 2.024.867 4.626.867 4.626s-10.02.832-7.805 13.876c-29.487-10.4-43.94-28.3-43.652-46.52s6.07-34.7 20.236-40.76c4.047-15.033 10.985-31.22 10.985-31.22s-1.156-6.65-.29-10.986 4.914-8.672 4.914-8.672-.578-10.407-.29-15.6S45.385 225.9 45.675 223s-.867-17.635 2.024-20.236 8.383-2.313 11.274-4.048 6.65-4.914 10.407-4.625 6.938 2.89 6.938 2.89 14.165 0 15.032 5.493-2.89 7.516-2.89 7.516 2.024 7.805-6.65 15.032z" fill="#8a9396"/><path d="M69.234 204.97c.454.838-.58 2.276-2.308 3.212s-3.497 1.015-3.95.177.58-2.276 2.308-3.212 3.497-1.015 3.95-.177z" fill="#cecfcf"/></g><path d="M66.834 206.432c0 .53-.48.957-1.074.957s-1.074-.428-1.074-.957.48-.957 1.074-.957 1.074.428 1.074.957z"/></g><g class="I"><path d="M87.97 216s3.5 15.676-.688 26.504m1.768-33.364s6.85 9.06 5.966 20.33m-5.302-22.32c.22 0 5.745 4.862 5.524 8.176M91.04 205.16s3.757 2.652 4.64 5.303" class="J T"/><path d="M89.272 203.6s-13.48 21.876-11.71 35.576" class="B H"/><path d="M90.156 202.95s-17.9 10.607-21.213 45.3" class="J T"/><path d="M88.167 209.36l-7.07 5.303" class="B H"/><path d="M62.314 250.24s9.944-41.322 27.62-47.288" class="J T"/></g><g class="B J"><path d="M96.785 264.16s9.502-11.932 11.71-11.5 1.547 27.62 1.547 27.62-7.07 5.303-8.618 5.082 7.955 12.816 7.734 17.678-.442 4.86-.442 4.86 0-2.873-2.2-7.513-.884-9.944-15.247-21.655c-3.535-7.292 7.07 4.42 9.28 2.652s-3.978-17.015-3.757-17.236z" class="G P"/><path d="M79.893 196.96s-3.995 1.09-4.54 2.724-2.905 3.268-4.176 2.724-3.632-2.542-3.632-2.542" class="I"/></g><path d="M57.196 210.94s-5.992 5.992-3.087 6.718 5.992-4.72 5.992-4.72 0 9.26 2.542 7.808 9.987-6.718 9.987-6.718 2.542-.18 3.087 0 6.9 5.63 11.076 3.63c-2.36 6.174-5.084 6.9-5.084 6.9s-4.358 5.63-9.987 4.358-7.082-3.63-7.082-3.63-4.72.363-6.174-1.816-1.997-3.45-1.997-3.45-2.724 2.724-3.45 1.453 0-8.716 4.176-10.53z" class="G J K L P"/><path d="M91.15 202.6s-11.076-3.268-14.89 2.18-2.905 8.534-.908 9.08" class="B I J"/><g class="G"><path d="M92.86 202.28c0 1.306-.935 2.364-2.088 2.364s-2.088-1.06-2.088-2.364.935-2.364 2.088-2.364 2.088 1.06 2.088 2.364z"/><path d="M60.624 230.54s4.516 6.948 9.9 8.86-3.735 3.56-9.12-.087c-3.908-5.298-2.866-9.12-2.866-9.12s1.042-1.042 2.084.347zm38.65 41s-12.68-17.63-16.33-18.587 2.78-1.737 6.688 1.998-1.042-6.08-1.042-6.08l10.683 22.67z" class="B J P"/><path d="M59.41 373.42c4.864-1.303 26.056 12.16 30.833 15.547s14.765 1.216 14.765 1.216-4.603 2.78-7.47 3.474 8.512.695 8.512.695-27.1 7.47-54.632-7.035c-2.52-11.29 5.906-13.8 7.99-13.897z" class="J K L P"/><path d="M90.416 275.88s-3.56-.695-5.385-2.78-4.43-7.2-7.122-9.38-16.155-9.554-21.02-9.033-6.34-.52-6.948-1.13-2.606.26-2.258 2.78-3.735 8.077-2.258 10.683 8.425 13.202 9.815 13.55.52 6.167.52 6.167 6.167 6.253 7.73 6.6 3.127 1.477 2.953 2.953-6.775 9.554-6.775 9.554-7.122 3.735-7.2 5.82 1.737 6.427 7.383 7.817 20.845.26 21.627-1.042 1.998-9.12 1.477-9.9-4.256-3.127-6.167-2.78-3.648 1.9-3.474 2.258-2.692 1.824-2.692.434 5.646-7.643 6.167-7.122 8.512 1.303 9.988 5.298 1.477 6.86 5.645 6.427 9.988-4.256 10.5-12.246-4.7-13.376-5.993-14.157-5.646-3.387-5.993-4.603-1.216-5.2-.52-6.167zm-75.13 35.27s13.462-3.474 16.937-3.387 16.6 6.167 20.4 9.9 11.638 12.594 16.763 11.812 6.6-1.824 6.6-1.824L74 331.474s-4.17 1.13-6.254.608-6.167-1.824-10.25-5.82-16.676-14.765-27.36-13.984-16.85 11.3-16.85 11.3.087-5.125.52-6.253-2.258 2.432-2.258 2.432l3.735-8.6zm49.594 10.42c.087.087 3.387.955 8.946.955s8.512-2.432 8.512-2.432l-.347-2.17.87-3.04s4.256 4.343 4.17 5.2-1.737 1.216-1.737 1.216l-.608-2.084-1.477 1.824s-8.078 6.427-12.507 5.472-8.512-3.822-7.383-4.517 1.737-.434 1.563-.434zm-19.63 11.38s-4.864-.087-7.035.955-2.953 2.345-4.43 2.17-2.606-2.085-2.17-2.866c.608-1.216 3.474-2.78 8.946-2.345s4.7 2.084 4.7 2.084zm17.025 13.2c0-.26-.347-7.122-3.04-9.9s-5.993-2.78-7.47-2.432 5.472 3.387 6.167 5.385 2.953 7.556 2.345 8.946-1.737-3.9-5.993-5.385-10.162-.695-8.946 1.216 5.993.174 8.425 4.256a77.27 77.27 0 0 1 4.256 8.425l.782-2.953 2.17-.608.26-5.646 1.042-1.303z" class="B J P"/><g class="K L J"><path d="M58.8 368.38l-4.43-8.86s-1.4-5.646-5.124-7.21-8.685-1.303-8.772.608 7.99 4.343 8.512 5.385.26 2.78-.434 2.866-4.256-1.303-6.08-.87-2.866 2.78-5.56 2.084-4.95-9.293-3.91-10.162-1.998 1.563-2.606-.695.87-9.293-.174-10.162-6.08-3.908-6.167-4.516.26-34.568 28.662-6.427c-12.16-14.418-16.937-12.854-19.195-12.94-1.65 0-12.68.955-15.46 15.026s-6.08 5.298-6.08 5.298-.608 6.08 2.345 7.817-1.4 6.775-1.4 6.775-5.298-12.94-4.516-18.587c-1.042 4.517-.955 15.72 5.732 27.967 7.817 8.25 15.2 15.894 34.83 24.493 10.336-15.808 9.815-17.718 9.815-17.892z" class="P"/><path d="M40.214 368.47s5.732.695 7.296 3.648 2.258 7.47 2.258 7.47c.955-1.91 1.4-3.56 3.3-4.95s3.3-1.563 3.214-2.606-6.08-7.383-9.12-7.73-8.338 3.3-8.338 3.3-.955 1.4 1.4.868z" fill="#8a9396"/></g></g><g class="I"><g class="O K"><path d="M53.307 383.4s14.856 6.772 39.325 7.21" stroke="#8a9396"/><path d="M102.9 314.45s-1.278 12.464-10.866 37.07" class="J"/></g><path d="M101 322.12s-2.876 8.948-10.866 15.66" class="B J"/></g></g></svg>