<svg xmlns="http://www.w3.org/2000/svg" height="480" width="640" xmlns:v="https://vecta.io/nano"><g fill-rule="evenodd"><path fill="#06f" d="M0 0h640v479.987H0z"/><path fill="#fff" d="M213.336 0h213.336v479.997H213.336z"/></g><path d="M312.578 360.765c3.608-3.753 22.8-9.613 36.462-10.8 11.797-.93 19.405-8.687 26.395-9.453 20.203-20.313 46.615-28.075 63.886-67.62 3.284-11.868 5.62-26.32 5.97-40.143-6.518-46.18-10.737-44.934-20.467-75.466" stroke="#000" fill="none" stroke-width="1.025"/><g fill-rule="evenodd" fill="#0c5c1d"><path d="M348.737 354.446c.353 3.407 10.76 15.973 28.738 13.764-1.607-3.468-5.512-5.956-11.114-11.177-2.564-2.642-17.753-4.198-17.624-2.587zm21.4-3.572c-2.1.182-3.95 1.427-.377 4.565 6.026 5.065 27.644 9.724 30.9 3.294-9.568-1.3-15.947-3.318-16.93-3.282-4.444-1.455-10.173-4.9-13.592-4.577zm-10.782-1.547c4.36-3 7.738-2.75 10.56-3.343 7.223-.5 12.164.492 15.187 1.742 4.475 1.927 10.993 6.75 11.82 10.253-6.643-.125-11.046-5.14-19.6-7.04l-17.964-1.613zm-11.54-1.3c12.6-7.754 24.546-21.97 25.77-36.826-15.736 12.314-26.405 30.093-25.77 36.826z"/><path d="M354.927 347.872c10.655-4.622 25.1-14.975 26.842-36.507-14.62 9.2-19.295 22.807-26.842 36.507zm22.486-10.378c-.822-6.077 13.773-37.833 22.287-46.008.93 12.224-10.958 46.557-22.287 46.008zm-.45 1.22c2.216 9.418 26.305 11.864 34.082.822-9.683-1.615-21.654-2.556-34.082-.822zm10.6-6.466c9.853 6.207 33.87 1.86 47.867-9.237-20.907-6.3-46.8 5.713-47.867 9.237zm18.988-13.577c1.564-6.844 21.83-20.36 34.902-19.612-8.304 11.27-11.15 9.34-15.476 14.34-2.956 3.708-13.27 6.432-19.426 5.272zm6.67-15.55c-7.175-2.718-5.573-23.42-.775-31.865 4.858 11.4 6.157 29.168.775 31.865zm9.893-7.648c-9.548-5.3-6.106-31.283-1.02-38.565 4 7.756 6.082 34.792 1.02 38.565zm3.657-.232c5.528-8.704 24.783-9.08 33.235-5.715-9.188 9-23.334 9.442-33.235 5.715zm5.7-5.6c-7.955-12.438-3.015-19.03 1.84-34.43 2.35 13.077.455 26.876-1.84 34.43zm10.084-27.584c1.37-11.53 11.814-16.975 23.688-20.94-2.465 8.5-7.588 17.677-23.688 20.94z"/><path d="M439.696 268.356c-12.43-2.13-13-13.985-12.748-25.582 3.544 6.388 12.045 14.613 12.748 25.582zm-3.158-20.096c2.942-7.205-2.225-26.7-14.916-33.866.202 11.93 8.324 26.755 14.916 33.866zm7.042-4.2c1.82-4.297 2.997-6.482 5.743-11.955 4.762-9.998 1.686-6.65 8.12-18.748 3.476 13.505-3.48 29.622-13.863 30.702zm.842-36.167c-8.602 4.718-17.326 1.66-29.268-7.906 9.853-.9 18.694 3.846 29.268 7.906zm-2.372-4.8c5.145-17.086 8.17-19.996 12.394-38.542-10.56 8.548-16 27.07-12.394 38.542zm-1.937-1.136c-11.586-8.412-14.3-17.964-27.645-21.447.28 4.776 19.454 24.716 27.645 21.447zm-2.993-11.703c-7.397-9.205-11.48-16.72-22.437-23.372 1.753 11.23 14.02 27.547 22.437 23.372zm-14.026-20.532c2.35-12.846-13.558-21.37-19.075-27.955-.623 11.35 9.308 24.703 19.075 27.955zm-.098-14.783c3.7-11.574-6.68-19.415-11.843-25.318.826 11.292 2.535 22.944 11.843 25.318zm15.02 22.984c4.567-7.458 1.968-24.567-.986-31.774-3.688 3.95-5.452 30.425.986 31.774zm-7.07-15.168c5.176-9.146 2.273-18.916-.763-26.112-3.35 10.68-5.777 20.958.763 26.112zm10.55 72.456c7.677-.984 13.112-16.994 7.826-31.312-4.92 12.742-4.9 18.806-7.826 31.312z"/><path d="M439.532 206.864c9.554.5 15.575-7.77 20.638-22.206-7.866 5.052-11.738 18.4-20.638 22.206zm6.454 32.27c-8.737 2.092-18.6-20.794-11.827-33.7 7.416 14.782 9.1 20.98 11.827 33.7zM436.68 272.7c1.2-8.738 19.948-10.96 29.362-9.04-7.53 6.052-22.852 9.795-29.362 9.04z"/><path d="M432.237 286.56c5.324-4.65 13.747.366 27.255-25.982-18.172 10.366-25.154 22.437-27.255 25.982z"/></g><path d="M325.594 360.77c-2.894-4.1-18.176-8.543-31.827-9.72-11.797.496-22.613-2.27-32.454-7.313-20.205-20.313-42.693-33.78-59.965-73.324-3.284-11.868-5.264-22.756-5.614-36.58 6.518-46.18 7.172-50.636 25.102-81.168" stroke="#000" fill="none" stroke-width="1.025"/><g fill-rule="evenodd"><g fill="#0c5c1d"><path d="M282.22 354.724c-.353 3.407-12.274 13.956-28.738 13.764 1.607-3.468 17.798-7.182 22.205-13.446 1.304-1.886 6.662-1.93 6.533-.318zm-12.1-4.832c2.07-.348 3.194.67-.38 3.808-6.026 5.065-16.3 7.455-31.405 10.1 5.032-5.07 17.208-9.367 18.192-9.33 4.444-1.455 9.67-3.9 13.592-4.577zm8.77-.54c-1.587-3.503-3.2-5.272-6.02-5.864-7.223-.5-12.92.744-15.187 1.742-2.458 1.422-10.237 6.498-11.063 10 5.887-1.638 9.786-6.147 18.34-7.3 4.112-1.386 9.9-1.2 13.93 1.412zm16.086-3.83c-12.6-7.754-20.514-17.686-21.74-32.542 15.736 12.314 22.373 25.8 21.74 32.542z"/><path d="M287.12 347.652c-11.915-5.126-16.267-14.723-24.573-30.46 14.87 7.436 21.06 15.246 24.573 30.46zm-26.77-5.35c2.585-10.615-1.927-26.238-9.685-33.908-.678 11.972 1.632 31.936 9.685 33.908z"/><path d="M256.25 339.494c-2.216 9.418-26.8 9.595-34.082.822 7.414 1.662 23.67 1.982 34.082-.822zm-6.54-7.474c-7.584 5.702-38.154-3.687-38.54-8.985 4.018-.503 37.462 5.46 38.54 8.985zm-2.213-1.975c4.432-8.752-7.756-36.452-12.63-36.23 2.88 20.718 8.1 30.137 12.63 36.23zm-7.974-7.317c-2.825-6.592-24.1-17.84-34.902-19.612 8.808 9.252 14.476 7.953 17.493 13.835 2.2 3.96 11.758 4.667 17.4 5.776zm-3.997-4.98c2.216-8.3 1.107-11.634-4.323-17.617-.553 8.752.555 12.188 4.323 17.617zm-7.973-9.28c5.98-3.92 2.327-23.977-2.993-29.583-1.107 14.458-2.548 27.23 2.993 29.583zm-10.64-14.988c10.304-3.546 2.324-22.713-.998-30.245-4 7.754 2.993 11.853.998 30.245zm-1.884 1.272c-8.553-8.2-23.775-8.83-32.227-5.464 10.195 3.445 25.854 5.66 32.227 5.464zm-8.975-18.284c-2.237-8.532-21.116-8.496-30.233-5.464 8.2 5.107 23.86 7 30.233 5.464z"/><path d="M212.003 289.86c-5.324-4.65-13.747.366-27.255-25.982 18.172 10.366 25.154 22.437 27.255 25.982z"/><path d="M209.842 290.178c7.955-12.438 3.015-19.03-1.84-34.43-2.35 13.077-.455 26.876 1.84 34.43zM197.73 261.84c-2.378-11.278-13.074-16.975-23.94-18.42 2.97 5.716 11.117 7.846 23.94 18.42z"/><path d="M199.6 267.575c12.558-1.142 14.072-12.915 14.726-24.497-4.037 6.088-13.16 13.618-14.726 24.497zm-.117-14.815c7.326.736 16.47-15.2 13.205-28-5.976 14.18-6.508 19.157-13.205 28zm-3.117-13.542c7.726-.464 14.23-16.07 9.92-30.713-3.573 13.54-1.943 19.477-9.92 30.713zM195 246.2c-1.86-4.517-5.396-5.967-7.05-11.863-3-10.546-8.707-12.2-7.834-20.45C193.392 229.35 196.898 238.6 195 246.2zm.662-11.566c-3.332-29.88 2.588-17.166-10.355-45.336 19.28 17.268 13.952 44.17 10.355 45.336z"/><path d="M196.546 222.004c-.643-9.545 7.516-15.698 21.87-20.994-4.924 7.946-18.2 12.034-21.87 20.994zm3.43-21.902c-5.145-17.086-8.17-19.996-12.394-38.542 10.56 8.548 16 27.07 12.394 38.542zm4.724-.644c11.586-8.412 14.3-17.964 27.645-21.447-.28 4.776-19.454 24.716-27.645 21.447zm-.786-7.912c7.397-9.205 11.48-16.72 22.437-23.372-1.753 11.23-14.02 27.547-22.437 23.372zm16.87-28.88c.376-13.054 17.7-18.078 24.476-23.372-1.753 11.23-14.247 22.225-24.476 23.372zm-1.407-8.97c-2.306-11.927 8.913-18.496 14.734-23.752-2.146 11.117-5.212 22.488-14.734 23.752zm-15.347 19.21c-4.567-7.458-1.968-24.567.986-31.774 3.688 3.95 5.452 30.425-.986 31.774zm7.968-10.552c-3.8-9.794.467-19.046 4.505-25.73 1.782 11.05 2.707 21.57-4.505 25.73z"/></g><path d="M273.407 324.1c34.728-33.968 64.923-63.407 113.24-93.755-78.2 60.92-75.793 65.674-108.71 96.248-1.36-1.133-3.17-1.36-4.53-2.492z" fill="#6f8593"/><path d="M211.605 332.115l12.938 14.217 39.213-59.53 16.503-17.533-3.995-5.813-25.342 24.773-2.915 5.807-36.402 38.08zm214.04.905l-16.562 14.67-36.948-59.982-21.486-23.422 5.807-4 28.513 28.85 2.915 5.807 37.76 38.08z" fill="#6a0d06"/><path d="M372.104 296.718c.34-2.152 3.167-6.34-3.173-12.003.152-3.02 3.245-6.15 5.664-7.7 2.038 0 7.925 4.112 10.53 8.717 1.474 3.2 2.228 8.19.34 12.003-1.398 2.113-3.02 4.567-4.756 5.55-.83.603-2.68.414-4.2-.228-2.378-1.207-4.2-4.68-4.415-6.34z" fill="#bbcdcd"/><path d="M292.86 190.758l-28.914-29.182-1.732.07-.6 1.927-.93 2.68-3.425 3.22-45.163-42.353 42.472 46.325 2.005.023 6.197-6.448 2.6.607 21.295 24.94 6.186-1.806zm37.736 173.922c52.914-85.93 99.007-145.15 14.57-221.08-3.16-3.18-14.066-13.247-20.898-15.416-.95-6.15 3.7-15.865-8.2-16.668-5.065.27-7.566 2.078-7.463 6.65.01 3.554 1.888 5.1.92 8.3-.357 1.6-4.303 5.212-4.06 9.834 1.533 9.847 5.336 12.257 6.5 13.66 2.066 2.054 3.302 3.5 9.37 6.006.672.808 2.464 2.314 3.384 3.327 11.15 2.386 21.312 1.168 28.515 4.76 3.14.967 8.177 6.297 9.814 8.965 20.344 22.305 29.148 58.1-1.96 95.9 6.23.5 21.146-25.02 24.553-46.702-4.766 32.338-15.314 43.632-20.54 53.296 10.45-6.96 18.86-31.473 20.818-36.5-8.285 44.618-51.2 99.7-78.183 111.276 24.434-5.665 40.826-30.014 49.52-38.737-8.466 17.46-25.88 42.166-26.645 53.17z"/><path d="M366.96 326.366c-33.822-34.193-87.797-85.827-114.598-91.5 41.748 26.95 78.51 63.184 110.068 93.983 1.36-1.133 3.17-1.36 4.53-2.492z" fill="#6f8593"/><path d="M345.78 193.033l31.807-31.453 1.732.07.6 1.927.93 2.68 3.425 3.22 45.163-42.353-42.472 46.325-2.005.023-6.197-6.448-2.61.607-27.078 30-3.296-4.595z"/><path d="M261.64 181.42c1.662-9.06 4.454-15.627 13.816-17.21 24.534-1.058 47.258-1.21 72.924-.68 7.322 5.813-.3 17.74-7.927 18.345 11.702 20.228 27.707 35.704 29.896 59.558.754 12.532-3.66 20.655-8.093 25.166-33.727.822-50.068 5.02-78.26 7.205-7.875.947-13.797-8.213-13.72-15.838.045-7.88 3.286-14.045 12.043-15.135 2.718-.295 6.502-.115 9.898-.04-6.568-19.626-31.932-42.876-30.575-61.37z" fill="#e3cf6e"/><path d="M305.927 133.15c-2.91 9.347 4.403 17.373 5.557 18.775 2.066 2.054 3.415 3.728 9.482 6.233.672.808 9.355 5.758 10.597 6.93 9.234 2.42 14.14-1.728 24.655.853-2.706-6.682-30.798-34.087-50.292-32.79z" fill="#336446"/><path d="M306.162 137.394c-2.83 4.622 4.643 15.7 5.797 17.092 2.066 2.054 3.415 3.728 9.482 6.233.672.808 3.68 2.328 4.12 2.86l7.953 1.455c-2.706-6.682-18.073-29.8-27.353-27.64z" fill="#402e08"/><path d="M309.16 121.595l-1.9 1.375 2.75 1.375-.86-2.75z"/><path d="M305.445 140.632c1.533 9.847 5.2 12.526 6.436 13.852 1.984 2.13 3.495 3.49 9.562 6.233 2.435 2.01 3.36 2.57 5.243 3.58l6.424.955c-2.706-6.682-18.727-21.905-27.666-24.62z" fill="#8c361d"/><path d="M263.895 295.918c-.34-2.152-3.167-6.34 3.173-12.003-.152-3.02-3.245-6.15-5.664-7.7-2.038 0-7.925 4.112-10.53 8.717-1.474 3.2-2.228 8.19-.34 12.003 1.398 2.113 3.02 4.567 4.756 5.55.83.603 2.68.414 4.2-.228 2.378-1.207 4.2-4.68 4.415-6.34z" fill="#bbcdcd"/><path d="M268.426 327.278c-2.87 3.323-14.115 9.814-16.306 12.005-1.812 2.415 2.49 5.737 5.21 6.114 4.83-3.624 9.663-8.607 14.04-11.548 6.106-5.64 5.703-6.104 15.63-3.173-1.435-5.284-11.475-9.435-17.212-10.642-9.665 1.056-14.12 5.057-16.08 10.642 6.416-4.83 10.796-7.172 14.722-3.398z" fill="#d4be72"/><path d="M373.765 296.577c.18-1.033.76-1.6.777-3.62l5.88 8.463c-.992 1.324-2.423.7-3.772.057-1.257-.806-3.06-3.4-2.886-4.9zm-111.243-.68c-.18-1.033-.76-1.6-.777-3.62l-5.88 8.463c.992 1.324 2.423.7 3.772.057 1.257-.806 3.06-3.4 2.886-4.9z" fill="#fff"/><path d="M369.91 329.543c2.87 3.323 14.115 9.814 16.306 12.005 1.812 2.415-2.49 5.737-5.21 6.114-4.83-3.624-9.663-8.607-14.04-11.548-5.004-6-7.174-5.737-15.63-3.173 1.435-5.284 11.475-9.435 17.212-10.642 9.665 1.056 14.12 5.057 16.08 10.642-6.416-4.83-10.796-7.172-14.722-3.398z" fill="#d4be72"/><path d="M292.06 242.87c2.402 3.443 4.403 11.048 4.725 15.932.426 9.447-9.156 14.252-12.414 13.852-6.2-.748-11.264-5.417-11.77-12.65.986-8.432 4.536-13.106 10.4-13.452 3.845.668 8.168 5.26 8.168 10.8-.107 4.6-1.414 9.18-4.245 9.287-6.885-.533-6.486-4.5-7.607-6.645-.293-1.574-.54-5.835.242-6.885 1.027-1.275 5.764-2.962 8.084.32 2.5 2.56-3.708-1.36-6.164.398-1.254 1.8-.426 4.698-.08 5.846.428 1.148.375 4.938 5.125 4.725 1.736-.264 2.35-3.82 2.482-7.287.27-2.374-3.07-7.15-6.406-8.166-2.322-.373-8.007 4.376-7.767 11.05.455 7.58 6.672 10.195 10 9.687 3.388-.906 10.462-3.575 10.17-11.128-.748-8.328-2.298-11.77-4.967-15.774 1.04 0 .963 0 2.005.082zm49.646-58.846l-1.443-2.322h-31.067c-8.808.8-22.222 2.136-26.838 4.136-11.823 5.82-15.043-4.456-15.685-7.018-.687-2.35.78-6.592 3.077-8.086.908-1.736 5.983-3.636 9.052-2.488 3.47 1.468 4.98 5.848 4.426 8.812-1.04 4.405-9.376 7.125-6.412 2.642.373-1.97 1.874-7.447-.77-11.37l-2.42.48c3.362 7 .277 10.472.117 12.472-.158 3.364 2.716 3.07 4.942 2.984 1.52-.08 4.087-2.005 5.13-3.046 1.252-1.092 1.445-3.212 1.6-5.682.394-6.518-5.578-11.157-9.607-10.57-12.25 3.044-12.545 13.264-9.77 18.574 1.548 2.67 3.337 4.298 6.326 5.846 2.5.748 6.303.32 9.288-.8 5.9-2.12 15.486-4.003 27.418-4.296l32.637-.266z"/></g><g fill="#8c361d"><path d="M330.924 235.013l1.283 1.87-.193.02c-.4-.42-.75-.715-1.015-.886a3.13 3.13 0 0 0-.883-.393c-.176-.046-.434-.052-.772-.016l-.54.058 3.656 5.33c.242.353.412.57.512.655s.237.154.4.2.35.067.557.044l.24-.025.13.2-3.792.404-.13-.2.24-.025c.2-.023.355-.076.435-.16.06-.058.078-.147.052-.268-.017-.086-.144-.302-.382-.648l-3.655-5.33-.524.056c-.488.052-.774.188-.862.408-.12.3-.047.722.22 1.24l-.204.022-1.283-1.87 6.507-.693zm-18.844 2.44l1.93 2.812.144-.015c.46-.05.7-.222.715-.52s-.128-.717-.44-1.26l.203-.02 2.48 3.617-.202.022c-.313-.4-.626-.703-.937-.94s-.582-.4-.822-.454a2.46 2.46 0 0 0-.882-.05l1.336 1.948.527.692c.093.08.206.144.336.2s.297.055.504.033l.433-.046c.677-.072 1.116-.278 1.317-.62s.186-.83-.054-1.46l.197-.02 1.18 2.23-6.26.667-.13-.2.24-.025c.2-.022.355-.076.434-.16.06-.058.075-.146.046-.267-.017-.086-.144-.302-.382-.648l-3.118-4.545-.42-.573a1.14 1.14 0 0 0-.387-.255 1.34 1.34 0 0 0-.652-.083l-.24.025-.13-.188 6.062-.646 1.4 2.042-.202.022c-.446-.488-.838-.83-1.177-1.028a3.13 3.13 0 0 0-1.118-.395c-.242-.04-.637-.03-1.185.028l-.748.08zm-6.195 7.438l.13.2-3.787.403-.13-.2.24-.025c.2-.023.355-.076.434-.16.06-.058.075-.146.046-.267-.017-.087-.144-.302-.382-.648l-3.118-4.546c-.242-.353-.412-.57-.513-.656a1.15 1.15 0 0 0-.398-.203c-.165-.056-.348-.073-.55-.052l-.24.026-.13-.188 3.787-.403.13.188-.24.025c-.2.022-.355.076-.435.16-.06.058-.077.147-.05.27.016.085.143.302.38.648l3.118 4.546c.242.354.414.572.513.655a1.29 1.29 0 0 0 .401.209c.165.052.35.067.553.045l.24-.025zm-5.933-1.768l1.4 2.454-6.432.685-.13-.188.24-.026c.2-.022.355-.075.435-.16.06-.058.075-.146.046-.267-.017-.086-.143-.302-.38-.648l-3.118-4.545c-.242-.354-.414-.572-.514-.656a1.13 1.13 0 0 0-.396-.203 1.26 1.26 0 0 0-.552-.052l-.24.025-.13-.188 3.862-.4.13.188-.316.033c-.2.023-.354.076-.434.16-.06.058-.077.147-.05.27.017.085.144.302.383.648l3.018 4.4c.244.354.42.578.53.672s.24.152.398.187c.1.02.336.013.68-.023l.603-.065c.384-.04.66-.14.828-.296s.25-.384.244-.683-.107-.728-.3-1.3l.218-.024zm44.148-2.1l-.13-.188.24-.026c.2-.022.35-.07.42-.143s.094-.172.073-.286c-.017-.075-.147-.3-.392-.648l-3.117-4.545c-.242-.354-.414-.572-.514-.656s-.23-.152-.397-.203a1.26 1.26 0 0 0-.552-.052l-.24.025-.13-.188 3.242-.345c.866-.093 1.64-.054 2.32.113a6.58 6.58 0 0 1 2.32 1.093 7.54 7.54 0 0 1 1.8 1.837c.333.486.56.943.677 1.372s.135.785.06 1.082a1.45 1.45 0 0 1-.463.738c-.23.195-.56.364-1 .505-.2.063-.517.12-.983.17l-3.242.345zm-1.7-6.8l3.697 5.4c.196.285.33.46.403.52a.67.67 0 0 0 .245.132 1.21 1.21 0 0 0 .47.032c.595-.063.916-.305.964-.725.068-.57-.275-1.404-1.03-2.503-.608-.887-1.24-1.58-1.895-2.08-.515-.4-1.006-.64-1.472-.75-.33-.08-.8-.084-1.382-.018z"/><path d="M339.26 239.432l-2.56.272.157.706a1.65 1.65 0 0 0 .23.57 1.02 1.02 0 0 0 .539.402c.134.045.4.06.794.046l.13.2-2.4.256-.13-.188c.233-.066.38-.2.432-.374s.018-.558-.097-1.1l-1.2-5.788.1-.01 6.498 5.387c.618.5 1.054.826 1.3.95a1.37 1.37 0 0 0 .639.129l.13.2-3.504.374-.13-.2.144-.016c.283-.03.454-.088.517-.175.04-.062.026-.144-.044-.247-.04-.06-.095-.123-.16-.185-.028-.03-.17-.152-.422-.366l-.975-.82zm-.44-.357l-2.712-2.265.52 2.498 2.2-.233zm-17.215.97l1.327 1.936c.257.374.442.608.556.702s.253.157.414.202.406.05.738.013l.13.2-3.708.396-.13-.2c.335-.036.542-.088.62-.158s.1-.162.1-.262-.152-.338-.408-.7l-3.075-4.484c-.257-.375-.442-.606-.557-.695a1.08 1.08 0 0 0-.413-.208c-.16-.044-.407-.05-.74-.015l-.13-.187 3.366-.36c.876-.094 1.557-.104 2.042-.032s.964.25 1.435.536a3.61 3.61 0 0 1 1.132 1.05c.35.5.446.95.3 1.326-.102.236-.337.43-.706.584l3.346 2.153.874.514a1.46 1.46 0 0 0 .626.119l.13.2-2.28.242-4.493-2.9-.476.05zm-2.325-3.4l2.077 3.027.305-.032c.495-.053.835-.135 1.024-.246s.27-.3.255-.53-.145-.545-.395-.9c-.36-.527-.758-.9-1.2-1.125s-.93-.306-1.504-.245l-.57.06zm-10.665 4.222c.792.08 1.4.214 1.828.4.6.267 1.085.647 1.423 1.14.357.52.432.972.227 1.36-.256.47-.896.757-1.922.866l-3.68.392-.13-.188c.335-.036.54-.1.62-.158a.31.31 0 0 0 .1-.262c-.008-.1-.152-.338-.408-.7l-3.075-4.484c-.257-.374-.442-.605-.556-.694-.115-.095-.25-.164-.413-.208s-.406-.05-.738-.015l-.13-.188 3.472-.37c.83-.088 1.467-.08 1.9.025a3.81 3.81 0 0 1 1.25.544c.4.258.694.544.912.86.227.332.306.643.232.932s-.38.537-.912.76zm-2.04.07c.506-.053.84-.148 1.005-.282a.61.61 0 0 0 .242-.518c-.008-.212-.116-.47-.325-.774a2.8 2.8 0 0 0-.706-.73 2.52 2.52 0 0 0-.847-.39c-.305-.077-.716-.086-1.234-.027l1.866 2.72zm.273.398l1.52 2.216.17.256c.125.183.27.318.43.402a.95.95 0 0 0 .533.091c.284-.03.505-.117.662-.262s.224-.343.196-.584-.143-.508-.336-.8c-.22-.323-.497-.603-.83-.842s-.672-.398-1.016-.47-.788-.08-1.33-.017zm21.052-5.488l1.82 2.812.146-.015c.46-.05.706-.222.735-.52s-.102-.717-.4-1.26l.204-.02 2.343 3.617-.204.022c-.298-.4-.598-.703-.9-.94s-.567-.4-.805-.454-.533-.086-.88-.048l1.26 1.947c.246.38.414.6.5.692s.2.144.33.2.295.055.503.033l.435-.046c.68-.072 1.127-.278 1.34-.62s.218-.83 0-1.46l.2-.02 1.095 2.23-6.287.667-.122-.188.24-.026c.2-.022.358-.076.44-.16.063-.058.082-.146.058-.267-.014-.086-.134-.302-.358-.648l-2.943-4.545-.4-.573c-.113-.116-.238-.2-.377-.255a1.32 1.32 0 0 0-.65-.083l-.24.025-.122-.188 6.1-.646 1.323 2.043-.205.02c-.427-.488-.806-.83-1.136-1.028a3.04 3.04 0 0 0-1.104-.395c-.24-.04-.635-.03-1.185.028l-.752.08z"/><path d="M310.15 237.317l3.406-.36.308 1.37-2.864.305.172.717c1.262-.087 2.4.105 3.417.574.835.388 1.468.913 1.896 1.574.275.425.417.855.428 1.3a1.28 1.28 0 0 1-.465 1.052c-.32.266-.757.43-1.306.487-.594.063-1.12.006-1.572-.17-.32-.126-.54-.284-.663-.474-.095-.146-.12-.282-.08-.406s.145-.195.298-.212c.14-.015.3-.003.477.037s.515.156 1.012.35c.3.12.56.198.755.236a1.32 1.32 0 0 0 .415.021c.294-.032.477-.16.55-.384s.02-.482-.164-.767c-.388-.6-1.017-1.05-1.9-1.357s-1.786-.4-2.743-.307l-.433.05-.952-3.623zm-3.677.236l3.66 5.65c.275.424.47.694.587.8a1.16 1.16 0 0 0 .431.259c.174.06.4.078.673.05l.166-.018.122.2-3.83.406-.122-.188.193-.02c.312-.032.5-.1.6-.172s.117-.185.088-.308-.187-.403-.47-.838l-2.32-3.582c-.207-.32-.352-.516-.435-.6a.9.9 0 0 0-.313-.185c-.124-.05-.242-.067-.357-.055-.182.02-.37.097-.56.234l-.215-.173 1.925-1.445.177-.02zm14.864 5.96l-.122-.188.24-.026c.2-.022.352-.07.423-.143a.33.33 0 0 0 .086-.286c-.015-.075-.137-.3-.37-.648l-2.943-4.545c-.23-.354-.4-.572-.487-.656a1.07 1.07 0 0 0-.39-.203 1.24 1.24 0 0 0-.548-.052l-.242.025-.122-.188 3.257-.345c.868-.093 1.64-.054 2.315.113.826.207 1.584.57 2.278 1.093s1.274 1.133 1.73 1.837c.315.486.523.943.625 1.372s.105.785.018 1.082-.253.538-.5.738-.572.364-1.008.505c-.193.063-.522.12-1 .17l-3.256.346zm-1.447-6.8l3.5 5.4c.184.285.312.46.382.52a.65.65 0 0 0 .24.132c.13.04.285.05.47.032.597-.063.928-.305.992-.726.1-.568-.22-1.403-.933-2.503-.575-.887-1.18-1.58-1.818-2.08-.5-.4-.98-.64-1.443-.75-.325-.08-.786-.084-1.38-.018zm29.192-3.225l1.96 2.812.144-.015c.46-.05.695-.222.7-.52s-.136-.717-.453-1.26l.203-.02 2.52 3.617-.2.022a5.61 5.61 0 0 0-.947-.94c-.313-.237-.586-.4-.827-.454s-.537-.086-.883-.05l1.358 1.948.534.692a1.01 1.01 0 0 0 .338.189c.13.044.298.055.504.033l.432-.046c.676-.072 1.112-.278 1.3-.62s.177-.83-.07-1.46l.197-.02 1.204 2.23-6.253.667-.133-.2.24-.025c.2-.022.354-.076.433-.16.06-.058.074-.146.043-.267-.018-.086-.147-.302-.388-.648l-3.167-4.545-.428-.573a1.16 1.16 0 0 0-.39-.255 1.35 1.35 0 0 0-.654-.083l-.24.025-.13-.188 6.056-.646 1.422 2.042-.2.022c-.452-.488-.847-.83-1.188-1.028a3.19 3.19 0 0 0-1.122-.395c-.242-.04-.637-.03-1.185.028l-.747.08z"/><path d="M328.708 240.1l-1.2-4.764 2.946-.314.13.188-.234.025c-.214.023-.36.076-.438.16-.055.058-.07.145-.047.263.018.086.147.3.385.642l3.174 4.556c.247.353.42.57.52.655s.235.154.404.2.35.067.553.045l.235-.025.13.188-3.778.403-.132-.2.235-.025c.214-.024.36-.077.438-.162.055-.058.07-.146.044-.267-.018-.087-.148-.303-.4-.648l-3.568-5.12 1.617 6.6-.13.013-7.178-5.956 3.4 4.866.464.624a1.76 1.76 0 0 0 .589.386c.23.1.5.116.84.08l.132.2-2.475.264-.133-.2.075-.008a.87.87 0 0 0 .399-.119c.1-.07.155-.15.165-.248s-.022-.226-.094-.4c-.02-.04-.136-.212-.352-.52l-3.047-4.372c-.243-.35-.415-.565-.513-.646a1.14 1.14 0 0 0-.399-.203c-.17-.056-.355-.073-.557-.05l-.23.025-.13-.188 2.956-.315 5.205 4.337zm-12.416-3.132l1.96 2.812.144-.015c.46-.05.695-.222.7-.52s-.137-.717-.453-1.26l.2-.022 2.52 3.617-.202.022c-.317-.4-.633-.703-.946-.94s-.587-.4-.828-.454-.537-.085-.88-.048l1.356 1.947.534.692c.095.08.207.144.34.2s.297.055.504.033l.432-.046c.676-.072 1.112-.278 1.3-.62s.176-.83-.072-1.46l.197-.02 1.205 2.23-6.254.667-.13-.188.24-.026c.2-.022.354-.076.433-.16.06-.058.075-.146.044-.267-.018-.086-.148-.302-.4-.648l-3.167-4.545-.427-.573a1.16 1.16 0 0 0-.39-.255 1.35 1.35 0 0 0-.655-.083l-.24.025-.13-.188 6.056-.646 1.424 2.043-.203.02c-.452-.488-.847-.83-1.187-1.028a3.18 3.18 0 0 0-1.123-.395c-.24-.04-.637-.03-1.185.028l-.747.08zm1.173 6.668l.132.2-3.783.403-.132-.2.24-.025c.2-.023.354-.076.432-.16.06-.058.075-.146.043-.268-.017-.086-.148-.302-.388-.648l-3.167-4.546c-.246-.353-.42-.57-.52-.656s-.234-.15-.4-.203-.35-.074-.552-.052l-.24.025-.13-.187 3.783-.403.13.187-.24.026c-.2.022-.354.076-.432.16-.06.058-.075.147-.048.268.017.086.147.303.388.648l3.167 4.546c.246.353.42.57.52.655s.24.154.404.2.35.067.553.045l.24-.025zm-9.07-6.248l1.303 1.87-.192.02c-.414-.42-.757-.716-1.025-.887a3.21 3.21 0 0 0-.887-.393c-.177-.046-.435-.052-.773-.016l-.54.058 3.713 5.33c.246.354.42.572.52.655a1.31 1.31 0 0 0 .404.21 1.38 1.38 0 0 0 .558.045l.24-.025.13.188-3.788.404-.132-.2.24-.025c.2-.022.354-.076.433-.16.06-.058.077-.146.05-.268-.018-.086-.148-.302-.388-.648l-3.714-5.33-.523.056c-.487.053-.772.188-.857.4-.116.308-.04.72.235 1.24l-.204.02-1.303-1.87 6.5-.693zM290.78 239.7l1.96 2.812.144-.015c.46-.05.696-.222.7-.52s-.136-.717-.453-1.26l.2-.022 2.52 3.617-.202.022c-.317-.4-.633-.703-.946-.94s-.586-.4-.827-.454-.537-.085-.882-.048l1.356 1.947.534.692c.095.08.207.144.34.2s.298.055.504.033l.432-.046c.676-.072 1.113-.278 1.3-.62s.176-.83-.07-1.46l.197-.02 1.204 2.23-6.254.667-.13-.188.24-.026c.2-.022.354-.076.432-.16.06-.058.075-.146.045-.267-.018-.086-.148-.302-.4-.648l-3.167-4.545-.427-.573a1.16 1.16 0 0 0-.39-.255 1.33 1.33 0 0 0-.653-.083l-.24.025-.13-.188 6.056-.646 1.424 2.043-.203.02c-.452-.488-.847-.83-1.187-1.028a3.18 3.18 0 0 0-1.123-.395c-.24-.04-.637-.03-1.184.028l-.748.08zm-4.3-.15l1.663 2.297-.218.023c-.505-.566-1.084-1.003-1.732-1.3s-1.207-.44-1.678-.4c-.362.04-.585.164-.67.374s-.04.43.13.67a1.59 1.59 0 0 0 .397.396c.214.148.5.3.825.42.246.095.77.252 1.573.473 1.124.307 1.958.622 2.498.943a4.03 4.03 0 0 1 1.28 1.166c.403.578.512 1.1.332 1.57-.182.464-.635.735-1.36.812-.227.025-.457.025-.692.003a7.73 7.73 0 0 1-.936-.168c-.218-.05-.38-.068-.493-.057-.092.01-.166.054-.222.133s-.066.192-.033.34l-.198.02-1.818-2.6.198-.02c.667.717 1.36 1.245 2.072 1.585s1.332.477 1.848.422c.397-.043.643-.18.733-.412s.044-.487-.147-.76a1.97 1.97 0 0 0-.468-.46c-.198-.144-.433-.273-.713-.4s-.735-.264-1.357-.435l-1.97-.638a5.87 5.87 0 0 1-1.175-.658c-.343-.25-.622-.54-.848-.863-.383-.55-.498-1.04-.344-1.474s.552-.683 1.196-.752c.234-.025.48-.023.74.01.197.023.45.077.768.164s.525.12.62.1.146-.045.162-.105-.026-.196-.124-.408l.16-.018zm13.937 2.756l1.334 1.915c.26.375.448.608.563.702a1.21 1.21 0 0 0 .416.202c.164.044.4.05.737.014l.132.2-3.676.392-.132-.2c.335-.036.542-.088.618-.158a.27.27 0 0 0 .087-.262c-.02-.1-.156-.338-.415-.7l-3.125-4.484c-.26-.375-.448-.606-.564-.695-.115-.095-.254-.164-.415-.208s-.407-.05-.74-.015l-.13-.187 3.154-.337c1.04-.1 1.907-.013 2.604.3s1.232.723 1.6 1.252c.312.45.434.848.366 1.2s-.32.6-.752.78c-.288.118-.844.22-1.665.3zm-2.357-3.383l2.08 2.986.274-.018c.433-.046.683-.205.747-.473s-.087-.67-.447-1.184-.736-.877-1.137-1.1a2.21 2.21 0 0 0-1.3-.245l-.218.024zm39.713-1.185c.792.08 1.405.214 1.833.402.613.266 1.092.646 1.436 1.138.36.52.442.972.24 1.36-.25.47-.888.757-1.912.866l-3.676.392-.132-.188c.334-.036.54-.1.618-.158a.27.27 0 0 0 .086-.262c-.016-.1-.155-.338-.415-.7l-3.124-4.484c-.26-.374-.448-.605-.565-.694-.115-.095-.252-.164-.414-.208s-.408-.05-.738-.015l-.13-.188 3.468-.37c.828-.088 1.466-.08 1.9.025a3.85 3.85 0 0 1 1.256.544c.395.258.7.544.92.86.232.332.314.643.243.932s-.374.537-.904.76zm-2.038.07c.505-.053.84-.148 1.002-.282a.6.6 0 0 0 .235-.518c-.01-.2-.12-.47-.333-.774a2.86 2.86 0 0 0-.715-.73c-.263-.18-.545-.314-.85-.4s-.717-.086-1.234-.027l1.895 2.72zm.278.398l1.544 2.216.172.256c.128.183.273.318.435.402a.95.95 0 0 0 .533.091c.284-.03.505-.117.66-.262s.22-.343.2-.584-.147-.508-.344-.8a3.46 3.46 0 0 0-.84-.842 2.73 2.73 0 0 0-1.022-.47c-.345-.072-.788-.08-1.33-.017z"/><path d="M343.45 237.686l1.35 1.936c.26.374.448.607.563.7a1.22 1.22 0 0 0 .416.202c.16.045.406.05.738.014l.132.2-3.704.395-.132-.2c.335-.035.54-.088.618-.158s.107-.162.087-.262-.155-.337-.415-.7l-3.125-4.484c-.26-.374-.448-.605-.564-.695a1.17 1.17 0 0 0-.414-.207c-.16-.043-.408-.05-.74-.015l-.13-.188 3.362-.36c.876-.093 1.556-.104 2.042-.032s.966.25 1.44.536a3.66 3.66 0 0 1 1.144 1.05c.355.5.456.95.305 1.325-.1.237-.332.43-.7.584l3.37 2.154.88.513a1.32 1.32 0 0 0 .627.12l.132.2-2.278.243-4.526-2.9-.476.05zm-2.362-3.4l2.1 3.028.304-.032c.494-.053.834-.135 1.02-.247s.267-.3.25-.53-.15-.545-.403-.908c-.368-.527-.768-.902-1.203-1.125s-.933-.306-1.506-.245l-.57.06zm-4 .17l2.662 5.65c.2.424.35.694.444.8s.223.198.385.26.385.078.666.05l.17-.018.1.2-3.902.407-.1-.2.197-.02c.317-.032.527-.1.63-.172s.15-.186.14-.3-.116-.403-.32-.838l-1.7-3.582c-.15-.32-.26-.515-.33-.6a.74.74 0 0 0-.282-.184.68.68 0 0 0-.347-.055 1.41 1.41 0 0 0-.602.233l-.185-.173 2.18-1.445.18-.02zM335.8 242l-4.36.455-.053-.113c.637-1.623.978-2.706 1.02-3.25a3.02 3.02 0 0 0-.277-1.548c-.17-.357-.426-.64-.773-.85s-.694-.303-1.037-.267c-.56.06-.874.366-.936.92l-.234-.046c-.1-.672-.038-1.186.214-1.54s.643-.558 1.168-.613a2.67 2.67 0 0 1 1.142.137 3.11 3.11 0 0 1 1.043.597c.307.263.52.52.637.767a2.64 2.64 0 0 1 .244 1.418c-.072.668-.462 1.628-1.17 2.88l1.602-.167c.393-.04.64-.083.743-.126s.18-.104.223-.184.07-.247.082-.494l.197-.02.525 2.04zm-15.5-5.785l2.662 5.65c.2.424.35.694.444.8a.91.91 0 0 0 .386.259c.163.062.384.078.665.05l.17-.018.1.188-3.902.407-.1-.2.196-.02c.317-.033.527-.1.63-.172s.15-.186.14-.3-.116-.403-.32-.837l-1.688-3.583c-.15-.32-.26-.515-.33-.6a.74.74 0 0 0-.282-.184.68.68 0 0 0-.347-.055c-.186.02-.387.096-.602.233l-.184-.173 2.18-1.445.18-.02zm-10.6 1.67l1.325 2.812.148-.016c.47-.05.746-.22.826-.52s.025-.718-.17-1.26l.208-.022 1.705 3.618-.208.022c-.23-.4-.474-.703-.735-.94s-.498-.4-.723-.454-.52-.086-.872-.05l.917 1.947c.18.38.306.612.38.693s.175.144.295.2.287.055.498.033l.443-.046c.7-.073 1.175-.278 1.45-.62s.365-.83.258-1.46l.203-.02.7 2.23-6.404.667-.1-.2.246-.025c.215-.023.37-.076.468-.16.072-.058.108-.146.104-.267.002-.087-.08-.302-.243-.648l-2.142-4.546-.298-.572c-.093-.116-.203-.2-.332-.255-.183-.08-.394-.1-.636-.084l-.246.026-.1-.188 6.203-.646.963 2.042-.208.022c-.34-.488-.66-.83-.955-1.028a2.57 2.57 0 0 0-1.034-.395c-.233-.04-.63-.03-1.2.028l-.766.08zm-7.913 7.656l-.1-.2.246-.025c.215-.022.365-.07.448-.143a.39.39 0 0 0 .135-.287c-.001-.074-.085-.3-.254-.647l-2.14-4.545c-.166-.354-.3-.572-.372-.657s-.2-.15-.354-.203-.332-.073-.54-.052l-.246.026-.1-.188 3.317-.346c.885-.092 1.65-.054 2.295.114a5.1 5.1 0 0 1 2.085 1.093c.605.52 1.073 1.133 1.405 1.837.23.485.356.942.382 1.37s-.033.786-.172 1.082c-.14.3-.348.537-.62.738-.27.195-.636.364-1.098.505-.204.063-.544.12-1.02.17l-3.317.346zm-.246-6.8l2.54 5.4c.135.285.232.46.292.52a.51.51 0 0 0 .217.131 1.12 1.12 0 0 0 .463.032c.608-.064.98-.305 1.12-.726.2-.568.027-1.403-.493-2.503-.417-.886-.9-1.58-1.45-2.078-.432-.4-.87-.64-1.3-.75-.312-.08-.77-.083-1.38-.017zm26.01.028c.688.302 1.206.598 1.552.886s.616.626.803 1.023c.262.557.26 1.054-.01 1.488s-.787.685-1.56.766c-.733.077-1.377-.032-1.938-.327s-.952-.684-1.18-1.17c-.174-.37-.212-.707-.114-1s.367-.598.797-.886c-.783-.357-1.32-.66-1.614-.907s-.516-.547-.68-.896c-.218-.463-.2-.9.054-1.284s.75-.634 1.483-.7c.708-.074 1.324.026 1.85.3s.894.62 1.1 1.056c.154.326.186.626.097.9s-.3.527-.64.773zm-.54-.217a1.36 1.36 0 0 0 .033-.602c-.035-.218-.1-.452-.23-.703-.208-.442-.468-.77-.783-.983-.238-.164-.492-.232-.76-.204-.244.025-.413.13-.505.314s-.084.394.03.638.333.496.65.746.84.5 1.566.794zm-.586 1.2c-.068.107-.108.2-.117.284-.017.127-.001.307.048.54s.132.474.25.722c.15.32.32.584.5.792s.384.347.6.425a1.46 1.46 0 0 0 .57.1c.266-.028.448-.142.545-.34s.07-.462-.08-.778c-.3-.66-1.082-1.237-2.315-1.736z"/></g></svg>