<svg xmlns="http://www.w3.org/2000/svg" xmlns:xlink="http://www.w3.org/1999/xlink" height="480" width="640" xmlns:v="https://vecta.io/nano"><style><![CDATA[.B{stroke-width:1pt}.C{fill-rule:evenodd}.D{fill-opacity:.996}.E{stroke:#544b20}.F{stroke-opacity:.996}.G{stroke-width:.267pt}.H{fill:none}.I{fill:#544b20}.J{fill:#faf703}.K{stroke-opacity:1}.L{stroke:#544b21}.M{fill:#796a3a}.N{fill:#7a6b3a}.O{stroke-width:1.066}]]></style><defs><clipPath id="A"><path fill-opacity=".67" d="M0 0h640v480H0z"/></clipPath><path id="B" d="M410.94 120.56l-4.063 1.016.156 7.5-5 1.094-3.497 6.614 2.16 2.044c.11.22-1.703 4.892-1.625 4.892s1.323 1.762 1.323 1.762l1.328 4.063 3.36.468.86 4.766 5.312.86 4.922 3.516.312 2.188 5.625.156 3.83 1.25 13.36-1.563 1.797-2.812.156-3.828 7.188-.235.657-6.105h3.81l-.474-6.875 3.177.286-.82-3.295-1.975-2.683-.4-4.218-5.625-5.625-1.25-7.344-3.594-1.72-.234-4.922 4.062-5.703-.4-2.265-3.75-.08-2.813 2.344-3.75.47v1.72l.938 3.28c0 .078-4.297 0-4.297 0l-.157-5.078-6.093-3.047-5.703 3.984c0 .078-.313 4.532-.313 4.532l-2.734.78-2.813-4.22-4.922-1.875-2.656-.156-.078 3.28 5.156 6.797-.468 3.984z"/><path id="C" d="M400.84 138.2l5.856-.332 1.105 5.303 1.988 1.768.332 9.723 1.878.773.553-3.867 4.53-.33.883 7.844-1.104.995.442 1.215 5.413-.1 1.326-2.1c.11 0 3.094-.33 3.094-.22s1.215 2.32 1.215 2.32l.884-2.984 2.873-1.104c0 .1 2.32 3.756 2.32 3.756l3.977-.552-2.43-2.32-.995-5.083 5.524-2.983 2.2 3.757s2.1.1 1.99 0-2.43-4.31-2.43-4.31v-8.84l4.2-5.745 5.855-.663v-2.43l-5.855-5.414-1.547-7.513-3.315-1.657-.884.994-3.646.332 3.646 5.414v3.535l1.658.884-.332 9.723-4.088.663c0 .1-.33 5.413-.33 5.413l-2.54 2.542-1.547 5.082c-.11 0-2.43 3.093-2.43 3.093l-4.53.11-2.65-2.652c0-.1-.442-3.756-.442-3.756l-1.88-.553c-.1 0-.994-4.088-.994-4.088l-3.094-1.767-.22-2.43-2.984-1.326-.442-2.32c-.1-.11-1.436-.994-1.546-.994s-.11-6.077-.11-6.077l2.652-.442-1.485-1.94-.504-1.706v-1.768l2.2-2.2-3.978-.442c0 .11-3.866 1.768-3.866 1.658.1 0-.11 7.18-.11 7.18l-4.53 1.437-3.646 5.855 1.878 1.658z"/><path id="D" d="M423.7 148.04l2.983-1.768-.11-3.425-2.872-.663-1.106-1.105 3.205.553 3.977-.332 1.326-.663c-.552 1.437-.994 1.326-1.105 1.326s-2.21 1.105-2.21 1.105l.1 3.315 6.74.883c-.11 0 0 1.326-.22 1.326s-7.07-1.547-7.07-1.547l-4.31 2.652.663-1.657z"/><path id="E" d="M440.95 127.5l-3.977 3.093-2.54 4.53-1.326.22-3.867-5.193-4.42.11-2.43 6.187c0 .1-1.768-.22-1.768-.22l-4.64-5.082s-1.437-2.542-1.216-2.542l11.6.11-.1-5.524s-1.768-.553-2.652-1.105c.663-.22 6.298-.22 6.298-.22l-2.43 1.657v4.75l10.054.1 3.425-.883z"/><path id="F" d="M413.55 121.3c4.198-1.694 7.18-3.056 12.374-3.535 4.898-.516 8.692.184 13.037.994"/><path id="G" d="M415.87 112.35h-3.425l-4.862-5.193 2.763.332 3.204 1.436 2.32 3.425z"/><path id="H" d="M436.53 110.36l7.734-5.965-2.54-.332-2.873 2.65-3.425.553 1.105 3.093z"/><path id="I" d="M431.97 111.46l-12.123.45.1-1.326 4.42-.442.552-1.767s1.326-.1 1.326 0 .994 1.657.994 1.657l4.31.773.412.654z"/><path id="J" d="M424.26 104.73l-.332 2.32-4.087.663 4.42-2.982z"/><path id="K" d="M401.06 147.04l2.1-5.303-1.878-3.646-1.878 5.414 1.657 3.535z"/><path id="L" d="M405.26 149.92l2.54-6.298-4.86 5.082 2.32 1.216z"/></defs><g clip-path="url(#A)"><g class="C"><path fill="#fff" d="M-148.86 135.66h936.34V305.8h-936.34z"/><path fill="#003e9f" d="M-148 289.76h938.16V480H-148z"/><path fill="#d61517" d="M-150.15 0h939.68v159.5h-939.68z"/></g><g transform="matrix(1.2446 0 0 1.2446 -78.769 -50.054)"><g class="C"><path d="M242.64 155.17c24.536-8.728 51.74-13.437 78.33-13.504s53.705 4.105 80.5 13.706l19.944-40.235-14.018-24.42-25.216 10.273c-.205 0-17.635-19.182-17.635-19.182l-22.4 13.523-21-16.073-19.78 15.825-23.08-13.34-16.83 20.008-25.24-10.792-13.5 24.195 19.932 40.015z" stroke="#e5141d" fill="#fff" class="O"/><g stroke="#0084fd" fill="#00a7bd" class="G"><path d="M370.5 144l11.42-40.37 24.457-9.925 12.885 21.634-18.5 37.84c-10.634-4.25-16.33-6.07-30.263-9.177zm-64.4-4.36l-3.856-41.8 19.436-15.45 20.307 15.412-3.588 41.886c-11.2-.592-19.18-.574-32.298-.038z"/><path d="M243.6 153.16l-18.117-38.322L237.6 93.683l25.1 10.924 10.605 39.535c-11.46 2.37-17.528 4.306-29.695 9.017z" class="F"/></g><path d="M237.97 131.93c5.704 1.155 9.77 1.196 14.885-.206 6.11-2.502 8.27-5.87 10.26-8.58.925 5.72-.042 10.904-7.022 14.562-6.266 2.888-14.717 1.073-18.123-5.775z" stroke="#fff" fill="#fff" class="G"/></g><g transform="matrix(.26911 0 0 .26401 215.86 72.486)"><g class="B E"><use xlink:href="#B" class="C D F J"/><g class="H"><path d="M449.23 148.04l-1.105-4.088m4.205-2.652l-1.878-2.762"/></g></g><g class="C"><g class="I B"><use xlink:href="#C" class="K L"/><g class="E"><use xlink:href="#D"/><use xlink:href="#E"/></g></g><rect ry="1.326" height="2.652" width="2.652" y="130.14" x="419.51" class="D M"/><rect ry="1.326" height="2.652" width="2.652" y="129.59" x="432.11" class="N"/></g><g class="B E"><use xlink:href="#F" class="H"/><g class="C I"><use xlink:href="#G"/><use xlink:href="#H"/><use xlink:href="#I"/><path d="M431.34 106.83l-4.198.1-.332-2.32 4.53 2.2z"/><use xlink:href="#J"/><use xlink:href="#K"/><use xlink:href="#L"/></g></g></g><g transform="matrix(.26911 0 0 .26401 197.81 73.069)"><g class="B E"><use xlink:href="#B" class="C D F J"/><g class="H"><path d="M449.23 148.04l-1.105-4.088m4.205-2.652l-1.878-2.762"/></g></g><g class="C"><g class="I B"><use xlink:href="#C" class="K L"/><g class="E"><use xlink:href="#D"/><use xlink:href="#E"/></g></g><rect ry="1.326" height="2.652" width="2.652" y="130.14" x="419.51" class="D M"/><rect ry="1.326" height="2.652" width="2.652" y="129.59" x="432.11" class="N"/></g><g class="B E"><use xlink:href="#F" class="H"/><g class="C I"><use xlink:href="#G"/><use xlink:href="#H"/><use xlink:href="#I"/><path d="M431.34 106.83l-4.198.1-.332-2.32 4.53 2.2z"/><use xlink:href="#J"/><use xlink:href="#K"/><use xlink:href="#L"/></g></g></g><path d="M338.7 139.62l3.613-41.935L364.5 84.908l17.166 18.605-11.44 40.4c-11.09-2.264-17.416-3.235-31.546-4.294z" stroke="#001071" fill="#001070" class="C F G"/><g transform="matrix(.26911 0 0 .26401 207.16 88.736)"><g class="B E"><use xlink:href="#B" class="C D F J"/><g class="H"><path d="M449.23 148.04l-1.105-4.088m4.205-2.652l-1.878-2.762"/></g></g><g class="C"><g class="I B"><use xlink:href="#C" class="K L"/><g class="E"><use xlink:href="#D"/><use xlink:href="#E"/></g></g><rect ry="1.326" height="2.652" width="2.652" y="130.14" x="419.51" class="D M"/><rect ry="1.326" height="2.652" width="2.652" y="129.59" x="432.11" class="N"/></g><g class="B E"><use xlink:href="#F" class="H"/><g class="C I"><use xlink:href="#G"/><use xlink:href="#H"/><use xlink:href="#I"/><path d="M431.34 106.83l-4.198.1-.332-2.32 4.53 2.2z"/><use xlink:href="#J"/><use xlink:href="#K"/><use xlink:href="#L"/></g></g></g><g class="C"><g class="G"><g stroke="#a0210c" fill="#a0210c"><path d="M344.2 132.1l-1.113 1.302.086 1.092 2.312-.042c.742-.175.927-.434 1.07-.735.228-.37.07-.574.128-1.07l-2.483-.546zm5.56 3.28l-.942.882v1.008l2.055-.042c.742-.175.842-.308.984-.6.228-.37.157-.364.214-.86l-2.312-.378zm9.04-2.8l-1.07 1.092.043.84 2.183.084c.742-.175.628-.14.856-.525.228-.37.157-.448.214-.945l-2.226-.546zm6.37 1.97l-1.24 1.05v1.05l2.312.2c.742-.175.8-.392.985-.65.228-.37.114-.406.17-.903l-2.226-.756z" stroke-opacity=".997"/></g><g stroke="#000"><path d="M349.63 107.08l4.366 2.898c.82-.68 2.528-.268 3.197-.08 1.2.313 2.047 1.024 3.096 1.213 1.918.482 4.216.815 5.957.626s3.203-1.1 4.488-1.76v-.42h-.856c-1.4.5-3.337.527-4.828.332s-1.893-.864-4.12-1.507l-.17-.42c2.702.128 3.25.058 4.382-.435 1.106-.294 1.604-.935 2.228-1.38l-.017-.496-.814-.042c-1.048.698-1.716.824-3.32.677-1.46-.148-2.777-.98-3.757-.997-1.04.008-.99-.49-1.996-.538-1.598-.14-3.326.073-4.838.437-1.812.546-2.084 1.008-2.997 1.9z" fill="#a0210c"/><path d="M350.48 106.43c.418.095.887.215 1.228.4s.254.2.62.46c-.06-.348-.042-.323-.28-.596s-.625-.522-.937-.746l-.633.472zm3.65 3.13c.008-.377-.186-.704-.33-1.03s-.262-.605-.532-.932c.338.095.524.24.8.584s.27.688.33 1.18l-.28.2zm.83-4.6c.1.26.3.44.47.997.146.506.215 1.214.215 1.214-.055-.377.042-.804-.013-1.18s-.262-.704-.317-1.08l-.354.05zm3.54.23l.177 2.088.203-1.963-.38-.124zm-.85 4.3c.084-.34.068-.68.025-1.02s-.16-.63-.28-1.02c.338.3.473.654.66 1.044 0 .4-.1.73-.405.994zm3.67-.9c.013 0 .108.708-.054 1.218s-.276.547-.58.82c.405-.298.76-.398.887-.72.127-.497-.203-1.243-.254-1.317zm.64-.68c-.253.04-.304-1-.456-1.516.1-.058.22-.04.33.2.118.14.084.878.126 1.317zm2.5-.42l.1-.87.28-.025v.746a1.01 1.01 0 0 1-.38.149zm-.2 2.34c.16.265.448.58.48.87s-.06.43-.28.87l.405.025c.22-.352.287-.605.254-.882s-.17-.555-.456-.783l-.406-.1zm3.02.22l.1 1.218.33-.174-.076-1.044h-.355z"/></g><path d="M349.36 107.3c-.988.286-1.346.832-1.83 1.304l-2.784-1.4c-.452.375-.625.9-.408 1.458s1.09 1.405 1.712 1.83c-.156.756-.385 1.327-.656 1.99-.303.746-.953 1.688-.97 1.99-.037.346-.15 1.088.368 1.286s2.185-.137 2.74-.1c-.1.298-.307.818-.233 1.04s.223.298.675.31c-.13.276-.41.627-.277.792.35.264.75.22 1.086.198-.53.616-1.857 1.8-2.288 2.33-.455.616-.494 1.28.388 1.216-.328.364-.644.715-.594 1.03.076.376.265.63.896.41-.373.844-.128 1.602.004 2.482-.32.667-.183 1.284-.262 2.05-.65.368-.73.846-1.152 1.585-.38.8-1.09 1.018-1.482 2.735l2.547.635c.094-.353.427-.582.52-.935s.086-.793.04-1.183c.505-.732 1.528-2.244 1.857-3.05.556-.297.96-.483 1.378-.483s.683.248 1.126.483c-.196.68-.745 1.42-.777 2.372v2.626c-.11.652-.853.66-1.166 2.626l2.288.593c.39-.66 1.004-.752 1.166-1.016l.165-2.728c.29-1.288 2.097-2.353 2.123-3.752.648-.01.893.057 1.15-.075.345-.12.464-.314.733-.558.104.42.435.458.716.458s.84-.396 1.07-.557c.162.228.248.444.586.524s1.295-.063 1.684-.157l-1.88 3.076c-.07.296.024.482-.122.828-.137.31-.412.46-.536.747l2.132.51.34-.898c.452-.2.816-.294 1.053-.583s.235-.84.372-1.153c.728-.53 1.873-1.676 2.677-2.626.546.092 1.32.543 1.612 1.218.04.723.094 2.054-.23 2.975l-1.382 2.16-.157.354 2.175.775 1.382-1.06.054-1.5c.694-1.226 1.687-1.895 2.634-2.668l.063-1.684c-.234-.178-.392-.07-.474-.398s-.026-1.222.018-1.573c.137-.17.425-.364.4-.51-.376-.413-.26-1.483-.146-2.317-.028-.95 1.27-2.072 1.468-2.626l.08-.997c-.133-.245-.328-.39-.335-.6s.252-.552.4-.772l.275-.47-.043-2.457c-.077-.265-.305-.68-.52-.722s-.533.2-.774.467l-1.25.923c-.6.183-1.123.255-2.177-.007l-1.607.032c-.844.236-1.284.274-2.078-.072l-.952.015c-.297.162-.707.422-1.03.484s-.757.075-1.08-.024c-2.457.165-1.846.343-2.548.496-.564-.107-.383-.387-2.574-.408l-.87-.254c-1.096-.726-1.94-1.886-2.67-3.22 2.283-.654 3.24-1.333 3.934-2.89l-3.23.12-4.565-3.034z" fill="#dc9103" class="E"/><g stroke="#000"><path d="M348.22 111.27l.914.387c.112.133.328.286.47.295s.265-.137.387-.242l.842-.44c-.5-.072-.65-.38-1.18-.38s-.903.278-1.433.38zm4 .23c.297.175.836.526 1.28.526.486-.04.478-.38 1.175-.608l1.022-.826c-.616.007-1.948.128-2.68.35-.616.162-.76.406-.798.557zm-2.33 10.56c0 .076-.127.13-.2.04-.078-1.07-.314-1.823-.645-2.657.373.635.683 1.66.835 2.616zm2.6 4.4c-.416.042-.58-.02-.995.023l-.043-3.08c.16.02.622.503.896 1.265.072.562.175 1.197.142 1.8zm2.77-4.28c.187.052.448.052.5-.072.08-.23-.157-.48-.245-.76-.308-.604-.48-1.26-.608-1.543-.136-.085-.282-.078-.25.064.177.537.48 2.105.593 2.312zm2.93-.32c.02.13-.422-.06-.497-.207-.006-.287-.602-2.4-.504-2.472.125-.06.513.703.638 1.054.03.208.3.973.362 1.624zm-.4 4.33c-.01.147.336.026.473-.085l1.032-1.518c.087-.265.52-1.954.387-1.94-.047-.05-.425.837-.912 1.712l-.98 1.83zm2.95-.9c-.144.07.3-1.46.324-1.73l.364-2.192c.212 1.4-.038 2.883-.688 3.923zm1.77-4.67c-.095.083-1.363-2.014-1.247-2.025.033-.093 1.063 1.312 1.2 1.56.06.117.122.296.036.465zm2.98 1.55c-.095-.072-.057-.74-.245-1.476s-.507-1.444-.443-1.645c.06-.106.266-.057.43.085l.477 2.933c-.003.097-.1.162-.22.104zm2.06-1.85c-.1-.108.276.72.55 1.704s.415 2.722.482 2.598c.2-.125.157-.28.45-.345s1.387.038 1.323-.035c-.676-.602-1.3-1.1-1.765-1.755s-.774-1.514-1.04-2.168zm2.56 8.96c-.212.153-.613.275-.73.2-.645-1.34-1.005-2.217-1.902-3.65-.23-.34-.807-.288-.774-.422.022-.155.323-.093.518-.317s.22-.508.34-.6c-.264.62.43 1.567.817 2.32.258.07.463.07.585.22.03.072-.28.124-.24.38l.654 1.318c.213.16.542.248.86.295.083.074-.065.18-.13.253zm1.34-11.72c.404.022.77.058.9-.148.247-.5.4-.93.224-1.26-.634.05-1.113.343-1.372.902a.61.61 0 0 0 .258.506z"/></g><path d="M378.12 117.16c6.27 1.324 12.07 2.83 17.874 4.703s11.326 4.11 16.943 6.53l-9.403 18.996c-5.248-1.997-10.43-3.607-15.613-5.28l-15.48-4.765 5.68-20.183z" stroke="#fdfcfc" fill="#fdfcfc"/><path d="M376.87 121.65s8.755 1.953 17.238 4.682 16.76 6.23 16.728 6.23c-.066 0-5.332 10.85-5.332 10.85-5.112-2.034-10.488-3.94-15.798-5.65s-10.62-3.358-16.062-4.617l3.226-11.495z" stroke="#e6151e" fill="#e6151e"/><g stroke="#010001" class="F"><path d="M377.6 126.95c.86-.48 1.444-.61 1.908-1.404h3.1l.04 1.13c.762.364 1.206.767 1.967 1.13s1.842.69 2.604 1.053l6.678.585c.894.143 2.186.52 2.96.975s1.272 1.027 1.7 1.755c1.37.48 2.743.767 4.154.975s3.18.3 4.55.35c.676.234.676.585.358.936 0 0-.755 1.024-2.817 1.033s-4.397-1.15-5.41-.994c.04.624 1.113 1.91 2.345 2.418l-.04 2.963-.557.507-.596-.4c.477-.702.318-1.52.12-2.223-.457-.663-.517-.936-1.37-.975-1.014-.195-1.75-.468-3.04-1.365l-.477.078c-.278.494-.557.832-1.192 1.13l-1.312-.078-3.02-.702c0-.04-.04-.468.04-.507s1.033-.04 1.113-.04c.636.195 1.988.195 1.988.195l-.04-1.13 2.027-.117c-.41-1.404-.543-2.3-2.425-2.613l-5.883.156.08.82c-1.47-.195-4.134-.23-5.494.22-.795.078-1.94.48-2.456.48l-.596-.156c-.397-.117-.397-.234-.238-.585 2.544-.195 2.942-.4 3.697-.74.04-.234-.278-.74-.397-.78-1.6-.078-2.862.04-3.3-.04-.676-.195-1.6-.546-1.6-.585s-.12-.624-.08-.624 1.034.273 1.073.273c1.074.195 2.942.117 3.38-.117l.04-.858c-.04-.4-.318-.74-.398-.78s-1.75-.234-2.345-.234c-.967-.17-.82-.65-.835-1.13z"/><path d="M390.44 133.9c.9.286 1.564.377 2.902.468l2.027-.117c-.41-1.404-.543-2.3-2.425-2.613l-5.883.156.08.82 3.3 1.287z" fill="#fdfdfd" class="D"/></g><path d="M273.6 144l-10.632-39.62 16.223-19.652 22.748 12.986 3.856 41.985c-11.608.86-19.128 1.977-32.196 4.303z" stroke="#011171" fill="#011171" class="D"/><path d="M236.92 112.42l3.7 3.26-1.05 5.24 5.13-1.774 3.784 3.26.84-4.826 4.205-1.362-3.196-3.465 1.05-4.785-5.046 1.444c0-.04-3.364-3.217-3.406-3.176s-1.093 4.537-1.093 4.537l-4.92 1.65z" stroke="#fdc605" fill="#fbfd10" class="D F"/></g><g fill="#ffc500"><path d="M237 112.46l16.483 3.713-4.247 1.444-3.826-3.094 3.07 7.714c-.042-.04-3.616-3-3.742-3.135l.63-4.58-5.72 6.312c0-.04 1.093-5.198 1.093-5.198L237 112.46zm4.8-1.7l3.658 3.507-2.523-8.126-1.135 4.62zm4.5-1.32c.042.04-.883 4.744-.84 4.744.42-.495 5.93-6.23 5.887-6.23s-4.962 1.526-5.046 1.485z"/></g><path d="M396.2 104.4l.782 4.817-4.18 3.42 5.124 1.79.848 4.87 3.75-3.23 4.14 1.54-.258-4.666 3.888-3.067-4.846-1.996c.026-.032-.548-4.577-.607-4.57s-3.762 2.85-3.762 2.85l-4.88-1.758z" stroke="#fdc605" fill="#fbfd10" class="D F G"/><path d="M396.25 104.5l10.42 13.068-4.226-1.502-.986-4.767-2.567 7.89c-.006-.058-.876-4.573-.895-4.747l3.43-3.167-8.494 1.37c.027-.032 4.186-3.362 4.186-3.362l-.868-4.78z" fill="#ffc500"/><g fill="#fdc605"><path d="M401.06 106.14l.6 4.984 3.257-7.87-3.848 2.887zm4.34 1.76c.006.058-3.73 3.14-3.7 3.165.644-.125 8.604-1.176 8.572-1.202s-4.834-1.88-4.873-1.964z"/></g><g stroke="#e6141d" fill="#e6141d" class="G"><path d="M263.05 104.52c5.774-2.76 12.255-4.913 19.1-5.852 6.57-.94 13.144-1.02 19.9-1.006l.884 10.418c-5.303.043-9.254-.055-18.608 1.155-9.302 1.3-13.133 2.395-18.8 4.563l-2.465-9.277z"/><path d="M268 122.8c-.09 0 2.92 10.93 2.92 10.93 5.553-1.402 11.195-2.457 16.836-3.25s11.64-1.247 17.106-1.61l-.96-10.66c-5.76-.347-12.323-.347-18.26.433s-11.7 2.163-17.636 4.157z" class="D"/></g><g stroke="#e5141d"><path d="M241.5 156.56h161.16V259.9c-4.096 40.244-42.778 70.327-78.125 70.097-38.155 1.665-80.35-29.566-83.39-70.442l.35-103z" fill="#fff" class="O"/><path d="M244.84 160.17H399.3v99.03c-3.926 38.567-40.995 67.395-74.868 67.176-36.565 1.595-77-28.334-79.916-67.506l.337-98.7z" stroke-width="1.022" fill="#d61517"/></g><g fill="#fff"><path d="M337.68 160.67h29.763v32.302H337.68zm-61.4 0h29.763v32.302H276.27zm-31.05 33.37h30.162v31.526H245.22zm62 0h29.467v31.526H307.22zm61.1 0h30.364v31.526H368.33zm-30.65 32.5h29.763v32H337.68zm-61.4 0h29.763v32H276.27zm30.95 32.98h29.467v32H307.22z"/><g stroke="#fff" class="G"><path d="M368.52 259.8l.008 31.447 18.122.024c8.267-12.078 11.1-23.843 11.876-31.464-.134 0-29.888-.014-30.006-.007zm-30.66 32.98l.005 31.56c12.9-2.68 23.4-8.787 29.4-13.27l.002-18.302-29.407.013zm-61.36-.06l-.043 17.832c10.125 7.385 21.688 11.707 29.4 13.37l.005-31.2-29.352-.012zm-31.22-32.96c.96 12.356 6.225 23.816 11.88 31.567l18.046-.03.003-31.55-29.93.014z"/></g></g></g></g></g></svg>