<svg xmlns="http://www.w3.org/2000/svg" xmlns:xlink="http://www.w3.org/1999/xlink" height="480" width="640" xmlns:v="https://vecta.io/nano"><defs><clipPath id="A"><path fill-opacity=".67" d="M-85.31 0h682.67v512H-85.31z"/></clipPath><path id="B" d="M-21.628 350.958h49.07v3.376h-49.07z"/><path id="C" d="M-14.312 367.842h3.376v3.28h-3.376z"/><path id="D" d="M27.57 367.736v3.376h-9.807v-3.376z"/><path id="E" d="M32.844 350.958h3.376v20.16h-3.376z"/><path id="F" d="M17.763 359.85h3.376v11.27h-3.376z"/><path id="G" d="M-3.627 358.982v3.376h-17.9v-3.376z"/><path id="H" d="M10.646 358.982v3.376h-9.6v-3.376z"/><path id="I" d="M-28.22 367.736v3.376h-18.584v-3.376z"/><path id="J" d="M89.563 367.736v3.376h-15.14v-3.376z"/><path id="K" d="M-68.83 339.507h6.048v10.505h-6.048z"/></defs><g clip-path="url(#A)" fill-rule="evenodd" transform="matrix(.9375 0 0 .9375 79.98 -.000007)"><path fill="#fff" d="M-191.96 0h896v512h-896z"/><path fill="#da0000" d="M-191.96 343.84h896V512h-896z"/><g fill="#fff"><use xlink:href="#B"/><use xlink:href="#C"/><use xlink:href="#D"/><use xlink:href="#E"/><path d="M52.38 367.736v3.376H33.794v-3.376z"/><use xlink:href="#F"/><path d="M49.614 350.958H53v20.16h-3.376zm-8.442 0h3.376v20.16h-3.376z"/><use xlink:href="#G"/><path d="M35.673 358.982v3.376h-17.9v-3.376z"/><use xlink:href="#F"/><use xlink:href="#F"/><use xlink:href="#F"/><path d="M-21.537 359.85h3.376v11.27h-3.376zm28.807 0h3.376v11.27H7.27zm-14.272 0h3.376v11.27h-3.376z"/><path d="M9.64 367.736v3.376H-5.5v-3.376z"/><use xlink:href="#H"/><path d="M-102.228 350.958h49.07v3.376h-49.07zm7.316 16.884h3.376v3.28h-3.376zm41.882-.106v3.376h-9.807v-3.376zm5.274-16.778h3.376v20.16h-3.376z"/><use xlink:href="#I"/><path d="M-62.837 359.85h3.376v11.27h-3.376zm31.85-8.892h3.376v20.16h-3.376zm-8.442 0h3.376v20.16h-3.376zm-44.8 8.024v3.376h-17.9v-3.376z"/><path d="M-44.927 358.982v3.376h-17.9v-3.376z"/><path d="M-62.837 359.85h3.376v11.27h-3.376z"/><path d="M-62.837 359.85h3.376v11.27h-3.376z"/><path d="M-62.837 359.85h3.376v11.27h-3.376zm-39.3 0h3.376v11.27h-3.376zm28.807 0h3.376v11.27h-3.376zm-14.272 0h3.376v11.27h-3.376z"/><path d="M-70.96 367.736v3.376H-86.1v-3.376zm1.006-8.754v3.376h-9.6v-3.376zm128.25-8.024h49.07v3.376h-49.07zm7.316 16.884h3.376v3.28h-3.376zm41.88-.106v3.376h-9.807v-3.376zm5.276-16.778h3.376v20.16h-3.376z"/><path d="M132.303 367.736v3.376H113.72v-3.376zm-34.616-7.886h3.376v11.27h-3.376z"/><path d="M129.54 350.958h3.376v20.16h-3.376zm-8.443 0h3.376v20.16h-3.376zm-44.8 8.024v3.376h-17.9v-3.376zm39.3 0v3.376h-17.9v-3.376z"/><path d="M97.687 359.85h3.376v11.27h-3.376z"/><path d="M97.687 359.85h3.376v11.27h-3.376z"/><path d="M97.687 359.85h3.376v11.27h-3.376zm-39.3 0h3.376v11.27h-3.376zm28.806 0h3.376v11.27h-3.376zm-14.272 0H76.3v11.27h-3.376z"/><use xlink:href="#J"/><path d="M90.57 358.982v3.376h-9.6v-3.376zm532.112-8.024h49.07v3.376h-49.07zm7.316 16.884h3.376v3.28h-3.376zm41.882-.106v3.376h-9.807v-3.376zm5.274-16.778h3.376v20.16h-3.376z"/><path d="M696.7 367.736v3.376h-18.584v-3.376zm-34.617-7.886h3.376v11.27h-3.376z"/><path d="M693.924 350.958h3.376v20.16h-3.376zm-8.442 0h3.376v20.16h-3.376zm-44.8 8.024v3.376h-17.9v-3.376zm39.3 0v3.376h-17.9v-3.376z"/><path d="M662.073 359.85h3.376v11.27h-3.376z"/><path d="M662.073 359.85h3.376v11.27h-3.376z"/><path d="M662.073 359.85h3.376v11.27h-3.376zm-39.3 0h3.376v11.27h-3.376zm28.807 0h3.376v11.27h-3.376zm-14.272 0h3.376v11.27h-3.376z"/><path d="M653.95 367.736v3.376H638.8v-3.376zm1.006-8.754v3.376h-9.6v-3.376zm-516.214-8.024h49.07v3.376h-49.07zm7.316 16.884h3.376v3.28h-3.376zm41.882-.106v3.376h-9.807v-3.376zm5.274-16.778h3.376v20.16h-3.376z"/><path d="M212.75 367.736v3.376h-18.584v-3.376zm-34.617-7.886h3.376v11.27h-3.376z"/><path d="M209.984 350.958h3.376v20.16h-3.376zm-8.442 0h3.376v20.16h-3.376zm-44.8 8.024v3.376h-17.9v-3.376zm39.3 0v3.376h-17.9v-3.376z"/><path d="M178.133 359.85h3.376v11.27h-3.376z"/><path d="M178.133 359.85h3.376v11.27h-3.376z"/><path d="M178.133 359.85h3.376v11.27h-3.376zm-39.3 0h3.376v11.27h-3.376zm28.807 0h3.376v11.27h-3.376zm-14.272 0h3.376v11.27h-3.376z"/><path d="M170 367.736v3.376h-15.14v-3.376zm1.006-8.754v3.376h-9.6v-3.376zm48.466-8.024h49.07v3.376h-49.07zm7.316 16.884h3.376v3.28h-3.376zm41.882-.106v3.376h-9.807v-3.376zm5.274-16.778h3.376v20.16h-3.376z"/><path d="M293.5 367.736v3.376h-18.584v-3.376zm-34.617-7.886h3.376v11.27h-3.376z"/><path d="M290.724 350.958h3.376v20.16h-3.376zm-8.442 0h3.376v20.16h-3.376zm-44.8 8.024v3.376h-17.9v-3.376zm39.3 0v3.376h-17.9v-3.376z"/><path d="M258.873 359.85h3.376v11.27h-3.376z"/><path d="M258.873 359.85h3.376v11.27h-3.376z"/><path d="M258.873 359.85h3.376v11.27h-3.376zm-39.3 0h3.376v11.27h-3.376zm28.807 0h3.376v11.27h-3.376zm-14.272 0h3.376v11.27h-3.376z"/><path d="M250.75 367.736v3.376H235.6v-3.376zm1.006-8.754v3.376h-9.6v-3.376z"/></g><path fill="#239f40" d="M-191.96 0h896v168.16h-896z"/><g fill="#fff"><path d="M300.692 350.958h49.07v3.376h-49.07zm7.316 16.884h3.376v3.28h-3.376zm41.882-.106v3.376h-9.807v-3.376zm5.274-16.778h3.376v20.16h-3.376z"/><path d="M374.7 367.736v3.376h-18.584v-3.376zm-34.617-7.886h3.376v11.27h-3.376z"/><path d="M371.934 350.958h3.376v20.16h-3.376zm-8.442 0h3.376v20.16h-3.376zm-44.8 8.024v3.376h-17.9v-3.376zm39.3 0v3.376h-17.9v-3.376z"/><path d="M340.083 359.85h3.376v11.27h-3.376z"/><path d="M340.083 359.85h3.376v11.27h-3.376z"/><path d="M340.083 359.85h3.376v11.27h-3.376zm-39.3 0h3.376v11.27h-3.376zm28.807 0h3.376v11.27H329.6zm-14.272 0h3.376v11.27h-3.376z"/><path d="M331.96 367.736v3.376h-15.14v-3.376zm1.006-8.754v3.376h-9.6v-3.376zm48.456-8.024h49.07v3.376h-49.07zm7.316 16.884h3.376v3.28h-3.376zm41.882-.106v3.376h-9.807v-3.376zm5.274-16.778h3.376v20.16h-3.376z"/><path d="M455.43 367.736v3.376h-18.584v-3.376zm-34.617-7.886h3.376v11.27h-3.376z"/><path d="M452.664 350.958h3.376v20.16h-3.376zm-8.442 0h3.376v20.16h-3.376zm-44.8 8.024v3.376h-17.9v-3.376zm39.3 0v3.376h-17.9v-3.376z"/><path d="M420.813 359.85h3.376v11.27h-3.376z"/><path d="M420.813 359.85h3.376v11.27h-3.376z"/><path d="M420.813 359.85h3.376v11.27h-3.376zm-39.3 0h3.376v11.27h-3.376zm28.807 0h3.376v11.27h-3.376zm-14.272 0h3.376v11.27h-3.376z"/><path d="M412.7 367.736v3.376h-15.14v-3.376zm1.006-8.754v3.376h-9.6v-3.376zm48.466-8.024h49.07v3.376h-49.07zm7.316 16.884h3.376v3.28h-3.376zm41.882-.106v3.376h-9.807v-3.376zm5.274-16.778H520v20.16h-3.376z"/><path d="M536.17 367.736v3.376h-18.584v-3.376zm-34.617-7.886h3.376v11.27h-3.376z"/><path d="M533.404 350.958h3.376v20.16h-3.376zm-8.442 0h3.376v20.16h-3.376zm-44.8 8.024v3.376h-17.9v-3.376zm39.3 0v3.376h-17.9v-3.376z"/><path d="M501.553 359.85h3.376v11.27h-3.376z"/><path d="M501.553 359.85h3.376v11.27h-3.376z"/><path d="M501.553 359.85h3.376v11.27h-3.376zm-39.3 0h3.376v11.27h-3.376zm28.807 0h3.376v11.27h-3.376zm-14.272 0h3.376v11.27h-3.376z"/><path d="M493.43 367.736v3.376H478.3v-3.376zm1.006-8.754v3.376h-9.6v-3.376zm48.936-8.024h49.07v3.376h-49.07zm7.316 16.884h3.376v3.28h-3.376zm41.882-.106v3.376h-9.807v-3.376zm5.274-16.778h3.376v20.16h-3.376z"/><path d="M617.38 367.736v3.376h-18.584v-3.376zm-34.617-7.886h3.376v11.27h-3.376z"/><path d="M614.614 350.958H618v20.16h-3.376zm-8.442 0h3.376v20.16h-3.376zm-44.8 8.024v3.376h-17.9v-3.376zm39.3 0v3.376h-17.9v-3.376z"/><path d="M582.763 359.85h3.376v11.27h-3.376z"/><path d="M582.763 359.85h3.376v11.27h-3.376z"/><path d="M582.763 359.85h3.376v11.27h-3.376zm-39.3 0h3.376v11.27h-3.376zm28.807 0h3.376v11.27h-3.376zm-14.272 0h3.376v11.27h-3.376z"/><path d="M574.64 367.736v3.376H559.5v-3.376zm1.006-8.754v3.376h-9.6v-3.376zm-759.434-8.024h49.07v3.376h-49.07zm7.316 16.884h3.376v3.28h-3.376zm41.882-.106v3.376h-9.807v-3.376zm5.274-16.778h3.376v20.16h-3.376z"/><path d="M-109.78 367.736v3.376h-18.584v-3.376zm-34.617-7.886h3.376v11.27h-3.376z"/><path d="M-112.546 350.958h3.376v20.16h-3.376zm-8.442 0h3.376v20.16h-3.376zm-44.8 8.024v3.376h-17.9v-3.376zm39.3 0v3.376h-17.9v-3.376z"/><path d="M-144.397 359.85h3.376v11.27h-3.376z"/><path d="M-144.397 359.85h3.376v11.27h-3.376z"/><path d="M-144.397 359.85h3.376v11.27h-3.376zm-39.3 0h3.376v11.27h-3.376zm28.807 0h3.376v11.27h-3.376zm-14.272 0h3.376v11.27h-3.376z"/><path d="M-152.52 367.736v3.376h-15.14v-3.376zm1.006-8.754v3.376h-9.6v-3.376zm129.886-215.54h49.07v3.376h-49.07zm7.316 16.884h3.376v3.28h-3.376zm41.882-.106v3.376h-9.807v-3.376zm5.274-16.778h3.376v20.16h-3.376z"/><path d="M52.38 160.22v3.376H33.794v-3.376zm-34.617-7.887h3.376v11.27h-3.376z"/><path d="M49.614 143.442H53v20.16h-3.376zm-8.442 0h3.376v20.16h-3.376zm-44.8 8.024v3.376h-17.9v-3.376zm39.3 0v3.376h-17.9v-3.376z"/><path d="M17.763 152.333h3.376v11.27h-3.376z"/><path d="M17.763 152.333h3.376v11.27h-3.376z"/><path d="M17.763 152.333h3.376v11.27h-3.376zm-39.3 0h3.376v11.27h-3.376zm28.807 0h3.376v11.27H7.27zm-14.272 0h3.376v11.27h-3.376z"/><path d="M9.64 160.22v3.376H-5.5v-3.376zm1.006-8.754v3.376h-9.6v-3.376zm-112.874-8.024h49.07v3.376h-49.07zm7.316 16.884h3.376v3.28h-3.376zm41.882-.106v3.376h-9.807v-3.376zm5.274-16.778h3.376v20.16h-3.376z"/><path d="M-28.22 160.22v3.376h-18.584v-3.376zm-34.617-7.887h3.376v11.27h-3.376z"/><path d="M-30.986 143.442h3.376v20.16h-3.376zm-8.442 0h3.376v20.16h-3.376zm-44.8 8.024v3.376h-17.9v-3.376zm39.3 0v3.376h-17.9v-3.376z"/><path d="M-62.837 152.333h3.376v11.27h-3.376z"/><path d="M-62.837 152.333h3.376v11.27h-3.376z"/><path d="M-62.837 152.333h3.376v11.27h-3.376zm-39.3 0h3.376v11.27h-3.376zm28.807 0h3.376v11.27h-3.376zm-14.272 0h3.376v11.27h-3.376z"/><path d="M-70.96 160.22v3.376H-86.1v-3.376zm1.006-8.754v3.376h-9.6v-3.376zm128.25-8.024h49.07v3.376h-49.07zm7.316 16.884h3.376v3.28h-3.376zm41.88-.106v3.376h-9.807v-3.376zm5.276-16.778h3.376v20.16h-3.376z"/><path d="M132.303 160.22v3.376H113.72v-3.376zm-34.616-7.887h3.376v11.27h-3.376z"/><path d="M129.54 143.442h3.376v20.16h-3.376zm-8.443 0h3.376v20.16h-3.376zm-44.8 8.024v3.376h-17.9v-3.376zm39.3 0v3.376h-17.9v-3.376z"/><path d="M97.687 152.333h3.376v11.27h-3.376z"/><path d="M97.687 152.333h3.376v11.27h-3.376z"/><path d="M97.687 152.333h3.376v11.27h-3.376zm-39.3 0h3.376v11.27h-3.376zm28.806 0h3.376v11.27h-3.376zm-14.272 0H76.3v11.27h-3.376z"/><path d="M89.563 160.22v3.376h-15.14v-3.376zm1.007-8.754v3.376h-9.6v-3.376zm532.112-8.024h49.07v3.376h-49.07zm7.316 16.884h3.376v3.28h-3.376zm41.882-.106v3.376h-9.807v-3.376zm5.274-16.778h3.376v20.16h-3.376z"/><path d="M696.7 160.22v3.376h-18.584v-3.376zm-34.617-7.887h3.376v11.27h-3.376z"/><path d="M693.924 143.442h3.376v20.16h-3.376zm-8.442 0h3.376v20.16h-3.376zm-44.8 8.024v3.376h-17.9v-3.376zm39.3 0v3.376h-17.9v-3.376z"/><path d="M662.073 152.333h3.376v11.27h-3.376z"/><path d="M662.073 152.333h3.376v11.27h-3.376z"/><path d="M662.073 152.333h3.376v11.27h-3.376zm-39.3 0h3.376v11.27h-3.376zm28.807 0h3.376v11.27h-3.376zm-14.272 0h3.376v11.27h-3.376z"/><path d="M653.95 160.22v3.376H638.8v-3.376zm1.006-8.754v3.376h-9.6v-3.376zm-516.214-8.024h49.07v3.376h-49.07zm7.316 16.884h3.376v3.28h-3.376zm41.882-.106v3.376h-9.807v-3.376zm5.274-16.778h3.376v20.16h-3.376z"/><path d="M212.75 160.22v3.376h-18.584v-3.376zm-34.617-7.887h3.376v11.27h-3.376z"/><path d="M209.984 143.442h3.376v20.16h-3.376zm-8.442 0h3.376v20.16h-3.376zm-44.8 8.024v3.376h-17.9v-3.376zm39.3 0v3.376h-17.9v-3.376z"/><path d="M178.133 152.333h3.376v11.27h-3.376z"/><path d="M178.133 152.333h3.376v11.27h-3.376z"/><path d="M178.133 152.333h3.376v11.27h-3.376zm-39.3 0h3.376v11.27h-3.376zm28.807 0h3.376v11.27h-3.376zm-14.272 0h3.376v11.27h-3.376z"/><path d="M170 160.22v3.376h-15.14v-3.376zm1.006-8.754v3.376h-9.6v-3.376zm48.466-8.024h49.07v3.376h-49.07zm7.316 16.884h3.376v3.28h-3.376zm41.882-.106v3.376h-9.807v-3.376zm5.274-16.778h3.376v20.16h-3.376z"/><path d="M293.5 160.22v3.376h-18.584v-3.376zm-34.617-7.887h3.376v11.27h-3.376z"/><path d="M290.724 143.442h3.376v20.16h-3.376zm-8.442 0h3.376v20.16h-3.376zm-44.8 8.024v3.376h-17.9v-3.376zm39.3 0v3.376h-17.9v-3.376z"/><path d="M258.873 152.333h3.376v11.27h-3.376z"/><path d="M258.873 152.333h3.376v11.27h-3.376z"/><path d="M258.873 152.333h3.376v11.27h-3.376zm-39.3 0h3.376v11.27h-3.376zm28.807 0h3.376v11.27h-3.376zm-14.272 0h3.376v11.27h-3.376z"/><path d="M250.75 160.22v3.376H235.6v-3.376zm1.006-8.754v3.376h-9.6v-3.376zm48.936-8.024h49.07v3.376h-49.07zm7.316 16.884h3.376v3.28h-3.376zm41.882-.106v3.376h-9.807v-3.376zm5.274-16.778h3.376v20.16h-3.376z"/><path d="M374.7 160.22v3.376h-18.584v-3.376zm-34.617-7.887h3.376v11.27h-3.376z"/><path d="M371.934 143.442h3.376v20.16h-3.376zm-8.442 0h3.376v20.16h-3.376zm-44.8 8.024v3.376h-17.9v-3.376zm39.3 0v3.376h-17.9v-3.376z"/><path d="M340.083 152.333h3.376v11.27h-3.376z"/><path d="M340.083 152.333h3.376v11.27h-3.376z"/><path d="M340.083 152.333h3.376v11.27h-3.376zm-39.3 0h3.376v11.27h-3.376zm28.807 0h3.376v11.27H329.6zm-14.272 0h3.376v11.27h-3.376z"/><path d="M331.96 160.22v3.376h-15.14v-3.376zm1.006-8.754v3.376h-9.6v-3.376zm48.456-8.024h49.07v3.376h-49.07zm7.316 16.884h3.376v3.28h-3.376zm41.882-.106v3.376h-9.807v-3.376zm5.274-16.778h3.376v20.16h-3.376z"/><path d="M455.43 160.22v3.376h-18.584v-3.376zm-34.617-7.887h3.376v11.27h-3.376z"/><path d="M452.664 143.442h3.376v20.16h-3.376zm-8.442 0h3.376v20.16h-3.376zm-44.8 8.024v3.376h-17.9v-3.376zm39.3 0v3.376h-17.9v-3.376z"/><path d="M420.813 152.333h3.376v11.27h-3.376z"/><path d="M420.813 152.333h3.376v11.27h-3.376z"/><path d="M420.813 152.333h3.376v11.27h-3.376zm-39.3 0h3.376v11.27h-3.376zm28.807 0h3.376v11.27h-3.376zm-14.272 0h3.376v11.27h-3.376z"/><path d="M412.7 160.22v3.376h-15.14v-3.376zm1.006-8.754v3.376h-9.6v-3.376zm48.466-8.024h49.07v3.376h-49.07zm7.316 16.884h3.376v3.28h-3.376zm41.882-.106v3.376h-9.807v-3.376zm5.274-16.778H520v20.16h-3.376z"/><path d="M536.17 160.22v3.376h-18.584v-3.376zm-34.617-7.887h3.376v11.27h-3.376z"/><path d="M533.404 143.442h3.376v20.16h-3.376zm-8.442 0h3.376v20.16h-3.376zm-44.8 8.024v3.376h-17.9v-3.376zm39.3 0v3.376h-17.9v-3.376z"/><path d="M501.553 152.333h3.376v11.27h-3.376z"/><path d="M501.553 152.333h3.376v11.27h-3.376z"/><path d="M501.553 152.333h3.376v11.27h-3.376zm-39.3 0h3.376v11.27h-3.376zm28.807 0h3.376v11.27h-3.376zm-14.272 0h3.376v11.27h-3.376z"/><path d="M493.43 160.22v3.376H478.3v-3.376zm1.006-8.754v3.376h-9.6v-3.376zm48.936-8.024h49.07v3.376h-49.07zm7.316 16.884h3.376v3.28h-3.376zm41.882-.106v3.376h-9.807v-3.376zm5.274-16.778h3.376v20.16h-3.376z"/><path d="M617.38 160.22v3.376h-18.584v-3.376zm-34.617-7.887h3.376v11.27h-3.376z"/><path d="M614.614 143.442H618v20.16h-3.376zm-8.442 0h3.376v20.16h-3.376zm-44.8 8.024v3.376h-17.9v-3.376zm39.3 0v3.376h-17.9v-3.376z"/><path d="M582.763 152.333h3.376v11.27h-3.376z"/><path d="M582.763 152.333h3.376v11.27h-3.376z"/><path d="M582.763 152.333h3.376v11.27h-3.376zm-39.3 0h3.376v11.27h-3.376zm28.807 0h3.376v11.27h-3.376zm-14.272 0h3.376v11.27h-3.376z"/><path d="M574.64 160.22v3.376H559.5v-3.376zm1.006-8.754v3.376h-9.6v-3.376zm-759.434-8.024h49.07v3.376h-49.07zm7.316 16.884h3.376v3.28h-3.376zm41.882-.106v3.376h-9.807v-3.376zm5.274-16.778h3.376v20.16h-3.376z"/><path d="M-109.78 160.22v3.376h-18.584v-3.376zm-34.617-7.887h3.376v11.27h-3.376z"/><path d="M-112.546 143.442h3.376v20.16h-3.376zm-8.442 0h3.376v20.16h-3.376zm-44.8 8.024v3.376h-17.9v-3.376zm39.3 0v3.376h-17.9v-3.376z"/><path d="M-144.397 152.333h3.376v11.27h-3.376z"/><path d="M-144.397 152.333h3.376v11.27h-3.376z"/><path d="M-144.397 152.333h3.376v11.27h-3.376zm-39.3 0h3.376v11.27h-3.376zm28.807 0h3.376v11.27h-3.376zm-14.272 0h3.376v11.27h-3.376z"/><path d="M-152.52 160.22v3.376h-15.14v-3.376zm1.006-8.754v3.376h-9.6v-3.376z"/></g><g fill="#d90000"><use xlink:href="#K"/><path d="M91.702 339.507h6.048v10.505h-6.048zm-283.706 0h6.048v10.505h-6.048zm81.476 0h6.048v10.505h-6.048zm80.895 0h6.048v10.505h-6.048zm40.023 0h6.048v10.505H10.4zm40.862 0H57.3v10.505h-6.048zm80.475 0h6.048v10.505h-6.048zm203.056 0h6.048v10.505h-6.048zm-162.197 0h6.048v10.505h-6.048zm40.034 0h6.048v10.505h-6.048zm40.44 0h6.048v10.505h-6.048zm40.447 0h6.048v10.505h-6.048zm323.143 0h6.048v10.505h-6.048zm-242.67 0h6.048v10.505h-6.048zm40.86 0h6.048v10.505h-6.048zm41.284 0h6.048v10.505h-6.048zm38.776 0h6.048v10.505H494.9zm41.274 0h6.048v10.505h-6.048zm40.448 0h6.048v10.505h-6.048zm119.674 0h6.048v10.505h-6.048zm-38.778 0h6.048v10.505h-6.048zm-808.918 0h6.048v10.505h-6.048z"/></g><g fill="#239e3f"><path d="M-68.83 162.607h6.048v10.505h-6.048zm160.532 0h6.048v10.505h-6.048zm-283.706 0h6.048v10.505h-6.048zm81.476 0h6.048v10.505h-6.048zm80.895 0h6.048v10.505h-6.048zm40.023 0h6.048v10.505H10.4zm40.862 0H57.3v10.505h-6.048zm80.475 0h6.048v10.505h-6.048zm203.056 0h6.048v10.505h-6.048zm-162.197 0h6.048v10.505h-6.048zm40.034 0h6.048v10.505h-6.048zm40.44 0h6.048v10.505h-6.048zm40.447 0h6.048v10.505h-6.048zm323.143 0h6.048v10.505h-6.048zm-242.67 0h6.048v10.505h-6.048zm40.86 0h6.048v10.505h-6.048zm41.284 0h6.048v10.505h-6.048zm38.776 0h6.048v10.505H494.9zm41.274 0h6.048v10.505h-6.048zm40.448 0h6.048v10.505h-6.048zm119.674 0h6.048v10.505h-6.048zm-38.778 0h6.048v10.505h-6.048zm-808.918 0h6.048v10.505h-6.048z"/></g><g fill="#da0000"><path d="M279.8 197.5c8.453 10.36 34.5 67.652-15.73 105.18-23.62 17.776-8.994 18.674-8.295 21.662 37.966-20.166 50.365-47.5 50.077-71.965s-13.266-46.103-26.052-54.874zm5.026-2.664c18.75 9.6 59.553 57.88 15.635 112.344 27.288-6.056 61.98-86.417-15.635-112.344z"/><path d="M227.245 194.826c-18.75 9.6-59.553 57.88-15.635 112.344-27.288-6.056-61.98-86.417 15.635-112.344zm4.955 2.664c-8.453 10.36-34.5 67.652 15.73 105.18 23.62 17.776 8.994 18.674 8.295 21.662-37.966-20.166-50.365-47.5-50.077-71.965s13.266-46.103 26.052-54.874z"/><path d="M304.198 319.11c-14.86.235-33.594-2.048-47.487-9.267 2.288 4.45 4.19 7.252 6.477 11.7 13.25 1.222 31.535 2.734 41.01-2.434z"/><path d="M209.225 319.1c14.86.235 33.594-2.048 47.487-9.267-2.288 4.45-4.2 7.252-6.477 11.7-13.25 1.222-31.535 2.734-41-2.434zm27.257-138.713c3 8.002 10.9 9.165 19.364 4.454 6.162 3.697 15.7 3.93 18.976-4.066 2.5 19.784-18.305 15.104-19.08 11.23-7.745 7.487-22.164 3.162-19.26-11.618z"/><path d="M256.402 331.57l7.813-8.93 1.117-120.178-9.3-8.186-9.3 7.813L248.59 323l7.813 8.557z"/></g></g></svg>