<svg xmlns="http://www.w3.org/2000/svg" height="480" width="640" xmlns:v="https://vecta.io/nano"><style><![CDATA[.B{fill-opacity:.996}.C{stroke:#000}.D{fill:#fdc400}.E{stroke-width:.498}.F{fill-rule:evenodd}.G{fill:#d40f0f}.H{fill:#003017}.I{stroke-width:.963}]]></style><path fill="#006" d="M0 0h640v480H0z"/><g transform="matrix(.78125 0 0 .78125 0 -.00001)"><path fill="#006" d="M0 0h512v256H0z" class="F"/><g fill="#fff"><path d="M0 0v34.675L428.047 310.14h53.88v-34.674L53.88.001H0zm481.926 0v34.674L53.88 310.14H0v-34.674L428.047 0h53.88z"/><path d="M200.803 0v310.14h80.32V0h-80.32zM0 103.38v103.38h481.926V103.38H0z"/></g><path d="M0 124.056v62.028h481.926v-62.028H0zM216.867 0v310.14h48.193V0h-48.193zM0 310.14l160.642-103.38h35.92L35.92 310.14H0zM0 0l160.642 103.38h-35.92L0 23.117V0zm285.364 103.38L446.006 0h35.92L321.284 103.38h-35.92zm196.562 206.76L321.284 206.76h35.92l124.722 80.264v23.116z" fill="#c00"/></g><g transform="matrix(1.024 0 0 1.024 -283.01 45.714)"><g class="F"><path d="M714.2 130.3c-.986.596-2.958 2.383-4.93 1.788s-6.41-8.342-11.34-7.15-7.888 2.98-9.86 2.98-7.395 1.788-7.395 6.554.493 8.343 1.48 8.343 2.465-2.98 2.465-2.98.493 5.96 3.944 5.96 10.846.596 11.34 2.384-3.45 5.96-2.465 9.534 5.423 9.534 5.423 9.534-6.41 4.767-6.41 7.747.986 5.96.986 5.96l-28.594 1.19-.986 91.173 3.45 22.642s-6.41-2.084-11.832 3.28-24.403 14.597-24.896 18.768-2.218 7.748-.246 10.727 8.91 11.074 6.902 10.727c-6.62-1.142-9.08-10.545-13.557-14.003-4.398-3.396-13.064-2.682-14.05.89s-.493 9.534 0 10.727 5.916 20.26 7.395 24.432 17.008 10.426 23.9 9.832c13.064.297 18.98-5.66 19.473-5.062s28.106 29.07 84.795 29.197c44.13.098 77.4-28.603 77.4-28.005s18.24 5.958 24.65 4.17 15.776-5.96 17.748-10.132 7.395-25.624 7.888-29.197 0-7.748-4.437-8.94-6.902-.895-9.367.297-3.205 4.472-6.902 10.43c-1.972 1.8-7.148 6.555-5.67 5.363s4.683-10.13 5.177-13.11 1.972-8.342-1.48-11.32-8.737-4.196-14.8-8.64c-5.748-3.94-10.352-10.43-13.804-10.43s-7.395-1.787-6.902-1.787 4.445-8.657 3.46-17.594.485-94.434-.008-94.434-24.65 1.788-24.65.596 1.972-9.534 0-14.897-10.353-8.94-7.888-10.13 13.31-4.17 12.818-8.94-7.395-4.17-10.353-5.96-11.832-10.13-12.818-10.13 25.635-16.09 23.664-16.09-12.325-2.98-15.776-1.192c0-2.98 14.297-11.918 11.832-13.1s-13.804-2.384-10.846-2.98 3.944-7.747 3.45-7.747-12.818 1.788-12.818 1.788-2.958-4.17-3.944-4.17-5.423 2.383-5.423 2.383l-2.465-6.555-5.423 3.576-2.465-2.98s-4.437 1.192-4.437 0c.186-.043-.51-2.992-1.208-2.992s-5.578 3.792-5.752 3.58-5.577-7.795-5.577-7.584-3.835 14.326-4.01 14.326-3.835.42-4.01.632-19.522-11.166-19.347-10.955 5.054 10.955 5.054 10.955-4.183 2.318-4.183 2.528.697 4.845.697 4.845l-12.9-4.425s4.88 9.902 4.532 9.902-9.586.42-9.412.42 4.357 8.216 4.357 8.216l-1.57 4.846s13.884 9.798 12.898 10.394zm82.33 207.37c1.232 1.787 7.888 10.13 6.902 10.13s-17.5 11.024-24.157 13.11-28.347 5.958-27.115 5.66 19.48-10.288 26.874-15.053 17.495-13.252 17.495-13.847zm-103.04-.3c-.986 1.192-5.67 10.43-5.67 10.43s13.557 9.534 23.664 13.11 27.36 4.765 26.375 4.468-21.692-9.534-27.608-14.3l-16.762-13.71z" fill="#fff"/><g stroke="#6d6666" fill="#fec500"><g stroke-width=".467"><path d="M704.32 116.714l10.6 7.746c1.972 1.5 8.38 8.044 8.874 7.747s3.944-3.575 3.944-3.575-7.148-6.853-11.585-8.342-11.832-2.98-11.832-3.575z"/><path d="M703.088 109.86c.74 0 14.297 8.343 18.487 12.514s5.916 9.534 6.4 9.534 6.902-1.192 6.655-1.192-2.958-10.726-9.12-14.003-22.185-6.853-22.43-6.853zm63.842-21.553c-.246 0-2.7 8.938-3.45 11.62s-1.972 8.342-1.972 8.342-10.846 1.192-10.353-.298 16.515-19.664 15.776-19.664z"/><path d="M705.552 99.135s12.818 10.428 17.255 16.387 8.874 16.387 9.12 16.387 12.078-2.98 12.078-2.682-13.804-16.685-20.46-21.75-17.748-7.747-17.994-8.342z"/><path d="M718.864 96.352s6.41 11.918 7.64 16.09 4.93 14.897 4.93 14.897h10.106s-4.93-13.407-10.353-19.962-12.078-10.428-12.325-11.024z"/><path d="M722.312 89.797c.247.894 9.367 11.322 11.586 18.174s3.944 15.493 3.944 15.493l8.874-2.682s-7.888-17.58-12.818-22.346-11.092-8.044-11.586-8.64zm73.705 28.11s-18.487 2.384-25.143 4.47-10.353 9.832-10.353 9.832 8.628 3.873 9.12 3.277 5.67-6.853 11.34-9.236 15.53-8.044 15.036-8.342z"/><path d="M795.276 103.306c-.493.298-15.283 14.897-19.966 19.664s-9.12 9.832-9.613 10.13-9.613-1.49-9.12-2.085 13.557-13.407 22.185-19.068 15.776-8.044 16.515-8.64z"/><path d="M791.58 92.877c-1.48 2.085-16.022 16.387-19.966 21.452s-10.353 14.003-10.353 14.003-7.642-4.17-7.148-5.96 10.846-12.215 18.24-18.174 19.966-10.726 19.227-11.322z"/><path d="M776.8 91.684c-.246.298-8.874 11.322-10.6 14.3s-6.902 16.09-6.902 16.09-7.64-8.044-7.64-8.342 9.613-12.514 15.283-17.28 10.106-3.873 9.86-4.767z"/></g><g class="E"><path d="M755.42 107.963c0 2.094-1.405 3.792-3.138 3.792s-3.138-1.698-3.138-3.792 1.405-3.792 3.138-3.792 3.138 1.698 3.138 3.792zm6.275 5.06c0 1.862-1.405 3.37-3.138 3.37s-3.138-1.5-3.138-3.37 1.405-3.37 3.138-3.37 3.138 1.5 3.138 3.37z"/><path d="M747.75 109.228c0 1.862-1.717 3.37-3.835 3.37s-3.835-1.5-3.835-3.37 1.717-3.37 3.835-3.37 3.835 1.5 3.835 3.37zm10.1 6.954c0 3.607-1.95 6.53-4.357 6.53s-4.357-2.924-4.357-6.53 1.95-6.53 4.357-6.53 4.357 2.924 4.357 6.53z"/><path d="M746.01 116.392c0 2.793-1.95 5.056-4.357 5.056s-4.357-2.264-4.357-5.056 1.95-5.056 4.357-5.056 4.357 2.264 4.357 5.056z"/><path d="M740.08 120.396c0 2.443-1.483 4.424-3.312 4.424s-3.312-1.98-3.312-4.424 1.483-4.424 3.312-4.424 3.312 1.98 3.312 4.424zm24.403-.424c0 2.9-2.263 5.267-5.055 5.267s-5.055-2.358-5.055-5.267 2.263-5.267 5.055-5.267 5.055 2.358 5.055 5.267zm-12.2-7.585c0 1.745-1.795 3.16-4 3.16s-4-1.415-4-3.16 1.795-3.16 4-3.16 4 1.415 4 3.16z"/><path d="M752.98 119.342c0 2.56-2.497 4.635-5.578 4.635s-5.578-2.075-5.578-4.635 2.497-4.635 5.578-4.635 5.578 2.075 5.578 4.635zm14.3 8.215c0 3.142-2.34 5.688-5.23 5.688s-5.23-2.547-5.23-5.688 2.34-5.688 5.23-5.688 5.23 2.547 5.23 5.688z"/><path d="M738.687 126.082c0 2.094-1.327 3.792-2.963 3.792s-2.963-1.698-2.963-3.792 1.327-3.792 2.963-3.792 2.963 1.698 2.963 3.792zm20.915-.632c0 2.676-2.03 4.846-4.532 4.846s-4.532-2.17-4.532-4.846 2.03-4.846 4.532-4.846 4.532 2.17 4.532 4.846z"/><path d="M745.3 125.24c0 2.327-1.795 4.213-4.01 4.213s-4.01-1.886-4.01-4.213 1.795-4.213 4.01-4.213 4.01 1.886 4.01 4.213z"/><path d="M752.284 126.502c0 2.56-1.873 4.635-4.183 4.635s-4.183-2.075-4.183-4.635 1.873-4.635 4.183-4.635 4.183 2.075 4.183 4.635zm-18.13-27.81c1.046 0 8.366 2.95 8.366 2.95l-7.67 3.792c1.394-.42 10.1-1.685 9.412-1.685s-7.67 8.006-5.578 7.584 6.275-5.477 6.623-5.477 4.532 8.006 4.88 7.584 0-8.006.348-8.006 8.715 5.056 8.018 4.635-5.577-6.32-5.23-6.32 11.504 1.264 10.807.843-7.32-4.213-7.32-4.213 4.88-5.477 3.835-5.477-9.064 5.477-8.366 5.056 8.715-11.376 8.715-11.376l-8.018 4.635s1.394-6.742.697-6.32-6.275 8.85-6.623 8.85-1.743-8.427-1.743-8.427.35 9.27-1.743 9.7-9.412 2.107-9.412 1.685z"/></g></g><path d="M711.444 166.818c.174.843 5.752 16 14.293 15.6s12.027-2.95 11.678-3.16-4-2.74-6.1-8.217-2.44-7.795-2.44-7.795l-17.43 3.582zm30.503-5.898s6.275 14.958 9.064 17.064 9.238 3.792 12.027 3.582 6.1 0 6.1 0-2.8-1.475-5.055-9.7l-2.963-10.955h-19.173zm38.346 5.477s-1.22 10.955 0 13.694 7.32 7.795 7.32 7.795 7.32-1.053 7.495-7.795-2.44-13.062-2.44-13.062l-12.375-.632z" fill="#00389b"/><g class="C E"><g fill="#005120"><path d="M705.517 147.225s.35 1.685 0 2.95-3.312 4.635-3.312 7.374 3.486 11.166 14.118 11.377 24.053-6.952 23.88-7.163-25.448-20.646-25.796-20.436-8.9 6.32-8.9 5.9zm70.243 14.537s2.266 7.374 3.137 8.217 1.22 2.528 1.394 2.528 14.64 3.792 14.64 3.792 1.394-4.845-.697-8.638-9.935-13.694-9.935-13.694l-8.542 7.795zm9.935-9.06c.348 0 3.835 3.58 6.623 1.685s7.32-6.952 7.32-6.952-3.835 1.475-6.623 1.264-7.146 4.213-7.32 4.003z"/><path d="M704.995 148.068s-1.046-3.582-3.835-3.792-7.844.42-9.586-1.264-2.266-5.688-3.138-5.478-3.138 0-3.312 0-1.046-3.37 1.394-5.056 4.532-.21 5.926-1.475 3.486-2.107 6.275-2.317 7.32 4.214 9.412 5.267 6.623 2.317 8.366 1.264 11.504-5.688 15-5.9 10.807-.42 13.595-.21 13.77 1.896 17.08 3.792 20.916 9.27 23.356 10.955 7.844 4.213 7.844 4.213-9.587 11.377-14.293 13.273-19.696 4.846-28.585 4.213-15.86-1.685-22.66-5.9-14.12-8.216-14.47-10.323-.174-4.845-.174-4.845l-8.192 3.582z"/><path d="M694.187 134.374c-.35.21-2.09 1.053-1.743 1.475s1.046 1.685 3.138 1.475 4.357-1.685 4.357-1.685-2.614-1.475-5.752-1.264z"/></g><path d="M694.013 134.795v2.317s2.44.843 2.44.21.174-2.107-.35-2.107-1.917-.21-2.09-.42z"/></g><path d="M718.412 136.547c.616-1.34 0-3.128 3.574-5.214s9.798-1.5 9.798-1.5-1.787 1.64-1.85 3.352.123 2.458.123 2.458-3.4-1.34-5.978-.52-5.608 1.64-5.67 1.415zm16.025-7.3c-.37.223-3.08 3.873-2.773 5s3.944 3.8 5.115 3.575 6.532-3.352 6.84-4.916.555-3.65.123-4.097-9.244.596-9.305.447zm11.77-.595c-.678.82-.43 4.767-.185 5.214s4.5 5.586 5.423 5.884 7.765-.52 8.32-1.415 2.218-4.692 1.725-5.586-1.972-2.086-6.532-3.277-7.272-1.043-8.75-.82zm17.437 5c1.1.67 7.58 4.47 11.4 7.523s5.36 6.555 6.47 6.853 5.608-2.98 5.793-3.873-5.484-5.66-9.305-7.82-14.36-2.458-14.36-2.68zm-1.354 3.203c-.555.596 6.902 16.312 8.32 16.834s9.922-3.054 9.798-4.246-2.342-3.575-7.58-7.076-9.5-5.8-10.538-5.512zm-9.244 5.735c-1.17.82-3.02 14.897-1.85 15.567s15.6-1.713 16.146-3.277-5.916-14.003-7.827-14.003-5.36.596-6.47 1.713zm-14.913-2.98c-1.54 1.713-1.232 14.822-.555 15.642s9.243 3.5 10.168 2.532 2.157-15.716 1.294-16.834-3.266-3.8-5.115-4.022-4.93 2.16-5.793 2.68zm-19.35-.223c-1.418 1.34-1.48 4.84.06 5.438s5.36 2.607 8.936 4.47 5.608 4.097 6.655 4.022 2.034-13.184.924-13.93-4.375-1.34-7.457-1.192-7.58.52-9.12 1.192z" stroke="#000007" fill="#001707" class="E"/><path d="M655.26 306.14c2.528-2.462 6.46-8.48 11.798-8.752s10.956 4.65 10.956 4.65l5.337 22.976c-.28 0-9.27 6.564-9.55 6.564s-3.933-9.026-7.304-8.206-3.1 13.13-3.652 12.3-14.888-17.78-14.326-18.326 7.023-10.393 6.742-11.214zm148.34-3c1.685-.273 9.27-6.017 14.607-5.743s8.428 2.735 11.237 5.196 6.18 8.752 6.18 8.752-6.742 18.6-7.303 18.6-3.372 1.642-3.933.274-2.247-5.745-5.618-6.292-4.213 6.017-4.213 6.017L803.6 303.13z" class="G B"/><g fill="#fddc59" class="B"><path d="M807.24 308.88c0 1.642 10.394 27.353 27.25 32.275s22.192-4.65 24.157-7.93 9-3 9-3-1.685 24.07-4.495 27.078-5.057 9.573-20.787 9.846-30.057-14.77-34.832-19.146-10.957-15.863-13.485-21.06 13.484-17.504 13.203-18.052zm-183.16 51.14c.28 0 7.585 7.932 18.26 7.1s28.934-7.1 37.36-18.052 12.64-22.702 12.64-22.702l-12.64-21.88c-.28 0-1.404 7.1-3.652 11.76s-8.427 17.778-18.82 21.882-10.394 5.743-14.607 5.196-15.17-7.1-15.17-7.385-5.337 12.856-5.337 12.856-1.124 8.48 1.966 11.214z"/><path d="M655.07 305.38c-.795 0-20.658 10.83-19.863 15.473s34.165 70.4 105.67 71.172 115.2-59.57 112.03-69.626-25.424-21.66-25.424-21.66 5.56 4.642 4.767 10.83-25.426 59.57-87.4 58.023-91.372-48.738-91.372-54.154 3.178-8.5 1.59-10.057z"/></g><path d="M848.8 353.2c1.687-1.368 12.08-29.814 17.98-28.993s3.933 9.3 3.372 11.488-6.462 21.88-6.462 21.88.282-4.65-3.652-5.743-10.394 1.915-11.237 1.368zm-224.72 7.1c0-1.546-4.767-6.962.794-8.5s12.713 1.548 12.713 1.548-3.973-11.605-8.74-20.888-6.356-7.735-10.33-6.2-3.876 5.642-1.492 11.83 7.054 23.756 7.054 22.208z" class="G B"/><path d="M689.635 307.26l6.897-23.363-19.156-14.686 23.992-.553 7.825-23.055 7.932 23.016 23.992.444-19.09 14.775 7 23.327-19.727-13.884z" class="D"/><path d="M818.99 185.663v89.883c.177 43.93-44.618 82.396-74.362 89.883-29.747-7.488-74.54-45.955-74.362-89.88v-89.883H818.99z" fill="#fff"/><path d="M670.264 185.663l.126 56.238s.715-1.15 10.497-.45 10.623 12.398 21.247 12.398 10.623-12.398 21.246-12.398 10.623 12.398 21.246 12.398 10.623-12.398 21.246-12.398 10.623 12.398 21.847 13.107c10.022-.71 10.022-13.107 20.705-13.808l10.563.7v-55.8H670.265z" stroke-width=".488" class="B C G"/><path d="M670.264 260.05v18.597h10.623c9.782.7 10.623 12.398 21.246 12.398s10.623-12.398 21.246-12.398 10.623 12.398 21.246 12.398 10.623-12.398 21.247-12.398 10.022 11.7 21.246 12.398c10.022-.7 10.563-11.696 21.246-12.398h10.623V260.05h-10.623c-10.623 0-10.623 12.398-21.246 12.398s-10.623-12.398-21.246-12.398-10.623 12.398-21.247 12.398-10.623-12.398-21.246-12.398-10.623 12.398-21.246 12.398-10.623-12.398-21.246-12.398h-10.623zm3.206 37.2l7.42 18.597c9.782.7 10.623 12.398 21.246 12.398s10.623-12.398 21.246-12.398 10.623 12.398 21.246 12.398 10.623-12.398 21.247-12.398 10.022 11.7 21.246 12.398c10.022-.7 10.317-11.696 21-12.398l7.665-18.884-7.42.288c-10.623 0-10.623 12.398-21.246 12.398s-10.623-12.398-21.246-12.398-10.623 12.398-21.247 12.398-10.623-12.398-21.246-12.398-10.623 12.398-21.246 12.398-10.623-12.398-21.246-12.398h-7.42zm71.16 68.187c10.623 0 34.964-18.597 34.715-18.597.247 0-2.846-12.398-13.47-12.398s-10.623 12.398-21.247 12.398-10.623-12.398-21.246-12.398-13.335 12.398-13.358 12.398c-.493 0 23.982 18.597 34.604 18.597z" fill="#0062bb" class="B"/><path d="M689.707 228.577c1.205 0 12.047 1.572 19.877 1.048s10.843-3.145 10.843-3.67v-1.572h10.24s1.807 7.336.602 7.86-4.217 2.62-4.82 2.62 0-3.67-1.204-2.62-1.807 2.62-1.807 2.62-1.204-1.573-1.807-1.573-1.807 1.573-1.807 1.573 0-1.573-.604-1.573-3.613 2.62-3.613 2.62l-3-2.097s-1.808 2.62-2.4 2.62-4.216-2.096-4.216-2.096l-6.024 3.144s0-4.717-1.205-4.193-7.83.524-7.83.524-1.807 3.145-2.4 3.145-3.012-2.62-2.4-2.62 1.807-1.573 1.205-2.097-3.614 0-3.614-.524-1.205-3.67-.602-3.67 3.012.525 3.012.525v-3.145h3.012l.602 3.145zm10.843-29.874c-.602 0-4.82 4.192-4.217 8.908s10.843 11.53 10.843 11.53 5.422-2.096 7.228 0 1.807 8.384 1.204 8.384-7.83 1.573-7.83.524 0-2.096-.602-2.096-7.228.524-7.228.524l.602-2.096-6.024-1.048 2.4-2.097s-9.638-3.668-9.035-3.668 4.217-2.096 4.217-2.096l-7.228-4.193h4.217s-6.024-4.193-5.42-4.193 3.614.524 3.614.524l-1.807-4.192h1.807l-1.807-3.144 3.012-1.048 1.807 2.62-.602-6.288 4.216.524v5.24s1.807-3.144 1.807-3.668 5.42 2.096 4.82 1.048z" class="C D I B"/><path d="M793.92 231.2c-.753.655-3.013 2.096-3.013 2.096l4.97-.393c-.15 0-1.807-1.3-1.958-1.703zm4.368 2.476c-.3.393-1.204 4.454-.602 4.192s3-3.275 3-3.275l-2.4-.917zm6.916.524l3.764 3.012c-.45-.654-.904-3.406-1.204-3.536s-2.26.785-2.56.524zm-60.678-4.323c-.45.13-4.216 2.62-4.216 2.62l6.022-1.05c-.3 0-1.958-1.178-1.807-1.572zm3.912 3.15c-.602.524-2.56 4.192-1.807 4.062s4.066-2.5 4.066-2.5l-2.26-1.572zm-2.418-5.112c-.45-.13-3.615-1.442-3.464-1.442s4.217-.917 4.217-.917l-.753 2.358zm-59.626-1.694l-4.518-3.145 5.722 1.572-1.205 1.573zm-3.914 2.1c-.602 0-6.325 3.144-6.174 3.144h7.83c-.15-.13-1.355-2.88-1.656-3.144zm3.612 4.6c-.602.263-5.12 3.275-4.82 3.275h6.777c0-.13-1.807-3.144-1.958-3.275zm-.592-32.63l-1.506-3.668c.15 0 4.216 2.882 4.216 2.882l-2.7.786zm4.508-4.584c0-.13.452-2.358.452-2.358l3.915 2.75c-.15 0-4.066 0-4.367-.393zm6.325 1.704c0-.13.452-3.406.452-3.406s3.765 4.454 3.464 4.585-3.614-.655-3.915-1.18z" class="B"/><g class="C D I B"><path d="M756.713 220.31c0 .263 6.324 4.717 6.475 5.765s-11.445 1.3-11.445 1.3-3.313-2.227-4.367-2.097-1.506 2.358-1.506 2.358l2.71 1.3-5.12.26 1.506 2.5 3.915-.263-.904 2.358s2.41 1.573 2.862 1.3 1.958-2.62 3.162-3.014 3.764-.393 3.764-.393-1.958 2.882-1.054 2.882 4.97-3.014 4.97-3.014.904 2.75 1.054 2.75 3.013-3.144 3.013-3.144 0 2.5.45 2.5 4.668-3.145 4.668-3.145 3.313 3.67 3.764 3.406.904-3.93 1.355-3.93 3.313-.393 3.313-.524-1.807-1.442-2.11-3.275.302-6.157.15-6.157-20.33.654-20.63.26z"/><path d="M724.637 212.33h59.03c6.024 0 11.444-2.096 11.444-5.24s-9.637-3.668-13.25-2.62-19.276 7.336-25.902 6.812-12.648-4.193-13.25-7.86 3.01-6.813 9.637-6.813 15.06 2.096 16.866 1.572 6.024-4.716 7.83-5.24 7.228-1.048 7.228-1.048l-2.41 1.572 7.83-1.572s-6.024 5.764-12.048 7.337-18.672 1.048-23.492 1.048-7.228-.524-6.626 2.62 4.217 5.24 7.228 4.716 12.048-3.143 12.048-3.143l-2.4-1.572 10.843-.524s-.602-1.572 0-1.572 6.024.524 6.024.524-3.615-1.572-3.013-1.572 3.013 0 7.83.524 15.06 2.096 14.457 6.288-4.216 7.86-8.433 7.86-7.83-1.048-7.83.525 4.82 2.62 7.83 2.62 6.626-2.096 7.228-2.096 1.807 3.144 2.41 3.144 4.217-1.048 4.217-1.048l-2.41 5.765 4.216 1.048s-2.41 2.096-1.807 2.096 4.216 0 4.216.524-4.818 3.67-4.818 4.193 3.613 2.096 3.613 2.096-2.41 3.145-3.01 2.62-3.013-3.145-3.013-3.145-.602 2.097-1.807 2.097-3.613-.524-3.613-.524 1.807-3.145 1.204-3.145-3.615 2.096-3.615 1.572l-1.805-1.576s4.818-1.703 4.818-4.193-1.958-4.978-10.69-5.37-8.886 1.833-15.36 1.572-6.475-2.5-11.295-2.5-19.727 5.24-26.654 5.11-15.66-.524-15.36-.785 5.723-12.316 5.873-12.705z"/><path d="M713.198 209.315c-.602.263-5.873.918-6.175 5.765s.453 4.848 1.055 4.585 1.807-4.454 1.807-4.454-1.807 5.765.15 7.075a14.55 14.55 0 0 0 4.066 1.833l.752-4.585s-1.505 4.455 2.11 6.027 4.97.393 4.668-.787-1.355-4.192-1.355-4.192l3.013 3.012c.15.263 1.505 2.358 5.12 1.442s1.054-3.014 1.054-3.014l-4.367-3.136s4.518 4.06 6.475 2.62-1.506-4.585-1.355-4.454 2.862 4.454 3.915 1.703-1.656-3.538-2.56-6.157-1.657-2.882-.753-4.455 1.055-4.585 1.055-4.585 3.764.786 3.463-1.965-4.066-3.406-4.818-3.537-.604-2.882-.904-2.75-2.71 1.703-2.71 1.703-2.11-4.323-2.56-4.06-2.862 2.49-4.668 2.62-2.862 2.358-2.862 2.358-6.324-2.62-6.173 1.703 3.764 3.275 3.764 3.406-.602 6.027-1.204 6.288z"/></g><path d="M716.684 202.68c.725-.222 1.8-1.147 3.025-1.035s3.214 1.06 2.234 1.577-1.704.74-2.812.48-1.958-.817-2.447-1.02zm12.283-.133c-.725-.222-1.8-1.147-3.025-1.035s-3.214 1.06-2.234 1.577 1.704.74 2.812.48 1.958-.817 2.447-1.02z" class="B"/><path d="M719.424 210.282c.15.655.602 6.16.903 5.765s2.56-5.633 2.4-5.633-3.162.13-3.313-.13z" fill="#000039" stroke-width=".578" class="B C"/></g><g fill="none" class="C"><path d="M717.914 210.47c.072-1.55 1.204-1.44 3.615-1.18s3.613 1.3 3.463 1.573-2.107.917-3.764.785c-1.958-.524-3.367.113-3.313-1.18z" stroke-width="1.156"/><path d="M721.534 206.53l-.302 2.5m10.398-9.175s1.958.786 1.657 1.572-1.657 1.18-1.657 1.18m-16.412-3.407c-.45.13-1.054.393-1.355 1.44s1.355 1.703 1.355 1.703m4.712 2.34s-2.13 1.854 1.5 1.854 1.065-1.667 1.065-1.667" stroke-width="2.056"/></g><g class="F"><path d="M727.89 349.655l6.26-20.568-17.383-12.93 21.77-.487 7.1-20.297 7.198 20.263 21.77.39-17.323 13.008 6.353 20.537-17.9-12.223z" class="D"/><path d="M730.853 344.142l5.216-16.34-14.485-10.27 18.142-.387 5.917-16.124 5.998 16.096 18.142.3-14.436 10.333 5.294 16.314-14.917-9.7z" class="B H"/><path d="M692.062 308l6.19-19.45-17.195-12.227 21.536-.46 7.024-19.194 7.12 19.162 21.536.37-17.137 12.3 6.284 19.42-17.708-11.56z" class="D"/><path d="M695.003 302.783l5.16-15.45-14.33-9.713 17.947-.366 5.853-15.248 5.933 15.222 17.947.294-14.28 9.772 5.237 15.428-14.756-9.182z" class="B H"/><path d="M764.24 308l6.27-19.45-17.417-12.227 21.813-.46 7.114-19.194 7.212 19.162 21.813.37-17.357 12.3 6.365 19.42-17.936-11.56z" class="D"/><path d="M767.215 302.783l5.226-15.45-14.514-9.713 18.178-.366 5.93-15.248 6 15.222 18.178.294-14.464 9.772 5.304 15.428-14.946-9.182z" class="B H"/></g><path d="M640.76 324.4l10.748-6.073 1.01 2.2-4.216 2.382 1.395 3.048 4.216-2.382 1.01 2.2-10.748 6.073-1.01-2.2 4.872-2.752-1.395-3.048-4.872 2.752-1.01-2.2m4.5 9.404l10.035-7.428 3.434 5.727-1.668 1.235-2.197-3.664-2.32 1.717 2.045 3.4-1.6 1.177-2.045-3.4-2.763 2.045 2.25 3.75-1.694 1.254-3.486-5.814m6.992 10.787l8.852-9.097 1.515 1.82-3.472 3.568 2.09 2.5 3.472-3.568 1.515 1.82-8.852 9.097-1.515-1.82 4.012-4.123-2.09-2.5-4.012 4.123-1.515-1.82m11.56 5.387l1.436 1.4 2.61-4.93-4.047 3.53m-5.616 1.68l9.993-8.083 2.266 2.208-5.9 12.08-1.82-1.772 1.55-2.967-1.943-1.893-2.433 2.107-1.725-1.68m8.72 8.1l5.955-9.022-2.084-1.698 1.176-1.782 5.98 4.872-1.176 1.782-2.084-1.698-5.955 9.022-1.812-1.477m4.9 3.91l6.282-11.436 1.905 1.292-2.464 4.485 2.627 1.78 2.464-4.485 1.905 1.292-6.282 11.436-1.905-1.292 2.847-5.183-2.627-1.78-2.847 5.183-1.905-1.292m11.808 7.472l5.068-12.156 5.72 2.944-.83 1.99-3.68-1.894-1.198 2.873 3.474 1.788-.8 1.942-3.474-1.788-2.23 5.352-2.04-1.05m11.184-1.846c-.704 2.06-1.04 3.405-1.01 4.032.038.624.35 1.06.936 1.306.576.243 1.058.148 1.445-.284.394-.435.947-1.694 1.658-3.776s1.05-3.434 1.017-4.056-.34-1.055-.92-1.3-1.07-.147-1.466.294-.95 1.702-1.66 3.785m-2.145-.905c.454-1.328.872-2.365 1.255-3.11.385-.75.765-1.275 1.14-1.575.52-.43 1.05-.673 1.588-.726s1.177.077 1.92.4 1.298.687 1.668 1.122.624 1.008.762 1.717c.098.513.066 1.188-.097 2.025s-.463 1.92-.915 3.243c-.45 1.318-.867 2.35-1.252 3.1-.383.744-.762 1.273-1.137 1.587-.526.43-1.058.67-1.595.723s-1.177-.077-1.92-.4-1.298-.687-1.668-1.122-.622-1.007-.754-1.714c-.102-.502-.074-1.173.084-2.012.16-.844.467-1.93.92-3.26m10.37-2.846l2.154.713-2.32 8.655c-.265.99-.338 1.698-.218 2.125.126.423.467.726 1.022.9.55.182.978.13 1.284-.156.3-.285.6-.93.87-1.936l2.3-8.622 2.124.703-2.375 8.863c-.23.862-.445 1.478-.642 1.848-.19.367-.43.666-.715.898a2.8 2.8 0 0 1-1.503.61c-.57.053-1.205-.036-1.905-.267-1.32-.437-2.17-1.063-2.544-1.877-.37-.818-.34-2.02.083-3.603l2.375-8.863m5.767 15.798l2.633-13.074 2.254.56 1.223 9.905 1.78-9.16 2.07.515-2.633 13.074-2.24-.557-1.242-9.928-1.784 9.176-2.063-.513m11.787.666l.982.17c.5.087.857.108 1.07.063s.392-.155.538-.33c.255-.308.468-.752.64-1.333.172-.586.352-1.54.537-2.856.18-1.284.26-2.226.24-2.83s-.134-1.074-.34-1.415a1.06 1.06 0 0 0-.459-.397c-.192-.098-.505-.185-.938-.26l-.95-.166-1.318 9.35m-2.45 1.573l1.866-13.236 3.566.62c.727.127 1.295.296 1.704.508.414.213.738.498.973.856.354.525.567 1.15.64 1.872.078.718.015 1.805-.2 3.26l-.74 3.957c-.228.753-.522 1.377-.882 1.872-.35.497-.785.81-1.306.944-.515.128-1.373.087-2.574-.122l-3.056-.532m9.327 1.533l1.16-13.336 6.165.662-.193 2.217-3.944-.423-.268 3.083 3.67.394-.184 2.113-3.67-.394-.32 3.672 4.037.433-.196 2.25-6.258-.672m10.186-1.08l.994.04c.506.02.862-.006 1.068-.08s.372-.206.5-.398c.22-.34.384-.81.492-1.408.108-.605.184-1.574.227-2.907.042-1.298.02-2.245-.065-2.84s-.248-1.05-.49-1.36c-.126-.156-.292-.267-.498-.333-.2-.072-.52-.117-.96-.134l-.962-.04-.307 9.46m-2.263 1.886l.434-13.39 3.607.144c.736.03 1.318.122 1.746.28a2.42 2.42 0 0 1 1.058.721c.408.475.686 1.066.836 1.775.155.703.208 1.8.16 3.262l-.31 4.027c-.145.778-.37 1.436-.675 1.975-.294.54-.693.9-1.196 1.1-.497.195-1.354.268-2.57.22l-3.09-.124m13.432.175l-.48-13.387 2.245-.1.48 13.387-2.245.1m5.997-.353l-.824-11.15-2.575.235-.163-2.202 7.4-.674.163 2.202-2.575.235.824 11.15-2.24.204m7.91-14.365l2.214-.428 1.392 8.897c.16 1.017.378 1.687.656 2 .283.316.71.42 1.28.31.566-.11.928-.368 1.087-.775.164-.408.165-1.13.003-2.164l-1.386-8.863 2.183-.422 1.425 9.11c.14.886.194 1.543.166 1.972a3.14 3.14 0 0 1-.28 1.158 3.19 3.19 0 0 1-1.102 1.29c-.49.33-1.093.564-1.813.703-1.358.262-2.368.122-3.03-.42-.658-.55-1.115-1.64-1.37-3.268l-1.425-9.11m11.997 3.397l.913-.247c.68-.184 1.124-.46 1.334-.827.208-.373.234-.917.077-1.633-.158-.72-.394-1.186-.708-1.393-.3-.214-.818-.226-1.523-.036l-.943.255.85 3.88m-.503 7.9l-2.853-13.017 3.788-1.025c1.156-.313 2.05-.25 2.684.187s1.093 1.3 1.38 2.617c.282 1.285.22 2.316-.184 3.094-.4.77-1.156 1.307-2.267 1.607l-1.6.43 1.2 5.52-2.168.587m8.61-9.433c.6 2.1 1.087 3.386 1.462 3.856.38.463.866.59 1.463.38.587-.207.912-.613.974-1.22.066-.613-.204-1.982-.8-4.105s-1.096-3.417-1.47-3.88-.856-.593-1.448-.384-.92.622-.985 1.24.207 2 .813 4.113m-2.187.77c-.387-1.354-.638-2.455-.754-3.303-.118-.853-.113-1.527.014-2.022.168-.698.447-1.253.84-1.665s.966-.75 1.722-1.018 1.4-.357 1.935-.27 1.053.36 1.557.82c.364.334.716.886 1.055 1.654s.7 1.825 1.095 3.174c.383 1.343.634 2.442.752 3.295.116.847.114 1.523-.004 2.028-.173.7-.455 1.256-.847 1.667s-.966.75-1.722 1.018-1.4.357-1.935.27-1.05-.36-1.55-.823c-.36-.323-.713-.868-1.058-1.635-.346-.772-.713-1.836-1.1-3.2m11.02 3.062l-4.486-12.436 2.144-.955 6.052 7.4-3.196-8.67 1.97-.877 4.486 12.436-2.13.948-6.08-7.405 3.202 8.687-1.962.874m13.965-6.86l-4.704-9.892-2.284 1.34-.93-1.954 6.556-3.85.93 1.954-2.284 1.34 4.704 9.892-1.987 1.167m5.308-3.165l-6.44-11.328 1.887-1.324 2.525 4.443 2.602-1.826-2.525-4.443 1.887-1.324 6.44 11.328-1.887 1.324-2.918-5.134-2.602 1.826 2.918 5.134-1.887 1.324m8.043-5.793l-7.267-10.69 4.942-4.147 1.208 1.777-3.162 2.653 1.68 2.47 2.943-2.47 1.15 1.694-2.943 2.47 2 2.944 3.236-2.716 1.227 1.805-5.017 4.2m6.203-11.496l1.603-1.75.543.614c.52.587.94.918 1.26 1 .32.065.643-.08.967-.434.34-.37.512-.746.518-1.127s-.15-.764-.478-1.137c-.252-.285-.53-.462-.832-.53s-.806-.047-1.5.078l-1.392.25c-1.2.226-2.04.267-2.548.123s-.995-.492-1.47-1.03c-.7-.803-1.052-1.665-1.026-2.588s.415-1.794 1.167-2.615c.797-.87 1.62-1.295 2.474-1.274s1.68.484 2.48 1.4l.18.217.1.136-1.52 1.66-.225-.254c-.457-.517-.86-.804-1.21-.86s-.7.106-1.05.488c-.257.28-.385.587-.384.92.001.324.133.635.397.933.355.4 1.078.486 2.168.255.01-.003.02-.006.028-.006l1.47-.3c1.04-.224 1.853-.25 2.442-.08s1.16.567 1.723 1.204c.768.87 1.138 1.783 1.108 2.742s-.46 1.892-1.3 2.8c-.864.943-1.727 1.398-2.59 1.365s-1.74-.564-2.64-1.582l-.45-.558-.033-.037m9.33-3.763l-9.242-8.605 3.978-5.275 1.536 1.43-2.545 3.374 2.137 1.99 2.37-3.14 1.464 1.363-2.37 3.14 2.545 2.37 2.605-3.454 1.56 1.453-4.038 5.355m2.347-11.995l1.067-1.76-4.733-2.252 3.666 4.013m2.21 5.977l-8.482-9.99 1.684-2.778 11.532 4.96-1.352 2.23-2.846-1.333-1.444 2.38 2.19 2.415-1.282 2.114m1.43-10.895l1.026-2.22.7.393c.66.376 1.152.543 1.476.5.323-.05.588-.3.795-.75.217-.47.275-.886.173-1.25-.1-.37-.358-.673-.776-.912-.32-.183-.634-.254-.94-.214s-.78.237-1.403.598l-1.25.724c-1.066.63-1.86.966-2.384 1.007-.52.035-1.083-.12-1.687-.464-.9-.514-1.47-1.213-1.706-2.098s-.114-1.848.368-2.9c.5-1.104 1.173-1.795 1.988-2.074s1.73-.127 2.748.453l.233.143.143.09-.973 2.105-.286-.163c-.58-.33-1.045-.462-1.393-.394s-.635.345-.86.83c-.165.356-.2.692-.104 1.007.093.307.306.556.64.747.45.257 1.16.085 2.13-.515.01-.008.018-.013.025-.015l1.3-.798c.923-.575 1.688-.885 2.296-.93s1.262.133 1.977.54c.975.556 1.584 1.295 1.828 2.216s.1 1.957-.433 3.108c-.553 1.197-1.244 1.93-2.073 2.2-.827.265-1.81.072-2.953-.58l-.585-.373-.042-.024"/></g></svg>