<svg xmlns="http://www.w3.org/2000/svg" height="480" width="640" viewBox="0 0 640 320" xmlns:v="https://vecta.io/nano"><style><![CDATA[.B{fill:#d4af3a}.C{fill:#b96b29}.D{fill:#1d5e91}]]></style><path fill="#d3ae3b" d="M0-80h640.02v480H0z"/><path fill="#c40308" d="M32-49.612h577.522v419.224H32z"/><path d="M451.964 153.947c3.514-.992 15.73-4.562 24.34-11.546s10.288-12.583 10.984-15.606c.7-3.023.988-5.4-1.238-3.666s-8.904 6.984-13.455 9.512-8.76 3.716-11.233 4.412c-2.473.7-4.453 1.136-2.076.195 2.372-.94 10.142-3.667 16.13-9.66s10.714-14.978 10.815-20.494-.294-5.123-2.068-3.743-8.077 9.16-11.62 12.114-9.26 6.896-12.114 8.57-6.894 3.548-1.28-.294 16.25-12.902 20.586-24.622 3.544-18.613 3.446-19.796-1.084-3.546-2.068-1.376c-.984 2.164-8.08 16.348-13.79 22.453-5.715 6.107-4.335 4.926-5.616 5.9s-3.448 2.758-.686-.692c2.758-3.444 8.47-11.424 11.426-19.3 2.95-7.88 3.74-15.76 3.838-20.29s-1.87-10.832-2.758-12.7c-.885-1.875-1.772-3.25-2.07-1.088-.293 2.168-4.824 16.153-7.288 22.948s-7.384 14.48-8.372 15.958c-.983 1.478-3.544 4.53-.788-.59s8.076-20.192 8.767-34.472-1.28-22.16-3.25-26.1-3.675-5.338-3.675-5.338.337 9.75-2.572 23.756-7.16 21.403-7.16 21.403-1.79 2.017-.562-1.344c.83-2.26 2.54-7.237 3.32-15.67.823-8.848.92-18.915-1.663-27.486-2.812-9.334-7.695-14.106-7.695-14.106-1.36 13.39-1.09 30.645-5.998 44.63-.92-.82-2.134-2.34-2.618.752-.896 4.596-2.687 13.224-8.726 24.206-6.045 10.982-8.503 12.44-8.503 12.44s-1.12-2.69-1.905-4.146-1.23-2.243-2.24-.225c-1.003 2.017-4.36 9.75-11.75 18.266s-11.524 12.662-11.3 19.048 3.58 9.64 8.055 12.55 5.263 4.48 4.588 7.956-4.7 4.706-8.166 4.82c-3.473.113-7.836-.225-9.4.67s-1.678 3.137-3.246 4.704-2.235 2.464-3.692 2.692a28.11 28.11 0 0 1-1.251.161c-.322-16.847 6.206-24.358 6.206-24.358l-18.246-21.437c-.943.463-1.884.896-2.83 1.305-.127-.248-.304-.518-.534-.8-2.428-3.1-3.223-5.73-3.223-9.705.908.1 2.728.746 4.382.414s.413-1.99-.082-3.564-.994-7.05-.664-9.124l.495-2.904s2.65 2.904 4.3 2.904c1.658 0 1.49-1.657 1.738-3.484.373-2.75 1.667-6.223 3.803-8.128 0 0 2.893 1.993 6.204 1.993 3.306 0 7.77-.913 11.325-4.312s3.474-4.23 3.474-4.23 6.613 2.32 11.66 2.573 10.42-.583 12.982-5.89-.746-10.2-1.322-11.03c-.58-.83-2.233-1.494-2.233 0s.084 5.473-2.978 7.464-5.456 1.905-8.35.994-6.945-2.074-11.576-1.4c-4.153.594-4.716.922-4.787.984.216-.22 3.986-4.088 7.68-5.214 3.804-1.16 6.04.414 7.28 1.907s2.314 3.9 3.308.414.414-7.463-1.24-10.035-5.21-4.23-8.93-3.814-5.042.994-5.042.994-1.905-5.39-6.7-6.384c-5.85-1.215-12.304.984-17.364 3.814 0 0-3.97.915-8.02-.248-2.653-.76-5.306-2.376-6.823-3.396l1.38-4.406s1.16-.353 2.37-.808.96-.86 1.112-1.868-2.276-2.766-2.276-2.766-.35-3.032 3.637-5.11 3.553-1.733 3.553-1.733 2.338.433 3.293-.26.952-1.127.952-1.127 1.766-.58 2.415-1.644.767-2.6.293-3.842c-.47-1.243-1.063-1.48-.41-2.072.647-.59 1.238-2 1.296-3.015l.06-1.24s1.356-.476 1.294-2.544-1.18-2.9-1.83-3.08-1.058-.176-1.058-.176-.118-1.243-1.18-2.897-1.77-2.366-1.77-2.366.765-.587.353-1.948-1.358-2.188-2.3-2.488c-.943-.294-1.944 0-1.944 0s-3.126-1.892-4.6-2.66l-1.83-.945s-.058-1.3-.59-2.012-1.77-1.007-2.42-1.007-1.356.356-1.356.356-5.3-1.363-7.49-1.717-2.303-.533-2.303-.533-4.716-2.248-6.542-2.603-2.36-.53-2.36-.53 1.91-2.3 2.025-4.97-1.648-5.173-3.534-6.296c-1.065-.632-1.637-.737-1.984-.954l-.04-1.832 3.544.356.293-5.704-3.45.437.53-3.433-7.23-.082.53 3.43-3.478-.238.294 5.62 3.658-.473-.354 2.126s-1.34.227-2.473 1.063c-1.886 1.125-3.482 3.315-3.364 5.977s1.708 5.03 1.708 5.03-.47.118-2.3.47-6.548 2.603-6.548 2.603-.118.176-2.3.533-7.49 1.717-7.49 1.717-.707-.356-1.358-.356-1.886.296-2.417 1.007-.59 2.012-.59 2.012l-1.83.945c-1.476.77-4.6 2.66-4.6 2.66s-1.005-.294-1.948 0-1.886 1.127-2.3 2.488.353 1.948.353 1.948-.71.71-1.77 2.366-1.178 2.897-1.178 2.897-.414 0-1.06.176-1.77 1.007-1.828 3.08 1.298 2.544 1.298 2.544 0 .234.058 1.24.65 2.424 1.298 3.015.06.83-.413 2.072-.354 2.78.294 3.842 2.413 1.644 2.413 1.644 0 .433.952 1.127 3.293.26 3.293.26-.43-.347 3.553 1.733 3.637 5.11 3.637 5.11-2.426 1.76-2.274 2.766-.1 1.414 1.1 1.867a43.77 43.77 0 0 0 2.372.808l1.367 4.414c-1.517 1.02-4.168 2.634-6.82 3.396-4.052 1.162-8.023.248-8.023.248-5.057-2.83-11.51-5.03-17.362-3.814-4.796.996-6.7 6.384-6.7 6.384s-1.322-.58-5.042-.994-7.277 1.243-8.933 3.814-2.23 6.553-1.24 10.035 2.068 1.078 3.308-.414 3.474-3.067 7.277-1.907c3.694 1.127 7.464 4.993 7.68 5.214-.073-.062-.632-.4-4.787-.984-4.63-.664-8.68.5-11.574 1.4s-5.29.996-8.35-.994-2.977-5.972-2.977-7.464-1.654-.83-2.23 0-3.887 5.724-1.324 11.03 7.937 6.137 12.98 5.89 11.66-2.573 11.66-2.573-.08.83 3.474 4.23 8.02 4.313 11.33 4.313 6.2-1.993 6.2-1.993c2.136 1.907 3.433 5.38 3.804 8.128.248 1.826.084 3.484 1.738 3.484s4.3-2.904 4.3-2.904.165.83.495 2.904-.165 7.545-.662 9.124-1.736 3.234-.08 3.564 3.473-.324 4.382-.414c0 3.975-.797 6.604-3.225 9.705-.214.274-.382.527-.5.763a67.34 67.34 0 0 1-2.711-1.258l-18.246 21.437s6.56 7.547 6.204 24.486v-.118c-.332-.032-.774-.084-1.327-.17-1.457-.227-2.126-1.12-3.694-2.692s-1.678-3.806-3.244-4.704-5.93-.56-9.4-.67-7.496-1.344-8.17-4.82.114-5.04 4.588-7.956 7.832-6.163 8.057-12.55-3.915-10.534-11.3-19.048-10.742-16.25-11.75-18.266-1.455-1.232-2.24.225-1.9 4.146-1.9 4.146-2.462-1.457-8.503-12.44-7.834-19.61-8.728-24.206c-.486-3.092-1.702-1.57-2.618-.752-4.912-13.986-4.64-31.24-6-44.63 0 0-4.882 4.772-7.695 14.106-2.582 8.57-2.484 18.638-1.66 27.486.782 8.434 2.488 13.412 3.317 15.67 1.23 3.362-.56 1.344-.56 1.344s-4.252-7.395-7.16-21.403-2.574-23.756-2.574-23.756-1.704 1.397-3.675 5.338-3.937 11.818-3.25 26.1 6.01 29.35 8.768 34.472.197 2.068-.79.59-5.908-9.16-8.372-15.958-6.992-20.78-7.288-22.948-1.18-.787-2.07 1.088-2.856 8.173-2.758 12.7.887 12.41 3.842 20.29 8.666 15.857 11.424 19.3c2.758 3.45.59 1.676-.7.692s.1.195-5.614-5.9-12.804-20.29-13.79-22.453c-.986-2.17-1.97.195-2.07 1.376s-.887 8.076 3.448 19.796 14.97 20.784 20.586 24.622 1.575 1.97-1.28.294-8.57-5.612-12.114-8.57-9.85-10.736-11.62-12.114-2.166-1.774-2.068 3.743 4.828 14.498 10.815 20.494 13.75 8.72 16.13 9.66.396.495-2.08-.195c-2.47-.7-6.68-1.9-11.23-4.43s-11.23-7.78-13.46-9.5-1.93.643-1.238 3.666 2.376 8.62 10.982 15.606 20.828 10.554 24.34 11.546 1.04.988 1.04.988-1.386-.195-8.51-1.785c-7.123-1.584-17.9-7.23-20.83-9.064s-3.362-2.528-2.968 1.337 4.504 12.14 11.083 16.003 18.454 5.848 21.52 5.994 2.276.594.89.692-4.8.1-10.39-.542c-4.583-.53-11.39-2.754-13.697-3.542-.26-.986-.497-1.942-.606-2.53-.272-1.472-1.033-1.254-1.524-.924-.49.322-.763.596-2.393 1.416-1.635.82-1.69-.16-1.744-.653s-.38-2.623-.435-3.71c-.054-1.095-.654-1.15-1.414-.82l-5.77 2.46c-1.36.598-.11 1.69.598 2.998l1.796 3.223-4.52 1.202c-1.088.274-.76 1.04-.49 1.804s1.96 4.584 2.394 5.676 1.416.437 1.416.437l3.428-2.02 1.196 4.583c-.058.073-1.584.364-3.32 1.58s-1.3 2.78.78 3.4 4.506 1.652 7.19 6.518 3.38 13.642 5.025 27.463c1.646 13.813 10.483 20.854 11.696 21.724s.52 1.564.52 1.564-1.213 1.742-.692 4.434 2.857 4.258 4.07 4.69.866 1.65.866 1.65-.607 2.953 0 8.344 5.025 11.47 6.238 12.514 1.3 1.564 1.127 2-.954.088-2.426 1.215-3.12 2.694-4.157 4.605-.694 3.043-.35 5.65 4.16 4.954 4.16 4.954-.694.174-.864 2.085 1.21 4.084 2.946 5.473 5.025 2.087 5.025 2.087l.433 2.78c.173 1.132 2.34 2.257 3.726 3.04s4.07.35 5.197-.174 1.905.088 2.597 1.215c.696 1.132.435 5.475.435 7.215s-1.04 3.563-.435 4.433 2.254.26 3.9-.696 2.08-.26 3.553.696 3.812 1.826 4.42 1.738.347-1.652.347-2.955.234-4.252.84-4.687c.287-.206 2.837-.396 4.79-1.223.91-.382 2.08-.78 2.166-1.65s-1.213-.868-4.07-2.346-3.38-2.35-5.197-3.564-.952-1.65-.952-2.17.864-1.13 1.21-1.824.173-2.257.173-2.257 1.474-1.478 2.166-2.26 1.56-2 2.512-2.78 2.424-4.517 3.38-5.736 3.12-2.52 4.417-4.172 4.766-4.344 6.76-5.65 7.363-3.825 7.363-3.825-.086 3.216 1.3 4.78 3.204-1.213 9.356-5.56 10.83-5.908 10.83-5.908 1.3 1.997 2.944 4.084 3.12-.088 10.658-10.513c5.946-8.228 13.778-15.748 16.82-18.56l1.67.754-.457 1.352c-.692 2.16-1.813 3.544-3.28 6.563s-3.71 3.71-6.302 7.772-2.934 6.817-3.195 10.963 2.072 5.008 2.072 5.008-3.8 3.71-4.922 6.474-1.727 8.376-1.727 8.376-.606.257-1.986 3.107-3.887 3.28-7.51 6.908-7.684 5.18-9.583 6.298c-1.9 1.127-1.382 2.246-.863 3.714s3.107 2.934 6.13 4.058 4.058.7 6.13.604.43 1.554-.43 2.415c-.863.866-1.986 3.885-1.813 7.252s2.678 2.59 5.786 2.072 6.733-2.072 6.733-2.072l-.345.952c-.345.95-.517 1.637-.517 4.318 0 2.676.43 3.97 1.21 4.658s2.332-.774 3.454-1.12c1.123-.35 3.022-1.468 5.784-2.072s3.797-1.813 3.797-1.813-.7.86-.863 2.762-.086 4.748.347 6.4c.43 1.637 1.64 3.624 3.538 5.35s2.33.95 3.71-1.207 4.23-4.924 4.23-4.924.173.692 2.072 6.82 8.115 11.224 8.115 11.224 6.216-5.094 8.115-11.224l2.07-6.82s2.852 2.764 4.232 4.924 1.815 2.934 3.712 1.207 3.107-3.712 3.54-5.35.517-4.49.35-6.4c-.176-1.9-.866-2.762-.866-2.762s1.037 1.207 3.8 1.813 4.66 1.723 5.783 2.072 2.68 1.81 3.456 1.12 1.21-1.984 1.21-4.658c0-2.68-.173-3.37-.517-4.318l-.347-.952s3.628 1.556 6.735 2.072 5.6 1.296 5.786-2.072c.17-3.368-.952-6.386-1.815-7.252-.864-.86-2.503-2.5-.43-2.415s3.107.516 6.13-.604 5.612-2.59 6.13-4.058 1.037-2.59-.863-3.714c-1.9-1.12-5.96-2.674-9.583-6.298s-6.13-4.056-7.513-6.908-1.982-3.107-1.982-3.107-.608-5.614-1.73-8.376-4.922-6.474-4.922-6.474 2.332-.864 2.072-5.008-.602-6.906-3.193-10.963-4.837-4.75-6.306-7.772-2.59-4.402-3.28-6.562a39.57 39.57 0 0 0-.441-1.305l2.228-.977c3.02 2.784 10.886 10.33 16.85 18.583 7.54 10.43 9.013 12.604 10.66 10.515 1.644-2.083 2.944-4.082 2.944-4.082s4.678 1.562 10.83 5.906 7.97 7.127 9.354 5.563c.733-.823.896-2.2.984-3.238 0 0 3.534 1.033 7.582 2.45 2.428.85 5.124 1.924 7.127 2.77 5.33 2.256 5.906 3.416 10.146 6.765s10.275 3.026 15.992 1.286 20.938-6.76 27.038-9.4 10.47-4.96 11.113-6.187 1.346-4.64 1.346-5.86-1.346-3.026-1.798-3.35c-.446-.324-.253-1.3-.127-2.06s-.255-3.092-1.217-4.125-.834-1.414-.707-4.382c.272-6.283-4.213-14.205-10.568-16.727 0 0-.17-.73-.686-1.162-.5-.43-1.37-.816-1.37-.816s.126-3.613.084-4.39.3-.684.733-.472c.428.214 1.112 1.076 2.14 1.335s1.673-.476 1.888-1.635 1.07-3.484 1.457-4.646-.088-1.333-.56-1.46-2.014-.3-2.745-.476c-.728-.17-.728-.214-.557-.6s.43-.986 1.37-2.452.088-1.506-.816-1.804-4.97-1.55-6.086-1.723-1.374.774-1.374 1.247a102.89 102.89 0 0 0 .086 3.313c.043.774-.684.56-1.114.345s-1.416-.82-2.186-1.42-1.33-.04-1.63.82-1.24 4.39-1.54 5.42-.216 1.85.214 2.02 2.443 0 3.645 0 .512.7.512.7-1.286 2.107-1.716 2.923-1.157.95-2.143.95-2.64-.013-2.64-.013-6.59.248-11.44 3.855-6.216 6.59-6.962 8.327c-.746 1.744-1.614 1.367-2.364 1.99-.744.623-2.858 2.86-2.858 4.23s.497 2.11-1.614 3.478c-2.117 1.37-3.857 7.337-.996 10.446s3.98 6.212 4.85 7.706c.866 1.493 0 2.113-.748 2.113s-2.303-1.267-3.604-2.24l-10.69-8.203c-2.826-2.108-.746-1.866-.746-1.866s.718.066 2.366-.628 1.907-1.562.257-2.085c-1.644-.52-4.85-2.346-5.715-3.216s-1.3-1.824.347-2.694 5.284-3.216 2.426-3.998-6.24-1.39-9.013-2.173-3.034-1.564-3.034-1.564l1.822-2.608s1.472-2.083-.26-2.346-5.89-.782-9.703-2.436c-7.614-3.298-12.384-8.89-14.152-15.718l.126-.165c1.423 2.814 4.734 8.074 9.728 8.237 6.825.225 7.607-1.907 6.04-4.148s-3.356-4.258-3.803-4.93-.562-1.57 1.228.113 5.2 7.395 15.495 6.724 10.24-2.69 10.24-3.25c0-1.976-2.096-2.29-3.332-3.53-.645-.647-1.037-1.586 1.04-.793s7.17 1.732 14.1.246c2.734-.583 9.983-3.748 10.684-7.43 0 0-4.6-.25-7.815-1.637s-5.147-2.526-1.733-1.832 10.044 2.077 15.88.1c3.41-1.16 7.82-3.92 7.817-8.968 0 0-6.332-1.337-8.657-2.18s-3.067-1.485-3.067-1.485 9.05 2.87 17.265-1.3 8.558-9.857 8.558-11.196-.197-1.736-.197-1.736-7.47 1.836-13.06 1.785-7.324-.546-7.324-.546 15.636-.446 23.5-5.252 8.314-14.27 8.314-14.27-8.908 3.17-14.496 3.817c-5.59.64-9.006.64-10.39.542s-2.175-.542.89-.692c3.07-.146 14.94-2.132 21.52-5.994s10.686-12.142 11.083-16.003-.05-3.17-2.97-1.337-13.702 7.48-20.826 9.064l-8.51 1.785s-2.486-.002 1.03-1zm-281.43 17.98l-3.156 1.8-1.58-3.328c-.326-.765-.163-1.093.27-1.093s1.744-.38 2.777-.49c.148-.017.283-.04.403-.067.345.984.8 2.05 1.395 3.122-.037.015-.073.036-.11.056zm95.955 56.177c-1.907 3.566-7.104 7.303-10.916 8.953s-7.97 2.173-9.703 2.432-.26 2.348-.26 2.348l1.82 2.6s-.26.78-3.032 1.564-6.15 1.387-9.01 2.17.78 3.127 2.424 4c1.646.866 1.213 1.824.347 2.692s-4.07 2.694-5.717 3.216-1.387 1.393.26 2.087 6.152 1.562 6.152 1.562-.086.174-2.857 2.26-7.626 3.476-10.83 3.65-8.274.382-14.702.086-7.164-.44-7.164-.44-.22-2.145-.666-5.32-2.363-7.682-3.84-9.748-4.58-6.206-4.58-6.206.073-.887.294-1.92.073-2.143-.677-4.095-4.506-4.806-4.506-4.806-.152-2.102-.152-4.056-1.35-9.61-2.554-13.215-7.058-13.065-9.76-17.57-4.31-11.182-5.126-16.367-.49-6.877-.218-8.243c.12-.598.375-1.142.615-1.626a16.11 16.11 0 0 0 4.346 3.904c7.866 4.806 23.5 5.252 23.5 5.252s-1.732.497-7.322.546-13.06-1.785-13.06-1.785-.2.398-.2 1.736.35 7.035 8.56 11.196 17.265 1.3 17.265 1.3-.743.643-3.067 1.485-8.657 2.18-8.657 2.18c0 5.05 4.408 7.81 7.815 8.968 5.84 1.98 12.467.593 15.883-.1s1.485.44-1.732 1.832c-3.214 1.386-7.815 1.637-7.815 1.637.705 3.68 7.954 6.846 10.686 7.43 6.926 1.487 12.02.548 14.1-.246s1.682.146 1.04.793c-1.236 1.24-3.332 1.553-3.332 3.53 0 .56-.053 2.578 10.24 3.25s13.702-5.04 15.493-6.724 1.678-.786 1.23-.113-2.237 2.69-3.802 4.93-.784 4.373 6.04 4.148c5.027-.165 8.353-5.498 9.757-8.295l.094.13.276.368c-.645 1.657-1.757 4.365-2.98 6.645zm83.027-222.68c-.93-1.772-1.423-2.606-1.423-2.606s3.877 1.82 6.186 4.427 2.256 3.988 2.6 5.27 0 3.64-.343 5.858-.345 3.546.1 4.333.834 1.18.834 1.18-1.72.443-3.34 1.084-3.73 1.23-4.907.246-1.472-1.674-.735-2.314 3.482-1.43 3.827-6.154-1.866-9.55-2.8-11.325zM328.372 18.28c.885-2.244 1.25-4.388.572-8.985-.568-3.864-1.318-7.174-1.51-11.338 0 0 2.865.628 6.98 4.39s5.053 7.628 5.053 9.5-.992 4.18-1.147 6.01a8.22 8.22 0 0 0 .519 3.448s-1.51.624-2.863 1.564-2.29 1.517-4.374 1.412-3.336-1.044-4.534-1.672-1.976-.73-1.976-.73 2.392-1.358 3.28-3.606zm-20.06-15.934c4.116-3.76 6.98-4.39 6.98-4.39-.19 4.164-.94 7.474-1.51 11.338-.675 4.597-.31 6.74.574 8.985s3.28 3.606 3.28 3.606-.78.105-1.98.73-2.447 1.568-4.532 1.672-3.02-.47-4.374-1.412-2.865-1.564-2.865-1.564.677-1.62.52-3.448-1.144-4.13-1.144-6.01.94-5.75 5.053-9.5zm-14.835 22.87c-1.18.984-3.29.396-4.91-.246s-3.337-1.084-3.337-1.084.392-.392.834-1.18.442-2.117.098-4.333-.688-4.577-.343-5.858.294-2.66 2.6-5.27c2.3-2.61 6.17-4.428 6.17-4.428s-.49.834-1.423 2.606-3.142 6.598-2.798 11.327 3.094 5.51 3.83 6.154c.737.638.442 1.328-.735 2.312zM348.3 64.73c-4.054 2.24-6.368 1.742-6.202 3.4s3.8 2.904 3.8 2.904-3.72 3.98-6.615 5.807-6.287 2.985-6.287 2.985-1.155.167-.495 1.99 1.82 3.067 2.728 3.566 1.408.664 1.408.664-5.044 5.39-7.277 7.132-3.474 2.32-5.29 3.07-.908 3.73-.497 5.06c.413 1.324 1.984 3.15 2.895 3.4.906.25 1.24.91.082 2.737-.866 1.36-3.752 4.982-5.128 6.98l-.084.043c-1.367-1.984-4.292-5.65-5.162-7.022-1.157-1.826-.827-2.488.082-2.737s2.483-2.074 2.895-3.4 1.322-4.314-.5-5.06c-1.817-.748-3.058-1.328-5.29-3.07s-7.277-7.132-7.277-7.132.497-.167 1.406-.664 2.068-1.742 2.73-3.566-.497-1.99-.497-1.99-3.4-1.16-6.285-2.985-6.615-5.807-6.615-5.807 3.637-1.245 3.804-2.904-2.15-1.16-6.202-3.4-5.376-5.06-5.376-5.06 4.714-1.577 7.03-6.304c.82-1.674 1.016-3.203.93-4.48l.178.06c7.526 2.45 16.324 3.43 24.188 3.43 7.85 0 16.644-.986 24.156-3.43l.178-.06c-.088 1.28.11 2.807.928 4.48 2.316 4.727 7.03 6.304 7.03 6.304s-1.32 2.822-5.37 5.06z" class="C"/><path d="M265.134 71.22c-1.6-.934-5.865-2.762-10.418-3.148s-8.066.3-11.842 1.32c-2.706.73-4.898.844-7.065.263-3.257-.868-5.782-3.808-6.64-7.4 0 0-3.004 3.85.067 8.03 1.476 2 3.398 3.266 5.355 3.662 6.373 1.284 12.624-2.606 17.932-2.946 5.098-.332 9.1 2.9 9.1 2.9s1.206 1 2.904.013c1.702-.994 2.196-1.75.606-2.685zm148.43-8.976c-.86 3.602-3.388 6.542-6.643 7.4-2.168.58-4.354.47-7.067-.263-3.776-1.02-7.294-1.704-11.84-1.32s-8.827 2.214-10.418 3.148-1.1 1.7.6 2.68 2.906-.013 2.906-.013 4.005-3.233 9.103-2.9c5.306.34 11.556 4.23 17.934 2.946 1.956-.396 3.874-1.652 5.35-3.662 3.073-4.176.073-8.027.073-8.027z" fill="#c52126"/><g class="B"><path d="M372.904 156.027c0-12.722 5.854-20.768 5.854-20.768l-15.924-18.244c-15.167 5.863-29.062 6.22-41.434-.075-12.37 6.294-26.267 5.938-41.43.075l-15.93 18.244s5.856 8.046 5.856 20.768-2.46 22.162-3.898 28.318-2.666 17.646.617 25.856 6.77 15.388 20.93 21.34 21.546 9.026 26.47 13.132c4.926 4.1 7.387 7.384 7.387 7.384s2.462-3.285 7.387-7.384 12.3-7.18 26.47-13.132 17.646-13.134 20.93-21.34 2.05-19.7.615-25.856-3.9-15.6-3.9-28.3zm-122.13 101.55l-6.77 2.893-2.006.444s-3.512 3.204-6.083 4.712c-2.7 1.6-5.8 2.743-8.903 3.086-4.014.437-15.047.3-20 .124s-8.023 1.005-10.157 3.396-2.632 5.848.064 8.5 5.704 1.322 6.7-.313.5-3.712.062-4.654.88-1.26 2.257-1.322 3.7.126 5.83.44 5.895 1.57 7.524 2.452.7 1.007-.44.817-2.38-.628-4.4-1.38-3.7-1.132-4.952-1.198-.817.63-.564 1.07.94 1.5 1.127 2.014-.375 2.385-.375 2.385l.626 1.198s.752-1.198 1.003-1.822c.25-.632-.064-1.824.188-2.4s1.316-.566 2.132.38 1.757 2.076 2.194 4.46c.44 2.4-.377 4.1-.377 4.1s1.005.82 1.192 1.382c.2.568-.25 2.833-.25 2.833s.7.44 1.318-.883 1.378-3.645 1.566-4.464.752-2.325 1.755-1.194 1.693 2.516 1.882 3.208.186 1.258.186 1.258 2.257-2.203 3-3.46 2.32-3.144 4.453-4.903 5.83-5.282 7.648-6.478 6.458-3.7 7.9-4.6 1.693-.94 1.944-3.397 1.444-4.65 2.006-6.35.7-2.33.7-2.33zm-4-1.88l-1.504-.2c-.877-.126-2.758-.754-3.322-1.007s-1.442-.313-2.006.315-5.14 3.332-5.14 3.332h7.586c2.632 0 4.387-2.45 4.387-2.45zm21.37-1.3v-.757l-1-2.177s-1.18.74-2.33 1.93c-1.48 1.536-3.07 3.694-3.782 4.605-1.264 1.618-3.03 3.14-1.515.555l3.23-5.42c1.213-1.72 2.123-2.48 1.973-2.584s-1.114-.25-4.296-.656-5.15-1.622-6.615-2.484l-4.1-2.278-7.425 2.784c-2.02.506-3.232.8-1.264 1.774s3.636 1.266 4.596 1.87c.958.6 3.94 1.57 5.758 1.57s4.897.05 3.686 1.316-2.576 3.7-3.9 7.395-1.363 6.992-1.363 8.614.2 3.24.2 3.24 2.222-2.48 8.182-6.227 8.18-5.016 9.293-5.524 1.67-.504 1.464-1.922l-.804-5.625zm22.76-18.1l-1.106-.502c-.1.026-.2.054-.274.098-.7.35-4.335 2.798-5.803 5.177s-2.936 2.587-1.33 0 2.798-4.058 4.056-5.177l1.27-1.067c-2.925-1.4-6.1-3.118-9.174-5.257-.397.793-1.16 2.2-2.025 3.1-1.258 1.327-4.056 2.45-4.056 2.45s2.237-2.308 3.007-4.058c.5-1.116.8-2.317.977-3.04-2.14-1.667-4.2-3.566-6.02-5.747-.373 1.513-1.582 5.196-5.166 9.206-4.684 5.246-14.055 7.9-14.055 7.9s-3.285.35-.628 1.05 4.545 1.888 9.72.977 5.522-1.118 6.22-1.324c.7-.212 2.588-.07 0 .908s-8.6 1.884-10.907 1.678-5.454-.7-2.167 1.05 4.686 2.447 6.713 2.447 2.867.63 4.826.63 2.514-.35 3.915-.63 2.306.208 2.306.77-1.886 2.096-1.817 5.944.35 6.364.697 7.478c.353 1.123 1.2 2.938 1.75 4s.77 2.094 1.327-.14 1.817-5.454 2.308-7.62.77-2.237.98-3.356 1.4-1.957.838.07-1.2 4.614-1.607 6.433-1.4 5.173.277 2.516 7.97-9.718 9.02-10.976 1.888-2.45 2.657-3.495 2.936-2.45 3.986-3.986c.95-1.4 3.728-4.1 4.92-5.07l-5.636-2.434zm-122.33-70.85c-.04-.418-.877-1.886-1.086-2.64s-.962-.294-.962-.294-1.63.923-2.843 1.258-1.38-.124-1.506-.752l-.626-3.984c-.2-1.38-.502-1.296-1.003-1.1l-3.05 1.22c-1.044.46-.7.964-.377 1.55l2.1 3.94c.544.88.04 1.258-.587 1.553s-1.545.418-2.8.836-1.17.713-1.046 1.132.962 2.14 1.42 2.933.878.253.878.253 1.34-1.213 2.466-1.76 1.2-.377 1.504.463l1.84 6.08c.25.834.67.752 1.254.504s1.378-.38 2.048-.6.92-1.55.92-1.55l-3.135-5.576c-.67-1.132 0-1.384.502-1.466l3.218-.587c1.258-.296.924-1 .88-1.43zm27.85 120.7c-.187-1.07 0-2.14-.816-2.957s-1.82-2.452-2.194-3.772.313-1.95.188-2.706-1.13-.754-2.13.066-2.32 1.57-2.32 3.96.88 5.22 4.202 6.223c3.322 1 3.26.255 3.07-.814zm3.4-1.13s-.7-.44-1.003.2-.25.945.626 2.327 1.444 1.7 2.445 2.325.313-.626.188-1.005 0-.88-.25-1.196-.38-.692-.38-1.695c.002-1-1.627-.945-1.627-.945zm4.07 11.32c.626-.947 1.192-1.196 2.696-1.886s4.262-1.07 5.2-1.132 3.073-1.886 2.758-3.776-1.693-2.64-2.884-2.9-2.257-.25-2.632.313-1.067 1.322-2.383 1.76-1.506.88-2.32 1.132-.2.756-.877 1.322-1.63 0-2.696-.315-1.13-.502-2.32-.568l-4.326-.25s-.126-.064-.814-.064-.754.126-1.065.88.062 2.642.816 3.585 3.197 1.382 4.826 1.886a27.3 27.3 0 0 0 3.827.94c1.378.255 1.566.002 2.192-.94zm15.24 1.5c1.316-.88.563-2.4.25-3.332s-2.132-1.132-3.073-1.132-1.442 0-1.944.44-1.2 1.07-2.57 1.5-2.445.94-4.326 1.697-2.447 2-3.26 2.518c-.816.5-2.38 0-2.38 0s-1.13-.317-1.506 0c-.377.3 0 .94.752 1.757s2.194.756 3.823 1.26 1.944.124 2.572-.315 1.13-1.382 2.257-2.076 3.574-.817 4.764-.94c1.192-.13 3.324-.506 4.64-1.386zm0-5.72c.563.506 1.2 1.198 1.693.377s1.316-2.514.752-3.52-1.252-1.888-1.252-1.888l-1.38 3.65c-.44.754-.377.88.188 1.382zm-5.08-8.68c0-1.637-1.13-3.65-1.13-3.65s-.377 1.5-1.065 2.83-1.38 2.012-1.38 2.012 1.63.44 2.257.44 1.316 0 1.316-1.633zm-9.4 3.46a7.32 7.32 0 0 0 3.448-1.697c.752-.628 1.192-2.33.7-3.206-.5-.885-1.755-1.824-2.256-1.824h-.94s-.502 1.635-1.2 2.452-1.504 1.382-1.442 2.452-.064 2.2 1.7 1.822zm3.57-8c.064-.817-.253-1.697-.816-2.263l-.94-.94-.25 1.948-.187.817s.502.506.94.694 1.2.564 1.252-.255zm-21.68-44.6s2.074 0 1.185-7.4-4.744-14.42-7.804-19.264-6.225-12.446-7.6-16.498-2.3-9.598-2.3-12.5 1.24-4.4 1.24-4.4.538-.787.04-1.286-1.28-.04-2.068.746-1.613 2.24-1.944 3.276-.332 1.412-.332 1.412-1.57-.37-4.095-.163-3.722.414-3.806.952.332.956 2.15 1.744 2.98 1.12 3.9 2.2 3.238 6.497 3.95 9.113 2.23 9.713 2.848 15.28 2.496 12.315 5.123 17.95c.862 1.847 5.574 10.607 9.544 8.85zm4.6 13.05c-1.716.958-1.652 7.97-.9 11.602s4.322 8.162 5.402 9.373 1.335 1.2 1.9.892.825-.317.825-.317 1.526-.5 2.672-1.402.697-3.126.506-5.102-1.716-5.933-4.5-10.52-4.196-5.484-5.912-4.528z"/><path d="M193.014 241.667c0-2.288-1.984-4.016-4.264-4.016-1.078 0-2.03.272-2.618.803-2.314 2.087-.92 7.296 2.424 7.296 1.2 0 2.627-.202 3.502-1.04.773-.735.954-1.97.954-3.04zm33.15 65.9c-.913-.16-1.45-.534-2.798-1.45s-3.497-2.798-3.874-3.712-.38-.97-1.67-.536-3.122.375-4.52.43.16 1.613 1.13 3.07c.97 1.45.645 6.347.645 6.347s0 .43-.216 1.132-.053 1.183.322 1.344.6-.16 1.56-1.294 2.745-4.086 2.745-4.086.27.05 1.776.43 3.928.16 5.166-.216c1.24-.382.647-1.296-.268-1.46zm-5.75 3.77c-.645-.1-.913-.163-1.238.264-.32.433-.6 1.243-.752 1.67a.92.92 0 0 0 .27 1.132 12.05 12.05 0 0 0 .915.7s.538.592 1.078.86.643-.534.643-1.13.322-1.67.322-2.368-.594-1.022-1.24-1.13zM203.954 74.88c.167 3.853 4.433 11.226 6.86 15.163s3.094 5.526 2.678 5.78-1.423-1.76-2.762-3.516-3.93-5.863-6.105-8.963-5.353-10.47-5.77-11.14-.587-1.1-1.673-.253-3.178 8.964-.667 14.494 6.272 9.546 7.86 11.473 3.68 4.942 3.345 5.196-.92-.504-2.843-2.514-5.104-5.445-7.192-7.957c-1.7-2.04-4.003-6.184-4.8-7.665-.304-.56-.696-.4-.988-.116-.688.692-1.8 2.3-1.3 6.692.67 6.116 3.847 9.634 6.7 12.733s5.7 5.694 5.27 6.114-3.345-2.18-5.353-4.104-6.943-6.7-8.03-8.042-2.676-.67-2.593 4.607 5.938 10.64 8.363 13.57 5.438 4.688 5.188 5.274-2.678-.92-4.266-2l-8.698-5.78c-1.17-.838-1.757.754-.25 5.78s5.856 9.045 8.447 10.886 6.774 4.102 6.523 4.693c-.25.585-2.006-.17-4.433-1.343s-5.35-2.26-7.444-2.846-2.1.92-2.1.92-.42 4.27 2.676 7.706 6.607 4.776 9.952 5.36 3.847.756 3.763 1.26-.418.585-1.17.585-3.847.336-6.692.336-4.348.667-4.348 1.926-.084 2.933 4.18 5.78 9.032 3.268 11.04 3.688 2.1.587 1.673 1.174-1.337.502-4.517.836-5.102 1.592-5.52 2.428.25 3.352 2.846 5.1 5.936 2.347 10.956 2.012 6.274-.42 6.44.42-1.504 1.1-4.014 1.5-4.434.416-5.856 1.6-.334 3.602 2.1 5.36 8.45 1.76 10.958 1.592 6.356-1.1 6.607-.42-1.84 1.678-4.43 2.597-3.35 1.507-3.847 2.6c-.504 1.088-.084 2.093 3 3.264s7.6 1.174 9.952.084 3.596-1.5 4.016-1.088 0 .838-.502 1.425-2.5 2.177-5.102 2.848-2.844.67-3.765 2.764 1.42 3.773 6.105 3.94 10.958-1.676 12.966-2.852 2.76-1.423 3.094-1.003.25.67-.752 1.42c-1.005.757-4.183 3.017-5.77 3.437s-1.757 1.6-1.757 2.68-.418 3.266 3.763 4.273 9.116.253 13.633-2.933c1.455-1.024 2.3-1.87 2.777-2.602-.366-4.277-.173-7.217.34-9.928-.887-.094-2.57-.35-4.3-1.04-2.5-1.003-3.512-3.35-4.1-4.607s-1.42-1.256-2.426-.923c-1.005.34-2.008.756-3.43.673s-4.433-.838-6.607-3.437-1.76-5.107-1.84-6.368-2.1-.334-3.094-.334-3.932-.42-6.606-2.26-2.678-4.356-2.93-5.363-1.34-1.673-2.175-2-2.175-.667-4.016-2.177-2.507-4.438-2.6-5.443-1.172-1.1-4.935-3.015-3.43-5.947-3.26-7.537 1.922-2.93 1.922-3.52-1.254-.752-2.5-1.507-4.433-2-4.515-6.7 3-5.194 3-5.194-.587-.253-1.84-1.005-4.682-3.1-4.682-5.865 1.252-4.02 2.173-4.7 3.43-1.34 3.43-1.34-1.6-1.007-2.26-3.184-.92-4.856.667-6.784 4.266-1.927 5.7-1.927 2.676.754 3.178.338.585-.754.083-1.843-.585-3.77-.167-4.7.502-2.764 4.1-3.937 7.357 1.256 8.53 1.927.67-.924.67-2.094-2.424-4.104-5.186-8.293-4.014-6.367-7.1-12.733-5.104-14.574-5.52-16.67-1.254-1.1-1.254-1.1-.836.338-2.76 5.194-2.254 9.3-2.087 13.15zm63.1 85.667c-2.156-.1-4.956-1.292-7.1-4.42s-5.387-3.887-11-3.78-8.188-2.588-9.6-6.47.216-8.312 5.925-11.117 8.297-5.934 8.5-10.787-5.708-10.9-11.634-17.696S231.6 89.873 231.6 89.873s-1.723 2.267-1.723 4.532.86 4.64 0 5.286-1.185-.97-4.63-2.48-6.25-1.725-8.404.756 0 6.797 1.94 8.848 3.555 3.563 3.017 4.318-3.448-1.187-4.417-1.836-3.232-3.127-6.572-2.805-4.526 1.294-4.85 4.1 3.017 5.284 5.17 6.366c2.154 1.076 3.017 2.05 2.477 2.48s-1.078 0-2.048-.32-3.662-.647-5.385 0-4.526 3.02-1.94 5.934 7.972 3.992 9.05 4.206 1.616-.1 1.723.754-2.263.866-5.17.975-3.77 2.912-3.34 5.07 5.278 4.53 7.97 4.963 3.664 0 3.88.754-.322 1.078-1.832 1.5-4.417.756-4.958 3.13-.645 3.452 1.618 5.505 5.927 1.725 7.003 1.5 2.372-1.404 3.448-.322c1.076 1.076-.97 1.94-2.803 3.236s-1.723 3.778 1.4 5.505 6.25 1.076 7.54.647 3.017-2.48 3.877-1.187-2.692 1.727-4.202 3.56-.97 4.852 2.048 6.686 7.972.54 8.835-.214 1.937-1.076 2.584-.43-.322 2.37-.97 3.88-1.832 5.934 2.694 7.66 8.62-2.158 9.373-2.916 1.507-.863 2.154-.538.324.97-.216 1.727-1.723 4 1.507 6.26c2.207 1.547 4.614 1.433 5.92 1.208l2.44-9h-.675c-.43 0-.518.647-.518.906s.13.474-.26.474-.43.216-.992.606-1.078.86-1.382.647 1.166-.994 1.554-1.468 1.166-1.2 1.2-1.725.302-.82 1.078-1.468c.242-.2.43-.44.58-.673l1.5-9.028a71.4 71.4 0 0 0 .561-6.831l-1.416-.073zm-92.08-67.25c4.813 9.737 11.6 15.22 11.6 15.22s-.893-2.42-1.288-4.082-.086-3.547-.086-3.547-1.706-2.188-4.858-7.046-4.815-12.036-4.815-12.036 2.933 7.177 5.2 10.988a58.44 58.44 0 0 0 4.905 6.915s.917-3.368 1.575-3.544 1.138.35 1.706 1.093 1.054.675 1.054.675-.778-1.607-1.974-3.534c-.544-.876-1.337-1.82-1.898-2.706-1.794-2.835-5.662-8.222-7.646-13.6s-6.324-18.906-7.08-22.88-1.5-1.796-2.265 1.136-1.792 7.1-1.132 13.328 2.17 13.894 6.984 23.63zm6.23 26.28l4.436 3.118s-.418-.977-.683-2.15-.377-3.585-.377-3.585l-3.58-3.135c-1.47-1.284-3.32-2.946-6.975-7.476s-.716-1.8 2.26 1.436 8.672 7.965 8.672 7.965 0-.075.037-1.056a3.9 3.9 0 0 1 .868-2.377c.53-.68.25-.776-2.96-3.232S171.387 97.27 168 91.7s-7.08-13.14-7.08-13.14-1.792 11.156 5.004 23.445 13.498 16.258 15.3 17.582zm35.66 70.37c3.724-1.444 2.704-5.117 2.704-5.177s-2.284.724-4.384 1.504c-2.104.786-7.27 2.287-9.3 2.346s-2.04-.238-2.102-.54 1.562 0 4.504-.54 8.1-3.25 9-3.85.78-.726-.54-.846-2.462-.722-2.944-1.14-1.86.182-5.224.966-10.333 1.984-15.68 1.984-10.33-.902-11.17-1.084-1.742.302.842 4.635 11.653 6.677 17.96 6.615 12.613-3.43 16.337-4.873z"/><path d="M200.094 181.007c6.506.054 8.933-1.88 8.933-1.88s0-.332-.88-1.656-.716-3.6-.716-3.6l-4.247.664c-2.702.386-5.844.773-9.32.165s-1.984-.994.773-.664 8.05-.664 9.76-1.27.992-1.16-.165-1.55c-1.157-.382-4.3-2.374-4.3-2.374s-7.884.994-15.218.17c-7.333-.833-11.966-2.708-13.455-2.93s-1.434.388-1.434.388-.386.66 2.15 4.633c2.537 3.98 7.5 6.576 11.7 7.8s9.924 2.046 16.43 2.1zm-1.66-15.24s-.276-.386-.662-1.714.716-2.317.716-2.317-1.5-.44-6.34-1.05-5.126-.994-8.106-1.657-4.96-1.545-4.907-1.877.992.167 2.756.827 9.208 1.436 12.35 1.88 4.907.774 5.458.44 2.48-.83 2.48-.83-1.324-.382-2.977-.662-3.143-.994-4.024-1.6-1.16-.776-5.128-1.213-7.168-1.714-14.282-4.3-12.46-5.687-13.894-6.846-1.324-.33-.937 1.16.33 3.368 3.915 7.564 5.347 6.02 14.4 9.336c9.047 3.3 19.192 2.87 19.192 2.87zm-26.74-22.03c7.995 5.632 17.364 7.7 19.352 7.95.446-.52-.484-2.393-.056-3.534.518-1.367 1.38-1.38 3.3-1.5s.662-.5.22-.5-.55-.054-3.75-.883-6.45-1.326-10.86-2.983-5.734-2.87-5.625-3.202 2.04 1.052 6.122 2.597 8.822 2.153 11.413 2.708c2.6.548.33-.555-.883-1.273s-2.923-3.37-2.923-3.37-2.867-.497-7.553-1.93-8.6-3.04-12.516-5.246c-1.344-.76-2.646-1.742-4.048-2.75l-6.428-4.65c-1.6-1.16-1.102-.22-.937.497s1.268 4.033 3.803 7.676 3.364 4.75 11.36 10.384zm-1.32-15.85c7.884 6.242 14.664 8.17 15.823 8.668s1.048-.165.827-.827-.388-2.814-.388-2.814l-5.955-3.426c-3.143-1.824-6.615-4.307-8.93-5.906s-.937-1.5-.22-.887 3.915 2.486 7.112 4.474l8.05 4.86s.1-1.048.773-1.712 2.314-.495 2.314-.495-.827-.83-1.324-1.6-3.088-1.6-6-2.985c-2.923-1.378-8.162-5.243-12.02-8.5s-11.36-11.43-11.85-12.1c-.497-.664-.827-.55-.883.276s-.33 1.38.497 5.136c.833 3.754 4.305 11.595 12.2 17.835zm27.9-59.007c.894 1.856 1.873 3.26 2.578 4.468l1.665 3s.214-.643.045-1.74-.338-2.618-.04-4.43c.156-.97.366-1.94.313-2.8-.062-.98-.4-1.828-.523-2.387l-1.94-8.903c-.548-3.25-1.136-7.9-1.095-11.985s.632-2.027.632-.04.2 5.023.842 9.705 2.612 11.814 2.612 11.814.126-1.097.716-2.66 1.56-3.332 2.317-5.274.5-2.265.5-2.265-2.768-13.25-3.495-19.5-1.894-22.718-1.894-22.718c-4.05 4.074-7.06 14.798-7.597 24.94-.4 7.64.833 14.713 1.2 17.58.7 5.677 1.695 10.1 3.182 13.198zm-9 20.907c.126-3 .816-5.27 2.75-5.936 0 0-1.712-3.002-3.208-7.28-1.022-2.93-1.868-6.688-2.297-9.572-1.058-7.1-1.905-14.415.212-2.437s4.656 16.215 4.656 16.215l3.07 4.982c-.454-2.188-.525-3.726-.4-6.116s.422-5.63 1.15-8.192c0 0-3.705-7.418-6.032-16.324s-3.658-17.004-3.705-21.832l-.317-6.467s-3.808 2.86-5.077 17.38 2.54 28.408 4.444 33.7 4.764 11.87 4.764 11.87zm41.56 110.74l-2.402-1.564c-1.802-1.14-1.26-4.57-1.26-4.57l-1.804 1.264c-1.322.902-2.822 1.922-4.624 2.646l-3.844 1.564c-1.142.362-.84-.118.12-.662s1.262-.842 3.666-1.804 7.206-5.175 7.206-5.175l-3.124-.18c-1.982-.06-4.506-1.082-4.506-1.082s-1.98 1.804-9.97 5.23-14.777 4.33-14.777 4.33.842 4.093 4.686 5.477c3.184 1.384 7.57 2.226 16.16.182s14.473-5.657 14.473-5.657zm10.52 8.2c.662-3.373-1.262-5.72-1.262-5.72s-.42.24-1.62 1.324-2.946 3.13-6.308 4.8-4.566 1.564-1.322-.182 8-6.677 8-6.677l-1.26-.482c-1.264-.482-3.426.36-12.435 5.773s-14.297 5.597-14.297 5.597 4.024 4.873 14.957 4.5c10.933-.356 14.897-5.6 15.557-8.957zm20.66-3.9s-1.202 1.682-2.824 2.766-5.946 1.746-5.946 1.746-.18.482-1.02 1.564-2.704 3.67-4.626 5.055-4.926 2.284-5.106 1.922 1.742-1.082 3.604-2.226 3.544-3.25 4.806-4.7-.54-1.204-.54-1.204-2.282.058-4.386-.12c-2.102-.184-1.682 0-2.282 1.024s-1.442 1.924-3.004 3.73l-5.526 6.373c-1.2 1.446-.3 1.866-.3 1.866s.542.904 5.406 1.444c3.004.336 6.257-.043 9.68-2.018 2.12-1.23 4.3-3.178 6.54-5.62 5.822-6.373 5.522-11.608 5.522-11.608zm2.58 13.17l-1.864 2.227s.842-2.588 1.562-3.8l1.1-1.676a32.39 32.39 0 0 1-1.952-5.844c-.534 1.73-2.197 6.808-4.264 10.1-2.52 4.028-4.746 5.473-3.304 6.553s4.264 1.326 7.45-.24c3.075-1.5 3.964-4.146 4.4-6.274-.54-.836-1.046-1.704-1.515-2.614-.398.246-.975.705-1.624 1.55zm182.83-87.4c2.593-1.84 6.94-5.863 8.447-10.886s.92-6.617-.25-5.78-7.1 4.7-8.7 5.78-4.016 2.595-4.264 2 2.758-2.344 5.188-5.274c2.423-2.933 8.278-8.293 8.363-13.57s-1.506-5.946-2.6-4.607-6.024 6.116-8.03 8.042-4.935 4.524-5.35 4.104c-.422-.42 2.424-3.013 5.27-6.114s6.022-6.617 6.692-12.733c.478-4.393-.623-6-1.312-6.692-.3-.293-.684-.444-.988.116-.804 1.48-3.1 5.625-4.8 7.665-2.087 2.5-5.27 5.948-7.2 7.957s-2.5 2.766-2.844 2.514 1.757-3.268 3.345-5.196 5.35-5.946 7.864-11.473c2.505-5.53.416-13.656-.67-14.494s-1.256-.416-1.674.253-3.596 8.042-5.77 11.14l-6.105 8.963c-1.34 1.76-2.342 3.77-2.762 3.516s.25-1.84 2.678-5.78 6.692-11.3 6.857-15.163c.17-3.85-.165-8.3-2.1-13.15s-2.76-5.194-2.76-5.194-.836-1.003-1.256 1.1-2.426 10.303-5.518 16.67-4.348 8.544-7.1 12.733-5.188 7.12-5.188 8.293-.502 2.766.67 2.094 4.93-3.1 8.53-1.927 3.68 3.015 4.1 3.938.336 3.602-.167 4.7-.42 1.425.082 1.843 1.76-.338 3.178-.338 4.1 0 5.687 1.927 1.34 4.607.67 6.784-2.26 3.184-2.26 3.184 2.5.67 3.428 1.34 2.175 1.928 2.175 4.7-3.428 5.1-4.686 5.865c-1.252.752-1.837 1.005-1.837 1.005s3.096.502 3 5.194-3.26 5.947-4.517 6.7-2.5.92-2.5 1.507 1.755 1.928 1.924 3.52.502 5.6-3.262 7.537-4.85 2-4.935 3.015-.752 3.938-2.593 5.443-3.176 1.843-4.016 2.177c-.834.34-1.922 1.007-2.173 2s-.25 3.52-2.927 5.363-5.606 2.26-6.6 2.26-3-.923-3.094.334.336 3.77-1.836 6.368c-2.18 2.6-5.2 3.354-6.6 3.437s-2.423-.336-3.426-.673-1.84-.334-2.43.923c-.583 1.258-1.588 3.604-4.097 4.607-1.725.692-3.403.947-4.3 1.04.514 2.7.703 5.65.34 9.928.478.733 1.324 1.58 2.777 2.602 4.517 3.186 9.452 3.94 13.633 2.933s3.763-3.186 3.763-4.273-.167-2.26-1.755-2.68-4.768-2.68-5.77-3.437c-1.005-.75-1.1-1.003-.752-1.42.332-.42 1.086-.17 3.1 1.003s8.282 3.015 12.966 2.852c4.682-.17 7.026-1.845 6.103-3.94-.917-2.1-1.168-2.1-3.76-2.764s-4.6-2.26-5.104-2.848-.92-1.003-.5-1.425 1.673 0 4.014 1.088 6.857 1.1 9.952-.084 3.514-2.177 3-3.264-1.254-1.674-3.848-2.6c-2.593-.92-4.684-1.926-4.433-2.597s4.097.253 6.604.42 8.535.17 10.96-1.592 3.512-4.187 2.1-5.36-3.343-1.174-5.856-1.6c-2.507-.42-4.18-.67-4.014-1.5s1.423-.756 6.44-.42 8.364-.25 10.958-2.012 3.262-4.27 2.844-5.1-2.34-2.094-5.518-2.428-4.1-.253-4.517-.836-.336-.756 1.673-1.174 6.774-.838 11.042-3.688 4.18-4.52 4.18-5.78-1.504-1.926-4.348-1.926-5.938-.336-6.692-.336-1.086-.083-1.172-.585.42-.67 3.765-1.26 6.86-1.924 9.956-5.36 2.676-7.706 2.676-7.706 0-1.507-2.092-.92-5.016 1.674-7.444 2.846-4.18 1.926-4.43 1.343c-.253-.6 3.93-2.848 6.52-4.7zm-10.84-11.47c-1.723-.647-4.418-.324-5.385 0s-1.5.756-2.05.32c-.536-.43.322-1.403 2.48-2.48 2.152-1.082 5.494-3.56 5.17-6.366s-1.5-3.778-4.85-4.1-5.603 2.158-6.57 2.805-3.877 2.6-4.418 1.836 1.076-2.267 3.015-4.318 4.095-6.367 1.94-8.848-4.956-2.265-8.404-.756-3.77 3.13-4.63 2.48 0-3.02 0-5.286-1.723-4.532-1.723-4.532-4.635 9.606-10.56 16.402-11.852 12.84-11.634 17.696 2.798 7.982 8.5 10.787 7.324 7.228 5.923 11.117c-1.4 3.883-3.986 6.58-9.585 6.47s-8.837.65-11 3.78-4.96 4.314-7.112 4.42l-1.42.073a72.2 72.2 0 0 0 .56 6.83c.465 3.566.975 6.514 1.5 9.028a2.93 2.93 0 0 0 .583.673c.778.647 1.04.95 1.08 1.468s.82 1.25 1.2 1.725 1.854 1.252 1.55 1.468-.817-.26-1.376-.647-.604-.606-.996-.606c-.386 0-.26-.216-.26-.474s-.086-.906-.514-.906h-.677c.9 3.782 1.766 6.482 2.44 9 1.305.225 3.7.34 5.92-1.208 3.23-2.27 2.048-5.505 1.507-6.26s-.863-1.4-.217-1.727 1.404-.216 2.156.538 4.847 4.64 9.375 2.916 3.34-6.15 2.694-7.66-1.614-3.24-.973-3.88c.65-.65 1.725-.326 2.587.43s5.82 2.05 8.835.214 3.555-4.856 2.046-6.686c-1.507-1.836-5.06-2.267-4.2-3.56s2.586.756 3.877 1.187 4.416 1.082 7.543-.647 3.23-4.206 1.397-5.505-3.876-2.158-2.8-3.236 2.374.1 3.448.322 4.742.54 7-1.5 2.158-3.13 1.618-5.505-3.452-2.698-4.96-3.13-2.046-.756-1.83-1.5 1.183-.322 3.877-.754 7.54-2.805 7.973-4.963-.43-4.96-3.34-5.07-5.278-.1-5.173-.975.65-.538 1.725-.754 6.465-1.292 9.05-4.206-.214-5.286-1.94-5.934z"/><path d="M456.204 108.517s6.795-5.483 11.606-15.22 6.324-17.392 6.984-23.632-.377-10.397-1.13-13.328-1.5-5.106-2.265-1.136-5.1 17.5-7.08 22.88-5.854 10.778-7.644 13.6l-1.9 2.706-1.974 3.534s.486.07 1.052-.675 1.054-1.27 1.7-1.093 1.575 3.544 1.575 3.544 2.623-3.107 4.9-6.915 5.2-10.988 5.2-10.988-1.665 7.177-4.813 12.036l-4.86 7.046s.306 1.882-.088 3.547-1.284 4.084-1.284 4.084zm25.67-29.967s-3.68 7.562-7.078 13.14-11.702 14.938-14.912 17.396-3.488 2.552-2.96 3.232.827 1.397.868 2.377l.038 1.056s5.7-4.716 8.672-7.965 5.918-5.966 2.26-1.436-5.503 6.193-6.973 7.476l-3.58 3.135s-.113 2.415-.377 3.585-.683 2.15-.683 2.15 2.642-1.794 4.436-3.118 8.494-5.295 15.292-17.584 4.997-23.443 4.997-23.443zm-33-40.45c-.536-10.142-3.55-20.865-7.598-24.94l-1.896 22.72c-.728 6.26-3.493 19.5-3.493 19.5s-.27.326.5 2.265 1.727 3.713 2.32 5.274c.587 1.562.712 2.66.712 2.66s1.98-7.13 2.616-11.814c.63-4.684.84-7.72.84-9.705s.592-4.05.634.04-.55 8.734-1.097 11.985-1.686 7.845-1.935 8.903c-.137.56-.463 1.406-.525 2.387-.053.862.158 1.83.315 2.8.294 1.813.126 3.334-.04 4.43s.043 1.74.043 1.74.598-1.185 1.667-3c.703-1.2 1.684-2.614 2.578-4.468 1.5-3.086 2.47-7.52 3.18-13.198.356-2.87 1.594-9.94 1.2-17.58zm9.38 39.82c1.905-5.3 5.72-19.185 4.444-33.7-1.267-14.518-5.077-17.38-5.077-17.38l-.32 6.467c-.047 4.826-1.374 12.926-3.705 21.832s-6.03 16.324-6.03 16.324c.724 2.563 1.03 5.8 1.147 8.192s.043 3.93-.4 6.116l3.07-4.982s2.54-4.24 4.656-16.215 1.27-4.663.212 2.438c-.43 2.884-1.273 6.64-2.3 9.572-1.494 4.28-3.202 7.28-3.202 7.28 1.933.666 2.623 2.936 2.75 5.936.004 0 2.86-6.574 4.764-11.87zm2.8 105.647a62.24 62.24 0 0 1-11.173 1.084c-5.347 0-12.3-1.204-15.677-1.984s-4.746-1.386-5.226-.966-1.62 1.024-2.944 1.14-1.442.242-.538.846c.898.598 6.066 3.308 9 3.85s4.564.242 4.504.54-.062.6-2.104.54-7.2-1.56-9.3-2.346c-2.1-.78-4.386-1.564-4.386-1.504s-1.02 3.733 2.704 5.177 10.03 4.8 16.34 4.87 15.377-2.287 17.96-6.615 1.682-4.8.842-4.633zm10.47-17.47c-1.5.22-6.12 2.094-13.45 2.93-7.333.825-15.22-.17-15.22-.17s-3.142 2-4.3 2.374c-1.16.4-1.877.94-.167 1.55s7 1.6 9.76 1.27 4.245.054.772.664-6.617.22-9.32-.165l-4.247-.664s.167 2.265-.714 3.6-.88 1.656-.88 1.656 2.424 1.933 8.93 1.88 12.24-.883 16.43-2.098 9.154-3.808 11.7-7.8c2.537-3.973 2.15-4.633 2.15-4.633s.056-.6-1.43-.4zm9.37-21.26c-1.434 1.16-6.782 4.25-13.894 6.846s-10.3 3.868-14.282 4.3-4.247.606-5.126 1.213a10.55 10.55 0 0 1-4.024 1.6c-1.652.274-2.978.662-2.978.662s1.928.5 2.48.83 2.314 0 5.458-.44 10.586-1.215 12.35-1.88 2.7-1.16 2.756-.827-1.928 1.215-4.907 1.877-3.25 1.05-8.104 1.657-6.34 1.05-6.34 1.05 1.103.992.718 2.317-.664 1.714-.664 1.714 10.146.44 19.185-2.87c9.045-3.317 10.8-5.136 14.394-9.336s3.53-6.07 3.913-7.564.497-2.317-.937-1.16zm4.4-19.65l-6.43 4.65-4.048 2.75c-3.9 2.207-7.826 3.8-12.514 5.246s-7.553 1.93-7.553 1.93-1.7 2.65-2.923 3.37-3.474 1.82-.885 1.273c2.593-.555 7.333-1.162 11.415-2.708s6.013-2.927 6.12-2.597-1.213 1.547-5.623 3.202-7.66 2.156-10.86 2.983-3.3.883-3.752.883-1.7.384.22.5 2.792.124 3.3 1.5c.43 1.14-.502 3-.056 3.534 2-.25 11.36-2.317 19.354-7.95s8.82-6.74 11.357-10.382 3.637-6.958 3.803-7.676.664-1.657-.934-.5zm-30 5.13c.662.664.772 1.712.772 1.712l8.048-4.86 7.116-4.474c.716-.604 2.094-.716-.22.887s-5.786 4.084-8.93 5.906l-5.957 3.426s-.167 2.15-.384 2.814-.334 1.326.825.827 7.94-2.426 15.825-8.668 11.36-14.08 12.184-17.837.55-4.3.497-5.136-.386-.94-.883-.276-7.997 8.837-11.854 12.094-9.098 7.12-12.02 8.5-5.512 2.2-6 2.985-1.322 1.6-1.322 1.6 1.654-.167 2.316.497zm-32.82 60.65s-2.524 1.022-4.502 1.082l-3.126.18s4.806 4.2 7.207 5.175 2.702 1.264 3.666 1.804 1.262 1.024.12.662-2.046-.84-3.846-1.564-3.304-1.744-4.626-2.646l-1.8-1.26s.54 3.43-1.262 4.57l-2.404 1.564s5.9 3.613 14.475 5.66 12.977 1.204 16.16-.182c3.846-1.384 4.686-5.477 4.686-5.477s-6.784-.898-14.777-4.33-9.97-5.233-9.97-5.233zm-17.3 10.83l-1.264.482s4.744 4.93 8 6.677 2.044 1.864-1.32.182-5.104-3.727-6.308-4.8-1.622-1.324-1.622-1.324-1.918 2.346-1.264 5.72c.664 3.366 4.63 8.6 15.56 8.96s14.957-4.5 14.957-4.5-5.286-.184-14.295-5.597c-9.015-5.417-11.173-6.26-12.435-5.777zm-3.13 12.57l-3.004-3.73c-.604-1.024-.18-1.208-2.282-1.024s-4.386.12-4.386.12-1.802-.242-.54 1.204 2.946 3.55 4.806 4.7 3.784 1.864 3.602 2.226-3.182-.538-5.104-1.922-3.788-3.97-4.626-5.055c-.844-1.082-1.024-1.564-1.024-1.564s-4.327-.662-5.946-1.746-2.826-2.766-2.826-2.766-.3 5.235 5.527 11.608c2.228 2.443 4.416 4.4 6.538 5.62 3.42 1.974 6.68 2.353 9.68 2.018 4.864-.538 5.404-1.444 5.404-1.444s.9-.422-.3-1.866l-5.522-6.373zm-22.76-5.48a32.24 32.24 0 0 1-1.948 5.844l1.108 1.676c.722 1.206 1.562 3.8 1.562 3.8s-.662-.664-1.862-2.227c-.647-.844-1.226-1.303-1.622-1.547l-1.517 2.614c.435 2.128 1.324 4.764 4.4 6.274 3.182 1.566 6.007 1.324 7.45.24s-.78-2.526-3.304-6.553c-2.068-3.304-3.73-8.38-4.267-10.112z"/><ellipse rx="1.191" transform="matrix(1.875 0 0 1.875 -278.606 -141.173)" ry="1.092" cy="105.75" cx="350.63"/><path d="M351.644 55.983c1.163.656 2.37 1.322 3.585 1.672 4.346 1.247 8.86.474 12.278-1.07 4.373-2.32 7.973-3.87 10.63-4.13 2.248-.216 3.345.748 5.387.797.664.017 1.23-.14 1.472-.624.428-.86.17-3-2.916-4.733-3.086-1.718-7.716-1.633-11.833-.426-4.116 1.202-6.517 2.835-8.145 4.04s-3.56 3.056-4.027 2.668.94-1.292 1.714-2.066 1.116-1.033 1.116-1.033c-4.52.3-9.37-1.2-13.292-4.043 0 .004-1.284 5.936 4.03 8.948zm45.8-2.75c-3.004-1.376-6.004-1.206-9.688.172s-5.492 2.494-5.492 2.494.517 3.18-1.7 4.642-4.457.604-5.06-.86-.77-2.237-.77-2.237-3.516 1.978-8.32 2.84c-2.72.487-7.76 1.03-10.972-.26 0 0-2.918 2.84-5.06 4.558s-4.46 3.18-4.46 3.18.257.7 1.286 1.033 1.37.516.688 1.633c-.688 1.118-5.66 5.6-7.802 7.136s-5.316 2.754-5.316 2.754 1.026 1.892 2.484 2.494 1.716 1.55 1.116 2.582-5.745 6.7-7.9 8.685-3.77 2.235-4.716 2.494-2.655 1.206-.767 3.354 6.34 2.927 10.8 1.635 8.745-6.538 8.745-6.538-.945 7.57-.945 11.094.43 7.568 1.03 9.632 1.198 3.094 1.198 3.094 3.002-1.718 5.06-6.964 2.572-8.17 2.572-9.718.084-2.4 1.457-1.633 2.4 1.374 2.916 1.46a5.77 5.77 0 0 0 .857.086s-.857-3.784-.857-6.623.943-9.028 2.143-10.148 1.427.422 1.543 1.12c.246 1.457 1.48 3.234 3.26 3.784.583-4.177 1.5-7.607 4.97-11.267.632-.66 1.03-1.545 3.174-.688 3.163 1.267 7.226 2.07 10.404.832s5.48-4.517 4.768-4.873c-.17-.088-4.882 2.32-8.57 1.116s-5.404-2.407-3.257-4.644 3.084-2.492 7.373-6.02 7.716-5.33 11.5-4.727 4.457 2.837 4.8 3.266 1.974 1.72 1.974-1.373c-.002-3.1-1.46-7.226-4.46-8.6zm-40.27 60.974c-.743-1.067-2.094-4.06-2.094-4.06s-.122.737-.9 2.87-2.996 5.17-2.996 5.17 1.762-.37 3.733-.984 3.322-1.762 3.322-1.762-.328-.167-1.065-1.234zm-15.26-11.6s-1.234 3.12-3.983 5.83-4.802 2.38-4.802 2.38.285-.083 2.338-1.52 4.103-5.62 4.103-5.62c-2.254 1.356-7.44 2.64-10.176 2.093 0 0-.413.943-1.067 2.627s-2.586 4.802-3.6 6.157-.25 1.558-.25 1.558.493.574 6.977 2.38 12.313.78 12.313.78-.248-.577-1.356-5.006-.488-11.66-.488-11.66z"/><ellipse rx="1.192" transform="matrix(1.875 0 0 1.875 -278.606 -141.173)" ry="1.092" cy="105.75" cx="289.34"/><path d="M259.194 53.253c2.04-.05 3.137-1.014 5.4-.797 2.657.26 6.257 1.808 10.63 4.13 3.418 1.545 7.93 2.317 12.278 1.07 1.217-.35 2.42-1.016 3.585-1.672 5.316-3 4.03-8.946 4.03-8.946-3.923 2.83-8.77 4.35-13.288 4.043 0 0 .343.26 1.114 1.033s2.184 1.674 1.716 2.066-2.4-1.464-4.03-2.668-4.03-2.84-8.145-4.04c-4.116-1.207-8.745-1.3-11.83.426s-3.343 3.874-2.914 4.733c.236.482.804.64 1.468.623zm57.78 43.314c-.943-.26-2.57-.516-4.714-2.494s-7.288-7.654-7.9-8.685-.343-1.978 1.116-2.582 2.486-2.494 2.486-2.494-3.17-1.206-5.314-2.754-7.118-6.02-7.804-7.136-.343-1.3.686-1.633 1.288-1.033 1.288-1.033-2.316-1.46-4.457-3.18-5.06-4.558-5.06-4.558c-3.212 1.3-8.252.746-10.974.26-4.802-.86-8.316-2.84-8.316-2.84s-.173.774-.772 2.237-2.83 2.323-5.06.86-1.716-4.642-1.716-4.642-1.8-1.118-5.486-2.494-6.686-1.55-9.688-.172-4.46 5.503-4.46 8.6 1.63 1.806 1.972 1.373 1.03-2.666 4.802-3.266 7.202 1.204 11.488 4.727c4.286 3.53 5.23 3.786 7.373 6.02s.43 3.44-3.257 4.644-8.402-1.204-8.574-1.116c-.7.354 1.6 3.634 4.77 4.873s7.245.435 10.406-.832c2.143-.86 2.542.028 3.17.688 3.482 3.66 4.387 7.1 4.973 11.267 1.78-.547 3-2.325 3.26-3.784.118-.7.343-2.237 1.543-1.12s2.143 7.3 2.143 10.148-.86 6.623-.86 6.623.343 0 .86-.086 1.543-.688 2.916-1.46 1.457.086 1.457 1.633.514 4.472 2.572 9.718 5.06 6.964 5.06 6.964.602-1.03 1.202-3.094 1.03-6.105 1.03-9.632-.943-11.094-.943-11.094 4.288 5.246 8.745 6.538 8.918.516 10.804-1.635c1.88-2.15.165-3.094-.778-3.354zm-29.32 13.58s-1.354 2.994-2.092 4.06-1.067 1.234-1.067 1.234 1.354 1.148 3.324 1.762l3.735.984s-2.218-3.04-2.996-5.17l-.904-2.87zm26.76-1.77l-1.067-2.627c-2.736.547-7.926-.737-10.18-2.093 0 0 2.053 4.183 4.104 5.62s2.34 1.52 2.34 1.52-2.05.33-4.802-2.38-3.98-5.83-3.98-5.83.615 7.224-.493 11.655-1.354 5.006-1.354 5.006 5.826 1.026 12.3-.78 6.975-2.38 6.975-2.38.778-.204-.246-1.558-2.953-4.472-3.6-6.154zm-22.74 162.5c1.367.456 3.92-.546 5.197-2.096s1.733-3.924 2.644-5.3l1.573-2.383s-.195 2.254-1.404 5.274c-1.153 2.88-1.354 6.82-1.08 8.507.548 3.373 2.736 3.92 4.012 3.463.97-.345 2.438-1.84 3.786-4.082.426-.7.724-1.693 1.14-2.483.866-1.64 1.64-4.33 2.023-4.254.844.165.304 2.064-.015 3.34-.64 2.552-1.914 6.293-2.006 8.572s.184 6.382 2.462 6.566 3.465-1.826 4.74-6.476 1.553-6.1 2.098-6.1.548 3.2.548 4.56a23.58 23.58 0 0 0 .204 3.07c.354 2.492 1.082 5.484 1.802 6.142 1.093 1.003 2.006.82 2.006.82s.9.186 2.006-.82 2.004-7.845 2.004-9.212 0-4.56.546-4.56.82 1.46 2.098 6.1 2.462 6.658 4.742 6.476 2.556-4.286 2.464-6.566-1.367-6.02-2.008-8.572.274-2.372 2.008.9l1.65 3.16c1.215 1.933 2.396 3.092 3.274 3.405 1.275.457 3.465-.1 4.012-3.463s-2.006-13.042-2.006-13.042l1.095 1.642c.9 1.367 1.367 3.74 2.646 5.3s3.83 2.552 5.197 2.096 1.55-3 .546-7.57-5.108-7.112-8.025-10.76c-2.685-3.353-4.753-9.255-5.064-10.18-3.673 1.82-6.894 3.883-9.804 6.923l-7.346 7.87s-1.312-1.573-7.346-7.87c-2.93-3.058-6.17-5.126-9.872-6.954-.34.778-2.85 6.414-5.56 9.806-1.348 1.686-3.206 2.96-4.526 4.577-1.534 1.88-2.467 4.136-3.007 6.587-1 4.564-.82 7.12.55 7.577zm-.16 15.45l2.676-2.4s1.284-1.07.964.966-1.018 6.208-.6 8.025.64 3.37 2.9 2.033 2.783-2.14 3.853-3.262 2.194-1.603 1.926.16-1.07 4.44-.696 8.025 2.14 4.118 4.44 1.07a40.33 40.33 0 0 0 4.387-7.329c.696-1.498 2.087-2.78 2.087 0 0 5.985 1.373 14.7 7.97 17.014 6.602-2.323 7.974-11.03 7.974-17.014 0-2.78 1.387-1.498 2.08 0a40.48 40.48 0 0 0 4.389 7.329c2.3 3.05 4.067 2.514 4.44-1.07s-.43-6.26-.696-8.025.857-1.286 1.928-.16 1.6 1.926 3.85 3.262 2.462-.212 2.9-2.033-.268-5.993-.587-8.025.962-.966.962-.966a116.61 116.61 0 0 0 2.678 2.411c1.762 1.55 4.187 1.644 4.187 1.644s1.134-6.283-1.483-10.035l-3.58-4.973s-1.48-.086-2.616-.52-2.235-1.256-2.235-1.256v3.476s3.208 3.05 3.958 3.958 2.246 2.46.054.962-4.014-2.996-4.014-2.996-.43 3.158-1.34 3.96-2.194.906-2.726.694l-.534-.216-.16 1.234s1.978 3.692 2.244 5.2-.16 1.335-1.07-.6-2.674-4.386-3.476-5.723-1.98-2.248-1.873-.534-.587 4.813-1.178 5.936-.962 1.498-.962 1.498l1.4 5.137c.163.803.053 1.712-.64.694s-2.678-5.295-2.678-5.295-2.62-.107-3.37-.857-1.926-3.634-1.926-3.634-1.072 3.683-1.96 4.866-2.953 2.36-2.953 2.36-.148 6.405-.293 7.538-.197 1.624-.677 1.624-.53-.493-.677-1.624-.293-7.538-.293-7.538-2.07-1.18-2.957-2.36-1.96-4.866-1.96-4.866-1.176 2.884-1.926 3.634-3.37.857-3.37.857-1.98 4.28-2.676 5.295-.803.1-.64-.694 1.4-5.137 1.4-5.137-.375-.373-.964-1.498-1.284-4.224-1.176-5.936-1.072-.803-1.875.534-2.567 3.8-3.476 5.723-1.337 2.1-1.07.6 2.246-5.2 2.246-5.2l-.16-1.234-.534.216c-.536.212-1.82.107-2.73-.694s-1.337-3.96-1.337-3.96-1.82 1.498-4.012 2.996-.696-.054.054-.962 3.956-3.958 3.956-3.958v-3.476s-1.1.82-2.233 1.256-2.618.52-2.618.52-.96 1.22-3.577 4.973-1.483 10.035-1.483 10.035 2.42-.094 4.185-1.644zm-7.1 21.38l6.52-4.485c3.576-2.376 4.9-5.012 4.9-5.012h-1.262c-.684 0-1.262-.95-1.314-1.9s0-2.9.262-5.17-.367-4.114-.367-4.114-1.524 1.42-3.838 2.636-3.262.632-3.262.632l-.58-2.317-2.42 4.586c-1.42 2.48-5.26 5.224-7.993 7.28s-5.734 4.223-7.995 5.014-.945 1.847-.945 1.847 2.26 2.265 8.098 3.32 8.627-1.316 10.204-2.317zm20.4-2.27c-2.085-.22-3.332-1.007-3.735-3.272-.264-1.476.107-7.12.107-7.12s-.684.58-1.474 1.532-2.578 1.16-2.578 1.16-.262.8-1.052 2.055-1.8 2.8-3.788 4.063l-5.837 4c-1.526 1.267-3.313 2.745-5.312 3.85s-3.788 2.902-4.472 5.854-.156 3.904 2.156 3.746 2.578.053 6.3-.898 9.045-5.115 12.936-7.594c3.898-2.48 6.737-7.386 6.737-7.386zm10.36 3.43s-1.58-2-2.156-4.273l-1.682-6.75s-.527 1.425-1.8 4.1c-1.264 2.692-3.418 3.326-3.418 3.326s-.107 1.16-1.894 3.428-4.416 4.376-7.1 5.962c-2.683 1.58-6.154 3.746-8.048 6.435s-2.05 5.484-1.155 6.697 2.154-.16 3.943-1.056 6.9-1.687 13.937-5.486 9.362-12.394 9.362-12.394zm3.05 15.77c1.946-2.9 2.263-9.966 2.263-9.966s-.683-.474-1.63-1.27-2.786-3.585-2.786-3.585-1.157 2.424-2.42 4.693-1.896 3.06-4.524 5.486-6.206 4.802-7.733 7.386-.683 7.753.317 9.493 2.42 1.16 3.9-.262 1.946-1.793 4.522-4 6.156-5.066 8.1-7.967zm57.52-19.78c-2.263-.8-5.263-2.955-7.997-5.014s-6.572-4.8-7.993-7.28-2.417-4.586-2.417-4.586l-.58 2.317s-.947.583-3.26-.632-3.838-2.636-3.838-2.636-.634 1.847-.368 4.114c.26 2.27.315 4.22.26 5.17s-.63 1.9-1.314 1.9h-1.262s1.314 2.636 4.9 5.012 4.944 3.482 6.52 4.485 4.367 3.373 10.204 2.317 8.096-3.32 8.096-3.32 1.318-1.058-.943-1.847zm-14.1 6.86c-1.997-1.106-3.788-2.584-5.312-3.85s-3.84-2.743-5.835-4-2.998-2.794-3.788-4.063-1.054-2.055-1.054-2.055-1.8-.212-2.576-1.16c-.788-.954-1.472-1.532-1.472-1.532s.368 5.646.105 7.12c-.403 2.265-1.648 3.053-3.73 3.272 0 0 2.84 4.903 6.73 7.384s9.202 6.645 12.936 7.594 3.998.74 6.3.898 2.84-.793 2.154-3.746-2.47-4.744-4.468-5.852zm-16 2.95c-2.683-1.586-5.312-3.696-7.1-5.962s-1.894-3.428-1.894-3.428-2.154-.636-3.42-3.326l-1.8-4.1-1.68 6.75c-.58 2.272-2.154 4.273-2.154 4.273s2.312 8.597 9.358 12.396 12.15 4.6 13.94 5.486 3.05 2.267 3.945 1.056.735-4-1.16-6.697-5.364-4.858-8.048-6.437zm-11.98 5.33c-2.63-2.426-3.26-3.216-4.522-5.486l-2.42-4.693s-1.84 2.794-2.786 3.585l-1.63 1.27s.317 7.067 2.26 9.966 5.524 5.75 8.1 7.967 3.05 2.586 4.52 4 2.895 2.004 3.892.262 1.837-6.9.315-9.493-5.1-4.957-7.73-7.386zm-10 8.17c-1.7-1.978-2.256-2.962-2.256-2.962s-.564.984-2.254 2.962-5.644 5.077-5.644 5.077.353 5.22 2.257 8.038c1.605 2.38 3.14 4.556 5.64 6.208 2.5-1.652 4.037-3.827 5.642-6.208 1.907-2.818 2.257-8.038 2.257-8.038s-3.95-3.103-5.644-5.077z"/></g><path d="M465.054 264.027c-1.573-.373-2.24-.97-2.24-.97s-.673-.075-1.202.898c-.518.97-2.54 2.24-2.54 2.24s-2.84.75-3.216 2.696.973 2.616 2.317 2.4c1.35-.225 4.64-.898 6.054-2.616 1.42-1.72 1.646-2.694 1.944-3.37.3-.67.452-.892-1.12-1.27zm4.4-15.48c-1.022-4.324-3.814-9.666-9.197-12.34l-2.618 9.35c-.6 2.24-.6 2.168 1.12 2.618s7.25 1.642 8.374 1.942 3 1.27 2.32-1.57zm-25.65-4.04c1.27.225 1.12-.3 1.57-2.02l2.7-10.243s-5.68-.225-10.616 2.166-7.104 6.804-7.104 6.804 1.273.523 4.64 1.273l8.822 2.02zm-13.16 11.74l-2.766-.598s1.27 4.858 3.366 7.553 4.412 4.04 8.75 4.114 7.626-2.317 8.15-4.187 1.42-3.3 1.42-3.3-7.853-1.052-11.068-1.798l-7.853-1.794z" class="D"/><path d="M367.904 161.257c-1.997-12.152 5.008-22.854 5.008-22.854l-13.633-15.94c-10.504 5.9-25.12 5.107-37.826-.737-12.7 5.843-27.324 6.637-37.824.737l-13.633 15.94S277 149.105 275 161.257s-6.306 31.38-5.23 39.223 6.615 16.92 12.306 21.688 14.15 8.77 20.147 10.922 11.846 6.306 14.616 8.46 4.613 4 4.613 4 1.847-1.847 4.616-4 8.614-6.306 14.6-8.46 14.462-6.154 20.15-10.922 11.23-13.845 12.306-21.688c1.07-7.85-3.24-27.08-5.24-39.23zm-27.83-68.72c-1.993 2.293-6.88 4.5-6.88 4.5l-.1.4s1.944-.35 3.887-1.446 4.787-3.6 5.387-4.584c.594-1-.1-1.697-.1-1.697s-.2.544-2.192 2.84zm8.43 4.63c0 1.346-.504 10.42-.504 10.42-.028.414-.17 3.173-.88 3.544.36.064 1.065.186 1.275-1.243l1.952-13.27-.998-.448c0-.002-.844-.35-.844.996zm15.25-23.01c-.863.244-2.962 1.8-4.072 2.715s-1.853.924-2.902 1.42-.68-1.8-.06-3.64 2.713-4.076 4.32-5.865-.064-1.234-.804-.495-2.466 2.593-4.502 5.865-3.148 10.674-3.148 10.674 1.234-.74 2.466-1.605 2.6-1.6 4.94-3.332 3.703-3.022 4.935-4.382-.306-1.603-1.17-1.356zm-61.1 18.38c-1.995-2.293-2.194-2.843-2.194-2.843s-.697.698-.1 1.697 3.44 3.487 5.385 4.584 3.9 1.446 3.9 1.446l-.1-.4c0 .002-4.886-2.192-6.88-4.485zm-7.93 15.05l-.5-10.42c0-1.346-.848-.998-.848-.998l-.996.448 1.95 13.27c.212 1.43.915 1.307 1.275 1.243-.712-.37-.853-3.127-.883-3.542zm-12.23-39.294c-.74-.74-2.406-1.292-.8.495s3.703 4.013 4.318 5.865.988 4.132-.06 3.64-1.8-.495-2.9-1.42-3.208-2.47-4.072-2.715-2.406 0-1.172 1.356 2.593 2.657 4.937 4.382l4.937 3.332 2.467 1.605S289.037 77.43 287 74.16s-3.765-5.123-4.506-5.865zm38.77 210.614c.22.045.262-.52.306-1.566l.433-5.04c.26-1.48-.392-1.4-.784-1.303s-.606 1.215-.606 1.87l.173 5.17c0 .782.26.825.478.868zm26.42-13.4c1.033 2.113 1.26 1.845.814.1a17.63 17.63 0 0 0-2.072-4.95c-.988-1.62-3.5-3.915-3.5-3.915s.675 1.485 1.62 2.792 2.117 3.868 3.148 5.983zm-10 1.8c.405 1.395 2.52 5.263 2.745 5.124s-.857-3.463-1.577-5.758-1.845-4.046-2.07-3.958.178 1.442.178 1.442l.724 3.15zm-7.87 6.34c.45.992.992 2.207 1.213 2.027.227-.182-.536-2.207-.673-2.8s-.178-1.888-.855-3.24-.945-.718-.945-.18.812 3.15.812 3.15 0 .045.448 1.033zm-34.7-8.14l3.15-5.98c.943-1.307 1.618-2.792 1.618-2.792s-2.52 2.295-3.5 3.915a17.87 17.87 0 0 0-2.07 4.95c-.446 1.753-.223 2.02.812-.092zm10 1.8l.632-2.325s.407-1.35.182-1.44-1.262.838-1.982 3.13l-1.575 5.758c.223.137 2.338-3.73 2.743-5.124zm7.87 6.34l.45-1.033.8-3.15c0-.538-.27-1.168-.943.18s-.72 2.653-.857 3.24-.898 2.6-.675 2.8.765-1.033 1.215-2.027zm-24.44 24l-1.054-.634s-.63.846-1.524 1.794-1.896 1.318-2.578 2.216a9.93 9.93 0 0 1-3.366 2.848c-1.63.844-2.26 1.108-1.944 1.373s1.42-.37 1.42-.37.473-.054 2.42-1.213 2.42-1.793 3.68-2.9 2.947-3.114 2.947-3.114zm8.52 10.08c.737-.8 1.524-1.32 1.104-1.744s-.947-.368-1.63.212l-3.523 3.217c-.894.8-1.63 1.267-2.524 1.952s-2.84 1.74-3.786 2.267-.053.585-.053.585.737-.373 1.524-.637 3.05-1.266 3.05-1.266.894-.422 2.104-1.266 2.998-2.53 3.735-3.32zm9.83 6.8c.63-1.264-.053-.898-1.104-.473s-3.418 3.007-4.785 3.954-2.526 1.318-3.68 1.9-1.157.894-1.103 1.16.523.264.998.053 2.104-1.16 2.104-1.16.684-.208 1.316-.264 1.524-.743 2.946-1.952c1.416-1.213 2.678-1.948 3.3-3.217zm4.58 9.02c-1.736 1.056-4.733 3.428-5.522 5.012s-1.316 2.7-1.054 2.953 1.104-.264 1.474-.898 1.157-1.582 1.157-1.582 2.996-2.95 4.1-3.637 2.893-2.636 3.315-3.797.105-1.793.105-1.793-1.84 2.687-3.576 3.743zm51.36-19.67a9.93 9.93 0 0 1-3.369-2.848c-.683-.898-1.682-1.27-2.576-2.216s-1.524-1.794-1.524-1.794l-1.054.634s1.682 2.004 2.946 3.113 1.736 1.742 3.68 2.9 2.417 1.213 2.417 1.213 1.108.634 1.42.37c.32-.264-.3-.527-1.94-1.37zm-6.68 9.75l-3.788-2.267-2.524-1.952-3.523-3.217c-.684-.58-1.2-.632-1.63-.212s.37.952 1.104 1.744 2.526 2.477 3.733 3.32 2.104 1.266 2.104 1.266l3.05 1.266a12.89 12.89 0 0 1 1.524.637s.898-.056-.05-.585zm-10.62 6.28c-1.16-.583-2.314-.954-3.683-1.9s-3.73-3.534-4.787-3.954c-1.052-.426-1.733-.8-1.104.473.634 1.27 1.896 2.004 3.315 3.22s2.314 1.9 2.946 1.952a7.47 7.47 0 0 1 1.314.264l2.102 1.16c.474.2.95.2.998-.053.056-.266.056-.58-1.1-1.16zm-14.15 3.64c-1.734-1.056-3.574-3.744-3.574-3.744s-.317.63.107 1.793 2.2 3.1 3.313 3.797 4.103 3.637 4.103 3.637.788.95 1.157 1.582 1.207 1.163 1.472.898-.266-1.37-1.056-2.953-3.784-3.956-5.522-5zm-10.78 11.03c.156 1.2.053 4.273.8 4.273s.63-3.064.8-4.273.208-4.116.208-4.116h-2c0-.002.054 2.902.214 4.116z" class="C"/><path d="M366.584 162.707c-1.974-13.12 3.945-23.69 3.945-23.69l-12.306-13.702c-10.4 5.342-23.042 3.962-36.814-.814-13.77 4.776-26.41 6.154-36.812.814l-12.308 13.702s5.923 10.57 3.95 23.69-4.993 27.982-4.414 36.694c.04.598.103 1.208.19 1.822h11.21s.65-.756 1.897-1.288c1.245-.538 1.6-.896 1.6-.896s.238-2.263 1.603-2.74 1.96-.478 2.494-.478.95-.118 1.603-.774 2.432-2.26 3.204-4.524 1.25-3.157 1.25-4.646.534-3.868.534-3.868-.298-.714-1.425-.296-1.307-.714-1.423-1.847-.06-3.452.592-4.524l.89-1.43-.476-1.783s-7.123 1.427-8.368-4.1-1.485-8.22-1.663-8.81c-.178-.598-.356-.898-1.307-.834-.95.058-2.968-.594-4.393-3.456s-1.543-4.048-1.13-5.18 1.19-.714 1.425-.358 2.137 3.097 2.9 2.32.356-.774-.712-2.917-.712-2.856-.594-3.932c.118-1.07-.354-2.5-.354-3.096s.652-1.07 1.305-.774 1.247.774 1.543 1.132.416.896 1.01.538.236-2.325.236-2.977.772-1.132 1.723-.596 1.423 1.547 1.423 2.26.06 1.37.416 1.37.772-1.072.83-1.79c.058-.71.474-1.785 1.13-.89s.89 2.205.654 3.572.236.656-.238 3.037-.71 3.454-.652 5.24.118 2.798 1.01 5.002 1.6 4.76 3.264 4.82l2.137.058s1.84-3.572 3.266-4.406 3.442-.954 4.868-1.132 2.017-.596 2.017-.954-.474-.474-2.196-.714-3.144-.656-3.202-1.965.294-2.44-.832-2.5-3.917-.958-4.926-2.8c-1.01-1.847-.772-2.265-.653-3.274s1.423-3.04 2.256-1.132 1.367 2.143 2.077 2.56 1.66.538 1.19-.774-.772-2.14-.654-3.092c.118-.956.773-1.37 1.545-1.55s3.086-.896 4.273-1.132 1.247-.354 1.247-.354.118-.834 1.66-1.31 2.552-.534 3.68-.534 1.957.178 3.442-.538 2.67-.83 3.62-.773 1.663.418 2.376.893.474 1.132.474 1.787.118 1.012 1.127 1.012 1.903 0 2.852.356 2.257.893 1.425 1.905-.887 2.145-1.425 2.085c-.53-.06-.473.536-.712.894s-.414.654.182 1.012c.59.356.65.714 1.483 1.487s2.076 1.61.83 2.86-3.44 2.263-3.44 2.263-1.25.593.176 1.43c1.425.83 2.08 2.56 2.614 2.856s1.07.774 1.425.952.296 1.37.296 1.37-.77.538-1.84.954-2.197.894-3.204.894-1.545 0-1.13.952 1.13 1.967 1.305 2.5.416 1.49.416 1.49 1.66.354 3.146.354 2.137.06 5.402-.296 4.217-.476 7.363-.12 3.62.24 4.45.536a16.93 16.93 0 0 1 1.661.718s4.453-.062 6.887-.596 3.03-2.087 2.676-2.917-.3-2.083-4.573-2.68-5.994-.358-9.38-1.014-8.668-2.38-9.615-6.607c-.952-4.228 2.492-6.013 4.215-6.846s5.46-2.145 7.183-2.857 4.87-1.43 8.192-.954 5.222 1.37 6.53.596 2.376-.18 2.137 1.01-1.543 3.634-5.284 4.764-8.248 1.25-10.684.596-4.273-1.61-5.758-1.074-3.146 2.383-1.545 4.584c1.607 2.207 9.8 2.86 11.992 3.096 2.197.242 10.33-.356 12.645 3.692s.473 8.574-2.256 9.59-5.046 1.67-7.123 1.965l-2.077.296s.95 2.145.95 3.04-.118 2.56.892 3.212c1.01.658 2.436 1.132 4.157.954s3.8 1.012 3.92 2.56.592 3.7.77 6.787 0 5.657 0 5.657-.118 1.192-.533 2.32-2.554 5.518-2.554 5.518h11.953c.086-.615.15-1.222.19-1.822.564-8.71-2.454-23.572-4.427-36.694z" class="D"/><path fill="#6d8c3e" d="M273.434 207.047c2.344 6.696 7.174 13.476 14.528 17.904 10.22 6.154 14.632 5.342 24.27 11.612s9.058 7.316 9.174 7.316-.465-1.048 9.176-7.316 14.05-5.458 24.268-11.612c7.356-4.43 12.184-11.21 14.526-17.904h-95.942z"/><g class="B"><path d="M281.794 155.327c1.097 1.153 1.907 1.504 3.58 1.33s2.08 1.04 2.368 2.368.3 4.447 1.502 7.335 5.256 3.062 5.256 3.062c.113-1.393.598-3.266 1.213-4.794.1-.274.634-1.562-.8-1.562s-1.386-.577-2.252-1.963-2.54-5.08-2.944-7.45.347-5.9.75-7.16.463-2.137 0-2.368-1.386 0-1.386 0 .347 1.097-.06 1.27-.75-.577-1.037-1.384-.636-.694-1.213-.637-.577.58-.173 1.157.173 1.614.173 1.614-1.27-.923-1.8-1.155-1.733.232-1.85.926.463 2.48 1.56 3.405 1.097 2.83.75 3.7-1.963.748-2.3.347-1.04-.52-1.502 0-.926.808.173 1.96zm-.64-3.06s-.636-.518-.866-.806l-.694-.928s-.116.3-.116.982.75 1.446.75 1.446l.926-.694zm2.43-8.03c.52-.23.924-.35.52-.924s-.752-1.213-1.157-1.33-.75-.056-.75-.056.46 1.04.576 1.676.3.864.8.634zm3-2.43c-.058.52.058.752.52.52s.636-.866.403-1.33-.75-.806-.75-.806l-.347-.234s.233 1.33.174 1.85zm4.33.7c.056-.577-.174-1.2-.174-1.2s0 .692-.3 1.1-.23.3.058.636.347.056.405-.523zm6.8 29.35c.85 1.97 3.007-1.116 4.97-3.6s1.896-.587 1.633 1.444.523 4.2 1.3 5.578c.784 1.373 1.438.587 1.762-.398s.6-3.013 1.243-3.998 1.307-.13 1.373.72 1.1 2.756 2.1 3.868c.98 1.118 1.438-.392 1.764-1.768l.98-4.33c.26-.85 1.176-.13 1.176-.13l1.963 1.9c1.303 1.25 1.436-.722 1.567-1.7.13-.986-.197-3.15.195-3.48s1.502.46 3.204 1.316c1.7.85 1.635-.8 1.44-1.708s-1.176-3.015-2.55-4.194-1.567-2.558-1.1-3.15c.456-.587 2.1-.066 3.135-.195l2.355-.4c.784-.133.784-.92.784-.92s-.587-.982-1.7-1.965-1.762-1.77-3.137-2.1-3.268 0-3.268 0l-.197-.394c-.195-.392-.587-.392-.85 0s-.915.92-1.44 1.376-.85.722-1.176.523.26-.656.26-.656.72-.52 1.374-1.836.85-2.56.326-3.148-1.96 0-2.745 0-1.243.13-1.307-.262.784-.195 1.764-.33c.983-.13 1.57-1.3 1.896-2.295s.6-.853 1.178-.262 1.114.46 1.24.064.654-1.374 1.307-2.36 1.046-2.36.326-3.276-2.484-.8-3.202-.195c-.718.587-1.176 1.178-1.37 2.62s-.6.654-.6.195-.6-1.18-.328-1.77 0-1.247 0-1.247-.13-1.243-1.504-1.507-2.942.066-4.314.394-1.112 1.5-1.112 1.5l-2.158.195c-1.1.13-2.42.587-3.465.85s-1.438.394-1.438.917.197 1.38.197 1.38.85 0 1.307.26.195.722-.328.92-.718.262-.718.917.262.8.784.8 1.635 0 2.942.587 1.635 1.768 1.504 2.424-1.963 1.5-2.878 1.5-1.176.2-1.176.787 1.112.527 1.112.527l3.268.324c2.158.264 2.484.724 3.467 1.575s.26 1.05-.197 1.3-1.178.853-1.896 1.118-1.178.787-1.832.915-2.3.067-5.295 1.25-4.054 5.117-4.054 5.117.392-.133 1.764-.857l4.642-2.5c1.567-.98 1.567.46.784 1.836s.72 1.114 1.178.722 1.046-.787 2.548-1.575.98.46.98.46-.457.917-.587 3.084 2.156.13 3.202-1.247 1.504 0 .718 1.575-2.288 2.818-3.137 2.818-1.504-.917-1.57-1.442.262-2.1-.26-2.492-2.03.066-3.14.72-1.374.133-1.635-.458.392-.787.13-1.18-.85 0-1.3.195-1.504.787-3.53 1.836-1.896 1.637-1.896 3.146.397 1.776 1.247 3.744z"/><path d="M317.314 139.037c.426-.27 1.198-.58 1.198-.58l1.853-.35c.887-.116.733-.62.538-1.04-.2-.43-.538-.58-1.693-.58-1.16 0-1.896.58-2.55.847s-1.43.465-1.43.465a15.61 15.61 0 0 0 .579.812c.424.62 1.08.697 1.504.426zm4.7 4.67c.463 0 .966-.272.966-.272s.846-.426 1.622-.694c.77-.272 1.08-.388 1.54-1.314s-.502-.926-1.85-1.27c-1.352-.352-2.008.113-2.16.615-.158.502-.118 1.08-.658 2.048s.075.9.54.9zm-.42 1.2c-1.3 0-2.777 1.97-3.32 2.316s-.233.694-.233.694.386.812.538 1.583c.158.774.195 2.087.195 2.087s.193.08.964.08 1.236-.388 1.97-.928 1.313-.735 2.355-.928 1.543-.384 2.7-1-.617-1.7-1.85-2.702-2.004-1.198-3.32-1.198zm-17.46 4.53c1.04-.12 1.5-.64 1.5-1.2 0-.577-.525-1.213-1.85-1.097-3.253.3-6.407-.877-6.988-4.1 0 0-1.097 2.018.924 4.273s5.372 2.254 6.4 2.136zm-11.08 51.2c.165.287.368.465.574.572h4.984c.85-.238.855-1.02.896-1.56.05-.643.542-2.47 1.232-5.782s1.873-5.678 2.364-7.012-.493-1.778-.838-2.62-.887-2.32-1.035-3.06-1.33-.643-1.97-.594-.74 1.088-.838 2.076-.542 3.902-1.033 6.422-3.35 5.88-4.138 6.62-1.43 1.04-1.97 1.04-1.723 0-2.316.347-1.18 1.286-1.23 2.023c-.05.743 1.134 1.138 1.134 1.138s.936-.544 1.28-.988 1.132-.544 1.92-.7.887.146.6.54-.2.493.394 1.532zm-7.64-.24c-.377.133-.652.508-.823.82h3.257c-.04-.266-.127-.583-.315-.82-.394-.495-1.43-.248-2.12 0zm4.43-.1c-.397.216-.877.568-1.12.917h3.506c.124-.326.163-.763-.266-1.114-.8-.643-1.577-.1-2.12.197zm30.42-1.45c-.382 0-.722.34-1.273.722s-.718.977-.803 1.446a.32.32 0 0 0 .02.202h1.5c.058-.053.1-.12.1-.202 0-.428.17-.8.806-1.36s.04-.806-.34-.806zm2.92 1.6c0-.465-.17-.9-.508-.847s-.9.637-1.354.977c-.26.2-.452.44-.594.63h2.2c.127-.248.255-.534.255-.76zm13.54-16.17c1.056-.765.9-.977.928-1.783s.04-1.06-.38-1.357-1.988-.977-3.47-.977-4.277.34-5.334 1.06-1.567 3.313-1.567 4.67.212 1.57.592 1.57 1.016-.977 1.016-.977l2.243 3.1c.847 1.273.465 1.78.088 2.756-.382.977-1.777 3.566-2.878 4.12s-1.95.04-3.26-.17-2.033.17-2.794.932-.04 1.36.424 1.36 1.1-.043 1.6.593c.353.44.114 1.447-.064 2.03h6.486c1.106-.5 1.87-2 2.168-2.84.34-.932 1.736-2.162 2.415-2.798s.76-1.063.76-2.464-.38-2.207-.892-3.182-.9-2.38-.72-3.184 1.57-1.7 2.63-2.462zm-10.68-16.2c.65 1.054.326 1.254-.606 1.455a10.73 10.73 0 0 1-3.396.244c-1.453-.122-1.416.08-1.453.8s-.165 2.265-1.012 3.396-1.9.688-2.548.244-1-.326-1.252.484-.688 1.376-1.374 2.588-1.132 1.254-1.618 1.132-.93-.85-1.416-.9-1.254-1-1.982-2.184-1.1.12-1.575 1.134-.97 1.74-1.9 1.614c-.93-.118-1.98-1.858-2.505-2.9s-.85-2.062-1.658-2.023-2.143 1.74-3.034 2.183-1.132.285-1.536-.28-.93.202-1.455 1.536.04 2.464.77 2.83 2.183-.688 3.154-1.335 1.414-.484 2.426-.484.93 1.66 1.374 4.082 1.86 2.75 1.86 2.75.486.405 1.577-1.453 1.2-3.68 2.265-3.68 1.132.242 2.183 1.697 1.94 2.546 2.546 1.455 1.132-2.7 1.82-3.274 1.333-.73.606.322-1.052 2.183.444 1.74 7.196-2.75 9.5-3.193c0 0 2.707-.444 5.822-.606s3.88-.366 5.094-.366 1.252-.122 1.335-.93-.566-.647-2.83-.647-3.842.283-5.42.527-2.303.2-2.023-.202c.285-.405.73-.688 2.55-.97s5.54-.488 7.48-.527 1.333.566 1.17 1.86.163 3.195.285 4.408.16 1.577 1.2 3.274 4.688 2.75 5.74 3.317.9 0 .85-1.012.808-.97 1.738-.444 2.466.973 3.557 1.256 1.252.484 1.252 1.05.122 1.82.246 2.994c.118 1.172.08 1.534-.407 2.263s-2.546 2.827-2.546 2.827-.93 0-2.912.5-2.6 1.416-2.8 2.224.366 1.052.446 1.374c.043.178.026.615.002.97h.457a10.34 10.34 0 0 1 .711-1.054c.7-.9 2.43-1.1 3.56-.566.743.347.752 1.123.673 1.618h4.528l2.44-4.854c.484-1.1.767-1.778.808-3.274s.2-7.277-.08-7.6.08-1.294 0-2.912 0-2.83-2.993-3.113-3.923-1.534-4.933-2.548-.77-3.354-1.575-6.184-2.8-3.276-6.308-3.964-6.107-.767-8.734-.523-5.9.607-7.72.442-1.534.362-.9 1.412zm17 32.47a2.22 2.22 0 0 0-.649.641h3.056a1.19 1.19 0 0 0-.3-.885c-.465-.56-1.36-.242-2.108.244zm5.47-.2a2.77 2.77 0 0 0-1.014.847h3.1a1.19 1.19 0 0 0-.017-.358c-.092-.5-1.026-1.012-2.068-.5zm-76.34 1.93c.173.96.398 1.933.677 2.912h97.097c.28-.977.506-1.952.675-2.912h-98.45zm65.42-46.38c3.067 2.042 12.806 2.15 17.38 3.067s4.254 4.412 2.852 6.24-7.832 2.05-8.985 2.205c.623.43 1.56 1.776 1.56 1.776l2.636-.216c1.935-.16 5.327-.643 7.64-2.582s2.15-5.055.1-7.153-5.436-2.314-8.88-2.7-6.133-.647-10.007-1.292-5.756-2.205-5.756-4.466 2.1-3.442 3.606-3.874 3.926-1.072 6.08-.27c2.152.808 4.682.913 8.933.38 4.252-.54 5.22-3.5 5.22-3.5s-.54.27-2.7.322-3.714-.913-7.64-.97c-3.932-.053-5.33 1.35-7.16 1.993s-6.724 1.132-8.177 4.305.216 4.68 3.28 6.726z"/></g><g class="C"><ellipse rx=".977" transform="matrix(1.875 0 0 1.875 -278.606 -141.173)" ry=".962" cy="150.64" cx="315.04"/><path d="M351.434 144.357c-2.424-.214-5.6.43-5.6.43s.59.486 1.4.43 2.26-.11 4.627.32 4.09-.7 4.09-.7l-4.517-.482z"/></g><path d="M429.304 253.187c1.946.448 17.948 3.514 19.294 3.814s2.467.596 2.842.22.598-.596 2.02-1.123c1.42-.52 1.348-1.942 1.348-1.942s.373-1.348.52-2.692.9-1.794 2.47-.148 1.87 4.035 2.168 6.356 3.966 2.916 5.383 3.14c1.423.225 2.092-.225 2.918-1.57s1.273-4.04 1.496-5.76.077-1.57-1.72-2.017l-11.593-2.694c-1.493-.373-1.194-1.344-.97-2.4s3.514-11.593 3.514-11.593c-2.342-1.447-5.632-2.3-9.57-2.766l-2.844 12.414c-.446 1.642-1.496 1.642-3.214 1.342s-14.136-3.2-14.136-3.2l-.97 2.314c-.973 2.317-1.42 5.087-1.42 6.506s.525 1.35 2.467 1.798zm42.47 9.73c-1.65-1.078-2.863-1.363-3.722.645s-.93 4.95-3.08 7.027-5.156 4.23-8.164 4.016-4.725-.934-4-4.374 5.3-4.517 6.373-6.3.788-3.872-.8-5.233-3.866-1.65-4.5-1.22-2.507 2.008-3.435 4.586-1.504 4.66-3.5 6.3-7.157 3.298-11.166 2.364-5.44-2.15-6.945-6.094-3.293-10.466-4.082-11.184-1.8-1.3-3.506-.073-1.862 3-2.076 4.447 0 3.086 1.716 5.164 3.5 4.157 4.155 6.306 2.576 5.45-.144 5.593-3.936.214-6.013-1.8-10.168-7.53-12.384-9.324-3.15-2.364-3.15-2.364c-3.744-.066-7.494-1.605-11.24-4.157 0 0 2.15 5.518 2.576 7.598s.358 3.225.358 3.225l11.383 5.738c3.22 1.577 9.735 5.306 12.883 7.24 3.154 1.94 5.8 4.95 11.385 3.803s16.894-4.588 20.544-5.664 13.748-3.585 17.47-6.165 4.082-2.437 4.723-5.02c.65-2.58.002-4.016-1.642-5.1zm-21.55-38.6l2.773-.414c1.907-.25 1.2 1.575.868 2.28s-.9 2.113-1.693 3.44c-.8 1.33.246 1.537.784 1.744s1.324.3 2.856.707 1.24-.707 1.284-1.286l.3-4.686c.165-1.076 1.157-.787 1.53-.58l2.113 1.157c.784.42 1.157-.04 1.324-.495s.536-1.284.87-2.488-.414-.954-1.163-.954c-.743 0-1.82 0-3.062-.04s-.456-1.245-.456-1.245l1.614-2.612c.705-1.12.457-1.284-.25-1.494l-3.517-.87c-.62-.163-.9-.083-.9.334l-.084 3.4c0 .827-.08 1.326-1.16 1.367s-1.74-.585-2.608-1.536-1.24-.58-1.326-.204l-.952 3.855c-.165.746.25.707.872.624zm-62.17 30.35c-1.2-1.267 1.868-1.316 3.688-1.316s4.798-.964 5.756-1.57 2.627-.913 4.596-1.875.757-1.27-1.26-1.772c-2.02-.508-7.425-2.786-7.425-2.786l-4.1 2.28c-1.464.863-3.435 2.076-6.617 2.48l-4.294.66c-.15.1.76.86 1.97 2.584s1.717 2.837 3.234 5.42-.253 1.065-1.517-.557l-3.782-4.6c-1.147-1.196-2.33-1.935-2.33-1.935l-1 2.18v.76c0 .7-.606 4.206-.808 5.623s.353 1.42 1.462 1.926 3.332 1.772 9.296 5.52 8.18 6.23 8.18 6.23.2-1.622.2-3.242-.05-4.913-1.363-8.612-2.674-6.13-3.887-7.397zm-13.83-8.28c1.395.28 1.956.632 3.913.632s2.796-.632 4.822-.632 3.428-.7 6.712-2.445.14-1.26-2.166-1.052c-2.3.208-8.32-.697-10.9-1.68-2.586-.977-.696-1.118 0-.9s1.052.424 6.223 1.33 7.063-.28 9.718-.977c2.66-.703-.626-1.048-.626-1.048s-9.37-2.66-14.057-7.903c-3.58-4-4.793-7.695-5.166-9.206-1.834 2.183-3.876 4.078-6.017 5.743.167.726.486 1.924.977 3.04.77 1.75 3.006 4.058 3.006 4.058s-2.798-1.12-4.054-2.45c-.864-.9-1.63-2.317-2.023-3.1-3.075 2.14-6.25 3.847-9.178 5.256a36.01 36.01 0 0 1 1.273 1.07c1.256 1.12 2.445 2.587 4.054 5.173s.14 2.38-1.33 0-5.104-4.822-5.803-5.173c-.08-.04-.176-.07-.274-.098l-1.106.502-5.64 2.428c1.198.97 3.973 3.68 4.922 5.07 1.052 1.538 3.216 2.936 4 3.984.765 1.048 1.605 2.235 2.653 3.495s7.342 8.32 9.02 10.976.697-.7.28-2.516-1.052-4.406-1.607-6.435.628-1.2.838-.07.5 1.2.98 3.356 1.746 5.383 2.306 7.62.77 1.2 1.327.14 1.397-2.87 1.748-3.988.63-3.634.7-7.48-1.817-5.383-1.817-5.944c0-.55.9-1.04 2.3-.763zm26.95 8.34c-.566.25-2.45.883-3.322 1.007l-1.506.188s1.757 2.454 4.4 2.454h7.584l-5.143-3.332c-.562-.634-1.442-.57-2.004-.317zm55.06-3.25s-.077 2.17-.3 2.916-.746 1.87.15 2.17 1.72.67 2.24.523c.527-.148.3-1.196 0-2.092s-.744-2.02-1.42-2.767l-.67-.748zm13.15 8.67c.3.67.898.82 1.348.973s1.048.148 1.048-.673.148-1.87-.52-2.767-1.03-1.553-1.42-.225c-.396 1.327-.752 2.02-.454 2.692zm-45.84-8.75c.373.075 1.794.523 1.794.523s0-2.094.298-3.516.898-2.4.375-2.4-.82.448-1.2 1.046c-.37.596-1.42.748-1.793 2.467s.152 1.796.525 1.87z" class="B"/><path d="M242.474 192.337c-1.504 1.14-3.474 1.607-3.474 1.607s-.934-.05-.934.313 1.1 0 2.23-.206 2.696-1.35 3.266-1.764 1.4-.936 1.14-1.663-.726.572-2.227 1.714zm12.9 6.9c-.3.36-2.8 2.23-2.8 2.23s-.778.518-1.6.83-1.035.782-1.035.782.156.204 1.035-.05c.88-.262 3.476-2.08 4.303-2.807s1.194-.934.883-1.245-.465-.103-.778.26zm-52.37-93.06c.465.566 1.03 1.34 1.3 1.082s-.053-.516-.67-1.24l-.98-1.084s-.876-1.395-1.393-1.912-1.3-.774-.3.412l2.063 2.74zm-3.97 8.73l1.7 1.652c.62.67 1.084 1.393 1.444 1.033s-.928-1.134-1.494-1.86a9.2 9.2 0 0 0-1.755-1.755c-.725-.568-1.6-1.033-1.6-1.033l1.704 1.963zm1.5 14.07c.984 1.037 2.436 1.348 2.644.936s-.103-.75-.93-1.162-2.166-1.3-2.837-1.755-1.34-.982-1.806-1.446-1.012-.883-1.185-.726 1.367 1.815 1.832 2.076 1.298 1.04 2.282 2.077zm2.85 11.27c0-.414.1-.62-.728-.675l-1.97-.204s-1.607-.624-1.712-.313 1.348.938 1.97 1.04 1.4.3 1.76.516.68.05.68-.364zm1.24 12.25c-1.76 0-3.266-.418-3.37-.157s.83.677 1.712.986 2.542.416 3.683.467 1.348-.206 1.296-.776-1.556-.52-3.32-.52zm13.8 13.4c-.26-.26-.88-.05-1.868.156s-2.6.52-3.525.47l-2.955-.105s-1.14 0-1.14.26 1.502.208 3.68.467 3.628-.206 4.665-.364 1.403-.62 1.142-.883zm5.7 9.56c-1.1.416-1.866.518-2.696.518s-2.8.364-2.8.364-.934.105-.778.47.467 0 1.294-.105 1.453 0 2.904-.05 2.282-.418 3.163-.572 1.866-.624 1.4-1.196-1.4.157-2.488.574zm11.1 7.2c-.623.624-3.007 2.233-3.007 2.233s-.467.364-1.4.83-.88.677-.726.936.726-.364 1.243-.572 2.23-1.354 3.1-2.076c.88-.73 2.02-1.3 1.813-1.82s-.4-.154-1.033.467zm-18.46-93.47s.206.474 2.12 2.87.9.135.4-.476l-4.24-5.68c-.956-1.095-1.093-.547-.615.135l2.325 3.15zm-4.04 12.3c.274-.274-.343-.547-1.436-1.914l-3.283-4.172s-.617-1.3-.82-1.164.752 2.188 1.64 3.08 2.05 2.6 2.668 3.35.958 1.093 1.232.82zm5.3 23.06c0-.67-2.166-.568-3.144-.774l-2.734-.568s-2.064-.362-2.115-.103.412.514 1.547.724l4.127.928c1.3.206 2.32.467 2.32-.206zm-5.3-12.46c1.436 1.162 2.393 1.7 3.146 2.12s1.367 1.028 1.78.548-.343-.82-1.573-1.37-1.847-1.026-1.847-1.026l-1.3-.684c-.617-.34-1.643-.752-.204.4zm12.38-8.2c-.9-.752-1.643-1.166-1.643-1.166s-1.093-1.026-1.3-.684 1.23 1.37 1.914 1.984 1.916 2.396 2.53 2.053-.617-1.434-1.504-2.186zm-8.08 32.14l-1.97.518c-.776.208-.83.574.572.574s1.97-.364 3.37-.626 1.87-.414 1.66-.88-.934-.3-1.504-.156l-2.126.572zm2.18 11.63c-.103.263.984 0 1.7-.26l3.1-1.298c.88-.26.883-.416.883-.936s-.936-.105-2.074.26-2.593 1.507-2.593 1.507-.934.465-1.037.724zm14.98 7.07c1.04-.626 1.247-1.1.88-1.404s-.673-.26-1.502.416l-2.437 1.817-1.45.624c-.623.3-1.4.83-1.192 1.142s1.504 0 2.177-.572 2.5-1.403 3.525-2.023zm7.06 9.34c.414-.366 1.657-.776 2.23-1.194s.934-1.66.467-1.817-.726.518-1.7 1.243l-4.356 2.96s.05 0-.883.364-.518.624.26.52 1.296-.107 2.23-.83l1.762-1.247zm10.47 8.88c.883-.362 2.18-1.506 2.8-2.074.62-.574 1.4-1.3.934-1.663s-.984.105-1.712.776l-2.646 2.702s-.26.05-1.296.883.053.673.414.3.624-.572 1.504-.936zm152.08 20.98s-1.97-.467-3.476-1.607-1.97-2.44-2.228-1.714.572 1.247 1.142 1.663 2.124 1.556 3.264 1.764 2.228.57 2.228.206-.93-.313-.93-.313zm-11.97 8.36c-.83-.3-1.607-.83-1.607-.83l-2.8-2.23c-.3-.362-.467-.572-.78-.26s.053.516.887 1.245c.825.727 3.42 2.544 4.3 2.807.88.257 1.037.05 1.037.05s-.2-.47-1.04-.782zm47.95-96.12l2.066-2.74c.977-1.187.208-.928-.3-.412s-1.4 1.912-1.4 1.912-.364.36-.98 1.084-.93.982-.673 1.24.825-.517 1.286-1.084zm.83 11.42c.358.36.823-.362 1.446-1.033.615-.67 1.132-1.132 1.7-1.652s1.7-1.963 1.7-1.963-.876.465-1.6 1.033a9.25 9.25 0 0 0-1.753 1.755c-.566.725-1.854 1.496-1.493 1.86zm5.78 7.23c-.176-.157-.726.26-1.2.726s-1.134.98-1.806 1.446-2.012 1.343-2.837 1.755-1.136.746-.932 1.162 1.66.1 2.646-.936 1.815-1.82 2.282-2.076c.47-.263 2.006-1.918 1.836-2.077zm-4.27 14.54l-1.97.204c-.827.054-.726.262-.726.675s.3.572.673.362c.364-.204 1.14-.412 1.76-.516s2.074-.727 1.973-1.04-1.7.315-1.7.315zm-3.94 13.13c-1.76 0-3.262-.054-3.317.52s.156.827 1.296.776 2.8-.154 3.68-.467 1.817-.727 1.714-.986-1.6.157-3.373.157zm-5.44 13.92l-2.957.105c-.934.05-2.54-.26-3.53-.47-.98-.206-1.605-.414-1.864-.156s.103.727 1.14.883 2.488.624 4.667.364 3.68-.206 3.68-.467-1.138-.26-1.138-.26zm-8.56 9.92s-1.97-.364-2.796-.364-1.6-.103-2.698-.518-2.02-1.142-2.488-.572.517 1.04 1.4 1.196 1.712.518 3.163.572l2.906.05c.83.103 1.138.467 1.294.105.154-.368-.78-.47-.78-.47zm-12.2 9.4c-.932-.467-1.4-.83-1.4-.83l-3.007-2.233c-.62-.62-.83-.984-1.037-.465s.934 1.088 1.815 1.82c.883.724 2.593 1.868 3.1 2.076s1.1.83 1.243.572.208-.47-.724-.937zm11.94-93.67l4.446-6.02c.48-.683.343-1.23-.617-.135-.954 1.095-3.76 5.06-4.24 5.68-.478.6-1.507 2.87.4.476zm11.7 2.18c-.204-.135-.82 1.164-.82 1.164l-3.287 4.172c-1.1 1.367-1.706 1.64-1.434 1.914s.615-.07 1.23-.82l2.668-3.35c.9-.9 1.847-2.94 1.642-3.08zm-10.85 30.32c0 .67 1.03.414 2.32.206s3-.724 4.125-.928 1.6-.47 1.547-.724c-.05-.26-2.115.103-2.115.103l-2.734.568c-.98.208-3.144.105-3.144.774zm5.1-12.87l-1.3.684s-.615.478-1.847 1.026-1.984.9-1.573 1.37 1.027-.14 1.78-.548 1.7-.958 3.146-2.12.4-.752-.206-.4zm-13.68-5.6c.615.343 1.845-1.436 2.533-2.053.68-.615 2.12-1.64 1.914-1.984s-1.3.684-1.3.684-.75.414-1.64 1.166-2.123 1.843-1.507 2.186zm7.6 30.42c1.4.262 1.973.626 3.373.626s1.344-.364.568-.574l-1.97-.518-2.126-.572c-.572-.156-1.298-.313-1.506.156s.26.622 1.66.88zm-1.24 10.44s-1.45-1.142-2.593-1.507-2.074-.778-2.074-.26 0 .677.883.936 2.385 1.04 3.1 1.298 1.817.52 1.714.26-1.04-.724-1.04-.724zm-9.44 9.24c-.62-.3-1.45-.624-1.45-.624l-2.436-1.817c-.83-.673-1.14-.726-1.504-.416s-.156.778.88 1.404c1.04.62 2.852 1.45 3.53 2.023.67.572 1.97.883 2.177.572s-.572-.83-1.196-1.142zm-7.3 9.45l-.88-.364-4.354-2.96c-.984-.726-1.245-1.4-1.7-1.243s-.107 1.4.465 1.817 1.817.827 2.228 1.194.83.52 1.764 1.25c.93.724 1.45.724 2.23.83s1.192-.16.26-.52zm-12.8 7.95c-1.035-.83-1.294-.883-1.294-.883l-2.644-2.702c-.73-.67-1.243-1.138-1.712-.776s.3 1.1.932 1.663 1.918 1.712 2.8 2.074 1.14.574 1.504.936 1.45.518.414-.3z" class="C"/><path d="M321.364 47.95c-7.06.12-15.345-.855-19.903-2.552l-4.86 1.07c7.513 2.83 13.8 3.926 24.763 4.037 10.974-.1 17.25-1.207 24.76-4.037l-4.862-1.07c-4.556 1.697-12.838 2.672-19.9 2.552zm25.68-5.885c-.56-.467-3.774-2.758-4.613-3.176s-.186-1.54-.045-2.008 3.772-1.496 5.777-2 1.676-.936 1.676-.936-1.166-1.356-8.434-2.15-20.025-.608-20.025-.608-12.763-.187-20.03.608-8.43 2.15-8.43 2.15-.326.422 1.678.936 5.634 1.54 5.775 2 .793 1.588-.045 2.008-4.054 2.7-4.6 3.176-.606 1.215.28 1.262.9.032 3.4-.47c7.478-1.487 14.516-1.903 21.988-2.006 7.468.103 14.505.52 21.986 2.006 2.498.5 2.512.514 3.4.47.877-.047.83-.793.274-1.262zm-48.47-5.132l-4.97-1.273-3.187 2.544 3.937 1.725zm53.72 1.27l-3.206-2.544-4.97 1.273 4.22 2.996zm-13.52 6.946c-4.98-.6-8.15-1.235-17.38-1.153s-12.392.563-17.38 1.153c3.14 1.26 8.22 1.894 17.38 1.894s14.242-.636 17.38-1.894z" class="B"/><path d="M328.414 189.547c-.592-.934-.763-.847-1.444-.253s-1.36-1.446-1.444-2.717.508-5.173.508-5.173l-5.1 1.27c-1.78.594-3.476.765-4.918 1.106s-2.205.675-2.968.508-2.376-.255-3.647-.255-1.185.255-2.46 1.526-1.6 1.948-2.63 4.326c-1.018 2.372-1.358 4.577-1.695 7.46-.223 1.888-.6 3.2-.817 3.87h15.202l.624-1.554c.397-.877 1.234-1.434 1.832-1.714s1.118-.28 1.393-.952c.277-.68 1.037-1.238 1.834-1.596s2.2-.16 3.467.2 1.712-.518 2.068-.996.52-1.155 1.198-2.03.17-1.676.17-1.676-.6-.42-1.185-1.352zm24.4.4c-.197-.877-.118-.994-.637-1.118s-1.393-.278-2.15-.594-.677 1.712-.677 1.712-1.794.195-3.823-.04c-2.03-.24-4.42-2.07-5.257-2.67s-1.753-1.95-1.753-1.95-.637.596-1.275.956-.996 1.633-1.114 2.908 1.474 2.826 1.592 4.1-1.393 3.825-2.15 4.86c-.516.7-1.185 2.224-1.554 3.107h7.34c.154-.377.405-.853.788-1.234.754-.757 2.033-.917 2.033-.917s0-.32.277-.994 1.035-1.474 2.865-2.192 4.024-.836 4.024-.836.874-.716 1.513-1.712.16-2.512-.04-3.388z" class="D"/><path d="M320.082-26.802l-.225 3.546 3.806-.308-.356-3.326 4.088.568.17-3.283-4.294.396.75-3.546-4.725-.043.825 3.6-4.163-.396v3.283zm8.082 8.93h-5.1v-4.36c-.488-.1-1-.148-1.5-.148-.457 0-.902.04-1.335.118v4.4h-5.288c-.18.553-.28 1.144-.28 1.753a5.55 5.55 0 0 0 .05.742h13.7a5.41 5.41 0 0 0 .05-.742 5.61 5.61 0 0 0-.27-1.755z" class="B"/><path d="M321.544-9.863c3.04 0 5.62-1.8 6.534-4.267h-13.07c.92 2.48 3.497 4.268 6.538 4.268zm2.82-11.97v2.996h3.4c-.703-1.324-1.9-2.4-3.4-2.996zm-5.65 0c-1.483.606-2.7 1.672-3.392 2.996h3.392v-2.996z" class="D"/><g class="C"><path d="M325.454 33.787l-4.103-1.81-4.127 2.048c-1.453.727-1.266.516-1.712 1.575s.045 1.434.68 1.716l5.23 2.636 5.65-2.636c1.104-.516.896-1.033.59-1.836-.306-.797-.917-1.078-2.207-1.69z"/><g transform="matrix(1.875 0 0 1.875 -278.606 -141.173)"><ellipse rx="2.145" ry="2.069" cy="94.716" cx="327.17"/><ellipse rx="2.146" ry="2.069" cy="94.716" cx="312.78"/></g></g><g class="B"><path d="M321.357 32.994l-4.388 2.134 4.5 2.29 4.444-2.29z"/><g transform="matrix(1.875 0 0 1.875 -278.606 -141.173)"><ellipse rx="1.293" ry="1.237" cy="94.278" cx="327.17"/><ellipse rx="1.295" ry="1.237" cy="94.278" cx="312.78"/></g><path d="M299.464 23.092c1.035.384 2.38.216 2.38.216s.407-1.785-.577-2.655l-2.452-2.072-.72-.774-.075 2.51c-.07.968.41 2.39 1.444 2.777z"/><ellipse rx=".394" transform="matrix(1.875 0 0 1.875 -278.606 -141.173)" ry=".373" cy="88.65" cx="309.44"/><path d="M296.094 24.296c-.313.435-.984 1.133-.984 1.133a3.01 3.01 0 0 0 1.49.506c.673.482 1.54.892 2.332.797s1.13-.847.962-1.376-.55-1.082-1.85-1.568c-1.3-.48-1.637.073-1.95.508zm2.82 4.7c-2.527.227-5.867-2.567-5.867-2.567-.3 2.244-1.7 3.4-3.825 3.834l.195.1a15.89 15.89 0 0 0 4.311 1.365c1.056.16 1.995-.02 3.13-.248 1.37-.278 2.908-.667 3.74-1.18 1.524-.94 1.07-3.38 1.07-3.38s-.223 1.85-2.752 2.078zm-9.85-2.535c-1.037-.4-2.593-1.138-3.242-1.172s-1.6-.195-1.427 1 1.393 1.8 2.6 1.82 1.817-.422 2.53-.782.585-.486-.452-.876zm-7.9-4.294c-1.13-.812-2.14-1.04-2.14-1.04s-.744 1.952-.324 3.156 1.298 1.526 2.366 1.492 2.66-.585 2.205-1.397-.97-1.4-2.106-2.212z"/><ellipse rx=".466" transform="matrix(1.875 0 0 1.875 -278.606 -141.173)" ry=".336" cy="90.041" cx="299.09"/><path d="M284.604 17.95c-.7-3.326-.583-6.945 2.57-11.556s8.638-6.48 8.638-6.48.174-.35 1.926-2.216 5.312-4.202 5.312-4.202-4.132 1.02-6.482 1.772c0 .04.002.08.002.124 0 1.596-1.267 2.9-2.83 2.9a2.79 2.79 0 0 1-1.611-.514c-1.275.247-5.52 2.784-6.606 3.7.27.442.428.964.428 1.523 0 1.592-1.27 2.887-2.833 2.887-.47 0-.9-.114-1.3-.323a11.99 11.99 0 0 0-.362.615c-.9 1.637-1.547 3.208-2.03 4.646.726.5 1.2 1.436 1.2 2.505 0 1.586-1.074 2.876-2.402 2.9-.092.934-.084 1.586-.05 1.866.116.936.467 1.52 2.1 1.986s3.853 3.326 3.853 3.326c.158 0 1.324-2.1.467-5.428zm10.05-21.3c.596-.484.7-1.224.227-1.648s-1.333-.375-1.93.113-.7 1.228-.227 1.652 1.335.375 1.93-.116zm-10.57 7.146c.67-.6.788-1.536.255-2.07s-1.506-.47-2.18.142-.786 1.534-.255 2.066 1.506.47 2.18-.14z"/><ellipse rx=".871" transform="matrix(1.875 0 0 1.875 -278.606 -141.173)" ry=".856" cy="82.109" cx="296.74"/><path d="M313.034-9.9c-.848.186-2.415.696-4.76 1.924h.043c1.63 0 2.9 1.043 2.9 2.393s-1.483 2.82-3.113 2.82-2.74-1.416-2.74-2.767a2.1 2.1 0 0 1 .208-.904l-2.23 1.438c-5.196 3.503-6.42 5.196-8.987 9.982s-3.502 10.037-2.394 13.13 5.196 3.735 5.254 3.735-.467-.467-.527-1.048c-.058-.587.118-.877.293-2.046s.058-2.565.058-2.565.934-.118 1.46.525 1.286 1.4 1.8 2.04 1.926 1.87 1.926 1.87.82-1.17.82-2.57-.934-2.916-1.1-5.368 1.1-6.83 3.5-10.04 6.887-6.128 8.23-6.77 1.575-1.635 1.635-2.218.174-1 .3-2.45-1.223-1.4-2.563-1.1zm-5.17 5.54c.92 0 1.755-.827 1.755-1.584s-.714-1.344-1.635-1.344-1.665.617-1.665 1.373.624 1.556 1.545 1.556zm7.74 30.52c1.252.5 2.666.223 3.332-.22s.9-1.58.1-2.23-1.957-.624-2.685-.22-2.364 1.558-2.364 1.558.364.608 1.616 1.114zm4 1.405c-.452.697-.786 1.12-2.177 1.18s-2.9-.03-3.808-.94-1.54-2.182-1.54-2.182l-1.57-.03s-.512 2.184-1.207 2.786c-.696.608-3.114.7-4.172-.1s-2.025-1.76-2.205-1.637 0 .9 1.087 1.85 1.84 1.517 3.596 1.517h9.97s2.025.118 2.6-1.093.6-1.97.332-2.273-.452.212-.906.9zm-15.15-1.69c1.496.83 2.323.324 2.867-.345s.647-.97.647-.97-1.414-.508-2.1-.913-1.15-.8-1.837-.7-.788.184-.788.184-.283 1.922 1.2 2.754zm19.24-2.17c-.786.65-.562 1.783.1 2.23s2.08.73 3.334.22c1.254-.504 1.616-1.114 1.616-1.114l-2.364-1.558c-.728-.403-1.897-.426-2.687.22zm13.9 4.587c-1.056.788-3.476.697-4.172.1s-1.2-2.786-1.2-2.786l-1.57.03s-.637 1.275-1.54 2.182c-.9.9-2.42 1-3.8.94s-1.72-.484-2.175-1.18-.634-1.2-.906-.9-.24 1.06.334 2.273 2.6 1.093 2.6 1.093h9.973c1.753 0 2.5-.58 3.596-1.517s1.267-1.727 1.087-1.85-1.15.844-2.205 1.635zm-.74-4.647c-.684.405-2.096.913-2.096.913s.1.304.643.97 1.376 1.176 2.87.345 1.2-2.756 1.2-2.756-.1-.1-.788-.184-1.15.307-1.84.7zm7.85-3.34l-.07-2.5s-.142.193-.72.774-1.468 1.206-2.456 2.072-.576 2.655-.576 2.655 1.346.17 2.38-.216c1.033-.4 1.515-1.8 1.444-2.777zm-2.83 4.725c0-.384-.33-.697-.735-.697s-.743.313-.743.697.332.703.743.703c.405 0 .735-.315.735-.703zm1.92 1.69c.793.096 1.66-.313 2.33-.797s1.5-.506 1.5-.506l-.986-1.133c-.3-.435-.65-.988-1.946-.508-1.298.486-1.682 1.037-1.853 1.568-.163.53.17 1.277.964 1.376zm5.88-.305s-3.337 2.794-5.867 2.567-2.754-2.08-2.754-2.08-.456 2.44 1.067 3.38c.83.514 2.374.904 3.74 1.18 1.134.23 2.076.4 3.13.248 2.334-.354 4.313-1.365 4.313-1.365l.193-.1c-2.12-.423-3.5-1.587-3.82-3.83zm7.23-1.14c-.65.034-2.207.782-3.24 1.172-1.04.4-1.17.52-.456.877s1.327.814 2.53.782 2.432-.62 2.593-1.82-.782-1.04-1.427-1zm4.66-3.122c-1.134.814-1.654 1.403-2.1 2.212s1.134 1.367 2.207 1.397 1.942-.3 2.366-1.492c.43-1.204-.32-3.156-.32-3.156s-1.005.23-2.137 1.04z"/><ellipse rx=".467" transform="matrix(1.875 0 0 1.875 -278.606 -141.173)" ry=".336" cy="90.041" cx="340.87"/><path d="M362.084 13.3c0-1.07.5-2.004 1.213-2.505a29.06 29.06 0 0 0-2.027-4.646l-.362-.615c-.392.208-.83.323-1.303.323-1.564 0-2.83-1.296-2.83-2.887 0-.56.156-1.08.426-1.523-1.087-.906-5.332-3.442-6.608-3.7a2.78 2.78 0 0 1-1.607.514c-1.564 0-2.83-1.294-2.83-2.9l.002-.124-6.478-1.772s3.555 2.333 5.308 4.202l1.926 2.216s5.486 1.867 8.638 6.48 3.266 8.23 2.567 11.556c-.855 3.326.313 5.428.467 5.428 0 0 2.218-2.86 3.853-3.326s1.986-1.052 2.102-1.986c.034-.278.04-.932-.05-1.866-1.33-.013-2.408-1.303-2.408-2.9zm-14-16.65c.594.5 1.46.54 1.93.116s.37-1.164-.227-1.652-1.46-.538-1.93-.113-.368 1.164.227 1.648zm10.57 7.146c.67.6 1.648.673 2.177.14s.416-1.46-.26-2.066c-.668-.6-1.646-.675-2.175-.142s-.414 1.457.257 2.068z"/><ellipse rx=".872" transform="matrix(1.875 0 0 1.875 -278.606 -141.173)" ry=".857" cy="82.109" cx="343.23"/><path d="M327.414-6.33c.056.585.293 1.58 1.635 2.218s5.837 3.56 8.23 6.77 3.677 7.588 3.504 10.04-1.108 3.97-1.108 5.368.816 2.57.816 2.57 1.4-1.228 1.926-1.87 1.283-1.4 1.808-2.04 1.46-.525 1.46-.525-.116 1.4.058 2.565.353 1.46.293 2.046c-.06.58-.585 1.048-.523 1.048.056 0 4.144-.64 5.252-3.735s.174-8.347-2.394-13.13c-2.567-4.8-3.8-6.482-8.987-9.983a63.44 63.44 0 0 0-2.229-1.438 2.08 2.08 0 0 1 .206.904c0 1.352-1.108 2.768-2.738 2.768s-3.113-1.468-3.113-2.82 1.27-2.392 2.9-2.392h.043c-2.346-1.23-3.9-1.74-4.76-1.924-1.342-.3-2.685-.35-2.567 1.1s.233 1.866.3 2.45zm-6.05 23.872s-.38 1.588-.887 2.26-.892 1.277-.746 2.098 1.084 1.367 1.633 1.367 1.487-.547 1.63-1.367-.236-1.423-.744-2.098-.887-2.26-.887-2.26z"/><circle cx="320" transform="matrix(1.875 0 0 1.875 -278.606 -141.173)" cy="88.56" r=".451"/><path d="M318.374 20.527s1.462-1.624 2.002-2.653l.982-1.948.98 1.948c.542 1.027 2.002 2.653 2.002 2.653s2.057-1.084 3.246-5.032-.274-8.117-.814-12.608S325.8-9.34 325.8-9.34c-1.558.893-3.03 1.27-4.444 1.296-1.414-.026-2.887-.405-4.446-1.296 0 0-.43 7.736-.973 12.227s-2.002 8.657-.812 12.608 3.25 5.032 3.25 5.032zm14.73-26.46c0 .758.834 1.584 1.757 1.584s1.545-.797 1.545-1.554-.746-1.373-1.667-1.373-1.635.585-1.635 1.342z"/></g><g class="C"><ellipse rx="1.775" transform="matrix(1.875 0 0 1.875 -278.606 -141.173)" ry="1.759" cy="81.24" cx="307.11"/><path d="M302.994-.278c-1.33-.896-3.287-.538-4.37.8s-.876 3.156.46 4.05 3.29.538 4.373-.8.874-3.15-.46-4.05z"/></g><g class="B"><ellipse rx="1.031" transform="matrix(1.875 0 0 1.875 -278.606 -141.173)" ry=".983" cy="81.012" cx="307.04"/><path d="M301.614.086a2.22 2.22 0 0 0-2.363.941c-.446.756.026 1.56 1.168 1.793 2.102.43 3.103-2.21 1.194-2.734z"/></g><g class="C"><g transform="matrix(1.875 0 0 1.875 -278.606 -141.173)"><ellipse rx="1.894" ry="1.828" cy="81.506" cx="319.98"/><ellipse rx="1.822" ry="1.759" cy="77.22" cx="319.98"/><ellipse rx="1.738" ry="1.677" cy="73.121" cx="319.98"/></g><path d="M345.514 7.852c-1.837 0-3.33 1.476-3.33 3.296s1.493 3.3 3.33 3.3a3.31 3.31 0 0 0 3.322-3.3 3.31 3.31 0 0 0-3.322-3.296zm-1.4-7.332c-1.084-1.337-3.04-1.695-4.37-.8-1.337.9-1.54 2.715-.46 4.052s3.04 1.697 4.373.8 1.54-2.7.46-4.052z"/></g><g class="B"><ellipse rx="1.033" transform="matrix(1.875 0 0 1.875 -278.606 -141.173)" ry=".983" cy="81.012" cx="332.93"/><path d="M341.114.086c-1.91.523-.908 3.163 1.198 2.734 1.138-.233 1.613-1.037 1.166-1.793s-1.506-1.176-2.364-.94z"/><g transform="matrix(1.875 0 0 1.875 -278.606 -141.173)"><ellipse rx="1.004" ry=".968" cy="81.178" cx="319.98"/><ellipse rx=".966" ry=".931" cy="76.905" cx="319.98"/><ellipse rx=".847" ry=".817" cy="72.82" cx="319.98"/></g></g><g class="C"><circle cx="379.27" transform="matrix(1.875 0 0 1.875 -278.606 -141.173)" cy="207.45" r="1.556"/><circle cx="383.65" transform="matrix(1.875 0 0 1.875 -278.606 -141.173)" cy="208.53" r="1.595"/><circle cx="396.42" transform="matrix(1.875 0 0 1.875 -278.606 -141.173)" cy="211.24" r="1.596"/><circle cx="388.04" transform="matrix(1.875 0 0 1.875 -278.606 -141.173)" cy="209.57" r="1.596"/><circle cx="389.2" transform="matrix(1.875 0 0 1.875 -278.606 -141.173)" cy="205.74" r="1.596"/><circle cx="390.32" transform="matrix(1.875 0 0 1.875 -278.606 -141.173)" cy="201.91" r="1.596"/></g><g class="B"><circle cx="379.39" transform="matrix(1.875 0 0 1.875 -278.606 -141.173)" cy="207.3" r=".777"/><circle cx="383.77" transform="matrix(1.875 0 0 1.875 -278.606 -141.173)" cy="208.37" r=".798"/><circle cx="396.54" transform="matrix(1.875 0 0 1.875 -278.606 -141.173)" cy="211.08" r=".797"/><circle cx="388.16" transform="matrix(1.875 0 0 1.875 -278.606 -141.173)" cy="209.41" r=".797"/><circle cx="389.32" transform="matrix(1.875 0 0 1.875 -278.606 -141.173)" cy="205.58" r=".797"/><circle cx="390.44" transform="matrix(1.875 0 0 1.875 -278.606 -141.173)" cy="201.75" r=".798"/></g></svg>