<svg xmlns="http://www.w3.org/2000/svg" xmlns:xlink="http://www.w3.org/1999/xlink" height="480" width="640" xmlns:v="https://vecta.io/nano"><style><![CDATA[.B{stroke:#000}.C{stroke-width:2.134}.D{stroke-linejoin:round}.E{fill-rule:evenodd}.F{fill:#217900}.G{stroke:#8c1800}.H{stroke-width:2.847}.I{stroke-linecap:round}.J{stroke-width:1.112}.K{stroke-width:1.112pt}.L{stroke-width:2.668}.M{stroke-width:2.135}]]></style><defs><clipPath id="A"><path fill-opacity=".67" d="M0 0h640v480H0z"/></clipPath><path id="B" d="M548.877 87.677s12.475-5.755 16.04-16.472-10.796-10.82-12.694-7.414 1.618 11.888.713 14.13-5.98 7.655-4.06 9.755z"/><path id="C" d="M438.3 91.587s8.098-11.098 6-22.196-14.697-4.2-14.697-.3 7.198 9.598 7.5 11.998-1.5 9.598 1.2 10.498z"/><path id="D" d="M656.605 86.793s-12.843-4.878-22.99.08-.167 15.284 3.594 14.254 7.355-9.478 9.6-10.402 9.653-1.09 9.808-3.93z"/><path id="E" d="M232.84 119.03c.002-2.11-.794-4.058-2.087-5.114s-2.887-1.055-4.18 0-2.09 3.005-2.087 5.114.794 4.058 2.087 5.114 2.887 1.055 4.18 0 2.09-3.005 2.087-5.114z"/><path id="F" d="M683.7 216.93c2.658-2.446 5.002-3.018 7.824-1.84-.496-7.02-2.515-9.543-5.255-8.9s-4.22 4.112-2.57 10.748z"/><path id="G" d="M306.77 244.22c0-1.732-1.33-3.137-2.972-3.137s-2.972 1.404-2.972 3.137 1.33 3.137 2.972 3.137 2.972-1.404 2.972-3.137z"/><path id="H" d="M345.5 96.9c1.61-2.487 1.717-5.167.24-5.987s-3.977.53-5.586 3.018-1.717 5.167-.24 5.987 3.977-.53 5.586-3.018z"/></defs><g clip-path="url(#A)"><path fill="#0071bc" d="M-160 0h960v480h-960z" class="E"/><g transform="matrix(.87024 0 0 .87024 -111.69 24.153)"><g class="E"><g class="B C"><path d="M553.43 392.43s17.493-18.502 34.313-14.97c5.046-19.51 24.053-21.025 24.053-21.025s-1.85-21.53 22.54-26.24c.673-14.634 15.475-26.744 15.475-26.744s-3.028-22.707 12.447-27.92c-9.42-17.998 3.196-31.118 3.028-31.454s-15.98-28.426-1.85-36.5c-14.97-12.615-10.092-26.912-10.092-26.912s-16.316-4.205-10.43-23.717c-13.456-2.355-16.147-24.053-16.147-24.053s-20.69 4.205-23.212-13.793c-13.624 2.187-15.138-11.27-15.306-11.27s-27.08 7.233-32.463-13.12c-10.428 5.383-14.97-4.205-14.97-4.205s-14.97 7.4-23.885-6.896c-17.83 11.1-27.753-.505-27.753-.505s-23.38 15.475-31.117 3.532c-13.793 13.96-26.07 7.906-26.07 7.906s-10.43 18.502-27.25 13.792c-3.87 17.157-23.212 17.493-23.212 17.493s2.018 15.138-21.193 19.175c-3.028 17.83-15.138 20.857-15.138 20.857s1.177 17.325-9.756 22.875c3.87 9.756-6.224 21.698-6.224 21.698s10.765 13.456-3.87 28.594c14.13 3.7 3.87 28.1 3.87 28.1s19.51 8.747 7.233 24.894c13.96 4.54 9.587 15.643 9.756 22.203 8.915 4.037 16.82 2.018 12.952 20.016 27.417 3.028 14.465 18.166 14.465 18.166s12.783.505 7.737 10.597c23.38-.504 26.744 17.493 26.744 17.493s21.698-5.72 24.558 2.69-9.42 65.094-9.42 65.094-18.334 0-31.958-14.633c-31.958-.84-24.894-21.866-25.4-21.866s-10.597 3.87-15.81-13.624c-21.362 4.373-20.69-13.624-20.857-13.792s-9.587-4.373-6.055-13.288c-22.034 2.018-20.352-19.51-20.352-19.51-4.822-1.962-6.616-6.448-5.887-10.933-2.86-1.01-22.37-1.346-12.28-27.08-18.67-11.27-7.065-24.22-7.065-24.22s-25.735-13.288-5.887-28.594c-14.802-21.866 1.177-32.8 1.177-32.8s-20.52-20.857.336-35.66c-3.364-31.622 15.475-39.19 15.475-39.19s-9.924-25.735 16.988-36.5c1.682-26.07 20.52-26.744 20.52-26.744s.505-20.69 30.108-18.67c5.72-18.502 25.903-14.802 25.903-14.802s6.224-22.37 33.64-11.606c13.96-27.25 34.65-13.288 34.65-13.288s13.12-8.578 19.68-5.887c8.33-14.315 26.063-.555 37.53 2.215 4.156-1.616 18.987-12.812 30.425 1.317 15.138-9.924 28.1 7.906 28.1 7.906s20.857-10.596 30.613 13.624c44.237-4.037 37.845 24.894 37.845 24.894s34.818-7.906 27.25 26.744c31.622 2.187 28.426 23.044 28.426 23.044s20.016 15.138 11.27 28.762c17.83.84 11.27 17.998 11.27 17.998s13.624 5.214 2.355 26.408c26.07 20.857 5.046 41.546 4.878 41.378s13.96 16.82 1.177 36.332c3.87 30.95-11.774 38.855-11.774 38.855s4.037 20.016-13.456 25.735c-.336 23.548-22.54 26.408-22.54 26.408s5.887 10.23-16.147 20.994c-.87 15.757-23.885 17.02-23.885 17.02s-2.187 28.93-31.454 21.193c-7.103 23.212-41.378 16.316-42.05 15.98s-6.56-49.788-6.56-49.956z" fill="#fff"/><g class="D F"><path d="M340.86 114.83c.086 0 7.418 6.36 6.048 15.944s-6.904 22.908-5.792 32.834c.68 3.98.423 11.1.423 11.1s-6.647-9.445-6.733-19.543 7.198-19.686 7.198-27.13-1.316-13.385-1.144-13.214zm-3.64 2.87s-9.622 9.185-10.86 18.112c-.915 4.6-1.27 26.04-1.378 35.556-.216 2.92-1.426 14.444-1.683 18.637s7.078-7.158 7.497-16.4c-.23-9.567-.23-29.717.743-32.745.865-3.893.677-8.194 2.015-12.098l3.667-11.062z"/></g></g><g stroke="#ef8a10" fill="#ffd200"><use xlink:href="#B" class="M"/><g class="H"><use xlink:href="#C"/><path d="M416.415 98.186s8.098-11.098 6-22.196-14.697-4.2-14.697-.3 7.198 9.598 7.5 11.998-1.5 9.598 1.2 10.498zm-24.295 7.498s8.098-11.098 6-22.196-14.697-4.2-14.697-.3 7.2 9.598 7.5 11.998-1.5 9.598 1.2 10.498zm-17.095 17.096s8.098-11.098 6-22.196-14.697-4.2-14.697-.3 7.198 9.598 7.5 11.998-1.5 9.598 1.2 10.498zm-17.995 16.497s8.098-11.098 6-22.196-14.697-4.2-14.697-.3 7.2 9.598 7.5 11.998-1.5 9.598 1.2 10.498z"/></g><g class="M"><path d="M398.406 43.176s-10.785 8.5-11.747 19.764 13.026 7.997 14.075 4.24-4.352-11.18-3.996-13.58 4.026-8.84 1.668-10.434zm35.992-11.1s-10.785 8.5-11.747 19.764 13.026 7.997 14.075 4.24-4.352-11.18-3.996-13.572 4.026-8.84 1.668-10.434zM300.27 129.24s2.278 13.548 11.683 19.803 13.275-7.577 10.486-10.302-11.896-1.56-13.822-3.02-5.817-7.78-8.347-6.478zm-17.975 46.003s.1 13.738 8.412 21.398 14.304-5.388 11.98-8.52-11.5-3.417-13.172-5.165-4.516-8.6-7.22-7.714zm41.47 51.393s-4.903-12.834-15.356-17.112-11.52 10.045-8.25 12.167 11.97-.816 14.146.238 7.236 6.48 9.46 4.706zm-8.616-22.21s8.313-10.938 6.43-22.075-14.613-4.485-14.7-.586 7 9.736 7.264 12.14-1.686 9.567.995 10.52zM574.37 98.774s12.475-5.755 16.04-16.472-10.796-10.82-12.694-7.414 1.618 11.888.713 14.13-5.98 7.655-4.06 9.755zM612.1 117.6s7.338-11.615 4.5-22.548-14.945-3.207-14.684.684 7.824 9.095 8.284 11.47-.855 9.677 1.9 10.394zm102.957 106.886s-4.92-12.827-15.38-17.1-11.508 10.06-8.233 12.178 11.97-.832 14.147.22 7.245 6.472 9.467 4.693zm-50.35 7.967s.285-13.735 8.682-21.3 14.235 5.568 11.87 8.67-11.543 3.27-13.236 4.997-4.624 8.543-7.317 7.623z"/><use xlink:href="#D"/><path d="M627.216 62.198s-12.843-4.878-23 .08-.167 15.284 3.594 14.254 7.355-9.478 9.6-10.402 9.653-1.1 9.808-3.93zm-43.824-23.454s-10.888 8.378-11.988 19.618 12.927 8.156 14.022 4.414-4.214-11.233-3.83-13.62 4.134-8.8 1.795-10.412zm-28.545-6.866s-4.965 12.8-.077 23 15.283.27 14.278-3.497-9.428-7.42-10.337-9.66-1.024-9.66-3.865-9.834zm-80.95 49.362s8.88-10.482 7.6-21.703-14.354-5.253-14.636-1.364 6.484 10.094 6.6 12.5-2.2 9.464.436 10.557z"/></g></g><g class="B C"><path d="M522.23 103.74s21.288 1.34 22.33 13.547-5.062 19.65-5.062 19.65 2.68 26.35-18.162 34.09c-22.33 2.68-57.314.596-57.314.596s-10.272 2.53-14.44-18.757-5.36-36.324-5.36-36.324 2.084-11.9 17.12-12.654 60.738.15 60.887-.15z" fill="#8c8a8c"/></g></g><path d="M539.35 136.8s-11.463 14.29-10.272 20.097" fill="none" class="B C I"/><path d="M524.02 170.28c2.83 2.382 5.508 5.06 6.104 13.845l1.19 17.567 14.887 133.98 13.1 96.914.893 15.036s-3.126 11.016-11.91 11.91c-6.4 13.398-41.088 17.27-44.512 17.12-3.126-.15-14.143-4.764-20.842-4.168s-18.31 5.06-23.52 4.317-16.97-4.764-19.055-13.25c-14.59-4.615-16.97-15.78-16.97-15.78l15.78-112.1 15.333-141.72s1.786-18.906 9.38-21.735c7.9-.744 48.68.744 60.143-1.935z" fill="#8c8a8c" class="B C E"/><g fill="none"><path d="M443.63 364.26l-3.126 99.147m99.446-86.047l8.783 81.73" class="B C"/><g class="J B"><path d="M285.28 312.74l-.327 1.144m412.167-4.734l.327 1.144"/></g><g stroke="#6b18b5" class="D"><path d="M274.24 178.9s6.522 9.03 7.693 14.215 3.345 15.386 6.188 19.566 19.065 27.427 19.9 37.126c.167 6.355-6.69 17.225-16.89 17.392-6.355-.167-22.744-4.348-23.413-18.396s5.017-14.382 5.686-22.91.836-46.826.836-46.993z" class="C"/><g class="J"><path d="M386.28 55.917s-6.753.482-11.95 3.3c-4.028 2.484-10.85 6.057-15.62 12.668-12.127 9.454-30.37 13.865-36.125 21.72-3.444 5.343-3.233 18.194 5.397 23.636 5.517 3.16 21.693 8.1 29.562-3.555s3.185-14.896 7.044-22.53c6.368-17.502 21.605-35.094 21.692-35.237zm163.8-17.06s-5.043-4.516-10.684-6.3c-4.586-1.166-12.224-.66-20.128-1.434-15.227-2.136-30.926-13.148-40.57-11.818-6.234 1.242-15.32 10.334-13.226 20.32 1.568 6.16 8.458 18.62 22.306 16.166s13.728-5.475 21.898-8.014c19.926-11.173 40.24-8.9 40.404-8.928zM712.52 196.74c1.137-2.598-.957-7.482-2.444-13.206-1.444-4.507-3.6-11.5-8.87-17.718-6.265-14.042-5.2-33.3-11.433-40.77-4.36-4.627-16.885-7.507-24.24-.437-4.4 4.597-13.073 19.112-3.65 29.55s13.532 6.506 20.017 12.086c15.46 10.385 23.032 28.6 30.62 30.494zm-5.54 122.66c2.1-2.923 5.892-8.557 5.442-13.25-.356-3.716 1.703-14.982 1.928-19.897 1.397-15.313 10.982-27.742 8.376-41.046-1.542-6.167-10.575-14.964-20.447-12.4-6.078 1.864-19.6 9.3-16.5 23.023s7.552 13.486 10.482 21.523c8.413 16.616 3.03 36.354 10.708 42.036z"/></g></g><g class="B C"><path d="M594.3 416.76s-2.596 4.992 7.787 9.385m12.973-21.165s11.58-2.795 19.368 0m15.172-29.16c0 .2-1.597 5.192 7.588 12.38m-.988-25.35s6.8 4.992 18.17 4.792m-86.67 9.778s.4 13.178-6.4 19.368m29.15-39.738s11.182 2.795 20.367-1.797M682.15 337.7s2.396 3.394 14.776 2.796M633.83 329.9c.4.2 14.576 4.792 23.562.6m4.788-54.9s.6-.8 4.992 14.576m5.988-57.916s-.6 8.186-7.188 11.78M715.3 198.7s-9.584 7.787-7.787 10.982M667.57 193.12s4.992 8.386-3.195 14.177M643.4 157.18s8.586-.4 12.38 6.988m-28.54-31.348h6.6m27.55-29.95c0 .2 1.797 1.797-1.597 5.192m-59.703-4.392s4.593 7.188 3.794 15.974m22.766-40.336c1.997-.2 8.786-3.195 8.786-3.195M597.1 50.754c-.2 0-2.596 8.985 1.797 12.18M586.1 91.688c0 9.584 7.588 7.188 2.396 16.373M567.53 83.7c-.2 0-11.98 9.185-11.98 10.782M536.78 78.7s4.992 4.992 3.794 11.78M522.2 74.715s-2.596 7.588-6 9.584m-20.55-11.58c-.2.4-4.193 8.985-7 10.583M459.3 72.918c.2 0 3.993 7.987-.998 13.778m-7.382-55.11c.2.2.8 6.2-2.995 11.38m-32.945 2.198c0 .2 1.597 6.8-8.985 8.985M394.62 106.06c.2.4 10.183 1.997 10.183 1.997M369.66 129.23c.2-.2 12.18-3.794 12.18-3.794M350.3 144.2c.4 0 8.386 1.398 10.383.4m-15.983 7s2.596 1.398.4 14.776m-39.34-49.926l4.792 7.188M289.4 153.4c0-.2 4.792 7.188 11.182 8.586m26.548 28.944c.2 0 7.787-1.598 8.985-2.396M323.73 218.08c.2 0-.2-4.992 6-8.386m-14.2 20.766c0 .2 5.8 7.388 9.784 8.386m-13.174 5.394c.6-.2 6.8-5.6 13.977-5.192M310.15 262.8s.2 6.2 18.57 4.593m-16.77 17.177c0-.2 5.4-12.38 16.373-16.972m-1.593 32.552s1.597-5.192 10.782-8.786M336.9 320.7s6.6-5.4 8.985-6.2m-.785 22.2s3.993 4.193 13.977-2.995m-62.107 6.375c1.198-.2 15.774-3.594 20.766 3.994m-14.966 7.986s15.375-1.997 17.372-.4m37.538 3.6s-1.997 4.193 16.972-2.795m6.588 10.385c-3.394 5.8.8 10.383-3.594 12.98m-54.116-5c.6-.4 7-2.596 6-11.78m-.2 25.55c.8-.2 11.38-4.792 13.578-2.396M350.1 398s1.398-9.385 4.393-10.383m11.567 24.543s8.786-.2 12.58-2.995m4.4-28.745c.2.2 8.187 4.393 25.16.2m-18.77 37.93s2.396 12.18 2.196 14.976"/></g></g><g class="E"><g fill="#de2010" class="B K"><use xlink:href="#E" transform="matrix(1.848748 -.231081 .238088 1.904781 237.273379 58.344961)"/><use xlink:href="#E" transform="matrix(1.848748 -.231081 .238088 1.904781 235.622331 38.060548)"/><use xlink:href="#E" transform="matrix(1.821297 -.392654 .404556 1.876486 218.076419 57.381322)"/><use xlink:href="#E" transform="matrix(1.66103 -.843971 .86954 1.711362 192.536141 159.479087)"/><use xlink:href="#E" transform="matrix(1.66103 -.843971 .86954 1.711362 184.517972 141.317752)"/><use xlink:href="#E" transform="matrix(1.583593 -.981607 1.011341 1.631583 174.25963 164.594821)"/><use xlink:href="#E" transform="matrix(1.481279 -1.130107 1.164353 1.526159 167.178225 194.11635)"/><use xlink:href="#E" transform="matrix(1.301815 -1.332893 1.373282 1.341263 168.959614 246.932224)"/><use xlink:href="#E" transform="matrix(1.173682 -1.446975 1.490838 1.209252 167.752186 274.11376)"/><use xlink:href="#E" transform="matrix(.917185 -1.621755 1.670897 .944981 187.990528 334.216436)"/><use xlink:href="#E" transform="matrix(.765786 -1.6985 1.749965 .788975 193.622635 359.939076)"/><use xlink:href="#E" transform="matrix(.650188 -1.746011 1.798934 .669883 194.885732 377.19628)"/><use xlink:href="#E" transform="matrix(.515029 -1.790545 1.844812 .530635 200.752029 397.83198)"/><use xlink:href="#E" transform="matrix(.233135 -1.848498 1.904512 .2402 237.114436 442.117152)"/><use xlink:href="#E" transform="matrix(.074759 -1.861647 1.918064 .077022 250.488558 463.367124)"/><use xlink:href="#E" transform="matrix(.074759 -1.861647 1.918064 .077022 230.440563 464.077376)"/><use xlink:href="#E" transform="matrix(-.41519 -1.816287 1.871341 -.427764 326.570292 516.386476)"/><use xlink:href="#E" transform="matrix(-.563575 -1.77586 1.829686 -.58066 344.704753 530.514732)"/><use xlink:href="#E" transform="matrix(-.771084 -1.696082 1.747489 -.794465 383.30407 545.756356)"/><use xlink:href="#E" transform="matrix(-.912962 -1.624116 1.673335 -.940642 405.705802 556.371744)"/><use xlink:href="#E" transform="matrix(-1.084056 -1.515294 1.561211 -1.1169 440.483195 564.491652)"/><use xlink:href="#E" transform="matrix(-1.208388 -1.418124 1.461104 -1.244995 464.318868 570.0201)"/><use xlink:href="#E" transform="matrix(-1.30696 -1.327826 1.36808 -1.346561 483.303712 576.796288)"/><use xlink:href="#E" transform="matrix(-1.413517 -1.213782 1.250562 -1.456362 509.160724 580.76986)"/><use xlink:href="#E" transform="matrix(-1.534893 -1.056126 1.088125 -1.581405 544.922872 576.815484)"/><use xlink:href="#E" transform="matrix(-1.69349 -.776766 .8003 -1.74482 606.254092 551.49596)"/><use xlink:href="#E" transform="matrix(-1.756933 -.620031 .638824 -1.810183 632.437436 543.951932)"/><use xlink:href="#E" transform="matrix(-1.855178 -.137952 .177296 -1.532263 703.462636 438.738656)"/><use xlink:href="#E" transform="matrix(-1.816537 -.414077 .426612 -1.871591 666.606316 524.698344)"/></g><g fill="#ffe300"><path d="M679.93 195.92c2.466-2.64 4.76-3.386 7.663-2.423-1.024-6.964-3.227-9.327-5.912-8.488s-3.9 4.418-1.75 10.912z"/><use xlink:href="#F"/><path d="M674.78 176.73c1.715-3.18 3.744-4.484 6.796-4.3-2.76-6.476-5.5-8.2-7.874-6.708s-2.65 5.264 1.077 11zm-9.35-19.13c1.715-3.18 3.744-4.484 6.796-4.3-2.76-6.476-5.5-8.2-7.874-6.708s-2.65 5.264 1.077 11zM643 122.57c1.18-3.414 2.975-5.028 6.02-5.327-3.764-5.948-6.737-7.212-8.85-5.356s-1.77 5.62 2.83 10.682zm-14.66-15.27c1.052-3.456 2.783-5.136 5.813-5.55-3.986-5.802-7.005-6.952-9.045-5.017s-1.555 5.684 3.232 10.568zm-30.84-26c-.064-3.612 1.066-5.744 3.82-7.07-5.58-4.292-8.805-4.457-10.15-1.988s.27 5.887 6.33 9.06zm16.05 12.016c.562-3.568 2.044-5.472 4.987-6.302-4.75-5.193-7.9-5.915-9.653-3.715s-.753 5.845 4.666 10.018zM579.2 71.2c-.436-3.586.467-5.823 3.07-7.427-5.992-3.693-9.218-3.525-10.302-.93s.877 5.828 7.23 8.357zm-18.7-8.163c-.945-3.487-.37-5.83 1.976-7.8-6.46-2.798-9.628-2.17-10.33.554s1.702 5.642 8.352 7.236zm-20.14-6.243c-1.237-3.394-.863-5.778 1.3-7.93-6.672-2.24-9.777-1.346-10.245 1.426s2.173 5.478 8.935 6.503zm-19.8-3.832c-1.48-3.296-1.28-5.7.733-8.004-6.817-1.753-9.85-.636-10.115 2.164s2.564 5.306 9.382 5.84zm-20.97-1.606c-1.813-3.125-1.863-5.537-.1-8.036-6.962-1.036-9.86.4-9.836 3.2s3.1 5.012 9.937 4.836zm-41.03 3.09c-2.512-2.595-3.142-4.924-2.036-7.775-7.007.673-9.477 2.755-8.774 5.478s4.217 4.117 10.8 2.297zm20.2-2.66c-2.138-2.912-2.447-5.304-.965-7.98-7.033-.282-9.762 1.447-9.435 4.24s3.62 4.65 10.4 3.74zm-40.02 6.942c-2.86-2.208-3.816-4.423-3.13-7.403-6.838 1.67-8.984 4.085-7.898 6.68s4.764 3.47 11.027.724zM400.8 76.168c-3.226-1.624-4.588-3.616-4.48-6.672-6.395 2.94-8.043 5.72-6.483 8.06s5.337 2.5 10.964-1.387zm18.3-9.348c-3.005-2.004-4.115-4.147-3.637-7.167-6.705 2.142-8.678 4.7-7.414 7.212s4.993 3.13 11.05-.045zm-52.34 33.047c-3.494-.916-5.24-2.58-5.772-5.592-5.642 4.2-6.674 7.27-4.66 9.234s5.74 1.333 10.434-3.64zM383 86.576c-3.412-1.187-5.022-2.983-5.317-6.027-5.954 3.754-7.223 6.725-5.37 8.84s5.618 1.778 10.687-2.813zm-30.67 27.504c-3.563-.595-5.454-2.094-6.257-5.044-5.236 4.704-5.986 7.847-3.803 9.62s5.838.806 10.06-4.575zm-12.93 16.78c-3.602-.27-5.62-1.6-6.7-4.456-4.787 5.16-5.25 8.357-2.914 9.924s5.887.272 9.603-5.47zm-10.82 17.16c-3.6.286-5.798-.7-7.292-3.38-3.94 5.832-3.907 9.063-1.36 10.254s5.86-.632 8.652-6.875zm-9.5 18.33c-3.533.75-5.84.048-7.67-2.404-3.15 6.294-2.698 9.493-.018 10.343s5.727-1.387 7.687-7.94zm-7.6 18.8c-3.37 1.3-5.76.973-7.953-1.158-2.114 6.714-1.16 9.8 1.62 10.216s5.435-2.277 6.332-9.057zm-5.08 20.94c-3.275 1.524-5.682 1.356-8.013-.623-1.66 6.84-.5 9.856 2.302 10.084s5.27-2.636 5.7-9.46zm-2.08 17.46c-3.083 1.633-5.486 1.826-8.006.6-.917 5.575.55 7.778 3.353 7.58s4.942-2.772 4.653-8.17zm352.76-83c1.233-3.395 3.05-4.982 6.098-5.235-3.673-6.005-6.626-7.314-8.767-5.5s-1.854 5.594 2.668 10.724zM686 238.23c2.658-2.446 5.002-3.018 7.824-1.84-.496-7.02-2.515-9.543-5.255-8.9s-4.22 4.112-2.57 10.748z"/></g><g class="B C D F"><path d="M658.45 123.94c-.086 0-7.958 7.873-6.6 17.457s7.445 21.394 6.332 31.32-2.9 16.516-2.9 16.516 9.242-10.526 9.328-20.624-6.333-23.362-6.333-30.807l.17-13.863zm14.63 32.16s-6.162 4.536-5.562 14.976 11.38 29.6 11.38 29.6 7.873 16.174 7.616 20.367 1.455-4.022.685-13.264-12.665-29.6-12.665-29.6-2.567-4.193-2.3-11.125.94-10.868.856-10.954z"/></g><g fill="#6b18b5"><path d="M487.93 26.748c.001-2.16-2.43-3.913-5.428-3.913s-5.43 1.752-5.428 3.913 2.43 3.913 5.428 3.913 5.43-1.752 5.428-3.913zm2.32 9.1c0-2.072-2.502-3.752-5.588-3.752s-5.588 1.68-5.588 3.752 2.502 3.752 5.588 3.752 5.588-1.68 5.588-3.752zm6.95-10.776s-6.386 4.8-3.752 6.705 9.898-4.15 9.898-4.15l-6.147-2.555zM684.88 134.73c.002-1.362-.636-2.62-1.674-3.302s-2.316-.68-3.353 0-1.676 1.94-1.674 3.302.636 2.62 1.674 3.302 2.316.68 3.353 0 1.676-1.94 1.674-3.302zm-2.44-9.13c0-2.27-1.568-4.112-3.503-4.112s-3.503 1.84-3.503 4.112 1.568 4.112 3.503 4.112 3.503-1.84 3.503-4.112zm1.68 18.57c0-1.178-.614-2.132-1.37-2.132s-1.37.955-1.37 2.132.614 2.132 1.37 2.132 1.37-.955 1.37-2.132zm5.63-16.6c0-1.346-.614-2.437-1.37-2.437s-1.37 1.1-1.37 2.437.614 2.437 1.37 2.437 1.37-1.1 1.37-2.437zm-15.38 1.68c0-1.093-.614-1.98-1.37-1.98s-1.37.886-1.37 1.98.614 1.98 1.37 1.98 1.37-.886 1.37-1.98zm2.43 13.1c.001-1.767-1.295-3.2-2.893-3.2s-2.894 1.433-2.893 3.2 1.295 3.2 2.893 3.2 2.894-1.433 2.893-3.2zm-7.6-5.8c0-1.514-1.1-2.74-2.437-2.74s-2.437 1.227-2.437 2.74 1.1 2.74 2.437 2.74 2.437-1.227 2.437-2.74zm-1.22-7.76c.001-.817-.405-1.572-1.065-1.98a2.01 2.01 0 0 0-2.134 0c-.66.4-1.066 1.164-1.065 1.98s.405 1.572 1.065 1.98a2.01 2.01 0 0 0 2.134 0c.66-.4 1.066-1.164 1.065-1.98zm34.72 39.48c-3.145-4.15-8.18-5.9-11.248-3.907s-3.002 6.975.143 11.126 8.18 5.9 11.248 3.907 3.002-6.975-.143-11.126zm8.93 76.6c.6-5.094-1.875-9.58-5.55-10.02s-7.147 3.333-7.757 8.428 1.875 9.58 5.55 10.02 7.147-3.333 7.757-8.428zm1.9 44.58c1.047-5.022-1.04-9.706-4.663-10.46s-7.408 2.704-8.456 7.726 1.04 9.706 4.663 10.46 7.408-2.704 8.456-7.726zm8.58-41.73c0-2.018-1.364-3.655-3.046-3.655s-3.046 1.636-3.046 3.655 1.364 3.655 3.046 3.655 3.046-1.636 3.046-3.655zm-7.45 8.38l-6.244 7.08s-5.863.152-5.558 2.056 8.07 7.614 7.995 9.9 5.178-.533 5.178-.533l4.188-12.792c0-.076-.228-8.833-2.513-8.68s-2.903 2.808-3.046 2.97zm-410.68-2.8a2.971 2.971 0 1 0-5.943 0 2.971 2.971 0 1 0 5.943 0z"/><use xlink:href="#G"/><path d="M282.37 201.04c-1.115-2.498-3.435-3.9-5.184-3.1s-2.262 3.438-1.148 5.935 3.435 3.9 5.184 3.1 2.262-3.437 1.148-5.935zm7.37 26.9c-1.53-3.238-4.72-5.042-7.12-4.03s-3.108 4.455-1.577 7.693 4.72 5.042 7.12 4.03 3.108-4.455 1.577-7.693zm7.9 19.73c.496-4.044-1.18-7.758-3.743-8.297s-5.043 2.303-5.54 6.347 1.18 7.758 3.743 8.297 5.043-2.303 5.54-6.347zm-12.66 2.88c1.585-3.753.992-7.785-1.326-9.005s-5.48.833-7.066 4.586-.992 7.785 1.326 9.005 5.48-.833 7.066-4.586z"/><path d="M279.2 242.07c0-1.915-1.478-3.467-3.302-3.467s-3.302 1.552-3.302 3.467 1.478 3.467 3.302 3.467 3.302-1.552 3.302-3.467zm-2.64-8.57c0-1.732-1.33-3.137-2.972-3.137s-2.972 1.404-2.972 3.137 1.33 3.137 2.972 3.137 2.972-1.404 2.972-3.137zm2.8-16.52c0-2.918-1.293-5.283-2.9-5.283s-2.9 2.365-2.9 5.283 1.293 5.283 2.9 5.283 2.9-2.365 2.9-5.283zm8.9-1.28c.385-2.892-.585-5.407-2.167-5.618s-3.176 1.963-3.56 4.856.585 5.407 2.167 5.618 3.176-1.963 3.56-4.856zM351.6 89.333c1.178-4.096-.037-8.212-2.712-9.194s-5.8 1.542-6.976 5.638.037 8.212 2.712 9.194 5.8-1.542 6.976-5.638zm-12.03 18.227c3.53-3.003 5.036-7.156 3.367-9.275s-5.883-1.403-9.4 1.6-5.036 7.156-3.367 9.275 5.883 1.403 9.4-1.6zm-7.02-10.117c3.5-2.578 4.98-6.143 3.33-7.962s-5.817-1.204-9.307 1.374-4.98 6.143-3.33 7.962 5.817 1.204 9.307-1.374zM359.6 79.65c2.353-1.8 3.358-4.286 2.245-5.556s-3.923-.84-6.276.96-3.358 4.286-2.245 5.556 3.923.84 6.276-.96z"/><use xlink:href="#H"/><path d="M365.86 86.235c2.53-2.133 3.517-4.958 2.202-6.3s-4.43-.72-6.962 1.413-3.517 4.958-2.202 6.3 4.43.72 6.962-1.413zm-36.8 24.865c2.366-.118 4.15-1.296 3.988-2.632s-2.212-2.323-4.578-2.204-4.15 1.296-3.988 2.632 2.212 2.323 4.578 2.204zm44.53-38.074c1.6-2.487 1.717-5.167.24-5.987s-3.977.53-5.586 3.018-1.717 5.167-.24 5.987 3.977-.53 5.586-3.018z"/></g><path d="M641.8 148.5s7.338-11.615 4.5-22.547-14.945-3.207-14.685.684 7.824 9.095 8.284 11.47-.855 9.677 1.9 10.394z" stroke="#ef8a10" fill="#ffd200" class="J"/><g class="B D"><g class="F L"><path d="M501.67 51.882s26.443 1.027 26.614 18.142c-.086 2.653 0 5.82-.94 13.435 5.22-2.824 8.73-10.697 8.044-15.746.086-17.372-23.62-29.267-33.717-15.832z"/><path d="M484.9 51.112s21.308-4.45 21.48 12.665-6.76 19.853-6.76 19.853 16.345-3.51 16.43-20.88-21.05-25.073-31.15-11.638z"/></g><path d="M557.285 420.343s99.74-28.174 129.855-150.58C669.653 395.407 560.523 435.24 560.523 435.24l-3.238-14.896z" fill="#f7df73" class="H"/></g><g fill="#8c1800"><path d="M567.517 427.964c3.083 0 10.71-8.438 15.1-9.41s4.868-5.355-.162-5.517-9.41 5.68-9.41 5.68-4.38 3.732-8.924 4.22-1.623 6.166 3.407 5.03z"/><path d="M624.95 385.118s-10.384 6.003-8.924 7.464 10.71-5.68 10.87-5.84 3.894-4.706-1.947-1.623z" class="G H"/><path d="M588.767 412.396s-3.083-1.136 4.868-4.22 7.464-6.653 10.06-8.113 8.113-5.355 9.25-3.083-5.84 6.815-7.464 7.302-9.573 7.788-11.845 8.437-3.894.325-4.868-.325z"/></g></g><g fill="none" class="G I"><path d="M640.365 369.877l-6.815 7.464" stroke-width="3.469"/><path d="M650.597 357.38l-6.5 7.95" stroke-width="3.202"/><path d="M660.81 341.16l-7.302 11.683" stroke-width="2.935"/><g class="L"><path d="M669.4 324.613l-6.004 12.007m9.9-20.78l-1.947 4.22"/></g><path d="M677.682 304.322l-1.623 5.03" stroke-width="1.601"/></g><g transform="matrix(-1.9021 0 0 1.9542 731.39 -4.3332)"><g class="E"><path d="M160.26 215.97s51.958-14.677 67.647-78.444c-9.1 65.454-65.96 86.204-65.96 86.204l-1.687-7.76z" fill="#f7df73" class="B D K"/><g fill="#8c1800"><path d="M165.6 219.94c1.606 0 5.58-4.395 7.86-4.903s2.536-2.8-.084-2.874-4.903 2.958-4.903 2.958-2.282 1.944-4.65 2.198-.845 3.212 1.775 2.62z"/><path d="M195.5 197.62s-5.4 3.127-4.65 3.888 5.58-2.958 5.663-3.043 2.03-2.45-1.014-.845z" class="G K"/><path d="M176.66 211.83s-1.606-.592 2.536-2.198 3.888-3.466 5.24-4.226 4.226-2.79 4.818-1.606-3.043 3.55-3.888 3.804-4.987 4.057-6.17 4.395-2.03.17-2.536-.17z"/></g></g><g fill="none" class="G I"><path d="M203.54 189.68l-3.55 3.888" stroke-width="1.807"/><path d="M208.87 183.17l-3.38 4.142" stroke-width="1.668"/><path d="M214.2 174.72l-3.804 6.086" stroke-width="1.529"/><g stroke-width="1.39"><path d="M218.67 166.1l-3.127 6.255m5.157-10.825l-1.014 2.198"/></g><path d="M222.98 155.53l-.845 2.62" stroke-width=".834"/></g></g><g class="B D E F L"><path d="M691.9 247.23c.5 7.678 8.005 15.03 5.065 28.426-3.758 15.193-17 51.298-14.703 57.67-3.92-5.39-3.267-10.456-3.594-17.97s10.946-35.45 11.926-44.926c0-8.495.817-20.094 1.307-23.198z"/><path d="M691.9 247.4s12.253 15.52 11.6 27.773-7.515 26.63-5.228 33c-3.92-5.4-4.9-8.822-5.228-16.337s6.045-15.847 4.738-24.015-6.045-20.42-5.88-20.42zm-401.4 3.42c-.5 7.678-6.208 14.54-3.268 27.936 3.757 15.193 17.154 34.47 15.03 56.526 3.92-5.392 5.065-11.436 5.4-18.95s-14.867-32.837-15.847-42.312c0-8.495-.817-20.094-1.307-23.198z"/><path d="M290.5 251s-11.926 15.03-11.273 27.283c.163 8.168 15.193 42.312 12.906 48.684 3.92-5.39 5.064-4.738 4.9-12.906-4.41-20.91-12.253-34.308-10.946-42.476s4.575-20.584 4.41-20.584z"/></g><path fill="#fff" stroke-dashoffset="1" d="M494.265 113.538l29.686 91.368 96.057.004-77.7 56.473 29.68 91.37-77.71-56.443-77.715 56.456 29.68-91.367-77.7-56.47h96.057z" stroke-width="2.224" class="B D"/></g></g></svg>