<svg xmlns="http://www.w3.org/2000/svg" height="480" width="640" xmlns:v="https://vecta.io/nano"><style><![CDATA[.B{fill:none}.C{stroke-linecap:round}.D{stroke:#000}.E{stroke-width:1pt}.F{stroke-width:1.25}.G{fill-rule:evenodd}.H{fill:#ffc6b5}.I{stroke-linejoin:round}]]></style><path fill="#006" d="M0 0h640v480H0z"/><g transform="matrix(1.2096 0 0 1.2172 359.74 169.23)"><g class="G"><path d="M40.148 18.913h177.16l-.21 126.06c1.474 50.675-30.11 82.12-88.227 96.298-41.275-10.25-88.863-31.45-88.933-94.86l.21-127.5z" fill="#fff"/><path d="M44.07 22.713h169.3l-.2 120.8c1.408 48.558-28.777 78.7-84.317 92.276-39.437-9.82-84.916-30.13-84.982-90.9l.2-122.17z" fill="#00a2bd" class="D E"/><path d="M212.06 157.82c-6.16 46.35-41.856 66.603-83.21 77.352-36.604-9.82-75.984-25.495-83.617-77.12l166.83-.233z" fill="#a53d08"/><g class="D"><path d="M155.77 197.17c.094.094.658 9.295-4.32 14.93 4.413 1.41 7.418-.282 8.826-2.066s1.88-4.037 1.88-4.037 1.22-.75 1.408-2.44c.094-2.348-.94-2.348-1.784-2.817l.187-5.258s-5.07-3.1-6.197 1.7z" class="F H I"/><path d="M155.5 210.32l-1.503-1.22" fill="#ff9a08" class="C E"/><path d="M141.64 69.393s.117 5.625-.235 6.21-3.554 2.07-3.554 2.07l2.734 5.82 7.734-1.094c.04 0 3.32-8.71 3.32-8.71s-1.72-2.89-1.29-5.898c-2.578-8.164-8.594 1.64-8.71 1.602z" class="E H"/><path d="M131.45 203.1s4.32 4.32 9.295 3.756c11.268-1.22 14.554-11.267 18.028-11.36s5.634 6.103 8.92 5.352c-2.817-5.164-5.82-16.62-5.352-24.694s.47-42.065.47-42.065-5.634-17.558-8.263-20.47c2.63-2.817 4.413-7.793 4.32-13.24s0-11.455 0-11.455 1.314-1.502 1.22-5.728-7.136-10.328-8.075-10.047-9.765 7.887-10.516 9.67-1.784-6.48-.094-7.23-3.944-1.22-7.512 3.005-2.535 124.7-2.44 124.5z" fill="#005121" class="F I"/></g><path d="M89.102 45.097l33.044.118-.236-15.224 12.038.118.118 15.106h32.926l.118 11.802-33.044.118-.264 139.18-11.742.074-.15-139.37-32.815.118.007-12.038z"/><path d="M122.03 81.96s-2.258-.398-3.984.133 2.656-19.586 2.656-21.246c1.527-.73 9.162-2.125 8.963-7.502-.53-3.253-11.818.2-11.62 4.316-.73 2.058-8.1 23.038-6.64 29.943 2.59 2.058 7.37 1.66 10.623 1.13V81.96z" class="D E H"/></g><g class="B D"><path d="M124.22 53.21s-.664 3.718 2.722 4.25" stroke-width=".625" class="C"/><path d="M129.2 53.144c-.133.066-4.382 2.722-4.382 2.722m4.122-1.062l-2.988 2.19m1.848-4.647l-3.32 1.992" stroke-width=".375"/></g><g class="E D"><path d="M95.5 163.56l30.14 31.267c10.422-11.455 3.193-54.272-10.515-62.158-1.643 5.07-4.437 11.15-7.407 13.11-6.534 4.453-22.546 9.66-17.194 12.993 1.22-1.7 4.413-3.286 5.915.47 1.784 5.915-6.666 6.29-6.666 6.29s-5.352-.658-6.29-6.104 7.972-10.417 8.732-10.797c.75-.282 12.394-3.38 14.366-13.71 2.44-10.14 4.976-8.638 5.446-8.826 15.2 1.502 25.163 28.732 25.727 47.886s-7.793 31.83-9.296 32.675-36.243-41.22-36.243-41.22l3.286-1.878z" fill="#ff9a08" class="G"/><path d="M117.46 134.45l.187 56.43m-3.567-55.4l.187 51.267M110.42 142.9l.187 40.75m-3.187-37.85l.188 33.7m-3.388-32.2v28.45m-3.47-26.2v22.534m-3.006-20.754v17.276" class="B"/></g><path d="M95.02 167.13l31.08 35.58m1.5-58s14.085 30.798 1.033 56.15m-37.273-40.2s1.033-2.723 2.347-1.596m-4.79-6.294s-5.634 4.976-2.535 8.17" stroke="#ffdf00" class="C F B"/><g class="D"><g class="E B"><path d="M141.03 83s.47 4.32-.47 7.605 3.568 12.394 1.877 14.272m.463 8.823l11.83-.094"/><path d="M138.6 118.5c.094.187 1.408 6.197 1.032 10.328m2.808-8.178c-.375 1.22-5.258 15.117-5.07 15.68m7.98-21.97c.094.282-.375 8.826-1.7 10.047m7.7-10.707s7.7 17.84 7.606 24.882 2.63 21.314.845 27.605M153.8 138.4s-.564 13.24-6.103 18.403 13.24 19.906 13.24 19.906" class="C"/></g><path d="M153.6 175.86s2.066 18.215 5.54 19.53m-22.52-50.05c.094.188-1.878 12.3-.282 14.272s14.836 20.47 14.272 39.624m-3.76-5.736s-.376 11.55-11.08 12.488m7.9-20.088s3.193 12.018-7.7 19.624" class="F B C"/><g class="E"><path d="M147.88 156.9s12.3 12.77 12.864 18.404m-9.294-61.324s2.16 9.107 1.315 10.704" class="B C"/><path d="M113.5 132.7s-1.317-2.305-1.152-4.857-.412-6.502 7.82-9.713c5.02-5.103 10.618-8.15 13.663-9.712 4.445-2.88 7.327-2.223 9.96-3.21 1.73-1.975 1.646-6.338 3.457-10.206s5.02-11.853 8.478-10.618.74 11.606-.576 15.228-2.47 7.408-4.774 9.63-12.758 6.255-14.816 6.996-11.44 2.88-13.828 6.174-2.223 8.15-8.232 10.29z" class="G H"/><path d="M112.85 125.78c.247-.082 4.115-1.317 5.926 2.14" class="B"/></g><g class="G I"><path d="M141.9 55.2s-1.74 2.837-2.222 4.56c-.374 1.29-1.58-.087-2.218 2.708l1.035.18c-.412.823-.546 2.214-.628 2.543s-.662 1.833-.576 2.963c.046.583 1.152 3.128 10.124-.74s-2.88-14.85-5.515-12.216z" class="F H"/><path d="M140.9 55.563c.92-.494 7.457-1.07 6.368 11.688 1.257-.165 2.01-.33 2.764.905s.67 2.716 2.01 2.716 1.51-.247 1.844-1.235 5.53 1.152 6.87-3.457c-.232-.897-3.183-2.305-3.52-3.95.755-2.305-.335-9.795-9.885-10.207-4.944-.082-5.948 1.975-6.452 3.54z" stroke-width="1.261" fill="#c59200"/></g><path d="M140.42 58.115c.083.082 2.964.905 3.293 2.305" class="B C E"/></g><path d="M142.2 61.503c0 .43-.332.78-.742.78s-.742-.35-.742-.78.332-.78.742-.78.742.35.742.78z" class="G"/><g class="D B C"><path d="M154.38 61.542s-1.055 5.078 3.594 7.07m-7.034-6.445s1.722.078 1.722 1.68-1.414 1.797-1.296 3.086 2.425 1.72 2.503 2.813M143.4 52.792c.078 0 8.243.938 7.774 2.97s-1.758 1.2-1.72 2.97 3.28.703 3.28.703.196-1.484 1.563-1.367.742 1.68 2.617 1.64" class="F I"/><path d="M138.4 65.458l1.936-.064" class="F"/><path d="M143.45 73.696s.72 3.36-2 3.04" class="E"/></g></g><g fill="#fff"><path d="M0 .063v28.44l343.648 225.93h43.256v-28.44L43.256.064H0zm386.904 0v28.44L43.256 254.433H0v-28.44L343.648.063h43.256z"/><path d="M161.2.063v254.37h64.484V.063H161.2zM0 84.853v84.8h386.904v-84.8H0z"/></g><path d="M0 101.8v50.874h386.904V101.8H0zM174.107.063v254.37h38.7V.063h-38.7zM0 254.433l128.968-84.8h28.837l-128.968 84.8H0zM0 .063l128.968 84.8H100.13L0 19.023V.063zm229.1 84.8L358.067.063h28.837l-128.968 84.8H229.1zm157.805 169.58l-128.968-84.8h28.837l100.13 65.83v18.96z" fill="#c00"/></svg>