<svg xmlns="http://www.w3.org/2000/svg" xmlns:xlink="http://www.w3.org/1999/xlink" height="480" width="640" xmlns:v="https://vecta.io/nano"><style><![CDATA[.B{fill:#d0d0d0}.C{fill:gray}.D{fill-rule:evenodd}.E{stroke:#707070}]]></style><g class="D"><path fill="#ce0000" d="M320 0h320v480H320z"/><path fill="#fff" d="M0 0h320v480H0z"/></g><g transform="matrix(1.5986 0 0 1.5986 -12.38 -30.751)"><g class="D"><path d="M104.824 108.068c0 .8-.917 1.466-2.05 1.466s-2.05-.656-2.05-1.466.917-1.466 2.05-1.466 2.05.656 2.05 1.466z" fill="#f1eeee"/><path d="M40.727 100.98v37.21h37.21c0 6.2 6.202 12.402 12.404 12.402v37.207h37.208V150.59c6.202 0 12.404-6.202 12.404-12.402h37.21v-37.21h-37.21c0-6.2-6.202-12.402-12.404-12.402V51.37H90.342v37.207c-6.202 0-12.404 6.202-12.404 12.402h-37.21z" fill="#c00"/><path d="M41.97 102.22v34.727h37.21c0 6.2 6.2 12.404 12.402 12.404v37.207h34.73V149.35c6.202 0 12.402-6.204 12.402-12.404h37.21V102.22h-37.21c0-6.2-6.2-12.404-12.402-12.404V52.61h-34.73v37.207c-6.202 0-12.402 6.204-12.402 12.404H41.97z" fill="#ffe600"/><path d="M43.21 103.46v32.25h37.208c0 6.2 6.202 12.402 12.404 12.402v37.207h32.248V148.11c6.202 0 12.404-6.202 12.404-12.402h37.208v-32.25h-37.208c0-6.2-6.202-12.402-12.404-12.402V53.85H92.82v37.207c-6.202 0-12.404 6.202-12.404 12.402H43.21z" fill="#707070"/><path d="M44.45 104.7v29.766h37.208c0 6.2 6.202 12.404 12.404 12.404v37.207h29.767V146.87c6.202 0 12.404-6.204 12.404-12.404h37.208V104.7h-37.208c0-6.2-6.202-12.402-12.404-12.402V55.09H94.062v37.207c-6.202 0-12.404 6.202-12.404 12.402H44.45z" fill="#a0a0a0"/><g transform="matrix(.24752 -.24751 .24752 .24751 -65.69 101.06)"><use xlink:href="#B" class="B"/><use xlink:href="#C" class="C"/><g class="B"><use xlink:href="#D"/><use xlink:href="#E"/></g></g><g transform="matrix(.24752 .24751 -.24752 .24751 127.47 -55.044)"><use xlink:href="#B" class="B"/><use xlink:href="#C" class="C"/><g class="B"><use xlink:href="#D"/><use xlink:href="#E"/></g></g><g transform="matrix(-.24752 .24751 -.24752 -.24751 283.58 138.11)"><use xlink:href="#B" class="B"/><use xlink:href="#C" class="C"/><g class="B"><use xlink:href="#D"/><use xlink:href="#E"/></g></g><g transform="matrix(-.24752 -.24751 .24752 -.24751 90.423 294.21)"><use xlink:href="#B" class="B"/><use xlink:href="#C" class="C"/><g class="B"><use xlink:href="#D"/><use xlink:href="#E"/></g></g></g><g fill="none" class="E"><path d="M134.994 119.585c0 14.384-11.662 26.045-26.047 26.045S82.9 133.97 82.9 119.585 94.56 93.54 108.947 93.54s26.047 11.66 26.047 26.045z" stroke-width=".461"/><path d="M128.79 119.585c0 10.96-8.885 19.844-19.845 19.844S89.1 130.545 89.1 119.585s8.885-19.844 19.845-19.844 19.845 8.885 19.845 19.844z" stroke-width=".351"/></g><g class="D"><g class="B"><path d="M100.265 140.667a1.24 1.24 0 1 1-2.481 0 1.24 1.24 0 1 1 2.481 0zm19.845 0a1.24 1.24 0 1 1-2.481 0 1.24 1.24 0 1 1 2.481 0zm-12 .003v1.293h-1.654c-1.654 0-1.654 1.293 0 1.293h1.654v1.293c.006 1.34 1.443 1.502 1.55.105l.105-1.398h1.654c1.654 0 1.654-1.293 0-1.293h-1.654v-1.293c0-1.293-1.654-1.293-1.654 0z"/><g stroke-width=".109pt" class="E"><path d="M102.77 122.35v.733s-.4.56-2.868.733-2.868 0-2.868 0c.065.64.547 1.85.4 3.3.097 1.685-.474 3.2-.474 3.2.065.088-.233.132-.755.088.4-.367.362-1.427.4-2.933s-1.564-3.772-1.23-4.4 7.375-.733 7.375-.733zm9.83-2.65l6.46-.087s.954 1.914.915 2.972-.368 1.957-.818 1.507.2-.365.3-1.507-.77-2.326-.77-2.326-1.73.755-4.332.603-1.45-1.116-1.742-1.162z"/><path d="M113.43 121.58c2.412-.11 3.995.258 3.995.258s.954 1.914.915 2.972-.368 1.957-.818 1.507.21-.365.29-1.507-.77-2.326-.77-2.326-1.73.755-4.332.603-1.86-.308-2.15-.353-.362.72-4.3.827-5.944-.827-5.944-.827-.39.56-2.868.733-2.868 0-2.868 0c.065.64.547 1.85.4 3.3.097 1.685-.474 3.21-.474 3.21.065.088-.233.132-.755.088.4-.367.362-1.427.4-2.933s-1.564-3.772-1.23-4.4 2.12-.04 2.458-.367-1.6-2.62-1.23-4.765 2.404-1.54 4.917-1.466 8.078.724 9.423 0 .763-3.407 2.05-5.132c.82-1.1 2.05-1.466 3.278-1.466.82 0 2.05 2.933 2.05 3.666l-.4.367h-.4v.367c-.935.094-1.066-.8-1.64-1.466-.246 1.033.82 4.4.82 6.598 0 1.833-.766 2.64-.814 2.51z"/><path d="M105.54 118.4c.034.73-3.166 2.37-3.427 3.017s.814 1.008.48 1.378-.606.233-.674.3-1.203-2.54-1.203-2.54 3.002-1.354 2.888-1.938-2.217-.94-2.6-2.412-.17-4.315-.48-4.9-3.995-1.162-3.998-2.06 3.787-3.367 4.197-3.733.82.367.4.733-3.377 2.633-3.377 3 2.458.733 3.278.733 1.23-.367 1.23-.733c.005-.317-.82-.367-.82-1.1s.4-1.1 1.23-1.1c.4 0 1.197.47 1.23 1.1s-.73.684-.82 1.1.82.733 1.64.733 3.617 2.132 4.027 2.5.82.367.4.733-.17.8-.58.434c-.35-.354-.4-.733-.4-.733-.035-.333-3.038-1.833-3.447-1.466s0 4.766 0 5.132c0 .733.853.73.82 1.833z"/></g></g><path fill="#a7a7a7" d="M100.32 109.9h4.917v5.132h-4.917z"/><rect transform="matrix(.55442 .83223 -.88237 .47055 0 0)" rx=".445" ry=".199" height=".399" width="30.647" y="-25.672" x="138.6" class="C"/><path d="M101.545 105.87c0 .405-.367.733-.82.733s-.82-.328-.82-.733.367-.733.82-.733.82.328.82.733z" stroke-width=".146" class="B E"/><path d="M115.88 112.54c0 .304-1.902.66-4.097.66s-4.097-.357-4.097-.66 1.902.44 4.097.44 4.097-.744 4.097-.44z" class="C"/><path fill="#a7a7a7" d="M100.73 115.03h4.097v1.466h-4.097z"/><g class="C"><path d="M114.048 111.417c-.397.744-.774 1.275-.842 1.186s.2-.764.597-1.5.774-1.275.842-1.186-.2.764-.597 1.5zm1.035 1.926c-.452.397-.83.654-.842.574s.344-.466.796-.863.83-.654.842-.574-.344.466-.796.863z"/><path d="M114.564 112.414c.334.607.553 1.12.5 1.147s-.383-.444-.717-1.05-.553-1.12-.5-1.147.383.444.717 1.05zm-.32 3.17c0 .1-1.284.183-2.868.183s-2.868-.082-2.868-.183 1.284-.183 2.868-.183 2.868.082 2.868.183zm-9.42-.368c0 .1-.917.183-2.05.183s-2.05-.082-2.05-.183.917-.183 2.05-.183 2.05.082 2.05.183z"/></g><path d="M95.813 127.96s.676 1.643 3.556 1.666 3.872-.493 2.707-1.363-3.333-.6-3.053.15-.813 1-1.07.473-1.29-2.09.566-2.195 5.784-.674 6.766.416-1.11 2.078.472 2.31 1.806-.264 4.528-.413 3.76.505 4.693.413.8-1.694.063-2.1-2.155-.48-2.518-.927-1.35-.083-1.26-.587 1.4.347 1.416.09c0-.008.216-.18.26-.222-.165-.038-.26.023-.382.09.134-.107.126-.157.17-.245-.023-.033-.186.124-.214.09s.19-.256.09-.175c-.034.023-.293.15-.296.063.004-.036.135-.128.09-.178-.037-.042-.234.048-.26.06.112-.15.104-.15-.004-.26-.094-.11-.163-.11-.318.017.064-.18.082-.22-.073-.288-.127-.07-.133-.134-.292.19.06-.346-.102-.36-.034-.526.04-.15.25-.214.6-.18.676.006 1.038.816 1.26.814s.468-.86 1.416-.51l1.542.625c.477.206-.335.52-.063.927s2.134 1.764 1.605 3.18-1.892 1.64-2.014 2.252 4.314.362 5.445.568 1.843 1.05 1.888 1.192-1.983.132-1.983.132-1.04-.538-3.525-.587-3.43-1.05-4.36-1.176-2.91.21-4.018.16-2.23-.225-2.947-.322-4.286 1.61-4.274 2.01l-2.423-.076c.072.047.314-.775 1.68-.92s2.695-.8 2.65-1.23.264-1.904.378-2.536.625-.937.504-1.268-1.682-.672-3.18-.662-3.158.094-3.4.454-.06 1.408.252 1.287-.075-.805.252-.946 1.165-.266 1.95-.284 2.154.67 2.14.9.44.952-.19 1.23-1.915.403-3.147.34-2.48-.485-2.927-.757-.724-1.098-.724-1.155z" stroke="gray" stroke-width=".059pt" class="B"/><path d="M114.053 125.53a.33.33 0 0 1-.329.329.33.33 0 0 1-.329-.329.33.33 0 0 1 .329-.329.33.33 0 0 1 .329.329z"/></g><path d="M129.5 120.77l1.595.344 2.665-1.824-.206.957-1.388.927-.767.467.525.793.86 1.4-.198.917-1.66-2.84-1.595-.344.17-.787zm-2.7-11.73l3.086-1.42-.84-1.82.413-.2 2.017 4.38-.413.2-.842-1.828-3.086 1.42-.337-.73zm-4.8-5.8l2.84-2.602.558.6-.073 4.4 2.23-2.043.52.57-2.84 2.602-.558-.6.075-4.4-2.233 2.044-.52-.57zm-12.4-5.016l.466-3.824.8.097-.4 3.373 2.975.362-.055.45-3.773-.46zm-6.12.548l-.7-3.8.792-.144.608 3.343 2.948-.536.08.447-3.74.68zm-11.282 5.568l-.283-.353 2-1.613.894 1.116a5.69 5.69 0 0 1-.673 1.118c-.266.34-.572.65-.918.927-.466.373-.94.65-1.424.83s-.916.224-1.302.14a1.59 1.59 0 0 1-.934-.569c-.234-.293-.357-.642-.367-1.05s.12-.822.383-1.235.633-.8 1.106-1.188c.343-.275.68-.487 1.015-.638s.63-.23.9-.23.5.068.754.205l-.488.552c-.194-.096-.38-.145-.555-.148s-.383.048-.62.154-.48.252-.72.444c-.287.23-.512.457-.677.68s-.278.43-.335.625-.075.37-.06.536a1.4 1.4 0 0 0 .303.75c.215.268.466.435.756.5s.612.026.96-.1.68-.33.993-.58c.272-.218.512-.464.718-.736s.345-.503.42-.686l-.45-.56-1.397 1.118zm-.13 27.7l-3.14 2.23-2.376-3.346.37-.263 1.9 2.7.973-.7-1.653-2.328.37-.263 1.653 2.328 1.427-1.013.466.656zm-4.628-5a1.26 1.26 0 0 0 .897-.866c.15-.453.143-.966-.02-1.538-.164-.583-.43-1.025-.795-1.328a1.31 1.31 0 0 0-1.266-.255 1.36 1.36 0 0 0-.72.466c-.18.224-.3.508-.324.855a2.94 2.94 0 0 0 .107 1.096c.155.548.408.987.76 1.316s.803.412 1.36.254zm.218.8a1.7 1.7 0 0 1-1.665-.375c-.495-.425-.86-1.048-1.094-1.873-.153-.54-.2-1.05-.168-1.53s.176-.874.406-1.184a1.63 1.63 0 0 1 .897-.624c.376-.106.746-.08 1.1.074s.685.432.963.828.486.85.63 1.358c.156.55.2 1.068.164 1.55s-.183.876-.412 1.182-.506.505-.83.596zm.322-7.82l-3.852-.087.06-2.697c.012-.542.057-.954.133-1.234s.2-.504.38-.668.374-.245.586-.24c.273.006.5.15.682.435s.3.718.328 1.302c.07-.2.137-.372.203-.48.142-.232.318-.45.527-.657l1.072-1.034-.023 1.012-.82.787-.544.57c-.126.15-.215.284-.267.405a1.61 1.61 0 0 0-.11.363 3.52 3.52 0 0 0-.028.447l-.02.934 1.7.04-.018.805zm-2.134-.853l.04-1.73c.008-.368-.01-.656-.05-.864s-.118-.368-.22-.478a.48.48 0 0 0-.343-.17c-.182-.004-.334.098-.456.306s-.188.532-.198.983l-.043 1.925 1.274.03zM96.55 102.2l.026-4.505.744-.446 4.115 2.027-.787.47-1.208-.636-2.183 1.306.026 1.344-.734.44zm.694-2.26l1.77-1.06-1.092-.6-.78-.464a3.61 3.61 0 0 1 .096.8l.007 1.313zm18.606-1.206l4.157-1.738.7.5-.256 4.58-.74-.54.113-1.36-2.056-1.498-1.227.55-.7-.503zm2.35-.245l1.667 1.214.115-1.236.122-.9a3.69 3.69 0 0 1-.698.401l-1.205.52zm10.3 14.34l3.747-.897.628 2.624c.126.527.188.936.185 1.227s-.066.537-.198.743a.82.82 0 0 1-.506.381c-.266.064-.522-.02-.77-.247s-.464-.62-.65-1.176a2.5 2.5 0 0 1-.073.517 3.41 3.41 0 0 1-.343.769l-.774 1.273-.236-.984.592-.97.38-.688c.084-.177.135-.33.155-.46a1.59 1.59 0 0 0 .015-.378c-.01-.092-.038-.24-.087-.44l-.217-.908-1.664.398-.187-.783zm2.28.282l.403 1.683c.086.358.175.632.27.823s.208.325.335.406.254.105.375.076c.177-.042.298-.18.364-.4s.046-.563-.06-1.002l-.448-1.872-1.24.297z" class="B"/></g><defs ><path id="B" d="M347.238 299.413c0 8.806-14.278 15.945-31.89 15.945s-31.89-7.14-31.89-15.945 14.278-15.945 31.89-15.945 31.89 7.14 31.89 15.945z"/><path id="C" d="M336.615 299.413c0 8.806-9.52 15.945-21.26 15.945s-21.26-7.14-21.26-15.945 9.52-15.945 21.26-15.945 21.26 7.14 21.26 15.945z"/><path id="D" d="M301.178 290.548h3.543l3.544 10.63 3.543-10.63h3.544l-7.086 21.26-7.086-21.26z"/><path id="E" d="M322.44 290.55h3.543v21.26h-3.543z"/></defs></svg>