<svg xmlns="http://www.w3.org/2000/svg" xmlns:xlink="http://www.w3.org/1999/xlink" height="480" width="640" xmlns:v="https://vecta.io/nano"><style><![CDATA[.B{stroke:#000}.C{stroke-width:1.056}.D{fill-rule:evenodd}.E{stroke-opacity:.772}.F{fill:none}.G{stroke-linecap:round}.H{stroke-linejoin:round}.I{fill:#fff}.J{stroke-width:.422pt}.K{fill:#008d00}.L{fill:#dc0000}.M{stroke:#286326}.N{fill:#008c00}.O{fill:#6d390b}.P{stroke-opacity:.642}.Q{fill:#9c4314}.R{stroke-width:1.953}.S{fill:#d40000}.T{fill:#973000}.U{stroke-width:1.109}.V{stroke-width:1.742}.W{stroke-width:1.583}.X{stroke-width:2.243}.Y{stroke-width:1.008}.Z{stroke-width:1.417}.a{stroke-width:1.663}.b{stroke-width:1.122}.c{stroke-width:.573}]]></style><g class="D"><path d="M0 0h639.984v480H0z" class="I"/><path fill="#0b7226" d="M0 0h214.3v480H0z"/><path fill="#bc0000" d="M426.91 0h213.075v480H426.91z"/></g><g transform="matrix(.9375 0 0 .9375 78.8 -2.9842)"><g class="D"><g class="Q"><path d="M143.28 279.14c.082-.106 3.7-6.44 3.27-5.42 1.666 1.277 4.71.067 2.5-2.805.537-1.16 1.215-2.047 1.753-3.21 1.214-2.274-1.386-3.253-2.415-1.68-.63 1.204-1.236 1.92-1.865 3.125-3.275-1.555-3.49 2.102-1.923 2.74l-2.575 3.59 1.253 3.658z"/><path d="M142.85 277.73c-.108-.08-6.492-3.607-5.465-3.193 1.254-1.684 0-4.7-2.84-2.46-1.17-.52-2.065-1.187-3.234-1.708-2.3-1.18-3.233 1.432-1.647 2.438 1.213.612 1.937 1.2 3.15 1.82-1.508 3.297 2.15 3.46 2.767 1.885l5.84 3.596c1.213-.434.213-1.942 1.426-2.377zm23.1 38.7c.02-.133.185-7.424.294-6.323 2.073.33 4.173-2.184.863-3.658-.08-1.277.094-2.38.013-3.657-.016-2.577-2.768-2.2-2.924-.328.02 1.36-.172 2.277-.152 3.636-3.62.193-2.068 3.5-.386 3.326l-.553 4.384 2.844 2.62z"/><path d="M164.9 315.4c-.133-.02-7.426-.08-6.326-.205.3-2.078-2.243-4.14-3.67-.81-1.276.098-2.38-.06-3.657.038-2.576.052-2.16 2.8-.287 2.928 1.36-.04 2.28.14 3.638.1.244 3.617 3.54 2.018 3.33.34l6.14.643c.86-.96-.03-2.072.83-3.032z"/></g><path d="M240.35 340.38s2.5 3.377 3.627 3.502c3.502.25 31.266 0 31.266 0 0-.042 1-.583 1-.625.917-1.167.834-1.834 1.75-3.002 1.46-1.46 3.543-1.918 5.002-3.377 6.253-1.5 11.88-3 18.135-4.002-.5-3.7-4.252-2.918-6.253-4.377-.625-.584-.5-1.167-.125-1.75l13.882-6.378v-1.5c-9.84 1.167-18.927 3.084-29.516 3.502l-36.144 14.883-2.626 3.127z" fill="#42b2f3" class="B C"/></g><path d="M140.42 273.97h-.125c.627 0 .13.042 0-1.5" class="B F J"/><g class="D"><path d="M140.96 275.64c-1.876-6.628-4.907-12.437-11.982-14.154-1.326-.302-2.27-4.1-.058-3.914 1.25.5.025-.238 1.276.263 1.238.442 3.166-.534 2.37-2.642 0-.25-2.36-4.44-2.36-4.566-.442-.48.38-3.166 2.5-1.75 1 .657 2 2.198 3.444 2.5.53-.1.882-1.736.793-3 0-.125.125-4.323.125-4.323-.503-2.53 1.736-3.82 3.532-1.928.125.625-.015.632.1 1.257.412.837.912.968 1.5.125l2.376-2.376c1.4-.524 2.292-1.05 2.376 1.876 0 0-1.947 2.44-2.868 3.325-.48.707-1.52 1.67.287 2.2.125 0 2.58.354 2.58.354 1.68.698 1.857 2.547.62 2.715 0 0-1.3 1.528-3.6 2.803-.708.568-1.3 1.25-.67 2.032 1.327.515.904.022 3.167.022 1.9-.442 1.732 4.233-1.717 3.916-1.032.247-2.394.144-2.954 1.794-.25 1.285-.312 3.75-.312 4.377-.214 2.977.223 7.106.223 7.23.25 2.126-.5 1.375-.75 1.876zm20.47 38.14c-.244-.3-6.5-7.18-13.75-6.407-1.35.164-3.516-3.084-1.376-3.665 1.346.05.298-.144 1.644-.095 1.138-.798-.92-3.254-1.85-2.4-.084-.235-2.482.513-3.498.307-3.146-.3-4.52-3.817-2.222-5.15 1.43.546 4.13.597 5.6.395 1.444-.44.775-1.754-.624-1.95-2-.295-10.02-2.252-9.312-3.226-1.327-2.2-.01-3.917 2.32-2.742 1.923 1.166 2.147.5 1.68-.36-.57-1.653-1.118-1.257-1.202-2.692-.142-.925.16-1.76 1.523-1.18.575-.485 1.522 2.978 5.097 1.665.662.553 1.224-3.746 3.706-3.092 1.86.575.6 2.5.952 5.24.298 1.798 2.095 1.386 2.34.452-.4-4.132 3.65-4.204 4.112-2.808.384 1.02.73 3.8.24 6.413-.266 1.328-.055 3.964.8 4.5 1.422.038.504-.285 1.483-1.757 1.648-1.06 4.2 2.78 1.2 4.7-3.163.682 1.793 12.734 2.2 13.407-.458.493-1.002-.1-1.07.445z" stroke="#286726" class="K R"/><g class="Q"><path d="M200.28 346c0-.134-.98-7.36-.7-6.29 2.1 0 3.78-2.81.28-3.748-.28-1.25-.28-2.364-.56-3.613-.42-2.543-3.08-1.74-2.94.133.233 1.34.187 2.276.42 3.615-3.546.758-1.493 3.792.14 3.345l.14 4.416 3.22 2.142z"/><path d="M200.15 345.16c-.134.002-7.346 1.084-6.28.79-.03-2.1-2.864-3.738-3.75-.226-1.245.297-2.36.313-3.606.61-2.536.455-1.696 3.103.175 2.937 1.336-.252 2.274-.22 3.61-.47.808 3.535 3.812 1.44 3.343-.187l6.165-.327c.7-1.083-.353-2.04.345-3.124z"/></g><g class="B"><path d="M197.7 305.64c17.653 10.42 22.19 8.907 21.452 4.29.846 0 1.03.737 3.535-1.1-.35 6.827 7.084 10.75 11.616 9.928 4.09.264 3.562 5.672 3.562 5.672.25 5.534-1.613 7.77-1.364 13.304-.062 0-.125-.66-.187-.66-5.03-1.197-14.942-1.337-18.654-2.138 17.015-11.608-13.086-11.926-15.778-12.32-2.033-.264-.582-2.242.605-2.77 9.365-1.847-8.803-10.716-8.33-11.77-1.11-.66.078-1.187.078-1.187 1.243-.808 2.223-.43 3.467-1.238z" stroke-width="1.108" fill="#33b1e9"/><path d="M241.77 314.47a5.53 5.53 0 0 0-5.54 5.54c-.923 4.22-.792 10.157 0 15.828a5.53 5.53 0 0 0 5.54 5.54c12.223 1.32 25.37.923 36.67 0a5.53 5.53 0 0 0 5.54-5.54c1.45-5.012 1.055-10.288 0-15.828a5.53 5.53 0 0 0-5.54-5.54c-12.223-.528-24.7-1.187-36.67 0z" fill="#983d25" class="W"/></g><path d="M200.5 163.8l-8.367 7.246c-3.436 1.52-7.172 3.41-4.482 11.504-1.57 10.384 6.798 12.027 14.12 9.86 1.22-2.69 1.608-4.546 2.828-7.235-3.237-.498-4.97.636-7.908.437-2.017-.323-2.166-1.842-1.42-2.838l9.188-4.63c-.075-.473-.15-.125-.224-.598-2.615 1.345-4.482 1.793-7.246 2.913-2.192.772-2.814-2.042-1.942-3.287l5.677-8.217c.475-1.712.146-4.595-.224-5.155z" stroke="#000003" fill="#268728" class="C H"/><g class="B"><g class="I"><path d="M223.874 306.15c0 2.42-1.963 4.384-4.384 4.384s-4.384-1.963-4.384-4.384 1.963-4.384 4.384-4.384 4.384 1.963 4.384 4.384z" stroke-width="1.055"/><use xlink:href="#B" class="C"/><use xlink:href="#B" x="102.702" y="9.26" stroke-width="1.045"/></g><path d="M200.88 169.32l.166 6.557c-.106-2.324-.92-4.185-1.22-5.1.362-.597.95-1.457 1.055-1.457z" fill="#ba4600" class="H J"/><g fill="#973100" stroke-width="1.52"><use xlink:href="#B" x="38.322" y="14.27"/><use xlink:href="#B" x="81.912" y="14.27"/><use xlink:href="#B" x="81.912" y="-5.77"/><use xlink:href="#B" x="38.572" y="-5.77"/></g></g><path d="M200.9 348.26c-.244-.31-2.1-5.572-12.59-5.8-1.476-.087-2.41.338-5.4.13-1.732.142-1.053-1.922-.367-2.664 1.138-.798-4.053-.41-5.838-.198-1.8-.103-3-.4-4.026-.616-3.146-.3-4.987-2.51-2.69-3.844.963-.947 4.878.13 6.338-.072 1.444-.44 1.242-2.873-.157-3.07-1.99-.295-10.673-.946-9.964-1.92-1.327-2.21-.942-3.357 2.506-2.928 1.923 1.166 1.867-.328 1.4-1.198-.57-1.653-3.73-1.9-3.813-3.345-.515-3.443 1.744-3.906 3.11-3.325.575-.485-2.582-3.178.993-4.5.888-.28 2.716-.062 3.333 3.204 1.86.575.575-2.143 3.098-3.248 2.163-.906-.144 9.687 2.435 9.592 2.222.904 1.785-5.8 3.645-4.487 4.02-1.03 2.075 12.848 3.825 12 2.905 2.54 3.21-2.285 4.056-1.76 1.422.038 2.37.088 1.576 3.28-.59 2.484.293 3.06.745 4.055 2.717 5.988 6.795 5.932 8.156 8.688.438 4.075-.3 1.45-.367 2.005z" stroke="#286726" class="K R"/><g class="B"><g class="C"><path d="M251.14 357.47c-5.016 4.12-10.227 6.8-12.135 11.08 2.286-.308 3.17-.7 4.875-.475 1.847-4.133 7.656-6.34 11.085-9.682l-3.826-.923zm13.4.43c4.536 4.2 10.158 6.584 12.135 11-2.286-.308-3.24-.62-4.602-.27-1.847-4.133-7.93-6.546-11.358-9.888 1.275-.308 2.55-.547 3.825-.855z" fill="#009400"/><path d="M261.13 358.76c5.496 3.298 7.69 5.67 11.075 9.892-1.627.098-3.91.836-4.744 1.32-4.09-5.32-7.255-7.21-10.684-10.552 1.275-.308 3.078-.352 4.353-.66z" class="I"/><path d="M209.24 180.2c-2.2.605-3.152 2.462-3.352 4.193-8.11 5.68-2.216 16.865 5.306 14.542-5.565-8.334 0-13.042 6.19-10.12 1.876 1.376 3.184 4.245 3.36 4.068 1.178-2.553 5.837-4.776 5.837-4.776s3.753.504 4.43-1.924c.427-1.553 3.882-7.98 3.882-7.98l-12.027-2.476-8.313-.177-4.422 1.945c-.59.943-.304 1.762-.893 2.705z" fill="#ffba00" class="E"/><path d="M256.64 359.03c5.496 3.298 8.017 6.385 11.402 10.606-1.5.44-1.993 2.892-2.828 3.375-2.64-5.32-7.002-9.854-11.618-14.383 1.275-.308 1.77.71 3.044.4z" class="S"/><path d="M254.57 358.4c-5.496 3.298-7.415 5.397-10.8 9.618 1.627.098 3.634 1.1 4.47 1.593 4.09-5.32 7.255-7.21 10.684-10.552-1.275-.308-3.078-.352-4.353-.66z" class="I"/><path d="M259.05 358.65c-5.496 3.298-7.8 6.59-11.196 10.81 2.724 1.95 2.06 2.07 2.622 3.17 2.64-5.32 8.442-9.717 13.06-14.245-1.275-.308-3.2.572-4.485.264z" class="S"/></g><use xlink:href="#C" transform="matrix(.43855 .14328 -.13174 .47697 170.31 53.137)" class="T X"/></g><path d="M250.12 351.73l-13.526 9.497c-.814.695 2.746 1.423 4.05.785 4.182-2.87 6.382-4.752 10.564-7.623l2.392-1.335c-1.707-.122-1.774-1.2-3.48-1.324z" stroke="#005e00" fill="#008d2b" class="C"/><g class="B"><use xlink:href="#C" transform="matrix(.37238 -.14619 .17511 .39171 62.95 178.21)" stroke-width="2.549" class="T"/><path d="M290.53 307.86c.207-10.87 9.74-1.353 13.48-5.832 8.795-10.365 9.548-11.154 17.318-10.03 20.824 8.183-.912 27.106-22.195 18.49-2.336-1.285-6.268-1.343-8.604-2.628z" class="K U"/></g><g class="O"><path d="M369.058 272.038c-.278 1.215-1.698 1.86-3.172 1.44s-2.444-1.743-2.166-2.958 1.698-1.86 3.172-1.44 2.444 1.743 2.166 2.958z"/><path d="M368.356 271.486l5.066 4.395-1.334 1.538-5.066-4.395zM337.62 287.58l1.106 1.55 3.822-3.33-1.106-1.55-3.822 3.33z"/></g></g><g class="B"><path d="M241.77 314.33c6.463 1.98 11.212 25.458 17.543 27.568M247.97 314.2c6.463 1.98 11.08 25.458 17.4 27.568m-11.34-27.828c6.463 1.98 11.212 25.6 17.543 27.7" class="F G W"/><g class="D"><use xlink:href="#C" transform="matrix(.37238 -.14619 .17511 .39171 157.39 161.86)" class="T X"/><path d="M340.66 292.97c.324 1.253-.238 2.88-2.443 3.45s-4.276-.29-4.6-1.543.953-3.056 3.16-3.626 3.56.467 3.884 1.72z" class="L Y"/></g></g><path d="M243.6 353.06c-3.27.663-10.724 2.28-13.974 8.793-.59 1.226-5.494 2.176-4.83.06.766-1.108 1.04-1.204 1.806-2.312-.06-1.39-3.237-.978-3.02.264-.244-.055-1.78.24-2.502.987-1.95 2.488-5.275 2.377-5.16-.277 1.23-.9 1.853-1.783 2.47-3.122.407-1.453-2.436-1.974-3.355-.9-1.946 1.018-3.167 2.476-5.482 3.606-2.578.928-5.056-.726-2.81-2.056 2.018-.992.336-3.284-.65-3.358-1.7-.41-8.665.765-9.918.063-.98-.13-2.774-2.708-.673-3.17 1.903-.62 5.08.697 5.9-3.022.822-6.263 10.76 3.204 9.146.6-3.64-5.384 2.556-6.65 4.428-2.982.762 1.655 4.547 4.1 5.644 3.65 2.063.228-3.827-5.215.85-6.103 1.066.227 2.97.308 4.282 2.127.976.94 1.184 4.808 4.834 5.13.798-1.178.032-.578-.68-2.196-.006-1.96 3.235-1.8 4.62 1.517 1.372 2.532 8.612.812 15.237.965 2.123-.347 5.538 1.52-6.162 1.75z" stroke="#286026" class="D K R"/><g class="B D"><g class="L"><path d="M333.32 292.73c1.166 1.79 1.14 4.628-2.01 6.68s-6.84 1.795-8.004.004-.115-5.28 3.035-7.332 5.812-1.142 6.978.65z" class="C"/><g class="Y"><path d="M335.58 285.3c1.09.696 1.79 2.268.563 4.188s-3.326 2.703-4.417 2.007-1.386-2.886-.16-4.807 2.922-2.085 4.015-1.39z"/><path d="M338.9 288.57c.706 1.085.692 2.805-1.218 4.048s-4.145 1.088-4.85.003-.07-3.2 1.84-4.443 3.523-.692 4.23.393z"/></g></g><path d="M346 282.14c.532.816.52 2.11-.916 3.045s-3.12.82-3.65.002-.053-2.408 1.384-3.343 2.65-.52 3.183.296z" stroke-width=".758" fill="#d90000"/><path d="M255.24 348.07c-2.8.33-4.41.503-4.95 2.536-.3 1.38-.06 3.184.18 4.734 0 1.78 2.245 2.958 4.86 3.465h4.5c1.894 0 5.4-1.855 5.4-3.634.28-1.006.27-2.63.27-3.728 0-2.992-2.112-3.176-4.753-3.457l-5.506.084z" class="C I"/></g><g class="M V D"><path d="M355.13 312.72c-.31-10.384-3.046-25.432 9.7-30.593 1.644-.43 2.238.498 1.68 1.866l-11.38 28.727z" fill="#008f00"/><path d="M371.6 291.58c2.27-4.268 7.877-5.343 9.856-5.21-3.913 4-7.827 13.806-10.025 17.015-3.166 5.452-12.4 9.32-17.938 12.53L371.6 291.58z" class="N"/></g><path d="M255.48 348l-2.877.5c-.062 0-2.19 1.375-2.19 1.375l-.438 2.75c0 .063.5 3.064.5 3.064l1.313 1.813 3.44 1.188.25-10.693z" fill="#009400" class="B D J"/><path d="M353.45 315.9c.373-.373 7.296-33.014 18.84-36.88 1.865 2.425.966 7.696.22 10.494-3.544 12.187-12.158 20.54-19.06 26.386z" class="D K M V"/><g class="O D"><g transform="matrix(-.33958 -.25086 -.25086 .33958 686.56 298.42)"><use xlink:href="#D"/><use xlink:href="#E"/></g><g transform="matrix(.42377 .15708 -.15237 .43687 148.27 41.811)"><use xlink:href="#D"/><use xlink:href="#E"/></g><g transform="matrix(-.35221 .28319 -.29686 -.35489 692.41 281.45)"><use xlink:href="#D"/><use xlink:href="#E"/></g></g><g class="M N D"><path d="M348.43 325.62c7.093-3.844 2.65 1.55 2.208 4.5-2.096 7.286-4.055 7.332-6.52 8.574-3.676 3.353-15.453 1.726-20.925 3.108 6.86-4.98 18.378-11.203 25.237-16.183zm-10.63-1.7c2.962-2.35 3.448-7.54 3.25-9.338-2.684 3.834-9.555 8.046-11.756 10.263-3.77 3.245-6.084 11.928-8.114 17.195l16.62-18.12z" class="Z"/><path d="M300.93 353.74c4.64-1.36 12.545 2.067 13.835 3.574-5.597-.001-14.666 3.885-18.498 4.557-6.112 1.548-23.062-8.015-29.13-9.38 10.13-.5 23.423 2.72 33.793 1.25z" class="V"/></g><path d="M265.62 352.76l13.526 9.497c.814.695-2.746 1.423-4.05.785-4.182-2.87-6.382-4.752-10.564-7.623l-2.392-1.335c1.707-.122 1.774-1.2 3.48-1.324z" stroke="#004500" fill="#00602b" class="C D"/><path d="M320.6 341.8c.476-.18 19.363-25.678 31.104-24.624.705 2.798-2.15 7-3.905 9.127-7.902 9.156-18.8 13.082-27.2 15.497z" class="D M N a"/><g class="O D"><g transform="matrix(.29974 .33824 -.34026 .31352 265.66 6.8508)"><use xlink:href="#D"/><use xlink:href="#E"/></g><g transform="matrix(-.44732 .064498 -.074898 -.45658 628.85 486.61)"><use xlink:href="#D"/><use xlink:href="#E"/></g></g><path d="M163 255.92c.553-.825 1.828-1.368 3.417-.478s2.26 2.45 1.707 3.275-2.34 1.075-3.93.185-1.75-2.156-1.196-2.983z" stroke-width=".788" class="B D L"/><g class="M N D"><path d="M297.7 350.34c7.8-2.062 7.335-5.818 10.98-9.103-8.436-1.235-15.165 1.75-18.77 3.734-5.693 3.67-7.165 7.656-12.098 10.4 8.41-1.074 12.197-2.28 19.887-5.032z" class="Z"/><path d="M272.26 352.62c22.308 1.683 18.753-7.373 43.2-7.15-.36 2.863-5.03 6.455-7.437 7.8-10.69 5.653-28.26 8.302-35.764-.65z" class="a"/></g><path d="M260.92 347.95l.063 10.505 2.876-1.125 1.188-2c0-.125.5-2.564.5-2.626s-.25-3-.25-3l-2.19-1.438-2.19-.312z" class="B D J S"/><path d="M168.05 250.404l-3.57-3.923 1.214-1.028 3.57 3.923z" class="D O"/><g class="B"><g class="L D"><path d="M163.56 252.82c.605-1.053 2.002-1.747 3.74-.6s2.475 3.126 1.87 4.18-2.56 1.373-4.3.237-1.915-2.753-1.31-3.807z" stroke-width=".932"/><path d="M173.4 248.42c1.017.042 2.12.94 2.062 2.987s-1.162 3.608-2.18 3.566-2.096-1.602-2.04-3.648 1.138-2.946 2.156-2.905z" stroke-width=".847"/><path d="M168.38 249.24c1.153-.303 2.655.21 3.196 2.238s-.234 3.937-1.387 4.24-2.823-.867-3.365-2.896.404-3.28 1.557-3.58z" stroke-width=".928"/></g><path d="M197.12 281.77c-3.478-8.843-12.97-23.524-22.64-16.45-10.73 9.256 4.894 23.818 18.218 22.993l4.422-6.544z" class="C D H K"/><g class="L D"><path d="M169.5 255.85c1.858-1.25 4.838-1.278 7.052 1.968s2.015 7.098.157 8.348-5.544.22-7.758-3.025-1.3-6.04.548-7.3z" stroke-width="1.105"/><path d="M162.64 241.08c.847-.57 2.206-.583 3.216.898s.92 3.237.07 3.807-2.528.1-3.537-1.38-.597-2.754.25-3.325z" stroke-width=".794"/></g><g class="K U D"><path d="M226.66 292.3c-4.37-7.775-16.296-17.498-28.445-11.278-14.366 10.083 5.795 25.186 26.427 17.74 1.85-1.918.166-4.543 2.018-6.46z"/><path d="M267.16 296.9c-4.37-7.775-27.793-16.614-37.996-9.156-12.774 14.328 5.972 24.3 31.203 17.208 1.85-1.918 4.94-6.135 6.793-8.053z"/></g><g class="C F"><path d="M176.2 267.85c.125 0 2.626 3.126 2.626 3.126l-.125-4.377m1.87 7.37l2.626 2.626m6.624-4.376l.25 3.002 1.625-.125m-1.875 7.133c-.625-.375-2.75-2.126-2.75-2.126m-3.37 2.376l-3.502-1.126" class="G H"/><path d="M177.06 275.85l-3.377-1.126"/><path d="M170.7 273.85h-2.877" class="G H"/></g><path d="M184.2 264.34v-3.752" class="F G H J"/><g class="C F"><path d="M179.2 284.6c-.375 0-5.252-.25-5.252-.25m14.002 3.63l-3.752 1.25m9.372-14.63c.125-.125 3.127-1.626 3.127-1.626m-11.627-2.624c0-.125-1-4.127-1-4.127" class="G H"/><path d="M255.18 348c-2.8.33-4.41.503-4.95 2.536-.3 1.38-.06 3.184.18 4.734.5 2.592 2.245 2.958 4.86 3.465h4.5c1.894 0 4.962-1.23 5.462-3.572.342-1.193.207-2.69.207-3.79-.25-2.742-2.112-3.177-4.753-3.457l-5.506.084z"/><path d="M255.5 348l-.1 10.435M260.97 348l-.1 10.435"/></g></g><g class="D"><g class="M N"><path d="M373.82 258.77c1.65-5.425-4.062-6.707-5.333-9.753-2.608 5.103-1.694 10.3-1.232 13.033 1.07 4.437 5.002 7.504 5.655 11.253 1.153-5.595.967-9.026.9-14.533z" stroke-width=".948"/><path d="M381.38 253.73c.11-2.968 3.983-5.094 5.543-5.563-.967 5.773.77 8.484.31 10.85-.345 3.865-7.425 9.77-10.434 13.05l4.58-18.34z" stroke-width="1.26"/><path d="M373.22 276.87c.19-.355-2.946-27.59 4.908-33.242 2.058 1.21 2.732 5.107 2.884 7.245.434 9.388.742 14.158-7.79 25.998z" stroke-width="1.349"/></g><g class="B L"><path d="M215.7 276.22c2.247.713 4.226 3.164 3.012 7.147s-3.097 6.545-6.05 5.656c-3.84-.9-4.528-4.448-3.313-8.43s4.104-5.084 6.352-4.37z" stroke-width="1.167"/><g stroke-width="1.337"><path d="M219.5 272.15c.714.5 1.14 1.553.27 2.743s-2.3 1.6-3.012 1.1-.855-1.935.015-3.125 2.013-1.22 2.727-.717zm-5.92-1.22c.853-.18 1.914.223 2.2 1.67s-.395 2.774-1.248 2.954-1.998-.692-2.277-2.14.48-2.305 1.334-2.485z"/><path d="M216.07 274.1c.836.25 1.572 1.115 1.12 2.518s-1.678 2.243-2.513 1.992-1.42-1.567-.97-2.97 1.527-1.79 2.363-1.54z"/></g><path d="M217.28 269.07c.697.2 1.312.844.934 1.905s-1.4 1.698-2.097 1.508-1.185-1.186-.808-2.248 1.274-1.355 1.97-1.165z" stroke-width="1.063"/><path d="M220.94 275.46c.763.524 1.2 1.523.19 2.523s-2.582 1.24-3.345.715-.86-1.843.14-2.844 2.253-.918 3.017-.393z" stroke-width="1.339"/><path d="M211.34 273.27c.776-.093 1.7.368 1.817 1.718s-.582 2.508-1.358 2.6-1.726-.805-1.854-2.155.62-2.07 1.396-2.164z" stroke-width="1.215"/></g></g><path d="M199.7 343.5v-.125.125z" class="B F J"/><g class="D B"><path d="M300.57 291.2c4.377 2.335 2.876 7.796-.25 9.255-.167-3.585-2.46-4.67-5.878-5.502 1.793-1 3.7-4.253 6.128-3.752z" class="C I"/><path d="M258.77 313.05c1.6-23.735 19.644-26.614 31.597-22.505 17.503 12.7-.247 23.253-26.447 23.937-2.336-1.285-2.813-.147-5.15-1.432z" class="K U"/><g class="I"><path d="M264 286.38c-5.598-.226-7.288 5.236-5.092 8.087 2.23-2.998 5.08-2.76 8.882-1.733-1.164-1.775-1.153-5.55-3.8-6.354z" class="b"/><path d="M266.93 293.48c-4.377 2.335-3.445 7.796-.318 9.255.167-3.585 2.46-4.67 5.878-5.502-1.793-1-3.142-4.253-5.56-3.752z" class="C"/></g><path d="M301.15 291.66c.05-1.953-1.5-3.64-3.297-3.914-2.178-.265-4.267 1.238-6.446-.353-.265-.177-5.323-4.543-6.775-6.577l-4.493-2.288c-1.793 2.335-3.055 5.023-5.643 6.562-1.287.515-1.78 1.12-4.127.928-2.428-1.135-5.1-1.718-6.488-.486 1.18 2.34.86 5.298.36 7.55.876.5 1.84-.1 2.892.136 3.243.086 2.418 3.57 3.627 5.07 3.416.93 5.152-.707 5.65-3.493.903-1.42 3.664-1.605 5.628-2.142 2.126-.4 4.783-1.086 6.732.007 1.61.855 2.688 1.887 3.502 3.627 0 0 2.563.23 5.128-.25.088-1.54-.228-4.34 3.752-4.377z" fill="#f6aa00" class="C H"/></g><g class="F B"><path d="M278.5 280.98l.125 5.628c.667 2.043 5.21 1.834 5.753.5l-.125-6.378" class="C"/><g class="G"><path d="M280 292.98c.98-.332 1.345-3.06 1.345-3.06m2.655 2.3l.25-2.25m3.87 2.25l-.37-2.37m-10.5.62c-.152.084-2.126-2.376-1.5-2.126m-2.12 5.746c.25 0-3.267-3.642-2.642-3.392m-.618-3.348c-.1-.28-.25-1.626.375-1.376m7.465.536c-5.343 4.612-10.374 2.67-11.1 6.55m24.33-3.94c.187-.226.83-1.42.157-1.417" class="C"/><g class="H"><path d="M205.62 291.4c.07-.103 4.06-.433 4.06-.433l-3.7-2.34m23.96 6.773c.07-.103 4.06-.433 4.06-.433l-3.17-3.67m8.94 4.763c-.196-.635 4.193.098 4.06-.433l-2.77-3.004m-6.54-10.563c.125 0 2.626 3.126 2.626 3.126l-.125-4.377m72.82 22.12c.095.08-.024 4.46-.024 4.46l2.873-3.115m-34.91-2.475c.085.1-.483 4.055-.483 4.055l4.283-2.272M202.7 281.5l2.626 2.626m-7.396 1.744l2.626 2.626m15.284 4.184l3.7-.33m-9.58 3.98l3.705-.263m23.085-8.147l2.626 2.626m8.304-1.266l2.626 2.626M227.3 284.5l2.626 2.626M199.7 276.16l2.626 2.626m26.724 29.344l2.43-2.8m9.88 5.13l2.43-2.8m-49.7-11.56l3.7-.33" class="C"/><path d="M201.1 293.46c-.604.033 1.873-.16 2.557.114l-3.653-2.614" stroke-width="1.124"/><path d="M205.73 301.3l3.7-.33m40.17-3.27l3.705-.263m-9.985 5.463l3.705-.263m.755-18.797c.125 0 2.626 3.126 2.626 3.126l-.125-4.377m33.55 12.44l-2.626 2.626m11.236.244l-2.626 2.626m-1.214 4.754l-2.626 2.626m33.526-1.946l-2.626 2.626m-13.634-4.536l-2.626 2.626m18.616-18.346l-2.626 2.626m15.056 15.124l-3.698-.353M300.6 314.32l.18-3.7m11.54-13.08l1.9-3.198m3.98 6.748l1.9-3.198m3 13.368c-.082.095-4.083-.03-4.083-.03l2.87 2.1m-54.357-3.17c.085.1-.483 4.055-.483 4.055l4.283-2.272m-36.75-9.023c.488-.362 2.963-1.132 2.83-1.663l-2.635-.954" class="C"/></g></g></g><path d="M346.1 277.88c1.735 1.347 4.662-13.98 4.213-18.775 0-.317-.545-10.487 1.585-17.752 1.345-2.446 1.393-20.773-.624-25.59 1.607-.136 3.554-.656 3.794-2.62-7.422 2.748-9.185-15.687-16.326-26.274-6.973-10.617-15.628-16.806-24.62-23.25.7-1.802 1.74-3.493 3.112-5.183-11.04 5.53-28.243-14.492-53.627-12.996-5.722.57-8.418.916-9.88 4.4-4.72.4-9.55 1.473-9.563 7.7.01 1.492 1.364 4.217 4.4 4.252 4.16 1.197 7.534.266 10.35 6.058l.746 5.988s-3.723-4.716-5.76-5.5c.54-.784-.32-1.323 1.248-2.536-1.905-1.102-5.315-.205-5.315-.205s-7.374-3.47-13.313-2.536c0-.634-1.137-4.81-1.137-4.81-1.05 2.94-3.37 2.782-3.71 5.574l-2.126-6.47c-2.084 2.846-1.48 5.917-2.22 8.875-.826.673-2.474.7-2.89-1.195-.21-2.325-.497-2.557-.484-5.33-1.505 2.622-3.308 3.9-3.917 8.427-.634-1.7-.97-3.307-1.603-4.997.08 5.888-4.998 9.422-9.808 13.555-1.35 2.5.212 2.536.317 3.804l2.536 1.268 4.55-.317c.74.95.135 1.008 2.107 1.623 5.283 1.48 11.895-4.873 17.082 5.108-2.39 1.988-4.778 6.666-4.028 7.534.95 0-1.91 1.345 1.956.112-4.034 3.923-6.768 9.08-6.768 9.398-.448 1.1 1.626-.15 1.192 1.852.567-1.5.96-.125.96-.125-9.208 9.96-.308 20.64-1.3 26.394 1.53 2.466 1.722-.046 3.636-.32 1.62 7.057 6.253 11.337 9.105 16.938-1.473-.452-4.4-.612-5.985.06.135 2.656 2.536 5.18 4.438 7.502l-4.015 1.27c-2.853 1.478-4.75 3.03-6.757 5.248-1.34 3.234 6.4 4.02 10.095 4.564-.336 1.16-.81 2.622-.137 3.897 5.827.562 12.56-1.16 12.56-1.478s1.46-1.14 1.46-1.14c.784 1.57 2.5 2.034 3.275 1.81 1.102 0 2.81-4.387 2.027-7.747 2.113 2.533 4.102 6.57 6.215 9.107.64.67 1.467.177 1.995-.274 1.796 2.854 4.276 5.708 6.072 8.558.95 1.09.746.688 2.033.768 1.175-.38 2.175-.536 2.8-2.816 0 0 .4.354.944 1.61 1.42 1.01 2.42-1.417 3.205-2.202.448-1.08 2.197.212 2.197-.422.634.422 1.05 2.28 1.684 2.702.97-.36 1.934-2.49 2.007-4.754.964 1.984 1.262 1.82 2 2.352.634-.532.833-2.6 1.467-3.128-.137-1.094 7.613 7.473 7.93 7.473.765.557 5.145 1.9 6.04.334 2.187 1.46 8.072 2.364 9.026.017 4.844 2.07 10.545-.25 10.304-2.563 4.418 1.765 11.305.587 11.305.27.784-.093 2.914-2.162.897-3.728-14.687-10.25-36.546-27.223-44.957-31.31 0-3.026-2.29-13.94-4.755-16.947-.448-1.55.56-3.465 2.018-3.353 5.715 5.344 7.793 4.835 10.818 5.696 3.275 2.584 4.45 6.528 7.726 10.12 1.543.493 3.368 2.057 2.894.532-2.044-5.13-4.515-10.096-10.635-16.766 3.17 1.585 8.362 5.783 11.868 8.825 2.337 3.852 2.994 6.92 5.107 11.78 1.532.97 3.096 4.553 2.872 1.585-.336-5.583-4.252-14.45-4.252-15.084 6.225 4.966 6.16 12.663 8.036 17.372 1.625 2.4 2.443 5.564 3.116 4.82.784-1.085-1.848-14.528-1.848-14.528-.423-1.7-.634-3.606-1.057-5.296 4.633 2.667 6.253 12.843 8.42 25.034.006 1.942.797 4.07.692 5.337.994 1.23 2.14 4.62 2.088 2.596 0 0 .003-19.833-1.342-24.39-.336-2.427.596-6.397.596-6.397l5.184 25.395v6.025l2.536 2.537 1.585-14.9-1.902-17.75v-5.072c-.038-1.787 1.604-1.444 2.686.58l.4 12.1c.74 4.964 1.255 8.586 1.658 14.898.198 5.172.397 17.403 1.492 17.192z" class="B C D E H Q"/><g class="F B"><path d="M264 306.55c-.238-.56-.4-3.145-.958-3.14l-1.542 2.34m48.85-13.32l-.315 2.616M287.3 311.73c-.603.074-3.135-.48-3.282.048l1.82 2.132" class="G C H"/><g class="J"><path d="M248.54 253.1v.274-.274.274-.274 4.784c.14.678.137 1.433.137 2.187.086.58.288 1.275.547 1.914.038.81.263 1.343.547 2.05.058.7.297 1.297.547 1.914.06.702.286 1.07.4 1.64.198.656.438 1.084.684 1.503.178.178.246.355.4.4"/><path d="M237.87 269.9c0-.222-.035-.893.274-1.367.484-.688.872-1.114 1.503-1.777.746-.475 1.28-1.038 1.914-1.64.68-.434 1.023-.818 1.64-1.23.38-.387.817-.578 1.23-.82.47-.23.813-.572 1.503-.683.417-.21 1.282-.137 1.914-.137.652 0 .88-.125 1.504-.137"/></g><path d="M337.24 222.43c2.113 1.532 4.438 4.86 5.4 10.883m-17.27-8.833c3.064 2.747 4.793 5.735 7.08 12.468" class="C G E"/></g><path d="M317.96 227.76c1.866 2.13 2.994 4.367 4.015 7.026M305.28 220.8c2.43 2.8 6.34 7.08 8.347 11.4" fill="#00c600" class="D B C E G"/><g class="F B C E"><path d="M253.67 149.3c.177 12.18 18.004 9.21 19.505 20.652 3.412 12.488 1.99 20.556-3 24.52-2.834 2.917-.667 7.453.177 9.782 4.633 11.743 11.63 13.633 14.638 23.77"/><path d="M247 157.6c0-.234.418-.642.832-.832 1.774-.578 2.865-.612 4.68-.728 1.56 0 3.016.07 4.576.312" class="G"/><path d="M270.1 269.4l6.198 10.082M289.84 254.4l33.183 25.412M288.95 261.37l24.25 21.287m-69.87-47.697c3.193 6.34 12.218 14.762 17.633 16.105.185-4.072-.046-5.645-.694-8.47m-6.67-11.245c3.193 6.34 6.1 13.097 14.58 16.94.88-6.155-1.018-14.532-5.692-23.048"/><path d="M255.1 222.85c2.916 1.76 5.554 2.545 7.498 2.777.88-6.155 1.65-12.67-3.372-21.482M243.88 226.5c4.304 4.674 7.775 4.905 9.72 5.137 1.435-4.212 2.037-13.144.278-22.77M232.73 230.24c4.285 5.546 14.165 16.073 19.48 19.9.185-.882.46-1.293.4-4.115m53.32-76.695c4.6 5.293 22.306 23.103 25.813 31.44 6.054 13.625 17.217 16.216 20 14.7"/><path d="M275.57 242.96c1.594 6.52 4.5 18.378 8.66 20.253.718-.7 1.325-1.997 1.255-4.82M251.5 206c1.873 1.907 2.298 3.644 4.242 3.876 2.368-1.937 6.54-12.734 5.04-20.704M241.67 205.7c.88 4.3 1.702 7.912 4.738 7.946 5.048-4.22 6.54-13.666 5.04-21.635M239.7 228.4l-2.273-4.995m51.333 45.425l15.217 13.823M281.5 263.27l4.696 13.22m-25.376-25.32c3.193 6.34 9.997 15.494 15.412 16.837.185-.878.082-1.642.01-4.462M252.58 249.9c3.193 6.337 12.577 16.668 17.992 19.695.185-.878.975-1.047.904-3.867"/><path d="M275.95 267.74l6.78 11.243m-14.9-39.463c2.916 1.76 5.976 3.233 7.92 3.464.297-6.854-2.092-17.9-6.998-26.373M234.1 203.58c-.866 3.242-.746 6.785 2.3 6.818 8.425-3.637 3.395-7.26 10.63-19.54m-1.8-9.578c3.193 6.34 4.13 10.65 9.105 12.28.996-.45 3.473-11.656-4.927-20.754m6.052 13.754c1.64 1.907 4.045 2.363 6 2.246 1.902-3.8-2.165-14.565-7.52-20.132m48.58 9.106c4 5.642 21.597 25.336 29.135 31.622 1.694-.216 4.2 1.888 1.855-5.23"/><path d="M300.53 190.24c4.01 5.642 11.35 15.193 18.887 21.48 1.895.707 3.728.48 4.33-.013.646-.623.058-5.094.225-9.643"/><path d="M295.76 197.35c4.6 5.06 10.65 10.884 18.072 17.637 1.895.707 3.533.735 3.75-.013.18-.74.524-.553.108-5.1m-28.34-3.444c4.6 5.06 8.787 8.788 12.95 9.718 2 .242 3.067.27 3.283-.478.18-.74.058-4.28-.008-8.362m-22.745 5.872c4.6 5.06 4.595 7.158 8.756 8.087 2 .24 3.5-.023 3.865-.7.646-1.438.873-2.998.807-7.08"/><g class="G"><path d="M280.97 180.1c4.624.84 5.007-3.156 4.632-6.017-.455-3.586-3-5.155-5.994-4.4M278.4 195.95c2.18.84 4.917.788 5.913-1.708.805-1.9.503-6.552-2.5-5.8"/><path d="M281.67 188.38c4.16.26 4.547-1.64 4.4-4.037-.165-2.794-2.06-4.922-5.062-4.168"/></g><path d="M285.7 177.52c6.072-3.655 23.566 11.003 10.26 15.67m-11.54-5.3c6.072-3.655 19.446 8.303 5.886 12.96m-8.156-4.7c6.78.236 14.582 11.118 1.3 12.448"/><path d="M274.16 201.96c2.18.84 3.438 1.387 5.382-.293.767-.704 1.78-3.934-1.085-5.725" class="G"/><path d="M217.4 188.8c2.293-2.96 7.898-4.846 9.815-.928M278.25 202.5c3.95 1.297 10.234 12.285-.32 13.406"/><path d="M273.2 152.8c4.555.86 6.855 8.22 10.485 8.788 6.64 1-.857-7.683-2.295-8.66" class="G"/><path d="M206.05 184.25c2.043.083 3.96-.292 5.253-2.7m14.997 23.8c1.135 2.116 4.052 1.27 6.462-.197 3.298-1.886.518-8.5 8.38-14.16M230.48 233.24c4.285 5.546 12.414 13.82 17.48 18.27.185-.878 1.007-1.326.936-4.15"/><path d="M247.8 251.14l9.745 13.54m10.575-16.8c1.594 6.517 7.933 16.84 12.104 18.714.718-.705 1.2-3.5 1.13-6.324m-15.504 6.28l-.595 6.04m15.185-36.25c1.594 6.518 4 22.38 7.66 25.256.718-.7 2.2-13.88 2.13-16.702m-14.7-9.004c2.165.258 3.427.25 5.122.233.297-6.854-2.672-14.9-7.578-23.375"/></g><path d="M287.6 218.95l-.338 6.93" fill="#00c600" class="B C D E G"/><g class="F B C E"><path d="M263.12 216c2.3.884 3.928 1.17 5.747 1.026 1.88-9.282-2.853-9.292-8.75-15.854"/><path d="M289.47 154.3c4.555.86 1.667 7.674 7.86 9.79 5.198 1.733 2.27-5.432.832-6.408" class="G"/><path d="M282.7 169.6c3.286-2.4 15.035.92 19 4.258 1.14 1.062 2.877 5.3-2.524 9.198M220.45 175.2c9.432-9.204 13.806-8.156 24.604-1.367 1.55.364 3.235.046 4.238-.547.547-1.32.026-2.668-.684-3.7-4.83-3.463-8.43-4.465-12.986-3.828m-1.592 43.602c-2.12 3.126-3.855 9.924-.273 17.496.142.87 1.057 1.743.136 2.324-1.765.9-2.563 2.358-3.554 3.828M289 257.7c.065-11.47-1.6-20.618-6.186-28.9m-13.634-15.76c1.514-.16 3.415.258 4.35-.193.45-1.675-.838-3.738-1.353-5.316.87-.097 1.933-.097 2.6-.3.387-1.45 0-3.48 0-5.22"/></g><path d="M212.53 180.4c.364-2.552 2.643-5.377 5.194-6.834 1.23-.684 2.05.137 2.597.4.684 1.094.273 3.144 0 3.964-.684 1.367-2.05 2.46-4.51 3.417-1.276-.547-2.005-.4-3.28-.957z" class="B C D E I"/><g class="F B C E"><path d="M234.4 229.06c.547.273 6.014 6.288 6.014 6.288h3.28l.273-9.158"/><path d="M243.28 211.43c-1.094 3.6-.684 7.2 0 10.8" class="G H"/><path d="M236.16 228.4l1.28-4.995m1.06-13.905c-1.64 3.007-2.107 7.948-1.254 11.535m45.934 8.465l-3.093.062"/></g><path d="M172.37 217.88c.434 1.34-1.027.62-1.34.997-1.536.542-3.97-1.34-5.508-5.89.75-1.274 5.16-4.012 6.577-3.423 0 0 2.775 1.058 3.108 2.217-.532 1.69-2.93 6.287-2.836 6.1z" fill="#9f3000" class="B C D"/><path d="M283.18 229.5l.05-6.1m4.97 38.1l.868 14.857" class="F B C E"/><path d="M172.27 218.4c2.997 2.82 7.706.928 8.456 7.814.32 3.853-5.138 11.56 0 18.517 1.82 2.676 6.53 5.566 6.53 5.566 2.462 2.747 3.21 7.635 4.816 11.453 3.39 5.067 8.063 6.172 11.774 4.924l12.202-5.566c0-.107-6.208-8.35-6.208-8.242s-6.958 5.887-7.065 5.887c-.75-.107-4.816.32-6.315-4.817-.107-6.565-3.353-10.2-8.563-12.844-2.64-2-4.745-5.173-2.462-9.633 1.32-4.068 2.64-10.918-2.034-15.52-2.997-1.998-5.138-3.568-8.35-4.175-4.245 1.606-4.2 1.178-2.783 6.636z" fill="#238700" class="B C D"/><g class="F B C E"><path d="M232.6 161.1c-1.64 3.007-1.5 4.8-1.218 7.817m-7.102 6.983h3.827c1.018-.027 1.453-.413 2.187-.957.493-.28 1.017-.698 1.503-1.094.405-.3.892-.63 1.367-.82.775 0 1.38.057 2.05.274.62.26 1.127.63 1.64.957.512.205.974.274 1.777.274.834 0 1.7-.04 2.46.137.723.048 1.53.207 2.05.4.662.417 1.06.915 1.503 1.367.026.726.265 1.17.274 1.913 0 .635.072 1.497-.137 1.914 0 .787-.125 1.345-.274 1.914-.502.472-.684.837-1.367.957-.537.422-1.342.4-2.187.4h-2.187l-1.64-1.367c-.317-.735-.527-.974-1.23-1.23-.6-.093-1.294-.137-2.05-.137-.668 0-1.224.046-1.64-.273-.378-.36-.92-.548-1.503-.684-.62-.176-1.35-.137-2.05-.137h-1.094"/><path d="M227.83 177.12l.137.137c-.3-.3-.197-.16.547.137.905.2 1.878.38 2.87.4.94 0 1.796.115 2.734.137.654 0 1.342.054 1.914-.137m.548-2.864h-.137c.43 0 .165-.036-.4.684-.056.78-.223 1.2.137 1.914.445.148 1.2.48 1.503.82.44.315.4.597.4 1.367l-.82 1.367-.547 1.503c-.156.624-.265 1.218-.274 1.914v1.367M286.07 159c.152.292 2.772 5.524 6.028 2.206.483-.566.65-.977.65-1.94a5.7 5.7 0 0 0-.193-1.503"/></g><path d="M207.18 264.25c1.577 2.197 4.442 1.066 5.016-.693-1.962.127-2.712-1.03-3.404-2.807-.42 1.017-2.054 2.238-1.612 3.5z" class="B D I c"/><g class="C F B E"><path d="M299.9 163.9c0 .1 2.776 2.655 6.977 2.655 1.013 0 5.83-1.216 7.364-3.356"/><path d="M305.7 166.36c.062.4.193 1.906.193 2.9-.013 1.053.24 1.934-.157 2.812-.43 1.12-.9 1.567-1.97 1.95-.86.4-1.044.017-2.002.052M282.6 161.07c0 .065 2.962 7.1 3.936 7.814"/></g><g class="D I c B"><path d="M209.1 262.97c1.576 2.197 4.442 1.066 5.016-.693-1.962.127-2.712-1.03-3.404-2.807-.42 1.017-2.054 2.238-1.612 3.5z"/><path d="M212.1 261.7c1.576 2.197 4.442 1.066 5.016-.693-1.962.128-2.712-1.03-3.404-2.807-.42 1.017-2.054 2.238-1.612 3.5z"/></g><g class="C F B E"><path d="M265.7 157.47h.966c3.07-.518 13.4 1.386 15.184 3.285m-14.22 46.585c-.065-.065.144 1.183.08 1.118.38.38-.058-1.03-.273-1.892-.322-.77-.387-1.275-.387-2.32v-.773m-18.7 49.367v.274-.274.274-1.12 5.628c.14.68.137 1.435.137 2.187.086.583.288 1.275.547 1.917.038.8.263 1.343.547 2.048.058.7.297 1.3.547 1.917.06.7.286 1.068.4 1.638.198.66.438 1.085.684 1.503.178.182.352 1.098.515 1.148"/><path d="M240 244.78v3.7l.4 2.734c.074.78.263 1.448.4 2.187.065.73.94 3.323 1.23 3.964.323.604.8 1.233 1.094 1.638.546.17.992.363 1.64.4h1.914c.768-.148 1.03-.228 1.367-.82.184-.367.174-.625.4-.82M237.68 269.66c0-.224-.035-.895.274-1.368.484-.688.872-1.115 1.503-1.777.746-.477 2.604-3.03 8.2-4.5.652 0 .88-.127 1.504-.14m-10.82-4.605c.046.046 3.06 1.62 4.623 1.7"/></g><path d="M246.95 262.55h-.15.15c-.05 0-.1 0 0 0z" class="B F J"/><g class="C D B"><path d="M245.6 262.4c-.448-.298-14.94-4.482-14.642-4.482s-5.304 3.8-5.304 3.8l13.82 4.706 5.528-4.034h.597z" fill="#ffbc00"/><path d="M231.76 257.8c.916-2.324.67-5.388-2.324-7.3-6.83-4.19-18.312-3.84-20.495 1.056-2.36-.317-3.557 1.585-3.91 3.486-6.092 1.655-.456 8.694 1.056 8.978 2.047.7 2.606.186 2.958-.483 1.14.28 2.702-.938 3.095-1.778 1.447.267 2.546.24 2.574-1.21 4.146 3.885 9.86 6.576 10.495 1.57l6.55-4.33z" fill="#f7b200"/></g><path d="M205.04 254.95c-.388 2.712 1.434 5.635 4.32 8.452m-.53-11.832c-.388 2.712.387 7.325 3.275 10.142m1.015-13.052c-2.652 2.227-1.207 9.118 1.68 11.935" class="F B C"/><path d="M220.2 192.33c6.12 8.104-2.437 17.058-9.915 22.217-8.815 6.933-13.575 20.447 1.97 21.277 5.613-.103 11.71-.6 15.14 3.796s3.556 12.516-5.084 17.72c-.846-.747-2.105-2.976-3.042-3.655s-1.554.192-2.4-.556c-.3-2.79 4.26-6.94-.05-7.943-5.578.946-25.104 1.028-24.855-17.598.43-4.15 2.648-8.8 6.208-13.55s13.323-10.62 14.26-13.193c1.503-2.222-1.245-6.548-3.437-7.146-1.793-4.78 6.125-9.886 11.205-1.37z" stroke="#000100" fill="#288800" class="C D H"/><g class="B"><g class="F C"><path d="M206.6 206.67l.21 10.88"/><path d="M200.9 211l11.62 1.7m-3.05-8.46l9.825 2.007"/><path d="M199.12 212.9l8.182 4.845M193.3 223.13l6.4 6.787m-.5-16.567l1.085 16.05" class="P"/><path d="M194.8 220.07l10.497.214" class="P"/><path d="M183.8 247.2c1.625-1.54 3.322-3.75 4.372-5.912m-1.072 8.662c2.196-1.36 5.014-2.43 7.808-3m-3.778 12.35c1.904-1.587 3.95-3.27 5.352-5.478m-5.282 5.828c3.35-.082 6.747-.426 10.05-1.034m-4.07 7.624c2.492-.938 4.768-2.38 6.613-3.82m-23.943-18.6c1.93-1.56 3.863-3.334 5.436-5.18m-6.856.18c2.1-.564 4.152-1.63 5.94-2.625m-5.2-2.595c1.698-.66 3.684-.933 5.526-1.04m-3.946-3.76c2.055-.202 3.44-.077 5.494.566m-5.134-3.606c1.7-.912 3.6-1.507 5.523-1.257m-6.383-1.003l5.92-4.042m-6.96 2.372l5.042-4.998m-6.472 4.308l3.695-6.3m11.035-31l-.046 8.993"/><path d="M201.6 185.27c-1.326 2.6-3.182 5.655-5.568 7.943m-1.132-9.673c-2.64-.2-5.137 1.22-7.144 2.9"/></g><path d="M208.97 190.4c4.4 1.615 10.218 3.835 9.612 16.727 3.633-3.936 5.298-9.46.68-16.424-3.103-3.356-7.644-4.062-10.293-.303z" fill-opacity=".994" fill="#9d4600" class="D H J"/><g class="C F"><path d="M210.95 194.7c.176-2.498 3.67-5.588 5.512-6.27m-4.162 8.53c.92-3.192 4.9-5.727 6.742-6.408m-6.662 10.928c1.7.026 8.133-3.54 9.605-5.666M212.9 199.1c2.068-1.438 5.954-4.693 7.795-5.374"/><path d="M218.58 201.7c1.55-.882 2.078-.665 3.7-2.336m-13.3-8.894c4.415 1.438 9.813 4.693 9.46 16.65"/><path d="M194.27 236.68l6.008-7.284m-5.258 8.784l5.366-.005" class="P"/><path d="M192.02 230.9l7.507 4.276" class="P"/></g><path d="M202.13 230.17c-1.437-.133-2.262-.407-3.51-.87.59 9.674 1.553 10.17 3.083 13.82 4.574 2.9 12.5 2.223 15.84 1.5.36.506 2.34 2.964 1.123 3.68-1.313.824-1.846 2.42-1.893 5 .776.874 1.584.115 2.373.677s1.72 2.55 2.45 4.262c0 0 9.728-6.686 8.15-12.976-1.036-5.91-5.03-7.92-5.03-7.92-5.648-2.824-13.587-.95-16.484-2.034-3.603-.8-5.87-3.914-6.1-5.138z" fill="#9d4600" class="D J"/><path d="M218.16 247.24c4.873-2.224 10.024-2.406 11.423-2.2M199.1 234.32c1.058-.62 2.614-1.94 4.407-1.913m4.553 12.573c.865-5.125 3.062-8.586 4.194-9.452M211 245.38c.865-5.125 3.26-8.786 4.393-9.652m-1.143 9.312c.865-5.125 3.062-8.453 4.194-9.32m-1.724 8.92c.865-5.125 3.727-7.654 4.86-8.52m-3.23 9.98c.865-5.125 5.22-7.973 6.35-8.84m-6.2 9.64c2.967-4.268 7.844-6.34 9.236-6.64M205 244.3c.865-5.125 3.128-7.92 4.26-8.786m-7.2 7.866c.865-5.125 3.528-7.72 4.66-8.586m10.55 19.106c2.3-1.8 3.863 4.034 3.977 4.743s.544 1.43 1.7 2.1M200.28 239.85c.932-2.596 2.996-5.458 4.127-6.323" class="C F"/><path d="M212.9 248.9c-2.985 4.742.46 8.928 4.325 7.25-.444-3.277-1.282-5.358 1.707-8.51-2.12.125-4.022-.625-6.032 1.262z" class="D I b"/><g class="C F"><path d="M201.63 214.03l1.412 6.966"/><path d="M203.04 220.43l-2.542 8.566M218.05 247.7c5.257-1.025 10.3 0 11.62.526"/></g><path d="M217.43 248.53c5.388-.078 10.088 2.123 11.246 2.988" stroke-width="1.135" class="F"/><path d="M217.5 249.53c5.184 1.18 7.507 3.808 8.414 4.918m-8.784-3.728c4.65 2.575 5.697 4.688 6.26 6.007" stroke-width="1.128" class="F"/></g><path d="M140.184 275.646l2.498-.586 2.7 11.55-2.498.586zm20.766 39.024l5.244 5.972 1.958-1.657-4.923-6.186-2.28 1.87zm160.07 25.53l-6.497 4.577 1.438 2.124 6.675-4.235-1.617-2.466zm34.28-28.6l-5.795 5.438 1.72 1.902 6.02-5.124-1.945-2.216zm18.37-38.35l-2.108 5.204 1.152 1.492 2.268-4.95-1.312-1.745z" fill="#296526" class="D"/><path d="M202 243.66c-2.815-4.632-3.17-9.477-3.313-14.216 1.496.713 2.672 1.104 3.527.855M192.2 183.57c-2.318-5.794.358-8.934 3.248-11.685" class="B C F"/><path d="M195.973 170.27c.488.618.19 1.737-.663 2.5s-1.94.88-2.43.263-.19-1.737.663-2.5 1.94-.88 2.43-.263z" class="D"/><path d="M180.97 214.38c-.485 0-8.88-1.13-8.88-1.13m5.33 7.27c0-.323-5.5-7.104-5.5-7.104" stroke-width="1.372" class="B F"/></g><defs ><path id="B" d="M203.085 322.68c0 2.283-1.85 4.133-4.133 4.133s-4.133-1.85-4.133-4.133 1.85-4.133 4.133-4.133 4.133 1.85 4.133 4.133z"/><path id="C" d="M203.7 472.45c0 5.002-7.22 9.058-16.127 9.058s-16.127-4.055-16.127-9.058 7.22-9.058 16.127-9.058 16.127 4.055 16.127 9.058z"/><path id="D" d="M617.987 389.725c-.658 2.877-4.022 4.405-7.514 3.413s-5.79-4.13-5.13-7.007 4.022-4.405 7.514-3.413 5.79 4.13 5.13 7.007z"/><path id="E" d="M616.325 388.417l12 10.41-3.16 3.643-12-10.41z"/></defs></svg>