<svg xmlns="http://www.w3.org/2000/svg" height="480" width="640" fill-rule="evenodd" xmlns:v="https://vecta.io/nano"><path fill="#fff" d="M194.8 0h250.45v480H194.8z"/><g fill="#198200"><path d="M0 0h194.8v480H0zm445.23 0H640v480H445.23z"/><path d="M313.5 351.3v52.63l21.27.22s-6.798-45.832-3.07-51.972 7.237-5.263 7.237-5.263 13.815 4.167 15.35 3.51-.22-5.263 7.237-4.605c2.412-.877 1.097-5.044 3.3-5.263s44.516 11.842 53.726.44c-2.412-6.36-10.745-.44-12.938-.22-1.974 0-10.306-3.947-15.132 0-4.386-3.29-24.34-5.483-24.34-5.483-2.632-2.632 47.586 1.316 50.437-.657 5.92-5.92-10.964-5.263-13.596-3.3-4.678-2.85-10.545-2.63-14.127-.657-1.718-4.108-18.036-2.34-27.1-3.51-2.9-1.702-2.405-2.67-.44-3.728 18.932.804 37.772 3.26 56.796 2.412 5.142-6.704-6.478-9.218-13.596-3.51-4.18-6.872-12.72-.22-18.42-.877s-3.07-7.675 4.166-6.58 20.175-.438 22.588-3.728-1.44-6.63-13.377-3.508c-4.04-3.95-12.938 0-17.104 1.315-5.543-3.092-18.42-.44-22.806.658-4.294-2.67 22.587-7.017 22.587-7.017 10.376-.184 16.228-1.974 19.516-2.85 15.686-8.407-.225-9.303-8.456-3.192-5.11-3.99-9.964.34-14.57 1.877s-13.377 2.632-13.377 1.974 12.5-8.334 12.5-8.334l18.42-1.535c3.07-.44 18.782-8.503-2.632-3.07-7.456.658-11.842.22-14.693.44-16.532-1.71 1.536-3.29 1.536-3.29s23.407-2.152 23.683-3.3c.46-9.126-19.078-4.824-19.297-4.824.056-6.52-18.2.22-18.2 0-3.49-2.056 1.974-4.166 1.974-4.166 4.825-1.17 12.036-1.513 13.923-3.05 0 0 13.626-.132 15.243-3.75-3.34-9.22-28.824 1.637-32.236 3.3-4.605 0 3.07-7.456 3.3-7.675s21.052-1.096 30.92-14.473c.686-8.142-11.622 4.605-11.622 4.605-.92-10.56-13.377.658-20.613 1.536s-7.455-3.3-2.41-3.948 10.745-.22 13.596-7.894 11.403.44 12.938-2.412-3.07-5.263-3.07-5.263 6.36-6.58-3.947-6.36-23.684-1.315-23.684-1.315 10.746-4.167 20.833-3.948 4.605-7.236-5.044-7.236-14.692-3.3-14.692-3.3l16.447-6.14-1.097-4.605s9.65-7.675-3.947-5.92l-15.13 1.974-27.41 4.167c-.22 0-7.456-2.193-.44-3.948s31.797-6.798 35.525-5.482-.44-9.2-13.596-10.526-21.27 3.3-21.27 3.3-8.552-3.07-.657-5.702 20.394.877 20.394.877 14.035-4.166 2.412-5.92-15.288 1.57-20.613 1.754c-2.126-2.654 18.245-3.288 19.516-5.483-2.15-3.948-14.765 0-22.148 0-3.14-1.332-3.343-3.492.22-4.824 7.53-.292 14.598.15 22.128-.142-.22-4.02.02-8.775-.2-12.795-9.55-1.745-20.755 1.26-26.116 1.005 1.434-4.387 22.067-5.512 24.362-6.706 4.775-5.97-20.175 0-20.394 0-4.35-.643-4.07-3.39-1.315-5.044 6.36-.73 20.616.925 19.537-3.386-.826-4.04-9.89-1.877-13.617-1s-9.2.22-9.2.22c-2.387-3.214 21.5-1.907 21.27-4.386-.312-2.847-15.132-.877-20.175-.658-3.94-2.72 18.93-4.513 19.298-4.824.826-7.3-15.35 0-18.42 0s-1.535-4.605-1.535-4.605 6.36-2.85 6.14-3.29-4.824-1.974-5.263-1.974 0-5.044 0-5.044 5.263-3.947 4.825-5.044-6.14.877-6.14.877v-4.386s4.166-.44 4.605-2.412-5.044-2.193-5.044-2.193l-2.193-23.025-1.974 21.5-7.237 1.096s5.044 2.85 5.92 5.7-6.14 1.974-6.14 1.974 5.702 4.824 6.14 6.58-7.895 2.193-7.895 2.193 7.017 5.044 7.456 7.894 0 4.386 0 4.386-11.622-10.087-19.08-7.237c-3.875 2.024 8.877 2.96 17.324 10.307-.02 1.636-20.517-4.992-21.27-.877.475 1.145 21.887 4.22 23.464 7.017-7.822.292-24-1.71-23.464.877-1.635 2.988 15.28 1.292 22.367 3.728 2.078 2.36 1.86 4.356-1.754 4.605-6.832-3.267-22.112-5.707-22.148-1.536.093 1.114 15.796.39 21.5 4.167-7.6 1.73-33.383-3.52-33.546-.964.734 1.194 4.82 6.445 11.836 6.226s23.244 2.85 24.34 5.044-21.052-4.605-29.385-.658 23.902 1.536 29.165 6.36-10.526-.44-10.526-.44-21.93-3.07-25.218-1.536-7.017 5.044-7.017 5.044 2.193 4.386 4.386 3.51-.658 2.632-.658 2.632 30.7 7.455 37.5 14.034-39.034-10.306-39.034-10.306-18.42 6.798 1.096 7.237c-2.245 3.285 1.097 5.262 1.097 5.262s32.455 6.798 35.744 12.06-22.148-5.044-27.85-7.894-21.93 1.754-21.71 2.85 7.895 2.632 8.113 4.605-9.43 2.632-9.43 4.386S305.826 216 316.79 225.2s-32.236-10.964-32.236-10.964 2.412 3.29 0 4.166-10.964-12.28-25-4.166c-2.556 3.338 12.243 5.992 16.008 6.36-1.286 3.306-2.412 4.386 2.85 7.675s-10.307-4.824-10.307-4.386 1.097 5.702 1.097 5.702c-4.86-3.947-10.726-5.14-16.228-1.097 0 0-.22 3.948 5.482 6.36-3.113 6.36 3.51 4.386 14.035 10.306-15.644-4.09-16.885 3.51-5.7 5.263s41.884 2.85 49.12 12.28-10.28-3.616-12.28-3.947c-.44.22-.877 4.825-.877 4.825-4.678-2.708-8.99-5.14-14.585-6.288-.44.877-.326 2.12-.765 2.998-5.078-3.662-9.512-6.222-16.886-6.58l-.877 3.51s-6.14-7.675-18.2 0c-6.735 4.828 25.438 1.754 30.7 7.456s1.096 6.58 1.096 6.58l-13.157-4.824s-15.57-2.85-19.955.657 64.033 12.06 66.006 21.49c1.33 5.114-16.08-5.37-31.14-9.868l-1.755 5.044s-5.98-6.007-12.72-7.017c-.22 0 1.315 5.92 1.315 5.92s-16.885-7.895-25.437-3.728 29.824 6.36 33.332 10.307-11.622-2.632-12.938 0-19.956-4.824-19.737-1.316 2.632 5.483 2.632 5.483 38.814 3.728 40.13 8.333-21.49-2.632-21.49-2.632-2.193 3.3-.44 4.825-13.157-8.772-11.842-1.974c-4.836-1.925-17.324-7.894-15.57-3.29s35.306 11.184 35.306 11.184-14.693 1.096-14.035 4.825c-18.9-11.515-18.42-4.167-17.982-3.948s-24.34-6.14-5.702 3.948 10.088 8.333 10.307 8.552 1.974 5.044 1.535 5.044-12.72-6.58-16.885-7.017-23.903 5.482-2.85 14.692 34-2.193 45.612-.877 17.104 3.29 16.008 7.017-11.873-12.217-23.215 1.576c-12.902-2.553-21.658-4.035-14.998 5.447-21.07-7.874-33.934 2.406-7.4 6.573 26.075.77 42.103-6.36 42.103-6.36s4.386 8.114 10.746 2.412 6.58 2.193 6.798 2.193 6.14-2.632 6.14-2.632h1.535z" stroke-width=".742" stroke-linejoin="round" stroke="#000"/></g><path stroke-linejoin="round" d="M316.07 320.16v-3.673s-8.283-1.47-12.322-.643c-2.392-1.37-4.653-3.176-7.512-1.653-.55 1.194 5.234 4.316 7.162 4.316 2.258 1.43 12.672 1.836 12.672 1.653zm-.1 5.97s-8.283-3.028-11.6.46c.54 3.7 9.752 5.508 11.68 4.498s0-4.775-.092-4.96zm13.96 1.47v2.57s9.917 1.928 11.662-.184-7.897-3.5-11.662-2.388zm-.45-10.25l.366 2.9s8.54 1.928 11.845-2.755-7.504.037-12.2-.146zm.45-9.95v1.928s6.428 1 7.897-1.744-7.714 0-7.897-.184zm-13.43-5.94c-1-1.4-4.48-4.904-13.846-5.914-6.5-.02 11.758 9.578 13.846 5.914zm13.25-9.76l-.276 2.663c.092 0 22.038-6.52 27.18-6.06 4.593-1.3 5.5-4.5 5.326-4.5-3.92-2.857-22.864 2.296-32.23 7.897zm.45-7.8c-.092.46-.276 2.57-.276 2.57s15.518-3.03 19.65-5.97-19.2 3.5-19.375 3.397zm-.63-7.63v2.6s10.358-.316 12.487-2.405c1.36-2.1-9.13-.297-12.488-.184zm21.6 21.73s5.38.752 6.4-.8c-.2-2.77-6.4.9-6.4.8zm-21.16-31.37c-.092.46.1 5.693.1 5.693s24.885-7.897 26.446-9.366 5.025-5.892-26.538 3.674zm-.72-7.9v4.132s10-.735 14.6-4.5-14.6.46-14.6.368zm-12.04-9.37l.643 3.765-32.873-10.652c.1 0-1.66-5.426 32.23 6.887zm.54-13.22c-.092.367-.092 3.58-.184 3.5s-22.864-9.55-23.7-8.724c-3.024-7.086 23.875 5.418 23.875 5.234zm11.12 5.88a334.05 334.05 0 0 0 .367 3.214s13.958-2.94 14.784-4.316-15.15 1.194-15.15 1.1zm.33 7.43l.404 3.306s5.6-.46 6.428-1.745-6.832-1.47-6.832-1.56zm-.88-16.98l.1 3.122s15.335-3.03 16.988-4.5-17.355 1.377-17.08 1.377zm.1-8.45c0 .184-.55 3.122-.184 3.122s18.64-3.122 21.487-5.693-21.028 2.846-21.303 2.57zm-.26-14.88v3.214s11.846-2.48 14.05-4.96-14.05 1.93-14.05 1.745zm-2.03-21.67l.276 4.866s15.886-2.203 18.18-4.866-18.548 0-18.457 0zm-7.35-36.45v3.03s-7.53-.367-5.694-1.653 5.694-1.102 5.694-1.377zm6.98 4.04l.184 4.132s9.733-.918 10.468-2.48-10.468-1.653-10.652-1.653zm-.55 5.97s.184 2.57.367 2.57 3.856-.276 4.683-1.286-4.683-1.102-5.05-1.286zM317 172.78l.1 3.856c-.184-.092-21.303-6.152-23.232-6.06s-2.48-4.866 23.14 2.204zm1.73 6.9c0 .735.46 4.6-.276 4.408s-14.324-4.5-12.947-5.785 13.223 1.653 13.223 1.377zm-1.2 29l.1 3.5s-23.7-7.162-24.517-8.356-3.122-6.795 24.426 4.866zm.9 8.54l.092 3.306c-.092 0-32.23-11.294-32.23-11.294s-2.57-8.448 32.138 7.988zm-38.2 111.46l-.1 3.517s-6.264-1.76-8.242-5.275c3.626-1 8.462 1.868 8.352 1.758z" stroke="#000" fill="#fff" stroke-width=".594pt"/></svg>