<svg xmlns="http://www.w3.org/2000/svg" xmlns:xlink="http://www.w3.org/1999/xlink" height="480" width="640" xmlns:v="https://vecta.io/nano"><style><![CDATA[.B{stroke:#000}.C{fill:#6da700}.D{stroke-width:.722}.E{fill:#ffbd00}.F{fill-rule:evenodd}.G{stroke-width:.551pt}]]></style><defs><clipPath id="A"><path fill-opacity=".67" d="M0 0h640v480H0z"/></clipPath><path id="B" d="M433.623 668.552s27.376-4.996 45.09-19.982 17.715-39.964 25.766-39.964 9.662 28.308 28.987 38.3 49.923 23.312 49.923 23.312l-149.768-1.665z"/><path id="C" d="M543.13 656.892c-43.48-19.982-17.715-9.99-30.598-18.317-6.442-16.65-16.104-29.973-8.052-29.973s9.662 28.308 28.987 38.3 27.377 12.49 27.377 12.49l-17.715-2.498z"/></defs><g clip-path="url(#A)"><g class="F"><g fill="#5387f4"><path d="M-79.43 318.86h798.86V480H-79.43zm0-318.86h798.86v161.14H-79.43z"/></g><path fill="#fff" d="M-79.43 161.14h798.86v157.7H-79.43z"/></g><g transform="matrix(.45385 0 0 .45413 121.08 -34.817)"><g class="F"><path d="M240.03 725.163l196.606-338.64 196.594 338.64h-393.2z" fill="#ffd200"/><path d="M259.85 716.038l177.17-306.86 177.16 306.86H259.85z" fill="#0ff"/></g><g stroke="#ffd200" fill="none" class="G"><path d="M439.18 556.66L438 448.34m7.07 115.4l38.855-54.162M450.96 569.6l62.4-25.9m-57.7 34.16l73 2.355m-77.7 7.065l42.388 37.677M439.18 583.74v34.146M426.23 575.5l-55.34 48.275m61.23-44.745l-24.726 45.92M422.7 569.6l-91.84 31.8m90.66-36.5l-64.76-2.355m12.95-24.725l56.517 18.84m-29.437-67.1l34.146 65.936"/></g><g class="F"><path d="M437.082 538.226c-35.433 0-61.25 6.505-83.044 14.145l5.54-9.58 11.07-19.19 5.54-9.578 5.53-9.595 5.54-9.58 6.13-9.77c8.26-7.257 25.98-10.652 43.7-10.652 17.72 0 35.44 3.586 44.3 10.826l38.75 67.117c-22.972-7.64-47.613-14.145-83.046-14.145z" fill="#c453d7"/><path d="M437.094 531.47c-35.548-.05-75.28 10.597-77.504 11.33l11.07-19.19 5.54-9.578 5.53-9.595 5.54-9.58 6.13-9.77c8.26-7.257 25.98-10.652 43.7-10.652 17.72 0 35.44 3.586 44.3 10.826L514.6 542.8s-42.083-11.33-77.516-11.33z" fill="#5000c1"/><path d="M437.08 523.803c-26.248-.11-68.686 7.14-71.68 8.504l5.246-8.713 5.54-9.578 5.53-9.595 5.54-9.58 6.13-9.77c8.26-7.257 25.98-10.652 43.7-10.652 17.72 0 35.44 3.586 44.3 10.826l27.68 47.943s-36.543-9.387-71.976-9.387z" fill="#0053d7"/><path d="M437.066 515.852c-34.802-.07-63.717 6.63-66.434 7.74l5.54-9.578 5.53-9.595 5.54-9.58 6.13-9.77c8.26-7.257 25.98-10.652 43.7-10.652 17.72 0 35.44 3.586 44.3 10.826l22.15 38.347s-31.013-7.74-66.446-7.74z" fill="#009f9f"/><path d="M437.08 509.087c-35.605-.123-57.963 4.465-60.894 4.93l5.53-9.595 5.54-9.58 6.13-9.77c8.26-7.257 25.98-10.652 43.7-10.652 17.72 0 35.44 3.586 44.3 10.826l16.6 28.77s-25.473-4.93-60.906-4.93z" fill="#ff0"/><path d="M436.776 500.247c-31.014-.67-53.786 4.25-55.07 4.167l5.54-9.58 6.13-9.77c8.26-7.257 25.98-10.652 43.7-10.652 17.72 0 35.44 3.586 44.3 10.826l11.07 19.174s-20.227-4.167-55.66-4.167z" fill="#f50"/><path d="M437.932 489.963c-31.13.257-47.247 4.34-50.707 4.89l6.13-9.77c8.26-7.257 25.98-10.652 43.7-10.652 17.72 0 35.44 3.586 44.3 10.826l5.54 9.595s-13.52-4.89-48.953-4.89z" fill="#ff0b00"/><path d="M259.85 716.038l49.83-86.31h254.67l49.83 86.31H259.85z" fill="#4363ff"/><use xlink:href="#B" class="B C D"/><use xlink:href="#C" class="E"/><path d="M397.385 668.552s27.376-4.996 45.09-19.982 17.715-39.964 25.766-39.964 9.662 28.308 28.987 38.3 49.923 23.312 49.923 23.312l-149.768-1.665z" class="B C D"/><path d="M506.892 656.892c-43.48-19.982-17.715-9.99-30.598-18.317-6.442-16.65-16.104-29.973-8.052-29.973s9.662 28.308 28.987 38.3 27.377 12.49 27.377 12.49l-17.715-2.498z" class="E"/><path d="M361.156 668.55s27.376-4.996 45.09-19.982 17.715-39.964 25.766-39.964 9.662 28.308 28.987 38.3 49.923 23.312 49.923 23.312l-149.768-1.665z" class="B C D"/><path d="M470.663 656.89c-43.48-19.982-17.715-9.99-30.598-18.317-6.442-16.65-16.104-29.973-8.052-29.973s9.662 28.308 28.987 38.3 27.377 12.49 27.377 12.49l-17.715-2.498z" class="E"/><path d="M320.09 667.72s27.376-4.996 45.09-19.982 17.715-39.964 25.766-39.964 9.662 28.308 28.987 38.3 49.923 23.312 49.923 23.312L320.1 667.72z" class="B C D"/><path d="M429.598 656.06c-43.48-19.982-17.715-9.99-30.598-18.317-6.442-16.65-16.104-29.973-8.052-29.973s9.662 28.308 28.987 38.3 27.377 12.49 27.377 12.49l-17.715-2.498z" class="E"/><path d="M289.493 667.72s27.376-4.996 45.09-19.982 17.715-39.964 25.766-39.964 9.662 28.308 28.987 38.3 49.923 23.312 49.923 23.312l-149.768-1.665z" class="B C D"/><path d="M399 656.06c-43.48-19.982-17.715-9.99-30.598-18.317-6.442-16.65-16.104-29.973-8.052-29.973s9.662 28.308 28.987 38.3 27.377 12.49 27.377 12.49L399 656.06z" class="E"/><path d="M426.823 564.172c.275 0 .49-.977 1.187-1.845 1.494-.84 3.072-1.5 5.146-1.846 1.12-.435 3.416-.307 5.146-.307 2.428.17 2.58.974 3.96 2.153.607.96 2.043 2.293 2.77 3.69.788.742 1.417 1.894 1.98 2.77.575.943 1.187 2.365 1.98 3.69.407 1.475.79 2.627.79 4.306 0 1.75-.373 2.497-.79 3.69-1.206.312-3.557.464-4.75 0-1.278-.888-3.47-.322-4.354-1.23-2.277-.248-2.83-2.33-3.96-3.383-.8-.903-.777-1.584-1.584-2.46-1.25-.693-1.417-1.54-1.98-2.77.495-1.315 1.355-1.603 2.77-2.153.758-.86 1.187-1.204 1.187-2.768-.285-1.742-1.093-1.558-3.167-1.846l-6.333.308z" fill="red" stroke-width=".442" class="B"/></g><g stroke="#0ff" fill="none" stroke-width=".908"><path d="M281.455 681.76h1.186c-3.2 0-1.572-.1 4.744 1.684 5.474.925 10.622 1.685 16.604 1.685m-28.467 21.89v-1.684c0 5.278-.3 2.034 5.93-5.052 5.3-1.3 7.8 1.345 14.232 1.684 3.413 2.423 9.596 1.634 13.047 0 1.766-1.074 1.793-2.294 3.558-3.37m-23.722 11.798v-1.684c.8.448 5.293 0 8.302 0 6.207 0 10.997-.428 14.232 3.37h2.372m20.16-37.06h5.93c3.776-1.788 9.27-1.787 13.047 0 1.495 6.976 3.414 8.268 9.5 8.42 1.988-2.118 6.1-3.613 8.302-5.052m-33.212 8.418h16.605m-5.93 15.162v-1.684c0 5.278-.308 2.034 5.93-5.054 4.724-3.296 7.212-5.148 14.232-3.37 5.05 3.832 6.84 6.06 13.047 6.737 5.642 0 8.124-1.3 13.046-1.684m-30.833 13.48h1.186c-3.315 0-1.552.2 4.744-3.37 5.897 2.094 9.877 4.94 16.604 5.054 3.852-.275 6.623-1.685 10.674-1.685m9.49-35.373h5.93c5.803 0 11.463-.14 16.604 1.684h16.604c1.58 0 1.186.562 1.186-1.684m-45.068 13.474h1.186c-3.315 0-1.552.2 4.744-3.367 4.982.544 10.6 1.552 14.232 5.052 5.2 3.243 7.267 6.03 14.233 6.737 3.974-.298 4.246-2.505 8.302-3.37m-24.908 11.784c1.86-1.32 8.098-4.696 13.047-1.685 5.14 1.825 10.8 1.685 16.604 1.685 3.692-2.247 9.937-4.155 13.047-6.737h3.558m3.555-15.148c2.385 0 12.545-.798 17.8 1.685 6.418-1.1 8.68-5.546 13.047-10.106 4.38 0 8.073.147 11.86 1.684m-20.174 26.948c.096-.017 4.74-1.322 8.302-1.684 5.346-5.693 6.273.12 11.86 1.684 6.196-2 9.32-6.322 11.86-11.8m-18.978-.01h1.186c-3.5 0-1.524.3 4.744-5.052 4.172-2.962 4.666-5.96 10.674-6.737 3.318-3.533 5.775-.436 8.302 1.685m.004 23.578c.198-1.337 2.352-8.6 3.558-11.8 5.287-3.004 7.816-4.374 11.86 3.37 4.3 1.665 8.34 4.994 13.046 6.736 1.746 0 .907.398 2.372-1.684m-14.234-20.204v-1.685c0 5.28-.247 2.124 4.744-6.736 5.497 1.43 6.942 6.154 9.488 11.8 5.893 0 9.768-.203 13.047-3.37m1.187 18.524c.72-1.493 5.455-12.466 9.5-6.737 5.264 2.038 6.088 5.44 11.86 8.42 1-2.507 2.118-2.995 4.744-3.37m-130.46 8.424h1.187c-3.315 0-1.553.2 4.743-3.37 4.93-4.042 7.375-5.687 10.674-11.8 5.508.28 9.733 1.685 15.42 1.685 0-2.246-.396-1.685 1.186-1.685m-185.022-5.052c0-1.166 3.237-2.987 7.116-5.052 2.826-3 5.17-.18 9.5 0m-10.682 20.214h1.186c-3.315 0-1.552.2 4.744-3.37 4.55.904 6.595 4.118 11.86 5.052"/></g><g fill="#ffd200" class="B G"><path d="M704.686 581.383c-11.7-.183-17.16 4.468-17.342 16.115-.042 2.688.608 6.154 1.536 8.217 3.342 7.285 8.964 8.013 16.195 8.126l20.158.315c1.856.03 3.9 1.02 3.8 6.076l1.216.02.232-14.846-1.216-.02c-.08 5.055-2.142 5.983-3.998 5.954l-20.158-.315c-6.08-.095-15.1-.3-14.914-12.267.125-8 3.95-11.012 13.932-10.855l21.5.336c1.856.03 3.9 1.02 3.815 5.692l1.216.02.278-17.8-1.216-.02c-.073 4.67-2.136 5.6-3.992 5.57l-21.053-.33zm22.784-17.53l-.212-1.327c-4.93-.833-1.04-6.5-2.27-14.22-2-12.577-12.815-20.183-25.392-18.175-14.852 2.372-19.8 15.154-18.094 25.898.828 5.182 4.36 11.877 7.03 15.2l12.008-1.918c3.602-.575 5.675-.582 6.394 3.516l1.2-.192-2.574-16.116-1.2.192c.838 5.245-1.197 5.895-4.8 6.47l-9.417 1.504c-1.833.293-2.212.353-3.4-1.338-1.354-1.987-2.157-4.58-2.53-6.92-1.696-10.617 6.294-17.402 16.027-18.957 11.06-1.766 20.634 1.37 22.3 11.862 1.2 7.457-2.314 12.295-8.63 15.766l.232 1.454 13.307-2.7zM630.183 384.82l-1.032-.86c-4.944 2.626-4.037-3.453-10.767-9.073-9.875-8.244-22.832-6.806-30.994 2.97-8.983 10.76-6.8 23.012 2.8 31 4.716 3.938 11.827 5.706 17.9 4.523l-.015-1.68c-6.18.5-10.783-.665-15.598-4.685-8.057-6.727-5.45-17.14.292-24.017 7.383-8.843 16.326-12.465 24.433-5.698 5.6 4.676 6.1 11.355 3.024 17.948l1.18.984 8.787-11.423z"/><path d="M511.4 334.07c0-1.856.96-3.904 6.272-3.904v-1.216H498.6v1.216c5.312 0 6.272 2.048 6.272 3.904v32.128c0 1.856-.96 3.904-6.272 3.904v1.216h19.072v-1.216c-5.312 0-6.272-2.048-6.272-3.904V334.07z" transform="matrix(.87269 .5324 -.48758 .84843 302.18 -196.24)"/><path d="M564.698 346.357c.72-1.7 2.4-3.226 7.236-1.2l.472-1.12-14.04-5.9-.472 1.12c4.837 2.036 4.927 4.296 4.207 6.007l-9.958 23.653-10.765-37.933-10.087-4.246-.472 1.12c2.865 1.276 3.173 2.03 4.132 4.864l.224.8-12.615 29.965c-.72 1.7-2.4 3.226-7.236 1.2l-.472 1.12 14.04 5.9.472-1.12c-4.837-2.036-4.927-4.296-4.207-6.007l11.35-26.957 12.507 43.527.885.372 14.8-35.156zm-89.864 10.93l3.608-10.595-1.788-.122c-3.936 7.88-8.794 7.612-13.902 7.264l-8.428-.574c-1.277-.087-1.57-1.454-1.5-2.603l1.07-15.708 9.003.613c4.278.3 7.835 1.752 7.496 6.733l1.34.1 1.018-14.94-1.34-.1c-.34 4.98-4.057 5.882-8.335 5.6l-9.003-.613.935-13.728c.1-1.596 1.383-2.408 2.98-2.3l10.28.7c4.47.304 6.368 3.513 6.836 7l1.405.096.622-9.13-33.905-2.3-.083 1.213c4.66.317 5.48 2.426 5.354 4.278l-2.183 32.054c-.126 1.852-1.223 3.83-5.884 3.512l-.083 1.213 34.48 2.348zM299.7 344.248l-1.15.697c.88 5.528-4.576 2.698-12.075 7.243-11.002 6.667-13.843 19.4-7.242 30.282 7.264 11.987 19.566 13.886 30.24 7.418 5.254-3.184 9.234-9.337 10.085-15.466l-1.594-.53c-1.52 6-4.127 9.984-9.5 13.235-8.976 5.44-17.98-.404-22.624-8.066-5.97-9.852-6.496-19.487 2.535-24.96 6.24-3.78 12.723-2.098 17.96 2.96l1.314-.796-7.956-12.017zm-38.806 33.786c-1.178-1.434-1.737-3.626 2.367-6.998l-.772-.94-14.735 12.1.772.94c4.104-3.373 6.146-2.4 7.324-.966L276.238 407c1.178 1.434 1.737 3.626-2.367 6.998l.772.94 14.735-12.1-.772-.94c-4.104 3.373-6.146 2.4-7.324.966l-20.398-24.822zm10.632 40.034l-5.978-9.885-1.1 1.162c3.95 8.583-.15 12.545-5.736 18.45-2.727 2.882-4.9 4.165-6.212 2.934l-23.338-22.08c-1.348-1.276-2.176-3.38 1.035-6.774l-.883-.836-12.228 12.924.883.836c3.2-3.394 5.358-2.684 6.707-1.408l23.338 22.08c1.348 1.276 2.176 3.38-1.035 6.774l.883.836 23.663-25.012zm-79.95 85.708c10.316 5.545 17.294 3.92 22.8-6.34 1.273-2.368 2.3-5.745 2.413-8.003.38-8.006-4.278-11.237-10.648-14.66l-17.757-9.545c-1.635-.88-2.984-2.694-.6-7.147l-1.07-.576-7.03 13.078 1.07.576c2.394-4.453 4.652-4.33 6.287-3.45l17.757 9.545c5.355 2.88 13.273 7.208 7.607 17.75-3.788 7.046-8.568 7.965-17.362 3.237l-18.94-10.18c-1.635-.88-2.984-2.694-.772-6.8l-1.07-.576-8.424 15.67 1.07.576c2.212-4.115 4.47-4 6.105-3.112l18.546 9.97zm2.35 50.424l-10.048-4.932-.35 1.758c7.312 4.9 6.427 9.694 5.43 14.715l-1.646 8.286c-.25 1.255-1.642 1.37-2.772 1.146l-15.442-3.067 1.758-8.85c.835-4.206 2.74-7.547 7.635-6.575l.262-1.318-14.7-2.917-.262 1.318c4.896.972 5.316 4.775 4.48 8.98l-1.758 8.85-13.496-2.68c-1.57-.312-2.2-1.68-1.9-3.248l2.007-10.107c.873-4.394 4.297-5.867 7.824-5.885l.274-1.38-8.977-1.783-6.62 33.333 1.193.237c.9-4.582 3.106-5.125 4.926-4.764l31.512 6.258c1.82.362 3.642 1.702 2.732 6.285l1.193.237 6.732-33.898zm-9.972 73.777c1.856.02 3.894 1 3.846 5.48l1.216.013.187-17.6-1.216-.013c-.05 4.672-2.108 5.6-3.964 5.6l-14.463-.154-.1-3.585 19.873-15.022.1-10.303-1.216-.013c-.223 2.878-1.518 4.336-3.648 6.042l-15.754 12.505c-.768-6.024-3.845-11.625-10.628-11.697-7.488-.08-11.267 6.28-11.38 16.904l-.18 16.895 1.216.013c.048-4.48 2.106-5.418 3.962-5.398l32.126.34zm-31.737-6.865c-3.008-.032-3.002-.608-2.958-4.768.06-5.76 2.605-10.213 8.94-10.146 6.912.073 8.77 5.8 8.992 15.072l-14.975-.16zm39.607-80.715c1.8.455 3.55 1.888 2.404 6.417l1.18.298 4.362-17.25-1.18-.298c-1.146 4.53-3.366 4.958-5.166 4.503l-13.278-3.358 1.675-5.32c2-7.942.82-16.56-8.36-18.883-7.322-1.852-12.68 4.715-15.096 14.27l-3.954 15.636 1.18.298c1.067-4.22 3.288-4.648 5.087-4.193l31.147 7.877zm-29.36-14.16c-2.544-.643-2.823-.846-2.164-3.452 1.506-5.956 4.936-11.163 11.947-9.4 7.197 1.82 8.254 7.04 6.56 13.74-.25.993-.642 2.016-.955 2.993l-15.388-3.892zm60.672-59.015c1.518 1.068 2.64 3.032-.345 7.27l.994.7 11.606-16.484c5.784-8.216 6.37-15.943.092-20.364-5.024-3.537-10.782-1.25-14.84 2.623 1.895-4.693 1.708-9.208-2.688-12.302-6.698-4.716-13.265.053-18.94 8.112l-9.874 14.025.994.7c2.984-4.24 5.212-3.845 6.73-2.776l26.27 18.495zm-9.116-14.4l1.842-2.617c3.463-4.92 9-10.336 15.226-5.952 6.123 4.3 4.908 9.482 1.077 14.925-2.7 3.82-3.963 3.628-5.795 2.34L214 452.823zm-2.093-1.474l-11.88-8.363c-1.832-1.3-.548-2.9 3.156-7.484 3.26-3.184 7.173-4.186 11.15-1.386 4.24 2.984 4.315 7.656.594 12.942l-3.02 4.3zM418.26 355.16c17.1-1.336 25.085-10.05 24.073-23.002-1.122-14.356-11.55-20.474-27.885-19.198l-16.462 1.287.095 1.212c4.658-.364 5.774 1.603 5.92 3.453l2.503 32.03c.145 1.85-.653 3.967-5.3 4.33l.095 1.212 16.972-1.326zm-7.712-36.245c-.24-3.063.32-3.3 3.383-3.538 11.804-.923 20.475 4.884 21.452 17.4.928 11.868-6.053 19.475-19.114 19.918-1.4.046-3.123-.526-3.307-2.887l-2.414-30.882zm233.072 137.11c-1.597.945-3.85 1.16-6.13-2.695l-1.047.62 8.96 15.148 1.047-.62c-2.38-4.02-1.105-5.9.493-6.835l12.45-7.364 1.935 3.02-9.212 23.146 5.246 8.87 1.047-.62c-1.3-2.577-.95-4.495-.01-7.058l7-18.857c3.78 4.754 9.313 7.95 15.152 4.497 6.445-3.812 6.382-11.2.973-20.355l-8.602-14.543-1.047.62c2.28 3.856 1.007 5.725-.6 6.67l-27.653 16.356zm30.7-10.575c2.6-1.53 2.882-1.036 5 2.545 2.932 4.958 3.065 10.084-2.4 13.3-5.95 3.52-10.502-.406-15.5-8.23l12.9-7.624zm-21.283-39.67l-.86-.947-31.567 11.133c-6.36 2.233-10.936 4.144-13.84 1.423l-.9.818 8.523 9.378.9-.818c-1.463-1.6-2.5-3.608-.938-5.028 1.752-1.593 7.306-3.094 9.666-4.114l11.277 12.4-2.476 5.364c-2.58 5.63-3.436 6.496-7.285 2.642l-.9.818 10.976 12.077.9-.818c-2.553-2.523-.615-6.1.552-8.718l15.973-35.618zm-8.37 4.493l-8.032 17.33-9.943-10.94 17.975-6.4zm64.88 86.558l-.514-1.172-33.468.497c-6.74.1-11.686.445-13.573-3.06l-1.114.5 5.1 11.604 1.114-.5c-.874-1.993-1.22-4.217.713-5.065 2.168-.95 7.9-.606 10.473-.82l6.737 15.355-4.056 4.296c-4.24 4.516-5.327 5.063-7.747.184l-1.114.5 6.557 14.945 1.114-.5c-1.616-3.205 1.36-5.978 3.3-8.088l26.487-28.674zm-9.365 1.593l-13.134 13.87-5.94-13.538 19.074-.332zM727.15 645.9l.15-1.27-29.106-16.53c-5.856-3.336-10.3-5.538-10.15-9.516l-1.208-.143-1.5 12.584 1.208.143c.256-2.16 1.084-4.254 3.18-4.006 2.352.28 7.127 3.487 9.445 4.6l-1.973 16.652-5.673 1.648c-5.943 1.745-7.158 1.666-6.772-3.767l-1.208-.143-1.92 16.207 1.208.143c.23-3.582 4.202-4.465 6.944-5.3l37.365-11.3zm-8.88-3.372l-18.35 5.302 1.74-14.68 16.612 9.38zM332.643 330.605l-1.2.472-.7 33.465c-.147 6.738.03 11.694-3.54 13.456l.45 1.13 11.777-4.677-.45-1.13c-2.022.803-4.257 1.07-5.037-.892-.874-2.2-.325-7.928-.45-10.495l15.584-6.2 4.15 4.206c4.363 4.396 4.87 5.503-.1 7.75l.45 1.13 15.168-6.023-.45-1.13c-3.26 1.5-5.926-1.572-7.966-3.585l-27.718-27.487zm1.26 9.416l13.396 13.617-13.74 5.456.345-19.074zm365.644 395.612l-7.9-8.43-.835 1.365c5.645 7.575 2.457 12.303-1.78 19.238-2.07 3.386-3.938 5.094-5.468 4.16l-27.414-16.753c-1.584-.968-2.83-2.854-.394-6.842l-1.038-.634-9.278 15.182 1.037.634c2.437-3.986 4.685-3.737 6.27-2.77l27.414 16.753c1.584.968 2.83 2.855.395 6.84l1.037.635 17.956-29.38zm-120.677 75.53l3.728-2.707c3.625-2.632 6.102-4.668 12.167 1.3l1.243-.902-6.703-8.58-29.2 21.2 6.082 9.03 1.243-.902c-.803-1.87-1.822-3.817-1.712-5.953-.078-3.265 4.15-5.94 7.878-8.647l20.305 27.965c1.1 1.502 1.517 3.723-2.263 6.468l.714.984 14.397-10.454-.714-.984c-3.78 2.745-5.76 1.65-6.85.15l-20.305-27.965zm-23.868 19.592c-.72-1.7-.627-3.97 4.2-6.004l-.47-1.12-14.042 5.9.47 1.122c4.838-2.034 6.517-.518 7.235 1.193l9.944 23.66-34.642-18.833-10.1 4.24.472 1.12c2.915-1.156 3.67-.85 6.367.448l.72.392 12.597 29.973c.72 1.7.627 3.97-4.2 6.004l.47 1.12 14.043-5.9-.472-1.12c-4.838 2.034-6.517.517-7.235-1.193l-11.333-26.964 39.86 21.5.885-.372-14.778-35.165zm-29.848 52.403l.3-11.2-1.743.417c-1.4 8.693-6.127 9.886-11.107 11.074l-8.217 1.962c-1.245.298-1.93-.92-2.2-2.04l-3.657-15.314 8.777-2.096c4.17-.996 8.002-.66 9.16 4.194l1.307-.3-3.48-14.566-1.307.3c1.16 4.856-2.12 6.823-6.292 7.82l-8.777 2.095-3.196-13.383c-.372-1.557.602-2.7 2.16-3.082l10.022-2.394c4.358-1.04 7.125 1.457 8.613 4.654l1.37-.327-2.126-8.9-33.054 7.894.283 1.183c4.544-1.085 5.953.683 6.384 2.5l7.464 31.25c.43 1.805-.028 4.02-4.572 5.105l.283 1.182 33.615-8.028zM477.87 852.56l-1.343.063c-1.868 5.276-5.308.182-14.068.6-12.85.598-21.427 10.414-20.835 23.136.65 14 10.547 21.55 23.014 20.97 6.138-.285 12.574-3.788 16.25-8.764l-1.147-1.228c-4.2 4.552-8.398 6.797-14.662 7.088-10.485.488-15.6-8.948-16.016-17.9-.535-11.508 3.608-20.222 14.157-20.7 7.288-.34 12.178 4.24 14.36 11.185l1.534-.07-1.244-14.358zm-89.824-3.163L386.76 849c-3.515 4.356-5.07-1.6-13.465-4.115-12.32-3.704-23.67 2.707-27.337 14.904-4.035 13.422 2.793 23.83 14.745 27.422 5.883 1.77 13.117.603 18.238-2.87l-.674-1.54c-5.482 2.897-10.178 3.623-16.184 1.817-10.052-3.022-11.743-13.623-9.163-22.203 3.317-11.03 10.12-17.875 20.232-14.834 6.988 2.1 10.08 8.043 9.83 15.32l1.47.442 3.595-13.955zm-42.84-7.98c.726-1.708 2.4-3.218 7.3-1.14l.476-1.118-17.552-7.462-.476 1.12c4.9 2.078 4.97 4.338 4.245 6.046l-12.57 29.567c-.726 1.708-2.4 3.218-7.3 1.14l-.476 1.118 17.552 7.462.475-1.12c-4.888-2.078-4.97-4.34-4.245-6.047l12.57-29.567zm-75.03 1.363l9.096-6.523-1.383-1.14c-7.784 4.123-11.58 1.08-15.535-2.172l-6.524-5.367c-.988-.813-.43-2.095.3-2.985l10-12.158 6.97 5.733c3.312 2.724 5.357 5.98 2.185 9.836l1.038.855 9.514-11.566-1.04-.854c-3.17 3.855-6.72 2.427-10.03-.297l-6.97-5.733 8.742-10.626c1.017-1.236 2.525-1.155 3.76-.138l7.958 6.546c3.46 2.846 3.14 6.56 1.487 9.676l1.087.894 5.814-7.068-26.244-21.6-.773.94c3.608 2.968 3.048 5.16 1.87 6.592l-20.4 24.8c-1.18 1.433-3.222 2.406-6.83-.562l-.773.938 26.7 21.956zm-9.624-57.63c1.38-1.24 3.547-1.893 6.667 1.584l.905-.812-8.505-9.48-33.502 11.057L240.3 754.9l-8.462-9.432-.905.812c3.42 3.8 2.536 5.893 1.154 7.133l-23.913 21.455c-1.38 1.24-3.546 1.892-7.05-2.013l-.905.812 10.172 11.337.905-.8c-3.504-3.907-2.622-6-1.24-7.23l22.198-19.918-15.28 35.294.598.666 38.047-12.125-23.294 20.9c-1.38 1.24-3.547 1.893-6.667-1.584l-.905.812 11.882 13.242.905-.812c-3.12-3.477-2.236-5.56-.856-6.8l23.87-21.504zm26.66 63.18c-.87 1.64-2.678 3-6.635.9l-.57 1.074 15.548 8.248.57-1.074c-4.127-2.2-4.015-4.45-3.145-6.1l6.78-12.777 3.225 1.566 4.217 24.553 9.102 4.83.57-1.074c-2.454-1.52-3.155-3.34-3.7-6.015l-3.876-19.734c5.704 2.084 12.093 1.924 15.273-4.068 3.5-6.615-.405-12.893-9.8-17.873l-14.926-7.92-.57 1.074c3.957 2.1 3.846 4.36 2.976 6l-15.058 28.38zm20.675-25.038c1.4-2.658 1.918-2.388 5.593-.438 5.088 2.7 7.876 7.004 4.906 12.6-3.24 6.106-9.17 5.132-17.52 1.065l7.02-13.23zm98.58 28.8l-1.27-.152-16.56 29.1c-3.34 5.853-5.548 10.295-9.526 10.142l-.144 1.208 12.583 1.503.144-1.208c-2.16-.258-4.253-1.088-4.003-3.185.28-2.35 3.494-7.124 4.608-9.44l16.65 2 1.643 5.674c1.74 5.945 1.658 7.16-3.774 6.77l-.144 1.207 16.205 1.936.144-1.208c-3.58-.234-4.46-4.207-5.293-6.95l-11.26-37.36zm-3.38 8.878l5.285 18.356-14.68-1.754 9.395-16.602zM224.807 731.276l-.6-1.136-33.364 2.704c-6.72.535-11.63 1.214-13.745-2.16l-1.08.56 5.845 11.243 1.08-.56c-1.004-1.93-1.497-4.127.377-5.102 2.1-1.092 7.854-1.126 10.396-1.5l7.735 14.878-3.764 4.553c-3.93 4.786-4.98 5.403-7.717.695l-1.078.56 7.528 14.48 1.08-.56c-1.824-3.092.962-6.055 2.76-8.287l24.527-30.348zm-9.24 2.207l-12.2 14.706-6.82-13.116 19-1.6zm405.738 91.122c1.235 1.386 1.88 3.554-1.465 6.534l.8.908 13.14-11.708-.8-.908c-3.488 3.108-5.568 2.217-6.802.832l-9.622-10.8 2.6-2.48 24.486 4.585 7.693-6.854-.8-.908c-2.28 1.772-4.23 1.796-6.924 1.368l-19.85-3.23c3.94-4.622 6-10.668 1.497-15.733-4.98-5.6-12.23-4.105-20.162 2.962l-12.615 11.24.8.908c3.345-2.98 5.423-2.1 6.658-.704l21.372 23.988zm-16.285-28.092c-2-2.246-1.57-2.63 1.535-5.396 4.3-3.832 9.306-4.948 13.52-.218 4.598 5.16 1.62 10.384-5.094 16.796l-9.962-11.182zm26.642-36.198l-.75 1.037L648.3 789.96c3.492 5.765 6.3 9.852 4.235 13.255l.986.713 7.427-10.268-.985-.712c-1.276 1.763-3.018 3.188-4.728 1.95-1.92-1.387-4.53-6.515-6-8.615l9.828-13.585 5.758 1.322c6.04 1.37 7.064 2.03 4.083 6.587l.984.713 9.567-13.222-.986-.713c-1.945 3.016-5.844 1.854-8.645 1.25l-38.124-8.313zm6.116 7.268l18.612 4.302-8.666 11.978-9.945-16.28z"/><g class="F"><ellipse rx="9.575" ry="9.158" cy="684.366" cx="179.418"/><ellipse rx="9.575" ry="9.158" cy="696.022" cx="691.45"/></g></g></g></g></svg>