<svg xmlns="http://www.w3.org/2000/svg" xmlns:xlink="http://www.w3.org/1999/xlink" height="480" width="640" xmlns:v="https://vecta.io/nano"><g fill-rule="evenodd"><path fill="#00006a" d="M.004 0h640v480h-640z"/><path d="M-.001.002l318.987 304.34h65.432L72.318.146-.001.002z" fill="#fff"/><path d="M360.515 304.324L48.2-.003 23.894.37l313.623 303.96h22.997z" fill="red"/><path d="M384.424.002L65.437 304.34H.005L312.104.146l72.32-.144z" fill="#fff"/><path d="M360.447.003L48.253 304.33l-24.296.012L337.458.003h22.988z" fill="red"/><g fill="#fff"><path d="M161.455.004h61.505v304.332h-61.505z"/><path d="M.005 121.736h384.402v60.866H.005z"/></g><g fill="red"><path d="M174.915.004h34.597v304.332h-34.597z"/><path d="M.005 136.96h384.402v30.433H.005z"/></g><g transform="matrix(.86562 0 0 .86562 58.74 83.943)"><path fill="#fff" d="M532.876 110.192L510.26 93.477l-23.448 15.507 8.83-26.785-21.918-17.625 28.067.16 9.896-26.4 8.53 26.883 28.026 1.31-22.79 16.455z"/><path fill="red" d="M523.806 96.66l-13.38-9.675-13.673 9.25 5.025-15.78-12.982-10.216 16.5-.078 5.652-15.563L516.1 70.33l16.467.597-13.28 9.802z"/><use xlink:href="#B" fill="#fff"/><use xlink:href="#C" fill="red"/><use xlink:href="#B" x="177.625" y="-14.2" fill="#fff"/><use xlink:href="#C" x="177.625" y="-14.2" fill="red"/><use xlink:href="#B" x="84.776" y="190.76" fill="#fff"/><use xlink:href="#C" x="84.776" y="190.76" fill="red"/></g></g><defs ><path id="B" d="M446.082 254.27l-22.616-16.715-23.448 15.507 8.83-26.785-21.918-17.625 28.067.16 9.896-26.4 8.53 26.883 28.026 1.31-22.79 16.455z"/><path id="C" d="M437.012 240.738l-13.38-9.675-13.673 9.25 5.025-15.78-12.982-10.216 16.5-.078 5.652-15.563 5.162 15.733 16.467.597-13.28 9.802z"/></defs></svg>