<svg xmlns="http://www.w3.org/2000/svg" xmlns:xlink="http://www.w3.org/1999/xlink" height="480" width="640"><style>.B{stroke-width:.983pt}.C{stroke-width:1.229}.D{fill-rule:evenodd}.E{fill:#fff}.F{stroke-width:1.054pt}.G{stroke-width:.832}.H{stroke-width:1.232}.I{stroke-width:4.388}</style><defs><path id="B" d="M539 532c1 166 24 201 3 201s-32-92-32-205 14-206 36-206-9 32-7 210z"/><path id="C" d="M546 780l-61 17c57 60 121 85 139 75s-32-36-78-92z"/><path id="D" d="M546 787l-50 14c55 58 110 74 124 67s-29-27-74-81z"/><path id="E" d="M361 634l1 7v5c1 2 0 3 2 4l4 3 4 3h5l4-3 1-5-1 6 2 5"/><path id="F" d="M377 664v-1l2-1 6-2h6l6 1 4 3 3 4 3 4c0 2 1 2 2 3l-5 2 2-2 4-1 6 1 3 1"/><path id="G" d="M401 685h6c2 0 3-1 4-3v4l2 4 4 3 4 2 4 2 3 4-2 5-3 3c-1 2-2 3 1 4h4"/><path id="H" d="M428 716l7-2h6c3 0 3 1 5 2l4 3 3 4 1 6-1 5-2 6h-1"/><path id="I" d="M449 746l2 2c1 2 1 2 3 2l4-1 2-4 1-3 2-3h2c-2 0-2 1-3 2l-2 3-1 4 1 5 2 3 2 2 3 2 4 2 3-2 4-2 2-3 3 1 3 2 2 2"/><path id="J" d="M484 760l-3 3-2 4v6l2 6 3 3h10l4-2 4-2 3-4 3-4-2 5-2 5v12"/><path id="K" d="M541 799v3c-2 2-4 2-7 2-2-2-2-3-5-4-4 0-5 1-7 2-2 2-4 2-5 5-1 2-1 3 1 4l7 3c3 0 5-1 6 1 2 2 2 3 2 7l1 5 6 2 2-8 2-7a17 17 0 014-4l4-3c-3 2-3 3-3 6 2 1 2 2 6 2 3 0 4-1 6-3l2 7 3 6c-1 3-2 3-2 7-1 2-1 5-3 6l-3 1c4 0 6 0 8-2l5-3 8-4 6 1c2 1 3 4 4 6 0 4 1 6-1 8v6c2 2 4 2 7 3l6-1"/><path id="L" d="M204 479c-11 0-19 8-19 17v18c0 9 8 17 19 17s19-8 19-17v-18c0-9-9-17-19-17zm0-8c-18 0-32 10-32 21v26c0 11 14 21 32 21s32-10 32-21v-26c0-11-15-21-32-21z"/><clipPath id="A"><path fill-opacity=".7" d="M0 0h640v480H0z"/></clipPath></defs><g clip-path="url(#A)"><g class="D"><path fill="#ef2d29" d="M-3-22h702v553H-3z"/><path fill="#009025" d="M175 317h535v208H175z"/><path d="M175-35h564v190H175z" class="E"/></g><g stroke="#ef2d28"><g class="D E" transform="matrix(.19848 0 0 .17744 19 -14)"><rect rx="11.3" ry="11.9" height="85" width="138.2" y="471.3" x="481.9" class="F"/><rect rx="10.7" ry="10.9" height="78" width="131.1" y="474.8" x="485.4" class="B"/><path d="M546 496h7v4l6 3 4-4 5 3-5 3 1 5h6v6h-4l-3 4 6 4-5 4-4-4-7 1 1 6-8 1-1-6-6-3-3 4-5-3 3-4-4-3h-5v-8l5 1 4-5-4-4 5-4 4 3 6-1 1-3z" class="G"/><ellipse transform="matrix(.65819 0 0 .70224 503 213)" cx="68.9" rx="11" cy="426.8" ry="9.9" class="B"/><g class="B"><path d="M503 478l-10 11m17-11l-10 11m17-11l-10 11m17-11l-10 11m17-11l-10 11m18-11l-11 11m18-11l-11 11m18-11l-11 11m18-11l-11 11m18-11l-11 11m18-11l-11 11m18-11l-11 11M553 478l-11 11m46-11l-10 11m17-11l-10 11m17-11l-10 11m17-11l-10 11M599 478l10 11m-17-11l10 11m-17-11l10 11m-17-11l10 11m-18-11l11 11m-18-11l11 11m-18-11l11 11m-18-11l11 11m-18-11l11 11m-18-11l11 11m-18-11l11 11m-18-11l11 11M549 478l11 11m-46-11l10 11m-17-11l10 11m-17-11l10 11m-17-11l10 11M503 539l-10 10m17-10l-10 10m17-10l-10 10m17-10l-10 10m18-10l-11 10m18-10l-11 10m18-10l-11 10m18-10l-11 10m18-10l-11 10m18-10l-11 10m18-10l-11 10m18-10l-11 10M553 539l-11 10m46-10l-10 10m17-10l-10 10m17-10l-10 10m17-10l-10 10M599 539l10 10m-17-10l10 10m-17-10l10 10m-17-10l10 10m-18-10l11 10m-18-10l11 10m-18-10l11 10m-18-10l11 10m-18-10l11 10m-18-10l11 10m-18-10l11 10m-18-10l11 10M549 539l11 10m-46-10l10 10m-17-10l10 10m-17-10l10 10m-17-10l10 10"/></g><rect rx="11.3" ry="11.9" height="85" width="138.2" y="467.7" x="17.7" class="F"/><rect rx="10.7" ry="10.9" height="78" width="131.1" y="471.3" x="21.3" class="B"/><path d="M82 493h7v3l6 3 4-4 5 3-5 4 1 4h6v6h-5l-2 4 5 4-4 4-4-4-7 2v5l-7 1-1-5-6-3-3 4-5-3 3-5-4-3h-5v-8l5 1 4-5-5-3 6-4 4 3 6-1 1-3z" class="G"/><ellipse transform="matrix(.65819 0 0 .70224 39 210)" cx="68.9" rx="11" cy="426.8" ry="9.9" class="B"/><g class="B"><path d="M39 475l-11 10m18-10l-11 10m18-10l-10 10m17-10l-10 10m17-10l-10 10m17-10l-10 10m17-10l-10 10m18-10l-11 10m18-10l-11 10m18-10l-11 10m18-10l-11 10m18-10l-11 10M89 475l-11 10m46-10l-11 10m18-10l-11 10m18-10l-10 10m17-10l-10 10M135 475l10 10m-17-10l10 10m-18-10l11 10m-18-10l11 10m-18-10l11 10m-18-10l11 10m-18-10l11 10m-18-10l11 10m-18-10l11 10m-18-10l11 10m-18-10l10 10m-17-10l10 10M85 475l11 10m-46-10l10 10m-17-10l10 10m-18-10l11 10m-18-10l11 10M39 535l-11 11m18-11l-11 11m18-11l-10 11m17-11l-10 11m17-11l-10 11m17-11l-10 11m17-11l-10 11m18-11l-11 11m18-11l-11 11m18-11l-11 11m18-11l-11 11m18-11l-11 11M89 535l-11 11m46-11l-11 11m18-11l-11 11m18-11l-10 11m17-11l-10 11M135 535l10 11m-17-11l10 11m-18-11l11 11m-18-11l11 11m-18-11l11 11m-18-11l11 11m-18-11l11 11m-18-11l11 11m-18-11l11 11m-18-11l11 11m-18-11l10 11m-17-11l10 11M85 535l11 11m-46-11l10 11m-17-11l10 11m-18-11l11 11m-18-11l11 11"/></g></g><g class="D E" transform="matrix(-.19848 0 0 .17744 145 -13)"><use xlink:href="#B" transform="matrix(1.6191 -.71484 1.0156 1.1396 -1011 422)" class="B"/><g class="C"><use xlink:href="#C"/><use xlink:href="#D"/></g></g><g fill="none" transform="matrix(-.19848 0 0 .17744 145 -13)"><use xlink:href="#E" class="C"/><use xlink:href="#F" class="C"/><use xlink:href="#G" class="C"/><use xlink:href="#H" class="C"/><g class="H"><use xlink:href="#I"/><use xlink:href="#J"/></g><use xlink:href="#K" class="C"/></g><g class="D B" transform="matrix(-.19848 0 0 .17744 145 -13)"><g class="E"><path d="M532 360c0-166 7-300 17-300s18 134 18 300h-35z" transform="matrix(1.4216 -.73423 .46161 .89375 -717 541)"/><path d="M532 360c0-166 7-300 17-300s18 134 18 300" transform="matrix(1.1373 -.58739 .44532 .86221 -555 472)"/><path d="M563 301v60h-28v-60h28z" transform="matrix(1.4216 -.73423 .45889 .88849 -717 541)"/><path d="M560 305v53h-21v-53h21z" transform="matrix(1.4216 -.73423 .45889 .88849 -717 541)"/><path d="M542 312h14v39h-14zM542 312l14 39M542 351l14-39m-14-199h14" transform="matrix(1.4216 -.73423 .45889 .88849 -717 541)"/></g><circle fill="#ef0000" transform="matrix(1.6046 .45375 -.36215 1.5787 -735 -171)" cx="545.7" cy="92.1" r="3.5"/></g><g class="E D" transform="matrix(.19848 0 0 .17744 19 -14)"><use xlink:href="#B" transform="matrix(1.6191 -.71484 1.0156 1.1396 -1011 422)" class="B"/><g class="C"><use xlink:href="#C"/><use xlink:href="#D"/></g></g><g fill="none" transform="matrix(.19848 0 0 .17744 19 -14)"><use xlink:href="#E" class="C"/><use xlink:href="#F" class="C"/><use xlink:href="#G" class="C"/><use xlink:href="#H" class="C"/><g class="H"><use xlink:href="#I"/><use xlink:href="#J"/></g><use xlink:href="#K" class="C"/></g><g class="D" transform="matrix(.19848 0 0 .17744 19 -14)"><g class="E B"><path d="M532 360c0-166 7-300 17-300s18 134 18 300h-35z" transform="matrix(1.4216 -.73423 .46161 .89375 -717 541)"/><path d="M532 360c0-166 7-300 17-300s18 134 18 300" transform="matrix(1.1373 -.58739 .44532 .86221 -555 472)"/><path d="M563 301v60h-28v-60h28z" transform="matrix(1.4216 -.73423 .45889 .88849 -717 541)"/><path d="M560 305v53h-21v-53h21z" transform="matrix(1.4216 -.73423 .45889 .88849 -717 541)"/><path d="M542 312h14v39h-14zM542 312l14 39M542 351l14-39m-14-199h14" transform="matrix(1.4216 -.73423 .45889 .88849 -717 541)"/></g><circle fill="#ef0000" transform="matrix(1.6046 .45375 -.36215 1.5787 -735 -171)" cx="545.7" cy="92.1" r="3.5" class="B"/><g class="E"><path d="M266 397c0 124 0 171-8 177-7 7-223 0-223 35s178 71 231 71c71 0 106-35 106-106V397H266z" stroke-width="1.5"/><g class="B"><path d="M266 432v18a321 321 0 00106 0v-18a321 321 0 01-106 0zm0-35v18a321 321 0 00106 0v-18a321 321 0 01-106 0z"/><path d="M266 415v17a321 321 0 00106 0v-17a321 321 0 01-106 0zm0 35v18a321 321 0 00106 0v-18a321 321 0 01-106 0z"/></g><g class="I"><ellipse transform="matrix(.54545 0 0 .14383 130 394)" cx="256.9" rx="8.9" cy="210.8" ry="26.6"/><ellipse transform="matrix(.54545 0 0 .14383 130 391)" cx="292.3" rx="8.9" cy="246.3" ry="26.6"/><g transform="matrix(.54545 0 0 .14383 130 390)"><ellipse cx="327.8" rx="8.9" cy="264" ry="26.6"/><ellipse cx="363.2" rx="8.9" cy="264" ry="26.6"/></g><ellipse transform="matrix(.54545 0 0 .14383 130 391)" cx="398.6" rx="8.9" cy="246.3" ry="26.6"/><ellipse transform="matrix(.54545 0 0 .14383 130 394)" cx="434.1" rx="8.9" cy="210.8" ry="26.6"/></g><g class="B"><path d="M266 485l106 96M276 485l96 85M291 489l81 71M301 489l71 60M312 489l60 50m-50-50l50 39M333 489l39 28M344 489l28 21M354 489l18 14M365 489l7 7m-106 0l106 96M372 485L255 592M361 485l-102 93M347 489l-81 71M337 489l-71 60M326 489l-60 50m49-50l-49 39M305 489l-39 28M294 489l-28 21M283 489l-17 14m7-14l-7 7m106 0L255 602m117-95L255 613m117-96L255 624m117-96L255 634m117-95L255 645m117-96L255 656m117-96L255 666m117-96L255 677m117-96l-110 99m110-88l-99 88M369 606l-78 71m74-57l-64 57m57-39l-32 28m-60-159l103 92M266 517l103 92m-103-81l99 89m-99-78l99 88m-99-78l95 85m-99-78l96 85m-96-74l89 78m-92-71l88 78m-92-71l85 75M255 592l82 71m-82-61l71 64m-60-198v17a321 321 0 00106 0v-17a321 321 0 01-106 0zm-11 145l64 57m-64-46l57 49m-57-39l50 43m-50-32l36 32m-36-22l28 25m-28-14l18 14"/></g><g class="I"><ellipse transform="matrix(.54545 0 0 .14383 130 447)" cx="256.9" rx="8.9" cy="210.8" ry="26.6"/><ellipse transform="matrix(.54545 0 0 .14383 130 444)" cx="292.3" rx="8.9" cy="246.3" ry="26.6"/><g transform="matrix(.54545 0 0 .14383 130 444)"><ellipse cx="327.8" rx="8.9" cy="264" ry="26.6"/><ellipse cx="363.2" rx="8.9" cy="264" ry="26.6"/></g><ellipse transform="matrix(.54545 0 0 .14383 130 444)" cx="398.6" rx="8.9" cy="246.3" ry="26.6"/><ellipse transform="matrix(.54545 0 0 .14383 130 447)" cx="434.1" rx="8.9" cy="210.8" ry="26.6"/></g><g class="B"><path d="M113 652l128-74m-135 70l121-70m-124 63l110-63M99 634l96-56M92 627l89-49M96 617l60-36m-64 28l46-28m-46 18l32-18m0 75l120-71m-109 74l113-67m-103 71l107-64m-96 67l88-53m-74 53l78-46m-67 50l67-39m-57 42l53-32m-38 32l42-25m-28 29l28-18m-14 18l18-11M259 574h-18a321 321 0 000 106h18a321 321 0 010-106zM50 624l42-36M50 599l42 42"/><path d="M260 388l6 27c35 5 65 5 100 0l12-27c-36 6-82 6-118 0z" transform="matrix(0 .63333 -.8 0 424 416)"/></g><path d="M372 404v-18c-16 0-27-10-27-21h-53c0 11-10 21-26 21v18h106z" stroke-width="1.7"/><g stroke-width="1.4"><path d="M296 344h46v21h-46zM300 322h38v22h-38zM300 301h38v21h-38zM304 273h30v28h-30z"/></g><path stroke-width="1.4" d="M302 248h33v25h-33z"/><ellipse transform="matrix(1.0333 0 0 1 75 64)" cx="237.4" rx="42.5" cy="161.2" ry="33.7" class="B"/><g stroke-width="1.3"><path d="M343 223c0 10 11 25 11 25-8 6-21 11-33 11s-28-3-33-11c0 0 11-15 11-25s-11-21-11-21c8-6 21-11 33-11s25 5 33 11c0 0-11 12-11 21z"/><path d="M335 223c0 10 11 29 11 29-8 6-13 7-25 7s-20 1-26-7c0 0 11-19 11-29s-11-25-11-25c8-6 14-7 26-7s17 1 25 7c0 0-11 16-11 25z"/></g><g class="B"><circle transform="matrix(1.0333 0 0 1 75 60)" cx="194.9" cy="166.5" r="10.6"/><circle transform="matrix(1.0333 0 0 1 163 60)" cx="194.9" cy="166.5" r="10.6"/><circle transform="matrix(1.0333 0 0 1 119 60)" cx="194.9" cy="166.5" r="10.6"/><circle transform="matrix(1.0333 0 0 1 119 25)" cx="194.9" cy="166.5" r="10.6"/><circle transform="matrix(1.0702 0 0 1 80 227)" cx="194.9" cy="166.5" r="10.6"/><circle transform="matrix(1.0702 0 0 1 141 227)" cx="194.9" cy="166.5" r="10.6"/></g><path d="M292 365h53l-26 32-27-32z" stroke-width="1.4"/><circle transform="matrix(1.427 0 0 1.3333 41 168)" cx="194.9" cy="166.5" r="10.6" class="B"/><g class="C"><rect rx="4.3" ry="3.7" height="21.3" width="81.5" y="496.1" x="260.4"/><path d="M367 478c-10 0-18 9-18 19v16c0 10 8 19 18 19s17-9 17-19v-16c0-10-7-19-17-19zm0 7c-6 0-11 7-11 15v10c0 8 5 14 11 14s10-6 10-14v-10c0-8-4-15-10-15zm-92-3c-6 0-11 7-11 15v16c0 8 5 15 11 15s10-7 10-15v-16c0-8-4-15-10-15zm0-7c-10 0-18 8-18 18v24c0 10 8 18 18 18s17-8 17-18v-24c0-10-8-18-17-18z"/><path d="M246 489c-6 0-10 7-10 15v4c0 8 4 15 10 15s11-7 11-15v-4c0-8-5-15-11-15zm0-7c-10 0-17 8-17 18v11c0 10 7 19 17 19s18-9 18-19v-11c0-10-8-18-18-18z"/></g><g stroke-width="1.3"><use xlink:href="#L"/><path d="M434 483c-11 0-19 7-19 16v19c0 9 8 16 19 16s19-7 19-16v-19c0-9-8-16-19-16zm0-8c-18 0-32 9-32 21v25c0 12 14 21 32 21s32-9 32-21v-25c0-12-14-21-32-21z"/></g><g class="C"><rect rx="2.3" ry="3.7" height="21.3" width="42.5" y="496.1" x="373.8"/><rect rx="1.3" ry="4.9" height="28.3" width="24.8" y="492.6" x="334.8"/><rect rx="1.3" ry="4.9" height="28.3" width="24.8" y="492.6" x="217.9"/><rect rx="2.6" ry="6.1" height="35.4" width="49.6" y="489" x="140"/><rect rx="2.5" ry="6.1" height="35.4" width="46.1" y="492.6" x="448.2"/></g></g></g></g></g></svg>