<svg xmlns="http://www.w3.org/2000/svg" height="480" width="640" xmlns:v="https://vecta.io/nano"><style><![CDATA[.B{stroke-linecap:round}.C{stroke-width:3.999}.D{stroke:#083d9c}.E{fill:#083d9c}.F{fill-rule:evenodd}.G{stroke-linejoin:round}]]></style><defs><clipPath id="A"><path fill-opacity=".67" d="M0 0h640v480H0z"/></clipPath></defs><g clip-path="url(#A)"><g fill="#fff"><path d="M0 0h640v480H0z"/><path d="M80 0h480v480H80z"/></g><g class="F"><g stroke-width="2pt" class="D E"><path d="M277.28 340.75s10.84-8.788 21.386-8.788 13.477 7.323 20.8 7.908 13.475-7.324 22.558-7.616 20.508 6.444 20.508 6.444L322.7 350.712l-45.4-9.962zm-22.85-12.9l135.35.586s-11.718-12.597-25.488-12.9-9.96 5.86-20.507 6.737-13.185-6.444-22.852-6.152-15.234 6.152-22.557 6.446-16.7-7.326-22.266-7.03-25.488 8.788-25.488 8.788l3.8 3.515zm-17.28-16.1l167 .587c2.636-3.8-8.204-12.9-18.163-13.77-8.205.292-14.062 8.496-20.8 8.8s-14.355-8.498-21.973-8.202-15.526 8.202-23.144 8.202-13.183-8.498-22.85-8.498-14.062 9.375-21.386 8.8-13.77-9.374-20.8-9.374-18.75 10.546-21.093 9.96 2.928 4.395 3.223 3.515z"/></g><path d="M301.3 218.88l38.38 10.255V174.35c-17.58.88-32.226-33.397-1.172-35.74-30.468-4.395-33.985 3.515-37.5 12.01l.292 68.26z" stroke="#000" stroke-width="2.5" fill="red" class="G"/><path d="M277 258.72l86.718.292" stroke-width="5" class="B D E"/></g><g stroke="#000" fill="none" class="B C"><path d="M281.094 237.92l10.254 13.77"/><path d="M281.094 251.7l11.134-13.476"/><path d="M286.963 237.037l-.293 8.496"/><path d="M297.5 237.92l10.254 13.77"/><path d="M297.5 251.7l11.134-13.476"/><path d="M303.37 237.037l-.293 8.496"/><path d="M314.198 237.92l10.254 13.77"/><path d="M314.198 251.7l11.134-13.476"/><path d="M320.067 237.037l-.293 8.496"/><path d="M331.484 237.92l10.254 13.77"/><path d="M331.484 251.7l11.134-13.476"/><path d="M337.352 237.037l-.293 8.496"/><path d="M348.183 237.92l10.254 13.77"/><path d="M348.183 251.7l11.134-13.476"/><path d="M354.052 237.037l-.293 8.496"/></g><g class="F"><g fill="#ef7d08"><path d="M218.7 259.6l36.913.293V236.75l-42.187-2.05 5.274 24.9zm-1.77-31.93l39.258 3.8-.292-16.406-38.38-15.234-.587 27.832zm7.9-32.8l30.176 14.648 4.3-4.5s-2.775-1.912-2.638-3.67c.052-1.78 2.792-2.05 2.844-3.98.05-1.78-3.103-1.993-3.137-3.774-.206-1.93 2.43-3.998 2.43-3.998l-27.245-23.73-6.74 29.004zm198.04 65.04h-38.964l-.292-22.558 42.772-3.223-3.515 25.78zm-38.68-27.84l46.3-5.565-9.962-26.66-36.62 15.526.292 16.698zm33.7-39.56l-33.398 17.578c-.488-1.905-.902-3.737-3.22-5.274 0 0 2.05-1.172 2.05-3.223s-2.637-2.344-2.637-3.515 2.417-2.196 2.563-4.833c-.292-1.83-2.563-4.393-2.124-4.907l25.928-19.85L417.9 192.5zm-72.36 39.12l16.698-.732.292-6.74-17 7.472zm-50.97-.52l-17.578-.512v-7.032l17.578 7.544zm-.07-2.04l-17.505-9v-11.718s-2.05.292-1.758-2.05c.097-4.883 12.865 8.912 19.4 13.403l-.146 9.375zm51.04-1.1l-.072-7.616 19.187-16.92c0 2.93-1.83 5.2-1.83 5.2v11.133l-17.286 8.202zM243 163.8c.292.293 17.75 19.696 17.75 19.696.5-1.84 4.515-2.118 8.616-1.825s7.372-.275 7.372 2.655-2.08 2.513-2.08 4.564 3.12 1.88 3.12 4.513-2.26 2.1-2.273 4.14c-.007 1.688 2.36 1.778 2.36 1.778l16.626 16.114.073-17.213-34.276-53.758L243 163.8zm27.43-20.35c.26.782 23.216 47.477 23.216 47.477s.26-43.825 4.173-46.173l-6.52-12-20.87 10.696zm100.95 1.82l-25.923 46.245.034-19.5s2.15-3.277-1.24-3.016-7.564-.26-7.564-.26l10.434-36.52 24.26 13.044zM398 165.1c-.26.522-17.488 18.04-17.488 18.04-.782-2.086-6-1.085-10.947-1.085s-5.647 1.6-5.385 2.893c.522 3.392 2.195.892 2.195 4.023s-2.4 1.988-2.627 4.28c.24 2.632 3.786 1.982 1.7 3.976l-19.948 19.15.056-18.146 37.042-57.652L398 165.1z"/></g><g stroke="#000" stroke-width="2.5" fill="red" class="G"><path d="M309.82 268.4c-8.348 13.826-30.664 9.726-35.882.074-1.564-.443-.64-59.55-.64-59.55s-2.494-1.136-2.6-2.953c-.114-1.836 3.4-2.002 3.4-4.35s-3.58-1.427-3.65-3.8c.015-2.26 3.82-1.948 3.65-4.036-.2-2.353-4.262-2.005-4.435-4.174-.132-1.723 2.905-3.226 3.75-4-.546.027-2.82-.034-2.835-.042l-6.392.13c-4.54.005.078 1 .012 3.6-.042 1.712-2.303 2.85-2.505 4.34-.072 1.528 3.236 2.6 3.277 4.435.038 1.636-3.25 1.748-3.13 3.268.204 2.573 2.912 3.14 2.87 4.697s-3.643 2.15-3.653 3.4c.126 2.402.522 60.78.522 60.78 5.74 29.74 38.868 37.304 48.26-1.825zm21.84 0c8.348 13.826 30.663 9.726 35.88.074 1.564-.443.64-59.55.64-59.55s2.494-1.136 2.608-2.953c.114-1.836-3.17-2.002-3.17-4.35s3.36-1.427 3.43-3.8c-.014-2.26-3.528-2.094-3.358-4.183.2-2.352 2.96-2.077 3.116-4.247.132-1.87-1.732-3.006-2.576-3.78.546.027 2.673-.034 2.7-.042l6.4.13c4.542.005-.078 1-.01 3.6.04 1.712 2.302 2.85 2.505 4.34.07 1.528-3.237 2.6-3.278 4.435-.037 1.636 3.25 1.748 3.13 3.268-.204 2.573-2.912 3.14-2.87 4.697s3.643 2.15 3.652 3.4c-.125 2.402-.52 60.78-.52 60.78-5.74 29.74-38.868 37.304-48.26-1.825z"/></g><g stroke-width="2pt" class="D E"><path d="M301.7 295.6l37.277-.022c.3-.293-8.346-12.874-18.632-11.987-11.46.3-19.244 12-18.644 12zm118.87-.92h-51.008s6.602-3.9 8.402-7.502c3.3 1.8 2.4 3.6 9.002 3.9s12.9-7.5 19.203-7.2 14.4 11.102 14.4 10.802zm-201 0h51.008s-6.602-3.9-8.402-7.502c-3.3 1.8-2.4 3.6-9.002 3.9s-12.9-7.5-19.203-7.2-14.4 11.102-14.4 10.802zm3.8-16.04l36.327.292s-2.344-4.98-2.636-11.13c-9.377-3.22-16.993 7.03-23.732 7.324s-13.767-7.324-13.767-7.324l3.808 10.84zm193.94 0l-36.328.292s2.344-4.98 2.637-11.13c9.376-3.22 16.992 7.03 23.73 7.324s13.768-7.324 13.768-7.324l-3.808 10.84zm-106.35.3l18.455-.584s.294-5.567-9.374-5.567-8.788 6.445-9.08 6.15zm-11.13-7.9c3.223-1.76 6.152-3.515 8.204-7.618l-12.598.292s-5.857 3.517-8.788 7.326h13.183zm40.72 0c-3.223-1.76-6.15-3.515-8.202-7.618l12.597.292s5.858 3.517 8.788 7.326H340.56z"/></g><g fill="#de2010"><path d="M-40 360h720v120H-40zm0-360h720v120H-40z"/></g></g></g></svg>