<svg xmlns="http://www.w3.org/2000/svg" xmlns:xlink="http://www.w3.org/1999/xlink" width="1050" height="700"><style>.B{stroke:#650000}.C{fill-opacity:.1}.D{stroke-opacity:.102}.E{fill:none}.F{stroke-linecap:round}.G{fill-rule:evenodd}.H{fill:#390000}.I{stroke-opacity:.26}.J{stroke-opacity:.3}.K{stroke-width:1.232}.L{stroke-width:1.052}.M{stroke-width:2.556}.N{stroke-width:1.926}</style><defs><linearGradient x1="41.5" y1="237.9" x2="52.6" y2="227.5" id="A" xlink:href="#V" gradientTransform="matrix(1.14308 0 0 .78092 0 452)"/><linearGradient x1="56.1" y1="646" x2="67.5" y2="634.9" id="B" xlink:href="#V"/><linearGradient x1="95.2" y1="628.6" x2="94.5" y2="636.3" id="C" xlink:href="#W"/><linearGradient x1="52.6" y1="642.6" x2="65.7" y2="630.1" id="D" xlink:href="#V"/><linearGradient x1="95.3" y1="648.8" x2="95.5" y2="630.1" id="E" xlink:href="#V"/><linearGradient x1="59.6" y1="609.1" x2="65.2" y2="609.1" id="F" xlink:href="#W"/><linearGradient x1="48.7" y1="604.2" x2="58.1" y2="604.2" id="G" xlink:href="#W"/><linearGradient x1="44.3" y1="674.7" x2="52.1" y2="674.7" id="H" xlink:href="#W"/><linearGradient x1="33.2" y1="606.9" x2="43.1" y2="606.9" id="I" xlink:href="#W"/><linearGradient x1="56.2" y1="176.5" x2="50.6" y2="173.2" id="J" xlink:href="#W" gradientTransform="matrix(.76055 0 0 1.1737 20 478)"/><linearGradient x1="30.1" y1="219.7" x2="23.6" y2="215.9" id="K" xlink:href="#W" gradientTransform="matrix(1.04483 0 0 .85436 20 478)"/><linearGradient x1="39.9" y1="179.6" x2="33" y2="175.5" id="L" xlink:href="#W" gradientTransform="matrix(.79992 0 0 1.11593 20 478)"/><linearGradient x1="65.1" y1="661.7" x2="59.8" y2="658.2" id="M" xlink:href="#W"/><linearGradient x1="225.5" y1="668.7" x2="223.8" y2="664.4" id="N" xlink:href="#W"/><linearGradient x1="244.2" y1="187.5" x2="241.9" y2="182.5" id="O" xlink:href="#W" gradientTransform="matrix(.835 0 0 1.06905 19 478)"/><linearGradient x1="321.6" y1="149.7" x2="315.6" y2="147.6" id="P" xlink:href="#W" gradientTransform="matrix(.66372 0 0 1.34493 19 478)"/><linearGradient x1="314.2" y1="165.9" x2="310.1" y2="165.1" id="Q" xlink:href="#W" gradientTransform="matrix(.73208 0 0 1.21935 19 478)"/><linearGradient x1="156" y1="674.7" x2="137.8" y2="669.9" id="R" xlink:href="#W"/><linearGradient x1="140.9" y1="187.7" x2="135.4" y2="184.6" id="S" xlink:href="#W" gradientTransform="matrix(.86671 0 0 1.02994 19 478)"/><linearGradient x1="187.1" y1="150.7" x2="182.3" y2="150" id="T" xlink:href="#W" gradientTransform="matrix(.667 0 0 1.33832 19 478)"/><linearGradient x1="178.2" y1="173.5" x2="174.9" y2="172.8" id="U" xlink:href="#W" gradientTransform="matrix(.76454 0 0 1.16758 19 478)"/><linearGradient id="V" gradientUnits="userSpaceOnUse"><stop offset="0" stop-color="#4a0000"/><stop offset="1" stop-color="#ffcf00"/></linearGradient><linearGradient id="W" gradientUnits="userSpaceOnUse"><stop offset="0"/><stop offset="1" stop-color="#00f"/></linearGradient><path id="X" d="M285 368l-2 2c-3 4 3 8 8 6l8-3h2l-7-4c-6-2-6-2-9-1z"/><path id="Y" d="M265 370c-3 1-6 2-7 1-2-1-2-1-1 1l3 2 5 1c3 2 6 2 9 0 4-2 1-7-5-7-1 0-3 0-4 2z"/><path id="Z" d="M95 352l-2 3-2 4c-1 3-1 6 1 8 1 3 5 3 6 0 2-2 1-6-1-9-1-2-2-5 0-7 0-2-1-1-2 1z"/><path id="a" d="M94 376l-1 3c0 10-4 19-11 27l-3 3h9l2 2 3 6h3c2-1 4-3 4-6l1-2 5 1h5l-2-3c-5-5-6-7-8-11-3-5-4-8-4-14l-1-6c0-2-2-2-2 0z"/><path id="b" d="M48 454l-1 4c0 9-4 18-11 26l-3 3h9l2 2 3 6h3c2-1 4-3 4-6l1-2 6 1h4l-2-3c-5-5-6-7-8-11l-4-14-1-6c0-1-2-2-2 0z"/><path id="c" d="M51 662c-1-2-6 3-6 9 3-4 7-4 7-4l-1-5z"/><path id="d" d="M58 601c-2 2-2 7-2 7"/><path id="e" d="M52 598l-1 5v5"/><path id="f" d="M98 664c0 8-6 6-9 6l1-2 3-4h5z"/><path id="g" d="M866 331v6h13v-13h-13v7z"/><path id="h" d="M855 390c0 5 0 5 7 5s6 0 6-5 0-5-6-5-7 0-7 5z"/><path id="i" d="M452 338v7h13v-13h-13v6z"/></defs><path d="M0 233h286v234H0z" fill="#fff"/><path d="M278 351l-1 4-2 4c-1 3-1 6 1 8 1 3 5 3 6 0 2-3 1-6-1-9-1-3-2-5-1-7s0-2-2 0z"/><use xlink:href="#X"/><use xlink:href="#Y"/><path d="M278 375l-1 4c0 10-4 19-11 27l-3 3h9c1-1 1 0 2 1 0 3 1 5 3 7h3c2-1 4-3 4-6 0-2 0-3 1-2h10l-2-2-8-11c-3-5-4-9-4-14l-1-6c0-2-2-2-2-1z"/><use xlink:href="#Z"/><use xlink:href="#X" x="-183.9" y=".4"/><use xlink:href="#Y" x="-183.9" y=".4"/><use xlink:href="#a"/><use xlink:href="#Z" x="91" y="-.2"/><use xlink:href="#X" x="-92.9" y=".1"/><use xlink:href="#Y" x="-92.9" y=".1"/><use xlink:href="#a" x="91" y="-.2"/><use xlink:href="#Z" x="-89.2" y="-.4"/><use xlink:href="#X" x="-273.1"/><use xlink:href="#Z" x="182.7" y="-151.4"/><use xlink:href="#X" x="-1.3" y="-151"/><use xlink:href="#Y" x="-1.3" y="-151"/><path d="M276 224v4c0 10-4 19-11 27l-3 3h9c1-1 1-1 1 1l4 7h3c2-1 3-3 4-6 0-2 0-3 1-2h10l-3-2-7-11c-3-5-4-9-4-14l-1-6c-1-2-2-2-3-1z"/><use xlink:href="#Z" x="-1.3" y="-151"/><use xlink:href="#X" x="-185.2" y="-150.7"/><use xlink:href="#Y" x="-185.2" y="-150.7"/><use xlink:href="#a" x="-1.3" y="-151"/><use xlink:href="#Z" x="89.7" y="-151.3"/><use xlink:href="#X" x="-94.2" y="-150.9"/><use xlink:href="#Y" x="-94.2" y="-150.9"/><use xlink:href="#a" x="89.7" y="-151.3"/><use xlink:href="#Z" x="-90.4" y="-151.4"/><use xlink:href="#X" x="-274.4" y="-151"/><path d="M4 224v4c0 5-2 10-4 15v16l4 7h3c2-1 3-3 3-6 1-2 1-3 2-2h10l-3-2-8-11c-2-5-3-9-3-14l-1-6c-1-2-2-2-3-1z"/><use xlink:href="#Z" x="138.1" y="77.7"/><use xlink:href="#X" x="-45.9" y="78.1"/><use xlink:href="#Y" x="-45.9" y="78.1"/><use xlink:href="#a" x="138.1" y="77.7"/><use xlink:href="#Z" x="-45.9" y="78.1"/><use xlink:href="#X" x="-229.8" y="78.4"/><use xlink:href="#Y" x="-229.8" y="78.4"/><use xlink:href="#b"/><use xlink:href="#Z" x="45.2" y="77.8"/><use xlink:href="#X" x="-138.8" y="78.2"/><use xlink:href="#Y" x="-138.8" y="78.2"/><use xlink:href="#a" x="45.2" y="77.8"/><g class="G"><path d="M0 467h286v233H0z" fill="#ca0000"/><path d="M286 0h764v700H286z" fill="#0092c8"/></g><g id="j"><g class="B G"><path d="M151 666c-1 2 1 8 5 8l-2-8h-3z" fill="url(#U)"/><path d="M142 660c-1 0-4 8 1 11 0-5 2-8 2-8l-2-2-1-1z" fill="url(#T)"/><path d="M141 655c-1-1-6 3-6 8 3-3 7-3 7-3l-1-5z" fill="url(#S)"/><path d="M148 651c0-2-5-4-8-1 4 1 6 4 6 4l2-3z" fill="url(#R)"/><path d="M242 667l1 3 2 4 2-8-5 1z" fill="url(#Q)"/><path d="M228 664c-1 0-3 6-1 10 1-5 4-7 4-7l-3-3z" fill="url(#P)"/><path d="M222 662c-1-1-5 3-5 7 3-3 6-3 6-3l-1-4z" fill="url(#O)"/><path d="M225 655c0-2-5 0-6 4 3-2 6 0 6 0v-4z" fill="url(#N)"/><path d="M65 651c1-1-3-6-6-4 3 2 4 7 4 7l2-3z" fill="url(#M)"/><use xlink:href="#c" fill="url(#L)"/><path d="M52 653c-1-2-7-2-9 4 5-2 8 1 8 1l1-5z" fill="url(#K)"/><path d="M58 670v3l2 4 3-7h-5z" fill="url(#J)"/><path d="M43 598c0-2-6-5-9 0 5 0 7 4 7 4l2-4z" fill="url(#I)"/><use xlink:href="#c" x="-14.1" y="-55.2" fill="url(#H)"/><path d="M58 597c0-2-4-7-9-4 4 2 6 7 6 7l3-3z" fill="url(#G)"/><path d="M65 605c0-1-1-8-5-8l2 8h3z" fill="url(#F)"/><path d="M83 612c-3-4 0-12 4-8-2-3 1-6 2-4-1-3 2-5 3-2 0-3 4-5 5-2 0-2 4-4 4 0 1-4 5-4 6 0 1-2 4-2 4 2 2-2 5 1 5 4 2-1 4 4 2 7 5-3 6 6 3 9l3 1 6 2h10l6-2 10-1c2-1 77 1 79 1s5-3 5-5-3-5-5-5h-18c-3 0-5 2-7 4l-3 3h-4l-1 1h-5c0-1 0-2-1-1l-8 1h-1l-6-1h-1c-5 2-6 0-5-1s2-4 1-4l-13 2h-25c-2 0-6-3-6-7-1-6 4-7 7-8l13-2h14l11-4c3 0 12 1 16 6h-1l13-2c8-1 6 0 2 1-1 4-12 9-15 10s-11 0-13 0c-1 0-9 0-12-2-5-3-13-5-17-5-3 0-13 1-13 4 0 6 9 7 13 6l17-1 12-2 9 1 7-2 9-2 34-1c5 0 9 6 9 11l-2 6 7 1c2 0 6 3 7 5l-8-3h-64c13 2 23 11 25 17 2 3 7 2 9 1l6-4c1-2 4-2 6-1 2 0 3 2 2 4s0 0 2 0 5 1 7 4c-2 1-2 0 0 0s4 4 3 5-2 1 0 1c3 0 3 2 4 5-3 0-1 0 0 1s2 6-2 6c-1-1-1-1-1 1 1 1 0 5-3 5-3 1-6-1-6-3s0 4-5 5c-4 1-6-1-7-3s0 0-1 0-4 0-5-3c0-2 0-4 3-4l1-2c-1 0 0-4 2-3l8 2c1 1 2-1 0-2s-13-6-16-4c-7 3-18 3-20 2s-8 1-11-7c-2-9-10-13-14-14-19-1-18 0-6 1 0 1 0 4 2 5 3-1 10-2 12-1s3 3 3 6 0 2-2 4 0 4 2 5l5 3c2 1-1 4-2 3s-2-1-2 1-2 5-4 6l-1-2-1 3c-1 0-5 2-7 1h-1c-1 0-7 1-4-2l-2 2c-1 1-4 1-4-1l-5 1-2 1c-1 1-5-1-5-2l-1-1c-5 3-7-1-7-2v-4c0-1-3-1-2-3 2-2 3-4 5-4 2 1 1 0 1-1s1-1 3 0l5 5c1 2 5 0 7 0s3-3 1-4l-6-7c-2-2 0-6 1-7 8-5 3-7 1-6s-10 3-13 6l-22 16c-2 2-4 1-5 0s-1-1-1 2c1 8-6 11-8 11l-3-2c-1 5-5 6-9 5v-1c-1 2-5 1-8 1v-1c-1 2-3 1-6 1l1-1c-2 2-4 1-7 1 0 0 2-3 0-1-1 1-4 2-6 1-1-1 0-1 1-2h-1s-2 1-3-1 0 2-1 2l-2 2c-1 0-6 1-7-1v-4l-5 3c-5 1-6-7-4-8s2-1 1-2-2-5 0-6 5-2 7 0c1 0 4 3 3 1l2-4c1-1 4-1 4 1 2 4 3 6 5 6l13-3c2 0 15-1 15-3-8 3-11 0-12 0l-2-2h-1c-2 0-3 0-4-2-1-1 1-4 2-6-2-1-5 2-7 5-1-1-1 0-4 1l-5-1c-1-1-7-4-4-5h-2l-3-3v-1l-3-2-3-2-2-4c-1 0-4-2-2-3-2-1-4-3-3-4l-1-1c-1-2 0-3 1-3s0-4-1-4-4 2-6 0c-1-1-3-5-1-8s4-4 5-4v-1c-1-2 2-4 4-4 1-1 5 0 6 1s1 0 1-1l2-2c2-1 4 0 4 1 1 1 2 3 1 4h2c1 0 3 0 4 2 0 1 1 4-1 5s-3 5-2 6l6 7c1 1 1 2 3 2l4-1c4 0 6-1 0-1 2-2 4-2 6-2-1-2 2-5 2-6z" fill="#ffcd00"/></g><g class="E"><path d="M83 631c-3-1-11 6-8 15" stroke-width="1.1" class="B"/><path d="M84 623c-4 27 22 16 22 7" stroke="url(#E)" stroke-width="1.1"/><g class="B"><path d="M104 634c1 4 1 14-3 16s-8 3-11 2"/><path d="M96 640c0 3-3 12-10 11m-44-49c3 1 5 4 6 6l1 4m-4 10h4"/><path d="M46 626h7" stroke-width=".9"/></g><path d="M54 635c9 0 13-13 13-13" stroke="url(#D)" class="I"/><g class="B"><path d="M72 628c-2 7-2 7-5 9l-4 1" stroke-opacity=".1" class="K"/><path d="M62 641l6-3"/><use xlink:href="#d"/><path d="M100 601c0 5-2 7-3 7s-3 2-2 5m10-13c-2 4-3 7-2 10v3"/><path d="M78 626c-4 1-6 9-4 13" stroke-width="1.2"/><path d="M115 616h-3s-1 4-4 3h-1m-7-6c5 0 4 3 1 3 0 4-5 3-5 0-3 0-4-4 0-3m107 3c1-3 5-5 5-5m-11 5c2-4 5-6 5-6m-14 6l5-3 3-3M181 616l5-3 2-3M182 607c-6-2-9-6-9-6m20-3c-4 2-13 1-13 1m-63 54c1-4 4-5 7-7 3-1 7-5 5-2s-7 5-9 6-2 3-1 4"/><path d="M111 637c3 4 1 10-2 12" class="F"/><path d="M120 621c4 2 5 6 5 9l-4-1"/><path d="M118 624l5 8c0 2 0 8-7 8v-8" stroke-width=".9"/><path d="M117 636c0 4-3 5-4 6m-7-24c0 5-8 8-8 1M98 619c0 4-5 5-7 2l-3-4-1-3v-3"/></g></g><path d="M91 620c2 4 8 2 9 4s-1 6-2 9c-2 3-7 3-8 1l1-12v-2z" fill="url(#C)" class="B G L"/><g class="E"><use xlink:href="#e" class="B"/><path d="M51 660h5m2 6l3-4m17 7v-5m6 5c2-2 2-5 2-5m3 5c2-3 1-6 1-6m7 6l1-5m57-3c-3-1-5 4-5 4m10-5l-3 6m8-6l-3 6m9-7l-3 6m8-7l-3 9m8-8v4m-35-11l4 3m-8 4c2-4 6-2 7-1m85-17h-4m12 3l-5 1m9 5l-4-1m8 6h-6m4 7c0-2-3-2-3-2m-18 7c1-3 4-6 6-6h2m-11-1l6-1M85 648l4-5m22-38l-2 3m4 1h-3" class="B"/><path d="M103 608c2-1 7 0 7 1 0 3-2 3-7 1v-2z" stroke-width="1.1" class="B"/><path d="M97 608c0-3-5-5-6-4-2 3 2 5 3 5h1" stroke-width=".9" class="B"/><path d="M112 628c2 3 2 8 0 11" class="B J"/><path d="M111 618c-2 5-1 10-1 10m-22-9l-3 1" class="B"/><path d="M106 635c2 1 4 6 4 8l-1 2m-4-8c1 3 3 7 2 8v1m-7-6l-1 8-1 1m0-9l-2 8" class="B J"/><path d="M84 621l-5 5" stroke-width="2.2" class="B D F"/><path d="M82 632l-3 4m5 0c-2-2-5 1-5 1" class="B J"/><path d="M68 641c0 2-5 3-5 3" stroke-opacity=".1" class="B K"/><g class="F B"><path d="M108 608v2" stroke-width="1.9"/><path d="M95 605l-1 3" stroke-width="1.6"/></g><path d="M79 620c-5 4-6 6-6 13" class="B"/><g stroke="#600"><path d="M120 611c-2 1-1 5-1 5h0" stroke-width="1.2"/><path d="M84 606c2 1 1 5 1 5" stroke-width="1.1"/></g></g><g class="H"><path d="M72 668c0 4-4 3-6 3l2-3h4z" fill-opacity=".6"/><path d="M104 635v5l-2 6-2 2-4-3v-1l1-3c0-1 1-4 2-1l5-5zm-16 12l5-1c2 0 0-1 1-2l1-2-1-1c-1 2-2 1-2 1h-2v1l-2 4zm95-10c-1 3-1 5-3 7-2 4-5 6-8 8a17 17 0 01-3 0v-10h1l4-4c1-2 1-4 1 0l8-1z" class="C"/></g><g class="E"><g stroke-width="1.4" class="I"><path d="M57 638c7-2 11-11 11-11" stroke="url(#B)"/><path d="M49 629c7 1 12-7 12-7" stroke="url(#A)"/></g><path d="M219 650v-1c-1 2-1 1 2-1h5l6 1 3 2" stroke="#700" class="D M"/></g><g class="H C"><path d="M82 643l4 2 3-3v-1l-3-3-1 1-2 1v2l-1 1zm31-1l2-3 1-8v-3l-4 2v5c-1 1-2 2 0 1l1 6z"/><path d="M116 624l3 2 4 6 1 3-4 2-1-2-2-3s-1 0 0 0l-1-8zm-6 24c1-2 2-1 2-3l-1-10a30 30 0 00-2-3l-5 4a12 12 0 011 1l1 5c-1 2 0 2 1 3l3 3z"/></g><g stroke="#700" class="E D"><path d="M243 657h6l3 3m-19-17l5-1 4 2" class="M"/><path d="M199 648h-3l-2-2" class="N"/><path d="M213 622l-34-1" stroke-width="2.1"/><path d="M157 628l3-1 3 1" class="N"/></g><path d="M49 619l-2 2-3 1-1-3 1-2h2c0-1 1-2 0 0l3 2z" class="C H"/><g class="B E"><path d="M91 619c0 5-3 8-3 8" class="L"/><path d="M88 617v10" stroke-width="1.2"/><path d="M102 623c-1 5 2 8 2 8"/><path d="M105 622c0 5-2 9-2 9" stroke-width="1.2"/></g><g class="H"><path d="M85 665c0 4-5 3-7 3l1-1 2-1 4-1z" class="C"/><path d="M90 664c0 5-4 4-6 4v-2l3-2h3z" class="C"/><use xlink:href="#f" class="C"/><use xlink:href="#f" x="7.8" y="-.1" class="C"/><path d="M78 664c-1 8-6 6-8 6l1-2 3-4h4z" class="C"/><path d="M81 641l-1 5h-1c1 0-1-4-2-3l1-1h1l2-1z" fill-opacity=".6"/></g><g class="E"><path d="M121 618l4 1c-1 2-4 3-5 2" class="B"/><g stroke="#700" class="D"><path d="M183 654h-4l-3-2" stroke-width="2.1"/><path d="M167 659l8 1 6-1" stroke-width="3.2"/></g><g class="B"><g class="F"><path d="M127 651h-6M130 649h-5"/><path d="M135 645c-2 1-3 2-4 1" stroke-width=".8"/><path d="M138 643h-4" stroke-width=".9"/></g><use xlink:href="#e" x="-.3"/><use xlink:href="#d" x=".4"/><path d="M42 602c3 0 5 3 6 6l1 3"/></g></g></g><use width="1050" height="700" xlink:href="#j" y="-98.6"/><path d="M694 57c-2 2-3 5-2 7 0 5 0 5-5 3-11-1-32 0-45 3-17 4-25 4-45-2-3-1-3 0 1 6 4 8 6 10 17 14l6 2-12 3-14 3c-5 0-2 3 5 5 9 3 20 3 41-2a100 100 0 0144-2l-7 9c-7 6-10 7-14 8l-10 1c-4 0-5 1-5 9v8l-33 32a669 669 0 01-45 40c-1 2 0 8 3 9 2 1 1 3-5 12-10 13-17 27-23 43l-4 10-2-8c-4-12-7-31-7-43 0-11 0-11 8-22 9-13 30-35 42-44l18-11c12-6 15-8 15-12 0-5-3-8-9-6l-38-6-34-7 4-14c2-9 4-15 7-18 4-4 4-10 0-14-7-7-18-1-17 9l1 5-10 1-27 6c-20 6-36 7-46 3l-6-2-1 3c0 7 4 12 11 15l6 3-4 1-15 1h-11c0 3 7 11 12 13 10 5 31 3 55-5 12-4 27-5 26-2l-56 42c-18 13-21 16-18 23 1 3 1 4-3 11-10 16-19 44-19 58 0 7 0 7-10 18-19 20-58 68-66 83l-3 4-2-3c-6-7-18-3-18 5 0 7 4 10 11 10 4 0 11 3 24 10l20 9-4 4c-7 8-9 14-5 19 2 2 4 2 12 2 9 0 12 1 22 6s13 8 28 23a360 360 0 00141 102 257 257 0 00201-12c11-6 17-8 17-7l3 9c3 8 10 20 13 21 1 1 24-3 52-7l51-8c3 0 6-16 6-28 0-13 0-13-6-25-8-15-20-28-31-33l-8-4 3-4c16-22 35-52 43-69l4-9h7l9-2-2-13-2-13h12v-33l25-48 28-51c5-4 4-11-1-15-4-3-5-3-8-1-5 2-8 7-7 10l-2 8c-3 4-4 5-7 4l-37-6-33-6-16 30-16 29 37 3 38 3-11 20-11 20h-34c-29 0-33 0-35 2a452 452 0 01-14-69c1-7 7-22 19-41 17-30 42-58 52-60 8-2 14-6 14-11s-2-7-8-8c-4 0-55-20-58-23-1-1 6-26 9-29 7-8-7-21-16-13-3 4-4 10-1 13 2 2 0 2-7 1-15-2-29-1-42 2-15 4-26 4-39 0l-10-1c0 4 7 13 11 15l11 5 5 1-9 3-21 5 6 3c8 4 24 3 42-1 11-3 20-4 29-4 12 0 17 1 15 2l-94 72c-12 7-13 10-13 17 0 3 0 4 4 6l4 1-5 8-10 19-5 11-3-5c-2-5-5-14-6-25-1-5 0-8 6-18a214 214 0 0137-48c1-2-3-8-6-8-2 0-54-36-54-37 0-4 8-25 10-27s3-5 3-7c0-9-11-13-18-7zm30 65l20 15c0 1-38 15-39 14l5-11 5-12c0-3-14-10-18-10s-4-2-2-9l1-6 4 3 24 16zm183 6l-60 19 11-37a265 265 0 0149 18zm-226-16l-3 2v-3c3-2 4-1 3 1zm156 20l-7 20a627 627 0 01-63 18l39-29 35-27-4 18zm-276-3c30 6 31 6 25 8l-32 9-28 8 1-4 7-26 27 5zm-45 7l-3 12-3 10-11 3a1013 1013 0 00-31 8 3059 3059 0 0149-33zm138 6h3c0 2-27 36-30 37l-19 7-16 6 13-11 28-26c10-10 16-15 17-14 0 1 2 2 4 1zm13 12l-5 13-11 4-11 3a194 194 0 0127-33h4l-4 13zm32-4l4 2-12 5-12 3 3-10 2-7 6 2 9 5zm19 88l4 8-3 12c-5 15-8 29-10 47-2 12-3 15-8 23l-7 14c-2 7-4 2-5-18a252 252 0 0120-108l2-4 2 9 5 17zm-189 0c0 9 3 25 8 38 3 9 3 12 2 17l-3 21c-3 28 2 55 14 79l7 17 1 3-4-3c-12-8-25-25-32-42-4-10-4-12-1-12 2 0 2-3 2-18v-18h-4c-4 0-5-1-6-6-2-4-2-14-2-26 0-22 2-31 11-51 5-11 7-11 7 1zm311 27l10 54c2 8 2 9 0 17-2 4-3 9-2 9l-7 10c-7 7-7 8-8 4-7-13-10-46-6-69l11-37 2 12zm-414 27l2 9-12 44-12 44-4-1c-7 0-50-20-50-22 0-6 42-59 65-84l9-9v5l2 14zm46-2l-4 15-4 14-10 1-11-1c-2-2 0-13 3-18 4-6 15-12 21-12l5 1zm32 21l5 8-14 1h-13l1-4 3-12 2-7 5 4 11 10zm-68 8c2 6 3 10 3 22v15h9l1 13c0 7 1 18 3 24 3 12 2 18-3 18l-17-8-19-11-4-1 11-40 12-40 4 8zm275 49c4 17 10 33 19 49l8 15c-2 2-16 4-18 3s-10-19-15-34c-7-17-12-40-11-45l7-16 6-12 1 14 3 26zm109-5c6 3 7 5 7 7 0 3 1 3 4 4 8 1 7 4-5 15l-13 9c-3 0-18-17-22-27l-5-10 4-1c8-2 23 0 30 3zm-19 31l8 8-4 3-39 19 8-29 8-29 5 10 14 18zm-50 9l-9 25c-1 2-3-9-2-16 2-12 5-21 11-28 4-3 6-6 7-5l-7 24zm-160-22l-7 21-7 20c-1 1-4 0-7-2-5-2-6-4-8-10-1-7-1-8 2-14 5-8 12-13 19-15 8-2 9-2 8 0zm25 2c2 1 3 3 5 13 2 8 6 17 11 27l7 15-7-1-23-4-14-3 10-35c4-13 5-13 11-12zm32 12l15 8-7 7c-4 4-8 11-9 14l-3 8c-3 3-19-35-19-44 0-3 5-1 23 7zm30 17c16 9 38 25 35 26l-19 1h-46l1-5c1-7 6-15 12-22l7-6 10 6z" fill="#ffcf00" stroke="#000" stroke-width="1.2"/><path d="M694 57c-2 2-2 5-2 8l1 4-8-1c-13-2-30-1-42 2-14 4-25 4-38 0l-9-1c0 2 4 9 7 12 2 2 7 5 11 6l7 3-9 3-13 3c-7 1-7 2 1 5 11 4 18 3 41-2 16-3 23-4 32-4l12 2-7 9c-7 6-10 8-13 8l-10 1-6 1v16l-33 31c-18 17-35 33-39 35-5 4-6 5-6 9 0 2 1 4 3 5 2 2 2 3-6 13-9 14-13 21-20 40l-6 14-3-11c-4-13-6-26-6-41 0-12 0-12 7-21 19-27 47-52 65-58 7-3 11-6 11-11 0-4-5-6-9-5-3 1-70-12-72-13a106 106 0 0111-32c4-4 4-10 0-14-7-7-18 0-17 10l1 4-12 2c-6 1-19 3-27 6-18 5-35 6-44 2-7-3-7-3-7 2 0 6 5 11 12 15l6 2-4 1-15 1h-12c0 3 10 12 14 14 10 4 32 1 55-7 10-3 25-4 24-1l-34 26-37 28c-5 4-6 9-2 11 1 2 1 3-1 6-10 14-22 49-22 63 0 7-1 8-13 21-24 27-53 63-61 78l-4 6-4-3c-4-5-10-5-14-1-6 7-1 16 8 16 4 0 12 3 24 10l19 9-4 5c-10 12-6 23 9 20 12-2 32 10 53 33 32 35 50 51 77 67l14 10 46 21a257 257 0 00201-12c11-6 17-8 17-7l3 9c3 8 10 20 13 21 1 1 24-2 52-7l51-8c3 0 6-16 6-28s0-13-6-25c-8-15-19-27-31-33-8-4-8-4-7-7l12-15c11-15 27-43 33-56l4-10h8c8 0 8 0 8-3l-4-22 6-1h6l-2-31 26-49 29-52c6-7 4-14-5-17-4-1-10 4-10 10 0 2-2 7-4 9-2 4-3 5-7 5-14-4-67-12-68-11-2 1-32 53-32 56a1198 1198 0 0138 4l34 2c3 0 3 0-8 20l-12 21h-34c-33 0-34 0-34 3-1 2-1 3-2 2l-12-60-2-16 9-17c17-36 50-78 62-80 9-1 15-6 15-11s-2-7-7-7c-3 0-57-21-59-23-1-2 5-26 8-30 4-4 3-9-1-12-4-4-10-4-13 0-4 3-5 10-2 12s1 3-4 2c-10-3-32-2-45 1-15 4-28 4-40 1l-9-3 2 6c3 7 10 12 18 14l7 2-11 3-15 4-4 1 5 3c9 4 23 4 45-1 19-5 33-6 40-4 3 1-3 6-41 36l-52 39c-9 6-12 9-12 14 0 4 3 9 7 9l-1 4a220 220 0 00-18 34c-2 0-7-14-9-25l-1-12 7-12c8-14 23-33 31-41 6-6 7-10 1-12-5-3-54-37-55-39s6-23 10-27c4-5 4-10 0-14s-11-4-15 0zm12 4c3 3 0 8-4 7-5 0-7-4-5-7 3-3 7-3 9 0zm160 4c2 2 1 7-2 9-4 1-8-2-8-5 0-6 6-8 10-4zm-176 8l10 3-3 10c-2 7-3 9-5 8l-11-3c-10-2-20-1-45 4l-22 4h-6l4-2c15-4 20-7 20-10 0-2-1-2-7-2-8 0-17-4-21-8-2-3-2-3 1-2 6 3 26 3 36 0 17-4 30-5 49-2zm-146 5c2 3 0 7-4 8-2 0-7-4-7-6s5-6 7-5l4 3zm305 2l10 3c1 1-3 19-5 19l-8-2c-10-3-23-3-45 2l-26 4h-6l9-3c14-5 14-6 13-8 0-2-2-3-8-3-8-1-16-4-18-8h6c10 2 21 1 34-2 12-3 31-4 44-2zM536 94l-3 13-3 12-13-1c-11 0-14 0-26 4-26 8-43 10-52 4l-4-3 12-1 19-3 8-3-12-4c-10-3-18-7-16-9l11 1c11 2 15 1 43-7 12-3 36-5 36-3zm157 7l-3 8-4 6c-2 0-1-1 3-14l3-2 1 2zm27 19l24 17c0 1-38 15-39 14l5-12 5-11-3-3-10-5-8-3c-1-1 2-14 3-14l23 17zm133-12l-3 12-6 19c-2 8-4 11-6 11a751 751 0 0011-43c1-1 4-1 4 1zm54 20l-59 19c-1-1 8-31 10-37 0-1 8 1 24 8l25 10zm-227-15c0 1-1 2-2 1l1-3c2-2 3-2 1 2zm157 19l-8 20a455 455 0 01-64 20l77-59-5 19zm-167-6c-1 11-3 12-3 2 0-7-1-9-2-9-2 0-2 2-2 8l-1 9-2-5-1-11c-1-2 0-2 5-2h7l-1 8zm7-7c1 1 0 5-1 10l-1 9-1-10 1-10 2 1zm-20 9c0 5-1 9-2 9l-1-9 1-9c1 0 2 4 2 9zm29-6l-2 9-3 6-1-5 1-8c0-4 1-5 3-5 3 0 3 1 2 3zm17 3l6 5-4 9c-2 5-4 6-5 5l2-7 3-8c0-4-3-2-7 5-4 8-3 8-4 7l1-7c3-8 3-10 0-10l-4 8c-3 9-5 8-3-2l1-8c-1-2 6 0 14 3zm-176 1c0 5-7 29-9 30-3 2-3 0 0-8l4-16c3-8 5-11 5-6zm34 3l29 6-31 10-33 8 2-8 4-15 2-6 27 5zm362 4c0 3-4 5-13 8l-52 18-74 27c-23 8-32 10-36 10-5 0-7-1-7-3-1-5 6-10 22-15l156-47c2 0 3 1 3 2zm-409 12l-4 13a283 283 0 01-41 11l47-35-2 11zm98-7c0 3-5 4-49 18l-112 31c-2 0-2-1 0-4 1-4 2-5 35-13l66-18 59-16 1 2zm43 4c3-1 0 3-11 18l-14 19-18 6-19 7a754 754 0 0157-51l5 1zm12 12l-5 13-11 4-11 4 11-17c10-14 13-17 16-17h4l-4 13zm12-11c-5 18-7 21-9 21-1 0-2 0-1-1l3-12 6-10c1 0 2 1 1 2zm74 0l-39 16-81 31c-23 9-45 18-48 18-5 2-10 1-10-2 0-2 6-5 51-21l79-28c37-14 52-18 48-14zm-54 7l4 2-12 5-12 4 2-8 3-9c0-2 7 1 15 6zm191 8c-44 46-76 125-69 174l4 21 3 8-7-2-7-4-6-22-7-21 8 40c0 2-1 3-5 3-5 0-4 3-13-30-2-8-4-14-5-13l4 22 4 20-4 1c-4 1-4 1-10-21l-7-21 8 41c0 3 0 4-2 5-5 2-5 2-10-18l-6-16 3 19 4 19-3 2c-4 4-4 3-9-13l-4-11 2 13c3 17 3 18 0 20-3 1-3 0-6-8-3-11-4-10-2 2 2 7 2 9 0 12-2 5-4 5-5-2-2-5-2-5-1 3 1 9-1 14-4 10-1-2-1-1-1 3 1 3 0 9-1 14l-2 8-5-10c-12-25-16-44-16-76 0-19 0-28 3-41 8-46 30-91 44-91l1 3c-1 3-1 3 2-1 1-2 4-5 6-5 2-1 2-1 0 3l-1 5 3-3c5-11 10-12 6-3-3 8-3 8 4-1 2-4 6-8 7-8 4-2 3-1-1 8l-5 11 8-12 10-12c3-1 2 1-3 11l-5 11 8-12c7-10 12-15 15-15l-6 12c-14 24-13 24 2 1l14-16a367 367 0 00-18 35l14-20c8-12 14-20 16-20l4-1-12 20c-19 30-19 30 3-1 13-18 20-25 22-23l-12 18c-13 21-15 24-13 23l17-22c11-16 16-23 19-24l5-1-18 28-18 27 23-30 22-29 9-3 10-3-8 9zm-154 4c-24 29-41 67-48 107-4 20-4 68 0 88a317 317 0 0022 70c-2 0-15-10-16-12l-13-43-12-41 9 40 10 40-5-2c-4-2-5-6-15-38l-11-36 8 33 8 34-5-2c-4-2-4-2-17-44l-6-18 6 28 7 28-6-2c-5-2-5-2-12-28l-8-25 5 24c5 24 5 25-2 22-2-2-5-6-9-19-6-18-7-18-3 1l3 13h-6c-4-1-5-2-9-12-2-6-3-9-3-6l2 10c0 4 0 5-3 5-5 0-6-2-10-9-3-6-3-6-1 3 1 4 1 4-4 4-3 0-5-1-6-3v1c-1 4-8 6-10 3 0-1-1-1-1 1l-4 5-9 9-5 6c-1 0-9-18-12-30a179 179 0 0130-142c7-11 9-12 18-16 6-2 11-4 12-3l2-1c0-1 6-4 7-3l-1 4-1 4 2-3c7-10 11-12 8-4-3 6-1 6 3-1l5-7c3-1 3-1 0 5-4 10-2 10 3 0l8-9c3-2 3-2-2 10l-3 10 7-12 10-13c3-1 3-1-3 13l-6 12 8-13 11-15c6-6 5-2-3 13l-7 15 12-17c9-16 13-20 13-17l-8 17-9 17 13-19c10-16 16-23 19-21l-23 40 16-21c12-19 18-26 19-24 1 1-4 9-9 18l-17 30 17-26c14-21 18-26 22-27l5-2-12 19-23 39 21-31c17-25 22-31 26-32 9-4 9-3 1 8zm-159-3c-23 20-45 47-58 73-10 21-14 37-14 58 0 13 0 15-2 14l-2-9-1-14c-1-7-1-7-2 4v12c-5 0-6-3-6-16 0-12 0-13-1-8l-1 13c0 5-1 6-2 5-2 0-3-5-4-15l-1-15v13l-1 14c-4 0-5-3-6-11 0-12-2-19-2-7-1 11-2 15-4 15s-2-2-2-6l-2-12c-1-5-1-4-1 6 0 9-1 12-2 12-3 0-4-4-4-14 0-8 0-8-2 2-1 13-2 15-4 15l-1-8c0-5-1-7-2-5l-1 10-2 8-1-4c0-4 0-4-1-3l-2 7c0 5-2 9-3 6-1-1-1 1-1 4l-1 7c-4 0-8-22-9-39-1-15 0-19 3-31 4-15 14-39 20-45 2-2 5-5 7-5 3-1 3-1 2 2 0 2 0 1 3-2 5-4 10-5 7-1l1-1c4-3 12-7 12-5l-2 3-3 4c-1 2 2 0 6-4 11-10 13-10 5 2-3 4-2 3 5-3 8-8 13-12 13-9l-5 7c-10 13-9 13 2 1l14-12c2 0 1 1-9 14l-7 10 12-14c11-11 20-17 20-14l-12 14-12 15 12-12c19-19 19-20 23-21 3-1 2 1-6 10-17 21-21 27-10 14 22-22 27-28 31-29 5-1 5-1 3 2a669 669 0 01-14 19c21-22 27-27 33-27 1 0-1 3-6 6zm420 46c2 6-6 10-9 4-1-4 1-7 5-7 2 0 4 1 4 3zm-278 32l4 9-4 12c-5 17-8 31-10 48-1 10-3 14-6 20-2 3-6 9-7 13l-5 7a237 237 0 0115-125l5-11 2 10c1 5 3 13 6 17zm227-17l39 7-21 41c-1 0-69-3-82-5-3 0-2-2 10-23l15-26 39 6zm44-4c1 2-2 7-4 7-3 0-3-1-1-5 2-3 3-3 5-2zm-461 19c0 10 3 29 8 41 4 10 4 11 1 22-3 15-3 46 0 60s6 22 14 38l6 16c-1 2-12-8-19-16s-15-21-19-32c-3-8-3-8 0-8s3-1 3-18v-18h-4c-4 0-5-1-6-6l-3-22c0-13 0-19 3-29 3-13 12-36 14-36 1 0 2 3 2 8zm313 41l7 38 4 14-3 9c-2 4-3 8-2 9s-3 5-7 9l-7 8-3-7a146 146 0 017-103l4 23zm-416 15l2 11-24 87-5-1c-6 0-49-20-49-22a495 495 0 0174-90l2 15zm534-16l-9 19c-10 18-10 19-15 19l-5-1 11-20c10-18 12-19 15-19 2 0 3 1 3 2zm-489 19l-4 15-3 10-11 1c-11 0-11 0-11-3 0-15 11-27 25-28 5 0 5 1 4 5zm12 4c-5 20-6 21-10 22-3 0-4 0-3-3 7-28 7-26 10-24 3 1 3 2 3 5zm21 14c3 3 4 6 4 7l-13 1-13-1 5-21c1-2 12 6 17 14zm-69 5c3 7 4 10 4 23v16h9v11l4 25c3 14 2 19-3 19-1 0-9-3-16-8l-19-10-5-3 11-40 11-40 4 7zm505 5l1 12 1 8h-89l8-23c0-2 10-2 40-2h39v5zm-421 15v13h-76v-26h76v13zm190 16c3 24 10 46 21 64 9 15 9 16 1 17l-10 2c-4 0-22-47-27-69-1-9-1-13 8-29l5-10v6l2 19zm222 3l1 11-48 1-47-1 9-10 9-11h74l2 10zm-425 12c13 38 45 66 90 78 29 8 60 10 96 8 74-5 108-20 150-63l19-19h28c18 0 28 1 28 2 0 4-19 37-33 57-11 15-14 17-39 27-31 13-75 22-122 27-30 3-100 2-125-2-33-4-57-10-82-19-21-7-29-11-53-25-26-14-41-22-55-27-13-5-25-5-31-2-4 3-5 2-1-4 3-7 11-12 20-12 10 0 16 2 34 13 17 10 22 11 26 5 4-5 4-6 0-21l-3-24v-11h49l4 12zm10-2c9 22 26 43 44 54 24 14 58 22 104 24 69 3 136-20 175-62 5-6 11-10 12-10 2 0 3 1 3 2 0 2-30 31-41 40-36 26-79 37-148 37-28 0-42-2-64-7-49-12-81-40-93-80l-2-8h3c3 0 4 2 7 10zm306-2c6 3 7 4 6 6s-1 2 2 2l6 3c2 3-2 8-15 18-9 7-10 6-20-5-5-6-15-23-15-26 0-2 7-3 17-2 9 0 13 1 19 4zm-484-2c3 3 2 7-1 8s-7-1-7-4c0-2 3-5 5-5l3 1zm430 35l-9 30-5 2h-6l9-30c9-28 9-29 14-31l6-2-9 31zm19-23c2 5 8 13 13 18l9 10-10 6c-12 8-33 17-33 15l8-28 8-28c0-2 1 0 5 7zm-400 14c2 1 2 1-1 2-3 2-5 1-23-8-14-7-20-10-19-12 0-1 5 0 20 8l23 10zm364 15l-9 26c-2 0-3-10-2-17 2-12 5-21 12-28l7-7-8 26zm-160-22l-7 21-7 20c-1 1-4 0-7-2-5-2-6-4-8-10-1-6-1-8 1-13 4-7 11-13 18-15 8-3 11-3 10-1zm13 1l-7 23-7 24-5-2-3-3 7-21c7-23 7-24 11-23l4 2zm15 4l1 5c0 6 8 27 14 37 3 4 5 9 4 9l-34-5c-7-1-10-3-9-4l7-24 7-22 5 1c2 0 5 2 5 3zm24 7c22 9 21 8 14 16-6 7-12 17-12 22 0 4-3 2-8-7s-12-29-12-34l1-3 17 6zm37 19l22 16 12 9-4 1c-5 2-60 2-61 1s0-5 1-9c2-6 4-11 10-16l8-8 12 6zm-273 5c13 4 29 12 54 27 31 17 52 26 85 34 39 10 74 14 123 14 76 0 138-12 195-37 2 0 0 2-3 6s-8 8-13 10c-11 6-37 14-59 19-17 4-19 4-10 3 19-1 42-7 66-16 2 0 0 2-4 6-5 6-8 7-20 11a394 394 0 01-69 15 473 473 0 0076-13c0 1-3 4-8 7-8 7-15 10-39 14l-7 2 18-3 14-2a291 291 0 01-97 42c-22 4-74 4-96-1-45-9-101-37-131-64l-8-7 10 4c10 5 31 11 40 13 5 0 1-1-8-4-21-7-48-20-58-30l-9-9 16 7c21 11 40 18 65 24 23 6 31 7 11 1-48-14-92-35-114-55-15-13-28-20-39-20l-8-1c2-3 17-1 27 3zm461 46l-7 9-6 7 9-9c10-9 13-10 6 0l-5 6 7-6c7-7 11-7 7-1-2 4-2 4 1 1l4-2 9 7c9 9 17 24 19 36 1 9 1 12-1 24l-2 7-48 7c-35 6-48 7-50 6-4-2-10-12-12-21l-3-8 14-9 36-33c20-22 25-26 22-22z"/><use xlink:href="#g"/><use xlink:href="#g" x="26.1"/><path d="M918 331v6h13v-13h-13v7zm-57 27v7h13v-13h-13v6z"/><use xlink:href="#g" x="37.8" y="27.6"/><use xlink:href="#h"/><use xlink:href="#h" x="30.5"/><path d="M550 453v9h13v-19h-13v10zm221 6v9h13v-19h-13v10zm-109 13v9h13v-19h-13v10z"/><use xlink:href="#i"/><use xlink:href="#i" x="26.1"/><use xlink:href="#i" x="52.3"/><path d="M781 523h4c1-1 1-1-2-1s-3 0-2 1z"/><use xlink:href="#Z" x="137.8" y="-75.3"/><path d="M239 293l-3 2c-3 4 4 8 9 6 6-3 6-3 8-2l2-1-7-4c-6-2-7-2-9-1z"/><use xlink:href="#Y" x="-46.1" y="-74.9"/><use xlink:href="#a" x="137.8" y="-75.3"/><use xlink:href="#Z" x="-46.1" y="-74.9"/><use xlink:href="#X" x="-230.1" y="-74.6"/><use xlink:href="#Y" x="-230.1" y="-74.6"/><use xlink:href="#b" x="-.3" y="-153"/><use xlink:href="#Z" x="44.9" y="-75.2"/><use xlink:href="#X" x="-139.1" y="-74.8"/><use xlink:href="#Y" x="-139.1" y="-74.8"/><use xlink:href="#b" x="90.7" y="-153.2"/><path d="M4 376v3c0 5-2 11-4 15v17c1 2 2 5 4 6h3c2-1 3-3 4-6l1-2 5 1h5l-3-3c-4-5-6-7-7-11-3-5-4-8-4-14l-1-6c-1-2-2-2-3 0z"/><path d="M1050 523v177H286V512c1 3 13 7 21 10 15 5 16 5 31-5 20-13 32-12 55 2 33 21 43 22 53 3 7-15 24-15 53 0 13 7 25 11 29 11 3 0 12-5 18-13 14-16 23-15 60 6 29 18 39 19 43 4 4-18 7-21 24-21 11 1 27 5 43 13 14 6 28 12 31 12s6-6 8-12c1-6 6-14 10-17 10-6 20-4 54 13 33 17 42 15 42-7 0-7 7-11 18-11 4 0 18 7 31 15 31 18 39 18 41 0 3-19 16-19 48-2 24 13 51 18 51 10z" fill="#0091c8"/><g stroke-width="8.8" stroke-linejoin="round" class="E F"><path d="M293 523c1 3 9 7 17 10 15 5 16 5 31-4 20-14 32-13 55 1 34 21 43 22 53 3 7-15 24-15 53 0 13 7 26 12 29 12 4 0 12-6 18-13 15-17 23-16 60 6 30 17 40 18 43 4 4-19 7-22 25-22 10 1 26 5 42 13 14 6 28 12 31 12s6-6 8-12c1-6 6-14 10-17 10-6 21-4 54 13s42 15 42-7c0-7 8-11 18-11 4 0 18 7 32 15 30 18 38 18 41 0 2-19 15-19 47-2 24 13 47 17 47 9" stroke="#fff"/><path d="M290 513c1 3 9 8 17 11 15 5 16 5 31-5 20-13 32-12 55 2 34 21 43 22 53 3 7-15 24-15 53 0 13 7 25 11 29 11s12-6 18-13c15-16 23-15 60 6 29 18 40 19 43 4 4-18 7-21 24-21 11 0 27 5 43 12 14 7 28 12 31 12s6-5 8-11c1-7 6-14 10-17 10-6 21-4 54 13s42 15 42-7c0-7 7-11 18-11 4 0 18 6 32 15 30 18 38 18 41 0 2-19 15-19 47-3 24 14 47 18 47 10" stroke="#000"/></g><path d="M359 574c-6 4-6 5 6 3 10-1 16 1 29 8 25 14 35 15 51 5 20-12 28-14 43-11 12 2 13 2 9-2-10-9-30-9-48 0-20 10-29 11-52 1-20-10-28-10-38-4zm370 10c-14 8-29 14-34 14s-20-6-34-13c-23-13-25-13-36-9-30 10-49 14-63 10-17-3-18-1-4 7 14 7 26 7 53-2 23-7 23-7 34-1 45 24 58 25 81 9 27-19 38-21 77-10 23 7 24 7 35 2l12-5h-14c-9-1-26-4-39-8-13-5-28-8-34-8s-20 6-34 14zm210-2c-4 2-9 4-10 6-3 5-21 5-31 0-7-2-6-1 2 5 12 10 21 11 37 2 11-6 12-6 25-2 21 8 25 6 8-4s-19-11-31-7zm-112 42c-10 7-23 12-28 12-4 0-18-4-29-10l-21-10-14 7-23 11c-6 2-10 5-10 6 0 5 11 3 27-6 17-9 27-8 45 2 23 15 31 15 57-4 16-11 28-12 56-1 21 8 23 8 34 4l12-4-13-1c-7 0-23-5-35-10-13-5-27-9-31-9s-17 6-27 13zm-293 1c-17 14-28 14-46 2-16-12-26-12-48-2-12 6-15 8-10 10 3 1 11-1 17-3 16-8 24-7 44 6l21 11c2 0 9-5 17-10 25-16 30-16 55-8 22 9 28 8 39-3 5-5 4-5-3-2-11 5-19 5-41-4-25-10-29-10-45 3zm-196 21c-4 2-10 6-12 10-4 5-4 6 3 3 9-5 24-5 27 0 1 2 9 7 17 12 18 12 34 13 53 1 14-8 24-8 45-2 5 1 4-1-4-6-14-11-28-11-48 0-19 9-26 8-49-9-20-13-21-14-32-9zm256 14l-18 11c-3 1-4 4-3 5s10-2 19-6 20-8 23-8 14 5 24 13c20 14 26 14 48 1 16-10 20-10 40 1 20 13 28 13 53 0 22-11 29-10 51 2 8 5 16 8 19 8 8 0 24-8 32-16l8-7-13 7c-17 9-27 8-48-3-23-12-29-12-49 0s-30 12-50 0-31-12-48 0c-18 12-22 12-38 1-14-11-26-17-33-17l-17 8z" fill="#fff"/><g class="G"><path d="M0 0h286v233H0z" fill="#dc241f"/><g fill="#009543"><path d="M286 29V0h-35L0 203v30h35L286 29z"/><path d="M0 29L1 0h34l251 203v30h-35L0 29z"/></g><g fill="#fff"><path d="M0 140V93h286v47z"/><path d="M120 0h47l1 234h-48z"/></g></g></svg>