<svg xmlns="http://www.w3.org/2000/svg" height="480" width="640" viewBox="-15 -7.5 30 15" xmlns:v="https://vecta.io/nano"><style><![CDATA[.B{stroke-width:.186}.C{fill:#f7e017}.D{fill:#337321}.E{stroke:#000}.F{fill:#96877d}]]></style><defs><clipPath id="A"><path d="M-15-7.5h30v15h-30z"/></clipPath></defs><comment>The above line is the ensign field color: #CF142B red and #00247D blue</comment><path fill="#00247d" d="M-15-11.25h30v22.5h-30z"/><g clip-path="url(#A)" transform="translate(0 -3.75)"><circle cx="0" cy="0" r="20" fill="#00247d"/><path stroke-width="3" stroke="#fff" d="m-20-10 40 20m-40 0 40-20"/><path stroke-width="2" stroke="#cf142b" d="m-20-10 40 20m-40 0 40-20"/><path fill="#fff" d="M0 0l20 10h-3L-3 0m3 0l20-10h3L3 0M0 0l-20 10h-3L-3 0m3 0l-20-10h3L3 0"/><comment>I think the above two lines give the simplest way to make the diagonals</comment><path stroke-width="5" stroke="#fff" d="M-20 0h40M0-10v20"/><path stroke-width="3" stroke="#cf142b" d="M-20 0h40M0-10v20"/></g><g transform="matrix(.15883 0 0 .15883 -27.207 -8.9732)"><g class="E B"><path d="M197.84 77.265c-2.706 2.296-5.284 5.64-5.917 8.663-1.782 8.513-4.15 10.406-7.805 8.578 0 4.57 4.008 4.922 5.766 2.25 0 4.3 1.555 8.006 5.062 11.18 1.477 1.336 1.758.422 1.055-1.054s-.703-6.258-2.1-9c2.25 1.617 5.554.703 5.273-3.727-2.883 1.688-5.748 1.62-6.047-2.4-.35-4.7 1.487-11.546 4.722-14.5zM194.42 43.4c.2-1.7-.17-3.424-1.404-4.5-2.384-2.1-4.72-1.404-6.458.287-2.602-1.406-3.984 3.58-6.937 2.737.492 1.617 1.266 2.32 2.742 1.758-1.547 1.406 0 3.094-1.828 4.78 3.305 1.055 5.063-.773 4.922-3.937 1.266 1.125 3.234 1.055 4.3-.2-1.758-.562-1.766-2.093-1.055-3.516 1.055-2.1 6-2.028 5.73 2.613z" class="C"/><path d="M202.05 67.858c-3.727 1.97-10.547 1.125-11.18-3.727s4.078-7.03 5.344-7.664c1.973-.987 3.515.773 2.883 2.813 2.18-.773 2.672-3.305 1.617-4.78 2.883.21 5.555-1.97 6.68-5.062-1.01.963-3.768.312-6.038.166.703-.773.694-2.275.483-3.048-2.39 2.46-5.836 1.336-10.406 8.438.703-2.46 2.04-7.383 2.812-10.617a7.99 7.99 0 0 0 .174-.973c.28-4.64-4.668-4.724-5.723-2.614 1.156 1.305.55 2.827.135 5.134-.492 2.742-1.547 9.07-2.46 11.18-.28-3.305-2.46-3.516-2.883-5.133-.633.422-.984 1.547-.843 2.32-.774-.844-3.446.21-4.43-1.055-1.055 2.11.633 4.22 2.4 5.133-1.02.07-1.265 1.3-2.4 1.3 1.512 1.758 3.058 2.46 4.85 2.602s3.13.808 4.22 2.988c1.758 3.516 8.455 5.8 14.766 2.602z" class="D"/><path d="M211.33 63.57c-2.11 5.836-7.875 9.984-10.477 10.617-4.427 1.077-13.457 5.46-15.88 7.716-.383-.085-.738-.224-.994-.404-1.195-.844-2.18-3.586-.07-5.906 6.6-6.187 13.71-3.516 18.14-7.734-3.727 1.97-10.547 1.125-11.18-3.727 4.008 1.055 11.25 1.125 17.016-5.062.773.844 3.023 3.516 3.445 4.5z" class="C"/><path d="M197.84 77.265c-3.34 2.834-5.073 9.788-4.722 14.5.098 1.31.466 2.2 1.023 2.744.246-2.672 2.104-9.576 6.852-12.658 4.008-2.602 10.266-8.437 12.586-15.117-.422-1.195-1.125-2.04-2.46-2.883-2.296 6.304-8.462 9.328-13.278 13.415z" class="D"/><path d="M209.2 60.862c-1.196 1.793-3.903 4.254-6.504 5.238.562-.633.738-1.442.773-2.11-3.305 1.266-9.914 1.125-12.586.14 4.008 1.055 11.25 1.125 17.016-5.062.562.633 1.054 1.195 1.3 1.793z" fill="#316d3a"/><path d="M183.9 75.592c-5.374 5.03-1.828 9.422.28 10.406-.562 3.516 2.743 3.094 2.672 6.047 1.336-.773 1.688-2.812 1.477-4.43 1.687 1.828 5.976-.21 6.9 3.164.563-3.727-2.32-7.453-5.906-7.102 1.477-1.336.633-3.516-.773-4.078-.28 2.742-3.375 2.742-4.57 1.898s-2.18-3.586-.07-5.906z" class="D"/><g class="C"><path d="M195.55 107.58c-.587.335-.544 1.09-.176 1.582.738.984-.52 3.215 1.863 3.69.704.14 1.245-.29 1.512-1.1.738-2.215-1.617-2.46-1.828-3.515s-.88-.95-1.37-.668z"/><path d="M197.55 111.73c-.79.364-1.477.88-1.16 3.4.13 1.047.07 3.586-.844 3.62.562.282 1.758.58 2.25-.07.474.79 1.547.563 1.97-.422.562.457 1.336-.316 1.336-.984.492.316 1.476-.14 1.23-1.652.598.2 1.37-.21 1.652-.598-.88-.176-3.093-1.37-3.62-2.32s-1.898-1.407-2.812-.985z"/></g><path d="M185.37 40.62a9.17 9.17 0 0 1 1.189-1.445m12.19 10.753c.62-.355 1.564-.394 2.6-.327m-3.56 69.1c-.246-.35-.334-1.828-.158-2.725m2.128 2.295c-.387-.3-1.125-1.318-1.248-2.215m2.578 1.245c-.493-.23-1.688-1.776-1.952-2.777m3.182 1.117c-.58-.124-2.355-1.284-3.094-2.514" fill="none"/><path d="M234.75 75.663c8.65 7.242 9.21 13.008 7.875 16.383-.703-3.164-4.29-8.086-8.016-9.352l.14-7.03z" class="C"/><path d="M219.28 71.585h16.032V90.57c0 16.172-9 25.734-18.14 30.797-9.14-5.063-18.14-14.625-18.14-30.797V71.585h11.25c.018.984.106 2.46 1.266 3.938 2.654-.264 5.66-2.25 7.734-3.937z" class="D"/><path d="M235.3 71.585V90.57c0 4.882-.82 9.162-2.217 12.897l-15.92-29.213-15.92 29.213c-1.397-3.735-2.217-8.015-2.217-12.897V71.585h36.282z" fill="#006ec7"/></g><g class="C"><path d="M233.58 102.06l-1.186 3.12-15.22-28.285-15.22 28.285c-.395-.86-.905-2.26-1.186-3.12l16.4-30.42 16.4 30.42z"/><g class="B E"><path d="M224.4 112.47l1.55.742c.844-1.688.984-4.078.703-6.188-.914 2.32-4.008 2.25-4.85 3.656.52.26 1 .6 1.415.9-1.055 1.054-3.525 2.827-4.93 3.25V99.747c0-1.055-.352-1.934-.352-2.812v-3.118c0-.703-.14-1.723-.773-1.723s-.773 1.02-.773 1.723v3.118c0 .88-.352 1.898-.352 2.813v15.082c-.773-2.25-3.802-1.48-5.208-3.73.55-.134 1.13-.175 1.692-.067-1.054-3.586-3.937-3.867-4.5-4.922 0 1.477-.632 4.922.352 6.4.22-.265.553-.537.952-.78 1.195 2.602 6.57 2.61 7.837 6.898 1.016-1.575 4.676-3.405 7.238-6.156z"/><path d="M217.17 99.92c1.195 0 4.992-.4 6.363-.4.357 0 .647-.534.647-1.193s-.3-1.193-.647-1.193c-1.37 0-5.168-.4-6.363-.4s-4.992.4-6.363.4c-.357 0-.647.534-.647 1.193s.3 1.193.647 1.193c1.37 0 5.168.4 6.363.4zm-.77-6.18c-.254-.204-.587-.328-.952-.328-.797 0-1.442.6-1.442 1.316s.645 1.316 1.442 1.316 1.44-.6 1.44-1.316c0-.562.818-.562.818 0 0 1.14-1 2.063-2.26 2.063s-2.26-.924-2.26-2.063 1.012-2.063 2.26-2.063a2.42 2.42 0 0 1 1.038.23c-.028.2-.086.54-.086.844z"/><path d="M210.8 99.532c.357 0 .646-.534.646-1.193s-.3-1.193-.646-1.193m.54 2.386c.357 0 .646-.534.646-1.193s-.3-1.193-.646-1.193m3.46 2.63c.43 0 .78-.644.78-1.438s-.35-1.438-.78-1.438m.82 2.94c.45 0 .815-.673.815-1.504s-.365-1.504-.815-1.504m2.7 3.026c.455 0 .824-.68.824-1.52s-.37-1.52-.824-1.52m.85 3c.45 0 .814-.66.814-1.472s-.364-1.472-.814-1.472"/><path d="M222.94 99.555c.364 0 .66-.545.66-1.217s-.296-1.217-.66-1.217m-13.6 14.61a5.38 5.38 0 0 1 1.504-.63m12.806.77l-.413-.296m1.173.896c.985-1.057 1.805-2.252 2.254-3.618"/></g></g><g class="B E"><path d="M213.95 85.006c0-.343.282-.5.6-.738.396-.3.554-.44.914-.44h4.615c.342 0 .42.088.42.404v6.275c0 .316-.08.404-.42.404h-6.14v-5.968" fill="#fff"/><path d="M218.95 91.457c.606 0 .497-.013.923-.44.444-.444.402-.404.402-.813v-5.738c0-.296-.073-.378-.39-.378h-4.27c-.334 0-.48.132-.846.41-.304.232-.56.37-.56.69v6.267h4.743z" fill="#e5e5e5"/><path d="M219.4 91.325c0 .316-.08.404-.422.404h-4.614c-.343 0-.417-.088-.417-.404V85.05c0-.316.074-.404.417-.404h4.614c.343 0 .422.088.422.404v6.275z" fill="#fff"/></g><path d="M228.35 67.908c.9 1.002 1.195 2.353.705 3.67h-1.336c.562-1.687.21-3.3-2.18-3.51-3.575-.316-7.734 6.61-13.992 7.453-1.828-2.18-1.73-6.332.6-8.3-1.2-3.458-3.733-7.26-5.486-8.907-1.148-.187-2.474-.28-3.33-.23.914-1.97 3.52-4.04 5.63-4.885A23.71 23.71 0 0 1 210 51.792c.21-2.707 13.078-1.44 15.82.246 0 3.023 1.194 13.128 2.53 15.87z" class="B E F"/><path d="M212.75 69.753c-.306-4.687-2.2-8.547-4.863-11.176 1.265.352 3.867.352 5.625-.914 2.32-1.547 8.367-4.254 10.582-3.094.176.387.28 1.266.14 1.828-.527-1.406-6.363.773-8.015 1.44-1.582.738-2.285 1.723-1.723 3.938-.914-.773-.598-1.512-1.547-2.074.387.914.703 2.566.8 3.902-.352-.95-.985-2.988-2.356-4.184 1.196 2.32 2.233 7.892 1.74 10.846.95 0 3.04-.932 3.884-1.6-.738 1.055-2.865 1.793-4.236 2.074-.615.738-1.037 2.637-1.002 3.7-.105-1.3.305-4.47.96-4.68zm15.6-1.845c-1.164-1.296-3.336-1.997-6.116-1.245a8.98 8.98 0 0 1 2.145-.703l-.88-4.676.774-.316 1.195 4.957c.246.07.808.176 1.3.422-.2-.738-1.407-6.047-1.37-6.6l1.054-.562c.422 2.883 1.1 7.066 1.897 8.733z"/><g class="E B"><path d="M227.72 71.578c.562-1.687.2-3.3-2.18-3.5-1.853-.164-3.863 1.637-6.242 3.5h8.422zm-15.54-15.146c-1.055.14-3.4-.07-4.606-.457.07-.317.192-.646.35-.994-.74.492-2.143 1.45-2.67 2.12 1.688.352 5.17.527 6.926-.668z" class="F"/><path d="M212.14 67.222c.388 1.12.64 2.204.676 3.168m-3.866-17.2c-.638.93-1.192 1.928-1.375 2.775 1.196.387 3.55.598 4.606.457m-5.53 1.882l1.24.262c1.265.352 3.867.352 5.625-.914s6.54-5.203 11.953-5.625M205.25 57.1c1.688.352 5.17.527 6.926-.668 4.078-2.777 8.015-4.395 11.953-4.605" fill="none"/><path d="M234.75 75.663c5.906 4.078 10.266 8.016 11.53 14.344s3.657 8.016 6.6 6.328c-.703 3.656-4.36 4.078-7.453 1.266.28 4.22-1.407 9.282-5.766 11.1-.28-2.532 1.392-4.536.914-6.6-.2-.914-.28-3.023.914-4.008-2.32.773-5.976-.703-6.328-4.148 2.672 1.266 6.117 1.477 7.453-1.898s.774-9.14-7.875-16.383zm7.45-32.906c1.828-4.78 6.6-4.3 8.227-2.25 4.7-2.672 5.344 3.375 9.35 2.18-.07 1.125-1.406 2.18-2.882 2.1 1.546 1.406-.633 3.516 2.67 4.78-2.812 1.406-6.75-.07-7.804-3.937-.914 1.828-4.22 1.828-5.555.352 2.883-.773 2.672-3.445 1.055-4.5-1.63-1.062-4.5-.633-5.063 1.266zm-14.26 10.53c1.312 4.232 4.026 8.165 6.95 10.846 3.375 3.094 8.472 2.32 11.32-.633.07 5.9-6.03 6.346-9.422 4.5-1.495-.813-2.705-.386-1.265.914 2.18 1.97 6.948 3.433 12.585 4.64 9.844 2.1 6.33 9.914 3.446 9.844.826-.018 1.504-.883.316-1.95-8.543-7.682-25.9-4.658-25.63-21.814-1.828 4.5-9.35 2.742-5.836-2.602 1.125.914 3.094.984 3.657-.422.437-1.094.15-2.997-1.82-4.633.324-.026 1.02.001.948-.808.088.474.52 1.178 1.626.94.317.5.65.83 1.1.65.088-.035.352-.167.246-.668.088.932 1.195 1.266 1.777 1.195z" class="D"/><g class="C"><path d="M236.8 68c4.078 2.672 8.7 2.67 12.938-2.25 1.336-1.547 3.445-2.883 4.922-3.023s1.406-1.547 2.53-1.828c-.703-.2-.985-1.055-2.04-.95 2.636-.914 1.863-3.023 3.164-4.043-1.055.387-2.707-1.195-4.22.8.387-.914-.14-2.004-.527-2.426.14 1.055-2.075 1.266-2.496 3.938-.237 1.5-1.055 1.406-1.196-.914-.103-1.697-.914-6.398-1.898-8.8s-1.2-5.672.126-6.165a2.64 2.64 0 0 0-.83-.867c-1.63-1.062-4.5-.633-5.063 1.266-1.828 4.78 3.305 7.523 2.883 12.726-.773-3.867-7.03-4.852-6.96-8.648-2.04.914-1.758 2.602-.984 3.938-1.266-1.97-4.15 1.266-6.6-1.406-.28 3.516 2.813 4.852 5.344 4.992-1.266 2.25.422 4.148 2.1 4.78.07-3.937 8.145-2.32 8.227 4.43.07 5.766-6.117 6.258-9.422 4.43zm11.3 5.553c9.844 2.1 6.33 9.914 3.446 9.844-1.836-.045-3.586-1.582-3.692-2.918-2.1 1.125-1.546 3.34.07 4.22-4.43-.527-6.293 2.4-6.4 5.6.8-1.477 3.27-1.582 4.184-1.266s3.27.492 4.22-.562c-.774.668.492 2.215-.598 3.4 3.7-.14 5.3-3.586 4.676-5.098 4.78-4.36 3.867-11.46-5.907-13.22zm-7.5 33.407c.64.4.56 1.24.127 1.773-.867 1.067.44 3.612-2.24 4.04-.8.126-1.377-.378-1.64-1.283-.727-2.504 1.913-2.676 2.194-3.844s1.023-1.022 1.56-.686z"/><path d="M238.2 111.5c.865.44 1.6 1.045 1.147 3.857-.192 1.163-.235 4 .784 4.08-.64.29-1.988.57-2.51-.177-.564.862-1.75.56-2.18-.557-.648.486-1.477-.41-1.448-1.157-.563.332-1.642-.22-1.302-1.898-.676.2-1.52-.295-1.818-.74.99-.158 3.513-1.395 4.143-2.432s2.18-1.487 3.182-.976z"/></g><path d="M237.62 119.26c.3-.382.453-2.026.296-3.034m-2.476 2.474c.445-.316 1.313-1.422 1.5-2.417M234 117.55c.56-.233 1.96-1.908 2.3-3.015m-3.6 1.115c.653-.112 2.685-1.33 3.563-2.67" fill="none"/><path d="M226.24 59.632c-.118 7.207 2.878 10.853 7.027 13.227-1.542-.923-.874-4.087-2.95-5.106.493-.035 1.266.668 2.497.387-.598-1.336-1.583-3.375-3.868-3.656.598-.07 1.9.14 2.743-.176-1.196-1.828-4.36-.95-5.45-4.676zm-.74-6.854c-.253-.083-.468-.338-.678-.67-1.107.237-1.538-.466-1.626-.94.07.8-.628.778-.953.804 1.98 1.637 2.262 3.54 1.824 4.637-.563 1.406-2.532 1.336-3.657.422-.14 2.988 3.727 3.973 5.133.2 0 .633.8.563 1.02 1.406 1.004-1.617.246-3.937-1.063-5.87z" class="C"/><path d="M219.32 38.503c-1.758-1.617-2.567-4.324-2.497-5.87s.704-3.234 2.954-2.53c-.704 0-.21 1.406-.95 1.547.598.21 1.407-.28 1.512-.598.14.492 1.055.352 1.125.914.352-.28-.035-1.652-.562-1.934.386-.21.597-1.3.42-1.828-.35.07-.878.563-.984 1.266.176-.562-.035-1.97-1.02-2.18-.282.387-.352 1.336.035 1.863-.914-.21-2.25.387-2.567 1.16.07-.932.2-2.258.774-3.094.193-.28-.282-.773-.65-.105-.685-1.336-2.513-2.04-3.322-1.37s-1.898-.316-2.566.738-2.93 1.166-2.813 2.285c.07.668-.09 1.7-.422 2.074-.808.914.387 1.582.598 2.39-.14-2.672 4.113-7.875 8.367-5.836-.387.668-.725 2.002-.844 3.62-.175 2.39.176 5.766 2.496 7.734l.915-.246z" class="D"/><path d="M220.58 30.136c-.023-.633 1.072-1.456 2.55-1.44 1.775.017 3.146 1.635 4.57 1.477s.72.633.422.844-.474.527-.37.914-.077.64-.65.28c-1.266-.79-2.532.316-4.202-.3-1.448-.534-2.285-.826-2.32-1.775z" fill="#cf142b"/><path d="M213.34 46.73c-.703-2.215-3.375-4.64-4.676-5.203l-.07-1.195c.703-.28 2.4-1.617 3.164-2.355 5.273 2.53 12.445-1.055 15.75-4.78l1.266.773-.633.844-.668-.352c-.81.984-3.828 3.825-4.742 4.423 1.23.31 2.91.525 3.37.5 2.953-2.11 5.273-4.008 6.398-4.148l.95 1.266-.843.598-.668-.387c-3.164 2.602-6.75 8.297-8.157 12.094-1.968-.422-9-.14-10.44-2.074z" class="F"/><g fill="none"><path d="M222.73 38.882c-.455-.115-.847-.247-1.094-.38-.563.527-1.97.984-3.762 1.055m-4.254 6.4c-.474-2.62.28-5.52 1.617-6.398 2.918 1.934 7.9 1.934 10.864-.176m-12.48 5.203c2.25-.07 7.137.316 8.332.492s3.2.668 2.918 1.266"/><path d="M214.66 44.212l.647-.646-.647-.646-.646.646.646.646z"/></g><path d="M216.2 31.12c-.81-1.125-3.037-1.48-3.516.035-.21.668-.527 1.37-1.055 1.688s-.403 1.275-.175 1.688c.562 1.02.07 2.004 1.16 2.672 0-.81 1.195-1.652 2.215-1.863s2.566-1.125 2.777-2.145.562-1.863-1.406-2.074z" class="D"/><g class="F"><path d="M211.12 41.245h.28l.005 1.923c.057.02.12.047.167.09l1.657-.956.14.244-1.663.965c.01.06.02.13.007.2l1.656.957-.14.244-1.667-.958c-.046.04-.1.08-.16.1l-.001 1.913h-.28l-.004-1.923c-.058-.02-.122-.047-.168-.09l-1.657.956-.14-.244 1.662-.965c-.01-.06-.02-.128-.007-.19l-1.655-.957.14-.244 1.668.958c.046-.04.1-.08.16-.1v-1.913z"/><path d="M213.63 45.947a3.32 3.32 0 0 1-2.364.984c-1.84 0-3.332-1.49-3.332-3.33s1.492-3.33 3.332-3.33c1.08 0 2.04.515 2.65 1.313a7.21 7.21 0 0 0-.386 1.786c-.116-1.148-1.086-2.044-2.264-2.044-1.258 0-2.277 1.02-2.277 2.276s1.02 2.276 2.277 2.276c1.052 0 1.962-.736 2.223-1.705-.001.417.01 1.424.14 1.775z"/></g><path d="M209.86 49.12c-.2-.246-.597-.914-.562-1.406.316-.035.914.176 1.195.457-.035-.352-.175-1.125-.105-1.477.387.14 1.195.598 1.476 1.125-.07-.352-.21-1.266-.07-1.828.422.246 1.125.914 1.266 1.37.035-.703.28-1.863.492-2.145.316.316.808.598 1.125 1.02.07-.562.35-1.23.773-1.406.317.352.81 1.16.914 2.074.317-.105.74-.633.914-.914.176.28.352.773.247 1.37.386-.352.843-.844.95-1.266.28.21.808.738.95 1.3-.07-.457-.035-1.266-.176-1.723.528.28.95.773 1.055 1.3.14-.492.457-1.37.738-1.582.28.563.563 1.23.528 1.793.175-.352.457-.984.738-1.125.246.387.21 1.23.14 1.688.247-.352.704-.773.985-.914.035.21.07.633 0 .95.316-.176.844-1.125 1.02-1.617.493.246.985 1.1 1.02 1.512.35-.14 1.055-.773 1.265-1.125 0 .246.106.914-.035 1.44.21-.21.422-.633.528-.81.14.352.035 1.195-.106 1.652.317-.28.774-.457 1.055-.457.035.598-.387 1.652-.774 2.426-3.375-.95-10.44-1.3-17.543-1.687z" class="D"/></g><path d="M221.63 30.495c-.017-.26.562-.846 1.597-.84 1.242.007 2.39.92 3.386.854s.505.26.296.345-.333.216-.26.374-.054.262-.455.115c-.886-.324-1.772.13-2.94-.122-1.014-.218-1.6-.338-1.624-.726z" class="C"/><g class="E B"><path d="M210.95 51.23c-1.054 1.266-2.1 1.055-2.32.246s.563-1.195.28-1.898.457-1.02.8-.703 1.476-.703 1.97.352.88 1.793.597 2.215-1.125.2-1.336-.2zm4.53-1.9c-.198-.463.897-1.353 1.46-.72s1.442-.685 1.934.316.65 1.53.897 2.092-1.336.86-1.83.37c.07.334-1.366.596-1.757-.352l-.704-1.705zm7.32.58c-.264-.492 1.02-1.195 1.687-.3.176-.37 1.442-.44 1.53.633l.158 2.127c.035.422-.773.8-1.354-.264-1.037.2-1.5-.37-1.634-.984s-.246-.914-.387-1.213z" class="C"/><path d="M211.63 49.208c-.158-.352.896-1.055 1.617-.527s1.72-.455 2.145.492c.86 1.916.914 2.057.65 2.426s-1.4.228-1.67-.28c-.053.352-1.023.294-1.53.018-.58-.316-.985-1.494-1.213-2.127zm7.4.088c-.246-.545 1.407-1.02 2.127-.07.37-.334 1.178-.352 1.635.685s.527 1.617.193 1.88c-.235.185-1.1.334-1.37-.14-.387.246-1.582.035-1.845-.633l-.74-1.723zm7 1.037c-.035-.492.862-.72 1.196 0s1.402.072 1.494 1.266c.017.228-.123 1.107-.457 1.53s-1.97 0-2.074-.896l-.16-1.898z" class="D"/><path d="M210.95 51.23c-.386-.527-.914-1.37-1.582-.457m5.012.544c-.228-.3-.527-.8-.633-1.178m4.193 1.248c-.246-.176-.615-.527-.808-.897m.498-.948c.615.07 1.037.65 1.23.914s.598.738.915.8m1.845.404c-.2-.334-.422-.633-.474-.88m.014-1.545c.2.3.37.545.492.826m3.168 2.057c-.28-.527-.72-1.037-1.1-1.213m.95-.72c.035 1.037 1.424 1.107 1.476 1.846m1.064-1.687c.14.264.193.527.2.967" fill="none"/></g></g></svg>