<svg xmlns="http://www.w3.org/2000/svg" xmlns:xlink="http://www.w3.org/1999/xlink" height="480" width="640"><style>.B{fill:#efef00}.C{fill:#ff0}.D{fill:#fff}.E{fill:#3b3bff}</style><defs><path id="C" d="M1528 377h172v2824h-172z"/><path id="D" d="M1548 405h132v2768h-132z"/><path id="E" d="M1492 358h56v2853h-56z"/><path id="F" d="M1512 383h16v2802h-16z"/><path id="G" d="M-851-7147H740v1171H-851z"/><path id="H" d="M-485-6804h859v632h-859z"/><path id="I" d="M411 1523h1591v1172H411z"/><path id="J" d="M777 1866h859v632H777z"/><linearGradient id="A" y2="0" gradientUnits="userSpaceOnUse" y1="0" x2="133.1" x1="-195"><stop offset="0"/><stop stop-color="#fff" offset="1"/></linearGradient><clipPath id="B"><path fill-opacity=".7" d="M-72 0h682v512H-72z"/></clipPath></defs><g clip-path="url(#B)" transform="translate(68) scale(.9375)"><path stroke="url(#A)" stroke-width=".1" fill="#090" d="M-115 0h308v512h-308z"/><g fill-rule="evenodd"><path fill="red" d="M192 0h461v512H192z"/><g transform="matrix(-.00552 .11122 .04541 -.0045 167 26)"><use xlink:href="#C"/><use xlink:href="#D" class="B"/><use xlink:href="#E"/><use xlink:href="#F" class="B"/><path d="M1680 358h56v2853h-56z"/><path d="M1700 383h16v2802h-16z" class="B"/></g><g transform="matrix(-.00552 .11122 .04541 -.0045 186 87)"><use xlink:href="#C"/><use xlink:href="#D" class="B"/><use xlink:href="#E"/><use xlink:href="#F" class="B"/><path d="M1680 358h56v2853h-56z"/><path d="M1700 383h16v2802h-16z" class="B"/></g><g transform="matrix(-.00552 .11122 .04541 -.0045 178 155)"><use xlink:href="#C"/><use xlink:href="#D" class="B"/><use xlink:href="#E"/><use xlink:href="#F" class="B"/><path d="M1680 358h56v2853h-56z"/><path d="M1700 383h16v2802h-16z" class="B"/></g><g transform="matrix(.00552 .11122 -.04541 -.0045 211 150)"><use xlink:href="#C"/><use xlink:href="#D" class="B"/><use xlink:href="#E"/><use xlink:href="#F" class="B"/><path d="M1680 358h56v2853h-56z"/><path d="M1700 383h16v2802h-16z" class="B"/></g><g transform="matrix(-.0329 .10029 -.04842 -.00515 262 112)"><use xlink:href="#C"/><use xlink:href="#D" class="B"/><use xlink:href="#E"/><use xlink:href="#F" class="B"/><path d="M1680 358h56v2853h-56z"/><path d="M1700 383h16v2802h-16z" class="B"/></g><g transform="matrix(-.08108 .0858 -.03561 -.0243 314 139)"><use xlink:href="#C"/><use xlink:href="#D" class="B"/><use xlink:href="#E"/><use xlink:href="#F" class="B"/><path d="M1680 358h56v2853h-56z"/><path d="M1700 383h16v2802h-16z" class="B"/></g><path d="M304 261zm27 0a142 142 0 110-1v1z" class="B"/><path d="M329 261a140 140 0 110-1v1zm-3 0a137 137 0 110-1v1zm-16 0zm-2 0z"/><g transform="matrix(.10329 0 0 .10136 25 80)"><use xlink:href="#C"/><use xlink:href="#D" class="B"/><use xlink:href="#E"/><use xlink:href="#F" class="B"/><path d="M1680 358h56v2853h-56z"/><path d="M1700 383h16v2802h-16z" class="B"/></g><g transform="matrix(.03836 .10456 -.0447 .00916 142 122)"><use xlink:href="#C"/><use xlink:href="#D" class="B"/><use xlink:href="#E"/><use xlink:href="#F" class="B"/><path d="M1680 358h56v2853h-56z"/><path d="M1700 383h16v2802h-16z" class="B"/></g><g transform="matrix(.00498 .1067 -.04687 .00508 187 67)"><use xlink:href="#C"/><use xlink:href="#D" class="B"/><use xlink:href="#E"/><use xlink:href="#F" class="B"/><path d="M1680 358h56v2853h-56z"/><path d="M1700 383h16v2802h-16z" class="B"/></g><g transform="matrix(-.06395 .09917 -.03947 -.01738 293 84)"><use xlink:href="#C"/><use xlink:href="#D" class="B"/><use xlink:href="#E"/><use xlink:href="#F" class="B"/><path d="M1680 358h56v2853h-56z"/><path d="M1700 383h16v2802h-16z" class="B"/></g><g transform="matrix(-.00138 .10664 -.0471 -.00228 353 72)"><use xlink:href="#C"/><use xlink:href="#D" class="B"/><use xlink:href="#E"/><use xlink:href="#F" class="B"/><path d="M1680 358h56v2853h-56z"/><path d="M1700 383h16v2802h-16z" class="B"/></g><g transform="matrix(.03038 .0955 -.0389 -.00122 278 35)"><use xlink:href="#C"/><use xlink:href="#D" class="B"/><use xlink:href="#E"/><use xlink:href="#F" class="B"/><path d="M1680 358h56v2853h-56z"/><path d="M1700 383h16v2802h-16z" class="B"/></g><g transform="matrix(-.04611 .0991 -.04335 -.01582 411 165)"><use xlink:href="#C"/><use xlink:href="#D" class="B"/><use xlink:href="#E"/><use xlink:href="#F" class="B"/><path d="M1680 358h56v2853h-56z"/><path d="M1700 383h16v2802h-16z" class="B"/></g><g fill="#f6f6fb" transform="matrix(.10329 0 0 .10306 24 75)"><path d="M799 896h1591v1171H799z"/><ellipse transform="matrix(1.0746 0 0 1.0635 -1480 -2504)" cx="2861.4" rx="740.2" cy="4267.3" ry="696"/><path d="M1165 1239h859v632h-859z"/><ellipse transform="matrix(.5803 0 0 .57429 -66 -509)" cx="2861.4" rx="740.2" cy="4267.3" ry="696"/></g><g transform="matrix(.09813 0 0 .0979 194 872)" fill="red"><use xlink:href="#G"/><ellipse transform="matrix(1.0746 0 0 1.0635 -3130 -10547)" cx="2861.4" rx="740.2" cy="4267.3" ry="696"/><use xlink:href="#H"/><ellipse transform="matrix(.5803 0 0 .57429 -1716 -8552)" cx="2861.4" rx="740.2" cy="4267.3" ry="696"/></g><g transform="matrix(.05857 0 0 .05844 192 626)" fill="#400"><use xlink:href="#G"/><ellipse transform="matrix(1.0746 0 0 1.0635 -3130 -10547)" cx="2861.4" rx="740.2" cy="4267.3" ry="696"/><use xlink:href="#H"/><ellipse transform="matrix(.5803 0 0 .57429 -1716 -8552)" cx="2861.4" rx="740.2" cy="4267.3" ry="696"/></g><g transform="matrix(.05286 0 0 .05274 191 591)" class="D"><use xlink:href="#G"/><ellipse transform="matrix(1.0746 0 0 1.0635 -3130 -10547)" cx="2861.4" rx="740.2" cy="4267.3" ry="696"/><use xlink:href="#H"/><ellipse transform="matrix(.5803 0 0 .57429 -1716 -8552)" cx="2861.4" rx="740.2" cy="4267.3" ry="696"/></g><g transform="matrix(.0155 0 0 .01546 170 257)" class="E"><use xlink:href="#I"/><ellipse transform="matrix(1.0746 0 0 1.0635 -1869 -1877)" cx="2861.4" rx="740.2" cy="4267.3" ry="696"/><use xlink:href="#J"/><ellipse transform="matrix(.5803 0 0 .57429 -454 118)" cx="2861.4" rx="740.2" cy="4267.3" ry="696"/><g transform="matrix(.95 0 0 .95 1259 8360)"><use xlink:href="#G"/><ellipse transform="matrix(1.0746 0 0 1.0635 -3130 -10547)" cx="2861.4" rx="740.2" cy="4267.3" ry="696"/><use xlink:href="#H"/><ellipse transform="matrix(.5803 0 0 .57429 -1716 -8552)" cx="2861.4" rx="740.2" cy="4267.3" ry="696"/></g><g transform="matrix(.567 0 0 .567 1238 5982)"><use xlink:href="#G"/><ellipse transform="matrix(1.0746 0 0 1.0635 -3130 -10547)" cx="2861.4" rx="740.2" cy="4267.3" ry="696"/><use xlink:href="#H"/><ellipse transform="matrix(.5803 0 0 .57429 -1716 -8552)" cx="2861.4" rx="740.2" cy="4267.3" ry="696"/></g><g transform="translate(1234 5639) scale(.51172)"><use xlink:href="#G"/><ellipse transform="matrix(1.0746 0 0 1.0635 -3130 -10547)" cx="2861.4" rx="740.2" cy="4267.3" ry="696"/><use xlink:href="#H"/><ellipse transform="matrix(.5803 0 0 .57429 -1716 -8552)" cx="2861.4" rx="740.2" cy="4267.3" ry="696"/></g></g><g class="D" transform="matrix(.10329 0 0 .10306 24 75)"><circle cx="1529.2" cy="2044.8" r="35.7"/><circle cx="1663" cy="2044.8" r="35.7"/><circle cx="1594.9" cy="2120" r="35.7"/><circle cx="1534.4" cy="2192.8" r="35.7"/><circle cx="1661.6" cy="2195.2" r="35.7"/></g><path d="M113 189v2h31v-2h-31zm2-7v7h27v-7h-27zm-2 22v2h31v-2h-31zm8-1c0-4 4-8 8-8s7 4 7 8m-15 0c0-4 3-8 8-8 4 0 8 4 8 8m-22-11v11h27v-11h-27zm-2-12v2h31v-2h-31zm0-3v3h2v-3h-2zm29 0v3h2v-3h-2zm-25 0v3h3v-3h-3zm20 0v3h2v-3h-2zm-15-3v3h3v-3h-3zm10 0v3h2v-3h-2zm-5 0v3h2v-3h-2zm-5 3v3h12v-3h-12z" class="C"/><path d="M122 182h2v3h-2zm11 0h2v3h-2z" fill="red"/><path d="M233 189v2h31v-2h-31zm2-6v6h27v-6h-27zm-2 21v2h31v-2h-31zm8-1c0-4 4-7 8-7s7 3 7 7m-15 1c0-5 3-9 8-9 4 0 8 4 8 9m-22-12v12h27v-12h-27zm-2-12v3h31v-3h-31zm0-3v3h2v-3h-2zm28 0v3h3v-3h-3zm-24 0v3h3v-3h-3zm20 0v3h2v-3h-2zm-15-3v3h2v-3h-2zm10 0v3h2v-3h-2zm-5 0v3h2v-3h-2zm-5 3v3h12v-3h-12z" class="C"/><path d="M242 182h2v3h-2zm11 0h2v3h-2z" fill="red"/><path d="M174 189v2h31v-2h-31zm2-6v6h27v-6h-27zm-2 21v2h31v-2h-31zm9-1c0-4 3-7 7-7s7 3 7 7m-15 1c0-5 3-9 8-9 4 0 8 4 8 9m-22-12v12h27v-12h-27zm-2-12v3h31v-3h-31zm0-3v3h2v-3h-2zm29 0v3h2v-3h-2zm-24 0v3h2v-3h-2zm19 0v3h2v-3h-2zm-15-3v3h3v-3h-3zm10 0v3h2v-3h-2zm-5 0v3h3v-3h-3zm-5 3v3h12v-3h-12z" class="C"/><path d="M183 182h3v3h-3zm11 0h2v3h-2z" fill="red"/><path d="M110 262v2h31v-2h-31zm3-7v7h26v-7h-26zm-3 22v2h32v-2h-32zm9-1c0-4 3-8 7-8s7 4 7 8m-15 1c0-5 4-9 8-9 5 0 8 4 8 9m-21-12v12h26v-12h-26zm-3-12v2h31v-2h-31zm0-3v3h2v-3h-2zm29 0v3h2v-3h-2zm-24 0v3h2v-3h-2zm19 0v3h2v-3h-2zm-14-3v3h2v-3h-2zm9 0v3h3v-3h-3zm-5 0v3h3v-3h-3zm-4 3v3h12v-3h-12z" class="C"/><path d="M119 255h3v3h-3zm11 0h3v3h-3z" fill="red"/><path d="M235 261v3h31v-3h-31zm3-6v6h26v-6h-26zm-3 21v2h31v-2h-31zm9-1c0-4 3-7 7-7s7 3 7 7m-15 1c0-5 3-9 8-9 4 0 8 4 8 9m-21-12v12h26v-12h-26zm-3-12v3h31v-3h-31zm0-3v4h2v-4h-2zm29 0v4h2v-4h-2zm-24 0v4h2v-4h-2zm19 0v4h2v-4h-2zm-15-3v4h3v-4h-3zm10 0v4h2v-4h-2zm-5 0v3h3v-3h-3zm-5 4v3h12v-3h-12z" class="C"/><path d="M244 254h3v3h-3zm11 0h2v3h-2z" fill="red"/><path d="M137 333l2 1 20-23-2-2-20 24zm-3-7l5 5 17-20-5-5-17 20zm15 16l1 2 21-24-2-2-20 24zm5-7c-4-2-4-7-1-10 2-3 7-4 10-1m-10 12c-3-3-4-8-1-12 3-3 8-3 12 0m-23 9l9 7 17-20-9-8-17 21zm-10-6l1 1 21-23-2-2-20 24zm-3-2l3 2 1-2-2-2-2 2zm19-22l2 2 2-2-2-2-2 2zm-16 18l3 2 1-1-2-2-2 1zm13-14l2 2 2-2-3-2-1 2zm-12 9l2 2 2-2-2-2-2 2zm6-7l3 2 1-2-2-2-2 2zm-3 3l3 2 1-2-2-2-2 2zm-1 6l3 2 8-9-3-2-8 9z" class="C"/><path d="M138 321l2-2 2 2-2 2zm7-8l2-2 2 2-2 2z" fill="red"/><path d="M241 332l-2 2-21-24 2-1 21 23zm3-6l-5 4-18-20 5-4 18 20zm-15 16l-2 1-20-23 2-2 20 24zm-5-7c3-3 4-8 1-11-2-3-7-3-10 0m9 12c4-3 4-8 2-12-3-3-9-4-12 0m23 8l-9 8-18-20 9-8 18 20zm10-5l-1 1-21-24 2-1 20 24zm3-2l-3 2-1-2 2-2 2 2zm-19-22l-3 2-1-2 2-2 2 2zm15 18l-2 2-2-2 3-2 1 2zm-12-15l-2 3-2-2 2-2 2 1zm12 9l-3 3-1-2 2-2 2 1zm-7-7l-2 2-2-2 3-2 1 2zm3 4l-2 2-1-2 2-2 1 2zm1 6l-2 2-8-10 2-2 8 10z" class="C"/><path d="M240 321l-2-2-2 2 1 2zm-7-9l-2-1-2 2 1 2z" fill="red"/><g transform="matrix(.0155 0 0 .01546 170 192)" class="E"><use xlink:href="#I"/><ellipse transform="matrix(1.0746 0 0 1.0635 -1869 -1877)" cx="2861.4" rx="740.2" cy="4267.3" ry="696"/><use xlink:href="#J"/><ellipse transform="matrix(.5803 0 0 .57429 -454 118)" cx="2861.4" rx="740.2" cy="4267.3" ry="696"/><g transform="matrix(.95 0 0 .95 1259 8360)"><use xlink:href="#G"/><ellipse transform="matrix(1.0746 0 0 1.0635 -3130 -10547)" cx="2861.4" rx="740.2" cy="4267.3" ry="696"/><use xlink:href="#H"/><ellipse transform="matrix(.5803 0 0 .57429 -1716 -8552)" cx="2861.4" rx="740.2" cy="4267.3" ry="696"/></g><g transform="matrix(.567 0 0 .567 1238 5982)"><use xlink:href="#G"/><ellipse transform="matrix(1.0746 0 0 1.0635 -3130 -10547)" cx="2861.4" rx="740.2" cy="4267.3" ry="696"/><use xlink:href="#H"/><ellipse transform="matrix(.5803 0 0 .57429 -1716 -8552)" cx="2861.4" rx="740.2" cy="4267.3" ry="696"/></g><g transform="translate(1234 5639) scale(.51172)"><use xlink:href="#G"/><ellipse transform="matrix(1.0746 0 0 1.0635 -3130 -10547)" cx="2861.4" rx="740.2" cy="4267.3" ry="696"/><use xlink:href="#H"/><ellipse transform="matrix(.5803 0 0 .57429 -1716 -8552)" cx="2861.4" rx="740.2" cy="4267.3" ry="696"/></g></g><g class="D" transform="matrix(.10329 0 0 .10306 24 75)"><circle cx="1525.4" cy="1420.9" r="35.7"/><circle cx="1659.2" cy="1420.9" r="35.7"/><circle cx="1591.1" cy="1496" r="35.7"/><circle cx="1530.6" cy="1568.8" r="35.7"/><circle cx="1657.8" cy="1571.2" r="35.7"/></g><g transform="matrix(.0155 0 0 .01546 170 224)" class="E"><use xlink:href="#I"/><ellipse transform="matrix(1.0746 0 0 1.0635 -1869 -1877)" cx="2861.4" rx="740.2" cy="4267.3" ry="696"/><use xlink:href="#J"/><ellipse transform="matrix(.5803 0 0 .57429 -454 118)" cx="2861.4" rx="740.2" cy="4267.3" ry="696"/><g transform="matrix(.95 0 0 .95 1259 8360)"><use xlink:href="#G"/><ellipse transform="matrix(1.0746 0 0 1.0635 -3130 -10547)" cx="2861.4" rx="740.2" cy="4267.3" ry="696"/><use xlink:href="#H"/><ellipse transform="matrix(.5803 0 0 .57429 -1716 -8552)" cx="2861.4" rx="740.2" cy="4267.3" ry="696"/></g><g transform="matrix(.567 0 0 .567 1238 5982)"><use xlink:href="#G"/><ellipse transform="matrix(1.0746 0 0 1.0635 -3130 -10547)" cx="2861.4" rx="740.2" cy="4267.3" ry="696"/><use xlink:href="#H"/><ellipse transform="matrix(.5803 0 0 .57429 -1716 -8552)" cx="2861.4" rx="740.2" cy="4267.3" ry="696"/></g><g transform="translate(1234 5639) scale(.51172)"><use xlink:href="#G"/><ellipse transform="matrix(1.0746 0 0 1.0635 -3130 -10547)" cx="2861.4" rx="740.2" cy="4267.3" ry="696"/><use xlink:href="#H"/><ellipse transform="matrix(.5803 0 0 .57429 -1716 -8552)" cx="2861.4" rx="740.2" cy="4267.3" ry="696"/></g></g><g class="D" transform="matrix(.10329 0 0 .10306 24 75)"><circle cx="1525.4" cy="1731" r="35.7"/><circle cx="1659.2" cy="1731" r="35.7"/><circle cx="1591.1" cy="1806.1" r="35.7"/><circle cx="1530.6" cy="1878.9" r="35.7"/><circle cx="1657.8" cy="1881.3" r="35.7"/></g><g transform="matrix(.0155 0 0 .01546 197 224)" class="E"><use xlink:href="#I"/><ellipse transform="matrix(1.0746 0 0 1.0635 -1869 -1877)" cx="2861.4" rx="740.2" cy="4267.3" ry="696"/><use xlink:href="#J"/><ellipse transform="matrix(.5803 0 0 .57429 -454 118)" cx="2861.4" rx="740.2" cy="4267.3" ry="696"/><g transform="matrix(.95 0 0 .95 1259 8360)"><use xlink:href="#G"/><ellipse transform="matrix(1.0746 0 0 1.0635 -3130 -10547)" cx="2861.4" rx="740.2" cy="4267.3" ry="696"/><use xlink:href="#H"/><ellipse transform="matrix(.5803 0 0 .57429 -1716 -8552)" cx="2861.4" rx="740.2" cy="4267.3" ry="696"/></g><g transform="matrix(.567 0 0 .567 1238 5982)"><use xlink:href="#G"/><ellipse transform="matrix(1.0746 0 0 1.0635 -3130 -10547)" cx="2861.4" rx="740.2" cy="4267.3" ry="696"/><use xlink:href="#H"/><ellipse transform="matrix(.5803 0 0 .57429 -1716 -8552)" cx="2861.4" rx="740.2" cy="4267.3" ry="696"/></g><g transform="translate(1234 5639) scale(.51172)"><use xlink:href="#G"/><ellipse transform="matrix(1.0746 0 0 1.0635 -3130 -10547)" cx="2861.4" rx="740.2" cy="4267.3" ry="696"/><use xlink:href="#H"/><ellipse transform="matrix(.5803 0 0 .57429 -1716 -8552)" cx="2861.4" rx="740.2" cy="4267.3" ry="696"/></g></g><g class="D" transform="matrix(.10329 0 0 .10306 24 75)"><circle cx="1790.1" cy="1731" r="35.7"/><circle cx="1923.9" cy="1731" r="35.7"/><circle cx="1855.8" cy="1806.1" r="35.7"/><circle cx="1795.3" cy="1878.9" r="35.7"/><circle cx="1922.5" cy="1881.3" r="35.7"/></g><g transform="matrix(.0155 0 0 .01546 142 224)" class="E"><use xlink:href="#I"/><ellipse transform="matrix(1.0746 0 0 1.0635 -1869 -1877)" cx="2861.4" rx="740.2" cy="4267.3" ry="696"/><use xlink:href="#J"/><ellipse transform="matrix(.5803 0 0 .57429 -454 118)" cx="2861.4" rx="740.2" cy="4267.3" ry="696"/><g transform="matrix(.95 0 0 .95 1259 8360)"><use xlink:href="#G"/><ellipse transform="matrix(1.0746 0 0 1.0635 -3130 -10547)" cx="2861.4" rx="740.2" cy="4267.3" ry="696"/><use xlink:href="#H"/><ellipse transform="matrix(.5803 0 0 .57429 -1716 -8552)" cx="2861.4" rx="740.2" cy="4267.3" ry="696"/></g><g transform="matrix(.567 0 0 .567 1238 5982)"><use xlink:href="#G"/><ellipse transform="matrix(1.0746 0 0 1.0635 -3130 -10547)" cx="2861.4" rx="740.2" cy="4267.3" ry="696"/><use xlink:href="#H"/><ellipse transform="matrix(.5803 0 0 .57429 -1716 -8552)" cx="2861.4" rx="740.2" cy="4267.3" ry="696"/></g><g transform="translate(1234 5639) scale(.51172)"><use xlink:href="#G"/><ellipse transform="matrix(1.0746 0 0 1.0635 -3130 -10547)" cx="2861.4" rx="740.2" cy="4267.3" ry="696"/><use xlink:href="#H"/><ellipse transform="matrix(.5803 0 0 .57429 -1716 -8552)" cx="2861.4" rx="740.2" cy="4267.3" ry="696"/></g></g><g class="D" transform="matrix(.10329 0 0 .10306 24 75)"><circle cx="1260.7" cy="1731" r="35.7"/><circle cx="1394.5" cy="1731" r="35.7"/><circle cx="1326.4" cy="1806.1" r="35.7"/><circle cx="1265.9" cy="1878.9" r="35.7"/><circle cx="1393" cy="1881.3" r="35.7"/></g></g></g></svg>