<svg xmlns="http://www.w3.org/2000/svg" xmlns:xlink="http://www.w3.org/1999/xlink" height="480" width="640"><style>.B{stroke-width:2.637}.C{stroke-width:1.791}.D{stroke-width:1.108}.E{fill-rule:evenodd}</style><defs><path id="B" d="M320 487c0 60-11 109-26 109s-26-49-26-109 12-108 26-108 26 48 26 108z"/><path id="C" d="M290 515c0 45-7 81-16 81s-16-36-16-81 7-80 16-80 16 36 16 80z"/><path id="D" d="M271 592l-26-9c-4-2-4-13-18-18s-28-3-35 1-5 10 12 17 28 0 37 2 22 7 29 11c7-3 25-6 34-8s34 3 51-3c14-6 20-16 11-19s-28-2-38 1-16 16-26 18c-8 2-30 8-31 7z"/><path id="E" d="M356 535c-16 41-39 72-51 67s-7-42 10-84 39-72 51-68 7 43-10 85z"/><path id="F" d="M287 519c22 39 31 76 20 82s-38-21-59-61-31-76-20-82 37 21 59 61z"/><path id="G" d="M325 521c0 45-10 82-23 82s-22-37-22-82 10-81 22-81 23 36 23 81z"/><path id="H" d="M332 605l21-165 18 165-20 28-19-28z"/><path id="I" d="M248 462c30 49 78 122 102 171 26-52 75-128 104-175-31 36-71 88-104 116-34-28-71-78-102-112z"/><clipPath id="A"><path fill-opacity=".7" d="M-64 0h640v512H-64z"/></clipPath></defs><g clip-path="url(#A)" transform="matrix(1 0 0 .9375 64 0)"><g class="E"><path fill="#fff" d="M-256 172H768v168H-256z"/><path fill="#3d25ca" d="M-256 340H768v172H-256z"/><path fill="#d60000" d="M-256 0H768v172H-256z"/></g><g stroke="#000"><path d="M322 256a66 66 0 11-132 0 66 66 0 01132 0z" fill="#fff" stroke-width="2.42875" class="E"/><g class="E"><g fill="#006700"><path d="M259 106s400 70 414 395c15 325-188 368-259 420-70 51-113 113-146 113s-80-15-80-15 10 52 76 47 127-113 165-131 277-99 259-429c-14-353-424-391-429-400z" class="B" transform="matrix(.06601 .0151 -.01645 .06856 250 214)"/><g transform="matrix(.03462 -.03549 .03133 .03257 249 224)"><g class="B"><use xlink:href="#B" transform="matrix(.50148 .47086 -.3188 .60446 321 93)"/><use xlink:href="#B" transform="matrix(.5715 .29659 -.20081 .68886 225 97)"/><use xlink:href="#B" transform="matrix(.5061 -.46199 .3128 .61002 -65 364)"/><use xlink:href="#B" transform="matrix(.5931 -.20779 .14069 .7149 10 224)"/></g><use xlink:href="#C" class="C"/><use xlink:href="#D" class="D"/></g><g transform="matrix(.0597 -.03533 .0326 .06066 248 215)"><g class="B"><use xlink:href="#B" transform="matrix(.50148 .47086 -.3188 .60446 321 93)"/><use xlink:href="#B" transform="matrix(.5715 .29659 -.20081 .68886 225 97)"/><use xlink:href="#B" transform="matrix(.5061 -.46199 .3128 .61002 -65 364)"/><use xlink:href="#B" transform="matrix(.5931 -.20779 .14069 .7149 10 224)"/></g><use xlink:href="#C" class="C"/><use xlink:href="#D" class="D"/></g><g transform="matrix(.06473 -.02343 .02093 .06618 257 219)"><g class="B"><use xlink:href="#B" transform="matrix(.50148 .47086 -.3188 .60446 321 93)"/><use xlink:href="#B" transform="matrix(.5715 .29659 -.20081 .68886 225 97)"/><use xlink:href="#B" transform="matrix(.5061 -.46199 .3128 .61002 -65 364)"/><use xlink:href="#B" transform="matrix(.5931 -.20779 .14069 .7149 10 224)"/></g><use xlink:href="#C" class="C"/><use xlink:href="#D" class="D"/></g><g transform="matrix(.0677 .00504 -.00675 .07002 271 219)"><g class="B"><use xlink:href="#B" transform="matrix(.50148 .47086 -.3188 .60446 321 93)"/><use xlink:href="#B" transform="matrix(.5715 .29659 -.20081 .68886 225 97)"/><use xlink:href="#B" transform="matrix(.5061 -.46199 .3128 .61002 -65 364)"/><use xlink:href="#B" transform="matrix(.5931 -.20779 .14069 .7149 10 224)"/></g><use xlink:href="#C" class="C"/><use xlink:href="#D" class="D"/></g><g transform="matrix(.07286 .03005 -.03044 .07485 279 220)"><g class="B"><use xlink:href="#B" transform="matrix(.50148 .47086 -.3188 .60446 321 93)"/><use xlink:href="#B" transform="matrix(.5715 .29659 -.20081 .68886 225 97)"/><use xlink:href="#B" transform="matrix(.5061 -.46199 .3128 .61002 -65 364)"/><use xlink:href="#B" transform="matrix(.5931 -.20779 .14069 .7149 10 224)"/></g><use xlink:href="#C" class="C"/><use xlink:href="#D" class="D"/></g><g transform="matrix(.0539 .07072 -.07026 .05358 299 229)"><g class="B"><use xlink:href="#B" transform="matrix(.50148 .47086 -.3188 .60446 321 93)"/><use xlink:href="#B" transform="matrix(.5715 .29659 -.20081 .68886 225 97)"/><use xlink:href="#B" transform="matrix(.5061 -.46199 .3128 .61002 -65 364)"/><use xlink:href="#B" transform="matrix(.5931 -.20779 .14069 .7149 10 224)"/></g><use xlink:href="#C" class="C"/><use xlink:href="#D" class="D"/></g><g transform="matrix(.02999 .07837 -.07565 .03262 297 241)" class="B"><use xlink:href="#E"/><use xlink:href="#F"/><use xlink:href="#G"/></g><g transform="matrix(.01843 -.03014 .04772 .02428 238 224)" class="B"><use xlink:href="#E"/><use xlink:href="#F"/><use xlink:href="#G"/></g><g transform="matrix(.07352 -.0019 .00129 .07047 238 225)" class="B"><path d="M339 586s113 33 212 90c99 56 252 272 292 281 45-2 106-38 127-165-68 43-108 102-175 40-24-14-103-138-187-199-85-61-255-122-255-122l-14 75z" transform="matrix(.67307 .06127 -.02185 .36561 -223 555)"/><use xlink:href="#H" transform="matrix(-.2202 -.58061 -.5617 .20187 498 149)"/><use xlink:href="#I" transform="matrix(-.22082 -.58039 -.56146 .20252 482 154)"/><use xlink:href="#H" transform="matrix(-.31222 -.53799 -.51625 .29737 486 83)"/><use xlink:href="#I" transform="matrix(-.23174 -.60068 -.55952 .20773 468 155)"/><use xlink:href="#H" transform="matrix(-.16989 -.59613 -.57891 .14997 463 196)"/><use xlink:href="#I" transform="matrix(-.29638 -.58472 -.52952 .27541 460 120)"/><use xlink:href="#H" transform="matrix(-.41657 -.46086 -.43642 .40677 450 -4)"/><use xlink:href="#I" transform="matrix(-.37077 -.61687 -.53581 .34039 481 103)"/><use xlink:href="#H" transform="matrix(-.39501 -.59481 -.51356 .36652 476 83)"/><use xlink:href="#I" transform="matrix(-.27938 -.66608 -.64876 .38722 494 96)"/><use xlink:href="#H" transform="matrix(-.31006 -.64126 -.62984 .41526 493 74)"/><use xlink:href="#I" transform="matrix(-.36811 -.60966 -.58877 .47184 474 45)"/><use xlink:href="#H" transform="matrix(-.46201 -.52149 -.51837 .56778 463 -42)"/><use xlink:href="#I" transform="matrix(-.33504 -.62763 -.6138 .43994 456 76)"/><use xlink:href="#H" transform="matrix(-.31416 -.6493 -.61924 .41561 462 103)"/><use xlink:href="#I" transform="matrix(-.40162 -.57445 -.57246 .50741 441 36)"/><use xlink:href="#H" transform="matrix(-.53889 -.41956 -.44565 .64143 415 -106)"/><use xlink:href="#I" transform="matrix(-.50728 -.62456 -.5684 .59428 466 15)"/><use xlink:href="#H" transform="matrix(-.5321 -.58958 -.53942 .61853 458 -9)"/><use xlink:href="#I" transform="matrix(-.5327 -.58889 -.53882 .61919 441 7)"/><use xlink:href="#H" transform="matrix(-.61584 -.4762 -.44141 .70952 411 -85)"/><use xlink:href="#I" transform="matrix(-.47964 -.63197 -.59086 .57072 436 57)"/><use xlink:href="#H" transform="matrix(-.42049 -.68402 -.63433 .50718 449 119)"/><use xlink:href="#I" transform="matrix(-.43061 -.69232 -.61096 .52059 414 112)"/><use xlink:href="#H" transform="matrix(-.57704 -.52972 -.4751 .68536 386 -51)"/><use xlink:href="#I" transform="matrix(-.59455 -.63298 -.59222 .76522 452 -30)"/><use xlink:href="#H" transform="matrix(-.6199 -.58928 -.55891 .78836 441 -56)"/><use xlink:href="#I" transform="matrix(-.62052 -.5884 -.55822 .78902 424 -35)"/><use xlink:href="#H" transform="matrix(-.70568 -.44711 -.44574 .87684 385 -135)"/><use xlink:href="#I" transform="matrix(-.62455 -.58268 -.55371 .79325 403 -26)"/><use xlink:href="#H" transform="matrix(-.56829 -.65639 -.61131 .73342 427 40)"/><use xlink:href="#I" transform="matrix(-.7337 -.39339 -.39064 .90553 351 -132)"/><use xlink:href="#H" transform="matrix(-.81096 -.13952 -.18237 .97738 252 -273)"/><use xlink:href="#I" transform="matrix(-.73184 -.39768 -.39411 .90366 341 -115)"/><use xlink:href="#H" transform="matrix(-.75038 -.35265 -.35755 .92216 328 -141)"/><use xlink:href="#I" transform="matrix(-.7978 -.31648 -.31043 .97647 314 -166)"/><use xlink:href="#H" transform="matrix(-.83868 -.1475 -.17163 1.0158 244 -245)"/><use xlink:href="#I" transform="matrix(-.76499 -.40186 -.38396 .94508 327 -102)"/><use xlink:href="#H" transform="matrix(-.72444 -.49104 -.45587 .90197 366 -43)"/><use xlink:href="#I" transform="matrix(-.7561 -.31701 -.29476 .99159 283 -144)"/><use xlink:href="#H" transform="matrix(-.85152 -.04061 -.08661 1.0261 187 -260)"/><use xlink:href="#I" transform="matrix(-.76356 -.31091 -.26627 .99585 254 -135)"/><use xlink:href="#H" transform="matrix(-.77576 -.26144 -.22831 1.01 238 -160)"/><use xlink:href="#I" transform="matrix(-.7845 -.23176 -.19317 1.0177 218 -158)"/><use xlink:href="#H" transform="matrix(-.80583 -.05704 -.0583 1.0422 144 -231)"/><use xlink:href="#I" transform="matrix(-.79918 -.19047 -.14475 1.0357 196 -167)"/><use xlink:href="#H" transform="matrix(-.78151 -.28937 -.22108 1.0126 245 -120)"/><use xlink:href="#I" transform="matrix(-.81036 -.07337 -.05442 1.0506 150 -187)"/><use xlink:href="#H" transform="matrix(-.79583 .20748 .16214 1.0325 11 -283)"/><use xlink:href="#I" transform="matrix(-.8323 -.07382 -.06323 1.0471 159 -166)"/><use xlink:href="#H" transform="matrix(-.83441 -.02211 -.02213 1.0495 137 -186)"/><use xlink:href="#I" transform="matrix(-.83091 -.09424 -.07947 1.0455 168 -145)"/><use xlink:href="#H" transform="matrix(-.83242 .08318 .0616 1.0464 84 -205)"/><use xlink:href="#I" transform="matrix(-.82497 -.15415 -.12707 1.0384 176 -103)"/><use xlink:href="#H" transform="matrix(-.80889 -.25347 -.20596 1.0187 224 -58)"/><use xlink:href="#I" transform="matrix(-.83401 -.03699 -.03396 1.0491 137 -132)"/><use xlink:href="#H" transform="matrix(-.81322 .24218 .18814 1.0214 -19 -210)"/><use xlink:href="#I" transform="matrix(-.82635 .15381 .1178 1.0384 58 -162)"/><use xlink:href="#H" transform="matrix(-.80657 .27576 .21488 1.0129 8 -201)"/><use xlink:href="#I" transform="matrix(-.82529 .16284 .12499 1.037 54 -147)"/><use xlink:href="#H" transform="matrix(-.77235 .4034 .31656 .96913 -65 -190)"/><use xlink:href="#I" transform="matrix(-.80048 .28493 .23828 1.0098 -10 -151)"/><use xlink:href="#H" transform="matrix(-.8276 .14227 .10861 1.0401 83 -123)"/><use xlink:href="#I" transform="matrix(-.76878 .39613 .32636 .97156 -59 -143)"/><use xlink:href="#H" transform="matrix(-.6549 .6393 .51831 .83196 -221 -149)"/><use xlink:href="#I" transform="matrix(-.77032 .39153 .32271 .97342 -55 -122)"/><use xlink:href="#H" transform="matrix(-.75348 .43904 .36029 .95294 -81 -128)"/><use xlink:href="#I" transform="matrix(-.75308 .44009 .36113 .95245 -73 -100)"/><use xlink:href="#H" transform="matrix(-.6815 .59422 .4828 .86473 -170 -99)"/><use xlink:href="#I" transform="matrix(-.75044 .44697 .36657 .94924 -76 -73)"/><use xlink:href="#H" transform="matrix(-.78227 .35344 .29256 .98789 -13 -72)"/><use xlink:href="#I" transform="matrix(-.70471 .55038 .44824 .89327 -123 -55)"/><use xlink:href="#H" transform="matrix(-.49745 .81292 .67456 .65902 -327 -31)"/><use xlink:href="#I" transform="matrix(-.67755 .57664 .49337 .8733 -146 -46)"/><use xlink:href="#H" transform="matrix(-.65241 .61898 .52617 .84381 -173 -45)"/><use xlink:href="#I" transform="matrix(-.65182 .61993 .5269 .84312 -160 -20)"/><use xlink:href="#H" transform="matrix(-.50705 .80342 .66738 .67058 -286 20)"/><use xlink:href="#I" transform="matrix(-.60805 .68475 .57686 .79138 -190 13)"/><use xlink:href="#H" transform="matrix(-.66079 .60532 .5156 .85367 -130 -7)"/><use xlink:href="#I" transform="matrix(-.53968 .769 .64128 .70978 -231 46)"/><use xlink:href="#H" transform="matrix(-.1955 .9766 .82904 .34045 -469 181)"/><use xlink:href="#I" transform="matrix(-.54271 .76564 .63872 .71342 -220 63)"/><use xlink:href="#H" transform="matrix(-.37436 .87687 .7651 .5484 -348 104)"/><use xlink:href="#I" transform="matrix(-.37351 .87749 .76552 .54743 -328 121)"/><use xlink:href="#H" transform="matrix(-.23925 .95715 .81749 .39183 -404 188)"/><use xlink:href="#I" transform="matrix(-.36797 .88142 .7682 .54107 -316 146)"/><use xlink:href="#H" transform="matrix(-.44027 .82519 .72917 .62347 -266 104)"/><use xlink:href="#I" transform="matrix(-.2797 .93643 .80455 .43904 -344 192)"/><use xlink:href="#H" transform="matrix(-.05663 1.0193 .8499 .17535 -457 323)"/><use xlink:href="#H" transform="matrix(.02017 -.39188 -.61627 .0403 499 161)"/><use xlink:href="#I" transform="matrix(.01602 -.40284 -.61767 .03636 470 163)"/><use xlink:href="#H" transform="matrix(-.0846 -.37938 -.61077 .10615 526 121)"/><use xlink:href="#I" transform="matrix(-.18817 -.47728 -.59826 .20148 516 112)"/><use xlink:href="#H" transform="matrix(.07434 -.39391 -.61211 .00565 437 192)"/><use xlink:href="#I" transform="matrix(-.05405 -.3842 -.61423 .08711 465 146)"/><use xlink:href="#H" transform="matrix(-.21479 -.34741 -.57798 .18575 504 67)"/><use xlink:href="#I" transform="matrix(-.12891 -.54735 -.45778 .08623 408 198)"/><use xlink:href="#H" transform="matrix(-.15109 -.5387 -.44765 .11133 409 183)"/><use xlink:href="#H" transform="matrix(.02956 .99554 .88443 .1449 -528 335)"/><use xlink:href="#H" transform="matrix(-.16718 .93867 .86898 .36192 -427 234)"/><use xlink:href="#H" transform="matrix(-.01745 .98644 .88475 .19757 -462 328)"/><use xlink:href="#I" transform="matrix(-.15992 .94166 .87035 .35408 -387 267)"/><use xlink:href="#H" transform="matrix(-.24302 .90317 .8509 .44315 -347 215)"/><use xlink:href="#I" transform="matrix(-.06152 .97537 .88278 .24648 -403 319)"/><use xlink:href="#H" transform="matrix(.17448 1.0058 .86755 -.02064 -484 472)"/><use xlink:href="#H" transform="matrix(.10114 .99083 .89256 .08086 -503 405)"/><use xlink:href="#H" transform="matrix(-.09917 .94827 .89278 .29843 -410 297)"/><use xlink:href="#H" transform="matrix(.0536 .98514 .89668 .13336 -439 393)"/><use xlink:href="#I" transform="matrix(-.09172 .95073 .89358 .29051 -368 327)"/><use xlink:href="#H" transform="matrix(-.17738 .91832 .88059 .38075 -332 273)"/><use xlink:href="#I" transform="matrix(.00885 .97727 .89823 .18229 -381 380)"/><use xlink:href="#H" transform="matrix(.24643 .99065 .86381 -.08304 -450 538)"/></g></g><path d="M638 517c0 159-127 287-283 287S72 676 72 517s127-287 283-287 283 129 283 287z" fill="#3d25ca" stroke-width="6.3" transform="matrix(.07357 0 0 .07373 230 217)"/><path d="M521 690l-156-96-156 96 58-153-136-96h175l59-153 58 153h176l-137 96 59 153z" fill="#ffd900" stroke-width="3" transform="matrix(.07357 0 0 .07373 230 217)"/></g><g fill="none" stroke-width="2.9"><path d="M131 441l234 57m0-210v210m0 0v96m0-96l97 39M306 441l59 57m0 0l58-57m176 0l-234 57m0 0l156 192M365 498L209 690M267 537l98-39" transform="matrix(.07357 0 0 .07373 230 217)"/></g><path d="M298 256a42 42 0 11-84 0 42 42 0 0184 0zm14 0a56 56 0 11-112 0 56 56 0 01112 0z" fill="#d60000" stroke-width=".271875" class="E"/></g><path d="M299 266l4 1 6-1-1 2h-5l1 2 2 2v1l-4-5-4-1 1-1zm10-14v1l-5 1h-2l-2-1v-2-2l1-1 2-1h6v1h-6l-1 1h-1v3h8zm-7-11h1l1 3-4 1-1-1a4 4 0 01-1-4l2-2 2-1h2l2 1 1 2v3l-2 1v-1l1-1v-1-1-1l-1-1a3 3 0 00-1 0h-2l-2 1-1 1v2l1 1 1 1 1-1v-2zm-39-29l1-10 1 1-1 8h4v1h-5zm-9-1v-9h6v1h-5v3h4v1h-4v3h5v1h-6zm-26 6l1-1v3l-1 2-2 1-2-1a7 7 0 01-3-3 4 4 0 011-4l2-1 2 1h-3a2 2 0 00-1 3l1 2 2 1 1 1 2-1v-1-2zm-4 8l-7-6 1-1 7 6-1 1zm-5 5l-7-5 1-1 6 5 3-3h1l-4 4zm-13 6v-1l5 2 2 1 1 1v2l-1 2h-4l-5-2v-1l5 2h3l1-1v-2l-2-1-5-2zm5 22h-9v-6h1v5h3v-4h1v4h3v-5h1v6zm35-46l-2-9h3l1-1 2 1 1 1 1 2v2l-1 2v1h-1l-1 1h-3zm1-1h1l2-1 1-2-1-1v-3h-2-3l2 7zm29 5l4-8 3 1 1 1 1 1v2l-2 2-2-1-2-1-2 4-1-1zm3-4l2 1h3v-1l-1-1v-1l-2-1-2 3zm2 6l8-4h1l-4 10v-1l1-3-3-2-2 1-1-1zm4-1l2 2 1-2 1-2a13 13 0 01-1 1l-3 1zm2 8l8-6 2 3 1 1v2l-1 1h-4v2l-1 3-1-2 1-2v-1l1-1h-1v-1l-1-1-3 3-1-1zm5-3l2 2v1h1a2 2 0 001 0l1-1-1-1-1-2-3 1zm0 9l10-2 1 1-7 8-1-1 2-2-1-3h-3l-1-1zm5 0l1 3 2-2 1-2-1 1h-3zm4 24l8 4v2l-9 2v-1l3-1v-3l-3-2 1-1zm3 3v3l2-1h2l-1-1-3-1zm-91 9l-10 2v-5-1l1-1h2l1 2 1-1 1-1 2-2v1l-1 2-1 1h-1v3l4-1 1 1zm-6 0v-2l-1-1v-1h-1l-1 1v4l3-1zm4-17l-9-1v-3l1-1v-1l1-1h1l2 1 1 3v2h3v1zm-4-1v-3l-1-1-1-1-1 1-1 1v2l4 1zm8-13l-7-5 1-2 1-2h2l1 1a2 2 0 011 0v2l1-1 1 1 1 1 1 1v1l-1 1-2 2zm-4-4l1-1 1-1v-1h-1l-1-1v1h-1l-1 2 2 1zm4 3l1-2v-1h1l-1-1-1-1-1 1h-1l-1 2 3 2zm16-17l-3-9 1-1 8 6-1 1-2-2-3 2 1 3h-1zm0-4l2-2-2-1-2-2a13 13 0 011 2l1 3z" fill="#ffe600"/></g></svg>