<svg xmlns="http://www.w3.org/2000/svg" xmlns:xlink="http://www.w3.org/1999/xlink" width="640" height="480"><style>.B{fill:#21231e}.C{fill:#fff}.D{fill:#edb92e}.E{stroke:#21231e}.F{stroke-width:.994}.G{fill:#0c4076}.H{fill:#c6363c}</style><defs><path id="B" d="M405 190c4 0 6 3 6 7s-2 6-6 6-6-3-6-6 2-7 6-7z"/><path id="C" d="M381 143c3 0 6 2 6 6s-3 6-6 6-7-3-7-6 3-6 7-6z"/><path id="D" d="M457 280c2 0 4 2 4 4s-2 3-4 3-3-2-3-3 2-4 3-4z"/><path id="E" d="M395 169c4 0 7 3 7 6s-3 7-7 7-6-3-6-7 3-6 6-6z"/><path id="F" d="M482 127c4 0 7 3 7 7s-3 7-7 7-7-3-7-7 3-7 7-7z"/><path id="G" d="M482 212c4 0 8 3 8 7s-4 8-8 8-8-3-8-8 4-7 8-7z"/><clipPath id="A"><path d="M60 0h1200v900H60z" fill-rule="evenodd"/></clipPath></defs><g transform="matrix(.53333 0 0 .53333 -32 0)" clip-path="url(#A)"><path d="M0 0h1350v900H0z" class="C"/><path d="M0 0h1350v600H0z" class="G"/><path d="M0 0h1350v300H0z" class="H"/><g transform="matrix(1 0 0 1.00437 0 0)"><path d="M473 259h1v1l-1-1zm1 0v1-1zm-93 6h-1l1-1 23-1h4l11-1 6-1h12l6-1h13l7-1h11v1h-11l-7 1h-13l-8 1h-3l-13 1-18 1-20 1zm-1 0v-1h1l-1 1zm7 31l-7-31h1l7 31h-1zm0 0zm95-4v1l-9 1h-26l-43 2h-17v-1h9l17-1 69-2zm0 0zm94 4h1-17l-12-1h-9l-51-2h-6v-1h3l9 1h9l21 1h18l15 1h20l-1 1zm1 0zm7-31l-7 31h-1l7-31 1-1v1zm0-1v1-1zm-94-5h1-1 12l4 1h15l3 1h12l10 1h7l11 1 11 1h9l-1 1-12-1h-7l-15-1h-3l-10-1h-12l-6-1h-12l-6-1h-10v-1zm0 1v-1 1zm1-1h-1 1zm-1 0zm-8 1v-1h1l1-1h7v2l-1-1h1-1 1-7l-1 1h-1zm0 0zm-8 0v-1 1h-1v-2h8l1 1v1h-1l-1-1h-6v1zm0-1v1l-1-1h1zm-1 0h1-1z" class="B"/><path d="M583 264c4-6 7-13 12-18-12 8-18 7-19-4l-3-1c-9 14-17 12-26-6-11 19-21 19-29-1-13 17-25 17-34 1v-2h-1v-1l-1 1-1-1v1h-1v2c-9 16-20 16-34-1-7 20-17 20-29 1-8 18-17 20-26 6l-3 1c-1 11-7 12-18 4l11 18 101-5 101 5z" class="D"/><path d="M595 246l-1-1 1 1-1 1-1 1v1l-1 1v1h-1v1h-1v2h-1v1l-1 1v1l-1 1v1l-1 1v1h-1v2l-1 1h-1v-1l1-1 1-1v-1l1-1v-2h1v-2h1v-1h1v-2h1v-1l1-1v-1l1-1 1-1 1-1v-1l1 1zm-19-4v-1 1l1 1v4h1v1l1 1v1h2v1h3v-1h3l1-1 1-1h1l1-1h1l1-1 1-1 1 1-1 1h-1l-1 1-1 1h-1l-1 1h-1l-1 1h-2l-1 1h-3v-1h-2l-1-1v-1l-1-1v-1l-1-1v-3l-1-1h1zm0-1v1-1zm-2 1l-1-1h3v1h-3 1zm-1-1zm-25-5l-1-1h1v2l1 1 1 2 1 1 1 1v2l1 1 1 1h1l1 1v1h1l1 1h1v1h5l1-1h1v-1h1l1-1 1-1 1-1h1v-2l1-1 1-1 1 1-1 1-1 1-1 1-1 1v1l-1 1-1 1h-1l-1 1h-1l-1 1h-5l-1-1h-1v-1h-1l-1-1-1-1-1-1-1-1v-1l-1-1-1-1-1-2-1-1v-2l-1-1h1zm-1-1v-1l1 1h-1zm-29 0v-1l1 2 1 2 1 1v1l1 2 1 1 1 1 1 1v1h1l1 1 1 1h2l1 1 1-1h3l1-1h1l1-1 1-1 1-1h1l1-2 1-1 1-1 1-2 1-1 1-2 1 1-1 1-2 2-1 1-1 2-1 1-1 1-1 1-1 1-1 1-1 1h-1l-1 1h-3l-1 1-1-1h-2l-1-1h-1v-1l-1-1h-1l-1-1-1-2-1-1v-1l-1-1-1-2-1-2v-1zm0-1v-1 1zm-34 1h1v-1l1 2 1 1v2l1 1 1 1 1 1 1 1 1 1h1l1 1h1l1 1h8l1-1h1l1-1 1-1h1l1-1 2-1 1-1 1-2 1-1 1-1 2-2v1l-1 1-1 2-1 1-2 1-1 1-1 1-1 1-1 1-1 1-2 1h-1l-1 1h-9l-1-1h-1l-1-1-1-1h-1l-1-1-1-1-1-2v-1l-1-1-1-2-1-1zm0 0zm1-2v2h-1v-2l1-1v1zm-1 0v-1h1l-1 1zm-1 0h1l-1-1h1v1l1-1v1h-2zm0 0zm1-1v1h-1v-1h1zm-1 0h1-1zm-1 1v-1h1v1h-1zm0 0zm0 0l-1-1h1v1h-1 1zm-1-1zm0 1v-1l1 1h-1zm0 0zm-1 0h-1 1v-1h1v1h-2v-1h1v1zm0-1v1-1zm-1 3v-2h1v2h-1zm1 0zm-33 0l-1-1h1l1 2 1 1 1 1 2 2 1 1 1 1 1 1h1l1 1 1 1h1l2 1h8l1-1h1v-1h1l1-1 1-1 1-1 1-1 1-1 1-2 1-1 1-2v3l-1 1-1 1-1 1-1 2-1 1-1 1h-1l-1 1-1 1h-1l-1 1h-3l-1 1-1-1h-4l-1-1h-1l-1-1-1-1-2-1-1-1-1-1-1-1-1-1-2-1-1-2-1-1h1zm-1-1v-1l1 1h-1zm-28 2l-1-1 2 2 1 1 1 2 1 1 1 1 1 2 1 1h1l1 1 1 1h1l1 1h2l1 1 1-1h2l1-1 1-1h1l1-1v-1l1-1 1-1 1-2 1-1v-1l1-2 1-2 1 1-1 1-1 2v2l-1 1-1 1-1 1-1 2-1 1-1 1-1 1h-1l-1 1h-7l-1-1h-1l-1-1-1-1-1-1-1-1-1-1-1-1-1-2-1-1-1-2-1-1h1zm-1-1v-1 1zm-26 7v-1l1 1 1 1 1 2h1v1l1 1 1 1h1l1 1 1 1h5l1-1 1-1h1l1-1 1-1 1-1 1-1 1-2v-1l1-1 1-2 1-1 1-2 1 1-1 1-1 2-1 1-1 2v1l-1 1-1 1-1 1-1 1-1 1v1h-1l-1 1h-1l-1 1h-5l-1-1h-1l-1-1h-1v-1l-1-1-1-1-1-1-1-1-1-1v-1zm0-1zm-2 1h-1v-1h3v1h-2zm-1 0v-1 1zm-18 3l-1 1 1-1 1 1 1 1h1l1 1h1l1 1h1l1 1h2l1 1h2v-1h2v-1h1v-1l1-1v-3h1v-2h1v2l-1 1v2l-1 1v1l-1 1-1 1h-1l-1 1h-3v-1h-3l-1-1h-1l-1-1h-1l-1-1-1-1h-1l-1-1 1-1zm11 19v1l-1-1v-1h-1v-2l-1-1v-1l-1-1v-1h-1v-2h-1v-1l-1-1v-1h-1v-1l-1-1v-1h-1v-1l-1-1v-1h-1l1-1v1h1v1h1v1l1 1v1h1v1l1 1v1l1 1v1h1v2h1v1l1 1v1l1 1v1l1 1v1zm0 1l-1-1 1 1zm101-6v1l-31 1-10 1h-9l-10 1h-6l-10 1h-19l-6 1v-1l6-1h13l13-1h15l19-1 7-1 28-1zm0 0zm101 5v1h-3l-6-1h-13l-12-1h-4l-12-1h-7l-15-1-16-1h-13v-1h13l31 2 16 1h13l3 1h10l12 1h3zm0 1zm0 0v-1h1l-1 1zm1-1v1h-1l1-1z" class="B"/><g class="D"><path d="M459 276l23-11 23 11-23 12z"/><path d="M474 259l-93 6 6 31 95-3 95 3 7-31-94-6h-16zm123-22l-3-1c-7 18-14 18-15 1 2 0 1-3 3-2 1 1 2-1 1-2-2-1-4-1-5 1-1-3-3-4-6-3l1 2 1 3c-12 17-19 15-17-7l-10-2c-11 23-20 24-26 3 1-1 1-4 3-3 1 1 2-2 1-2-2-2-5-2-7 1-1-3-4-4-6-2-2 0-1 3 0 2 3 0 2 3 3 4-5 20-30 21-26-8h-13c4 29-22 28-27 8 2-1 1-4 3-4 1 1 2-2 1-2-3-2-5-1-7 2-2-3-4-3-7-1-1 0 0 3 1 2 2-1 2 2 3 3-6 21-14 20-26-3l-10 2c2 22-4 24-17 7 1-1 0-3 2-3v-2c-2-1-4 0-5 3-2-2-4-2-6-1-1 1 1 3 2 2s1 2 2 2c-1 17-7 17-14-1l-4 1c0 4 1 8 4 11 10 14 18 11 19-4 13 16 24 14 26-3 12 21 30 11 31-2 5 19 33 19 35-3 2 22 31 22 36 3 0 13 19 24 30 2 2 17 13 19 27 3 0 15 8 18 19 4 2-3 3-7 3-11z"/></g><path d="M594 236h3v1h-3l-1-1h1zm-1 0h1-1zm-14 1v1l1-1v7l1 1v1l1 1v1h1v1h2v-1h1l1-1 1-1 1-1v-1l1-1 1-1v-2l1-1 1-1v-2h1l-1 2v1l-1 2-1 1v1l-1 1v1l-1 1-1 1v1h-1v1h-1l-1 1h-3v-1l-1-1-1-1v-2l-1-1v-7zm0 0h-1 1zm3-2v1h-1v-1 1l-1 1v1h-1v-2h1v-1h1v-1l1 1zm0 1zm1-2v-1h1v2h-1v1h-1v-1h1v-1zm0-1h1-1zm-6 1l1-1h-1 1v-1h5v2-1h-4l-1 1h-1zm1 0l-1 1v-1h1zm-6-3v-1h4v1h1v1h1v1l-1 1v-1l-1-1v-1h-4zm1 2v1h-1v-1h-1v-2h1v-1 3h1zm2 3h-1v-1h-1v-2h1v2h1v1zm0 0zm-18-7v-1 12l1 1v3l1 1 1 1h1v1l1-1h2l1-1h1l1-1v-1l1-1 1-1 1-1 2-1 1-2 1-1h1l-2 2-1 1-1 2-1 1-1 1-1 1-1 1h-1l-1 1v1h-3l-1 1v-1h-2l-1-1v-1h-1v-3l-1-2v-11h1zm0-1v1-1zm-9-1l-1-1h1l1 1h3v1h5v1h-5v-1h-3l-1-1h-1 1zm-1-1zm-26 4l1 2 1 1v2l1 2v1l1 1 1 1 1 1v1l1 1h1v1h5l1-1 1-1h1l1-1 1-1 1-2 1-1 1-1 1-2 1-2 1-2 1-2 1-2 1 1-1 2-1 2-2 2-1 2-1 1-1 2v1l-1 1-1 1-1 1-1 1-1 1h-1l-1 1h-5l-1-1h-1l-1-1v-1l-1-1-1-1v-2l-1-1-1-1v-2l-1-2-1-2h1zm-1 0h1-1zm4-3v1l-1-1v1h-1v2h-1v-2h1v-1h1v-1h1v1zm1-2v-1h1v3h-1v1h-1v-1h1v-2zm-7 1h1-1v-1h1v-1h1v-1h4v1h1v1h-1v-1h-4v1h-1v1h-1zm1 0l-1 1v-1h1zm-7-2l-1-1h2v-1h2v1h2v1h1v1l1 1h-2v-2h-2v-1h-2v1h-1zm0 2v1h-1v-2h-1l1-1v-1l1 1v1h-1 1v1zm4 4h-2v-3h-2v-1h2v1h1v2h1v1zm0-1v1-1zm-27-7v-1 12l1 2v1l1 2 1 1v1l1 1 1 1 1 1h3l1 1h3l1-1h2l1-1 1-1h1l1-1 1-1 1-2 1-1 1-1 1-2v-1l1-2h1l-1 2v2l-1 1-1 2-1 1-1 1-1 1-1 1-1 1-2 1-1 1h-1l-2 1h-3l-2-1h-1l-1-1h-1l-1-1-1-1-1-1-1-2-1-1v-2l-1-2v-11h1zm0-1v1-1zm-7 2v-1l1-1h6v1h-6v1h-1zm0 0zm-6-1h-1l1-1h6v2-1h-7 1zm-1 0v-1h1l-1 1zm-26 7v1l1 2 1 1v2l1 1 1 1 1 2 1 1 1 1h1l1 1 2 1h1l1 1h4l1-1h2l1-1 1-1 1-1 1-1v-1l1-2 1-1v-13h1v13l-1 2-1 1v2l-1 1-1 1-1 1h-2l-1 1h-1l-1 1h-3l-1-1h-3l-1-1-1-1-2-1-1-1-1-1-1-1-1-1-1-2v-1l-1-2-1-2 1-1zm-1 1l1-1-1 1zm4-4v1h-1v1h-1v2h-1v-2h1v-2h2zm0-2l1-1v1h1v2h-1v1h-1v-1h1v-2h-1zm-6 2h1-1v-2h1v-1h2v-1h2v1h2l-1 1h-1v-1h-2v1h-1v1h-1v1h-1zm1 0l-1 1v-1h1zm-7-1l-1-1h1v-1h4v1h2v1l1 1h-2v-1h-1v-1h-4v1zm0 2l1 1h-2v-1l-1-1v-1h1v-1l1 1h-1v1h1v1zm4 3h-2v-2h-1v-1 1l-1-1h1v-1l1 1h1v2h1v1zm0 0zm-27-3v-1h1l1 2 1 2 1 2 1 2 1 2 1 1 1 1 1 2v1l1 1h1l1 1 1 1h5l1-1 1-1 1-1v-1l1-1 1-1v-1l1-2 1-2v-1l1-2h1l-1 2v2l-1 2-1 1v1l-1 2-1 1v1l-1 1-1 1h-1l-1 1h-5l-1-1h-1v-1l-1-1-1-1-1-1-1-1-1-1-1-2-1-1-1-2-1-2-1-2-1-2zm0-1h1-1zm-9 3h-1v-1h5v-1h4v-1h1v1h-1v1h-4v1h-4zm-1 0v-1 1zm-17 7h1-1l2 1 1 2 1 1 1 1 1 1 1 1 1 1 1 1 1 1h2l1 1v-1h2v-1h1v-3l1-1v-12h1v13l-1 1v2h-1v1l-1 1h-1l-1 1-1-1h-2l-1-1-1-1h-1l-1-1-1-1-1-1-1-1-1-2-1-1-1-2zm0 0h-1 1zm2-3v1h-1v2h-1v-3h2zm0-2v-1l1 1v2l-1 1v-3zm-6 3l1-1h-1 1v-2h1v-1h4v1h-3v1h-1v1h-1v1h-1zm1 0v1l-1-1h1zm-5 0l-1-1v-1h5v1h1l-1 1v-1h-4l-1 1h1zm-1-1zm1 2l1 1h-2v-1l-1-1v-1h1l1 1h-1 1v1zm4 2h-1v1l-1-1v-1h-1v-1 1l-1-1h1v-1h1v2h1v1h1zm-1 0h1-1zm-14 0v-1l1 2v1l1 1 1 2v1l1 1 1 1v1h1v1l1 1h1v1h2l1-1 1-1v-1l1-1v-5l1-1v-2h1v2l-1 1v5l-1 1v2h-1v1h-1v1h-3l-1-1-1-1-1-1-1-1v-1l-1-1-1-1v-1l-1-1-1-2v-1l-1-2 1 1zm0-1zm-4 0h4v1h-5l1-1zm-1 1v-1h1l-1 1zm5 11l-1 1v-1l-1-1v-1h-1v-3h-1v-4h-1v-2h1v2h1v4h1v2l1 1v1h1v1zm19-5l-1 1h1v5l-1 1v2l-1 1v2h-1v1h-1l-1 1h-2v1l-1-1h-2l-1-1h-1l-1-1h-1l-1-1-1-1-1-1-1-1-1-1-1-1 1-1 1 1 1 1 1 1 1 1 1 1 1 1 1 1 1 1h6v-1h1l1-1v-1h1v-3l1-1v-5l1-1zm-1 1v-2l1 1-1 1zm27-4l-1 1h1v4l-1 2v1l-1 1v1l-1 1v1l-1 1h-1v1h-1l-1 1h-7l-1-1h-1l-1-1-1-1-1-1-2-1-1-1-1-1-1-1-2-1-1-2 1-1 1 2 1 1 2 1 1 2 1 1 1 1h1l2 1 1 1h1l1 1h6l1-1h1v-1l1-1 1-1v-1l1-1v-2l1-1v-4h1zm-1 1l1-2v1l-1 1zm32-2h-1 1v4l-1 1v1l-1 1-1 1v1l-1 1-1 1-1 1h-1l-1 1-1 1h-2l-2 1h-3l-2-1h-2l-2-1-1-1-1-1-2-1-1-1-1-2-1-1-1-2-2-2 1-1 1 2 2 2 1 2 1 1 1 1 1 1 2 1 1 1 1 1h2l2 1h3l1-1h3l1-1h1v-1l1-1 1-1 1-1h1v-1l1-1v-2l1-1v-3h1zm36-3h-1 1l-1 2v2l-1 2v1l-1 2-1 1-1 2-1 1-1 1-2 1h-1l-1 1-2 1h-10l-2-1h-1l-2-1-1-1-1-1-2-1-1-1-1-2-1-1-1-2v-1l-1-2h1l1 1v2l1 2 1 1 1 1 1 1 1 1 1 1 2 1 1 1h1l2 1h10l1-1h2l1-1 1-1 1-1 1-1 1-1 1-2 1-1v-2l1-1v-2l1-2h1zm35 3h-1 1v2l-1 1-1 2-1 1-1 2-1 1-1 1-2 1-1 1-1 1h-2l-1 1h-11l-1-1-2-1h-1l-1-1-2-1-1-1-1-2-1-1v-2l-1-1-1-2v-4h1v4l1 1v2l1 1 1 2 1 1 1 1 1 1 1 1 2 1h1l1 1h10l2-1h1l2-1 1-1 1-1 1-1 1-1 1-1 1-2 1-1 1-2v-1h1zm31 2h-1 1l-1 2-1 2-2 1-1 2-1 1-1 1-2 1-1 1-1 1h-3l-1 1h-4l-1-1h-3l-1-1-1-1h-1l-1-1-1-1v-1l-1-1-1-1v-1l-1-1v-1l-1-2v-2h1v2l1 1v1l1 2v1l1 1 1 1 1 1 1 1 1 1h1l1 1h2l1 1h4l1-1h2l2-1 1-1 1-1 1-1 1-1 2-1 1-2 1-2 1-2 1 1zm-1-1l1-1v2l-1-1zm27 4h-1 1l-1 2-1 1-2 1-1 1-1 1-1 1-2 1-1 1-1 1h-1l-1 1h-7l-1-1-1-1h-1v-1l-1-1-1-1v-1l-1-1v-3l-1-1v-3h1v3l1 1v2l1 2v1h1v1l1 1 1 1 1 1h7l1-1h1l1-1 1-1h1l1-1 1-1 2-2 1-1 1-1 1-2 1 1zm-1-1l1-1v2l-1-1zm19 5l1 1-1 1-1 1-1 1-1 1-1 1-1 1h-1l-1 1-1 1h-3v1l-1-1h-2l-1-1-1-1-1-1v-1l-1-1v-3l-1-1v-4h1v4l1 1v3l1 1v1l1 1h1v1h6l1-1h1l1-1v-1l1-1 1-1 1-1 1-1 1-1zm4-11v-1l1 1v3l-1 1v3h-1v2h-1v2h-1v1l-1-1 1-1v-1h1v-2h1v-3l1-1v-3zm0-1h1v1l-1-1zm0 0v1-1zm0 1z" class="B"/><path d="M482 263h-34l-2 1h-21l-18 2-27 2c-5 1-6-5 0-6l27-2 37-2h2l16-1h40l16 1h3a984 984 0 0136 2h1l26 2c6 1 5 7 0 6l-27-2-18-2h-21l-2-1h-34z" class="D"/><path d="M482 105c10 0 17 8 17 17s-7 18-17 18-17-8-17-18 8-17 17-17z" class="G"/><path d="M485 85c2 0 3-2 3-3s-1-3-3-3c0-2-1-3-3-3s-3 1-3 3c-2 0-3 1-3 3s1 3 3 3v6h-5c0-1-2-3-4-3l-3 3-3 3 3 4 3 3c2 0 3-2 4-3h5v21h6V98h6c0 1 1 3 3 3s3-2 3-3c2 0 3-2 3-4s-1-3-3-3c0-1-1-3-3-3s-3 2-3 3h-6v-6z" class="D"/><g class="B"><path d="M488 82h1v1h-1v2h-3v-1h2v-1h1v-1zm-3-3h1l-1-1h2v1h1v1h1v2h-1v-1h-1v-1l-1-1h-1zm0 0zm-3-3v-1h2v1h1v1h1v2h-1v-1l-1-1v-1h-2zm-3 3v-1 1-3h1v-1h2v1h-1v1h-1v2h-1zm1 0h-1 1zm-3 3h-2 1v-3h1l1-1h1v1h-1v1h-1v2zm3 3h-3v-1h-1v-2h-1 2v2h2l1 1zm-1-1h1v1l-1-1zm0 7v-6h1v6l-1 1v-1zm1 0v1h-1l1-1zm-6 0h5v1h-5l-1-1h1zm0 1h-1v-1l1 1zm-4-3v-1h3v1h1v2h-1v-1h-1v-1h-2zm-3 3v-3h1v-1h2v1h-1v1h-1v1l-1 1zm1-1v1h-1l1-1zm-3 3h-1v-2h1v-1h2v1h-1l-1 1v1zm3 4h-3v-1h-1v-3h1v2h1v1h1l1 1zm-1-1h1v1l-1-1zm3 3v1h-1l-1-1h-1v-2h1v1h1v1h1zm4-3v2h-1v1l-1 1h-2v-1h2v-1h1v-1l1-1zm-1 1v-1h1l-1 1zm6 0h-5v-1h5l1 1h-1zm0-1h1v1l-1-1zm0 22V98h1v21h-1zm0 0zm6 0h-6v-1h6l1 1h-1zm1 0h-1 1zm0-21v21h-1V97l1 1zm-1 0v-1 1zm6 0h-6v-1h6v1zm0-1v1-1zm3 3v1h-2v-1h-1v-1h-1v-1h1v1h1v1h2zm3-3v3h-1v1h-2v-1h1v-1h1v-1l1-1zm-1 1v-1h1l-1 1zm4-4h1v1h-1v2h-1v1h-2v-1h1l1-1v-1h1v-1zm-4-3h3v1h1v2h1-2v-2h-2l-1-1zm1 1h-1v-1l1 1zm-3-3v-1h2v1h1v2h-1v-2h-2zm-3 3v-1h-1v-1h1v-1h1v-1h2v1h-2v1h-1v2zm0-1v1-1zm-6 0h6v1h-6v-1zm0 1v-1 1zm1-7v6h-1v-7l1 1zm-1 0v-1 1zm0 0v-1 1zm0 0v-1 1z"/><path d="M500 122h-1v-2l-1-1v-3l-1-1v-1h-1v-2h-1l-1-1-1-1v-1h-1l-1-1h-1l-1-1h-1l-1-1h-5v-1h5l1 1h2l1 1 1 1h1v1h1l1 1 1 1v1h1v1l1 1v1l1 1v3l1 1v2zm-18 18v-1h4l1-1h2l1-1h1v-1h1l1-1 1-1 1-1 1-1v-1l1-1 1-1v-3l1-1v-3h1v3l-1 1v2l-1 1v2l-1 1-1 1v1h-1v1l-1 1h-1v1h-1l-1 1h-1l-1 1h-2v1h-5zm-18-18h1l1 1v5l1 1v1l1 1v1h1v1l1 1 1 1h1v1h1l1 1h1l1 1h1l1 1h4v1h-4l-1-1h-2l-1-1h-1l-1-1-1-1h-1v-1l-1-1-1-1-1-1v-1l-1-1v-2h-1v-4l-1-1v-1zm18-17v1h-5l-1 1h-1l-1 1h-1l-1 1-1 1-1 1-1 1-1 1v1h-1v2l-1 1v4l-1 1h-1v-1h1v-4l1-1v-1l1-1v-2h1l1-1v-1h1v-1h1l1-1 1-1h1v-1h2l1-1h5z"/></g><path d="M499 119a17 17 0 010 6l-17-1-17 1v-3a17 17 0 010-3 494 494 0 0134 0z" class="D"/><path d="M500 122h-1v-3h-1 2v3zm-1 3v-1 1-3h1v3h-1zm1 0h-1 1zm-18 0v-1h17v1h-17zm-17 0h1l-1-1h17v1h-17zm0 0zm-1-3h1v1h1v2h-1v-2h-1v-1zm1-4v1h1v2l-1 1h-1v-1h1v-3zm0 1v-1 1zm17-1v1h-17v-1h17zm17 1h-1 1-17v-1h17v1zm0-1v1-1z" class="B"/><path d="M469 133c-4-2-4 1-4 5 0 13 3 26-1 42-1 6-4 10-2 11 6 4 9 6 8 8 2 3 6 3 12 2 7 1 11 1 12-2 0-2 2-4 8-8 2-1 0-5-2-11-3-16-1-29 0-42 0-4-1-7-5-5-7 5-19 5-26 0z" class="D"/><path d="M465 138h-1v-4h1v-1l1-1h2l1 1v1l-1-1h-2v1h-1v4zm-1 42h-1l1-2v-3l1-1v-27l-1-3v-6h1v6l1 1v29l-1 2v3l-1 1zm-1 11l-1 1v-1h-1v-4h1v-3l1-1v-3h1v3l-1 1v3h-1v4h1zm7 8h-1 1v-1h-1v-1l-1-1v-1h-1l-1-1h-1v-1h-1l-1-1h-1l1-1h1v1h1l1 1 1 1h1v1h1v1h1v2h1v1h-1zm-1 0zm13 1v1h-2l-1 1h-7v-1h-1l-1-1-1-1h2v1h1v1h7v-1h3zm0 0zm12-1h1v1h-1v1h-2v1h-7l-1-1h-2v-1h3v1h7v-1h1v-1h1zm1 0zm7-8v1h-1v1h-1l-1 1h-1v1h-1l-1 1v1h-1v2h-1v-3h1v-1h1v-1h1l1-1h1v-1h1l1-1h1zm-2-11h1v2l1 1v3h1v5h-1v1-6h-1v-3l-1-1v-2zm-1-42h1v11l-1 1v21l1 2v5l1 2h-1l-1-1v-6l-1-2v-22l1-2v-9zm-3-4l-1-1h1v-1h3v1h1v5h-1v-4h-1v-1h-2v1zm-27 0v-1h1v1h3l1 1h2l1 1h10l1-1h3l1-1h2l1-1 1 1h-2v1h-2l-1 1h-2l-1 1h-11l-1-1h-3l-1-1h-1l-1-1h-1z" class="B"/><g id="H"><path d="M363 212c-2-4 0-10 0-11 1-1 0-2-1-3-13-18-13-20-4-27 8-6 26-12 39-16l7-7c-25 2-52 12-66 24-7 6 2 19 13 38 6 5 9 7 12 2z" class="D"/><path d="M363 201h1v1h-1v10h-1v-10l1-1zm-1-3h1v1h1v2h-1v-1h-1v-1zm-4-27v1l-1 1-1 1h-1v1h-1v1l-1 1v1l-1 1v1l1 1v2l1 1v1l1 1v1l1 1 1 1 1 1v2l1 1 1 2 2 1 1 2h-1l-1-1-1-2-1-1-1-2-1-1-1-1-1-1-1-1v-2h-1v-1l-1-1v-3h-1v-2l1-1v-2h1v-1h1v-1l1-1 1-1h1l1-1zm39-16v1h-2l-1 1h-2l-1 1h-1l-2 1h-1l-1 1h-3l-2 1h-1l-1 1h-2l-1 1-1 1h-2l-1 1h-1l-2 1h-1l-1 1h-1l-1 1h-1l-1 1-1 1h-1l-1 1h-1l-1 1v-1l1-1 1-1h1l1-1h1l1-1 1-1h2l1-1h1l1-1h2l1-1h1l2-1h1l1-1h2l1-1h1l2-1h1l2-1h1l1-1h2l1-1h3l2-1zm0 1zm7-7v-1 1h-1v1l-1 1-1 1v1h-1v1h-1v1h-1l-1 1v-2h1v-1h1l1-1v-1h1v-1h1v-1h1v-1h1v1zm0-1l1-1-1 1zm-65 24l-1-1 1-1 2-1 1-1 2-1 2-1 1-1 2-1 2-1 2-1 1-1 2-1 2-1 2-1 3-1 2-1h2l2-1 2-1 3-1h2l2-1 2-1h3l2-1h2l3-1h5l2-1h7v1h-7l-2 1h-5l-2 1h-3l-2 1h-2l-3 1-2 1h-2l-2 1-3 1-2 1h-2l-2 1-2 1-2 1-2 1-2 1-2 1-2 1-2 1-1 1-2 1-2 1-1 1-2 1-1 1-1 1zm12 37l-1 1-1-2-1-1-3-7-1-2-1-1-1-2-1-1-1-1v-2l-1-1v-1l-1-2-1-1v-2l-1-1v-2l-1-1v-3l1-1v-3h1v-1l1-1 1 1-1 1-1 1v2l-1 1v2l1 1v4l1 1v1l1 1v1l1 2 1 1v1l1 2 1 1 1 1 1 2v2l5 8 1 2v-1zm-1 1zm13 2v1-1 2h-1v1h-5v-1h-2v-1h-1l-1-1h-1l-1-1-1-1 1-1 1 1 1 1 1 1h1v1h2v1h4l1-1v-1h1zm0 0zm0 1v-1 1zm0-1l1 1h-1v-1z" class="B"/><path d="M359 214l-1-5v-8l-8-14c-2-3-3-6-2-10s4-7 7-9l14-8c11-4 20-7 26-7l-4 4c-12 4-26 9-33 14-9 7-9 9 4 27 1 1 2 2 1 3v11c-1 2-2 1-4 2z" class="D"/><path d="M357 209h1l1 1v3h1l-1 1v-1h-1v-3h-1v-1zm1 0zm0-8l1-1v2l-1 1v6h-1v-7h1v-1zm1-1v1-1zm-10-12l1-1v1h1v1l1 1v1h1v2h1v1h1v2h1v1h1v1l1 1 1 1-1 1-1-1v-1h-1v-1l-1-1v-1l-1-1-1-1v-1h-1v-2h-1v-1h-1v-2h-1zm-2-11h1v6h1v3h1v1l-1 1v-2h-1v-2l-1-1v-6zm8-10l1 1h-1v1h-1v1h-1v1h-1v1h-1v1h-1v1h-1v2h-1v1h-1v-1h1v-2l1-1 1-1v-1h1v-1h1l1-1 1-1h1v-1zm14-7v1h-1l-1 1h-2v1h-1l-1 1h-2v1h-1l-1 1h-1v1h-1l-1 1-1-1h1v-1h2v-1h1l1-1h1v-1h2v-1h2v-1h2l1-1h1zm0 0zm27-6l-1-1v1h-6v1h-4l-1 1h-2l-1 1h-3l-1 1h-2l-1 1h-1l-1 1h-2l-1 1v-1l1-1h2l1-1h2l1-1h2l1-1h1l1-1h3l1-1h4v-1h6l1 1zm-1-1h2l-1 1-1-1zm-4 4l4-4 1 1-4 3-1 1v-1zm1 0v1h-1l1-1zm-34 15v-1l1-1h1l1-1h1v-1h1l1-1h1l1-1h1l1-1h1l1-1h1l2-1h1l1-1h1l1-1h2l2-1h1l1-1h2l2-1h1l1-1h2v1h-2l-1 1h-2l-2 1h-1l-1 1h-1l-1 1h-3l-1 1h-1l-1 1h-1l-1 1h-1l-1 1h-1l-1 1h-2l-1 1h-1l-1 1h-1l-1 1h-1v1h-1l-1 1zm5 26l-1 1-1-2-1-2-1-1-1-2-1-1-1-1-1-1-1-1v-1l-1-1v-1l-1-1v-3h-1v-2l1-1v-2h1v-1h1v-1l1-1 1-1h1l1-1v1l-1 1-1 1h-1v1h-1v1l-1 1v1l-1 1v1l1 1v2l1 1v1l1 1v1l1 1 1 1 1 1v2l1 1 1 2 2 1 1 2zm1 3h-1v-1l-1-1 1-1v1h1v2zm0 12l-1-1v1-1l-1-1v-9l1-1h1v1h-1v9h1v2zm0-1v1-1zm-5 1v1-1h4v-1l1 1h-1v1h-4v-1zm0 1v-1h1l-1 1zm1-1v1h-1l1-1z" class="B"/><path d="M468 132v2l-2-1-1 5v3c-33-1-53 4-58 14-4 8 3 21 14 36v3c-2 2-4 6-3 9-6 4-14 4-21 1-1-3-3-4-5-5l-2-2-10-31c-10-31 75-34 88-34z" class="D"/><path d="M467 134h1-1v-2l1-1v-1l1 1v1h-1v-1h1v1h-1v2h-1zm1 0v2l-1-2h1zm-2-1v-1h1v1h1v1h-1v-1h-1zm0 0zm-1 5h-1v-4h1v-1h1v-1 2h-1v4zm-1 0zm1 3v-1l-1 1v-3h1v3zm0 0zm-58 14v-1l1-1v-1l1-1 1-1 1-1h1l1-1 1-1h2l1-1 2-1h1l2-1h1l2-1h4l2-1h4l3-1h7l3-1h17v1h-15l-2 1h-10l-3 1h-4l-2 1h-4l-1 1h-2l-2 1h-1l-2 1-1 1h-1l-1 1-1 1h-1l-1 1-1 1h-1l-1 1v1l-1 1zm14 35l-1 1-1-1-1-2-1-1-1-1-1-2v-1l-1-1-1-2-1-1-1-1v-2l-1-1-1-1v-1l-1-2v-1l-1-1v-2l-1-1v-2l-1-1v-5l1-1v-2l1-1v3l-1 1v5h1v4l1 1v1l1 1v1l1 1v1l1 2 1 1v1l1 1 1 2 1 1v1l1 2 1 1 1 1 1 2 1 1 1 1zm0 4h-1v-1h1v-1l-1-1 1-1v1h1v3h-1zm-2 9h-1l-1-1v-3h1v-3h1v-1l1-1h1v1h-1v1l-1 1v2h-1v3h1v1zm0 0zm-22 2l1-1h1v1h4v1h6l1-1h3l1-1h2v-1h3l-1 1h-1l-1 1h-2l-1 1h-3l-1 1h-6v-1h-4v-1h-2zm0 0zm-5-6v-1l1 1h1v1h1v1h1v1h1v1h1v1l-1 1v-1l-1-1v-1h-1v-1h-1v-1h-2v-1zm-3-2h2v1h1v1h-1v-1h-1l-1-1zm-10-31h2v3l1 1v2l1 3 1 1 4 14 1 4 1 1v2h-1v-1l-1-2v-2l-1-1v-1l-1-3-1-5-1-1-2-7-1-3-1-2v-2l-1-1zm89-34h1l-1 1h-17l-3 1h-8l-4 1h-4l-4 1h-4l-4 1-4 1-4 1-4 1-4 1-4 1-3 1-3 2-3 1-3 2-2 2-2 2-2 2-1 2-1 2v8h-1v-8l1-3 1-2 2-2 2-2 3-2 2-2 3-1 4-2 3-1 4-1 3-1 4-1 4-1 5-1 4-1h4l4-1h4l4-1h7l4-1h17zm1 0v1h-1l1-1zm-1 0zm1 0v1h-1l1-1z" class="B"/><use xlink:href="#B" class="C"/><path d="M412 197h-1a6 6 0 00-6-6v-1c2 0 5 1 6 3a7 7 0 011 4zm-7 6v-1a6 6 0 006-5h1c0 2-1 4-3 5a7 7 0 01-4 1zm-7-6h1a6 6 0 003 5 6 6 0 003 0v1c-2 1-5-1-6-3a7 7 0 01-1-3zm7-7v1c-2 0-4 1-5 3a6 6 0 00-1 3h-1c0-3 1-5 3-6l4-1z" class="B"/><path d="M351 204c3 0 6 2 6 6s-3 6-6 6-6-3-6-6 2-6 6-6z" class="C"/><path d="M357 210h-1a5 5 0 00-3-5 5 5 0 00-2-1v-1a6 6 0 015 3l1 4zm-6 6v-1c2 0 4-1 5-3a5 5 0 000-2h1c0 2-1 4-3 5a6 6 0 01-3 1zm-7-6h1a5 5 0 006 5v1a6 6 0 01-6-3l-1-3zm7-7v1a5 5 0 00-6 6h-1a7 7 0 013-6l4-1z" class="B"/><path d="M345 193c3 0 6 2 6 6s-3 6-6 6-6-3-6-6 3-6 6-6z" class="C"/><path d="M352 199h-1a5 5 0 00-6-6v-1a6 6 0 016 3l1 4zm-7 6v-1a5 5 0 006-5h1c0 2-2 4-4 5a6 6 0 01-3 1zm-6-6h1a5 5 0 005 5v1a6 6 0 01-6-6zm6-7v1a5 5 0 00-5 6h-1a6 6 0 016-7z" class="B"/><path d="M340 182c3 0 6 2 6 6s-3 6-6 6-6-3-6-6 3-6 6-6z" class="C"/><path d="M346 188h-1a5 5 0 00-3-5 5 5 0 00-2-1v-1a6 6 0 016 7zm-6 6v-1a5 5 0 005-5h1a7 7 0 01-3 5 6 6 0 01-3 1zm-7-6h1a5 5 0 006 5v1a6 6 0 01-6-3l-1-3zm7-7v1c-2 0-4 1-5 3a5 5 0 00-1 3h-1c0-3 2-5 3-6a6 6 0 014-1z" class="B"/><path d="M444 202c4 0 3 6 2 7-1 2-2 2-3 1 0-2-2-8 1-8z" class="D"/><path d="M447 210l-1-1v-6h-2v-1h2l1 1v7zm-4 0l1-1v1h2v-1l1 1h-1v1h-2l-1-1zm1-8v1h-1v6h1l-1 1v-1h-1v-7h2z" class="B"/><path d="M445 205c8 0 6 14 4 18s-4 4-7 0c-2-3-6-17 3-18h-1z" class="C"/><path d="M449 223l-1-1h1v-3l1-1v-7l-1-1v-2h-1v-1h-1v-1h-2l-1-1h3l1 1 1 1 1 1v2h1v8l-1 1v3l-1 1zm-7 0h1v1h1v1h3v-1h1v-2l1 1v1h-1v1l-1 1h-3v-1h-1v-1h-1v-1zm2-17v-1l1 1h-2l-1 1-1 1v1l-1 1v5l1 1v4h1v2h1v1h-1l-1-1v-2h-1v-4h-1v-6l1-1v-2h1v-1h1v-1h2l1 1zm0-1v1-1z" class="B"/><path d="M380 211c3-1 4 5 3 6 0 2-1 3-2 1-2-1-5-6-1-7z" class="D"/><path d="M384 218l-1-1v-3h-1v-2h-1v-1h-1v-1h2v1h1v2l1 1v3zm-4 1l1-1h1v1-1h1v-1h1v1l-1 1v1h-1v-1h-2zm0-9v1h-1v5h1v1h1v1l-1 1v-1h-1v-2h-1v-5h1v-1h1z" class="B"/><path d="M381 214c7-2 9 12 8 15-1 5-3 6-6 2-3-2-10-15-2-17z" class="C"/><path d="M390 230l-1-1v-5l-1-1v-3l-1-1v-2h-1v-1h-1v-1h-1v-1h-3v-1h3l1 1h1v1h1v2h1v2h1v4l1 1v6zm-8 2l1-1 1 1h1v1h2v-1h1v-2h1v-1l1 1h-1v2l-1 1-1 1h-2v-1h-2v-1h-1zm-1-19v1l-1 1h-1v1l-1 1v6h1v2l1 1v1l1 1v1h1v1l1 1-1 1v-1l-1-1v-1h-1v-1l-1-1v-1l-1-1v-1l-1-1v-7h1v-1h1v-1h1l1-1zm0 1v-1 1z" class="B"/><path d="M464 138c-17-2-35 0-52 7-15 6-13 23 5 47-2 3-3 7-3 11h5c-2-3 0-7 2-9v-3c-11-15-18-28-14-36 5-10 25-15 58-14v-3h-1z" class="D"/><path d="M412 145v-1h1l2-1h2l1-1h2l2-1h1l2-1h2l1-1h3l2-1h5l2-1h24v1h-24l-2 1h-5l-1 1h-4l-1 1h-2l-1 1h-2l-2 1h-1l-2 1h-2l-1 1h-2zm5 47h-1l-1-2-2-2-1-2-2-3-1-2-1-2-1-2-1-1-1-2-1-2-1-2v-2l-1-1v-4l-1-1v-5l1-1v-3l1-1v-1l1-1 1-1 1-1 1-1 1-1h1l1-1 2-1v1l-1 1-1 1h-2l-1 1v1l-1 1-1 1-1 1v1l-1 1v2l-1 1v5l1 1v3l1 2v2l1 1 1 2 1 2 1 2 1 2 1 2 1 2 1 2 2 2 1 2 2 3zm0 0zm-3 10v1h-1v-2h1v-5l1-1v-2h1v-1h1v1h-1v3h-1v5l-1 1v1-1zm0 1h-1 1zm4 0h1-5v-1h5l-1 1zm1 0h1-1zm1-9h1v1h-1v2h-1v6h-1v-6h1v-2h1v-1zm0-3l1-1v1h1v2l-1 1h-1v-1h1v-1l-1-1zm-13-37v3l-1 1v5h1v4l1 1v1l1 1v1l1 1v1l1 2 1 1v1l1 1 1 2 1 1v1l1 2 1 1 1 1 1 2 1 1 1 1-1 1-1-1-1-2-1-1-1-1-1-2v-1l-1-1-1-2-1-1-1-1v-2l-1-1-1-1v-1l-1-2v-1l-1-1v-2l-1-1v-2l-1-1v-5l1-1v-2l1-1zm57-13h1-17l-3 1h-7l-3 1h-4l-2 1h-4l-1 1h-2l-2 1h-1l-1 1-2 1h-1l-1 1h-1l-1 1-1 1-1 1h-1v1l-1 1-1 1v-1l1-1v-1l1-1 1-1 1-1h1l1-1 1-1h2l1-1 2-1h1l2-1h1l2-1h4l2-1h4l3-1h7l3-1h17l-1 1zm1 0zm-1-3h1v3h-1v-3zm1 0zm-1-1l1 1v-1 1-1 1h-1v-1zm0 1v-1 1zm1 0l-1-1 1 1zm-1-1h1v1l-1-1z" class="B"/><use xlink:href="#C" class="C"/><path d="M387 149h-1a6 6 0 00-3-5l-2-1v-1c2 0 4 1 5 3a7 7 0 011 4zm-6 7v-1a6 6 0 005-6h1a7 7 0 01-6 7zm-7-7h1a6 6 0 003 5l3 1v1a7 7 0 01-7-7zm7-7v1a6 6 0 00-6 6h-1a7 7 0 017-7z" class="B"/><path d="M393 139c3 0 6 2 6 6s-3 6-6 6-7-3-7-6 3-6 7-6z" class="C"/><path d="M399 145h-1a6 6 0 00-3-5l-2-1v-1a7 7 0 016 7zm-6 7v-1a6 6 0 005-6h1a7 7 0 01-3 6l-3 1zm-7-7h1a6 6 0 003 5l3 1v1a7 7 0 01-7-7zm7-7v1a6 6 0 00-6 6h-1a7 7 0 013-6l4-1z" class="B"/><path d="M394 144l2 2c-10 6-14 11-13 17l10 32 10 8v1c1 4-2 3-5 2-1-3-4-6-6-7l-2-2-10-31c-3-10 3-17 14-22z" class="D"/><path d="M396 147v-1 1h-1v-2h-1v-1h1v1h1v2zm0-1l1 1h-1v-1zm-12 17h-1v-5l1-1v-1l1-1v-1h1v-1h1v-1h1v-1h1l1-1 1-1h1v-1h1l1-1 1-1h1v1h-1v1h-1l-1 1h-1l-1 1-1 1-1 1h-1v1h-1v1h-1v1l-1 1v1l-1 1v5zm0 0zm9 31v1l-1-2-1-4-2-4v-2l-1-3-1-3-1-2v-2l-1-1v-2l-1-1v-3h-1v-3h1v3h1v3l1 1v2l1 1v2l1 2 1 3v1l1 3 1 2v1l1 2v2l1 4v-1zm0 1zm10 8h-1v-1h-1v-1h-1l-1-1-1-1-1-1h-1v-1h-1l-1-1-1-1v-1l1 1h1v1h1l1 1h1v1h1v1h1v1h1v1h1v1h1v1zm0 0h1-1zm1 1l-1 1v-2h1v2-1zm-1 1v-1 1zm-5 1h5v-1l1-1v3h-6v-1zm0 1v-1 1zm-6-8v-1l1 1h1v1h1v1h1v1h1v1l1 1v1h1v1h-1l-1-1v-1h-1v-1l-1-1h-1v-1h-1v-1h-1v-1zm0-1l1 1-1-1zm-3-1h2v1h1v1h-1l-1-1-1-1zm-10-31h2v1l1 3v2l1 3 1 1 1 4v2l1 2v1l1 1v1l1 2v1l1 2v2l1 1v2h-1v-1l-1-2-1-3v-2l-1-1v-3l-1-2v-1l-3-9-1-2v-1l-1-2v-1l-1-1zm16-22h-1l-1 1h-1v1h-1l-1 1h-1l-1 1h-1v1l-1 1h-1l-1 1-1 1v1h-1v1l-1 1v1l-1 1v9h-1v-10h1v-2l1-1 1-1v-1h1l1-1v-1h1l1-1h1v-1h1l1-1 1-1h1l1-1h3zm-1 0v-1l1 1h-1z" class="B"/><path d="M356 217v2h-8c4-3 6-4 8-2z" class="D"/><path d="M355 219v-2h1v2h-1zm1 0zm-8 0l1 1-1-1h7v-1l1 1h-1v1h-7v-1zm0 1h-1l1-1v1zm8-3h-1 1-5v1h-1v1h-1v1l-1-1 1-1h1v-1h1v-1h5v1zm0-1v1-1zm0 1zm0-1v1-1z" class="B"/><path d="M356 212l2 1 4-1c3-2 4 2 2 5-1 3 0 5 1 7v4l-2 1h-2c-4-2-5-6-6-9-2-5-8-6 1-8z" class="D"/><path d="M358 213v1-1h-2v-1h2v1zm3-1l1 1h-1v1h-3v-1h3v-1zm0 0zm4 6l-1-1v-5h-1v1h-1l-1-1h1v-1h2v1h1v6zm0 6h-1v-1h-1v-6h1l1 1h-1v5h1v1zm0 5l-1-1h1v-3h-1v-1h1v1h1v3h-1v1zm0 0zm-2 1v-2h1l1 1h-1v1h-1zm0-1zm-2 0v-1l1 1v1-1h1v1h-1v1-1h-1v-1zm0-1h1v1l-1-1zm-7-8h1v1h1v2h1v2h1v1h1v1h1v1h1v1h-1l-1-1-1-1-1-1-1-1v-2h-1v-2h-1v-1zm2-8v1h-3v1h-1v2l1 1h1v1l1 1v1h-1v-1l-1-1v-1h-1v-1h-1v-3h2v-1h3zm0 0zm0 1v-1 1zm0-1z" class="B"/><path d="M357 213c3 1 4-1 6-1-1 5-2 8-7 5-3-2-7 1-7 2-1 1-2 0-3-2-3-5 7-6 11-4z" class="D"/><path d="M364 212h-2v1h-5v-1h5v-1h1l1 1zm-1-1h1v1l-1-1zm-7 6h3v1h1v-1h1v-1h1v-3l1-1h1l-1 1v3h-1v2h-1l-1 1h-1l-1-1h-2v-1zm-7 3l-1-1 1-1v-1h2v-1h5v1h-4l-1 1h-1v1h-1v1zm-3-2v-1h1v1l1 1 1 1h-2v-1h-1v-1zm11-6v1h-2v-1h-5v1h-3v1h-1v4l-1-1v-3h1v-1h1v-1h2l1-1h5l1 1h1zm0 1v-1 1z" class="B"/><path d="M459 125c3 0 6 2 6 6s-3 6-6 6-6-3-6-6 2-7 6-7z" class="C"/><path d="M465 131h-1a6 6 0 00-5-6v-1a7 7 0 016 7zm-6 6v-1a6 6 0 005-5h1a7 7 0 01-6 6zm-7-6h1a6 6 0 006 5v1a7 7 0 01-6-3 7 7 0 01-1-3zm7-7v1a6 6 0 00-6 6h-1a7 7 0 013-6l4-1z" class="B"/><path d="M446 125c4 0 6 2 6 6s-2 6-6 6-6-3-6-6 3-7 6-7z" class="C"/><path d="M453 131h-1a6 6 0 00-6-6v-1a7 7 0 016 3l1 4zm-7 6v-1c2 0 4-1 5-3a6 6 0 001-2h1a7 7 0 01-3 5l-4 1zm-6-6h1a6 6 0 005 5v1a7 7 0 01-5-3 7 7 0 01-1-3zm6-7v1c-2 0-4 1-5 3a6 6 0 000 3h-1a7 7 0 013-6l3-1z" class="B"/><path d="M434 125c3 0 6 3 6 7s-3 6-6 6-6-3-6-6 2-7 6-7z" class="C"/><path d="M440 132h-1a6 6 0 00-3-5l-2-1v-1a7 7 0 015 3l1 4zm-6 6v-1c2 0 4-1 5-3a6 6 0 000-2h1a7 7 0 01-3 5l-3 1zm-7-6h1a6 6 0 006 5v1a7 7 0 01-7-6zm7-7v1a6 6 0 00-6 6h-1c0-3 1-5 3-6a7 7 0 014-1z" class="B"/><path d="M422 128c4 0 6 2 6 6s-2 6-6 6-6-3-6-6 3-6 6-6z" class="C"/><path d="M429 134h-1a6 6 0 00-3-5l-3-1v-1a7 7 0 017 7zm-7 7v-1a6 6 0 006-6h1a7 7 0 01-7 7zm-6-7h1c0 2 1 4 3 5a6 6 0 002 1v1c-2 0-4-2-5-4a7 7 0 01-1-3zm6-7v1a6 6 0 00-5 6h-1a7 7 0 016-7z" class="B"/><path d="M346 159c4 0 6 3 6 7s-2 6-6 6-6-3-6-6 3-7 6-7z" class="C"/><path d="M353 166h-1a6 6 0 00-3-5l-3-1v-1a7 7 0 017 7zm-7 6v-1a6 6 0 006-5h1a7 7 0 01-7 6zm-6-6h1a6 6 0 003 5h2v1a7 7 0 01-6-6zm6-7v1a6 6 0 00-5 6h-1a7 7 0 013-6l3-1z" class="B"/><path d="M357 153c3 0 6 3 6 6s-3 6-6 6-6-3-6-6 2-6 6-6z" class="C"/><path d="M363 159h-1a6 6 0 00-5-6v-1a7 7 0 016 7zm-6 7v-1a6 6 0 005-6h1a7 7 0 01-6 7zm-7-7h1a6 6 0 003 5l3 1v1a7 7 0 01-7-7zm7-7v1a6 6 0 00-6 6h-1a7 7 0 017-7z" class="B"/><path d="M369 147c3 0 6 3 6 6s-3 6-6 6-6-2-6-6 2-6 6-6z" class="C"/><path d="M375 153h-1a6 6 0 00-3-5h-2v-1a7 7 0 016 6zm-6 7v-1c2 0 4-1 5-3a6 6 0 000-3h1a7 7 0 01-6 7zm-7-7h1a6 6 0 003 5l3 1v1c-2 0-5-1-6-3a7 7 0 01-1-4zm7-6v1a6 6 0 00-6 5h-1a7 7 0 013-5l4-1z" class="B"/><path d="M338 170c4 0 6 2 6 6s-2 6-6 6-6-3-6-6 3-6 6-6z" class="C"/><path d="M345 176h-1a6 6 0 00-3-5 6 6 0 00-3-1v-1a7 7 0 017 7zm-7 6v-1a6 6 0 005-3l1-2h1a7 7 0 01-7 6zm-6-6h1a6 6 0 003 5h2v1a7 7 0 01-6-6zm6-7v1a6 6 0 00-5 6h-1a7 7 0 013-6l3-1z" class="B"/><path d="M454 276l-22 13-23-10 22-13z" class="D"/><path d="M431 267l-22 13v-1l22-13v1zm0-1zm23 11l-23-10v-1l23 10v1zm0-1h1l-1 1v-1zm-22 13l22-13v1l-22 13v-1zm0 1zm-23-11l23 10v1l-23-10v-1zm0 1l-1-1h1v1z" class="B"/><path d="M431 271c6-1 11 2 11 6s-4 7-10 7-10-2-11-6 4-7 10-7z" class="H"/><path d="M442 277h-1v-2h-1v-1h-1v-1h-1v-1h-3v-1h-4v-1h4l1 1h2v1h1l1 1h1v1l1 1v2zm-10 8v-1h2l1-1h2v-1h2v-1h1v-1l1-1v-2h1v3h-1v1h-1v1h-1v1h-1l-1 1h-2l-1 1h-2zm-11-7h1v2h1v1h1v1h1v1h3v1h4v1h-4l-1-1h-2v-1h-2v-1h-1v-1l-1-1v-2zm10-8v1h-2v1h-3v1h-1l-1 1h-1v1l-1 1v2h-1v-2l1-1v-1h1v-1h1v-1h1l1-1h2l1-1h2z" class="B"/><path d="M382 270l24 9-19 13c-6-2-10-19-5-22z" class="D"/><path d="M406 279l-24-9 1-1 23 9v1zm0-1l1 1h-1v-1zm-20 14l20-13-19 14h-1v-1zm1 1h-1 1zm-4-24l-1 1h1l-1 1-1 1v10l1 1v3l1 1v1l1 1 1 1v1h1l1 1-1 1v-1h-1l-1-1-1-1v-1l-1-1v-2l-1-1v-1l-1-1v-12h1v-1h1v-1h1zm-1 0h1-1zm0 1l1-1-1 1zm0-1h1-1z" class="B"/><path d="M383 274c5 0 10 2 11 6s-4 7-10 8c-3 0-6-3-6-6s1-7 5-8z" class="G"/><path d="M394 280h-1v-2h-1v-1h-1v-1h-2v-1h-6v-1h6v1h2v1h1v1h1v1h1v2zm-10 8v-1h4v-1h2v-1h1v-1h1v-1h1v-3h1v3h-1v1l-1 1v1h-2v1h-2v1h-4zm-7-6h1l1 1v2h1v1h1v1h3v1h-3l-1-1h-1v-1l-1-1v-2l-1-1zm6-8v1h-2v1h-1l-1 1v2h-1v3h-1v-3h1v-2l1-1v-1h1v-1h3z" class="B"/><use xlink:href="#D" class="C"/><path d="M461 284h-1v-2h-1v-1h-2v-1h2l1 1 1 1v2zm-4 3v-1h2v-1h1v-1h1v2h-1v1h-3zm-3-3h1v1l1 1h1v1h-2v-1h-1v-2zm3-4v1h-1v1h-1v2h-1v-3h1l1-1h1z" class="B"/><path d="M409 283l3 3-3 4c-1 0-3-2-3-4s1-3 3-3z" class="C"/><path d="M412 286h-1v-2h-2v-1h2v1h1v2zm-3 4v-1h1v-1h1v-2h1v3h-1v1h-2zm-4-4h1v2h1v1h2v1h-2v-1h-1v-1h-1v-2zm4-3v1h-2v1h-1v1h-1v-1l1-1v-1h3z" class="B"/><path d="M407 268c2 0 3 2 3 4s-1 3-3 3-3-2-3-3 1-4 3-4z" class="C"/><path d="M411 272h-1v-1l-1-1v-1h-2v-1h2v1h1v1h1v2zm-4 3v-1h2v-1l1-1h1v1h-1v1h-1v1h-2zm-4-4h1v1l1 1v1h2v1h-2v-1h-1v-1h-1v-2zm4-3v1h-2v1l-1 1v1h-1v-2h1v-1h1v-1h2z" class="B"/><path d="M457 266c2 0 4 2 4 3s-2 4-4 4-3-2-3-4 2-3 3-3z" class="C"/><path d="M461 269h-1v-1h-1v-1h-2v-1h3v1h1v2zm-4 4v-1h2v-1h1v-2h1v2l-1 1-1 1h-2zm-3-4h1v2h1v1h1v1h-2v-1h-1v-3zm3-3v1h-2v2h-1v-2h1v-1h2z" class="B"/><path d="M371 237c2 0 6 5 7 5 1-3-1-10-6-16-2-1-3-3-3-8 0-1-3 0-3 2v6l-1 2c5 2 6 4 6 9z" class="D"/><path d="M378 242h1-2l-1-1-1-1h-1v-1h-1v-1h-2v-1h2v1h2v1h1v1h1v1h1v1zm1 0h-1 1zm-7-16l1-1v1h1v2h1v1l1 1v1l1 1v2h1v3h1v5h-1v-4l-1-1v-3h-1v-2h-1v-2l-1-1v-1h-1v-1h-1v-1zm1-1zm-5-6l1-1v2l1 1v3h1v1h2l-1 1h-1v-1h-1v-1h-1v-3l-1-1v-1zm-2 1h-1 1v-2h1v-1h2v1l-1 1v-1l-1 1v1h-1zm1 6h-1v-1l-1-1v-4h1v4l1 1v1zm-1 2l-1 1v-1h1v-2h1v2h-1v1-1zm-1 1v-1 1zm5 8h1-1v-5h-1v-1h-1v-1h-1v-1h-2l1-1h1v1h2v1h1v1l1 1v5h-1zm1 0h-1 1zm-1 0h1-1z" class="B"/><path d="M369 219l-1 3 1 3 3 3 3 3 1 4c0 3 0 6 2 7h2v-2l-2-4v-3l1-3c0-2-2-6-4-6-3 0-4 0-5-3l-1-3z" class="D"/><path d="M369 222h-1v-4l1 1v3zm1 3h-2v-3h1v3h1zm2 2v1h-1v-1h-1v-1h-1v-1h1v1h1l1 1zm3 3l-1 1v-1h-1v-2h-1v-1h1v1h1v1l1 1zm1 5h-1v-3h-1v-1l1-1v2h1v3zm-1 0zm3 6v1h-1v-1h-1v-3h-1v-3h1v3h1v3h1zm2 1h1v1h-3v-2h1v1h1zm1 0v1-1zm-2-2l1-1v1h1v2h-1v-2h-1zm-1-4h1v2h1v1l-1 1v-1l-1-1v-2zm1 0zm-1-3h1v1h-1 1v2h-1v-2h-1 1v-1zm0-3h1v3h-1v-3zm-3-6v-1 1h2v1h1v2h1v3h-1v-3h-1v-2h-2v-1zm-5-3l1-1v2h1v1h3v1h-4v-1h-1v-2zm-1-2l-1-1h1v1h1v1h1l-1 1-1-1v-1h-1 1zm-1-1l1-1v1h-1zm1 0v1-1zm-1 0l1-1v1h-1z" class="B"/><path d="M360 227l2-1h4c6 1 8 11 2 14-1 0-3-1-4-4s-2-5-4-6v-3z" class="D"/><path d="M362 225v2h-2v-1h2v-1zm4 0v1h-4v-1h4zm2 15v-1h1v-1h1v-1l1-1v-4l-1-1v-1l-1-1v-1h-1v-1h-1l-1-1v-1h1v1h1l1 1v1h1v1l1 1v1l1 1v5h-1v1l-1 1-1 1h-1zm0 0zm-4-3l1-1v1l1 1v1h2v1h-2v-1h-1v-1h-1v-1zm0 0zm-4-7l1-1v1h1v2h1v1l1 1v1h1v1l-1 1v-1h-1v-2h-1v-2h-1v-1h-1v-1zm0 0zm0-3v1-1 2h1l-1 1-1-1v-2h1zm0 0zm0 1v-1 1zm0-1v1-1z" class="B"/><path d="M363 228c5-2 9 8 4 10-3 1-3-2-3-4-1-3-6-4-1-6z" class="D"/><path d="M367 238v-1h1v-1h1v-4l-1-1v-1h-1v-1h-1v-1h-3v-1h3l1 1h1v1l1 1v1l1 1v4l-1 1v1h-2zm-4-4h1v1h1v2h1v1h1v-1 2h-2v-1h-1v-3h-1v-1zm0-7v1l-1 1h-1v1h1v1h1v1l1 1v1h-1v-1h-1v-1h-1v-1h-1v-2l1-1h1v-1h1z" class="B"/><path d="M363 229c3-1 7 5 3 7-2 1-4 0-4-2s-1-4 1-5z" class="G"/><path d="M367 236l-1-1h1v-3h-1v-2h-2l-1-1h3v1h1v1h1v4l-1 1zm-6-2l1-1v1h1v1h1v1h2v-1l1 1h-1v1h-2v-1h-2v-1l-1-1zm2-5l1 1h-2v3l-1 1v-4h1v-1h1zm0 0z" class="B"/><path d="M400 180c4 0 6 3 6 6s-2 6-6 6-6-2-6-6 3-6 6-6z" class="C"/><path d="M407 186h-1a6 6 0 00-3-5l-3-1v-1a7 7 0 017 7zm-7 7v-1c2 0 4-1 5-3a6 6 0 001-3h1c0 2-1 5-3 6a7 7 0 01-4 1zm-7-7h1c0 2 2 4 3 5a6 6 0 003 1v1c-2 0-5-1-6-3a7 7 0 01-1-4zm7-7v1a6 6 0 00-6 6h-1a7 7 0 013-6l4-1z" class="B"/><use xlink:href="#E" class="C"/><path d="M402 175h-1a6 6 0 00-3-5 6 6 0 00-3 0v-2c3 0 5 2 6 4a7 7 0 011 3zm-7 7v-1c3 0 5-1 6-3a6 6 0 000-3h1a7 7 0 01-3 6 7 7 0 01-4 1zm-6-7h1c0 3 1 5 3 6a6 6 0 002 0v1c-2 0-4-1-5-3a7 7 0 01-1-4zm6-7v2a6 6 0 00-5 5h-1c0-2 1-4 3-5a7 7 0 013-2z" class="B"/><path d="M411 131c3 0 6 3 6 7s-3 6-6 6-6-3-6-6 2-7 6-7z" class="C"/><path d="M417 138h-1a6 6 0 00-3-5 6 6 0 00-2-1v-1c2 0 4 1 5 3a7 7 0 011 4zm-6 6v-1a6 6 0 005-5h1a7 7 0 01-6 6zm-7-6h1a6 6 0 003 5h3v1a7 7 0 01-7-6zm7-7v1a6 6 0 00-6 6h-1a7 7 0 017-7z" class="B"/><path d="M400 136c4 0 7 3 7 7s-3 6-7 6-6-3-6-6 3-7 6-7z" class="C"/><path d="M407 143h-1a6 6 0 00-6-6v-1c3 0 5 1 6 3a7 7 0 011 4zm-7 7v-1c3 0 5-2 6-4a6 6 0 000-2h1c0 2-1 4-3 5a7 7 0 01-4 2zm-7-7h1a6 6 0 004 5 6 6 0 002 1v1c-2 0-4-2-5-4a7 7 0 01-2-3zm7-7v1c-2 0-4 1-5 3a6 6 0 00-1 3h-1a7 7 0 014-6 7 7 0 013-1z" class="B"/><path d="M393 145c3 0 6 3 6 7s-3 6-6 6-7-3-7-6 3-7 7-7z" class="C"/><path d="M400 152h-1a6 6 0 00-4-6 6 6 0 00-2 0v-1a7 7 0 017 7zm-7 7v-1c2 0 4-2 5-4a6 6 0 001-2h1a7 7 0 01-4 6 7 7 0 01-3 1zm-7-7h1a6 6 0 003 5 6 6 0 003 1v1a7 7 0 01-7-7zm7-7v1a6 6 0 00-6 6h-1c0-3 1-5 3-6a7 7 0 014-1z" class="B"/><path d="M392 157c3 0 6 3 6 6s-3 6-6 6-7-2-7-6 3-6 7-6z" class="C"/><path d="M398 163h-1c0-2-1-4-3-5a6 6 0 00-2-1v-1a7 7 0 016 7zm-6 7v-1a6 6 0 005-6h1c0 3-1 5-3 6a7 7 0 01-3 1zm-7-7h1a6 6 0 003 5 6 6 0 003 1v1c-3 0-5-1-6-3a7 7 0 01-1-4zm7-7v1a6 6 0 00-6 6h-1a7 7 0 013-6l4-1z" class="B"/><path d="M474 198c-2-5-5-8-8-10 4-13 5-30 3-51l-3-4-1 5 1 30-5 21 4 4 5 5h4z" class="D"/><path d="M465 188l1 1v-1h1v1h1l1 1h1v1h1v1l1 1v1h1v1l1 1v1h1v1h-1l-1-1v-1h-1v-2h-1v-1h-1v-1h-1v-1h-1v-1h-1v-1h-1l-1-1zm1 1h-1v-1l1 1zm2-52h1v4l1 2v29l-1 2v5l-1 2v2l-1 2v2l-1 2-1-1 1-1v-3l1-1v-3l1-1v-6l1-1v-29l-1-2v-4zm0 0zm-2-4v-1h1v1h1v1l1 1v2h-1v-2l-1-1v-1h-1zm-1 5h-1v-4h1v-1h1v-1 2h-1v4zm-1 0zm2 30h-1v-22l-1-8h1v2l1 9v19zm-4 21h-1v-1l1-1v-3l1-1v-3l1-1v-4l1-1v-6h1v6h-1v5l-1 1v4h-1v2l-1 2v1zm4 4l-1 1v-1h-2v-1h-1v-1h-1v-2l1 1v1h1l1 1h1l1 1zm0 0h-1 1zm4 5v1-1h-1v-2h-1v-1h-1v-1h-2l1-1h1v1h1v1h1v1h1v2zm0 1v-1 1zm2-1l-1 1v-1 1h-1v-2h1l1 1zm3 0h-1 1v1h-4l1-1h3zm-1 0v-1l1 1h-1zm0 0h1-1z" class="B"/><path d="M458 215l3-2v-3c-1-6 3-5 6-3l5 6c1 2 3 1 3 2v9l-3 2-5 5c-3 3-7 3-6-2v-3l-3-2-2-2v-3-2l2-2z" class="D"/><g class="B"><path d="M460 213h1v1h-1l-1 1-1-1h1v-1h1zm1-3h1v3h-2 1v-3zm6-3v1l-1-1h-2v-1h-2v4h-1v-4l1-1h2l1 1h1l1 1zm6 5l-1 1h-1v-1h-1v-1l-1-1v-1h-1v-1h-1v-1h1v1h1v1h1v1h1v1h1v1h1zm3 3h-2v-1h-2v-1l1-1v1h1v1h2v1zm0 0zm0 4h-1v-4h1v4zm-1 0zm0 0h1-1zm0 0zm1 5h-1v-5h1v5zm0 0zm-3 2h-1v-1h2v-1h2v1h-2v1h-1zm-6 6v-1l1-1 1-1 1-1v-1h1v-1h2l-1 1v1h-1v1h-1v1h-1v1h-1v1h-1zm-6-3h1v4h2v-1h2v-1h1v1h-1v1h-2v1h-2v-1h-1v-4zm-1-3l1-1v1h1v3h-1v-3h-1zm-2-1l1-1h1v1h1l-1 1v-1h-2zm1-1zm-3-2h1v1h1v1h1l-1 1v-1h-1v-1h-1v-1zm-1-3h1v3h1-2v-3zm1-2h1-1v2h-1v-2h1zm2-3l1 1h-1v1h-1v1h-1v-2h2v-1zm1 1z"/><path d="M476 220l-1 1-9 4c2-2 5-4 10-5zm0-1l-1-1c-3-1-6-2-9-5 2 3 5 5 10 6z"/></g><path d="M461 207l4 2c1 2 0 4-2 7l-1 3 1 4c2 2 3 5 2 7l-4 2v-3-3l-3-2-2-2v-3-2l2-2 3-2v-3-3z" class="D"/><path d="M465 209l-1 1v-1h-1v-1h-2v-1h2v1h1v1h1zm-2 7v-1l1-1v-1h1v-3h-1l1-1 1 1v3h-1v2h-1v1h-1zm0 3h-1v-3h1v3zm0 4h-1v-4h1v4zm2 7l-1-1h1v-3h-1v-2h-1v-1h1v1h1v2h1v3h-1v1zm-4 2h1l-1-1h1l1-1h1v-1l1 1h-1v1h-1v1h-2zm0 0zm0-3h1v3h-1v-3zm-1-3l1-1v1h1v3h-1v-3h-1zm-2-1l1-1h1v1h1l-1 1v-1h-2zm0 0v-1 1zm-2-3h1v1h1v1h1l-1 1v-1h-1v-1h-1v-1zm0 0v1-1zm-1-3h1v3h1-2v-3zm1-2h1-1v2h-1v-2h1zm2-3l1 1h-1v1h-1v1h-1v-2h2v-1zm2-1l1 1h-1v1h-1l-1-1h1v-1h1zm1-3h1v3h-2 1v-3zm0-2v-1h1v3h-1v-3 1zm0-1h1-1zm0 0v1-1zm-100 19h1c-2-2-2-4-2-6-1 1-1 4 1 6z"/><path d="M411 200l2 2h3c5-1 5 2 3 7l-3 6-1 4h-4l-4 1-3-3-6-5c-3-3-4-7 0-7 2 1 3 0 3-1l1-2 1-4h5l3 2z" class="D"/><g class="B"><path d="M413 202l-1 1v-1h-1v-1l-1-1h2v2h1zm-1 1zm4-1v1h-4l1-1h3zm4 7h-1v-2h1v-4h-1l-1-1v1h-2v-1h1l1-1h1v1h1v1h1v4h-1v2zm-4 6h-1 1v-2h1v-1l1-1v-1h1v-1h1v1h-1v2h-1v1h-1v2h-1zm-1 4v-1h-1 1v-3h1v3h-1v1zm0 0zm-4 1v-1h2v-1h2v1h-2v1h-2zm0 0zm0 0v-1 1-1 1zm0-1zm-4 1v-1h4v1h-4zm0 0zm-3-3l1-1v1l1 1v1h1v1h-1v-1h-1v-1h-1v-1zm-6-4l1-1v1h1l1 1h1v1h1v1h2l-1 1h-1v-1h-1l-1-1h-1v-1h-1v-1h-1zm0-8v1h-2v3h1v1l1 1v1h1l-1 1v-1h-1v-1h-1v-2h-1v-3h1v-1h2zm3-1l1 1h-1v1h-3v-1h3v-1zm0 0zm0-3l1 1v3l-1-1v-3zm2-3l1 1h-1v2h-1v1l-1-1h1v-2l1-1zm1 1v-1 1zm1-2l1 1h-2v1l-1-1h1v-1h1zm1 1h-1 1zm2-1v1h-2l-1-1h3zm3 3h-1v-1h-1v-1h-1v-1h1v1h1v1h1v1zm0 0zm-1 0h1-1zm0 0z"/><path d="M410 219h-1a24 24 0 00-6-9c3 1 6 5 7 9zm1 0h1c0-4 0-8 2-11-2 2-3 7-3 11z"/></g><path d="M418 202l-1 4c-1 2-3 2-6 0l-4-1c-2 0-2 1-3 2-1 2-3 4-5 2l-3-3h2c2 0 3-1 3-2l1-2 1-4h5l3 2 2 2h5z" class="D"/><path d="M418 207l-1-1v-2h1v-2h1v2h-1v3zm-8-1l1-1 1 1h1v1h3l1-1 1 1h-1v1h-4v-1h-2v-1h-1zm-3 0v-1l1-1h1v1h2l-1 1h-1v-1h-1v1h-1zm-2 1l-1-1h1v-1h2v1h-2v1zm-6 3v-1h3v-1h1v-1h1v-1l1 1-1 1v1h-1v1h-4zm-3-5l1 1v1h1v1h1v2-1h-1v-1h-1v-1h-1v-2zm0 1v-1 1zm2-1v1h-1l-1-1h2zm3-1l1 1h-1v1h-3v-1h3v-1zm0 0zm0-3l1 1v3l-1-1v-3zm2-3l1 1h-1v2h-1v1l-1-1h1v-2h1v-1zm0 0zm2-1l1 1h-2v1l-1-1h1v-1h1zm0 0h1-1zm3 0v1h-2l-1-1h3zm0 1zm3 2h-1v-1h-1v-1h-1v-1h1v1h1v1h1v1zm2 2l-1 1v-1h-1v-1l-1-1h2v2h1zm-1 1zm4-1v1h-4l1-1h3zm3 0h-1v1h-2v-1h2v-1l1 1zm-1-1h1v1l-1-1z" class="B"/><path d="M392 221l1-1-1-3c-2-5 0-4 4-3l2 2 3 3 3 2 2 4 2 4-2 2-2 5-4 2-1-4-2-3-2-1-2-2-1-3-1-2 1-2z" class="D"/><g class="B"><path d="M393 220v1h-1v1l-1-1h1v-1h1zm0 0zm-1-3h1v2h1v1h-1v-1h-1v-2zm4-3l-1 1v-1h-3v2l1 1h-2v-4h4v1h1zm3 2l-1 1v-1h-1l-1-1h-1l1-1h1v1h1v1h1zm3 2l-1 1h-1v-1h-1v-1h-1l1-1v1h1l1 1h1zm3 2l-1 1h-1v-1h-2v-1l1-1v1h2v1h1zm0 0zm2 5h-2v-3h-1v-1l1-1v2h1v2h1v1zm0 0zm0 0h-1 1l-1-1 1 1-1-1 1 1-1-1 1 1-1-1 1 1zm-1-1l1 1-1-1zm2 5h-1v-2h-1v-2h1v2h1v2zm0 0zm-2 2h-1v-1h1v-1h2v1h-1v1h-1zm-2 5l-1-1h1v-2h1v-2h1v2h-1v2h-1v1zm-4 3v-1h1v-1h1v-1h1v-1l1 1v1h-1v1h-1l-1 1h-1zm-2-5h1v2h1v3-1h-1v-1l-1-1v-2zm-1-3v-1h1v2h1v2h-1v-2h-1v-1zm-2-1v-1h1v1h1v1h-1v-1h-1zm-3-2l1-1v1h1v1h1v1h-1v-1h-1v-1h-1zm-1-2l1-1v1l1 1-1 1v-1h-1v-1zm-1-3h1v1h1v1l-1 1v-2h-1v-1zm1 0zm1-1v-1 2h-2 1v-2l1 1zm0-1h1l-1 1v-1zm0 0v1l-1-1h1zm0 1h-1v-1l1 1z"/><path d="M407 226v1a9 9 0 00-6 5l2-4 3-2zm-1-2h-1l-4-2-5-2 5 3 5 1z"/></g><path d="M391 214l3 2c1 0 2 1 2 3l-1 3 1 4 2 4c2 2 4 5 3 6l-1 2-1-2-2-4-2-2-3-1c-1-2-3-5-1-7s2-3 1-6l-1-2z" class="D"/><path d="M395 215l-1 1h-1v-1h-1v-1h-1l1-1v1h2v1h1zm1 3l-1 1v-2h-1v-2h1v1h1v2zm0 5l-1-1v-3l1-1v5zm-1-1zm1 4h-1v-4l1 1v3zm2 3v1h-1v-2h-1v-2h-1 2v2h1v1zm4 7h-1v-2h-1v-2h-1v-1h-1v-2l1 1 1 1v1h1v1l1 1v2zm-3 2h1v-1h1v-1h1v1h-1v1h-2zm1 0v1l-1-1h1zm-2-2h1l1 1v1h-1v-1h-1v-1zm-1-3v-1h1v2h1v2h-1v-2h-1v-1zm0 0zm-2-3h1v1h1v2-1h-1v-1h-1v-1zm-3-1h3v1h-3v-1zm-1-8l1 1h-1v4h1v2h1v1h-1v-1h-1v-1l-1-1v-4h1v-1zm1-5h1v5h-1v1l-1-1h1v-5zm-1-3v1h1v2h-1v-3zm0 1v-1 1zm0 0v-1h1l-1 1zm0-1h1-1z" class="B"/><path d="M434 226l-2 2v3c2 5-1 4-5 3l-5-5-3-1-1-5-1-4 3-3 3-6c3-3 6-4 6 2l1 3 3 2 2 2 1 2v3l-2 2z" class="D"/><g class="B"><path d="M433 228h-1v-1h1v-1h1v1h-1v1zm-1 0zm1 3h-1v-1h-1v-2h2-1v2h1v1zm-6 3l1-1 1 1h3v-3h1v4h-5v-1h-1zm-5-4v-1h1v1h1v1h1l1 1h1v1h1l-1 1h-1v-1h-1v-1h-1v-1h-1v-1h-1zm0-1zm-4-1l1-1h1v1h2v2-1h-2v-1h-2zm1 0h-1 1zm-1-4v-1h1v4l-1 1v-5 1zm0-1h1-1zm0 0h1-1v1-1zm1 0zm-2-4h1v4h1-2v-4zm0 0zm2-3l1 1h-1v1h-1v1h-1v-1h1v-1h1v-1zm4-6v2h-1v2h-1v2h-1v1l-1-1 1-1v-1l1-1v-1h1v-2h1zm7 2h-1l-1-1v-3h-2v1h-1v1h-1l-1 1v-2h1v-1h2v-1h2v1h1v3h1v1zm0 3v1l-1-1v-3h1v3zm0 0zm3 1l-1 1h-1v-1h-1v-1h1v1h2zm2 2v1h-1v-1h-1v-1h-1l1-1 1 1h1v1zm0 1zm1 2h-1v-3h1v3zm0 3h-1v-3h1v3zm-2 3v-2h1v-1h1v1h-1v1l-1 1zm0-1z"/><path d="M418 223v-1c3-1 6-3 8-6-2 3-5 6-8 7zm0 1l1 1 9 3c-2-2-6-4-10-4z"/></g><path d="M433 233l-4-1c-1-2-1-4 1-7v-3l-2-4c-2-2-3-4-2-6l3-3v3l1 3 3 2 2 2 1 2v3l-2 2-2 2v3l1 2z" class="D"/><path d="M429 232l1-1v1h2v1h1v1h-1v-1h-2v-1h-1zm0-7l1 1v1h-1v4h1l-1 1h-1v-6h1v-1zm0-3h1v4l-1-1v-3zm-1-3l1-1v1h1v3h-1v-2l-1-1zm0 0zm-3-7h1v3l1 1v1h1v1h1l-1 1v-1h-1v-1h-1v-1h-1v-4zm4-3h-1l1 1h-1v1h-1v1h-2v-1h1v-1h1v-1h2zm-1 0l1-1v1h-1zm2 3h-1v-1h-1v-2h1v2h1v1zm0 3v1l-1-1v-3h1v3zm3 1l-1 1h-1v-1h-1v-1h1v1h2zm2 2v1h-1v-1h-1v-1h-1l1-1 1 1h1v1zm0 1zm1 2h-1v-3h1v3zm0 3h-1v-3h1v2h1-1v1zm-2 3v-2h1v-1h1v1h-1v1l-1 1zm0-1zm-1 2h-1v-1h1v-1h1v1h-1v1zm-1 0zm1 3h-1v-1h-1v-2h2-1v2h1v1zm-1 0zm1 3v-1h-1v-2h1v3zm0-1v1-1zm0 0v1-1zm0 0v1-1z" class="B"/><path d="M411 216c4 0 7 4 8 8s-2 8-6 8-8-3-8-7 2-8 6-9z" class="D"/><path d="M420 224h-2v-3h-1v-1l-1-1h-1v-1h-1l-1-1h-2v-1h3v1h1l1 1h1v1h1v2h1v3h1zm-7 8v-1h3v-1h1v-1h1v-2l1-1v-2h1v2l-1 1v2h-1v1l-1 1h-1v1h-3zm-9-7l1-1v1l1 1v1l1 1v1h1v1h1l1 1h3v1h-3l-1-1h-1v-1h-1v-1h-1v-1h-1v-2l-1-1zm7-9v1h-2l-1 1h-1v1h-1v2h-1v3l-1 1v-4l1-1v-1l1-1 1-1h1v-1h3z" class="B"/><path d="M411 219c3-1 6 2 6 5s-1 6-4 6-6-2-6-6c-1-3 1-5 4-5z" class="D"/><path d="M418 224h-2v-2l-1-1v-1h-2v-1h-2v-1h2l1 1h1v1h1v1h1v2l1 1zm-5 6v-1h2v-1h1v-2h1v-2h1v2h-1v2l-1 1-1 1h-2zm0-1zm-7-4l1-1v2h1v1h1v1h1v1h3v1h-3l-1-1h-1v-1h-1v-2h-1v-1zm1-1zm4-6v1h-2v1h-1v1h-1v3l-1 1v-4h1v-1l1-1h1v-1h2z" class="B"/><path d="M411 221c2 0 4 1 4 3s-1 4-3 4-3-2-4-4 1-3 3-3z" class="G"/><path d="M416 224h-2v-2h-1v-1h-2v-1h2v1h1v1h1v2h1zm-4 4v-1h2v-1h1v-2h1v2h-1v1l-1 1h-2zm-4-4h1v2h1v1h2v1h-2v-1h-1v-1h-1v-2zm3-3h1-2v1h-1v2h-1v-2h1v-1h1v-1h1v1zm1 0h-1 1zm0 0h-1v-1l1 1zm-1 0v-1 1z" class="B"/></g><path d="M482 183c4 0 7 3 7 7s-3 7-7 7-7-3-7-7 3-7 7-7z" class="C"/><path d="M489 190h-1a6 6 0 00-3-6l-3-1v-1a7 7 0 017 8zm-7 7v-1a6 6 0 006-6h1a7 7 0 01-7 7zm-7-7h1a6 6 0 006 6v1c-2 0-5-1-6-3a7 7 0 01-1-4zm7-8v1a6 6 0 00-6 7h-1a7 7 0 013-6l4-2z" class="B"/><path d="M482 171c4 0 7 3 7 7s-3 7-7 7-7-3-7-7 3-7 7-7z" class="C"/><path d="M489 178h-1a6 6 0 00-3-6 6 6 0 00-3 0v-1a7 7 0 017 7zm-7 7v-1a6 6 0 006-6h1a7 7 0 01-7 7zm-7-7h1a6 6 0 006 6v1a7 7 0 01-6-3 7 7 0 01-1-4zm7-7v1a6 6 0 00-6 6h-1a7 7 0 013-6l4-1z" class="B"/><path d="M482 160c4 0 7 3 7 6s-3 7-7 7-7-3-7-7 3-6 7-6z" class="C"/><path d="M489 167h-1a6 6 0 00-3-6 6 6 0 00-3-1v-1a7 7 0 017 7zm-7 7v-1a6 6 0 006-6h1a7 7 0 01-7 7zm-7-7h1a6 6 0 003 5 6 6 0 003 1v1c-2 0-5-1-6-4a7 7 0 01-1-3zm7-8v1a6 6 0 00-6 7h-1a7 7 0 013-7l4-1z" class="B"/><use xlink:href="#F" class="C"/><path d="M489 134h-1a6 6 0 00-3-6 6 6 0 00-3 0v-1a7 7 0 017 7zm-7 7v-1a6 6 0 006-6h1c0 3-1 5-3 6a7 7 0 01-4 1zm-7-7h1a6 6 0 003 6 6 6 0 003 0v1a7 7 0 01-7-7zm7-7v1a6 6 0 00-6 6h-1a7 7 0 013-6l4-1z" class="B"/><path d="M482 137c4 0 7 3 7 7s-3 7-7 7-7-3-7-7 3-7 7-7z" class="C"/><path d="M489 144h-1a6 6 0 00-3-6 6 6 0 00-3 0v-1a7 7 0 016 3l1 4zm-7 7v-1a6 6 0 006-6h1a7 7 0 01-7 7zm-7-7h1a6 6 0 003 6 6 6 0 003 0v1a7 7 0 01-6-3l-1-4zm7-7v1a6 6 0 00-6 6h-1a7 7 0 017-7z" class="B"/><path d="M482 148c4 0 7 3 7 7s-3 7-7 7-7-3-7-7 3-7 7-7z" class="C"/><path d="M489 155h-1a6 6 0 00-3-6 6 6 0 00-3 0v-1a7 7 0 017 7zm-7 7v-1a6 6 0 006-6h1c0 3-1 5-3 6a7 7 0 01-4 1zm-7-7h1a6 6 0 003 6 6 6 0 003 0v1a7 7 0 01-7-7zm7-7v1a6 6 0 00-6 6h-1a7 7 0 013-6l4-1z" class="B"/><path d="M487 196l1 2h4c5 0 4 3 2 6l-5 5-2 4h-9l-2-4-6-5c-2-3-3-6 2-6h4l1-2 3-3h5l2 3z" class="D"/><g class="B"><path d="M489 198h-2v-3h1v2h1v1zm-1 0zm4 0v1h-4v-1h4zm2 7v-2l1-1v-3h-3v-1h4v5h-1v1l-1 1zm-5 5l-1-1h1v-1h1v-1h1l1-1v-1h1v-1h1v2h-1v1h-1l-1 1-1 1h-1v1zm-2 3v-1h-1 1v-2h1v-1l1 1v1h-1v1h-1v1zm0 0zm-5 0v-1h5v1h-5zm0-1zm0 0v1-1zm0 0zm-5 1l1-1h4v1h-5zm1 0h-1 1zm-3-3l1-1v1h1v1l1 1-1 1v-1h-1v-2h-1zm-5-5l1-1v1h1v1h1v1h1v1h1v1h1l-1 1v-1h-1v-1h-1v-1h-1v-1h-1v-1h-1zm3-7l-1 1h-3v3h1v2h1l-1 1v-1h-1v-2h-1v-3l1-1h4zm3-1v2h-4l1-1h3v-1zm1-2l1 1h-1v2h-1v-2h1v-1zm0 0zm2-2l1 1h-1v1h-1v1l-1-1v-1h1v-1h1zm3-1v1h-2v1l-1-1h1v-1h2zm3 1l-1 1h1-1v-1h-2v-1h2v1h1zm0 0zm2 3v-1 1h-1v-2h-1v-1h1v1h1v2zm0-1l1 1h-1v-1zm0 0v1-1zm0 1l-1-1h1v1z"/><path d="M481 213h-1c0-4-2-7-4-10 3 2 5 6 5 10z"/></g><path d="M494 198l-2 4c-1 1-4 0-6-2l-4-1-3 1c-3 2-5 3-7 2l-2-4h6l1-2 3-3h5l2 3 1 2h6z" class="D"/><path d="M493 202l-1-1h1v-2h1v-1h1v1h-1v2h-1v1zm-8-1l1-1h1v1h1v1h4v-1l1 1h-1v1h-4v-1h-1l-1-1h-1zm1-1h1-1zm-4 0v-1h3v1h1l-1 1v-1h-3zm-3 1l-1-1h1v-1h3v1h-3v1zm-7 1v-1l1 1h3v-1h1l1-1 1 1h-1v1h-2v1h-4v-1zm-2-4v1l1-1v2h1v2h-1v-1l-1-1v-2zm0 0h-1 1zm3 0l-1 1h-2v-1h3zm3 0v1h-4l1-1h3zm0 0v1-1zm1-3l1 1h-1v2h-1v-2h1v-1zm2-2l1 1h-1v1h-1v1l-1-1v-1h1v-1h1zm3-1v1h-2v1l-1-1h1v-1h2zm3 1l-1 1v-1h-2v-1h2v1h1zm0 0zm2 2v1h-1v-2h-2l1-1h1v1h1v1zm2 3h-2v-3h1v2h1v1zm-1 0zm4 0v1h-4v-1h4zm3 0h-1v1h-2v-1h3zm-1 0h1-1zm0 0h1-1zm0 0h1-1z" class="B"/><use xlink:href="#G" class="D"/><path d="M483 213h1c0-4 2-7 4-10-3 2-4 6-5 10z" class="B"/><use width="1350" height="900" transform="matrix(-1 0 0 1 964 0)" xlink:href="#H"/><path d="M577 294c2 0 3 1 3 2 0 2-1 3-3 3l-2 1c-60 5-125 5-186 0a9 9 0 01-2-1c-2 0-3-1-3-3 0-1 1-2 3-2a9 9 0 012-1c61-5 126-5 186 0a9 9 0 012 1z" class="D E"/><g class="B"><path d="M412 298v-1h7l3-1h13v1h-10l-1 1h-3 14v2h-1l-1-1h-19v-1h-2zm0 0zm47-3v1h-9l-1 1h-14v-1h8l1-1h15zm23 0v1h-23v-1h23zm23 0v1h-23v-1h23zm24 1v1h-16v-1h-8v-1h13l3 1h8zm23 1h1v1h-2l-4 1h-17v1h-1v-2h13-2l-3-1h-8v-1h12l2 1h9zm0 1zm-116 0v2h-1l1-2zm93 2v-1h-1v-1h1v2zM479 263v-1h3v1h-3zm0-1zm-2 0h2v1h-2v-1zm0 1zm0-1v1-1zm-1 0h1v1h-1v-1zm0 0zm-1 0h1v1h-1v-1zm0 1zm0-1v1-1zm0 0h-1 1zm-1 0h1v1h-1v-1zm0 0zm-1 0h1v1h-1v-1zm-2 0h2v1h-2v-1zm0 0zm0 0v1-1zm-1 0h1v1h-1v-1zm-2 1v-1h2v1h-2zm0-1zm-1 0h1v1h-1v-1zm0 1zm0-1v1-1zm0 0zm-1 0h1v1l-1 1v-2zm0 2zm0-2v2-2zm0 0zm-1 0h1v2h-1v-2zm0 2zm-1-1l1-1v2h-1v-1zm0 0zm0 0v1-1zm0 1zm-1-1h1v1h-1v-1zm0 0v1-1zm-1 0h1v1h-1v-1zm0 0zm0 0v1-1zm0 1h-1 1zm-1-1h1v1h-1v-1zm-2 0h2v1h-2v-1zm0 0zm0 0v1-1zm0 1zm-1-1h1v1h-1v-1zm0 0v1-1zm0 0zm0 0v1-1zm0 1zm-5 0v-1h5v1h-5zm0-1zm0 0v1-1zm0 0zm-2 0h2v1h-2v-1zm0 1zm0-1v1-1zm0 0zm-1 0h1v1h-1v-1zm-1 0h1v1h-1v-1zm-1 0h1v1h-1v-1zm0 0zm0 0v1-1zm0 1zm-2-1h2v1h-2v-1zm0 1zm0-1v1-1zm0 0zm-1 0h1v1h-1v-1zm0 0zm0 0v1-1zm0 1zm-1-1h1v1h-1v-1zm-1 0h1v1h-1v-1zm0 0zm-1 0h1v1h-1v-1zm0 1zm0-1v1-1zm0 0zm-7 1v-1h7v1h-7zm0 0zm0-1v1-1zm0 0zm-9 2v-1h5l4-1v1l-1 1h-8zm0 0zm0-1v1-1zm0 0zm-1 0h1v1h-1v-1zm-18 2v-1h8l2-1h8v1h-7l-3 1h-8zm0 0zm0-1v1-1zm0 0zm0 0v1-1zm0 1zm-27 3v-1l2-1h6l4-1h9l4-1h2v1h-2l-2 1h-9l-3 1h-9l-2 1zm0 0zm0-7v1h-2v1h-1v3h2v1h1v1h-1v-1h-2v-1h-1v-3l1-1v-1h3zm0 1zm27-4v1h-2l-2 1h-9l-3 1h-9l-2 1v-1l2-1h9l1-1h11l2-1h2zm0 1zm0 0v-1 1zm0-1zm37-2v1h-7l-3 1h-16l-2 1h-9v-1h9l2-1h16l4-1h6zm1 1h-1v-1h1v1zm0 0zm0 0v-1 1zm0-1zm0 1v-1 1zm1 0h-1v-1h1v1zm0 0zm0 0v-1 1zm0-1zm16 0v1h-16v-1h16zm1 1h-1v-1h1v1zm0 0zm0 0v-1 1zm0-1zm1 1h-1v-1h1v1zm0 0zm0 0v-1 1zm0 0zm0 0v-1 1zm0-1zm1 1h-1v-1h1v1zm1 0h-1v-1h1v1zm0-1zm1 1h-1v-1h1v1zm0 0v-1 1zm0 0zm1 0h-1v-1l1-1v2zm0-2zm0 2v-2 2zm3-2v1l-3 1v-2h3zm1 1h-1v-1h1v1zm1 0h-1v-1h1v1zm0-1zm1 1h-1v-1h1v1zm3-1v1h-3v-1h3zm0 0zm0 1v-1 1zm0 0zm2 0h-2v-1h2v1zm3-1v1h-3v-1h3zm4 0v1h-4v-1h4zm1 1h-1v-1h1v1zm0 0zm0 0v-1 1zm0-1zm4 0v1h-4v-1h4zm1 1h-1v-1h1v1zm0-1zm0 1v-1 1zm1 0h-1v-1h1v1zm3-1v1h-3v-1h3zm1 1h-1v-1h1v1zm0-1zm0 2v-2 2zm0 0zm1 0h-1v-2h1v2zm0 0v-2 2zm0-1zm1 1h-1v-1h1v1zm1 0h-1v-1h1v1zm0-1zm0 1v-1 1zm0 0zm0 0v-1 1zm0 0zm2 0h-2v-1h2v1zm0-1zm0 1v-1 1zm0 0zm1 0h-1v-1h1v1zm15-1v1h-15v-1h15zm0 0zm0 1v-1 1zm0 0zm1 0h-1v-1h1v1zm0 0v-1 1zm0-1h1-1zm1 1h-1v-1h1v1zm0 0zm1 0h-1v-1h1v1zm37 1v1h-10l-2-1h-16l-2-1h-7v-1h7l3 1h15l2 1h10zm0 0zm0 1v-1 1zm0 0zm26 2v1l-3-1h-8l-2-1h-6l-5-1h-2v-1h2l3 1h8l2 1h9l2 1zm0 1zm0 6v-1h1v-1h2v-1l1-1h-1v-1l-1-1h-2v-1h3v1h1v2h1v1h-1v1l-1 1h-1l-1 1h-1zm0 0zm-26-3v-1h2l3 1h9l1 1h9l2 1v1l-3-1h-8l-2-1h-6l-5-1h-2zm0 0zm0-1v1-1zm0 0zm-1 0h1v1h-1v-1zm0 1zm-18-1v-1h8l1 1h9v1h-9l-2-1h-7zm0-1v1-1zm0 0zm-1 0h1v1h-1v-1zm0 1zm-9-1v-1h1l1 1h7v1h-8v-1h-1zm0-1zm0 0v1-1zm0 1zm-6 0v-1h6v1h-6zm0-1zm0 0v1-1zm0 1zm-2-1h2v1h-2v-1zm0 0zm-1 0h1v1h-1v-1zm-1 0h1v1h-1v-1zm0 1zm0-1v1-1zm0 0zm-1 0h1v1h-1v-1zm0 0zm0 0v1-1zm0 1zm-2-1h2v1h-2v-1zm0 1zm0-1v1-1zm0 0zm0 0v1-1zm-1 0h1v1h-1v-1zm-2 0h2v1h-2v-1zm0 0zm0 0v1-1zm0 1zm-2-1h2v1h-2v-1zm0 0zm0 0v1-1zm-4 1v-1h4v1h-4zm0 0zm0-1v1-1zm0 0zm-1 0h1v1h-1v-1zm-1 0h1v1h-1v-1zm0 1zm0-1v1-1zm0 0zm-1 0h1v1h-1v-1zm-1 0h1v1h-1v-1zm0 1zm-1-1h1v1h-1v-1zm0 0zm0 0v1-1zm-1 0h1v1h-1v-1zm-1 0h1v1h-1v-1zm0 1zm0-1v1-1zm0 0zm-1-1l1 1v1h-1v-2zm0 2zm-1-2h1v2l-1-1v-1zm0 0zm0 0v1-1zm0 1zm-1-1h1v1h-1v-1zm0 0zm0 0v1-1zm0 1zm0-1v1h-1l1-1zm0 0zm-3 1v-1h2v1h-2zm-1-1h1v1h-1v-1zm0 0v1-1zm0 0zm-1 0h1v1h-1v-1zm-1 0h1v1h-1v-1zm0 0zm-1 0h1v1h-1v-1zm0 0zm-1 0h1v1h-1v-1zm0 1zm0-1v1-1zm0 0zm-1 0h1v1h-1v-1zm-1 0h1v1h-1v-1zm0 1zm-1-1h1v1h-1v-1zm0 0zm-4 1v-1h4v1h-4zm0 2l-22 12-1-1 23-12v1zm0-1zm23 13l-23-12v-1l23 12v1zm0-1h1l-1 1v-1zm-23 11l23-11v1l-23 11v-1zm0 1zm-22-12l22 11v1l-23-11v-1h1zm-1 1l-1-1h1v1z"/></g><path d="M482 269c6 0 10 3 10 7s-4 7-10 7-10-3-10-7 4-7 10-7z" class="G"/><path d="M493 276h-1v-2h-1v-1h-1v-1h-1v-1h-2v-1h-5v-1h5l1 1h1l1 1 1 1h1v2h1v2zm-11 7v-1h5v-1h2v-1h1v-1h1v-1h1v-2h1v2h-1v2h-1v1h-1l-1 1h-1l-1 1h-5zm-11-7h1v1h1v2h1v1h1l1 1h1v1h5v1h-5v-1h-2v-1h-1l-1-1-1-1v-2h-1v-1zm11-7v1h-5v1h-1l-1 1h-1v1h-1v2h-1v1h-1v-1h1v-2h1v-1h1v-1h1v-1h2l1-1h4z" class="B"/><use xlink:href="#G" class="D"/><path d="M490 219h-1v-3h-1v-1h-1v-1h-1v-1h-1l-1-1h-2v-1h2l1 1h1l1 1h1v1h1v1l1 1v3zm-8 9v-1h2v-1h2v-1h1v-1h1v-1h1v-4h1v4h-1v2h-1v1h-1l-1 1h-2v1h-2zm-8-9h1v3l1 1v1h1v1h1v1h2l1 1h1v1h-2v-1h-2v-1h-1l-1-1v-1h-1v-1l-1-1v-3zm8-8v1h-2v1h-2v1h-1v1h-1v1l-1 1v2h-1v-2l1-1v-1l1-1 1-1h1v-1h2v-1h2z" class="B"/><path d="M482 214c3 0 6 2 6 5s-3 6-6 6-6-2-6-6 3-5 6-5z" class="D"/><path d="M488 219h-1v-2h-1v-1l-1-1h-1v-1h-2v-1h2v1h2v1h1v1h1v3zm-6 7v-1h1v-1h2v-1h1v-1h1v-3h1v3l-1 1v1h-1v1h-2l-1 1h-1zm-6-7h1v3h1v1h1v1h2v1h1v1h-1v-1h-2l-1-1-1-1v-1h-1v-3zm6-6v1h-1l-1 1h-1v1h-1v1h-1v2h-1v-2h1v-2h1v-1h2v-1h2z" class="B"/><path d="M482 216c2 0 4 1 4 3s-2 4-4 4-3-2-3-4 1-3 3-3z" class="G"/><path d="M486 219h-1v-2h-2v-1h-1v-1h1v1h2v1h1v2zm-4 5v-1l1-1h1l1-1v-2h1v3h-1v1h-2v1h-1zm-4-5h1v2h1v1h2v2l-1-1h-1l-1-1v-1h-1v-2zm4-4v1h-1v1h-1v1h-1v1h-1v-1h1v-2h2v-1h1z" class="B"/></g><path d="M315 301v271c0 49 18 93 49 125s72 52 118 52 88-20 119-52 49-76 49-125V301H315z" class="H"/><g class="C"><path d="M313 300v277l1 5v9l1 4v4l1 5 1 4 1 4 1 5 1 4 1 4 1 4 2 4 1 4 2 4 1 4 2 4 2 4 2 4 2 4 2 3 2 4 2 4 3 3 2 4 2 3 3 3 3 4 2 3 3 3 3 3 2-2-3-3-3-3-3-3-2-3-3-3-2-4-2-3-3-4-2-3-2-4-2-3-2-4-2-4-2-4-1-4-2-3-2-4-1-4-1-4-2-5-1-4-1-4-1-4-1-4-1-5v-4l-1-4v-5l-1-4V302h333l-1 275v13l-1 5v4l-1 4-1 5-1 4-1 4-1 4-1 4-1 5-2 4-1 4-2 4-1 3-2 4-2 4-2 4-2 4-2 3-2 4-2 3-2 4-3 3-2 4-3 3-2 3-3 3-2 3-3 3-3 3-3 3-3 3-3 3-3 2-3 3-4 2-3 3-3 2-4 2-3 2-4 2-3 2-4 2-3 2-4 2-4 1-4 2-4 1-3 2-4 1-4 1-4 1-4 1-4 1-5 1h-4l-4 1h-8l-5 1h-4v2h9l4-1h9l4-1 4-1 4-1 4-1 4-1 4-1 4-1 4-1 4-2 4-1 4-2 4-2 3-2 4-1 4-2 3-3 4-2 3-2 3-2 4-3 3-2 3-3 3-3 4-2 3-3 3-3 2-3 3-3 3-3 3-3 2-4 3-3 2-3 3-4 2-3 2-4 2-4 3-3 2-4 1-4 2-4 2-4 2-4 1-4 2-4 1-4 1-4 2-4 1-4 1-5 1-4v-4l1-5 1-4v-9l1-4V300z"/><g class="E F"><path d="M484 735c1 0 4 0 5-2 3-2 2-9 2-14l-4-128h-10l-3 128c-1 5-2 12 1 14 2 2 4 2 6 2h3z"/><path d="M500 734l-6-1c-3-2-3-10-3-14l-8-128 5-1h1c9 59 13 101 19 127 1 3 3 12 0 15-2 2-4 1-5 2h-3z"/><path d="M518 731h-6c-3-1-2-9-4-14-6-26-10-68-19-127l5-1c15 58 20 98 31 124 1 3 4 12 2 15l-6 3h-3z"/><path d="M537 726c-1 0-4 2-6 1-3-1-4-10-6-14-11-26-16-66-31-124l5-2 3-1c18 57 23 97 40 122 3 4 5 12 3 14-1 2-4 3-5 3l-3 1zm-72 8l6-1c2-2 2-10 3-14l7-128-5-1c-10 59-14 101-20 127-1 3-3 12 0 15 2 2 4 1 6 2h3z"/><path d="M446 731h6c3-1 3-9 4-14 6-26 10-68 20-127l-5-1h-1c-15 58-19 98-31 124-1 3-4 12-1 15 1 2 4 2 5 3h3z"/><path d="M427 726c2 0 4 2 6 1 3-1 4-10 6-14 12-26 16-66 32-124l-5-2-4-1c-17 57-23 97-40 122-3 4-5 12-3 14l5 3 3 1zm100-43h-5c-3-2-5-9-7-14-11-24-22-65-40-124l4-1 5-1c19 58 27 99 46 122 3 4 6 12 4 15l-4 2-3 1z"/><path d="M512 686l-6-1c-2-1-3-9-4-14l-26-126 4-1 5-1c15 59 18 103 32 126 3 4 4 12 2 14-1 2-3 2-4 2l-3 1z"/><path d="M496 688l-5-1c-2-2-2-10-3-15l-11-128h9c8 59 12 102 18 127 1 5 2 12 0 15l-5 1-3 1z"/><path d="M437 683h6c3-2 4-9 6-14 12-24 23-65 40-124l-4-1-4-1c-20 58-28 99-47 122-3 4-5 12-4 15l5 2 2 1z"/><path d="M452 686l6-1c2-1 3-9 4-14l27-126-5-1-4-1c-15 59-19 103-33 126-2 4-4 12-2 14 1 2 4 2 5 2l2 1z"/><path d="M468 688l5-1c3-2 3-10 3-15l12-128h-9c-8 59-13 102-18 127-1 5-3 12-1 15l5 1 3 1z"/><path d="M484 688l5-1c2-2 1-10 1-15l-3-128h-9l-4 128c0 5-1 13 2 15l5 1h3z"/><path d="M517 648h-5c-2-1-3-9-4-14-9-24-18-65-31-123l3-1 3-2c15 58 22 99 36 122 2 4 4 12 3 15-1 2-3 2-3 2l-2 1z"/><path d="M505 651c-1 0-3 1-4-1-2-1-3-9-4-14l-20-126 4-1h3c11 58 14 102 25 125 2 4 3 12 2 14l-4 3h-2z"/><path d="M493 653l-4-1c-2-2-2-10-2-15l-9-127 3-1h4l14 127v15l-4 1-2 1z"/><path d="M448 648h4c2-1 3-9 5-14 9-24 17-65 31-123l-4-1-3-2c-15 58-21 99-36 122-2 4-4 12-3 15 1 2 3 2 4 2l2 1z"/><path d="M459 651c1 0 3 1 5-1 2-1 2-9 3-14l20-126-3-1h-4c-11 58-14 102-25 125-2 4-3 12-1 14l3 3h2z"/><path d="M471 653l4-1c2-2 2-10 3-15l8-127-3-1h-4l-13 127c-1 5-2 13-1 15l4 1 2 1z"/><path d="M483 653l4-1c2-2 1-10 1-15l-2-128h-7l-3 128c0 5-1 13 1 15l4 1h2z"/><path d="M475 559v14l-11 2c0 5 12 56 18 56s18-51 18-56l-10-2-1-14-7 8-7-8z"/></g></g><g id="I"><path d="M412 585c-3 0-7 1-18 11-5 11-11 21-17 30l-7 3h-16c-5-4-12-1-9 3-2 2 2 8 5 5 3-2 13 0 16-1-1 3-10 5-17 5-5 1-5 6-3 11 3 2 1-1 2 1 2 4 8 3 8-1s14-9 16-12c-2 6-8 12-11 18-3 3-5 3-1 9 4 0 5-1 7 1 6 0 7-2 6-7s4-14 5-17l3-6c2-3 12-8 15-6 5 2 9 1 9-4-1-1 0-8-4-8-2 0-4 0-6 2-4 4-7 5-8 5-3-1 6-5 14-16 11-14 12-21 11-26z" class="D E F"/><use width="1350" height="900" transform="matrix(-1 0 0 1 802 0)" xlink:href="#J"/><path d="M345 635c-4-3-6-3-8-1-1 1-2 1-1-1 3-6 7-7 11-4l3 3-5 3zm58-6c4-3 8-4 10-2 1 1 2 0 1-1-4-6-9-7-13-3l-3 3 5 3zm-34 36c0-1-1-6-3-8l-4 4c-4 4-4 11 3 17 1 1 2 0 1-2-1-3 0-6 3-11zm-17-14c-3 2-5 4-5 6s-1 2-1 1c-5-12 0-14 7-13 1 2 0 6-1 6z"/><g class="B"><path d="M384 621l1 1v2h1v1h1l-1 1h-1v-1h-1v-4zm6 1v1h-1v-1h-1v-1h-3v1l-1-1 1-1h3l1 1h1v1z"/><path d="M387 618h1v2h1v1h1v2h-1v-1h-1v-1h-1v-3zm7 0l-1 1h-1v-1h-1v-1h-2v1h-2v-1h1v-1h3v1h2v1h1z"/><path d="M391 613h1v4h1v1h1l-1 1-1-1-1-1v-1l-1-1v-1h1v-1zm7 1l-1 1v-1h-1v-1h-1l-1-1h-1l-1 1h-1v-1h1v-1h3v1h1l1 1 1 1z"/><path d="M395 608h1v4h1v1h1v1l-1 1v-1h-1v-1h-1v-2h-1v-2l1-1zm7 1v1h-1v-1h-1v-1h-1v-1h-3v1h-1v-1h1v-1h1v-1h1v1h2v1h1v1h1v1z"/><path d="M399 603h1v4h1v1h1v2h-1v-1h-1v-1h-1v-3h-1v-1h1v-1zm8 1l-1 1-1-1-1-1-1-1h-2v1h-2v-1h1v-1h1l1-1v1h2v1h1v1h1v1h1z"/></g><g class="C E F"><path d="M463 581l-10-6c-4 3-7 14 0 22 9 11 12 19 14 28 6-8 8-16 4-24l-8-20z"/><path d="M470 573l-9-5c-4 2-12 13-6 22 9 10 18 19 20 27 6-8 9-16 5-24-6-11-10-17-10-20z"/><path d="M449 569l-9-5c-4 3-7 13 0 22 8 11 12 19 14 27 6-7 8-16 4-24-5-11-9-17-9-20z"/></g><path d="M406 469l-2 75c-1 8-4 13-8 17-4-5-6-12-6-20v-70c7-17 12-17 16-2z" class="C"/><path d="M404 544h-1v-7l1-5v-32l1-6v-25h1v20l-1 11v32l-1 5v7zm-9 17l1-1h-1 1v-1h1v-1h1v-1h1v-1l1-1v-1l1-1v-1l1-1v-2l1-1v-4h1v4l-1 1v2l-1 1v2h-1v1l-1 1v1l-1 1v1h-1l-1 1-1 1h-1zm1 0h-1 1zm-7-20h1v4l1 1v4l1 1v2l1 1v1l1 1v1l1 1v1l1 1-1 1v-1l-1-1v-1h-1v-2h-1v-2l-1-1v-2l-1-1v-4l-1-1v-3zm1-70l1 1v-1 18l-1 6v46h-1v-41l1-11v-18zm0 0zm16-2h-1v-1l-1-2v-2l-1-1v-1l-1-1v-1h-1v-1h-4v1l-1 1-1 1v1l-1 1v1l-1 1v1l-1 2-1 1v2l-1-1v-1l1-2 1-1v-1l1-2v-1l1-1v-1h1l1-1v-1h1v-1h4v1h1v1h1v1l1 1v2l1 1v1l1 1v2zm0 0z" class="B"/><path d="M368 455l-3 79c0 7 9 49 14 58 12-6 15-34 13-62s0-52 2-57l-1-19-25 1z" class="C"/><path d="M365 534l2-79h1l-2 79h-1zm1 0zm13 57v1h-1v-1l-1-1v-1l-1-2v-1l-1-2v-2l-1-2-1-2v-2l-1-2v-2l-1-2v-3l-1-2-1-2v-3l-1-2v-2l-1-2v-5l-1-2v-4l-1-1v-8h1v8l1 1v4l1 2v4l1 3v2l1 2v3l1 2 1 2v2l1 3v2l1 2v2l1 2 1 2v2l1 2v1l1 1v2l1 1v1-1zm0 1h-1 1zm12-62h1v5l1 3v20l-1 3v6l-1 2v3l-1 2v2l-1 1v2l-1 2v2l-1 1-1 1-1 2-1 1-1 1-1 1-1 1-1 1h-1v-1h1l1-1 1-1 1-1 1-1v-1l1-1 1-1 1-2v-1l1-2v-2l1-2v-2l1-2v-2l1-2v-7l1-2v-20l-1-3v-5zm2-57h1v3l-1 1v5l-1 1v12l-1 2v23l1 2v8h-1v-7l-1-3v-25l1-2v-8l1-2v-6l1-1v-3zm1 0v1-1zm-1-18v-1 3l1 1v15h-1v-15l-1-1v-3l1 1zm0-1zm-25 1h-1l1-1h25v1h-25zm-1 0v-1h1l-1 1zm1 0zm-1 0v-1h1l-1 1z" class="B"/><path d="M353 468l2 79c-1 8 11 49 16 57 13-10 10-50 8-62-3-24-3-52-1-57l-1-20-24 3z" class="C"/><path d="M354 547l-1-79h1l1 79h-1zm1 0zm16 57h1-1l-1-1v-1l-1-1-1-1v-2l-1-1v-2l-1-2-1-2-1-2v-2l-1-2-1-3v-2l-1-2-1-2v-3l-1-2-1-2v-3l-1-2v-2l-1-2v-4l-1-1v-5l-1-1v-2h1v3l1 2v3l1 1v4l1 2v2l1 2v2l1 3 1 2v2l1 3 1 2v2l1 2 1 2v3l1 2 1 2v1l1 2 1 2v1l1 2 1 1v1l1 1h-1zm1 0l-1 1v-1h1zm7-62h1v4l1 2v33l-1 2v5l-1 2v2l-1 2-1 2v2l-1 1-1 2-1 1-1 1-1 1h-1l1-1 1-1 1-2 1-1 1-2v-1l1-2 1-2v-2l1-2v-5l1-2v-33l-1-2v-4zm-2-57h1v3l-1 1v30l1 2v10l1 2v4l1 3v2h-1v-2l-1-2v-5l-1-2v-10l-1-2v-30l1-1v-3zm1 0v1-1zm-1-19v-1 4l1 1v15h-1v-15l-1-1v-4l1 1zm0-1zm-24 3v-1h5l19-2v1h-8v1h-8v1h-8zm0 0zm0-1v1-1zm0 1v-1 1z" class="B"/><path d="M342 487l21-1c-2 9 0 36 3 56 4 20 8 70-12 82-12-27-3-52-9-75-5-25-6-45-3-62z" class="C"/><path d="M363 487h-21v-1h22l-1 1zm0-1h1-1zm4 56h-1v-1l-1-2v-5l-1-2v-6l-1-2v-8l-1-2v-27l1-1h1l-1 1v27l1 2v8l1 2v6l1 2v4l1 2v2zm-13 82l1-1h-1l2-1 2-1 1-2 1-2 2-2 1-2 1-2 1-3 1-2v-3l1-3v-2l1-3v-6l1-3v-19l-1-3v-8l-1-3v-7l-1-2v-2h1v2l1 2v7l1 3v8l1 3v19l-1 3v6l-1 3v3l-1 2v3l-1 3-1 2-1 3-1 2-2 2-1 2-2 1-1 2-2 1h-1zm1 0h-1 1zm-10-75h1v2l1 2v4l1 3v37l1 2v7l1 3 1 2v3l1 2 1 3 1 2 1 2-1 1-1-3-1-2-1-3-1-2v-3l-1-2v-2l-1-3v-5l-1-2v-37l-1-3v-4l-1-2v-2zm0 0zm-3-63v1h1l-1 1v7l-1 2v22l1 2v8l1 2v4l1 3v4l1 2v2l1 3h-1l-1-2v-3l-1-2v-4l-1-2v-5l-1-2v-8l-1-2v-22l1-2v-7l1-1v-1zm0 1v-1 1zm0 0v-1 1zm0 0v-1 1z" class="B"/><path d="M422 454l-4 75c-1 8-4 14-8 17-4-5-6-12-6-20l3-70c7-17 12-17 15-2z" class="C"/><path d="M419 529h-1v-14l1-5v-12l1-3v-9l1-9v-17l1-2v-4h1v4l-1 2v17l-1 9v6l-1 9v9l-1 5v14zm-10 17l1-1h-1 1v-1h1v-1h1v-1h1v-1l1-1v-1h1v-2h1v-3h1v-4l1-1h1l-1 1v4l-1 1v2l-1 1v1h-1v2h-1v1l-1 1-1 1-1 1-1 1h-1zm1 0h-1 1zm-6-20h1v8h1v3l1 1v2l1 1v1l1 1v1l1 1-1 1v-1l-1-1v-1h-1v-2h-1v-3h-1v-3l-1-1v-8zm2-70l1 1v-1 13l-1 8v17l-1 6v26h-1v-21l1-8v-15l1-13v-13zm0 0zm17-2h-1l-1-1v-2l-1-2v-1l-1-1v-2h-1v-1h-3l-1 1-1 1-1 1v1l-1 1v1l-1 1-1 1v2l-1 1-1 2-1-1 1-1 1-2v-1l1-1 1-2v-1l1-1v-1h1l1-1v-1h1v-1h4v1h1v1l1 1 1 1v2l1 1v3l1 1zm0 0zm-1 0h1-1zm1 0z" class="B"/><path d="M385 407l-1 63c1 8 4 17 7 22 4-3 8-8 8-16l1-56-12-10-3-3z" class="C"/><path d="M385 470h-1v-63h1v63zm6 22v1l-1-1v-1h-1v-2h-1v-2h-1v-2l-1-1v-2l-1-1v-4l-1-1v-6h1v6l1 1v3l1 1v2l1 1v2l1 1v1l1 1v2h1v1zm0 1zm8-17h1v2l-1 1v3l-1 1v2h-1v2h-1v1l-1 1v1h-1l-1 1v1h-1l-1 1v-2h1v-1h1v-1h1v-1h1v-1l1-1v-1l1-1v-2h1v-3l1-1v-2zm1-56l1-1v32l-1 3v22h-1v-22l1-5v-29zm1-1v1-1zm-13-9v1l1-1 1 1 1 1 1 1 1 1 1 1h1v1h1l1 1 1 1h1v1h2l-1 1-1-1h-1l-1-1h-1v-1h-1l-1-1-1-1-1-1h-1v-1h-1v-1h-1v-1h-1v-1zm0 0h-1 1zm-3-3h-1 2v1h1v1h1v1h1l-1 1v-1 1-1h-1v-1h-1v-1h-1v-1zm-1 0l1-1v1h-1z" class="B"/><path d="M400 419v55c0 7 2 14 5 19 4-3 9-9 9-17l2-43c-5-1-12-10-16-14z" class="C"/><path d="M400 474h-1v-55h1v55zm5 19h1-1l-1-1v-1l-1-1v-1h-1v-3h-1v-3l-1-1v-6h-1v-2h1v2h1v6l1 1v2l1 1v2l1 1v1l1 1v1h1v1h-1zm1 0l-1 1v-1h1zm8-17h1v2h-1v4l-1 1v1l-1 1v1l-1 1v1l-1 1-1 1-1 1v1h-1l-1 1h-1v-1h1l1-1 1-1v-1h1v-1h1v-1l1-1v-1l1-1v-2h1v-4h1v-2zm2-42v-1h1v10l-1 1v21l-1 2v9h-1v-9l1-2v-21l1-1v-10 1zm0-1h1-1zm-16-14h-1 2v1h1v1h1v1h1v1l2 1v1h1l1 1v1h1v1h1v1h1v1h1l1 1h1v1h1l1 1v1-1h-2l-1-1h-1v-1h-1v-1h-1v-1h-1l-1-1-1-1-1-1-1-1-1-1-1-1-1-1-1-1-1-1v-1zm-1 0v-1l1 1h-1z" class="B"/><path d="M387 406l-14-21c-3 10-7 83-2 89 0 8 3 14 6 19 4-3 10-8 8-17s0-62 2-70z" class="C"/><path d="M373 385l14 20v1l-15-21h1zm-1 0l1-1v1h-1zm-1 89h-1v-1l-1-1v-8l-1-2v-27l1-4v-19l1-3v-10l1-3v-5l1-2v-4h1v4l-1 3v5l-1 2v10l-1 3v19l-1 4v27l1 2v8l1 1v1zm0-1v1-1zm6 20h-1v-1l-1-1v-1h-1v-2h-1v-2l-1-1v-2l-1-1v-3l-1-1v-4h1v4l1 1v3h1v3h1v2l1 1v1l1 1v1h1v2zm0 0v1-1zm8-17h1v6l-1 1v2l-1 1v1h-1v1l-1 1-1 1v1h-1l-1 1v1h-2v-1h1v-1h1v-1h1l1-1v-1h1v-1l1-1v-1h1v-2l1-1v-6zm2-70v-1l1 1-1 1v8l-1 2v18l-1 3v37l1 1h-1v-1l-1-1v-36l1-3v-18l1-3v-8l1-1v1zm0-1h1v1l-1-1zm0 0v1-1zm0 1z" class="B"/><path d="M358 451l-1 23c0 8 2 14 5 19 4-3 9-8 9-16-2-32 1-61 5-90l-12-7c-7 38-9 62-6 71z" class="C"/><path d="M357 474h-1v-6l1-1v-16h1v15l-1 1v7zm5 19l1 1h-1v-1h-1v-2h-1v-2l-1-1v-1l-1-1v-3l-1-1v-6h-1v-2h1v1l1 1v6l1 1v3h1v3h1v2h1v1l1 1h-1zm1 1h-1 1zm7-17h1v6l-1 1v2h-1v1l-1 1v1h-1v1l-1 1h-1v1l-1 1h-1v1l-1-1h1v-1h1v-1h1v-1h1v-1h1v-1l1-1v-1h1v-3h1v-6zm6-89l1-1-1 6v2l-1 3v5l-1 3v6l-1 2v9l-1 2v9l-1 3v40h-1v-38l1-3v-11l1-3v-8l1-3v-5l1-3v-5l1-3v-5l1-3v1zm1-1zm-13-7l-1-1h2v1h1v1h1l1 1h2v1h1l1 1h1v1h2v1h1v1h1l-1 1v-1h-1l-1-1h-1v-1h-1l-2-1h-1v-1h-1l-1-1h-1v-1h-1l-1-1zm-1-1h1-1zm-5 72v1l-1-1v-4l-1-1v-16l1-2v-9l1-2v-6l1-3v-2l1-3v-3l1-4v-3l1-3v-4l1-3v-4l1 1v3l-1 4v3l-1 3v4l-1 3v3l-1 3v3l-1 2v6l-1 2v9l-1 3v16l1 1v3zm0 1l-1-1 1 1zm0 0v-1 1zm0-1v-1 1z" class="B"/><path d="M344 472l3 14c1 8 6 15 9 20 4-3 7-8 6-17-5-46-3-77 6-115-22 15-32 47-24 98z" class="C"/><path d="M347 487l-4-15h1l4 14-1 1zm1-1zm8 19v1l-1-1v-1h-1v-1l-1-1-1-1v-1h-1v-1l-1-1v-2l-1-1v-1h-1v-3l-1-1v-4h1v4l1 1v2l1 1v2h1v1l1 1v1l1 1v1h1v1l1 1v1l1 1zm0 1zm6-17h1v8h-1v3h-1v1l-1 1-1 1v1h-1v1h-1v1h-1v-1l1-1 1-1 1-1v-1h1v-1l1-1v-2h1v-8zm7-114l-1-1h1l-1 4-1 3-1 4v3l-1 4-1 3v4l-1 3v3l-1 4v3l-1 3v7l-1 3v36l1 4v8l1 4v8l1 4h-1l-1-4v-8l-1-4v-8l-1-4v-36l1-3v-7l1-3v-4l1-3v-3l1-4v-3l1-3 1-4v-3l1-4 1-3 1-4 1 1zm-1-1l1-1v1h-1zm-24 98h-1v-5l-1-4v-5l-1-4v-24l1-4v-7l1-3 1-3 1-3v-3l1-3 1-3 2-3 1-2 1-3 1-2 2-2 1-3 2-2 2-2 1-2 2-1 2-2 2-2 2-1 1 1-2 1-2 2-2 1-2 2-2 2-1 2-2 2-1 2-2 2-1 3-1 2-2 3-1 2-1 3-1 3v3l-1 3-1 3-1 3v7l-1 4v24l1 4v9l1 5zm-1 0zm1 0zm-1 0z" class="B"/><path d="M345 486l-20-6c-3 20 1 45 6 79 5 28 3 51-1 66 22-3 31-31 20-83-3-14-6-32-5-56z" class="C"/><path d="M325 479l20 7v1l-21-7v-1h1zm-1 0h1-1zm8 80h-1l-1-6-1-4v-3l-1-2v-6l-1-3v-3l-1-2v-6l-1-2v-5l-1-3v-12l-1-2v-13l1-2v-6l1 1v3l-1 2v17l1 3v9l1 2v6l1 2v5l1 3v3l1 3v5l1 3v3l2 10zm-2 65v1-5l1-1v-3l1-2v-5l1-2v-35l-1-3v-5l-1-3v-2h1v2l1 3v5l1 3v35l-1 2v5l-1 2v3l-1 2v2l-1 2v-1zm0 1h-1 1zm19-83h1l1 4 1 5 1 5 1 4v8l1 4v18l-1 3v3l-1 3v3l-1 2-1 3-1 2-1 2-1 2-1 2-2 2-1 1-1 2-2 1-2 1-1 1-2 1h-2l-2 1h-2v-1h2l2-1h2l1-1 2-1 1-1 2-1 1-2 2-1 1-2 1-1 1-2 1-2 1-3 1-2 1-2v-3l1-3v-3l1-3v-18l-1-3v-9l-1-4-1-5-1-4-1-5zm-4-55v-1 17l1 2v11l1 2v6l1 2v5l1 1v4l1 2v4h-1v-4l-1-2v-4l-1-1v-5l-1-1v-7l-1-2v-11l-1-2v-17l1 1zm0-1zm-1 98h1v1h-1v-1zm-5-40h1l1 1v3l1 2v4l1 2v5l1 1v9l1 2v11h-1v-9l-1-1v-10l-1-2v-5l-1-1v-5l-1-1v-4l-1-1v-1zm-5-50h1v12l1 2v11l1 1v6l1 2v5l1 1v5l1 1v4h-1v-3l-1-2v-3l-1-2v-4l-1-2v-6l-1-2v-9l-1-2v-15zm1 0h-1v-1h1v1z"/><path d="M344 367l13 2-4 24c-5 24-9 53-5 84 2 12 4 21 8 29-15-2-24-16-23-41-3-29-2-52 3-69l8-29z" class="C"/><path d="M357 370l-13-2v-1l13 2 1 1h-1zm0-1h1v1l-1-1zm-4 24h-1v-2l1-1v-1l3-14v-4l1-1v-1l1 1-1 1v2l-1 5v1l-1 5-1 7h-1v2zm-4 84h-1l-1-3v-9l-1-2v-28l1-3v-8l1-2v-8l1-2v-3l1-2v-5l1-2v-3l1-2v-2h1v2l-1 2v3l-1 2v5l-1 2v3l-1 2v8l-1 2v8l-1 3v28l1 2v9l1 3zm7 29v-1l-1 1v-1l-1-1v-2l-1-1v-1l-1-1v-2l-1-1v-3l-1-1v-3l-1-1v-5l-1-1v-5h1v5l1 1v5l1 1v3l1 1v3l1 1v2h1v3l1 1v1l1 1v1zm0-1v1-1zm-24-40h1v9l1 2v5l1 2v2l1 1v2l1 2v1l1 1 1 2 1 1v1l1 1 1 1 1 1 1 1 1 1 1 1h1l1 1h1l2 1h1l1 1h3v1h-3l-1-1h-2l-1-1h-1l-1-1-2-1h-1l-1-1-1-1-1-1-1-1v-1l-1-2-1-1-1-1-1-2v-1l-1-2v-1l-1-2v-2l-1-1v-6l-1-2v-9zm1 0zm3-70l1 1-1 1v2l-1 2v3l-1 2v6l-1 2v8l-1 2v25l1 3v13h-1v-13l-1-3v-25l1-2v-9l1-2v-5l1-2v-4l1-1v-2l1-2zm8-28v1-1 3h-1v3l-1 1v2l-1 1v2l-1 2v1l-1 2v2l-2 8v2l-1-1v-2l1-1v-1l2-7v-3l1-1v-2l1-1v-3l1-1v-3l1-1v-2h1zm0 0zm0 0zm0 0z" class="B"/><path d="M336 370l6 8c-1 1 2 7 0 18-1 6-5 14-6 22-2 26-2 60 6 81-15-2-20-15-20-40-1-20-1-45 5-72 1-7 4-12 9-17z" class="C"/><path d="M342 378l-6-7v-1l7 8h-1zm1 0zm0 18h-1v-14h-1v-4h1v-1l1 1-1 1v3l1 1v13zm0 0zm-6 22h-1v-4l1-1v-3l1-1v-2l1-1v-1l1-2v-2l1-1v-4h2l-1 1v3h-1v2l-1 2v2l-1 1v3h-1v3l-1 1v4zm5 81v-1l-1 1v-2l-1-2-1-2v-3l-1-2v-2l-1-3v-2l-1-2v-6l-1-2v-13l-1-3v-14l1-2v-16l1-3v-2h1v2l-1 3v16l-1 2v14l1 3v13l1 2v5l1 3v2l1 3v2l1 2v2l1 3 1 2v2zm0 0h1-1zm-21-40h1v5l1 2v8l1 2v3l1 2v3l1 1v1l1 1 1 2v1l1 1 1 1v1l1 1h1l1 1 1 1h1l1 1h1l1 1h4v1h-4l-1-1h-1l-2-1h-1l-1-1-1-1v-1l-1-1-1-1-1-1-1-1v-1l-1-1v-1l-1-2v-1l-1-2v-1l-1-2v-3l-1-2v-8l-1-2v-5zm5-73l1 1v2l-1 3v2l-1 3v5l-1 2v8l-1 2v12l-1 2v31h-1v-31l1-2v-12l1-2v-8l1-2v-5l1-3v-2l1-3v-3zm1 1zm9-17v1l-1 1h-1v1l-1 1-1 1v1h-1v1h-1v2h-1v2h-1v3h-1v3l-1-1v-1l1-1v-3h1v-2l1-1v-1h1v-1l1-1v-1h1v-1h1v-1h1v-1h1v-1h1zm0 0z" class="B"/><path d="M372 390l-13-2-5 27c-1 8 2 17 5 23 5-3 7-10 9-19l4-29z" class="C"/><path d="M359 388l13 1v1l-13-1-1-1h1zm-1 0h1-1zm-3 27h-1v-7h1v-4l1-2v-3l2-11 1 1v1l-1 5-1 7-1 2v4h-1v7zm4 22v1h-1v-2h-1v-2h-1v-3l-1-1v-2l-1-1v-5l-1-1v-6h1v6l1 1v5l1 1v3h1v2l1 1v2h1v1zm0 1h-1 1zm9-19h1v1l-1 1v3l-1 1v2l-1 1v2h-1v2l-1 1v1h-1v1l-1 1h-1v1h-1v1h-1v-1h1v-1h1v-1l1-1 1-1v-1h1v-2l1-1v-2h1v-3h1v-3l1-1v-1zm4-29v-1l1 1v2l-1 1v7l-1 1v7l-1 1v6l-1 1v3h-1v-4h1v-6l1-1v-7l1-1v-7l1-1v-2zm0-1h1v1l-1-1zm0 0v1-1zm0 1z" class="B"/><path d="M407 419h-12v22c0 8 2 14 5 19 4-3 7-9 8-17l-1-24z" class="C"/><path d="M395 418h12v1h-12v-1zm0 1v-1 1zm0 22h-1v-14l1-3v-5h1l-1 8v14zm5 18l1 1h-1l-1-1v-1h-1v-2h-1v-2l-1-1v-3h-1v-6h-1v-3h1v3h1v5l1 1v3h1v2l1 1v1l1 1v1h1-1zm1 1h-1 1zm6-17h1v5l-1 1v2l-1 1v2h-1v2h-1v1h-1v1h-1v1h-1v1l-1-1h1v-1h1v-1l1-1v-1h1v-1l1-1v-1l1-1v-2l1-1v-5zm0-24v-1l1 1v25l-1-1v-24zm0-1h1v1l-1-1z" class="B"/><path d="M420 424l-12 1v22c1 8 3 14 7 19 3-4 6-9 7-17l-2-25z" class="C"/><path d="M408 424h12v1h-12v-1zm0 1v-1 1zm1 22h-1v-22h1v22zm5 18l1 1h-1v-1h-1v-1l-1-1v-1l-1-1v-2h-1v-3h-1v-3l-1-1v-5h1v5h1v3l1 1v3h1v2l1 1v1l1 1 1 1h-1zm1 1h-1 1zm6-17h1v4l-1 1v3l-1 1v1l-1 1v1l-1 1v1h-1v1h-1v1l-1 1-1-1h1v-1h1v-1h1v-1l1-1v-1l1-1v-2h1v-3l1-1v-4zm-1-25v1-1l1 1v11l1 2v11h-1v-12l-1-1v-11l-1-1h1zm-1 0h1-1zm1 1v-1 1z" class="B"/><path d="M395 412h-12l-2 22c0 7 1 14 4 19 4-3 7-8 9-16l1-25z" class="C"/><path d="M383 411l12 1v1l-12-1v-1zm0 1v-1 1zm-2 22h-1v-3l1-1v-8l1-3v-2l1-5h1l-1 8v1l-1 1v8l-1 1v3zm3 18l1 1h-1v-1l-1-1v-1l-1-1v-3h-1v-5l-1-1v-6h1v6h1v5l1 1v3h1v2l1 1v1l-1-1zm1 1v1l-1-1h1zm8-16h1v3l-1 1v2l-1 1v2h-1v1l-1 1v1h-1v1h-1v1h-1v1h-1v1h-1l-1-1h2v-1h1v-1h1v-1h1v-1l1-1v-1l1-1v-1l1-1v-2l1-1v-3zm2-24v-1 22l-1 1v2h-1v-2l1-1v-22l1 1zm0-1h1-1z" class="B"/><path d="M384 400l-13-6c-2 9-5 38 0 50 4-3 9-8 10-17l3-27z" class="C"/><path d="M371 394l13 5v1l-13-5-1-1h1zm-1 0v-1l1 1h-1zm1 50v1l-1-1v-2l-1-1v-3l-1-2v-9l-1-2v-5l1-2v-12l1-2v-6l1-1v-3h1v3l-1 1v6l-1 2v12l-1 2v7l1 2v8l1 2v3l1 1v1zm0 1l-1-1 1 1zm10-18h1l-1 1v3l-1 1v2l-1 1v1l-1 1v1l-1 1-1 1v1h-1v1h-1v1h-1l-1 1-1 1v-2h1l1-1 1-1 1-1 1-1v-1h1v-2h1v-1l1-1v-2l1-1v-3l1-1zm3-27v-1 11l-1 2v8l-1 1v6h-1v-6l1-1v-8l1-3v-9h1zm0-1v1-1zm0 1zm0-1v1-1z" class="B"/><path d="M388 701c8 7 15-8 8-27-5-15-31-9-17 10h2c-1-4 2-7 5-6 11 2 11 22 0 18-2-1 0 3 2 5z" id="J" class="D E F"/><g class="D"><path d="M400 639c-1 4-5 8-8 11-5 5-3 12 0 16s5 9 6 13v15c0 4-2 6-5 8-1 1 1 3 5 6l2 3h2c0-2 2-3 2-3 4-3 5-5 4-6-2-2-4-4-5-8l1-15c1-4 2-9 6-13 3-4 4-11 0-16-3-3-7-7-8-11l-1-1-1 1z" class="E F"/><path d="M395 685h12c2 0 3 2 3 4s-1 4-3 4h-12c-2 0-4-2-4-4s2-4 4-4z"/></g><path d="M407 686h-12v-1h12v1zm4 3h-1v-1h-1v-1h-1v-1h-1v-1h2v1h1v2h1v1zm-1 0h1-1zm-3 4v-1h1v-1h1v-1h1v-1h1v1h-1v2h-1v1h-2zm-12-1h12v1h-12v-1zm-4-3h1v2h1v1h2v1h-2v-1h-1v-1h-1v-2zm1 0h-1 1zm3-4v1h-2v1h-1v2h-1v-2h1v-1h1v-1h2z" class="B"/><path d="M417 579l1-11c-5-2-16 0-20 10-6 13-11 20-18 26 10 1 18-1 24-8l13-17z" class="C"/><path d="M418 568v11h-1v-11h1zm0 0zm-20 11l-1-1 1-1v-1h1v-1l1-1 1-1 1-1v-1h1l1-1h1v-1h2l1-1h2v-1h7v1h1l-1 1-1-1h-5l-1 1h-2l-1 1h-1l-1 1h-1v1h-1l-1 1-1 1v1h-1v1l-1 1v1l-1 1zm-18 24v1-1l1-1 1-1 1-1 1-1 1-1 1-1 1-1v-1h1v-1l1-1v-1h1v-1l1-1 1-1v-1l1-1 1-1v-1l1-1v-1l1-1v-2l1-1v-1l1 1v1l-1 1v1l-1 1v1l-1 1v1l-1 1-1 1v1l-1 1v1h-1v1l-1 1v1l-1 1-1 1-1 1-1 1v1h-1v1h-1l-1 1v1h-1v1h-1l-1 1v-1zm0 1h-1l1-1v1zm23-8l1 1h-1v1h-1v1l-1 1-1 1h-1v1h-2v1h-2l-1 1h-4v1h-6l-1-1h-3v-1h3l1 1h5l1-1h4l1-1h1l1-1h1l1-1 1-1 1-1h1v-1h1v-1zm14-17h1l-1 1h-1v1h-1v1h-1v1l-1 1v1h-1v1l-1 1-1 1-1 1v1l-1 1-2 3-1 1v1h-2l1-1v-1l1-1 1-1 1-1v-1l2-1 1-2v-1l1-1 1-1 1-1v-1h1v-1h1v-1h1v-1h1zm1 0l-1 1 1-1z" class="B"/><path d="M425 581l-12-5-9 20c-3 7-4 14-2 19 4-1 10-4 14-11s6-16 9-23z" class="C"/><path d="M414 575l11 5v1l-12-5v-1h1zm-1 0h1-1zm-9 21h-1l1-1v-2h1v-2l1-1v-1l1-2 1-3h1v-1l4-8 1 1-4 7-1 3-1 1v1l-1 1v1l-1 1v2l-1 1v1l-1 1zm-2 19v1l-1-1v-13h1v-4h1v-2h1v2l-1 1v3h-1v13zm0 1h-1v-1l1 1zm13-13l1 1v1h-1v1l-1 1v1h-1v1l-1 1h-1v1h-1v1h-1l-1 1-1 1h-1l-1 1h-2v1h-1v-1l1-1h2l1-1h1v-1h1l1-1h1v-1h1v-1l1-1 1-1v-1h1v-1h1v-2zm10-22v-1l1 1-1 1v1l-1 1v2l-1 1-1 2v2l-1 2v1l-1 1v1l-1 1v1l-1 1v2l-1 1v1l-1 1-1-1h1v-2h1v-2h1v-2l1-1v-2h1v-3l1-1 1-1v-3h1v-3h1v-2l1-1v1zm0-1h1v1l-1-1z" class="B"/><path d="M429 581l-13-2-4 22c-1 7 0 14 2 19 5-2 9-7 11-15l4-24z" class="C"/><path d="M416 578l13 2-1 1-12-2h-1l1-1zm-1 1l1-1-1 1zm-3 22l-1-1v-2l1-1v-4l1-1v-4l2-9h1v2l-2 7v4l-1 1v5h-1v3zm2 19l-1-1v-1l-1-1v-3l-1-1v-13l1 1v12h1v4h1v2l1 1h-1zm0 0v1-1zm11-15h1l-1 1v2l-1 1v2h-1v1l-1 1v1h-1v1l-1 1-1 1-1 1-1 1h-1v1h-2v-1h2v-1h1v-1h1v-1h1v-1h1v-1h1v-1l1-1v-1l1-1v-2h1v-2l1-1zm4-25v5h-1v7l-1 2v6l-1 1v4h-1v-4l1-1v-6l1-2v-7l1-1v-3l1-1zm-1 1v-1h1l-1 1zm1 0v-1 1z" class="B"/><path d="M430 563h8c4 3 9 13 4 22-7 12-9 21-10 30-7-7-11-15-8-24 3-11 7-25 6-28z" class="C"/><path d="M438 564h-8v-1h8v1zm0-1zm4 22h-1l1-1v-2l1-1v-3l1-1v-2h-1v-5h-1v-2h-1v-1l-1-1v-1h-1v-1h-1v-1h1l1 1v1h1v1h1v1l1 1v2l1 1v4h1v2l-1 1v4l-1 1v2h-1zm-10 30l1-1-1 1v-6l1-1v-4l1-1v-3l1-1v-2l1-1v-1l1-1v-2l1-1v-1l1-1v-1l1-1 1-1v-1l1 1-1 1v1l-1 1v1l-1 1v1l-1 1v2l-1 1v1l-1 1v1l-1 1v3l-1 1v4l-1 1v6h-1zm1 0v1l-1-1h1zm-9-24v11l1 1v2l1 1 1 1v1l1 1v1h1v1l1 1h1v1l1 1h1l-1 1-1-1-1-1-1-1-1-1v-1h-1v-1l-1-1v-1h-1v-1l-1-1v-2l-1-1v-11zm6-28v1l1-1v4l-1 1v4l-1 1v3l-1 1v3l-1 1v3l-1 1v2l-1 2-1 2v-3l1-1v-3l1-1v-2l1-1v-3l1-1v-3l1-1v-4l1-1v-4zm0 0zm0 0zm0 0z" class="B"/><path d="M434 558l-12-4-9 21c-2 7-2 13-1 19 5-1 11-4 14-12 4-7 5-16 8-24z" class="C"/><path d="M422 553l12 5v1l-12-5h-1l1-1zm-1 1v-1h1l-1 1zm-7 21l-1-1v-1l1-1v-2l1-1v-1l1-1v-2l1-2 1-1v-1l1-1 1-4 1-1v-1h1v1l-1 2-2 5-1 1-1 2v2l-1 2v1h-1v3h-1v2zm-2 19l1 1-1-1v-1h-1v-13h1v-4h1v-2l1 1-1 1v4l-1 1v11l1 1v1h-1zm1 1h-1v-1l1 1zm13-13l1 1h-1v2h-1v1l-1 1-1 1-1 1v1h-1l-1 1h-1v1h-1l-1 1h-1l-1 1h-2l-1 1v-1h1v-1h2v-1h2v-1h2v-1h1v-1h1v-1h1l1-1v-1h1v-1h1v-2h1v-1zm8-23v-1 2l-1 1v3h-1v4l-1 3-1 1v2l-1 1v3l-1 1v1l-1 1v2l-1-1v-1l1-1v-1l1-1v-3l1-1v-2l1-1v-1l1-3v-3l1-1v-2l1-1v-2l1 1zm0-1zm0 0v1-1zm0 0z" class="B"/><path d="M426 550l-3-17c-3 0-6 6-10 10l-3 3-3 8c-3 13-7 20-13 27 10 0 18-4 22-12l10-19z" class="C"/><path d="M423 533l3 17h-1l-3-17h1zm0 0zm-10 10v-1l1-1 1-1v-1h1v-1h1v-1l1-1 1-1v-1h1l1-1h2v1h-2v1h-1v1h-1v1h-1v1h-1v1l-1 1-1 1v1h-1v1h-1zm-2 3l-1-1h1v-1l1-1 1-1v2h-1v1h-1v1zm-4 8l-1-1h1v-3h1v-2h1v-2h1v-1l1 1-1 1v1h-1v2h-1v3l-1 1zm-13 27v1-2h1v-1l1-1 1-1v-1l1-1v-1l1-1 1-1v-1l1-1v-1l1-1v-1l1-1v-2l1-1v-2l1-1v-2l1-1v-4l1 1v3l-1 1v3l-1 1v2l-1 1v1l-1 1v1l-1 1v1l-1 1v1l-1 1v1l-1 1-1 1v1h-1v1l-1 1v1l-1 1h-1zm0 1h-1l1-1v1zm21-13h1v1l-1 1v1l-1 1v1h-1v1h-1l-1 1-1 1-1 1h-1l-1 1h-1l-1 1h-2l-1 1h-4l-1 1h-3v-1h3l1-1h4l1-1h2l1-1h1l1-1h1l1-1 1-1 1-1 1-1v-1h1v-1l1-1v-1zm10-19h1l-1 1v1h-1v1l-1 1v2h-1v1l-1 1v2h-1v2l-1 1-1 2v1l-1 1v1l-1 1h-1l1-1v-1l1-2 1-2 1-2 1-2v-1l1-1v-1l1-1v-1l1-1v-1l1-1v-1h1v-1 1zm1 0z" class="B"/></g><use width="1350" height="900" transform="matrix(-1 0 0 1 964 0)" xlink:href="#I"/><path d="M536 415l5-1c-7-5-14-11-21-23-8-11 3-33 8-44 9-7 18-17 21-31 1-7-19-4-33 2-17 8-19 6-25 7-3 11 2 12 6 11-9 15-13 30-15 52-2-22-6-37-15-52 4 1 9 0 7-11-6-1-9 1-26-7-14-6-34-9-33-2 3 14 12 24 22 31 4 11 15 33 8 44-8 12-14 18-22 23l5 1c-1 1-11 5-12 4-8-6-15-18-22-26-18-20-27-36-24-49 5-14 21-30-1-27s-39 33-45 68l-5 34c12-4 17-9 20-14l-3 14c10-1 17-6 20-15l3-9h12c1 4 15 19 22 30 8 12 20 22 24 22 2 1 3-4 2-10h126c0 6 0 11 2 10 4 0 16-10 25-22l22-30h11l4 9c2 9 9 14 19 15l-3-14c3 5 8 10 20 14l-5-34c-6-35-23-65-45-68s-5 13-1 27c3 13-6 29-24 49-6 8-14 20-21 26-2 1-11-3-13-4z" class="C E"/><g id="K"><path d="M441 357c-2 2-9 2-18 2-15 1-24-4-26-13 6 6 13 10 20 8 10-3 16-5 18-4 2 0 4 3 6 7z" class="D"/><g class="B"><path d="M423 360v-1h1l3-1h10l1-1h2v-1l1 1-1 1h-3v1h-8l-5 1h-1zm0 0zm-25-15l-1 1h1v2l1 1v1h1v2h1v1h1l1 1 1 1h1v1h1l1 1h3l1 1h4l1 1h7v1h-7l-1-1h-5l-1-1h-1l-1-1h-2l-1-1h-1v-1h-1l-1-1v-1h-1v-1h-1v-1l-1-1v-2h-1v-2l1-1zm19 8v1h-1v1h-6v-1h-3l-1-1h-1l-1-1h-1v-1h-1l-1-1-1-1-1-1-1-1h-1v-1l1-1v1l1 1 1 1 1 1 1 1h1l1 1 1 1h2v1h3v1h6v-1h1zm19-4l-1 1h-2v1h-5l-1 1h-2l-3 1h-1l-2 1h-2v-1h2l3-1h1l3-1h2v-1h4l1-1h3zm-1 0h1-1zm6 8l-1-1v1-1l-1-1v-1h-1v-1l-1-1v-1h-1l-1-1 1-1v1h1v1h1v1h1v1l1 1v1l1 1v1zm0 0zm-21-36v2h-1v-2h1zm15 4l-1 2v-1h-2l-1-1h-2v-1h-3l-1-1h-5v-2h4v1h4v1h2l1 1h1l2 1h1zm9 3v1h-4v-1h-3v-1h-3l1-2h1v1h3v1h3v1h2zm0 1v-1h1v1h-1z"/><path d="M467 337v-1h1v1h-1zm-10-2l1-2v1h4v1h5v2h-1v-1h-5v-1h-4zm1-2l-1 2v-2h1zm-26-1l-1 1h-1l-1-1-1-1-1-1-1-1v-1h-1v-1l-1-1v-1l-1-1v-1h-1l2-1v1h1v2h1v1l1 1v1h1v1l1 1 1 1h1v1h1zm7-5h2l-1 1v1l-1 1v1h-1v1h-1l-1 1h-1v1h-4v-1l1-1h3v-1h1l1-1 1-1v-1h1v-1z"/><path d="M430 331l-3-2c-1-2 0-3 2-6l5 2-4 6zm-7 82v1h-1v-1h1zm24-4l1 1-1 1-1 1h-1v1h-1l-1 1h-1l-1 1h-2l-1 1h-10l-1-1h-2l-1-1h-1v-1h1l1 1h3l1 1h8l1-1h3v-1h2v-1h1l1-1h1l1-1v-1zm3-2h1v1h-1l-1 1v1h-1l-1-1h1v-1h1v-1h1zm1 0h-1v-1h1v1z"/><path d="M452 401h-1 1zm-5 16v1h-1v-1h1v-2l1-1v-2h1v-3l1-1v-3l1-1v-3h1v4h-1v4l-1 1v2l-1 1v2l-1 1v2h-1v-1zm-1 1h1-1zm16-10v2h-1v1h-1v1h-1v1h-1l-1 1h-1v1h-1l-1 1h-1l-1 1h-2l-1 1h-2v-1h1l1-1h2l1-1h1l1-1h1l1-1h1v-1h1v-1h1l1-1 1-1v-1h1zm0 1v-1h1v1h-1z"/><path d="M461 400h-1 1zm5 16v1l-1-1v-1h-1v-2h-1v-2l-1-1v-2h-1v-4l-1-1v-3h1v2l1 1v4h1v3h1v2l1 1v1h1v2h1-1zm0 1l1-1v1h-1zm7-13h1v3l-1 1v1l-1 1v1h-1v2h-1v1h-1v1h-1v1h-1v1h-1v-2h1v-1h1l1-1v-1h1v-1l1-1v-1h1v-2h1v-3zm1 0h-1 1z"/></g><path d="M406 318c-17 2-16 12 0 28 3 3 4 3 4 0 1-6 7-9 10-5 2 3 2 5 9 4 9 7 16 12 5 12-6 0-10 3-16 2l3 5c7 1 13-3 20-2 14 3-23-38-22-40 1-4-9-11-13-4z" class="D"/><g class="B"><path d="M406 345l-1 1-1-1-1-2-2-1-1-1-1-2-1-1-1-1-1-2v-1l-1-1-1-1v-2l-1-1v-4l1-1v-2h1l1-1v-1h1l1-1h1l1-1h3l1-1h2v1h-2l-1 1h-2l-1 1h-1l-1 1h-1l-1 1-1 1v1l-1 1v4h1v3l1 1v1l1 1 1 1 1 1 1 2 1 1 1 1 1 2 2 1 1 1zm4 0l1 1v1h-1v1h-3v-1h-1v-1h-1l1-1v1h1v1h2l1-1zm11-4h-2v-1h-5v1h-1v1h-1v2h-1v2h-1v-2l1-1v-1l1-1 1-1h1v-1h5v1h1l1 1zm8 3v1h-7v-1l-1-1v-1h-1v-1h1v1h1v1h1v1h6zm0 0zm5 13v-1h5v-2h-1v-1l-1-1-1-1h-1v-1l-1-1h-1v-1h-1l-2-2-1-1v-1l1 1 1 1h1l1 1 1 1 1 1 1 1h1v1h1v1h1v1l1 1v2l-1 1h-5zm-16 2l-1 1 1-1h4l1-1h3l1-1h3l1-1h3v1h-3l-1 1h-2l-2 1h-3l-1 1h-4v-1zm-1 1v-1h1l-1 1zm4 3v1h-1v-1h-1v-1h-1v-2h-1l1-1 1 1v1l1 1v1h1zm0 1zm20-2v1h-9v1h-5v1h-5l-1-1v-1l1 1h5v-1h5v-1h9zm-23-40h1v1h1v1l1 1 1 1 1 2 1 1 3 3 1 2 2 2 1 2 2 2 1 2 1 2 2 1 1 2 1 2 1 2 2 2v1l1 2 1 1v2l1 1v2h-1l-1 1h-2v-1h2l1-1v-1l-1-1v-1l-1-2v-1l-1-2-1-2-2-1-1-2-1-2-1-2-2-2-1-2-2-2-1-1-2-2-1-2-4-5-1-1-1-1v-1l-1-1-1-1v-1zm-12-4v-1l-1 1 1-1v-1h1v-1h1l1-1h3l1 1h1l1 1h1v1h1l1 1v1h1v3h-1v-2l-1-1v-1h-1v-1h-1l-1-1h-2v-1h-3v1h-2v1l-1 1zm0 0zm0 0zm0 0z"/><path d="M407 317l-1 1v-1h1zm8 11l-1 1-1-1-1-1-1-1-1-1v-1h-1v-1h-1v-1l-1-1v-1l-1-1v-1l1-1v2h1v2h1v1h1v1l1 1v1h1v1h1v1h1l1 1zm-1 1l1-1v1h-1zm-10-5l2 2-2 1-1-2 1-1zm-46 39l1-1v2l-1-1zm-22 56v-4l1-2v-2l1-1v-2l1-2v-2l1-2 1-2v-3l1-2 1-2 1-2 1-3v-2l1-2 1-2 1-2 1-2 1-2 1-2 1-2 1-2v-1l1-2 1-1 1-1 1-1 1-1 1 1h-1v1l-1 1-1 1-1 1-1 1v2l-1 2-1 1-1 2-1 2-1 2-1 2-1 2v3l-1 2-1 2-1 2-1 2-1 3v2l-1 2-1 2v2l-1 2v2l-1 2v3l-1 1v3h-1zm5 80v-2l-1-2-1-2v-2l-1-3v-2l-1-2v-3l-1-2v-5l-1-3v-10l-1-3v-19l1-2v-13l1-3v-2h1v5l-1 2v19l-1 2v3l1 3v16l1 2v8l1 2v2l1 3v2l1 2v2l1 3 1 2v2h-1zm1 0h-1 1z"/></g></g><use width="1350" height="900" transform="matrix(-1 0 0 1 964 0)" xlink:href="#K"/><path d="M473 398v7l1 1v3h1v2h1v2l1 1v1l1 1v1h1v1l1 1 1 2h2l1-1v-1h1v-2h1v-1l1-1v-1h1v-1l1-2v-1l1-1v-2l1-1v-5h1v-2l-1-1v1h-1v6l-1 1v2l-1 1v2l-1 1v1l-1 1v1l-1 1v1l-1 1-1 1-1 1v-1h-1v-1l-1-1-1-1v-1l-1-1v-1l-1-1v-1l-1-1v-2l-1-1v-3l-1-1v-5h-1z" class="B"/><path d="M549 422v109a68 68 0 01-67 71c-18-1-35-9-47-22s-20-30-20-49V422h134z" class="H"/><use width="1350" height="900" transform="matrix(-1 0 0 1 964 -90)" xlink:href="#L"/><path d="M549 489v28h-53v83a64 64 0 01-14 1 64 64 0 01-14-1v-83h-53v-28h53v-67h28v67h53z" class="C E F"/><use width="1350" height="900" xlink:href="#L" y="-90.1"/><path d="M459 567v-39c-8-2-29-11-30 8-1 8 10 14 13 6 1-3 0-6-2-7s-5 1-4 4c-9-5 8-15 16-2 2 4-4 8-4 11s6 7 4 10c-8 13-25 3-16-2-1 3 2 5 4 4s3-3 2-7c-3-7-14-2-13 7 1 18 22 10 30 7z" id="L" class="C E F"/><use width="1350" height="900" transform="matrix(-1 0 0 1 964 0)" xlink:href="#L"/><path d="M414 421v117l1 2v5l1 2v1l1 2v2l1 2v1l1 2v1l2 4v1l1 2 1 1 1 2 1 1 1 2 1 1 1 1 1 2 2 2 1 2 1 1 1 1 1 1 1 2 2 1 1 1 1 1 1 1 2 1 1 1 1 1 3 2 2 1h1l2 1 1 1 2 1h1l2 1 3 1 2 1h3l1 1h4l1 1h18l1-1h4l1-1h4l1-1 2-1h2l1-1h2l1-1 2-1 1-1h2l2-2 2-1 1-1 3-2 1-1 1-1 3-2 1-2 1-1 1-1 2-1 1-2 1-1 1-1 1-2 2-2 1-2v-1l1-2 1-1 1-2 1-1v-2l1-2 1-1v-2l1-1 1-4v-2l1-1v-4l1-2V421H414zm2 2h132v116l-1 2v4l-1 3v2l-1 1v2l-1 1-1 2v2l-1 1v2l-1 1-1 2-1 1-1 1v2l-1 1-1 2-1 1-1 1-1 2-1 1-1 1-1 1-1 2-1 1-2 1-1 1-1 1-1 1-1 1-2 1-1 1-3 2-1 1-1 1h-2l-1 1-2 1h-1l-2 1-1 1h-2l-1 1h-2l-1 1h-4l-1 1h-3l-2 1h-14l-1-1h-3l-2-1h-3l-2-1h-1l-2-1h-1l-2-1-1-1h-2l-1-1-2-1h-1l-2-1-1-1-1-1-2-1-1-1-1-1-2-1-2-2-2-2-3-3-1-1-1-1-1-1-1-2-1-1-1-1v-2l-1-1-1-2-2-2-1-2v-1l-1-2-1-2v-1l-1-3-1-2v-1l-1-2v-3l-1-2v-5l-1-2v-5z" class="B"/></g></svg>