<svg xmlns="http://www.w3.org/2000/svg" xmlns:xlink="http://www.w3.org/1999/xlink" height="480" width="640" xmlns:v="https://vecta.io/nano"><style><![CDATA[.B{fill:#00d860}.C{fill:#fff}.D{fill:#cf6200}.E{stroke:#000}.F{stroke-width:.619}]]></style><path d="M640.013 480.02V.03H.004v479.99h640.01z" fill="#006"/><path d="M-.006 73.34h76.033L-.006 26.768V.03h43.503l106.36 64.72V.03h59.892v64.72L316.112.03H360v26.737L283.58 73.34H360v73.37h-76.41L360 193.284v26.746h-43.878L209.75 155.3v64.73H149.86V155.3l-106.36 64.73H-.006v-26.746L76.028 146.7H-.006V73.34z" class="C"/><path d="M331.685.027L211.525 73.4h28.763L359.983.027h-28.298zm28.313 220.003l-119.822-73.323h28.9l90.93 55.843v17.48zM120.38 73.372L-.01.01v17.52l91.374 55.843h29.016zm-.25 73.314L-.013 220h28.748l120.16-73.323H120.13zM-.006 88.56h162.62V.027H197.8V88.56H360v42.962H197.8v88.505h-35.194v-88.505H-.006V88.56z" fill="#ce1126"/><use xlink:href="#B" stroke="#fff" fill="#8fc5ff" stroke-width="4.989"/><g class="E"><path d="M495.463 455.775c42.996-17.045 68.877-42.592 84.34-72.254-2.315.1-7.164-.05-9.26-.193-2.333-.153-90.94-9.054-101.433-12.904-9.13-3.347-43.96 2.845-60.218 8.655 15.168 31.55 41.44 58.803 86.57 76.696z" fill="#366cc9" stroke-width="4.944"/><path d="M429.2 410.325c1.45-.47 4.217-.36 5.307-.162 1.283.233 1.516.35 1.983-1.05s1.516-1.05 2.333-.35 2.912.35 3.728-.817 1.05-1.045 1.866-.233 1.166.583 1.983.35 2.216-1.162 2.916-2.445 1.745-1.75 2.328-1.05 1.166 1.05 1.983.933 1.05.7.933 1.745.35 1.283 2.333-.345c1.75 1.745 2.328 1.045 2.328-.817s-.462-8.745-1.162-9.678-1.4-3.616-1.516-5.716c-.22-3.962-.233-4.195-5.016-6.645 0-1.4-.35-1.983-3.728-1.75.117-.467-.467-1.866-1.166-2.45s-.816-.817-.467-2.445c1.4.117 2.916-.117 3.733-1.283s3.495-.933 5.128-.233 3.733.817 6.877.35c1.166-.933 3.15-1.983 5.25-3.15s2.678-1.633 2.795-3.266c.3-4.186-1.166-8.978-2.333-11.2s-1.512-5.016-3.145-8.516c-1.777-3.81-1.75-4.778-3.733-7.11-.543-.642-1.166-1.167-1.283-2.445s-.583-3.033-1.978-4.316c-3.526-3.235-4.9-13.644-6.3-21.34-.803-4.4-.233-14.806-2.095-16.44-3.15-2.566-4.666-2.1-6.765-2.916-1.516-2.1-2.212-6.295-3.61-10.028-2.216.35-3.733 2.683-5.25 3.5s-1.75.817-1.75 2.916-1.166 5.012-3.26 8.278-5.6 2.333-8.5 7.228c-6.415-7.81-6.532-10.028-6.998-12.244s-1.516-2.68-5.128-5.828c0-.933-.467-4.662-.117-6.76-2.683-2.216-4.666-1.866-5.944-.233s-2.216 4.078-4.2 5.012c-1.19 1.512-4.773 5.326-7.707 9.866 2.67 40.578 11.826 80.86 39.357 113.074z" fill="#5d3100" class="F"/></g><use xlink:href="#C" stroke="#fff" fill="#ff0" stroke-width="4.845"/><path d="M394.613 297.888c1.166 1.866 3.266 5.074 3.5 6.82.816-1.7 1.458-2.445 1.633-3.495s1.4-3.1.933-4.2-.816-1.983.467-1.167 1.032 2.23.754 4.316c-.754 5.712-3.145 6.878-3.495 10.728 3.44 8.103.875 11.02 4.603 18.947.583.35 2.14-.274 2.606-.157 1.978-1.4 3.46-.893 6.254-.3s4.316 2.562 4.316 4.312 0 2.216.583 3.266 1.75 2.683 1.516 3.85.233 1.862.583 2.445-.117 1.866-.467 2.683-.233 1.866 1.166 3.616 4.66 9.095 4.66 13.406.233 6.3 1.983 7.1 2.333 1.517 2.1 3.383.816 11.544 1.05 13.06.816 1.167 1.516 1.983 1.162 1.745 3.495 1.745 4.585-.3 6.1-.076c2.1 2.916 3.383 6.878 3.85 9.328s.426 5.792 1.243 5.792 1.633.117 1.4-2.916-.467-3.5-1.516-5.012-1.633-2.216-1.05-3.15.7-2.45.467-3.616-.583-2.912 1.4-.583 2.566 2.916 3.15 3.733.812 2.333.7 3.733.112 1.98.93 1.28 1.866.467 1.4 1.983.117 2.45 1.516 2.916 1.983.817 2.333 1.866 1.516 1.512 1.516-.583-.816-6.533-1.4-7.928-1.05-4.433-1.166-6.183-.467-2.212-1.283-2.562-1.516-.933-1.633-1.75-.816-1.108-1.34-1.108-.987-.408-1.28-.992-.583-.642-1.166-.7-1.516.292-1.808-.642-.7-2.275-1.283-3.033-1.108-.992-1.166-3.612-.117-2.975-.933-3.908-2.216-3.378-2.8-4.428-1.162-2.1-1.162.117 0 3.378 1.395 4.195 1.75.817 1.166 1.983 0 1.983.233 2.8.7 1.633 0 2.445-1.4.583-1.283-.695-.35-2.8-.93-3.85-1.05-1.75-1.75-1.167-1.283-.117-.816-.583.35-.817 0-1.167-.467-.7.117-1.4.583-1.05.233-2.68-2.916-9.794-4.082-11.66-1.05-3.266.467-1.4 2.8 3.5 2.916 5.012.467 2.45.933 3.033.816.35 1.05-.933 1.166-.817-.467-3.262-4.666-6.533-5.832-13.877-1.633-12.244-2.8-14.223-1.512-2.45-1.628-4.316 0-3.733-.816-5.128-1.4-1.633-1.516.467.117 6.76.7 7.578.233 2.912.117 4.078-1.95 2.32 1.866 4.666c1.516.933 1.28 2.216 1.05 3.033s-.467.695-1.283-.583-1.633-2.333-2.45-3.033-.933-1.167-.816-2.8.467-2.8 0-3.378-.7-.117-.933.812-.467 3.5-.933 4.2-.7.233-1.05-1.283.117-3.845.933-6.528 1.283-5.483.583-8.978-.35-4.55-3.033-7.46-5.7-5.716-6.994-9.328-1.516-6.766-2.916-8.4-3.378-3.728-4.66-4.312v-5.362c0-1.283-.583-2.1-2.1-1.866s-2.45 1.517-3.378 3.262-1.633.933-2.916 3.966-3.15 4.545-3.15 7.8zm8.434 34.19c.933.583 1.826.974 3.226.274s3.073-2.72 4.94-.736 2.912 5.245 2.912 7.8 0 7.345 2.916 10.028 4.428 5.478 4.545 8.978 1.4 8.86 1.75 10.26 1.166 3.03 2.1 3.962 1.633 3.616 1.75 6.4-.35 4.783 0 6.183 0 2.566-1.05 1.866-1.283-1.05-1.866-2.216-1.283-.933-.7.817 2.333 3.378 3.85 3.378 1.983.233 2.916 1.167 1.045 1.4 2.678 1.4 1.866 0 3.383.467 1.516.233 2.333 0 1.628.467 2.212 1.983 1.983 5.712 1.983 6.878 0 2.333.816 3.5.583 2.333-.35 1.633-.933-.467-1.633-.35-1.166-.233-2.095-.817-.35-.467-1.283-1.866-1.516-1.866-1.516-.817-.117 2.333-.816 1.75-1.05-.583-1.633 0-.816 1.05-1.516-.117-1.516-1.167-2.216-1.4-.7-.233-1.045-1.283-1.4-1.283-2.333-1.283-1.4-.467-1.516-1.167-.7-1.162-1.166-1.512-.233-1.167-.35-1.983-.816-.467-1.283-.7-.816-.117-.816-1.283-.467-1.517-.816-2.333 0-1.633.233-2.562.117-1.517-.58-2.333-.117-1.633-1.983-3.266-2.8-.233-3.383-4.078-1.75-11.778-2.8-13.06-1.745-2.216-2.795-2.566-1.75-.117-1.866-2.333-.816-5.012-2.216-6.4-1.983-1.866-2.683-2.45-.933-1.633 0-3.612.583-4.666.467-5.95-.467-2.912-.233-4.312.117-3.15-.233-4.083-.816-1.167-.233-1.866zm28.083-33.157c-1.58 2.032-3.26 3.733-5.437 5.285s-4.975 2.8-3.423 5.442 2.8 2.957 3.1 4.976.78 3.733 2.333 4.2 2.176.153 2.176 3.42 0 4.5 1.4 5.752 1.243 2.486 1.866 5.442.62 9.328 2.485 13.68 6.065 12.594 5.6 14.304-1.1 2.952.776 4.97 3.1 4.976 3.266 6.685.467 2.333 2.328 1.714 2.8-1.247 3.423-2.024 1.862-.62 3.576.3 4.352 1.866 5.904.933 2.333-2.33 3.733-2.33c2.176-1.557 2.952-4.823 3.418-5.752s.157-.933-.776-1.866-.467-2.5-.624-4.043-.776-3.885-2.642-7.3-2.952-7.618-4.195-8.704-1.866-3.733-2.023-4.976-1.552-2.333-2.485-3.266-1.866-2.33-2.952-7.77-1.866-9.328-1.866-10.26-.157-1.1-1.1-1.4-1.4-1.866-1.086-2.643-.314-1.552-.624-2.486 0-2.643.624-3.576.467-3.576-.157-5.752-1.243-4.043-3.733-4.357-2.952-.93-3.885-2.952-1.866-5.595-2.176-6.376-.776-.933-2.642.624-2.485 2.068-2.485 4.976c0 1.866.3 2.486.93 3.576s.78 1.4 1.247 4.352 3.1 7.618-.314 10.26-2.952 3.266-2.795 5.128-.933 3.1-1.557.467 0-4.195 1.866-5.438 3.576-2.8 2.333-4.5-1.7-5.752-1.866-7.618-.467-2.5-1.557-1.1z" class="D"/><path d="M403.406 338.538c-.085 1.265.197 2.656.296 3.773.117 1.283.467 3.966-.467 5.95s-.7 3.03 0 3.612l.112.094c1.902-.637 2.15-2.76 1.637-3.787-.543-1.086-.386-2.4.233-3.495s.624-1.7.08-2.5-.547-.776.076-2.952c.547-1.916-.834-1.902-1.97-.704zm19.918 30.15c-.35-1.4-1.633-6.766-1.75-10.26s-1.628-6.3-4.545-8.978c-2.275-2.095-2.772-5.46-2.88-8.058-1.7-1.045-2.432-.57-2.288 1.373.153 2.095 2.252 3.1 1.943 6.138s-.3 2.257 1.166 3.733 2.02 2.876 1.243 3.5-.857 1.7.233 2.095 1.166 1.557 1 2.643.857 1.324 1.476 2.1.7 2.643.08 3.733-.7 2.795.386 1.866 1.557-.08 2.4 1.395c.74 1.274 1.36.875 2.162.5-.278-.588-.502-1.198-.646-1.768zm15.164 27.145c-.7 1.4-1.516.933-2.216.233s-1.516-.7-1.166-1.983.233-1.517-.7-2.216l-.323-.224-1.077-.01c-1.633 0-1.75-.467-2.678-1.4l-.574-.52c-.018.224-.01.52-.01.87 0 1.283 0 1.05-1.283 1.4s-1.05-1.283-1.283-2.333c-.063-.27-.135-.467-.202-.628-1.404-.27-2.885-1.75-3.414-3.334-.583-1.75.117-1.983.7-.817s.816 1.517 1.866 2.216 1.4-.467 1.05-1.866c-.112-.45-.14-.97-.126-1.548-.25-.453-.592-.82-1.04-1.018-1.866-.817-1.283-1.05-1.166-2.566s-.233-1.512-1.4-.7-1.283-.117-1.283-2.445-1.516-2.333-1.862-.7-.933.583-1.633-1.75-1.633-2.916-1.75-.7c-.1 1.875-.62 2.324-1.84 1.283l.556 3.616c.583 3.845 1.516 2.445 3.383 4.078s1.283 2.45 1.983 3.266.812 1.4.58 2.333-.58 1.745-.233 2.562.816 1.167.816 2.333.35 1.05.816 1.283c.292.144.668.063.942.18.3-.395.574-.88.924-1.23 1.4-1.4 3.5.117 4.2 1.866s1.512 2.216 2.562.817.7-1.167 1.866.117 1.633 1.05 1.633 1.05 1.166-.467 1.983.233 1.283.583 2.795-1.633-.695-1.517-1.395-.117zm4.127-63.98c.462-3.42.153-6.838 1.552-8.085s3.1-3.728 2.952 1.557-.3 4.976-1.395 6.22-2.023 1.552-.933 3.576 1.243 2.176 1.086 5.285-.153 4.352 1.1 5.9 1.552 1.7 1.866 3.42 1.395 4.043 2.795 5.285 2.956 4.82 3.1 7.3 2.333 3.1 4.352 4.82-.462 2.952-2.02 2.176-.933 0-1.866 1.086-1.243 1.247-2.02-.62-3.423-3.1-4.666-3.576-2.328-2.5-3.418-4.5c-.933-1.736-2.78-3.006-4.468-3.136.467 1.3.718 2.338.583 2.827-.467 1.7-1.1 2.952.776 4.97s3.1 4.976 3.266 6.685.467 2.333 2.328 1.714 2.8-1.247 3.423-2.024 1.862-.62 3.576.3 4.352 1.866 5.904.933 2.333-2.33 3.733-2.33c2.176-1.557 2.952-4.823 3.418-5.752s.157-.933-.776-1.866-.467-2.5-.624-4.043-.776-3.885-2.642-7.3-2.952-7.618-4.195-8.704-1.866-3.733-2.023-4.976-1.552-2.333-2.485-3.266-1.866-2.33-2.952-7.77l-1.76-9.238c-1.117 1.78-1.88 2.216-2.283.996-.467-1.395-1.1-2.176-1.7-1.243s-.78-.776-.78-1.552-.153-.933-.933-.933-.153-1.243-.467-3.576-.776-2.643-1.086.157-1.866 4.505-1.243 5.128.3 1.866-.314 3.733-.3 2.952.157 4.195-.3 3.576-.624 5.6 1.247 4.038 1.714.62zm-28.398-27.907c-1.153.085-1.943 1.095-1.283 4.626.413 2.185-1.243 1.7-1.862.62s-1.1-3.42-2.333-5.442-.624 1.4-.776 3.266 1.086 1.866 2.176 3.42.153 2.18-1.1 2.18-.62 2.486-.3 4.195-.3 2.024-1.247.624c-.93-1.4-.3-3.576-.153-6.22s.3-2.024-1.4-2.643-1.4-.933-.776-2.5 1.243-2.333.467-3.1-.624-1.243.62-1.4.78-1.086 1.866-1.4 1.557.157 1.7-1.862c.13-1.687.695-2.723 1.96-2.212l2.432 7.847zm15.657 18.305c0 3.266 0 4.5 1.4 5.752s1.243 2.486 1.866 5.442.62 9.328 2.485 13.68l2.1 4.657c1.032-.812 1.93-2.207 2.248-2.948.462-1.1-.933-3.266-2.023-5.128s.157-2.5 1.243-4.823-.153-2.486-1.862-3.1-1.714-2.176-2.647-4.662-.776-3.576-.153-4.976.153-2.486-1.1-2.8-.933-1.243-.467-2.795.776-1.866-1.086-1.4c-1.413.35-1.754.615-2.176 1.126.103.45.153 1.072.153 1.983z" fill="#00b800"/><path d="M447.774 328.757c-.17 1.866-.157 2.8-.624 3.42s-.153 1.557.314 2.5.776 2.176.3 3.885.3 3.11 1.243 3.576 1.4 0 1.1 2.176.933 4.51 2.02 5.442 1.866 2.486 1.71 3.42.78 1.866 1.866 2.333.933.624.933 1.243.467.624 1.71.933 2.176 1.1 3.576 2.8 3.418 2.643 3.11.776 0-3.11-1.866-4.043-3.26-5.442-4.042-8.552-3.26-7.304-4.66-8.08c-.157-2.18.157-3.266-1.243-4.357s-1.866-2.486-1.866-3.576-.776-2.486-1.4-2.795-.933-1.1-.933-2.024-1.086-.776-1.243.933z" fill="#5d3100"/><path d="M439.52 412.164c2.795-.233 10.377-2.45 11.2-3.15 1.866 1.283 5.132 3.033 6.532 3.033-2.683.583-4.432.233-5.132-.233.35.817 1.283 2.1 1.866 2.216-2.566-.117-5.478-.7-6.4-1.633-2.216.933-5.95 1.167-8.044-.233zm5.024 3.5c1 .292 5.944 1.108 6.586 1.108-1.633 1.395-.233 2.737 2.508 2.504-1.34.175-2.804.682-1.808.875 2.4.467 8.86-1.283 10.143-1.983-2.216 2.858-12.997 5.483-17.43-2.504zm4.442 7.09c1.337-.7 4.66-.467 6.236.292-1.75.642-5.186.642-6.236-.292z" class="B"/><path d="M453.965 422.663c2.39-.408 9.152 1.225 11.543-.233-.816 2.158-5.074 2.45-6.532 1.983s-2.853-1.05-3.845-.992c.525-.292-.35-.35-1.166-.758z"/><g class="B"><path d="M456.433 425.983c1.808.287 8.277-.525 10.26-1.283 2.095.7 6.236 1.804 7.17 1.687-1.983 1.225-5.774.525-6.994 0-3.5 1.167-6.357 1.517-10.435-.404z"/><path d="M459.528 427.06c2.59.583 4.796.166 7.344-.686.794.34 2.665.758 4.423.673 1.17.67 2.746 1.602 4.262 1.718-1.575.642-7.348 0-8.5-.642-2.916.058-7.932.7-9.152 1.69-.058-.817.47-1.952 1.633-2.755z"/></g><path d="M456.433 413.914c2.02.673 9.327.35 13.055-1.4 1.47-.69 2.382.467.7 1.05-6.06 2.1-10.843 2.916-14.338 1.05-1.382-.736-1.516-1.4.583-.7z"/><path d="M492.233 404c-8.977 4.195-14.926 5.478-27.397 1.633-1.162-.36-1.983 0-.7.817s8.16 2.68 9.793 2.795 1.05.875.058 1.167-1.283.992.058.467 8.833-.722 11.893.875c1.337.7 1.687.583 1.57.058s.583-.875 1.575-.992 1.575-.467.816-.758-.875-.467-.292-.758.642-.583-.233-.758-1.458-.408-.642-.817 2.04-.7 2.974-.812c.233-.642-.175-2.333.525-2.916z" class="B"/><path d="M477.293 405.075c5.132.363 14.576-1.983 19.59-6.878 1.745 1.045 4.195 2.212 5.478 2.445s2.45 1.4.467 1.4-4.782-.817-6.06-1.4c-6.65 4.083-14.428 5.424-19.358 5.016-1.395-.117-1.745-.7-.117-.583z"/><path d="M462.13 377.078c1.75 1.225 4.84 3.262 8.86 2.97 1.983 1.575 5.074 2.916 6.474 3.208-2.683 1.108-5.6 2.04-6.357 2.916-1.225-1.167-2.795-.992-3.203-1.575-1.166.933-1 1.517-.233 1.983s6.644 1.458 8.102 1.05 1.848.8.642 1.22c-3.15 1.108-9.268.058-11.368-3.32s-3.907-4.666-9.618-1.575c-.642-1.633-.642-2.04-1.75-2.04s-3.15-1.458-1.575-1.4 6.24-.642 10.027-3.437zm1.4 7.492c-.974.242-3.733 1.75-4.72 1.866s-2.74 1.517-.933 1.575 4.136-1.925 5.42-2.1 1.4-1.633.233-1.342zm5.653 5.924c-.7.12-3.67.817-4.486.758s-1.633.175-1.575.758.292.933-.933.817-2.275.35-2.566.7-.525.7.7.817 1.866.233 3.266-.408 2.74-1.633 4.257-1.7 3.028-2.04 1.337-1.75z" class="B"/><path d="M465 394.083c1.274.826 7.577 2.975 9.852 2.8s1.848.91.117 1.283c-3.558.754-7.9-.794-10.843-3.15-1.458-1.167-.117-1.575.875-.933z"/><g class="B"><path d="M494.835 397.18c-4.823 1.54-9.735.992-11.718.467s-3.8-.642-2.45.642 5.657 2.154 8.102 1.512c-8.685 1.983-10.96 1.808-13.113 1.458s-6.2-.274-7.927-.117c-1.283.117-3.033-.058-3.8-.525s-1-1.342 1.283-1.108 2.566-.233.583-.525-4.724.525-2.04 2.216 8.57-.117 12.3.933 11.655 1.808 19.18-4.258c.386-.3 1.05-1.162-.408-.695zm-23.688-7.08c.175.583.175 1.225 0 1.633s-.175.933.583.35 1.225-1.283 1.983-.875 2.683.35 3.553.233c.88-.117 1.166-.292-.112-.817s-2.566-.7-3.266-.642-1.575-.117-2.158-.35-.758-.117-.583.467zm12.427 2.233c-1 .058-2.74-.583-3.674-.992s-2.27-.467-1.28.875 5.303 2.1 6.82 1.458.875-1.342 2.387-.408 3.1 1.575 4.2 1.575 1.516 0 .292-.7-1.808-.875-1.925-1.458-.292-.933.816-.583 2.4.992 3.266.525 2.503-1.517 3.96-1.517l.35-.875c-2.1-.175-3.436.467-4.02.7s-1.633.35-2.74.175-2.566-.292-2.916-.583-.35-.525.583-.7 1.225-.817-.058-.583-4.72.117-6.527-.467-2.566-.637-3.324-.35-.642 1.108.467 1.167 3.616.292 4.5 1.108.758.875-.233.467-2.8-.175-.933 1.167z"/><path d="M498.782 390.224l-.35.875c2.158-.058 7.407.467 9.094 1.517 1.633-1.283 1.34-1.69 2.508-1.458s2.624.642 3.266.292 1.108-.292 1.808-.175 2.212-.175 3.087-.7 2.683-1.225 3.733-1.225 2.328-.233.408-.525-4.84.292-5.832.642-3.96.583-5.71.583-4.136.875-6.12.35-4.724-.175-5.9-.175z"/></g><path d="M525.79 389.192c-3.495 2.566-7.694 3.15-12.705 3.5-1.458.103-1.01.516.233.642 5.244.525 11.3-1.4 13.288-3.5.574-.606.51-1.61-.816-.642z"/><g class="B"><path d="M501.968 395.16c1.516.058 6.76 1.4 8.452 1.983 1.283-.117 1.633-.408 1.4-.875s-.408-.992 1.925-.875l8.685.058c.816-.35 2.62-1.75 3.436-1.808-2.095.117-10.84.583-11.947.467s-1.69 0-2.39.408-1.108.583-1.983.233-2.45-.817-3.32-.292-2.683.058-4.257.7z"/><path d="M522.425 395.43c.816-.35 2.62-1.75 3.436-1.808 1.516-.117 3.266.525 4.082.642s1.7-.058 1.108-.7-.058-1.75 2.333-1.458 3.6.7 5.944.467 3.383 1.517 7.8-.233c-.35 1.75.467 1.866 1.283 1.517s1.75-.233 3.15.817 9.9 1.167 11.893.817 3.028.7 1.512 1.167-1.866 1.167-1.512 1.633c.345.462.695 1.045-1.166.812s-2.216.35-3.15 1.05-1.166.933-3.733.467-3.028-.117-4.428.117-1.75.233-3.15-.233-4.428-.933-6.294-.35-3.266 1.167-4.9.7-1.75-.233-.7-1.283 1.283-.933 3.266-1.167 3.5-.812 2.1-1.63-1.866-.7-3.733.233-2.8 1.512-4.894.35-3.15-.933-4.55-.583-3.728-.467-5.7-1.342zm6.998 3.5c-2.67.38-3.387-1.337-6.177-.987-.933.117-2.508 1.28-.35 1.104s4.486.992 6.586.817 1.166-1.108-.058-.933zm-3.095 2.018c1.404-.5 4.316.467 5.54.233s2.4.525 1.108.933-4.374-.758-5.774-.35-2.795-.117-.875-.817zm-27.86 7.537c1.925.063 8.86-.233 11.6-6.062.2-.45.408-.642 1.283-.058s4.082 2.508 10.085 3.033c1.682.148 3.5.992.117.758S512.81 404.99 511 403.88c-3.033 4.778-8.48 5.344-12.534 5.245-2.445-.058-1.862-.7 0-.642z"/><path d="M513.452 400.544c-.933 1.283-4.14 3.5-5.6 3.616s-5.828-.292-6.936-.7-2.45-.292-.875.817 5.482 1.866 7.052 1.517 3.383-.875 4.607-.117 3.5 2.212 4.836 1.92 4.082-.287 4.957.117 2.4 1.633.117.933-4.14-.117-5.2-.583c1.166 1.633 3.813 4.258 6.065 4.258.525 0 .875.933-.233 1.458 1.108.525 3.67.933 5-.292-.35.467-.175.758.408 1.05s1.283.7.233.817-3.436.408-4.136.117c2.27 1.454 8.16 3.787 14.163 2.62 1.144-.22 1.75-.695-.117-.642-3.85.117-4.078.058-4.778-.345-.7-.413-.583-.758.525-1.108s3.903-.758 5.07-.758 2.333-.467-.058-.467-5.303 0-6.47-.408-2.04-.933-.816-1.75 2.508-.583 3.1-1.342c-3.85-.058-8.573-2.1-5.95-3.962.6-.435.408-.467-.583-.583s-3.903-.933-5.128-1.633-.408-1.283.583-1.458c-2.275.408-6.824-.817-9.852-3.1zm34.185-.1c-2.1 1.575-6.06 2.216-7.752 2.216s-1.925.583-.583.758 2.8.35 3.383.175.933-.233 1.803.175 2.74.642 4.374.117 4.3-.758 5.42-.7 2.333.117.117-.525-5.828-.175-6.702.058-3.266.058-1.983-.35 2.4-1.05 3.033-1.575c-.467-.117-.758-.233-1.108-.35zm-1.077 4.532c-1.808 1.342-4.428 2.62-7.1 2.737 2.45.875 4.5 3.383 6.06 3.266-.758.467-1.687 1.167-2.678 1.283 1.516.408 4.078-.058 6.177-1.225 3.5.992 8.044.35 9.56-.933-2.275 0-5-.817-6.236-1.866 1.108 0 2.153-.7 2.678-1.337-2.62.462-7.1-.817-8.452-1.925z"/><path d="M542.837 412.3c1-.117 1.92-.817 2.678-1.283-1.92.642-10.318-.7-12.822-2.916s-2.508-.525-.758 1.05 4.836 3.966 10.9 3.15zm6.146 5.338c-1.05.583-6.06.933-7.694.583s-2.333-.175-1.925.467.583 1.225-.758 1.05-3.733.117-4.72.467-2.216 1.225-.117.875 4.02-.758 5.594-.35 7.17.525 8.277.058.35-.467-.175-.467-.758-.35 0-.7 1.34-1.342 1.516-1.983zm-48.496-6.775c-2.1.933-9.094 2.8-10.96 2.916-2.333 1.05-4.195 1.633-5.36 1.633.816.7 3.96 1.395 5.244 1.05-.7.695-2.328 1.512-2.912 1.862 1.862-.233 4.078.233 5 .35-2.45 1.4-5.828 1.866-7.577 1.633.583.817 1.4 1.633 2.45 1.633-2.216.583-4.9.583-6.3.117.583 1.167 1.166 1.866 1.983 1.983-1.866.233-4.2.583-6.177-.583 1.512 1.983 4.894 2.68 9.9 2.1s9.2-2.8 10.377-3.733c-2.1.233-4.9.35-6.3.117 2.8-.7 8.86-3.266 9.9-4.316-1.166 0-2.328-.35-3.15-.933 1.633.233 7.348-.462 9.098-1.162-2.1-.467-3.383-1.75-3.966-2.566 7.344 2.333 15.518 1.57 19.47.583.933-.233 1.045-1.418-.816-1.283-3.266.233-9.56-.7-11.193-1.517 1.516 1.167 3.383 1.866 4.666 2.1-3.033.817-7.227 1.4-13.4-1.983z"/><path d="M486.5 418.356c.583-.35 2.212-1.167 2.912-1.862-1.283.345-4.428-.35-5.244-1.05 1.166 0 3.028-.583 5.36-1.633-4.195-.117-7.11-.117-8.627-.933s-4.31-.583-5.36-.35-.7 1.983 3.728 1.517c-1.866 1.283-6.877 1.75-8.744 1.283.467 1.512.816 3.03.35 3.845 2.45 1.4 8.86 3.15 12 2.916-2.8-1.05-4.316-2.216-1.983-2.45s3.616-.7 5.6-1.283z"/></g><path d="M479.267 425.938c5.58-.467 13.055-.565 19.004-5.6 1.516-1.283 2.535-.852 1.05.467-3.145 2.8-10.96 6.645-18.42 6.76-3.037.05-4.428-1.4-1.633-1.63z"/><g class="B"><path d="M521.08 416.696c-1.4.525-5.307 1.167-6.47.992s-2.858-.233-3.8.35-1 .933.292 1.05l3.733.175c-1.05.583-1.75 1.4-1.983 1.75 1.866-.467 5.303.35 6.294.933-.758.233-1.633-.058-2.275-.408 3.15 3.325 12.476 3.325 13.992 2.74-.7.525-1.34 1.05-2.04 1.225 2.624.467 5.653.408 8.627-1.342-1 .175-3.96-.117-4.72-.175a5.6 5.6 0 0 1 2.27-1.342c-1.162-.233-4.836-.117-5.7.35.35-.7 1-1.575 1.7-1.866-4.607 0-10.202-.058-12.243-1.167 3.266.35 6.882-1.575 8.394-1.575-2.562-.058-5.36-.642-6.06-1.7zm-11.7 2.557c-2.275.467-5.7 1.4-6.644 1.925s-1.925.817.117.817l8.802.408c-3.1-.467-7.286-.583-8.102-.583s-1.75-.058-.233-.525 3.5-1.517 6.06-2.04zm-4.62 5.43c.812 0 4.37 0 5.77-1.225 1.458 1.108 4.257 2.68 6.06 2.68s1.633.467.058.642-4.66-.754-6.236-1.92c-2.1.758-3.845.117-5.653-.175zm-27.008 15.704c3.6 1.4 8.394 2.45 11.888 1.283 1.983 1.75 6.065 1.866 8.277 1.4s4.2-.7 6.65.117 7.46.875 8.86 2.037c-1.283.063-4.024 0-4.666.18-.642.17-.292.58.875 1.22-3.96-.233-10.785 1.458-12.88 3.266.754-1.808 3.087-4.258 6.76-4.258-2.1-.754-8.802-.812-10.96.525-.642-.7-1.4-1.862-1.458-2.33-3.553 2.037-10.552-.875-13.346-3.44zm-9.242-6.55c4.302-.615 7.232-1.983 8.515-3.266.758.7 3.903 1.4 7.344.35a1.69 1.69 0 0 0-.467 2.041c-2.275.058-6.6 1.167-8.044 1.925s-5.715 1.28-7.1.52-1.458-1.395-.238-1.57z"/><path d="M483.888 432.983c-2.275.058-6.6 1.167-8.044 1.925.292.583.467 1.512.525 2.154 4.195-1.517 13.813-2.445 17.487-1.862-1.75.117-5.074 1.92-6.936 2.154 4.545-.35 8.977.583 10.14.875s1.4 1.167.525 1.983-1.28.933.583.992 5.715-.175 7.465-1.866c-.7-.758-2.508-.467-3.033-.992 1.225-.408 2.624-1.283 3.15-1.925-3.15-.058-4.316-.117-5.365-.35s-1.808-.525-.525-1.22 1.866-1.283 2.275-1.75c-2.275.642-5.828 1.167-8.802-1.167 1.108.292 3.728.117 4.66-.292-.99-.525-1.803-.933-2.62-.933 2.387-1.167 7.11-2.216 12.938.117 2.916-.233 6.065-.117 8.277.467.933-.933 2.916-3.15 3.966-3.733-6.877.583-19.237-.7-19.004-4.312-2.216 2.912-7.344 4.545-9.56 4.078-.233 1.05.7 2.333 1.516 3.033-2.333.467-6.3.817-8.16.467 1.05 1.05 3.028 1.983 4.195 1.866-2.445 0-3.728.467-5.653.292z"/><path d="M498.154 441.193c1.866.058 5.715-.175 7.465-1.866-.7-.758-2.508-.467-3.033-.992 1.225-.408 2.624-1.283 3.15-1.925 4.894-.404 9.268-.17 11.364-.812s7.465-.292 8.515-.583c-4.666.754-5.6 1.162-5.832 1.92s1.516 1.4 2.624 1.4c-2.1-.117-4.724 2.1-4.957 2.975-2.795-1.633-4.136.292-4.428.933-1.166-.467-5.016-.35-6.998 1.342-2.562-.758-4.253-1.167-6.82-.758 1.575-.35 1.283-1.4-1.05-1.633zm22.386-13.64l6.236-.058c-.816.408-1.862 1.167-2.095 1.517 3.96-.467 9.38-.758 10.955-.525-1.92-.292-3.903.933-4.894 1.575s-.408 1.05.933 1.225 3.15 1.225.7.875-7.286-.35-8.452-.175-1.808-.408-.117-.642 2.853-.817 3.67-1.283c-1.4.35-4.078.35-4.894.117s-1.34-.7-.408-.933.292-.583-.7-.467-3.5 1.167-4.9 2.508c1.516-1.575 2.858-2.975 3.966-3.733z"/></g><path d="M502.775 430.2c1.925 2.158 4.195 3.383 7.8 3.5.758.022 2.17 1.04.35 1.108-4.9.175-7.344-.992-9.502-4.14-.444-.646.377-1.548 1.34-.467zm29.205-40.783c2.575 1.216 7.752 2.275 11.776 2.1.7-.03 2.1.718.345.875-4.545.408-8.627-.23-12.413-2.333-1.05-.583-.7-1.108.292-.642z"/><g class="B"><path d="M534.582 389.372c3.96-.117 6.936-.058 8.16 1.108 2.27-.7 6.352-1.108 7.286-.933s1.983-.233-.175-.758-7.17-.695-8.744-.404-6.474.462-8.102.287c.7.117 1.162.233 1.575.7zm15.388 1.57c1.866-.992 7.227-.058 8.86-.758-1.166 1.4 3.733 1.517 7.985.408-1.633 1.05-5.128 1.225-6.644 1.866s-2.333.175-3.5-.35-4.136-1.575-6.702-1.167z"/><path d="M566.838 390.583c-4.253 1.108-9.152.992-7.985-.408-1.633.7-6.994-.233-8.86.758 1.925-1.167 3.383-.233 4.778-2.625.875.18 2.916.296 3.616-.637 1.225.292 3.383.817 4.024 1.454s1.628-.175.812-1.162c1.925-.7.704.83 5.19-.292.933-.233 3.208-.642 3.966-.7-1.516 1.225-3.324 2.562-5.54 3.612z"/></g><g class="E F"><path d="M484.068 371.02l-.93-99.72c0-4.083-2.1-3.266-2.1 0v99.255l3.028.467zm32.435-105.077l3.643 105.262-.637.843-2.113.03-2.3-106.137h1.4zm30.685 88.88l-2.162-84.8c-.067-3.262-2-2.692-1.978.117l1.597 84.74 2.544-.058z" fill="#ff0"/><path d="M498.603 283.44l-31.013-.467c-1.745 6.295 6.065 6.178 8.98 4.545 3.378 2.566 5.944 2.333 7.8.233 2.683 2.216 6.06 1.633 7.46.233 3.733 2.8 7.577 0 6.76-4.545zm2.333 15.615l-31.713-.117c-5.478 5.245 1.633 7.8 7.698 4.195.816 1.75 4.545 2.8 7.46 1.4 2.683 2.1 6.06.583 7.8-1.167 3.266 1.517 7.1 1.983 8.744-4.312zm-.896 19.83l-30.547-.233c-.583 5.478 5.6 4.778 8.044 3.383 2.333 3.612 7.465 2.795 9.448.695 2.912 1.983 5.594 1.517 7.1-.35 3.383 2.916 6.177-.812 5.944-3.495zm1.524 19.83l-34.158-.583c-1.866 5.828 3.378 6.878 5.828 5.478.816 3.383 5.36 2.216 6.527-.233 1.75 1.75 3.966.817 5.016-.35.467 3.15 4.428 3.266 7.46.583 6.177 4.316 12-.7 9.327-4.895zm30.282-8.167l-28.447-.233c1.283 5.828 4.078 7.345 8.627 3.962 3.383 3.5 8.977 2.216 10.377.467 6.177 5.016 9.56-.817 9.443-4.195zm-2.916-19.47l-27.514-.817c.467 6.995 7.1 6.76 10.493 3.728 2.566 3.266 7.1 2.333 8.744 0 3.5 3.5 9.2 1.4 8.277-2.912zm3.633-21.94H502.95c.35 4.895 6.877 7.695 11.893 3.033 1.395 5.595 6.76 3.845 9.094 1.63 3.378 4.316 11.2-.58 8.627-4.662zm-1.75-14.897l-26.464.35c-.467 4.312 5.828 6.178 8.16 2.68 1.283 2.216 5.7 1.983 6.994-.117 2.1 3.266 4.666 1.05 5.478 0 3.033 2.216 6.3 1.167 5.832-2.912zm31 9.657l-32.413-.35c-.117 3.378 3.383 4.778 5.478 3.378 0 3.266 4.55 4.316 7.465 1.75 1.983 2.8 7.8 3.616 10.143-.233 4.778 3.966 9.9 1.167 9.327-4.545zm-.448 26.596l-31.713-.117c.233 4.428 5.36 5.945 8.277 3.612.7 3.733 4.666 3.966 6.994 2.1 2.8 3.15 7.465 3.383 10.027-.117 3.85 1.4 6.765-1.866 6.415-5.478zm-1.66 23.904l-25.07-.35c0 4.433 5.25 5.016 7.582 2.683 2.445 2.916 6.177 2.916 8.277.583 3.378 2.916 8.5 2.1 9.2-2.916z" class="C"/><path d="M519.51 372.053c-13.52.233-27.28.233-36.607-1.167s-12.265-2.7-18.654-6.528l-25.414-15.04c-2.073-1.216-4.32.292-1.4 2.212l25.298 16.56c6.76 4.428 11.12 8.363 15.27 13.056 5.365 6.066 9.327 6.183 11.776 5.25s6.3-2.216 10.143-1.283 8.977 1.05 11.66.583c2.45 2.216 8.044 1.75 11.193 1.05s5.478-1.05 7.694-.583 5.594.117 7.8-.233 8.044-.933 12.126-.35 8.277.233 10.96-.583 7.577-.583 9.2-.117c2.328-1.75 3.495-3.966 4.078-6.295 2.74-.35 3.652-.69 4.257-2.275 1.108-2.916 2.153-5.774 2.508-7.053h1.104l.35-2.625-2.27-2.625.816-5.012 2.445-.583c.117-1.517-.583-3.85-1.05-4.783l-39.402 1.283c-1.166.933-2.45 3.383-2.683 4.9l-11.66 1.862c-1.633.35-2.544.48-3.845 2.216-2.1 2.8-4.082 6.062-5.715 8.16z"/><path d="M566.703 354.24l6.074-21.716c.58-2.1-1.458-2.93-2.212-.233l-6.182 22.04 2.32-.1z"/><path d="M589.448 329.61c-4.957 2.562-7.348 3.553-9.618 2.68-2.09-.803-5.164-1.256-6.963-.372-.004.188-.03.4-.094.606l-4.702 16.906c3.67 1.297 9.99 1.472 11.467-.112 1.512-1.633 5.653-1.283 7.752-1.167 1.34-1.75 1.866-3.908 1.516-4.958s-.233-2.912.292-4.37 1.225-6.183.35-9.21z" class="C"/><g fill="none"><path d="M476.576 287.524c-5.482 15.856-24.486 51.422-35.952 62.877m8.8 5.186c13.014-10.068 45.92-42.75 51.515-56.505"/><path d="M469.487 318.66c-1.512 12.01-4.98 33.435-6.846 44.746"/><path d="M474.557 345.402c-4.428 4.316-10.7 11.85-15.374 15.932m57.097-39.89c-3.728 3.612-7.985 7.825-11.713 8.875m13.865-8.29c3.28 3.495 7.94 7.443 11.8 8.493m-14.357-27.83c-3.378 2.912-8.394 6.34-12.938 7.623m14.867-6.95c2.916 2.45 6.02 6.02 9.75 7.654m-23.927-21.876c3.6-1.05 9-3.85 11.8-6.76m1.613-.554c3.163 3.612 9.224 6.528 12.256 7.345m-24.95-14.57c3.728-.817 8.35-2.8 10.798-6.3m1.405-.968c3.145 2.683 8.672 6.56 12.283 6.9m14.32 3.554c-2.023 2.1-6.98 5.873-10.125 5.815m12.2-5.995c1.458 2.333 5.132 5.904 7.232 6.196m-21.543 26.556c4.078-1.4 9.793-4.738 12.65-8.18m2.244.284c1.193 2.154 5.742 7.022 8.308 8.013M535.75 334.05c1.866-.404 6.94-2.925 8.335-5.9m2.34-1.637c1.925 2.4 6.644 6.76 9.56 7.8m-84.4 3.857c5.7-1.808 17.254-8.816 22.97-15.466"/><path d="M483.62 331.135c4.778 3.378 10.332 6.76 14.585 7.52M470.52 318.66c3.15-1.342 7.286-3.63 10.493-6.95m2.427-.452c1.283 1.804 10.713 7.565 14.733 7.623m-17.156-26.24c-2.45 1.98-8.335 5.537-11.193 6.295m13.436-6.162c3.266 2.27 9.722 6.28 14.15 6.28m-16.393-24.63c-2.624 2.97-7.052 7.56-10.727 8.6m12.836-7.927c2.04 3.266 7.505 7.68 11.063 8.265m36.13 11.342c8.174 15.07 23.333 33.493 38.662 43.17m-63.202-59.86c12.413 17.84 36.782 56.96 59.967 71.4"/><path d="M570.023 334.14c-3.733 5.19-10.435 13.294-21.51 20.67"/><path d="M568.633 339.076c-7.8-12.473-11.848-28.244-17.7-49.013m-63.33 55.474l9.618 26.467M485.817 344.9l8.506 26.996m-10.345-28.254l7.896 28.096"/><path d="M483.17 344.1l6.097 27.494m-.22-.977h7.622"/><path d="M495.687 367.746H488.5m6.38-2.243h-6.936m6.128-2.243h-6.617m5.72-2.424h-6.3m-.43-2.153h5.976m-6.424-1.973h5.67m-6.164-2.155h5.392m-5.795-1.93h5.087m-5.537-1.974h4.836m-5.24-1.84h4.576m-5.025-1.705h4.446m-4.714-1.437h4.14m-11.633.046l-5.42 22.128m6.99-22.532l-4.652 23.376m5.908-24.228l-3.764 24.897m5.38-25.39l-2.732 26.036"/><path d="M481.017 368.5H472.4m8.617-2.38h-9.982m9.982-2.467h-9.4m9.4-2.333h-8.815m8.815-2.378h-8.246m8.246-2.647h-7.6m7.6-2.288h-7.04m7.04-2.333h-6.442m6.442-2.244h-5.904m5.904-1.974h-5.437m5.437-1.57h-5.03m5.03 24.677V344.2m29.026-8.703l-18.075 36.253m19.196-36.837l-15.388 37.033m16.5-37.436l-12.207 37.612m12.97-36.94l-9.493 36.96"/><path d="M503.986 370.438h-11.368m12.266-3.32H494.3m11.077-2.692h-9.735m10.678-2.916h-9.2m9.648-2.334h-8.5m9.307-2.692h-8.017m8.825-3.14h-7.26m7.887-2.378h-6.675m7.35-2.736h-6.047m6.54-1.84h-5.594m6.043-1.75h-5.128m5.577-1.795h-4.724m5.127-1.57h-4.343m4.747-1.57h-3.98m4.428-1.614h-3.6m3.96-1.482h-3.235m14.978-.538l7.9 25.036m-6.383-24.498l9.596 24.026m-8.25-23.98l11.238 23.497m2.714-2.006l-12.395-21.93"/><path d="M541.267 358.1h-9.834m8.13-2.962h-9.058m7.398-2.96h-8.304m6.6-3.007h-7.573m5.913-2.97h-6.86m5.156-2.95h-6.1m4.44-2.963h-5.357m3.652-3.007h-4.63"/><path d="M539.607 338l-7.74 23.2m10.073-24.233l-7.178 23.793m3.318-.552l5.267-22.398m1.373.772l-4.432 21.312"/><path d="M532.788 358.548h7.766m-6.78-2.916h7.402m-6.46-2.872h7.052m-6.11-2.87h6.7m-5.704-2.917h6.326m-5.34-2.873h5.962m-5.02-2.87h5.6m-4.658-2.917h4.607m4.14.494l3.795 15.914m-2.404-16.677l5.244 16.587M551.45 338l5.72 16.6m-3.387-15.703l5.73 15.6"/><path d="M558.987 353.12h-7.348m6.496-2.334h-6.98m6.127-2.333h-6.7m5.838-2.333h-6.415m5.518-2.333h-6.092m5.24-2.333h-5.76m4.908-2.334h-5.464"/></g></g><path d="M479.626 380.31c3.616-2.33 9.793-1.862 12.943.467 3.733-2.095 10.493-1.517 13.643 1.283 4.778-3.262 8.86-3.728 13.52-.583 3.616-2.562 9.2-2.795 13.526.233 4.195-1.983 8.86-3.612 12.938.7-2.445-1.75-7.694-3.266-12.938.817-4.082-4.083-11.193-2.566-13.526.233-3.033-3.616-9.443-4.2-13.293.233-4.195-3.5-10.49-3.616-13.87-.933-2.683-2.1-6.644-3.845-12.943-2.45z" fill="#00b800"/><path d="M543.33 375.33c-18.537 3.204-58.935.933-67.795-1.283-3.046-.763-2.216-1.866.35-1.283 10.2 2.32 32 2.333 44 1.75 2.333-3.1 6.003-8.336 7.1-9.794s1.597-1.593 3.907-1.983l10.085-1.7c.058.467.058 1.05.058 1.4-.292.233-.583.642-.816.758 0 2.4.467 8.22.933 10.32.467-.058 1.05-.233 1.34-.292.816-.233 1.628 1.866.816 2.1zm30.372.896l2.45-.058c.758-.018 1.82-.538 2.288-1.705s1.9-5.478 2.436-7.286L579 364.364l1-6.106 2.387-.875c.117-.525-.112-1.952-.583-2.418l-36.257 1.193c-1.05 0-1.52-.045-1.92 1.458-2.216 8.278.848 19.894 9.2 26.584.583.467 1.32.076.345-.817-1.395-1.283-3.553-3.908-5-6.5l5.935-.12c.476 1.96 1.965 6.097 2.257 6.797s1 .8.668-.247c-.803-2.45-1.225-5.24-1.575-6.582 1.516-.036 4.374-.01 6.124-.108.085 2.216.32 5.187.377 6.003s.758.875.772-.058l.022-6.04 5.428-.14c-.13 1.26-.372 5.34-.462 5.985-.135.95.363 1.4.597.058s.7-4.478.83-6.066l3.74-.13c-.085 1.243-1.252 5.02-1.602 6.012s.215 1.023.6.085c.413-.96 1.7-4.75 1.808-6.106z" class="D"/><path d="M547.233 375.284c-.642-1.283-2.624-5.846-2.8-9.166l7.963-.157 1.48 9.175-6.644.148zm6.55-9.378l1.382 9.234 6.438-.175-.386-9.247-7.434.188zm-9.017-8.12c-.323 1.678-.38 5.263-.292 6.793l7.76-.14-.62-6.856-6.85.202zm8.334-.226l.538 6.847 7.537-.188-.34-6.892-7.734.233zm9.252-.268l.206 6.905 6.554-.175.215-6.977-6.976.247zm8.254-.314l-.22 7.017 7.155-.247 1.05-7.053-7.985.283zm7.224 8.3l-7.537.23-.745 9.22 7.3-.206c.7-1.4 2.216-5.77 2.566-7.1-.525-.817-.933-1.283-1.575-2.13zm-15.2.404l.23 9.207 5.446-.153.736-9.23-6.4.175zm-30.954-1.795l-3.037.538c-1.4 2.26-6.586 9.256-7.227 10.073l10.62-.34a552.65 552.65 0 0 1-.354-10.27zm1.346-.27l.36 10.454 6.43-.435-1-11.06-5.796 1.04z"/><g class="E F"><path d="M501.698 338.448c.408.004.462.354-.004.35l-34.445-.426c-.467-.004-.404-.354.004-.35l34.445.426zm27.097-27.593c.408.013.458.363-.01.35l-27.3-.75c-.467-.013-.4-.363.01-.35l27.3.75zm-28.8 7.895c.408.004.462.354-.004.35l-30.542-.224c-.467 0-.404-.35 0-.35l30.547.224zm.896-19.83c.408 0 .467.35 0 .35l-31.946-.166c-.467 0-.404-.35.004-.345l31.942.162zm-2.197-15.66c.408.004.458.36-.004.35l-31.04-.467c-.467-.01-.404-.36.004-.35l31.04.467z"/><path d="M530.814 274.11c.408-.004.47.345.004.35l-26.64.256c-.467.004-.413-.345-.004-.35l26.64-.256z" class="C"/><path d="M532.474 289.004c.408 0 .467.35 0 .35h-29.438c-.467 0-.408-.35 0-.35h29.438zm28.89 21.222c.408 0 .467.35 0 .35H529.64c-.467 0-.408-.35 0-.35h31.726zm.448-26.526c.408.004.462.354-.004.35l-32.413-.32c-.467-.004-.404-.354.004-.35l32.413.32zm-29.967 46.627c.408.004.462.354-.004.35l-28.514-.188c-.467-.004-.404-.354.004-.35l28.514.188zm27.86 3.858c.408.004.462.354-.004.35l-25.064-.332c-.467-.004-.4-.354.01-.35l25.06.332z"/><path d="M582.315 338.986c.704-1.566.803-5.164.4-6.528-1.086.22-2.005.17-2.903-.18a13.34 13.34 0 0 0-1.53-.476c-.1 1.804-.754 6.398-1.56 8.175-1.41.4-4.248-.067-5.863-.574l-1.175 4.226c2.005.462 4.522.422 6.514-.04-.157 2.697-.51 5.15-1.97 6.847 2.382.054 4.513-.296 5.294-1.13.072-.08.153-.148.238-.215 1.1-1.84 1.13-4.235 1.395-5.85.812.058 1.862-.175 2.328-.642s1.225-.7 1.983-.642c.69.054 1.768-.1 3.136-.642.036-.826.197-1.723.48-2.504.153-.426.32-1.135.458-1.992-1.736.83-5.608 2.216-7.223 2.167z" fill="#ef072d"/><path d="M471.058 187.11c-3.55.103-11.274.175-12.898 1.086s-2.333 1.32.507 1.826 7.644 1.857 10.278 3.482 4.84 4.49 4.114 8.588c-2.176 12.307 4.257 24.143 13.58 28.607.902.43 1.117.758.915 2.432s-.812 4.464-1.32 5.173-.758 1.88.86 1.32c-1.113 2.082-3.598 6.24-4.356 7.304-7.452-.91-13.53.103-14.09 7.9-.054.763.206 1.98 1.368.054s2.485-3.755 5.675-4.262c-1.875 2.89-2.48 5.478-2.176 7.152s.758 2.688 1.57.556 2.306-4.12 3.903-5.326c.606-.453 1.014-.556.556.763s.202 4.16 1.117 5.124 1.368.556 1.113-1.014.144-4.864 2.077-5.887c2.786-1.467 5.168-.71 6.285 1.22s2.077.1.86-2.082-2.485-3.702-4.513-3.854l4.31-7.708c.453-.763 1.166-1.117 1.772-.66s1.014.404 1.624-.86 1.67-5.02 3.2-6.542c.763-.206 1.978-.507 2.432-.915 1.978 2.89 3.75 6.088 4.208 6.797s.965 1.014.507 2.486l-2.28 7.152c-5.527.202-8.057.3-9.834 3.396-.776 1.35.458 1.875 1.777 1.167s3.2-1.32 4.154-1.167 1.413.646.453 1.117c-3.392 1.674-5.514 3.8-5.37 6.744.05 1.063.49 1.593 1.32.153 1.166-2.028 3.293-4.056 5.877-4.617-.153 2.486.408 6.138 1.925 6.9s1.628-.013 1.063-1.472c-.91-2.333.036-4.68 1.166-5.936 2.382-2.638 7.806 1.014 8.82 1.93s1.938 1.292 1.368-1.068c-.763-3.14-5.222-4.967-9.022-5.474 1.063-5.124 3.903-15.47 5.424-19.02 2.23 1.216 3.97-1.992 7.703-.6 6.28 2.333 15.706 8.215 17.33 9.534s2.23 1.014 3.042.305 2.23 0 3.342.202 2.13.507.71-2.333-4.863-7.81-10.64-11.665c3.445.305 8.11.305 8.11-.606s-5.374-2.638-7.604-2.84c2.13-.507 5.374-1.727 6.89-3.45.902-1.018-.18-1.256-3.342-1.32-9.73-.202-14.594-.126-19.663-3.042-8.107-4.666-12.745-9.58-16.725-11.665-2.126-1.117-3.423-3.693-4.244-5.918-2.633-7.102-2.503-10.297-8.685-12.63s-13.293.525-16.536 3.464z"/><path d="M471.46 188.727c-1.575-.058-4.666-.43-7.227-.175-.583.058-1.283.35.117.525s5.186 1.104 6.527 1.57.758 1.167-.408.875-1.597.14-.642.817c4.957 3.5 5.482 4.84 4.2 16.848.933.642 1.7 1.108 2.508 1.517s.583.992-.292.758-1.7.292-.292.583 2.037.933.7.875-2.916 1.108-.292.817 3.67.933.583.992-1.925 1.05-.292 1.05c2.912 0 2.037.817 1.283.817s-1.108.992.816.817 2.678-.233 3.378-.117 1 .695-.058.758c-1.05.054-1 .812.583.812s2.23.476.816.758c-.583.117-1.4.408.292.642 2.916.408 3.033 1.108 2.1 1.225s-1.05.642.292.758 2.503.525 1.4.817-1.7.933-.296 1.05 2.566.642 1.516.992-1.283.992.058.933 1.866.7.933 1.22-1.575.875-2.158-.054-.93-1.225-1.104-.525-.583.233-1.05-.817-1.283-1.342-1.05-.525-.816.933-1.808.525c3.674 3.728 9.094 7.1 17.72 3.612.736-.296.875 0 1.458 1.225s2.216 3.908 2.8 4.9 1.045.1 1.337-.875l2.4-7.753c.35-1.05 1.983-2.1 1.458 1.57 1.283-.875 6.967-1.7 11.368-.058 4.836 1.808 9.7 4.612 12.185 6.474.467.35 1.05.758 2.212.642s1.458-.292-.758-2.333-1.28-3.033.117-2.04 2.158.408 1.108-.817-3.553-3.612-4.37-4.195-.933-.817-2.8-.933-5.828-.117-6.994-.117-1.516.117 1.05 1.05 7.8 4.312 8.977 5.128 1.983 2.683-.583 1.05-10.6-6.645-15.97-8.5c-12.243.817-21.92 2.45-29.147-5.478-3.463-3.796-3.616-12.478 2.212-16.094-1.166-.992-1-1.575-.525-1.808s.642-.467.175-1.05-.408-1.104 0-1.337c-1.28-.7-1.862-1.517-1.803-2.4-1.575-.35-2.275-2.216-4.374-1.633s-3.15.117-3.786-.408c-.646-.525-1.166-.758-2.333-.642s-2.1-.35-2.158-.933.987-.866 2.566-.175c3.32 1.458 6.003 2.158 8.044-.583s-.583-5.303-4.5-6.062-6.76 2.1-8.22 3.44zm19.606-1.032c-1.175-1.274-3.266-2.45-4.3-2.8s-1.166.7-.583 1.225c-.467.7-.642 2.4.175 2.858s.825 1.13.058 1.512c-1.166.583-.772 3.68.987 2.8.583-.292 1.05-.175.933.292s.117 1.05.642 1.167.467.875.35 1.167.058.408.642.467.642 1.458-.408 1.925c1.283 0 1.633-.233 1.983.817s1.75 1.28 1.75 2.562-.233 1.517-1.75 1.283-2.1.233-2.566.817-.583 1.167.583 1.225 1.4.583.233 1.108-3.087.175-3.378 1.283 0 1.63.87 1.22l3.383-1.57c.7-.408 1.34-.467 1.925.467s.117 1.98-.875 1.167-1.458-.063-2.04.404-1.458.758-2.4.758-1.57.12-1.454 2.216c.35 6.3 5.244 10.96 14.22 10.844l14.75-.058c-2.974-1.633-4.84-2.508-5.9-2.4s-1.925.292-1.458-.525-.058-.817-.525-1.167-1.045-.817-1.978.175-3.15 2.1-4.257 2.333-2.45.175-1.4-.875 3.383-1.4 4.082-1.866.7-.754.7-1.104-.175-1.342 1.166-.583c2.678 1.517 6.877 3.787 7.985 3.728s1.866-.525.875-1.167-1.283-1.57-1-1.92.467-.7 2.216.292 4.603 2.27 5.653 2.737 2.45.292.292-1.283-8.86-6.003-10.727-7.403-1.05.292-.875.817-1.283 1.167-2.04.525-1.283-1.342-.233-1.925 1.283-.642-.292-2.04-2.037-1.28-1.687-.117.467 2.45-1.166 1.808-2.45-1.4-1.4-2.04 2.4-.987.642-2.445-1.225 0-1.633.817-1.75.817-2.508.175-1.108-1.283-.583-1.808.467-.817 1.225-.408 1.925.175.525-1.05-1.925-.7-1.633 0-.816 1.925-2.562.292c-.83-.772-.816-1.808.058-1.983s.956-.628.345-1.517c-3.553-5.187-2.095-9.386-5.653-13.23z" class="C"/></g><path d="M491.65 188.413c-.305.458-.417.44-.982.817-.695.462-.852 1.786.314 1.63.808-.108 1.28-.588 1.597-.978a9.91 9.91 0 0 0-.93-1.467zm-3.635-2.917c-.897.87-1.054 1.26-.597 1.26.543 0 .3.076-.08.7s.78.933 1.247.467.543-.624.776 0c.188.507.956.027 1.44-.462-.794-.767-1.862-1.476-2.786-1.965zm-1.615 5.024c-1.166.583-.772 3.68.987 2.8.583-.292 1.05-.175.933.292a1.03 1.03 0 0 0 .108.754c.695-.292 1.4-.776 1.934-1.395 1.1-1.243.076-1.167-1.552-1.167s-2.1-.3-.547-1.243c1.4-.835.485-1.413-1.44-1.144.278.395.14.826-.422 1.104zm6.685 6.866c-.857-.933-.314-1.4.62-1.866a1.21 1.21 0 0 0 .498-.426l-.754-2.975c-.5.14-1.06 1.23-1.22 1.768-.233.776-.467 1.243-1.243 1-.7-.206-1.382.57-1.525 1.4a1.88 1.88 0 0 0 .493.099c.323.03.485.47.386.938 2.104-.067 2.463 1.386 2.822 2.382.4 1.1.857.933 1.166.314s-.4-1.7-1.243-2.643z" class="D"/><path d="M493.668 209.6c-.38.86-.4.776-1.633.852s-2.808.292-3.495 1.014c-.372.386-2.52.49-2.526 1.436s0 1.75.933 1.808 1.045.175.7.875c-.354.7-.583 1.866 1.045 1.983s2.8-.408 3.208.52-.03 2.423.292 2.975 1.427.906 3.136 1.436c1.14.354 5.442.556 6.765.404s.825-.947-.498-1.063-2.292-.3-2.602-1.28-.583-1.48.157-2.293 1.476-1.44 1.05-2.8-1.13-2.957-2.683-3.383-1.063-2.553-2.606-2.76c-.583-.076-1.086-.076-1.243.274z" fill="#ff0"/><path d="M486.13 222.242c1.337.117 2.503.525 1.4.817s-1.69.933-.296 1.05 2.566.642 1.516.992-1.283.992.058.933 1.866.7.933 1.22-1.575.875-2.158-.054-.93-1.225-1.104-.525-.583.233-1.05-.817-1.283-1.342-1.05-.525-.816.933-1.808.525c.978.992 2.077 1.956 3.33 2.773 1.43-.49 3-.1 3.55-.036.583.058 2.39.467 3.383.992s1.633-.408 1.225-1.458-.467-.695-.99-.117-.642-.233-.583-1.454c.05-1.032-.642-.758-.875-.117s-.758-.408-.467-1.05-.058-.875-.583-.7-.583 0-.642-1.167-.583-.992-.758-.525-.642-.175-1.34-1.108c-.6-.817-1.314-.337-2.535.148.153.1.43.166.848.202z" class="D"/><path d="M500.308 229.466c-6.37 2.584-10.964 1.436-14.423-.857 1.43-.5 3.042-.072 3.58-.018.583.058 2.4.467 3.383.992s1.633-.408 1.225-1.458c.875 1.108 1.516 1.866 2.562 1.808s2.8-.233 3.674-.467zm-13.594-29.343c-.4-1.32-.776-1.633-1.476-1.552s-1-.08-1.8-.4-1.786.076-1.943 1.476-1 2.1-2.176 2.952-1.866 1.557-1.866 2.957-.3 1.786-1.086 2.8c-.345.45-.834.96-1.292 1.5l1.467.83c.816.408.583.992-.292.758s-1.7.292-.292.583 2.037.933.7.875-2.916 1.108-.292.817 3.67.933.583.992-1.925 1.05-.292 1.05c2.912 0 2.037.817 1.283.817s-1.108.992.816.817c.027-.004.05-.01.08-.01.278-.287.485-.646.637-1.1.3-.933.62-3.657 1.7-4.433s1.633-1.866 1.633-2.643 1.628-4.195 2.72-5.052 1.557-2.72 1.166-4.043z" fill="#ff0"/><path d="M484.427 200.168c-1.104-.736-2.176-.3-2.176 1.1s-.7 1.786-1.633 2.252-1.786 1.633-1.943 2.723.157 1.786-.62 2.643-.857 1.552-.3 2.02.543.547.776 1.243 1.552-.076 1.552-.852.314-.776 1.166-1.243 2.257-2.723 1.943-3.343-1.086-1.167-.076-2.024 2.1-.933 2.1-1.786.3-1.167.62-1.476-.7-.78-1.4-1.247z" class="D"/><path d="M484.427 199.046c-.727-.283-1.162 1.243-.153 1.476s1.166-1.1.153-1.476zm-.18 1.974c-.772.094-1.633 1.108-.35.933s1.808-1.108.35-.933zm-1.525 1.885c-.794.4-.642 1.458.525.7s1.458-1.7-.525-.7zm-1.256 1.615c-.8.395-.642 1.454.525.7s1.458-1.7-.525-.7z"/><use xlink:href="#D"/><use xlink:href="#D" x="0.988" y="0.987"/><use xlink:href="#D" x="-0.403" y="1.39"/><path d="M480.344 207.795c-.8.4-.292 1.458.87.7s1.108-1.69-.87-.7z"/><path d="M478.998 208.468c-.794.395-.292 1.454.875.695s1.108-1.687-.875-.695z"/><use xlink:href="#D" x="-0.762" y="4.217"/><path d="M478.46 219.326c-.803.103-1.32 1.247-.3 1.48s1.243.3 1.243 1.086.314 1.866 1.4 1.943 2.023-1.167 1.1-1.552-1.8-.7-1.866-1.557-.933-1.476-1.557-1.4z" class="D"/><path d="M507.082 212.64c.144.18.323.377.53.552.758.642 2.216 0 2.04-.525s-.99-2.216.875-.817 8.57 5.833 10.727 7.403.758 1.75-.292 1.283-3.907-1.75-5.653-2.737-1.925-.642-2.216-.292c-.247.292-.05.996.592 1.593-1.04.153-2.732-.076-3.217-1.184-.583-1.342-1.983-2.975-2.974-4.258-.368-.476-.476-.772-.413-1.018z" fill="#ff0"/><path d="M564.91 403.64c-1.454.992-3.378 2.74-2.1 5.187l.444-.26c5.702-6.9 10.583-14.156 14.764-21.693.05-.26.094-.507.126-.722-1.633 1.4-4.2 2.795-5.25 3.145.7 1.866-2.562 4.316-4.31 5.016.7 1.167.467 2.916-1.05 3.266.35 1.045-.816 1.045-2.216 1.63s-2.1 1.05-2.562 1.75c.754-.408 1.803-.758 2.387-.583s.7 1.05-.35 1.283-1.745.817-2.1 1.283c1.516-.583 3.674-.292 2.216.7z" class="B"/><path d="M495.777 210.487c-1.723-1.503-2.158-.583-1.458.35s.175 1.4-1.34 1.633l-4.724.525c-.933 0-2.037 1.283.175 1.167s5.95-.875 6.94-1.283 1.803-1.167.408-2.4zm3.363 2.647c-1.422-1.28-1.925-.933-1.575 0s-.292 1.108-1.22 1.4-4.607 1.517-6.182 1.7-1.925 1.283.408 1.225 6.82-1.925 7.344-2.275.7-1.05 1.283-.7 1.108-.292-.058-1.342zm1.078 3.724c-1.032.615-3.6 1.745-4.66 2.037s-1.925 1.458.292 1.283 4.836-2.216 5.536-2.62 1.05-.7 1.633-.642 1.633-.758-.292-1.808-3.1-.525-2.158.292.233 1.108-.35 1.458z" class="E F"/><path d="M482.05 187.515c-2.85-1.87-6.1 2.05-2.952 4.2 2.76 1.884 5.675-2.41 2.952-4.2z"/><path d="M478.505 189.22l.843.058c-.175.87.7 2.185 2.04 1.862-1.077.817-3.176-.117-2.885-1.92zm11.035 42.5c.86.25 3.854.556 4.868.606l-1.27 2.54c-.305.758-.453.812-.507-.354s-.7-1.93-1.314-.713l-1.216 2.18c-.305.507-.763.713-.6-.556s.103-2.6.05-3.702z" class="C"/><g fill="none" stroke-width="1.234" class="E"><use xlink:href="#B"/><use xlink:href="#C"/></g><defs ><path id="B" d="M602.1 265.943c-.206 73.277-11.767 152.22-106.6 189.823-94.847-37.603-106.408-116.547-106.615-189.823H602.1z"/><path id="C" d="M602.1 265.943c.08-27.602-1.454-54.4-.754-77.885-35.44-15.86-82.075-19.122-105.856-19.122s-70.42 3.262-105.86 19.122c.7 23.483-.83 50.282-.754 77.885H602.1z"/><path id="D" d="M479.85 205.283c-.794.4-.292 1.458.875.7s1.108-1.69-.875-.7z"/></defs></svg>