<svg xmlns="http://www.w3.org/2000/svg" xmlns:xlink="http://www.w3.org/1999/xlink" height="480" width="640" xmlns:v="https://vecta.io/nano"><style><![CDATA[.B{stroke-width:.667}.C{fill-rule:evenodd}.D{stroke-width:1.067pt}.E{fill:none}.F{fill:#fff}.G{stroke-linejoin:round}.H{stroke:#7d6c00}.I{stroke-linecap:round}.J{stroke-width:1.333}.K{stroke:#000}.L{stroke:#004100}.M{fill:#006800}.N{stroke:#00a400}.O{fill:#c76e2e}]]></style><g class="C"><path fill="#19b6ef" d="M0 240h640v240H0z"/><path d="M0 0h640v240H0z" class="F"/></g><g transform="matrix(1.6657 0 0 1.6657 -464.91 -233.28)"><path d="M469.46 343.7c31.488-23.557 65.414-71.625 25.66-96.902-7.406-1.434-15.673-1.004-19.64 2.15-2.102-1.195-3.775-1.1-5.877 1.147-1.48-1.816-2.963-2.63-6.02-1.72-6.116-3.106-11.658-3.775-18.92-1.864-34.594 20.785-13.427 70.096 24.8 97.19z" fill="#fd0" class="C D H"/><g stroke="#3a9d4f"><g fill="#4fd46b" class="C D G"><path d="M527.7 290.2l3.666-4.766c3.544-2.078 3.9-4.766 3.9-4.766 3.544-1.1 2.444-4.033 2.688-4.4 1.712-1.833 1.1-3.667.856-4.278 0-.488 1.222-5-.5-5.62.08-4.807-2.892-4.36-5.255-1.222-2.526.733-3.096 2.8-2.2 5.133-3.3 0-3.422 4.766-2.444 7.454-4.4-.122-1.955 4.766-2.078 5-1.466.733 1.1 7.7 1.345 7.454zm-27.75 40.94l2.2 1.344c.448 1.67 1.996 2.73 3.178 2.445.57 2.566 3.34 2.2 5.377.733 1.63 2.363 3.626 2.404 6.355 1.6 2.444 1.792 5.622 1.018 7.7-.856 2.24 1.833 3.748.5 4.888-1.466 1.75.448 3.136.163 3.788-1.6 3.422-.285 1.7-3.503-1.1-4.888 2.24-1.956 4.725-6 1.222-6.6-1.1-.814-3.177-.65-4.766.123-.407-1.793-2.893-2.24-5.622-.245-.937-1.996-4.196-1.06-5.744.367-1.955-1.7-4.277-1.7-7.7.244l-9.777 8.8zm0-5.24c.407-2.24-1.14-6.314 1.222-6.72-.448-3.748.204-7.984 4.522-7.577.693-3.544.53-6.844 4.644-7.333 0 0 3.3-11.487 6.722-3.544 1.344 2.323 1.1 6.1-1.6 5.377.53 2.852-.407 5.336-3.544 5.255 1.385 1.996.937 4.726-.6 6L499.95 325.9zm19.92-14.3l3.544-.733c3.666-2.444 5.133-3.422 6.966-.734 3.055-.652 5.988-.326 5.866 2.078 3.626.244 3.585 2.566 3.178 4.4.57 3.218-.815 7.414-3.056 2.322-7.088-4.318-11.12-3.748-22.364-1.222l5.866-6.1zm1.83-3.56c.123-.122 10.5-2.8 9.4-5.988 2.933-.5 3.545-3.422 3.667-3.422 6.1-1.955 5.743-5.5 5.743-5.5 1.752-1.874 4.848-3.748 4.156-7.088.204-3.788.53-6.1-4.522-3.666-3.8-.367-5.133 1.833-6.233 5.133-1.792-2.118-4.684 1.263-5 4.277l-4.644 4.644c0 .122-3.9 7.2-3.9 7.2l1.344 4.4z"/><path d="M521.95 299.98c-2.485-1.874-3.87-4.114-3.422-6.355-1.63-2.2-2.77-3.544-1.222-5.5l-1.222-4.522c-3.177-1.222-1.833-3.9-.978-4.888-1.507-2.078-1.548-4.278-.122-6.233-.04-3.9 2.73-2.444 5 0 0 0 3.8 2.7.978 5.133 2.8.978 3.667 3.42 2.078 4.4 2.444 1.1 2.8 3.3 1.466 4.767 2.485 1.996 1.548 4.48 2.322 6.72l-4.888 6.477zm4.4-18.2c-.122-.122-4.155-5.255-3.055-5.622-.244-1.6-1.466-3.3-.733-4.888-1.996-1.996-2.037-4.358-.5-6.232-1.344-1.833-.733-4.277 1.1-5.866-.57-3.015 1.548-3.707 3.422-4.278 1.385-4.848 3.625-3.585 4.888.122 1.915 1.67 1.63 4.196.978 6.1 2.28 1.548.896 3.462-.122 4.277l-6 16.376z"/><path d="M525.74 255.98l-3.422-3.422c.884-1.813 1.596-5.01-.977-6.477-1.42-3.456-8.514-7.74-9.655.49-1.08-2.483-3.34-4.93-5-2.077-3.707-3.177-5.703-2.2-3.79 1.833 0 0-1.7 2.688 2.81 4.766.367.366-1.466 4.888 3.91 5-1.018 1.548.652 3.707 2.81 3.544-1.548 1.915 1.06 3.952 2.688 3.178-.693 2.118-.652 3.137 2.322 3.422l3.3 3.788 2.688 3.666 2.322-17.72z"/></g><g class="E I J"><path d="M527.82 288.04c.173-.173 6.567-14.863 7.43-19.357m-6.75-6.733s1.037 11.925-1.9 20.74m-17.8-32.84s13.135 12.616 14.344 17.8"/><path d="M517.97 248.47s.864 10.37 4.493 20.567m18.667 17.103s-13.135 11.06-19.53 20.74m7.08 17.98s-17.283 2.42-24.887 2.593m19.187 4.847s-21.43-.52-22.987-2.074m12.267-25.766c0 .172-10.888 18.146-11.234 24.023"/></g></g><g class="C"><path d="M469.34 340.23c-22.674-21.387-45.9-61.525-22.796-81.81 4.106 2.33 8.947.245 15.627-2.4 2.022 2.206 4.595 2.758 7.17 1.103 2.88 1.226 5.025.245 6.435-1.287 6.557 3.8 14.952 5.76 16.913 2.023 22.735 21.57-.307 61.893-23.348 82.36z" fill="#65c7ff" class="D H"/><path d="M469.47 339.6c-9.737-9.8-18.62-20.643-25.423-34.616 1.164-.98 1.705-1.284 2.318-3 3.493.49 5.33.613 9.927-.184.92 3.432 1.103 6.312 3.31 9.192l4.596-9.008c3.125.736 6.986.92 9.927 0 1.9 2.574 1.226 6.435 4.596 9.376 2.022-5.944 4.045-6.373 6.067-9.56 3.003 1.042 4.903.613 7.354-.184 1.287 1.47.644 1.447 2.987 3.606-6.143 12.2-14.567 24.45-25.658 34.378z" fill="#8fc753"/><g class="B F K"><use xlink:href="#B"/><use xlink:href="#B" x="-2.096" y="-4.63"/><use xlink:href="#B" x="-4.543" y="-8.91"/><use xlink:href="#B" x="-6.201" y="-13.102"/><use xlink:href="#B" x="-5.939" y="-17.643"/><use xlink:href="#B" x="4.664" y="-25.154"/><use xlink:href="#B" x="0.697" y="-24.455"/><use xlink:href="#B" x="-3.668" y="-21.835"/><use xlink:href="#B" x="9.781" y="-25.067"/><use xlink:href="#B" x="15.371" y="-24.63"/><use xlink:href="#B" x="20.349" y="-24.892"/></g><path d="M474.746 210.592c0 2.846-2.307 5.153-5.153 5.153s-5.153-2.307-5.153-5.153 2.307-5.153 5.153-5.153 5.153 2.307 5.153 5.153z" fill="#fd0" class="B H"/><g class="F K B"><use xlink:href="#B" x="37.379" y="-24.98"/><use xlink:href="#B" x="42.62" y="-24.543"/><use xlink:href="#B" x="47.685" y="-24.805"/><use xlink:href="#B" x="51.964" y="-24.98"/><use xlink:href="#B" x="57.292" y="-24.368"/><use xlink:href="#B" x="61.484" y="-21.748"/></g><path d="M440.85 231.12l5.132 9.888h47.565l5.508-9.513c-3.213-2.21-5.424-3.922-10.014-2.88-2.587-3.713-5.424-4.422-9.638-4.005-1.252-1.293-2.38-2.086-4.507-2.378l-10.013.25c-2.63.25-4.632 2.253-4.757 2.253-4.256-.5-8.136-.376-9.137 3.755-3.88-.96-6.634.084-10.14 2.63z" stroke="#ac0000" fill="#e40000" class="D"/><g class="K F"><g class="B"><use xlink:href="#B" x="63.231" y="-17.38"/><use xlink:href="#B" x="63.58" y="-12.665"/><use xlink:href="#B" x="62.095" y="-8.298"/><use xlink:href="#B" x="60.261" y="-4.717"/><use xlink:href="#B" x="58.077" y="-0.176"/><path d="M472.76 232.757a2.97 2.97 0 0 1-2.969 2.969 2.97 2.97 0 0 1-2.969-2.969 2.97 2.97 0 0 1 2.969-2.969 2.97 2.97 0 0 1 2.969 2.969zm.588-6.83a3.581 3.581 0 1 1-7.161 0 3.581 3.581 0 1 1 7.161 0z"/></g><path d="M472.83 219.292a3.23 3.23 0 1 1-6.463 0 3.23 3.23 0 1 1 6.463 0z" stroke-width=".666"/></g><path d="M468.5 205.52l.022-2.578-2.144-.04.06-1.906 1.86-.022.022-1.666h2.64v1.527h2.083l-.043 2.028-2.162-.022-.017 2.717-2.322-.04z" fill="#fd0" class="B H"/></g><path d="M445.74 241c-4.257-7.218-10.512-17.03-6.635-21.28 5.376-6.1 17.982-.584 26.035-4.13.584 6.885-1.335 18.275 1.753 20.654l-2.88 2.503c-1.753-2.253-5.054-5.272-9.137.125-2.337-2.043-4.993-1.684-6.244 1.033-1.2.16-1.12.636-2.893 1.095zm48.1-.24c4.257-7.218 10.512-17.03 6.635-21.28-5.376-6.1-17.982-.584-26.035-4.13-.584 6.885 1.335 18.275-1.753 20.654l2.88 2.503c2.77-3.895 6.227-4.02 9.137.125 2.337-2.043 4.758-1.763 6.244 1.033 1.2.16 1.12.636 2.893 1.095z" stroke="#fd0" stroke-width="2" class="E"/><g class="C"><path d="M445.6 246.4c17.107-1.752 32.962-1.127 47.566 0l1.877-5.383c-16.606-3.004-28.08-3.38-49.818-.375l.375 5.758z" fill="#fd0" class="D H"/><path d="M467.7 337.8l.368-2.516c1.7.458 3 .28 4.412-.24l1.47-2.207-1.103-1.286c-.97.2-1.766 1.1-2.4 1.896-.977.046-1.84-.426-2.758-.6l-.92-3.86c-.912-1.078-2.804-1.002-2.4.92l.184 1.47c.368.92.505 2.184 1.103 2.872v1.508l2.022 2.054zm.72-11c-1.28.634-2.797-.47-4.412-1.103-1.47-.1-2.653 1.124-4.412.735.32-.955 1.103-1.103 1.655-1.655-.404-2.48.92-3.3 1.287-3.3s1.838.368 1.838.368l1.47.184c.858 1.593 2.06 3.014 2.573 4.78z" class="O"/><path d="M459.68 359.83c4.242-6.887 33.775-20.717 61.49-50.58-28.2 27.162-45.84 33.83-68.927 50.414l7.438.166z" stroke="#e9bf00" fill="#ffe100" class="D"/><g class="B"><g stroke="#68300e" fill="#9d4916"><use xlink:href="#C"/><path d="M520.92 307.14a2.44 2.44 0 0 1-2.437 2.437c-1.346 0-2.437-1.09-2.437-2.437a2.44 2.44 0 0 1 2.437-2.437 2.44 2.44 0 0 1 2.437 2.437z"/><use xlink:href="#C" x="27.523" y="-38.707"/><use xlink:href="#C" x="20.78" y="-61.77"/></g><g stroke="#a9a9a9" class="F"><use xlink:href="#D"/><use xlink:href="#D" x="37.46" y="0.16"/><use xlink:href="#D" x="18.5" y="0.47"/></g></g><path d="M448.96 301.84v-7.167h4.014v7.454l-4.014-.287zm18.92.56l.143-7.3h3.584v7.167l-3.727.144zm18.64-.13l-.287-6.88 3.87-.144v7.168l-3.584-.144zm-36.56-21.65h2.293v3.727h-2.293zm18.2.15h3.154v3.584h-3.154zm18.63.28h2.724v3.44H486.8z"/></g><path d="M451.15 264.3l2.62 2.774m15.73-2.774c.462.924 1.233 2.928 2.158 3.082m17.562-2.622s.77 2.158 1.85 2.466" stroke="#a8a8a8" class="B E"/><path d="M448.53 256.53c7.21-2.33-1.685-6.993-3.162 0-2.333.377-2.635 2.108-7.678 1.356-12.195 19.873-3.162 51.94 32.52 85.14-63.91-54.388-37.938-94.617-20.24-93.1 9.626.658 4.77 12.665-1.44 6.605z" fill="#b97700" class="C"/><path d="M450.54 246.34s5.872 1.58 5.872 4.065m-.012-4.505s4.065 1.806 4.968 3.387m27.112-2.717s-5.195.678-6.324 2.258m-1.586-1.808s-2.935 2.484-2.7 3.16m2.03 7.68c-.452-.226-2.484-2.936-2.033-6.324m-17.847 4.524s1.355-1.58 1.355-4.517m8.125-1.143l.226 6.55m5.654-.9c0-.452 1.807-4.742-.226-6.775m-12.194-.905s-1.58 4.3-.45 7.904m11.97-4.064s-2.484.677-3.614 1.807m-7.006-1.127c0-.225 2.7-.677 3.613.904" class="D E H"/><g class="C"><path d="M459.6 321.27c.115.058 2.25-.404 2.25-1.442 1.096-.692.288-2.653.288-2.653l-2.018-.404-2.77-3.114c-.134-.96.193-1.864-.403-2.883-1.903.5-3 2.095-3.634 3.92.462.577.52 1.2 1.385 1.73.903.154 1.518-.384 2.364-.23.442.77.307 1.423.46 2.134 1.154.807 1.385 1.96 2.077 2.94zm-2.5-13.32v-3.7l-2.653-.116c-.327.558-.942.827-1.327 1.327l-1.845.923c.77.923 1.7 1.442 2.307 1.903 1.346.404 2.46.404 3.518-.346zm-8.3 5.48l-1.442-2.423c.884-.288 2-.173 2.826.173 0 0 .635 1.5.173 2.076-.23.52-1.615.3-1.557.174zm21.92 2.47c.77-.384 1.48-1.057 1.615-2.018l-2.653-3.057-2.422-.057c-.557-.577-1.46-.692-2.2-.692 0 0 .75 1.153 1.73 1.384.692 1.556 3.7 4.44 3.92 4.44zm2.6.35c0-.057 2.364-.865 3.633-.75-.115-.98 1.788-3.23 1.788-3.23l3.345 4.383c-.615.52-1.692.346-2.538.52l-1.788 1.615c-.173.058-3.114.75-4.556-.115-.634-1.2.173-2.596.116-2.423zm1.9-7.67c.404-1.403.52-2.807 0-4.556 0 0-3.807-.058-3.807 0s-2.537 1.153-2.537 1.2.808 2.48 1.788 2.25c.442 1.288 1.75.96 2.364 1.442l2.192-.346zm14.94-3.86c-.52 1.596-.807 3.307-.058 4.845.692.115 1.5.576 2.134.46l3.057-5.537c-2.115-.673-3.826-.596-5.133.23z" class="O"/><path d="M491.1 256.03c-7.21-2.33 1.685-6.993 3.162 0 2.333.377 2.635 2.108 7.678 1.356 12.195 19.873 3.162 51.94-32.52 85.14 63.91-54.388 37.938-94.617 20.24-93.1-9.626.658-4.77 12.665 1.44 6.605z" fill="#b97700"/><path d="M491.83 310.95c-.115 0-1.845 1.268-1.845 1.268l-2.48.98-2.653.057-.577-1.845 2.02-1.788c-1.7-.25-3.422.423-4.787 1.673 0 0 0 2.018 1.154 3 .692.864 2.7 2.422 2.7 2.422 1.27.25 2.48.038 3.287-.635l3.172-5.132zm-13.96 18.1c.866.23 6.806-7.67 6.806-7.67-.52-1.48-1.673-2.557-2.942-3.23 0 0-2.884 3.402-2.94 4.556-.46 1.038-1.787 5.017-1.2 5.537-.058.115-.288 1.73.288.807z" class="O"/><path d="M439.02 330.6c-8.895-7.737-20.897-12.002-37.65-6.214 4.508 1.95 9.382 2.62 13.525 4.752l24.126 1.462z" class="D G L M"/></g><g class="J"><path d="M413.25 325.1c17.546.365 22.664 4.75 21.75 4.02" class="E I N"/><path d="M439.38 331.5c-5.24 1.035-12.5 6.096-14.622 5.848-5.727-.666-11.08-2.987-16.632-4.752-2.307-.733-4.63 0-6.946 0 19.68-9.32 26.38-8.042 38.2-1.096z" class="C G L M"/></g><path d="M426.4 317.8l-9.504 1.096c-2.925-.182-7.177-2.907-11.88-7.86-2.455-2.7-8.042-2.376-8.042-2.376 12.368-2.62 21.993-.122 29.426 9.14zm-8.95-12.8c-8.957-.55-20.106-8.6-22.664-18.094-.001.12 3.3 2.07 2.74 2.56 14.683 3.716 15.658 6.7 19.923 15.535zm15 15.36c1.28-8.103 1.645-13.464-2.193-18.277-3.168-3.656-3.96-5.85-6.214-10.967-.67 10.662-2.986 19.496 8.407 29.244zm-14.08-22.48c6.64-9.687 7.798-16.998 6.762-28.513-.183.914-2.376 6.58-2.558 6.58-9.87 6.214-5.483 15.902-4.204 21.933zm-5.84-46.78c6.64 9.687 5.605 18.826 4.57 30.34-.183-.914-2.376-6.58-2.558-6.58-9.87-6.214-3.3-17.73-2-23.76zm5.48 14.98c16.084-8.103 9.87-18.4 12.794-26.32-11.15 8.286-12.6 17.12-12.794 26.32z" class="D C G L M"/><path d="M420.2 264.07c2-5.666 6.032-15.353 6.397-15.353M415.44 275.95c-.365-4.022-2.375-14.806-2.558-15.902" class="E I J N"/><path d="M416.17 294.04c-8.957-.55-18.644-12.794-21.202-22.298-.001.12 3.3 2.07 2.74 2.56 12.855 5.726 14.196 10.905 18.46 19.74zm-2.67-8.4c-6.64-9.687-7.798-16.998-6.762-28.513.183.914 2.376 6.58 2.558 6.58 9.87 6.214 5.483 15.902 4.204 21.933zm5.96-17c16.632-7.372 11.514-15.1 16.45-23.212-11.15 8.286-16.266 14.012-16.45 23.212z" class="C D G L M"/><path d="M420.2 267c6.763-6.763 9.14-12.43 9.14-12.43" class="E I J N"/><g class="C"><path d="M479.36 360l8.1.165c-26.888-25.18-78.405-36.144-71.242-82.482-7.383 50.25 42.095 54.878 63.143 82.317z" stroke="#e9bf00" fill="#ffe100" class="D"/><g stroke="#68300e" fill="#9d4916" class="B"><path d="M420.44 267.72a2.58 2.58 0 1 1-5.16 0 2.58 2.58 0 1 1 5.16 0zm-1.58 14.18a2.44 2.44 0 0 1-2.437 2.437 2.44 2.44 0 0 1-2.437-2.437 2.44 2.44 0 0 1 2.437-2.437 2.44 2.44 0 0 1 2.437 2.437z"/><use xlink:href="#C" x="-79.13" y="-25.94"/><use xlink:href="#C" x="-60.353" y="-3.57"/><use xlink:href="#C" x="-57.63" y="2.834"/></g><g class="F"><g class="K B"><path d="M452.13 349.6c-1.414-1.28-2.313-2.103-2.868-3.5l-8.43-.917-.115 4.817 11.414-.4z"/><use xlink:href="#E" class="G"/><use xlink:href="#F"/><use xlink:href="#G"/><g transform="matrix(-1 0 0 1 939.11 .039062)"><path d="M452.13 349.6c-1.414-1.28-2.313-2.103-2.868-3.5l-8.43-.917-.115 4.817 11.414-.4z"/><use xlink:href="#E" class="G"/><use xlink:href="#F"/><use xlink:href="#G"/></g></g><path d="M469.4 337.77c-1.94-.364-2.63-.26-3.945-.4l-3.086 9.492 9.18.39c-2.89-.586-2.187-9.454-2.148-9.493z"/></g></g><g font-size="9" font-family="Trebuchet MS" font-weight="bold"><text y="344.274" x="448.605"><tspan y="344.274" x="448.605">L</tspan></text><text y="344.622" x="453.64"><tspan y="344.622" x="453.64">I</tspan></text><text y="345.056" x="456.678"><tspan y="345.056" x="456.678">B</tspan></text><text y="345.49" x="462.58"><tspan y="345.49" x="462.58">E</tspan></text><text y="345.576" x="468.309"><tspan y="345.576" x="468.309">R</tspan></text><text y="345.403" x="473.952"><tspan y="345.403" x="473.952">T</tspan></text><text y="344.535" x="479.247"><tspan y="344.535" x="479.247">A</tspan></text><text y="344.274" x="485.497"><tspan y="344.274" x="485.497">S</tspan></text></g><path d="M418 331.33c6.032.73 14.44.182 18.095-.001m-27.235-20.66c5.118 4.02 16.267 6.396 16.084 6.396m6.396 1.104c-1.645-8.407-3.472-10.418-4.934-15.72m-26.136-9.5c8.6 3.838 9.87 6.396 15.353 10.234m3.107-8.404c.732-10.42 2.194-13.16 4.753-15.537m-23.213-1.273c3.108 3.473 13.343 14.256 13.343 14.256M409.4 268.45c3.84 2.74 3.84 12.6 3.84 12.6" class="E I J N"/></g><defs ><path id="B" d="M442.793 238.69a2.01 2.01 0 0 1-2.009 2.009 2.01 2.01 0 0 1-2.009-2.009 2.01 2.01 0 0 1 2.009-2.009 2.01 2.01 0 0 1 2.009 2.009z"/><path id="C" d="M500.28 328.07a2.15 2.15 0 1 1-4.3 0 2.15 2.15 0 1 1 4.3 0z"/><path id="D" d="M446.68 301.9v-9.094l-.925-.77v-2.158l1.696-.154.308-10.173-1.08-.617-.154-1.695s1.233.462 1.233.154.308-2.004.308-2.004-.77-.154-.77-.462.924-1.08.924-1.08-.462-.463-.616-.77-.462-1.695-.462-1.695l.462-1.696-.308-.925-.77-1.387 1.08-1.08-.308-1.695c0-.308.77-1.54.924-1.696s1.388-1.85 1.388-1.85l2.62-.617 3.083.463 1.695 1.08.308 2.774s-.308 1.695-.462 1.695-1.387.617-1.387.617-1.542.154-1.696 0 .463 1.85.463 1.85v1.85l-.154 2.312s0 1.08-.155 1.233-.462.617-.462.617l-.154 2.312 2.466.616-.154 1.388-1.696.154.31 9.402 2.466.462v2.62l-1.08.616-.308 9.402h-8.632z"/><path id="E" d="M390.36 343.9c4.897.904 12.28-.452 14.692 2.712 2.895 3.28-9.06 8.328-7.35 11.166 3.698 3.913 7.504 2.3 11.643.136.975-2.115 1.728-5.886 2.26-7.007-1.507-3.466-5.555-5.164-4.52-10.398 6.827-2.55 19.95-2.34 21.363-1.356 1.11 2.175.112 3.166.338 4.9-1.13 2.185-4.04 5.89-4.045 7.85 7.162 2.523 9.05-.39 15.493-.218 7.55.093 12.142 2.12 13.78-.88-1.123-2.6-8.047-.483-10.675-2.147-1.314-.445-2.163-1.5-3.3-2.666s-4.33-1.224-4.807-4.092c1.336-6.132 10.185-5.195 11.632-6.134l23.056 1.582c4.177-.118 6.54 7.398.9 9.66s-22.32-3.355-29.557.505c-.374-1.574-5.573-3.955-5.948-4.03-2.215.663-6.532.42-6.532.42-1.055 1.96-2.26 3.393-3.314 5.352-4.788-2.1-9.314 1.63-14.543.525l-8.137.904c-.226 0-5.198-.452-5.198-.452l-7.91 2.26 5.65-4.973-4.972-3.616z"/><path id="F" d="M390.012 342.94a2.18 2.18 0 0 1-2.179 2.18 2.18 2.18 0 0 1-2.179-2.18 2.18 2.18 0 0 1 2.179-2.18 2.18 2.18 0 0 1 2.179 2.18z"/><path id="G" d="M389.44 353.72a2.18 2.18 0 0 1-2.18 2.179 2.18 2.18 0 0 1-2.179-2.179 2.18 2.18 0 0 1 2.179-2.179 2.18 2.18 0 0 1 2.18 2.179z"/></defs></svg>