<svg xmlns="http://www.w3.org/2000/svg" xmlns:xlink="http://www.w3.org/1999/xlink" height="480" width="640" xmlns:v="https://vecta.io/nano"><style><![CDATA[.B{fill:#5387f4}.C{stroke-width:1.603}.D{fill:#006700}.E{fill:red}.F{stroke-width:.332}.G{fill:#ffd200}.H{fill:#fff}.I{stroke-width:.628pt}.J{fill-rule:evenodd}.K{stroke-width:.235}.L{stroke-linejoin:bevel}.M{stroke-width:.816}.N{stroke-width:1.729}.O{stroke-width:.025}.P{stroke-width:.105}]]></style><defs><clipPath id="A"><path fill-opacity=".67" d="M0 0h640v480H0z"/></clipPath><path id="B" d="M490.58 234.24c0 .846-.823 1.53-1.837 1.53s-1.837-.686-1.837-1.53.823-1.53 1.837-1.53 1.837.686 1.837 1.53z"/><path id="C" d="M259.03 105.7s400.32 70.645 414.45 395.62C687.61 826.3 485.1 868.7 414.45 920.5c-70.645 51.807-113.03 113.03-146 113.03s-80.065-14.13-80.065-14.13 9.42 51.8 75.355 47.1S390.9 953.46 428.58 934.62s277.88-98.9 259.04-428.58C673.5 152.8 263.74 115.13 259.03 105.7z"/><path id="D" d="M320.26 487.2c0 59.825-11.597 108.32-25.903 108.32s-25.903-48.498-25.903-108.32 11.597-108.32 25.903-108.32 25.903 48.498 25.903 108.32z"/><path id="E" d="M356.4 534.525c-16.73 41.84-39.635 72.023-51.163 67.414s-7.31-42.265 9.418-84.105 39.635-72.023 51.163-67.414 7.31 42.265-9.418 84.105z"/><path id="F" d="M286.907 518.59c21.89 39.388 30.837 76.207 19.985 82.237s-37.393-21.01-59.282-60.398-30.837-76.207-19.985-82.237 37.393 21.01 59.282 60.398z"/><path id="G" d="M324.7 521.186c0 45.062-10.064 81.59-22.48 81.59s-22.48-36.53-22.48-81.59 10.064-81.59 22.48-81.59 22.48 36.53 22.48 81.59z"/><path id="H" d="M489.285 233.915c0 .786-.617 1.423-1.378 1.423s-1.378-.637-1.378-1.423.617-1.423 1.378-1.423 1.378.637 1.378 1.423z"/><path id="I" d="M427.88 303.13c.325 1.9-.45 11.372-.865 13.64-.537 1.923-.447 6.708-10.395 7.147-4.776.21-3.898-4.548-3.68-4.548s1.95 1.733 3.898 0-.444-17.53 1.515-19.488c2.156-2.155 9.985 1.496 9.528 3.248z"/><path id="J" d="M427.88 303.13c-2.057-.264-3.16-.732-3.68 1.516-2.053 9.068 2.368 17.1-7.58 19.272-4.665 1.04-3.898-4.548-3.68-4.548s1.95 1.733 3.898 0-.444-17.53 1.515-19.488c2.156-2.155 9.985 1.496 9.528 3.248z"/><path id="K" d="m283.46-389.76-17.717 70.866 17.717 25.037 17.716-25.037-17.716-70.866z"/><path id="L" d="M368.98-419.45s-40.71-27.717-40.71.866 39.843.866 40.71-.866zm-7.795-.18s-28.583-19.342-28.583.604 27.975.604 28.583-.604z"/><path id="M" d="M407.48-549.2l106.3-106.3s-27.516 220.02-88.583 265.75c0 0-53.15 24.117-53.15-.135l35.433-159.3z"/><path id="N" d="M425.197-504.86l106.3-53.15s-17.717 221.4-106.3 221.4c-53.15 0-70.866-70.866-70.866-70.866l70.866-97.378z"/><path id="O" d="M425.197-504.86l70.866-35.434c0 35.434-17.716 185.96-70.866 185.96-35.433 0-70.866-53.15-70.866-53.15l70.866-97.378z"/><path id="P" d="M425.197-504.86l35.433-17.717c0 79.662-17.716 150.53-53.15 150.53-17.717 0-53.15-35.433-53.15-35.433l70.866-97.378z"/><path id="Q" d="M334.7 674.38s28.307-4.996 46.624-19.982 18.317-39.964 26.642-39.964 9.99 28.308 29.973 38.3 51.62 23.312 51.62 23.312l-154.86-1.665z"/><path id="R" d="M404.308 265.646s5.046-.965 8.31-3.858 3.265-7.717 4.75-7.717 1.78 5.466 5.343 7.395 9.2 4.5 9.2 4.5l-27.604-.32z"/><path id="S" d="M618.03 787.1v-8.6h6.21v1.014h-5.074v2.63h4.752v1.008h-4.752v2.924h5.273v1.013h-6.4z"/><path id="T" d="M642.03 787.1v-8.6h3.81c.765 0 1.348.08 1.746.235s.717.424.955.814.357.823.357 1.295a2.16 2.16 0 0 1-.591 1.541c-.395.418-1.004.684-1.828.797.3.145.53.287.685.428a5.85 5.85 0 0 1 .943 1.142l1.495 2.338h-1.43l-1.137-1.787-.82-1.183c-.215-.274-.408-.465-.58-.575a1.68 1.68 0 0 0-.516-.228 3.36 3.36 0 0 0-.633-.041h-1.318v3.814h-1.137zm1.137-4.8h2.443c.52 0 .926-.052 1.22-.158s.516-.28.668-.515.23-.496.23-.774c0-.406-.15-.74-.446-1.002s-.758-.392-1.394-.392h-2.72v2.84z"/></defs><g clip-path="url(#A)"><g class="J"><g class="B"><path d="M-79.43 318.86h798.86V480H-79.43zm0-318.86h798.86v161.14H-79.43z"/></g><path d="M-79.43 161.14h798.86v157.7H-79.43z" class="H"/></g><g transform="matrix(1.6437 0 0 1.6437 -358.51 -168.29)"><g stroke="#000"><g class="J"><g transform="matrix(.74925 0 0 .7416 105.14 72.609)"><g transform="matrix(-1 0 0 1 825.1 9.1869)"><g class="F E"><use xlink:href="#B" transform="matrix(.63371 -.40113 .49703 .7852 41.19 205.69)"/><use xlink:href="#B" transform="matrix(.63371 -.40113 .49703 .7852 36.37 209.51)"/></g><g class="C D"><use xlink:href="#C" transform="matrix(.13845 .032625 -.034493 .1482 406.46 152.89)"/><use xlink:href="#D" transform="matrix(.067365 -.005325 .016573 .067011 435.79 156.41)"/><use xlink:href="#D" transform="matrix(.060996 -.022965 .030688 .0639 429.11 164.08)"/><use xlink:href="#D" transform="matrix(.006392 -.07135 .062807 .018947 425.66 205.09)"/><use xlink:href="#D" transform="matrix(.029417 -.06013 .0572 .039534 421.8 189.48)"/><use xlink:href="#D" transform="matrix(.044533 -.047044 .048576 .052033 423.4 178.25)"/></g><g class="F E"><use xlink:href="#B" transform="matrix(.71299 -.2327 .28833 .88343 65.801 118.99)"/><use xlink:href="#B" transform="matrix(.71299 -.2327 .28833 .88343 60.189 121.51)"/></g><g class="C D"><use xlink:href="#D" transform="matrix(.095003 .023445 .001421 .10361 450.31 143)"/><use xlink:href="#D" transform="matrix(.091852 -.004756 .021969 .10567 438.59 150.9)"/><use xlink:href="#D" transform="matrix(.031778 -.099236 .080893 .056105 420.64 208.04)"/><use xlink:href="#D" transform="matrix(.06006 -.072546 .066514 .083002 420.3 183.9)"/><use xlink:href="#D" transform="matrix(.076789 -.046834 .050553 .096925 426.13 168.55)"/><use xlink:href="#D" transform="matrix(.088755 .041964 -.016747 .10262 469.8 160.18)"/><use xlink:href="#D" transform="matrix(.09061 .013488 .002978 .10871 456.96 165.67)"/><use xlink:href="#D" transform="matrix(.048429 -.091719 .069247 .071427 429.42 218.55)"/><use xlink:href="#D" transform="matrix(.071401 -.05976 .050484 .095145 433.31 194.64)"/><use xlink:href="#D" transform="matrix(.083252 -.031052 .032447 .10574 441.69 180.63)"/><use xlink:href="#D" transform="matrix(.06454 .076734 -.053817 .08802 496.25 181.43)"/><use xlink:href="#D" transform="matrix(.076947 .051118 -.038258 .10208 482.57 181.05)"/><use xlink:href="#D" transform="matrix(.078394 -.064415 .035781 .095742 437.71 218.35)"/><use xlink:href="#D" transform="matrix(.087151 -.02499 .00986 .10974 450.24 197.83)"/><use xlink:href="#D" transform="matrix(.087065 .00668 -.010458 .11188 463.11 188.42)"/><use xlink:href="#D" transform="matrix(.046575 .10876 -.087307 .07709 511.72 202.12)"/></g><g class="F E"><use xlink:href="#B" transform="matrix(.29304 -.42472 .55451 .30219 167.81 313.54)"/><use xlink:href="#B" transform="matrix(.29304 -.42472 .55451 .30219 165.8 317.22)"/></g><g class="C D"><use xlink:href="#D" transform="matrix(.068401 .085113 -.074663 .09841 496.78 196.6)"/><use xlink:href="#D" transform="matrix(.10683 -.041872 .008857 .11902 435.5 221.04)"/><use xlink:href="#D" transform="matrix(.1039 .004909 -.024139 .12481 455.84 203.07)"/><use xlink:href="#D" transform="matrix(.093708 .039835 -.047186 .11959 473 197.47)"/><use xlink:href="#D" transform="matrix(-.012686 .1312 -.12512 .021273 532.08 244.55)"/></g><g class="F E"><use xlink:href="#B" transform="matrix(.45225 .5983 -.74133 .56036 427.87 -141.94)"/><use xlink:href="#B" transform="matrix(.45225 .5983 -.74133 .56036 423.66 -146.42)"/></g><g class="C D"><use xlink:href="#D" transform="matrix(.020912 .12172 -.12422 .049086 520.59 230.39)"/><use xlink:href="#D" transform="matrix(.1253 .02386 -.054526 .11847 448.5 217.11)"/><use xlink:href="#D" transform="matrix(.09768 .066604 -.089441 .10431 477.65 212.14)"/><use xlink:href="#D" transform="matrix(.069333 .093744 -.10892 .085607 497.18 217.05)"/></g><g transform="matrix(.062904 .16941 -.15868 .070518 507.09 211.42)" class="C D"><use xlink:href="#E"/><use xlink:href="#F"/><use xlink:href="#G"/></g><g transform="matrix(.038655 -.065163 .10009 .052494 381.33 173.41)" class="C D"><use xlink:href="#E"/><use xlink:href="#F"/><use xlink:href="#G"/></g><g class="E"><g stroke-width=".28"><use xlink:href="#H"/><path d="M483.165 234.565c0 .786-.617 1.423-1.378 1.423s-1.378-.637-1.378-1.423.617-1.423 1.378-1.423 1.378.637 1.378 1.423z"/></g><g class="F"><use xlink:href="#B" transform="matrix(.64918 .37559 -.46538 .80436 276.35 -113.32)"/><use xlink:href="#B" transform="matrix(.64918 .37559 -.46538 .80436 270.73 -115.82)"/><use xlink:href="#B" transform="matrix(.40299 -.32227 .44392 .44914 153.89 236.13)"/><use xlink:href="#B" transform="matrix(.40299 -.32227 .44392 .44914 150.91 239.07)"/></g></g></g><g transform="translate(-4.287 9.799)"><g class="F E"><use xlink:href="#B" transform="matrix(.63371 -.40113 .49703 .7852 41.19 205.69)"/><use xlink:href="#B" transform="matrix(.63371 -.40113 .49703 .7852 36.37 209.51)"/></g><g class="C D"><use xlink:href="#C" transform="matrix(.13845 .032625 -.034493 .1482 406.46 152.89)"/><use xlink:href="#D" transform="matrix(.067365 -.005325 .016573 .067011 435.79 156.41)"/><use xlink:href="#D" transform="matrix(.060996 -.022965 .030688 .0639 429.11 164.08)"/><use xlink:href="#D" transform="matrix(.006392 -.07135 .062807 .018947 425.66 205.09)"/><use xlink:href="#D" transform="matrix(.029417 -.06013 .0572 .039534 421.8 189.48)"/><use xlink:href="#D" transform="matrix(.044533 -.047044 .048576 .052033 423.4 178.25)"/></g><g class="F E"><use xlink:href="#B" transform="matrix(.71299 -.2327 .28833 .88343 65.801 118.99)"/><use xlink:href="#B" transform="matrix(.71299 -.2327 .28833 .88343 60.189 121.51)"/></g><g class="C D"><use xlink:href="#D" transform="matrix(.095003 .023445 .001421 .10361 450.31 143)"/><use xlink:href="#D" transform="matrix(.091852 -.004756 .021969 .10567 438.59 150.9)"/><use xlink:href="#D" transform="matrix(.031778 -.099236 .080893 .056105 420.64 208.04)"/><use xlink:href="#D" transform="matrix(.06006 -.072546 .066514 .083002 420.3 183.9)"/><use xlink:href="#D" transform="matrix(.076789 -.046834 .050553 .096925 426.13 168.55)"/><use xlink:href="#D" transform="matrix(.088755 .041964 -.016747 .10262 469.8 160.18)"/><use xlink:href="#D" transform="matrix(.09061 .013488 .002978 .10871 456.96 165.67)"/><use xlink:href="#D" transform="matrix(.048429 -.091719 .069247 .071427 429.42 218.55)"/><use xlink:href="#D" transform="matrix(.071401 -.05976 .050484 .095145 433.31 194.64)"/><use xlink:href="#D" transform="matrix(.083252 -.031052 .032447 .10574 441.69 180.63)"/><use xlink:href="#D" transform="matrix(.06454 .076734 -.053817 .08802 496.25 181.43)"/><use xlink:href="#D" transform="matrix(.076947 .051118 -.038258 .10208 482.57 181.05)"/><use xlink:href="#D" transform="matrix(.078394 -.064415 .035781 .095742 437.71 218.35)"/><use xlink:href="#D" transform="matrix(.087151 -.02499 .00986 .10974 450.24 197.83)"/><use xlink:href="#D" transform="matrix(.087065 .00668 -.010458 .11188 463.11 188.42)"/><use xlink:href="#D" transform="matrix(.046575 .10876 -.087307 .07709 511.72 202.12)"/></g><g class="F E"><use xlink:href="#B" transform="matrix(.29304 -.42472 .55451 .30219 167.81 313.54)"/><use xlink:href="#B" transform="matrix(.29304 -.42472 .55451 .30219 165.8 317.22)"/></g><g class="C D"><use xlink:href="#D" transform="matrix(.068401 .085113 -.074663 .09841 496.78 196.6)"/><use xlink:href="#D" transform="matrix(.10683 -.041872 .008857 .11902 435.5 221.04)"/><use xlink:href="#D" transform="matrix(.1039 .004909 -.024139 .12481 455.84 203.07)"/><use xlink:href="#D" transform="matrix(.093708 .039835 -.047186 .11959 473 197.47)"/><use xlink:href="#D" transform="matrix(-.012686 .1312 -.12512 .021273 532.08 244.55)"/></g><g class="F E"><use xlink:href="#B" transform="matrix(.45225 .5983 -.74133 .56036 427.87 -141.94)"/><use xlink:href="#B" transform="matrix(.45225 .5983 -.74133 .56036 423.66 -146.42)"/></g><g class="C D"><use xlink:href="#D" transform="matrix(.020912 .12172 -.12422 .049086 520.59 230.39)"/><use xlink:href="#D" transform="matrix(.1253 .02386 -.054526 .11847 448.5 217.11)"/><use xlink:href="#D" transform="matrix(.09768 .066604 -.089441 .10431 477.65 212.14)"/><use xlink:href="#D" transform="matrix(.069333 .093744 -.10892 .085607 497.18 217.05)"/></g><g transform="matrix(.062904 .16941 -.15868 .070518 507.09 211.42)" class="C D"><use xlink:href="#E"/><use xlink:href="#F"/><use xlink:href="#G"/></g><g transform="matrix(.038655 -.065163 .10009 .052494 381.33 173.41)" class="C D"><use xlink:href="#E"/><use xlink:href="#F"/><use xlink:href="#G"/></g><g class="E"><g stroke-width=".28"><use xlink:href="#H"/><path d="M483.165 234.565c0 .786-.617 1.423-1.378 1.423s-1.378-.637-1.378-1.423.617-1.423 1.378-1.423 1.378.637 1.378 1.423z"/></g><g class="F"><use xlink:href="#B" transform="matrix(.64918 .37559 -.46538 .80436 276.35 -113.32)"/><use xlink:href="#B" transform="matrix(.64918 .37559 -.46538 .80436 270.73 -115.82)"/><use xlink:href="#B" transform="matrix(.40299 -.32227 .44392 .44914 153.89 236.13)"/><use xlink:href="#B" transform="matrix(.40299 -.32227 .44392 .44914 150.91 239.07)"/></g></g></g><g class="B K"><path d="M408.73 321.337l.037 5.258c10.2-.517 5.263 6.977 7.03 11.223l2.255-2.827 3.122 2.803c-.25-4.908 2.748-17.395-12.443-16.457z"/><path d="M412.378 321.554l-.037 5.258c-10.2-.517-5.263 6.977-7.03 11.223l-2.255-2.827-3.122 2.803c.25-4.908-2.748-17.395 12.443-16.457z"/><g transform="matrix(.89666 .44272 -.44272 .89666 181.278 -148.143)"><use xlink:href="#I"/><use xlink:href="#J"/></g><g transform="matrix(-.89666 .44272 .44272 .89666 641.448 -148.143)"><use xlink:href="#I"/><use xlink:href="#J"/></g><path d="M408.508 320.897l-.18 6.774 5.08-.037.613-6.737h-5.513z"/></g></g><path d="M412.16 270.936s7.977 6.773 7.977 11.635c-.17 1.94-1.765 3.92-4.683 5.344 1.347-2.013 1.53-3.66 1.53-5.575-.17-3.3-4.713-7.26-4.713-7.26l-.112-4.145z" stroke-width=".131" class="B"/><g transform="matrix(.74925 0 0 .7416 145.3 269.28)"><g class="G"><path transform="matrix(.001339 -1.0774 -.89274 -.13654 -21.895 93.381)" stroke-width=".176" d="M172.65-427.57h49.93v2.055h-49.93z"/><use xlink:href="#K" transform="matrix(-.15568 -.030357 -.001571 .16811 402.81 -28.331)" stroke-width="1.066"/></g><g stroke-width="1.685"><use xlink:href="#L" transform="matrix(-.12088 -.009627 .003688 .087161 404.67 -46.703)"/><use xlink:href="#L" transform="matrix(.1182 -.013634 -.016366 -.086948 308.96 -117.95)"/></g><g stroke-width=".174"><path d="M358.166-85.144l2.205-.33s1.59 2.803 3.308 7.258c1.51 4.666 3.03 12.207 4.41 29.365-4.134-.33-19.292 1.65-19.292 1.65s.212-20.653 5.512-28.044c2.48-3.13 4.134-9.24 3.858-9.9z" class="B"/><path d="M358.166-85.144l2.205-.33s1.59 2.803 3.308 7.258c1.51 4.666-4.4 12.537-3.032 29.694-4.134-.33-11.85 1.32-11.85 1.32s.212-20.653 5.512-28.044c2.48-3.13 4.134-9.24 3.858-9.9z" class="H"/><path d="M358.166-85.144l2.205-.33s-.552 8.578-2.48 12.867-3.032 24.745-2.757 24.745-6.34.66-6.34.66.212-20.653 5.512-28.044c2.48-3.13 4.134-9.24 3.858-9.9z" class="B"/></g></g><path d="M415.085 271.17s-8.207 6.592-8.207 11.324c.175 1.89 1.816 3.814 4.817 5.202-1.386-1.96-1.574-3.562-1.574-5.426.175-3.202 4.848-7.065 4.848-7.065l.115-4.034z" stroke-width=".132" class="B"/><g transform="matrix(-.26793 0 0 .19503 512.17 346.21)"><g class="I"><use xlink:href="#M" class="B"/><path d="M407.48-549.2l70.866-70.867s-35.433 230.3-106.3 230.3v-.135l35.433-159.3z" class="H"/><path d="M407.48-549.2l35.433-35.434s-35.433 194.88-70.866 194.88v-.135l35.433-159.3z" class="B"/></g><g class="G"><path transform="rotate(316.008)" d="M678.85-116.5h177.17v7.323H678.85z" class="M"/><use xlink:href="#K" transform="matrix(.44721 .43219 -.39504 .38894 290.37 -679.58)" class="N"/></g><g class="I"><use xlink:href="#L" transform="matrix(.38682 .26358 -.16606 .2437 323.5 -666.19)"/><use xlink:href="#L" transform="matrix(-.33732 -.32453 .20446 -.21252 742.75 -641.88)"/><use xlink:href="#N" class="B"/><use xlink:href="#O" class="H"/><use xlink:href="#P" class="B"/></g><g class="G"><path transform="rotate(333.483)" d="M569.18-267.74h177.17v7.323H569.18z" class="M"/><use xlink:href="#K" transform="matrix(.29679 .54653 -.4936 .25237 315.38 -647.39)" class="N"/></g><g class="I"><use xlink:href="#L" transform="matrix(.28982 .36758 -.23158 .18259 342.96 -624.68)"/><use xlink:href="#L" transform="matrix(-.2243 -.41085 .25884 -.14131 735.56 -475.59)"/></g></g><g transform="matrix(.26414 0 0 .19504 316.86 346.21)"><g class="I"><use xlink:href="#M" class="B"/><path d="M407.48-549.2l70.866-70.867s-35.433 230.3-106.3 230.3v-.135l35.433-159.3z" class="H"/><path d="M407.48-549.2l35.433-35.434s-35.433 194.88-70.866 194.88v-.135l35.433-159.3z" class="B"/></g><g class="G"><path transform="rotate(316.008)" d="M678.85-116.5h177.17v7.323H678.85z" class="M"/><use xlink:href="#K" transform="matrix(.44721 .43219 -.39504 .38894 290.37 -679.58)" class="N"/></g><g class="I"><use xlink:href="#L" transform="matrix(.38682 .26358 -.16606 .2437 323.5 -666.19)"/><use xlink:href="#L" transform="matrix(-.33732 -.32453 .20446 -.21252 742.75 -641.88)"/><use xlink:href="#N" class="B"/><use xlink:href="#O" class="H"/><use xlink:href="#P" class="B"/></g><g class="G"><path transform="rotate(333.483)" d="M569.18-267.74h177.17v7.323H569.18z" class="M"/><use xlink:href="#K" transform="matrix(.29679 .54653 -.4936 .25237 315.38 -647.39)" class="N"/></g><g class="I"><use xlink:href="#L" transform="matrix(.28982 .36758 -.23158 .18259 342.96 -624.68)"/><use xlink:href="#L" transform="matrix(-.2243 -.41085 .25884 -.14131 735.56 -475.59)"/></g></g></g><g transform="matrix(.74925 0 0 .7416 105.14 70.338)" class="L"><g class="J"><path d="M364.724 277.166l47.604-82.048 47.6 82.048h-95.205z" stroke-width=".398" class="G"/><path d="M369.6 274.84l42.9-74.347 42.898 74.347H369.6z" fill="#0ff" stroke-width=".36"/><path d="M419.84 239.14c0 3.9-3.222 7.043-7.196 7.043s-7.196-3.153-7.196-7.043 3.222-7.043 7.196-7.043 7.196 3.153 7.196 7.043z" class="G P"/></g><g fill="none" class="O"><path d="M412.705 235.973l-.286-26.245m1.713 27.958l9.408-13.123m-7.982 14.547l15.1-6.275m-13.96 8.265l17.676.57m-18.816 1.722l10.264 9.13m-13.117-9.988v8.273m-3.135-10.27l-13.4 11.697m14.826-10.842l-5.987 11.126m3.706-13.41l-22.238 7.703m21.953-8.843l-15.68-.57m3.134-5.992l13.685 4.565m-7.13-16.26l8.268 15.976"/></g><g class="J"><g class="O"><path d="M412.507 231.818c-8.58 0-14.83 1.576-20.108 3.427l8.044-13.937 1.484-2.367c2-1.758 6.29-2.58 10.58-2.58s8.58.87 10.727 2.623l9.383 16.262c-5.562-1.85-11.53-3.427-20.11-3.427z" fill="#c453d7"/><path d="M412.5 230.18c-8.608-.012-18.23 2.568-18.767 2.745l2.68-4.65 4.022-6.966 1.484-2.367c2-1.758 6.29-2.58 10.58-2.58s8.58.87 10.727 2.623l8.044 13.94s-10.2-2.745-18.77-2.745z" fill="#5000c1"/><path d="M412.507 228.323c-6.356-.026-16.632 1.73-17.357 2.06l1.27-2.11 4.022-6.966 1.484-2.367c2-1.758 6.29-2.58 10.58-2.58s8.58.87 10.727 2.623l6.702 11.616s-8.85-2.274-17.428-2.274z" fill="#0053d7"/><path d="M412.503 226.397c-8.427-.017-15.428 1.607-16.086 1.875l4.022-6.966 1.484-2.367c2-1.758 6.29-2.58 10.58-2.58s8.58.87 10.727 2.623l5.363 9.29s-7.51-1.875-16.09-1.875z" fill="#009f9f"/><path d="M412.507 224.758c-8.62-.03-14.035 1.082-14.745 1.195l1.34-2.325 1.34-2.32 1.484-2.367c2-1.758 6.29-2.58 10.58-2.58s8.58.87 10.727 2.623l4.022 6.97s-6.168-1.195-14.748-1.195z" fill="#ff0"/><path d="M412.433 222.616c-7.5-.163-13.024 1.03-13.335 1l1.34-2.32 1.484-2.367c2-1.758 6.29-2.58 10.58-2.58s8.58.87 10.727 2.623l2.68 4.646s-4.898-1-13.478-1z" fill="#f50"/><path d="M412.713 220.124c-7.538.062-11.44 1.052-12.278 1.185l1.484-2.367c2-1.758 6.29-2.58 10.58-2.58s8.58.87 10.727 2.623l1.34 2.325s-3.274-1.185-11.853-1.185z" fill="#ff0b00"/></g><path d="M369.6 274.84l12.066-20.912h61.666l12.066 20.912H369.6z" fill="#4363ff" stroke-width=".36"/><path d="M410.017 238.105c.067 0 .118-.237.288-.447a3.66 3.66 0 0 1 1.246-.447c.27-.105.827-.074 1.246-.074.588.04.625.236.96.522.147.233.495.556.67.894.19.18.343.46.48.67.14.228.287.573.48.894.1.357.192.636.192 1.043 0 .424-.1.605-.192.894-.292.076-.86.112-1.15 0-.31-.215-.84-.078-1.054-.298-.55-.06-.685-.564-.96-.82-.19-.22-.188-.384-.383-.596-.302-.168-.343-.373-.48-.67.12-.32.328-.388.67-.522.183-.208.288-.292.288-.67-.07-.422-.265-.377-.767-.447l-1.534.075z" stroke-width=".015" class="E"/><g transform="matrix(1.0506 -.042456 .20928 1.1632 -78.052 -20.528)" fill="#6da700"><g class="P"><use xlink:href="#Q" transform="matrix(.099518 -.007286 .008942 .12214 386.68 185.55)"/><use xlink:href="#Q" transform="matrix(.099518 -.007286 .008942 .12214 385.23 185.65)"/><use xlink:href="#Q" transform="matrix(.11825 -.008657 .009919 .13548 374.39 177.66)"/><use xlink:href="#Q" transform="matrix(.13074 -.009572 .011546 .15772 365.68 163.46)"/><use xlink:href="#Q" transform="matrix(.14792 -.010829 .012848 .1755 354.72 152.32)"/><use xlink:href="#Q" transform="matrix(.15729 -.011515 .014476 .19774 346.83 137.79)"/></g><g stroke-width=".02"><use xlink:href="#R"/><path d="M401.708 265.646s5.046-.965 8.31-3.858 3.265-7.717 4.75-7.717 1.78 5.466 5.343 7.395 9.2 4.5 9.2 4.5l-27.604-.32z"/></g><path d="M394.66 266.04s5.996-1.07 9.875-4.28 3.88-8.56 5.643-8.56 2.116 6.063 6.35 8.203 10.934 4.993 10.934 4.993l-32.8-.357z" stroke-width=".022"/><path d="M388.488 266.412s6.63-1.246 10.918-4.982 4.29-9.964 6.24-9.964 2.34 7.058 7.02 9.55 12.088 5.812 12.088 5.812l-36.265-.415z" class="O"/><path d="M380.713 266.6s7.5-1.386 12.353-5.544 4.853-11.088 7.06-11.088 2.647 7.854 7.94 10.626 13.676 6.468 13.676 6.468l-41.03-.462z" stroke-width=".028"/><path d="M374.17 266.538s7.975-1.562 13.135-6.246 5.16-12.492 7.506-12.492 2.815 8.85 8.444 11.972 14.542 7.287 14.542 7.287l-43.627-.52z" stroke-width=".031"/></g></g></g><path d="M391.47 288.314l4.36-3.634s5.965 4.77 17.667 4.542c11.02-.2 14.915-4.088 16.52-4.543l4.36 3.86c-2.524.682-11.472 4.996-21.567 5.45-10.555-.454-19.962-4.314-21.34-5.677z" fill="#ffc200" stroke-width=".175" class="J"/></g><path d="M426.6 290l-.65-1.8-.764.268-.087-.24 1.837-.645.087.24-.766.27.65 1.8-.307.108zm-5.538 1.62l-.565-2.092 1.72-.45.067.246-1.404.368.173.64 1.315-.345.066.245-1.315.345.193.713 1.46-.382.067.247-1.774.465zm-3.152.7l-.565-2.092.315-.082.565 2.092-.315.082zm-2.1.27l-.27-2.15.323-.04.238 1.895 1.202-.145.032.254-1.526.184zm-3.766.198l-.063-2.165.334-.01 1.34 1.666-.05-1.7.312-.008.063 2.165-.334.01-1.34-1.668.05 1.7-.312.008zm-3.862-.218l.224-2.154.323.034-.224 2.154-.323-.034zm-2.66-.468l.403-2.13.328.062.952 1.9.317-1.67.306.058-.403 2.13-.328-.062-.952-1.912-.317 1.673-.306-.058zm-.18-2.202l.314.082-.318 1.2c-.055.2-.126.37-.213.48a.67.67 0 0 1-.374.226c-.16.04-.356.03-.585-.028-.223-.058-.396-.14-.52-.244a.63.63 0 0 1-.227-.372c-.027-.144-.01-.328.047-.55l.318-1.2.315.082-.318 1.2c-.048.182-.065.32-.05.418a.42.42 0 0 0 .146.25c.08.07.2.124.325.16.232.06.408.057.53-.01s.22-.232.288-.495l.318-1.2zm-5.448-.112l.302.062c-.014.108-.005.203.028.285a.58.58 0 0 0 .196.231 1.08 1.08 0 0 0 .347.166c.12.034.23.05.33.044s.18-.028.238-.07.1-.095.116-.16a.26.26 0 0 0-.019-.189.62.62 0 0 0-.18-.185 4.99 4.99 0 0 0-.395-.222 2.55 2.55 0 0 1-.423-.262c-.1-.084-.167-.174-.202-.266a.46.46 0 0 1-.013-.284.49.49 0 0 1 .181-.265.63.63 0 0 1 .354-.124c.143-.01.294.008.454.054.176.05.324.12.444.208a.7.7 0 0 1 .251.308c.046.118.056.238.028.362l-.306-.067c.02-.136-.01-.25-.085-.346s-.203-.167-.385-.22c-.2-.054-.337-.063-.44-.027s-.165.097-.2.184c-.02.075-.006.145.042.2s.192.16.432.285l.5.283c.123.096.206.196.248.3a.5.5 0 0 1 .02.324c-.03.112-.095.205-.193.283s-.223.123-.374.14a1.26 1.26 0 0 1-.478-.05c-.215-.062-.388-.14-.518-.237a.81.81 0 0 1-.275-.346.68.68 0 0 1-.028-.412zm-3.656-.678l.742-2.028.305.117-.742 2.028-.305-.117z"/><path d="M393.767 287.523l1.37-1.678.65.543c.147.123.253.224.317.305.1.112.15.23.178.35a.88.88 0 0 1-.012.474 1.29 1.29 0 0 1-.25.461c-.104.128-.213.227-.327.297a1.01 1.01 0 0 1-.33.138.83.83 0 0 1-.297.008c-.093-.015-.2-.05-.293-.104a1.87 1.87 0 0 1-.326-.224l-.68-.57zm.4.01l.403.337c.124.104.23.175.317.213s.168.057.242.055a.58.58 0 0 0 .3-.097 1.17 1.17 0 0 0 .314-.282c.143-.175.22-.338.232-.486s-.014-.277-.08-.387c-.05-.08-.146-.18-.295-.304l-.396-.33-1.046 1.283zm3.155 1.03c.123-.337.322-.56.597-.673s.575-.106.9.018c.213.082.388.2.526.354a1.01 1.01 0 0 1 .253.524 1.16 1.16 0 0 1-.064.595 1.23 1.23 0 0 1-.344.498c-.144.126-.332.2-.535.217s-.405-.013-.605-.1a1.3 1.3 0 0 1-.53-.36 1.03 1.03 0 0 1-.25-.526 1.11 1.11 0 0 1 .054-.557zm.313.125c-.1.244-.086.466.012.664s.26.34.485.425.444.1.643.004.35-.258.444-.52a1.01 1.01 0 0 0 .062-.47.72.72 0 0 0-.174-.393.89.89 0 0 0-.372-.26.89.89 0 0 0-.629-.017c-.202.07-.36.26-.47.564zm11.535 2.85c.037-.358.175-.626.414-.805s.53-.252.876-.216a1.31 1.31 0 0 1 .596.206.97.97 0 0 1 .372.442 1.16 1.16 0 0 1 .083.592c-.023.218-.093.4-.2.57a.97.97 0 0 1-.466.348c-.193.07-.395.092-.607.07a1.28 1.28 0 0 1-.602-.211 1.01 1.01 0 0 1-.371-.444 1.11 1.11 0 0 1-.084-.553zm.333.04c-.027.26.03.473.173.64a.84.84 0 0 0 .574.285c.244.025.452-.028.624-.163s.275-.34.304-.617c.018-.175 0-.332-.054-.47s-.14-.25-.264-.335a.89.89 0 0 0-.424-.154c-.23-.024-.434.025-.614.147s-.285.344-.32.668zm20.63-2.82l-.957-1.948.762-.365c.173-.083.3-.136.408-.16.14-.035.27-.04.393-.016a.88.88 0 0 1 .425.208c.123.108.23.247.315.42a1.35 1.35 0 0 1 .134.421 1.01 1.01 0 0 1-.012.357c-.025.104-.063.195-.115.274a.94.94 0 0 1-.216.223c-.092.07-.205.14-.34.203l-.8.382zm.18-.37l.473-.226c.146-.07.254-.137.325-.2s.122-.13.15-.197c.04-.094.054-.202.04-.323a1.19 1.19 0 0 0-.126-.404c-.1-.204-.215-.342-.345-.414a.65.65 0 0 0-.385-.09c-.092.01-.225.058-.4.14l-.465.222.73 1.488zm-6.947 2.532l-.565-2.092 1.054-.276c.212-.056.378-.08.5-.07a.53.53 0 0 1 .318.13.57.57 0 0 1 .184.29.51.51 0 0 1-.062.418c-.082.13-.233.24-.454.326a.92.92 0 0 1 .218.055 1.58 1.58 0 0 1 .336.21l.568.46-.396.104-.432-.353-.305-.23a.7.7 0 0 0-.198-.097.51.51 0 0 0-.158-.018 1.13 1.13 0 0 0-.178.036l-.365.096.25.93-.314.082zm-.002-1.25l.677-.177c.143-.038.252-.08.327-.127s.124-.106.15-.174a.32.32 0 0 0 .012-.205.31.31 0 0 0-.189-.211c-.1-.043-.236-.04-.412.005l-.753.197.187.692zm4.267.062l.05-2.356.325-.13 1.758 1.632-.344.138-.516-.5-.954.382v.708l-.32.128zm.32-1.087l.773-.3-.466-.46-.333-.35c.024.14.036.284.035.433l-.01.688zm-9.256 3.413l-.46-2.117.902-.2c.184-.04.336-.048.456-.028a.56.56 0 0 1 .304.143.49.49 0 0 1 .156.259.44.44 0 0 1-.028.273.59.59 0 0 1-.211.246c.154.007.28.048.377.122a.49.49 0 0 1 .188.296.57.57 0 0 1-.012.293.55.55 0 0 1-.133.233c-.06.06-.14.114-.24.16s-.226.084-.38.116l-.917.193zm.052-1.295l.52-.1a1.37 1.37 0 0 0 .298-.088c.076-.038.13-.086.16-.144s.038-.124.022-.198-.048-.128-.098-.172a.29.29 0 0 0-.188-.075c-.075-.005-.2.01-.372.046l-.48.1.14.64zm.212.978l.6-.126.214-.056a.58.58 0 0 0 .171-.096c.043-.037.075-.085.096-.142s.024-.122.01-.2a.33.33 0 0 0-.114-.191c-.058-.05-.132-.076-.218-.082a1.33 1.33 0 0 0-.359.038l-.556.117.158.728z"/><g stroke="#000" fill="#ffc200" class="K"><path d="M658.63 787.1v-8.6h1.136v7.577h4.23v1.013h-5.367z" transform="matrix(-1.082961 .42599 -.43619 -1.057638 1500.838 869.17386)"/><path d="M636.87 787.1v-7.576h-2.83V778.5h6.81v1.014h-2.842v7.576h-1.137z" transform="matrix(-.815394 .816041 -.83558 -.796327 1640.82125 410.779254)"/><path d="M626 787.1v-8.6h1.166l4.512 6.745V778.5h1.09v8.6H631.6l-4.51-6.75v6.75H626z" transform="matrix(-.838148 .79375 -.812755 -.81855 1636.85175 442.248774)"/><g transform="matrix(-.628851 .960664 -.983665 -.614146 1638.95325 177.18648)"><use xlink:href="#S"/><path d="M615.47 784.08l1.136.287c-.238.933-.668 1.646-1.29 2.138s-1.373.733-2.267.733c-.926 0-1.68-.188-2.262-.563s-1.02-.926-1.324-1.64-.45-1.483-.45-2.303c0-.895.17-1.674.51-2.338s.83-1.174 1.46-1.518 1.328-.52 2.086-.52c.86 0 1.582.22 2.168.656s.994 1.053 1.225 1.846l-1.12.264c-.2-.625-.49-1.08-.868-1.366s-.855-.427-1.43-.427c-.66 0-1.213.158-1.658.474a2.51 2.51 0 0 0-.932 1.278c-.18.53-.27 1.08-.27 1.646 0 .73.106 1.37.317 1.916s.547.95.996 1.22a2.79 2.79 0 0 0 1.459.404c.637 0 1.176-.183 1.617-.55s.74-.912.897-1.634z"/></g><path d="M595.47 784.08l1.136.287c-.238.933-.668 1.646-1.29 2.138s-1.373.733-2.267.733c-.926 0-1.68-.188-2.262-.563s-1.02-.926-1.324-1.64-.45-1.483-.45-2.303c0-.895.17-1.674.51-2.338s.83-1.174 1.46-1.518a4.27 4.27 0 0 1 2.086-.521c.86 0 1.582.22 2.168.656s.994 1.053 1.225 1.846l-1.12.264c-.2-.625-.49-1.08-.867-1.366s-.856-.427-1.43-.427c-.66 0-1.213.158-1.658.474a2.51 2.51 0 0 0-.932 1.278c-.18.53-.27 1.08-.27 1.646 0 .73.105 1.37.316 1.916s.547.95.996 1.22a2.79 2.79 0 0 0 1.459.404c.637 0 1.176-.183 1.617-.55s.74-.912.897-1.634z" transform="matrix(.047919 1.139242 -1.166519 .046798 1375.33175 -455.68153)"/><path d="M586.2 787.1v-8.6h1.137v8.6H586.2z" transform="matrix(.073048 1.137965 -1.165212 .07134 1360.271 -474.49483)"/><path d="M569.36 787.1v-8.6h6.21v1.014h-5.074v2.63h4.752v1.008h-4.752v2.924h5.273v1.013h-6.4z" transform="matrix(.325639 1.094945 -1.121162 .318025 1178.49125 -645.815581)"/><path d="M559.3 787.1v-8.6h1.71l2.033 6.082.4 1.272.457-1.377 2.057-5.977h1.53v8.6h-1.096v-7.19l-2.496 7.19H562.9l-2.485-7.312v7.312H559.3z" transform="matrix(.465039 1.045848 -1.070889 .454164 1059.114375 -724.611382)"/><path d="M533.28 787.1v-8.6h1.137v7.577h4.23v1.013h-5.367z" transform="matrix(.961588 .646642 -.662124 .939103 462.2767 -889.81268)"/><path d="M521.3 787.1v-8.6h1.166l4.512 6.745V778.5h1.1v8.6h-1.166l-4.512-6.75v6.75h-1.1z" transform="matrix(1.059366 .479249 -.490724 1.034595 275.908675 -876.552154)"/><path d="M513.34 787.1v-8.6h6.21v1.014h-5.075v2.63h4.752v1.008h-4.752v2.924h5.274v1.013h-6.4z" transform="matrix(1.081339 .429901 -.440194 1.056053 225.005675 -867.86383)"/><path d="M469.77 787.1l-3.328-8.6h1.23l2.232 6.24.45 1.406.463-1.406 2.32-6.24h1.16l-3.363 8.6h-1.167z" transform="matrix(1.118045 -.328355 .336217 1.091901 -408.293025 -517.354948)"/><path d="M460.6 787.1v-8.6h1.136v7.577h4.23v1.013H460.6z" transform="matrix(1.01785 -.558504 .571877 .994049 -545.76615 -333.018814)"/><path d="M444.24 784.33l1.072-.094c.05.43.168.783.352 1.06s.476.496.867.668.83.252 1.318.252c.434 0 .817-.064 1.15-.193s.578-.305.738-.527.246-.473.246-.74-.078-.504-.234-.703-.414-.373-.774-.5c-.23-.09-.74-.228-1.53-.416s-1.342-.37-1.658-.54c-.4-.215-.717-.48-.92-.797s-.3-.677-.3-1.072a2.17 2.17 0 0 1 .369-1.213c.246-.38.606-.666 1.078-.86s.998-.293 1.577-.293c.636 0 1.197.103 1.68.3s.864.504 1.125.903a2.59 2.59 0 0 1 .422 1.353l-1.1.082c-.058-.543-.258-.953-.597-1.23s-.834-.416-1.495-.416c-.687 0-1.19.127-1.505.38s-.47.552-.47.908c0 .31.11.562.334.762s.79.404 1.71.615 1.56.39 1.904.545c.5.23.87.523 1.108.88a2.12 2.12 0 0 1 .357 1.218c0 .458-.13.89-.393 1.295s-.638.717-1.13.944-1.04.334-1.653.334c-.777 0-1.43-.114-1.957-.34s-.935-.566-1.236-1.02-.453-.972-.47-1.546z" transform="matrix(.870558 -.759738 .777929 .850202 -641.022475 -127.349538)"/><path d="M434.58 787.1v-8.6h1.137v7.577h4.23v1.013h-5.367z" transform="matrix(.686116 -.922536 .944624 .670073 -692.54425 89.39108)"/><path d="M426.64 787.1v-8.6h6.21v1.014h-5.074v2.63h4.752v1.008h-4.752v2.924h5.274v1.013h-6.41z" transform="matrix(.564965 -.997812 1.021703 .551754 -700.588325 215.66823)"/><path d="M415.3 787.1v-8.6h6.21v1.014h-5.075v2.63h4.752v1.008h-4.752v2.924h5.274v1.013h-6.4z" transform="matrix(.252203 -1.11328 1.139935 .246306 -661.6055 508.07252)"/><path d="M392.74 784.08l1.137.287c-.238.933-.668 1.646-1.29 2.138s-1.373.733-2.268.733c-.926 0-1.68-.188-2.26-.563s-1.02-.926-1.325-1.64-.45-1.483-.45-2.303c0-.895.17-1.674.5-2.338s.83-1.174 1.46-1.518 1.328-.52 2.086-.52c.86 0 1.582.22 2.168.656s.994 1.053 1.224 1.846l-1.12.264c-.2-.625-.488-1.08-.867-1.366s-.855-.427-1.43-.427c-.66 0-1.213.158-1.658.474a2.51 2.51 0 0 0-.931 1.278c-.18.53-.27 1.08-.27 1.646 0 .73.105 1.37.316 1.916s.547.95.996 1.22.936.404 1.46.404c.637 0 1.176-.183 1.618-.55s.74-.912.896-1.634z" transform="matrix(-.357162 -1.085539 1.11153 -.34881 -393.71095 970.8797)"/><path d="M383.47 787.1v-8.6h1.136v8.6h-1.136z" transform="matrix(-.517973 -1.021836 1.046302 -.505861 -280.18325 1070.30514)"/><path d="M376.56 787.1v-8.6h1.136v7.577h4.23v1.013h-5.367z" transform="matrix(-.460018 -1.047958 1.073049 -.449262 -323.415775 1035.07296)"/><path d="M365.57 778.5h1.137v4.963c0 .864-.098 1.55-.293 2.057s-.55.922-1.06 1.242-1.175.475-2.003.475c-.805 0-1.463-.14-1.975-.416a2.38 2.38 0 0 1-1.096-1.201c-.22-.528-.328-1.247-.328-2.157V778.5h1.137v4.957c0 .747.068 1.297.205 1.653a1.6 1.6 0 0 0 .715.814c.34.192.754.287 1.242.287.836 0 1.432-.19 1.787-.568s.533-1.107.533-2.186V778.5z" transform="matrix(-.758723 -.866609 .887358 -.740982 -66.568344 1196.98136)"/><path d="M343.95 787.1v-8.6h6.21v1.014h-5.074v2.63h4.752v1.008h-4.752v2.924h5.273v1.013h-6.4z" transform="matrix(-.915694 -.707334 .72427 -.894282 116.801775 1259.80638)"/><path d="M649.73 787.1l3.3-8.6h1.225l3.515 8.6h-1.295l-1-2.6h-3.592l-.944 2.6h-1.207zm2.48-3.527h2.912l-.897-2.38-.61-1.78a10.92 10.92 0 0 1-.463 1.64l-.943 2.52z" transform="matrix(-1.002182 .5849 -.598904 -.978748 1576.492 702.02054)"/><use xlink:href="#T" transform="matrix(-.88793 .74032 -.758046 -.867168 1627.97875 513.77352)"/><path d="M597.06 787.1l3.3-8.6h1.225l3.515 8.6h-1.294l-1.002-2.6h-3.592l-.944 2.6h-1.207zm2.48-3.527h2.912l-.896-2.38-.6-1.78a10.8 10.8 0 0 1-.463 1.64l-.943 2.52z" transform="matrix(-.356087 1.085869 -1.111869 -.347761 1573.57325 -113.233862)"/><path d="M577.36 787.1v-8.6h3.81c.766 0 1.348.08 1.746.235s.717.424.955.814.358.823.358 1.295a2.16 2.16 0 0 1-.592 1.541c-.395.418-1.004.684-1.828.797.3.145.53.287.685.428a5.89 5.89 0 0 1 .944 1.142l1.494 2.338h-1.43l-1.137-1.787-.82-1.183c-.215-.274-.408-.465-.58-.575a1.68 1.68 0 0 0-.516-.228 3.36 3.36 0 0 0-.633-.041h-1.318v3.814h-1.137zm1.137-4.8h2.443c.52 0 .926-.052 1.22-.158s.516-.28.668-.515.23-.496.23-.774c0-.406-.15-.74-.446-1.002s-.757-.392-1.394-.392h-2.72v2.84z" transform="matrix(.10662 1.135434 -1.16262 .104126 1337.97175 -500.331762)"/><path d="M550.4 787.1l3.3-8.6h1.225l3.516 8.6h-1.295l-1.002-2.6h-3.592l-.943 2.6H550.4zm2.48-3.527h2.912l-.896-2.38-.6-1.78a10.8 10.8 0 0 1-.463 1.64l-.943 2.52z" transform="matrix(.674862 .930415 -.952692 .659081 848.147125 -821.674328)"/><path d="M539.06 787.1l3.298-8.6h1.225l3.516 8.6h-1.295l-1.002-2.6H541.2l-.943 2.6h-1.207zm2.478-3.527h2.912l-.896-2.38-.6-1.78a10.8 10.8 0 0 1-.463 1.64l-.943 2.52z" transform="matrix(.852835 .778688 -.797332 .832893 626.77745 -877.395902)"/><path d="M501.34 787.1v-8.6h3.808c.766 0 1.348.08 1.746.235s.717.424.956.814.357.823.357 1.295c0 .6-.197 1.123-.592 1.54s-1.004.684-1.828.797c.3.145.53.287.686.428.332.304.646.685.943 1.142l1.494 2.338h-1.43l-1.136-1.787-.82-1.183c-.214-.274-.408-.465-.58-.575s-.34-.185-.515-.228a3.36 3.36 0 0 0-.633-.041h-1.318v3.814h-1.137zm1.137-4.8h2.443c.52 0 .926-.052 1.22-.158s.515-.28.668-.515.228-.496.228-.774c0-.406-.148-.74-.445-1.002s-.758-.392-1.395-.392h-2.718v2.84z" transform="matrix(1.161733 .113215 -.115926 1.134567 -74.957064 -768.631084)"/><path d="M491.64 782.9c0-1.426.382-2.54 1.148-3.346s1.754-1.213 2.965-1.213c.793 0 1.508.2 2.144.568a3.69 3.69 0 0 1 1.453 1.588c.336.676.504 1.444.504 2.303 0 .87-.175 1.65-.527 2.338s-.85 1.21-1.494 1.564-1.34.528-2.086.528c-.81 0-1.53-.196-2.168-.586a3.77 3.77 0 0 1-1.447-1.6c-.328-.676-.492-1.4-.492-2.144zm1.17.017c0 1.035.278 1.852.832 2.45.56.594 1.258.89 2.098.89.856 0 1.56-.3 2.11-.902.555-.602.833-1.455.833-2.56 0-.7-.12-1.308-.358-1.828s-.58-.928-1.037-1.213-.963-.433-1.53-.433c-.805 0-1.498.277-2.08.832s-.868 1.472-.868 2.765z" transform="matrix(1.161733 .113215 -.115926 1.134567 -76.013418 -768.237715)"/><path d="M483.32 787.1v-8.6h2.96c.668 0 1.178.04 1.53.123.492.114.912.32 1.26.616.453.383.79.873 1.014 1.47s.34 1.274.34 2.04c0 .653-.076 1.23-.23 1.735s-.347.922-.586 1.254-.5.588-.785.78-.623.33-1.025.428-.858.146-1.377.146h-3.1zm1.137-1.013h1.834c.566 0 1-.053 1.33-.16s.582-.254.773-.445c.27-.27.48-.63.627-1.084s.23-1 .23-1.658c0-.9-.15-1.588-.445-2.068s-.65-.81-1.073-.973c-.304-.117-.795-.176-1.47-.176h-1.805v6.563z" transform="matrix(1.146216 -.216706 .221895 1.119414 -332.137 -593.611524)"/><path d="M474.37 787.1l3.3-8.6h1.224l3.516 8.6h-1.295l-1.002-2.6h-3.592l-.943 2.6h-1.207zm2.478-3.527h2.913l-.897-2.38-.61-1.78c-.1.55-.264 1.097-.463 1.64l-.944 2.52z" transform="matrix(1.137262 -.257811 .263983 1.110669 -360.55395 -566.531774)"/><path d="M451.7 787.1l3.3-8.6h1.225l3.515 8.6h-1.295l-1-2.6h-3.592l-.944 2.6H451.7zm2.48-3.527h2.912l-.897-2.38-.61-1.78a10.92 10.92 0 0 1-.463 1.64l-.943 2.52z" transform="matrix(.976847 -.624442 .639393 .954005 -579.99725 -270.649874)"/><path d="M406.62 787.1v-8.6h2.96c.668 0 1.178.04 1.53.123a2.91 2.91 0 0 1 1.26.616c.453.383.79.873 1.014 1.47s.34 1.274.34 2.04c0 .653-.076 1.23-.23 1.735s-.347.922-.586 1.254-.5.588-.785.78-.623.33-1.025.428-.858.146-1.377.146h-3.1zm1.137-1.013h1.834c.566 0 1-.053 1.33-.16s.582-.254.773-.445c.27-.27.48-.63.627-1.084s.23-1 .23-1.658c0-.9-.15-1.588-.445-2.068s-.65-.81-1.073-.973c-.304-.117-.795-.176-1.47-.176h-1.805v6.563z" transform="matrix(.107624 -1.135343 1.162526 .105107 -619.2486 627.79352)"/><path d="M394.34 787.1l3.3-8.6h1.224l3.516 8.6h-1.295l-1.002-2.6H396.5l-.943 2.6h-1.207zm2.478-3.527h2.913l-.897-2.38-.61-1.78c-.1.55-.264 1.097-.463 1.64l-.944 2.52z" transform="matrix(-.087156 -1.137019 1.164243 -.085118 -541.621525 783.77288)"/><path d="M368.55 787.1v-8.6h3.222c.657 0 1.182.088 1.576.264a1.99 1.99 0 0 1 .932.803c.227.36.34.736.34 1.13a1.95 1.95 0 0 1-.299 1.037c-.2.324-.5.586-.902.785.52.152.918.412 1.195.78s.422.8.422 1.3c0 .402-.086.777-.258 1.125s-.377.61-.627.797-.564.33-.943.428-.836.14-1.383.14h-3.275zm1.136-4.98h1.858c.504 0 .865-.033 1.084-.1.29-.086.506-.228.65-.428s.223-.45.223-.75c0-.285-.07-.535-.205-.75s-.332-.367-.586-.445-.7-.123-1.307-.123h-1.717v2.596zm0 3.967h2.14c.367 0 .625-.014.773-.04.262-.047.48-.125.657-.235a1.24 1.24 0 0 0 .433-.474c.114-.21.17-.454.17-.727 0-.32-.082-.598-.246-.832s-.392-.404-.685-.498-.707-.147-1.254-.147h-1.987v2.954z" transform="matrix(-.668055 -.935078 .957467 -.652434 -154.54157 1152.62758)"/><path d="M351.93 787.1v-8.6h3.24c.57 0 1.006.028 1.306.082.422.07.776.206 1.06.405s.514.47.686.826.263.746.263 1.172c0 .73-.232 1.35-.697 1.857s-1.305.756-2.52.756h-2.203v3.492h-1.136zm1.136-4.506h2.22c.734 0 1.256-.136 1.564-.4s.463-.658.463-1.154c0-.36-.09-.666-.275-.92s-.418-.428-.715-.5c-.19-.05-.545-.076-1.06-.076h-2.198v3.07z" transform="matrix(-.869449 -.760958 .779178 -.849118 57.212575 1243.61554)"/><path d="M335.28 787.1v-8.6h3.81c.765 0 1.348.08 1.746.235s.717.424.955.814.357.823.357 1.295a2.16 2.16 0 0 1-.591 1.541c-.395.418-1.004.684-1.828.797.3.145.53.287.685.428a5.85 5.85 0 0 1 .943 1.142l1.495 2.338h-1.43l-1.137-1.787-.82-1.183c-.215-.274-.408-.465-.58-.575a1.68 1.68 0 0 0-.516-.228 3.36 3.36 0 0 0-.633-.041h-1.318v3.814h-1.137zm1.137-4.8h2.443c.52 0 .926-.052 1.22-.158s.516-.28.668-.515.23-.496.23-.774c0-.406-.15-.74-.446-1.002s-.758-.392-1.394-.392h-2.72v2.84z" transform="matrix(-.999158 -.589803 .603924 -.975795 240.253225 1283.52254)"/></g></g></g></svg>