<svg xmlns="http://www.w3.org/2000/svg" xmlns:xlink="http://www.w3.org/1999/xlink" height="480" width="640" xmlns:v="https://vecta.io/nano"><style><![CDATA[.B{stroke:#000}.C{fill:none}.D{fill:#fff}.E{fill:#ff0}.F{stroke-width:.331}.G{stroke-width:1.424}]]></style><defs><clipPath id="A"><path fill-opacity=".67" d="M0 0h682.67v512H0z"/></clipPath><path id="B" d="M87.106 292.1l-.084-21.53 4.054-.008-.223 21.782.244-21.606-5.84-.167v-4.62l89.493.098.042 4.577h-5.52l.105 21.802-.195-21.802h4.1l.09 21.557"/><path id="C" d="M171.366 202.028c2.924-.07 3.678 12.042 3.685 18.042 2.512.705 8.08 4.208 10.545 7.374l-28.25-.042c2.43-3.125 7.956-6.642 10.447-7.346 0-6.008.614-18.112 3.573-18.042"/><path id="D" d="M130.508 336.763c13.022.042 29.037-2.616 36.54-6.495l16.476-1.46.328 20.1c-13.957 7.695-46.184 9.348-53.274 9.292-7.097.056-39.722-1.625-53.742-9.348l.18-20.114 16.512 1.486c7.502 3.86 24.006 6.537 37.014 6.537h-.035"/></defs><g clip-path="url(#A)" transform="matrix(.9375 0 0 .9375 0 .00001)"><g fill-rule="evenodd"><path d="M0 0h768v256H341.33L0 0z" fill="#ed2939"/><path d="M0 512h768V256H341.33L0 512z" fill="#002395"/><path d="M0 0l341.33 256L0 512V0z" class="D"/></g><path d="M172.318 193.168l.105-3.963s-2.128-3.4.342-7.032c0 0-5.248-2.776-4.027-7.123 0 0-4.745-1.213-4.396-6.432 0 0-5.122-.355-5.653-4.716 0 0-5.122.843-7.376-3.405 0 0-4.997.977-6.406-2.526 0 0-4.857 1.682-7.74-2.435 0 0-5.13 2.072-7.28-1.814-2.122 3.873-7.25 1.814-7.25 1.814-2.847 4.102-7.74 2.4-7.74 2.4-1.36 3.516-6.343 2.52-6.343 2.52-2.247 4.25-7.362 3.405-7.362 3.405-.502 4.347-5.618 4.702-5.618 4.702.405 5.233-4.334 6.42-4.334 6.42 1.25 4.346-3.992 7.116-3.992 7.116 2.533 3.664.426 7.026.426 7.026l-.12 3.655 84.775.39" class="E"/><path d="M172.318 193.168l.105-3.963s-2.128-3.4.342-7.032c0 0-5.248-2.776-4.027-7.123 0 0-4.745-1.213-4.396-6.432 0 0-5.122-.355-5.653-4.716 0 0-5.122.843-7.376-3.405 0 0-4.997.977-6.406-2.526 0 0-4.857 1.682-7.74-2.435 0 0-5.13 2.072-7.28-1.814-2.122 3.873-7.25 1.814-7.25 1.814-2.847 4.102-7.74 2.4-7.74 2.4-1.36 3.516-6.343 2.52-6.343 2.52-2.247 4.25-7.362 3.405-7.362 3.405-.502 4.347-5.618 4.702-5.618 4.702.405 5.233-4.334 6.42-4.334 6.42 1.25 4.346-3.992 7.116-3.992 7.116 2.533 3.664.426 7.026.426 7.026l-.12 3.655 84.76.39z" class="B C F"/><path fill="red" d="M170.346 188.217c-13.315-1.333-28.647-4.493-40.483 2.17-7.935-4.675-18.982-4.39-28.388-3.474-5.108.914-11.117.914-16.455 1.786l-.837.118c-9.686.643-18.472-2.22-26.89-5.98 2.673 15.167 5.64 30.712 7.097 46.59 3.175 23.518-11.13 43.263-5.262 66.496 3.503 11.148 15.764 17.63 26.986 18.914 10.866.64 22.108 2.42 32.165 4.604 1.912.398 4.18 1.284 5.5 1.856 2.77 1.158 4.8 2.86 6.58 4.682 6.07-6.322 14.97-8.08 23.748-9.008 15.82-1.85 35.325-.843 45.01-15.173v-.8c5.262-7.926 4.564-20.015 2.282-28.995-.154-3.133-.99-5.895-1.445-8.88-9.665-25.52-1.39-54.223 2.77-79.947-5.08 2.777-10.747 4.088-16.4 5.477-4.508.6-9.533.328-14.096.083l-1.89-.51"/><path fill="#80cfe1" d="M190.224 261.464c-.063 1.68.844 3 1.172 4.555 1.85 11.156 3.636 25.933-7.85 32.854-12.708 8.078-29.373 4.62-44.077 8.895-2.938.816-6.985 3.517-9.05 5.428-1.326-.872-2.66-2.212-4.37-3-12.1-6.432-27.83-4.277-41.487-7.752-6.86-2.17-14.012-7.513-15.75-14.533-4.466-18.418 6.232-34.116 4.97-52.387-.816-13.954-3.16-27.348-6.385-40.43 10.677 4.974 23.036 5.804 35.04 3.42 8.89-1.243 19.24-1.27 27.572 2.49 4.592-1.975 9.965-2.86 14.914-3.405 9.407.915 19.52 2.616 29.206 2.547 6.47-.336 12.346-2.205 17.97-4.696-3.336 21.62-9.742 44.268-1.877 66.014"/><path d="M171.022 265.774l-.105-20.33h2.505L142.34 225.37l-.056-10.43h3l-15.542-11.127-15.465 11.12h2.994l.056 10.423-30.915 20.045 2.47.013.105 20.317 82.026.056" class="D"/><path d="M171.022 265.774l-.105-20.33h2.505L142.34 225.37l-.056-10.43h3l-15.542-11.127-15.465 11.12h2.994l.056 10.423-30.915 20.045 2.47.013.105 20.317 82.033.04z" class="B C G"/><path d="M180.583 292.478l.007 6.362-100.135-.112-.042-6.335 100.177.084" class="D"/><path d="M180.583 292.478l.007 6.362-100.135-.112-.042-6.335 100.17.084z" class="B C G"/><use xlink:href="#B" class="D"/><g class="B C G"><use xlink:href="#B"/><path d="M106.342 286.793l-.063-15.014H94.263l.07 15 12 .015"/><path d="M97.538 274.908l.035 8.72h5.5l-.028-8.72H97.54m67.545 11.932l-.07-15-11.975-.014.056 15.013h12"/><path d="M156.28 274.966l.063 8.693h5.492l-.05-8.693h-5.506m8.713-12.573l-.07-15.015h-12l.042 15.015h12.017z"/><path d="M156.188 250.53l.035 8.707h5.492l-.007-8.707h-5.52m-49.948 11.806l-.084-14.986-11.996-.015.056 14.993h12.023v.008z"/><path d="M97.435 250.473l.028 8.694 5.506.013-.042-8.707h-5.492m30.55 11.885l-.056-14.986-12.003-.013.05 15h12m-8.783-11.863l.028 8.693 5.5.028-.035-8.72h-5.492m25.552 11.896l-.084-15.015-11.996-.013.056 15 12.023.03"/><path d="M135.942 250.508l.042 8.72h5.5l-.028-8.72h-5.513"/></g><path d="M147.727 257.785l.133 34.61-34.774-.056-.126-34.582 34.76.027" class="D"/><g class="B C G"><path d="M147.727 257.785l.133 34.61-34.774-.056-.126-34.582 34.767.027z"/><path d="M112.75 267.665l35 .028m-30.64 24.693l-.12-24.46m26.623 24.472l-.12-24.445m16.915-24.906l-19.582-14.296-22.003-.028L99.406 243l61.014.056m-39.897-26.176l.035 8.72 18.507.014-.035-8.72-18.507-.014m5.022 2.167l.028 4.346h8.5l-.028-4.346h-8.5m4.207-12.09l10.293 7.276-20.5-.027 10.217-7.25"/></g><use xlink:href="#C" class="D"/><g class="B C G"><use xlink:href="#C"/><path d="M114.585 258.748h2.533l-.74 1.36s1.22 1.57.02 3.37l.663 1.25h-2.443l.663-1.187s-1.25-2.085.056-3.433l-.754-1.36m5.16 0h2.533l-.733 1.36a2.9 2.9 0 0 0 .007 3.37l.656 1.25h-2.436l.656-1.187s-1.22-2.085.063-3.433l-.747-1.36m5.64 0h2.526l-.754 1.36s1.235 1.57.02 3.37l.663 1.277-2.422-.027.65-1.187s-1.235-2.072.05-3.433l-.74-1.36h.007zm6.35.022h2.547l-.747 1.374s1.22 1.543.007 3.35l.684 1.27h-2.457l.656-1.186s-1.22-2.1.084-3.433l-.768-1.374h-.007zm5.652 0h2.526l-.747 1.374s1.228 1.543.014 3.342l.67 1.277h-2.436l.635-1.186s-1.228-2.086.098-3.433l-.76-1.374m5.617.013l2.526-.014-.747 1.374s1.25 1.543.035 3.35l.635 1.27H143l.656-1.186s-1.22-2.086.084-3.433l-.747-1.36"/></g><use xlink:href="#D" class="E"/><use xlink:href="#D" class="B C F"/><path d="M34.417 251.023l14.516 4.62-4.4 23.498-13.74 2.134S28.486 268.92 34.417 251" class="E"/><path d="M34.417 251.023l14.516 4.62-4.4 23.498-13.74 2.134S28.486 268.92 34.417 251v.014z" class="B C F"/><path fill="#7e7e7e" d="M44.54 278.885l-13.734 2.393 8.688-12.356 5.046 9.963"/><path d="M44.54 278.885l-13.734 2.393 8.688-12.356 5.046 9.963" class="B C F"/><path d="M25.74 267.95l13.992 1.01c.314 11.854 1.752 57.09 55.78 59.547l-1.682 16.458c-65.766.683-70.763-55.486-68.09-77.016" class="E"/><g class="B C F"><path d="M25.74 267.95l13.992 1.01c.314 11.854 1.752 57.09 55.78 59.547l-1.682 16.458c-65.766.683-70.763-55.486-68.09-77.016z"/><path d="M77.098 348.34l16.5-3.6"/></g><path d="M225.453 251.195l-14.46 4.577 4.585 23.463 13.768 2.21s2.212-12.348-3.894-30.264" class="E"/><path d="M225.453 251.195l-14.46 4.577 4.585 23.463 13.768 2.21s2.212-12.348-3.894-30.264v.013z" class="B C F"/><path fill="#7e7e7e" d="M215.57 278.988l13.768 2.47-8.807-12.362-4.962 9.892"/><path d="M215.57 278.988l13.768 2.47-8.807-12.362-4.962 9.892" class="B C F"/><path d="M234.292 268.135l-14.012.957c-.202 11.84-1.235 57.096-55.263 59.496l1.835 16.444c65.752.76 70.274-55.382 67.44-76.904" class="E"/><g class="B C F"><path d="M234.292 268.135l-14.012.957c-.202 11.84-1.235 57.096-55.263 59.496l1.835 16.444c65.752.76 70.274-55.382 67.44-76.904v.006z"/><path d="M183.633 348.42l-16.53-3.6"/></g><g fill="#009fc5"><path d="M121.76 346.666c-.37.237-.872.3-1.452.272l-2.6-.133.223-3.257 2.6.14c.5.035.914.133 1.165.286.523.272.754.775.705 1.472-.035.6-.244 1-.628 1.22m-4.383 5.13l.258-3.97 3.043.2c.984.077 1.717-.18 2.212-.684.516-.488.782-1.13.816-1.855.063-.845-.154-1.536-.656-2.045-.482-.488-1.165-.747-2.024-.83l-4.348-.272-.6 9.348 1.3.084m9.47-7.8l3.182.035c.46.042.823.098 1.1.223.5.23.72.7.72 1.36 0 .63-.18 1.047-.537 1.298-.342.23-.837.334-1.43.334l-3.057-.035.028-3.216m-.05 8.28l.028-4 2.987.043c.53 0 .92.04 1.193.174.44.202.656.63.677 1.214l.077 1.57.05.76c.042.112.063.23.12.315h1.605l-.028-.203c-.18-.098-.328-.285-.4-.572-.056-.18-.084-.453-.098-.795l-.028-1.25c-.02-.565-.12-.955-.335-1.172-.188-.25-.447-.467-.844-.6.447-.237.782-.5 1.026-.844.23-.37.35-.837.35-1.4 0-1.074-.44-1.808-1.333-2.205-.482-.216-1.096-.33-1.82-.342l-4.487-.043-.035 9.377h1.3m9.954-1.978c-.572-.697-.88-1.57-.95-2.602-.063-1.298.188-2.288.782-2.96.6-.726 1.375-1.074 2.387-1.13 1.02-.056 1.856.272 2.477.913.635.63.998 1.5 1.06 2.6.035 1.046-.147 1.974-.628 2.8-.475.83-1.263 1.298-2.43 1.326-1.214.063-2.122-.223-2.7-.928m-1.535-5.902c-.6.928-.844 2.002-.782 3.3.1 1.402.523 2.56 1.34 3.433.907.872 2.108 1.3 3.587 1.227 1.584-.07 2.777-.67 3.587-1.77.656-.998.97-2.157.9-3.587-.1-1.277-.46-2.316-1.15-3.1-.872-1.04-2.15-1.5-3.88-1.43-1.633.104-2.833.704-3.608 1.918m44.074-13.5c.9-.153 1.682-.1 2.394.133 1.047.328 1.752 1.103 2.2 2.288l-1.3.18c-.28-.64-.677-1.08-1.214-1.326-.523-.23-1.18-.286-1.933-.174a3.01 3.01 0 0 0-2.08 1.277c-.5.753-.635 1.758-.42 3.04.18 1.06.572 1.96 1.214 2.56.593.614 1.466.83 2.603.67.85-.14 1.535-.48 2.017-1.067.502-.557.65-1.402.482-2.5l-3.008.46-.154-1.033 4.187-.643.816 4.96-.83.126-.516-1.144c-.35.517-.698.915-1.005 1.144-.516.405-1.214.663-2.087.8-1.13.174-2.163-.03-3.098-.63-1.026-.76-1.7-1.9-1.94-3.46-.272-1.542-.028-2.86.684-3.9.677-1.004 1.66-1.6 2.987-1.78m9.47-.703l3-1.088c.412-.153.768-.202 1.075-.167.55.04.956.37 1.186 1.025.216.558.216 1.047-.028 1.4-.258.355-.663.614-1.25.83l-2.82 1.012-1.165-3m3 7.752l-1.465-3.76 2.8-1.005c.523-.167.886-.258 1.158-.23.495.062.872.363 1.124.934l.635 1.43c.14.355.25.57.342.67.042.126.133.202.202.285l1.514-.557-.084-.202c-.223 0-.44-.126-.6-.37-.12-.174-.23-.425-.4-.718l-.495-1.173c-.223-.5-.454-.823-.72-1.012-.265-.147-.6-.244-.998-.27.307-.357.53-.712.614-1.13.1-.425.05-.9-.154-1.43-.384-.998-1.1-1.542-2.08-1.612-.523-.042-1.124.07-1.814.313l-4.215 1.5 3.405 8.818 1.235-.453m10.972-4.677l-5.353-7.808 5.876-3.746.65.943-4.815 3.076 1.647 2.386 4.445-2.86.607.914-4.445 2.86 1.814 2.63 4.9-3.133.65.922-5.98 3.816m4.694-13.8l1.535-1.688c.712-.753 1.465-1.095 2.3-.998.823.07 1.66.502 2.554 1.284.244.188.46.433.684.705.4.5.62.957.768 1.402.126.56.098 1.068-.098 1.557-.12.243-.328.53-.642.872l-1.542 1.674-5.548-4.82m8.1 3.676c1.1-1.2 1.326-2.5.7-3.948-.37-.8-.935-1.557-1.717-2.226-.984-.872-2-1.32-3.1-1.402-1.2-.1-2.22.342-3.105 1.3l-2.617 2.805 7.216 6.294 2.617-2.82m5.593-7.287l-8.304-4.877.677-1.074 8.318 4.85-.684 1.116m3.25-5.677l-8.967-3.587 2.645-6.307 1.1.42-2.156 5.198 2.7 1.06 2.017-4.787 1.033.426-1.996 4.78 3.022 1.227 2.212-5.26 1.1.4-2.694 6.42m4.12-11.014l-9.435-2.086.314-1.458 8.716-2.944-7.655-1.688.28-1.144 9.435 2.03-.3 1.416-8.73 3.008 7.655 1.653-.272 1.214m-.753-11.978l.12-1.186c.544.015 1.005-.07 1.354-.257.684-.37 1.082-1.074 1.186-2.115.042-.488.02-.914-.1-1.32-.202-.78-.642-1.214-1.347-1.284-.523-.056-.9.07-1.172.357-.244.328-.502.802-.698 1.472l-.433 1.235c-.28.8-.537 1.367-.816 1.68-.447.587-1.075.8-1.877.733-.858-.1-1.556-.433-2.052-1.088-.5-.6-.72-1.458-.593-2.52.084-.97.405-1.785.977-2.44.53-.6 1.354-.887 2.408-.775l-.098 1.186c-.516 0-.928.1-1.228.3-.544.3-.844.935-.935 1.863-.077.768.028 1.284.32 1.675.293.328.663.537 1.096.57.46.042.823-.105 1.075-.46.18-.245.398-.775.7-1.633l.426-1.298c.2-.6.46-1.06.754-1.388.523-.544 1.207-.774 2.066-.7 1.047.1 1.793.544 2.177 1.34.377.802.523 1.688.433 2.693-.12 1.137-.488 2.03-1.172 2.63-.684.613-1.535.823-2.568.74m-195.59-.573l.216 1.17c-.523.105-.942.315-1.25.587-.55.516-.74 1.3-.55 2.344.084.446.244.885.447 1.235.42.712.963.997 1.654.885.5-.1.844-.285 1.005-.648.154-.357.265-.9.3-1.598l.063-1.32c.042-.816.133-1.457.314-1.814.286-.642.823-1.04 1.626-1.17.858-.154 1.612.04 2.26.53.656.453 1.1 1.242 1.25 2.288.202.957.112 1.815-.265 2.588-.363.754-1.06 1.214-2.128 1.4l-.2-1.185c.495-.18.865-.357 1.1-.6.42-.468.544-1.144.384-2.072-.126-.754-.384-1.243-.775-1.486-.384-.287-.768-.398-1.186-.328-.468.07-.775.328-.92.747-.1.278-.16.857-.223 1.744l-.063 1.367c-.035.642-.133 1.173-.35 1.536-.342.67-.92 1.08-1.766 1.213-1.068.18-1.9-.063-2.477-.747-.6-.67-.97-1.472-1.158-2.47-.2-1.186-.056-2.107.42-2.846.482-.76 1.242-1.2 2.275-1.347M31.55 299l9.226-2.777 2.15 6.495-1.124.356-1.76-5.337-2.805.845 1.626 4.932-1.075.342-1.612-4.946-3.126.934 1.787 5.456-1.103.315-2.184-6.614m4.094 11.266l8.486-4.5.907 1.583-5.834 6.167 8.52-1.458.88 1.57-8.465 4.472-.6-1.04 4.997-2.63.865-.474 1.3-.657-8.486 1.444-.62-1.102 5.792-6.147-.28.14-.92.502c-.42.26-.733.42-.935.502l-4.983 2.672-.614-1.06m15.81 12.51c-.426-.097-.844-.342-1.256-.767l-1.793-1.85 2.415-2.212 1.807 1.843c.35.342.572.676.7.963.167.55 0 1.053-.5 1.527-.46.426-.92.6-1.354.495m-6.818.858l2.96-2.714 2.1 2.128c.677.7 1.368 1.005 2.094 1a2.95 2.95 0 0 0 1.933-.845c.628-.558.928-1.214.928-1.918-.007-.684-.32-1.326-.9-1.926l-3.015-3.077-7.02 6.446.907.914m8.483 7.535l5.087-7.974 6.016 3.656-.628.95-4.94-2.958-1.528 2.414 4.54 2.752-.586.915-4.55-2.742-1.73 2.7 5.004 3.008-.6.942-6.085-3.664"/><path d="M68.156 329.623l3.057.97c.433.132.747.3.956.488.39.37.495.9.265 1.54-.188.558-.475.92-.92 1.075-.398.07-.9.07-1.486-.112l-2.882-.92 1.012-3.043m-2.638 7.835l1.27-3.802 2.847.928c.51.133.88.315 1.06.502.35.314.454.78.28 1.36l-.426 1.513-.188.726c0 .12 0 .245.02.328l1.5.488.09-.216c-.16-.126-.25-.355-.244-.64l.18-.775.363-1.214c.147-.53.202-.928.07-1.213-.112-.3-.3-.573-.614-.83.475-.084.886-.23 1.235-.49.328-.286.607-.684.775-1.24.342-1.012.154-1.856-.6-2.498-.377-.334-.914-.62-1.62-.886l-4.27-1.318-2.987 8.895 1.25.384"/></g><path fill="#bc715f" d="M78.485 175.576c1.103-2.66 11.32-9.908 44.844-6.733 0 0 5.667 3.46 8.995 3.015 1.898-.245-1.117.118-3.594-1.94-2.526-2.057-3.064-6.278 2.708-6.167 5.743.147 27.244 1.36 27.65 3.292.377 1.954-11.368 2.77-15.737 2.658-4.39-.118-3.88 2.1.49 1.933 13.65-.488 28.55-5.296 44.285 5.833 1.877 1.353-4.745 1.57-9.868-.608 0 0-13.88.72-19.882-.264 0 0-4.613 3.753-10.62 3.384.782 1.946-2.22 9.21-21.1 3.746-3.12.957-14.487 2.86-13.246-.516-2.994 0-8.242.963-9.023-.74-.754-1.674 9.24-4.207 10.99-6.02 0 0-21.138.202-25.144-1.256 0 0-12.47 2.798-11.738.37"/><path fill="#008737" d="M85.26 205.168c.454-.613.635-1.716 1.598-1.688 2.094.557 3.517 4.388 6.092 1.904.914-.202 1.263 1.04 2.017 1.187.482 2.128 2.19-.433 3.468-.287 2.73-1.214 6.106-1.5 9.337-.9.098 2.086-1.535 4.388-3.587 5.574.042 2.1 1.947 3.447 1.912 5.56-.328.79-.056 2.03-1.25 2.288-1.514-.272-3.008-.433-4.264-1.277-.154-.153-.28-.453-.6-.356-.154.705.95 1.403 1.382 2.12-.76 1.298-2.024.112-3.085.126-.314.747-.014 1.688-.782 2.17-1.34-.042-1.612-1.5-2.436-2.226-.844.914.593 1.458.796 2.184-.516 2.75-.447 5.435-3.196 7.235l-1.842.915c-.502-1.38-.188-3.475-.523-4.92-1.09 1.772-1.94 3.322-3.538 4.82-1.87-.614-2.96-2.82-3.37-4.647-.782-2.128-.335-4.674 1.347-6.216-.572-1.116-2.533-.858-2.812-2.448-2.938-1.912-4.564 3.35-6.462.613-.614-2.553.12-5.728 1.968-7.633-.412-1.046-1.78-.774-2.59-1.374-1.85-1.57-4.515-3.23-4.382-6.063 5.06-1.91 11.1-.51 14.787 3.335"/><g class="E"><path d="M87.885 204.882c-.12 2.316 1.563.627 2.812 2.03-.977-.384-1.7 1.688-2.645.502l-.6.573c.35.795 1.026.9.32 1.77-1.047.398-1.256-.913-1.745-1.43-.084-.23.16-.663-.223-.816-.593.502-1.214.684-2.03.6-.223-.447-.656-1.033-.216-1.374.803-1.082 2.045.4 2.652-.37.098-.67-.488-1.486.272-1.947.523.1 1.193-.195 1.4.46m6.263 1.904c.063.447-.23 1.074.356 1.4.76-.412 1.57-.098 2 .656-.007.404.12.934-.412 1.13l-1.186-.223c.084-.23-.293-.377-.44-.6-.523-.16-.83.264-1.22.523.293.447.97.7.8 1.263-.698.697-1.04-.6-1.807-.273-.523-.202.188-1.3-.635-1.618-.977 0-.328 1.604-1.577.977-.447-.503-.886-1.18-.405-1.744.523-.35 1.4-.26 1.856.195.76-.843.837-4.102 2.66-1.674m-7.785 3.356c.5.733-.112 1.73.537 2.547 1.02-1.904 2.003.412 3.217.23.37.453.126 1.082.195 1.598-1.5.398-3.308.872-4.634-.328l-.37.426c.8.733 1.535 1.563.907 2.8-1.124.244-2.86.272-3.426-.886-.293-.955.684-1.646-.35-2.414-.747.928-.712 2.17-2.268 1.326-.963-.53-1.25-1.625-.768-2.547 1.005-1.584 2.764.05 3.852-.726.154-1.36-.35-2.547.9-3.3 1.068-.2 1.563.613 2.212 1.283"/></g><g class="D"><path d="M90.602 210.98c-.502 2.316-2.247-.12-3.064-.216 1.1-1.932 1.773.63 3.064.216m5.434 2.52c-1.214.34-1.026-1.173-1.626-1.766l.468-.426c.44.53.775 1.487 1.158 2.2"/></g><path d="M94.397 213.03c.35.802-.79 1.445.18 2.03l.844-.76c.83.245 1.793.39 2.373 1.214.62 1.703-1.103 1.66-2.08 2.135l-.97-.042c.23-.474-.42-.677-.58-1.004a.92.92 0 0 0-1.068.404c.216 1.082 1.535 1.926.174 2.888-1.15-.076-2.938.37-2.833-1.22-.433-.9 1.172-2.288-.544-2.343-.565 1.214-1.186 2.385-2.66 1.235l.18-1.73c1.4.04 3.078.285 3.713-1.29.405-1.144-.705-2.198.286-3.105 1.438-.328 2.247.635 2.98 1.6" class="E"/><path d="M93.365 215.632c.363.86-.614.915-1.075 1.34-.62.05-1.054-.195-1.43-.614-.28-1.04.495-1.144 1.09-1.555.69-.287.977.516 1.417.83"/><path d="M92.517 216.194c-.154.202-.37.14-.6.195l-.216-1.04c.46.04 1.06.188.816.843" class="D"/></g></svg>