<svg xmlns="http://www.w3.org/2000/svg" xmlns:xlink="http://www.w3.org/1999/xlink" height="480" width="640" xmlns:v="https://vecta.io/nano"><defs><clipPath id="A"><path fill-opacity=".67" d="M-85.333 0h682.67v512h-682.67z"/></clipPath><path id="B" d="M1194.088 230.314c1.77 0 3.545-1.772 3.545-3.543s-1.775-3.543-3.545-3.543"/><path id="C" d="M261.03 210.24h8.6v28.346h-8.6z"/></defs><g clip-path="url(#A)" transform="matrix(.9375 0 0 .9375 80 .000004)"><g fill-rule="evenodd"><path fill="#3e5eb9" d="M-128 0h768v512h-768z"/><path fill="#ffd900" d="M-128 91.43h768v329.14h-768z"/><path fill="#b10c0c" d="M-128 128h768v256h-768z"/><g stroke="#000"><rect rx="5.767" ry="5.851" height="10.971" width="621.71" y="250.51" x="-51.439" stroke-width="1.474" fill="#ffd900"/></g></g><g stroke="#000" transform="matrix(1.0321 0 0 1.0321 -757.03 -25.6)"><g fill-rule="evenodd"><path d="M1220.658 216.145l-30.118 10.63 30.118 10.63 30.118-10.63-30.118-10.63z" fill="#fff" stroke-width="1.339"/><rect rx="4.108" ry="3.78" height="7.087" width="442.91" y="223.23" x="761.81" stroke-width="1.333" fill="#ffd900"/></g><g fill="none" stroke-width="1.334"><use xlink:href="#B"/><path d="M1190.588 230.314c1.77 0 3.545-1.772 3.545-3.543s-1.775-3.543-3.545-3.543m-3.6 7.087c1.77 0 3.545-1.772 3.545-3.543s-1.775-3.543-3.545-3.543"/></g></g><g stroke="#000" transform="matrix(1.0321 0 0 1.0321 -786.29 -3.6571)"><g fill-rule="evenodd"><path d="M1220.658 216.145l-30.118 10.63 30.118 10.63 30.118-10.63-30.118-10.63z" fill="#fff" stroke-width="1.339"/><rect rx="4.108" ry="3.78" height="7.087" width="442.91" y="223.23" x="761.81" stroke-width="1.333" fill="#ffd900"/></g><g fill="none" stroke-width="1.334"><use xlink:href="#B"/><path d="M1190.588 230.314c1.77 0 3.545-1.772 3.545-3.543s-1.775-3.543-3.545-3.543m-3.6 7.087c1.77 0 3.545-1.772 3.545-3.543s-1.775-3.543-3.545-3.543"/></g></g><g fill-rule="evenodd"><path d="M526.547 251.642c-5.54 9.595 4.25-3.19 28.14 12.872 4.427 2.984 8.295 10.866 8.295 16.33-1.124-.752-1.958-2.425-3.196-3.51-1.733 1.737 1.655 9.7 2.15 13.462-3.735-2.09-3.375-3.08-4.616-5.648.248 3.105-.64 11.657.844 14.95-2.943-.84-2.75-3.2-4.286-3.686 1.046 3.728-.91 7.784-.392 11.975-1.72-1.703-3.553-3.037-4.352-3.724-.134 1.996-3.308 7.24-3.38 9.127-1.46-.882-1.856-2.257-2.1-3.182-1.814 2.28-8.262 10.698-8.675 13.266-4.968-4.387-17.693-15.073-19.35-20.744-1.465 3.22-3.584 4.305-7.773 6.657-1.656-8.99-7.847-19.09-4.535-26.796-2.346 1.39-4.278 2.782-6.623 4.494 2.222-13.017 13.552-28.282 29.848-35.842z" stroke="#000" fill="#3d5da7" stroke-width="1.265"/><g fill="#a70000"><path d="M505.878 299.164c2.3-4.598 4.418-6.056 5.905-9.016 2.626-5.203 3-9.344 5.288-8.737s2.285 2.737-.678 7.854-4.372 6.2-10.514 9.898zm15.56 10.95c-.295-3.5.72-4.962.534-7.217-.316-3.967-1.938-6.7.17-6.883s3.095 1.16 3.102 5.157-.612 5.047-3.807 8.943zm11.805 6.865c-.922-4.887-.232-7.054-.822-10.203-1.027-5.54-3.058-9.187-1.103-9.694s3.134 1.285 3.875 6.903.35 7.162-1.95 12.994zm12.272-34.246c-2.883-2.188-4.565-2.334-6.424-3.74-3.275-2.467-4.93-5.107-5.985-3.796s-.306 2.744 3.125 5.02 4.593 2.456 9.283 2.517zm-2.03 16.228c-1.52-3.155-3.118-3.955-4.1-5.985-1.738-3.567-1.74-6.654-3.624-5.863s-2.036 2.407-.02 5.86 3.07 4.078 7.746 5.988z"/></g><path d="M-24.6 260.888c-.31-2.794.288-3.128-1.43-5.236 2.502 1.047 2.597 3.83 5.64 1.854 1.118-.578 1.605-.597.247-3.7 3.173.147 13.563 3.7 15.227 3.793 4.37.2 12.344-4.6 17.88 1.3 5.313 5.37 3.54 10.945 3.54 18.383-2.135-1.023-1.106-1.527-3.372-4.187 1.7 6.502-.09 18.223-.09 25.12-.872-1.663-.744-.94-1.597-2.663-2.265 6.294-4.98 7.59-4.98 15.027-.818-2.917-.028-2.3-.938-3.834-2.202 4.778-16.973 8.862-11.28 13.678-5.138-3.012-7.39-2.696-9.72-5.405-1.003.648-1.8 1.874-2.734 3.554-9.033-4.156-5.803-13.12-12.88-19.107-1.225 2.51-.666 2.146-2 6.232-1.433-5.675-1.824-9.282-3.435-13.453-1.39 2.313-1.266 1.426-3.8 4.92-1.044-6.913-2.744-8.545-2.072-13.12-2.683 1.893-.927 1.126-3.608 3.457 2.54-17.715 13.514-30.805 21.388-26.613z" stroke="#000" fill="#3d5da7" stroke-width="1.556"/><g fill="#a70000"><path d="M-35.707 289.802c2.327-5.704 4.425-7.495 5.93-11.167 2.655-6.454 3.088-11.613 5.32-10.826s2.195 3.444-.8 9.786-4.382 7.686-10.458 12.206zm8.814 14.27c.933-5.114 2.405-6.976 3-10.27 1.075-5.8.476-10.103 2.55-9.876s2.543 2.412 1.163 8.173-2.332 7.125-6.722 11.972zm10.54 9.92c.263-4.958 1.424-6.893 1.598-10.086.315-5.616-.767-9.637 1.2-9.66s2.682 1.997 2.076 7.62-1.338 7.026-4.885 12.127zm22.634-32.42c-4.328-4.3-6.945-5.116-9.736-7.9-4.918-4.87-7.294-9.44-9.045-7.82s-.698 4.05 4.48 8.684 6.978 5.3 14.3 7.026zM3.647 298.24c-2.82-4.33-4.888-5.45-6.707-8.236-3.2-4.895-4.312-9.1-6.132-8.06s-1.413 3.24 2.065 7.985 4.878 5.616 10.774 8.3z"/></g><g transform="matrix(1.0321 0 0 1.0321 -128 .000123)"><path d="M549.222 248.032c-35.434 35.43-82.68 106.296-177.168 106.296-82.68 0-141.734-70.866-177.168-106.296 35.434-35.436 94.487-106.302 177.168-106.302 94.487 0 141.734 70.866 177.168 106.302z" stroke="#000" fill="#fff" stroke-width="1.337"/><path d="M359.688 178.708c9.427 10.603 1.555 14.877 11.533 15.573 10.523.773 4.558 11.203 13.41 11.566 6.188.27-.618 24.99 5.34 33.148 6.068 8.504 11.15 2.492 11.257 8.636.105 6.354-16.515 5.713-16.807 25.288-.487 11.28-14.026 12.002-14.672 19.26-.803 6.827 26.672 10.66 26.306 16.77-.377 6.093-29.667 5.14-30.943 12.088-.654 6.24 40.24 11.357 43.528 29.408-6.102 1.996-23.463 3.874-36.585 3.884-82.674.066-141.734-70.866-177.168-106.296 35.434-35.436 94.487-106.302 177.168-106.302 0 0-24.542 22.424-12.366 36.976z"/><g fill="#fff"><use xlink:href="#C"/><path d="M261.03 257.484h8.6v28.346h-8.6zm17.178-47.244h8.6v28.346h-8.6zm0 47.244h8.6v28.346h-8.6zm17.178-47.244h8.6v28.346h-8.6zm0 47.244h8.6v28.346h-8.6zm17.184-47.244h8.6v28.346h-8.6zm0 47.244h8.6v28.346h-8.6zm17.177-47.244h8.6v28.346h-8.6zm0 47.244h8.6v28.346h-8.6zm17.178-47.244h8.6v28.346h-8.6zm0 47.244h8.6v28.346h-8.6z"/></g><path d="M390.95 210.24h8.6v28.346h-8.6zm0 47.244h8.6v28.346h-8.6zm17.178-47.244h8.6v28.346h-8.6zm0 47.244h8.6v28.346h-8.6zm17.178-47.244h8.6v28.346h-8.6zm0 47.244h8.6v28.346h-8.6zM442.5 210.24h8.6v28.346h-8.6zm0 47.244h8.6v28.346h-8.6zm17.177-47.244h8.6v28.346h-8.6zm0 47.244h8.6v28.346h-8.6zm17.178-47.244h8.6v28.346h-8.6zm0 47.244h8.6v28.346h-8.6z"/></g><path d="M196.86 165.768c-5.066 9.798 8.87-3.258 30.717 13.144 4.05 3.047 9.85 15.088 9.85 20.668-4.652-.99-12.89-5.58-12.89-5.58s9.667 9.682 9.667 20.843c-3.416-2.135-5.124-1.815-6.26-4.437 0 3.614 3.037 5.916 3.037 11.497a45.21 45.21 0 0 0-6.639-4.429c3.222 5.58-5.872 16.407-1.32 20.02-7.96-1.15-16.103-6.236-19.325-11.817-1.708 1.15-1.893 2.958-1.96 4.885.25.208-12.115-9.18-10.98-12.785-1.66 2.327-1.892 3.606-2.27 6.23-4.543-4.48-8.707-8.96-10.222-14.752-2.02 2.623-2.145 2.623-4.164 5.245-1.514-9.18-1.514-8.85 1.514-16.718-2.145 1.42-3.912 2.84-6.057 4.59 2.032-13.293 12.393-28.88 27.296-36.6z" stroke="#000" fill="#3d5da7" stroke-width="1.21"/><g fill="#a70000"><path d="M184.375 213.644c.8-6.752 2.575-9.296 3.103-13.644.94-7.647-.175-13.236 2.535-13.095s3.5 2.962 2.15 10.593-2.47 9.484-7.788 16.146zm14.145 12.363c-.55-5.697.503-8.122.154-11.8-.602-6.456-2.596-10.83-.234-11.232s3.556 1.764 3.8 8.283-.376 8.256-3.73 14.74zm22.082 10.085c-2.4-4.93-4.464-6.4-6.015-9.572-2.738-5.576-3.3-10.13-5.422-9.304s-1.996 3.18 1.054 8.64 4.43 6.57 10.383 10.237zm7.633-44.146c-6.116-3.22-9.257-3.26-13.2-5.328-6.94-3.627-10.98-7.725-12.414-5.47s.48 4.498 7.635 7.796 9.354 3.454 17.978 3.002zm2.245 18.436c-4.454-3.705-7.087-4.25-9.96-6.633-5.06-4.182-7.578-8.3-9.268-6.624s-.56 3.864 4.75 7.804 7.127 4.43 14.477 5.453z"/></g></g></g></svg>