<svg xmlns="http://www.w3.org/2000/svg" xmlns:xlink="http://www.w3.org/1999/xlink" height="480" width="640" xmlns:v="https://vecta.io/nano"><style><![CDATA[.B{stroke-width:.485}.C{stroke-width:.091}.D{stroke:#000}.E{stroke-width:.488}.F{fill-opacity:.996}.G{stroke-width:6.377}.H{fill-rule:evenodd}.I{stroke-width:.518}.J{stroke-width:1.222}]]></style><path d="M640 480V0H0v480h640z" fill="#006"/><g transform="matrix(.74736 0 0 .92867 0 .00021)"><path fill="#006" d="M0 0h500v250H0z" class="H"/><g fill="#fff"><path d="M0 0v27.95L444.098 250h55.9v-27.95L55.9.001H0zm499.998 0v27.95L55.9 250H0v-27.95L444.098 0h55.9z"/><path d="M208.332 0v250h83.333V0h-83.333zM0 83.333v83.333h499.998V83.333H0z"/></g><path d="M0 100v50h499.998v-50H0zM225 0v250h50V0h-50zM0 250l166.666-83.333h37.267L37.267 250H0zM0 0l166.666 83.333H129.4L0 18.634V0zm296.065 83.333L462.73 0h37.267L333.332 83.333h-37.267zM499.998 250l-166.666-83.333H370.6l129.4 64.7V250z" fill="#c00"/></g><g transform="matrix(.9382 0 0 .9382 -334.01 51.775)"><path d="M1008.9 171.25v85.175c0 69.928-27.467 133.94-108.95 172.85-81.45-38.9-108.92-102.92-108.92-172.85V171.25h217.9z" fill="#fff" class="F"/><path d="M1001.6 179.93v79.444c0 65.223-25.62 124.93-101.62 161.22-76.004-36.29-101.62-95.996-101.62-161.22V179.93h203.25z" fill="#fdc300" class="F"/><g class="D"><g stroke-width=".379"><path d="M852.653 214.748c-1.47-1.103-3.066-1.778-5.27-1.84.487-5.394-3.433-7.724-6.254-8.705s-3.8-2.084-4.287-4.29-1.962-3.555-4.537-4.29-4.783-3.3-5.762-4.537-1.35-.98-2.083 1.103-3.68 6.007-.983 6.13c-1.958 1.593-3.062 3.433-1.837 5.884-1.35 1.103-2.33 2.697-.492 3.3s2.33 1.103 2.454 1.594c-1.654 0-2.083 3.3 1.837 4.046-.858.123-1.225 2.82.37 2.82-2.208 0-4.05 3.31-6.866 3.31s-4.29.613-4.412 1.84-1.596 2.697-2.33 3.3c2.083.245 3.43 0 4.533-.858s2.94-1.103 4.17-.123 3.8 1.47 5.025 1.226c-2.696 1.84-4.658 4.29-4.904 6.62s-1.837 5.027-3.68 5.762-4.287 2.697-5.146 5.027c2.33 5.762 5.633 7.185 8.945 8.704 5.887 2.698 9.562 4.66 12.016 7.356s3.433.735 7.108 5.394 7.112 13.486 10.787 14.958 8.337.5 11.033-4.17 4.416-51.736-9.437-59.583z" fill="#ff9e3d"/><path d="M858.902 195.13c-3.433 3.678-7.85 7.356-7.112 13.977s1.47 17.41-4.658 21.087-9.07 12.996-1.717 18.4 7.6 12.015 8.824 18.145 4.416 11.034 9.32 6.865c4.9.735 7.6-1.226 7.6-5.15s.246-6.13 3.92-7.356 4.658-2.452 6.375-5.762 2.696-4.782 1.717-6.743-1.35-6.007-.612-8.95-.98-4.536-1.962-6.375-1.346-3.433-.858-5.885-.733-4.046-2.45-5.272-2.454-2.452-2.083-4.414-1.23-3.187-3.066-4.66-3.187-3.433-3.187-6.375-5.637-9.808-10.05-11.525z" fill="#ff927f"/><path d="M860.277 275.19c8.212-2.084 7.48-15.57 6.254-21.2s-4.38-13.717-1.962-20.107c3.433-9.072-4.17-17.654-2.208-21.087s1.717-5.272 1.47-6.375-2.083-1.96-2.204.368-.737 3.187-2.208 4.66-1.104 4.66 0 8.214 3.433 8.95-.246 16.06-2.162 10.28-.733 13.61c2.204 5.15 7.48 23.05 1.837 25.87z" fill="#ff9ee1"/><path d="M823.488 198.318c.92 0 2.7-.368 2.7.858m-4.533 5.026c1.104-.797 3.066.123 5.025-1.042m-3.067 5.946c1.47 0 3.433-.06 5.27-1.533m-3.437 5.58c1.35 0 3.862-.858 4.475-2.636m-4.1 5.457c2.633-.123 6.13.858 6.616-.06m-6.5 8.764c1.837-1.716 6.2-2.88 7.17-4.66m-2.503-22.678c3.062.98 1.796 2.876 3.308 4.046 2.7 2.084.246 4.414 2.454 5.027s2.167.985 1.592 3.433c-.675 2.88 2.083 3.004 1.104 4.904m8.332-1.84c-1.225 0-4.84.123-6.375 3.37m-19.8 32c1.412.245 2.117-.558 2.512-1.348.43-.858.612-1.47 1.9-1.533s3.25-.43 3.68-1.4 1.962-.06 3.25-2.636 2.146-5.64 5.575-6.743" fill="none"/></g><g transform="matrix(4.1664 0 0 4.1669 -5.4589 -5.4597)" class="C"><path d="M221.76 73.75c.333.484-.012 1.007.553 1.216.662.245.084 1.116.865 1.422.692.272.005 1.105.753 1.478.67.335-.112 1.116.78 1.562s-.168 1.45.502 1.84-.223 1.395.558 1.785-.335 1.17.4 1.73-.167 1.394.558 1.897-.445 1.172.28 1.897c.558.558-.2 1.104.223 1.952.28.558-.28 2.79-1.84 2.566-.558.948-2.733 1.785-3.514 1.506-.78.558-3.29 1.34-4.575.112-1.282 1.227-3.793.446-4.574-.112-.78.28-2.956-.558-3.514-1.506-1.562.223-2.12-2.008-1.84-2.566.424-.848-.335-1.395.223-1.952.724-.724-.446-1.395.28-1.897s-.167-1.34.558-1.897-.39-1.34.4-1.73-.11-1.395.558-1.785-.4-1.395.502-1.84.112-1.227.78-1.562c.748-.374.06-1.206.753-1.478.78-.307.203-1.177.865-1.422.574-.213.208-.75.57-1.24 1.66.653 6.803 1.122 8.918.023z" fill="#00a728"/><path d="M213.5 76.668c.001.25-.005.5-.237.8-.502.67.223 1.004-.335 1.73s.112 1.17-.502 1.785.112 1.17-.502 1.84.112 1.116-.502 1.73.112 1.283-.502 1.897.112 1.395-.558 2.12.112 1.283-.446 1.84-.056 1.116-.446 1.506c.67-.502.67-1.283 1.17-1.673s-.167-.948.112-1.227.056-1.45.558-2.008.056-1.674.502-2.064.1-1.562.67-1.952 0-1.34.446-1.84 0-1.283.447-1.897.02-1.17.334-1.674c.14-.223.14-1.84-.2-.92zm1.62.697c-.4.725.28.892-.223 1.618s.28 1.283-.28 2.008.28 1.116-.223 1.84.223 1.116-.223 1.674.334 1.116-.223 1.785.223 1.17-.224 1.785.168 1.283-.223 1.785.28 1.227-.28 1.897.112 1.116-.223 1.562c.67-.223.42-1.144.67-1.34s-.084-1.478.306-1.813-.25-1.367.112-1.813c.614-.753.084-1.255.446-1.84s-.138-1.338.14-1.73c.474-.67-.2-1.273.14-1.757.502-.697-.097-1.272.25-1.73.53-.697-.056-1.395.168-1.757s.585-1.924-.112-2.175zm2.18.61c-.4.972.28 1.36.056 2.138s.28 1.36-.056 2.203.447 1.5 0 2.592.288 1.376 0 2.462c-.334 1.264.558 1.933 0 2.826s.64 1.188.056 2.12c-.28.446.028 1.6.474.223s-.334-1.534.056-2.092-.14-2.036.028-2.817-.4-1.84-.028-2.678-.558-1.73-.195-2.454-.167-1.618.167-2.203-.25-1.367-.1-1.7-.14-1.57-.447-.618z" fill="#fdc300" class="F"/><path d="M221.47 74.408c0-6.303-.892-8.48-4.184-8.48s-4.183 2.175-4.183 8.48h8.367z" fill="#ef072d"/><path d="M214.33 73.906c-.614.614.112 1.06-.502 1.785s-.056 1.116-.558 1.785.223 1.004-.335 1.73.112 1.17-.502 1.785.112 1.17-.502 1.84.112 1.116-.502 1.73.112 1.283-.502 1.897.112 1.395-.558 2.12.112 1.283-.446 1.84-.056 1.116-.446 1.506-.446.934-.28 1.17M215.5 74.13c-.557.725.28 1.06-.223 1.674s.223.837-.167 1.562.28.892-.223 1.618.28 1.283-.28 2.008.28 1.116-.223 1.84.223 1.116-.223 1.674.334 1.116-.223 1.785.223 1.17-.224 1.785.168 1.283-.223 1.785.28 1.227-.28 1.897.112 1.116-.223 1.562-.6 1.102-.28 1.283M217.3 74.8c-.278 1.166.4 2.203 0 3.175s.28 1.36.056 2.138.28 1.36-.056 2.203.447 1.5 0 2.592.288 1.376 0 2.462c-.334 1.264.558 1.933 0 2.826s.503 1.116.056 2.12.28 1.395-.056 2.4m2.95-20.8c.614.614-.112 1.06.502 1.785s.056 1.116.558 1.785-.223 1.004.335 1.73-.112 1.17.502 1.785-.112 1.17.502 1.84-.112 1.116.502 1.73-.112 1.283.502 1.897-.112 1.395.558 2.12-.112 1.283.446 1.84.056 1.116.446 1.506.447.934.28 1.17M219.08 74.13c.557.725-.28 1.06.223 1.674s-.223.837.167 1.562-.28.892.223 1.618-.28 1.283.28 2.008-.28 1.116.223 1.84-.223 1.116.223 1.674-.334 1.116.224 1.785-.224 1.17.223 1.785-.168 1.283.223 1.785-.28 1.227.28 1.897-.112 1.116.223 1.562.6 1.102.28 1.283" fill="none"/><path d="M213.1 74.408c0-6.303.892-8.48 4.183-8.48-1.506 0-2.426 1.17-2.677 1.952s-.112.725.223.418.167.363-.1.725-.558 1.395-.168 1.06.697.056.28.64-.78 1.952-.363 1.478.502.307.252.697-.224.725 0 .558.195.64-.028.948h-1.6zm7.73-.362c0-4.937-.613-6.415-1.84-6.917-.695-.285-.715-.223-.383.223s.28 1.088-.026.64-.408-.53-.536-.335.357 1.116.715 1.952c.288.673.102 1.004-.332.335s-.434-.063-.053.502c.5.725.474 2.93.474 3.85l1.98-.25z"/><path d="M217.3 75.33c1.31 0 2.746-.234 3.7-.608 1.144-.444 1.205-.834.81-1.332-.28-.35-.893-.14-1.478.117s-2.204.42-3.04.42-2.454-.164-3.04-.42-1.2-.468-1.478-.117c-.396.498-.335.888.81 1.332.963.374 2.4.608 3.71.608z" fill="#ef072d"/></g></g><g fill="#b95a1e" transform="matrix(.8956 0 0 .8957 239.49 59.739)" class="H"><g class="D"><g class="G"><use xlink:href="#B" transform="matrix(.063084 -.040736 .038634 .066517 712.1 209.87)"/><use xlink:href="#B" transform="matrix(.072361 -.016199 .015363 .076299 725.15 182.35)"/></g><path d="M793.886 239.602v13.98c.01 5.9 1.466 8.183 4.014 8.08s3.04-4.59 2.554-7.182-3.938-15.52-3.938-15.52l-2.63.64z" class="B"/><path d="M793.895 239.45c7.325-.11 8.133-2.764 8.133-2.764s1.626-5.527.813-6.91-8.946-1.382-8.946-1.382v11.055z" class="I"/><g class="B"><path d="M793.895 233.92c7.863 0 9.174-2.764 9.174-2.764s2.62-5.527 1.31-6.91-10.484-1.382-10.484-1.382v11.055z"/><path d="M793.895 228.39c6.553 0 10.484-2.764 10.484-2.764s2.62-5.527 1.31-6.91-11.795-1.38-11.795-1.38v11.055z"/></g><path d="M798.313 177.424s6.506-6.9 17.9-13.82 19.62-12.224 21.143-11.055c0 1.382-9.76 8.3-17.9 13.82s-17.892 13.818-17.892 13.818l-3.253-2.764zm.76 5.53s6.43-4.058 18.763-9.673c12.14-4.986 29.275-4.146 29.275-2.764-1.626 1.382-16.264 1.382-26.023 5.527-9.316 3.957-18.764 9.673-18.764 9.673l-3.253-2.764zm.07 9.52s5.662-2.735 18.763-6.9c13-4.146 30.283-1.382 30.283 0-1.625 1.382-15.643.542-25.402 2.763-10.098 2.165-20.4 6.9-20.4 6.9l-3.253-2.764zm.62 9.66s6.525-5.536 20.424-6.9c13.982-1.382 25.365 6.9 25.365 8.3-1.625 1.382-14.643-6.082-24.392-5.014-10.344 1.065-18.15 6.396-18.15 6.396l-3.253-2.764z" class="E"/><g class="B"><path d="M793.895 221.49c11.804-.11 11.795-3.55 11.795-3.55s2.62-5.527 1.31-6.91-13.105-.596-13.105-.596v11.055z"/><path d="M793.895 215.96c11.804-.11 13.105-2.764 13.105-2.764s2.62-5.527 1.31-6.91-14.416-1.382-14.416-1.382v11.055z"/><path d="M793.895 209.05c11.804-.11 14.416-2.764 14.416-2.764s2.62-5.527 1.31-6.91-15.727-1.382-15.727-1.382v11.055z"/><path d="M793.895 202.14c11.804-.11 15.727-2.764 15.727-2.764s1.3-5.527 0-6.91-15.727-1.382-15.727-1.382v11.055z"/></g><g class="E"><path d="M796.523 171.734s10.485-6.91 10.485-12.437-4.622-11.055-5.933-13.82c2.62 0 8.554 8.29 8.554 13.82 0 6.04-9.852 15.2-9.852 15.2l-3.253-2.764z"/><path d="M796.523 171.734s-1.31-4.146-1.31-12.437c0-9.673 5.784-15.825 7.863-17.965.54 2.14-5.242 9.673-5.242 17.965 0 6.04 1.942 15.2 1.942 15.2l-3.253-2.764z"/></g><g class="B"><path d="M793.895 195.23c11.804-.11 15.727-2.764 15.727-2.764s0-5.527-1.31-6.91-14.416-1.382-14.416-1.382v11.055z"/><path d="M793.895 188.32c11.804-.11 14.416-2.764 14.416-2.764s0-5.527-1.31-6.91-13.105-1.382-13.105-1.382v11.055z"/></g></g><path d="M827.97 271.23c-4.073-9.54-5.242-26.255-5.242-29.02 0-7.783 2.437-45.638 2.62-60.803s-9.174-23.492-18.348-23.492c-7.863 0-13.106 5.527-13.106 13.82h3.932c0-5.527 3.932-9.673 9.174-9.673 7.863 0 13.906 6.532 14.416 19.346.563 14.81-1.577 53.27-1.31 63.566s3.8 19.478 7.863 26.255z" stroke="#fdc301" class="J"/><g class="D"><use xlink:href="#B" transform="matrix(-.063084 -.040736 -.038634 .066517 875.69 209.87)" class="G"/><path d="M793.895 170.985c9.182.01 13.15 7.986 13.127 7.824l-2.643 2.6c-1.404 1.382-10.484 1.382-10.372 1.375l-.112-11.8z" class="B"/><use xlink:href="#B" transform="matrix(-.072361 -.016199 -.015363 .076299 862.63 182.35)" class="G"/><path d="M793.894 239.602v13.98c-.01 5.9-1.466 8.183-4.014 8.08s-3.04-4.59-2.554-7.182 3.938-15.52 3.938-15.52l2.63.64z" class="B"/><path d="M793.885 239.45c-7.325-.11-8.133-2.764-8.133-2.764s-1.626-5.527-.813-6.91 8.946-1.382 8.946-1.382v11.055z" class="I"/><g class="B"><path d="M793.885 233.92c-7.863 0-9.174-2.764-9.174-2.764s-2.62-5.527-1.31-6.91 10.484-1.382 10.484-1.382v11.055z"/><path d="M793.885 228.39c-6.553 0-10.484-2.764-10.484-2.764s-2.62-5.527-1.31-6.91 11.795-1.38 11.795-1.38v11.055z"/></g><path d="M789.467 177.424s-6.506-6.9-17.9-13.82-19.62-12.224-21.143-11.055c0 1.382 9.76 8.3 17.9 13.82s17.892 13.818 17.892 13.818l3.253-2.764zm-.75 5.53s-6.43-4.058-18.763-9.673c-12.14-4.986-29.275-4.146-29.275-2.764 1.626 1.382 16.264 1.382 26.023 5.527 9.316 3.957 18.764 9.673 18.764 9.673l3.253-2.764zm-.07 9.52s-5.662-2.735-18.763-6.9c-13-4.146-30.283-1.382-30.283 0 1.625 1.382 15.643.542 25.402 2.763 10.098 2.165 20.4 6.9 20.4 6.9l3.253-2.764zm-.62 9.66s-6.525-5.536-20.424-6.9c-13.982-1.382-25.365 6.9-25.365 8.3 1.625 1.382 14.643-6.082 24.392-5.014 10.344 1.065 18.15 6.396 18.15 6.396l3.253-2.764z" class="E"/><g class="B"><path d="M793.885 221.49c-11.804-.11-11.795-3.55-11.795-3.55s-2.62-5.527-1.31-6.91 13.105-.596 13.105-.596v11.055z"/><path d="M793.885 215.96c-11.804-.11-13.105-2.764-13.105-2.764s-2.62-5.527-1.31-6.91 14.416-1.382 14.416-1.382v11.055z"/><path d="M793.885 209.05c-11.804-.11-14.416-2.764-14.416-2.764s-2.62-5.527-1.31-6.91 15.727-1.382 15.727-1.382v11.055z"/><path d="M793.885 202.14c-11.804-.11-15.727-2.764-15.727-2.764s-1.3-5.527 0-6.91 15.727-1.382 15.727-1.382v11.055z"/></g><g class="E"><path d="M791.267 171.734s-10.485-6.91-10.485-12.437 4.622-11.055 5.933-13.82c-2.62 0-8.554 8.29-8.554 13.82 0 6.04 9.852 15.2 9.852 15.2l3.253-2.764z"/><path d="M791.267 171.734s1.31-4.146 1.31-12.437c0-9.673-5.784-15.825-7.863-17.965-.54 2.14 5.242 9.673 5.242 17.965 0 6.04-1.942 15.2-1.942 15.2l3.253-2.764z"/></g><g class="B"><path d="M793.885 195.23c-11.804-.11-15.727-2.764-15.727-2.764s0-5.527 1.31-6.91 14.416-1.382 14.416-1.382v11.055z"/><path d="M793.885 188.32c-11.804-.11-14.416-2.764-14.416-2.764s0-5.527 1.31-6.91 13.105-1.382 13.105-1.382v11.055z"/></g></g><path d="M759.8 271.23c4.073-9.54 5.242-26.255 5.242-29.02 0-7.783-2.437-45.638-2.62-60.803s9.174-23.492 18.348-23.492c7.863 0 13.106 5.527 13.106 13.82h-3.932c0-5.527-3.932-9.673-9.174-9.673-7.863 0-13.906 6.532-14.416 19.346-.563 14.81 1.577 53.27 1.31 63.566s-3.8 19.478-7.863 26.255z" stroke="#fdc301" class="J"/><path d="M793.885 170.985c-9.182.01-13.15 7.986-13.127 7.824l2.643 2.6c1.404 1.382 10.484 1.382 10.372 1.375l.112-11.8z" class="B D"/></g></g><defs ><path id="B" d="M779.4 912.6v179.24c.12 75.63 19.822 104.9 54.262 103.6 34.44-1.33 41.108-58.83 34.53-92.08-6.577-33.26-53.24-198.97-53.24-198.97l-35.553 8.222z"/></defs></svg>