<svg xmlns="http://www.w3.org/2000/svg" xmlns:xlink="http://www.w3.org/1999/xlink" height="480" width="640" xmlns:v="https://vecta.io/nano"><style><![CDATA[.B{stroke:#000}.C{fill:#980000}.D{fill:#e69900}.E{fill:#fff}.F{fill:#004e00}.G{stroke-width:.091}.H{stroke-width:.238}.I{stroke-width:.481}.J{stroke-width:.321}.K{stroke-width:.513}.L{stroke-width:.306}.M{stroke-width:.126}]]></style><defs><clipPath id="A"><path fill-opacity=".67" d="M42.666 0h682.67v512H42.666z"/></clipPath><path id="B" d="M312.835 69.43l5.614.07-4.443 3.53 1.666 5.52-4.633-3.262-4.587 3.338 1.583-5.543-4.5-3.452 5.6-.167 1.8-5.474z"/><path id="C" d="M46.063 170.08l1.33 3.543v5.315h3.986l2.657 1.772-2.657 1.772h-3.986v5.315l-1.33 3.543v-21.26z"/><path id="D" d="M267.522 550.98v-7.086l17.577-17.717-3.544-3.543 10.63-10.63-3.543-3.543-7.087 7.086-3.543-3.543 24.803-24.803 3.543 3.543-3.543 3.544 7.304 7.16 17.5-17.79-17.793-17.24-7 6.6 3.543 3.543-3.543 3.543-24.803-24.803 3.543-3.543 7.087 7.087 3.543-3.544-10.63-10.63 3.544-3.543-17.577-17.716v-7.087l24.663 24.803-3.543 3.543 10.63 10.63-7.087 7.087 7.087 7.086 10.63-10.63 24.943 25.225-24.943 24.38-10.63-10.63-7.087 7.087 7.087 7.086-10.63 10.63 3.543 3.543-24.663 24.803z"/><path id="E" d="M267.52 462.4l3.544 7.086v10.63h10.63l7.086 3.544-7.086 3.543h-10.63v10.63l-3.544 7.087V462.4z"/><path id="F" d="M115.242 249.865l3.515 4.118 3.515-4.118h-7.03z"/><path id="G" d="M115.242 198.386l3.515-4.118 3.515 4.118h-7.03z"/><path id="H" d="M158.74 222.264h8.787l2.197 1.854-2.197 1.853h-8.787v-3.706z"/><path id="I" d="M92.834 222.265h-8.787l-2.197 1.854 2.197 1.853h8.787v-3.706z"/><path id="J" d="M144.328 35.747l8.024-5.092h4.793l-1.598-1.697 3.195-3.395-1.597-1.697-4.793 1.697-1.598-1.697-.738 4.535-8.848 5.368 3.16 1.977z"/><path id="K" d="M144.328 63.46l8.024 5.092h4.793l-1.598 1.697 3.195 3.395-1.597 1.697-4.793-1.697-1.598 1.697-.738-4.535-8.848-5.368 3.16-1.977z"/><path id="L" d="M84.458 383.946h2.214v-4.06h4.43v4.06h2.214v-9.474h-2.214v4.06h-4.43v-4.06h-2.214v9.474z"/><path id="M" d="M104.528 415.536h2.214V410.8h4.43v4.738h2.214v-11.054h-2.214v4.738h-4.43v-4.738h-2.214v11.054z"/><path id="N" d="M-33.205 130.58v-14.918l-1.715 1.865-1.714-1.865-1.715 1.865-1.715-1.865-1.714 1.865-1.715-1.865-1.714 1.865-1.715-1.865v14.918h13.716z"/><path id="O" d="M-33.205 138v14.918l-1.715-1.865-1.714 1.865-1.715-1.865-1.715 1.865-1.714-1.865-1.715 1.865-1.714-1.865-1.715 1.865V138h13.716z"/><path id="P" d="M-91.36 155.978s-1.43 1.474-1.43 2.21c-.028.687 1.524 2.227 2.143 2.21.81.016 2.143-1.474 2.143-2.21s-1.43-2.21-1.43-2.21v-2.947s3.103 5.068 3.103 2.857c0-1.586-3.103-4.33-3.103-4.33h-1.43s-3.103 3.214-3.103 4.33c0 2.21 3.103-2.857 3.103-2.857v2.947z"/><path id="Q" d="M-91.72 112.76s-1.43-1.474-1.43-2.21c-.028-.687 1.524-2.227 2.143-2.21.81-.016 2.143 1.474 2.143 2.21s-1.43 2.21-1.43 2.21v2.947s3.103-5.068 3.103-2.857c0 1.586-3.103 4.33-3.103 4.33h-1.43s-3.103-3.214-3.103-4.33c0-2.21 3.103 2.857 3.103 2.857v-2.947z"/><path id="R" d="M-106.273 145.593s-1.9 1.383-1.9 2.074c-.038.645 2.026 2.09 2.85 2.074 1.076.015 2.85-1.383 2.85-2.074s-1.9-2.074-1.9-2.074v-2.765s3.364 4.524 3.364 2.45c0-1.34-3.364-3.833-3.364-3.833h-1.9s-3.883 3.12-3.364 3.832c0 2.074 3.364-2.45 3.364-2.45v2.765z"/><path id="S" d="M-106.673 124.47s-1.9-1.383-1.9-2.074c-.038-.645 2.026-2.09 2.85-2.074 1.076-.015 2.85 1.383 2.85 2.074s-1.9 2.074-1.9 2.074v2.765s3.364-4.524 3.364-2.45c0 1.34-3.364 3.833-3.364 3.833h-1.9s-3.883-3.12-3.364-3.832c0-2.074 3.364 2.45 3.364 2.45v-2.765z"/><path id="T" d="M-120.285 145.363c-.615-1.277-.453-1.86-.453-2.598-.03-.687 1.716-2.025 2.335-2.01.81-.016 2.143 1.474 2.143 2.21s.034 1.373-.298 2.643l-.893-2.154c-1.084 3.056-1.143 3.127-1.787-.074l-1.048 1.98z"/><path id="U" d="M-120.225 123.93c-.615 1.277-.453 1.86-.453 2.598-.03.687 1.716 2.025 2.335 2.01.81.016 2.143-1.474 2.143-2.21s.034-1.373-.298-2.643l-.893 2.154c-1.084-3.056-1.143-3.127-1.787.074l-1.048-1.98z"/></defs><g fill-rule="evenodd" clip-path="url(#A)" transform="matrix(.9375 0 0 .9375 -40 .000005)"><path d="M0 0h768v512H0z" class="F"/><path d="M260.573 171.885h14.12" fill="#ffef00"/><path d="M263.306 137.494c27.9 13.453 61.12-.064 73.14-18.636 12.323-17.332 13.836-46.437-7.468-73.14 33.07 27.425 40.38 58.513 23.927 84.113-21.945 29.254-70.628 28.407-89.598 7.664z" class="E"/><g fill="#feffff"><use xlink:href="#B"/><path d="M285.123 104.173l5.614.07-4.443 3.53 1.666 5.52-4.633-3.262-4.587 3.338 1.583-5.543-4.5-3.452 5.6-.167 1.8-5.474zm1.827-27.42l5.614.07-4.443 3.53 1.666 5.52-4.633-3.262-4.587 3.338 1.583-5.543-4.5-3.452 5.6-.167 1.8-5.474zm0-27.436l5.614.07-4.443 3.53 1.666 5.52-4.633-3.262-4.587 3.338 1.583-5.543-4.5-3.452 5.6-.167 1.8-5.474zm-30.798 34.75l5.614.07-4.443 3.53 1.666 5.52-4.633-3.262-4.587 3.338 1.583-5.543-4.5-3.452 5.6-.167 1.8-5.474z"/></g><g transform="matrix(1.0321 0 0 1.0321 0 .000002)"><path d="M46.063 0h159.45v496.06H46.063z" class="C"/><g class="D"><path d="M46.064 129.33v-3.543l6.6-8.858-1.33-1.772 3.986-5.315-1.33-1.772-2.658 3.543-1.33-1.772 9.3-12.4 1.33 1.772-1.33 1.772 2.74 3.58L68.6 95.67l-6.672-8.62-2.63 3.305 1.33 1.772-1.33 1.772-9.3-12.4 1.33-1.772 2.658 3.543 1.33-1.772-3.986-5.315 1.33-1.772-6.6-8.858V62l9.25 12.4L54 76.182l3.986 5.315-2.658 3.543 2.658 3.543 3.986-5.315L71.3 95.88l-9.354 12.2-3.986-5.315-2.658 3.543 2.658 3.543-3.986 5.315 1.33 1.772-9.25 12.4zm-.001-44.3l1.33 3.543v5.315h3.986l2.657 1.772-2.657 1.772h-3.986v5.315l-1.33 3.543V85.04zm.001 129.328v-3.543l6.6-8.858-1.33-1.772 3.986-5.315-1.33-1.772-2.658 3.543-1.33-1.772 9.3-12.4 1.33 1.772-1.33 1.772 2.74 3.58 6.562-8.894-6.672-8.62-2.63 3.305 1.33 1.772-1.33 1.772-9.3-12.4 1.33-1.772 2.658 3.543 1.33-1.772-3.986-5.315 1.33-1.772-6.6-8.858v-3.543l9.25 12.4-1.33 1.772 3.986 5.315-2.658 3.543 2.658 3.543 3.986-5.315L71.3 180.92l-9.354 12.2-3.986-5.315-2.658 3.543 2.658 3.543-3.986 5.315 1.33 1.772-9.25 12.4z"/><use xlink:href="#C"/><path d="M46.065 299.4v-3.543l6.6-8.858-1.33-1.772 3.986-5.315-1.33-1.772-2.658 3.543L50 279.92l9.3-12.4 1.33 1.772-1.33 1.772 2.74 3.58 6.562-8.894-6.672-8.62-2.63 3.305 1.33 1.772-1.33 1.772-9.3-12.4 1.33-1.772 2.658 3.543 1.33-1.772-3.986-5.315 1.33-1.772-6.6-8.858V232.1l9.25 12.4-1.33 1.772 3.986 5.315-2.658 3.543 2.658 3.543 3.986-5.315 9.354 12.613-9.354 12.2-3.986-5.315-2.658 3.543 2.658 3.543-3.986 5.315 1.33 1.772-9.25 12.4zm-.001-44.3l1.33 3.543v5.315h3.986l2.657 1.772-2.657 1.772h-3.986v5.315l-1.33 3.543v-21.26zm.001 124v-3.543l6.6-8.858-1.33-1.772 3.986-5.315-1.33-1.772-2.658 3.543-1.33-1.772 9.3-12.4 1.33 1.772-1.33 1.772 2.74 3.58 6.562-8.894-6.672-8.62-2.63 3.305 1.33 1.772-1.33 1.772-9.3-12.4 1.33-1.772 2.658 3.543 1.33-1.772-3.986-5.315 1.33-1.772-6.6-8.858v-3.543l9.25 12.4-1.33 1.772 3.986 5.315-2.658 3.543 2.658 3.543 3.986-5.315 9.354 12.613-9.354 12.2-3.986-5.315-2.658 3.543 2.658 3.543-3.986 5.315 1.33 1.772-9.25 12.4zm-.001-44.3l1.33 3.543v5.315h3.986l2.657 1.772-2.657 1.772h-3.986v5.315l-1.33 3.543v-21.26z"/><g transform="matrix(-.375 0 0 .5 305.83 -146.16)"><use xlink:href="#D"/><use xlink:href="#E"/></g><g transform="matrix(-.375 0 0 .5 306.27 -61.12)"><use xlink:href="#D"/><use xlink:href="#E"/></g><g transform="matrix(-.375 0 0 .5 305.83 23.919)"><use xlink:href="#D"/><use xlink:href="#E"/></g><g transform="matrix(-.375 0 0 .5 305.83 103.64)"><use xlink:href="#D"/><use xlink:href="#E"/></g><path d="M46.067 33.66v-3.543l6.6-8.858-1.33-1.772 3.986-5.315-1.33-1.772-2.658 3.543L50 14.172l9.3-12.4 1.33 1.772-1.33 1.772 2.74 3.58L68.602.002h2.7L61.96 12.4l-3.986-5.315-2.658 3.543 2.658 3.543-3.986 5.315 1.33 1.772-9.25 12.4zm0-33.66h7.972l-2.657 1.772h-3.986v5.315l-1.33 3.543V0z"/><g transform="matrix(-.75 0 0 1 205.51 .000221)"><path d="M.005 33.66v-3.543l8.8-8.858-1.772-1.772 5.315-5.315-1.772-1.772-3.543 3.543L5.25 14.17l12.4-12.4 1.772 1.772-1.772 1.772 3.652 3.58 8.75-8.894h3.613l-12.47 12.4-5.315-5.315-3.543 3.543 3.543 3.543-5.315 5.315 1.772 1.772L.005 33.66zM.005 0h10.63L7.092 1.772H1.777v5.315L.005 10.63V0z"/></g><path d="M112.5 488.996s5.72-10.044 20.136-13.087 16.933 6.696 25.17 6.696 21.28-6.696 21.28-6.696-13.043 12.783-23.11 12.48-13.5-6.696-23.797-5.782-19.68 6.696-19.68 6.39z"/><path d="M140.34 488.996s-5.72-10.044-20.136-13.087-16.933 6.696-25.17 6.696-21.28-6.696-21.28-6.696 13.043 12.783 23.1 12.48 13.5-6.696 23.797-5.782 19.68 6.696 19.68 6.4zM93.2 472.38c-1.27-2.657-4.442-14.252-2.75-15.7 2.54-.966 9.308 10.87 8.674 21.5-4.442 2.415-19.46-.966-19.25-4.107 1.058-4.348 9.52-2.9 13.327-1.7zm-9.076-10.133c-.83-2.95-2.14-15.167-.26-16.12 2.634-.246 7.424 13.198 5.158 23.423-4.72 1.14-18.893-6.302-18.2-9.317 1.708-3.963 9.763-.216 13.302 2.013zM76.75 450.9c-.562-3.06-.775-15.4 1.176-16.047 2.637.172 6.197 14.28 3.037 24.074-4.8.386-18.198-9.247-17.242-12.13 2.05-3.665 9.713 1.33 13.03 4.104zm-5.817-12.075c-.2-3.14 1.024-15.373 3.028-15.6 2.585.715 4.462 15.388.202 24.4-4.776-.6-16.903-12.896-15.623-15.548 2.45-3.197 9.44 3.322 12.394 6.747z"/><path d="M66.9 426.187c.14-3.145 2.67-15.017 4.678-14.87 2.48 1.203 2.76 16.083-2.43 24.197-4.66-1.517-15.34-16-13.787-18.378 2.77-2.695 8.986 5.095 11.54 9.05zm1.128-14.39c-.344 12.593-2.633 12.74-6.8 3.432-1.85-3.517-2.078-18.122-.4-18.666 2.4-.05 7.156 10.366 7.222 15.234z"/><g transform="matrix(-.75 0 0 1 206.07 1.3261)"><path d="M62.85 472.38c-1.693-2.657-5.923-14.252-3.667-15.7 3.385-.966 12.4 10.87 11.565 21.5-5.923 2.415-25.95-.966-25.667-4.107 1.4-4.348 12.693-2.9 17.77-1.7zm-12.102-10.134c-1.108-2.95-2.854-15.167-.347-16.12 3.5-.246 9.9 13.198 6.878 23.423-6.294 1.14-25.2-6.302-24.266-9.317 2.278-3.963 13.017-.216 17.736 2.013zM40.914 450.9c-.75-3.06-1.034-15.4 1.568-16.047 3.516.172 8.263 14.28 4.05 24.074-6.385.386-24.264-9.247-23-12.13 2.732-3.665 12.95 1.33 17.372 4.104zm-7.754-12.075c-.266-3.14 1.366-15.373 4.037-15.6 3.447.715 5.95 15.388.27 24.4-6.368-.6-22.538-12.896-20.83-15.548 3.267-3.197 12.588 3.322 16.525 6.747z"/><path d="M27.767 426.187c.187-3.145 3.56-15.017 6.237-14.87 3.308 1.203 3.678 16.083-3.24 24.197-6.214-1.517-20.452-16-18.382-18.378 3.692-2.695 11.98 5.095 15.385 9.05zm1.506-14.39c-.458 12.593-3.5 12.74-9.08 3.432-2.466-3.517-2.77-18.122-.548-18.666 3.2-.05 9.542 10.366 9.63 15.234z"/></g></g><g transform="matrix(.96875 0 0 1.2258 182.42 -74.639)"><path d="M-1.772 320.808h-7.91v4.393h-7.91v4.393h-31.643l-5.274 4.395 2.637 2.196h13.185l2.637-2.196h-13.185l2.637-2.197h18.46l-7.91 6.59h-18.46l-5.274-2.197-5.274 2.196-18.46.001-7.91-6.593 18.46.002 2.637 2.197-13.185-.002 2.637 2.2h13.185l2.637-2.196-5.274-4.395h-29.006V325.2h-7.91v-4.393h-7.91v-19.772h7.91v-4.393h7.91v-4.393h29.006l5.274-4.395-2.637-2.196H-80.88l-2.637 2.2 13.185-.002-2.637 2.197-18.46.002 7.91-6.593 18.46.001 5.274 2.196 5.274-2.197h18.46l7.91 6.59H-46.6l-2.637-2.197h13.185l-2.637-2.196h-13.185l-2.637 2.196 5.274 4.395h31.643v4.393h7.91v4.393h7.91v19.772z" stroke-width=".182" class="B C"/><path d="M-112.52 303.274v15.378h7.9v4.352h7.91v4.394h26.37l10.548 6.59 10.547-6.59h29.006v-4.352l7.91-.042V318.6h7.91v-15.378h-7.91v-4.393l-7.91.042v-4.436h-29.006l-10.547-6.59-10.548 6.59H-96.7v4.436h-7.91v4.393h-7.9z" stroke="#e69900" stroke-width=".974" class="F"/><g class="C"><path d="M-75.6 296.644l-15.82 10.984v-10.984h15.82zm31.63 0l15.82 10.985v-10.985h-15.82zm-31.63 28.564l-15.82-10.984v10.984h15.82zm31.635 0l15.82-10.985v10.985h-15.82zm5.275-21.975l-5.273 4.394h10.547l-5.274-4.394zm-42.187 0l-5.273 4.394h10.547l-5.274-4.394zm0 15.39l-5.273-4.394h10.547l-5.274 4.394zm42.2 0l-5.273-4.394h10.547l-5.274 4.394z"/></g><g class="D"><path d="M-59.787 329.602l-5.273-4.394h10.547l-5.274 4.394zm0-21.97l-5.273-4.394h10.547l-5.274 4.394zm0-15.382l-5.273 4.394h10.547l-5.274-4.394zm0 21.967l-5.273 4.394h10.547l-5.274-4.394z"/><g class="B G"><path d="M-43.957 307.627H-33.4v2.197h-10.547z"/></g></g><g fill="#c00" class="B G"><path d="M-83.5 309.828h5.274v2.197H-83.5zm42.187 0h5.274v2.197h-5.274z"/></g><g fill="#900" class="B G"><path d="M-65.055 296.647h10.547v2.197h-10.547zm0 4.39h10.547v2.197h-10.547z"/><path d="M-67.7 298.84h15.82v2.197H-67.7zm2.645 19.773h10.547v2.197h-10.547zm0 4.397h10.547v2.197h-10.547z"/><path d="M-67.7 320.808h15.82v2.197H-67.7z"/></g><g class="D B G"><path d="M-43.957 312.023H-33.4v2.197h-10.547zm-42.196-4.396h10.547v2.197h-10.547zm0 4.396h10.547v2.197h-10.547z"/><path d="M-88.787 309.828h5.274v2.197h-5.274zm10.545 0h5.274v2.197h-5.274zm31.642 0h5.274v2.197H-46.6zm10.553 0h5.274v2.197h-5.274z"/></g><g class="E"><circle transform="matrix(.74419 0 0 .62 -374.14 -38.912)" cx="413.68" cy="581.99" r=".886"/><circle transform="matrix(.74419 0 0 .62 -367.57 -38.912)" cx="413.68" cy="581.99" r=".886"/><circle transform="matrix(.74419 0 0 .62 -361 -38.958)" cx="413.68" cy="581.99" r=".886"/><circle transform="matrix(.74419 0 0 .62 -371.51 -41.102)" cx="413.68" cy="581.99" r=".886"/><circle transform="matrix(.74419 0 0 .62 -363.68 -41.148)" cx="413.68" cy="581.99" r=".886"/><circle transform="matrix(.74419 0 0 .62 -371.57 -36.768)" cx="413.68" cy="581.99" r=".886"/><circle transform="matrix(.74419 0 0 .62 -363.68 -36.677)" cx="413.68" cy="581.99" r=".886"/><circle transform="matrix(.74419 0 0 .62 -353.17 -49.999)" cx="413.68" cy="581.99" r=".886"/><circle transform="matrix(.74419 0 0 .62 -346.59 -49.999)" cx="413.68" cy="581.99" r=".886"/><circle transform="matrix(.74419 0 0 .62 -340.02 -50.045)" cx="413.68" cy="581.99" r=".886"/><circle transform="matrix(.74419 0 0 .62 -350.54 -52.189)" cx="413.68" cy="581.99" r=".886"/><circle transform="matrix(.74419 0 0 .62 -342.71 -52.235)" cx="413.68" cy="581.99" r=".886"/><circle transform="matrix(.74419 0 0 .62 -350.59 -47.855)" cx="413.68" cy="581.99" r=".886"/><circle transform="matrix(.74419 0 0 .62 -342.71 -47.764)" cx="413.68" cy="581.99" r=".886"/><circle transform="matrix(.74419 0 0 .62 -374.2 -60.904)" cx="413.68" cy="581.99" r=".886"/><circle transform="matrix(.74419 0 0 .62 -367.62 -60.904)" cx="413.68" cy="581.99" r=".886"/><circle transform="matrix(.74419 0 0 .62 -361.05 -60.949)" cx="413.68" cy="581.99" r=".886"/><circle transform="matrix(.74419 0 0 .62 -371.57 -63.094)" cx="413.68" cy="581.99" r=".886"/><circle transform="matrix(.74419 0 0 .62 -363.74 -63.139)" cx="413.68" cy="581.99" r=".886"/><circle transform="matrix(.74419 0 0 .62 -371.62 -58.759)" cx="413.68" cy="581.99" r=".886"/><circle transform="matrix(.74419 0 0 .62 -363.74 -58.668)" cx="413.68" cy="581.99" r=".886"/><circle transform="matrix(.74419 0 0 .62 -395.28 -49.817)" cx="413.68" cy="581.99" r=".886"/><circle transform="matrix(.74419 0 0 .62 -388.71 -49.817)" cx="413.68" cy="581.99" r=".886"/><circle transform="matrix(.74419 0 0 .62 -382.14 -49.862)" cx="413.68" cy="581.99" r=".886"/><circle transform="matrix(.74419 0 0 .62 -392.65 -52.007)" cx="413.68" cy="581.99" r=".886"/><circle transform="matrix(.74419 0 0 .62 -384.82 -52.052)" cx="413.68" cy="581.99" r=".886"/><circle transform="matrix(.74419 0 0 .62 -392.71 -47.672)" cx="413.68" cy="581.99" r=".886"/><circle transform="matrix(.74419 0 0 .62 -384.82 -47.581)" cx="413.68" cy="581.99" r=".886"/></g></g><g class="E"><path d="M134.575 247.8l4.394-2.06 4.394 2.06h-8.787zm-13.18 0l4.394-2.06 4.394 2.06h-8.787zm-13.18 0l4.394-2.06L117 247.8h-8.787zm26.362-47.35l4.394 2.06 4.394-2.06h-8.787zm-13.18 0l4.394 2.06 4.394-2.06h-8.787zm-13.18 0l4.394 2.06 4.394-2.06h-8.787z"/></g><g class="F"><path d="M130.912 253.98l-5.126 4.12-5.126-4.12-5.126 4.12-5.126-4.12v2.058l3.417 2.06-1.7 2.058v2.06h1.7l1.7-2.06 1.708 2.06h1.7v-2.06l-1.7-2.058 3.418-2.06 3.418 2.06-1.7 2.058v2.06h1.7l1.7-2.06 1.708 2.06h1.7v-2.06l-1.7-2.058 3.417-2.06 3.418 2.058-1.7 2.06v2.06h1.7l1.708-2.06 1.708 2.06h1.7v-2.06l-1.7-2.06 3.417-2.06v-2.058l-5.126 4.117-5.126-4.117zm.001-59.72l-5.126-4.12-5.126 4.12-5.126-4.12-5.126 4.12v-2.058l3.417-2.06-1.7-2.058v-2.06h1.7l1.7 2.06 1.708-2.06h1.7v2.06l-1.7 2.058 3.418 2.06 3.418-2.06-1.7-2.058v-2.06h1.7l1.7 2.06 1.708-2.06h1.7v2.06l-1.7 2.058 3.417 2.06 3.418-2.058-1.7-2.06v-2.06h1.7l1.708 2.06 1.708-2.06h1.7v2.06l-1.7 2.06 3.417 2.06v2.058l-5.126-4.117-5.126 4.117zm38.825 34.323l5.493-4.46-5.493-4.46 5.493-4.46-5.493-4.46h2.745l2.748 2.974 2.745-1.487h2.746v1.487l-2.746 1.487 2.746 1.487v1.487h-2.746l-2.745-1.487-2.746 2.974 2.746 2.974 2.745-1.487h2.746v1.487l-2.746 1.487 2.746 1.487v1.487h-2.746l-2.745-1.487-2.746 2.974 2.745 2.975 2.746-1.487h2.746v1.487l-2.746 1.487 2.746 1.487v1.487h-2.746l-2.746-1.487-2.746 2.974h-2.745l5.5-4.46-5.5-4.462zm-87.896 0l-5.493-4.46 5.493-4.46-5.493-4.46 5.493-4.46h-2.745l-2.748 2.974-2.745-1.487h-2.746v1.487l2.746 1.487-2.746 1.487v1.487h2.746l2.745-1.487 2.746 2.974-2.746 2.974-2.745-1.487h-2.746v1.487l2.746 1.487-2.746 1.487v1.487h2.746l2.745-1.487 2.746 2.974-2.745 2.975-2.746-1.487h-2.746v1.487l2.746 1.487-2.746 1.487v1.487h2.746l2.746-1.487 2.746 2.974h2.745l-5.5-4.46 5.5-4.462z"/><g class="B J"><path d="M171.92 243.683h2.197v2.06h-2.197z"/><path d="M169.725 245.74h2.197v2.06h-2.197zm-10.985 10.297h2.197v2.06h-2.197z"/><path d="M160.937 253.98h2.197v2.06h-2.197zm-72.497 0h2.197v2.06H88.44zm-10.988-10.297h2.197v2.06h-2.197zm2.208 2.057h2.197v2.06H79.66zm0-45.3h2.197v2.06H79.66zm-2.208 2.056h2.197v2.06h-2.197zm13.186-12.354h2.197v2.06h-2.197z"/><path d="M88.44 192.2h2.197v2.06H88.44zm70.3-2.058h2.197v2.06h-2.197z"/><path d="M160.937 192.2h2.197v2.06h-2.197zm8.788 8.24h2.197v2.06h-2.197z"/><path d="M171.92 202.506h2.197v2.06h-2.197zm-81.282 53.53h2.197v2.06h-2.197z"/></g></g><path d="M119.085 224.12h-6.475l-.001-4.047 4.318.002v-3.795h4.318v-3.485h4.318v4.356c-3.575 0-6.477 2.95-6.477 6.97z" class="E"/><path d="M132.035 224.12h6.475l.001-4.047-4.318.002v-3.795h-4.318v-3.485h-4.318v4.356c3.575 0 6.477 2.95 6.477 6.97z" class="D"/><path d="M132.035 224.12h6.475l.001 4.047-4.318-.002v3.795h-4.318v3.485h-4.318v-4.356c3.575 0 6.477-2.95 6.477-6.97z" class="E"/><path d="M119.085 224.12h-6.475l-.001 4.047 4.318-.002v3.795h4.318v3.485h4.318v-4.356c-3.575 0-6.477-2.95-6.477-6.97z" class="D"/><path d="M132.034 224.123h-6.476v-6.97c3.575 0 6.476 3.122 6.476 6.97z" class="F"/><path d="M132.034 224.117h-6.476v6.97c3.575 0 6.476-3.122 6.476-6.97z" class="C"/><path d="M119.086 224.117h6.476v6.97c-3.575 0-6.476-3.122-6.476-6.97z" class="F"/><path d="M119.086 224.123h6.476v-6.97c-3.575 0-6.476 3.122-6.476 6.97z" class="C"/><g class="F"><path d="M132.378 249.855l-6.6-4.12-6.6 4.12-6.6-4.12-6.6 4.12v-2.058l4.393-2.06-2.197-2.058v-2.06h2.197l2.197 2.06 2.197-2.06H117v2.06l-2.197 2.058 4.394 2.06 4.394-2.06-2.197-2.058v-2.06h2.197l2.197 2.06 2.197-2.06h2.197v2.06l-2.197 2.058 4.394 2.06 4.394-2.058-2.197-2.06v-2.06h2.197l2.197 2.06 2.197-2.06h2.197v2.06l-2.197 2.06 4.394 2.06v2.058l-6.6-4.118-6.6 4.118zm0-51.467l-6.6 4.12-6.6-4.12-6.6 4.12-6.6-4.12v2.058l4.393 2.06-2.197 2.058v2.06h2.197l2.197-2.06 2.197 2.06H117v-2.06l-2.197-2.058 4.394-2.06 4.394 2.06-2.197 2.058v2.06h2.197l2.197-2.06 2.197 2.06h2.197v-2.06l-2.197-2.058 4.394-2.06 4.394 2.058-2.197 2.06v2.06h2.197l2.197-2.06 2.197 2.06h2.197v-2.06l-2.197-2.06 4.394-2.06v-2.058l-6.6 4.118-6.6-4.118zm24.16 30.878l-3.296-5.147 3.296-5.148-3.296-5.148 3.296-5.147H154.9l-1.65 3.43-1.647-1.716h-1.648v1.716l1.648 1.716-1.648 1.716v1.716h1.648l1.647-1.716 1.648 3.432-1.648 3.432-1.647-1.716h-1.648v1.716l1.648 1.716-1.648 1.716v1.716h1.648l1.647-1.716 1.648 3.432-1.647 3.432-1.648-1.716h-1.648v1.716l1.648 1.716-1.648 1.716v1.716h1.648l1.648-1.716 1.648 3.432h1.647l-3.295-5.147 3.295-5.148z"/><g class="B K"><path d="M106.022 200.45l-8.788 8.235v30.885l8.788 8.237h39.542l8.788-8.237v-30.885l-8.788-8.235h-39.542zm-2.197-6.178l-21.97 20.6v18.53l21.97 20.59h43.937l21.968-20.59v-18.53l-21.968-20.6h-43.937z"/></g></g><g class="D H B"><use xlink:href="#F"/><use xlink:href="#G"/><path d="M129.302 198.386l3.515-4.118 3.515 4.118h-7.03zm0 51.48l3.515 4.118 3.515-4.118h-7.03z"/></g><g class="C B"><path d="M108.212 198.386l3.515-4.118 3.515 4.118h-7.03zm14.06 0l3.515-4.118 3.515 4.118h-7.03zm14.06 0l3.515-4.118 3.515 4.118h-7.03z" class="H"/><path d="M99.415 243.683l6.59 6.178h-6.59v-6.178z" class="I"/></g><path d="M95.033 229.266l3.296-5.147-3.296-5.148 3.296-5.148-3.296-5.147h1.647l1.65 3.43 1.647-1.716h1.648v1.716l-1.648 1.716 1.648 1.716v1.716h-1.648l-1.647-1.716-1.648 3.432 1.648 3.432 1.647-1.716h1.648v1.716l-1.648 1.716 1.648 1.716v1.716h-1.648l-1.647-1.716-1.648 3.432 1.647 3.432 1.648-1.716h1.648v1.716l-1.648 1.716 1.648 1.716v1.716h-1.648l-1.648-1.716-1.648 3.432h-1.647l3.295-5.147-3.295-5.148z" class="F"/><g class="B C"><path d="M158.74 218.56h8.787l2.197 1.854-2.197 1.852h-8.787v-3.706z" class="L"/><path d="M99.425 204.564l-4.393 4.12v30.885l4.393 4.118h-6.592l.001-39.122h6.59z" class="I"/><g class="H"><path d="M108.212 249.865l3.515 4.118 3.515-4.118h-7.03zm14.06 0l3.515 4.118 3.515-4.118h-7.03zm14.06 0l3.515 4.118 3.515-4.118h-7.03z"/></g><g class="I"><path d="M152.153 204.564l4.394 4.12v30.885l-4.394 4.118h6.6v-39.122h-6.6z"/><path d="M152.155 243.683l-6.6 6.178h6.6v-6.178zm0-39.12l-6.6-6.178h6.6v6.178zm-52.74 0l6.6-6.178h-6.6v6.178z"/></g></g><path d="M106.022 200.45l-8.788 8.235v30.885l8.788 8.237h39.542l8.788-8.237v-30.885l-8.788-8.235h-39.542zm-.001-2.06l-10.984 10.295v30.885l10.985 10.295h39.542l10.984-10.295v-30.885L145.563 198.4H106.02z" class="B F K"/><g class="L B"><use xlink:href="#H" class="D"/><path d="M158.74 225.972h8.787l2.197 1.854-2.197 1.852h-8.787v-3.706z" class="C"/><g class="D"><path d="M158.74 229.676h8.787l2.197 1.854-2.197 1.853h-8.787v-3.706zm0-14.826h8.787l2.197 1.854-2.197 1.853h-8.787v-3.706z"/></g><path d="M92.834 218.56h-8.787l-2.197 1.854 2.197 1.852h8.787v-3.706z" class="C"/><use xlink:href="#I" class="D"/><path d="M92.834 225.972h-8.787l-2.197 1.854 2.197 1.852h8.787v-3.706z" class="C"/><g class="D"><path d="M92.834 229.678h-8.787l-2.197 1.854 2.197 1.853h8.787v-3.706zm0-14.825h-8.787l-2.197 1.854 2.197 1.853h8.787v-3.706z"/></g></g><path d="M79.66 202.506v43.24h10.984v10.295h70.3v-10.295h10.984v-43.24h-10.984V192.21h-70.3v10.295H79.66zm2.197 2.06v39.12H92.84v10.295h65.906v-10.295h10.984v-39.12h-10.984V194.27H92.84v10.296H81.855z" fill="#970000" class="B J"/><path d="M180.707 41.684l-6.6-7.92v-5.94l-6.6-5.94h-13.18l-10.984-5.94h-35.148l-10.984 5.94H84.05l-6.6 5.94v5.94l-6.6 7.92v15.84l6.6 7.92v5.94l6.6 5.94h13.18l10.984 5.94h35.148l10.984-5.94h13.18l6.6-5.94v-5.94l6.6-7.92v-15.84z" stroke-width=".315" class="B C"/><path d="M73.08 49.606v5.94l6.6 7.92v5.94l6.6 5.94h13.18l10.985 5.94h15.378l-.001-31.68H73.08z" class="D"/><g class="C"><path d="M107.248 63.46l-8.024 5.092H94.43l1.598 1.697-3.195 3.395 1.597 1.697 4.793-1.697 1.598 1.697.738-4.535 8.848-5.368-3.16-1.977zm-8.783-3.96l-8.024 5.092h-4.793l1.598 1.697-3.195 3.395 1.597 1.697 4.793-1.697 1.598 1.697.738-4.535 8.848-5.368-3.16-1.977zm-4.397-7.915l-8.024 5.092H81.25l1.598 1.697-3.195 3.395 1.597 1.697 4.793-1.697 1.598 1.697.738-4.535 8.848-5.368-3.16-1.977z"/></g><path d="M178.494 49.606v-5.94l-6.6-7.92v-5.94l-6.6-5.94h-13.18l-10.985-5.94H125.77v31.68h52.723z" class="D"/><path d="M125.792 81.285h-4.068l-4.72-3.96h-7.485l-4.068-1.98 2.034-1.98 4.068 1.98h4.068l4.068-5.94 6.102 1.98v3.96H119.7l6.102 5.94z" class="C"/><path d="M73.08 49.606v-5.94l6.6-7.92v-5.94l6.6-5.94h13.18l10.985-5.94h15.378l-.001 31.68H73.08z" class="E"/><g class="C"><path d="M125.792 17.923h-4.068l-4.72 3.96h-7.485l-4.068 1.98 2.034 1.98 4.068-1.98h4.068l4.068 5.94 6.102-1.98v-3.96H119.7l6.102-5.94z"/><path d="M125.788 17.923h4.068l4.72 3.96h7.485l4.068 1.98-2.034 1.98-4.068-1.98h-4.068l-4.068 5.94-6.102-1.98v-3.96h6.102l-6.102-5.94z"/></g><path d="M178.494 49.606v5.94l-6.6 7.92v5.94l-6.6 5.94h-13.18l-10.985 5.94H125.77v-31.68h52.723z" class="E"/><g class="C"><path d="M125.788 81.285h4.068l4.72-3.96h7.485l4.068-1.98-2.034-1.98-4.068 1.98h-4.068l-4.068-5.94-6.102 1.98v3.96h6.102l-6.102 5.94zM98.465 39.703L90.44 34.61h-4.793l1.598-1.697-3.195-3.395 1.597-1.697 4.793 1.697 1.598-1.697.738 4.535 8.848 5.368-3.16 1.977z"/><use xlink:href="#J"/><path d="M107.248 35.747l-8.024-5.092H94.43l1.598-1.697-3.195-3.395 1.597-1.697 4.793 1.697 1.598-1.697.738 4.535 8.848 5.368-3.16 1.977zm-13.18 11.88l-8.024-5.092H81.25l1.598-1.697-3.195-3.395 1.597-1.697 4.793 1.697 1.598-1.697.738 4.535 8.848 5.368-3.16 1.977z"/></g><path d="M76.982 49.616h2.035l2.034 1.98 2.034-1.98 42.715-.001v27.72h-2.034l2.034 1.98v1.98l-6.102-5.94v-1.98h2.034v1.98h2.034v-1.98L107.25 64.63H93.337v-8.58l-6.184-4.455h-4.068l-2.034 1.98 2.034 1.98H81.05l-4.07-5.94z" class="E"/><path d="M76.982 49.596h2.035l2.034-1.98 2.034 1.98 42.715.001v-27.72h-2.034l2.034-1.98v-1.98l-6.102 5.94v1.98h2.034v-1.98h2.034v1.98L107.25 34.58H93.337v8.58l-6.184 4.455h-4.068l-2.034-1.98 2.034-1.98H81.05l-4.07 5.94z" class="D"/><path d="M86.256 49.595h39.542v23.76l-17.574-9.9h-13.18v-7.92l-8.788-5.94z" class="F"/><g class="C"><path d="M153.1 39.703l8.024-5.092h4.793l-1.598-1.697 3.195-3.395-1.597-1.697-4.793 1.697-1.598-1.697-.738 4.535-8.848 5.368 3.16 1.977zm4.398 7.924l8.024-5.092h4.793l-1.598-1.697 3.195-3.395-1.597-1.697-4.793 1.697-1.598-1.697-.738 4.535-8.848 5.368 3.16 1.977z"/></g><path d="M174.593 49.596h-2.035l-2.034-1.98-2.034 1.98-42.715.001v-27.72h2.034l-2.034-1.98v-1.98l6.102 5.94v1.98h-2.034v-1.98h-2.034v1.98l16.516 8.746h13.913v8.58l6.184 4.455h4.068l2.034-1.98-2.034-1.98h2.034l4.07 5.94z" class="E"/><path d="M165.32 49.617h-39.542v-23.76l17.574 9.9h13.18v7.92l8.788 5.94z" class="F"/><g class="C"><use xlink:href="#K"/><path d="M153.1 59.5l8.024 5.092h4.793L164.33 66.3l3.195 3.395-1.597 1.697-4.793-1.697-1.598 1.697-.738-4.535-8.848-5.368 3.16-1.977zm4.398-7.915l8.024 5.092h4.793l-1.598 1.697 3.195 3.395-1.597 1.697-4.793-1.697-1.598 1.697-.738-4.535-8.848-5.368 3.16-1.977z"/></g><path d="M174.593 49.616h-2.035l-2.034 1.98-2.034-1.98-42.715-.001v27.72h2.034l-2.034 1.98v1.98l6.102-5.94v-1.98h-2.034v1.98h-2.034v-1.98l16.516-8.746h13.913v-8.58l6.184-4.455h4.068l2.034 1.98-2.034 1.98h2.034l4.07-5.94z" class="D"/><g class="C"><path d="M165.32 49.595h-39.542v23.76l17.574-9.9h13.18v-7.92l8.788-5.94z"/><path d="M86.256 49.617h39.542v-23.76l-17.574 9.9h-13.18v7.92l-8.788 5.94z"/><path d="M130.128 49.606l11.034-5.94h6.6l-2.197-1.98 4.393-3.96-2.196-1.98-6.6 1.98-2.197-1.98-1.015 5.3-12.166 6.263 4.345 2.307zm-8.68-.01l-11.034 5.94h-6.6l2.197 1.98-4.393 3.96 2.196 1.98 6.6-1.98 2.197 1.98 1.015-5.3 12.166-6.263-4.345-2.307z"/></g><g class="F"><path d="M121.447 49.606l-11.034-5.94h-6.6l2.197-1.98-4.393-3.96 2.196-1.98 6.6 1.98 2.197-1.98 1.015 5.3L125.79 47.3l-4.345 2.307zm8.68-.01l11.034 5.94h6.6l-2.197 1.98 4.393 3.96-2.196 1.98-6.6-1.98-2.197 1.98-1.015-5.3-12.166-6.263 4.345-2.307z"/></g><path d="M112.608 49.607l13.18-9.9 13.182 9.9-13.182 9.9-13.18-9.9z" class="E"/><g class="C"><path d="M83.075 53.562l2.034 1.98-2.034 1.98H81.04l-6.102-7.92h2.034l4.068 5.94h2.034l-2.034-1.98 2.034-1.98h4.068v1.98h-4.068z"/><path d="M83.075 45.644l2.034-1.98-2.034-1.98H81.04l-6.102 7.92h2.034l4.068-5.94h2.034l-2.034 1.98 2.034 1.98h4.068v-1.98h-4.068zm85.43 7.918l-2.034 1.98 2.034 1.98h2.034l6.102-7.92h-2.034l-4.068 5.94h-2.034l2.034-1.98-2.034-1.98h-4.068v1.98h4.068z"/><path d="M168.504 45.644l-2.034-1.98 2.034-1.98h2.034l6.102 7.92h-2.034l-4.068-5.94h-2.034l2.034 1.98-2.034 1.98h-4.068v-1.98h4.068zm-44.75-3.96h4.068v15.84h-4.068z"/><path d="M117.652 45.644h16.272v7.92h-16.272z"/></g><path d="M107.446 350.794l-36.614 19.81v33.016l36.614 19.81h36.614l36.614-19.81v-33.016l-36.614-19.81h-36.614z" stroke-width=".251" class="B F"/><g fill="#c00"><use xlink:href="#L"/><path d="M140.558 415.526h2.214v-4.06h4.43v4.06h2.214v-9.474h-2.214v4.06h-4.43v-4.06h-2.214v9.474zm-35.43-47.37h2.214v-4.06h4.43v4.06h2.214v-9.474h-2.214v4.06h-4.43v-4.06h-2.214v9.474zm32.48 0h2.214v-4.06h4.43v4.06h2.214v-9.474h-2.214v4.06h-4.43v-4.06h-2.214v9.474zm20.66 15.8h2.214v-4.06h4.43v4.06h2.214v-9.474h-2.214v4.06h-4.43v-4.06h-2.214v9.474zm0 15.8h2.214v-4.06h4.43v4.06h2.214v-9.474h-2.214v4.06h-4.43v-4.06h-2.214v9.474z"/></g><g class="D"><path d="M125.79 421.848v-34.74h53.15v15.79l-35.433 18.95H125.79z"/><path d="M125.8 352.362v34.74H72.64v-15.79l35.433-18.95H125.8z"/></g><g class="E"><path d="M125.79 352.362v34.74h53.15v-15.79l-35.433-18.95H125.79z"/><path d="M125.8 421.848l-.001-34.74-53.15-.001v15.79l35.433 18.95H125.8z"/></g><path d="M154.14 372.9h21.26l-21.26-9.475v9.475zm24.803-1.58l-.001 15.79h-33.66V374.47h-7.086l-8.858-4.737v-11.054l5.314-4.737h-7.086v15.79h-1.772v-17.37h17.717l35.433 18.95z" class="B D M"/><path d="M108.042 376.045v22.105h5.313l12.403 6.318 12.403-6.318h5.313v-22.105h-5.313l-12.403-6.318-12.403 6.318h-5.313z" class="C"/><g class="B M"><path d="M97.44 401.32H76.18l21.26 9.475v-9.475zm-24.803 1.58l.001-15.79h33.66v12.632h7.086l8.858 4.737v11.054l-5.314 4.737h7.086v-15.79h1.772v17.37H108.07L72.637 402.9z" class="D"/><g class="E"><path d="M97.44 372.9H76.18l21.26-9.475v9.475zm-24.803-1.58l.001 15.8h33.66v-12.64h7.086l8.858-4.737V358.68l-5.314-4.737h7.086v15.8h1.772v-17.37H108.07l-35.433 18.95zm81.503 30h21.26l-21.26 9.475v-9.475zm24.803 1.58l-.001-15.8h-33.66v12.632h-7.086l-8.858 4.737v11.054l5.314 4.737h-7.086v-15.8h-1.772v17.37H143.5l35.433-18.95z"/></g></g><g class="C"><path d="M83.278 399.746h2.214v-4.738h4.43v4.738h2.214v-11.054h-2.214v4.738h-4.43v-4.738h-2.214v11.054z"/><use xlink:href="#M"/><path d="M83.278 374.476h2.214v4.737h4.43v-4.737h2.214v11.054h-2.214v-4.737h-4.43v4.737h-2.214v-11.054zm21.25-15.792h2.214v4.738h4.43v-4.738h2.214v11.054h-2.214V365h-4.43v4.738h-2.214v-11.054zm33.67 56.852h2.214V410.8h4.43v4.738h2.214v-11.054h-2.214v4.738h-4.43v-4.738h-2.214v11.054zm21.26-30h2.214v-4.738h4.43v4.738h2.214v-11.054h-2.214v4.738h-4.43v-4.738h-2.214v11.054z"/><path d="M138.198 415.536h2.214V410.8h4.43v4.738h2.214v-11.054h-2.214v4.738h-4.43v-4.738h-2.214v11.054z"/><path d="M138.198 415.536h2.214V410.8h4.43v4.738h2.214v-11.054h-2.214v4.738h-4.43v-4.738h-2.214v11.054zm21.26-15.8h2.214V395h4.43v4.738h2.214v-11.054h-2.214v4.738h-4.43v-4.738h-2.214v11.054zm-21.26-30h2.214V365h4.43v4.738h2.214v-11.054h-2.214v4.738h-4.43v-4.738h-2.214v11.054z"/></g><path d="M127.563 387.106l7.087-5.76h3.543v2.88h-3.543v1.44h5.314v-5.757l-5.314-.001V375.6h-7.087v4.318h1.772v-2.88h3.543v2.88l-7.086 5.758-7.087-5.757v-2.88h3.543v2.88h1.772V375.6l-7.087.001v4.318h-5.315v5.76h5.315v-1.44h-3.544v-2.88h3.544l7.087 5.757-7.087 5.757H113.4v-2.88h3.543v-1.44h-5.314v5.758h5.314v4.318h7.087v-4.32h-1.77v2.88h-3.543v-2.88l7.085-5.757 7.088 5.76v2.88h-3.543v-2.88h-1.772v4.318h7.086v-4.318l5.315-.002v-5.757h-5.315v1.44h3.544v2.88h-3.544l-7.087-5.758z" class="F"/><g transform="matrix(1 0 0 .92857 198.43 17.59)"><g class="C"><path d="M-122.352 134.285l3.43-3.73h20.573l15.43-16.785h20.574l15.43 16.784h20.574l3.43 3.73-3.43 3.73h-20.574l-15.43 16.784H-82.92l-15.43-16.784h-20.573l-3.43-3.73z"/><path d="M-120.467 134.65l1.772-1.772h21.26l15.945-17.717h17.717l15.945 17.717h21.26l1.772 1.772-1.772 1.77h-21.26l-14.173 15.945h-21.26l-14.174-15.945h-21.26l-1.772-1.77z" stroke-width=".267" class="B"/></g><g class="D"><path d="M-64.07 136.148l6.858 7.46-3.43 3.73-1.715-1.865h-1.714v1.865l1.714 1.865h3.43l3.43-3.73v-3.73l-6.857-7.46 6.857-7.46v-3.73l-3.43-3.73h-3.43l-1.715 1.864v1.865h1.715l1.714-1.865 3.43 3.73-6.857 7.46-6.858-7.46 6.858-7.46v-1.864h-1.715l-6.857 7.46-6.858-7.46h-1.715v1.864l6.858 7.46-6.858 7.46-6.858-7.46 3.43-3.73 1.715 1.865h1.715v-1.865l-1.715-1.864h-3.43l-3.43 3.73v3.73l6.858 7.46-6.858 7.46v3.73l3.43 3.73h3.43l1.715-1.864v-1.865h-1.715l-1.715 1.865-3.43-3.73 6.858-7.46 6.857 7.46-6.857 7.46-.001 1.865h1.715l6.858-7.46 6.858 7.46h1.714v-1.865l-6.857-7.46 6.857-7.46zm-8.572-9.325l-6.858 7.46 6.858 7.46 6.858-7.46-6.858-7.46zM-82.917 154.8v14.918l1.715-1.865 1.715 1.865 1.714-1.865 1.715 1.865 1.715-1.865 1.714 1.865 1.715-1.865 1.715 1.865 1.714-1.865 1.715 1.865 1.714-1.865 1.715 1.865V154.8h-20.574zm20.564-41V98.872l-1.715 1.865-1.715-1.865-1.714 1.865-1.715-1.865-1.715 1.865-1.714-1.865-1.715 1.865-1.715-1.865-1.714 1.865-1.715-1.865-1.714 1.865-1.715-1.865V113.8h20.574z"/><use xlink:href="#N"/><path d="M-98.355 130.58v-14.918l-1.715 1.865-1.714-1.865-1.715 1.865-1.715-1.865-1.714 1.865-1.715-1.865-1.714 1.865-1.715-1.865v14.918h13.716z"/><use xlink:href="#O"/><path d="M-98.355 138v14.918l-1.715-1.865-1.714 1.865-1.715-1.865-1.715 1.865-1.714-1.865-1.715 1.865-1.714-1.865-1.715 1.865V138h13.716z"/></g><g class="F"><path d="M-62.347 154.8l-.001 9.324 1.715-1.865 1.715 1.865 1.714-1.865 1.715 1.865 1.715-1.865 1.714 1.865 1.715-1.865 1.714 1.865 1.715-1.865v-24.242l-15.43 16.784zm-20.586 0v9.325l-1.715-1.865-1.715 1.865-1.714-1.865-1.715 1.865-1.715-1.865-1.714 1.865-1.715-1.865-1.714 1.865-1.715-1.865.001-24.243 15.43 16.784zm0-41l.001-9.324-1.715 1.865-1.715-1.865-1.714 1.865-1.715-1.865-1.715 1.865-1.714-1.865-1.715 1.865-1.714-1.865-1.715 1.865v24.242l15.43-16.784zm20.586 0l-.001-9.324 1.715 1.865 1.715-1.865 1.714 1.865 1.715-1.865 1.715 1.865 1.714-1.865 1.715 1.865 1.714-1.865 1.715 1.865v24.242l-15.43-16.784zm-49.73 35.406l-1.715-1.865-1.713 1.865-1.715-1.865-1.715 1.865-1.715-1.865-1.715 1.865-1.713-1.865-1.715 1.865-.001-29.838 1.715 1.865 1.714-1.865 1.715 1.865 1.714-1.865 1.715 1.865 1.715-1.865 1.714 1.865 1.715-1.865v11.2h-6.857l-3.43 3.73 3.43 3.73h6.857v11.2zm78.876 0l1.715-1.865 1.713 1.865 1.715-1.865 1.715 1.865 1.715-1.865 1.715 1.865 1.713-1.865 1.715 1.865.001-29.838-1.715 1.865-1.714-1.865-1.715 1.865-1.714-1.865-1.715 1.865-1.715-1.865-1.714 1.865-1.715-1.865v11.2h6.857l3.43 3.73-3.43 3.73h-6.857v11.2z"/></g><use xlink:href="#P" class="E"/><path d="M-73.497 161.67s-1.714 2.064-1.714 3.095c-.034.962 1.83 3.118 2.572 3.095.97.023 2.572-2.063 2.572-3.095s-1.715-3.095-1.715-3.095v-4.126s3.037 6.75 3.037 3.656c0-2-3.037-5.72-3.037-5.72h-1.714s-3.505 4.655-3.036 5.72c0 3.095 3.036-3.655 3.036-3.655v4.126z" class="C"/><g class="F"><ellipse transform="matrix(.96774 0 0 1.0526 -482.4 -277.85)" cx="403.94" rx="3.543" cy="391.54" ry="1.772"/><ellipse transform="matrix(.96774 0 0 1.0526 -463.54 -277.85)" cx="403.94" rx="3.543" cy="391.54" ry="1.772"/><ellipse transform="matrix(.96774 0 0 1.0526 -444.69 -277.85)" cx="403.94" rx="3.543" cy="391.54" ry="1.772"/></g><use xlink:href="#Q" class="E"/><path d="M-73.857 107.062s-1.714-2.064-1.714-3.095c-.034-.962 1.83-3.118 2.572-3.095.97-.023 2.572 2.063 2.572 3.095s-1.715 3.095-1.715 3.095v4.126s3.037-6.75 3.037-3.656c0 2-3.037 5.72-3.037 5.72h-1.714s-3.505-4.655-3.036-5.72c0-3.095 3.036 3.655 3.036 3.655v-4.126z" class="C"/><g class="E"><path d="M-54.86 155.978s-1.43 1.474-1.43 2.2c-.028.687 1.524 2.227 2.143 2.2.8.016 2.143-1.474 2.143-2.2s-1.43-2.2-1.43-2.2v-2.947s3.103 5.068 3.103 2.857c0-1.586-3.103-4.33-3.103-4.33h-1.43s-3.103 3.214-3.103 4.33c0 2.2 3.103-2.857 3.103-2.857v2.947zm-.36-43.218s-1.43-1.474-1.43-2.2c-.028-.687 1.524-2.227 2.143-2.2.8-.016 2.143 1.474 2.143 2.2s-1.43 2.2-1.43 2.2v2.947s3.103-5.068 3.103-2.857c0 1.586-3.103 4.33-3.103 4.33h-1.43s-3.103-3.214-3.103-4.33c0-2.2 3.103 2.857 3.103 2.857v-2.947z"/></g><g class="C"><use xlink:href="#R"/><use xlink:href="#S"/><path d="M-40.423 145.15s-1.9 1.383-1.9 2.074c-.038.645 2.026 2.1 2.85 2.074 1.076.015 2.85-1.383 2.85-2.074s-1.9-2.074-1.9-2.074v-2.765s3.364 4.524 3.364 2.45c0-1.34-3.364-3.833-3.364-3.833h-1.9s-3.883 3.12-3.364 3.832c0 2.074 3.364-2.45 3.364-2.45v2.765zm-.4-21.12s-1.9-1.383-1.9-2.074c-.038-.645 2.026-2.1 2.85-2.074 1.076-.015 2.85 1.383 2.85 2.074s-1.9 2.074-1.9 2.074v2.765s3.364-4.524 3.364-2.45c0 1.34-3.364 3.833-3.364 3.833h-1.9s-3.883-3.12-3.364-3.832c0-2.074 3.364 2.45 3.364 2.45v-2.765z"/></g><g class="E"><use xlink:href="#T"/><use xlink:href="#U"/><path d="M-27.805 145.093c-.615-1.277-.453-1.86-.453-2.598-.03-.687 1.716-2.025 2.335-2 .8-.016 2.143 1.474 2.143 2.2s.034 1.373-.298 2.643l-.893-2.154c-1.084 3.056-1.143 3.127-1.787-.074l-1.048 1.98zm.05-21.438c-.615 1.277-.453 1.86-.453 2.598-.03.687 1.716 2.025 2.335 2 .8.016 2.143-1.474 2.143-2.2s.034-1.373-.298-2.643l-.893 2.154c-1.084-3.056-1.143-3.127-1.787.074l-1.048-1.98z"/></g><path d="M-83.27 170.073v-5.315h-15.944v-10.63h-14.173v-3.543h-12.402v-31.9h12.402v-3.543h14.173v-10.63h15.944v-5.315H-62v5.315h15.945v10.63h14.173v3.543H-19.5v31.9h-12.402v3.543h-14.173v10.63H-62v5.315h-21.26zm-1.772 1.772v-5.315h-15.944V155.9h-14.173v-3.543h-12.402v-35.433h12.402v-3.544h14.173v-10.63h15.945v-5.315h24.803v5.315h15.945v10.63h14.173v3.544h12.402v35.433H-30.12v3.543h-14.173v10.63h-15.945v5.315h-24.804z" stroke-width=".133" class="B C"/></g></g></g></svg>