<svg xmlns="http://www.w3.org/2000/svg" xmlns:xlink="http://www.w3.org/1999/xlink" height="800" width="1200"><path fill-rule="evenodd" fill="#4b92db" d="M0 0h1200v800H0z"/><g transform="translate(-1)"><path d="M664 587l-10 9c-21-22-46-47-69-47-15 0-26 12-38 19-17 11-41 18-61 10-11-5-21-11-29-20 16 10 40 12 57 4 20-8 40-19 63-19 33 0 65 23 87 44zm-246-69c22 25 58 17 88 23l12 2-12-4c-23-9-27-33-39-50 16 11 29 25 44 39 10 9 23 13 37 16l-11 2c-24 6-51 15-77 7-16-6-33-19-42-35zm-35-58c14 31 48 34 71 53 5 3 9 7 14 9l-15-17c-13-19-9-45-19-65 9 11 18 22 23 35 8 20 11 43 30 58-20-6-44-5-63-17-19-13-37-33-41-56zm-15-63c2 28 31 42 45 65 3 5 6 9 11 13l-5-8c-4-10-6-21-5-32 1-14 7-27 5-42 12 26 8 58 15 86 1 6 5 12 8 18-12-9-28-17-41-27a86 86 0 01-29-37c-4-11-5-24-4-36zm1-50l5-18c-5 26 12 44 18 67 3 8 3 17 7 25v-1c-8-23 4-45 17-64 3-5 4-11 6-17 1 11-1 24-3 35-3 14-8 27-12 41-2 9-1 19 0 28l-1-1c-9-17-27-30-33-48-4-15-7-31-4-47zm10-28c0-20 7-35 19-50h1c-13 19-1 43-3 64l-2 23h1l2-7c3-18 18-31 32-43a29 29 0 007-11c-2 9-4 18-8 26-10 21-30 38-34 62-1-23-15-40-15-64zm33-66c6-7 13-12 22-14-17 11-16 31-21 48l-6 18h1c2-7 7-14 13-20 12-10 29-17 35-33-1 22-20 39-37 52-7 6-14 14-18 22v-17c-1-20-2-41 11-56zm66-37c-12 11-20 24-29 37-8 10-19 16-28 25 5-10 6-22 12-32 11-17 29-24 45-30z" fill="#fff" id="a"/><use xlink:href="#a" transform="matrix(-1 0 0 1 1202 0)"/></g><g fill="#fff"><path d="M748 437l-3-2c-8 15-18 30-30 42l-21-21c10-11 19-23 25-35l-4-2a128 128 0 01-24 34l-19-19c8-8 15-18 20-28l-4-2a97 97 0 01-19 27l-21-21a66 66 0 0014-21l-4-2a63 63 0 01-12 21l-19-19c5-7 8-14 9-22h27a62 62 0 01-5 20l4 2a66 66 0 004-22h30a96 96 0 01-8 37l4 2c5-12 8-26 8-39h27c0 18-4 36-12 52l4 1c8-16 12-34 12-53h30c-1 24-6 47-16 68l3 2a164 164 0 005-134l-4 2c8 18 12 38 12 58h-30c0-16-3-32-9-47l-4 2c6 14 9 29 9 45h-27a100 100 0 00-7-35l-3 2c4 10 6 21 6 33h-29a66 66 0 00-5-21l-3 1 4 20h-27a35 35 0 00-9-22l19-19c6 6 10 13 13 21l3-1c-3-9-7-16-14-23l21-21c9 9 16 20 21 32l3-1c-4-13-11-24-21-34l19-19c12 12 21 27 27 42l4-2c-6-15-16-30-28-42l21-22c15 16 26 33 34 53l4-2a164 164 0 00-91-91l-2 4c19 7 37 19 52 34l-21 21c-12-12-26-21-42-28l-1 4c15 6 29 15 40 27l-19 19c-9-9-19-16-31-21l-1 4c11 4 21 11 30 19l-21 21c-6-5-13-10-20-13l-2 4a62 62 0 0119 12l-19 19a35 35 0 00-22-9v-27c8 1 15 2 22 5l2-4c-8-3-16-4-24-5v-29c12 0 24 2 35 7l1-4c-11-5-23-7-36-7v-27c16 0 31 3 46 9l1-4c-15-6-31-9-47-9v-30c20 0 40 4 58 12l2-4a165 165 0 00-136 5l2 4c22-11 45-17 70-17v30a130 130 0 00-56 13l2 4c16-8 35-13 54-13v27a100 100 0 00-42 10l2 3c12-6 26-9 40-9v29a66 66 0 00-26 7l2 3c7-3 15-5 24-6v27a36 36 0 00-12 3l2 3a32 32 0 0112-2 31 31 0 0122 9c6 6 10 14 10 23 0 17-15 32-32 32a31 31 0 01-22-10 32 32 0 01-10-22 31 31 0 0120-30l-2-3a36 36 0 00-10 6l-19-19 17-11-2-3a67 67 0 00-18 11l-21-21a96 96 0 0125-17l-2-3a101 101 0 00-25 18l-19-19c9-10 20-17 32-23l-2-4c-12 6-24 14-33 24l-21-21a161 161 0 0140-29l-2-4c-32 17-58 43-74 75l4 2c7-15 17-29 29-41l21 21a131 131 0 00-24 34l3 2c6-12 14-24 24-34l19 19a101 101 0 00-19 28l4 2c4-10 10-19 18-27l21 21c-6 6-10 13-13 20l3 2c3-7 7-13 12-19l19 19a35 35 0 00-9 22h-27c1-8 2-15 5-22l-3-2a66 66 0 00-5 24h-30c0-14 3-26 9-38l-4-2a100 100 0 00-9 40h-27c0-19 4-37 12-53l-3-2c-8 17-13 35-13 55h-30c1-24 6-48 17-69l-4-2a164 164 0 00-17 73 165 165 0 007 46l4-1c-4-14-7-28-7-43h30c0 12 2 24 6 36l3-1c-3-11-5-23-5-35h27a100 100 0 005 28h3a96 96 0 01-4-28h30c0 7 1 14 3 20l4-1-4-19h27a35 35 0 009 22l-19 19c-5-7-10-14-13-22l-4 1c3 9 8 17 15 23l-21 21a96 96 0 01-23-36h-3c4 15 12 28 23 39l-19 19c-14-14-25-32-31-51l-3 1c6 20 16 38 31 53l-21 21c-19-19-32-42-39-67l-4 1a164 164 0 0087 103l2-4c-16-7-30-18-43-30l21-21c11 11 23 19 37 25l2-3c-14-6-26-15-36-25l19-19c9 9 19 15 30 20l2-3c-11-5-21-11-30-20l21-21c7 7 15 11 24 14l2-3a62 62 0 01-23-14l19-19a35 35 0 0022 9v27a63 63 0 01-18-3l-2 4c6 2 13 3 20 3v30c-12 0-24-3-35-7l-2 3c11 5 24 8 37 8v27c-18 0-35-4-50-11l-2 3c16 8 34 12 52 12v30c-24-1-46-6-67-16l-2 4a164 164 0 00145-2l-2-4a160 160 0 01-70 18v-30c20 0 39-5 57-14l-2-4c-17 9-35 14-55 14v-27c15 0 30-4 43-10l-2-4a96 96 0 01-41 10v-30a66 66 0 0027-6l-2-4c-7 4-16 6-25 6v-27a35 35 0 0022-9l19 19a63 63 0 01-16 11l2 4a67 67 0 0017-12l21 21c-7 7-15 13-24 17l2 4a100 100 0 0024-18l19 19a128 128 0 01-31 22l2 4a131 131 0 0032-23l21 21c-11 11-25 21-40 28l2 4a165 165 0 0074-75zM608 327v1h1v-1zm-1-2h1v1h-1zm-1 0v-1h-1v1zm-2-1h-2l1-1h1zm-10-1h1v1h-1zm-2 2v-1h-1v1zm-1 2l-1-1v-1l1 1z"/><path d="M589 328v-1h1v1zM458 430h-1v1h1v3h1v-3h-1zm9 12v-2l-2-3 3 2 1 2 1 1 1 2-1 2-1-2zm38 47l-2-2 2 1 2 1 1 3h-1l-1-1h-1zm90-151h-2v-4l1-1v-2h-6v-2h1l-2-1-1 2v1l-2 1v1h-1v2l-5 4-9-1c-1 2-2 0-2 0h-3c0 2-3-1-3-1l-6-4c-3-3-8 1-8 2 0 2-4 0-4 0s-4-1-4 1-3 1-3 1l-2 1v1h-2 5l-1 2-3 1h-3l-1 2h-3l-1 2c1 1-1 2-1 2l-1 2c1 1-1 2-1 2l-1 2h-1v4l-2 2v2l-3 3 1 3-3 2v3l-1 1v1l-1 3 2 1v2s-3 1-2 2l-3-1-2-1-1-2c-2-2-8 0-8 0l-1 3c-2 0-3 3-3 3l-2 3-1 1v4l-1 1 1 4v2l-1 2-3 1-1 1h-4l-2 1-1-1h-8v-1h-2v-2h-3v1l-3 1c0 1-2 4-3 3l-1-3h3v-2h-6l-1 1h-2v3h-2l1 3c1 1-1 3-1 3-1 1 1 3 1 3 2 0-1 1-1 1l2 2v3l1 3h1v3h3v-4c-2-3 2-3 2-2l2 1c0 3 3 4 4 2 1-3 2-1 2 0l4 4h2v2c3 0 4 0 5 4s5 5 5 5h2c0-2 2 0 2 1l5 5 4 1 4 4 4-1h1c1-2 5 1 5 2l3 1c0-1 3 0 3 3l1 2 10-1 3-2 9-1c4 0 1-6 0-6-1-1 1-6 1-6l-12-11c-3 0 0-4 0-4 2-1-1-4-1-4l-1-4c-3-2-2-6-2-6v-3c-3-2 1-2 1-2 1-2-1-4-1-4v-2h-3v-8l-6-9-1-2c2-1 0-3 0-3v-4h3l1-2h2v-4c1-2 3-1 3-1h2l1-2 1-2h-2c-2-2-1-6-1-6 3-5 7-2 7-2h2c3 2 0 7 0 7v4l1 5-2 2c-2 1-2 3 0 4 1 0 1 3-1 1-3 0 1 3 0 2 3 2 2-1 2-1l4-3c2-2 4 2 4 3h7c2 1 2 4 2 4 2-2 6 0 3 1l3 3c2 0 2 1 2 2l1-3c-3-2 3-2 1 1l-1 2 2 1v4c4 0 3-5 3-5h2c0-2 1-1 1-1-1-6 2-7 2-7 3 0 3-5 3-5-2 0-1-3 1-1s-1-4-1-4l-2-1h-1l-1-2h-3v2l-1 1-1-1v2h-3v-2l2-1v-1l1-2h2l3-1c0-3 1-2 1-2h1l2 2v1h-1v3h2c0-2 4-2 5-1l1-2c-3-1 0-3 0-2l3-2v-4c0-2 3-2 3-2v-2l-3-1c0 3-2 1-1 0l2-1v-2h1v-2h3l2-1v-1h3l3-3v-1c-2 0 0-2 0-2v-2zm-67 33h-3v1h1v8l-2-1-1 3c0 1 3 0 3 2s2-2 2-2v-11zm-1 15l-2-1v4l3 3 1-2v-2h-1v-3h1v-1zm2 8h-1v2h1zm-1 9h-2v1h2zm2-4v-1a1 1 0 000-1 1 1 0 00-1 1 1 1 0 001 1z"/><g transform="matrix(.78344 0 0 .79511 199 154)"><circle cy="311" cx="423.7" r=".9"/><circle cy="286.8" cx="423.7" r=".9"/></g><path d="M585 367l1-2v-1l1-1 2-1v-3h-1l-1-2h-1l-1 1h-1v1h1v2l-1 1h-1l-3 3v2l-1 1-1 2h-3l-1 3v3l3 1 1-2h1v-2l1-1 1-1v-1l2-1 2-1zm7 2v-5l-3-1-2 2v4h-2v5h-1v2l-4 1v2l-1 1-1 2-1 5s2 3 2 1 3-1 3-1v-1h5c0-2 2-1 2-1l2 1 1-2h2v-2l1-1v-3c2-1 2-3 2-3l1-1-1-1v-2l-1-1c-1 1-1-1-1-1h-3zm3 20c0 2-3 3-3 3h-2l-1-1v-3h2v1h4zm9-10l1-3v-2l-3 2 2 3zm8-9l3 5c1 1 0 2-1 1l-3-4v-2h1zm2 50l-2 1 1 1 2-1zm-6-2v2m26-5l-1-1-1 1v1zm46 36l2 1v3c2 2 9 0 9-1l-1-6-1-1v-4c1-2-3-5-3-5l-3 1v6c1 2-1 1-1 2l-2 4zm-3-7l-2 2 1 1a1 1 0 001 0l1-3h-1zm-8-31h1v4h-1zm17-32c0-1 4-3 4-1v2l-4-1zm4-22l1 1 1-1-2-1zm-5 3l1-1v-1h-1l-1 1-1-1-1 1 2 1 1-1zm6-42h-2l-2-2c-3-2-3 1-3 1h-3v3h-1v2h2v1c0-1 5 0 4 2 0 1 5 3 4 6 2 0 2 3 2 3h3v-2h1v-1h-2v-6h-1v-2h-1l1-2-2-3zm8 17h-2l-3 1-1 3 1 2c0 2 1 8-1 9v4c1 2 1 1 2 0l2-2 1-3 1-4v-3-2c-1-1 1-3 1-4l-1-1zm2 7v-1h1v1zm0 5l-1-1v-1l1 1zm-2-13v-2-2l-1-2-1-2-1-1v-3s-2-1-1-2l1-1v-2l1 2 1 3 1 2 1 4v2l1 4h-2zm-11-28l2 2 1 1 2 1v3l1 2h1l1-2-2-2-1-2-1-1-2-2h-2zm2-1l-2-2-1-1s-2 0-1-1-1-1-1-2h1l2 1 1 2 2 1 1 1-2 1zm-19 19h-5s0-3 2-3 1-3 1-3-1 0 0 0v-3l-1-1h2l1-4h3l1 1-1 2s2 2 1 3-2 0-2-1v2c1 1-1 2-1 2s-3 0-1 1l4 1h2l-1 1h-5v2zm-11 1h3l-1 2h-2v-2zm21-14c2-1 5-1 4-2s2-1 2-1l1 2 1 1v2h-1c-2 0-1 1-1 1l-4 1v-2l-2-2zm-6-9c1 0 0 4 2 4s0 1 2 1 2-2 3-3 0-2-1-2l-2-2-1-1-1-2-2 1-2 3c0 2 1 1 2 1zm4 14l1-1 1 1-1 1zm-1-1h1v1h-1zm0-23l1 2h-1l-1-2zm-2 16h1v1h-1zm-3 0v-1h2v1zm-14 16h-1l1-1h1zm-5-3v-1h2v1zM622 323v1h3v-1zm-3 1v-1l1-1v2zm-1 1v-1h1v1zm9-3v2h1l1 1 2 1 3-1v-3l-2 1-3-1h-2zm8-1l1 1h3l1 2 3 1h4l2 1c2 1 3 2 4 1s0-3 0-3-3-4-4-4l-2 1c-1 1-5 0-5-1l-3-1-1-1c0 1-1 2-2 1l-1 1zm38-22l1-4-1-2c0-2-2-3-3-3l-1-3 2-1s-5-8-7-7-4-1-4-3-6-6-6-6-2-2-2-1v3h2l3 4-2 1 1 1h2v3l2 2v3l-1 3 2 2h2v3c1-1 3 1 3 2l2 2 3 2c2 1 2 0 2-1zm-27-23v-3l2 1c1 1 1-1 1-1h2l2 2v1h-2c0-1-2-1-2 1l-1 3-3-1 1-3zm-1-5v-1l-1-1s-3-1-2-2-3-1-3-1l-2-3v-1h-2v-1h-2l1 1 1 3 2 2h2l2 1 4 3zm-19-18h-1v1h2zm0-6l2 1c2 0 3 1 3 2h1l1-1-2-2-1-1h-2s-1 2-2 1zm31 1l-2 4v2h3v2c3 0 4 3 3 4s1 1 1 1v3l3 2c1 1-1 5-1 5l1 1 1 2v4h3c0-2 4-2 5-2 3 1 5 6 5 7l-2 1v5c3 0 6 5 5 5l2 1c1-3 3-2 4-1v3l1 1 1 2 2-1 1 1 2 1 2 2 3 1 2 1 1 3 2 1 1 2 2 1v2h2v2h3l2-1 4-4c0-1 0-3 2-2s1-4 1-4l-3-3-2-3-2-3-1-2-2-3-1-1h-2l-4-5v-1l-1-1v-1l-1-1h-2l-3-4-1-2h-2l1-4v-4l-3 1v-4l-1-1h-3v-2l-1-3-1-1v-1h-2v-2h-2v-3h-4l-1-1-1-2-4-1-1-1h-2l-1-1-1 1h-3v1l-8 1zm17-4c0-2 3-3 4-2s3 1 4 6c0 2-3-1-3-1l-3-1-2-2zm-49 2l-1-1 1-1h1zm-8-17l-2-2v-2h-1l-1-3-2-1-2 1-2 2h-3l-1 2h5l1 2h4l2 3c3 0 3-1 2-2zm-1-8c0-2-2 2 0 2h4l1-1 8 1 1-2h3c1 1 0-3-1-2h-5-3l-1 1h-4c0 1-2 2-3 1zm-16 28h4l1-1-1-2-2-1-2-2-1 3 1 3zm-19 2h4l1 2 1 1h-2l-3-1-1-2zm55-35l-1-1v1l1 1v1-1l2-1-1-1zm-9-5v1l1 1h1l1-1v-1l-2 1zm-4 36h-2v1h1l1 1h1l-1-2zm-55 47v2h3l-1-1-2-1zm3 0l1-1 1 1-1 1zm-30-32h1l1 1h-1zm46 217v1h1v1l2-1-1-1zm-11-12h-1l-1 1h1l1 1v-2zm124-32l-1-1-1 1a2 2 0 011 0v2l1-2zm0-3v-1h1v1zm40-13c1 0 2-1 1 1l-1 2v-3zm8-7v-1h-1v1l1 1v-1z"/><path d="M746 413a22 22 0 001 2l1-1a20 20 0 01-1-2l-1 1zm-4 4v1l1-1s-1 0 0 0zm-4-20a1 1 0 000-1h-3l1 1h1l1-1zm-46-54l-2 1-1 1v3l-2 2-1 1h-4c-2-1-1-3 0-3v-3h1l1-3-1-2-2-2h-3l-1 1-2 1v1c-1 2-5 4-3 0l1-1v-2h-3l-2-1v-1l-4-4-4-1v-1h-2c-3-2-6 0-6 2s2 4 0 4l-2-1h-1v2l-1 2-2-3c0-1-2-4 0-4s0-2 1-3h3l1-1h-4l-2-1c-3 2-3 4-3 4-2 3-5-1-4-2h-4l-3 1c-1 1-3-1-3-2l1-1h-1l-1 1c-2 0-3 2-2 3s-1-1-1 1 0 1 1 1v2c1 1 3 0 2 1l-4 1h-4l-2-3-4-1c0-2 2-1 3-3l1-4h-3l-2 2-1 1-1 1v1c-1 2-5 0-5 0l-2-1-2-1-3 1h-3v2l5 1v4h-3l-1-2h-1v4l1 1 1 1h2v2h4l1 1h2l5 5v2h-1l-2 1v1h2l2-3c2-1 3 1 3 2l-1 1v2l1 1c2 2-1 3-1 3v1c-1 2-3 2-3 2v1h-2l4 1c0-2 1-2 2-1v2h1v2h1v5l1 2c2-1 2 0 1 1v4h-1v2h-1v2h-9c1 2-1 2-1 2l-1 1c1 2-1 2-1 2v4l-2 1v5h3l3 2h1v-3l-1-1v-5l2-1c2-1 1 4 1 4l2 2c2-1 1 2-1 1s0 2 0 2h1l-2 2-1 1h-4v-2h-2v3l-1 1-2 2c3 0 0 1-1 1 2 1 0 2-4 1v1l-1 1 1 1h2l-1 3c0 2-5 1-6 0v3h-1v5h2v1h4l7-7h3c1-2 2 0 2 0l2 1h3v2h1l1-2h1l-1-1-2-1-2-1c-1-2 0-1 2-1h2l2 4 1 1h2v1h2v1h3l1-1-3-1v-2h-2c-1-3 0-4 1-2h1v-3h1l-1-4h-1v-1h5v-3h1v1h5l4-4v-1h-2v-4l2-1v3c2-2 4 0 4 0l2 1c1 0 2 1 1 2s-3 1-3 0h-4l-4 4c2 1 1 3 1 3l-2 1-5 1v1c-2 0-3 2-3 3v3h5c0-2 1-2 3-3s3 2 3 3l-1 2v1l-2 1-1 1v1h-5l-3 1v1h-2s-2 1-1 2-4 1-6 0h-2l-2-1v-2c0-2-3-2-3-1l-6 1-2 1-2 1v1h-3l-1 1-1-1h-1l-1 1-7 3-1 2-2 1-1 1-2 1v3l-1 1v2h-1v1h-2l1 3h1c3 1 2 3 2 3l1 1 1 1 1 3c1 2 2 2 3 1s1 2 1 2l7 1 1 1h9c-1-2 4-2 6-1l4 1 2 3 2 4h3l2 1 1 3h1l1 2c1 1-1 4-1 4v4h1v2l2 2h3l6 7 5 1 1 3h1l1-1h4l2-2h3l18-16-2-1v-4c3-2 3-6 1-6s-1-3 0-3h2v-2l3-4v-2l-8-7c-3-1 0-10 3-9s0-13 0-13l-2-1 1-4h-2l-3 4-1 3c0 4-11 3-11 2l-4-2-3-1-3-1-2-1-4-1h3l-1-2 5 2h2l1 1 2 1h5l1 1 2 1h5l1-3 1-1-1-2 2-1v-2h1v-4h1v-8l-3-3-3 1-1 1v3l-1 1-3 1h-3v-2l3-1h1l1-2c0-2 2-2 2-2l4-4c0-1 2-6 4-6h4c2-1 1-3 1-3h3v1h3s1-2 2-1 4-2 4-2h4v-2l-3-4-3-1c-3-1-3-5-3-5l-1-2-3-4c-2-2 0-4 0-4l2-3 1-2 3-1v-2h-1l2-3 7-1 2-3 2-1 2-2c1-1-1-5-2-4zm-92 60l1 1v1 1l-1 1h-2v1s-3 0-2-1v-2h1c0-1 0-2 1-1v-1l-1-1v-3h3v2h1l-1 1v1zm-8 2c0-1 1-4 2-3h2v1l-1 2-2 1-1-1z"/></g></svg>