<svg xmlns="http://www.w3.org/2000/svg" xmlns:xlink="http://www.w3.org/1999/xlink" width="450" height="300" xmlns:v="https://vecta.io/nano"><path d="M0 0h450v300H0z" fill="#bf0a30"/><path d="M37.5 148.84L224.225 275 412.5 148.595 224.225 25 37.5 148.84z" fill="#002868"/><path d="M84 149.128L224.417 244 366 148.944 224.417 56 84 149.128z" fill="#fff"/><path d="M148.175 145.014H156l1.36 4.376h4.82l-7.48-21.228h-5.115l-7.57 21.228h4.67l1.478-4.376zm3.903-12.063h.06l2.63 8.397h-5.4l2.72-8.397zm12.97 16.438h4.346v-8.308h4.583c1.58-.014 2.567.294 2.96.924s.56 1.662.5 3.097l.126 2.587c.083.652.198 1.218.347 1.7h4.908v-.562c-.453-.137-.73-.498-.828-1.083s-.138-1.633-.118-3.145c-.003-1.91-.233-3.205-.69-3.888s-1.124-1.18-2-1.493c1.055-.375 1.864-1.014 2.428-1.918s.848-1.95.854-3.138c.022-.65-.137-1.44-.477-2.37s-.994-1.757-1.962-2.482-2.382-1.108-4.242-1.15h-10.732V149.4zm4.346-11.885v-5.677h5.53c1.268.046 2.1.368 2.528.968s.6 1.204.577 1.81c.001 1.04-.282 1.784-.85 2.236s-1.428.672-2.58.662h-5.203zm21.78 4.7l2.07-2.13 6.563 9.313h5.706l-9.165-12.536 8.663-8.692h-5.736l-8.1 8.633v-8.633h-4.435V149.4h4.435v-7.184zm21.1 2.81h7.835l1.36 4.376h4.82l-7.48-21.228h-5.115l-7.57 21.228h4.67l1.478-4.376zm3.903-12.063h.06l2.63 8.397h-5.4l2.72-8.397zm25.92 9.993h-.06l-8.426-14.783h-4.67V149.4h4.14v-15.137h.06l8.663 15.137h4.435v-21.228h-4.14v14.783zm7.322-.09c-.03.916.18 1.92.632 3.01s1.336 2.034 2.65 2.832 3.245 1.216 5.796 1.255c.7.032 1.69-.095 2.997-.382s2.513-.93 3.615-1.926 1.686-2.543 1.755-4.64c-.05-1.862-.615-3.2-1.693-4.017s-2.366-1.38-3.866-1.69l-5.174-1.27c-.482-.08-.967-.268-1.456-.565s-.753-.848-.79-1.652c.05-.947.454-1.61 1.216-1.992s1.588-.565 2.48-.55c1.868.074 3.062.488 3.58 1.242s.774 1.404.765 1.95h4.257c.01-.904-.23-1.882-.714-2.935s-1.33-1.96-2.534-2.724-2.88-1.164-5.03-1.2c-2.27.037-3.995.426-5.177 1.168s-1.98 1.616-2.398 2.62-.612 1.92-.585 2.745c.067 2.254.76 3.778 2.084 4.572s2.875 1.35 4.657 1.667l2.277.532c1.143.24 2.065.537 2.764.894s1.06.936 1.08 1.737c-.054 1.098-.53 1.837-1.43 2.217s-1.9.558-3.005.532c-1.88-.07-3.11-.493-3.688-1.27s-.848-1.498-.806-2.158h-4.257zm25.337 2.158h7.835l1.36 4.376h4.82l-7.48-21.228h-5.115l-7.57 21.228h4.67l1.478-4.376zm3.903-12.063h.06l2.63 8.397h-5.4l2.72-8.397zm11.875 9.904c-.03.916.18 1.92.632 3.01s1.336 2.034 2.65 2.832 3.245 1.216 5.796 1.255c.7.032 1.69-.095 2.997-.382s2.513-.93 3.615-1.926 1.686-2.543 1.755-4.64c-.05-1.862-.615-3.2-1.693-4.017s-2.366-1.38-3.866-1.69l-5.174-1.27c-.482-.08-.967-.268-1.456-.565s-.753-.848-.79-1.652c.05-.947.454-1.61 1.216-1.992s1.59-.565 2.48-.55c1.868.074 3.062.488 3.58 1.242s.774 1.404.765 1.95h4.257c.01-.904-.23-1.882-.714-2.935s-1.33-1.96-2.534-2.724-2.88-1.164-5.03-1.2c-2.27.037-3.995.426-5.177 1.168s-1.98 1.616-2.398 2.62-.612 1.92-.585 2.745c.067 2.254.76 3.778 2.084 4.572s2.875 1.35 4.657 1.667l2.277.532c1.143.24 2.065.537 2.764.894s1.06.936 1.08 1.737c-.054 1.098-.53 1.837-1.43 2.217s-1.9.558-3.005.532c-1.88-.07-3.11-.493-3.688-1.27s-.848-1.498-.806-2.158h-4.257z" fill="#002868"/><path d="M229.484 49.98l-5.52-4-5.51 4.018 2.095-6.49-5.522-4.004 6.815-.012L223.94 33l2.118 6.484 6.818-.01-5.507 4.02 2.116 6.487z" fill="#fff"/><path d="M234.964 190L225 197.08l-9.976-7.075 3.8 11.452-9.966 7.09 12.32-.003L225.004 220l3.804-11.454 12.325-.01-9.968-7.076 3.8-11.46z" fill="#002868"/><path d="M202.7 190l-9.964-7.08-9.976 7.075 3.8-11.452-9.966-7.09 12.32.003L192.74 160l3.804 11.454 12.325.01-9.968 7.076 3.8 11.46z" id="A" fill="#002868"/><path d="M215.98 243.54l-4 5.52 4.018 5.51-6.49-2.095-4.004 5.522-.012-6.815-6.493-2.098 6.484-2.118-.01-6.818 4.02 5.507 6.487-2.116z" id="B" fill="#fff"/><path d="M233.02 243.54l4 5.52-4.018 5.51 6.49-2.095 4.004 5.522.012-6.815 6.493-2.098-6.484-2.118.01-6.818-4.02 5.507-6.487-2.116z" id="C" fill="#fff"/><use id="D" width="450" height="300" xlink:href="#A" x="64.528"/><use width="450" height="300" xlink:href="#D" x="-32.264" y="-85"/><use id="E" width="450" height="300" xlink:href="#B" x="151.478" y="-119"/><use id="F" width="450" height="300" xlink:href="#E" x="-27" y="-18"/><use id="G" width="450" height="300" xlink:href="#F" x="-27" y="-18"/><use id="H" width="450" height="300" xlink:href="#G" x="-27" y="-17"/><use id="I" width="450" height="300" xlink:href="#H" x="-27" y="-18"/><use id="J" width="450" height="300" xlink:href="#I" x="-163.478" y="108"/><use id="K" width="450" height="300" xlink:href="#J" x="24" y="16"/><use id="L" width="450" height="300" xlink:href="#K" x="24" y="16"/><use id="M" width="450" height="300" xlink:href="#L" x="24" y="17"/><use width="450" height="300" xlink:href="#M" x="24" y="16"/><use width="450" height="300" xlink:href="#B" x="-144" y="-99.075"/><use id="N" width="450" height="300" xlink:href="#C" x="-151" y="-119"/><use id="O" width="450" height="300" xlink:href="#N" x="27" y="-18"/><use id="P" width="450" height="300" xlink:href="#O" x="27" y="-18"/><use id="Q" width="450" height="300" xlink:href="#P" x="27" y="-17"/><use id="R" width="450" height="300" xlink:href="#Q" x="27" y="-18"/><use id="S" width="450" height="300" xlink:href="#R" x="187" y="90.925"/><use id="T" width="450" height="300" xlink:href="#S" x="-24" y="17.075"/><use id="U" width="450" height="300" xlink:href="#T" x="-24" y="16"/><use id="V" width="450" height="300" xlink:href="#U" x="-24" y="16"/><use id="W" width="450" height="300" xlink:href="#V" x="-24" y="17"/><use width="450" height="300" xlink:href="#W" x="-24" y="16"/></svg>