<svg xmlns="http://www.w3.org/2000/svg" width="594" height="459"><style>.B{fill:#129612}.C{stroke-width:.375}.D{fill:#7eff00}.E{stroke:#000}.F{stroke-width:.125}.G{fill:#642864}.H{stroke-width:1.403}</style><path d="M0 0h594v459H0V0z" fill="#0c2d83"/><path d="M282 64h35v25h-35z" class="B"/><path d="M265 82l5 1a69 69 0 017 1l3-1c-1-2-15-2-15-1zm62 0l-3 1 7 1 7-1-2-1-4-1-5 1zm-28-29l-3 4-2 3c0 1 0 1 0 0-2-4-3-5-5-4a19 19 0 01-5 2l-4 2-4 1c-5 0-7 2-13 7l-3 2c-2 0-2 0 0 3l3 1h2l3 1c1 0 1 1-1 1l-7 4c-3 4-4 5-1 5l2 1 5 1c3 0 4 0 4 2s1 2 6 0c6-3 9-5 12-9 2-3 2-5 0-5-1 0-2-3-1-5s4-2 6 0 2 2 5 1h6c2 1 3 1 4-1 3-2 5-2 7-1v6c-2 0-2 2 0 5 1 3 4 5 10 8 5 3 6 3 7 1 0-2 1-2 4-2l5-1 2-1c3 0 2-1-1-5l-7-4c-2 0-2-1-1-1l3-1h2l3-1c2-3 2-3 0-3l-3-2c-5-5-9-7-14-7l-2-2-3-1-4 1-4 1c-3 2-4 2-4-1l-2-4-3-4-4 2zm5 4l3 4c1 3 2 4 6 2l5-2 3-1v3c-2 6 0 2-5-1l-1 3 1-2-9 6h-2c-2-1-2-1-2-7 0-4-1-6-2-6v6c0 6-1 6-2 7h-4c1-1-5-8-6-7l1 3 1 2h-3c-2 0-3 0-4-2l-2-2c0-1 3-3 5-3l1-1 1-1c2 0 3 2 3 4l1 2c1 0 2 1 3-1l1-3 2-2 2-3 3 2zm-24 7c0 2-2 3-6 3-3 0-6 2-6 3h5c2-1 2-1 2 1l-1 3h-3l-2-1h-2l-2-1c-3 1-3 0-1-2 4-4 7-6 11-7 5-1 5-1 5 1zm48 0c4 1 12 6 11 8h-1l-2 1h-2l-3 1c0 1-2 1-3-1l4-3 5-1-6-1-6-1-2-1v-2l2-1 4 1zm-44 4c2 3 1 4-2 4h-4l3 2 5 2 3 1-3 2c-3 1-3 0-7-1l-2-1v-2c-1 0 0-4 2-6l3-2 2 1zm40 1l2 8-6 2c-2 0-5-2-5-3l5-3c2-1 3-3 2-3l-3 2c-2 1-1 0 1-2s1-3 4-1zm-49 11l5 2c4 0 5 0 3 1l-6 3c-4 2-4 3-4 1-1-2-2-2-5-2-2 1-7 0-7-1l5-6c3 0 8 0 9 2zm64 1l2 3c0 1-4 2-7 1s-4 0-4 2l-1 1c-3 0-8-4-10-5-1-2-1-1 3-1l5-2 7-2 5 3z"/><path d="M301 55l-3 3-2 4-2 2-2-3c0-3-2-4-4-2l-2 1-4 2v1l1 2c2 2 2 2 5 2h3v-1l-2-4 6 6v1l1 1 4-2 1-6 1-6v7l1 5 3 2 3-2 4-3c3-2 4-2 2 0l-1 2 4 1h1l3-8h-2l-2 1-5 1c-4 2-5 2-6 0l-1-3-5-5v1zm-26 8l-10 5-3 4h2l2 1 3 1h2l2 1 2-4c0-2-1-2-4-1h-3l6-2c4-1 6-2 6-4v-2l-2 1h-3zm48 0v1l-1 1 4 3h5l6 2h-9v2c0 2 1 3 2 3h1l3-1 2-1 2-1h2c0-1-4-5-8-7-3-2-8-3-9-2zm-43 5l-4 6v1l1 2 3 2h6l3-2-2-1-6-3-2-1h2l4-1-3-4-2 1zm40 1l-2 3h1l3-1-3 3c-4 2-4 3-3 4l4 2 5-2 1-3c0-3-1-5-3-6-1-2-2-2-3 0zm-54 9l-6 6 4 1 4 1 5 1 1 1 8-4 2-2-3-1-6-1-2-1-7-1zm9 4l5 1-1 1-7-1h-7l1-1h9zm56-4l-4 2-4 1-5 1 9 6c2 1 3 1 3-1l5-1 5-1 2-1-4-5a15 15 0 00-2-1h-5zm1 3l3 1c3 0 4 1 2 1h-13 2l4-2h2z" class="B"/><path d="M248 308h0c11 13 41 14 49 30 13-17 41-19 57-32h0" fill="none" stroke="#d2d2d2" stroke-width="3.1"/><path d="M235 149c-2 0-4 1-5 3h3l2-1v-2zm129 0c2 0 4 1 5 3h-3l-2-1v-2zm-55 65l5 2-2 1c0-1-1-2-2-1l-1-2z" fill="#b68c5b" class="C E"/><path d="M313 80l4 1c8 24 49 24 57 8-4-4-5-7-4-12 0-3 1-9 9-10 3 0 5 2 5 11 1 15-17 30-35 29-11-1-37-8-36-27z" fill="#fff"/><g class="E"><g class="C"><path d="M261 188l-2-5h-1l2 4 1 1zm1-44l-2-5h-1l2 5h1zm-33 13l2-5h1l-1 4-1 1h-1z" fill="#0f0"/><path d="M260 185l2 1 2 4c0-1 2-3 1-4l-5-1zm0 1l-2 1-1 7c0-2-3-4-2-6 0-1 4-3 5-2zm0-1l-2 1c0 2-2 5-1 7 0-2-3-4-2-6 0-1 4-3 5-2zm1-43h2c1 1 3 3 3 5v-5h-5zm0 0l-1 1c-1 2-2 5-1 7l-3-5c1-2 4-3 5-3zm0-1l-1 1-2 7c0-1-3-4-2-6 0-1 4-3 5-2zm-31 13l-1 1-3 4v-4l4-1zm0 1l2 1c0 2 2 5 1 7 0-2 3-4 2-6 0-1-4-3-5-2zm1-1l1 1c1 2 2 5 1 7l3-6c-1-1-4-3-5-2z" class="D"/></g><path d="M260 185l-2 1c-1 1-2 3-1 4-1-1-4-2-3-3 0-1 4-3 6-2zm0 0l1 2c1 1 2 4 1 6l3-5c-1-2-4-4-5-3zm1-44l-2 1c0 1-2 4-1 5l-3-4 6-2zm0 0l1 2c1 1 2 5 1 6 1-1 3-3 3-5l-5-3zm-30 13l1 1c1 1 2 3 1 4 1-1 4-2 3-3 0-1-4-3-5-2zm0 0l-2 2c-1 1-2 4-1 6l-3-5c1-2 4-4 6-3z" class="D F"/><g class="C"><path d="M339 188l1-5h1l-1 4-1 1zm-2-44l2-5h1l-1 5h-2zm33 13l-2-5h-1l2 4 1 1z" fill="#0f0"/><path d="M339 185l-1 1-3 4v-4l4-1zm0 1l2 1c1 2 2 5 1 7l3-6c-1-1-4-3-6-2zm1-1l1 1c1 2 2 5 1 7l3-6c-1-1-4-3-5-2zm-2-43h-1c-1 1-3 3-3 5v-5h4zm0 0l2 1 1 7c0-1 3-4 2-5 0-2-4-3-5-3zm1-1l1 1c1 2 2 5 1 7l3-6c-1-1-4-3-5-2zm30 13l2 1 3 4v-4l-5-1zm0 1l-1 1-2 7c0-2-3-4-2-6 0-1 4-3 5-2zm0-1l-2 1c0 2-2 5-1 7 0-2-3-4-2-6 0-1 4-3 5-2z" class="D"/></g><path d="M340 185l1 1 2 4 3-3c-1-1-5-3-6-2zm0 0l-2 2c0 1-2 4-1 6 0-1-3-4-2-5 0-2 4-4 5-3zm-1-44l1 1c1 1 2 4 1 5 1-1 4-3 3-4l-5-2zm0 0l-2 2c-1 1-2 5-1 6-1-1-3-3-3-5l6-3zm30 13l-2 1c-1 1-2 3-1 4-1-1-4-2-3-3 0-1 5-3 6-2zm0 0l1 2c1 1 2 4 1 6l3-5c0-2-4-4-5-3z" class="D F"/><g class="C"><path d="M284 252l2-5h1l-2 4-1 1zm-1-44l2-5 1 1a14 14 0 00-2 4h-1zm32 13l-1-5h-1l1 4 1 1z" fill="#0f0"/><path d="M285 249l-2 1-3 4v-4l5-1zm0 1l1 1 2 7c0-1 3-4 2-6 0-1-4-3-5-2zm0-1l2 1c0 2 2 5 1 7 0-2 3-4 2-6 0-1-4-3-5-2zm-1-43h-2c-1 1-3 3-3 5v-5h5zm0 0l1 2c1 1 2 4 1 6l3-5c-1-2-4-3-5-3zm0-1l1 2c1 1 2 4 1 6l3-5c0-2-4-3-5-3zm31 13l1 1 3 4v-4l-4-1zm0 1l-2 1c-1 2-2 5-1 7l-3-6c1-1 4-3 6-2zm-1-1l-1 1c-1 2-2 5-1 7l-3-6c1-1 4-3 5-2z" class="D"/></g><path d="M285 249l2 1c1 1 2 3 1 4 1-1 4-2 3-3l-6-2zm0 0l-1 2c-1 1-2 5-1 6l-3-5c0-2 4-3 5-3zm-1-44l2 1c0 1 2 4 1 5l3-4-6-2zm0 0l-2 2-1 6c0-1-3-3-2-5l5-3zm30 13l-1 1-2 4-3-3 6-2zm0 0l2 2c0 1 2 4 1 6l3-5c-1-2-5-3-6-3z" class="D F"/></g><g fill="#ffd300"><path d="M366 365c-12 14-18 9-30 6-12-4-25-10-37-13s-42-5-60-6c-16 0-22-7-23-12 0-1 6-2 16-1 11 1 12 1 14-2a16 16 0 002-3l1-3c0-4-3-10-32-10l-23-1 8-23c3-7-9-8-9-8-12 0-21 0-26-2-11-2-20-3-36-3-16 1-30 1-52-5 2 8 19 20 19 20l-26 12 7 1c22 7 36 7 52 6l28 1-6 19c11 11 18 16 51 19l-7 8 2 1c12 16 18 21 45 22 28 0 40 0 62 9 21 10 30 13 47 8l3-6c4-8 5-23 8-26l7-10-5 2"/><path d="M441 328c4 2 8 3 19 0 12-4 45-9 63-8-7-6-25-15-25-15l18-15-11-1c-20-6-38 0-55 7l-8 3-4-13s-6-5-22 0c-15 5-18 13-17 15l7 15-23 9c-27 8-33 12-57 29l6 15 13 5h6l1 1c13-10 22-14 42-20 28-8 41-16 38-24l-5-12s6-4 9-3l5 12"/></g><g fill="#fff"><path d="M161 315l3-12c1-2 5-4 17-2 8 1 15 2 19-1 0-5-7-5-7-5-12 0-21 1-26-1-11-3-20-4-36-3-15 1-27 1-46-4 3 4 13 11 13 11l-19 9c22 7 36 7 52 6 13-1 22 0 30 2m57 24h14c9 1 12 0 13-1l-6 14s-24 1-23-13"/><path d="M371 363l-5 7c-9 12-20 9-33 6-12-4-25-10-37-13s-42-5-60-6-23-8-23-14l1-1 3-6c2-3 8-3 17-1h12v-1c0-4-3-8-32-8s-36-3-43-6c-4-2-10-8-8-11l-7 21c11 12 17 18 51 22l-6 8c12 16 18 21 46 22 27 1 40 0 61 10s31 13 48 8m-191-93c1 3 6 7 9 8 4 2 9 4 20 5l6-18c-2 8-11 6-22 4m261 16c4 2 7 3 19 0 11-4 39-9 56-8l-17-8 13-11h-3c-19-6-38 1-54 8-17 6-19 5-21 3l-4-9s0-4 3-5l4-2s-3-5-17 0-15 11-14 13l5-2c3-1 10-5 11 0l2 5c3 8-10 16-37 24s-33 11-57 29l4 10 12 4c17-12 25-16 49-23 27-8 40-16 37-24l-4-12s5-4 8-3l5 11"/></g><path d="M170 330c-1 2-1 4 1 6h1v-3l2 1v2l2-2v-5c-2-1-5 0-6 1l-2-1c2-3 6-4 9-2s3 6 1 9l-4 2 1 3-3-1v-1l-3-1c-3-2-3-6-1-9l2 1m17 1h2l-1 7c-1 1-1 3 1 4 2 0 3-2 3-4l2-6h2l-2 7c-1 3-2 5-6 5-3-1-4-3-3-6l2-7m16 13h-2l2-12h3l-3 12m10 23l-2-1 6-8-2-2 1-2 6 5-1 1-2-1-6 8m16-2l-1 2c2 1 3 1 3-1 1-1 0-2-1-2l-1 1-2-1 1-3 3 1c3 1 4 3 3 5l-4 2 1 6-3-1-1-5-2 4-3-1 5-8 2 1m15 4l-2 3h3v-4l-1 1h-2l3-5h2l1 13h-2l-1-3h-4l-2 2h-2l5-7h2m13-5l2 1 5 8 1-8h3l-3 13h-2l-4-9-2 8h-3l3-13m23 5l-1-1-2 1c-1 2 4 2 3 6 0 2-2 4-5 4l-3-3 2-1 2 2 2-2-2-2-2-4c1-2 3-3 5-3l3 2-2 1m9 11h-2l3-10h-2l1-2 7 1-1 2-2-1-4 10m11-10l3 1-3 7c0 1-1 3 1 4s3-1 3-3l3-6 2 1-3 7c-1 3-3 4-6 3s-3-4-2-7l2-7m14 17l3 1-1 2-6-2 5-11h2l-3 10m10 6l-2-1 4-11 2 1-4 11m10 3l-2-1 3-9-3-1 1-2 7 2-1 2-2-1-3 10m10-40h-2l-1 2c1 2 5-1 7 3 1 2 1 4-1 5h-5l1-2h3v-2l-3-1c-1 1-3 0-4-1-1-2 0-4 2-5l3-1v2m4-5l2-1 3 6c1 1 2 3 4 2s1-3 0-4l-3-6 2-1 4 6c1 3 1 5-2 7s-5 0-6-3l-4-6m20-7h-3v2c1 2 5-1 6 3 1 2 1 4-2 5h-4l1-2h3v-2l-3-1c-1 0-3 0-3-2-1-2-1-4 1-5h4v2m13 5l-2 1-4-10-3 1v-2l7-2v2h-2l4 10m8-3l-2 1-4-12 2-1 4 12m1-14h1l9 6h1l-3-8 2-1 4 12-1 1-9-6 2 8h-2l-4-12"/><g fill="#fff"><path d="M286 82c2 7 16 6 19 6l13-4v1c4 10 19 16 31 15 13 0 21-4 25-11-4-4-5-5-4-13 0-5 4-9 8-9 5 0 9 4 13 8 6 5 10 12 17 17 5 4 12 4 17 8s12 10 14 17c2 5-2 11-5 11-4 0-9-4-8-7-7-5-21 6-24 18-5 17 2 34 10 41-2 7-12 13-16 17-2 6 0 15 6 19l24 1c3 2 2 6 3 9 1 4 3 9 3 14-3 14-7 26-21 36-7 5-13 8-21 11-3-3-7-8-11-10-13 0-28 6-33 16-2 4 4 9 10 15-13 9-29 14-43 20-5 3-9 6-16 14-8-9-12-13-19-16-12-6-27-9-36-18 5-4 9-7 10-12-8-10-18-21-30-24-4 2-9 9-13 14-30-6-55-40-39-67 4 1 9 3 13 1 8-5 18-11 18-21 0-9-7-15-15-19 5-4 11-18 12-28 0-9-5-17-10-25-2-4-7-8-11-9-1 2-6 7-11 7-4 1-10-3-10-7 0-3 2-8 5-11 11-6 23-10 32-18 6-4 8-12 14-17l7-4c6 25 15 28 28 32 14 2 32-4 44-18z"/><path d="M283 81c-2 11-22 18-34 19-11-1-19-6-26-14 2 0 6-6 5-11 0-3-3-7-7-8l-7 1c-5 27 23 38 37 38 14-1 35-11 34-25h-2z"/></g><path d="M407 328l2 3 3-2 1 2-4 2 2 3 3-2 1 2-6 3-5-12 6-2 1 2-4 1m17 3l-2 1-4-9-2 1-1-2 7-4 1 2-2 1 3 10m-69-30h-1 1m0 1h-1 1M356 302"/><path d="M402 307c2 2 6 0 11-2 4-1 7-2 6 1 0 3-12 10-13 9l-4-8zm39-8l-4 1c-3 0-5 2-5-1 1-3 8-6 8-6l1 6zM173 102l10-5c9-6 10-6 15-12 7-8 3-6 9-12 1 10 20 40 39 40 25 0 40-15 44-25h18c5 15 25 25 42 25s41-12 39-40c26 34 24 16 45 36-37-3-65 48-34 84-4 5-6 13-3 13l15 13c31 29-9 54-29 59l-31 22h-9c-10 11-34 11-46 25-15-17-34-12-42-27h-5l-39-20c-27-12-39-20-30-54 25-17 23-25 18-35 19-30 20-72-30-85l4-2z" fill="#fff"/><g class="C E"><path d="M263 188c1-2 2-2 3-1 1 0 2 2 1 3 2 1 2 4-1 4 2 1 2 4 0 4 1 2 0 4-1 4l-2 2v3l-1 1-2 2-2-2c-2-1-2-3 0-4-2-1-2-3-1-4l-1-1-1-3c-2 0-2-2-1-3-1-2-1-4 1-4-1-1 0-2 1-3l2 1 3 1h2zm1-44c1-1 2-2 4-1v3c2 1 2 4-1 5 2 0 2 3 0 4 1 1 0 3-1 3l-1 2-1 3-1 1-2 2-2-2c-2-1-1-3 0-4-2-1-2-3-1-4v-1c-1-1-2-2-1-3-2 0-3-2-2-3-1-1-1-3 1-4l2-2 2 1h4zm-37 13c-1-2-2-2-3-1-1 0-2 2 0 3-3 1-2 4 0 4-2 1-2 4 1 4-2 2-1 4 1 4-1 1 0 2 1 2v3l1 1 2 2 3-2v-4c1-1 2-3 0-4l1-1 1-3c2 0 2-2 1-3 2-2 1-4 0-4l-2-3-2 1-3 1h-2zm109 31c-1-2-2-2-3-1v3c-2 1-2 4 0 4-2 1-2 4 1 4-1 2-1 4 1 4l1 2v3l2 1 2 2 2-2v-4c2-1 2-3 1-4v-1l1-3c2 0 2-2 1-3 2-2 1-4 0-4l-2-3-2 1-2 1h-3zm-1-44c-1-1-2-2-3-1-1 0-2 2 0 3-3 1-2 4 0 5-2 0-2 3 1 4-2 1-1 3 1 3-1 1 0 2 1 2v3l1 1 2 2 2-2c2-1 2-3 0-4 2-1 3-3 1-4l1-1 1-3c2 0 2-2 1-3 2-1 1-3 0-4l-2-2-2 1h-3-2zm37 13c1-2 2-2 4-1v3c2 1 2 4-1 4 2 1 2 4 0 4 1 2 0 4-1 4l-1 2-1 3-1 1-2 2-2-2c-2-1-2-3 0-4-2-1-2-3-1-4l-1-1v-3c-2 0-3-2-2-3-1-2-1-4 1-4-1-1 0-2 2-3l2 1 2 1h2z" fill="#b400b4"/><path d="M259 205l2 4c-1 1-3 1-3-1-1-1 0-3 1-3zm2-1c-1 1 1 3 2 2-1 2-3 1-4-1l2-1zm1-4c-1 2 1 4 2 3-1 2-3 1-4-1l2-2zm-4-3c-1 1 1 3 2 3-1 1-3 1-4-1l2-2zm3-2c-1 2 1 4 2 3-1 2-3 1-4-1 0 0 0-2 2-2zm-4-2c-1 2 1 3 2 2-1 2-3 1-4 0l2-2zm6 0c-1 1 1 3 2 3-1 1-3 1-4-1l2-2zm-3-3c-1 2 0 4 1 3 0 2-2 1-3 0l2-3zm-5-1c-1 2 1 4 2 3-1 2-3 1-4-1 0 0 0-2 2-2zm1-2c-1 1 1 3 2 3-1 1-3 1-4-1l2-2zm6 1c-1 1 0 3 2 3-1 1-3 1-4-1 0-1 0-2 2-2zm3-2c-1 2 0 4 2 4-1 1-3 1-4-1 0-1 0-2 2-3zm-5-25c0 2 1 4 3 4-1 1-4 1-4-1-1-1 0-2 1-3zm2-1c-1 1 1 3 2 3-1 1-3 0-3-1-1-1-1-2 1-2zm1-4l2 4c-1 1-3 1-3-1-1-1 0-3 1-3zm-4-3c0 2 1 3 2 3-1 2-3 1-3-1-1-1 0-2 1-2zm3-2c-1 2 1 4 2 3-1 2-3 1-4 0l2-3zm-4-2c0 2 1 3 3 3-1 1-4 1-4-1-1-1 0-2 1-2zm6 0c0 2 1 3 3 3-1 1-4 1-4-1-1-1 0-2 1-2zm-3-3c-1 2 0 4 2 4-1 1-3 1-3-1-1-1 0-2 1-3zm-5-1c-1 2 1 4 2 3-1 2-3 1-4 0l2-3zm1-2c0 2 1 3 2 3-1 2-3 1-3-1l1-2zm6 1c-1 2 1 3 2 3-1 2-3 1-4-1l2-2zm3-1c-1 2 1 3 2 3-1 1-3 1-4-1 0-1 0-2 2-2zm-35 31c1 2-1 4-2 4 1 1 3 1 4-1l-2-3zm-1-1c0 1-2 3-3 2 1 2 3 1 4-1l-1-1zm-2-4c1 2-1 4-2 3 1 2 3 1 4-1 0 0 0-2-2-2zm4-3c1 1-1 3-2 3 1 1 3 1 4-1 0-1 0-2-2-2zm-2-2c0 2-1 4-3 3 1 2 4 1 4-1l-1-2zm3-2c1 2-1 3-2 2 1 2 3 1 4 0 0-1 0-2-2-2zm-6 0c1 1-1 3-2 3 1 1 3 1 4-1l-2-2zm3-3c1 2 0 4-1 3 1 2 2 1 3 0 0-1 0-3-2-3zm6-1c0 2-1 4-3 3 1 2 4 1 4-1l-1-2zm-2-2c1 1-1 3-2 3 1 1 3 1 4-1 0-1 0-2-2-2zm-5 1c0 1-1 3-3 3 1 1 4 1 4-1l-1-2zm-3-2c0 2-1 4-3 4 1 1 4 1 4-1l-1-3z" class="G"/></g><path d="M175 221l8-1c-12 26 6 48 31 60l-3 5c-25-11-48-35-36-64zm80 78h-5v7c10 13 39 14 47 29 12-16 39-18 54-31v-4h-8c-10 12-34 12-46 26-15-17-34-12-42-27zm156-82h8c15 33-3 52-31 67l-6-5c21-6 49-29 29-62zm-5-30l-6 5c-31-36-6-88 34-82 3 0 6 9 5 8-46-19-54 50-33 69zM313 80c0 3 2 4 4 4 1-1 2-4 1-5 0-3-2-6-4-6-3 0-6 3-6 7v9c5 15 25 25 41 25 18 0 42-12 40-40l-4-4c3 23-19 37-36 37-13-1-38-11-36-27zm-22-3c1 5 0 7-1 12-5 9-11 23-40 24-31 1-45-24-42-42l6-3c-5 18 13 38 37 38 16 0 36-14 33-25-6 0-7-10 2-10 5 0 6 4 5 6zm-124 27c51 10 52 58 31 85l-5-6c20-23 11-66-32-76l6-3zm208-15c3-4 5-5 5-9 0-2-1-7-3-7s-3 4-3 6c0 3 3 6 1 10zm51 32h9c1 1 2 2 1 3-1 2-3 2-4 2-3-1-3-3-6-5zM223 87l-5-10c0-3 2-6 4-6 1 1 3 5 2 8s-2 5-1 8zm-46 31c-5-2-7-4-12-4-2 1-5 3-4 6s4 4 6 3c4-1 5-4 10-5z" fill="#ffd312"/><g class="E"><path d="M340 205c1 2 0 4-2 4 1 1 3 1 4-1 0-1 0-3-2-3zm-1-1c0 1-1 3-3 2 1 2 4 1 4-1l-1-1zm-1-4c0 2-1 4-3 3 1 2 4 1 4-1l-1-2zm3-3c1 1 0 3-2 3 1 1 3 1 4-1l-1-2zm-2-2c0 2-1 4-3 3 1 2 4 1 4-1l-1-2zm3-2c1 2-1 3-2 2 1 2 3 1 4 0 0-1 0-2-2-2zm-6 0c1 1-1 3-2 3 1 1 3 1 4-1 0-1 0-2-2-2zm4-3c0 2-1 4-2 3 1 2 3 1 3 0l-1-3zm5-1c0 2-1 4-3 3 1 2 4 1 4-1l-1-2zm-2-2c1 1 0 3-2 3 1 1 3 1 4-1 0-1 0-2-2-2zm-5 1c0 1-1 3-3 3 1 1 4 1 4-1 1-1 0-2-1-2zm-3-2c0 2-1 4-3 4 2 1 4 1 4-1 1-1 0-2-1-3zm4-25c1 2-1 4-2 4 1 1 3 1 4-1l-2-3zm-1-1l-3 3c1 1 3 0 4-1l-1-2zm-2-4c1 2-1 4-2 4 1 1 3 1 4-1 0-1 0-3-2-3zm4-3c1 2-1 3-2 3 1 2 3 1 4-1 0-1 0-2-2-2zm-2-2c0 2-1 4-3 3 1 2 4 1 4 0l-1-3zm3-2c1 2-1 3-2 3 1 1 3 1 4-1 0-1 0-2-2-2zm-6 0c1 2-1 3-2 3 1 1 3 1 4-1l-2-2zm3-3c1 2 0 4-1 4 1 1 2 1 3-1 0-1 0-2-2-3zm5-1c1 2 0 4-2 3 1 2 3 1 4 0 0-1 0-3-2-3zm-1-2c1 2-1 3-2 3 1 2 3 1 4-1 0 0 0-2-2-2zm-5 1c0 2-1 3-3 3 1 2 4 1 4-1l-1-2zm-3-1c0 2-1 3-3 3 1 1 4 1 4-1l-1-2zm34 31c0 2 1 4 3 4-1 1-4 1-4-1-1-1 0-3 1-3zm2-1c-1 1 1 3 2 2-1 2-3 1-3-1-1 0-1-1 1-1zm1-4c0 2 1 4 2 3-1 2-3 1-3-1l1-2zm-4-3c-1 1 1 3 2 3-1 1-3 1-4-1l2-2zm3-2c-1 2 1 4 2 3-1 2-3 1-4-1l2-2zm-4-2c0 2 1 3 3 2-2 2-4 1-4 0-1-1 0-2 1-2zm6 0c0 1 1 3 3 3-1 1-4 1-4-1-1-1 0-2 1-2zm-3-3c-1 2 0 4 2 3-1 2-3 1-4 0l2-3zm-5-1c-1 2 1 4 2 3-1 2-3 1-4-1l2-2zm1-2l2 3c-1 1-3 1-3-1-1-1 0-2 1-2zm6 1c-1 1 1 3 2 3-1 1-3 1-4-1l2-2zm3-2c-1 2 1 4 2 4-1 1-3 1-4-1 0-1 0-2 2-3z" class="C G"/><g fill="#961e1d" class="H"><path d="M292 275c1-2 3-2 3-5v-72l2-2 2 2v72c1 3-1 5 2 5 8 0 16 1 22 3v2h-46l1-3 14-2zm54-58l2-6v-79l2-2 3 2v79c1 3-1 5 2 5 8 1 17 1 24 4v2h-50l1-3c8-3 15-1 16-2zm-93 0l-2-6v-79l-2-2a2 2 0 00-2 2l-1 79c-1 3 1 5-2 5-8 1-17 1-24 4v2h50l-1-3c-8-3-15-1-16-2z"/><path d="M290 197c1 2 2 3 4 3 3 0 8 2 10 4l6 10-1 5-10 7c-3 2-6 4-8 8v8c3 5 8 9 12 13l3 1c2 6 1 11 2 16 0 4 5 4 7 5l-13-2 2-4c0-4-2-10-4-12l-10-10-4-7c-1-5 1-8 3-12 3-5 9-7 14-10l3-6c0-4-4-7-6-8h-9l-1-2c-2 0-2 1-3 2l-3-1c2-2 4-3 7-3 0-2-1-3-3-4 2 1 2 0 2-1zm53-66c1 2 2 3 4 3 4 0 9 2 11 4 2 3 5 7 6 11l-1 6-10 7c-4 2-7 5-9 9-2 3-1 7 0 9l12 14c1 1 4 0 4 2 2 6 1 11 2 17 1 4 6 4 8 5-5 0-10 0-14-2l2-4c0-4-2-11-4-13l-11-12c-3-3-4-4-4-7-1-5 0-9 3-13 3-5 10-8 15-11l3-7c0-4-4-8-6-8l-10-1-2-1c-1-1-2 0-2 2 0-1-2-2-3-1 2-3 4-4 7-4 0-2-2-3-3-4l2-1zm-87 0c-1 2-2 3-4 3-4 0-9 2-11 4-2 3-5 7-6 11l1 6 10 7c4 2 7 5 9 9 2 3 1 7 0 9l-12 14c-1 1-3 0-4 2-2 6-1 11-2 17 0 4-6 4-8 5 5 0 10 0 14-2l-2-4c0-4 2-11 4-13l11-12c3-3 4-4 4-7 1-5 0-9-3-13-3-5-10-8-15-11l-3-7c0-4 4-8 6-8l10-1 2-1c1-1 2 0 2 2 0-1 2-2 3-1-2-3-4-4-6-4-1-2 1-3 2-4l-2-1z"/></g><g class="C"><path d="M282 252c-1-2-2-2-4-1v3c-2 1-2 4 1 5-2 0-2 3 0 4-1 1 0 3 1 3l1 2 1 3 1 1 2 2 2-2c2-1 2-3 0-4 2-1 2-3 1-4l1-1v-3c2 0 3-2 2-3 1-1 1-4-1-4 1-1 0-2-2-2h-2l-2 1h-2zm-2-44c0-1-2-2-3-1v3c-2 1-2 4 0 5-1 1-1 3 1 4-1 1 0 3 1 4l1 1 1 3 1 1 2 2 2-2c2-1 1-3 0-4 2-1 2-3 1-3v-2c1-1 2-2 1-3 2 0 2-2 2-3 1-1 0-3-1-4l-2-2-2 1h-5zm38 13c1-2 2-2 3-1 1 0 2 2 0 3 3 1 2 4 0 4 2 1 2 4-1 5 1 1 1 3-1 3l-1 2v3l-1 1c-1 1-1 2-3 2s-2-1-2-2v-4c-2-1-2-3-1-4v-1l-1-3c-2 0-2-2-1-3-2-1-1-4 0-4l2-2h2l2 1h3z" fill="#b400b4"/><path d="M286 265c0 2-1 4-3 4 1 1 4 1 4-1 1-1 0-2-1-3zm-2-1c1 1-1 3-2 2 1 2 3 1 3 0 1-1 1-2-1-2zm-1-4c0 2-1 4-2 3 1 2 3 1 3 0 1-1 0-3-1-3zm4-3c1 1-1 3-2 3 1 1 3 1 4-1l-2-2zm-3-2c1 2-1 4-2 3 1 2 3 1 4 0l-2-3zm4-2c0 2-1 3-3 3 2 1 4 1 4-1 1-1 0-2-1-2zm-6 0c0 1-1 3-3 3 1 1 4 1 4-1 1-1 0-2-1-2zm3-3c1 2 0 4-2 3 1 2 3 2 4 0l-2-3zm5-1c1 2-1 4-2 3 1 2 3 1 4-1l-2-2zm-1-2c0 2-1 3-2 3 1 1 3 1 3-1 1-1 0-2-1-2zm-6 1c1 1-1 3-2 3 1 1 3 1 4-1l-2-2zm-3-1c1 1-1 3-2 3 1 1 3 1 4-1 0-1 0-2-2-2zm5-25c0 1-1 3-3 3 1 1 4 1 4-1l-1-2zm-2-2c1 2-1 3-3 3 1 1 4 1 4-1 1-1 0-2-1-2zm-1-4c0 2-1 4-3 4 1 1 4 1 4-1 1-1 0-2-1-3zm4-3c0 2-1 4-3 3 1 2 4 1 4-1l-1-2zm-3-2c0 2-1 4-3 4 2 1 4 1 4-1 1-1 0-2-1-3zm4-2c0 2-1 3-3 3 1 1 4 1 4-1l-1-2zm-7 0c1 2 0 3-2 3 1 2 3 1 4-1 0 0 0-2-2-2zm4-2c0 1 0 3-2 3 1 1 3 1 3-1 1-1 0-2-1-2zm5-2c0 2-1 4-3 4 2 1 4 0 4-1 1-1 0-3-1-3zm-1-2c0 2-1 4-3 3 1 2 4 1 4-1l-1-2zm-6 1c0 2-1 4-2 3 1 2 3 1 3-1l-1-2zm-3-1c1 2-1 3-2 3 1 2 3 1 3-1l-1-2zm35 31c-1 2 1 4 2 4-1 1-3 1-4-1 0-1 0-2 2-3zm1-1c0 1 1 3 3 2-1 2-3 1-4 0l1-2zm2-4c-1 2 0 4 2 3-1 2-3 1-4 0 0-1 0-3 2-3zm-4-3c-1 1 0 3 2 3-1 1-3 1-4-1 0-1 0-2 2-2zm2-2c0 2 1 4 3 3-1 2-4 1-4 0-1-1 0-3 1-3zm-3-2c-1 2 1 3 2 3-1 1-3 1-4-1 0-1 0-2 2-2zm6 0c-1 1 1 3 2 3-1 1-3 1-4-1 0-1 0-2 2-2zm-4-3c0 2 1 4 2 3-1 2-3 2-3 0l1-3zm-5-1c0 2 1 4 3 3-1 2-4 1-4-1l1-2zm2-2c-1 2 0 3 2 3-1 1-3 1-4-1 0-1 0-2 2-2zm5 1c0 1 1 3 3 3-1 1-4 1-4-1-1-1 0-2 1-2zm3-1c0 1 1 3 3 3-1 1-4 1-4-1-1-1 0-2 1-2z" class="G"/></g><path d="M252 135l5-3c-2-3-3-10-2-14 0 2 1 2 2 2l3-2v3h3c1 1 2 4 0 6 2 1 5-1 6-5 2 1 2 2 1 3 1-1 4 0 5 2 0 1-1 4-3 4l2 2c-3-1-6 0-8 2 3 1 3 2 4 4l-3 1c2 0 2 1 2 3h-3v3c-4-2-7-7-8-12-2 0-3 1-5 3l-1-2zm-11 4c-1-2-2-3-4-3 2-2 6-8 6-11h-2l-2-3c-1 1-2 2-1 4 0-2-2-3-3-2s-2 3-1 5c-3 1-5-2-5-5-1 0-2 1-1 2h-5c-1 1 0 4 1 4l-2 2c3 0 5 1 6 4l-4 2 2 2c-2 0-2 0-3 2h3c1 1 0 2-1 3 4 0 8-4 10-7 2 0 4 1 4 3 1 1 2-1 2-2zm4 56c-2-1-4-2-6-1 2-3 3-10 1-13 0 1 0 2-2 2 0-2-2-2-3-2v4c-1-1-3-2-4 0 0 1-1 3 1 5-2 1-6 0-8-3v3c-1-1-4 1-6 2l4 4-2 2c4-2 7-1 10 0-3 1-4 3-4 4l3 1c-2 1-2 1-2 3 1 1 2 0 4-1v3c4-2 7-8 7-12 2-1 4 0 6 1 1 1 2-1 1-2zm13-18h5c-1 3-1 10 1 12l1-1 3 1v-3c1 1 2 1 3-1 0-1 0-3-2-4 2-2 5-1 7 2v-3c1 1 3-1 4-2 0-2-2-4-4-3l1-3c-2 2-5 2-7 1 2-1 2-3 2-4l-3-1c2 0 2-1 2-3l-3 1-1-2c-3 2-4 7-4 11h-5v2zm36 24c-2-2-3-3-5-2 2-3 3-10 2-13 0 2-1 2-2 2 0-2-1-2-2-3l-1 4c0-1-1-2-2 0-1 1-2 3 0 5-2 0-5-1-6-4-1 1-2 1-1 3-1-1-3-1-5 1l3 4-1 2c2-1 5-1 7 1l-4 3c1 2 2 2 3 2l-2 2h3v3c4-1 6-6 7-10 2-1 4 0 5 2l1-2zm11 4c0-2 1-3 3-3-2-2-6-7-6-10l2 1c0-2 1-3 2-3s2 1 1 3c0-1 1-2 3-1 1 0 2 2 1 4 2 0 4-2 4-5 2 0 2 1 2 2h4c1 1 0 4-1 4 1 0 2 0 2 2-3-1-5 1-6 3l4 2-2 2 3 1-3 1 1 2c-4 1-8-3-10-6-1 0-3 1-3 3 0 0-2-1-1-2zm-4 51c1-1 3-2 5-1-2-3-3-10-1-12l2 1 3-1v3h3c1 1 1 3-1 5 2 1 6 1 7-3 2 2 2 2 1 3 1-1 4 1 5 2 0 2-2 3-4 3 2 1 2 1 2 3-3-2-5-2-8-1l3 4-3 1c2 0 2 1 2 3l-3-1-1 2c-3-1-6-7-6-10-2-1-4-1-6 1v-2zm-12-17h-5c1 3 1 9-1 12l-1-2-3 1v-3h-2c-1-1-1-3 1-5-1-1-4 0-6 2v-2c-1 1-3-1-4-2 0-2 2-3 4-3-1 0-2-1-1-2h6c-2-1-2-2-2-3l3-1c-1 0-2-1-2-3 2 0 2 1 3 2l1-3c3 2 4 7 4 11 1 1 3 0 4-1l1 2zm58-104l-5-3c2-3 3-10 2-14 0 2-1 2-2 2 0-1-1-2-3-2v3h-3v6c-2 1-5-1-6-5-2 1-2 2-1 3-1-1-4 0-5 2l3 4-2 2c3-1 6 0 8 2-3 1-3 2-4 4l3 1c-1 0-2 1-2 3h3l1 3c3-2 6-7 7-12 2 0 4 1 5 3 1 0 2-1 1-2zm12 4c0-2 2-3 3-3-2-2-6-8-6-11h2l2-3 2 4c0-2 1-3 2-2s2 3 1 5c3 1 5-2 5-5 2 0 2 1 1 2h6l-2 4 2 2c-3 0-5 1-6 4l4 2-1 2c1 0 2 0 2 2h-3l1 3c-4 0-8-4-10-7-2 0-3 1-4 3 0 1-2-1-1-2zm-5 56c2-1 4-2 6-1-2-3-3-10-1-13l2 2c0-2 2-2 3-2v4c1-1 3-2 4 0 0 1 1 3-1 5 2 1 6 0 8-3v3c2-1 4 1 6 2 0 2-2 4-4 4l2 2c-4-2-6-1-9 0l3 4-3 1c2 1 2 1 2 3-1 1-2 0-4-1v3c-4-2-6-8-7-12-2-1-4 0-6 1-1 1-2-1-1-2zm-13-18h-5c1 3 1 10-1 12l-1-1-3 1v-3c0 1-2 1-2-1-1-1-1-3 1-4-1-2-5-1-7 2 0-2-1-2 1-3-2 1-4-1-5-2 1-2 3-4 4-3l-1-3c2 2 5 2 7 1-2-1-2-3-2-4l3-1c-1 0-2-1-2-3l3 1 1-2c3 2 4 7 4 11h5v2z" class="B H"/></g><path d="M223 277l-1 1c-2 0-3 0-4 2l-1 3-2 5c0 2 2 2 4 2l4-1-4 4c-2 1-3 3-3 6l-1 5v3c0 1 4 2 7 1 4-1 7-3 7-6 0-2 1-5 3-6 1-2 1-1 2 0v5c-1 6-1 8 1 9h3l2-4c2-3 3-4 1-7v-3l1 2 3 2c3 0 3-10 1-12-1 0-2 1-2 4v3l-1-2c0-1-2-2-4-1l-1 1v9l-1-5v-4l-2-2h-4c-3 1-6 4-7 8l-2 2v-1l6-8c3-3 3-4 2-6 0-2-1-3-4-3l-3-1h4l3-1 1-2c1-1 0-2-4-2h-4z" class="B"/><path d="M217 277l-4 11c0 3 3 4 5 3h2l-3 2c-2 0-2 1-2 4l-1 4v4c0 4 3 6 9 4l5-2 2-6c0-3 2-4 3-4-3 7-3 9-1 12 1 3 2 3 5 3 2 0 0 0 4-4l2-4v-2l2-1c4 0 6-8 3-13-2-3-3-3-5 0-4 5-11 3-11-3l1-5 1-3c-1-1-3-2-8-2-7 0-7 0-9 2zm15 2c-1 2-2 3-6 3h-3c-1 1 0 1 2 1 3 0 4 1 5 4 0 1 0 2-3 5s-6 7-6 9c0 1 2 0 3-3 2-3 7-7 10-7 3 1 3 2 3 7l1 5 1-5v-5c2-2 4-1 4 1l1 1v-2c-1-5 2-7 3-2 1 3 0 8-2 8l-3-2c-1-2-3-1-1 1 1 3 1 6-1 8l-2 3c0 2-3 2-4-1v-7c1-5 1-6-1-6s-4 4-4 7c0 4-4 6-12 6-2 0-2 0-1-4l1-6c0-2 0-4 3-5 4-3 4-6 1-4-4 1-6 1-6-2l2-3 2-4c0-1 1-2 3-2 6-1 10-1 10 1z"/><path d="M183 183l-2 2-7 3 3 3c4 3 4 2-1 3-3 0-4 1-7 3l-3 3-3 3 3 4 7 3 6-3 4-3h2v3l-2 1-5 7v4h3l2-1c2 0 2-1 4-3 1-1 3-2 3-4v-1c1-1 1 0 1 1 0 4 4 5 5 1l2-1 2-5-3 1-2 3c-1 1-1 2-2 1l1-1c1-3 0-3-2-3-1 0-2 0-5 3-4 6-4 4 0-2l2-4-2-4h-9l-4 2h-1c2-2 7-4 10-4s4-1 5-2c1-2 1-3-1-6l-3-2 2 1 6 2 4-2-3-2-4-2c-3-3-6-3-6-2z" class="B"/><path d="M181 182l-4 2c-5 1-6 6-3 7s3 2 0 1c-2 0-3 0-5 3l-4 3-2 2-1 2c-1 1-1 2 3 6l6 4c2 0 6-2 8-5l4-2-3 4c-4 4-6 10-3 11 3 2 8 0 12-3l2-2 2 2c1 1 5-1 5-3l1-2 2-4 1-4-5 1c-3 0-4 0-6-2s-3-3-2-5c1-3 4-6 6-6 3 0 2-5 0-6-2 0-4-2-5-3-3-2-7-3-9-1zm8 3l4 3c3 1 2 3 0 3-2 1-4 0-5-1-3-3-4-3-4-2l2 3c2 1 3 2 2 4 0 2-1 3-5 3s-10 2-10 4l3-1 8-1c3 0 3 0 4 2v5c-3 4-4 7-3 7l3-4c2-3 3-4 5-4 2 1 2 1 1 4v2l2-3c1-3 4-4 3-1l-1 3-1 1-2 2c-2 2-4 0-4-3l-1-2-1 2c0 3-4 6-6 6l-2 2h-2c-1 0-2-1-1-3 0-3 5-8 7-8 1 0 2-3 1-4s-4-1-7 2c-5 4-8 4-12 1-4-4-4-4-2-6l3-1 2-3c2-2 3-3 6-3 5 0 6-1 2-3l-4-3 7-3 2-1c0-2 3-1 6 1z"/><path d="M413 186l-3 1-4 3c-2 1-2 2 0 3 1 1 4 1 7-1 4-3 4-3 0 0-2 3-2 4-1 6 0 2 1 2 4 2s9 2 10 4 1 1-4-1c-3-2-8-2-9-1l-3 5 3 4 2 5-3-4c-2-3-4-4-5-3l-1 2a12 12 0 000 2c1 2-1 1-2-1l-3-4v4l2 2c0 2 2 3 3 3s2-1 2-3c1-3 2-3 2-1l3 5 4 2 2 1h2c1 0 2-2 1-4l-6-7c-1 0-2-1-2-3l1-1c1 0 3 0 6 3l4 2h5l6-5-2-3-4-4c-2-2-3-3-7-3-3 0-4 0-3-1l2-2 3-3-6-3-2-1h-4z" class="B"/><path d="M419 184l4 2c4 1 6 6 2 7-2 1-2 2 1 2 2-1 3 0 5 2l4 3 2 2 1 3c1 1 1 2-3 5l-6 4c-2 0-7-2-9-4-1-2-2-2-3-2l3 3c4 4 6 10 3 12-3 1-8-1-12-4l-3-1-1 1c-2 1-5-1-5-2l-1-2-2-5-1-3h4c4 1 5 0 7-2s2-3 2-5c-1-3-4-6-6-6-3 0-2-4 0-6l5-3c3-2 7-2 9-1zm-8 3l-5 3c-2 1-2 3 1 4l5-2 4-2-3 3c-2 2-2 3-1 5 0 2 1 2 4 2 4 0 10 3 11 5l-4-1-7-2c-3 0-4 0-5 2-1 3 0 3 1 5 3 4 4 7 3 7l-3-4c-2-3-3-4-5-3-2 0-2 1-1 3v2s-2-1-2-3c-1-3-4-4-3 0l1 2 1 1 1 3c3 1 4 0 4-3l1-3 1 3c0 2 4 6 7 6l2 1h2l1-3c-1-2-5-8-7-8-1 0-2-2-1-3 1-2 4-1 7 1 5 5 7 5 12 1 3-3 3-3 2-5l-3-2-3-3c-2-2-3-2-6-2-5 0-5-2-1-4l3-2-6-4-2-1c0-2-4-1-6 1z"/><path d="M368 278v2c0 2 1 3 4 2l3 1c1 1 1 0-2 1l-3 1c-3 3-2 4 1 8 4 4 6 4 6 8l-2-2c-2-4-5-7-8-7-2-1-5 1-5 2v5l-1 4v-4l-1-7-4 1-1 3v-3l-1-4c-1-1-2 2-2 6 0 5 1 6 4 3l2-1-1 2c-1 3 0 5 1 8l2 3c1 2 3 2 5 0l1-3-1-5c-1-5-1-6 1-6 1 0 3 3 4 7 0 3 2 5 6 6h7v-5-5l-3-6c-4-3-5-4-1-3s5 0 5-3l-2-3-1-4-2-2h-11z" class="B"/><path d="M381 278c3 3 5 9 5 11s-3 4-6 2h-1l3 2c2 1 2 2 2 5l1 4 1 4c0 4-4 4-8 4l-7-2-2-6c0-2-2-4-3-5s0 4 0 5c3 6 1 3 1 9-2 1-2 2-5 2-2 0-2-1-4-3-1-3-3-7-3-5l-2-3c-3 0-5-8-2-13 2-4 2-4 5 0 4 5 11 3 11-4l-1-4-1-3c1-2 3-2 8-2 6 0 7 0 8 2zm-14 1c1 3 2 4 5 3l4 1c1 1 0 1-2 1-3 0-4 1-5 3s0 3 3 6c3 2 6 7 6 8 0 2-2 0-3-2-2-4-7-8-10-7s-3 2-3 7l-1 5-1-5v-6c-2-1-4-1-4 1l-1 2v-2c0-5-2-7-3-3s0 9 2 9l3-2c1-3 3-2 1 1-1 3-1 5 1 8l2 3c0 2 3 1 4-1v-7c-1-5-1-7 1-7l4 7c0 5 4 7 12 6 2 0 2 0 1-3l-1-7c0-2 0-3-3-5-4-2-4-5-1-4 4 2 6 1 5-1l-1-4-2-3c0-2-1-2-3-3-6-1-10 0-10 1z"/><path d="M300 74c4 0 7 3 7 7s-3 7-7 7-7-3-7-7a7 7 0 017-7zM194 227c-5 0-8-3-8-8s3-8 8-8 8 3 8 8-3 8-8 8zm0-36c5 0 8 4 8 8s-3 8-8 8a8 8 0 010-16zm-15-19c4 0 8 3 8 8s-4 8-8 8-8-4-8-8 4-8 8-8zm241 4c-5 0-9 4-9 9s4 10 9 10 9-5 9-10-4-9-9-9zm-16 50c4 0 8-3 8-8s-4-9-8-9c-5 0-9 4-9 9s4 8 9 8zm1-35a9 9 0 010 17c-5 0-9-4-9-8s4-9 9-9zm-34 78c-3 0-6 3-6 7 0 3 3 6 6 6a6 6 0 007-6c0-4-3-7-7-7zm-10 8a7 7 0 017 7c0 4-3 7-7 7s-7-3-7-7a7 7 0 017-7zm-12 8c4 0 8 4 8 8 0 5-4 9-8 9-5 0-9-4-9-9 0-4 4-8 9-8zm-125-17a7 7 0 010 15 7 7 0 01-7-8c0-3 6-7 9-7h-2zm14 8a8 8 0 000 16 8 8 0 100-16zm13 23c-4 0-7-3-7-7s3-8 7-8 7 4 7 8-3 7-7 7z" fill="#ffd300" class="E H"/></svg>