<svg xmlns="http://www.w3.org/2000/svg" xmlns:xlink="http://www.w3.org/1999/xlink" width="900" height="600"><path d="M0 0h900v600H0z" fill="#fff"/><path d="M123 156l10-31-26-19h33l10-31 10 31h33l-26 19 10 31-27-19-26 19z" fill="#b71234"/><path d="M377 541h1v-1h4v1h1v1h-2v-1h-2v5h2v-1h2v1h-1v1h-4v-1h-1zm8-1h5v1h1v2h-1v1h-1v1h1v1h1v1h-2v-1h-1v-1h-1v2h-2zm2 1v2h2v-2zm6-1h6v1h-4v2h2v1h-2v2h4v1h-6zm8 2h1v-1h1v-1h2v1h1v1h1v5h-2v-3h-2v3h-2zm2 0v1h2v-1zm6-2h6v1h-2v6h-2v-6h-2zm8 0h6v1h-4v2h2v1h-2v2h4v1h-6zm8 0h4v1h1v1h1v3h-1v1h-1v1h-4zm2 1v5h1v-1h1v-3h-1v-1zm14-1h5v1h1v2h-1v1h1v2h-1v1h-5zm2 4v2h2v-2zm0-3v2h2v-2zm6-1h2v3h2v-3h2v3h-1v1h-1v3h-2v-3h-1v-1h-1zm16 0h4v1h1v1h1v3h-1v1h-1v1h-4zm2 1v5h1v-1h1v-3h-1v-1zm6-1h6v1h-4v2h2v1h-2v2h4v1h-6zm8 0h2v5h2v-5h2v5h-1v1h-1v1h-2v-1h-1v-1h-1zm10 1h-1v-1h4v1h-1v5h1v1h-4v-1h1zm6-1h2v1h1v1h1v-2h2v7h-2v-2h-1v-1h-1v3h-2zm16 1h1v-1h4v1h1v1h-2v-1h-2v5h2v-1h2v1h-1v1h-4v-1h-1zm8 0h1v-1h4v1h1v5h-1v1h-4v-1h-1zm2 0v5h2v-5zm6 0h1v-1h4v1h1v5h-1v1h-4v-1h-1zm2 0v5h2v-5zm6-1h2v2h1v-1h1v-1h2v1h-1v1h-1v1h-1v1h1v1h1v1h1v1h-2v-1h-1v-1h-1v2h-2zm-160 16v7h2v-1h1v-1h1v1h1v1h2v-7h-2v4h-1v-1h-1v1h-1v-4h-2zm8 0v7h2v-1h1v-1h1v1h1v1h2v-7h-2v4h-1v-1h-1v1h-1v-4h-2zm8 0v7h2v-1h1v-1h1v1h1v1h2v-7h-2v4h-1v-1h-1v1h-1v-4h-2zm16 0v7h4v-1h1v-1h1v-3h-1v-1h-1v-1h-4zm8 0v7h6v-1h-4v-2h2v-1h-2v-2h4v-1h-6zm8 0v5h1v1h1v1h2v-1h1v-1h1v-5h-2v5h-2v-5h-2zm9 0v1h1v5h-1v1h4v-1h-1v-5h1v-1h-4zm7 0v7h2v-3h1v1h1v2h2v-7h-2v2h-1v-1h-1v-1h-2zm9 0v1h-1v5h1v1h4v-1h1v-1h-2v1h-2v-5h2v1h2v-1h-1v-1h-4zm8 0v1h-1v5h1v1h4v-1h1v-5h-1v-1h-4zm8 0v1h-1v5h1v1h4v-1h1v-5h-1v-1h-4zm7 0v7h2v-2h1v1h1v1h2v-1h-1v-1h-1v-1h-1v-1h1v-1h1v-1h1v-1h-2v1h-1v1h-1v-2h-2zm17 0v1h-1v5h1v1h4v-1h1v-1h-2v1h-2v-5h2v1h2v-1h-1v-1h-4zm8 0v1h-1v5h1v1h4v-1h1v-5h-1v-1h-4zm7 0v7h2v-4h1v1h1v-1h1v4h2v-7h-2v1h-1v1h-1v-1h-1v-1h-2zm-94 1h1v1h1v3h-1v1h-1v-5zm48 0h2v5h-2v-5zm8 0h2v5h-2v-5zm32 0h2v5h-2v-5zm-96 4v2h2v-2h-2zm80 0v2h2v-2h-2z"/><path d="M0 500h900v100H0z" fill="#b71234"/><path d="M415 330l-2 2c-1 1-3-1-4 1 0 1-2 2-3 1 0-2-2-1-4 0-1 2-3 0-4 0l-2-1c1-1 0-3-1-2l-1 1c-2 2 0-2-2-1-1 2-3 2-5 2l-5 1h-7l-8 2-9 2h-2l-56 13-2-1h-1l-1-1h-2l-1-1h-5l-2 1-1-1-1 1h-1v-2h-1l-1 1-2 1h-1v-1h-2l-2 3h-2l-1-1-1 1-1 2-2 1h-1l-1-1h-3l-1-1-1-1-1 1h-3v1l1 2h-1l-1 1-1 1h-1l-1 1h-2l-2 1h-3l-1 1-1-1-2-1h-1l-1 2h-2v-1l-1-1h-1v1h-1v-2h-1l-1 1v1h-1l-1-1v-1h-1v1l-1 1v2h-1v-1l-1-1h-1v1l-1 1-3 3-2 1-1-3-1 1v2h-3v1h-1v-1l-1-1v1l-1 1-2 2h-2l-4 3-2-1h-1l-2 2h-2l-2 1h-4l-2 1h-4l-1 1-4 2h-3l-1 1v1l6 2h27a270 270 0 018 0h13l8 1 6 1h2l30-2 5-1h13l29 1h2l25 1 5 1h7l18 2h9l2-1h22a8 8 0 012-1h10l7-1 9-1a488 488 0 0015-1h11l19-2h11a121 121 0 0114-1h4l12-1h17l22 1 24 1 39 1 5 1h4l22-1h5l36-2 15 1h4l4-1 2-3-1-2-3-1-2-1-1-1h-1l-2-2-1-1h-2l-1-1c0 1 0 0 0 0l-1-1h-1l-1-2-1-1h-2l-1-2v-1h-2-1l-2 1h-1l-2-3-1-1-2-1h-1-2v-1h-3a8 8 0 01-1 0v1h-1l-1-1h-1-1v-1-2l-1 1-2-3h-1l-1 1-1 1v-1-1h-1c-1 1-1 3-3 2l1-2v-2l-1-1-2 1v1h-1l-1-1-1 1v1h-1-1v-1-1l-1-2v-1a1 1 0 010-1l-2-2v1l-1 1c-1 1-1 0-1-1l-1-1-1 1v2l-1 3-1-1-2-2h-1v-1-2l-2 1h-4c0 1-1 2-2 1h-1c-1 0 0 0 0 0h-1v1l-22-2-22-1v-1h-1-1v-1h-3l-1-1-1 1h-1l-1-1h-3l-1-1-1-1-1 1-1 1-1-1-1 1-1-1-1-1-1-1-1 1-1-1-1-1-1 2-1-1h-2l-1 2-3 1v-2l-1-1h-4v-1l-1-1v-1l-2 2v1h-1v-1l-1-1-1 1-1 1-1 1h-1v-3h-1l-1 1-2 2v-1l-1-2-1 1v1l-1-1-1-1h-1l-2 2-2 1h-1s-28 4-44 4-14-3-14-3v-1l-1-1v-1h-2c-3-1-4 1-6 2l-1 1-33-1h-2l-4-2c-1 1-2 0-2-1-1 0-2 2-4 1-1-1-3 1-5 1 0-1-1-3-2-2-1 2 0-2-2-2 0 1-1 2-1 0h-1z" fill="#584528"/><path d="M415 335c-3 1-6 4-9 3-3 0-6 2-10 0-3-2-7-2-10-1-22 2-43 9-64 13-8 1-16 4-24 4-4-2-9-3-13-1-5-1-11 1-15 4-3 3-8-1-10 0-4 5-11 6-16 6-3-1-5 3-7 1-4-2-8 0-12 2-4 4-11 2-16 5-3 2-6 4-9 4-5 1-4 2 1 2 12 1 25-1 37 1 22 1 43-4 64-2 25 2 50 2 75 5 38 0 76-5 114-7 37-3 74-1 112 1 21 0 42 2 63 0 17-1 34-3 52-2-4-3-10-3-13-8-3 0-3-4-6-2-4-1-6-6-10-6-2 0-5 2-7 0-3 0-4-5-7-3-3 1-6-1-7-3-1 4-3 3-5 1s-2-7-3-3c-3 3-6 0-8-2-3-4-8 1-13-1-15-1-32-1-47-4l-12-2c-3-1-6-3-9 0-5 3-8-4-13-2-4 1-7 0-10 2-2 0-4-5-6-2-18 4-36 5-55 5-4 0-10-2-11-6-3 3-6 4-10 3-12 0-23-2-34-1 0-3-5-1-7-2-3 2-7 0-10-2z" fill="#008542"/><path d="M300 370v-1h1v-1-2h1a3 3 0 010 1h2l1-1v1l1 1h1v-2-1h1v1h2l1 1h1l1 1v-1h1v2c0 1 0 0 0 0h-1-1-2-3v1l-1-1-1 1h-1v-1h-2l-1 1h-1zm-52-1h-1-1-1v-1-2h1v1l1-1c-1 0 0 0 0 0h4v-1l1 1h1v-1h1v1l1 1v-1 1h0v1h-1l-1 1v-1h-1-1l-1 1c0 1 0 0 0 0h-2zm432 0v-1a22 22 0 01-2 0l-1 1c0 1 0 0 0 0h-1v-1h-1-1-1-1v-1h1v-1-1c0-1 0 0 0 0l1 1h5v-1 1h2v-1h1l1 1h1v1l1 1-1 1h-1v-1h-1-1l-1 1zm-332-1l-1-1h-1l2-1h1l-1-1 1-1v1h1l1-1v-1h2v1l1-1h1v1l1-1v-1l1-1v2h1l1-1h1v1h-1 3v1h2v1h2v1h-1-1v1h-1v-1 1h-1-10-3l-1 1zm-76-1a2 2 0 00-1 0l-1-1h1v-1c1 0 1 0 0 0v-1c0-1 0 0 0 0h-1-1 5v-1h4a2 2 0 010-1 1 1 0 000-1h3v1h-1 3c1 0 0 0 0 0h1c1 0 0 0 0 0l1 1h2v1h3v1h2v1h-2-1-1-1c0 1 0 0 0 0h-1-1-2-1-1-3-1-1a1 1 0 00-1 0h-1-1-1l1 1h-1zm157 0l-1-1v1h-1v-1 1h-1-1a19 19 0 00-2 0v-1h-2a15 15 0 00-3 0h-4-1-1-1-1-1-3c-1 0 0 0 0 0v-1l1-1v1l1-1v-1h2v1h1l1-1h-1v-1l1-1v1h1v1h1a2 2 0 010-1l1-1c-1 0 0 0 0 0h1l1-3h1v2l1-1v1l1 1v1l1-1 1 1c0 1 0 0 0 0h1l1-1h1l1 1h1v-1h1l1 1h-1v2l1-1v1h2a1 1 0 010 1h1v-1 1h1l-1 1-1 1-1-1a1 1 0 01-1 0v1zm216-1v-1h-6a1 1 0 00-1 1h-1l1-1h-2-1v1h-1l-1-1h-3 1l1-1h2l1-1h1v-1-1-1l1 1v1h1v-1c-1 0 0 0 0 0a1 1 0 000-1h1v1h2a1 1 0 011 0v-2h1v2h1l1-1h1v1h-1l1 1 1-1c0-1 0 0 0 0h1v1h1v1h1v-1l2 1 1 1 1 1v-1 2h-3v-1l-1 1h-2c0-1 0-1 0 0h-2s0-1 0 0h-1zm-141-2h-1-1-3-2v-1l1 1v-1h1a4 4 0 000-1h1l1 1 1-1v-1h2v-1l1 1h10v1l1-1 1 1h1l-1 1-1 1h-2v-1c0 1 0 0 0 0h-1v1h-1-1-1a16 16 0 01-2 0h-1c-1 0 0 0 0 0h-1-1-1zm51 0v-1h-4-1-4-3-1c1 0 1-1 0 0v-1h-4-2a7 7 0 00-1 0l-1 1v-1-1l1-1h4l-1-1h-1v-1h2c0 1 0 1 0 0h2v-1h1v-1h1v1l1 1v-1 1h3v-1h1a1 1 0 010 1h1s1 0 0 0l1 1h1v-1h1v2c-1 0 0 0 0 0h1l1-1h1l-1 1h1l-1 1v1h1a4 4 0 011 0h2v1h-1a6 6 0 01-1 0l-1 1zm-100-1h-3l-1-1h1l1-1v-1h1v-1-1h1c1 0 1 0 0 0v1h1v1h2v-1h1v-1h2v-1h1l1 1v-1h1c1 0 0 0 0 0v1h1l-1 1v1h1v-1h1v-1h1l1 1v2h3l1-1v1h1v1h-1-2-2v0h-1v1h-1v-1h-2-2-1l-4 1h-2zm138-5h-3-1-1l-1-1h-1l-1 1h-3l-2-1h-6v-1h2l-1-1h3l1-1h-1v-1h2c0 1 0 2 1 1h2v-1h1v-1l1 1v1h1v1a1 1 0 001 0l1-1 1 1h1l-1-1h1v1l1 1v1h1l1-1v1h1v1h-1zm-213-3l1-1h1v-1l1-1c0 1 0 1 0 0h2v-1h1l1-1h1v1c1 0 1 0 0 0v1h1l1-1a1 1 0 000 1h1l1-1h1v1h1v1h3l1-1v1h1l1 1-1 1v-1h-1-1v1h-3v-1 1h-1-2-2-1c0-1 0-1 0 0h-1-3-4z" fill="#54472e"/><path d="M325 360h-3l-1-1h-2l-1-1h-5l-1 1h-1v-1h1v-1a2 2 0 011-1l-1-1a2 2 0 000 1h-3l-2 1-4 1h1v-1h1l2-3 1-1-5 2-1 1-2 1h-1l1-2h1v-1-2a6 6 0 011-1h1l2-1 1-1v-1h1l1-1 1-1a18 18 0 001-1l2-1 1-1 2-1h3a5 5 0 011 0l2-1h4l3-1 3-1 2-3 1-1 1-2 1-1 1-2v-1a12 12 0 012-2v-1l1-1 1-1 2-1 3-4v-1h1v-1h1l1-2 1-1 1-1 1-1 2-2v-1l1-2 1-2 1-3 1-2 1-2 1-2v-2-2l1-2v-2l1-2v-1-1l1-3 1-3 1-2v-1h1l-1-1v-1l1-1v-1l-1-1h-2-1-1l-1 1-1-1-1 1h-1l-1 1h-1v-1l-2 1h-1l-1 1h-1l-1-1v1h-1-1-1l-1 1a5 5 0 01-1 0v1h-1l-1 1v-1h-1l-2 2h-1l-1 1h-1l1 1-1 1v-1a4 4 0 000-1h-1v3h-1v-1c-1-1-1 0-1 1v1h-1v-1 1h-1-1v2l-1-1 1-1v-1h-1-1l-1-1v1h1v2l-1-1v2h-1v-1h-1v-1l-1-1v2h1v2l-1-1v3h-1a14 14 0 00-1-2s-1 0 0 0v2l1 1v1h-1v-1h-1v3h-1v-1l-1-1v3l-1-2h-1v1l1 1h-1v1l-1 1v1-1h-1s-1 0 0 0v2l-1 1-1-1-1 1v-1 1l-1 1v-1-2l-1-1v-1h-1-1v0l-1-1-1-1h-1-1-2-2-3l-1 1-1 1h-1l-2 1-1 1h-1l-1 1h-1l-2 1h-1-7l-3-1-1-1v-1-1l-1-2h1v-1-1l-1-1v-1l1 1h1v-2l1 2 2 1 1-1h-1v-1l-1-1v-1l1-1v-1l2-1v-1l2-3h-1-1l-2 1-1 1-2 1a7 7 0 00-1 1l-3 1h-1v1l1 1v1l-2-1-1-1-1-1h-3-1l-2-1h-1l-4-2h-1v-1l-1-1h1v0l1-1h-1l-1 1v-1h-2l-1-1-1-2v-1l1-1h1l1-1 2-1 1-1 1-2 2-1 2-3 1-1 1-1v-1h1l1-2 2-2 1-1 1-2 1-2 1-1v-1l-1-2h1v-1c-1 0-1 0 0 0v-1h-1l-1-1-1-1v-1l1-1 1-2v-1l1-1 1-1 1-1 2-5 1-2 1-1 1-1 1-1 2-3 1-1v-4-1-2l1-2v-1-1l1-1 2-2 1-1h3l1 1 2 1 1 1 3 2 1-1h3l1-1 1-1v-2l1-1 1-1 1-2 2-2 2-1h2l1 1 2 1 1 1 1 1v1l2-1h2v-1l1-1 1-1 2-1 1-1 1-1 3-2h1l1-1c-1 0 0 0 0 0l1-1 2-1 3-2 2-1h1l1-1h2l1-1h1v-1h2l1-1h1l1-1h2l1-1 2-1h1l2-2h1l1-1h2l1-1h1l1-2h1l1-1h2l1-1v-1h1v-1h2l1-1 4-3h1l2-1 2-1 1-1h1l2-1h2l1-1h4l1-1h2l3-1h4l1-1h1v1h8l1-1 1 1h7l1 1h2l1 1h3v2h1l1-1 1 1h1l1 1h2v1l3 1 1 1h2v1 1h2l1 1 2 1 3 1h2l1 1a6 6 0 001-1h1l2 1h20l1-1h3l2-1h4l3-1h2l2-1h1l4-1h5l1-1h2l3-1h9l2-1h10l2 1 4 1h2a5 5 0 001 0h3l3 1h2l2 1h1l1 1h3l1 1h1l1 1h2l2 1 2 1 2 1h1v1h2c0-1 0 0 0 0l1 1h1l2 1 1 1h2l3 2 2 1 1 1 3 1 1 1h1l3 2v1l3 3 1 1 1 1 1 1a1 1 0 001 0l1 1 1 1 2 2v1h1l2 3 1 1 2 2 1 2 1 1 1 1 2 2v1l1 1h1l1 1v1l2 2 1 3 1 1v1l2 1v1a8 8 0 010 1l1 1v1l1 2v5l-1 2h-1v2h1v2l1 1v3l1 1 1 3v2l1 2 1 1v3l1 2v4l1 2v1l1 2v2l1 2v11l1 1v7l1 1v1h-1l1 2a2 2 0 000 1 2 2 0 011 0l-1 1v1l1 1v2l1 1v3l1 1v2l1 1v1l1 1v1h1l1 2 1 1 1 1v1l1 1 1 2v1l1 2 1 1v2l1 1v5l1 2v4a2 2 0 000 1h-1v2h-1l-1 1-1 1h-1l-1 1a20 20 0 00-3 2h-1l-1 1-1 1-1 1-2 1v1h-2l-1 1h-1v1-1l-1 1s-1 0 0 0a1 1 0 000-1h-1-1-4a18 18 0 00-5 0h-1-6l-2-1h-3-2l-2 1h-1l2-2 1-1h-2l-2 1h-1l1-1v-1l1-1 1-1-3 1-1 1-1 1 1-3h1l2-2 1-1a1 1 0 001-1v-1c9-7 1 0 1 0l1-1 2-1 2-1h2l2-1h5l1-1h2v-1h1v-3-1h-1v-1h-1c-1 0 0 0 0 0v-1h-1l-3-1h-1l-1-1h-1-1-1-1-4l-3-1-1-1h-2l-1-1h-3l-1-1v-1 1h-2v-1c0-1 0 0 0 0h-1-1l-1-1-1-1v1l-1-1v-1l-1-1h-2v-1l-1-1h-1v-1h-1l-1-2-1-1v-1h-1v-1-2l-1-1v-2h-2l-1 1h-2l-1 1v1h-1l-1 1-1 1-2 1-1 1-2 2-1-1-1 1-1 1-1 1-1 1-1 1-1 1h-1l-1 1v2l-1 1h-1v-1h-1v2h-2v2l-1 1-1-1-1 1-1 1-1 1-1 1-1 1-1 1v2h-1l-1 2v1h-1-1l-1 2-1 1-1 1-1 2h-1l-1 1v1l-1 2-1 2v2l-1-1h-1v1h-3l-1 1h-13l-2 1h-3l-1 1h-2v-1 1c-6-2-1 0-7 0h-3-1v-1h-3l-1-1h-2l-1-1-1 1h-1v-1c1 0 1 0 0 0l-2-1-2 1v1l1-3-1-1-2 2v1h-1l1-3-2 1-2 1 1-1 1-1v-1-1l-2 2v1-3l2-1 5-4h1l1-1 3-2h4l5-1h8a14 14 0 011 0l1-1h1v-1-1l1-2c0-1 0 0 0 0h-1v-1-1-1-1-1-1-2-1l-1-1v-1l1-2-1-1v-1-1-1l-1-1 1-1-1-1v-2-3-1-1-1h0v-1-2l1-1h-1l-1-1 1-1v-1-1l1-1v-1-2-1h1l-1-1h-1l-2 1-1 2v-1-2h-1v1l-1 1v-1l-1-1-1 1v2l-1-1 1-1-2 1v-1l-2 1v-1-1l-1 1h-1v-1h0a1 1 0 01-1 0h-1l-1 1-1-1h-1v-1h-1v1h-1v-1h-1-1v1h-1c1 0 1 0 0 0h-1-2c0-1 0-1 0 0h-2l-2-1h-2-1-1c0 1 0 1 0 0 0 0 0 1 0 0l-1-1v1l-1 1 1 1v1a8 8 0 001 2v2l1 1 1 2 1 2v1l1 2v1l1 1 1 2 1 1v2c1 0 1 0 0 0v1l1 1 1 1v2l1 2v3l-1 1v2h-1v1l-1 2v1l-1 1-1 1v2h-1v1l-1 1v1l-1 1v2l-1 3h-1v1h-1v1l-1 1h-2l-1 1h-1-2l-2 1h-4-1-1-1l-1-1h-2l-2 1h-11l-5 1-1 1h-1 1v-1a23 23 0 01-3 1v-1l3-1v-1h-1l-3 1h-1 1l1-2 2-2-2 1h-1l-1 1 1-2 2-2 3-4h1l1-1 1-1h1l2-1 2-1 2-1h7l1-4h-1l-1-2-1-1-3-1 1-1h-1l-3-3-1-2h-1l-2-2h-2v-1l-1-1h-1v-1l-1-1-1-1v-1h-1l-2-2-2-1v-1l-1-1h-1l-1-1v-2h-1v-1l-2-1v-1c0-1-1-2-3-2l-2 2-1 1v1h-1v2h-1v2l-1 1h-1l-2 3v1a6 6 0 00-1 1l-1 1-1 1h-1v2c0 1 0 1 0 0l-1 1h-1l-1 1-1 1h-1l-1 2-2 2-1 1h-1v1l-1 1h-1v1h-1v1h-2l-1 1-1 1-1 1h-1v1l-2 1h-1v1l-1 1h-1l-1 1-1 2h-1c0-1 0-1 0 0l-1 1-1 1-1 1-1 1-2 2h-1v1h-2l-1 2v-2l-1 2-1 2v-1l-1 1h-1-1v2h-1l-1-1v1l-1 1c1 0 1 0 0 0h-1v1a4 4 0 01-1-1l-1 1a2 2 0 010 1h-1l-1 1h-2l-1 1-1 1-1 1-2 1h-1-14l-1 1h-2-1l-2 1h-1z" fill="#584528"/><path d="M460 327v-1-1l-2-2-2-1-2 1h-1v-1-1h1v-2-2l-1-1-1 1h-1v-2l-1-2h-2v1c0 1 0 2-1 1v-2-1-1h1v-2-2h1v-1l-1-1v-3h1v-2l1 1 1 2c1 1 2 2 2 0v-1-1h-1v-1-1h1l2 1 1 1-1 1v2h2v-2-2-1h1l1 1v1h2v2h1l-1 1h-1v2l1 2v3l1 1 1 2 1 1v1h2v1l1 1 1 2-1 4a1 1 0 01-1 1l-1-1h1v-1l1-1c-2-1-2-1-3 1v1l-1 1h-1v1l-1 1h-1zm169-5l-1-3v-1h-1v1l-1 1-1-4v-2h-1l-1 2v2h-1-2v-2l-1-2h-1v2l-1 1v-2l-1-2v1l-1 1v3l-1-1v-3l-1-2v2l-1 1h-2-1l-1-1-1 1v-2-2-1h-2v5h-1v-2-2l-1-1v1h-1v-1-2l-1-2v-1l-1-2v-4l1-2v-1h1v1l1 2v2c1 3 2 2 2-1h1v-2l-1-1-1-1v-1l1-1 1-1 1-1a1 1 0 011 0l-1 2 1 1 1 2h2l-2-3v-1l-1-1v-3h1l1 1v3h1v-1h1l1 2-1 1 1 1 1-3-1-2-1-3h1l1 2 1 1v1c2 3 3 1 1-1v-3l-1-1 1-2h1v1l1 1h2l1 1 1 1h1v-1-1l1 1 1 1h1v-1 1h1a6 6 0 000 1l1 1-1 1 1 1c0 1 0 2-1 1l-2-2-1-1h-2v2h2v1l-1 1 1 3 1 1v1h2v-1-1h1l1 1v1l1 1h-1l-1 1v1h-1-1l-1 1 1 1v1l1-1v-1l1 1h1a1 1 0 011 0v1h-1-2l1 1 1 1v1l2 1-2 1 2 1 1 1 1 1 1 2-2-1-1-2h-1l-1 1 1 1 2 1v1l1 1v1h1v2h-1l-1-1-1 1h-1l-1 1c0 1 0 1 0 0zm-183-11l-1-1v-1l1-1v1l1 1v1h-1zm-162-22l1-1h1v-1l1-1v-1l1-1 1-2v-1l1 1v1h-1v1l-1 1v2l-1 2a10 10 0 00-1 0h-2zm329-2v-1l1 1h-1zm-306-3l-1-2-1-1 1-1v-1l1-1 1 1-1 2v1l1-1h1l-1 1v1l-1 1zm4-1l-1-1v-2l-1-2-1-2v-1l1-1 2 1v-1l-1-1-1-1h-1l-1 1h-1v-2l-1-1-1 1-2-1v1l-1-1v-1-1-1h-1l-1-1-1-1v-1h3l1 1 1 1h1l1 1 3 1v1l1-1v-1l-1-1v1h-1l-1-1v-1h-2l-1-2-1-1v-1h1l1 1v-1c1 0 2 0 2 2l1 1h1v-1-3 1l2 1v-2l-1-1h1v-2l-1-2 2 1v1l1 1h1l1-1v-1c0-1 0 0 0 0l-1-3v-1h1v-1l-1-1v-1h-1l-1 1-1-1h-1-2l-1-1-1-1-1-1a9 9 0 00-1-1l-1-1v-1l1 1a1 1 0 001 1v-3l-1-1v-1h-1-3l-2 1-1 1-1 1v1h-1-1-1-1-1l-2-1h-1l1-1h4l1 1 1-1v-1-1h-2v-1h1l1-1-1-1h-1v-1h1l1 1 1-1h-1v-3l-1-2v-1l1-1 1-2v-1h-1l-1 1-1 1-1 1v1l1 1c1 0 0 0 0 0l-1 1v2l-2 1v1 3c0 1-1 2-2 1l-1 1h-1l-1-1h-1l-2-1v-1-1-2-1h1l1-1 1-1v-1l-1-3 1-1v-1 1l1 1h1v-3h2l1-1v-2l1-2v1h1a6 6 0 001-2l1-1v-1-1h1l1 1 1-2h1v2l-1 1 1 1-1 3h1l1-1 1-1 1-1v-1-1-1h2v2h-1l1 1 1 1-1 1 1 1 1-1h1v-2-1-1l-1-2a5 5 0 01-1-2v-1h1v-3l1-1 1-1 1 1-1 1v3l1 1v3l1 1 1 1 1 1v1l1 1 1-1 1 2h1l1 1h1l1 1 1 1-2 1h-1l-1 1-1-1a1 1 0 000-1 1 1 0 00-1 0h-2l-1-1v5h-1l-1 1h3v1h1-1l-1 1v-1l-1 1h1l1 1 1 1 1-1v-1l1 1 2 1 1 1 1 1h3v-1l2-1v-2a6 6 0 010-1h-1a3 3 0 010-1v-1l1-1v1l1 2a17 17 0 012 5h3l1 1h1v2l1 1 1 1 1 1v1 2l1 2 3 4 1 1v2l1 1v2l1 1h-1v2l1 1v1l-1-1h-1v-1l-1-1v4l-1 2 1 1v2h-1l-1-1-1-4v-1-1l-1-1h-1l1 2 1 2v1h-1v3a21 21 0 001 2v3l-1-1v-2l-1-1-1 1h-3l-1-1-1 1v1a1 1 0 000 2v3l1 1h-1l-1 1h-1l-1-2v-1l-1-1v4h-1l-1 1-1-1-1-1-1 1 1 1v2h-2v-1l-1 1h-1v-2-1-1l-1-1h-1-1l1 2v2l1 1v1l-1 1h-1zm-2-12v-1-1h-1l-1 1 1 1h1zm0-48h-1v-1l-1-1h-2v1h1l1 1h2zm-8 59l-1-2v-3l-1-1h2v-1l1-2v4l-1 1v1l1 1 1-1 1-1v4l-1-1h-1v1h-1zm4-5v-1l-1-1-1-1h2v1h1v2h-1zm-51-1l-1-1h1l1 1h-1zm74-1v-2l-1-1h1l1 1v2h-1zm-76-1l2-2h1l-1 2h-1-1zm30 0l-1-1c-1-1-1-2-2-1h-2l-2-1-2 1h-1v-3l1-1-1-1a3 3 0 00-2 1l-1 1h-1l-2 1h-2v1h-1v-1l1-2v-1l1-1h1v-1l2-1v-1l1-1h1v-1l1-1 2-2 1-1v1l1 1v2l2-1 1-1h2v1h4l1-1 1-1v-1h1v-1a1 1 0 001 0 2 2 0 001 0h1v1h1l1 1a4 4 0 001 1v3h2v1h-3l-1 1-1 1 1 1h1l-1 2-1 1h-3l1 2 1 1h-1l-2-1-2 1h-2v2zm-16-12v-2l1-2 1-1 2-3 3-5 1-1v3a17 17 0 01-2 3l-1 2-1 1-2 3-1 1-1 1zm84-5l-1-1v-1l-1-1v-1h-1v-1a2 2 0 010-1l-1-3a5 5 0 01-1-3v-1l1 2 1 1v-1h1v-1l1-2v-1 1h1l1-1 2-1 1-1h1a8 8 0 000-1v-1h1v2l1 1h1v-1-1c-1 0-1 0 0 0h1l1 2 1 2 1 1a2 2 0 010 1l1 2v2h-1v-1l-1-2v-1h-1v2l1 1v4l-1-1h-1l-1 2v-1h-1l-1-1h-1v2a1 1 0 01-1 0v1h-1v-1h-1v1l1 2h-1-1a13 13 0 000-1v-1h-1v3zm-65-2h-1-1l-1-1-2-1v-1-1-3-1l2 1v1l1 1v1h-1l1 1h7l4-2 1-3h-1l-1-1v-1h1l1 1v1l1 2v1l-1 1v1h1-1l-1 1-1 1v0h-1-1v1l1 1-1-1-1-1h-2v1l-1-1h-2v1h1l-1 1v-1zm21 0a5 5 0 01-1-1v-1l1 1 1 1v1l-1-1zm2-3l-1-1 1-1 2 2h-1-1zm37-21v-2l-1-2v-1-3l-1-1-1 1v5h-1c0 1 0 1 0 0v-1l-1-1v1l-1 1-1-2v-4l-1-2h-1l-1 1h-1l-1 1h-1l1-2v-1l1-1v-1-1h1l-1-1h1v-1l-1-1v-2a5 5 0 000-2v-2h1l1 1v-4l1-1v3l1 2v1l1 1 1-1-1-1v-1-1-2l1-2v-4-3l1 2v5h1l1-1v1l1 1 1-1v-1-1l1-1v1h1v1l1 1 1-1v-1l1-2h1l1-1c0-2 1-2 2-2v1h1v1l1 2h1v-1l1-1 1-3v-2h1l1 1-1 2v1l-1 1v1l-1 1v1l-1 2-1 1-2 2v1l-1 1h2a11 11 0 013 2v1h1-1l1 2 1 2h-1l-1 1-2 1v3l-2 2h-2v1h-1v-1h-1v2l1 3a1 1 0 01-1 0l-1-1v-1-1l-1-1-1 1v1l1 5v1l-1-1c0-1 0 0 0 0a14 14 0 000-1l-1-1v1a7 7 0 010 1v2h-1zm-58-14v-1-2-2l1-1v-1l1 1 2 1 1 1s1 0 0 0l-2 2-1 1-2 1zm32-5h-1v-1h-2v1l-1-1h-1v-1l-1-1v-1-1h-1-2l-1-1-1-1v-1l-1-1 1-1h2v-1l1 1h2l1 1 1 1h1l1 2 1 1h1v-1l1 1v3l-1 2z" fill="#bd8a5e"/><path d="M289 251v-1h2v-1h1v-1-1h1-1l1 1v1l-1 1-1 1h-2zm-2-1h-1c-1 0 0 0 0 0l-1-2 1-3h2c0-1 0-1 0 0v1l-1 1 1 2 1 1h-2zm1-1v-2-1h1v2l-1 1zm25 108l6-3 1 2-7 1zm-5-1c0-2 2-3 4-4l1 2-5 2zm-3-3l4-2v1l-4 1zm-2-1l5-2v1l-5 1zm183-1c2-2 4-2 6-2v2h-6zm121-1l6-2v1l-6 1zm-124-1l4-3 1 2-5 1zm121 0l6-3h1l-1 1-6 2zm-125-1c1-2 4-3 6-3l1 1-7 2zm124-2l2-2h1l1 1-4 1zm-125 0c1-2 2-3 5-3l1 1-6 2z" fill="#fff"/><path d="M281 286l-2-1 1-1 1-1 1-1v-1l1-1v-1-1-1l1-1 1-1h3l1-1 2 1h1v2l-1 1v2l-1-1v1l-1 1a2 2 0 00-1 1l-1 1a1 1 0 00-1 1v1h-1-1l-1 1h-1a1 1 0 01-1 0z" fill="#9e1a36"/><path d="M415 167l-4 7-1-1c0-1 0-1 0 0-1 2-2 2-2 1l-1-1v-1l1-1 2-2c0-1-1-1-3 2-2 1-2 3-2 3l-2 5-2-2-2-1v3l-1 3v2l-1 2c-1 0 1-10 3-13 2-2 1-3 0-1l-2 2v2c0 1-1 2-2 1l-1 2c0 3-1 4-1 2v-1l-1 1-1 1 1 1v3c-1 3-2 3-1-1 0-2-1-2-1 1l-2 3-2-3v-1c-1-2-1-2-1 0l1 5v3l-2-8c0-1 0-1 0 0l-1 5v5l-1-2v-2l-2-1v2c1 3 0 5-1 3v-6l-1-4 1 11-1 4v-2-1h-2-1c-1 2-1 2-1 0 0-1-1-1-1 2 1 3 0 4-1 2v-2 5l-1-1-1-2h-1l2 7 1 5 1 6v2l1-3v3l1 4 1 2v-2l1-3v3l1 3v-3l1-2c1 0 0 0 0 0l1-1v7l1-3 1-4v4l1 3c1 0 0 0 0 0 0-2 1-2 1-1s0 1 0 0v-3-2l2 3v4c2 0 2-1 2-3v-2l1 4c-1 1 0 3 1 3v-1l-1-1 7 7 3 7 1 3h-1l-2-3-2-4-1-3-1-1-1-2-2-2 1 2 2 4 1 2 1 2 2 4h-1v1l1 2c0 2 0 2-1 1l-1-1-1-3v7l-1-3c0-2-2-5-2-3v1l1 7-1-1c0-3-1-2-1 1v2l-1-1v-1l-3-1c0-2-2-6-3-5l-1-1-1-1 1 2 5 9c-1 1-1 0-2-1l-1-2v7l-1-1c0-1 0-1 0 0l-1 1v1l-1 1v3l-1 1-1-2v-2l1-1-1-1h-1l-2-2v1l2 8-2-1-1-1v3l1 3 1 2-1-1-1-1-1 1 1 4-1-1-1-1v6l-3-5v3l1 6-1-2-1-3-1-2 1 2v8h-1 1v2h-1v2l-2-4-1-3v7h-1v5c0 1-1 1-1-1-1-1-1-1-1 1l-1 2v4l-1 4v4l-1 1v5c0 2 0 3-1 2l-1-3-1-4c-2-2-2-1 0 2v2c-1 1-2-1-2-2l-1-1 1 5v2l-1-1c0-1-1-1-1 1-1 3-2 3-2-1l-1-2c-1-1-1-1 0 0v3c1 2 0 2-1 2h-1c-1-1-1-1-1 1v2c0 2-2 2-4 0l-2-1 1 1 3 5c2 4 3 4 2-1s1-1 1-2v-1 3c0 3 0 3 1 1l1-2v-1l1-1 1 2v1l1 2v2l1-4v-2h1l1-1v1l1 1v1l1 4 1 2v-3c-1-4 0-6 1-3v6l-1 1 2-1v-7c-1-3 0-3 1 0v-1c0-2 1-3 2-1s1 1 1-1v-3l1 3v2l1-1v-2l1-2c0-2 0-2 1-1s1 0 1-2c1-3 2-3 1 0l1 2v-2c0-3 1-2 1 1 0 1 1 1 1-1l1-4 1 1v1l1-3v-3 1h1l-2-5v1c1 1 0 2-1 1h-1v2l-2-2v-2 6c1 1 1 1-1 1l-1 2-1 2v-2c0-2-1-3-1-1h-1-1v3l-1 1v-1h-1l-1-2c0-3 1-4 1-2l1-1c0-2 0-2-1-1s-1 1-1-1l1-1 1-1c0-1 0 0 0 0l-1-4 1-4v3l1 3v2l1 2v-4l1-4 1 6v3l1-5 1-8 1 1 1 2v-5l1-2v2c0 2 1 2 2 0l1-2 1 1c1 2 2 1 1-2s0-3 2 0l2 2-1-4h1l1-1h2l-1-2c-2-1-3-4-2-4l1 1 1 1c1-1 1 1 1 2l1 1v-5-1l1-1 1 1v1h1c1 1 1 0 1-1v-3-2-1c1 0 2 1 2 3l2 6c1 3 3 5 2 6l-1-1c0-1-2 1-2 3 0 3 0 2-1-2l-2-7v4c1 4 1 6-1 7-2 2-2 2-3-1l-1-1 1 3v2l-1 2-1 2-2-1v6l1-1 1-1h1c1 1 1 0 1-2v-3l1 3 1 2v-3l1-2v2l1 1v-1-5 2a6 6 0 001 2v-2l1-2 2 4c1 3 1 3 0 0v-5l1 1v3l1 1v-5l1-3v1l1 1v-1c1 2 2 0 1-1v-2l1 1c0-1 1-1 2 1l1 2-1-3 1-2v-2-1l1 2 1 3 1-1c-2-4-1-9 1-5v-3l1-3 1 2c1 3 2 2 1-2l-1-3 1 1v-1c-1-2 0-3 2-1l1 1v-1l-1-2 1-2v-5 2l-1 1v1l-1 1-2-1h-1c1 1 0 1-1 2l-1 2v2l-1-1-1-1c-1 0 0 0 0 0 1 2 0 5-1 4v1l-1 1v3l-1-1-1-1v6l-1-3-3-6 1 3 1 8v-1l-1-2-1-1-2-4-1-3-1-3v-3l1 2c0 2 2 3 3 3v-1-1l-1-5 1-2 2 4 2 4-1-3-2-4-1-3 1-1 1 2 1 1v-2-2c1 0 2 1 2 3v3l1-1c0-1 1-2 2-1l1 1-2-3-3-4 2 1 2 1c2 1 2 0 2-1l-1-1v-2c1 0 3 0 3 2v1l2 2 1 1-1-3-1-2v-1l-1-2c-1-2 0-2 1 0h1l-1-3-2-4c0-2 1-1 3 3l3 4-1-3-2-3v-2l-1-2 2 2 2 2-1-4-1-1 2 1 2 1-1-2-2-2v-1l-1-1 1-1c-1-1 0-1 1-1h1v-3c0-2 0-2 2 0l2 3v-1l-3-4-3-3 5 3 1 1-1-1v-2l-1-1v-2c1 0 1-1-1-1l-2-2h1c2 1 3 0 2-2l-1-2v2c1 2 0 2-1 0l-1-6 1 2v1l4 3 2 1-1-4 2 2c0 3 2 4 1 2v-2l-1-2c0-4 1-4 2 0l1 3 3 3v1c1 1 1 1 1-1l-1-3c-2-1-2-2-1-2h1c0 1 0 1 0 0l-1-1-3-7 1 1 1 1v-1-2l2 5v2l1 1v-1l1-2-1-1-1-3-1-2c-1-1-1-2 1-2l2 2 1 3h-1l1 1 2 2 1 2 1-1-1-2c-2-2-2-3-1-3l1 1v-2l-1-1-1-2-2-2 1-1h3l2 2 3 7h-1-1l-1 3 3 3-1-2v-2l2 2v-2c0-3 1-4 1-2l1 1v-3c2 0 2 0 0-2v-2l2 2 1 3 2 4 2 3-1-3-1-4-1-2c-2-1-2-3-1-3l1 1h1l-2-2-2-1v-2l2-1c0-1 2-1 2 1h2v-1c1 0 2 2 1 3l1 1 1 2 1 3 1 2c0-1 0-1 0 0l1 1 3 1c0 1 0 2-1 1h-1l-2-1c0-1 0-1 0 0 0 2-1 1-2-2l-3-7v3l1 3 3 7h-1l1 4c0 3-1 2-2 0v5l-1-1-1-3c-1-2-2-1 0 2l-1 4v1l-1 1v-3l-1-6-1-1v9c0-3-2 0-2 3 0 2-1 3-1 0 0-1 0-1 0 0l-1 1v-1-7l-1-2v5l-1-1v-1 1c-1 3-1 1-1-3v-1c1 1 1 1 1-1l-1-4-1-1v1l-1 5v4l-1-1-1-3-1-3c-1-2-1-3-2-2l1 3 2 5v6l-1-3v-2c-1 2-2 1-2-1l-1-1v2 2l1 5-1-1c0-3-4-9-4-8l1 3c2 3 2 8 2 9l-2-1v2c2 2 2 3 1 3l1 2 1 2h-1l-2-2c-1 1 0 2 1 3 2 2 2 3 0 4v1h-1l1 2c3 3 4 6 2 6v8l1-3 1-2 1 4v3s1 0 0 0l2-8v5l1 5v-2-3h1l1-1 1-2v3 4c0 1 0 0 0 0l1-2c0-1 0 0 0 0l1-4 1 2v6l1-1c-1-3 0-8 1-8v4 3l1 2v-2l2-7v3 3c0 2 0 2 1-1v-4c1-1 1 1 1 2l-1 6 1-1 1-2v-2c1-3 1-4 2-3l-1 5v3l3-5 1-3-1 6v2c0 1 0 1 0 0h1c1 1 1 1 1-4 0-3 1-4 1-1v6 1c1 0 2-3 1-6l1-4 1 3 1 4c1 1 1 1 2-2l1-2v-1c0-3 1-2 2 0l-1 6h1l1-3c0-4 1-6 2-6v3c-2 4-1 4 0 0 2-3 3-4 3-1l-1 2-1 1-1 1 2-1 1-2 1-2 1-3 1-2v2l1 3v-2l1-5v4l1 3v-1l1-1 2-3c1-3 2-3 1-1 0 1 0 2 1 1v7l1-3 2-6v6l2-4 1-2v-1l1-2v4l-1 1v1l2-1 1-3v-2l1-1v-1l1 3-1 4v2l2-7c0-2 1-2 1 0l1-5v-2l-1 2-1 2v-1l-1 1h-1v-1-5c0-5-1-3-2 2 0 5-1 6-1 1 0-2 0-2-1 0 0 1 0 2 0 0l-1-1-1-1v-3 2l-1 2-1 2c0 4-1 3-1-1v-3 4l-2 4v-1l1-8-1-7-1-3 1-2v2l1 1 1 1 1 2v-2c0-5 1-6 1-1 1 5 2 6 1 1l-1-6-1-3 2 1 1 3v-6c-2-4-1-4 1 0 1 2 2 3 1 4l1 3v-8l-1-3c-1-2 0-2 1-2v3l1 2v2l1-1v-3c1 0 2 1 1 2l1 4 1-2v-8l1 2 1 5v-1-1l2 3v3-3c0-2 1-3 2-2l-1 7v1h1v-2-2h2v-8l1 3v1l1 1v4l1 3v-2-3-4l1-1h1l1 2v-2l-1-3v-2l-2-1h5l-1-4v-1l3 7 2 4-1-3v-3c1 1 1 0 0 0v-4l1 3 1 1v-4l-1-3-1-2-1-3 2 2 1 2v-2-2-3-2c1 0 1 0 0 0h-1l-1-2-1-2 1 1 2 2 2 2 1 2v-2-2-2l-1-1c0 1-1 1-2-1l-2-4-2-2-1-2-1-1 1 2 2 6c-1 1-4-3-3-4l-3-7v-1l-1-2c-2-1-2 0 0 2l3 7h-2l1 2 3 6-1-1-1-2v2l-2-4v-4l-1-2-1-2-5-11c-1 1 1 6 3 9v3l-4-7-2-3-2-2-1-1 2 3 2 6-2-3c-1-2-2-4-3-3l1 2v3l-1-2-1-2-1-3-2-3v4l-2-3c-1-3-1-1-1 1 1 3 1 4-1 2-1-2-2-2-1 0v2l-1-2h-2-1v-2l-1 2 1 2a1 1 0 010 2l-2-1-2-2 1 2v1l-1-1-1-2-1-1 1-1v-1h-2c0-2-1-1-1 1v1l-1 3v1l-1-2h-1l-1 2-1-1-1-3-1-1c-1 0 0 0 0 0h-1v6l-1-1-2-2v1l1 2v1h-1l-2-1-2-1v4l-2-5-3-4 1 2c1 1 1 3-1 1v1h-1l-1-2v-1h-1v2c0 1 0 2-1 1v3l1 5-1-3c0-2-1-2-2-2v-3c0-3-1-1-2 2l-1 2v-6h1v-1l-1-1v-2-5-2l-1 2-1 1-2 1c-2 2-2 1 0-1l2-4-1 1c-1 2-3 3-3 1v1l-2 1-3 2c0 2-1 1-1 0v-4-1l1-1h2c1-1 0-1-2-1h-4v-1c-1 1-2 0-1-1h-1l-2 1c-1 0-2 1-2 3-1 2-2 2-2 0-1-2-2-3-2-1l-1 1v-2l1-1v-1l-3 2-1 1v-1-1l-1 1-1 1 1-4 1-1v-1zm10 5l2 2c0 1 0 1 0 0l4 1h-2l-2 2-1 2c-1 1-1-3-1-4v-2-1zm-1 2v2h-1l1-2zm-9 1v2l-1-1 1-1zm2 0h1l-1 1-1-1h1zm2 0v2c0 1-1 2-1 0l1-2zm-7 0l1 1-1 2-1-2 1-1zm-2 1v1l-1 4c0 5-1 3-1-2 0-2 1-3 2-3zm12 1v1h-1l1-1zm-17 0v3l-2 3 2-6zm25 0v1l-1 2v-3a1 1 0 011 0zm-14 1v2l-1-1 1-1zm22 0v1l-1 1-1-1 1-1h1zm5 1l-1 1c-1 2-2 1 0-1h1zm-23 0v1h-1v-1h1zm-20 0v1l1 1v2l-1 2-1-1v-3l1-2zm38 2v1h-1l1-1zm-24 0l1 1-1 1v-1-1zm18 0v2l-1-1 1-1zm-25 0v2l-1 2v-3l1-1zm28 0l1 1h-1v-1zm-13 1v1c0 2 0 2-1 1l1-2zm-11 0l1 1-1 1v-1-1zm16 0l1 1-1 1v-1-1zm-31 1v1c-1 2-2 3-2 1l2-2zm150 0l2 4 2 4 1 2c1 1 1 1 0 0v1l2 3-2-1-2-1 1 2 2 2c-1 1-1 1-3-2l-2-3-1-2c-2-1-1 1 1 3l4 7-2-1c-2-2-2 0 0 3l2 2-2-1-1-2s0 3 2 4 2 4 2 5v-1h-1l-1-1-1-1h-1l1 3 2 4v3l-1-1-1-3h-1v-1l-2-5c0-1-1-1 0 0l1 3 1 6 1-1v3l1 4v-1l1-1 1 7 1 3 1 6v2h1v-2l1-1v-1h1v4l1 4-1 1-1 1 1-4v-1c-1-1-2-1-2 1l-1 1v-1l-3-4 1 4 1 5-1-1-1-4v6l-1-2 1 4h-1l-1-2-2-4-2-8v5l1 5 1 1c1-1 1 0 2 2l1 3v1l-1 1-1-2c0-3-2-5-2-4l1 3v3c0 1 0 1 0 0l-3-5 1 5c2 3 1 4 0 1l-2-3c-1 0-1 1 1 4l1 3-2-2-1-2 1 3v2l-2-6-3-5-1-1v-1l-1-5v-1l1 4h2l1 4c0 1 0 2 1 1s-1-2-1-3l-1-7c1-1 0 2 2 2l2 6v-2l-1-7c1-1 2 1 1 2 0 1 1 3 1 1l-1-11c1-1 1 1 1 2l4 5-2-10v-1c1 3 3 5 3 8v6l1-3 1-1-1-4c0-1-2-3 0-3l2 5v-2c0-3-3-5-4-7l-1-10v-1c-2 1-1 3-1 5v3l-2-6v4l1 4c-1 0-1-3-2-2v5c-2 0-1-3-2-4 1-1 0-4-1-3-1 3 0 6 1 8v4l-2-5-1-4v5l2 6c-1 1-1-1-1-2l-3-7v2l1 5 1 5c-2-2-2-5-3-7-1-1-1 1-1 2l1 2-1 4v2l-1-1v-1l-1-1h1l-1-2v7l-1 2s0-4-1-2l1 5-2-5v-2l-1 3 1 6 1 3-1-1-1-2-1-3c0-3 0-3-1-2l1 5 1 6-2-5-2-4c0-1 0-1 0 0v2l1 3 1 5v1l-2-4c-1-4-2-5-1-1v7c-1-1-1-1-1 1v3c0 2 0 2-1 1a11 11 0 010-3c0-1 0-1 0 0 1 1 1 1 1-1l-1-1v-1-2c-1-3-1 1-1 5l-1 3v-1l-1-1v3l1 2 2 5v1l1-4v1l1 5c1 1 2 0 1-1v-7l1 1v-7 2l1 1 2 3 2 5-1-3-1-6-1-4 1 1v1l2 3 3 7h-2v2l-1 1v1l1 2-2-2-1-1 1 3 1 1c-1 1-4-5-4-6l-1-1v1l3 6 1 3-2-3-1-1 1 2v3l-1-1-1-1c-1 0-1 1 1 3 0 1 0 2-2 1v1c0 1 0 1 0 0l-1-2-1-2v1a32 32 0 001 4v2l-1-3-1-2v4c2 3 2 4 1 4l-1-2-1-1v6l-1-2v-1 1c0 1-1 1-1-1v-11h-1v7l1 9v3l-2-12-1-3v14l-1-1v-1-1l-1-3-1 3v2c0-3-1-2-1 1v2c0-2-1-3-1-1l-2 3-1 4 1-2c2-3 2-2 1 1l-1 3v2 2l1 1 1-1v1l-1 4 1-2c0-1 1-1 1 1v4l-1 4v3c-1 1-1 1 0 0l1-2c1-5 2-6 1-2v6 1l1-5c1-5 2-6 1-2l1 4v-3l1-3v1l-1 7-1 8v2c1 1 2 0 2-4v-1 3l1-3 1-5c0-4-1-5-1-2v3-7c1-1 1 0 1 3l1 4 1-4-1-4-1-11v-6l1 4 1 5v-4l1-3v1c0 2 0 2 1 1v2l1 2c1 0 2 0 2-2l-1-2v3l-1-2-1-3 1-2 1 2 1 2v3l1 2 1-9v2h-1v-7l1 1 1 2 1 1h1l-2-4-1-4c0-1 0-1 0 0l2 4c1 3 2 10 1 11v-2c0-2-1-4-2-3l1 3v10l1-2v-4c1-2 1-1 1 2l1 4v-5-4l1 4v-2l-1-4v-3l-1-4v-2h1l-1-6c-1-2-1-3 1-2 1 2 2 7 1 10v5l1 10 1 5v-1-2-13l-1-5 1 2c1 3 1 3 1 0 0-4 0-6-1-5l-1-1v-3c0-2 1-2 2 0s1 1 1-2 0-3 1-1v2-2c0-4 1-3 2 1v-2-3l1 4c0 4 0 4 1 0v-3-4l-1-3 2 4v-6-1l2 4c0 3 1 4 1 1l-1-6-1-2 1 1 1 1 2 9 1 3a82 82 0 000-18l1 3v3l1 2 1 2v-3-4-3-4l1 1v1l1 2 1 2v-2-1l1 2v-2-8l1 2c0 1 0 1 0 0l1 7c-1 6 0 8 1 7v-8-6l1 4c0 6 0 6 1 3v-6l-1-6 1-4v5l1 9 1 3v-6c-1-11 0-17 1-16v2 3c1 1 2 0 2-3v1l1 5v-4-4c0-1 0-1 0 0l1 3v2l1-2v-2l1-1v-5l1 2c1 2 1 2 1-2v-4 4l1 4v-1l1-1v-3l1-3 1 8 1 7c0 1 0 1 0 0l1-2v-1l-1-3-1-3v-2 1h1l-1-6v-2l1 1 1 2c1 1 1-1 1-3v-1-2l1-2v1l1 2v-1c0-2 0-2 1-1v2l3 6v-4c-2-2-2-4-1-5v-3l-1-3c-1-2 1-2 1-2v2h1l1 4 1 9 1-2v-3c-2-2-2-3 0-1v-3l-1-3-1-4v-2l1 2c1 2 2 1 1-1v-3l-1-2 1 2 1 2 1 1c0 1 0 0 0 0l5 11 1 2-1-7s-3-5-2-6l-1-2-1-3h1s0 1 0 0l1 2 1 2 1 4h-1 2l-1-3-1-4v-4l4 8 2 3-1-3-1-3-1-4c-1-2-2-3-1-4s0 0 0 1l1 3 2 4 1 2-1-7-3-7 2 1c0 2 0 2 0 0v-2l1 2 1 4 2 2c1 4 1 4 2 3s-2-8-3-9l-4-7-1-2-2-1v3l-1-3-1-2c0 2 0 2-2-1 0-2-1-3-2-3l1 2v2l-2-6-1-1v5c-1 1 0-1-1-2-1-3-2-2-1 0l1 3-2-3-2-4 1 4 1 4-2-3-1-3c0 1-2 1-3-1-2-2-2-1 0 2l1 3-2-2c-2-2-3-2-3-1l-2-1c-1-2-2-2-2-1l4 3c1 0 3 3 3 5l1 1v1l-2-3-2-3 2 5c2 2 2 4 2 5l-1-2-1-2-1-1-1-2-1-2-2-1-2-2-1-1 2 4 4 5c1 3 0 2-1 0l-3-4 3 7 1 1-4-5h-1l3 5 5 7c0 1-2 0-4-3-2-2-3-2-1 0v2l-1-1v2l2 2v1h-1l2 5-3-5-2-4-2-3c-2-3-4-4-2-1 3 3 5 8 5 10l1 2v2l-1-2-3-3 1 1v2l-2-4-1-3-1-2-2-3c-2-3-2-3 0-1l3 2-2-4h2c3 2 4 1 2-1l-1-2h2v-1l-3-4v2l1 1c-1 1-3-2-3-3a8 8 0 000-2h1l1 1v-1l-2-3-2-3-1-1 1 2v2l-1-2-1-1-1 2 1 3 1 2-1-2-2-4v3c0 1 0 2-1 1l-2-5h-1v1l1 3v2l-3-6v-1l-1-1c0-1 0-1 0 0l-1-1-2-1zm-104 0v1l-1 1-1-1 1-1a1 1 0 011 0zm-34 2v0zm-6 0v4l-1-2 1-2zm29 1l2 1-3 1c-2-1-1-2 1-2zm44 1l2 3-2-1v-2zm-20 0v1l1 2 1 2-2-1v-4zm31 2h1v1h-1v-1zm-34 0l3 3 2 3-3-2c-1-2-1-3-2-2v1-3zm-60 0h1l-1 1v-1c0-1 0 0 0 0zm50 0l1 1-1 1v-1-1zm-11 1l3 2h-3l-1-2h1zm-34 0l1 1-2 2v-2l1-1zm-6 1l1 1-1 1v-1-1zm2 1v4l-1 4 1 3 1 3v3c1 1 1-3 1-6s1-3 2 0l2 9c1 2 0 3-1 2l-1-1v2l-1 1v2l-1 2 1-7v-6 2l-1 3-1 2c0 1 0 0 0 0l-1 1v1l-1-1 1-2c1 0 0-2-1-1v-2l-1-2-1 1-2-2v-2 2l-1 2v-3-3l-2-6v-2l1 3v2l1-2v-3l1 2 1 2v-3l1-2v4l1 3v-2l1-4 1-2v-1zm60 2l1 2 1 3-3-5h1zm-18 0h2l1 2v7l-1 1-3-3-2-2-1-1c1-1 4 1 4 2l1 1c1 0 1-1-1-2l-1-3 1-1v-1zm-3 0l1 1a1 1 0 01-1 0v-1zm148 0l1 2 1 4-2-5v-1zm-184 1l-1 5-1 1v1-3l1-3 1-1zm50 0h1v1h-2l1-1zm-64 2l1 1 1 1 1 2v2l1 1-1 2-1-1v-3l-1-2v2c0 3-1 2-1-1v-3-1zm65 1c0 1-1 3-2 2l1-1 1-1zm114 0l2 1v1l-1-1-1-1zm-163 0l1 3c0 3-1 3-1 0v-2-1zm-22 0l1 2v2l-1-3v-1zm75 1v1h-1l1-1zm-3 2h1l-1 1-1-1h1zm-3 0l1 2h-1l-1-2a1 1 0 011 0zm-13 0l2 2c3 2 5 5 5 7 1 3 1 3-1 1l-1-1-2 1c-2 0-3-1-2-2l-1-2v-1-2-3zm73 0l1 3v1l-1-3v-1zm-125 2l1 2v2c-1 1-1 0-1-1l-1-3h1zm71 1h1l-3 1c-2 0-2 0 0 1a31 31 0 002 2l1 2h-2l-1-1c-1 1-3-3-2-5h4zm122 0l2 1v2l-2-3zm-190 1v1c0 2-1 2-1 1l1-2zm120 0l2 1h-1l-1-1zm-130 1l2 4-1 4-1-7v-1zm81 0l1 1v1c-2 0-2-2-1-2zm-14 0l1 2h-1l-1-2h1zm-64 1l1 1c0 2-1 2-1 1v-2zm23 0l1 2-1 3v-4-1zm10 0l1 1h-1v-1zm34 0l1 1-1 1v-1-1zm66 0l1 1h-1v-1zm-3 1l2 2c2 2 1 3-1 0l-1-2zm54 0l2 2 2 4a5 5 0 010 2l1 3 1 3-3-6v-2l-1-1-1-3-1-2zm-48 0h1l3 6-1-1-2-1-1-2v-2zm-82 1l1 2-1-1v-1zm-25 0l1 1v2l1 2v2l1 1v-1-4l-1-3 1 2 1 1 2 6h-1v-1l-1 1v2c0 2 0 3-1 1l-1-1-1-3v1c0 2-1 3-2 1v-4l1-4v-2zm48 0l1 2c-1 0-2-1-1-2zm-43 1l1 1h1l2 1-1 1-1 1 1 1 2 5-1 1-1 1c1 2 0 2-1 0l-1-1c-1 1-1 1-1-1v-1h1c1-1 1-4-1-7v-2zm150 0l1 1c0 5 1 8 3 11v2l-1-2-2-8-1-2v-2zm-172 1l1 2v1l-1-3zm63 0h1l1 2h-1l-1-2zm122 0l2 3 1 3-2-3-1-3zm-172 0l1 2c0 1-1 2-2 1v-2l1-1zm105 0l2 2 1 3-2-2-1-3zm53 0v1l1 1c-1 1-1 0-1-1v-1zm-124 1l4 4-1 1-4-5h1zm76 0l1 2c0 1 0 3-1 2v-4zm41 1v4-4zm-98 1l2 3-2-1v-2zm102 0l3 4-3-4zm-141 1l2 3c0 2 0 3-1 1l-1-3-1-1h1zm-16 0v2c0 2-1 2-1 0l1-2zm183 1h2v1l2 9 1 1c-1 0-3-2-3-4v-2l-1-4-1-1zm-27 1l1 1 2 3 2 4-1 1-1-3-3-5v-1zm27 0v1c0 1 0 0 0 0v-1zm-29 1l1 1 3 8-1 1-1 1 1-2-1-4-1-2c-1 2-1 1-1-1v-2zm-40 1l1 1 1 2-1 1-1-3v-1zm47 0l1 2 2 3-2-1-1-4zm-144 2l2 4v1l1-1 1-2-1 4v1l-2-1-1-6zm157 0h1l-1 1-1-1h1zm3 0l1 2h-1v-2zm-169 1l1 5c1 3 0 3-1-1v-4zm145 0l4 11c0 2-1 1-2-2l-2-6v-3zm30 0v1c0 1 0 1 0 0v-1zm-172 0l1 1 1 5v1l-1-3-1-4zm-6 0l1 1v1c0 1 0 0 0 0l-1-1v-1zm-3 1l2 7-2-5v-2zm180 2l1 1c-1 2 0 6 1 5v1c0 2 0 2-1 0-2-4-2-7-1-7zm-190 0l2 5-2-2v-3zm7 0l1 3c1 2 0 3-1 1v-4zm171 1l1 2h-1l-1-2h1zm-11 0v2l-1-1 1-1zm-66 0l1 1v4l-1-5zm-97 1l1 1-1 1v-2zm60 0l1 1 1 2v2l-1-2c-2-2-2-3-1-3zm39 0l1 3-1 2v-2-3zm80 0l1 1-1 1v-1-1zm-75 1l1 3v2c-1 0-2-4-1-5zm68 0v2l-1-1 1-1zm-61 1l1 1c0 2 0 4-1 3v-4zm72 0l1 1 1 2c-1 1-2-2-2-3zm30 0v1l-1 2v1l1 3 1 3c0 2 0 2-1 1h-1c0 1 0 1 0 0h-2v9l-1-5-1-6c0-2-1-3-1-1-1 1-1 3 1 7l1 7-1 6 1 5-1-4v-6l-1-8-2-5v4c1 2 2 12 1 13v-1l-1-2v-1c-1-2-2-2-2 0v6 5l1 10-1 4c1 1 1 1 1-1l1-9v-6l1 7v-2l1-6v8l1 6 1-5 1-2v-6l1-5v9l2-9-1-1c0 2 0 2-1-1 0-1 0-2 1-1v-3l1 2 1 5v3l1-4-1-4 1-1 1 2 1-7v-6l1 5 1 9v-9l1-3v3l1 3c1 1 1 0 1-3l-1-4-1-2c0-2-1-1-1 1 0 1 0 2-1 1l1-5-1-1-1 2c0 1 0 2-1 1v3l-1 4v-1l-1-13v-1-1h-1zm-155 1c1 0 2 1 2 3v3l-2-6zm108 0l1 1 1 3 1 6c0 3 0 3-1-1l-1-4v1l-1-2 1-1-1-1v-2zm-162 1l2 3c0 1-1 1-2-1v-2zm177 0l1 1 1 3v1l-2-3v-2zm-180 0l2 1v3l-1 1-1-2v-3c-1 0-1 0 0 0zm161 0l1 4h1l2 3 1 3h-1-1l-1-1v-2l-2-7zm2 0l1 1v2c-1 0-2-2-1-3zm10 3v4l-1-2 1-2zm-155 0l1 1v1c-1 0-2-1-1-2zm161 1v0zm-123 0l1 5c1 5 0 6-1 1v-6zm121 1l1 1c0 2 0 4-1 3v-4zm-173 1l2 2h-1l-1-2zm171 0l1 1-1 2v-1-2zm-5 0l1 1v1l-1-1v-1zm-116 1l1 4v4l-1-5v-3zm-2 3l1 4-1 2-1-2 1-3v-1zm35 0h1v2h-1v-2c0-1 0 0 0 0zm85 1v2l-1-1 1-1zm-35 1v0zm-88 0l1 5c1 2 0 3-1 1v-6zm163 1v0zm-2 0l1 3v1l-1-3v-1zm-138 1h1l-1 1h-1l1-1zm90 0l1 1v3l-1-2v-2zm-78 1l1 2v15l-1 2-1-2v-2l-1-6 1-6v-2l1-1zm64 0s0 2 1 1l-1-1zm11 0v2l-1 2v-2l1-2zm-111 1v2l-1-1h1a1 1 0 010-1zm90 0v0zm-61 1l1 2 2 1v-1l1 1v11c0 3 0 4-1 1l-1-3v-2l-1-1v-2-1l-1-6zm122 1v13l-1-4-1 4c0 3-1 3-1 0l-1-4v-2 4l-1 4v3c0 2 0 3-1 2v-5l-1-4v13l-1-4-1-5v4l-1 5-1-3v-5l-1 4v3-2l-1-3v3l-1 5v-3-3c-1-2-2-2-2 0v6l-1 4v-6-7c-1-1-2 1-2 3 0 5-1 6-1 2l-1-4v7c0-2-1-1-1 3 0 3 0 3-1 1v-3l-1-2v-1l-1-1v6l-1 3v4l-1-4v-4c-1-1-1 0-1 3v1l-1-2v6l-1-1-1-2v4-2l-1-1v3l1 4c-1 1-2-3-2-5v-2l-1 3 1 3-1 1h-1a48 48 0 010-2v-1l-1 3v1h-1v-2l-1 3-1 5v-2-4h-1v13c1 6 1 7 2 2v-4-3c0-2 1-1 1 2l1 3 1-6c0-6 0-7 1-2v2l1-2 1-1c-1-2 0-3 1-1v-1c1-2 1-2 1 1v3h1l1-2v1c1 2 1 2 1 0v-2l1-2 1-4v7c1 1 1 0 1-3v-4l1 2c0 3 0 4 1 2l1-3c0-4 1-2 1 3 0 4 1 5 1 1l1-1c0 2 1 3 1 1h1v-5l1-5v13l2-10v-4s1 0 0 0l1 5 1-2c0-3 0-3 1-2l-1 11c-1 3 1 1 2-3v-13l1 5c1 5 1 5 2 1 0-2 0-2 0 0l1 2h1v1l2-9v-5 6l1 2h1c2-1 2-1 2-3l-1-8 1 4v2l1-1v-10l-1-7v-5l-1 2v-1l-1-4zm-58 1h1l1 4 3 6 1 3-1-2c-2-3-2-2-1 2l1 3-1-2c-2-3-2-4-2-2v2l-1-1v-5h1v1l-1-6-1-3zm-88 0v2l-1-1 1-1zm82 1l1 1v1l1 1 1 1 2 4v-3a23 23 0 00-1-1l1-1v-3c1 3 2 4 1 5v8c1 1-1 3-1 2l-1-4c-1-5-2-7-2-4l1 7 1 6-2-4v-1l-1 1v1l-1-3v-6 2l1 2-1-11v-1zm21 1l1 2h-1v-1-1zm-81 1v4l-1-2 1-2zm-67 4l2 1c1 2 0 3-1 1l-1-2zm69 0v3l-1-2 1-1zm85 0l1 1v3l-1-2v-2zm-154 4h1v2l-1-1v-1zm150 0v0zm51 1v2l-1-1 1-1zm-131 0v2l-1-1 1-1zm129 2h1v2l-1-1v-1zm-200 0h1v2h-1v-2zm147 3v0zm-172 2l3 3-1 1-3-4h1zm217 3v6c-1 1-1 0-1-2l1-4zm-200 0l1 2c0 2-1 2-2 1v-2l1-1zm195 3v0zm-128 0v3l-1 2 1-5zm109 3v0zm4 0v5l-1 1 1-6zm17 2l-1 2v-2h1zm-52 3h1v1l-1-1zm37 1v0zm-40 0l1 2c0 2 0 2-1 0v-2zm12 7v9l-1-3v-3l-1 2v3l-1 3v2-3c0-4-2-4-2 0v3-1l-1-3v4l-1 3-1 2c0 1-2 2-2 0l-1 1-1 7v5l1-6v-4l1 4v4c1 1 1-1 1-5v-2l1 2 1 3v-4l1-4v-2 2c0 2 2 1 2-2v-2l1 2c-1 2 0 3 1 2v-2l1-6v3l1 2 1-3 1-3v3c0 3 1 4 1 2l1-5 1-3-1-2c0-2-1-3-1-1l-1 3v-1l-1-3v-2l-1-1zm-21 5l1 1v1l-1-1v-1zm-4 4v0zm-5 2l1 1c0 1 0 3-1 2v-2-1zm-3 1v3l-1 5v-3l1-5zm-154 2l1 3c0 2-1 2-1-1v-2zm154 2v2-1-1zm-3 2v5l-1-2 1-3zm-2 0v0zm-1 1v1l-2 2 2-3zm7 2v2l-1 4v2l-1-2 1-5 1-1zm-155 1v4l-1-2 1-2zm155 6c0-1 0 0 0 0v0zm-161 0l1 1-1 1v-1-1z" fill="#bd8a5e"/><g fill="#584528"><path d="M231 415v41h18v9h-27v-50zm30 0v50h-9v-50zm15 9v11h18v9h-18v21h-9v-50h27v9zm96-9v50h9v-29l12 29h9v-50h-9v29l-12-29h-9zm45 0v50h-9v-50z"/><use xlink:href="#B"/><path d="M196 415l-13 50h9l2-9h14l2 9h9l-13-50zm5 15l4 17h-8zm513-15v50h-9v-50z"/><use xlink:href="#C"/><path d="M684 415v41h18v9h-27v-50zm-117 0v50h9v-21h9c7 0 12-5 12-12v-5c0-7-5-12-12-12zm9 9h9a3 3 0 013 3v5a3 3 0 01-3 3h-9zm63-9v50h18c7 0 12-5 12-12v-6c0-3-1-5-3-7 2-3 3-5 3-8v-5c0-7-5-12-12-12zm9 9h9a3 3 0 013 3v5a3 3 0 01-3 3h-9zm0 20h9a3 3 0 013 3v6a3 3 0 01-3 3h-9zm-45-29v38c0 7 5 12 12 12h6c7 0 12-5 12-12v-38h-9v38a3 3 0 01-3 3h-6a3 3 0 01-3-3v-38h-9zm-69 0v50h27v-9h-18v-12h18v-9h-18v-11h18v-9h-18zm-222 0c-7 0-12 5-12 12v26c0 7 5 12 12 12h6c7 0 12-5 12-12v-26c0-7-5-12-12-12h-6zm0 9h6a3 3 0 013 3v26a3 3 0 01-3 3h-6a3 3 0 01-3-3v-26a3 3 0 013-3z"/><use xlink:href="#C" x="-162"/><use xlink:href="#B" x="570"/><path d="M433 415l-13 50h9l2-9h14l2 9h9l-13-50zm5 15l4 17h-8z"/></g><defs><path id="B" d="M162 415c-7 0-12 5-12 12v26c0 7 5 12 12 12h6c7 0 12-5 12-12v-3h-9v3a3 3 0 01-3 3h-6a3 3 0 01-3-3v-26a3 3 0 013-3h6a3 3 0 013 3v3h9v-3c0-7-5-12-12-12h-6z"/><path id="C" d="M498 415v50h9v-21h9a3 3 0 013 3v18h9v-18c0-3-1-5-3-7 2-3 3-5 3-8v-5c0-7-5-12-12-12zm9 9h9a3 3 0 013 3v5a3 3 0 01-3 3h-9z"/></defs></svg>