<svg xmlns="http://www.w3.org/2000/svg" width="600" height="400"><style>.B{fill:none}.C{stroke:#000}.D{fill:#ffd93c}.E{stroke-width:1.164}.F{stroke-linecap:round}</style><path d="M-2214 2029z"/><path d="M0 400h600V0H0v400z" fill="#76a1a0"/><path d="M163 360c0-2 0-3-2-3v-1h9c6 0 9 4 9 8 0 5-3 9-9 9h-9v-1c2 0 2-1 2-3v-9zm5 9c0 2 1 2 2 2 3 0 4-2 4-7 0-4-1-7-5-7l-1 2v10m25-2h-1c0-1-1-2-3-2v4c0 2 0 2 3 2s4-1 5-4h1v6h-17v-1h1c1 0 2-1 2-3v-9c0-2-1-3-2-3h-1v-1h16v5h-1c-1-3-2-3-5-3h-2v5c2 0 3-1 3-2h1v6m22-11h1v6h-1c-1-2-2-5-5-5-2 0-4 2-4 8 0 4 2 6 4 6 3 0 5-2 5-4h2v6h-2v-2l-6 2c-5 0-9-3-9-8 0-6 4-9 9-9l5 1 1-1m16 11h-1c0-1-1-2-3-2h-1v4c0 2 1 2 4 2 2 0 4-1 4-4h1v6h-16v-1h1l1-3v-9l-1-3h-1v-1h16v5h-1c-1-3-2-3-6-3h-2v5h1c2 0 3-1 3-2h1v6m23-11h7v1h-1c-1 0-2 1-2 3v9c0 2 1 3 2 3h1v1h-9v-1c1 0 2-1 2-3v-9l-6 13h-1l-6-13v8c0 3 1 4 3 4v1h-6v-1c1 0 2-1 2-4v-8c0-2-1-3-2-3h-1v-1h8l4 11 5-11m11 4c0-2-1-3-2-3h-1v-1h10c4 0 6 2 6 4 0 3-2 4-5 4 4 1 6 2 6 5 0 2-2 4-7 4h-10v-1h1c1 0 2-1 2-3v-9zm4 10l3 1c1 0 2-1 2-3s-1-3-4-3h-1v5zm0-6h1c2 0 3-2 3-4s-1-2-3-2h-1v6m24 3h-1c0-1-1-2-3-2v4c0 2 0 2 3 2s4-1 5-4h1v6h-17v-1h1c1 0 2-1 2-3v-9c0-2-1-3-2-3h-1v-1h16v5h-1c-1-3-2-3-5-3h-2v5c2 0 3-1 3-2h1v6m15 2l1 3h1v1h-10v-1h1c1 0 2-1 2-3v-9c0-2-1-3-2-3h-1v-1h10c5 0 7 2 7 4 0 3-2 4-4 4l5 6 1 2v1h-5l-5-8h-1v4zm0-5h1c2 0 3-1 3-3 0-3-1-3-3-3h-2v6m25-8h2l-1 1 2 1h11v1c-3 5-5 12-6 17 0 3-1 5-3 5s-3-1-3-2c0-4 6-11 9-17h-8c-2 0-2 0-3 3h-2l2-9m18 21c2-1 3-2 4-5l-2 1c-1 0-2-1-2-3l2-3c3 0 3 3 3 4 0 4-2 6-5 7v-1m20-19h8v11c0 2 0 2 3 2v2h-11v-2c3 0 3 0 3-2v-8c0-1 0-2-3-2v-1m18-2h2v1l1 1h11v1c-3 5-5 12-6 17 0 3-1 5-3 5s-3-1-3-2c0-4 6-11 9-17h-8c-2 0-2 0-3 3h-2l2-9m25 17c-5 0-8-3-8-6 0-2 2-4 5-5-3-2-4-4-4-6 0-4 3-7 7-7s7 3 7 6c0 2-1 3-4 4 3 2 5 4 5 7 0 4-3 7-8 7zm4-18c0-3-2-4-4-4s-4 1-4 3 2 3 6 5l2-4zm-6 7c-2 2-2 3-2 5 0 3 1 5 4 5s4-2 4-4c0-3-1-4-6-6m15-6h1v1l1 1h11v1l-5 17c-1 3-1 5-3 5s-3-1-3-2c0-4 5-11 9-17h-8c-2 0-3 0-3 3h-2l2-9" fill="#fff"/><path d="M514 200L300 66 86 200l214 134 214-134" fill="#f0dc82"/><path d="M268 224h69s-16 12-33 11c-18 0-30-6-36-11m82-2v-9l-2-8-1-3s-2 0-2-2c-1-1-1-1 1-5s3-7 2-11l2-4s4 2 6 0 4-4 4-8c1-5 1-3-1-1s-6 3-8 1l-1-7-2-4-2 2c-1 1-2 1 0 3l3 6-2 3v6s-7-2-10-8c0 0 2-3 1-8l-1-7 5-7c3-3 2-5 3-6l1-1s-3-2 0-2l8-1 5-1 2-1s1 4 3 5l7-5s2 3 7 5 7 2 6 4c-1 1 0 0 0 0s2 5 1 12l-1 9 2 5c0 4 6 13 6 13s-3-2-6 0c-2 2-1 5-1 5l-3-6-4-6s-2 1-1 7 7 13 5 14l-4 2 1 11v-1l-6 12h-3c-2 0-3-2-3-2v-5l-3-10-2 7c-2 4-1 5-1 7 0 0-3 6-11 2v-2" fill="#3f863f"/><g fill="#fff"><path d="M330 228l2-1 3-2-5 3m-57-1l3 3h2l-5-3m61-32c-12 4-14 3-22 2-8-2-15-2-22-1-7 2-9 2-21 1l-6 10c-2 5 1 11 6 17h67c2-4 4-10 4-16 0-5-3-10-6-13m-98-61l-1-3c0-3 1 0 1 0l2-2-1-1c-1-2 2-5 4-5l-10 2c-3 1-4 4-3 5l4 6m133-11v1c1 1 2 1 2 3l-1 3 1 1 1-2 1-1v1l-1 3h-1s-1 1 1 1l4 2s2-1 2-3l1-5-4-4h-6m-61-2h-9M295 123h-9l1-7 1-6 1-7 1-6h6c-2 3-1 6-1 6l1 1-1 5 1 1h1a17 17 0 010-5l1-6h6l-1 6h1v6a6 6 0 000 1h2-2l1-6h1-1l1-6h6l-1 6h1l-1 6h2l-1 4 4-2c-2 6 2 9 2 9h-11m57 139l3-3 2 1 10-1h1l-1 3c0 2 0 4 2 5l1 3v3l-2 5-1-2c-1-2-4-5-6-5l-1-1-1 1h1c-3 4-8 4-10 8-2-4-1-8 2-12v-5M292 95l-4-2h4v2m9 0l-5-2h2l3 1v1"/><path d="M308 98l-4-2h2l3 1-1 1m-20 9l-11 14 7 3 2-2 1-6v-3l1-3 1-4"/></g><path d="M268 197c13 2 15 1 22-1s14-1 22 1c8 1 10 2 22-2-3-2-3-2-5-7s2-9 2-9c-7 2-11 2-20 0-10-2-15-2-21 0s-9 2-19 1c2 6 3 11-3 17m12-63l1-1h7l2 1 3 4-2 1h-7l-4-5m19 0l1-1h6l2 1 3 4-2 1h-6l-4-5m18 0l1-1h5l3 1 2 4s1 1-1 1h-7l-3-5" fill="#006fff"/><path d="M331 179c-7 2-11 2-20 0-10-2-15-2-21 0s-9 2-19 1c0 0-8-14-6-19 3-5 5-11 13-11h43c7 1 12 8 13 15s0 9-3 14" fill="#ffb93c"/><path d="M226 244h-1l-2-11c-1-7-5-16-3-22l5-19v-10l1-3s5 0 7-2l5-1 4 1 8-1 1 3s-1 3 1 4l3 3 1 8-1 8-1 8c-1 4-2 4-1 11l2 13v12l-1 2v-1c-3 2-9 1-9 1s-2-1-2-3v-9l-2-10c1-4 0-5-1-8l-1-11-1-2-2 5-1 3c-2 2-2 4-1 4v3l1 6 1 8 2 12-1 1-11-3" fill="#4f3636"/><path d="M227 178c-3-1-4-3-5-6l-3 1c-4 0-5 0-7-4l-4-14v-3l1-2 2-1-1 2 1 3 2 2 1-2 3-2 1 5 2-5 1-8c0-2 0-2 2-3l2-1 3-1 4-3 1 3 3 3h3l2-3v-2l4 2 4 1 2 1c1 0 3 0 4 2l2 4 2 3 4 8v11l4 6-2 1c-1 2-2 4-5 6l-4 3-2-3-3-3-1-3 4-3c3 0 4 1 2-2l-3-6v-1s-2 2-1 3l2 4a16 16 0 010 2l-3 3s-10 1-13 0c-2-2 1 1-11 2" fill="#a8393a"/><path d="M319 224l1-3v-4c-2-2-1-6-1-9l1 2c0 4 0 7 3 10h2c0-2-3-3-3-5-1-4 0-8-3-12h-18c-2-2-6-1-9-2-2 0 0-2-2-4l-1 3-5-1-1 2c0 1 3 1 1 2l-3 2v1l1 2c2 0 4-1 6 1l3 2c1 3 1 5 4 6 0 3 0 5-2 6l-1 1h3l2-5 1 2-1 3h3v-3l-1-4h7l3-2 1 3-4 5v1h4v-1c1-2 3-2 4-5l1-1 2 1c0 2 0 4-2 6h4m-65 24l3 1s-2 3-6 3l-6 1-1-2 1-3c4 1 7 0 9-1m-17 0l1 4-7-4-2 2-7 1c-2 0-3 1-3 2l-3-1c0-2-1-1 2-2l4-2 4-3 11 2" fill="#863f3f"/><g fill="#3c2e2e"><path d="M236 250l-21-111 7-1-1-5c-1-3-2-4-5-4-2 0-3 1-4 3h-1a4 4 0 00-7 3 4 4 0 000 1l1 5 7-1 21 108 3 2m133-2l3-10c2-3 1-1 2-1 2 0 1-1 1-1l-2-2h-3l-3 3-1 1-6 11-1 2-2 2 7-4c2-1 4-2 5-1M247 120l-3 1-2-4-3-1-13 4c-2 1-1 1-1 2l1 3h-2c-4 2-5 3-4 5l4 1 3-1s0-2 2-3l5-3 6-1c1-1 3-1 3 1l1 2 5-1c3-1 1-5-2-5m112 5l-6-1c-2-2-1-4 2-4l5-1 2-1 8 2 5 1-9 3h5c4 0 5-1 7 1s8 6 4 7l-6 2-1-3c0-2 0-5-5-6h-11M284 124l4 3 2 1 1-1h3l3 1c1-1 1-2 2-1s1 2 3 1l2-1c1 1 1 2 3 1s2-2 3-1l3 1h3l1-3-33-1"/></g><path d="M211 149l2-5 1-2h3c1 1 3 0 3 3l-1 3-1 2-1 2-3 3-1 1-2-2-1-2 1-2v-1m22-10l3 3h3l2-3v-3a8 8 0 002 1c1 0 2 0 2-2l-1-2 1-2 1-1v-1l-2-3c0-1-1-4-3-3-2 0-5 3-4 5l1 1-2 2s-2-2-1 0l1 3-3 1v4m161 50l1 4-2 3v2h-4v-2-1h-1v-1h-1l-1-3-1-2 2-3 6 1-1 2 1 2 1-2m-46-5l-1-7 1-4 1-1-1 2v6h2l-2 4m13-45v-1l-2-1v-2l1-1h-1l-1-2-1-1 1-2 1-1v-1-2h6v1c1 1 2 1 2 3l-1 3 1 1 1-2 1-1v1l-1 3h-1s-1 1 1 1l4 2-1 2-7 6-2-4-1-2m-105 46l-5-7v3l1 2 3 3 1-1" fill="#ffe2d1"/><path d="M220 251c3-1 5 0 8-2s2-2 7 0 36 24 66 22c29-1 58-19 62-21 3-3 7-4 13 3-13 9-40 31-76 30-36 0-69-23-76-29l-5-2 1-1" fill="#46b3b3"/><path d="M363 251s-30 20-62 22c-26 1-51-14-62-20l-4-3h-2l-3-1-1 1-5 2a30 30 0 00-1 0h1l1 1c3 2 37 28 75 29 33 1 58-18 72-28l2-1c-5-5-8-4-11-2m-126 11v2l1 4 1 5-4 4c-1-2-1-5-3-6l-3-2-1 1-6 4h-6l-1-1c5-1 2-9 8-9l1-2-1-2" fill="#fff"/><g class="D"><path d="M223 260c-4-1-7-3-11-3v1c1 1 2 2 1 4l-2 2h-6c-2-2-3-5-2-8 0-2 2-4 3-4l3-1c-4-3-5-7-5-11l3-3 6-1 4 5c0 2-1 4-3 4h-2c0 2 2 4 4 4l3 3 5 2 13 8m139-9s3 0 7-2l5-5 1-1-2-1c-2 0-3-1-3-2-1-1 0-3 1-4 3-2 5-3 9-1 1 2 3 5 2 7 0 3-2 4-3 6l2 1c3 1 6 3 6 6 1 2-1 4-2 5-1 2-4 2-6 2l-3-2c-1-2 0-4 1-5l-7 1-4 1-9 2-4-1M349 257c-3 0-8-1-11 2v2c-3 1-4-1-5-3-1-1 0-3 1-3h-2c-2 1-2 4-2 6h-2l-1-1h-1-1v-6l-2 1c-1 2-2 4 0 6l2 1c-1 2-3 2-5 2l-3-3c1 2 0 3-1 4h-1l-2-5v-4l-6-1-2-4c3 0 5-2 8-1l1 1-2-4 1-3v-1l3 2c1 1 1-1 2-2l2-3c2 1 2 5 4 7 1 2 3 2 6 1l2 1-2-7-1-3 4-1 4 3v-1l3-2 1-1c2 1 3-1 3-1h1v5l1-1c2 2 1 3 1 5h1l1-2 1 7s1 2 2 1l4 2m-52 3l1 2 4-2-1 6 2-1 2 2v2l-3 2-4-2-3 2-2-2c-2 1-4 3-6 2l-2-2 1-2 1-1 1 1 1-4c0-1-3-1-2-3l5 1v-1l3-3 2 3m-53 2l-9-5h1l10-1c3-2 4-4 4-6v-2l-2-1 1-2 2-1 3 1-1-4 1-2 3 1 2 2 7-2v7l-1 2a21 21 0 00-1 3h1c3-1 5-1 7-3 1-1 2-3 1-5h2l2 4c2 0 4-1 5-3v1c-1 2 2 4 0 6 3 1 5 4 9 4l1 1c-2 3-5 3-8 3 2 4-1 6-1 9-3 0-4-2-5-4l-4 2-3-1c0-2 2-4 1-6-1-1-2-2-3-1v3l-1 1h1l-2 1h-3v-3c-1-2-4-2-5-2v3l-2 4-3-1h1c-3-3-7-4-11-3m68-110c-3 3-4-2-6-2-3 0-3-3-5-3-3 1-5-3-8-2l-4 2c-2-1-5 0-7 2-2 0-3 1-5 3"/><path d="M318 149v-1h1l-1 1"/></g><path d="M318 149v-1h1l-1 1z" class="B C E"/><path d="M313 146c-3 0-3-3-5-3-3 1-5-3-8-2l-4 2c-2-1-5 0-7 2-2 0-3 1-5 3l-2-1 5 5c1 3 6 7 9 8l3 2h5c1 0 3-1 5-4 3-3 7-4 7-4l2-5c-2 2-3-3-5-3" class="D"/><path d="M313 146c-3 0-3-3-5-3-3 1-5-3-8-2l-4 2c-2-1-5 0-7 2-2 0-3 1-5 3l-2-1 5 5c1 3 6 7 9 8l3 2h5c1 0 3-1 5-4 3-3 7-4 7-4l2-5c-2 2-3-3-5-3z" class="B C E"/><g class="D"><path d="M269 171l-1-6 1-4 3-4v-1h1l2-2h2l5-1-1 1h-2l-3 1-2 1-3 4-1 1v9"/><path d="M289 231c-23-4-23-22-23-25v-3l4 2c2 0 4-1 4-4 0-2-1-4-3-4 2-1 5-4 5-10 1-6-5-10-6-10h1c2 0 4-2 4-4a4 4 0 00-5-3v-9l1-1 3-4 2-1 3-1h3c0 2 1 3 3 3s3-1 3-3l-1-3c-2-4-6-4-10-4-7 1-12 8-13 14 0 0-2 6-1 9l5 7c-1 1-3 1-3 3-1 1 0 2 1 4l3 1 1-1c1 2 0 5-1 8-1-1-2-3-3-2l-3 3 1 3 1 1c-3 1-5 4-5 7l-4-2c0 3-3 7 0 11h-3v1c4 1 3 7 8 8v1h-5v1l2 1c3 1 4 5 7 5l1 3c2 1 4 2 5 1l2-1v-1c6 0 10 5 16 4l2 1 1-5-3-1"/></g><g class="B C E"><path d="M289 231c-23-4-23-22-23-25v-3l4 2c2 0 4-1 4-4 0-2-1-4-3-4 2-1 5-4 5-10 1-6-5-10-6-10h1c2 0 4-2 4-4a4 4 0 00-5-3v-9l1-1 3-4 2-1 3-1h3c0 2 1 3 3 3s3-1 3-3l-1-3c-2-4-6-4-10-4-7 1-12 8-13 14 0 0-2 6-1 9l5 7c-1 1-3 1-3 3-1 1 0 2 1 4l3 1 1-1c1 2 0 5-1 8-1-1-2-3-3-2l-3 3 1 3 1 1c-3 1-5 4-5 7l-4-2c0 3-3 7 0 11h-3v1c4 1 3 7 8 8v1h-5v1l2 1c3 1 4 5 7 5l1 3c2 1 4 2 5 1l2-1v-1c6 0 10 5 16 4l2 1 1-5-3-1z"/><path d="M265 202s-3 8 0 16c4 7 14 13 24 15m-21-34l-2 4m3 0s4 0 3-3m-15 4l2 4m-2 5l2 2m-3-1l3 3m0 7l4 1m2 5s2-4 7-2m-4 2s2-2 4-1m-3 3l3 2m-1-4l2 2"/></g><path d="M315 232h1v4l1 1c0 1 2 2 1 3l-8 4c-3 2-5 7-10 6l-6-3c-1-1-2-3-1-4l3-1 3 1v-1l-3-3-3 1-1 1c-1-2-3-3-3-5v-1l2-1v-2-1l2-1h2l2 1v-1l1-2 1-1 1 1 2 1 1 2v-2l2-1v-1l1 2c0 2 0 3 1 2h1c0 1 0 1 0 0l2-2 1 2v2h2l1-1h1" class="D"/><path d="M315 232h1v4l1 1c0 1 2 2 1 3l-8 4c-3 2-5 7-10 6l-6-3c-1-1-2-3-1-4l3-1 3 1v-1a4 4 0 00-3-3l-3 1-1 1c-1-2-3-3-3-5v-1l2-1v-2-1l2-1h2l2 1v-1l1-2 1-1 1 1 2 1 1 2v-2l2-1v-1l1 2c0 2 0 3 1 2h1c0 1 0 1 0 0l2-2 1 2v2h2l1-1h1zm-49-50s2 2 4-1m-4 11s3-2 2 3m0 1s5-1 6-4m-3-12s5 3 4 9m8-34s4 3 3-3m-4 2l1-2m-2 0s-15 0-14 19m3 4s6 0 2-4m-3 2s-1-3 1-3m26-11s4 3 10 1m-11 0s-1-7 4-7c4-1 5 4 5 4l-2 1m2-1l3-1c0-1 4-3 7-2m-13 1s2 1 1 2" class="B C E"/><path d="M348 211l-2 1v-8c0-1 0-2-2-2l-1 1-3-6-2-1 1-3-1-1-3-2-2 2-1-3v-5h4a4 4 0 000-2c0-2 0-4-2-4v-1l3-3c2-3 2-11-1-17l-5-7c-3-2-8-4-12-2 0 0-3-1-4 3a3 3 0 002 6c2 0 4-2 4-4l-1-1c5 0 7 2 11 9 3 5 1 9 1 10a4 4 0 00-2 0c-2 0-4 1-4 3s2 4 3 4l-1 2c-1 1-2 4-1 8 0 5 3 7 5 8-3 0-5 2-5 5s3 5 5 5a5 5 0 004-2c5 12-5 24-22 28l2 4 3-1c4 0 7-2 11-1l1 2c2-1 5 0 6-2v-4l-1-1h3c3-1 3-3 5-5h-3l-1-1c3-1 8-3 8-7 1-1 2-3 0-5" class="D"/><g class="B C E"><path d="M348 211l-2 1v-8c0-1 0-2-2-2l-1 1-3-6-2-1 1-3-1-1-3-2-2 2-1-3v-5h4a4 4 0 000-2c0-2 0-4-2-4v-1l3-3c2-3 2-11-1-17l-5-7c-3-2-8-4-12-2 0 0-3-1-4 3a3 3 0 002 6c2 0 4-2 4-4l-1-1c5 0 7 2 11 9 3 5 1 9 1 10a4 4 0 00-2 0c-2 0-4 1-4 3s2 4 3 4l-1 2c-1 1-2 4-1 8 0 5 3 7 5 8-3 0-5 2-5 5s3 5 5 5a5 5 0 004-2c5 12-5 24-22 28l2 4 3-1c4 0 7-2 11-1l1 2c2-1 5 0 6-2v-4l-1-1h3c3-1 3-3 5-5h-3l-1-1c3-1 8-3 8-7 1-1 2-3 0-5z"/><path d="M326 149s4-1 10 11c0 0 3 8-2 15m-2-4v3m-3-2s2 1 1 2m-11-21s1 1-1 2m0-4l2 1m11 32s-1 5 1 9m3-12s1 3-2 2m3 9s2 2 1 4m-2 7s-1 2-4 1m7-6s2-1 3 5m4 1v6m1 2l-3 4m-5 6l3-2 4-1 3-5m-17 15s2-2 5 0m1-1l4-3m-5 5s1 3-1 3m-18 1l5-1 6-1 3 1m-37 4s5-3 7 6l-1 2-4 1m0-3s2 1 1 2m2-9s4 4 3 6l-4 4m3-11l2 4-1 4m2-7s2 6-3 9m6-8s-2 7-6 8m7-4s-4 4-9 5m-2 1l4 1 3-1 3-3m-7-14l1 1m-8 1h3m9-2v2m5-1v2m4 1l-1 2"/></g><g fill="#e2c89a"><path d="M361 228v12l-1 9-2 4-6-1 1-10-2-7c0-3 1-6-1-8v-3c3 1 7 2 10 0l2-2c1 2-1 4-1 6m5 10v-7-6l1-2 3 2h3l-2 4-2 3-2 2 2 1-3 3m17 13l-5-2c-2-2-2-5-2-7l1-11 1-4c1-2-1-3-1-3l-3 6-1 4 2 2s1 1-1 1c-1 0 0-2-2 1l-3 10c2 1 4 1 7 5l7-2m-39-52l7 2 7 1 1-5 2-11 2-7h2l1 8 2 13 1 3 8-1 5-2s1 1-1 2l-3 1-8 1c-2 0-3 1-4-3l-1-18-1-3-3 12-2 11h-3l-8-1-3-1-1-2m20-26v2l-1 1s-2-1-1-2l2-2h-1l-3 1-2 4v1l8 1v-3l-1-1-1-3"/><path d="M353 141l2 12a89 89 0 0010 22l2 4 2 8c1 2 5 0 8-1s1 0 1-2v-3-3l-2-5-9 2-7-11-5-17v-6"/><path d="M365 172c5-6 10-15 11-29l-1-1c-1 17-5 22-11 29"/><path d="M365 170l1-12-1-14h-1v26m-9-16l-2 1-4-7-3-4s-2-1-1-2h1l1 2 3 4 3 5h2m9-5l-2 2-5 4v-2l3-2 4-3m10 10s2 0 4-2l4-5 2-2v-2l-2 2-5 5-3 3"/><path d="M365 146l8 9v2l-8-9"/></g><path d="M369 236l2-2h2l4-11 13-25-2-2-15 29-1 3-2 2-1 2c-1 0-2 2-1 3h1m23-46l5-8 1 1-5 9-1-2m-42-9h-2v-4l1-4c1-2 2 0 2 0s2 2 5 1l5-4s0 4-2 6c-1 3-3 6-5 6l-4-1m25-56l8 1c4 0 0-5-3-6s-5 1-7 2l-7 3h9m-85 10l1-1h6l2 1 3 4-1 1h-8l-3-5m18 0l1-1h6l2 1 3 4-2 1h-7l-3-5m-36 0s-1-1 1-1h6l1 1 4 4-2 1h-5l-4-1-1-4" fill="#b8c5b8"/><path d="M301 171c3-2 4-4 5-6 2-3 7-5 7-1-1 4-2 10 3 7 4-4 7-6 8-2s0 4-1 5l-2 1v-4c0-1 0-2-3 1l-6 4-2-1-1 2-2-1 2-2s-1-1-1-4 2-7 0-4-3 4-7 5" fill="#3f863f"/><g class="D"><path d="M316 171l4-3 4-8c2-3-2-3-5-2l-6 6c-1 5-2 10 3 7m-29-10h-1 1m-1 1h1-1M286 163v-1 1m1 0M287 166l-1-4h1v1h1-1 1l-1-1h2-1-1v-1l-1 1 1-1h-1l-1-1h-2-1l-1-1h-1v1-1 1l-2 1-2 2h-1v2h1-1v4h3c2 1 4 1 5 3s2 1 2 3v3l4-1 4-4c-3-3-5-4-6-7"/></g><path d="M223 260c-3-1-7-3-11-3v1c1 1 2 2 1 4l-2 2h-6l-1-2h1l2 1c2 1 4 1 5-1v-2l-1-2v-1h-1l-3 1 2-2h6v-1h-3l-4 1 3-2h4l2 1h1l1 1 8 2h1v1l3 1h-7m-9-10h1v1h1a6 6 0 012 1l-3-3c-2 0-4-2-4-4h2c2 0 3-2 3-4v-1l-1 1h-1l-2 1-1 1h2c1-1 1-2 2-1h-1c0 1-1 2-3 2l-1-2c-1 0 0 0 0 0l-1-1v2l1 1h-1 1v1l1 1v1l3 3m-5-4l2 2 1 2-4-5v-2l1 3m157 14s1 1 4 1l9-2 4-1 7-1c-1 1-2 3-1 5l3 2c2 0 5 0 6-2 1-1 3-3 2-5 0-3-3-5-6-6l-2-1c1-2 3-3 3-6 1-2-1-5-2-7-3-2-6-1-10 1v4c0 1 1 2 3 2l2 1-1 1-5 5-7 2-3 2 12-4 4-4 2-3-1-3h-1v2l-1 1-1-1 2-2-1-1v1l-2 2h-1l-1-2 2-4c2-1 5 0 7 2l2 3-1 4-1 2 1-2v-2l-1-4c0 3 0 6-2 8v2l-1 1h4c2 1 5 3 5 5v1h1l-2 5-2 1-4-1-1-4h1-1l2-1 2 1v1a3 3 0 00-1-2c-2-2-5-1-8 0h-3-2l-5 1-3 1h-5l-1 1m32-1h-1 1-1l-1 3-1-1c2-2 3-4 2-6l1 4m-10-4l-3 1-11 2h-3-1l4-1 13-2h1m-33-2l-4-1h-2c-2-2-2-5-1-7h-1l-1 1v1h-1c-2-2 0-4-1-6l-1 2h-1c-1-1 0-2 1-3v-3l-1 1h-3l1-1c2 1 3-1 3-1h1v5l1-1c2 2 1 3 1 5h1l1-2 1 7s1 2 2 1l4 2m-7 4c-3 0-8-1-11 2v2c-3 1-4-1-5-3-1-1 0-3 1-3h-2c-2 1-2 4-2 6h-2l-1-1h-1-1v-6l-2 1c-1 2-2 4 0 6l2 1c-1 2-3 2-5 2l-3-3c1 2 0 3-1 4l-1 1-2-5v-5l-6-1-2-4c3 0 5-2 9-1v1l-2-4 1-3v-1l3 2c1 1 1-1 2-2l2-3c2 1 2 5 4 7 1 2 4 2 6 1l2 1-2-7-1-3 4-1 4 3v-1l3-2-1 1-1 2 1 2-1 2c-2 0-1-2-2-3-2-2-4-4-6-3l1 5 1 2 1 3 2 2c-1 1-1-1-2-1h-1v-1h-6l-3-2c-2-1-2-4-3-5l-2 2-1 1v2h-2c-1 1 0-1-1-1l-1-1h1-1s1 0 0 0v3c1 1 3 2 2 3h-2l-3-1-3 2h-1 1s-1 0 0 0l1 1h1l4 1v1h2l-1 1c-3 2 0 5 1 7l1-1 1-2 1-1v1l1 3 4-1h-1c-1-1-2-3-1-5 0-2 1-3 3-4l5-1-3 3-1 1 1 4v-1c2-1 1 1 2 1l1-4c2-2 5-3 7-2 1 2-2 1-3 2v2l3 3 1-2c2-4 7-3 11-3l3 1h-2"/><path d="M249 256h10l3 3h-1l-1-1-1-1h-2l4 2 1 2c-3-3-7-4-11-3m83-15l6 7h-1l-1-1-2-3-3-4 1 1m8 5l2 3v-2l-1-3c1 2 1 6 4 6l-1-3h1l1 3 2 2h-2l-1-1-6 1v-1l5-1h-2v-1l-2-2-1-2v-3l1 4m-22 0l2 1c1 2 5 2 7 2h-4v1-1l-3 2h-2l1 1-2 1-1 2v1-3 1l1-1v-1l2-2-4 1h-2l4-1 1-1v1l1-1h-2-1l-2-2h-1v-1l2 1c2 1 4 3 6 2l-2-2h-1 1l-2-2h1v1m15 6v1l-1-1h1m-36 2v1l-5-1c-1 2 2 2 2 3l-1 4-1-1-1 1-1 2 2 2c2 1 4-1 6-2l2 2 3-2 4 2 3-2v-2l-2-2-2 1 1-6-4 2-1-2-2-3-3 3h1l1-2 2 1v4h1l4-2v6c-2-1-1-3-1-4-2 1-1 2-1 3l2 2v-1l1 1v-2h2v1l-2-1 2 2c-1 1-3 2-4 1l-2-1-1-3h-1l1 2c1 1-1 1-2 2h-2c0-2 2-3 1-4l-2 1h-1c0 2-1 3-3 3l1 1h-2l-1-2v-1c1-1 2 0 2 1l1-1 1-2c0-1 0-3-2-4h3c1 1 1 2 2 1v-2h-1m-56-3h10c3-2 5-4 5-8h1l2 2v-2l-1-1c0-1-2-2-4-1l2-2h2c0 1 0 0 0 0l2 2h1c-2-2-2-5-2-7 1 0 3-1 4 1l1 2h1c0-1 1-2 2-1l1-1h2-1v1h-1v1l-1 4v4l1-1-1 1-2 2h3c3-1 8-1 10-5l1-3 2 2v1c0 1-2 2-1 3l1-1 3-2h2v1l-1-1v3l1-1v1c-1 0 0 0 0 0-1 1-4 2-3 3 0 1 1 2 2 1v-2l5 1 2 2 4 1-4 2h-2-3l1 1-1 3-1 4 1-2v-1l1-1v-1c1 2 0 3-1 5v2l-3-6c-1-1-2 1-2 1h-1-4l1-1v-3c-1-2-3-2-5-3v-1s-1 0 0 0h-1l-1-1h-1-1-1s1 0 0 0l2 1h1c0 1 2 1 1 2v3c-1 0-2 1-1 2h-1l-1-4-1-1h-7c-1 0 0 0 0 0v1c1 0 2 1 2 3v0l-2 2c-1 0-1 0 0 0v1h-2l3 1 3-4-1-3c1 0 4 0 5 2v3h3l2-1h-1l1-1v-3c1-1 2 0 3 1 1 2-1 4-1 6l3 1 4-2c1 2 2 4 5 4 0-3 3-5 1-9 3 0 6 0 8-3l-1-1c-4 0-6-3-9-4 2-2-1-4 0-6v-1c-1 2-3 3-5 3l-2-4h-2c1 2 0 4-1 5-2 2-4 2-7 3h-1a21 21 0 011-3l1-2v-7l-7 2-2-2-3-1-1 2 1 4-3-1-2 1-1 2 2 1v2c0 2-1 4-4 6l-10 1h-1 1m22-8v2l1-1v-1l1-1 1-2v-1 3h-1v2l-3 3-3 2 3 1h5l-1 1-1-1h-5v1l-1-1v1h-3-1l-1 1 5 2c1 0 2 1 1 2 0-2-2-2-2-3h-10l1-1 4-1 2-1c0-1 2-1 1-2l1-2v3l-1 1h2v-1c1-1 3-2 3-4v-1c-1 0 0 0 0 0l-1-1v-1l1 1 1 2v-1l1-2v-2h-1l1-2v5"/><path d="M280 246l-1 1v2l-1 1 2-1 3-1-3 2-2 1 3 2h-1l2 3-1-1-3-2v-1h-2l-1-1 2-1 2-3 1-1m-19 6h-1 1m32 1h-8l2 2 1 3-1-2h-1v-1l-2-1-1-1h-1l4-1 7 1m29-96l-2 1 1-1h1m-1 1l-1 1 1-1m-1 0l-1 1 1-1m2 2h-1v-1l1 1m1-1v1-1m-7 5h-1 1m4 0v1-1m-2 1l1-1v1h-1"/><path d="M316 165" stroke-width=".4" class="B C"/><path d="M314 167h-1l1-1v1m3 0l-2 2h-1v-1l1 1v-1l1 1c-1-1 0-2 1-2"/><path d="M319 168l-1 1v-1h1m-5 0s0 2 1 0l-1 2h1c-1 0-2-1-1-2M313 170l1-1-1 1m8-9v-1 1m-1 0l-1 1v-1h1m-34 2l1 1h-2l-4 1-1 1v1l-1 1v1h-1l1-2v-1l2-2h1l2-1h2m4 8l-1 1-1-1c0 1-1 2-3 2v2c0-1-2-1-2-3l2 1 1-1 3-3 1 1m31-6v-1 1m-33 3l-1-2 1 2M330 172v1-1M287 203h1-2 1m-46-76l2-2c1 0 0 0 0 0l1 1h-2l-1 1M242 127h1l-1 1v-1m2 4v-1 1m-11-6l-1 1 1-1m2 0M235 126h-1v-1l1 1m-3-1v1-1m-1 4v-1 1m5 0h-1 1m-2 2v-1 1m1 1l-1-1v1-1l1 1M232 133h-1v1l-1-2 2 1m2 0l1-1v1h-2v-1l1 1m3-9v1h-1c0-1 0 0 0 0v-1h-2 3M236 126v3l-1-2h-1l1 2-1-1-1 3v-3l1-1h2v-1s1 0 0 0m-4 0l-1 2h-1l1 2 1-2 1 2-2 1-1-2-1 1v-1c0-2 3-1 3-3m1 1h-1l1-1v1m1 3v-1l1 1h-1m-1 3h-1v-1l1 1m-2-6l-1-1h1v1m-2 0v0m1 5l-1-1h1v1M237 129l-1 1v-1h1m-7 2v-1 1M231 132s1 0 0 0m131-5h-3v1l2-1h1m-2 1h1l1 1h-2v-1m11-2v1l-1 2 1-2h-3c0-1-2-1-1-2l4 1m-2 3v-1 1m4 4l-1-1 1 1m1 1a2 2 0 01-1 0h1l-1-1h1v1m0 1h-1 1m-6-6v-1 1"/><path d="M375 134l-1 1 1-3-1 1-1-2 1-1-1-1s1 1 1-1h1l-3-2v2a2 2 0 01-1 0v-1 1l-1 2h2l-1 2 1 1h-1v2l-1-1c-1 1 1 1 1 2h1l-1-1h2l-1 2m-4-8v-1l1 1h-1s-1 0 0 0"/><path d="M368 127c-1 0-1-1 0 0l1 1-1-1m6 3c0-1 1-1 0 0v0m-91-3l3 1h0c-1 1-2 0-3-1m1 2h5l-2 1-3-1M289 128h4l1 1h-2l-3-1m2 2h4l1 1h-2l-3-1m3-2l2 1h3-2c-2 1-3 0-3-1m3 2h4l1 1h-2l-3-1m2-2l2 1h3-2c-2 1-3 0-3-1m5 2h4l1 1h-2l-3-1m0-2l2 1h3l-2 1c-2 0-2-1-3-2m5 0l3 1h0c-1 1-2 0-3-1M309 130h4l1 1h-2l-3-1m6-1c-1-2 2 0 2 0h3l-3 1-2-1m-40 28v1h1v1h-2l1-1h-1 1v-1m-2 3v1h1l-1 1v1-1l-1 1v-1l-1-1h1l1-1m-1 4v1h1l-1 1h-1l-1-1h1l1-1m6 8h1l1 1h-1v1l-1-1-1 1 1-1h-1l1-1m-2 3v1h1v2l-1-1-1 1 1-1-1-1h1v-1m5 1l1 1h1-1v1h-1v-1h-1 1v-1m-2 1v1h1l-1 1 1 1-1-1-1 1v-2h1v-1m14-16v1h1l-1 1v1-1l-1 1v-1l-1-1h1l1-1m-3 4h1v2l-1-1-1 1 1-1h-1l1-1m6-1v1h1-1l1 1h-2v-1h-1 1l1-1m6 1l1 1h-1l1 1-1-1-1 1v-1l1-1m-4 2l1 1h1l-1 1h-1l-1-1h1v-1m-6 1l1 1h1l-1 1v1l-1-1v1-1l-1-1h1v-1m4 3l1 1h1l-1 1v1l-1-1v1-1l-1-1h1v-1m3 3v1h1-1l1 1-1-1-1 1v-1h1v-1m4-2l1 1h1l-1 1v1l-1-1v1-1l-1-1h1v-1m10-14v1h1v1h-2l1-1h-1 1v-1m13 1v1h1-1l1 1h-2v-1h1v-1m2 3v1h1v2l-1-1-1 1 1-1-1-1h1v-1m-3 4h2l-1 1v1l-1-1v1-1l-1-1h1m4 1v1h1v1l-1-1-1 1 1-1h-1 1v-1m-6 9l1 1h1l-1 1h-1l-1-1h1v-1m-5 1h1v2l-1-1-1 1 1-1-1-1h1m-5-1v1h1v1l-1-1-1 1 1-1h-1 1v-1m-34-21v1h1v1h-2l1-1h-1 1v-1"/><path d="M224 260l1 3h-1l-1 1-4 3v3l-3 3h4a3 3 0 002 0l1-1 1-1 4-3 1-2 1 1v3c2 1 4 2 4 5a1 1 0 001 0c1-1 3-2 3-4v-3l-2-3s1 0 0 0v-1-2h1v2l1 4 1 5-4 4c-1-2-1-5-3-6l-3-2-1 1-6 4h-6l-1-1c5-1 2-9 8-9l1-2-1-2m141 2v5c-3 4-4 8-2 12 2-4 7-4 10-8h-1l1-1 1 1c2 0 5 3 6 5l1 2 2-5v-3l-1-3c-2-1-2-3-2-5l1-3-2 1c0 3-1 5 2 8v7h-1c0-2-2-2-3-4l-1 1-1-1-2-1 1-1h-1 1-1v-1l-1-1v2h-1v1c0-1 0 0 0 0l-1 1-2 2-3 2-1 1-1 1v-5l1-3h1c-1-1 1-2 1-3 1-2-2-5 2-6l-3 2m-129-4l2 1-3-1 3-5 1 1-3 4m3 3v-1l3-4-3 5m5-4h1l1 3a1 1 0 01-1 0v2h-4l3-5zm-1 3h2c1-1 0-2-1-2l-1 1zm-1 2h2v-2h-1l-1 2m7-2l3 2h-1l-2-1-1 1 2 1v1l-2-1-1 1 2 2-3-2 3-4m5 9l-1-1v-2l-1-1-1 2 2-5 1 1 1 1 1 1-2 1v3zm-1-4h2l-1-2-1 2m4 5h-1l2-4-1-1v-1l4 2v1l-2-1-2 4m4-4l1 1 1 2 2-1h1l-3 2-1 2h-1l1-2-1-4m9 8l-1 1h-1l5-5 1 6h-1v-1l-3-1zm2-2l-1 1 2 1-1-2m5-1l4 6 1-4-1 5-4-5-1 4 1-6m7 2h1l4 3c-1 2-2 3-4 3l-2-1 1-5zm0 5c2 0 4 0 4-2 0-1-1-2-3-2l-1 4m10 2h-1l1-6h1l-1 6m2-6l5 4v-4h1v6l-5-4v4h-1v-6m8 0h1c2 0 4 1 4 3l-4 3h-1v-6zm1 5c2 0 3-1 3-2 0-2-1-2-3-2v4m5-5h4-3v2h3l-3 1 1 2 2-1v1h-3l-1-5m7 5h-1v-6h1l2 2-2 1v3zm0-3l2-1-2-1h-1l1 2m3-3l4-1v1h-3l1 2 2-1v1h-2v2h3l-3 1-2-5m5-2l6 3-1-4h1l1 5-5-2 1 4h-1l-2-6m7-2h2c1-1 3-1 4 1s0 3-2 4h-2l-2-5zm3 4c2 0 3-1 2-3h-4l2 3m3-6l3-2 1 1-3 1 1 1 2-1 1 1-3 1 1 2 3-2v1l-3 2-3-5m5-3l6 2-2-4h1l3 5-7-2 2 4h-1l-2-5m11-4h-1c-2 1-2 2-2 3l4 1 1-2v1l-1 1c-2 1-4 1-4-1-1-1 0-3 1-4h2v1m1-2l3-2 1 1-3 1 1 1 2-1 1 1-3 1 1 2 3-2v1l-3 2-3-5" fill="#46b3b3"/><g stroke-width=".7" class="B C"><path d="M295 123h9s-1-4 0-6l-8-1m-1 1h8s0-4 1-6l-8-1m-76 141c3-1 5 0 8-2s2-2 7 0 36 24 66 22c29-1 58-19 62-21 3-3 7-4 13 3-13 9-40 31-76 30-36 0-69-23-76-29l-5-2 1-1zm-4-2c-2 0-4-2-4-4h2c2 0 3-2 3-4l-4-5-6 1-3 3c0 4 1 8 5 11m28 11v2l1 4 1 5-4 4c-1-2-1-5-3-6l-2-2-2 1-6 4h-6l-1-1c5-1 2-9 8-9l1-2-1-2c-3-1-7-3-11-3v1c1 1 2 2 1 4l-2 2h-6c-2-2-3-5-2-8 0-2 2-4 3-5m18 9l7 1m145-8s3 0 7-2l5-5 1-1-2-1c-2 0-3-1-3-2-1-1 0-3 1-4 3-2 5-3 9-1 1 2 3 5 2 7 0 3-2 4-3 6l2 1c3 1 6 3 6 6 1 2-1 4-2 5-1 2-4 2-6 2l-3-2c-1-2 0-4 1-5l-7 1-5 1-8 2-4-1m-3 2v5c-3 4-4 8-2 12 2-4 7-4 10-8h-1l1-1 1 1c2 0 5 3 6 5l1 2 2-5v-3l-1-3c-2-1-2-3-2-5v-3"/><path d="M225 261l8 2m-7-1l5 1m-6 0l4 1m-4 0l3 1m-4 1h2m-2 1h1m8-3h2m-1 1h1m-1 1h1m-1 1l1 1m131-5h5m-5 1h4m-4 1h3m-3 1h3m-3 1h2m-3 2h2m6-7l4-1m-3 2h3m-3 1h3m-2 2l3-1m-2 2l2-1m-1 2h1m0 1h1m-93-120l3-1m-2 2l2-1m-1 2l1-1m0 2l1-1m0 2l1-1m0 2v-1m1 2v-1m0-9h3m-2 1h2m-2 2l2-1m-1 2l1-1m-1 2h1m0 2v-1m0 2l1-1m3-9l3 1m-2 0l1 1m-2 1h2m-2 1h2m-2 1h1m-1 2h1m-1 1h1m6-6l3 1m-3 0l2 1m-2 1h1m-2 1h1m-2 1h1m-1 1h1m-2 1h1m9-2l-2-2m1 2l-2-1m1 2l-1-1m0 2l-1-1m0 2l-1-1m0 2h-1m0 1v-1" class="F"/><path d="M316 171l4-3 4-8c2-3-2-3-5-2l-6 6c-1 5-2 10 3 7zm-15 0c3-2 4-4 5-6 2-3 7-5 7-1-1 4-2 10 3 7 4-4 7-6 8-2s0 4-1 5l-2 1v-4c0-1 0-2-3 1s-5 4-6 3h-2l-1 2-2-1 2-2s-1-1-1-4 2-7 0-4-3 4-7 5zm-23-3l5 4m-3-5l5 4m-4-6l4 5m-2-6l3 6m-2-6l3 5m-1-6l1 6m0-3l-1-4h1v1h1-1 1l-1-1h2-1-1v-1l-1 1 1-1h-1l-1-1h-2-1l-1-1h-1v1-1 1l-2 1-2 2-1 1v1h1-1v4h3c2 1 4 1 5 3s2 1 2 3v3l4-1 4-4c-3-3-5-4-6-7zm-2 7l1 5m0-5s-1-2 0 0l2 4m-1-5l2 5m-1-5l3 3m-2-4l3 3m27 50l1-3v-4c-2-2-1-6-1-9l1 2c0 4 0 7 3 10h2c0-2-3-3-3-5-1-4 0-8-3-12h-18c-2-2-6-1-9-2-2 0 0-2-2-4l-1 3-5-1-1 2c0 1 3 1 1 2l-3 2v1l1 2c2 0 4-1 6 1l3 2c1 3 1 5 4 6 0 3 0 5-2 6l-1 1h3l2-5 1 2-1 3h3v-3l-1-4h7l3-2 1 3-4 5v1h4v-1c1-2 3-2 4-5l1-1 2 1c0 2 0 4-2 6h4z"/><path d="M291 200l-1 1m-9 5h2m14 14l-2-5m14 0h3l1 1 2 1m-25-14l3-1m6 15v-3m20-6v-3m-100 47l-2-2c-1-1-2 0 1-2l4-2 4-2h-1l-2-11c-1-7-5-16-3-22 2-3 3-8 4-13m1-6v-10l1-3s5 0 7-2l5-1 4 1 8-1 1 3s-1 3 1 4l3 3 1 8-1 8-1 8c-1 4-2 4-1 11l2 13v12l-1 2 3 1m-12 4s-1-1-1-2l1-3s-2-1-2-3v-9l-2-10c1-4 0-5-1-8l-1-11-1-2-2 5-1 3c-2 2-2 4-1 4v3l1 6 1 8 2 12-1 1 1 4m-12-7l7 2m2 0a53 53 0 012 0m8 2h9" class="F"/><path d="M238 143s1 1 0 8v15l-1 10m12-36c-2 2-3 6-4 9-1 4-2 2-4 1l-3-4-2 3c-2 2-2 1-4-1l-4-5-3-3m25 36c0-1 0-2 2-2l2-1c3 0 4 1 2-2l-3-6v-1s-2 2-1 3l2 4a16 16 0 010 2m-44-24s-2 4-1 5l3 4c1 1 2 0 3-2m-4-7l2-5 1-2h3c1 1 3 0 3 3l-1 3-1 2-1 2m2-7l-1-1 1 1m0 3l-1-1h-2 1m1 3l-2-1m-1-7v-3l7-1-1-5c-1-3-2-4-5-4-2 0-3 1-4 3h-1a4 4 0 00-7 3 4 4 0 000 1l1 5 7-1 1 3m23 107l-19-98m-2 1l18 95m-6-70c-3-1-4-3-5-6l-1 1m30 6l3 3a56 56 0 002 3l4-3c3-2 4-4 5-6l2-1-4-6v-7-4l-4-8-2-3-2-4c-1-2-3-3-4-2l-2-1-4-1-4-2v2l-2 3h-3l-3-3-1-3-4 3-3 1-2 1c-2 1-2 1-2 3l-1 8-2 5-1-5-3 2-1 2-2-2-1-3 1-2-2 1-1 2v3l4 14c2 4 3 4 7 4m17-39l-1-3c-1-2 1 0 1 0l2-2-1-1c-1-2 2-5 4-5l-10 2c-3 1-4 4-3 5l4 6 1 2a20 20 0 000 1v-2-2l3-1zm5 2a8 8 0 002 1c1 0 2 0 2-2l-1-2 1-2 1-1v-1l-2-3c0-1-1-4-3-3m-5 11h1v-1m124 95v12l-1 9-2 4-6-1 1-10-2-7c0-3 1-6-1-8v-3c3 1 7 2 10 0l2-2c1 2-1 4-1 6zm12 6l2 2s1 1-1 1c-1 0 0-2-2 1l-3 10m4-23h-3c-2 0-3-2-3-2l-1 2v13m11-52c2 6 7 14 5 15l-4 2 1 8v2m-29 11v-2-5-4l-2-8-1-3s-2 0-2-2c-1-1-1-1 1-5 1-3 3-7 2-11l2-4s4 2 6 0 4-4 4-8c1-5 1-3-1-1s-6 3-8 1l-1-7-2-4-2 2c-1 1-2 1 0 3l3 6-2 3v6s-7-2-10-8l1-8-1-7 5-7c3-3 2-5 3-6l1-1s-3-2 0-2l8-1 5-1 2-1 3 6 7-5 7 4c5 2 7 2 6 4 0 0 2 5 1 12l-1 10 2 4 7 13s-4-2-7 0c-2 2-1 5-1 5l-3-6-4-6m-11 43v-5l-3-10-2 7-1 7m12 12s-1-1-3 0l-3 3-1 1-6 11m28-53l-15 29-1 3-2 2-1 2c-1 0-2 2-1 3l1 1 2-2h2l5-11 12-25m3-7l5-9-1-1-5 8 1 2zm-20 41h3s0 2-3 0zm1 3c2-1 3-2 3-4v-5-2s2 1 1 3l-1 4-1 11c0 2 0 5 2 7l5 2m11-62l1 4-2 3v2h-4v-2-1h-1v-1h-1l-1-3-1-2m6-1l1 1m1 2v2l-1 1-1-2-1-2-1 2-1 2"/><path d="M390 195l2 1h2m-2-2h-2l-1-2m1 3l-2-2m-10 10l-8 1c-2 0-3 1-4-3l-1-18-1-3-3 12-2 11h-3l-8-1m-4-3l7 2 7 1 1-5 2-11 2-7h2l1 8 2 13 1 3 8-1 5-2m-24-22l8 1v-3l-1-1-1-1m0-1v2l-1 1s-2-1-1-2l2-2h-1l-3 1m-7-32l2 12a89 89 0 0010 22l2 4 2 8c1 2 5 0 8-1s1 0 1-2v-3-3l-2-5-9 2-7-11-5-17v-6m9 30c6-7 10-12 11-29m-10 30c5-6 10-15 11-29m-12 27v-16-10m1 26l1-12-1-14m-19 0l3 4 4 7 2-1m-9-12l1 2 3 4 3 5h2m2-1l3-2 4-3m-7 7l5-4 2-2m1-2l8 9m-8-7l8 9m1-1s0 1 3-3l5-5 2-2m-10 11s2 0 4-2l4-5 2-2m-6 33l-6 1c-1 0-2 1-3-1l-2-6m8-2l3-6v-8l1-4m-31 6l-1-7m17 55l1-9m-15-20h-2v-4l1-4c1-2 2 0 2 0m-4 9l1 3m13-45v-1l-2-1v-2l1-1h-1l-1-2-1-1 1-2 1-1v-1-2h6v1c1 1 2 1 2 3l-1 3a13 13 0 011 1l1-2 1-1v1c0 2 0 4-1 3h-1s-1 1 1 1l4 2-1 2"/><path d="M358 132h2m1 6h2m9-1l2-3c1-1 2-4 1-5l-4-4h-6m8-4c2-1 4-3 7-2s7 6 3 6l-8-1m-95 10l1-1h7l2 1 3 4-2 1h-7l-4-5zm19 0l1-1h6l2 1 3 4-2 1h-6l-4-5zm18 0l1-1h5l3 1 2 4s1 1-1 1h-7l-3-5zm-27 0l1-1h6l2 1 3 4-1 1h-8l-3-5zm18 0l1-1h6l2 1 3 4-2 1h-7l-3-5zm-36 0s-1-1 1-1h6l1 1 4 4-2 1h-5l-4-1-1-4zm2-1l2 3 2 3m-6-6l3 3 1 3m0-6l2 3 2 3m-2-6l2 3 2 3m1-6l2 3 2 3m-6-6l3 3 1 3m0-6l2 3 2 3m-2-6l2 3 2 3m1-6l3 3 2 3m-6-6l2 3 2 3m-1-6l3 3 2 3m-3-6l3 3 2 3m0-6l3 3 2 3m-6-6l2 3 2 3m-1-6l3 3 2 3m-3-6l3 3 2 3m0-6l3 3 2 3m-6-6l2 3 2 3m-1-6l3 3 2 3"/><path d="M314 133l3 3 2 3m0-6l3 3 2 3m-6-6l2 3 2 3m-1-6l3 3 1 3m-2-6l3 3 1 3m-41-14l-10-4m10 2h9s-1-4 1-7h-9l-1 7zm18-5h8s-1-4 1-6h-10m-16 4h8s0-3 1-6h-8l-1 6zm1-6h7s0-4 1-6l-7-1-1 7zm8 0h8s-1-3 0-5l-7-1s-1 3-1 6zm8 2h8s-1-3 0-6h-7s-1 2-1 6zm-15-9h6s-1-3 1-6h-6l-1 6zm8 1h6s-1-3 1-5h-6l-1 5zm8 2h6s-1-3 1-6h-6l-1 6zm7 10l4-2c-2 6 2 9 2 9h-11m0 2l1-7m-7 7v-2m-9 2v-2m9-26v2-6m-9 4v-4m17 7v-4m-1 1h-4 2l3 1m-8-5h-4l1 1 3 1m-9-2h-4l2 1 2 1m12 27l2 3m-29-4l11-14m-8 15l8-10m21 6l2 7m-1-7l2 7m-2-7l3 7m-66-5l-3 1-2-4-3-1-13 4c-2 1-1 1-1 2l1 3h-2c-4 2-5 3-4 5l4 1 3-1s0-2 2-3l5-3 6-1c1-1 3-1 3 1l1 2 5-1c2-2 1-5-2-5zM359 125l-6-1c-2-2-1-4 2-4l5-1 2-1 8 2 5 1-9 3h5c4 0 5-1 7 1 3 2 8 6 4 7l-6 2-1-3c0-2 0-5-5-6h-11zm-75-1l4 3 2 1 1-1h3l3 1c1-1 1-2 2-1s1 2 3 1l2-1c1 1 1 2 3 1s2-2 3-1l3 1h3l1-3-33-1z"/></g></svg>