<svg xmlns="http://www.w3.org/2000/svg" xmlns:xlink="http://www.w3.org/1999/xlink" width="750" height="500"><path d="M0 500h750V0H0v500z" fill="#fff"/><path d="M-2496 2360z"/><path d="M92 0L0 1v62l282 188L0 438v62h94l281-188 281 188h94v-62L468 251 750 63V1l-92-1-283 189L92 0z" fill="#a80534"/><path d="M483 248c1 50-40 96-89 103-52 10-109-25-121-78-14-49 16-105 65-122 49-20 112 4 135 53 6 13 10 29 10 44z" fill="#fff"/><g fill="#ffe03f" transform="matrix(1 0 0 .99997 0 0)"><path d="M369 153l-3 7c2 1 7-2 3-1-2 1 1-3 2-5 1-1-1-1-2-1zm33 3l6 1c-2 0-4-2-6-1zm-55 1c-1 2 4 2 1 0a1 1 0 00-1 0zm26 0c-1 3-3 3-5 4 2 1 5 0 5-2 1 1 0 5 1 2 0-1 1-4-1-4zm-8 4c-1 1-2 4 0 1v-1zm-13 1v-1 1zm57 0c2 1 2-1 0 0zm3 0c1 3 6-1 7 2 1 1 5-1 2-1-3-1-6-2-9-1zm-21 0c-2 4 4 3 6 3 4 1-1-3-3-3h-3zm-53 0c-2 2-5 2-7 1l-4 1c-2 1-2 2 0 1l8-1c2 0-2 4 1 4 2-2 6 1 6-1-1-2-5 0-5-2 2-2 5 1 8 0l-7-3zm35 2c-2 1-7-1-4 3 0 4-1-2 1-2 1 1 7-2 3-1zm6 1c-4 0-2 3-2 5-2 3 1 5 2 7 2 3 1-3-1-3-2-1 0-3 0-5-2-4 3-3 5-3l-4-1zm-14 2c-2 1-2 6-1 2l1-2zm-20 1h6-6zm49 2c-2 1-1 3 1 2h13c2-2-3-1-5-1l-9-1zm-24 1c0 1-4 1-2 2 1 0 4-3 5 0 1 0-1-3-2-2h-1zm-11 1c0 2-2-1-3 0-3 1-6 3-7 6-1 4 2-1 2-2 2-2 5-3 7-2-2 0-4 3-4 4 2-2 5-1 5-4 2 1 2-4 0-2zm2 1c0 3 3 0 0 0zm43 4c-3 2-6 0-9 1-1 0-3-2-3 1 2 3 6 0 9 0 2-1 6 0 7-2h-4zm-80 1h-8c-2 0-3 1-1 1h9c3 1 6 2 9 1 1 0 3-3 0-1 0-2-5 0-7-1h-2zm95 1c0 3 4 0 6 0h-6zm-110 1c1 1 1-1 0 0zm95 1c-1 1-5 0-6 2h9c3-1-1-3-3-2zm-87 2c-2 2 2 2 3 1h10c0-2-5-1-7-1h-6zm79 2c0 1-5 1-3 2h10c1 0 7 1 5-2h-12zm2 5c-1 0-4 1-1 1h10c-3 0-6-2-8-1h-1zm-94 1l-5 1 6 1-7 1 8 1c2-1 0-3 1-4h-3zm65 0c1 2 0-1 0 0zm-46 1c2 1 3 5 0 5 0 1 1 2 3 2l9-1c2-1 6 2 8-1 0-2-3 1-3-1-2 2-6 0-9 1-2 1-7-2-3-3h11c1 0 3-1 0-1h-11l-5-1zm58 0c0 2 1 3 3 2 1-1 4-2 1-2-1 0-2-1-2 1 0 0-1-2-2-1zm17 1c-2 1-6 0-8 2 3 2 6-1 9 0h8c1 1 5 0 2-1l-11-1zm-29 1c0 2 2 3 1 1l-1-1zm45 0c-2 1 0 5 2 3h10c2 0 6 0 6-2-2-2-3 3-6 1h-9c-2 0 0-2 2-1 4 0-1-2-5-1zm-36 2c1 0 2 4 0 2 0 1-1 4 1 4l7-1c-1-1-6 0-6-2 3-1 6 0 8-2 3-1-2-1-3-1-2 1-5-2-6 0h-1zm-26 0c0 2 0 4 1 1 0 0-1-3-1-1zm23 1c-2 1 1 6 0 2v-2zm26 0c-1 1-5 0-4 1 3 1 7-1 9 2 3-2-3-3-5-3zm-110 1c-3 3 3 1 4 2l8-1-10-1h-2zm74 1c1 2 1-1 0 0zm35 1c-1 0-3 1 0 0h1-1zm10 0c-2 2 2 3 3 3 3-1 5-2 8-1 2 1 4-1 7-1l4-1-10 1c-3-2-6 1-9-1h-3zm-34 1c0 3 2-2 0 0zm17 1c-1 0-6-1-4 1l9 1c2 0 7 0 6 3-3 1-6 0-8 2-2 3 2 2 3 1 2 1 7 1 6-3 1-2 1-4-2-4s-6 1-7-1h-3zm-14 2c-3 0 2 3 3 2h10c2-2-4-1-6-2h-7zm28 2c0 3 7 0 2-1-1 1-3-1-2 1zm-109 0c-1 2 4 1 6 2 1 0 3 0 1-1-1-2-5-2-7-1zm130 0l-10 1c-2 0-7-1-5 2l9 1c1-2 4-1 6-2s3-2 1-2h-1zm6 0c-2 3 4 2 5 2h11c2-3-3 0-4-1h-10c-1-1 0-2-2-1zm-123 1c1 0 0-1 0 0zm141 0c-1 2 4 0 1 0h-1zm-142 0c1 1 0-1 0 0zm2 0c1 1 0-1 0 0zm-1 1c1 0 1-1 0 0zm2 0c2 1 0-1 0 0zm-1 0c1 1 1 0 0 0zm13 0c-1 1-4 0-2 2 2 3 6 0 8 0 4-2-3-2-6-2zm-12 1c1 1 1-1 0 0z"/><use xlink:href="#B"/><path d="M351 210c-1 1 2 2-1 3h-10c-1 2 4 1 5 1h10c2-3 7 2 6-2 0-3-2-3-3-3h-7v1zm8 1h-6 6z"/><use xlink:href="#B" x="1.1" y=".4"/><path d="M285 210c-1 3 5-1 1-1l-1 1zm30 0c1 0 0-1 0 0zm2 0c0 1 1-1 0 0zm32 0c1 2 1-1 0 0zm-58 1c-1 3 8-1 3-1h-3v1zm75 0v3l6 1c2-1 8 0 4-3-3 0-6 2-8 1-1 3-1-6-2-2z"/><use xlink:href="#B" x=".4" y="1.7"/><use xlink:href="#B" x="3.7" y="2"/><use xlink:href="#B" x="2.6" y="2.2"/><path d="M320 211c1 1 0-1 0 0z"/><use xlink:href="#B" x="6.3" y="2.6"/><path d="M382 211c-3 2 3 4 4 3 3 0 7 1 8-1-2-2-5-1-8-1l-4-1zm20 0c-1 0-5 1-3 2 2 2 6-2 3-2zm8 1c-1 1 2 5 1 2 3-1 6 1 9-1 2-3-4-1-6-2l-4 1zm-92 0c0 1 0-1 0 0z"/><use xlink:href="#B" x="3.9" y="2.8"/><path d="M323 212c1 0 0-1 0 0zm-3 0c1 1 0-1 0 0zm114 0c-2 0-6 0-7 2h22c2-1 0-2-2-2h-13zm-113 0c0 1 1-1 0 0z"/><use xlink:href="#B" x="7.6" y="3.5"/><path d="M324 212c0 1 0 0 0 0z"/><use xlink:href="#B" x="9.8" y="3.7"/><path d="M455 213c-3 0-1 2 0 0 2-1 1-1 0 0zm-136 0c1 1 0-1 0 0zm132 0c0 2 3 0 1-1l-1 1zm-131 0c1 1 1-1 0 0zm3 0c0 1 0-1 0 0zm-2 0c0 2 2 0 0 0zm-37 1c1 1 1-1 0 0zm40 0c0 1 1-1 0 0z"/><use xlink:href="#B" x="10.2" y="4.8"/><path d="M319 214c1 1 1 0 0 0zm4 0c1 1 0-1 0 0zm-2 0c1 1-1-1 0 0zm1 1c1 0 0-1 0 0zm3 0s1-1 0 0zm-2 0c1 1 2-1 0 0zm90 0c0 2 5 0 1 0h-1zm-92 0c0 1 1 0 0 0zm64 1c1 1 5 0 6-1l-6 1z"/><use xlink:href="#B" x="10.2" y="6.8"/><path d="M322 216c1 0 1-1 0 0zm4 0c0 1 1-1 0 0zm-2 0c1 1 0-1 0 0zm26 0c-1 0-4 0-1 1l10 1c0 3-5 1-8 2h-12c-1 2 4 2 6 1h16c0-2 1-5-1-5h-10z"/><use xlink:href="#B" x="10.5" y="7.6"/><path d="M365 217c1 2 5 0 7 1l8-1c-2-2-6 1-8 0l-7-1v1zm-44 0c2 1 0-1 0 0zm1 0c2 0 1-1 0 0zm2 0c1 1 1-1 0 0zm94 0c-1 1-2 2 1 1 1 0 5-2 1-2l-2 1zm-95 0c1 1 0 0 0 0zm-25 1c-3 0 0 4 0 1h3c2-1-1 2 2 2 1-1 1-4-1-3h-4z"/><use xlink:href="#B" x="9.4" y="8.9"/><path d="M425 218c-2 2 5 1 1 3h6l4-2h-10c0-1 2-2 0-2l-1 1zm15 0c-2 2 4 1 5 1 1-1-4 1-4-1h-1zm-42 0c-2 2 1 3 1 1 2-2 0-1-1-1zm13 0c-3 2 1 4 1 6l7-3c-2 0-4-1-3-2-2 0-2-2-3 0-1 0-1-2-2-1zm2 4c1 2-3 0-1-1h1v1zm-126-4h-1 7-6zm113 1c-1 2 4-1 0-1v1zm-12 0c-1 3 7 3 3 0h-3zm-21 1c-3 0-1 2 1 2h14c3 0 1-2-1-2h-14zm-83 0c-3 3 4 2 3 0h-3zm5 0h0zm21 0c1 2 1 5-1 3 0-1-3-4-2-1 1 2-4 2-1 2l9 1c2 1 3-3 1-1-2 0-1-5-2-2 0 4-4 0-3-2h-1zm-5 1c0 1 2-1 0 0zm104 0c1 1 0-2 0 0zm-82 0c1 3-4 0-2 2h-5c-1-2-3 3 0 2 2 0 5-2 6 0 2 0 1-3 3-2 2-2-2-2-2-2zm73 1c-2 1 0 5 1 2 0-1 1-3-1-2zm22 1c-2 0-6-1-6 2h9c3 1 2-4 0-2h-3zm-29 0c-1 2 3-1 0 0zm16 0c-1 3 4 0 1 0h-1zm-53 0c-1 0-4 0-2 2 2 1 5-1 7 1 1-2 0-3-2-3h-3zm-26 1c0 1 2 2 1 0h-1zm46 0h-11c-1 1 1 4 1 2 3 0 7-2 8 1 1 2 1 3 4 2 2 0 6 1 7-1l-8-1c-4-1 1-2 2-2 3-1-2-2-3-1zm55 1c-1 2-5 0-7 2-1 0-7 0-3 1 3 0 6-2 9-1 2-1 6 0 6-2h-5zm-144 1c-1 1-3 6 0 4s6-1 7 1c2-1 4-1 3-3h-3c-1-1-4 0-4-2-1 0-4 5-3 2v-2zm105-1c1 3 4-1 1 0h-1zm-100 0c-1 2 6 1 5 0h-5zm117 1c1 3 3-1 0 0zm-127 0c-2 1-2 7 0 3 0-1 3-4 0-3zm55 1c-2 3 2 4 4 5 1 1 4 4 4 1-2-1-6-1-7-3 1-3 5-1 7-1 0-3 2 1 3 0 2 0 2-3 0-2h-11zm77 3c0 1 2 3 3 2 2 0 5 1 5-2l-6-1-2 1z"/><use xlink:href="#B" x="-10.2" y="21.8"/><path d="M379 231c-4 3 5 1 1 0h-1zm5 0c-2 1-1 2-1 3 1 0 2 0 1-1 0-1 3 0 1-2h-1zm60 1c-2 1-3 5-4 7l4-2c-1 0-3-1-1-1 2-1 4-1 3 1 2-1 3-7-1-6l-1 1zm3 0c2 2-5 1-2 0a2 2 0 012 0zm-96 0c-2 0 1 2 2 1 2-1-1-2-2-1zm-53 0c-1 2 3 0 4 1 1 0 3 2 3-1h-7zm158 1h2-2zm5 0h7-7zm-103 0c-1 2-7-1-4 3 1 1 2-2 2 0 1-1 2-2 2 0l-2 7h2c4 1 2-5 3-6 0-3 0-6-3-4zm91 2c0 1 1 3 1 0 0-1-1-2-1 0zm-9-1c-1 1-3 5-1 5 0 0 3-6 1-5zm-75 3v6l2-1c2 0 4-2 1-2-5-1 6-2 1-2-3 1-2-2 0-1 1 0 7 0 4-1h-8v1zm88-1c0 2 4 0 1 0h-1zm-168 1v0zm7 0c1 2 2-2 0 0zm135 0c-2 2-1 3 2 2h5c1-2 0-3-2-2h-5zm40 0h-2 5-3zm-6 0c1 1 1-1 0 0zm-173 0c1 1 1-1 0 0zm133 0c-2 1-6 1-2 3 1-1 3 1 3-1 1-2 0-3-1-2zm-139 1c-2 0-2 4-1 4l1-4zm18 0c0 2 5 1 1 0h-1zm5 0c1 1 1-1 0 0zm23 0c-3 0-1 2 1 1 3 0 0-2-1-1zm-22 1c1 1 3 5 1 3-2-1 0 2 1 2 0 3-4-1-2 2 1 1-1 5 1 2l2-7c-1-1-2-3-3-2zm26 0c2 2 2-1 0 0z"/><use xlink:href="#B" x="8.9" y="30.9"/><path d="M288 240c-3 3 5 0 1 0h-1zm5 0c1 2 1-2 0 0zm93 0c-1 2 3 1 1 0h-1zm-50 0c2 2 6 1 2 0h-2zm-22 1c1 1 2-1 0 0zm56 0c-2 1 1 3 3 2h8c3-3-3-2-4-2h-7zm84 1c0 2 3-1 5 0 4-1-1-1-3-1h-2v1zm-135-1c1 1 1-1 0 0zm-19 1c0 2 5 0 2-1-1 0-2-1-2 1zm31-1c0 2 4 2 2 1l-2-1zm120 1c1 2 0-3 0 0zm-110-1c1 3-5 0-5 2 2 0 4 2 1 1l5 1c-1-1 1-5-1-4zm43 1c-2 2 3-2 0-1v1zm59 0c-1 0-4 1-1 2 2 0 6-4 2-2h-1zm6 0h1-1zm16 0c0 3 5 0 1 0h-1zm7 1l-2 6h-1c2 1 4-2 5-3-2 1-3-1-1-2 1-1 1-3-1-1zm-183 0c-4 2 7 2 3 0h-3zm174 0c-2 2-2 4 0 3 3 0 3-2 1-3h-1zm-25 0c1 4 2-1 0 0zm-138 1c-1 2 4 4 1 1l-1-1zm126 0c-2 1-1 4 1 2 1-1 0-3-1-2z"/><use xlink:href="#B" x="113.1" y="35.1"/><path d="M332 244c0 2 4 1 1 0h-1zm-51 1c-1 1 0 4 1 1 0 0 1-3-1-1zm167 0c-1 1-1 4 1 1 0-1 0-3-1-1zm8-1c-2 1-2 4 0 2 1 0 2-3 0-2zm-70 1c-2 0-7-1-6 2 1 1 5 2 4 0-1 1-3-1 0-1 1 1 6-2 2-1zm-43 1h-5c-1 1 4 1 5 1 2 0 3-3 0-2v1zm13-1c-1 2 3 1 1 2s-2 6 0 4c0-1 1-6 1-2-1 2 2 3 2 1s1-6-3-5h-1zm22 0c-4 0 2 2 1 0h-1zm52 0c-1 3 2-1 0 0zm-16 1c-1 1-3 0-1 2v2h-1c2 2 4-2 2-2-1-2 6-2 1-3l-1 1zm26 0c-3 2 3 1 0 0zm5 0c-2 1-1 3 0 1v-1zm-157 0c-3 3 6 0 1 0h-1zm5 0l2 5c2 0-2-5-2-5zm73 0v6c0-2 0-7 1-3 1-1 2-4-1-3zm-33 1c1 2 4 0 1 0h-1zm73 0c0 1 0 6 1 4l-1-4zm-37 2c-1 3 3-1 4-1h-4v1zm95-1l-6 2c3 0 7 1 8-2h-2zm-89 0c1 1 1-1 0 0zm22 0c1 1-1 5 1 2 0-1 1-3-1-2zm7 0c1 2 2-1 0 0zm-5 0c-1 2 0 4 1 1l-1-1zm-108 1c-1 0-6 2-2 2 2 1 5-1 3-3h-1v1zm165 0c-3 1 0 3 1 0h-1zm-18 0c-2 1-1 4 1 2 1-1 3-3 0-2h-1zm-137 0c-1 3 5 2 1 1 1-1-1-2-1-1zm39 0c-2 2 3 4 3 1-1 2 3 3 3 1-2 0-3-4-6-2zm68 1v0zm-125 0c-1 3 3-1 1-1l-1 1zm89-1c-2 1-1 5 1 3 0-1 1-4-1-3zm16 0c0 3 5 2 2 0h-2zm30 0c-2 1 2 0 0 0zm-42 0h2-2zm-42 1c-1 2 3 3 2 0h-2z"/><use xlink:href="#B" x="23.3" y="40.7"/><path d="M400 250c0 3 2 1 1-1h-1v1zm15 0c-1 3 2-1 0 0zm32 0c-1 2 1 0 0 0zm5 0c1 2 0-1 0 0z"/><use xlink:href="#B" x="94.8" y="42.3"/><path d="M377 252c0 1 6 1 3-1 0 0-4-1-3 1zm95 0c-1 1 1-1 0 0zm-101 2c2 1 2-1 0 0zm12 0l-6 1 9-1h-3zm-15 1c-1 3 1-2 0 0zm6-1c2 2 1 0 0 0zm-4 0c1 1 1 0 0 0zm-13 1c0 2 1 3 1 0h-1zm-4 0h1-1zm-8 1c0 1-2 5 0 2 1-1 3-3 0-2zm2 0c-1 3-4 6-4 9 3 2 6-1 4-3-2-3 3-5 1-6h-1zm3 0c1 1 1-1 0 0zm19 0c1 1 1 3 1 0h-1zm53 0c-1 3-5 3-8 2-3 1-6 2-10 1h-6 9l20 1 9-1c3 0 4-3 1-2-1-2-5 0-6 0-1-2-2 3-3 0-1 0-3 2-3 0-3 3-1-1-3-1zm-79 0c-2 1-2 7-1 3 1 0 4-4 1-3zm-7 1c0 2 2 3 1 0h-1zm-2 2l1 2c1-1-1-7-1-2zm108-2c-2 1 4 2 1 0h-1zm21 0c-4 1-8 2-12 1-2-1-6 2-3 1h9l12-1c1 0 5 2 5 0s-5 0-6-1h-5zm-88 1c1 1 1-2 0 0zm-71 1c1 2-1 2-2 3 0 2-5-1-5 1 2-1 6 2 7-1v-3zm75-1c0 2 7-1 6 2 0 2-3 6 0 4 2-1 3-1 1 1l9 1h6c-2 0-4-4-5-3 0 4-2-1-3-1-2 2-4 0-3-1-1 0-6-1-2-1 1 0 3-1 1-1l-9-1h-1zm-77 1c-1 2 3 1 1 0h-1zm118 2l-8 2c-2 0-5-1-7 1 0-3-5 0-1 0 3 1-2 2-1 2 2 1 6 0 8 2-1 3 3 0 5 2 2 0 1-3 1-3-3 2-6-1-9-1-2 0 2-1 3-2 2 0 4 2 6 0 1-1 3 1 4 1 1-2 0-2-1-3 1-2 3 1 5 2-1 2 1 2 2 0 2 2 5 2 8 2 1-1 5 1 5-1-2 1-4-1-1-1 1-1 6 1 5-2-2 0-5 2-7 1l-6-1-11-1zm15 4c-1 1-2-2 0-1v1zm-27 0c-1 2-3-2 0 0zm-75-2c-1 1 1 4 1 1 0-1-2-4-1-1zm-43-1c1 2-4 0-2 1s7-2 3-1h-1zm84 0c-2 0-4 3-1 2 1 0 4-3 1-2zm3 1c-1 3 3-3 2 0 2 0 0-2-2-1v1zm22 1c1 1 3-2 0-1v1zm61 1c-1 0-4 0-1 1l5 1c1-2 3 0 3 1 1 0 3-3 1-3h-8zm-41 2c0 2 3 4 2 1 0-1-1-2-2-1zm5 2c1 2 1-2 0 0zm-26 1c-4 3 3 3 4 1l-4-1zm-20 1c-2 1-1 2 1 1 2 1 2 0 0-1h-1zm27 0c-3 2 1 1 3 1 3-1-3-1-3-1zm33 1c-2 2-2 5-2 8 2-2 6-4 8-2 1 1 6 0 6-2l-5-1h-6c2-2 6 1 5-3h-6zm-7 1c-1 1-3 5 0 3v-3zm3 0c0 1 1-2 0 0zm-67 0h-2 3-1zm-13 0l-2 1-3 1h-16c0 3 2 4 4 2 0 2 3 1 3 0s0 2 2 1c1-1 4 1 1 1-3 1 2 2 2 0 2-1 2-2 0-1-3 0-3-2-1-2 3-1 5 1 6 1l6-1c1-1 1 1 1 2 1 0 2 3 3 1-1 3 3 0 1 0s-3-3-3-4c-2 0 1-2-1-2h-3zm49 2c1 1 1 3 2 1 4 0 0 4-2 3-2 0-6 0-4-2 1 0 5 0 3-2-3 1-7-1-8 2 1 1 2-1 3 1s-4 3-1 3c2-1 6 0 3 1h-9c0 1 3 1 2 3h6c1 1 2 2 0 2 1 2-3 1-3 0-1 4-4-1-5 2-1 0 0 5-1 2-1-1 1-4-1-2-2 0-4 3-1 3 2 0 5 2 7 1 1-1 0-5 3-3 1 2 1-5 3-2s3 6 6 7l4-1c2-1 1-5 0-2-1 2-5 4-3 1 1-1 3-4 0-4l-4 2c1-2-2-2 0-3 0-3-2-2-3-3 0-2 4-1 6-2 2 1 3 0 2-1 0-2 0-6 3-3 0-1 0-3-2-3 2-2-3 0-4-1h-2zm1 5c1 1 0 5-1 2 0-1 0-4 1-2zm51-5c-1 1-5 0-3 2h12c0-2-2-1-3-1-3 1-4-2-6-1zm-153 2c-4 1 1 2 1 0h-1zm113 0c1 2 1-2 0 0zm-49 0c0 3 3 1 1 0h-1zm-69 3c-1 0-3 0-3 2s3-1 5-1c1-1 2-3 0-2l-2 1zm41-1c-1 3 2 1 1 0h-1zm2 1c2 3 2-3 0 0zm-38 0c-1 1 3-1 0 0zm32 0c-1 3 3-1 0 0zm106 0c0 1 2-1 0 0zm-27 0c0 4 1-1 0 0zm-122 2c-1 3 2-1 1-1l-1 1zm97-1c-2 1-2 3 0 1v-1zm-87 1c-1 0-5 3-2 2 1-1 6-2 3-2h-1zm137 0c-3 2 5 0 1 0h-1zm-55 1c1 0 1-2 0 0zm-49 0c0 2 2 5 2 2 1-2 0-2-2-2zm3 2c0 5 2-5 0 0z"/><use xlink:href="#B" x="24.8" y="75"/><path d="M302 284c1 1 1-1 0 0zm57 1c0 2-1 3-4 3 0 1-1 4-2 2-2-1-2 2-4 0-1 2-4 0-6 1h15c-2-2 1-4 4-3 2 0-3-1-1-2 1-1-2-2-2-1zm6 0l-1 3c2 0 4 2 3 0v-3h-2zm-22 2c-2 0-2 3 0 1 1-1 2-2 1 0-1 1 4 2 3 0l-1-3-3 1v1zm25-1c1 1 1-1 0 0zm36 1c1 1 5 1 2-1l-2 1zm34 0c-2-1-3 1-1 1l3-1h-2zm15 0l6 1c-1-2-4-2-6-1zm-3 0c1 2 1-1 0 0zm-149 1c-3 1 1 0 0 2 0 2-1 3-2 1-1 0-5 2-1 2 3 1 5 0 4-4 1-1 0-2-1-1zm68 0c-1 2 3-1 0 0zm89 1c1 1 1-1 0 0zm-124 0c1 2 1-2 0 0z"/><use xlink:href="#B" x="25.7" y="81.7"/><path d="M435 291c-2 3 4-1 0 0zm-6 0c-1 2 2 0 0 0zm-137 1c0 2 3-1 0 0zm108 1c-2 1 1 4 0 1v-1zm-67 3c-1 2-5 2-8 3-1 2-4 0-5 2l-9-1c-3 1-5-1-8-3l-1 8c2 0 4 1 3 3 3 2 6 1 9 2 2-1 6 1 7-2 2-1 6 1 6-2 2-1 6 0 7-3 3-1 1-6 1-8l-2 1zm123 5c0 2 0 4 2 3 2-2 0-5-3-4l1 1zm-3-1c1 3 2-1 0 0zm-6 1c0 3 5 4 6 2-1-2-4-2-3 0-1-1-2-3-3-2zm-6 1c-2 1-4 2-1 2 2 1 7-1 3-2h-2zm-8 1c-2 2 5 1 1 0h-1zm-19 1c-2 0-5 2-3 3 2 3 7-4 3-3zm7 0c0 1-2 4 0 4v-4zm2 3c0 2 3 0 1-1l-1 1zm-19 0c1 3 3-1 0 0zm12 0c0 2 2 0 1 0h-1zm37 1c-2 1 4 2 2-1l-2 1zm-7 3c1 1 3 3 2 0h-2zm-1 6c0 3 2 3 3 1-1-2-3-5-3-1z"/><use xlink:href="#B" x="67.1" y="107.4"/><path d="M377 318c1 2-2 5-1 6l2-6h-1zm-3 1c-1 5 1-3 0 0zm-4 0c-1 4 2-1 0 0zm72 2c0 4 3-1 0-1v1zm-36 0c-1 2 3 2 1 0h-1zm3 0c1 4 1-2 0 0zm4 0c-1 0-3 4 0 2 1-1 6 0 4-2h-4zm8 0c0 3 5 0 1 0h-1zm-42 2c-2 3 4-2 1-1l-1 1zm46-1c1 3 1-2 0 0zm-52 0c-1 1 0 3 1 1l-1-1zm-4 1c-1 3 3 0 1-1l-1 1zm-5 0c-2 0-1 3-3 4 2 0 5 1 4 3 1-1 2 3 1 0 2-2-4-4-1-6 2 0 2-1 0-1h-1zm21 4c-2 3 3 0 0 0zm-13 2c-1 3 6 1 3-1-2 0-3-1-3 1zm51-1c-2 1 2 4 2 1 0-1-1-2-2-1zm-55 1c0 2 1 4 2 2 0-1 1-4-1-3-1-1 0 1-1 1zm13 0c-2 0-2 2 0 1 1 0 2-2 0-1zm28 0c-1 2 3 3 1 1l-1-1zm-50 2c-2 0-3 2 0 2 2 0 8 1 5 4l-11 1c-2-1-3 2-1 1 3 0 3 2 1 3 3 1 7 0 10 2 0 2 4-4 0-2-2-1-8 0-4-3 2-2 6 0 7-2 1-3-1-3-2-4 0-1 0-2-2-2h-3zm8 3c-1 3 1 2 3 2 3 0 0 0-1-1 0-1 1-2-1-1h-1zm1 8c-2 1 0 5-3 4 0 2 3 1 3-1 1-2 5-4 1-4h-1v1zm10 4c-3 2 0 4 1 2 0-1 1-3-1-2zm18 0c1 1 2-1 0 0zm-4 1c1 1 2-1 0 0zm-9 1c-1 3 2-3 0-1v1zm4-1c1 3 1-2 0 0z"/></g><g fill="#7d4802"><path d="M365 159c-2 1-3 6-5 5 0-2-1-3-1-1-2-2-5 2-8 0l5 2c2 0-2 1 0 1s7-2 5 2c0 2 2 0 3-1 2-2 3-1 3 1 1-2 1-5 4-5 1-1 2-2-1-1-2 0-2-1-2-2-2 0-2 5-3 4 0-1-2 1-1-1 0-1 6-7 1-4zm-15 0c3 0 5 3 8 2l-3-1-5-1zm60 2c1 3 3-1 0 0zm-36 1c-1 0-3 2 0 1 2 0 3-2 0-1zm47 3c-3 1 2 1 3 2 0 1 5 2 2 2-3 1-6-1-8 1-2 0-8 1-5 3l9-1c2 0 4 1 1 1-3 2 2 1 4 1 2 2 5-1 6 0-1 1 0 4-2 3h-10c-4 1 2 2 3 1 2 1-4 2-5 2-2 1-7 0-7 2 1 1 7 1 4 3l-9 2-7-1c-2 1-4 2-6 1-3 0-3 3 0 3 3 2 6-2 9 0h8c2 2 4 3 7 3 3-1 5 1 8 1l10-1h8l-9 2-9 2c-4-1-7 1-10 1-4-1-5 4-1 3 4-2 7 0 10-1 4 0 7-1 10 1h8c-1 1-4 2-1 2 3 2 6-1 9 0 3 0 5-2 8 0 1 1 5 2 2 0-4-8-9-15-16-22l-14-12-6-4h-4zm-56 5c0 1-3 2-1 4 1 1 0 2-1 1 1 1 0 5-1 2 1-1 1-3-1-2-2-3-2 3-3 4-1 2-2 3-1 0 0-1 1-4-1-2-2 1-2 5-3 5-1-3 1-6 4-8 2-2-3 0-4 1l-3 7c0-1-1-4-2-1 0 2-3 5-2 6 1-1 3-2 2 0v1c1-2 2-2 1 0v8c2-2 2-5 3-8 2 0 0 4 0 6s1 1 1 0c2 0 1-5 2-6l4-4c3 0 0 6-1 4 0-4-3 4 0 3 2-1 3 4 0 2-3-3-1 2 0 4 0 1 0 5-2 3-1 3-3 6 0 8 1 1 0-3 1-1 1 1 4 4 2 1-2-2 0-3 0-6 0-1 1-6 1-2l1 11c1 10 0 20-1 31 1 3-3 0-4 2 1 2 5 0 4 2 0 2 1 5-1 5-3 0 2 3 1 5 0 1 0 5-1 3-2-2-6-5-8-2-3 1-4 5-2 8-1 1 3 3 2 2-3-1-2-4 1-4-2 1 0 3 1 2 1-2 2 2 2 0v-1c3 1-1-2 2-1 3 2-4 6-3 2-1 0-2 3 0 2l4-1c0-2 1-2 1 0-1 3 4 2 6 2s3 0 2-1c1 0 5 2 2 0 2-2 6 1 8-1 1 0 5 2 2 2s-6-1-8 2c-3-1-6-2-8 0h-9c-3-1-6 1-9-1-2-1-5 1-7 1h-5c0 2 0 4 3 3h9l9-1h10c2 1 5 0 2-1 3-1 6 1 9-1 1-3 4 1 7-1h15l6-1c-1-2-5 0-7-2l-10-1c-2 1-3 0-4-1l-10 1c-3 0 0-2-1-3 0 1-3 4-3 1-1 3-3 1-2-1v-10c0-2-2-6 1-6 3-1 0-2-2-2v-21-14c2 1 0-5 1-2 1 1 1 7 1 3 0-1 1-5 1-2 1 1 0 6 1 5 0-1 1-4 1-1 1 0 0-6 1-2v-8c1 0 0 5 2 6v-3c1-3 0-6-1-9-1-2 2 0 1-2-2-2-1-7-4-7-1 1-3 2-2 4v9c-1 0-2-2-1 0 0 2-1 4-1 1 0-1-1-7-2-3 0-1-1-4-2-1l1-5-1-3c0-2 1-4 1-1 1 4 2-3 2-4s1-4 1-1c1 2 1-4 1-5-1-3 3 2 2-2-2-2-1-4-1-6-1 2-1-1-1-1l-1 1zm-3 11c1 2-2 2-1 0h1zm9 11v7l-2-7c-2 1 0-4 1-4l1 4zm-16 65c2 2-1 3-2 2-1 0-1 2-2 1-2 1 0 4-2 3v-4c1-2 4 3 2 0-1-2 3-3 4-2zm3 3c1 1-1 4-2 2 2 0 0 0 1-1 0-1-4 0-2-1h3zm-4 2c-3 1 0-2 0 0zm29 5h0zm-33-95c-3 0-4 4-7 4l-1 1c2 0-1 2-1 3-1 1-2 4 0 2s1 4 2 1c3-2 1 5 2 2s-1-6 2-9l4-4h-1zm21 0c-2 1 2 4 0 6-1-1 0-5-2-5l1 9c1 0 3 0 2 1 0 3 2 3 3 1 2-2 4 5 5 3-1-1-2-5 0-3 2 0 4 4 2 0-1-1-2-3 0-1-1-1-2-4-4-4 1 3-1-2-2-1-1-2 0 4-1 1-1-2 1-5-1-6l-1 8c0-2-2-2-1-4-1-1 2-6-1-5z"/><path d="M407 183c0 3 2 0 0 0zm-28 6c1 1-2-1-1 1s3 4 2 1l-1-2zm86 23c-2 3-6 0-8 3-3 0-4 4-7 5-3 0-5 1-7 3-3 0-5 2-8 3l-7 6c-2 1-7 4-3 4 3 1 5-4 9-2 1-1 3-2 2 0-3 2 2 2 3 2 1-2 4-1 4-4 3-3 5 2 8 1 3 0 5-3 8-1 3 0 5-4 7-5 1 2 4 1 5 1l-5-16h-1zm-138 14l-9 1c-3 0-5 4-3 7-1 4 4 3 7 3s6 2 8-1c2 0 5 2 6-1 3-2 1-6-1-8h-5c-1-1-2-2-3-1zm2 1v1c-3 1-3-2 0-1zm-4 0c3 0 1 5 1 2-2-1-1 2-2-1-2-1 0-1 1-1zm-2 1c2 2-1 2-2 2 1-2-1 0-2 0-2-1 2-4 4-2zm9 0c1 2 0 5-1 2 0-1 0-2-1-1 0-1 1-2 2-1zm3 0c2 3-5 1-1 0h1zm-17 1v1c-1 0-1 4-3 2-1-1 1-5 3-3zm10 0c0 3-2 0 0 0zm9 2c1 1-2 5-1 2 1-2 0-3-1-2h2zm-8 0c1 2-2 2-1 0h1zm-5 0c2 2-1 5 0 2v-2zm10 1c-1 2-3-2 0 0zm-13 0c-2 2-2-2 0 0zm5 0c-1 0 0-2 0 0zm5 0c2 2-3 3-1 1 2 0 0-3 1-1zm-10 0s1-1 0 0zm-3 1c-2 1 1 1 1 1l4 1c1 3-3 2-3 0-1 4-7-1-3-2h1zm10 0c2 2-3 5-2 2l2-2zm7 0c2 2-2 4-2 2 0-1 0-2 1 0l1-2zm-10 1c-1 1 1-1 0 0zm7 1c-3 1 0-2 0 0zm-8 1c0 1 0-2 1 0h-1zm29-3c-3 1-6-1-8 2-1 1-2 2-1 3-1 3 0 5 1 7 0 2-1 4 1 6 1 1-2 2 0 3l8-1c0-2 2-5 1-8-2-3 1-5-1-8 0-2-2-4 1-3 1 0 5-1 1-1h-3zm-2 1c2 2-2 2-2 2-1 2-1 1-2-1 0-1 3-2 4-1zm2 3c1 1 1 5-1 3 2-2 0-3 0-3-2 1 0-2 1-1v1zm-6-1c1 2-2 4 1 3-2 2 1 5-2 4-2-1 0-2 0-3-3 2-1-6 1-4zm3 2c-1 3-2-1 0 0zm3 4c-3 3-1-4 0 0zm-3-1c-2 2-1-1 0 0zm1 1c1 1-2 3-1 3-2-2 0 3-2 2-1-2 0-6 3-5zm2 2c2 1 1 5 0 2-1-2-4 0-2-2h2zm-5 2c0 1 0 4-2 4-1-1 0-6 2-4zm3 1c-1 2-2-1 0 0zm3 1c2 2-4 6-3 2 1 1 1 0 2-1 0-1-1-1 1-1zm-5 2c2 1 2 4-1 2-2 0 0-5 1-2z"/></g><path d="M291 235c-4 1 4 3 2 0h-2zm3 1c0 3 4-1 6 1 1 1 7 1 3-1-2 0-4-2-7-1-1 0-2-1-2 1z" fill="#cf7419"/><g fill="#7d4802"><path d="M288 238c-1 2-3 5-2 8 1 2 4-1 5 1 4-1 2-3-1-2-1 0-4-1-1-2 1-1 4-1 2-2-2 0-6 2-3-1 2 0 2-3 0-2zm4 0c1 3 6 2 8 3 3 1 6-1 8 2 0-4-4-3-7-4l-7-1h-2zm1 4c1 3 6 0 8 3h7c-1-3-6-1-8-3l-7-1v1zm1 3c0 2 2 3 4 2 2 0 3 2 6 1 1 1 3 1 1-1-3 0-5-2-8-1-1 0-2-2-3-1zm76 1c-2 1 0 2 2 1 1 2 4-1 1-1h-3zm54-44c-2 2 5 0 1 0h-1zm-41-7c-2 2 4 2 2 0h-2zm3 0c0 3 3-1 0 0zm-5 4h0zm-3 4c0 2 7 0 2-1l-2 1zm5 0h5-5zm-2 3c-1 2 4 1 5 1 2 1 3-1 0-1h-5zm7 1c2 2 1-1 0 0zm-6 3c-1 3 3 0 0 0zm3 1h0zm5 0c1 2 2-1 0 0zM386 214c-3 2 5 2 6 1l-6-1zm1 4c-2 2 3 1 5 1 3-1-3-2-4-1h-1zm2 3c0 3 8 0 3 0h-3zm2 3c0 2 6 0 2 0h-2zm25-29c0 2 5 1 6 1 3-1-3-1-6-1zm11 0c-3 2 6 1 1 0h-1zm-12 7c1 2 6 2 7 0h-7zm22 1c-1 2 5 0 1 0h-1zm-24 3c-1 1 3 1 4 1l6-1h-10zm23 0c1 2 5 1 8 1 1 1 6 1 5-1h-13zm20 0c-1 0-3 1-1 1h9l-3-1h-5zm-44 4c1 3 6 0 8 1 3-1-2-1-3-1h-5zm48 0h-5c-1 2 1 1 2 1s4 1 5-1h-2zm5 0c-5 1 3 1 0 0zm-22 0l-10 1c1 2 5 0 7 1 3-1 7 1 9-1l-6-1zm-12 1c-1 2 3 0 0-1v1zm-19 3c-3 1 4 1 5 1 3 0 1-2-1-1h-4zm33 0c-3 0-2 2 0 1 2 0 5-1 2-1h-2zm-10 0h-6c0 2 4 1 5 1 2 1 7 0 4-1h-3zm6 0c-1 3 3-1 0 0zm-74 1h4-4zm65 3c-1 0-5-1-5 1h8c1 0 7 0 4-2l-7 1zm10 0c-1 2 8 0 3-1l-3 1zm-30 0c0 3 4-1 0 0zm3 0h1-1zm-47 0c0 3 5 1 7 1l-3-1h-4zm42 3c-2 3 3 0 0 0zm18 0c-2 0-7 2-3 2l13-1c0-2-5 0-7-1h-3zm-16 1c0 3 2-1 0 0zm9 0c-1 2 3-1 0 0zm-53 0c-3 1 4 2 5 1 2-1 6 1 7-1h-12zm42 2c-3 1 3 2 1 0h-1zm10 1c-3 1 3 2 4 1 2 0 6 1 7-1h-11zm-51 0c-2 0-4 1-1 2 2 0 6 1 6-1l-5-1zm8 1c-4 1 2 0 3 1 2 0 5-1 2-1h-5zm46 2l-5 1c2 0 6 2 7 0l-2-1zm-50 1c-4 1 5 2 1 0h-1zm4 0c-2 2 7 1 2 0h-2zm8 0c-2 0-5 1-2 1 2 1 5-1 2-1zm80 3c-1-1-4 0-1 1 2-1 7 1 8-1l-3-1-4 1zm-48 0h0zm28 0c-2 2 4 1 1 0h-1zm-65 1c-4 1 6 2 2 0h-2zm4 0c-1 2 4 1 1 0h-1zm71 2c-2 2 5 1 6 2h11c1 3-4 1-6 2h-10c0 2 5 0 6 1h9c2 0 3 0 2-2 0-2 0-4-2-2h-9c-2-1-4-2-7-1zm-11 1c-5 1 2 2 2 0h-2zm-12 0c-1 0-5 1-1 1 1 1 4-1 1-1zm-57 1h-8c2 2 5 1 8 1 1 0 6 0 3-1h-3zm72 2c-2 1-6-1-6 2 3-1 7 1 9-1l-3-1zm-19 1c-1 1 7 0 3-1l-3 1zm-57 0c2 2 6 1 9 1 1 0 6 1 5-1h-14zm10 4c-2 0-6 1-2 1 2 0 6-1 2-1zm3 0c-1 3 3-1 0 0zm-2 3c1 2 5-1 2-1l-2 1zm-45-88c-3 2 3 0 1 0h-1zm-7 3c-3 1 0 2 2 2 1 0 7-1 3-2h-5zm-7 4c-3 2 4 1 5 2l6-2h-10-1zm-6 4c-1 2 4 1 5 2l6-1c1-2-1-1-2-1h-9zm13 0c-1 3 3-1 0 0zm-17 4h18c-1-2-6 1-8-1h-9l-1 1zm-5 3c-1 2 4 1 5 1l10 1c3-3-4-1-5-2h-10zm18 1c-1 2 7 0 3-1l-3 1zm-22 3c-1 2 4 1 5 1h15c2-2-3-1-4-1h-16zm25 0c-1-1-4 1-1 1l5-1h-4zm-28 4c-2 2 6 0 3-1l-3 1zm6-1c-3 1 1 2 2 2l9-1-9-1a9 9 0 00-2 0zm12 0c0 3 4 1 6 1s5 2 6 0l-8-1h-4zm13 1c1 2 2-2 0 0zm-34 4c-1 2 3 0 5 1 1 0 5-1 2-1s-5-2-7 0zm23-1c-1 3 6 1 2 0h-2zm13 0c-3 1-7-1-8 1l10 1c1-2-2-2-2-2zm4 0c-1 3 4 1 1 0h-1zm3 1c1 2 0-2 0 0zm-46 3c-2 3 3 1 4 1h6c-3-2-6-1-9-1h-1zm33 0c2 2 5 0 8 1 1 0 6 1 5-1h-13zm0 4c-1 2 4 0 6 1l5-1h-10-1zm-36 0c0 2 5 0 7 1 2-1 5 1 6-1h-13zm48 0h1-1zm-43 4c-2 1 0 1 1 1h9c1-2-5-1-7-1h-3zm31 0c2 2 5 1 8 1h7c-1-3-5 0-8-1h-7zm-28 3c1 2 5 1 7 1l-7-1zm26 0c-1 2 4 1 5 1 4 0-1-1-3-1h-2zm8 0c-1 2 3 1 1 0h-1zm3 1c0 1 5 1 5-1l-5 1zm-31 3c0 1 4-1 1-1l-1 1zm21 0c-3 2 3 1 4 1h12c1-1-4-1-5-1h-11zm26 4h6-6zm-20 0c0 2 4 0 6 1h10c2-1-2-1-2-1h-14zm-5 0c-2 2 5 0 2 0h-2zm-43 1c-1 4 3-3 0 0zm5 0c-1 3 7 0 2 0h-2zm5 0c0 2 2-1 0 0zm-7 0c-1 2 1-1 0 0zm44 3c0 1 3 0 0-1v1zm3 0c0 2 4 0 6 0h-6zm9 0c-4 0 1 1 2 1l13-1h-15zm-51 0c-1 0-6 0-3 1 2 0 7 1 6-1h-3zm-6 1c1 2 2-2 0 0zm10 0c-1 2 4 0 1-1l-1 1zm89-64h1-1zM387 155c-1 2 4 0 1 0h-1zm4-1c-3 3 3 2 5 2h7c-3-2-8-1-11-2h-1zm12 4h-12c-2-1-4 2-2 1h23c-2-2-6-1-9-2v1zm-14 3c-2 1 3 2 1 0h-1zm3 0c-2 3 8 1 4 0h-4zm11 0h-5c0 2 1 1 2 1h7c2 1 3-1 1-1h-5zm-10 4c-1 0-4 1-1 1h5c0-2-3 0-4-1zm5 0c-1 3 4 0 0 0zm3 0c-1 3 4 1 6 2 2 0 5-1 2-1l-8-1zm-7 4c-3 2 2 1 4 1h8c2 0 4-1 1-1h-13zm1 3c-2 2 3 1 3 2h11c0-3-5-1-7-2h-7zm1 4c-1 1-4 0-2 2h8c4-2-2-1-3-2h-3zm9 0c-1 3 6 1 2 0h-2zm-9 4c-3 2 2 1 3 2 2-1 6 0 6-2h-9zm-3 0c0 3 3 0 0 0zm13 0c0 2 4 0 1 0h-1zm-8 3c-2 2 3 2 4 2s6-2 3-2h-7zm-3 1c-1-1-4 1-1 1 1 1 3-2 1-1zm1 8c-1 2 5 1 5 0h-5zm6 0c-1 2 7 0 3 0h-3zm-6 3c-1 2 3 0 4 1 2 0 6 1 5-1h-9zm0 4c0 3 5 0 7 1 2 0 3-1 1-1h-8zm1 3c0 2 4 1 6 1 1 1 3-1 0-1h-6zm2 4c-1 0-4 1-1 1h6l-5-1zm-1 4c-1 2 5 2 4 1-1 0-3-2-4-1zm2 4c-3 0-2 2 0 1 2 1 6-1 2-1h-2zm2 4c-2 2 3 0 0-1v1zM347 219c-4 1 3 1 5 1 1-1 7 1 6-1h-11zm-63 0c-1 2 7 0 3 0h-3zm6 0c-2 1 3 1 4 1s4-1 1-1h-5zm8 0c0 2 7-1 2 0h-2zm43 0c0 2 5 0 2 0h-2zm-51 3c-2 2 2 1 3 2l7-1-9-1h-1zm61 0c-1 2 3 1 5 1 3-2-5-1-5-1zm7 0c-1 3 3 0 0 0zm-75 0c-1 3 6 0 2 0h-2zm18 0c2 2 1-1 0 0zm58 3c-1 3 3 0 0 0zm-63 1c-2 1-6-1-5 1h9c2 1 2-2 0-1h-4zm56 4c-1 2 4 0 1-1l-1 1zm-4 0c0 2 5 0 2 0h-2zm-51 0c-4 1 4 1 5 1 0-2-4-1-5-1zm6 0c0 2 3 0 0 0zm-3 3c-4 1 1 1 3 1l-3-1zm74 17c1 3 3-2 0 0zm3 0c1 2 6 0 2 0h-2zm-73 1l-9 1c-1 3 4 2 6 2 2-1 6 2 6-2 1-2-2-1-3-1zm-13 0c-2 1-4-1-5 1-2 2 3 3 4 1 1-1 4-3 1-2zm-9 1c-2 2 0 3 1 1 2-2 0-2-1-1zm50 0c-3-1-1 4 1 2 0-1 1-3 1 0 2 2 4-2 1-2h-3zm8 0c-1 2 1 4 1 1 1-2 0-1-1-1zm15 0c1 3 3-1 1 0h-1zm-12 1c-1 2 3 2 2-1l-2 1zm25 0c-2 3 3-1 1-1l-1 1zm2 0c-1 2 6 0 2-1l-2 1zm-32 0c0 2 2 1 1-1l-1 1zm36 0c0 2 1 1 2 1h10c-2-3-5 0-7-1-1 0-5-2-5 0zm-82 0h1-1zm2 2c-1 0-4 1-1 1 2-1 6 1 6-1h-5zm6 1c1 2 3-2 0 0zm3-1c-2 1 5 2 2 1l-2-1zm-7 2c-3 2 5 1 1 0h-1zm-5 2c1 2 3-1 1 0h-1zm49-12c-2 2 1 2 2 2 3 0-1-3-2-2zm-12-4c1 2 4 0 6 1 2 0 7 1 3-1h-9zm7 2c-1 0-7-1-5 2l8-1c2 0 6 0 2-1h-5zm-4 3c-2 1 0 3 2 1 1 0 6 1 5-1h-7zm-37 13c-2 2-4 3-7 2l-9 1c-1 2 0 4 1 7 2 0 4 3 5 0 2 0 3 1 4-2h6c1-1 3-3 1 0-1 2 3 1 5 1 2 1 1-1 0-2l5-1c0-1 1-3-1-3l-9-1s3-3 0-1c0-1 1-2-1-1zm-7 6c1 3-5-1-1 0h1zm52-5c-1 1-1 2-2 1 0 2-2 3-4 3-1 2 1 4 3 3l9-2c4-2-3-1-3-2 1-3-3 1-2-2 0-2-1 1-1-1 0 0 0-1 0 0zm27 0c0 4 2-1 0 0zm-63 7c-1 4-5 1-8 2-2 0-4 7-1 4l2-1c-2 2 0 3 2 2 2-3 8 0 6-4-1-1 1-4-1-3zm-15 2c0 2 6 1 2 2-1 1 0 5 1 2 1-2 4-5 0-5l-3 1zm183 1c0 2 2-1 0 0zm-186 0c0 3 3 8 3 2 1-1-2-3-3-2zm-6 0c1 2 0 7 3 5-1-2 1-4-2-5h-1zm5 1c-3 0-2 5 1 5v-5h-1zm72 3c-1 3 3 0 0 0zm3 8c1-3-1-6-4-7-1-1-3 0-1 1 2 0 0 2 0 1-3-1-1 4-3 1 0-2-3-1-1 0v3c-1 1-3 4 0 2 0-1 2-2 1 0 1 0 4 3 0 3-1-1-2-1 0 1 2 1 4-2 7-1v-3"/><path d="M357 280c2 1 0 5-1 3v-2c0-2-3 1-1-1 0-1 1-2 2 0zm-3 2c-1 2-1-1 0 0zm3 2c2 3-5 4-4 1 1 0 3 1 3-1h1zm1-10c-2 1 5 1 2 2-1 0-3 1 0 1 2 0 5 1 2 3 1 0 3 1 1 1 1 3 5 0 8 1 3-1-4-1-5-2 0 0 5 0 2-1-2 0-3-2-1-2-4-2 2-3 3-2 2 0 3-2 0-1h-12zm1 11c1-1 4 1 2 2 1 0 3 1 1 1-2-1-6 1-2 1h6c-2-1-2-2-1-3-3-2 5-2 1-3-2 2-6-1-7 2zm-8-8h1-1zm-64 7c0 2 2 7 0 7 0-2-1-3-1 0s3 6 4 9l5 1c1-4 6-1 7-3 0-2 1-5-1-5s-5 1-6-1c0-1 2-4 0-1-1 1-3 3-4 1 1-2 4-4 3-6-1 0-4 6-3 2 0-2-1-3-1-1-1 1-2-4-3-4v1zm52 4c0 1 0 3-1 1s1 5-1 1c-2-1 1 4-2 3v7c1 0 1-4 3-3 3 0 7 2 10 1 2 0 1 4 3 5l4 2c2 0 6-1 5-4 0-2 0-5 3-4 3 2 6-1 10 0l7-1h5c3 0 7 1 8-2l-8-2c-1 0-4 1-2-1 1-2-2 1 0-1 1-4-3 3-3-1 0-3-1 5-1 1-1-2-1 3-3 4-1 1-3 0-4-2 0 2-1-2-1 1h-2c-4 2-8-1-12 0 1 3-1 3-3 3 1 1-1-1-1 1-1-1-2-2 0-3h-10c-1 0-3 0-2-1-3 0 2-6-1-5 0-1 0-2-1 0zm20 7v2c-1-1-4 1-2-1 1-1 1-3 2-1zm-6 2c2 1-2 0-1 1 0 1 1 2-1 3-2-2-1-6 2-4zm4 2c-2 2-3-1 0 0zm2 0c2 2-2 5-2 2 2 0 0-4 2-2zm-5 1v2h2c0-4 2 3-1 2-3 0-4-4-1-4zm-57 1c-1 2 6 0 2 0h-2zm71 3c-2 0-4 3-6 0-3-1-5 2-7 2s-4-2-6-1c-3 1-5 4-6 7-2 2-3 6 1 7 3 3 7-2 10 0 3 1 6 0 8-2 1-2 3-5 6-4 2 1 4 0 1-1 0-1 0-4 1-1 1 1 4-1 2-2 2 0 1-1 2-2 0 2 2 2 1 0-2-3-4-4-7-3zm4 1c2 1-1 2-1 0 0 2-2-1-1 1 0 2-3-3 0-2l2 1zm-11 0c2 1 2 2 0 1s0 2-3 1c0 1-3 5-2 2-2-2 1-3 2-2-1-2 1-3 3-2zm7 0c1 2-2 2 0 3-1 1-1 3 1 3-2 3-4-2-2-3-4 0-1-5 1-3zm-17 1c2 0 2 1 0 1-2-1-2 3-3 0 1-1 2-2 3-1zm13 2c1 1-3-2 0-1v1zm-10 0c2 1 0 3-1 3-1-1 2 0 1-2 0-2-4 0-1-2l1 1zm-7 0c-1 1 1 2 1 2-1 2-5-1-2-2h1zm24 0c-1 2-2-2 0 0zm-6 1c1 2-1 3-2 1 2 1 1-3 2-1zm-4 0c-1 1-1-2 0 0zm-10 0c-1 2-2-1 0 0zm8 1h-2s1-2 2 0zm-10 0c0 1 0 0 0 0zm-2 1c1 1-3 2-1 2-3 1-3-2 0-2h1zm5 0c0 2-3-1 0 0zm9 0c2 2 1-1 2 1 2-2 0 4-2 1v-2zm-10 1c2 1-2 3 0 2 1-1-2-3-3-1-1-3 2-2 3-1zm6 0v-1 1zm2 0l-2-1 2 1zm-4 0l-2 2c-2-1 2-3 2-2zm-11 2c0 1 1 4-1 3s-1-4 1-3zm17 0c1 1-1 4-2 2 3 0 0-3 2-2zm-3 0c-1 2-3-1 0 0zm-10 0c0 2-2 0 0 0zm6 1v1c2 1 1 4-1 2-1-1-1-5 1-3zm-2 0c2 2-4 5-2 1 0 2 3-1 1-1h1zm8 0c-1 1-1-1 0 0zm-14 1c-1 2 1 1 2 1s0 3-2 2c-1 0-3-1-1-2l1-1zm12 1c0 1 2-1 1 1s-5 1-2-1c1 1 1-2 1 0zm-66-13c1 1 2 3 4 2 1 0 4-1 1-2h-5zm3 3c1 3 3 5 6 4 2 1 4-1 1-2l-7-2zm36 0l-9 3c-3 2-7 3-11 3l-9 2c-2 1 3 3 4 5l8 7c3 0 6-2 7-4l8-4c0 3 4 4 7 4 4 0 6-5 4-7l-4-3c2 0 5-4 1-5l-6-1zm6 7c2 1 1 2-1 1l-2 1c2 1-3 0-2 1l2 1c-2 0-5 2-4-1 1-2 5 0 2-2 1-1 3-2 5-1zm2 2c2 1 0 5-1 2 3-1-1-1-1-1l2-1zm-3 1c0 3-3-1 0 0zm-4 2c0 2 2-1 1 1 2 0 1 3-1 2-3 0-2-3 0-3zm7 1c-1 3-6 3-4-1 1 3 3 1 2 0l2 1zm34-10c1 2 1-1 0 0zm-5 4c-2 0-5 2-2 2 1 0 5-2 2-2zm-5 4c2 1 0 1-2 2l-8 2c-3 2-6 1-9 2-2 0 0 2-2 2-3 0-6 0-8 2 1 1 7 2 3 3l-7-1c-2 0-3-3 0-2 1-1 5 0 3-2h-9c-1 1-4 0-5 2 1 1 4 0 5 2 2 0 5 2 4 3-2 1-6-2-7 0l9 4c2-2 6-1 8-3 1-2 7 0 6-3-2-1-3-3 0-2 1 2 3 3 5 1 2 1 8-1 3-1-1 0-5 1-2-1 1-1-1-1 1-1l10-1c3 0 1-3-1-2-4-1 1-3 3-3 1-1 5-2 4-3h-4zm12-20c-2 3 7 0 3 0h-3z"/><path d="M434 264c1 3 2-1 0 0zm-33 6c-4 1 2 1 3 1s7-1 3-1h-6zm-11 0c-1 1-6-1-5 1h9l-4-1zm-11 1c1 2 5-1 1-1l-1 1zm15 1c-1 0-4 1-1 2 1 0 6-1 2-2h-1zm7 1h0zm-22 0c-1 0-6 0-2 1 1 0 6 1 5-1h-3zm4 0c1 1 5 2 6 1-1-2-4-1-5-1h-1zm-36 1c1 2 8 1 4 0h-4zm-6 0c-1 0-5 1-2 1s6 1 7-1h-5zm33 2c-2 2 4 0 1 0h-1zm3 0c0 2 5 0 2 0h-2zm11 0c-1 0-3 1-1 1l1-1zm-5 0c0 2 4-1 1 0h-1zm7 0c2 2 2-1 0 0zm-47 0c-2 1 2 2 4 1l-4-1zm26 0c-1 3 4 2 2 0h-2zm13 2c-2 3 3 2 1 0h-1zm-86 0h5-5zm83 0c0 3 2-1 0 0zm5 1c-1 2 6-1 2-1l-2 1zm5-1c-3 2 5 1 1 0h-1zm3 1c0 2 1-1 0 0zm-22 0c0 2 2 3 2 0h-2zm3 0c0 2 2-1 0 0zm2 0c1 1 1-1 0 0zm18 1c-1 2 2 0 0 0zm-10 1c-1 3 5-1 1 0h-1zm-9 0c-1 2 2 0 0 0zm4 0c1 3 2-1 0 0zm3 1c0 2 2-3 0-1v1zm5-1c0 2 2-1 0 0zm10 7c0 2 3-1 0-1v1zm-4 0c0 2 5 0 1 0h-1zm-29 3c-2 1 4 1 1-1l-1 1zm-2 0c-1 1 3 0 0 0zm13-36c-1 3 3-2 0 0zm-4 0c1 1 0-1 0 0zm95 6c-2-1-2 2 0 1 2 0 7 1 8-1h-8zm-18 1c-2-1-2 1 0 0h5-5zm8 0c-1 1 4 0 5 1 3-1-1-2-5-1zm-35 0c-1 2 5 0 1 0h-1zm14 0c-2 0-3 1 0 1l8-1h-8zm18 2h-14c-1 2 5 1 6 1h10c1-1-2-2-2-1zm12 0c-4 1 2 1 3 1s6 0 5-1h-8zm-7 0c-2 3 2 1 3 1 0-2-3-1-3-1zm-50 1c0 2 1-2 0 0zm31 1c-2 0-3 2-1 2h11c2-1 6 1 7-1h-9l-8-1zm24 0c-2 1-7 1-3 2 1 0 7-1 3-2zm6-13c-1 2 4 0 5 1 2-2-1-2-2-2l-3 1zm6 2c-2 2-6-1-7 1h7v-1zm-89 0c1 2 4-1 0 0zm-14 0c1 3 3-2 0 0zm5 0c-1 1-1 3 1 2-3-2 5-1 1-2h-2zm6 0h1-1zm4 2c-2 1-6-2-8 1h8c2 0 4-2 1-2v1h-1zm82 2h-15c-2 0-2 2 0 1h18c4-1-2-2-3-1zm-62 1c-2 2 2 0 3 1l9-1h-12zm14 0c-2 1 3 0 1-1l-1 1zm13 0h2-2zm5 0c-1 2 2-1 0 0zm2 0c0 1 7 0 3-1l-3 1zm8 0c0 2 2-1 0 0zm-61 0c-1 2 4 0 5 1 1 0 6-1 2-1h-7zm38 0h1-1zm4 0c-1 1 3 0 0 0zm-31 0c-2 2 6 1 5 0h-5zm11 2c-1 0-5-1-4 1h12c2-2-3-1-4-1h-4zm-18 0c-2 2 3 0 0 0zm4 0c-2 0-1 2 1 1 2 0 6 1 7-1h-8zm16 2c-3 2 6 1 1 0h-1zm6 0c-3 2 6 1 2 0h-2zm-18 1h6-6zm16 2c-4 0 2 2 1-1l-1 1zm50 0c0 3 3-2 0 0zm3 0c-1 1 5 1 5-1l-5 1zm-27 2c-4 1 2 1 4 1h8c1-1-1-1-2-1h-10zm20 0l-7 1h18c-1-2-5 0-7-1h-4zm0 3c-1 0-5-1-5 1h9c2 0 4-1 1-1h-5zm-12 0c-2 2 7 1 3 0h-3zm10 2c-4 2 2 2 4 2 1 1 4-2 1-1l-5-1zm-18 0c-1 0-3 2 0 2 1 0 6-1 3-2h-3zm9 1c-1 0-6 0-3 1 2-1 7 1 7-1h-4zm18-1c-2 2 5 2 2 1l-2-1zm-19 3c-2 2 3 1 4 1h9c1 1 5 0 2-1h-15zm18 0c0 3 6 0 2 0h-2zm-17 3h5-5zm8 0h5-5zm7 0c0 2 4 0 1 0h-1zm4 0c0 2 0-1 0 0zm-14 2c-3 2 3 1 4 1 2-1-4-1-4-1zm-7 1c-1 2 3-1 0-1v1zm15-1c-2 2 4 2 5 1s-4 0-5-1zm-6 3c0 2 4 0 6 1s6 0 2-1h-8zm2 3c1 2 5 1 7 1 0-2-6-1-7-1zm2 3c-1 3 6 0 2 0h-2zm2 3c-4 1 2 2 1 0h-1zm-103 28c-1 3 7 0 2 0h-2zm5 0c2 2 1-2 0 0zm8 2h-9c1 3 6 1 8 2l9-1c1-2-4-1-5-1h-3zm-17 5c-2 2 4 1 5 1 1 1 5-1 2-1h-7zm-2 3c-2 0-3 2 0 2 2 0 6 1 6-1l-6-1zm-8 1c-1 0-4 1-1 1 1 0 5 1 6-1h-5zm10 3c-1 2 4 1 5 1 4-1-2-1-3-1h-2zm-20 0c-1 2 4 1 6 1-1-2-5-1-6-1zm8 0c-3 3 6 2 3 1l-3-1zm6 0c-3 2 6 2 2 0h-2zm-16 3c3 2 6 2 8 1l-8-1c-2-1-1 0 0 0zm10 1c-2 2 4 1 5 1 2 0 6 1 5-1h-10zm20 0c-2 2 3-1 0 0zm-6 0c-2 2 7 1 3 0h-3zm-12 4c4 2 8 1 12 1 2 1 7-1 3-1h-15z"/></g><g fill="#015941" transform="matrix(1 0 0 .99997 0 0)"><path d="M367 152c-4 0-9 0-14 2 0 1 2 5 0 3-1-2-3-3-5-2s-8 1-5 4c2 1 4 5 1 3-1-1-3-5-4-4l1 3c-2-2-3 0-1 1 1 2 5 2 5 4-3 0-5-3-8-1 0 2 4 0 5 1 3 2 7 1 10 2 1 0 0-3 2-1 1 2 5 1 5 5 0 2 1-2 1 0 1 2 2 0 3 3 2 2 1-2 0-3l1-6c-1 2-1 2-3 2-1 1 2-4-1-3h-4c1-1-4 0-4-1l-1-1c0-2 2-3 1 0 1 2 7-2 3 0 0-1 2-2 0-2-2-1-7-2-3-2 2 0 3 2 4 0 1 1 4 4 2 1-2-1 0-3 0-4 0-2 4 4 4 1-2-1-3-4-1-2 1-2 3 3 1 3 0 2 0 4-2 6 3 0 3-5 6-6 2 0 2-6 5-5l-2 6 7-6c2-1 2-2 0-2l-9 1zm8 1c-1 1-4 2-2 0 1-1 2-2 2 0zm-8 1c0 1-2-1-1 1-1 3-3-1 0-1h1zm-22 4v1l-1-1h1zm4 0c1 2-4-1-1-1l1 1zm1 2c-1 1-1 0 0 0zm28-6c-3 0-4 2-1 2l3-2h-2z"/><path d="M377 156c-3 0-2 3 0 2l5-1-5-1zm-18 2c-2 3 4 1 1 0h-1zm12 0c-1 1-4 2-1 2 2 1 3-4 1-2zm3 1c1 2-2 5 0 1 0-3-2 2-3 3 0 1-4 1-1 2l4-1-5 1v2c-1-2-2 3-2 0-1-4-3 2-3 4 2 0 2-4 2-1 0 1 2-1 1 1s3 0 4-1c2 1 0-3 2-2-2-2 4-2 1-1-2 1 2 3 2 0 1-1 0-2 2-2-1-3-4-2-6-2-1 1 3-2 4-1 2 0 4 4 5 2h1c-1-1-5-4-1-4 1 1 3 2 1 0l-3-1c-2 1-4-1-5-1v1zm-8 1c-1 1-2 7 0 3 0-1 3-4 0-3zm-6 0c-1 1 1 4 1 1 1-1 0-1-1-1zm10 1c-2 2 3 0 0 0zm-12 1c1 3 2-1 0 0zm27 4l-8 1c2 3-1 6 2 8 1 1 2 6 0 3 0-2-1-3-1-1-1-1-1-5-3-3 1 1 3 1 1 2 1 1 3 6 2 2 1 1 5 4 4 5-3-2 2 2 1 3-1-1-6-4-4-1 2 1 1 3 0 1-2-1-3-4-5-1-2 2-1-3-2-3-2 0-2-2-2-3-1-2 0-5-2-6-3 0 1 5-1 5-2-3-1 3-1 4-1 2-1 3-1 0-1-2-2 4-1 4 1-2 1 4 2 1 2-4 1 2 0 2l-1 7-1-8-1 6c-1-1 1-5-1-5 0 3-2 6-1 8 1-2 2-2 2 0 1 1 0-3 1 0l3 3v-10c0-2 2-5 4-2 2 2 1 5 2 7-2-1 0 3 0 5 0 1 3 6 2 2-1-2-2-7 0-7l1 6c1-2 1-1 2 0 1-1-1-5 1-3 0-1-1-4 1-2v-2c1 3 1 0 1-1 0 2 2 2 1 0v-1c3 2-1-3-1-5 1-2 2 3 3 4 1 3 0-4 1-2 0 1 2 4 1 1 0-2-2-6 1-3 2 1 1 0 0-1 1 1 2 0 1-1-2-1-3-6-1-3 2 1 3 5 3 1l-1-2c1 1 3 2 1 0-1-3-5-3-6-5 2-1 4 3 7 1l-7-4c-1-1-3-4-2-1s-4-1-1-1c-1-2 6-1 2 0l8 5-1-1c4 2-1-3 0-3 2 1 4 0 1-1-3 0-1-1 0-2-1-1-4 0-3-2-2 0-6 3-7 1l9-1-5-1zm-1 17c1 2-2-3 0-1v1zm-8 2c-1 1-3 2-1 4v2c-1-2-4-3-1-5 0 0 2-3 2-1zm4 4v3c-2-1-3-4-1-3h1zm-38-22c-3 1-6 1-8 3h5c-2-1-7 2-3 1 2 0 4-1 4 1 2-1 5-1 2 1h-4c0-1 1-3-1-1l-5 4c3 0-3 2 0 2 2 0 1 2 3 0 0 1-4 3-1 2 2-1 3 0 1 1-1 1-1 2 1 1 0 0-2 2 0 2v1c1-1 2-2 1 0 0 2-2 5-1 6l2-4c2-4 0 4 2 5 0-1 0-4 1-1v-4c0-2 1-1 1 0v-5c-2 1-3 2-2-1 0-1 5-4 1-3-2 0 3-2 4-3 1-2 4-3 6-3l-5 7c-1 2 1 5-1 7 0-1 0-5-1-3l-2 7c1 2-1 7 1 3 0 3 0 0 1-1 1 3-3 5-1 8 0 1-2 4-1 5 1-3 1 6 2 2 0-3 2 6 2 2 0-2 2 2 1 0 0-3 2 3 2-1v-4-3c0-4 3 1 2 3s-2 5-1 7l2-6c1 2 2 6 2 3 2 2-1-4 1-5v-5l3 3c1-3-1-6-2-9 1-2 5 3 4-1-1-1-4 1-3-2s-1-2-2-1l-2 7c-2-1 1-6-1-7-1 3-2 6-1 8-1 2-1-3-2 0v-8c0-3-2 4-2 0 1-2 2-4 0-2-2 3-1-1 0-2 2-3 1-6 3-8 1-4 8-2 6-6l-7 2c-1 0-6 3-3 0l8-2c2-1-3-1-4-1h-3c1 0 6-1 2-1-3-1-4 3-7 1-3 0 0 0 1-1 3-1 0-1-1-1zm-6 8c-1 3-2 0 0 0zm2 1c-1 1-2 0 0-1v1zm10 18c-1 1 0 7-1 6 0 0-2-3 0-3l1-6v3zm5 4c-1 3-1-2-1-3l1 3zm-9 1c-2 2 2-4 1 0h-1zm31-29c-1 0-3 0-2 2 2 0 3 2 3-1 1-1 1-2-1-1zm-5 2c-2 1 1 1 0 4 0 1 2 3 1 0v-4h-1zm2 2c0 3 0 5 2 7l-1-8-1 1zm-13 0l-2 6c1-1 4-6 2-6zm-7 1c-1 1-3 4-2 6l3-7-1 1zm10 1c-1 2 2 3 1 1 1-1 0-2-1-1zm-7 1c-2 1-3 4-2 5l3-6-1 1zm20 1c0 4 1-1 0 0zm-14 3c2 5 1-4 0 0zm-2 3c1 1-2 4 0 5 1-2 2-6 0-5zm2 3c-1 1 1 3 1 0 0 0-1-2-1 0zm8 2l2 9v-4c0-1 0-7-2-5zm-10 11l1 9c1 3 1-2 1-3l-2-7v1zm-68 0c-3 2-4 5-5 8a101 101 0 00-9 56l5-2c1 3 5-2 6-1 0 1 3 3 1 0 0-1 1-5-1-3-1 1-4 2-2 0l7-5c3 3 2-3 1-5-2-3-6 1-8-1-2-3 1-7 2-10 1-2 2 3 3 4l5 9c0 2 1 1 2 1h3c0-4-3-5-5-4l-1-2c2 1 7 0 3-2-2 1-5 0-5-4 0-2-7-4-2-6 2-1 2 4 3 6h5c2-1-2-3-3-2-3 1-1-3-2-5s-4-1-5 0-3 3-2 0c1-1 1-2 3-2 1 0 6 0 2-1-2-2-6 2-7 1 0-2 1-5 3-5-1 1-2 6 0 2 2-2 2-6 1-8-3 1-3 5-5 7l-4 5 4-12 4-7 1 4 2-8c-1-2-3 2-4 3s-4 6-3 2c2-5 3-10 8-12 2-2 2 5 3 1 0-3-3-3-4-2zm-7 33c-1 2-2 0 0 0zm2 4c0 2-3 4-2 1 0-1 2-3 2-1zm-4 0l-1 5c-1-1-1-5 1-5zm0 8c0 2-3 3-1 1l1-1zm11 4c1 3-3 4-5 5-2 0-5 4-6 4l5-8c2 0 4-2 6-1zm-8 0l-5 7c-1-2 2-4 3-6 0 0 1-2 2-1zm80-48c0 4 1-3 0 0zm5 1l1 6c0-2 1-7-1-6zm-4 6v0zm-10-1c0 1 4 4 2 1-1 0-1-2-2-1zm11 2c0 2 1 7 1 3v-5l-1 2zm2 3c1 1 1-1 0 0zm-38 12c1 2-1 3-1 1-3-1 0 3 2 2h3c1 2 2-1 3-1-2 0-2-1-3-2-1 2-3 1-3-1-1-1-1 1-1 1zm-3 0c1 1 1-1 0 0zm-4 1c-1 2 3-1 0 0zm5 2c0 3 1-1 0 0zm-15 1c0 6 2-3 0 0zm20 0c1 1 2 2 1 0h-1zm11 0c1 3 1 7-2 8-2 1-4 5-1 5 0 2 0 7 2 3 4 2-2-3 0-5-1-2 0-2 1-3l5-4-5-4zm-8 4c-1 2 0 2 0 0zm1 0c-1 2 2 0 0 0zm-25 1c0 1-2 4 0 2 1 1 1 4 2 1-1-1 0-5-2-3zm22 1v0zm-4 1c1 1 1-1 0 0zm5 0c-2 0-2 5 0 2v-2zm21 1c-1 1-1-2-2 0l-1 6c1 3 2 6 0 9 0 2 1 5 3 7l-2-8 2-3c1-1-3-1-1-2 0-1-3-2 0-2 2-1-1-2 1-2 0-2 2-5 0-6v1zm-26 1c-1 3 2 1 2 0-1 0-2-2-2 0zm-14 0c0 3 1 1 2 1 0 2 3-2 0-1h-2zm5 0c-2 0 0 4 1 1 1-1 4-1 1-1h-2zm-20 1c0 2 3 2 5 2 0-2-4-3-5-2z"/><use xlink:href="#B" x="38.8" y="29.6"/><path d="M326 240c-3 2 2 5 3 7 1 3 1 6 5 5 1-1-2-4-3-2-2-2 4-3 1-4-3 2-3-2-1-1 1-3-3 1-3-2 1 0 5-1 2-2-2 1-2-1-3-1h-1zm-32 0c0 3 5 2 6 2 0-3-4-1-6-2zm9 1c-3 1 5 3 2 0h-2zm50 1c-1 1 1-2 0 0zm-19 0c-3 1 5 2 1-1l-1 1zm138 0c-1 2-7 0-5 3 1 0 4 1 1 1-2 1 3 5 2 1 0-2 2-4 3-5h-1zm-9 1c-2 3-6-1-6 3-1 1 5 1 5-1l1-2zm-117 0c1 1 1 0 0 0z"/><use xlink:href="#B" x="35.3" y="34.6"/><path d="M473 244c0 2 2-2 0 0zm-45 0c2 4 2-2 0 0zm-93 0c-2 2 4 0 1 0h-1zm-32 1c-3 1 2 3 3 2 0-2-1-3-3-2zm150 1c0 4 0-5 0 0zm-33-1c-1 1 2 6 2 2 0-2 0-3-2-2zm11 0c-2 2 4 2 2 0h-2zm13 0c-1 1-3 0-2 2 1 4 5-4 2-2zm5 0c-1 1-2 4 1 2 1 1 0-4-1-2zm2 0c-1 1 1 4 1 1 0-1 0-2-1-1zm3 0c1 2 0-2 0 0zm-38 0h1-1zm-62 1v-1 1zm111-1c0 1 2 0 0 0zm-97 1c0 1-1 5-1 2l-1 8v8c1 2 3-3 3 0 1 0 3-5 2-1-1 3 3-3 4-3 1-1 4-3 1-2-1 1-4 3-2 0 1-1 4-5 1-3-1 1-2 3-1 0 0-1-1-3 2-3 2 1 1-1 0-2 1-1 1-2-1-2-2-3-6 3-7 2 0-1 2-4 1-5l-1 1zm5 3c1 3 0 6-1 8 0-1-1-5-1-2l-3 6c1-1 2-6 0-3l2-4v-2l-4 7c1-3 1-5 3-7 1-2 3-4 4-3zm3 1c0 3-3-2 0 0zm-9 12c0 3-1 0 0 0zm3 0c-1 2-2 2 0 0 0-1 0 0 0 0zm57-16c-1 2 3-1 0 0zm10-1c0 2-2 5 0 6 2-2-1-4 2-4 1-1-2-2-2-2zm-28 1l3 2c0-2-2-3-3-2zm-2 0c1 2 2-1 0 0zm-72 0c-1 3 5 1 2 0h-2zm9 1c-3 1 3 6 1 2-1-1 1-4-1-2zm129 0c-1 1-1 7 1 5 0-1 1-8-1-5zm-32 0c1 2-1 2-1 4 1 1 6 1 3-2-1 0-1-3-2-2zm-24 0c0 1 4 2 2 2s-3 1-4 3c-1-2-2 1 0 0h5v-3c0-1-1-3-3-2zm45 1c-1 0-6 0-5 2 3 0 5 0 7-3l-2 1zm-105-1l1 11c1 2 2 1 1-1l-1-10h-1zm44 1c-2 3 2 0 0-1v1zm65 0c-3 3 4 1 1-1l-1 1zm-163 0c-2 1 2 4 3 2 0-2-2-2-3-2zm92 0c-1 1-5 0-4 1l4 1c-1-1-6 1-3 1h5c1-2 0-4-2-3zm9 0c-1 2 0 5 1 3 0-1 0-4-1-3zm5 0c-1 2 6 1 2 0h-2zm-55 1c0 2-4 4-1 2l1-2zm32 0c-2 1 4 2 2 0h-2zm65 1v-1 1zm2 0c1 2 1-2 0 0zm-4 0c-1 0-2 1 0 1 1 0 3-2 0-1zm-51 1c0 2 3-1 0 0zm13 0c-1-1-3 1-1 1 2 1 5-2 1-1zm-30 0c-1 3 5 2 2 0h-2zm-30 4h-2c-1 2-1 5 1 2 2-1 4-3 1-3v1zm-51 2c-2 1-5 3-5 5 3-2 2-1 1 1 0 0 4-4 5-1 3 2-1-3-2-2-3 1 3-4 4-1 0 1 1 3 1 0 0-2-2-2-4-2zm-7 1c1 1 0 6 2 3 0-1-1-5-2-3zm54 1c-1 3 1 5-1 8-1 2 0 2 2 0 0 2 1 3 2 1s-2-3-2-5c-1-1 1-6-1-4zm34 1c0 1 0 4-1 1v3h3c1-1 2-3 0-2 1-1 2-5 0-2 0 1-1-1-1 1 0-1-1-4-1-1zm-4 1c-1 2-5 4-2 4 2 1 5-1 4-3 0 2-4 3-2 1 0-1 2-4 0-2zm45 2l-1 8a30 30 0 01-2-5c-2-1-2 5-1 4l1 5-5-6c-1 2 0 6-3 4 0 2 1 8-2 5-2 0 2 8-3 5-4 0-3 5-3 7 2 2 2-3 1-4 2-1 5 3 2 2-1 2 2 2 3 1 1 2-3 5-2 5 2 0 3-5 4-2-1 3-4 6-7 2l-5-7c-1 3-1 5-4 3l-2 4-1 1c-3 2-6 3-10 3-3 0-5 3-6 6 2 2-1 4-2 6 0 1-2-2-1 1l-3 2c-2 0-5-2-6 2-2 0-4 4-1 2 1-1 4-1 2-2 1-1 6-1 3 1-2 3-2 6-2 8 2 1 3 0 3-1 0-2 2-7 2-3-1 2-1 6 1 4l2-6v6c2 1 2-3 3-5 0-1 1-3 1 0 0 1-3 6 0 5 0-2 3-5 3-1 2 2-2 3-3 3 0 2-2 3-2 0-2-2-2 1-1 2 2 2-1 3-1 5l-9 8-3 7c3 0 5-3 5-5s3-2 4-3c3-2 0 3-1 4-2 1-5 5-1 4 1-2 2-1 1 1 2 0 3 0 3-2 1-2 2 4 4 1 0-2-1-4 1-4s4-3 5-2c-1 2-4 4-4 7 2 0 3 0 3-2 1-1 2-3 2 0-1 2 3 2 3 0l2-5c0 2-3 7 1 6 2-1 2-6 4-6 0 2-2 6 2 5 0-2 0-5 2-7l-1 6 4-1 1-5c3 1 2 6 6 4l1-6c0-1 0-7 1-3v8c3-1 6-2 7-4 2 1 5-2 8-3 2-2 6-3 8-6 0-1 1-4 2-3-1 2 0 3 2 1l1-5c2 0-1 5 2 2 1-1 3-1 2-3 0-2 0-4 1-1 2 2 3-3 2-5 0-2 0-1 1 0 2 4 5-2 5-3 1 1 5-4 2-4-2-1 3-3 3-1 0-1 2-3 0-3 0-2-2-6 2-6 0 2 2 4 3 1-1-1-2-3-1-5-3 0-5-3-3-5 1-2-3-1-4-2 1-3 0-6-3-4l-6 2v-5c0-2 0-4-3-4-2 0-6 5-5 1 0-2 3-7-1-6 0 2-2 1-2-1 1-2 0-7-2-4-1 2-3 4-3 1 1-1 1-4-1-3s-2 7-3 6c-1-2 2-6 0-8h-2zm10 10l-1 3c-1 1-3 3-2 0 1-1 2-7 3-3zm-4 0l-1 5c-1-1 0-7 1-5zm-12 2v5c0-2-2-5-1-6l1 1zm-3 5c1 3-1 2 0 0 0-2 1 0 0 0zm21 1c-1 1-4 0-1-1 1-1 1-1 1 1zm7-1c1 2 0 2-2 3-1 0-5 2-2-1 1 0 3-3 4-2zm-11 2c0 1-3 4-2 1l2-1zm4 3c-2 2-1-1 0 0zm8 0c1 3-3 4-5 3-1 1-1-2-1-2 2 0 5-3 6-1zm-29 1c2 4-4 0-2 0 1 1 2-3 2 0zm38 2c-1 4-2-4 0 0zm-16 0h-2 2zm13 2c-2 2-1-2 0 0zm-11 1c-2 1-2 4-4 1 1 0 2-2 4-1zm-7 0c-1 3-2 0 0 0zm24 1c-1 3-5-2 0-1v1zm-57 1c-1 1-1-3 0 0zm3 1c1 3-2-2 0-2v2zm51-2c2 3-5-1 0 0zm-36 1c1 1-1 4-1 1-1-1-1-2 1-1zm16 1c1 1-3 0 0-1v1zm23 1c0 1-2-1 0 0zm-7 0c0 2-3 1-5 1l3-1h2zm4 0c1 2-3 0 0 0zm-54 1h-1 1zm16 0c-2 2-1-1 0 0zm-19 1c-1 1-4 0-1-1 0 1 2 0 1 1zm23 1c1 4-2-1 1 0h-1zm6 2c0 1-1 4-2 1 0-1 1-5 2-1zm-8 0c1 2-4 2-1 0h1zm11 0c-1 5-1-2 0 0zm-42 0c-2 2-4 5-6 5 0-3 3-5 6-5zm70 1c1 2-2-2 0-1v1zm-5 1c1 1 1 0 1-1 3-1 6 4 1 3-2 0-3-2-4-4l2 2zm-63 1c-1 1-5 3-3 1 1-2 7-4 3-1zm6-1h-1 1zm52 0c3 2-3 2-5 2-4 0 4-3 5-2zm-45 0c1 1-4 2-5 2h-3c3-1 5-3 8-2zm36 2c0 1-4 0-1-1l1 1zm-19 0c0 3-4 6-6 3 0-3 4-3 6-3zm5 1c1 1 1 6-1 4 1-1 0-6 1-4zm25 0h-1 1zm5 0c-1 2-3 0-1 0h1zm-55 1c-1 1-2-1 0 0zm5 0c1 2-5 0-2 0h2zm5 1c-1 3-3-2-1-1l1 1zm18 0c2 2-2 1-1-1l1 1zm-7 1c-1 3 0-4 0 0zm12 1c1 2-2 3-1 1 0-1 0-3 1-1zm19 2c2 2-1 2-2 0h2zm-48 0c1 3-3 1-1 0h1zm-2 2c1 3-2 5-3 6l1-5c1-1 1-3 2-1zm13 0c2 4-6-1-2 0h2zm-5 2c-2 2-2 6-5 7-4 0 1-2 1-4l3-4 1 1zm-17-1c-1 4-2 0 0 0zm-6 1c-1 3-2 0 0 0zm2 1c-2 3 2 6 1 8-3 0-3-4-3-6l2-2zm7 2c0 1 0 6-1 5-1-3-1-6 1-8v3zm15 3c2 3-3 1-1-1 0-2 1 0 1 1zm15-1c0 2 3 1 1 3s-3-7-1-3zm-34 1v2-2zm30-1c1 3-1 2-2 2-2 1-6 2-4-1 2 0 5-2 6-1zm-8 1c-1 5-1-3 0 0zm-13 1c0 1-4 0-1-1 0 0 2-1 1 1zm29 0c2 3-3 0 0 0zm6 3c1 2-2 4-1 1 0-2 0-5 1-1zm-46 2c0 3-4 1 0 0zm39 1c1 1-2 6-2 2-1-2 1-3 2-2zm-42 1c-1 1-6 2-3 0h3zm27 1c2 1 0 2-1 0-1-1-1-2 1 0zm-32 1c-2 2-1-1 0-1v1zm28 6c1 2 0 4-1 1l1-3v2zm8-2c-1 3-2 2-1 0h1zm5 1v-1 1zm-39 0c-1 1-4 3-3 0h3zm23 2c-2 1 0-3 0 0zm-23 1c0 2-5 3-2 1l2-1zm-5 3c-1 2-1-1 0 0zm-3 2c-3 2 0-2 0 0zm13-80c-2 1-1 2 1 1 1-1 2-2 0-1h-1z"/><path d="M358 265c-1 3-6 1-6 3h3c1 2 2 0 3-1v-2zm14 1h1-1zm5 1c1 1 1-2 0 0zm-83 2l-4 8-1 6v-10c0-1-2-5-2-1v6l-2-6 1 12-1-4-3-6c-2 3 2 5 1 8 0 3-1-1-1-2-2-2 1 4 1 5l3 6c0-2 0-3 1-1v-4c0-2 0-6 1-2 1 1 2 6 2 2 1-2 0 6 2 2 1-1 4-3 2 0 0 1-4 3-3 5l5-4c0 1-2 6 0 3 2-1 4-2 4 0 2-2 1-4-1-3 1-1 5-2 3-3-1 1-1-1-1-1-2 1-4 4-6 3l8-5c0-2-5 1-6 1 1-2 6-1 6-4-2 1-2 1 0 0 1-1 0-4-1-2-2 3-6 4-8 5l2-9c-1-2-2 4-3 2l2-8-1 1zm0 7c-1 2-1 6-3 7 1-2 0-6 2-7h1zm-7 11c0 3-2-2 0 0zm95-14l-3 9v1c-1-3-1-7-3-9-1 3 2 6 1 9 1 2 0 2 0 0-1-2-2-6-5-6-1 1 3 1 2 3 1 1 3 6 0 4-2-2-4 1-2 2 0-5 6 5 2 1-1-2-1 1-3-1 0-1-1-2-1 0-2 2-3-3-3 0v2c0 2 1 4-1 2 0 1 3 4 0 3-3 0 5 2 3-1 2 1 3 1 2-1 1 1 1 2 2 1 0 3 4-1 0 0 0-1 2-4 3-1 1 1-2 4 1 3 1-1 1-6 2-5 0 5 1-4 1 0 0 3 2-1 3 0-1 1 0 1 1 1-1 1-3 3 0 2h2c-4-1 3-4 3-3-1 1 1 5 1 1 0-1 2-5-1-3-1 0-6 2-3 0 2 0 5-3 4-4-1 2-5 4-2 1 1-1 4-3 3-4l-7 5 5-7c-3 1-4 5-6 6 0-2 1-5 3-7 1-3-3 1-3 2l-2 5c0-5 1-9 3-13l-2 2zm-12 16c0 1-1 3-1 1-2-2 2-3 1-1zm2-1c0 2-2 3-1 0h1zm-20-11c-2 1-4-2-4 1-2 0-4 1-2 2-2 2 3 4 1 6l1 5c1-3 4 1 3-2-1-2-4-5-3-7 0-3 5-5 5-6l-1 1zm7 2v0zm-15 2c0 3-5 5-4 7 2 0 5-3 4-5l-1 2 1-4zm13 1c1 1 1-1 0 0zm2 3c0 2 0-1 0 0zm-3 1c0 2 1 0 0 0zm-12 2c-1 2-6 2-4 5 2-1 5-4 4-6v1zm8-1c-2 3 3-1 0 0zm2 0c1 1 1-1 0 0zm0 2c-2 0 1 3 1 0h-1zm-12 3c-3 2 4 2 5 1 0-1-5 1-3-2l-2 1zm15 0c-2 1 0 3 0 1 2 0 4-1 1-1h-1zm-5 1h0zm12 8c-2 0-4 0-5 2s-5 3-7 1h-4c-3 0-3-1-3 1-3 0-4 2-5 3 4 1-4 5 0 5 2 1-1 2 1 3 1 3-2 6-4 7 2 0 7 0 4-2 1-1 4-1 3 1h6c1-2 2-4 4-2 2 1 3-1 0-1-3-2-6 3-9 0-4-1-5-4-2-7 1-3 3-5 6-7s5 3 8 0c2-1 5-1 7 1 2-2 5-3 7-3 2 1 4 5 4 2 1-2-3 0-2-2l-8-1-1-1zm-8 2c1 2 0-3 0 0z"/><use xlink:href="#B" x="37.5" y="97.8"/><path d="M365 308c2 1 2-1 0 0zm-10 1l-1 1 1-1zm1 0c-2 2 3-1 0 0zm9 1c-1 4 1-2 0 0z"/><use xlink:href="#B" x="31" y="101.1"/><use xlink:href="#B" x="37.5" y="102.6"/><use xlink:href="#B" x="32.3" y="102.8"/><path d="M364 312l-1 1 1-1z"/><use xlink:href="#B" x="52.5" y="103.3"/><path d="M360 313c0 1 0-1 0 0zm-9 0c-2 2 2 1 0 0z"/><use xlink:href="#B" x="37.9" y="105"/><path d="M361 315c-1 1 0 3 0 0 1-1 0-2 0 0zm-17 2c-2 2 3-2 0 0zm7-1c0 1-2 3 0 2v-2zm4 1c-1 3 2 0 0 0zm4 1c-1 0-4 1-1 1l1-1zm-19 0v-1 1zm8 0c0 1-1 1 1 1l-1-1zm-20 3c-1 1-4 3-1 2 2-1 2 2 4 0 2-1-3-1-1-4l-2 2z"/><use xlink:href="#B" x="23.8" y="112"/><use xlink:href="#B" x="19" y="112.9"/><path d="M366 327l1 10 1-8c1-2-1-4-2-3v1zm4 2v6c2-3 2-6 2-9 0 0-3 0-2 1v2z"/></g><path d="M326 241l-11 1c-2 1-7-3-6 2l-3 9-2 21-1 19c-1 2-1 5 2 5 2 3 6 2 8 3 4 1 7-2 10-1l3-1c3 0 6-1 8-4 2-2 0-6 0-8l-2-30-4-13c-1-1-1-4-2-3zm0 2l-8 2c-1 1-5-1-3-1l10-2 1 1zm-14 0c2 2-4 0-1 0h1z" fill="#007cc2"/><path d="M323 239c-1 2-2 3 1 2l1-2c0 2-1-1-2 0zm-9 2c-2 3 4-1 0-1v1zm2-1c0 3 2 2 0 0zm3 1c0 2 3-1 0-1v1zm-1 0c-1 3 1-1 0 0z" fill="#fdbb67"/><g fill="#7d4802"><path d="M308 190c-2 1 0 4-1 6 2 1 1 5 2 7-2 0 1 1 1 2 0 2-4 3-3 6 0 3-3 5-3 8l-2 10c4-3 3 3 3 5-1 3 3 5 4 7l-2 8c-2 5-2 11-3 16l-1 15v11l-2 13 4 1c-2 0-5-1-3-3l2-24 1-13c1-5 1-11 3-16l2-7h12l4-1c0-2 2-4-1-3-2 1-5 2-9 1-2 0-6 1-8-1-3-2-2-5-2-8 0-1 5-3 3-3-2 1-7 0-5-2l9 1h8l-8 1c3 1 6 0 9-1 2 0 5 1 7-1 2-1 2-4 0-1-2 2-4 2-7 2-2-1 5-1 2-2h-20c2 1 4-3 2-3 1 3-3 1 0-1 3 0 2 2 3 4 2 0 2-1 0-1 0-1 2-2 0-3 2 0 4 0 2 1l2 2c-3 0 2-4 2-1 0 2 3 1 4 1 1-2 2 2 4 0 1 1 3-1 0-1 2-1 4 2 5-1h-1c3 1 4-1 2-2l-5-8c0-2-6-4-2-4 2-2 1-5 2-7-1-2-2-4 1-4 0-3-3-4-6-6s-7 0-10-1l-1 1zm10 1c2 1 1 1 0 2-3 0-1 3-4 2 2 3-1 2-1 1 1-1-1-4 2-2 1 0-2-3 0-2 1 0-1-1 1-1h2zm-8 0c-1 2 3 2 0 2 1 2-1 4-1 2 1 0 1-4-1-2-1 0 2-4 2-2zm2 0c-1 1-1 0 0 0zm11 3c2 2-1-2-1 1-2 0-1 2-3 0-1-1 2-1 1-2l3 1zm-4 2c0 1-1-1 0 0zm-7 1c-1 1-1-1 0 0zm11 1c1 2-2 3-1 5 1 4-2 3-4 3 1 1 2 3-1 2-2 0-5-3-2-4 0-3-5-4-2-6 1 0 2 6 4 3 3 0 3-7 5-3h1zm-9 5c0 4-3-2 0 0zm-2 3c0 1-1 0 0 0zm2 1c0 1-2-1 0 0zm-3 0c0 1-1 0 0 0zm2 0c0 1-1 0 0 0zm2 1c1 1-1-1 0 0zm-3 0c-1 1-1-1 0 0zm2 0c0 1-1-1 0 0zm-5 1c-1 1-1-2 0 0zm4 0s-1-1 0 0zm4 0c-1 1-1-1 0 0zm1 0zm2 0c0 1-1-1 0 0zm-6 0c0 1-1-1 0 0zm-5 1c-1 1-1-1 0 0zm1 0c-1 0-1-1 0 0zm9 0c0 1-2-1 0 0zm-3 0c-1 1-1-1 0 0zm5 0c-1 0-1-1 0 0zm-4 0c0 1 0-1 0 0zm-9 1c-1 1-1-1 0 0zm12-1c-1 1-1 0 0 0zm2 0c0 1 0 0 0 0zm-1 1s-1-1 0 0zm-10 0c0 1-1-1 0 0zm12 0c0 1 0-1 0 0zm-13 0c-1 1-1-1 0 0zm10 0c0 1-1 0 0 0zm2 1s-1-1 0 0zm-13 0h-1 1zm15 0c-1 1-1-1 0 0zm-12 0c0 2-1-1 0 0zm9 0c-1 1-1-1 0 0zm-11 1s-1-1 0 0zm12-1c0 2-1 0 0 0zm1 0c-1 1 0 0 0 0zm1 1c0 1-1-1 0 0zm1 0c0 1-1-1 0 0zm-14 2l5 5-10-1c-3 0 1-3 1-5 1-3 3 0 4 1zm8-2c0 1 0-1 0 0zm-8 0c0 2-1-1 0 0zm10 0c0 1-1-1 0 0zm-8 0c-1 1-1 0 0 0zm10 0c0 1 0 0 0 0zm-1 1c0 1-1-1 0 0zm3 0c-1 1-1-1 0 0zm1 0c-1 1-1-1 0 0zm-14 0c0 1-1-1 0 0zm2 1c-1 0-1-2 0 0zm6-1c0 1 0-1 0 0zm4 0c-1 1-1-1 0 0zm-2 0c-1 1-1 0 0 0zm1 1c-1 1-1-1 0 0zm3 0c-1 1-1-1 0 0zm-13 0c1 1-1-1 0 0zm3 0c0 2-2-1 0 0zm8 0c-1 1 0-1 0 0zm-10 0c0 1 0-1 0 0zm8 1c-1 0-1-1 0 0zm1 0c-1 0 0-1 0 0zm2 0c-1 1-1 0 0 0zm-11 0c0 1-1 0 0 0zm2 1c-2 0-1-1 0 0zm1 0c0 1-2-1 0 0zm5 0c-1 0-1-1 0 0zm1 0c0 1-1-1 0 0zm2 0c-1 1-1-1 0 0zm-10 1s-1-1 0 0zm2 0c-2 0-1-2 0 0zm6 0c1 0-1-1 0 0zm4 0c-1 1 0-1 0 0zm-9 0c0 1-1-1 0 0zm0 1c1 1-2-1 0 0zm-1 0c0 2-2-1 0 0zm2 0c0 1 0-1 0 0zm9 0c0 1 0-1 0 0zm-7 1c0 1-2-1 0 0zm6 0c-1 1 1-1 0 0zm-9 0c0 1-1-1 0 0zm2 0c0 1-2-1 0 0zm9 0c0 2-2-1 0 0zm-6 0c0 1-2 0 0 0zm-14 0c-1 1-1 0 0 0zm15 1c-1 0-1-1 0 0zm2 0c-1 1-1-1 0 0zm-5 0c-1 1-1-1 0 0zm-2 0c0 1 0-1 0 0zm4 0c-1 1-1-1 0 0zm-6 1c-2 3-1-3 0 0zm7-1c0 1-1 0 0 0zm-2 1h-1 1zm-3 0c-1 2-2-1 0 0zm5 18c1 1 2-2 2 0-2 1-6 2-3 0h1zm-9 1c0 1-3 1-1-1 1 0 2 0 1 1zm2 0c0 3-1-2 0 0zm4-1c-1 4-3-1 0 0zm-3 2c-1 1 0-4 0 0z"/><path d="M321 198c-2 1 2 3 1 0h-1zm-10 29c-3 3 5-1 0 0zm17 20l3 7-2-7h-1zm-17 3c-2 6-2 13-2 20l-1 14-2 12 2-7c1-6 2-11 1-17 0-5 0-11 2-17v-5zm15 7l-1 12 1 8 1-13-1-14v7zm-12-5a101 101 0 00-1 19l1-17v-2zm7 2c3 7 2 14 3 21l1 21-1-24c0-6 0-12-2-18h-1zm8 4c2 4 1 8 2 12l1 20c0 1 0 6 1 4-1-8 0-17-2-26 0-3 0-7-2-10zm-11 0l2 10v-5l-2-5zm-12 11l-1 16-1 8c2-5 2-10 2-14v-10c0-1-1 0 0 0zm10 2v16l-1 8 2-11-1-15v2zm12 2c0 6 2 11 1 17 0 1 1 6 1 2l-2-18v-1zm-16 8l-1 14v2c1-4 2-9 1-13v-3zm144-22l1 7c1-2 0-5-1-7zm3 0v0zm-69 1c0 2 2 5 2 1 0-1-1-2-2-1zm15 0c-1 1 1 6 1 2 0-1 0-3-1-2zm-11 0c0 2 1 7 2 3 0-1 0-5-2-3zm7 0l1 7c0-2 1-7-1-7zm-3 0c0 1 0 6 1 5 0-2 0-6-1-5zm48 2c0 1 1 5 2 2-1 0 1-3-1-2h-1zm6 2v0zm-3 0c-1 2 1 5 1 7-1 2 2 2 1 0s0-6-2-7zm-47 6l1 9v-9h-1zM450 274c0 2 2 6 2 3-1-1-1-4-2-3zm-45 2c-1 2 3 2 1 0h-1zm-2 4c0 1 1 5 1 2 0-1 0-4-1-2zm48 0c0 2 2 3 1 0h-1zm-116 23c-1 2-4 3-7 3-2 0-1 2-3 2-3-1-4 1-7 1h-11c2 0 7 0 4 4-1 4 3 5 6 5l6 1 5-2c-2-3-6-2-8-4-3-1-3-3 0-3 1-1 3-2 3 0 3 2 7 0 10 2 2 1 9 0 5-3-2-2-5-1-7-3 3 0 4-2 5-4l-1 1zm-4 4c2 1 5 1 7 3 1 2-4 1-6 1-3-2-6 0-8-2 2 0 4-1 4-3l3 1zm-16 3c2 1 3 4 5 4 2 1 6 1 7 3-3 2-6 2-8 1-3-1-7 0-7-4 1-2 0-5 3-4zm-2 1c-1 1 1 4 1 1 0 0 0-2-1-1z"/></g><path d="M327 228c1 1 3 4 2 6 1 1 2-2 2-3 1 1 0-4-1-2 0-2-1 1-1-1h-2zm-2 1c0 2-2-2-1 1 1 1 1 4-1 5 1 1 6 0 5-2v-1c0-1-1-3-2-2 0 1 0-3-1-1zm1 3c-1 0 0-2 0 0zm-1 2c-1 1 1-1 0 0zm-7-4c1 2 0 0-1 0 1 1-1 3 1 3-1 1 0 1 1 1h4c1-2-1-5-1-4-1-2-3 1-3-1l-1 1zm3 2c-2 2-2-2 0 0zm0 0s1-1 0 0zm11-2v3c-1 2 1 2 1 1 0 2 2-1 2-1 0 3 2-2 1-2-2 1 0-2-2-2-1 0-2-1-2 1zm2 2c-1 2-2-2 0 0zm15 4c-1 2-1 1-2 1 1 1-2 3 1 2-2 2 0 4 2 2 0 2 3-1 2-2v-2c-3 1 1-2-2-1h-1zm1 2c-1 3-2-1 0 0zm0 6h-1c-1 1 2 3-1 3-1 1 1 4 3 3 0-1 1 2 1 0 2 0 0-2 2-2-1-2-2-4-3-3 0-1 1-2-1-1zm1 3c-1 2-1-1 0 0zm2 12c-1 0 0 3-2 1l-1 3c0 1 3-1 1 1 0 1 2 2 3 0l1 1v-1c3 1-1-1 1-1-1-1 3-1 0-1 2-1-1-2-1-2v-1h-2zm1 3c-3 1 0-2 0 0zm1 17c-1 0-4 0-3 2-2-2-2 2-1 3-1 1 1 1 1 2 2 1 1-3 2-1l3-2c-3 0 1-1-1-2-1 0 1-2-1 0-2 1 2-4 0-2zm-1 3c-1 2-1-1 0 0zm0 14l-1 1-1 1c0 1 0 3 2 2v2h2c0-3 0 0 1-1 2-1 0-2 2-3l-2-1c3-1-3-2-3-1zm3 3c-2 2-3-1 0 0zm13 7c1 1-3 0-2 1l-1 3h2c2-1 1 3 3 1 1-1-1-2 1-2l1-2-2-1c-1 1 0-2-1 0h-1zm1 2c-1 2-2-2 0 0zm-11-1c0 1-4 0-2 2 1 0 1 3 3 2 1 1 1 2 1 0 1 2 0-2 2-1 0-2-2-3-3-4 0 1-1-1-1 1zm1 2c-1 1-1-2 0 0zm-11-2l-3 1 1 2c-1 2 3 2 4 1 1 1 1 0 1-1 2 1 1-3-1-2 1-2-1-2-2-1zm1 2c-1 2-2-1 0 0zm-1 1c-1 1-1 0 0 0zm-3 2c-1 0-2 1-1 2-3-1-2 3 0 2 0 0-1 2 1 1 1 1 2-2 3 0 3-1 0-2 1-3s-2-3-3-1c0 0 0-2-1-1zm1 2c0 2-2 0 0 0zm9-2c-1 1-4 0-3 3-1 1 2 0 0 1 1 2 4 2 4 0 1 3 1 0 1-1 3 1 0-4-2-3zm1 2c-1 2-3-1 0 0zm2 1c-1 1-1-1 0 0zm-25 0c-1 0-2 0 0 2h-3c-1 1 4 1 1 2-2-1-1 2 0 0-1 2 2 2 2 0 1 2 3 1 2 0l2-1c1-2-4-1-1-2l-3-1zm1 2c0 3-3-1 0 0zm-2-21c-2 2 2 3 0 4 0 2-3 5-3 2 0-2 1-3 2-1 1-5-4-1-6-2-1 2-4 2-6 1-1 0-1 2-3 2-3 1-6-1-9-1-3 1-3-3-6-3-1 1 3 4 0 5-2 1 3 2 3 1 0-3 3 1 0 2-1 3 5 1 7 2s7 1 8-1c-1-1-3-1-2-3 2-2 1 4 4 3 2 0 4 0 4-2 3-1 7 0 7-3 3-1 2-5 0-6zm-6 5c3 3-3 4-1 0h1zm-4 2c2 1-1 4-2 1 0-1 2-3 2-1zm-13 1c2 3-3 4-2 0 1-1 1-2 2 0zm6 0c2 3-3 5-3 1 1-1 2-3 3-1z" fill="#af0536"/><path d="M320 198l-5 4c-1-1-1-6-3-3 0 3 5 3 2 6-1 2 7 5 4 2-2-3 5 1 4-3l1-4c-1-2-1-5-3-2zm2 0c1 3-3 0-1-1h1v1zm6 108c-1 1-1 3-3 3-1 2 4 0 6 1s8 2 7-1l-8-2-2-1zm-15 5c-1 2-2 6 2 6 3 1 6 2 10 1 1 0 3-2 0-2l-8-4c0-2-5-3-4-1zm1 1c0 4-2-1 0-1v1z" fill="#de9c5f"/><g fill="#82c1e4" transform="matrix(1 0 0 .99997 0 0)"><path d="M377 153c0 1-5 3-2 2 4-2 6 0 10 1 1-1 3 1 0 1-1 2 4 1 5 1h16c-2-2-5-2-8-2h-8c0-3 5-1 7-2l-5-1-9-1c-2 0-4-1-6 1zm12 2c0 2-5 0-1 0h1zm-15-2c-2 1 0 2 1 0h-1zm-22 2c-1 2 3 5 1 1 0-1-1-3-1-1zm-9 2c1 2 4 4 2 1l-2-1zm-2 0c-1 2 3 4 4 6 1-2-2-5-4-6zm-3 2c-1 2-5 0-6 3h8c-1-1-2-3 0-1 1 1 3 2 1 0 0-1-2-4-3-2zm56 0c-2-1-3 2 0 2 1 0 4 0 3 2 2 3 7 2 10 1 1 0 6 1 4-1l-9-1c-1 1-5 1-3-1h11l9 1c-3-2-7-3-11-3h-14zm-14 2l3 3c2-1 6 0 5-2l-8-1zm-3 2c0 2 3 0 1 0h-1zm-57 5c-3 2 4 2 5 2 1-1 6 0 5-2h-10zm103 0c-1 0-5 1-2 1h6c-1-1-2-2-4-1zm8 6c-1 1-2 2-4 1h-28l-5 1h9c2 1 4-1 6 1 3-1 2 3 5 2l6-1c0-3 5 0 6-2 2-1 6 2 7 0-1-1 2-2-1-2h-1zm-100 0l-19 1c-1 0-3 2-1 2l14 1c2-2 6 0 8-2-1-1-1-1 1-1l-3-1zm-22 4c-2 0-3 2-1 2s6 0 5-2h-4zm3 4h-9c-2 2 0 2 2 2-1 2-6 1-6 4h7l10-1h10c1 0 6-1 2-1-3-1-7 1-9-1l-8 1-5-1c3-2 6 0 9-1 2 1 2-3-1-2a19 19 0 00-2 0zm-8 8h-7c-1 1-2 2 1 2 2-1 7 0 8-2h-2zm29 0h-9c0 2 5 1 6 2h10c2 1 3-1 2-2 0-1-1 4-1 0-1-2 0 4-2 1 0-4-3 1-4-1h-2zm11 3c0 1 0-1 0 0zm-49 0c-3 1-2 4 1 3 3 0 7-1 9 1-1 2-4 1-6 1 3 0 5 3 8 2 2 1 1 4-1 3-2 0-4 0-4-2-2-1-4 2-1 2 2 0 8-1 5 2-2 1-1 3 0 1 2-1 4 2 1 1 1 2 4-2 2-3 0-1-1-2 1-2-2-1-1-3-2-5s-4-3-6-3h-4l-3-1zm29 7c-1 2 0 5-2 7-5 1 4 3 4 0h17l-1-2c0-1-7 0-5-2 1 1 4-1 1-1l-8-1c-4 0-1-2 1-1 3-1-4-1-5-1s-2-1-2 1zm8 3c2 2-3 1-5 2-3-1 1-2 3-2h2zm3 1c0 2-3-1 0-1v1zm95-2c1 2 5 0 4 3 3 0 5 2 9 1h8c0-3 2-1 2 1l10-1c-2-3-5-4-8-4-2 2-4 1-6 1l-4 1-5-2c-1 3-3 2-4 1l-6-1zm-17 1c1 2 6 0 7 2 2 0 6 2 6 0-2-1 1-2-1-2h-12zm-63 2c-2 0 0 6-2 4-1 1-2 0-1 2 2-1 4 1 1 1h-15c1-2 5-1 7-1 2-1 7 1 5-3h-12c0 2-6 2-2 3-1 3 4 1 2 3 0 2 2 2 2 1 1-1 6 1 4-2h10c1 0 4-1 1-2-2 0 1-4 0-6 1 0 0-1 0 0zm9 0c-2 0 0 4 1 4v-4h-1zm-47 1c1 1-1-1 0 0zm67 0c-4 2 3 1 3 3 3 2 6 1 9 1 1 0 5 0 2-1-2 0-3-1-2-2-2-2-1 2-4 0h-6l-2-1zm-66 1c0 1 1-1 0 0zm39 0c-1 1 0 3 1 2 0-1 0-4-1-2zm19 0c1 4 1-3 0 0zm2 0c0 2 0-2 0 0zm82 1c-1 0-4-1-3 1 0 3 2 2 3 1 2 0 6-1 7 1-1 1-7-1-6 2 0 0-4 1-2 2 3-1 6-2 9-1 2-1 4-4 1-3-3-1 3-1 0-3l-8-1h-1v1zm-141 0c1 1 0-1 0 0zm42 0c-1 2 3 0 0 0zm-2 1c1 1 0-2 0 0zm84-1c-2 3 4 1 5 2l7 1c1-2 1-3-1-2l-11-1zm-122 0c1 1 1 0 0 0zm39 1c1 1 0-1 0 0z"/><use xlink:href="#B" x="4.6" y=".1"/><path d="M318 210c1 0 0-1 0 0zm2 0s1-1 0 0zm-1 0c1 1 1-1 0 0zm2 0c1 1 0 0 0 0z"/><use xlink:href="#B" x="5.7" y="1.9"/><path d="M323 211c0 1 1-1 0 0zm-15 1c1 1 0-1 0 0zm1 0c1 1 1 0 0 0zm-15 1c-1 1-4-1-5 1 0 1 0 4-2 2-1-1 3 0 1-3-2 0-3 4-3 5l8 1c2 1 6-2 3-2-2-1-6 0-7-2l7-1c2-2-2-2-2-1zm17 0c0 2 1-1 0 0zm117 1c-1 0-5 0-2 1 2-1 2 2 4 1h6c-1 2 2 1 2 1l9 1c2 1 3-6 1-3h-6c-1 2-2-2-3 0h-10c-2-2 7 0 3-1h-4zm-116 0c0 1 0-1 0 0zm30 0c-1 2-4 1-5 2 2 0 3 1 4 3 2 0 4-2 6-1l10 1c2 0 3-1 1-1l-10-1c-1-2-5 0-6-2 3-1 1-1 0-1zm109 1c0 1-2 6 2 3 1-1 0-3-1-4l-1 1zm-32 0c-2 1-6 0-7 2 3 0 6 2 7-1 1 0 2-2 0-1zm-107 0c1 1 1-1 0 0zm90 1c-2 3 4 0 1 0h-1zm-5 0c-2 1 1 3 2 0h-2zm3 1c-2 3 3-2 0-1v1zm-87-1c1 1 1-1 0 0zm1 1c1 2 2 1 0 0zm2 2c2 1-1-1 0 0zm28 0c2 1 2-1 0 0zm-50 1c-3 0-6 0-5 4-1 3 2 2 4 2h9c0 3-6 0-5 4h8c0-2-2-2-3-1 0-3 2-6 1-8l-8-1h-1zm-1 2c2 1 6-1 7 1h-8c-1 0-3 1-2-1h3zm9 0c0 3-3-1 0 0zm15-2c1 1 1-1 0 0zm2 1c0 1 0-1 0 0zm-37 3c-2 2 1 3 2 2 1-2 1-2-1-3l-1 1zm184 4c-1 2-5 2-5 5l6-2h5c0-4-4-2-6-4v1zm-38 0c-1 2 5 2 3 0h-3zm27 4c-1 1 3 0 4 1 2-1-4-2-4-1zm14 1c-1 0-4 2-1 2 2 1 5 1 4-2h-3zm-141 15l3 8-3-9v1zm-3 2v27l1-14v-14h-1v1zm-15 2c-3 7-2 15-2 22l-2 18c0 2-2 6 1 7 0-1 0-3-1-2l2-11c2-11-1-23 2-34 1-2 1-4 0 0zm2 3v17l1-14v-7l-1 4zm8-2l2 10 1 13 1 23 6-1c2-1 2-3 5-4-1 0-3 2-3-1l-1-24-2-11v7l2 19 1 12c-2 1-5 2-7 1l-1-9-1-25c0-4-1-8-3-11v1zm36 0c0 3 3 1 1 0h-1zm3 1c0 2 2-1 0 0zm-74 0c-2 0-2 3 1 1 1 0 3-2 0-1h-1zm17 0h-9l-4 2c3 1 4-2 7-1h9c1-2-2-2-3-1zm46 0c-2-1-4 2-1 1h5c2 1 5 0 2-1h-6zm124 0c-1 0-6 0-4 1 1 0 6 1 5-1h-1zm-192 1c-2 4 3-2 0 0zm63-1c-3 3 4 1 1 0h-1zm-7 1c-2 1 3 1 0-1v1zm-4 0c1 4 1-3 0 0zm6 0c1 2 1-2 0 0zm2 0c1 2 1-2 0 0zm-23 3l2 10-1 19 1 12c3 1 0-4 1-6l-1-16v-15l-2-5v1zm122 0c-3 2-6 1-9 1-1 3-3 0-5 2-1-2-3-1-5 0-1-3-2 0-3 0h-9c-1-2-3 2 0 1l13-1 13 1h10c1 1 3 4 2 1-3-2 3-2 4-2 2 0 4 1 1 1-2 0-4 2-2 2 2-2 6-1 7-4h-8l-8-2h-1zm6 2h-5 5zm-9 0c0 2-6 0-2 0h2zm3 0c-1 2-3-1 0 0zm-45-1c2 0 2 1 2 3l2-2-4-1zm78 1h-9c-2 0-4 0-2 2l6-1c2 0 8 1 6-2l-1 1zm-84 0c1 1 1-1 0 0zm-99 0c0 2 2 2 3 2 3 0 1-3-1-2h-2zm9 0c-1 2 3-1 4 2 0 2 3-2 0-2h-4z"/><use xlink:href="#B" x="-19.8" y="51.5"/><path d="M403 260c0 3 3 3 2 0h-2zm54 0c0 3 3 1 0 0zm-170 1c-1 1-4 2-1 2 2 1 3-2 1-2zm103 0c1 1 1-1 0 0zm2 0c0 2 3 1 2 0a2 2 0 00-2 0zm7 0c-1 2 3 0 0 0zm-101 1c-2 1 6 1 2-1l-2 1z"/><use xlink:href="#B" x="87.2" y="52.6"/><path d="M281 262c0 2 3 0 0 0zm191 0c0 1 1 4-2 3-4 1 4 3 3 0 0-1 1-3-1-3zm-29 3c-1 0-5 0-2 1 2 0 6 2 7 0l-5-1zm-34 0c-3 1 2 2 3 2 2 1 3-2 5 0h4c1-3-4-1-5-2h-7zm41 1c1 2 1-2 0 0zm-25 0c-1 4 4-2 0 0zm4 0c-2 3 5 0 1 0h-1zm39 2h-9c-1-1-6-1-4 1h16c2 1 2-2 0-1h-3zm-83 1h-9c-2 2-5 2-8 2-1-1-2 0 0 1h-9l-7 1 10 1c3 0 6-2 8-1 2 0 3 1 1 2-2-1-6 1-3 1 3-1 5 2 7 2 3-2-4-1 0-2 1 0 1-3 2-1s4 0 2-1c-2 0-6 0-2-1 1-3 4-3 7-2 2-2 5 0 8-1s-2-1-3-1h-4zm-80 2v9l-1 15v-4l2-10v-11l-1 1zm10 2l-1 14v12c2 0 1-5 1-7l1-11-1-11v3zm146-2c-3 1 2 0 4 1 1-1 5 1 1 1h-19c-1 2 3 2 4 1h9l6 1 5-1 1-3h-11zm-134 5l1 14c1 2-1 6 1 7v-9l-1-14c-1-2-1 2-1 2zm-35 1c0 1 0 4 1 1 1-1 1-3-1-1zm4 0c-1 3 3 1 4 1 0-2-3-1-4-2v1zm-6 1v0zm97-1c-2 0-3 2 0 1l7 1c2-2-2-2-4-2h-3zm13 0c-5 1 4 4 3 0h-3zm-17 1c0 2 2-2 0 0zm21 0c1 3 2-2 0-1v1zm-117-1c0 3 1 0 0 0zm-6 1c-2 1 4 4 2 1-1-1-1-2-2-1zm30 1l-1 21c3 1 0-3 1-4l1-18-1 1zm-26-1c-2 0 1 4 0 1v-1zm85 0l-4 2c1 1 6 2 4-1 1-2 2 1 2 2 1 2-4 0-6 2-2 0-5-1-2-3-3-1-4 0-4 3 2 2 6-1 8 1-1 2 3 3 3 1 0 2 2 2 3 1 0-2-2-2-2 0-3-3 3-3 2-4-2-1 2-2 0-2s1-2-2-2h-2zm80 0c-2 0-5 1-2 2 3-1 6-1 8 1 2-2 6-1 8-1-1 2-5 0-3 2-2 1-4 3-1 3 2 0 7-1 7 1-2 0-6 0-3 2 3 1 4-2 4-4l-6-1 7-1c2-3-5 0-3-2 2 0 0-3-2-2l-8 1-6-1zm-107 2c-2 2 1 4 1 1 1-1-1 3 1 2 2 0 0-2 1-3h-3zm-3 1c-2 4 4-1 0 0zm-2 0c1 3 1-1 0 0zm-53 1c0 2 2 3 1 1l-1-1zm-2 0c0 3 1 0 0 0zm153 1c-2 3 4-1 0 0zm9 0c-3 2 5 2 5 0h-5zm-44 1c-4 2 4 3 2 0h-2zm32 1c0 2 1-1 0 0zm-21 1c-1 1-2-1-1 1 2 1 4-1 2-2h-1v1zm-43 3c-2 2 2 1 1 0h-1zm-28 0c-2 3 4-1 0 0zm30 0c0 2 1-1 0 0zm-28 1c-1 2 7 0 3-1l-3 1zm121 0c0 2 3 1 2-1l-2 1zm-99 1c4 2-6 1-2 2 3 2 7 0 3-2h-1zm69 1c-2 1 2 3 1 0h-1zm-4 2c-1 1 3 0 1-1l-1 1zm23 1c1 2 2-1 0 0zm-10 0c-4 2 5 2 4 0h-4zm16 1c0 2 2 6 3 2 1-1 2-3-1-3l-2 1zm-52-1h1-1zm42 1c1 1 3-1 1-1l-1 1zm7 3h1-1zm0 6c1 2 3-2 0-1v1zm-92 15c-1 1-7 1-5 4 1 1 6 0 3-1-2 1-2-2 0-1 2 0 6 1 5-3l-3 1zm5 1c0 3 4-1 1 0h-1zm4 0c0 3 3-1 0 0zm-17 5c-1 1-7 0-5 2-4 2 5 0 3 2-3 0-8 3-9-1-1-1-4 0-2 1 4 3-2 3-4 3-1 3-5 2-7 3-5 2 2 3 3 3l9 1c1-1 4 0 3-2-1 0-6 0-3-2h18c-2-2-6-2-9-2-1 0-6 0-2 1-1 2-6 0-8 0-3 0-1 0 0-1 2-2 6 0 7-2 2-2 5-1 7-1-3 0-2-4 1-3 2 0 5-2 1-2h-3zm-14 10c0 3-4 1-6 1-3-1 3-1 4-1h2zm67-2c1 1-1 6 1 3v-4l-1 1zm-39 0c0 1-1-1-1 1 0 3 7-2 2-1h-1z"/><use xlink:href="#B" x="30.6" y="125.6"/><path d="M419 335v0zm-6 1c-1 3 3-2 0-1v1zm-7-1c-2 1-1 6 1 2 0 0 1-3-1-2zm-28 1c-1 0-1 3 1 1 2-1 1-2-1-1zm-15 3c-2 0-2 1 0 1 1-1 5 0 4-1h-4zm9 1c-3 1 3 1 1-1l-1 1zm8-1c-2 0-4 3-1 2 1-1 3-3 1-2zm-43 2l9 3 15-1-9-1h-11c-1-1-2-2-4-1zm72 1c-3 3 4 0 0 0zm-6 1c-2-1-2 3 0 2 3 0 2-4 0-2zm-6 0c-2 4 3-1 0 0zm-4 1c-1 2 2-1 0 0zm-43 1h0zm6 1c1 1 5 2 6 1-1 0-5-3-6-1zm8 1c-1 2 5 1 2 0h-2zm5 1c-1 2 4-1 1-1l-1 1zm4 0c0 2 3 0 0 0z"/></g><path d="M405 205c0 3 0 6-3 8a206 206 0 01-1 2l-2 4-2 2c-2 1-3 2-1 2l-5 8-13 15c2 1 4-3 5-4l14-19c2 0 7-2 4 1l-5 9c-1 1-6 2-3 3 2 2-2 4-3 6l-6 7c2 2 4-4 5-5l6-7c2-1 5-2 7-1l-4 15 2-8 2-6-3 14c1 1 2-6 2-2-1 1 1 4 2 2a193 193 0 002-10l1 11v-9-5l1 14v-11-6l2 17v-7l-1-11c2-1 6-5 6-1l4 12-3 5-1 1 5-5 2 5c-1 3-6 1-8 2l-21-1c-7-1-13-5-19-7l-6-3 12 7c3 2 6 3 8 6 1 2 2 6 4 2 4-1 7 2 10 1h19c2 0 3-4 3-1 1 1 2-1 3 1h6c1-3 5-1 5-4 2-1 2 4 4 2 2-1 3 2 5 1h8l11-1 4-3c2 0 4-4 1-3l-32 2c-2 0-2-3-2-4 1-2 2-8 4-4 2 2 2 7 6 7l5-1c0 2 0-3 1 0 1 2 1-2 2 0 1-2 5-2 7-2l6-1c1 2 3 3 1 0-1-1 3-1 1-2-4 1-4-5-6-7l-9-21-2-9c1-1 0-5-1-2-1 4-1 9-3 12l-10 22c-1-1 1-4-2-4s-1 5-2 7c0 2 0 5-3 4s2-4 2-5c1-3-2 1-3 2-1 4-3-2-4-3v-4c-1 0-4-2-3 0l-1 4c-1 0-3 4-3 1l-5-13c1 0 2-2 0-1-3-1-3-5-4-8-1-2 3-2 3-5-1-1-5 3-5-1-2-3-2-6-1-9 1-2-1-6-1-2l-1 2zm48 10l8 21 5 9-9 2c-1 0-3 1-3-2l-3-25 1-9 1 4zm-46 0c2 1-1 3 0 1v-2 1zm-3 1c0 2-3 4-4 4l4-7v3zm2 0v-1 1zm43 3v-1l-3 23c-1 3 1 7-2 7-2-2-5-5-5-8l9-21h1zm-39 2c0 3 4 8 0 8-4 3-2-3-3-5s0-6 2-4l1 1zm-4 1c1 2-1 3-2 4 0-1 1-6 2-5v1zm46 7l1 18-1-5-1-20 1 7zm-51 0c0 2-1 4-3 4l4-8-1 4zm49 3v15c0 1-3 2-3 0 2-6 2-13 3-20v5zm-43-2c-1 0 0-3 0 0zm44 2l1 15c-2 0-1-5-1-7v-11 3zm-47-1v-1 1zm2 5v-1 1zm-3 5c-1 1-1 5-2 4l2-8v4zm35 1c-1 3 0-3 0 0zm-12 0c1 2 4 5 0 5-2 0 0-3-1-4 0 0 0-2 1-1zm-4 1l-1 6c-1-2-2-5 1-7v1zm10 5c2 1 5 4 3 6h-1c2 0 0-3-2-1-1 1-3 1-1-1 2 0 3-2 1-2l-1 1c2-1 0-4-1-1 0 0-1 3-1 1 0-1 0-4-1-2 0 1 0 5-1 2 0-2-1-3-2-1l1 1h-2c1 1 3 3 0 2-1-3-3 1-1 1h1c-2 1-4 0-2-3 1-3 6-5 10-3z" fill="#7d4802"/><g fill="#cf7419" transform="matrix(1 0 0 .99997 0 0)"><path d="M421 165c-4 2 6 0 2-1l-2 1zm4 0c1 2 1 0 0 0zm3 3c-3 0 1 2-2 1-2 1-6-1-8 1-2 0-7 1-6 2l8-1c3-1 6 1 9 1 2-2 2-5-1-4zm5 7c-1 1 0 3-2 2h-10c-4 1 2 2 3 1 2 1-4 2-5 2-2 1-7 0-7 2 1 1 7 1 4 3l-9 2-7-1c-2 1-4 2-6 1-2 0-3 2-1 1h9c2 0 5 1 2 2h3c-1-2 3-1 4-2h9c3 0 5-4 7-1 2 2 5-1 7 2 2 1 5 1 3-2 0-3-4 1-5-2-2-1-6 4-6 0l-7-1c1-4 5-1 8-2 3 0 4-5 7-2 0-1-2-3 1-3 4 1 3-4-2-3zm10 6c-1 1-7 0-4 1h7c-1-1-2-2-3-1zm0 9h-1c1 1 4 0 2-1h-1v1zm-32 0c2 2 5 3 8 2h-4c-1-1-2-3-4-2zm17 1c-1 2 5 1 6 1l-6-1zm16 3l-9 1c-2 2-6 1-7 2h9c3 1 6-1 9 1 4-1 0-6-2-4zm5 0c-1 3 4 0 5 3 2-3-2-1-3-3h-2zm-27 3l-9 1c-2 1-1 4 1 1h7c1-1 4-3 1-2zm21 4c-1 0-4 2-1 2 0-2 7-1 3-3 0 1-3-1-2 1zm-38 4v5l1-9-1 4zm-42-1c-1 4 1 7 1 11 0 3-2 5 0 8v10l-1 8v10c2 2 0 6-1 8-1 3 0 2 1 1 0 1-2 7 0 4 1-1 1-5 2-2-1 2-1 5 1 3l-1-9v-9c0-2 5-1 3-3-4 1-2-4-3-6v-20c0-4 1-8-1-12 1-1-1-5-1-2zm88 2l-1 7 1-7zm14 6c-2 3-6 0-8 3-3 0-4 4-7 5-2 2 0-4-1-1-2 2-4 1-5 4-3 0-6 0-8 3l-8 5c0 2-5 3-4 5l7-4c1-3 6-1 6-5 2 0 3 2 4-1 3-1 1 6 5 3 1-1-3-3-1-5 2 0 5-2 7 0 3 1-1-4 3-4 2-1 6-3 6 1 0 2-5 2-3 5 1-1 3-1 2-3 1-3 2 1 4-1 3-2-3-1-2-4 0-4 7-1 5-5-1 0-1-2-2-1zm-158 2l-3 5 9 1c2 1 4 1 2-1s-4-5-7-6l-1 1zm1 0c-1 1 0 5-2 4 0-1 2-7 2-4zm96 2c0 3-5 3-5 6 3-1 5-3 5-7 1-1 0-3 0 0v1zm6 0c-3 0 0 2 1 0 3-2 1-1-1 0zm-3 1c-2 3 3 0 0 0zm-2 1c0 3 2-1 0 0zm-75 3c0 2-3 1-3 4-1 0-3-2-2 0s3-1 3-1c2 1 3-4 2-3zm66 1c-3 1 2 1 2-1l-2 1zm-66 2v0zm75 1l1-1h-1v1zm-3 0c-1 3 0 8-4 8-1 0-2 2 0 1l9-3c0-1-3 1-2-1 0-3-1 3-3 2v-8 1zm66 0c1 1 4-1 1-1l-1 1zm-164 1c0 2 5 1 7 1l10-1c1 0 4-1 1-1l-8 1-9-1-1 1zm6 2c2 1 3 2 1 2s-5-2-5 0-1 5 1 7c2 3 5 2 8 2 2 0 7 2 6-1-1-1-2 2-2 0-2 3-2-3-4-1 2 1-3 2-1 0 0-3-4 1-2-2 1-1 2-3 0-2s-6 1-5-1c2 1 5 1 5-1 1 1 2 3 2 0 0-2-2-4-4-3zm-2 8c0 1 5 2 3 3-2-1-5-3-5-5l2 2zm106-8c-1 2-6 1-6 3 2 0 6-1 7-3h-1zm50 1c-2 2 1 0 0-1v1zm-23 1c-3 0-2 1 0 1v-1zm15 1h0zm-10 0c3 1 0 5 1 8 0-2 2-6 0-8h-1zm-108 0c0 2 5 2 4 4-2-1-5-3-5 1-1 1-2 3-3 1-2 0-2 2 0 2l7 1c1-2-2-4-1-4h3c2-1 2-2 0-2l-5-3zm98 3v-1 1zm-42 0c-5 1 2 3 2 0h-2zm-103 1c-3 1 5 2 1 0h-1zm4 1c0 2 4-1 5 1 2 1 7 1 3-1-2 0-4-2-7-1l-1 1zm112-1c0 2 0-1 0 0zm-79 1c0 1 1-2 0 0zm1 0c1 1 3 2 2 0h-2zm74 1l-1 8c-2 2 0 4-1 6l2-8v-7 1zm20-1c-1 3 0 7-3 8-2 1 3 0 2 2v1l1-10c2 0 5 0 2-1h-2zm-1 8c-1 1 0-1 0 0zm12-7l-1 6c-2 0-1 2 0 2 1 3-3 1-5 1-3 0-7 3-8 6-2 2-5 0-8 1l-21-1-18-7c-1-1-5-4-6-3 8 3 14 8 22 10l31 2c2-2 2-6 6-6 3-1 6-1 8 2 1 3 3 4 6 3a660 660 0 00-3-1l-3-4 1-11c1 0 5 0 2-1l-3 1zm-109 1c-4 1 1 0 1-1l-1 1zm5 1c-3 0-2 3 0 2l10 1c3 1-1-2-3-1l-7-2zm134 1c1 3 4 2 6 3 1 0 4-1 3-3-1 0-3 2-4 1l-5-1zm-3 1c-2 2-6 0-7 2 0 4 4-1 6 1 2 0 6-3 2-3h-1zm-36 2c0 3 2-2 0-1v1zm2-1c1 2 3 3 4 1l-4-1zm18 0c-1 2-4 1-4 2s2 2 3 1c2 0 2-1 2-3h-1zm3 1c0 2 3 2 2 0h-2zm3 0c0 3 2-1 0-1v1zm1 0c1 3 1 0 0 0zm-36 0c-2 2-5 1-7 1-1 2 2 1 3 2 2 1 4-2 6-2 1-1-1-1-2-1zm3 0c1 1 1-1 0 0zm-63 1c-2 1 6 3 4 0h-4zm81 0c0 3 5 2 2 0h-2zm36 0c-3 3 3 2 0 0zm-66 1c1 3 1-2 0 0zm-1 1c1 3 1-4 0 0zm62-1l-14 2c0 2 5 0 6 0l9-2h-1zm-98 1c-2 1 0 2 2 1 1 2 4-1 1-1h-3zm34 0c-1 3 3 1 1 0h-1zm14 0c0 3 3 0 0 0zm-23 1c-3 0-7-1-9 2 3 1 6-1 8-1 1-1 6 0 4-2a8 8 0 00-3 1zm4 0c0 3 3-2 0 0zm16 0c-2 0-1 3 1 1 1-1 1-2-1-1zm30 0c0 1-3 2-1 2s7 1 6-2c-2 0-5 3-5-1v1zm-36 0c-1 2 6 1 2 0h-2zm42 1c0 2 2-2 0 0zm2 0c0 2 0-2 0 0zm-45 0c0 2 0-2 0 0zm29 0c-1 2 3 0 4 0h-4zm-21 1c-2 1 6 0 2-1l-2 1zm12-1c1 1 1-1 0 0zm-2 1c1 0 2 4 1 1 0 0 0-2-1-1zm4 0c2 1 1-1 0 0zm-21 0c-2 3 7 1 2 0h-2zm-18 1c-1 1 3-1 4 1-1-2-3-2-4-1zm-17 0c1 3 3-2 0 0zm58 0c1 1 1-1 0 0zm-55 0c1 2 6 0 2 0h-2zm47 0c1 1 1-1 0 0zm1 1c0 1 3 2 1 0h-1zm-3 1l2 1c-1 0-1-2-2-1z"/><use xlink:href="#B" x="114.8" y="43.7"/><path d="M434 252c0 1 0 0 0 0zm-3 1h1-1zm1 1c-3 2 7 0 2 0h-2zm-11 0h0zm-118 15c-1 4-5 1-7 2-2 0-3 2-3 3 2 1 3-1 2-2h9c0-1 1-4-1-3zm35 1h-5c0 3 5 1 7 1 1-1 6 1 4-1h-6zm9 0h15-15zm-56 0c2 2-4 3-1 5 2 0 4-6 1-5zm-6 2c0 3 5 2 2 0h-2zm-6 0c0 2 3 4 3 2l-3-2zm5 1c-2 0-2 2 0 2s2-3 0-2z"/><use xlink:href="#B" x="-18.5" y="65.2"/></g><g fill="#fbba66" transform="matrix(1 0 0 .99997 0 0)"><path d="M365 154c-2 2 1 3 1 0 0 0 2 0 0 0h-1zm-4 1c-2 0 3 3 0 3-2-1-3-4-3-1v3c1 1 1 3 2 1 1-1 2-1 2-3 2 0 0-4-1-3zm-1 3c1 2-3 2-1 0h1zm26 1c-1 2 4 1 5 2 2 0 1-3 0-2h-5zm-25 2c-1 4 2-1 0 0zm-4 1c0 1 2-1 0 0z"/><use xlink:href="#B" x="40.3" y="-46.5"/><path d="M397 166h-8c-1 1 5 1 3 3 0 2 2-1 4 0 2 0-1-2 2-1 2-1 5 1 7-1l-5-1c-1 2-2-1-3 0zm22 0c-3 3 4 3 5 2-1-2-3-1-5-2zm-46 1c-2 2 1 4 3 2h-1c-2 0-1-2 0-2h-2zm3 0c1 2 1-2 0 0zm-23 0c-1 2-5 2-6 3 2 0 6-2 8 0-2 1-7 1-7 3 2-2 5-1 8-3 0 1 3 4 2 1s-4-1-4-4h-1zm53 2c1 1 2-1 0 0zm3 1h-8l9 1c4 0-1-3-1-1zm-67 0c2 1 2-1 0 0z"/><use xlink:href="#B" x="29.6" y="-39.1"/><use xlink:href="#B" x="30.7" y="-39.1"/><path d="M329 170c-1 2-4 1-6 2h-8 15c1-1-1-1-1-2 0 0-1 0 0 0zm45 2c-1 2 2 2 0 0zm-29 1c-1 2 4-2 0 0zm48 0c-2 0-3 0-2 1h10l10 1c2-2-2-3-2-1h-11c-2-1-4 0-5-2l-1 1zm-18 2c-1 1 0 4 2 2-2-1 1-1-1-2h-1zm2 1c1 2 1-1 0 0zm-65 4c-2 0-4 1-1 1h9l7-1h-9l-6-1zm82 1c-2 2 3 1 5 1l-5-1zm-19 4c0 2 2-1 0 0zm-8 1c-1 2-2 3-2 1-1-2-3 2-2 4l1-3c1 1 1 3 2 1l1-3zm6 1c-1 2 2 3 2 5 1-2-1-4-1-5h-1zm-58 0l-10 1c-1 0 3 1 1 2 1 2 3-2 5-1 3 0 7 0 9 2 2 0 7 2 8 1-2-1-6-1-3-3 2-2 6 0 9-1 1 0 3 0 1-1h-20zm9 1c2 2-6 2-2 0h2zm9 4h4-4zm15 1l-1 4v2l1-7v1zm53-1l-5 1c0-3-3 1 0 1l10-1c1 0 4-1 1-1h-6zm15 1c2 2 6 2 9 3 1-2 4-1 6-2l-9-1h-6zm-35 2c0 3 3-1 5 0 1 0 4 0 1-1l-6 1zm14 1c-1-1-4 2-1 1l10 1c1 0 5-2 2-2h-11zm-9 2c2 3-5 1-4 2 2 1 8 1 5-2h-1zm10 2c1 3 6 2 9 2 1-3-4-2-5-2h-4zm-101 1l4 2c1-1 0-2-2-2 0 1-1-2-2 0zm44 0c-2 1 1 1 1 2 2 2 4-2 1-2h-2zm11 1c0 1 0 4 1 1 1-1-1-3-1-1zm27 0c-1 1 2 3 0 1 2-1 3-1 1-1h-1zm35 2c1 2 5 2 8 2-2-3-6-2-8-2zm-15 1c0 2 4 1 6 1 3-1-2-2-4-1h-2zm-16 4c-1 2 2 0 3 2 1-2 5 0 6-1-3 0-6 1-9-1zm-25 5c-4 2 5 0 2 2h-1 4l-1-2h-4zm42 0c-2 2 4 2 0 1-1-1 3-1 1-2l-1 1zm-105 0c-2 2 4 0 3 2h3c2 1 4-2 1-2h-7zm72 1c0 2 3 1 4 1h7c-2-2-5 0-7 0-1 0-4-1-1-1s-1-1-2-1l-1 1z"/><use xlink:href="#B" x="86.1" y="6.9"/><path d="M427 216c-1 3 4 1 6 1 1 1 5-1 2-1h-8zm-39 0c-1 0-7 0-3 2l8-1c-1-2-3-1-5-1zm-15 2h-2l6 1c1 0 3-1 1-1h-5zm-7 0c-1 1 0 2 1 2 2 0 0-4-1-2zm70 1c-1 1-4 3-1 2l9-1c1-1-3 0-4-1h-4zm-65 0c0 2 3 0 0 0zm-24 2c-2-1-3 0-1 1h9c2 0 3 2 3 0 2-1 1 3 3 1 1-1 0-2-1-2h-13zm18 1c-1 2 1 2 2 2l11-1c-1-1-6 1-8 1l-4-2h-1zm9 0c2 0 0-1 0 0zm6 0c1 3 1-2 0 0zm8 0c-2 3 6 2 3 1l-3-1zm40 1c-3 1 0 3 1 1l6-1h-7zm-11 2l1 4 2-2c1 0 6 1 5-1-3 1-6 0-8-1zm-50 2c2 2 6 2 8 2 0-3-4-1-7-2h-1zm-28 2c-3 2 3 4 5 2 3 0 1-3-1-2h-4zm13 0c-2 0-5-1-5 1 2-1 4 0 5 1 0-4 4 2 5-1l-5-1zm29 1c-1 1-7-1-3 2 1-1 4 0 5-2h-2zm41 0h0zm-37 0c-2 2 5 2 5 0h-5zm-95 1c-2-1-2 1-3 2 1 1 4-4 7-1 0 1 1 4 3 3l8 2-1-3c-2 0-7 1-6-2 2-1 7 2 7-1h-15zm0 3c-3 2 4 1 2-1l-2 1zm163-1c-1 2 1 3 3 2 1-1 6 2 4-2h-7zm8 1c1 2 2-2 0 0zm-5 3c-3-1-4 2-2 4 3 0 6 1 9-1-2-2-5 1-8-1 1-2 6 0 7-1-2-1-4-2-6-1zm-7 1c0 2 2-1 0-1v1zm-5-1c-1 1-4 3-1 2 2 1 6-2 2-2h-1zm20 0c-2 2 4 1 5 1 1 1 6 0 2-1h-7zm0 3l5 1c1 1 3 0 4-1l-8-1-1 1zm-23 1c-3-1-1 3 1 2 1-1 6-2 2-2h-3zm8 0h1-1zm-23 0c2 1 5 3 6 0h-6zm7 1c-1 4 3-2 0 0zm-15 0c1 2 4-1 1 0h-1zm-1 0c-1 2 2 0 0 0zm-43 1c-5 1 4 3 4 2-2-2 6-1 1-2h-5zm-9 1c0 1 3-1 4 1-1 2 4 1 1 0-1-1-4-3-5-1zm18-1c0 2 0 2 1 1 2 0 4 1 5-1h-6zm1 12c-1 2-4-1-5 1-2-1-3 0-2 1l-3 2c1-1 5-2 3 0-2 1-6 4-2 3 1 0 4-4 3-1-1 1 3 2 1 0 1-2 2 3 2 0 2-3-5-2-2-4 3-1 6 1 9-1l-3-1h-1zm-84 1c-1 1-6 0-3 1h7c2-1-3 0-4-1 0-1 0-1 0 0zm-10 1c-2 1 0 4 2 2 1-1 2 1 1-1 0-2-2-1-3-1zm-4 1c-4 3 4-1 0 0zm96 1l1 1c2-1-2-2-1-1zm2 2c-1 2 2-1 0-1v1zm69 1c-1 0-4 2-1 2 2-1 3 1 1 2l3 1c3 0 2-1 0-2 0-2 0-3-2-3h-1zm8 0l-3 1c-1 2 4 1 6 1 2-1 7 1 8-1h-9l-2-1zm-30 4c1 1 1-1 0 0zm2 0l1 6c1 1 2-2 4 0 2 1 7-1 6 2 3 2 3-1 5-2 0-2-1-1-2-2-2 0-6 1-7-1h8c3-1-2-1-3-1-3-1-7 1-9-1 0-1 4 0 1-1h-4zm-4 1c-2 0 0 5 1 1 1-1 1-1-1-1zm-26 1c-3 0-6 2-9 1-4-1 2 2-1 2h-9v2c3-1 5 0 5 2 1 0 6-1 6 1h-2l9-1c1-2-1-1-2-1h-9c1-3 6 0 6-3 3-2 6-1 10-1 2-1 2 3-1 2 0 0 3 1 1 1s-5 1-2 2c2 0 7 1 6-2 3 2 3-2 2-3-2 0-3-1-2-2h-8zm21 0c0 3 3-2 0 0zm29 1c-1 3 8 1 3 1-2 1-2-4-3-2v1zm-2 0c1 1 0-1 0 0zm-35 1l3 5c0-3-1-6-3-5zm8 0c-1 4 2-1 0 0zm-42 1l-4 2c2 1 8-2 4-2zm-31 1l-8 1-10 1c0 2 4 1 5 0h9l5-1s0-2-1-1zm76 2c-1 3 2-2 0-1v1zm-45 1c-1 2 1 4 1 2s5-2 3-3c-1 0-3-1-4 1zm33 0c1 1 0-2 0 0zm38-1h0zm-73 1c-1 0 1 3-2 2-1 1 2 6 1 2-1-1 3-1 2-4h-1zm-80 0c-4 2 4 3 4 0h-4zm59 0c-2 2 4 1 1 0h-1zm7 0c-1 1 2 2 2 3 3 1 1-2-1-2 0-1 0-2-1-1zm100 0c-2 1-4 2-1 2 1 1 2 2 2 0 1 0 5 0 3-1l-4-1zm-77 1c1 1 1-1 0 0zm6 1c0 3-3 2-5 2-1 0-5 2-2 2 2 0 3-3 4-1h4c1-1 0-4-1-3zm-20 1c0 1 3 4 2 1 0-1-1-2-2-1zm41-1c0 3 1 0 0 0zm30 1c-2 0-3 3 0 2h2c-2-1 1-3-2-2zm-151 1c-2 3 6 0 1 0h-1zm118 1c1 1 0-2 0 0zm-121 0c-1 3 2-1 0 0zm89 0c2 2 1-2 0 0zm3 0c-1 2 4-1 0 0zm-95 1c0 2 2-2 0-1v1zm-7-1c0 3 2 2 1 0h-1zm3 1c1 4 1-2 0 0zm147 0c1 1 1-1 0 0zm-97 0c-2 1-1 3 0 2 2 1 1-3 0-2zm3 1c1 4 0-3 0 0zm91 0c-1 1 0 3 1 1 1-1 0-2-1-1zm-89 0c-2 3 2 0 0 0zm105 0c1 1 6-1 5 2 2-1 4 0 3 3h9c-2 0-3-2-4-1-3-1 0-1 1-1-1-1 3-3 1-3-1 2-6 2-7 0h-8zm-103 1v0zm32-1h1-1zm-29 1c-2 2 1 3 2 1 0 0-1-2-2-1zm-2 1l1-1-1 1zm44 1l1-1-1 1zm-3 0l1-1-1 1zm-84-1l-5 4c3 0 5-5 6-2 3 0 1-3-1-2zm89 2c-2 1-2 2 0 0 2-1 2 3 4 1 2 0 6 1 6-1-3 1-7 1-8-1 0-2-2 0-2 1zm55-1c0 2 6-1 2-1-1 1-3 0-2 1zm-4 0c-1 1-6 2-2 2 1 0 5 0 3-2h-1zm-66 2c2 3 1-2 0 0zm-88 0c1 3 2-1 0 0zm125 0c1 2 4 0 1 0h-1zm47 2c-3 2-1 7 3 6 1-1 4-1 4-4-1 1-4 2-4 0 0-1 5 1 2-2h-5zm-11 1c1 1 1-1 0 0zm-73 1c-2 2 3 0 0 2 0 2 4-1 1-2h-1zm-17-1c2 3-4 1-5 2l-7-1c-3 3 3 1 5 2l8-1c2 0 8 1 7-1-1 1-5 1-5-1h-3zm5 0c-1 2 3 0 0 0zm90 1c-3 2 4 2 1 0h-1zm-110 1c1 1 1-1 0 0zm107 0c3 2 1-1 0 0zm-32 6c-1 2 1 1 0 0zm5 1c-1 2 1 5 1 1 0 0 0-2-1-1zm-9 1c-2 3 4 0 1 0h-1zm12 0c1 4 1-1 0 0zm-26 6c-1 3 4-1 0 0zm29 4c-1 3 2-1 0 0zm-32 4c0 1-2 7 1 3 1-1 2-4 0-4l-1 1zm12-1c0 2 4 3 3 0h-3zm-4 2l-4 7c3 0 2-5 5-6 1-1 0-3-1-1zm-13 2c0 1-1 6 1 5v-5h-1zm-7 0c-1 2 0 7 2 5-2 0-1-6-2-5zm4 4c0 4 1-1 0 0zm8 0c-3 2 3 2 1 0h-1zm-16 0c0 2 1-1 0 0zm57 4c0 1 0 3 1 1 2-2-1-5-1-1zm-6 0c-1 1 1 3 1 1 0-1 0-3-1-1zm-67 1c0 2 3 2 2 0h-2zm13 0c1 3 0-2 0 0zm-5 0c0 3 5 1 1 0h-1zm-4 1c1 3 4-2 0 0zm-8 0c-1 1-6 0-4 2h9c0-2-3-2-5-2zm73 1c-1 3 2 2 2 0s-1 0-2 0zm-81 3c-1 0-3 2-1 2 1 2 1-1 3-1 2 1 5 0 5-1h-7zm13 1c-4 1 2 4 1 0h-1zm3 0c-1 4 4 1 2 0h-2zm3 0c-1 2 1 1 2 1 2 1 1-2-1-1h-1zm-11 2c-2 1 4 1 2 3 2 1 4-3 1-3h-3zm-6 2c-1 4-5-1-6 2-2 2 0 2 2 2s0-2 2-2 6 0 3-2h-1zm7 2c-2 0-4 3-1 2l6-2h-5zm48 1c-1 1 0 5 1 2 0 0 0-3-1-2zm8 1c0 1 0-2 0 0zm-74 0c-1 2-5 0-2 2h9c1 1 5 0 2-1h-8l-1-1zm22 0c-1 2-2-1-3 1l3 1c0-1 2-3 0-2zm4 1h2-2zm33 0c0 2 4 1 1 0h-1zm-5 1c-1 2 3-2 0 0zm-16 1c-3 1-1 2 0 1s2-3 0-1zm7 0c-2 5 3-1 0 0zm-14 4c0 3 1-2 0 0z"/></g><path d="M338 247l1 4c0-2-5-3-3 0 1 3 2 6 1 9-1-3-3-5-3-8-2 3-1 7-1 10 0 2 2 6 4 2 0-2 1-2 1 0 0-1 1-5 1-2s1-2 1 1c0 2 1 1 2 1-1 1 0 2 1 1 0-4 4-6 4-9 0 0-4 6-2 2v-5c0 3-2 6-4 9l2-12-2 6c-1 2-1 0-1-1 0-3 0-6-2-8zm1 5c1 2-1 7-1 3 0-1-2-4 1-3zm-4 6v3c-1-1-2-9 0-3zm5 19c-1 3-1 7-3 10 0-3 2-6 0-9-1-1-2 3-2 4 1-1 2-3 2 0l-1 5c-1-2-3-5-2-2l1 5c-2 0 1 5 2 2-1-1 0-4 1-1v-2c1 3 1-1 2-2 1-2 3-6 2-8l-2 5v-7z" fill="#015941"/><g fill="#fff" fill-rule="evenodd"><path d="M353 285c0 1-1 5 2 3 1 0 3-1 1-3h-2-1m3-1c0 2 2 2 2 0 2-3-2-3-2-1-2 0 2 0 0 1zM356 279c-2 2-2 2 0 1-1 2 4 0 1-1 0 0-2-2-1 0zm-2 4c1-1-2-2 0 0z"/></g><g fill="#3d663d"><path d="M462 297zm-22 29zm-7 4zm1 0zm-2 0zm-11 8zM420 338zm31-24zm-19 17zm31-36zm0 2zm-3 4zm-5 8zm1-3zm6-9zm-3 5zm-5 8zm0-1s1 1 0 0zm-160-3zm0 0s-1 0 0 0zm156-121zM457 193s-1 0 0 0zm4 7zm12 36c0 1 0 0 0 0z"/></g><path d="M246 250a129 129 0 11258 0 129 129 0 01-258 0h31a98 98 0 10196 0 98 98 0 00-196 0h-31" fill="#ffb900"/><g fill="#a80534"><path d="M265 247h-1v2l-5-2 6-2-1 2h1v-2l3-1 1 1h1v-7l-4 3-12 4v1l12 5 3 2h1v-4h-1l-1 2-3-1v-3m7-18l-2 8v-1c0-1 0-2-2-2l-11-2c-1 2-1 4 3 5v1l-5-1 2-13h5v1c-4 0-5 2-5 4l12 1c2 1 2 0 2-1h1m-5-22c-2 0-4 1-5 3-1 1-1 3 1 3l3-1 3-3s2-2 4-1 4 3 3 7l-2 3 1 1-1 1-5-2v-1c3 1 5 0 6-2 1-3-1-4-1-4l-4 2-1 1c-3 3-5 2-5 2-2-1-4-2-3-6l2-3-1-1 1-1 4 2m17-18l-1-1-1 2-3-5 5 1-1 2 1 1 1-3 3 1v3l5-6-1-1-4 1-12-3h-1l8 11v4h1l3-4h-1c0 1-1 2-2 1l-2-2 2-3m-20 14l6-12 4 2v1c-3-1-5 0-6 3v2l5 2c1-2 1-3-1-5l7 3-1 1c-2-1-3 0-4 1l4 3 2-1c1-2 2-4-1-7l1-1 4 3-6 12h-1v-3l-10-5-2 1h-1m33 139h2l6-7-1-2h1l3 2v11l4-5v-3l3 2v1h-2l-7 9h-1v-14l-5 6 1 3h-1l-3-2v-1M269 285c1 2 1 2 3 1l3-1c1 1 3 3 3 5 3 5 0 9-4 11s-8 0-10-4l-1-5h-1v-1l4-2 1 1c-2 1-4 4-3 6 2 3 5 3 9 1 1 0 6-3 5-7-1-1-2-2-3-1l-2 1-1 2v1l-3-7v-1m-13-16l-1-13h4c-3 1-3 3-3 6 0 1 0 2 1 1h5c0-2-1-3-3-3v-1l7-1v1c-3 0-3 2-3 4l6-1 1-2c-1-2-1-4-5-5v-1l5 1 1 13h-1l-1-2-11 1c-2 0-2 1-1 2h-1"/><path d="M296 341l-5-5h2l7-7c1-1 0-1-1-2h1l4 4v1c-1-1-1-2-2-1l-6 7v3m-38-61c0-2-1-6 3-7 2-1 4 1 4 2l5-6v-1h1l1 5-5 6 4-1c2 0 2-1 1-2h1l2 7h-1c0-1 0-2-2-1l-10 2c-2 1-2 2-1 3h-1l-2-7h1l1 1 6-1c-1-3-2-4-4-3-3 0-3 1-3 3h-1"/><path d="M284 312l1 4h4l-3 2 1 3-3-2-3 2 1-3-3-2h4l1-4m44 44h-2l-1 3-5-2c-5-2-5-6-4-9 2-3 6-5 10-3l2 3 2-1v1l-2 3c0-2-1-4-3-5s-4 1-6 4c0 1-2 5 1 7 1 1 2 0 2-1l1-1c1-1 0-2-1-2v-1l6 3v1m10-4l1-1c3 1 5 5 4 8-2 4-5 6-9 5-4-2-5-5-4-9s5-5 9-4h-1c-2 0-4 2-5 5 0 2-2 6 1 7s5-3 6-5c0-2 1-6-2-7m11 9l-1 5v2c2 0 4-1 5-5 1-2 1-6-2-7l-1 1-1 4-3-1v-3c1-2 0-2-1-2l6 1c5 1 6 4 6 7-1 4-4 6-9 5l-5-1 2-1 1-6 3 1m32-2l-2 1-4 12-3-9-4 8h-1l-3-11-2-1v-1h6v1h-1a2 2 0 000 1l2 7 2-6v-2h-2v-1h6v1l-1 1v1l2 6 2-6v-1l-1-1h4m0-1l11-1v4c-1-3-2-3-5-3l-1 1v5c2 0 3-1 3-3l1 6c-1-2-2-3-4-3l1 5 1 1c2 0 4-1 5-4h1l-1 4-11 1 2-2-1-9-2-1v-1m28 8l-6 2 1-3-3-9c-1 0-3 1-2 4h-1l-1-4 11-3 1 4c-1-3-3-2-5-2l3 10 2 1m6-15c1-1 5-2 6 1 1 2-1 3-2 4l6 4h1l-4 2-6-4 1 3c1 2 1 2 2 1l1 1-6 2v-3l-3-7c0-2-1-2-2-1v-1l6-2v1l-1 1 2 4c2-1 3-1 2-4-1-2-2-2-3-1v-1m60-56l1 1 1-2 4 4h-6l1-2-1-1-1 2h-3v-2h-1l-3 7h1l4-1h13l-9-10c-2-1-2-2-2-3l-2 4c1-1 1-2 2-1l2 2-1 2m10-94l4 12-4 2v-1c2-1 3-2 2-6l-2-1-5 2c1 2 3 2 5 2l-7 3c1-1 3-2 2-5l-5 2c-2 1-1 1-1 3l-3-7v-1l2 2 11-4v-3h1m-6 31l-4-13h1c0 1 1 2 2 1l11-2 1-3 2 8c-1-1-1-2-3-2l-10 3-1 2c1 3 3 4 6 5l-5 1m-1 41l1-8h1l1 3 11 2 2-2-1 8h-1l-1-3-11-2-2 2m-60-123l1-1-2-1 4-4v6l-2-1-1 1 2 1v3h-2v1l7 3v-1l-1-4v-13l-10 9c-1 2-2 2-3 2l4 2c-1-1-2-1-1-2l2-2 2 1m-51-5l-8 2v-1c2 0 2 0 2-2l-1-5-5 1 1 5 2 1v1l-7 1v-1l1-1-1-11c-1-2-2-2-3-1v-1l8-1-2 2 1 5 5-1-1-5-2-1 8-2v1c-1 0-2 0-2 2l2 11 2 1m0-15h13v5c-1-3-3-4-6-4l-1 1v5c2 0 3 0 3-3h1v8h-1c0-3-1-4-3-4v6l2 1c2 0 4-1 6-4l-1 4h-13c2 0 2 0 2-2v-11l-2-1v-1m32 7c-1-1-1-4-4-5l-3 2c0 1 0 2 2 3l3 2c1 1 2 2 2 5-1 2-2 4-6 3l-4-1-1 1h-1l1-6h1c0 2 1 5 4 6 2 0 3-2 3-2 0-2-1-3-2-3l-1-1c-4-3-4-5-3-6 0-1 1-4 5-3l4 1v-1l1 1-1 4m11 14l-8-2v-1c2 1 2 1 3-1l3-11c-1-1-4-1-5 2h-1l2-4 13 4-2 4c0-4-2-5-3-5l-4 11c0 2 0 2 2 3m23 12l-7-4v-1h3l6-11c-1 0-3-1-5 1h-1l3-4 11 7-2 4h-1c2-4 0-5-1-6l-7 10c-1 2 0 2 1 3v1m12-10l10 8-3 3c2-3 1-4-2-6h-2l-3 4c2 1 3 1 5-1l1 1-5 6-1-1c2-2 1-3 0-5l-4 5 1 2c2 1 4 2 7 0v1l-3 3-10-9h3l6-8v-3m29 30l7 10-4 3v-1c2-1 2-3 0-6l-1-1-5 3c2 2 3 2 5 1v1l-6 4-1-1c2-1 3-2 2-5l-5 3v3l-5-7h1c1 1 1 2 2 1l10-6v-2m-222 68a123 123 0 11246 0 123 123 0 01-246 0h-6a129 129 0 10258 0 129 129 0 00-258 0h6m25 0a98 98 0 11196 0 98 98 0 01-196 0h-5a103 103 0 10206 0 103 103 0 00-206 0h5m25-76l-9 9v-3l-8-7h-3l5-6h1c-1 2-2 2 0 4l8 7 2-1c2-2 2-5 0-7h1l3 4m12-28l11-6 2 4c-2-2-3-3-7-1v2l2 4c2-1 2-2 1-4h1l3 6v1c-1-2-2-3-5-2l3 5h3v1l-7 3h-1c2-1 2-1 1-3l-5-9c0-2-1-1-2-1m33 2l-7 2c1-1 2-1 1-3l-3-11c-2 1-4 1-3 5h-1l-1-4 13-4 1 4h-1c-1-3-3-2-5-2l4 11c0 2 1 2 2 1v1m-42 4v-1c3-2 8-2 11 2s2 9-2 11c-4 3-8 2-11-1-3-4-2-9 2-12v1c-2 2-1 6 1 8 1 2 4 6 8 4 3-2 0-7-1-8-2-3-5-6-8-4m162 22l1-1c3 4 3 8-1 11s-9 3-11-1-3-8 1-11 8-2 11 1v1c-2-3-6-1-9 1-1 1-5 5-3 8 3 3 7-1 8-2 3-2 5-5 4-7m26 65h1c1 4-2 8-7 8-5 1-8-2-9-7 0-4 3-8 7-8 5-1 9 2 9 7h-1c0-3-4-4-7-3-2 0-7 0-7 4s6 4 8 3c3 0 7-1 6-4m-9 41l-7-2-1 1c-1 3 0 5 5 6 2 1 7 2 8-2l-1-1-4-2 1-3 4 1 2-1-2 6c-1 6-6 7-9 6-4-1-7-4-5-10l2-7v1l1 2 7 2-1 3m10-24c0 2 0 6-4 6-3 0-4-2-4-4l-7 5h-1l1-4 7-4v-1h-4c-2 0-2 0-3 2v-8h1c0 1 0 2 2 2l10 1c2 0 2-1 2-2h1l-1 7h-1l-1-2h-5c0 3 0 4 3 4 2 0 3 0 3-2h1m-63 86v2l3 5v4l-2 3-4 1-3-3-3-5c-1-2-1-2-2-1v-1l5-3v1 2l3 6c0 1 1 3 4 2 3-2 1-4 1-5l-3-6h-2l-1-1 4-2v1m9-3c-1-1-3-2-5 0v2l3 1h3c0-1 2-1 3 1s2 4-1 6l-3 1v1l-1 1-3-4 1-1c1 2 3 3 5 2 2-2 1-3 1-4h-4c-4 1-5-1-5-1-1-1-2-4 1-6l3-1v-1l3 3h-1m15 0l-5 4v-3l-7-7c0 1-2 2 0 5h-1l-2-3 9-7 2 2v1c-3-2-4-1-5 0l6 7c1 2 2 1 3 0v1m10-27l1 4h4l-3 2 1 3-3-2-3 2 1-3-3-2h4l1-4"/></g><path d="M377 151c4 0 2-5-1-3-2 1-1 3 1 3zm6 0c4 1 2-5-1-3-2 1-1 4 1 3zm6 1c4 1 3-5-1-3-2 1-1 3 1 3zm6 1c4 1 3-5-1-3-2 0-1 3 1 3zm6 2c4 1 3-5-1-4-2 1-1 3 1 4zm6 1c3 2 3-4-1-3-2 0-1 3 1 3zm5 2c4 2 4-4 0-3-2 0-2 3 0 3zm6 3c3 2 3-4 0-4s-2 3 0 4zm5 3c4 2 4-4 0-4-2 0-2 3 0 4zm5 3c4 2 4-4 1-4s-3 3-1 4zm5 3c3 2 4-3 1-3-3-1-3 2-1 3zm5 4c3 2 4-3 1-4-3 0-3 3-1 4zm4 4c3 2 5-3 1-4-2 0-2 3-1 4zm5 4c2 3 4-3 1-3-2-1-3 2-1 3zm3 4c3 3 5-2 2-3-2-1-3 2-2 3zm4 5c3 3 5-2 2-3-2-1-3 2-2 3zm4 5c2 3 5-2 1-3-2-1-3 1-1 3zm3 5c2 3 5-1 2-3-2-1-3 1-2 3zm3 5c1 4 5-1 2-3-2-1-4 2-2 3zm2 6c2 3 5-1 2-3-1-1-3 1-2 3zm2 5c1 4 6 0 3-2-2-2-4 0-3 2zm2 6c1 4 5 0 3-2s-4 0-3 2zm1 6c1 4 6 0 3-2-1-2-3 0-3 2zm2 5c0 4 5 1 2-1-1-2-3 0-2 1zm0 6c1 4 6 1 3-1-1-2-3 0-3 1zm1 6c0 4 5 2 3-1-1-2-4-1-3 1zm0 6c0 4 5 2 3-1-1-2-4-1-3 1zm-1 6c0 4 5 2 4-1-1-2-4-1-4 1zm0 6c-1 4 5 2 3-1-1-2-3-1-3 1zm-1 6c-1 4 4 3 3-1-1-2-3-1-3 1zm-2 6c-1 4 5 3 4-1-1-2-3-1-4 1zm-1 6c-2 3 4 3 3-1 0-2-3-1-3 1zm-2 5c-2 4 4 3 3 0 0-2-3-2-3 0zm-3 6c-2 3 4 3 4 0s-3-2-4 0zm-3 5c-2 3 4 4 4 0 0-2-3-2-4 0zm-3 5c-2 3 4 4 4 1s-3-3-4-1zm-3 5c-2 3 3 4 3 1 1-3-2-3-3-1zm-4 5c-2 3 3 4 4 1 0-3-3-3-4-1zm-4 4c-2 3 3 5 4 1 0-2-3-2-4-1zm-4 4c-3 3 3 5 3 2 1-2-2-3-3-2zm-4 4c-3 3 2 5 3 2 1-2-2-3-3-2zm-5 4c-3 3 2 5 3 2 1-2-2-3-3-2zm-5 4c-3 2 2 5 3 1 1-2-1-3-3-1zm-5 3c-3 2 1 5 3 2 1-2-1-4-3-2zm-5 3c-4 1 1 5 3 2 1-2-2-4-3-2zm-6 2c-3 2 1 5 3 2 2-1-1-3-3-2zm-5 2c-4 1 0 5 2 3s0-4-2-3zm-6 2c-4 1 0 5 2 3s0-4-2-3zm-6 1c-4 1 0 6 3 3 1-1-1-3-3-3zm-5 2c-4 0-1 5 1 2 2-1 0-3-1-2zm-6 0c-4 1-1 6 1 3 2-1 0-3-1-3zm-6 1c-4 0-2 5 1 3 2-1 1-4-1-3zm-6 0c-4 0-2 5 1 3 2-1 1-3-1-3zm-6 0c-4-1-2 4 1 3 2-1 1-4-1-3zm-6-1c-4-1-2 5 1 3 2-1 1-3-1-3zm-6-1c-4-1-3 5 1 3 2 0 1-3-1-3zm-6-2c-4-1-3 5 1 4 2-1 1-3-1-4zm-5-1c-4-2-4 4 0 3 2 0 1-3 0-3zm-6-2c-4-2-3 4 0 3 2 0 2-3 0-3zm-6-3c-3-2-3 4 0 4s2-3 0-4zm-5-2c-3-2-4 3 0 3 2 0 2-3 0-3zm-5-4c-3-2-4 4 0 4 2 0 2-3 0-4zm-5-3c-3-2-4 3-1 3 3 1 3-2 1-3zm-5-3c-3-3-4 2-1 3 3 0 3-3 1-3zm-4-4c-3-3-5 2-1 3 2 1 2-2 1-3zm-4-5c-3-3-5 3-2 4 2 0 3-2 2-4zm-4-4c-3-3-5 2-2 3 2 1 3-2 2-3zm-4-5c-3-3-5 2-2 3 2 1 3-1 2-3zm-4-5c-2-3-5 2-1 3 2 2 3-1 1-3zm-3-5c-2-3-5 2-2 3 2 1 3-1 2-3zm-3-5c-1-3-5 1-2 3 2 1 4-1 2-3zm-2-5c-2-4-5 0-2 2 1 2 3-1 2-2zm-2-6c-2-4-6 0-3 3 2 1 4-1 3-3zm-2-5c-1-4-5-1-3 2 2 1 4-1 3-2zm-2-6c0-4-5-1-2 2 1 2 3-1 2-2zm-1-6c0-4-5-1-2 2 1 2 3 0 2-2zm0-6c-1-4-6-1-3 2 1 2 3 0 3-2zm-1-6c0-4-5-1-3 2 1 2 4 0 3-2zm0-6c0-4-5-2-3 1 1 3 3 1 3-1zm0-6c1-4-5-2-3 1 1 2 4 1 3-1zm1-6c1-4-5-2-3 1 0 2 3 1 3-1zm1-6c1-4-5-2-3 1 0 2 3 1 3-1zm1-6c1-3-4-2-3 1 0 2 3 1 3-1zm2-5c1-4-4-3-3 0 0 2 3 2 3 0zm2-6c2-4-4-3-3 0 0 3 3 2 3 0zm3-5c1-4-4-4-4 0 0 2 3 2 4 0zm2-6c2-3-3-3-3 0 0 2 3 2 3 0zm3-5c2-3-3-4-3 0 0 2 3 2 3 0zm4-5c2-3-4-4-4 0 0 2 3 2 4 0zm3-4c3-4-3-5-3-1-1 2 2 2 3 1zm4-5c3-3-3-5-3-1-1 2 2 3 3 1zm4-4c3-3-2-5-3-1-1 2 2 2 3 1zm5-4c3-3-2-5-3-2-1 2 2 3 3 2zm4-4c4-2-1-5-3-2-1 3 2 3 3 2zm5-3c4-3-1-5-3-2-1 2 2 3 3 2zm5-3c4-3-1-6-2-2-2 1 1 3 2 2zm6-3c3-2-1-6-3-2-2 1 1 3 3 2zm5-3c4-1-1-5-3-2-1 2 1 3 3 2zm5-2c4-1 0-5-2-2-2 1 1 3 2 2zm6-2c4-1 0-5-2-2-2 1 0 3 2 2zm6-1c4-1 0-6-2-3-2 1 0 3 2 3zm6-2c4 0 0-5-2-2-2 1 0 3 2 2zm6 0c4-1 1-6-2-3-2 1 0 3 2 3zm6-1c4 0 1-5-2-3-2 1 0 4 2 3zm7-25c5 0 2-7-2-4-3 1-1 4 2 4zm8 0c5 1 2-6-2-4-3 1-1 4 2 4zm7 1c5 1 3-6-1-4-3 1-1 4 1 4zm7 1c5 2 4-5-1-4-2 1-1 4 1 4zm8 2c5 2 3-6-1-4-3 0-2 4 1 4zm7 2c5 2 4-5-1-4-2 0-1 4 1 4zm7 3c5 2 4-5 0-4-3 0-2 3 0 4zm7 3c4 2 4-5 0-4-3 0-3 3 0 4zm6 3c5 3 5-4 1-4-3 0-3 4-1 4zm7 4c4 3 5-4 0-4-2 0-2 3 0 4zm6 5c4 3 5-5 1-5-3 0-3 3-1 5zm6 4c4 3 6-4 1-4-3-1-3 3-1 4zm6 5c3 4 5-3 1-4-3-1-3 3-1 4zm5 5c3 4 6-3 1-4-2-1-3 3-1 4zm5 6c3 4 6-3 2-4-3-1-4 2-2 4zm5 6c3 4 6-2 2-4-3-1-4 2-2 4zm4 6c3 4 6-2 2-4-2-1-4 2-2 4zm4 6c2 5 6-1 2-3-2-2-4 2-2 3zm3 7c3 5 7-1 3-3-2-2-4 1-3 3zm3 7c2 4 7-1 3-3-2-2-4 1-3 3zm3 7c2 5 7-1 3-3-2-2-4 1-3 3zm2 7c2 5 7 0 4-3-2-2-5 1-4 3zm2 7c1 5 7 1 4-2-2-3-5 0-4 2zm2 8c0 5 6 0 3-3-1-2-4 0-3 3zm1 7c0 5 6 1 3-2-1-3-4 0-3 2zm0 7c0 6 7 2 4-1-1-3-4-1-4 1zm0 8c0 5 6 2 4-2-1-2-4 0-4 2zm0 7c-1 6 6 3 4-1-1-3-4-1-4 1zm-1 8c-1 5 6 3 4-1-1-3-4-1-4 1zm-1 7c-2 5 5 3 4-1-1-2-4-1-4 1zm-2 8c-2 4 6 3 4-1 0-3-4-2-4 1zm-2 7c-2 5 5 4 4-1 0-3-4-2-4 1zm-3 7c-2 4 5 4 4 0 0-3-3-3-4 0zm-3 7c-2 4 5 4 4 0 0-3-3-3-4 0zm-3 6c-3 5 4 5 4 1 0-3-4-3-4-1zm-4 7c-3 4 4 5 4 0 0-3-3-2-4 0zm-4 6c-3 4 4 5 4 1 0-3-3-3-4-1zm-5 6c-3 4 4 5 4 1 1-3-3-3-4-1zm-5 6c-3 3 3 5 4 1 1-3-3-3-4-1zm-5 5c-4 3 3 6 4 1 1-2-3-3-4-1zm-6 5c-4 3 3 6 4 2 1-3-2-4-4-2zm-6 5c-4 3 3 6 4 2 1-3-2-4-4-2zm-6 4c-4 3 2 6 4 2 1-2-2-4-4-2zm-6 4c-5 2 1 6 3 2 2-2-1-4-3-2zm-7 3c-4 3 1 7 4 3 1-2-2-4-4-3zm-7 3c-4 2 1 7 4 3 1-2-2-4-4-3zm-7 3c-4 2 1 7 3 3 2-2-1-4-3-3zm-7 2c-5 2 0 7 3 4 2-2-1-5-3-4zm-7 2c-5 1 0 7 3 4 2-2-1-5-3-4zm-7 2c-5 0-1 6 2 3 2-1 0-4-2-3zm-8 1c-5 0-1 6 2 3 3-1 0-4-2-3zm-7 0c-5 0-2 7 2 4 2-1 0-4-2-4zm-8 0c-5 0-2 7 2 4 3-1 1-4-2-4zm-7 0c-5-1-3 6 1 4 3-1 1-4-1-4zm-8-1c-5-1-3 6 2 4 2-1 1-4-2-4zm-7-1c-5-1-3 6 1 4 3-1 1-4-1-4zm-7-2c-5-1-4 6 0 4 3 0 2-4 0-4zm-8-2c-4-2-3 5 1 4 3 0 2-4-1-4zm-7-3c-4-2-4 5 1 4 3 0 2-3-1-4zm-6-3c-5-2-5 5 0 4 2 0 2-3 0-4zm-7-3c-5-3-5 4 0 4 2 0 2-3 0-4zm-7-4c-4-3-5 4 0 4 3 1 3-3 0-4zm-6-4c-4-3-5 4-1 4 3 0 3-3 1-4zm-6-5c-4-3-5 4-1 4 3 1 3-3 1-4zm-5-5c-4-3-6 4-2 4 3 1 4-2 2-4zm-6-5c-3-4-6 3-1 4 2 1 3-3 1-4zm-5-6c-3-3-6 3-2 4 3 2 4-2 2-4zm-4-5c-3-4-7 2-2 3 2 2 3-2 2-3zm-5-6c-2-5-6 1-2 3 3 2 4-2 2-3zm-4-7c-2-4-6 2-2 4 2 1 4-2 2-4zm-3-6c-1-2-2-3-3-2-2 0-2 2-1 4 1 1 2 2 3 1 1 0 2-2 1-3m-3-7c-1-2-2-3-4-2v4c0 1 2 2 3 1l1-3m-3-7c-1-2-2-3-3-2-1 0-2 2-1 3 1 2 2 3 3 2 1 0 2-2 1-3m-2-7l-3-3c-1 1-2 2-1 4l2 2c2 0 2-2 2-3m-2-8l-3-2c-1 0-2 2-1 3 0 2 1 3 2 3 2-1 2-2 2-4m-2-7c0-2-1-3-2-2-1 0-2 1-2 3s2 3 3 2c1 0 2-1 1-3m-1-7c0-2-1-3-2-3l-2 3c0 1 1 3 3 3 1 0 2-2 1-3m0-8c0-1-1-3-3-3-1 0-2 2-1 3 0 2 1 3 2 3s2-1 2-3m0-7c0-2-1-3-2-3-2 0-3 1-3 3 0 1 1 3 3 3l2-3m0-8l-2-3c-1 0-2 1-2 3s1 3 2 3 2-1 2-3m1-7c0-2-1-3-2-3-1-1-2 1-2 2-1 2 0 3 1 3 2 1 3-1 3-2m1-8l-1-3c-2 0-3 1-3 3 0 1 0 3 2 3 1 0 2-1 2-3m2-7l-1-3c-2-1-3 0-3 2-1 2 0 3 1 3 1 1 3 0 3-2m2-7c1-2 0-3-1-4-1 0-3 1-3 3-1 1 0 3 1 3l3-2m3-7l-1-4-3 2c-1 2-1 3 1 4l3-2m3-7l-1-4-3 2v4l4-2m3-7c3-4-5-5-4 0 0 3 3 2 4 0zm4-6c3-4-5-5-4-1-1 3 3 3 4 1zm4-6c3-5-4-6-4-1-1 3 3 3 4 1zm5-6c3-4-4-6-5-1 0 2 3 3 5 1zm4-6c4-4-3-6-4-1 0 2 3 3 4 1zm6-5c3-4-3-6-4-2-1 3 2 4 4 2zm5-5c4-4-2-7-4-2-1 2 3 3 4 2zm6-5c4-3-2-6-4-2-1 2 2 4 4 2zm6-4c5-3-2-7-3-3-2 3 2 4 3 3zm7-4c4-3-2-7-4-3-2 3 2 4 4 3zm6-4c5-2-1-7-3-3-2 3 1 4 3 3zm7-3c5-2-1-7-3-3-2 2 1 4 3 3zm7-3c5-1 0-7-3-3-2 2 1 4 3 3zm7-2c5-2 0-7-3-3-2 2 1 4 3 3zm7-2c5-1 1-7-2-3-3 1 0 4 2 3zm8-1c5-1 1-7-3-4-2 2 0 4 3 4zm7-1c5-1 1-7-2-4-3 1 0 4 2 4zm8-1c5 0 2-6-2-4-3 2 0 4 2 4z" fill="#ffb900"/><defs><path id="B" d="M315 209c0 1 0-1 0 0z"/></defs></svg>