<svg xmlns="http://www.w3.org/2000/svg" xmlns:xlink="http://www.w3.org/1999/xlink" height="459.7" width="777.7"><style>.B{fill:none}.C{fill:#fff}.D{stroke:#fff}.E{stroke:#3f863f}.F{stroke-width:1.01}.G{stroke:#000}.H{stroke-width:.816}.I{stroke-width:.908}.J{fill:#785a3c}.K{fill:#3f863f}.L{stroke-width:1.061}.M{stroke-width:.735}.N{stroke:#3c3c9e}.O{fill-rule:evenodd}.P{fill:#ffb30f}.Q{stroke-width:1.133}.R{fill:#be0a2f}.S{fill:#d2b78c}.T{stroke-width:1.776}.U{stroke-width:1.296}.V{stroke-width:.949}.W{stroke-width:.248}.X{stroke-width:1.051}.Y{stroke-width:1.419}</style><g transform="matrix(1.00495 0 0 1.00808 -1 -2)"><path d="M1 2h774v456H1z" class="C"/><path d="M288 413v-1h4l1-2v-17l-1-2h-4v-1h15v1h-4l-2 2v17l2 2h4v1h-15m16 0v-1h3c2 0 2-1 2-2v-17c0-1 0-2-2-2h-3v-1h14v1h-3l-2 2v19h8c5 0 7-2 7-8h2v9h-26m28 0v-1h3l2-2v-17l-2-2h-3v-1h14v1h-3c-2 0-2 1-2 2v19h8c5 0 6-2 6-8h3v9h-26m28 0v-1h3l2-2v-17l-2-2h-3v-1h14v1h-3c-2 0-2 1-2 2v17c0 1 0 2 2 2h3v1h-14m23-20v17l2 2h3v1h-12v-1h3l2-2v-17l-2-2h-3v-1h10l15 19v-16c0-1 0-2-2-2h-3v-1h13v1h-3c-2 0-2 1-2 2v21h-4l-17-21m57 9c0 6-4 12-15 12s-14-6-14-12c0-7 4-13 14-13s15 6 15 13zm-25 0c0 5 3 10 10 10 8 0 11-5 11-10 0-6-3-11-11-11-7 0-10 5-10 11m28 11v-1h3l2-2v-17l-2-2h-3v-1h14v1h-3c-2 0-2 1-2 2v17c0 1 0 2 2 2h3v1h-14m38-14h-3c0-6-5-8-9-8-5 0-6 2-6 4 0 7 19 2 19 12 0 5-5 7-11 7l-9-3-1 3h-2v-10h2c1 4 5 8 10 8 4 0 7-1 7-4 0-8-19-2-19-12 0-4 3-7 10-7 4 0 6 1 8 3l2-3h2v10" fill="#002768"/><path d="M396 226l33-25-38-27 5 52z" class="J O"/><path d="M444 277s11 21 15 21l18 1h29c4-1 12 0 16 1 7-6 15-23 15-23h-93" fill="#64b4ff"/><path d="M460 298l18 2c4 0 10-2 16-1h13c4-1 11 1 15 1" class="B N V"/><path d="M365 266l2-8 2-3 15 2 23 5 31 35 20 1-78 21-11-6-16-15 23-18-11-14z" fill="#b4b4b4" class="O"/><path d="M362 141h14v26h-14z" class="J"/><path d="M-2192 5110"/><g fill="#ffe60f" class="D W"><path d="M455 276l71 1-52-24-19 23z" class="O"/><path d="M476 267l-13-7h-5s0 2 2 3l15 6m2-4l-12-7-5-1s1 3 3 3l13 7m47 9l9-1 5-5-6-2-20 6 22-6 4-5h-4l-23 8 25-9 4-5h-4l-17 8 16-7 8-9-7 1-26 17 29-18c2-1 5-7 5-7l-6 1-29 22 31-24c2-1 4-7 4-7l-6 1-31 28 34-31 5-9s-5 1-6 3l-34 37 38-43c2-1 3-7 3-7l-6 4-36 44 35-43 3-8s-5 2-6 4l-33 46 26-37 1-5-3 2-25 40 27-43 1-5-4 2-25 45 28-49v-6l-4 2-25 53 27-58c2-3 2-8 2-8l-4 3c-2 1-26 62-26 62l27-67 1-7s-5 4-6 7l-16 46 16-46v-5s-4 3-5 6l-11 40 9-31-1-6-3 6-12 51 11-47c1-3-2-7-2-7l-2 4-7 45 7-47-2-7-3 3-5 61 6-65-2-7-2 3-2 49 2-53c0-3-2-5-2-5l-1 4-1 74 1-77-4-7-2 7 4 77-4-70c0-3-4-6-4-6l-1 9 6 48-5-41-5-7 1 11 10 56-10-54c0-3-3-5-3-5v10l-3-5v7l14 48-16-53-5-7 1 7 16 43-18-49-6-7v5l26 61-26-59c-1-4-7-7-7-7l2 10 30 57-28-52c-1-2-6-4-6-4l3 8 26 41-24-38-7-4 5 10 30 39-30-38c-1-2-6-3-6-3l5 9 28 33-26-30c-2-3-6-3-6-3l6 10 25 25m-5 9l-21-4h-11l12 5 19 1"/></g><g class="G"><path d="M423 206l15 20v6c-2 1-4-1-5-3l-16-21 13 18c1 2 2 4 1 5s-3 0-4-1a839 839 0 01-2-1c1 1 2 4 0 5-1 1-3 0-5-2l-12-13 9 10c2 3 3 6 1 7s-4-1-5-3l-10-10 10 10" class="P Q"/><path d="M286 145c0-2 1-1-1-3 4 2 7-1 11 2l2 5c-1 1-9-2-12-4z" class="F R"/></g><path d="M250 286l8 12c-4 2-16-1-20 0l-10-12h22z" fill="#64b4ff"/><path d="M257 298c-4 2-14-1-18 1m9-13h-20" class="B G V"/><use xlink:href="#B" class="C"/><g class="B F"><use xlink:href="#B" class="E"/><path d="M266 305l2 8" class="D"/></g><path d="M269 274c0 4 0 9 2 14-3-3-10-8-18-10-4-3-8-17-6-21 7-1 21 11 22 17" class="K"/><path d="M269 274c0 4 0 9 2 14-3-3-10-8-18-10-4-3-8-17-6-21 7-1 21 11 22 17z" class="B F G"/><path d="M283 301c-7-4-13-6-27-5 2 8 24 18 28 17-1-1-2-11-1-12" class="K"/><path d="M283 301c-7-4-13-6-27-5 2 8 24 18 28 17-1-1-2-11-1-12z" class="B F G"/><path d="M283 301c-19-9-14-36-11-39 10 5 10 17 12 20l-1 19" class="K"/><path d="M283 301c-19-9-14-36-11-39 10 5 10 17 12 20l-1 19z" class="B F G"/><path d="M279 299c-4-3-7-7-8-11-6-5-14-10-25-11 0 9 7 17 12 19 7 0 14-1 21 3" class="K"/><path d="M279 299c-4-3-7-7-8-11-6-5-14-10-25-11 0 9 7 17 12 19 7 0 14-1 21 3z" class="B F G"/><use xlink:href="#C" class="C"/><g class="B H"><use xlink:href="#C" class="E"/><path d="M288 337l1 6" class="D"/></g><path d="M355 245c2 7 16 26 35 26-1 5-28 61-101 65-21-69 17-113 30-117 4 18 29 26 36 26" class="P"/><path d="M353 248c2 6 9 35 20 44-4 5-33 38-81 39-15-47 4-81 11-92 15 11 43 9 50 9" class="C"/><path d="M355 245c2 7 16 26 35 26-1 5-28 61-101 65-21-69 17-113 30-117 4 18 29 26 36 26z" stroke-width="1.2" class="B G"/><path d="M317 224c8 16 28 22 36 24 2 12 27 27 32 26 0 7-13 21-18 25l-69-51c2-6 15-24 19-24" fill="#002768"/><g class="C"><path d="M370 282l2-2-1 3 2 1h-2l-1 3-1-3h-3l3-1-1-3 2 2m-14-10l3-2-1 3 2 1h-2l-1 3-1-3h-3l2-1-1-3 3 2m-12 1l2-2-1 3 2 1h-2l-1 3-1-3h-2l2-1-1-3 2 2m-30-22l2-2-1 3 2 1h-2l-1 3-1-3h-3l2-1-1-3 3 2M342 261l2-1-1 2 2 2h-2l-1 2-1-2h-3l3-2-1-2 2 1m-3-11l2-2-1 3 2 1h-2l-1 3-1-3h-3l2-1-1-3 3 2m-13 0l2-1v2l2 2-3-1v3l-1-3h-3l2-1-1-3 2 2m-3-11l3-1-1 2 2 2-2-1-1 3-1-3h-3l2-1-1-3 2 2m-11 1l2-2v3l2 1h-3v3l-1-3h-3l2-1-1-3 2 2m55 31l2-2v3l2 1h-3l-1 3-1-3h-2l2-1-1-3 2 2M354 261l2-2-1 3 2 1h-2l-1 3-1-3h-3l2-1v-3l2 2m4 22l3-2-1 3 2 1h-3v3l-1-3h-3l2-1-1-3 2 2m-28-21l2-2-1 3 2 1h-2l-1 3-1-3h-2l2-1-1-3 2 2"/><use xlink:href="#D"/></g><g class="B F"><use xlink:href="#D" class="E"/><path d="M365 349l-2 9" class="D"/></g><use xlink:href="#E" class="C"/><g class="B F"><use xlink:href="#E" class="E"/><use xlink:href="#F" class="D"/></g><use xlink:href="#G" class="C"/><g class="B F"><use xlink:href="#G" class="E"/><path d="M271 314l-1 9" class="D"/></g><use xlink:href="#H" class="C"/><g class="B F"><use xlink:href="#H" class="E"/><path d="M331 346l-2 9" class="D"/></g><path d="M403 260c3 0 4 2 3 4-1-2-3-2-3-2v-2"/><path d="M390 245c1 3-4 7-1 11s6 2 9 2c1 0 6 0 5 3 0 3-5 2-10 0-1 0-5-2-7 0-2 1-3 2-3 5-1 3-3 5-5 3-3-1-2-3 0-4 1-2 2-4 1-6s-3-2-5-1c-3 1-5-2-3-4h6c1 2 5 3 6 2 2 0 2-11 2-13 2-1 4 0 5 2" class="P"/><g class="G L"><path d="M428 200" class="J"/><path d="M428 200c14 17 28 49 29 54 0 6-4 3-5 2 0 3-4 2-6 0-1 4-5 3-8 0 1 3-4 3-6 0 0 2-4 1-5-1 0 1 0 3-3 1-4-6-29-32-28-31" class="S"/><g class="J"><path d="M428 200c-2 1-6-1-7-2a977 977 0 00-1 0c3 2 4 8 2 10-2 1-3 0-5-1-2 0-9-6-13-9l12 9c1 1 6 8 3 10-2 1-6 1-9-1l-6-4m-52-3c-3 0-4 17 3 22 1-2 3-2 4 0l1 3c0 2 3 3 6 4 5 0 10-4 10-10-1-5-5-7-7-10-5-4-13-8-17-9z"/><path d="M396 225c5 4 6 12 6 14s1 8-3 9-7-1-9-2l-2-3h-3l-4-1c-2-4-3-16-10-22-5-4-6-6-20-12-27-12-44-44-46-46-2-3-6-7-9-8-12-3-12-9-13-12 3 5 16 9 15 6-1-2-2-5-7-8s-5-8-7-9l-7-1c6-11 20-4 20-4l9 9c2 2 3 4 14 7l27 5c1-2 1-17-1-21s-6-6-7-14l-7-22c-3-7 2-13 11-13 26-3 39 13 41 15"/></g></g><path d="M305 160l6 10 5 7v-8l7 1-2-8 8 1-4-6 8 1-5-7 8 2-5-7 9 1-13-3-8-1-14 17z" class="O S"/><path d="M305 162c-2-3-6-7-9-8-12-3-12-9-13-12 3 5 16 9 15 6 0-2-2-5-7-8s-5-8-7-9l-7-1c6-11 20-4 20-4l9 9c2 2 3 4 14 7" class="C G L"/><path d="M297 127s-1 7 1 11l4 9c0 5-2 7-5 7-13-3-12-8-14-12 3 6 15 9 16 7 0-1-2-6-7-9s-5-6-6-8c-2-2-4-2-8-2 7-11 19-3 19-3z" fill="#ffb316"/><path d="M360 233c0 2-5 3-2 7l5 4c2 1 7 0 6 3-1 4-5 3-7 0-1-1-3-4-6-3s-3 1-4 4c-1 2-2 4-5 3-2-2 0-3 1-5 2-1 2-2 2-3 0-2-3-2-6-1-2 0-4-2-3-4h6c2 1 5 3 7 2l1-9c1-2 5 0 5 2" class="P"/><path d="M360 233c0 2-5 3-2 7l5 4c2 1 7 0 6 3-1 4-5 3-7 0-1-1-3-4-6-3s-3 1-4 4c-1 2-2 4-5 3-2-2 0-3 1-5 2-1 2-2 2-3 0-2-3-2-6-1-2 0-4-2-3-4h6c2 1 5 3 7 2l1-9c1-2 5 0 5 2z" class="B G L"/><path d="M506 276c0-7-6-12-13-12a13 13 0 00-13 12h26" fill="#ffb316"/><g class="C"><path d="M297 126c14-4 19 12 30 12-3 3-8 3-14 2-6-2-16-14-16-14z" class="G L"/><path d="M304 139c2 2 8 0 8 0-5-2-10-7-10-7-1 5 0 6 2 7"/><path d="M304 139c2 2 8 0 8 0-5-2-10-7-10-7-1 5 0 6 2 7z" class="G H"/></g><path d="M305 138h4l-5-4c-1 1 0 3 1 4"/><path d="M367 160c5-8 3-18 3-21l-5-10c-5-8-7-15-5-21 2-7 16-11 21-14s7-6 15-10c13-6 24-3 44 0s56 19 65 25 3 9 0 8c6 2 8 7 8 10s-2 3-12 0c6 4 4 7-1 7-7-1-19-5-22-7 2 3 2 6 1 7-5 2-9 0-17-2 4 11-8 8-12 6 1 8-7 8-11 5l16 22c1 4 4 13-7 2l-7-8 8 9c8 10 8 12 6 14-3 0-7-3-22-20 19 23 9 21 8 20l-14-12-1-1v1c1 2 2 4 0 6h-4l-13-9 13 9c3 3 5 7 3 9-1 2-4 2-6 0l-12-9 15 11c3 3 8 10 7 12l-1 1" class="G J L"/><path d="M365 121c-2-3-1-8-1-10 2-6 15-10 20-13 6-3 7-6 16-10 13-6 23-4 44-1a167 167 0 01-1 0c-14-2-28-6-43 1l-15 10c-4 2-18 8-20 14v6c1 2 0 3-1 3m6 134c-2-1-3 2-3 3 1-2 3-1 4-1l-1-2m-1-8c2 0 3 3 2 4 0-2-2-2-3-2l1-2m-28-8c-2 0-3 2-3 4 1-3 3-2 4-2l-1-2"/><use xlink:href="#I"/><g class="G"><path d="M406 262c4-1 20-2 25 7h-2c2 0 12-3 17 10l-3-1s10-1 16 19c1 4-13-1-21 1m21 0c3 1 4 7 5 8 2 2 6 4 5 7 0 3-4 7-8 7-4 1-15-1-20-1-4 0-16 4-23 4s-13-3-19-3-16 1-19-1m-6-4c0-3-1-12 9-15l6-2 6-1c1 1 3 4 8 5m3-26c-1 0-3-3-7-3-5 1-12 5-13 11s-1 9 3 14" fill="#b4b4b4" class="L"/><path d="M517 288h5" class="B X"/></g><path d="M455 282h8m25 7c1 0 5-1 8 1m13-8c2 0 5-1 8 1" class="B N T"/><g class="G B"><path d="M498 286h6" class="U"/><path d="M498 281h5" class="Q"/><path d="M491 282h4"/><path d="M481 281h4" class="I"/></g><path d="M479 284h8" class="B N T"/><g class="G B"><path d="M470 281h5"/><path d="M474 288h6" stroke-width="1.4"/><path d="M462 286l4 1" stroke-width=".9"/></g><path d="M464 284h8" class="B N T"/><path d="M463 290l6 1" class="B G U"/><path d="M503 295c1 0 5-1 8 1m4-3h8m-18-3h8m-2-4h8m-45 6h8m-21 3h8" class="N T B"/><g class="G B"><path d="M474 296h5" class="Q"/><path d="M523 281h4" class="X"/><path d="M500 286h2" stroke-width=".6"/><path d="M492 293h6" class="U"/><path d="M458 281h3" stroke-width=".8"/></g><path d="M480 262l-20-21c-3-2-7-2-7-2s0 5 2 6l24 18m0 0l-14-10c-2-2-6-1-6-1l5 6 13 7m-2 4l-17-7h-12l8 5 21 4m-1 2l-21-2-8 3 8 2 21-1" fill="#ffe60f" class="D W"/><path d="M356 338c-3 4-14 15-32 7 3-4 5-4 7-4 6 0 14-2 18-6 2 2 6 3 7 3" class="C"/><g class="K"><path d="M356 338c-3 4-14 15-32 7 3-4 5-4 7-4 6 0 14-2 18-6 2 2 6 3 7 3z" class="F G"/><path d="M356 327c-6-3-12-3-17-5-1 11 17 16 18 17l9-2c-2-1-8-4-10-10"/></g><path d="M356 327c-6-3-12-3-17-5-1 11 17 16 18 17l9-2c-2-1-8-4-10-10z" class="B F G"/><path d="M391 338h11c3 2 7 7 3 10-3 3-6-2-7-2-1-1-6-5-23-2-8 1-8 6-17 8h-14l8-10c3-4 11-5 14-5-4-2-13-6-13-21 6 1 13 2 21 18-3-6-9-13-11-14-1-1 0-10 1-12l10 10c5 4 4 11 6 14 3 4 8 6 11 6" class="K"/><g class="R"><path d="M360 299l4 3-12 9 8-12m-64-47a1122 1122 0 016 4l-13 18 7-22M306 259l7 5-26 36v-15l19-26m11 8l6 5-34 48-2-12 30-41m22 16l6 5-28 40-12 3 34-48m-11-8l6 5-36 51h-5l-2-4 37-52m22 16l6 5-15 22-16 7 25-34"/></g><path d="M391 338h11c3 2 7 7 3 10-3 3-6-2-7-2-1-1-6-5-23-2-8 1-8 6-17 8h-14l8-10c3-4 11-5 14-5-4-2-13-6-13-21 6 1 13 2 21 18-3-6-9-13-11-14-1-1 0-10 1-12l10 10c5 4 4 11 6 14 3 4 8 6 11 6z" class="B F G"/><path d="M349 335c-2 2-13 9-26 4 7-9 11-9 19-9l7 5" class="K"/><path d="M349 335c-2 2-13 9-26 4 7-9 11-9 19-9l7 5z" class="B F G"/><path d="M284 313c-1-1-11 1-12 3 0 4 11 10 14 9l-2-12" class="K"/><path d="M284 313c-1-1-11 1-12 3 0 4 11 10 14 9l-2-12z" class="B F G"/><use xlink:href="#J" class="C"/><g class="B F"><use xlink:href="#J" class="E"/><use xlink:href="#K" class="D"/></g><use xlink:href="#L" class="C"/><g class="B I"><use xlink:href="#L" class="E"/><path d="M344 353l2 7" class="D"/></g><use xlink:href="#M" class="C"/><g class="B F"><use xlink:href="#M" class="E"/><path d="M351 355l-2 9" class="D"/></g><use xlink:href="#N" class="C"/><g class="B F"><use xlink:href="#N" class="E"/><path d="M359 352l2 9" class="D"/></g><use xlink:href="#O" class="C"/><g class="B F"><use xlink:href="#O" class="E"/><use xlink:href="#P" class="D"/></g><use xlink:href="#Q" class="C"/><g class="B I"><use xlink:href="#Q" class="E"/><path d="M385 347l2 8" class="D"/></g><use xlink:href="#R" class="C"/><g class="B F"><use xlink:href="#R" class="E"/><use xlink:href="#K" x="-58.7" y="7.2" class="D"/></g><use xlink:href="#E" x="-25.3" y="10.6" class="C"/><g class="B F"><use xlink:href="#E" x="-25.3" y="10.6" class="E"/><use xlink:href="#S" class="D"/></g><use xlink:href="#T" class="C"/><g class="B F"><use xlink:href="#T" class="E"/><use xlink:href="#U" class="D"/></g><use xlink:href="#V" class="C"/><g class="B H"><use xlink:href="#V" class="E"/><path d="M373 347l-1 7" class="D"/></g><use xlink:href="#W" class="C"/><g class="B H"><use xlink:href="#W" class="E"/><path d="M402 367l-1 7" class="D"/></g><use xlink:href="#X" class="C"/><g class="B H"><use xlink:href="#X" class="E"/><path d="M396 347l-2 7" class="D"/></g><use xlink:href="#Y" class="C"/><g class="B F"><use xlink:href="#Y" class="E"/><use xlink:href="#F" x="-22.8" y="20.9" class="D"/></g><use xlink:href="#Z" class="C"/><g class="B F"><use xlink:href="#Z" class="E"/><use xlink:href="#S" x="15" y="10.9" class="D"/></g><use xlink:href="#a" class="C"/><g class="B F"><use xlink:href="#a" class="E"/><path d="M364 365l2 8" class="D"/></g><use xlink:href="#b" class="C"/><g class="B F"><use xlink:href="#b" class="E"/><path d="M369 356l-2 9" class="D"/></g><use xlink:href="#c" class="C"/><g class="B F"><use xlink:href="#c" class="E"/><path d="M347 362l2 9" class="D"/></g><use xlink:href="#d" class="C"/><g class="B F"><use xlink:href="#d" class="E"/><path d="M339 358l-2 9" class="D"/></g><use xlink:href="#d" x="-29.1" y="-9.7" class="C"/><g class="B F"><use xlink:href="#d" x="-29.1" y="-9.7" class="E"/><use xlink:href="#U" x="-61.9" y="-17.7" class="D"/></g><use xlink:href="#e" class="C"/><g class="B F"><use xlink:href="#e" class="E"/><path d="M319 353l2 9" class="D"/></g><use xlink:href="#f" class="C"/><g class="B F"><use xlink:href="#f" class="E"/><use xlink:href="#U" x="-47.1" y="-11.2" class="D"/></g><use xlink:href="#g" class="C"/><g class="B H"><use xlink:href="#g" class="E"/><path d="M334 358l1 7" class="D"/></g><use xlink:href="#h" class="C"/><g class="B F"><use xlink:href="#h" class="E"/><path d="M338 349l2 8" class="D"/></g><use xlink:href="#E" x="-84.5" y="-8.1" class="C"/><g class="B F"><use xlink:href="#E" x="-84.5" y="-8.1" class="E"/><use xlink:href="#F" x="-84.5" y="-8.1" class="D"/></g><use xlink:href="#i" class="C"/><g class="B F"><use xlink:href="#i" class="E"/><path d="M302 345l2 8" class="D"/></g><use xlink:href="#j" class="C"/><g class="B F"><use xlink:href="#j" class="E"/><path d="M293 339l-1 8" class="D"/></g><use xlink:href="#R" x="-82.4" y="-23.6" class="C"/><g class="B F"><use xlink:href="#R" x="-82.4" y="-23.6" class="E"/><path d="M305 338l2 9" class="D"/></g><use xlink:href="#k" class="C"/><g class="B H"><use xlink:href="#k" class="E"/><path d="M314 339l-1 7" class="D"/></g><use xlink:href="#l" class="C"/><g class="B I"><use xlink:href="#l" class="E"/><path d="M378 346l-1 8" class="D"/></g><use xlink:href="#m" class="C"/><g class="B F"><use xlink:href="#m" class="E"/><path d="M390 345l-1 9" class="D"/></g><use xlink:href="#n" class="C"/><g class="B H"><use xlink:href="#n" class="E"/><path d="M400 357l2 6" class="D"/></g><use xlink:href="#o" class="C"/><g class="B M"><use xlink:href="#o" class="E"/><path d="M412 365l1 6" class="D"/></g><use xlink:href="#p" class="C"/><g class="B F"><use xlink:href="#p" class="E"/><path d="M409 358l-2 8" class="D"/></g><use xlink:href="#q" class="C"/><g class="B F"><use xlink:href="#q" class="E"/><path d="M413 347l2 9" class="D"/></g><use xlink:href="#E" x="-11.6" y="8.1" class="C"/><g class="B F"><use xlink:href="#E" x="-11.6" y="8.1" class="E"/><use xlink:href="#F" x="-11.6" y="8.1" class="D"/></g><use xlink:href="#r" class="C"/><g class="B F"><use xlink:href="#r" class="E"/><path d="M417 354l2 9" class="D"/></g><use xlink:href="#s" class="C"/><g class="B F"><use xlink:href="#s" class="E"/><path d="M440 344l2 8" class="D"/></g><use xlink:href="#t" class="C"/><g class="B F"><use xlink:href="#t" class="E"/><path d="M420 337l-2 8" class="D"/></g><use xlink:href="#E" x="35" y="8.4" class="C"/><g class="B F"><use xlink:href="#E" x="35" y="8.4" class="E"/><path d="M440 356l-2 8" class="D"/></g><use xlink:href="#u" class="C"/><g class="B F"><use xlink:href="#u" y=".1" class="E"/><use xlink:href="#F" x="49.6" y="-8.2" class="D"/></g><use xlink:href="#O" x="69.8" y="-7.6" class="C"/><g class="B F"><use xlink:href="#O" x="69.8" y="-7.6" class="E"/><use xlink:href="#P" x="69.8" y="-7.6" class="D"/></g><use xlink:href="#v" class="C"/><g class="B F"><use xlink:href="#v" class="E"/><use xlink:href="#S" x="47.6" y="-13.9" class="D"/></g><use xlink:href="#w" class="C"/><g class="B H"><use xlink:href="#w" class="E"/><path d="M432 349l2 7" class="D"/></g><use xlink:href="#x" class="C"/><g class="B F"><use xlink:href="#x" class="E"/><path d="M412 334l-1 9" class="D"/></g><use xlink:href="#y" class="C"/><g class="B F"><use xlink:href="#y" class="E"/><path d="M447 344l-2 9" class="D"/></g><use xlink:href="#z" class="C"/><g class="B F"><use xlink:href="#z" class="E"/><path d="M433 360l2 9" class="D"/></g><use xlink:href="#X" x="37.2" y="-8.8" class="C"/><g class="B H"><use xlink:href="#X" x="37.2" y="-8.8" class="E"/><path d="M433 338l-1 7" class="D"/></g><use xlink:href="#AA" class="C"/><g class="B F"><use xlink:href="#AA" class="E"/><use xlink:href="#U" x="28.5" y="-41.4" class="D"/></g><use xlink:href="#AB" class="C"/><g class="B M"><use xlink:href="#AB" class="E"/><path d="M426 334l2 6" class="D"/></g><use xlink:href="#AC" class="C"/><g class="B I"><use xlink:href="#AC" class="E"/><path d="M447 334l2 8" class="D"/></g><use xlink:href="#AD" class="C"/><g class="B F"><use xlink:href="#AD" class="E"/><path d="M408 324l2 9" class="D"/></g><use xlink:href="#AE" class="C"/><g class="B F"><use xlink:href="#AE" class="E"/><path d="M390 323l2 9" class="D"/></g><use xlink:href="#AB" x="-8" y="-7.8" class="C"/><use xlink:href="#AB" x="-8" y="-7.8" class="B E M"/><use xlink:href="#AF" class="C"/><g class="B H"><use xlink:href="#AF" class="E"/><path d="M435 329l-2 7" class="D"/></g><use xlink:href="#AG" class="C"/><g class="B F"><use xlink:href="#AG" class="E"/><use xlink:href="#K" x="-6.9" y="-23.4" class="D"/></g><g class="C"><path d="M438 330l1-6 1 7" class="E"/><use xlink:href="#AH"/></g><g class="B I"><use xlink:href="#AH" class="E"/><path d="M453 350l-1 7" class="D"/></g><use xlink:href="#AI" class="C"/><g class="B F"><use xlink:href="#AI" class="E"/><path d="M425 323l-1 9" class="D"/></g><use xlink:href="#AJ" class="C"/><g class="B H"><use xlink:href="#AJ" class="E"/><path d="M423 353l-2 7" class="D"/></g><use xlink:href="#AK" class="C"/><use xlink:href="#AK" class="B E M"/><use xlink:href="#AL" class="C"/><g class="B H"><use xlink:href="#AL" class="E"/><path d="M432 323l1 7" class="D"/></g><use xlink:href="#AM" class="C"/><g class="B H"><use xlink:href="#AM" class="E"/><path d="M451 330l-1 7" class="D"/></g><use xlink:href="#AN" class="C"/><g class="B I"><use xlink:href="#AN" class="E"/><path d="M450 321l2 8" class="D"/></g><use xlink:href="#AO" class="C"/><g class="B F"><use xlink:href="#AO" class="E"/><path d="M460 324l-2 9" class="D"/></g><use xlink:href="#AP" class="C"/><g class="B F"><use xlink:href="#AP" class="E"/><path d="M466 342l2 8" class="D"/></g><use xlink:href="#AQ" class="C"/><g class="B I"><use xlink:href="#AQ" class="E"/><path d="M460 347l-1 8" class="D"/></g><use xlink:href="#AR" class="C"/><g class="B I"><use xlink:href="#AR" class="E"/><path d="M461 334l-2 8" class="D"/></g><use xlink:href="#AS" class="C"/><g class="B I"><use xlink:href="#AS" stroke="#228b22"/><path d="M469 320l2 8" class="D"/></g><use xlink:href="#AT" class="C"/><g class="B F"><use xlink:href="#AT" class="E"/><path d="M467 331l-2 9" class="D"/></g><use xlink:href="#AU" class="C"/><g class="B H"><use xlink:href="#AU" class="E"/><path d="M472 341l-1 7" class="D"/></g><use xlink:href="#AV" class="C"/><g class="B H"><use xlink:href="#AV" class="E"/><path d="M473 331l1 7" class="D"/></g><path d="M476 327l1-6s0 5 2 7" stroke="#228b22" class="C"/><path d="M477 319l-2 9" fill="#356561" class="D F"/><use xlink:href="#AW" class="C"/><g class="B I"><use xlink:href="#AW" class="E"/><path d="M484 329l-1 8" class="D"/></g><use xlink:href="#AX" class="C"/><g class="B I"><use xlink:href="#AX" class="E"/><path d="M478 331l2 8" class="D"/></g><use xlink:href="#e" x="157.7" y="-47.6" class="C"/><g class="B F"><use xlink:href="#e" x="157.7" y="-47.6" class="E"/><use xlink:href="#P" x="119.9" y="-59.9" class="D"/></g><use xlink:href="#AY" class="C"/><g class="B F"><use xlink:href="#AY" class="E"/><use xlink:href="#S" x="103.6" y="-39" class="D"/></g><use xlink:href="#AZ" class="C"/><g class="B I"><use xlink:href="#AZ" class="E"/><path d="M497 317l-1 8" class="D"/></g><use xlink:href="#Aa" class="C"/><g class="B I"><use xlink:href="#Aa" class="E"/><path d="M490 316l2 7" class="D"/></g><use xlink:href="#AB" x="64.4" y="-7.2" class="C"/><g class="B M"><use xlink:href="#AB" x="64.4" y="-7.2" class="E"/><path d="M491 326l1 7" class="D"/></g><use xlink:href="#x" x="70.4" y="-29.1" class="C"/><g class="B F"><use xlink:href="#x" x="70.4" y="-29.1" class="E"/><use xlink:href="#U" x="110.7" y="-61.4" class="D"/></g><use xlink:href="#T" x="116.3" y="-63" class="C"/><g class="B F"><use xlink:href="#T" x="116.3" y="-63" class="E"/><path d="M488 303l-1 9" class="D"/></g><use xlink:href="#Ab" class="C"/><g class="B I"><use xlink:href="#Ab" class="E"/><path d="M495 307l2 8" class="D"/></g><use xlink:href="#AC" x="53.7" y="-29.5" class="C"/><g class="B I"><use xlink:href="#AC" x="53.7" y="-29.5" class="E"/><path d="M501 305l1 7" class="D"/></g><use xlink:href="#Ac" class="C"/><g class="B I"><use xlink:href="#Ac" class="E"/><path d="M506 306l-2 8" class="D"/></g><use xlink:href="#Ad" class="C"/><g class="B H"><use xlink:href="#Ad" class="E"/><path d="M510 305l2 6" class="D"/></g><use xlink:href="#Ae" class="C"/><g class="B F"><use xlink:href="#Ae" class="E"/><path d="M282 327l-1 9" class="D"/></g><use xlink:href="#N" x="-85.1" y="-26.7" class="C"/><g class="B F"><use xlink:href="#N" x="-85.1" y="-26.7" class="E"/><path d="M274 326l2 8" class="D"/></g><use xlink:href="#Af" class="C"/><g class="B H"><use xlink:href="#Af" class="E"/><path d="M269 323l2 7" class="D"/></g><use xlink:href="#d" x="-75.8" y="-40.3" class="C"/><g class="B F"><use xlink:href="#d" x="-75.8" y="-40.3" class="E"/><use xlink:href="#U" x="-108.7" y="-48.3" class="D"/></g><use xlink:href="#Ag" class="C"/><g class="B F"><use xlink:href="#Ag" class="E"/><use xlink:href="#U" x="-120" y="-62.6" class="D"/></g><use xlink:href="#Ah" class="C"/><g class="B"><g class="M"><use xlink:href="#Ah" class="E"/><path d="M247 300l2 6" class="D"/></g><g class="F"><path d="M404 342c1 1 0 5-3 3m1 0c2 1 2-2 2-3" class="G"/><path d="M404 341c3 6-2 6-3 4" class="E"/></g></g><g class="C"><path d="M231 263c2 1 9 1 11-4l3-6c2-2 5-3 6-7 1-6-6-5-7-8-2-3 0-4 3-4 2-1 8 1 21 7 9 4 18 1 21-1l11-13c1-1 14-5 19-13 2-4 5-17-7-26-11-8-28-14-35-17-6-3-16-4-18-13 0-4 3-5 6-5l11 2c2 0 9 1 10-6l-1-2c0 2-1 4-6 4-5-1-11-4-16-4s-9 3-14 4-11 1-14 6c-2 4-3 15 5 23 9 9 14 13 34 20 14 6 18 9 20 11s1 4 1 5c-1 1-6 2-17-3-10-5-18-5-23-5s-18 2-20 7c-3 5-1 6 0 14v8c1 2 3 5 5 5 5 2 3 4 1 6s-3 5-3 8c1 4-7 7-7 7zM377 62l-8 2c-3 2-5 5-6 4s8-3 10-8c1-5-1-5-2-12-2-11-7-13-11-12l-31 12c-12 4-31 6-34 12-1 3-5 12 8 22l12 6c-5-1-11-3-26-2-29 2-58 28-55 48 1 6 8 4 13 4 5 1 6 4 10 3 4 0 5-6 8-7s4 3 8 3 8-6 11-6l-3-1c-3 2-6 3-8 2s-3-3-6-3l-7 3c3-3 16-23 44-18 13 3 15-1 16-3v-11c0-5 3-8 2-11s-3-4-7-6c-3-1-2-2-2-2l7-2c4 0 23-5 36-13 7-5 10-9 11-6 0 1-10 3-10 7 0 2 1 5 6 5 4 1 6-2 9-4 3-3 5-4 5-6z" class="G H"/><path d="M242 213c25-9 38 9 55 7 0 7-7 21-20 20-9-1-31-17-39-4 0-10-5-20 4-23"/></g><g class="G"><path d="M242 213c25-9 38 9 55 7 0 7-7 21-20 20-9-1-31-17-39-4 0-10-5-20 4-23z" class="H R"/><path d="M288 207c11 5 8 14 9 16" class="B L"/><path d="M276 174c-14-6-25-12-18-23-8 4-22 2-22 13 3 36 70 29 64 59 15-2 29-25 4-37l-28-12zm40-83c3 1 0 5-1 10 0 2 2 8 0 9-8 5-41-12-59 25-2 4-6 0-10-1-6 0-10 1-9-4 14-42 59-44 79-39zm35-48c5-2 10-4 12-3 6 2 4 13 6 16-3-2-8 2-14 6a89 89 0 01-30 12c-10 2-18 4-16 8-3-2-15-9-11-18 1-4 8-6 15-8l21-6 17-7z" class="H R"/></g><g fill="#3c3c9e" class="D Y"><path d="M487 290c1-2 5-4 9 0m8 0c1-1 5-3 9 1m-3-5c2-1 6-4 10 0m-12-4c2-1 6-3 10 1m-54 1c1-1 5-4 9 0m1 8c1-1 5-4 9 0m-22 3c1-1 5-4 9 0m44-2c2-1 6-3 10 1M478 284c2-1 6-3 10 1m-34-3c2-1 6-4 10 0m8 6c2-1 6-3 10 1m14-2c1-2 6-4 10 0m-4 8c1-1 5-3 9 1m-14-15c1-1 4-3 8 1m-37-1c2-1 5-3 9 1m44 0c1-1 4-4 8 0"/><use xlink:href="#Ai"/><path d="M489 283c1-1 4-4 8 0m-16-2c0-1 2-4 5 1m-26 5c1-1 4-3 8 1m5 8c2-1 5-3 8 1m-18-6c1-2 4-3 8 0m44-2c2-2 5-3 8 0m-4-4c2-2 4-3 8 0"/></g><path d="M362 218c2 1 6 5 7 8m-7-2l3 6m-10-8l2 4"/><path d="M367 317c1 3 7 9 8 13m-17-8l11 12m-24-6c1 0 8 6 14 8m-16-2c-3 0-10 0-14 3m18 3l-16 4m37-3c-7 1-10 7-16 8m-79-79c0 2 1 16 5 20m-28-28c1 7 12 12 13 16m14 40c2-1 5-1 7 1m-21-20c2 0 15 3 19 9m-31-26c3 1 15 8 17 14" stroke-width=".9" class="B G"/><path d="M381 215c3 1 5 0 4-3 3 2 6 2 6-2 3 1 4-1 4-4 7 1 5-5 3-7 2 2 3 7-4 6 1 3 0 5-4 4 0 4-3 4-6 2 1 3 0 5-3 4m18 5c-1 1-2 2-5 0 2 0 3 1 4-1s-4-5-4-5c2 0 6 3 5 6m-16 16c0 3 5 4 5 5m-8-14c2 0 5 1 6 4-2-3-5-4-6-4m-3-9c-1 2 2 2 2 3m24 2l9 10c2 2 4 5 2 6-2 2-7-2-7-2l-15-16s18 20 21 18c4-3-10-16-10-16m-37-7c7 3 8-3 6-4 2 1 2 10-6 4m23-25c2 2 8 5 9 3 2-3 1-4-3-7 3 2 10-1 3-7 8 4 9-5 5-8 5 2 8-4 3-7 3 0 7-2 2-7 9 6 16 4 13-2 10 0 4-8-5-13 10 4 15-4 8-6 8 0 10-6 2-8 6 0 14-5 3-9 23 10 32 3 21-4 4 1 10-8-2-9 6 2 19-5 3-9l-21-5 21 6c3 1 6 3 5 5s-4 3-9 2l-17-3 17 5c1 0 7 2 7 5-1 3-4 2-6 2l-18-4 19 6c1 1 5 3 4 5 0 2-7 2-11 1l-31-8 17 6c2 1 6 2 5 4 0 2-6 3-8 3l-25-6 25 7c2 1 6 3 5 4-1 2-3 3-7 3l-23-7 23 9c1 1 4 2 3 3-2 2-7 2-9 1l-20-6 18 8c4 2 11 8 10 10h-6a1112 1112 0 011 2c1 1 0 3-1 4s-5 0-9-2l-18-6c3 0 13 5 15 6 2 2 3 4 2 5h-5l-13-5 13 7c2 1 4 4 3 5s-3 2-5 1l-19-8 19 9c1 2 3 5 2 7h-6c-3-2-14-8-15-10l15 12c1 2 3 4 2 5-2 1-5 0-6-1l-15-10 15 13c1 1 4 4 3 5s-6-2-7-2l-4-2s4 3 2 4c-1 2-1 1-3 1 2 2 6 5 4 7-3 2-8-1-8-2-1-1 2 3 0 4-1 1-4 0-5-1 0 0 3 2 1 4s-3 0-3-1c0 1 0 2-2 2l-2-1s1 3 3 3l1-2h4v-3h4l1-3c1 2 5 3 7 1 2-3-1-6-2-7 0 0 3-1 1-4"/><use xlink:href="#Aj"/><path d="M482 97c17 8 30 14 28 18-1 2-4 2-5 2 7 2 9 9 8 11-2 3-11-1-12-1 2 1 6 4 2 6-3 2-22-4-25-6 1 1 3 4 1 7-2 4-15-1-17-2 1 3 1 6-1 7-4 2-8 0-11-1 0 2 0 6-3 6-3 1-7 1-9-1l-19-8 19 7h9c1 0 2-4 0-5l-25-9a2284 2284 0 0138 10c2-2 1-6-1-7l-32-11 36 11c1 0 12 3 14 2s1-5-2-6l-27-11 30 10 21 6c5 0 5-3 0-5a1305 1305 0 001-2c5 1 11 4 11 2 2-5-6-9-9-10l-52-19c17 3 51 18 54 18 1 0 6 0 5-3-1-1-3-4-27-16"/><path d="M436 142c3 0 18 21 19 23s2 6 1 7c-2 1-6-2-9-5l5 4c1 1 7 10 4 12-4 2-9-5-11-7l-6-7c-1-1 10 12 5 14-3 1-8-4-10-5l-16-17c1-1 16 15 18 16 2 2 5 5 7 5 3-1-1-7-2-8l-13-19 18 19c2 2 7 9 9 7 2-1-4-10-5-12a759 759 0 015 1l-2-6-17-22m-36-43c2 1 8 2 7 6-1 3-5 2-6 2v4c-1 2-5 2-7 2 2 1 3 2 2 4s-3 2-4 2c1 1 4 2 2 5 0 2-1 1-2 2 1 0 3 1 2 3 0 2-1 3-2 3 1 1 2 3 1 5 0 2-2 3-3 3 0 1 2 1 1 4 0 2-2 2-3 2 1 1 2 2 2 5-1 2-3 2-4 2l-7-1h7l3-1-2-4-5-2 5 1 3-2-1-3-6-2h6l3-2c0-1 0-3-2-4l-7-1h7c1-1 3-1 3-3l-2-2-8-3 7 1c2 0 3-1 3-2 1-1-1-3-2-3l-6-4 7 2 3-1-1-3-7-5 7 2c2 1 5 1 6-1 1-1 1-2-1-3l-8-4 8 3c1 0 6 1 7-1 0-2-1-4-6-6m7-3c-2-3-6 0-3 3-1-3 1-4 3-3"/><use xlink:href="#Ak"/><use xlink:href="#Al"/><use xlink:href="#Am"/><path d="M379 111c1 1 2 6-3 6 2 1 2 2 2 4s-2 2-4 2c4 1 8 2 4 7 5-3 3-6-1-7 1 0 4-3 2-6 1 0 4-4 0-6m-12 2c1 0 4 1 4 4l-1 2c1 1 2 3 0 5 0-1 1-4-4-4l4-2v-3l-3-2m3 14c2-1 6-1 5 4 2-1 6 2 3 5 2 1 3 4 1 5 2 3 2 5 0 6 1 3 2 6-3 8 2-1 3-4 2-6l-2-2c2-1 3 0 3-3l-3-3c2 0 2-1 2-3l-2-2c0-1 3-2 1-3-1-2-3-1-5-1 2-1 2-3 1-3l-3-2m-30-32c0 2-1 3-4 2 2 2 5 1 5-1s-1-4-4-4c3 1 4 3 3 3m12-12c-1 3-6 3-9 2 3 3 9 3 10-1 1-2 0-6-5-4 4 0 4 2 4 3M342 87c-1 2-3 3-6 2 3 2 6 1 7-2 0-2-1-5-6-4 4 0 5 3 5 4m7 15c-1-3-6-4-9-3 4-3 9-1 10 3 0 3-3 6-8 3 4 1 7 0 7-3m12-16l-4 1c2 1 4 1 5-1 0-2-1-4-5-3 3 0 4 1 4 3m7 2c0 2-4 2-6 1v1c3 1 7 0 7-2 0-3-2-5-6-4 4 0 5 1 5 4"/><path d="M363 92c0 3-3 4-8 4 6 2 8-1 9-4 0-2-3-5-7-4 4 1 6 2 6 4m2 3c4 0 6 2 5 4s-6 1-6 1c1 1 1 2-1 4h-3v4c-1 2-5 1-6 0l-1 3-4 1 4-3-2-3c2 2 7 3 8 1 1-1 1-3-4-5 2 1 6 2 8 1 1-2 0-4-4-5 3 1 9 2 10 0l-4-3M350 94c-1 2-6 2-9 1 3 3 9 1 10-1 0-2-1-6-6-4 5 0 5 2 5 4m46 131l-5-5 6 5h-1m8-13c-1 1-3 2-6 0 3 1 4 1 5-1s-1-4-1-4c1 0 3 1 2 5m-6 32c-3-8-7-10-7-8l4 3c2 3 2 6 3 5m1-1c0-3-2-3-2-2l1 2h1"/><g class="B G"><path d="M390 245c1 3-4 7-1 11s6 2 9 2c1 0 6 0 5 3 0 3-5 2-10 0-1 0-5-2-7 0-2 1-3 2-3 5-1 3-3 5-5 3-3-1-2-3 0-4 1-2 2-4 1-6s-3-2-5-1c-3 1-5-2-3-4h6c1 2 5 3 6 2 2 0 2-11 2-13 2-1 4 0 5 2z" class="L"/><path d="M336 145c17 3 25 6 33 11" stroke-width="1.1"/></g><path d="M351 122c-1 2-4 2-7 2 3 2 8 1 8-2 0-4-5-6-9-5 4 0 8 1 8 5m4 8c0 3-4 3-6 2 3 3 7 1 8-1 0-4-5-7-10-5 5 0 9 1 8 4m4 9c0 2-3 2-5 2 3 1 6 0 7-2 0-3-2-5-6-4 4 0 5 1 4 4m0 8c0 3-4 3-6 2 3 2 7 1 8-2 0-4-3-6-8-4 4 0 6 1 6 4"/><path d="M367 135c-3 2-6 1-7-2-1-2 3-2 5-3-4-1-7 1-6 4 0 3 5 5 8 2v-1m-3-9c-4 3-7 0-7-2-1-2 2-3 4-3-3 0-6 1-6 3 1 4 6 6 9 2 0 1 0 0 0 0m-5-10c1 3-1 4-3 4-3-1-3-2-2-3h-1c-2 2 1 3 3 4 3 0 5-2 4-5h-1m-11-3c0 3-3 2-6 2 3 2 7 1 7-2 1-4-4-5-9-4 5 0 8 1 8 4m29-17l-2 1h-4 3l3-2c1-2-2-4-5-3 3 0 5 1 5 4m-8 56c0 2-3 2-5 2 3 2 6 1 7-2 0-3-3-5-7-3 4 0 6 1 5 3m-46 6c-3 1-4-3-3-5-4 3 1 8 4 6 4-2 2-8-2-6 3 0 4 4 1 5m-4 5c-2 2-4 0-4-2-2 3 2 5 5 3 2-2 1-7-4-5 4 0 4 3 3 4m-7 6c-2 0-3-1-2-3-2 1-1 5 2 5 4-1 5-4 2-6 1 2 1 4-2 4m22-12c-2 0-3-2-2-3-3 2 0 4 1 5 4 0 6-4 2-6 2 2 1 5-1 4m-15 19c-1 2-3 1-4-1-1 3 4 4 5 1s-2-4-4-3c2 0 4 1 3 3m7 5c0 2-4 2-5 0 0 4 6 3 6 0 1-4-4-6-6-1 3-3 5-2 5 1m5-6c-1 3-5 2-6 0 0 4 7 3 7 0s-5-6-7-1c3-3 6-2 6 1m11-15c-3-1-1-5 2-5-4-1-6 5-3 6s8-3 3-6c2 4 0 6-2 5m8-6c0 2-3 2-4 0 1 3 5 3 5 0 1-4-5-6-6-1 3-3 5-2 5 1m-30-9v4l-2 1 2-2v-3m-4 10v-5l-5-1c-1 1 0 3 1 5 1 1 3 2 4 1"/><path d="M315 154v-4h-3v3l3 1" class="S"/><path d="M311 157c-1 1-3 0-4-2 1 3 3 4 5 3s2-4-1-6c2 3 2 4 0 5m-3 5c1-1 2-3 0-4-1-2-3-2-4-2s-1 3 0 5c2 1 3 2 4 1"/><path d="M307 161c1-1 2-2 1-3l-4-1 1 3 2 1" class="S"/><path d="M326 151c-1 0-1-3 1-3-3-1-4 3-1 4 2 3 8 0 4-3 2 3-1 3-4 2m7 12v-4c-1-1-3-2-4-1v4c1 1 3 2 4 1"/><path d="M332 162v-3h-3v3h3" class="J"/><path d="M330 169c1-1 2-4 0-6h-5c-2 1 0 4 1 4 1 2 3 3 4 2"/><path d="M330 168c1-1 0-3-1-4l-4-1 1 4c1 1 3 2 4 1" class="J"/><path d="M341 153c1-2 1-4-1-5s-5-1-6 1c-1 1 0 3 2 4h5"/><path d="M340 152c1-1 0-3-1-4s-4 0-4 1c-1 1 0 2 1 3h4" class="J"/><path d="M385 188c1 0-2 1-1 2l1 2-2-1c-1-2 0-3 2-3m-4 6c0 1-2 6-6 2-4-3 0-6 3-6-1 1-5 1-2 5 2 2 5 0 5-1m-8 1c1 1 2 3 0 5h-4c0 1-3 4-5-1 1 1 2 2 3 1 2 0 1-2 1-2s3 2 5 1v-4m-10 7c3-1 5 1 4 4 0 3-4 3-6 1 3 1 4 1 5-1s-1-3-3-4m10-41c1-1 7 0 6 5-1 6 0-2-2-3l-4-2m-3 3c0-1 7 2 5 6s-6 1-7 0h5c2-3-3-5-3-6m3 10c1 1 4 6-2 6-6 1-3-6-2-6 0-1-2 5 2 4 4 0 2-4 2-4"/><path d="M369 180c2 0 6 2 5 5-1 2-4 1-6 1-1 0-5-2-3-5 1-3 3-1 4-1"/><path d="M370 186c2 1 5 7-2 7s-4-5-3-6c0 0-3 5 3 5 5-1 2-5 2-6"/><path d="M369 181c2 0 5 2 3 3-1 2-3 1-4 1 0 0-3-2-2-3 1-2 2-1 3-1" class="J"/><path d="M364 192c1 1 1 3-1 4-1 0-3-2-2-3 0 1 0 2 2 2l1-3m-9 3s3-2 6 0 0 5-2 5c1-1 2-2 1-4s-3-1-5-1M354 199c2-1 8 3 4 6-4 4-8-1-8-3 1 2 5 4 7 2 1-1 0-3-3-5m23-15c1 0 4 1 3 4h-3c-1 0-3-1-3-3 1-2 3-1 3-1"/><path d="M377 185c2 0 3 1 2 2l-2 1c-1 0-2-1-1-2 0-2 1-1 1-1" class="J"/><path d="M363 166c1 0 3 1 3 3s-2 3-3 2c-2 0 2 1 2-2s-3-2-2-3m-4 9c1-2 5-4 7 0s-1 5-5 3c3 1 6 0 4-3-1-3-4-1-6 0m-6-3c1 0 6 2 4 5-1 2-4 2-5 1-1 0-5-2-4-5s4-1 5-1"/><path d="M353 173c2 0 4 2 3 3-2 2-4 1-4 1-1 0-4-2-3-3 1-2 3-1 4-1" class="J"/><path d="M357 188s4 1 2 3l-3 1c-1 0-4-1-3-3s3-2 4-1"/><path d="M356 188c2 1 3 2 2 3h-2s-3-1-2-2l2-1" class="J"/><path d="M349 191c1-1 4-1 5 2 1 2-1 5-4 5 2-1 3-4 3-5l-4-2m-7 5c2-1 8 3 5 7-4 3-8-2-8-4 2 3 5 4 7 3 2-3 0-5-4-6m18-15c1 1 6 3 4 6-1 2-4 1-5 1s-6-2-4-5c1-3 4-2 5-2"/><path d="M359 183c3 0 5 2 3 3l-3 1c-1 0-4-2-3-3 1-2 3-1 3-1" class="J"/><path d="M356 167c0 1 3 2 2 4l-3 1c-1 0-2-1-2-4 1-2 2-1 3-1"/><path d="M356 168c1 1 2 1 1 2l-2 1s-2-1-1-2l2-1" class="J"/><path d="M358 167c-1-1-1-5 2-4 4 0-3-2-3 0-1 2 1 5 1 4m2-7c0-1 2-3 5-1 2 1 0-2-2-2-3 0-4 5-3 3m-9 19c1-1 5 3 2 5-2 3-7 0-6-5 1 4 4 6 5 4 2-2 0-3-1-4m-3 11c2-1 3-4 1-5-2-2-5-1-5 2 1-2 3-2 4-1s2 2 0 4m-8 4c2 2 5-1 5-3-1-3-4-5-6-3 2 0 4 1 4 3s-1 3-3 3m-7 1c3 0 4-4 2-6s-6-2-7 2c2-4 5-3 6-1 1 1 1 4-1 5m-2-13c1 0 5 1 4 4-1 4-4 0-4-1 1 1 3 3 4 1 0-3-2-3-4-4m6-1c2-1 6 0 5 4s-4 0-4-2c0 1 3 4 3 2 1-3-1-4-4-4m8-3c0 3-3 2-4 1 2 3 6 2 6-1 1-4-4-7-8-3 5-2 7-1 6 3"/><path d="M346 170c1 2 0 3-3 2 3 3 6 0 4-3-1-4-5-3-6 0 1-2 4-2 5 1m2-5v3c0 1 3-1 1-4-1-3-5-2-5 0 2-1 3-1 4 1m6-3c0 1-1 2-3 1 1 1 4 2 5-1s-4-6-6-3c3-1 5 1 4 3m0-7c1-2 2-2 4-2-1-1-4-2-5 1s4 6 6 3c-3 1-5 0-5-2m-17 20s3 1 2 3l-3 1s-2-1-2-3c1-2 2-2 3-1"/><path d="M337 175c1 1 2 2 1 3h-2s-2-1-1-2l2-1" class="J"/><path d="M336 168c1 0 3 2 2 4s-2 2-3 1c0 0-3-1-2-4 1-2 2-1 3-1"/><path d="M336 169c1 1 2 2 1 3a2 2 0 01-2 0s-2-1-1-2l2-1" class="J"/><path d="M340 166c-3 2-4 0-4-1-1 3 2 4 5 2 2-2 1-6-3-6 3 1 4 3 2 5m-16 4c0 2-2 2-4 2 3 2 5 1 5-2 1-3-3-5-5-2 3-1 4-1 4 2M247 218l-2-1-1 2 1 1h1c2 1 3 1 3 3s-1 3-3 4c-1 0-3-1-3-3h1l2 2 2-3-2-1-1-1c-1 0-2 0-3-2l3-3 3 1-1 1m9 8h-2l1-9h-2v-1h6v1h-3v9m6-1l-2 2-1-1 8-8 1 12-1-1v-3l-5-1zm4-4l-3 3 4 1-1-4m7 11l-1-1 3-8-2-1v-1l6 2v1l-3-1-3 9m9-8h5v1h-4l-1 3h5l-1 1h-4v4h4v1h-6l2-10M305 210v2l1 1 1-1v-1l2-3c2 0 3 1 3 2 1 2 0 3-1 3l-1-1c1 0 2-1 1-2l-2-1-1 2v1c0 1 0 2-2 2-1 1-2 0-2-2a2 2 0 010-2h1m-3-11c2-2 4-1 6 1s1 5-1 6c-2 2-5 1-7-1-1-2 0-5 2-6zm0 1c-1 1-2 3-1 5 1 1 4 2 5 0a3 3 0 001-4c-1-2-3-2-5-1m-4-6l-6 3 8-5-3 9v-1l1-6m-8 2l-4-2v-1l4 1 1-2-3-1v-1l3 1 2-2-3-2v-1l4 2-4 8m-8-14l1 1 1 4h1l1-3 1 1-3 7h-2l-1-1-1-3 3-1-1-5zm2 6c-1 0-2-1-3 1l2 2 1-3m-7 2l-4-2v-1l3 1 1-2-3-1v-1l4 1 1-3-3-1v-1l4 2-3 8m-5-12l1 1-3 8-1-1 3-8m-11 0c1-3 3-4 5-3s3 4 2 6c-1 3-3 4-6 3a5 5 0 01-2-3l1-1 2 3c2 1 4 0 4-2 1-2 0-4-1-5l-4 1 2 1v1l-3-1m-6 3l-1-10-4 5h-1l5-8 2 10 4-6 1 1-6 8m-4-16l1 1-6 5 1 1-1 1-3-4 1-1 1 2 6-5m-9 1l-1-1 3-3-4-1-1-1 6 1 3-2 1 1-4 2-3 4M242 127l10-2-6-4 1-1 8 6-10 1 5 4v1l-8-5m14-7l1 3h-1l-4-9 10 3-1 1-2-1-3 3zm-2-5l2 4 2-2-4-2m12 0h-1l-5-6-2 1v-1l4-3 1 1-2 1 5 7m5-4l-1 1-5-8 1-1 5 8m10-9c1 2 0 5-3 6s-5 0-6-3a5 5 0 019-3zm-1 0c-1-2-3-3-5-2s-3 3-2 5 3 3 5 2a4 4 0 002-5m4-6l8 5-2-6h2l1 9-8-6 1 7h-1l-1-9m14 5l-1 2h-1l4-9 4 9h-1l-1-2h-4zm2-5l-1 4h3l-2-4m9 7l2 1v1l-4-1 2-9h1l-1 8M306 64l1 5c1 2 1 3 3 3 2-1 2-2 2-4l-1-6h1l1 6c1 2 0 4-3 5-2 0-3-1-4-3l-1-6h1m10-3l10 5-2-7h1l3 10-10-6 2 7-1 1-3-10m18 5l-1 1-3-10h1l3 9m12-11c2 3 1 6-2 7-2 1-5 1-7-2-1-2 0-6 2-7a5 5 0 017 2zm-1 1c-1-2-3-3-5-2s-3 4-2 5a4 4 0 006 2c2-1 2-3 1-5m3-8l10 4-3-7h1l4 9-10-4 4 7h-1l-5-9M402 284v8h2v2h-7v-2h2v-6h-2v-1h1l2-1h2m13 2l-2 2c2 0 3 1 3 3s-3 3-5 3-5 0-5-3l2-2-1-2c0-3 2-4 4-4s4 1 4 3zm-6 4l-1 1c0 2 2 2 3 2l2-1-2-2h-2zm3-3l1-1-2-1-2 1 1 1h2m8 1h2c2 0 4 1 4 3s-2 3-4 3c-4 0-5-2-5-5s1-6 5-6l4 2c0 2-1 2-2 2l-1-1v-1h-1l-2 2v1zm0 3l1 2 2-2-2-2-1 2m16-5l-2 2c2 0 2 1 2 3s-2 3-4 3-5 0-5-3l2-2-2-2c0-3 3-4 5-4s4 1 4 3zm-6 4l-1 1c0 2 1 2 3 2l2-1-2-2h-2zm3-3l1-1-2-1-2 1 1 1h2m-15 16v8l1 1h1v1h-7v-1h1l1-1v-5h-2v-2h1l2-1h2m13 2l-2 2c2 1 2 2 2 3 0 3-2 4-4 4s-5-1-5-3 1-2 2-3l-2-2c0-3 3-3 5-3s4 0 4 2zm-6 4l-1 2 3 1 2-1-2-1-2-1zm3-3l1-1-2-1-2 1 1 1 2 1m11-4v8l1 1h1v1h-7v-1h1l1-1v-5h-2v-2l3-1h2m13 2l-2 2 2 3c0 3-2 4-4 4s-5-1-5-3 1-2 2-3l-2-2c0-3 3-3 5-3 1 0 4 0 4 2zm-6 4l-1 2 3 1 2-1-2-1-2-1zm3-3l1-1-2-1-2 1 1 1 2 1v-1"/><use xlink:href="#I" x="30.9" y="18.3"/><path d="M427 255c0-4-11-18-14-21m19 22c-1-8-11-22-14-25m20 25c0-6-8-22-12-27m20 27c-1-3-11-24-15-29m21 29c0-5-6-18-21-39" class="B G Q"/><g fill="#3c3c9e" class="D Y"><use xlink:href="#Ai" x="-6.5" y="3.2"/><path d="M238 290c2-1 6-4 10 0"/><use xlink:href="#Ai" x="-246.9" y="1.7"/></g><g fill="#c88e44"><path d="M386 189c3 2 9 5 10 3s1-4-3-7c3 2 10-1 3-7 8 4 9-5 5-8 4 2 8-4 2-7 4 0 8-2 3-7 9 6 15 4 13-2 10 0 3-8-5-13 10 4 15-4 8-6 8 0 10-6 2-8 5 0 13-5 3-9 23 10 32 3 21-3 3 0 10-8-2-9 6 1 18-6 2-10l-20-5 20 6c3 1 7 3 6 5s-4 3-9 3l-17-4 17 5c1 0 7 2 6 5s-4 3-6 2l-18-3 20 5c1 1 5 3 4 5 0 2-8 2-11 1l-32-8 18 6c2 1 6 2 5 4s-6 3-8 3l-25-5 25 6c2 1 5 3 5 5-1 1-3 2-7 2l-24-7 24 9c1 1 4 2 2 3-1 2-6 2-9 1l-20-6 19 8c4 2 11 8 9 10h-5a1112 1112 0 010 2v4c-2 1-5 0-9-2l-19-6c3 1 14 5 16 7 2 1 3 3 2 4h-5l-13-5 13 7c2 1 3 4 3 5-1 1-3 2-5 1l-19-8 19 9c1 2 3 5 2 7h-6l-15-9 15 11c1 2 2 4 1 5h-5l-15-11 15 13c1 1 4 4 3 5s-7-2-8-2l-3-1c-1-1 3 2 2 4l-3 1c1 1 6 5 3 6-2 2-7-1-8-2 0-1 3 3 1 4-2 2-4 0-5 0 0-1 3 1 1 3s-3 0-3-1c-1 1 0 2-2 2l-2-1s0 3 2 3l2-2 4 1v-3l4-1v-2c1 1 6 3 8 0s-2-6-3-7c1 1 4-1 1-4"/><use xlink:href="#Aj" x="-2.3" y="-1.9"/><path d="M479 96c17 7 30 13 28 17-1 3-3 2-4 2 6 2 9 9 8 11-2 3-11-1-12-1 2 1 5 5 2 6-4 2-23-4-26-6 2 1 3 4 2 7-2 4-15-1-17-2 1 3 1 6-1 7-4 2-9 0-11-1 0 2 0 6-4 6-2 1-6 1-9-1-4-3-15-6-18-8l19 7 9 1c1-1 2-5-1-6l-24-9a2284 2284 0 0138 10c1-2 1-6-2-7l-31-11 36 11c1 0 12 4 14 2 1-1 1-4-2-6l-27-11 30 10 21 6c5 0 4-3 0-5a1305 1305 0 001-2c4 2 10 4 11 2 2-5-6-9-9-10s-22-9-53-19c17 3 52 18 55 18 1 0 5 0 4-2 0-2-2-5-27-16m-82 1c3 1 9 2 8 6-1 3-5 2-7 2 2 1 2 3 1 4-1 2-5 3-7 2 2 1 3 2 2 4s-3 2-4 2c1 1 3 2 2 5-1 2-1 1-3 2 2 0 3 1 3 3s-1 3-3 3l2 5c0 2-2 3-4 3 1 1 2 1 2 4-1 2-2 2-3 2 1 1 2 2 2 5-1 2-3 3-4 2l-7-1h7l2-1c1-2 0-3-1-4l-5-2 5 1 3-2c0-2 0-2-2-3l-6-2 6 1 4-3c0-1 0-3-2-4l-8-1h8l3-3-2-2-8-3 7 1c2 0 3-1 3-2l-2-3-7-4 7 2 4-1-1-3-7-5 6 3 7-1c0-2 1-3-1-3l-9-4c5 0 7 1 9 2 1 0 6 1 7-1 0-2-1-3-7-6"/><use xlink:href="#Ak" x="-2.3" y="-1.9"/><use xlink:href="#Al" x="-2.3" y="-1.9"/><use xlink:href="#Am" x="-2.3" y="-1.9"/><path d="M377 109c1 1 2 6-4 6 2 1 3 2 3 4-1 2-2 2-4 2 4 2 8 2 4 7 5-3 2-6-1-7 1 0 3-3 1-5 2-1 5-5 1-7m-13 2c2 0 5 1 5 4l-2 2c1 1 2 3 1 5 0-1 1-4-4-4l3-2v-3l-3-2m4 14c2 0 5-1 5 4 2-1 5 2 3 5 1 1 3 4 0 5 2 3 3 5 0 6 1 3 3 6-3 8 3-1 4-4 3-6l-3-2c2-1 3 0 3-3l-2-3c2 0 2-1 2-3l-3-2c1 0 3-2 2-3-1-2-3-1-5-1l1-3-3-2"/></g><g class="B"><path d="M427 198c-2 1-6-1-7-2a977 977 0 00-1 0c3 1 4 8 2 9-2 2-4 1-5 0l-13-10 12 10c1 1 6 7 3 9-2 1-6 1-9-1l-6-4m18-35l-13-10 13 10c3 3 5 6 3 9-1 1-4 1-6-1l-12-8 15 11c3 3 8 9 7 12" stroke="#c88e44" stroke-width="1.1"/><path d="M428 254c0-4-11-18-14-21m19 22c-1-8-11-22-14-25m20 25c0-5-8-22-12-27m20 27c-1-3-11-24-15-29m21 29c0-5-6-18-21-39" stroke-width="1.1" class="D"/></g></g><defs><path id="B" d="M267 312l-1-6-2 7"/><path id="C" d="M289 343l-1-5-1 6"/><path id="D" d="M364 357l1-6 2 7"/><path id="E" d="M404 355l1-6s0 5 2 7"/><path id="F" d="M405 347l-2 9"/><path id="G" d="M271 322l1-6 1 7"/><path id="H" d="M330 354l1-6s0 5 2 7"/><path id="I" d="M347 250l-1 4 3-3-2-1"/><path id="J" d="M447 362l-1-6-1 8"/><path id="K" d="M446 355l2 8"/><path id="L" d="M345 360l-1-6-2 7"/><path id="M" d="M350 363l1-6 2 7"/><path id="N" d="M360 360l-1-6s0 5-2 7"/><path id="O" d="M358 374l-2-7-1 8"/><path id="P" d="M356 366l2 8"/><path id="Q" d="M386 354l-1-6-2 7"/><path id="R" d="M389 370l-2-7-1 8"/><path id="S" d="M379 358l-1 8"/><path id="T" d="M371 374l1-6 2 7"/><path id="U" d="M372 366l-2 9"/><path id="V" d="M372 354l1-5 2 6"/><path id="W" d="M402 373v-5l2 6"/><path id="X" d="M395 353l1-5 1 6"/><path id="Y" d="M381 376l1-6s0 5 2 7"/><path id="Z" d="M394 377v-7l2 8"/><path id="a" d="M365 372l-1-6-2 8"/><path id="b" d="M368 364l1-6s0 5 2 7"/><path id="c" d="M348 370l-1-6-2 7"/><path id="d" d="M338 366l1-6 2 7"/><path id="e" d="M320 361l-1-6-2 7"/><path id="f" d="M324 363l1-6s0 5 2 7"/><path id="g" d="M335 364l-1-5s0 4-2 6"/><path id="h" d="M339 357l-1-7-1 8"/><path id="i" d="M303 353l-1-6-2 7"/><path id="j" d="M292 346l1-6 2 7"/><path id="k" d="M313 345l1-5s0 4 2 6"/><path id="l" d="M377 353l1-5 2 6"/><path id="m" d="M389 353l1-6 2 7"/><path id="n" d="M401 363l-1-5-1 6"/><path id="o" d="M413 371l-1-5-1 6"/><path id="p" d="M408 366l1-7s0 6 2 8"/><path id="q" d="M414 355l-1-6-2 7"/><path id="r" d="M418 362l-1-6-2 7"/><path id="s" d="M441 352l-1-6-1 7"/><path id="t" d="M419 344l1-6s0 5 2 7"/><path id="u" d="M453 347l1-7 2 8"/><path id="v" d="M426 352l1-7 2 8"/><path id="w" d="M433 356l-1-5-1 6"/><path id="x" d="M411 342l1-6 2 7"/><path id="y" d="M446 352l1-6s0 5 2 7"/><path id="z" d="M434 368l-1-6-1 7"/><path id="AA" d="M400 333l1-6 1 7"/><path id="AB" d="M427 339l-1-4-1 5"/><path id="AC" d="M448 341l-1-6s0 5-2 7"/><path id="AD" d="M410 332l-2-6-1 7"/><path id="AE" d="M391 331l-1-6-2 7"/><path id="AF" d="M434 335l1-5 1 6"/><path id="AG" d="M440 339l-1-6-1 7"/><path id="AH" d="M453 357v-6l2 7"/><path id="AI" d="M424 331l1-6 2 7"/><path id="AJ" d="M422 359l1-5 1 6"/><path id="AK" d="M444 329v-4l2 5"/><path id="AL" d="M432 329l-1-5-1 6"/><path id="AM" d="M450 336l1-5 2 6"/><path id="AN" d="M451 328l-1-6-1 7"/><path id="AO" d="M459 332l1-6 2 7"/><path id="AP" d="M467 350l-1-6-1 7"/><path id="AQ" d="M460 354v-5l2 6"/><path id="AR" d="M460 342l1-6 1 7"/><path id="AS" d="M470 328l-1-6-2 7"/><path id="AT" d="M466 339l1-6s0 5 2 7"/><path id="AU" d="M472 347v-5l2 6"/><path id="AV" d="M474 337l-1-5-2 6"/><path id="AW" d="M484 337v-6l2 7"/><path id="AX" d="M479 338l-1-6-2 7"/><path id="AY" d="M482 327l1-7 2 8"/><path id="AZ" d="M497 325v-6l2 6"/><path id="Aa" d="M491 323l-1-6-1 7"/><path id="Ab" d="M496 315l-1-6-2 6"/><path id="Ac" d="M505 313l1-6 1 7"/><path id="Ad" d="M511 311l-1-5-1 6"/><path id="Ae" d="M282 335v-7l2 8"/><path id="Af" d="M270 330l-1-5-1 6"/><path id="Ag" d="M251 312l1-7 2 8"/><path id="Ah" d="M248 306l-1-5-1 6"/><path id="Ai" d="M491 293c2-1 4-3 8 1"/><path id="Aj" d="M427 85c10 0 13 3 12 6 0 3-4 3-5 3 2 1 2 3 2 5-1 3-3 4-6 4 2 1 5 2 4 5 0 3-3 4-4 4 2 0 4 1 3 5-1 3-3 3-9 2 5 1 8-1 8-3l-3-4-21-5 20 4 5-2c0-3-2-5-4-5l-18-4 16 2c3 0 7-1 7-3 0-1 0-4-2-5-2 0-11-3-16-2 6-1 13 0 16 1l6-2c0-3-2-6-11-6"/><path id="Ak" d="M397 92c4 3 7-1 3-4 2 3 1 5-3 4"/><path id="Al" d="M390 101c6 3 10-3 4-6 3 4 1 7-4 6"/><path id="Am" d="M375 110c5 2 14-5 8-8 4 4-3 8-8 8"/></defs></svg>