<svg xmlns="http://www.w3.org/2000/svg" width="670" height="459"><path d="M0 0h670v459H0z" fill="#fff"/><path d="M502 459h168V0H502v459z" fill="#d90026"/><path d="M0 459h166V0H0v459z" fill="#0a1f62"/><path d="M287 336c-1 2-3 3-3 5v1l1 23 2 3v1h-14v-1l3-3v-2-22c-1-2-2-4-4-4v-1h15m32 7l2 11c0 5-2 8-4 11-3 4-9 5-13 4s-7-4-9-7c-3-5-3-11-1-17l1-1v-1l2-3c2-2 4-4 6-4l5-1c4 1 8 4 11 8m31-5l6 13c1 1 1 0 1-1l4-10-4-4h14l-4 3c-4 6-5 14-8 20l-2 9-2 1-2-4-6-16c-1-1-1 1-2 1l-8 18-1 1-1-5a619 619 0 00-14-27l-1-1h2l4-1 5 1h5c0 1-2 1-2 3l1 4 2 5 1 4 2-3 6-14 2-1 2 4m29-3l13 29 4 3v2h-14v-1l2-2v-2l-1-1h-10v3c0 1 3 2 1 3h-13v-1c9-3 9-14 13-21l4-12h1" fill="#d90026"/><path d="M310 342l1 10v10c-1 1-2 3-4 3-2 1-3-1-4-3-2-2-1-6-1-9s-1-8 1-11c1-2 3-2 5-2l2 2m72 17h-7l3-9 4 9" fill="#fff"/><path d="M367 161c0 2 1 1 2 2l2 2 1-1c0 1 1 2 3 2l2 1h21l12-2c14-2 30-4 45-3l6 2 6 3 2 3c2 3 3 6 2 10 0 3-1 6-4 7-1-2-4-4-6-4l-2-1h-1l-2-1h-1l-3-1h-2l-28 1c-11 0-22 3-32 0h-3l-3-1h-1c-1-1-3-2-4-1l-6-4c-8-3-8-11-11-18l5 4" fill="#0a1f62"/><path d="M362 155l-1-1v1l-3 1h-1c-4-2-6-5-10-6h-4l-6-1-5-1h-1l-3-1c-11-4-20-14-23-26l-2 3-1 4-2-2-1-9-1 1-1 4c-2-4-1-6-2-10-1 0 0 2-2 2v-9l2-4h-2c-2 1-3 2-5 1l2-4-1 1-6 1-1-2 2-2c-2 0-4 2-7 1l-2-1 2-2-3 1h-4c-2-1-1-2 0-3l1-1-5 1-3 1-2-1 1-1h-10l-1-1c-3 1-6 3-10 2h-1l1-2-5 2-6 1s-2 1-3-1c-1-1-2 1-3 1-3 1-7 2-9 1l-1-1-12 2-1-1-6 2h-9l1-2c-4 1-8 3-13 3l-5-1 2-2 10-7a141 141 0 0022-18c-1 0-2-1-1-2l9-6 3-1c3-3 8-5 12-7l14-5 2-1c4-2 9-1 12-2h30l3 1 6 2c4 2 7 5 7 9-1 4-1 9 2 12l1 2 1 6 1 1c1-2 4-2 6-3l7-1h5l4 1 6 1 6 2c2-1 5 2 6 0 4-6 3-13 1-18 0-4 2-9 6-11l13-4c3 0 5-3 8-3h11l2 1c2 0 5 0 6 2l1-1 15 5 6 3 3 1h2l3 1 10 3c2 1 5-1 5 2l26 14 1 1v2l16 11 18 12v2h-4l-3-1h-5l-5-2 4 5h-9l-2-1-4-1c-1 1 3 2 1 3h-2l-5-2-7-3c-2 2-3 0-5 0l-6-2h-3c1 1 3 1 3 3h-3l-4-2c-5-1-10-4-14-7l-5-2-6-4 4 6v1h-2l-6-2-1-1c-1 1 1 2 1 3l1 1h-4l-5-2h-1l3 3-3 1-2-1h-3l-5-3v1c2 2 2 4 4 4l-1 2-10-4h-1l4 6c-2 1-3-1-5-1l-4-2 3 6-2 1a35 35 0 00-6-4c0 2 2 4 0 6v3l-4-4v1l1 6-1 3-5-6c1 3 3 7 1 10v1h-1l-4-5v1c0 3 2 4 3 6 3 5 5 10 10 14l-3 1-2 1-5-2h-7c6 3 5 10 11 13 1 1 3 4 2 6 0 2-1 4-3 5l-4-5"/><path d="M361 156c0 1 0 0 0 0l1 6c-2 3-5 6-6 10l-3 6-2 9-2 9c-3 9-5 20-9 29l-2 8-13 24c-5 7-11 14-18 19l-5 2h-4c-3 0-6-2-8-4-2-3-5-6-5-10l7-1c2 0 4-2 5-3l4-2 8-11 2-2 9-15 17-41 2-4v-1l1-1 2-6 2-3 1-2c3-6 7-11 11-15l5-1" fill="#0a1f62"/><path d="M386 44a31 31 0 014 1l20 6 12 4h1c3 2 7 2 10 3 1 1-1 0-1 1l-4 1c-5 2-9 1-14 0l-3-1-4-1h-1l-2-1h-2l-8-2-2-1-6-2c-1 0-4 1-4-2l-2 1-3 1h-6c-2 1-5 4-8 2-1 1-2-1-3 1l1 4c-1 2-3 2-4 2 1 2 1 5-1 7l-1 1c2 1 1 4 0 5-1 3-5 3-4 6-1 2-3 3-3 5 0 4-6 3-6 8l-1 4-4 2c-1 2-1 5-3 6 1 1-2 4 1 4v-2c1 2 3 5 2 6-3 1-3-2-5-3v-5h-1l-5 9-2-3v-1c-2 2-2 4-2 7l-4-4-2-4-1 4-1 5-5-8-2 2-1 2c-1 2 1 5-2 6l-2 5-1-1v-9l2-3h-1l-5 5c-1-4 1-9 4-12l-1-1-5 7h-1c-1-6 2-11 6-14v-1h-2l-7 5 2-5c2-1 2-4 5-3 0-1 2-1 1-2l-2 1h-1l6-8c0-2-3-1-4-3l-2-7c-2-2-6-5-4-8v-3-4c-1-2-2-1-3-2-3 0-2-7-6-4h-3c-3 0-5-4-8-1l-10 1-4-2-8 4-7-1c-4 2-8 6-13 7l-8 4-9 4-5-1h-4l18-12c11-5 22-10 33-10 10 0 19-1 29 1h2c5 1 10 2 12 7 3 4-3 9 1 13 2 3 4 7 4 11l2 3c2-3 5-4 8-5h15l3 1h1l12 4 3-4c3-5 3-11 1-17-1-3 0-6 2-8 2-3 6-3 8-4l3-1 9-3h4c4-2 8-1 12 0M260 54c0 1-2 1-2 3l-7 1-2-2 4-1c3 0 5-4 7-1m20 0h4l1 1-6 2c-3 1-2-2-4-3v-1l5 1m-6 0l1 3c1 1 2 1 1 2l-5 1-2-1c-1-3 3-3 4-5l1-1v1" fill="#a54a00"/><path d="M401 50l-2 1 1-1h1"/><g fill="#a54a00"><path d="M271 53l-3 3-4 2c-2 0-2-1-3-2l1-2c3 1 6 0 8-1h1m-23 3l-6 6a48 48 0 01-27 9l4-3 7-3 16-10 6 1m135-2c0 2 0 4-2 5h-3c0-1 1-3-1-4v-1c2 0 3-2 5-1l1 1m-10 0c1 1 0 2-1 2h-5c2-1 4-4 6-2m22 5l4 4 7 10c-9 0-16-8-22-15v-4h3c3 2 7 1 8 5m-18-3c-1 2 0 3-2 4h-5v-2h3l2-4 2 2m-117 1l3 2c2 1 3 0 4-1v3c-6 4-10 9-17 11h-1l-6 1 17-16m24 0l1 6c-1 2-4 1-5 2-2-2-3-3-2-5 0-3 3-1 5-3h1m4 2l3 1-1 3-1 1-4-2 1-5 2 2m-32 0c-7 7-13 12-21 13l-6 1 13-10 7-5c2 2 5 1 7 1m110-3l-1 3c-1 1-2 2-3 0 2-1 0-2 0-3h4m41 4l1 1c2 1 3 5 6 6l5 7-5-1-5-2-3-2-11-12h4c2 2 5 1 8 3m-38 1l-1 3h-4l-1-2c2-1 4-2 4-4h1l1 3m-93-1c1 2-1 3-2 4-6 4-10 10-18 9h-1l14-13h7m116 9l1 1 3 3c-8 1-13-5-18-10v-2l5-2 9 10m-29-5l-3 3h-2l1-5 3-1 1 3m13-3c0 2 1 4-2 5h-4l-1-1 1-3h2l4-1m79 9l4 3 1 1c-8 0-15-2-22-6l-4-3-5-3 2-1c2 0 3-3 6-1l18 10M412 61l3 1 3 1c4 0 6 5 9 7l4 3 1 1h-6v-1c-6-1-10-5-14-10l-2-2h2m-133 5h3l-5 5c-4 2-7 3-11 3l9-9c1 0 1-2 2-1l2 2M291 65l-1 4-3 1-2-1v-4c0-2 2 0 4 0h2m139 0l8 5c3 3 8 2 11 6-7 0-15-1-20-6l-7-7 5-1 3 3m-51 3l8 8-4 1c-3-1-6-3-9-7l-2-2c2-1 4 0 5-3l2 3m-11-1l-1 3h-5c-2-2 1-3 1-4 2 1 5-2 5 1m-85 1l3 3-5 4c-2 1-4 2-7 1l4-4 5-4m-74 2h5l-1 1-19 17-5 3-10 4h-7c1-2 5-3 7-5 9-6 18-13 26-21l4 1m21 0l-5 4-17 13-2 2c-4 2-7 5-12 5l-6 1c0-2 2-2 3-3l21-18 10-2h2l6-2m148 8c-2 1-5 0-7-2l-4-4 2-2 1-2 8 10"/><path d="M361 70l-1 3c-1 0-2 2-3 1v-5-1c2 1 3 0 4 2m-119 2l-1 1 5 1-10 9c-3 3-6 6-10 7l-2 2h-7l22-19 3-1m13 3h1l-16 14c-3 1-6 3-10 3l1-2 12-12 5-5 7-1c-1 0-3 2 0 3m36-4l3 4-2 1-3-2c-1-1 1-3 2-3m-3 0v4l1 2c-2 2-6 3-9 3l4-5 3-4h1m-52 3l-22 17c-3 1-7 3-11 3v-1l13-10 11-9 9-1v1m129-3l6 11c-4 0-7-3-10-6-3-2 2-2 1-5h3m-100 4l-1 2c-6 6-12 14-22 14v-1l16-15h-1l6-2 2 2M274 74c-1 1-2 1-2 3l2 1-10 10c-3 1-6 3-10 2l5-5 8-10 7-1m139 0l4 5v1l4 5 4 5-8-5c-4-2-6-6-9-10 1 0 2 0 1-1l-2-3 6 3M399 73l7 2 10 16-4-2-9-7-5-7v-2l-1-1 2 1m-8 1l5 1 9 12c2 2 3 3 3 5-6-1-10-5-15-10l-4-5c1-2-2-2-2-3l-2-2 6 2M428 75h2l24 23-12-4c-8-6-15-14-22-22 2 2 5 3 8 3m-133 3c2 1 1 3 3 5h-3c-1-1-2-1-2-3 1-1 1-6 2-2m-3-1c-1 2 2 6-2 6h-5l5-6h2m67-2l5 10 1 1c-5 0-8-5-11-8 1-1 2-3 3-2l2-1"/><path d="M279 77l-1 2 2 2v1c-2 3-6 4-9 7l-3 2h-5l11-11c1-1 3-3 5-3m140-1c2-1 4 2 5 4 5 3 8 7 11 11l7 7-4-1c-4-2-7-3-10-6l-13-16 4 1m18 0l3 1 6 4 16 14h1-1l5 5 2 2c-1 1-2-1-4-1l-3-1-5-3c-9-6-16-14-25-22h2l3 1m16-1l2 1 6-1 28 20 5 4c-8 0-16-3-22-9l-13-9-8-6h2m-70 3l5-1 13 16h-4c-8-3-11-9-16-15l-2-1h3l1 1m-9 1h6l8 11 5 6c-8-1-14-8-19-14l-3-3v-1l3 1m-18 4l6 8h-3l-3-2c-3-1-5-3-6-5 0-2 2-2 2-3l1-2 3 4m96-5l18 13 5 4 7 6h-6c-3 0-6-3-9-4l-10-7-14-13h5c1 0 3-1 4 1m-167 3l-2 3 3 1c-5 4-9 9-15 8v-1l13-11h1m11 4l4-1c-3 3-6 4-9 4h-1l-1-1 4-4 3 2m77-2l12 16-6-4c-4-1-5-5-9-8l-2-2c0-1-2-1-2-3 2 2 5 2 7 1m-84 2c0 1-2 1-1 3l2 2c-4 3-8 6-12 6h-1l7-7 5-4m70 0c4 5 9 9 12 15 1 2 2 4 1 6l-2-2-11-12h4l1-1-5-6m19 15l1 2-6-4-10-11h4v-1h-1 1c4 4 8 8 11 14M351 87l5 5 2 2h-2-1l-6-3-2-2 2-3 2 1m-56 2v2l-4 5-7 2 6-7 3-2h2m51 1c2 3 8 3 7 8v2l-5-1c1-3-1-6-2-9m0 5v4l-5-1c2-2 3-4 2-6l2-1 1 4m22 12l1 6-3-3c-4-4-6-9-11-11l-1-4h5c4 3 8 7 9 12m-22-6c1 2 1 5-1 6l-4-1v-6l-1-1c2 2 5 0 6 2m-6 0c0 2 0 4-2 5l-2-1 2-5c1-1 1 0 2 1m14 0h2c4 3 7 9 9 14l-1 3c-4-7-10-11-16-17h6m4 13l1 2-5-4-7-5 1-4c3 4 8 6 10 11m-17-6v3l-1 1-2-1-1-4c1 0 4-2 4 1m2 0h4c3 3 5 6 5 10l-1-1-9-8v-1h1"/></g><path d="M357 148l4-3c0-2-1-4-3-5l-7-6-2-1c-1 1-1 2-3 2l-10-7-3-3c-2-1-3-4-4-7l-2-1-1-1-3-3v7l-6-7-1-1-1 6 1 4c-3-2-6-6-8-10l-1 3c-1 5 1 11 4 16 3 4 7 9 12 12 3 3 7 3 10 4l16 2h4l4-1" fill="#fff"/><path d="M358 148c-2 2-5 2-5 2h-1v1l6 4 2-1-4-2 1-2 3 2c3 1 5 3 7 6l1-3c1-4-3-7-6-9l-4 2" fill="#ffb30f"/><g fill="#a54a00"><path d="M330 118l1 2 5 6-5-16v-1c-1-1-1 0-2 1-1 2-2 4-1 6l2 2m19 2c-4-1-7-3-9-7 2 0 2-1 2-2 4 2 6 6 7 9M333 113c1 2 2 5 4 6l2 2v1c2 3 7 3 7 7l1 3v1c-5-1-8-6-10-9a39 39 0 01-4-11m12 10v1c-4-1-8-5-10-9l4-1 6 9m8-10c7 6 12 15 17 23h-4c-6-2-7-9-10-14-3-2-2-6-3-9m2 11l6 11-4-1-7-11 1-3-2-3c2 3 5 4 6 7m-7-2l4 7c0 2 2 3 3 5-1 1-2 0-3-1-3-1-5-5-6-8l1-3c-2 0-3-1-3-2 1 1 4 0 4 2"/></g><path d="M352 141l2 1-2 2c-2 0-3-3-5-3v-1l5 1"/><path d="M239 144l3 2 1 4-5 3-12 6-2 1c-2 1-5 1-7 3l-1-5c0-2 3 0 4-1l7-1c3-1 7-1 8-4v-3c-2-2-5-2-8-2-1 2-6 1-5 5v3l-3 1-3-1c0-2 3-4 4-6 5-4 10-6 17-6l2 1m-6 7c0 2-2 2-4 3l-2 1c-2-1-3 1-3-1l1-4 2-1c2 1 5-2 6 2m11 2l1 5v5c-2 11-13 16-22 19-9 1-16 7-21 12l-2 1c-1-1 1-3-1-5 0-6 0-14 4-19l6-4 3-1 3-1 8-3 3-1 9-4 9-6v2m37 32h9l6 1c2 2 2 5 2 8l3 11c0 2-2 1-2 1h-3l-6-1h-13l-12 2-2 1-16 5-2 1-14 7c-11 5-21 11-30 19-1-1-2-2-1-3l-1-20c0-4 5-4 7-6 2-3 7-4 9-6 6-3 11-8 17-9l6-2 1-1 5-1 3-1 3-1 7-2h3c1-1 4 0 5-2h5l10-1h1m180-1l6 4c-3 4-6 4-10 6-2 1-3-1-5-2a90 90 0 01-5-2l-2-1 3-2 6-5 7 2m-248 5c-1 1 0 3 1 4l4 3 4 1v2l-3 1-12 6-4-3c-2-2-3-3-2-6l9-8c1 0 3-2 3 0m213-2h8l2 1 13 4a51 51 0 0114 9l4 4v3l-1 8-1 3v4c-2 0-2-2-3-3l-6-5-3-2v1l-9-5-6-2h-2-2l-6-1-9-1h-1c-7 0-13 1-19 3l-8 4-10-14v-3l10-4 4-1 4-1 2-1 15-2 10 1m-130 20h1c1 1 3 0 3 2-4 5-11 3-16 5l-17-1-2-1h-2l-2-1h-1c1-2 3-1 4-2l7-1 4-1h21m112 3c3 4 4 8 3 13h-2c-3-4-8-6-12-8l-5-2 1-1 10-3 4-1 1 2m43 3l10 8 3 3-4 1h-2-1v-1h-1l-4-3c-2-2-4-6-3-9 1 0 1 2 2 1m-149 5c1 6 0 11-1 17l-8 2c-3 0-7 3-10 4l-15 9-10 7-9 5-6 4-11 6-4 1c-2 1-3-2-4-3-2-5-6-8-9-12l4-1 3-1 3-2 10-5c3-2 5-5 9-6 2-3 6-4 9-7l16-10 7-3-1-1 7-1c2-2 5-3 8-3 3-1 7-2 10-1l2 1m98 0l9 6c-1 3-4 4-6 5l-6-1-7-3-3-1h-1l-1-1h-1l-5-3 1-1 4 1h6l4-1 5-1h1m-20 4l10 5 3 1 4 2 3 1 3 1 10 3 5 1 11 1h3l7 1h17c8-1 18-1 25-3l1 1c2 4 3 9 3 14v4h-8-5l-6 1h-4l-2 1-7 1h-26l-4-1-4-1h-3l-4-1-4-1-4-1h-2l-3-1h-2l-6-2-2-1h-1v-1l-10-4-2-1h1l-3-1-5-4 7-17 4 2m-153 5c2 1 5 2 7 5l-1 5c-2 2-3 4-6 4l-4 3-5 2c-4 2-4-3-8-3h-1l-3-1h-2-1-1v-1l12-9 9-5 1-2 3 2m10 10l1 2c0 3 0 5-2 8l-8 5-12 4-3-1 1-4 5-4 6-2 1-1 6-3c1-2 4-4 4-6l1 2m63 0c-1 6-6 9-10 12h-1c0-2 1-6-3-7l1-2 3-1v1l3-1 7-2m75 6l3 1 2 1c1 1 3 1 3 3-3 2-8 2-11 0-2-2-4-6-3-9l3 2 3 2m-79 4l-2 11v3c-2-1-3 1-5 1h-3l-3-1v-4l4-3 7-5 2-2m185 8l4 2-2 3c-3 1-8 1-11 3l-1-1-4 4c-2-1 0-2 0-3l4-7 5-1h5m-6 10c-2 1-2 3-2 5l3 3c1 0 2 0 1 1l-3 1h-2l-1-1-4-2v-4c2-3 5-3 8-4v1" fill="#0a1f62"/><g fill="#fff"><path d="M387 235l-7 6h-1l1-9-5 7-2-1 8-11 2 1-1 9 7-6 2 1-5 12-2-1 3-8m7 9l-2 2-3-1 10-10h2v14l-3-1v-3l-4-1zm5-6l-4 4 3 1 1-5m8 12h-3l4-12h3l-4 12m7-11h2l5 10 2-8h3l-3 13-2-1-5-9-2 8h-3l3-13m19 15h-3l1-11h-3v-2h8v2h-3v11m9-3l-1 3h-3l5-13h2l5 13h-2l-2-3h-4zm2-6l-2 4h4l-2-4m12 9h-2l-1-13h3v13m3-13l2-1 8 8-1-8h3l2 12-2 1-9-8 1 8h-2l-2-12m-65-38v-10h2l5 8v-9l3-1-1 14h-2l-5-7v8l-2 1-8-11 3-1 5 8m15-10l1 2h4v2l-4 1 1 3 4-1v2l-7 1-2-12 7-1 1 2-5 1m18 6l4-8h2l1 9 4-7h3l-7 12-2-1-1-8-5 7h-2l-1-13h3l1 9m14 7h-2l4-12h2l-4 12M446 206l4 1-1 2-6-2 4-12 3 1-4 10m7 2l4 2-1 2-6-3 5-11 2 1-4 9m-50-28h-3l-2-4v4h-3v-11h4c2 0 4 1 4 4 0 1-1 3-3 3l3 4zm-5-5l2-2c0-2-1-2-2-2v4m11 4h-2v-11h2v11M422 172v1c0 3-1 6-5 6s-6-3-6-6c0-4 2-6 6-7 2 0 4 1 5 3l-2 1c-1-1-2-2-3-1-2 0-4 2-4 4s2 4 4 4c1 0 3-1 3-3h-3v-2h5m8-2v-4h2l1 12h-3v-6l-4 1v5h-2l-1-12h3v5l4-1m11 7h-2l-1-9h-2v-2l7-1v2h-2v10m11-9l-2-1-1 2c0 2 5 0 5 4 0 3-1 5-4 5l-3-2 1-2 2 2 2-2-3-2c-1 0-2-1-2-3s1-4 3-4l3 1-1 2M300 272l1 3-3 1v-13l1-1 9 9-2 1-2-1-4 1zm0-6v4l3-1-3-3m2-6l1-1 10 1-5-5 1-2 9 9-1 1-11-2v1l6 5-1 2-9-9m9-10l2-3c2-3 6-3 8-1 3 2 4 5 2 8l-2 3-10-7zm10 4v-1c1-2 1-4-1-5-2-2-4-1-6 1l7 5m5-18c-3-1-5-5-3-8s5-4 8-3c3 2 5 5 3 8s-5 5-8 3zm1-2c2 1 4 0 5-2s0-4-2-4c-2-1-4-1-5 1s0 4 2 5M327 220l1-2 6 3c1 0 3 1 4-1s-1-3-2-3l-6-3 1-2 6 3c3 1 4 3 3 6s-4 3-6 2l-7-3m18-14l-1 2-6 1 5 2-1 2-11-4 1-3c1-2 2-3 5-3l2 4 6-1zm-8 3v-1l-1-2c-1-1-2 0-2 1l3 2m-106 56l-3-9 2-1 7 6-2-8 2-1 3 13-2 1-7-6 2 8-1 1-11-9 2-2 7 7m12-14l1 2 4-2 1 2-4 2 2 3 4-2 1 2-6 3-7-11 7-3 1 2-4 2m17 1l-2 2-8-11 3-2c3-1 5-1 7 1 1 2 1 4-1 6h-1l2 4zm-4-5l1-1c1 0 2-1 1-2-1-2-2-1-4-1v1l2 3m18-3l-3 2-5-3 3 4-3 2-7-11 3-2c2-1 4-1 6 1v5l6 2zm-10-2h1c1-1 2-2 1-3-1-2-2-1-3-1l-1 1 2 3m12 0l-2 1-7-11 2-1 7 11m9-7l1 2-9 4v-11l-4 2-2-2 9-4v12l5-3M285 225l1 3 4-2 1 2-4 2 2 3 4-2 1 2-7 3-5-11 6-3 1 2-4 1m-77 1l3-3 1 4-6 3-2-14h2l2 10M217 224h-3l-2-13 3-1 2 14m1-17l3-1c3 0 5-1 6 2l-1 4 3 2c0 3-2 4-4 5l-5 2-2-14zm5 10l3-2-3-1h-1l1 3zm-1-5l2-2c0-1-1-2-2-1h-1l1 3m10-9l1 3 4-2 1 2-5 2 1 4 5-2v2l-7 3-3-14 7-2 1 2-5 2m20 6h-4l-4-5 1 6h-3l-2-13 4-1c2-1 4 0 5 3 0 2 0 4-2 5l5 5zm-8-7c2 0 3 0 2-2 0-2-1-2-3-2l1 4m14 4l-3 1-2-12-3 1v-2l8-2v2l-2 1 2 11m9-2l-3 1-2-14 3-1 2 14m6-13v3h4v3h-4v4l4-1 1 3h-8v-14h7v2h-5m15 0l-1-1-2 1c-1 3 5 2 4 7 0 3-2 4-5 4-2 0-3-1-4-3l2-2c1 1 1 3 3 3l2-2c0-2-1-2-3-3l-2-4c0-2 2-4 4-3l4 1-2 2m-82-13c0-3 1-7 4-7 4-1 6 2 7 5 0 4-2 7-5 7-3 1-6-2-6-5zm2 0c0 1 2 3 4 3s3-3 2-4c0-2-1-4-3-4-2 1-3 3-3 5m8-11h3l1 7c0 1 0 3 2 3 2-1 2-3 2-4l-1-7h2l1 7c1 3 0 5-4 6-3 0-4-2-5-5l-1-7m21 6l-3 1-3-4v4l-2 1-2-12h3c3-1 4 0 5 2l-2 4 4 4zm-7-5h1c1 0 2-1 1-2 0-2-1-2-2-2v4"/></g></svg>