<svg xmlns="http://www.w3.org/2000/svg" xmlns:xlink="http://www.w3.org/1999/xlink" width="660" height="520"><style>.B{fill:#ffb32b}.C{fill:#efae0e}.D{fill:#36e218}.E{fill:#866e3f}.F{fill:#fff}.G{fill:#913cff}.H{fill:#c5792c}.I{fill:#b3ff0f}.J{fill:none}.K{stroke:#000}.L{fill:#ffe835}.M{stroke-width:.105}.N{fill:#ff163c}.O{fill:#ffd9c5}.P{fill:#86e2ff}.Q{fill:#ff8600}.R{fill:#ef1439}.S{fill:#ff9120}.T{fill:#e2c89a}.U{fill:#e8daad}.V{stroke-width:.044}</style><g transform="matrix(2 0 0 2 0 -554)"><path d="M0 537h330V277H0v260z" fill="#003776"/><path d="M166 477c-28 1-52-11-52-11s0 4-3 6c-2 2-6 3-9 1-4-2-5-8-6-10 0-3 2-6 4-8s6-2 8-1 3 6 2 8c-2 2-3 2-5 1-2 0-2-3-2-3l1 1c1 1 2 0 3-1s0-3-2-3l-2 1-1-1-1-1v2l-1 2 1 5 3 1v3l3 1v-2c-1-1 1-2 4-4s3-5 2-8-5-5-8-5h-5v-1l-2-1h-3l-1 2 3 1v-1l-1 3c-1 1-6 8-5 11 0 5 2 6 3 8l1 3v2s30 18 74 18c27 1 66-19 66-19v-1c-1-1 0-3 1-4s3-3 3-7c1-4-4-11-5-12l-1-2s2 1 3 0 0-2-1-2l-3-1-2 2v1l-5-1c-3 0-7 3-8 6-1 2-1 5 2 7s4 4 4 5v2l2-2 1-3 3-1 1-4-1-3v-1h-1v2l-3-2c-2 0-3 3-2 4h3l1-1s0 3-2 4c-2 0-3 0-5-2-1-1 0-6 2-7 3-1 6-1 8 1 2 1 4 4 4 8-1 2-2 8-6 10-3 2-7 0-9-1-3-3-3-6-3-6s-22 11-50 11" class="B"/><path d="M167 493c-22 0-48-9-51-9s-14-7-14-7 4 1 9 0c3 0 4-2 5-3l1-4s24 10 51 10c26 0 46-10 46-10l1 3c0 1 2 3 5 4h9s-11 6-14 6c-3 1-26 10-48 10" class="R"/><g class="B"><path d="M121 477v-1l-1-1-1 1 1 1c1 1 3 2 2 4s-3 3-4 2c-2 0-4-2-3-4l2 1 1 1h2l-3-3-1-3c1-2 3-2 5-2 1 1 3 2 2 4h-2M126 477h-2v-2l7 2v2l-3-1-2 7h-2l2-8m2 9l6-9 3 1 1 10h-3v-2l-3-1-1 2-3-1zm7-2v-4l-2 3 2 1m6-3h-2v-2l8 1-1 2-2-1-2 8h-2l1-8m5 9l1-10 7 1-1 2-4-1v2l4 1-1 2-3-1-1 2 4 1v2l-6-1m11-4c0-3 1-5 4-4 3 0 4 2 4 5s-2 5-4 5-5-2-4-6zm4-2c-1-1-2 1-2 3 0 1 0 3 2 3l2-3c0-2 0-3-2-3m7 8h-2v-10h6v2h-4v2h4v2h-4v4m8-1l-1-9 2-1 1 10h-2m6-10c3-1 5 0 6 4s-1 5-4 5l-4 1-1-10h3zm0 7h1c2 0 3-1 2-3l-3-3-1 1 1 5m7 1l1-10 2-1 6 9-3 1-1-2-3 1v2h-2zm4-5l-2-3v4l2-1m5 3l-2-9 2-1 1 4 3-1-1-4 2-1 3 10h-3l-1-3h-2l1 4-3 1m7-7c-1-3 0-5 2-6 3-1 5 0 6 3s0 5-2 6-5 0-6-3zm3-5c-2 1-1 3-1 4 1 1 1 3 3 2s1-2 1-3l-3-3"/></g><path d="M167 343h7l2 1h2l2 1 3 1h2l2 1 2 1 2 1 2 1 2 1 2 2 2 1 1 1 2 2 1 1 2 1 1 1 2 3 1 1 1 2 2 2 1 1v1c1 1 0 2 1 1l1 2s0 2 1 1v2l1 1v2l1 1v3l1 1v2l1 1-1 1 1 1v1 4l1 2v2 2 3l-1 2v5l-1 1v4l-1 2-1 2v1l-1 2-1 1-1 2v2l-2 2-1 1v1l-2 2-1 1v1l-2 2v1l-2 1v1l-2 1-1 1-1 1-2 1-1 1-2 1-1 1-2 2h-2l-2 1-1 1h-1l-1 1h-2l-2 1h-1-1l-2 1a1 1 0 01-1 0h-1l-1 1h-6-1-1-3-5-3l-2-1h-2l-2-1-2-1h-2l-1-1h-2l-1-1-2-1-1-1-3-1-1-1c0-1-2 0-2-2-1 1-1-1-2-1l-1-1-2-1-1-2-2-1-1-2-1-1-2-3-2-2-1-2-1-2-1-1v-1l-1-2-1-2v-2l-1-2-1-2v-2l-1-2v-2-4l-1-3v-2-2l1-3v-2-3l1-1v-3l1-2v-2l1-2 1-2 1-3 1-1 1-2 1-2 1-1 1-2 1-2 1-1 2-2 2-2 1-1c0-2 2-1 2-2l2-2 2-1 2-1 1-1 2-1 2-1 2-1 1-1 3-1 2-1h2l2-1h2l2-1h7l2-1 2 1"/><path d="M189 393h-1v-1l1 1"/><g class="B"><path d="M166 344c-1 1-2 0-2-1 1-1 1 1 2 1m1 0c-1 1-1-1-2-1h1l1 1m2 0c-2 1-2 0-3-1l3 1m-5 0h-1l-1-1 2 1"/><path d="M170 344c-1 1-1 0-2-1l2 1m-7 0c-1 1-2-1-3-1l3 1m8 0l1 1-2-2 1 1m-10 0c-1 1-1 0-2-1l2 1m12 0v1l-1-1-1-1 2 1m-13 1l-2-1 1-1 1 2M175 345l-2-2 2 2m-16 0l-2-1h-1 1l2 1m16-1l1 1-1-1h-1 1m-18 1h-1l-1-1c1-1 1 1 2 1M177 346v-1l-1-1 1 2m-21-1c-1 1-2 0-3-1l3 1"/><path d="M179 346h-1l-1-2 2 2m-25-1l-1 1-1-1h2m26 0v1l-1-1h-1 2m-27 1h-1l-2-1a1 1 0 011 0l2 1"/></g><path d="M199 357a55 55 0 0112 70l-6 8a54 54 0 01-55 16 54 54 0 01-37-67c6-20 25-37 45-39 15-2 30 3 41 12" class="L"/><g class="B"><path d="M182 347l-2-2 2 2m-31-1l-2-1 2 1M183 347c-1 1-1-1-1-2l1 2m-33-1l-1 1-1-1h2M185 348h-1l-1-2 2 2m-36-1h-1l-2-1 3 1"/></g><path d="M169 346v2l-1-1h-1l-2 1h1c1 1 3 1 3 3l-1 2c-2 1-3-1-4 1l-1-2v-1l2 1 2 1v-2c-1-1-3 0-4-2l2-2h3l1-1"/><path d="M186 348v1l-2-3 2 2m-39-1h-2 2" class="B"/><path d="M178 348v2l-1-1v-1h-2v2l1-1v3l-2-1v2l2 1 2-1-1 2a45 45 0 00-6-1l-1-1 2-1 1-4-1-1 6 1"/><path d="M187 348v1l-1-2 1 1" class="B"/><path d="M157 348v1c-1 0-1-2-2-1l1 5c0 1 2 0 1 1l-4 1v-1c2 0 0-2 0-3v-2h-1c-1 0 0 2-1 1v-2l5-1 1 1"/><g class="B"><path d="M146 348h-3 3m42 1v1l-1-2c1-1 1 1 1 1M145 349l-3-1c1-1 2 0 3 1m45 1l-1-2 1 2M143 349h-2 2m48 1v1l-1-2 1 1M142 350h-3l1-1 2 1"/></g><path d="M185 351l1 6v1l-4-1v-1h1v-1l-2-1-1 1 1 1-3-1 2-1 3-4-1-1 3 2"/><path d="M193 352l-1-1-1-2c2 1 1 2 2 3m-52-2l-2 1-1-1h3" class="B"/><path d="M146 350l4 5h2l-2 1-3 1c0-1 2-1 1-2l-3 1v1h1l-1 1-2 1 1-2v-5s-1 1-1-1l3-1"/><path d="M194 353l-1-3 1 2m-55-1h-2 2m56 1v1l-1-2 1 1" class="B"/><path d="M183 351v3h-2v-1l2-2" class="L"/><g class="B"><path d="M138 352h-2 2m58 2l-1-1v-1l1 2M137 352c-1 2-2 1-3 1l1-1h2"/></g><path d="M147 354l-2 1v-3l2 2" class="L"/><path d="M197 355l-1-2 1 2" class="B"/><path d="M194 355h-1-1l-2 4 1 2 2-1v1c-2 2-3-1-5-2 0 0-2 0-1-1h1l2-4v-1l4 2"/><g class="B"><path d="M136 353h-3 3m62 3l-1-3c2 1 1 2 1 3M135 354h-3 3"/></g><path d="M140 355h-2l-1 1 1 2 1-2 1 2v1l-1-1-1 1 1 1 2-1v-2l1 1v1l-4 4-1-1v-1l-2-3h-2v-1l6-3 1 1"/><path d="M200 355v2l-1-3 1 1m-67 0h-2 2" class="B"/><path d="M201 374a46 46 0 016 13c4 17-2 37-17 48a44 44 0 01-47 2 44 44 0 0127-82c12 2 24 9 31 19"/><path d="M201 356v2l-1-1v-2l1 1m-69 0h-1-2 3" class="B"/><path d="M203 380c8 15 5 34-6 47a43 43 0 01-52 10c-10-5-18-15-21-26a43 43 0 0147-55c13 2 26 11 32 24" class="R"/><path d="M204 383a45 45 0 012 26 42 42 0 01-60 28c-14-7-23-21-23-36a42 42 0 0151-44c13 3 26 13 30 26"/><path d="M202 358v1l-1-1v-2l1 2m-71-1h-3 3m10 17h1v-1l1 1h-2m2 2v-1l1 1v1l-1-1" class="B"/><path d="M142 376v1h1l-1 1-1 1 1-1c1 1 0 2 2 2v1l-3 2-1-2h1v-2l-2-1h1l-1-1h0l1-1v-2l1-1v1s-1 0 0 0l1 1v1h1-1" class="O"/><path d="M130 393v-1 1" class="D"/><path d="M149 407v3l2 4h-4l-2-7h4m36 0v7l-6 1v-1c2-2 2-4 2-7h4m15 0l-1 2-1 2-2 2 2-6" class="S"/><path d="M136 371v-1-1c2 0 3 3 4 5h-3l1 5v2l2-1c1-2-1 0-1-2v-1-1l1-3h1l3 1 1 1-1 3-1 1 4 4a27 27 0 011 7l-4 2v11l1 3h4c0-5 2-10-2-14l7-7c2 2 3 3 5 3l3-1v-1c2-1-2 0-2-2-1-1 1-1 1-3h-1 1l-2-2h3-1l-3-1-2-3-1-6 1-1v3l1 3v-1 1l2 1v-2l1-7v4l2 1h1l1-2-1 4 1 1-3-2-1 1 1 4 2 2h2l-1-1c-2-1-2-3-2-4l1 2 3 1 1-1v-5h1v6l2-1c2-2 1-5 1-7h1v5l1-1v-4l-3-2c-6-3-14-3-19 2l2 2c1 2 0 3-1 4h-2l1-3c-1 1-2 3-3 2l-5-4 1-3c3-5 9-8 15-9s12 1 17 4l4 2v-2l5 1-2 1 4 1v7c-3 3-6 0-9-1v4h-1l-1-3-2 1-4 4-4 2 4-1-1 2-1 1c-2 0 1 1 0 2l1 4 1 1 6-3 5 5 2 3c-2 1-2 3-2 5v8h4l1-1v-9l1-4-1-3-1 1-1 1-1-1v-4l1-2c0-1 0-3 2-4l-1-1-1-1-3 2-2 1 1-1c2-3 4-5 7-5l3-3h3v1l1 1h1l-2 4 1 1 2 2 2 3 1 1v4l2 5 1 2-2 2-1 4-1 4h2v-2c2-1 0-4 2-5v-2-6l1-2v-2l2-1-2-5-4-7a42 42 0 00-75 16l1-1 3 1-1-1h-1l-1-1 1-1v1l1-1-1-1v1-1c1-1 1 1 1 1v-1l1 1v1h0l-1-1 1 1-1 1v-1 1l1 1v-2 1h3l-1 1-2-1v1h2-1l-1 1 1 1v1l1 1v-2-1l1 1v-1h-1 1v-1h-1v-1l1 1v-2l1 1v-2c1-1 0 1 1 1h-1l1 1v-2h1l-1 2h-1c1 1-1 1-1 2h1v-1h1l-1-1 1 1v2h1v1l-1 1-1-1v-1l-1 1h1l-1 1v1h-1l2 1h-1v1l1-1v-2 1l1-1v1h1l1 1h-1v0h-1 1l-1 1 1-1v1l-1 1h-1v1l-1-1v1h-1v1l1-1h1v1c-1 0 0 0 0 0v1l-1-1h-1 1l-1 2h-1l2 1h-1l1 1v1l-1-1v1l1 1h-1 7v-1l-2-2c2-1 0-3 1-5-1-3 0-6 2-8v-2l-2 1h-1l-1-3c1-2 1-5 3-7v-6l-1-1c-1 0-1 0 0 0v-1" class="P"/><path d="M137 407v7h-5c0-1 0-1 0 0l-1-1h1-2 2l-2-1 1-1-2 1h2-2v-1h1l1-2-1 1h-1l1-1h-1v-2l1 1h1l-1-1 2 1-1-1h6" class="S"/><path d="M132 401h1v-1h1v-1h-2 1v1h-1v1"/><path d="M144 403l-1-2v2-3l1 2v1" class="F"/><path d="M199 409l1-1 1 1-1 1h1c0 1 0 0 0 0v-1c1 1 1 2 2 1l1 1v-2l-1 1-1-1-1-1c0 1 0 0 0 0v-1l2-1h2v2a3 3 0 00-2 0h1v1h2l-1 1-1 1 1-1v2h-2l-1-1-1 1h2l-1 1-1-2-1 1h-1v-2h1l-1-1" class="H"/><path d="M195 374h-5l-1 1 1-2-2 3v-1l2-2c1-1 2 1 4 1h1" class="C"/><path d="M166 379v-1c1 0 0 0 0 0h1l1-1-1-1v1l-1 1-3-2 2 2 1 1" class="H"/><path d="M166 379h-1l-1 1 1-1h1v2l1-1v1l1-1 1-1h-1l-1 1h-1v-1" class="E"/><path d="M137 371h-1l1-1v1l-1-2 2 1v2l1 2-3-2 1 1-1-1 1-1" class="F"/><path d="M203 358v2l-1-1v-2l1 1m-73 0h-2-1 3" class="B"/><path d="M183 366h3v5c0 2-2 2-4 1l-4-1v-2l-1 1c-1-1-3-1-3-3l1-1-1 1-1-1v-1h1v1l1-1h-2l1-2 1 2 1-1-3-2v1l-1 2h-1v1l2 1v1l-3-2c-6-2-14-2-18 2-2 1-4 3-4 6l-4-3a4 4 0 010-3c1-4 5-6 9-8l3-1c7-2 15 0 21 4l6 3" class="F"/><path d="M129 359h-3 3m75 2l-1-1 1-1v2" class="B"/><path d="M162 361l-1 1-1 1h1l-2 1v-1-3c1 0 2-1 3 1m3-1v0l-2 1v1h1v-1 1h-1v1h2v1h-3l1-1v-3h-1 3"/><path d="M128 360h-3 3m77 0v2l-1-1 1-1" class="B"/><path d="M133 362v1h2l1-1v2l-2 1-2-1-1 1 2 1h1l-3 3h-1v-2l-3-3-1 1v-1c2-1 3-4 5-4l2 2"/><path d="M161 361v1h-1v-2l1 1" class="F"/><path d="M169 361l-1 1-1 1 1 1h1c0 1 0 0 0 0l1-2v-1l1 1h1v2h-2v1l-1-1h-2v-2l-1 2h1-2l1-3v-1l3 1"/><path d="M168 361l-1 1v-1h1" class="F"/><path d="M127 361l-3 1 3-1m79 2v-2 2" class="B"/><path d="M156 362v2l-1 1-2-2v-1l2-1 1 1"/><path d="M156 362v2h-2v-2h2" class="F"/><path d="M204 365l1 2c-1 2-2 3-4 3s-4-2-4-4v-3l4-2 3 4"/><path d="M131 362v2l-2-2 1-1 1 1" class="L"/><path d="M126 362l-3 1c0-2 2-1 3-1" class="B"/><path d="M172 362l-1 2-1-1 1-1h1" class="F"/><path d="M207 363v1-2 1" class="B"/><path d="M152 363h-1l1 2h1l-1 1-2-3v1c-1-1 1-1 2-2v1"/><path d="M184 363l-3 1v-1h3" class="F"/><path d="M122 364l1-1h2l-3 1" class="B"/><path d="M203 364v2l-4 2-1-1 1-3 3-1 1 1" class="L"/><path d="M208 364v1-2 1" class="B"/><path d="M186 365v1c-2 1-4-1-5-1v-1l5 1" class="F"/><path d="M149 365h-1v1h2v1l-1 1v-1h1v-1c-1-1-2 2-3 0l1-1v-1l1 1"/><path d="M124 364l-3 1 3-1" class="B"/><path d="M179 366l-1 1v-2l-2 3 1 1-2-1 2-3h-1v-1l3 2"/><path d="M209 365v2l-1-1 1-2v1m-86 0l-3 1 3-1m87 2v1l-1-1 1-2v2" class="B"/><path d="M181 367h-1l-1 2 1 1c1-1 2-2 1-3h1v1c-1 0-1 3-3 2l-1-1 1-3 2 1"/><path d="M174 371h4l-1 2v1l-1-2h-2l-2 3 1-2c2-2 1-4 0-6v-1l1 5" class="H"/><path d="M126 368h-2l-1 2 2 3h2l1-1-1-2-2 1 2-3 2 2c0 2-1 4-3 5-1 1-3-1-4-2v-3l2-4 2 2"/><path d="M122 366l-3 1 3-1" class="B"/><path d="M147 367h-1l-1 1 1 1 1-1h-1 1v1s1 0 0 0h-1l2 1v-2l1 1-2 2-2-2h-1l2-2h1"/><path d="M211 369h-1v-2l1 2" class="B"/><path d="M184 368l1 3h-1v-1l-2 1s1 0 0 0h-1l2-3h1"/><path d="M121 368l-2 1v-1h2m91 1l-1 2v-3l1 1" class="B"/><path d="M184 370h-1l1-2v2" class="F"/><path d="M211 374l-2 1 1-2-1-1-2 1v1h1l-2 1v-2l-2 1v1l-2-3h2l3-2 1-2 3 6"/><path d="M120 369l-1 1h-1l2-1" class="B"/><path d="M160 370v-1 1" class="H"/><path d="M152 371l-4 3v-2l3-3 1 2" class="F"/><path d="M212 372v-1-2 3" class="B"/><path d="M177 371h-2v-1l2 1" class="P"/><path d="M119 370l-2 1 2-1" class="B"/><path d="M160 371v6l-1-1-1-1h1l1-4v-1 1" class="H"/><path d="M213 371v2-2" class="B"/><path d="M153 371c0 2-1 3-2 3v-2l2-1" class="F"/><path d="M163 372v-1 2l-1-1-1-1h1l1 1m9 1v-2 2" class="H"/><path d="M119 371c-1 2-2 1-3 2 0-2 2-2 3-2" class="B"/><path d="M157 375l-1-1v-2l1 3" class="H"/><path d="M191 372h-1 1" class="C"/><path d="M214 372l-1 2 1-2" class="B"/><path d="M193 372h-1 1" class="C"/><path d="M117 374h-2l3-2-1 2" class="B"/><path d="M171 376l-1 1h-2l3-2 1-2-1 3" class="H"/><path d="M138 373h-1 1" class="F"/><path d="M215 374l-1 2v-1-2l1 1" class="B"/><path d="M167 376l1-2v2h-1" class="H"/><path d="M162 380l-1 1 1-1" class="E"/><path d="M162 379v-1h-3l-2-1v-3 1l1 2 5 1v2l-1-1" class="H"/><path d="M117 374l-2 1 2-1" class="B"/><path d="M193 375l-1 3h-1l1 1h-1l-1-1 1 1v1l-1-3-1-1v-1l1 1v-1h3" class="O"/><path d="M143 375h-1v-1l1 1m1 0l-1-1 1 1m71 0v2l-1-1 1-1" class="B"/><path d="M192 375l-2 1v-1h2"/><path d="M144 375l1 1-1-1" class="B"/><path d="M193 375h-1 1v1h-1v-1h1"/><path d="M114 377l2-2-2 2" class="B"/><path d="M141 375h-1 1"/><path d="M186 378l2 4h-1l-1-3v-1" class="E"/><path d="M186 378v-2l1-1c-3 1-5 2-7 5l4-3 1 1h1" fill="#b9b9b9"/><path d="M189 376v0m-48 0h-1 1"/><path d="M160 377h-2v-1l2 1m28-1c0 1 2 1 1 2l-2 1-1-2 2-1" class="P"/><path d="M216 377l-1 2v-2l1-1v1" class="B"/><path d="M191 376v1-1"/><path d="M115 377l-1 1 2-2-1 1" class="B"/><path d="M193 377c-1 0 0 0 0 0h-2 2m-3 0"/><path d="M144 377h-1v0h1m0 0" class="B"/><path d="M192 377v0"/><path d="M217 378l-1 2v-2h1m-102 1h-2l2-1v1" class="B"/><path d="M190 380l1 1h-2v-3l1 2m2 1l1-1v-1l-2 2h1" class="C"/><path d="M192 381h-1v1h1v-1" class="R"/><path d="M217 379l-1 3v-2l1-1" class="B"/><path d="M142 380v-1 1"/><path d="M115 379l-2 2 2-2" class="B"/><path d="M194 380l-1-1 1 1" class="R"/><path d="M138 379l-1 1h1v1l-2 3v3l1 1v-1-4 2l1 1-2 3h-1c-1-3 1-5 1-8l2-2" class="O"/><path d="M164 379" class="E"/><path d="M188 380v-1 1" class="R"/><path d="M161 380h-1v-1l1 1m4 1l-1-1c1-1 1 0 1 1" class="E"/><path d="M189 381l-1-1h-1l2 1" class="R"/><path d="M163 381v-1 1" class="E"/><path d="M114 382h-2v-1l2-1v2" class="B"/><path d="M166 382h-1v1h-1v0l1 1 1-1v1h1v3c1 0 0-2 1-1v1l1-2v2s0 1 0 0l1 1-5-2-2 1 1-1v0h1v-1l1 1s0-1 0 0l1 1v-2h-1v-1 1l-1-1-1 1v-1l-2 1h-1l1-1h-2v-1h1l1 1h1v-1h-1 1v-1h-1l2-1c1-1 1 1 2 1" class="E"/><path d="M189 382l-1 1c-1-1 1-1 1-1h-2v3l-2 1-1 1h1l-1-1-1 1v3l1 1 3-3 1-3 1-1v-1h-1 1v-1" class="O"/><path d="M189 382h-1v-1l3 1h-1l1 3v-1-1l1 2v-1-1-2l2-1c1 0 1 2 2 1l1 3 1 1c1 1 0 1-1 1v-1l-1 2v-2l1-1h-1v-1l-1-2 1 4-2-3v2l1 1v1h-1 1-2a1 1 0 000-1v1l2 1v1l-1 1-1-1v1h2v2h-2l1-1-1 1-1-2v2h-1l1-1-1-2v-4 4l-2-4v-2m-6 5v-1l1-1h-1 1v-1l1-3 2 1-1 1v1h-1l1 1h-1v1c1 0 0 0 0 0h-1-1v1" class="C"/><path d="M218 381l-1 2v-1-2l1 1" class="B"/><path d="M167 381h-1v1l-1-1h2" class="E"/><path d="M140 384a2 2 0 002 1h-1l-1 1v-1l-1-3v-1l1 3m4-3h-2 2M141 381"/><path d="M162 381v0" class="E"/><path d="M165 381l-1 1h-1l2-1"/><path d="M141 396l2-3 5-3-1-7-2-2v3l1 5c-2 2-5 2-6 5v3h1v-1" class="O"/><path d="M141 397v-1l2-3h1l-1 5h-2v-1h-1l-1 1v1l-1-10v-1l2-2-2 1h0c0-2-2-6 1-7l2 3 4-2v1l-1 2v5l-1-1c1-1 2-1 1-2l-1 1-1-1 1 2v2h-4v1l1-1h1v1l1-1v1l-2 5v1h1" class="F"/><path d="M139 399h1v-1h-1l1 1h-1" class="B"/><path d="M138 383v-1 1m3 1l2-1-2 1h1l-1-1-1-1 1 2"/><path d="M167 382h-1v0h1" class="E"/><path d="M112 384c-1-1 1-1 2-2l-2 2" class="B"/><path d="M168 382v1l-1-1h1" class="E"/><path d="M164 382l-1 1 1-1"/><path d="M218 382l-1 3v-2l1-1" class="B"/><path d="M191 382v2l-1-1 1-1" class="R"/><path d="M167 383v0" class="E"/><path d="M192 383" class="R"/><path d="M144 384h-2l2-1v1"/><path d="M167 384l-1-1 1 1" class="E"/><path d="M111 385l1-1 1-1c1 1-1 2-2 2" class="B"/><path d="M161 384v-1 1m3-1l-1 1v-1h1"/><path d="M168 385v-1 1" class="E"/><path d="M219 384l-1 2v-2h1" class="B"/><path d="M165 384h-1 1"/><path d="M189 384l3 6h-1l-2-5v-1" class="E"/><path d="M131 385v1l-2 2v-1h-1l1-2h2"/><path d="M131 385l-1 2v-1h-1v-1l1 1v-1c-1 0 0 0 0 0h1" class="F"/><path d="M113 386l-2 1 2-2v1" class="B"/><path d="M164 385h1-1zm31 0h-1 1m-3 0"/><path d="M218 388c-1-1 0-2 1-3l-1 3" class="B"/><path d="M143 388v1l-1-1-1-3 2 3m49-3a2 2 0 010 1v-1m-63 1"/><path d="M163 386l-1 1 1-1" class="E"/><path d="M112 387l-1 2c-1-2 1-2 1-3v1" class="B"/><path d="M129 387s1 0 0 0v-1 1" class="D"/><path d="M198 387v1h1c1 3 0 5 2 7v1l-1 1v-1 1l-2-6-1-2v-2h1" class="O"/><path d="M219 387c1 1 0 2-1 2l1-2" class="B"/><path d="M205 387l1 5h-1l1 1v-1 3l-1-1v1h1l1 1v4h-1v1l1-1-1-1-1 2 1 1 1 1-2-1v1l1 1v-1 4l-1-1h1v-1l-1 1-1-2-1 1h1-1 0l-1-1 1-3h2l1-1v-1h-1l1 1h-1 1-1l-1-1-2-1 1-2h1l-1-1h1-1-1l1-2s1 0 0 0v-2c0 1 2 0 1 1v-1c1-1 2-2 1-3v1l-1-2h1" class="H"/><path d="M144 390v-1l1-2v1l-1 2" class="P"/><path d="M190 388l1 3-3-1v1h-1 1l-1-2 2 1-2-2 1-1 1 1v-1l1 1" class="C"/><path d="M134 387h-1 1" class="D"/><path d="M140 388h-1c2 1 3 0 4 2h-1v-1h-3v-1l1-1v1"/><path d="M127 387v1l-1 1v-1c-1 0 0 0 0 0l1-1" class="F"/><path d="M195 406l1-10c0-2-3-4-1-5l1-3h1l2 7 1 2-3 9h-2" class="P"/><path d="M197 407l-2 5v1h-1l-1 2v-2l2-3v-3h2" class="S"/><path d="M192 388"/><path d="M110 390l1-1 1-1c1 1-1 2-2 2m109-2c1 1 0 2-1 3l1-3" class="B"/><path d="M147 389h-1 1m45 0"/><path d="M205 389l-1 1h-1l1-1h1" class="H"/><path d="M130 389h-1 1m-4 0l-1 1 1-1" class="D"/><path d="M141 390l-1-1 1 1"/><path d="M128 390l-2-1 2 1m4-1l-1 1 1-1" class="D"/><path d="M112 391l-2 1c0-2 1-2 2-2v1" class="B"/><path d="M126 390l-1 1h-1v1h2-2 1l-1 1v2c0 1 0 0 0 0v1-3c0-1-1-3 1-3h1" class="D"/><path d="M220 391l-1 1c-1-1 0-1 1-2v1" class="B"/><path d="M128 391h-2v-1l2 1" class="D"/><path d="M143 391h-1v-1l1 1" class="F"/><path d="M137 399h1-1" class="B"/><path d="M137 399h-1 1l-1 2v-7l2-4v9l-1-1v1m-5-8c1 0 0 0 0 0h1v1l-1-1v0s0-1 0 0" class="F"/><g class="D"><path d="M126 391h-1 1M125 391"/></g><path d="M134 391c0 1 2 2 0 2v-1-1"/><path d="M111 392l-1 1c-1-1 1-1 2-2l-1 1" class="B"/><path d="M131 391l1 1-1 1v-2" class="D"/><path d="M132 391"/><path d="M127 391v1h-1l1-1s0 1 0 0m1 1v-1 1" class="C"/><path d="M220 392l-1 2c-1-1 1-2 1-3v1" class="B"/><path d="M127 392v1h-1v-1h1" class="C"/><path d="M133 392h-1 1" class="D"/><path d="M128 393v-1 1l1-1-1 1v-1 1m-2 0v1l-1-1v-1l1 1" class="C"/><path d="M133 393h-1l1-1v1" class="F"/><path d="M110 395c-1-2 1-2 1-2 1 1-1 1-1 2" class="B"/><path d="M133 393" stroke-width=".1" class="J K"/><path d="M220 394l-1 1c-1-1 1-1 1-2v1" class="B"/><g class="C"><path d="M127 393v3 1h-1l1-2-1-1s0 1 0 0c1 0 0 0 0 0v-1h1M128 394v-1 1m1-1"/></g><path d="M130 393" class="D"/><path d="M205 394h-1v-1l1 1"/><path d="M125 394v-1 1" class="C"/><path d="M128 394h1v-1h-1v1zm-8 1a36 36 0 000 5h-1-2l2-1v-1h-5c-1 0 0 2-1 1v-4l1 1h5a2 2 0 000-1l-1-1 2 1"/><path d="M131 394h-1 1" class="D"/><path d="M130 394h-1 1" class="C"/><path d="M127 394"/><path d="M110 396c-1-1 1-1 1-2 1 1-1 2-1 2" class="B"/><path d="M124 394h1-1z"/><path d="M126 394h-1 1" class="C"/><path d="M217 396l-1 6-4 1-2-2c0-2-1-4 1-6l4-1 2 2"/><path d="M129 394h-1 1m0 1l1-1v2h-1 1l-1 1v1-2 0s-1 0 0 0v-1-1 1" class="C"/><path d="M177 395l-1-1 1 1" class="D"/><path d="M219 397c-1-1 1-2 1-3 1 2 0 2-1 3" class="B"/><path d="M125 395v-1l1 1h-1 1v1c-1 0 0 0 0 0l-1 1h1l-1 1v-1-1c0 1 0 0 0 0v-1c0-1 0 0 0 0" class="C"/><path d="M131 395h-1v-1l1 1" class="D"/><g class="C"><path d="M129 395h-1 1m1 0M128 396v-1 1"/></g><path d="M133 395v0" class="D"/><path d="M110 398c-1-2 0-2 1-3 1 2-1 2-1 3" class="B"/><path d="M140 396v-1 1m1 0v1-2 1"/><path d="M177 396" class="D"/><path d="M201 396" class="O"/><path d="M141 397v-1 1m65-1h-1-1 2"/><path d="M124 396c1 0-1 1 0 0v1l-1-1h1" class="C"/><path d="M219 398v-1l1-1c1 1 0 2-1 2" class="B"/><path d="M133 396v1h-1 0v-1h1" class="F"/><path d="M140 397v-1 1"/><path d="M127 397v-1 1" class="C"/><path d="M216 397v3h-4l-1-1v-2l4-1 1 1" class="L"/><path d="M132 397v-1 1" class="F"/><path d="M124 397v1h-1v-1h1-1s1 0 0 0h1m3 0h0v0" class="C"/><path d="M206 397h1v1l-1 1v-2"/><path d="M130 397v0" class="C"/><path d="M111 397l-1 2c-1-1 0-2 1-2" class="B"/><path d="M131 397v1l-1-1h1" class="C"/><path d="M205 398l-1 1v-1h-1l1-1 1 1"/><path d="M131 397v0m-3 0v1h-1l1-1" class="C"/><path d="M220 397c1 2 0 2-1 3l1-3" class="B"/><g class="C"><path d="M128 398h-2l-2 3v4-6h-1l1-1v1c1 0 2-2 3-1h1m4 0h-1 1m-2 0M124 398h-1 1m2 1v-1 1"/><path d="M128 418v-10-1 1h-1l1 1-1-1v1h1v9c-2-2-1-5-1-7v-3l-1 4a34 34 0 010-6v2l1-1v-2l-2 2v4l1-3v-2 8c-1-2-2-4-1-6v-7h-1l1-1v-1l1 1 2-1a1 1 0 01-1-1l1 1h0-1v1h1v0l2-1v1h-1l-1 2h2l-2 1h1s0 1 0 0l-1 1v-2h1v-2l-1 2-1 2v-3l-1-1 1 1-1 4 1-1h2v-1l1 1-2 1v2h0v7l1-2v1l-1 3 1 3-1-1"/></g><g class="D"><path d="M128 418l8 12h1l-1-1 1-1h-2l2-3 1-1 1-1 1 1c1 1 2-1 3-1h3l3-2c-1 0-3 1-3-1l-2 2-1-1-3-1-1 2v-2h-2-1l1-1 1-2h-1v-1l-1 1h-1l1-1h-1v-1h-1a1 1 0 010 1h-1c-1 1 1 0 2 1v1h-1l-1-1v1l-2-1 1 1h-1l-1 1h-1v-1 1l-1-1"/><path d="M129 418v-1l2-1h-2l1-1h1a7 7 0 01-1-1l-1 1v-1h1l-1-2 1 2 1 1 1-1v1h-1v1h2v1h-3v1h-1"/></g><path d="M110 401c-1-2 0-2 1-3 1 1-1 2-1 3" class="B"/><path d="M123 399v-1 1z"/><path d="M196 413l3-12 1-3-1 2-3 12v1" class="E"/><path d="M196 413a1 1 0 000 1h2l-1 4h-1v-1l-2 1-1-2 1-3 1 1v1l1-2" fill="#b9b9b9"/><path d="M133 400v1h-1" class="F"/><path d="M143 399h-1 1" class="B"/><path d="M134 399c-1 0-1 0 0 0l-1 1v-1h1" class="F"/><path d="M141 399s-1 0 0 0" class="B"/><path d="M143 400v-1 1" class="F"/><path d="M191 401l1 4c0 1 2 2 0 2v3l-1-2v2l1 1h-1v1h3v-1h-1 1-2 1l1-2v-1l-1 1 1-4v2l1-2-1-7 1 3v-5l-1-2 1 1v-1l-1-1h1c0-1-2 0-1-1v-1l-6 1c-1-1-1 1-1 1l-1 2v11 4l-1-1v2l2 2-1-1-1-1v1l2 1 1-1h-1 1v-1l-1-1h2v-1h-1l1-3v-1l-1 3v-2l2-4-2 2 3-5v2" class="C"/><path d="M190 407a19 19 0 01-1 2v2l-1 4h2v-3l1-3v-2h-1" class="S"/><path d="M191 406v-5l-1 5h1" class="P"/><path d="M143 399h-1v1l-1 3 3 1v7-1l-1-5v2c-1-1-2-1-1-2v-1c-1 2 1 3 1 5l3 9 1 1-1-2-1-6-1-5c1 4 1 8 4 12l1 2-2 1v-1l-4-3-2-8v2c1 3 1 6 3 8l1 1h-3v-1l1 1-1-4-2-10v11l-1-11v-3-4l1 1s0 1 0 0l1-1h2" class="F"/><path d="M128 399v0" class="C"/><path d="M220 399c1 1 0 2-1 2l1-2" class="B"/><path d="M138 400v-1 1" class="F"/><path d="M203 399l1 1-1 1-1 2h-1l1-2v0l-1-1c1 0 1-2 2-1" class="H"/><path d="M193 404v-1l-1-2 1 2-1-1v-3l1 5"/><path d="M140 400v-1 1" class="B"/><path d="M160 400h-1 1" class="D"/><path d="M127 400"/><path d="M110 402c-1-1 0-2 1-2 1 1-1 2-1 2" class="B"/><path d="M130 400h-1 1m-4 1v-1 6h-1v-6h1v1"/><path d="M138 403h-1v-3l1 3m-1 0l-1-2 1-1v3m6 0h-2l1-3 1 3" class="F"/><path d="M131 400v1h0v-1"/><path d="M130 401h-1l1-1v1" class="D"/><path d="M220 400v2l-1 1 1-2v-1" class="B"/><path d="M132 402l-1-1s0 1 0 0l1 1"/><path d="M110 404v-1l1-2-1 3" class="B"/><path d="M120 402v4l-1-1h-2v3h3v-1l1 3v1l-1-1-5 1-1 1v-4s0-1 0 0l1 1 2-1v-1l-1-2-2 1v1l-1-1v-3h6c0-1 0-2 1-1"/><path d="M157 402" class="F"/><path d="M127 402" class="J K V"/><path d="M157 402h-2s0 1 0 0h2" class="F"/><path d="M220 402c1 1 0 2-1 2-1-1 1-1 1-2" class="B"/><path d="M136 403v-1 1" class="P"/><path d="M204 402v2-2"/><path d="M130 403h-1 1" class="D"/><path d="M110 405v1c-1-2 1-2 1-3 1 1 0 2-1 2m28-2h-2 2m6 0h-3 3" class="B"/><path d="M202 405l-1 1h-1l1-1v-2l1 2" class="H"/><path d="M220 405a5 5 0 01-1 1c-1-1 1-2 1-3v2" class="B"/><path d="M138 418l-2 2 2-1v-1" class="O"/><path d="M138 418l-1-14h1l1 9-1-7-1-2 1 14h1v1l-1-1" class="F"/><path d="M140 407l-1-3 1 3"/><path d="M110 407c-1-1 1-2 1-2 1 1 0 1-1 2" class="B"/><path d="M130 405h-1 1" class="D"/><path d="M211 406l5 1v-1 4h-1a1 1 0 000-1l-2-1-1 3 1 1 2-1-1 4-1-2-4-1-1 1 1-4 1 2 1-1 1-2h-2l-1 1v-1l1-3 1 1m-83 1h-1l1-2v2"/><path d="M130 405v1h-1s-1 0 0 0l1-1" class="D"/><path d="M220 405l-1 2h-1l1-1 1-1" class="B"/><path d="M141 406l4 12 2 2-3-3v-1l-3-10"/><path d="M131 406l-2 1v-1h2" class="D"/><path d="M110 409l1-3c1 1 0 2-1 3" class="B"/><path d="M200 407v-1a1 1 0 010 1" class="H"/><path d="M220 407l-1 2h-1l2-2m-108 2l-1 1c-1-1 0-2 1-2v1" class="B"/><path d="M203 408h-1 1"/><path d="M219 410h-1v-1l2-1-1 2" class="B"/><path d="M202 409"/><path d="M111 412c-1-1 0-2 1-3 1 1-1 2-1 3m108-2c1 1-1 1-1 2h-1l2-2" class="B"/><path d="M127 411v-1" class="J K V"/><path d="M112 412l-1 1 1-2v1" class="B"/><path d="M129 411" class="D"/><path d="M127 411v5l-1-1 1-4" class="C"/><path d="M130 411" class="D"/><path d="M140 421h-1v-10l1 10" class="E"/><path d="M219 411c0 2-1 2-2 2l1-1 1-1" class="B"/><path d="M122 412l2 6-2 1v-2l-1-2-1 1 1 1h1l-3 1 1-1-1-1c-1 1-3 1-2 2l1 2h1l-2 1-2-7 1 1 5-2v-1h1"/><path d="M203 412" class="H"/><path d="M112 414v-2 2" class="B"/><path d="M199 413s0-1 0 0h-1v1l1-1v0h1l1-1 2 1 1-1-1 1h1v2c-1-1-4 1-3-2l-1 1-1 1h2v1h-1l1 1-1-1v2l-2-2c0-1 2 0 1-2v1l-1-1-1-1h2" class="H"/><path d="M193 412h-1 1"/><path d="M141 412l1 7-1 1h-1v-2 2l1-1v-7" class="F"/><path d="M192 414v3l-1-1 1 1h-1v1h-1v-1s1 0 0 0v-1-1l1-3 1 2" class="E"/><path d="M127 415v-2" class="J K V"/><path d="M218 414l-1 1c-1-2 1-1 2-2l-1 1" class="B"/><path d="M126 415v-1-1 2" class="C"/><path d="M113 413l-1 3c-1-1 1-2 1-3" class="B"/><path d="M186 414h2c-1 1 1 3-1 3v1h-1v-5 1" class="E"/><path d="M203 415v-2 2"/><path d="M113 415l-1 2 1-2m105 0v1h-2l1-1h1" class="B"/><path d="M151 415h-1 1m-1 0h-1 1m32 0h-1 1m3 0h-1 1m-2 0" class="D"/><path d="M203 415h-1 1" class="H"/><path d="M137 415h-1 1m43 0h-1 1m10 0h-1 1" class="D"/><path d="M192 415v1c0-1-2 0-1-1h1"/><path d="M179 415v1h-1l1-1m5 0l-1 1v-1h1m-33 1h-1 1m32 0h-1v-1l1 1" class="D"/><path d="M203 416v1h-1v-1h1" class="H"/><path d="M185 416h-1 1m-4 0h-2 1l-1 1-1-1h3" class="D"/><path d="M189 416h-1 2v1l-1 1 1 2 1-1c0 2 2 2 3 2l-1-2-1-2 1-1 1 3h1v1h1v1l1-1h-1l-1-1v-1h1v1h-1 1l1 1v-1h1v-2l1 1-1 1h1l1 1-1-1 2-2 1 1v1l-1 1v-1l-1 2h-1 2l-1 1v-1 1h-1-1l-1 1 1-1 1 1v-1l1 1-1 1-1-1v1l-1 1 1-1v2l-2-1v-1a1 1 0 01-1 1v0l-1-1v-1h1-1-1v1l1 1s-1 0 0 0h1v1h2l-7 7v-1h1l1-1-2-2 1-3c1-1-1-1-1-1l-3-2-5-1-1-2 2-2 1-1h1l-2-1h2v1c1 1 0 2-1 3l-1 2 3-1h2v-4-1h1" class="H"/><path d="M129 416" class="D"/><path d="M149 416h1l-1 1 2-1v1h-2 1v1h2-2 2-1v1h2-2 1l1 1h-2l2 1h-1l-1-1v1l3 2-2-2h-1l3 3-3-2c1 1 3 2 3 4l-3-3c1 1 3 2 3 4l-2-2c2 2 4 4 3 7v1l-1-1h1v-1l-1-3v1c-2-2-4-4-7-4h-5l2-1c-2 0-3 1-3 2l-1 1c0-2 2-3 3-4l7 1-2-1h-1 3l-2-1h1v-1h2-2 1v-2 1-1h-1v-1-1 1h-1v-1s1 0 0 0v1-1h-1v-1h2" class="C"/><path d="M114 416l-1 2c-1-1 0-1 1-2" class="B"/><path d="M137 416h-1 1m41 0" class="D"/><path d="M183 416v1l-1 1v-1 1-1 1h-1v1l-1-1 1 1h-1l1 1-2-1 2 1h-2 1l-1 1h0l2 1h-2 2l-3 1h4l-3 1 1-1h4c-4 0-7 2-9 5l3-4-3 3c0-2 2-3 3-3h-1l-1 1 2-2-2 1 2-2h-2v1l2-2h-1l1-1h-1l2-1h-1 0l2-1h-1l1-1h-1 2l-1-1h1l1 1v-1h-1 2" class="C"/><path d="M138 416h-1 1m14 0h-1 1" class="D"/><path d="M218 416l-2 2v-1l2-1" class="B"/><path d="M214 416l-2 4v-1h-1l-1 3v1l2-1-2 3-1-3-2-2h-2l2-3h6l1-1"/><path d="M159 428l-1-1 1 1m6 12v-3l-1 2v-1h-1v2l-1-1 1-5-2 5 1 1h3" class="C"/><path d="M166 440h1l2-1h1l1-1v-1h3l-2-1h1-2 1l-2-1v-1l1 1-1-1 1 1v-1l-2-2v-1l1 1v1l-1-3h1l1 2-1-2h1l1 1-1-1h1l-1-1v-1 1l1-1v1-1-1l1 1 1-1v-1l1 1v-2-1-1s1 0 0 0v-1h-1v-1h1l-1-1-1 1 1-1v-1h1-2l4-3 1 1h-1 1l-2 4-1 3v5l-2 1 1 1 1 1h-1 1l1-1h-1 0l1-1v2l-1 1-1 1h-1v-2 3h1l-1 1h2l-1 1-1 1h2v2l-9 1c-6 0-12-1-16-3h2v-1h2l1-1h1v-1s0 1 0 0h-1 1l-1-1s0 1 0 0v-5-3-1l-1-2-1-2v-2l-2-2h2v1h2l1 1-1 1 1-1-1 1h1l-1 1v2c0 1 0 0 0 0v3h1v2h1v1h1v0h1v-1 0h1a3 3 0 01-1 1l1-1 1 1-1 1-1 1 1-1h1l-1 1c1 1 0 2-1 2l-1 1 2-1-1 2v1l-1-1 1 1h-2l1 1h-2 3s0 1 0 0v-1 2h-1 1-1 2l-1 1h1l1 1h1l1 1 3-1" class="D"/><g class="C"><path d="M161 439h1v-5l-1 1 2-1h1l-1 3h3l1-1h-2l-1 1c-1 0 0 0 0 0s0-1 0 0l1-3-1 2v0-1-2h-1s0 1 0 0h-1l-1 4-1 2 1-2v2m4 1h2l-1-3v3l-1-3v3m5-1l-2-6h1v1h1-1v1l1-1v2s0-2-1-1l1 3v1m1-11a1 1 0 000-1h1-1v-1h1v-1 2l-1 1M173 427v-1h-1l1 1v-1a7 7 0 010 1m-13 1l1-2-1 2M160 428l-1-1v1-1h1v1m-3 0v-1h1v-1h-1 1c1 0 0 0 0 0v3l-1-1m0-1v-2 3-1m-1-1v-2h1l-1 1s0-1 0 0v1"/></g><path d="M127 417v-1" stroke-width=".1" class="J K"/><path d="M179 417h-1 1" class="D"/><path d="M153 417h-1 1"/><path d="M113 420l1-3c1 1 0 2-1 3" class="B"/><path d="M137 417h-1 1"/><path d="M217 419h-2l1-1 1-1v2" class="B"/><path d="M177 418h-1 1"/><path d="M187 418v0m0 1h-1l-1 1h1l-1 1-1 1h-1l2-2 1-2 1 1m5-1v0" class="E"/><path d="M201 419l-1-1 1 1"/><path d="M114 421c-1-1 0-2 1-3l-1 3" class="B"/><path d="M210 419l-1 2-2-2h3" class="L"/><path d="M217 419l-2 1 1-1h1" class="B"/><path d="M157 419l-1 1 1-1" class="C"/><path d="M189 419v1-1m9 1v-1 1"/><path d="M167 419l-2 2 2-2" class="F"/><path d="M157 420c1 0 0 0 0 0" class="C"/><path d="M189 420h-1 1"/><path d="M115 422v-2 2" class="B"/><path d="M157 420l-1 1h-1l1-1h1m15 0v1l-1-1v1h-1-1v-1h3m1 0" class="C"/><path d="M200 420h-1 1"/><path d="M193 420c0 1 0 0 0 0" class="E"/><path d="M158 420h1-1m2 1h0l-1-1v0h1v1m13-1h-1l1 1h-1v-1h1" class="C"/><path d="M216 421l-2 1 1-1 1-1v1" class="B"/><path d="M158 420v1h-1l1-1s0 1 0 0" class="C"/><path d="M135 421h-2-1 3"/><path d="M157 421v-1 1" class="C"/><path d="M170 420v1-1M171 421v-1 1"/><path d="M145 420l-1 1 1-1" class="O"/><path d="M199 421l-1 1v-1s-1 0 0 0h1"/><path d="M158 422v-1 1" class="C"/><path d="M191 421v0h-1 1"/><path d="M156 421s0 2-1 1v-1 1l1-1m6 0v0s0 1 0 0l-1 1v0l-1 1 1-1s-1 0 0 0v-1 0h1m-2 0h-1 1m9 0c0 1 0 0 0 0h-1v1-1 1h1l-1 1h1-1l1 2v0l-2-1v-1l1 1v-1h-1-1 1l-1 1v-1 1l-1-1 4-2" class="C"/><path d="M115 424c-1-1 1-2 1-3l-1 3" class="B"/><path d="M158 421h-1 1m14 0v1c1 0 0 0 0 0 1 0 0 0 0 0h-1 1l-1-1h1" class="C"/><path d="M189 421v1l-1-1h1m6 0v1l-1-1h1"/><g class="C"><path d="M158 422v0h-1 1l1-1-1 1m2-1v1s0-1 0 0v-1m11 0l-1 1v-1h1m3 1h-1v-1l1 1M170 422v1h-1l1-1h-1 1m-10-1l-1 1 1-1m-3 0v1-1"/></g><path d="M190 421c0 1 0 2-1 1v1l-1-1h1l1-1m4 1h-1c0-1 0-1 0 0h1"/><path d="M216 421l-1 1-2 1 1-1 2-1" class="B"/><path d="M131 422c1 0 0 0 0 0m37 1l-1-1h1v1"/><path d="M157 423h-1l1-1h-1c1 0 0 0 0 0l1 1m6-1a7 7 0 000 1h-1l1-1c-1 0 0 0 0 0" class="C"/><path d="M169 422v-1 1z"/><path d="M171 422h-1 1m2 0" class="C"/><path d="M193 422v2-1h-1v-1h1m3 0h-1 1"/><g class="C"><path d="M159 423v-1 1M169 422"/></g><path d="M134 422l-1 1v-1h1"/><path d="M155 423v-1 1m10 1v-1 1h-1l1 1h-1v-1l-1-1 1-1h-1l2 2" class="C"/><path d="M188 422l-1 1v-1h1"/><path d="M116 425v-3 3" class="B"/><path d="M174 422v1h-1l1-1h-1 1" class="C"/><path d="M195 422v1l-1-1h1m-28 0l-1 1 1-1"/><path d="M173 423h-2 1-1v-1 1-1l2 1m0-1v0" class="C"/><path d="M191 423l-1-1 1 1"/><g class="C"><path d="M158 423h-1l1-1v1m-2-1v1-1M157 422v0m5 1h-1 1m-6 0"/></g><path d="M196 423v1l1-1-1 1h-1v-1h1"/><path d="M215 423l-2 1 2-1" class="B"/><g class="C"><path d="M158 423c1 0 0 0 0 0v0m-1 0v0m4 0h-1 1m13 1s0-1 0 0h-1 1v1c-1 0-1-2-2-1 0-1 0 0 0 0h2l-1-1 1 1M162 424l-1 2v-1h-1l-1-2 2 1h1m9 0l-1-1 1 1m-1-1v2-1h-1 1l-1-1h1M171 424v-1 1m18 1c-1 1-1 0-2-1h-2 1l2 1h-1c-4-1-8 1-10 3l-1 2 1 1-1-1v-1l2-3-1 1-2 3v-1c2-3 6-5 10-6l4 2m-25-1l-1 2 1-2h-2 2m-5 0h-1 1"/></g><path d="M191 424l-1-1 1 1"/><path d="M117 424l-1 2 1-2" class="B"/><path d="M157 424h-1 1m4 0c0-1 0 0 0 0" class="C"/><path d="M140 424v0 1h-2v1h2-1-2 0l-1 1 2-1-1 2 2-2-1 1h1v3l-1-1v-1h-1-1l1-2 1-1h1v-1h1" class="I"/><path d="M172 424h-1 1" class="C"/><path d="M190 424c-1 0 0 0 0 0m18 2c1 3-2 5-4 8v-2l-4-3h-1l3-3c1-1 2-3 3-2l3 2"/><path d="M158 424l-1 1 1-1m5 0v1h-1v1h-1 1v-1l1-1" class="C"/><path d="M129 426l1 1v1l-2 1v-2l-1-2-1 1c0 1 2 4-1 5h-2l-2-3h-1l1-1 2-1-1 1 1 3h1l1-1c-1-1-2-3-1-4l2-1 3 2"/><g class="C"><path d="M166 425l1-1-1 1m5 0v-1 1M159 425v-1 2l-1-1v0l-1 1v-1h2-1v-1l1 1m13-1l1 1-1-1m2 0"/></g><path d="M214 425h-2l2-1v1" class="B"/><path d="M168 424l1 1-1 1h1-1v0 4h-1v-1h1v-1c0 1 0 0 0 0v-1l-1 1v-1h1v0-1h-1-1a3 3 0 011 1l-1-1v-1l-1 1v-1-1l1 1 2 1v-1 1l-1-1v-1h1m-8 1v-1 1" class="C"/><path d="M197 425h-1 1"/><path d="M172 425s-1 0 0 0" class="C"/><path d="M117 427v-2 2" class="B"/><path d="M164 425v1-1m11 0h-1 1" class="C"/><path d="M146 426l1-1 1 2-1 1-1-1v-1h-1 1" class="N"/><path d="M145 426l1-1h-2v1h1" class="I"/><path d="M160 425h-1 1" class="C"/><path d="M193 425v2l-1-1h1l-1-1h1"/><path d="M174 425h-1 1" class="C"/><path d="M149 426l-2-1 1 1h1" class="I"/><path d="M149 426v0" class="G"/><path d="M185 425v1l-1-1h1" class="N"/><path d="M190 425v1h1l-1 1-1-1c-1 2-2 0-4 0v-1h1c1 1 1 2 2 1h1l-2 1 2-1h1v-1" class="I"/><path d="M165 426h-1l1-1v1" class="C"/><path d="M189 428l-2-1h-2v-1 1h-1l1-1h-2-1l1 1h-1l1-2h1a27 27 0 015 3" class="B"/><path d="M144 426h-2v1h1l-1 1v-1l-1-1h1l2-1v1" class="G"/><path d="M174 426v-1 1h-1l1-1v1" class="C"/><path d="M189 426l1-1-1 1" class="I"/><path d="M156 426v-1 1"/><path d="M169 425v0" class="C"/><path d="M214 425l-1 1h-1l2-1" class="B"/><path d="M171 426v-1 1z"/><path d="M183 426v-1" stroke-width=".2" class="J K"/><path d="M160 426" class="C"/><path d="M207 428l-1 3-5-4 2-1c2-1 3 1 4 2" class="L"/><path d="M160 426h-1s1 0 0 0v0h1m5 0c0 1 0 0 0 0" class="C"/><path d="M118 426v2-2" class="B"/><path d="M147 426v1l-1-1h1"/><path d="M151 427l-1-1s0 1 0 0l1 1" class="G"/><path d="M172 426" class="C"/><path d="M143 427v-1 1" class="G"/><path d="M146 427h-1v-1l-1 1v-1l2 1" class="I"/><path d="M162 426v0m-2 0" class="C"/><path d="M144 426v2l1-1v1h-1v-1h-1l1-1" class="I"/><path d="M169 427v-1 1" class="C"/><path d="M184 426s0 1 0 0" class="L"/><path d="M196 427h-1-1l1 1h-2l1-1c1 0 0 0 0 0v-1l2 1"/><path d="M183 427v-1 1" class="L"/><path d="M142 427h-1v-1l1 1m6 0c1 0 0 0 0 0v-1 1" class="G"/><path d="M161 426l1 3-1 1v-4m4 1v-1 1" class="C"/><path d="M150 427c0-1 0 0 0 0" class="G"/><path d="M166 427" class="C"/><path d="M188 430l2 1h-2v-1l-2 1h-3l1-1h-1l-1 1v-1h1v-1-1l-1 1v-1h-1v-1 1l-1-1v1l-1-1h1c3 0 6 2 8 3" class="T"/><path d="M213 427l-1 1-1-1h2" class="B"/><path d="M163 427l-1 1v-1h1m3 0h-1 1m3 0h0" class="C"/><path d="M184 427" class="L"/><path d="M163 427v0m7 1v1l1-2-1 1" class="C"/><path d="M142 428l-1 1v-1h-1v-1h1l1 1" class="G"/><path d="M185 427l1 1h-1v-1h-1 1" class="L"/><path d="M193 427v1l-1-1h-1 2"/><path d="M186 428l-1-1h1v1" class="L"/><path d="M167 428v1l-1 1v-2l1 1-1-1v-1l1 1-1-1 1 1" class="C"/><path d="M119 428v2l-1-1s0-3 1-1" class="B"/><path d="M164 427v0m1 2v-1 1l1-2-1 2" class="C"/><path d="M137 427"/><path d="M143 427v1h-1l1-1m7 1l-1-1 1 1" class="G"/><path d="M190 427v2l-1-1a2 2 0 010-1v0h1" class="C"/><path d="M148 428h-1 1" class="G"/><path d="M169 428l-1-1 1 1" class="C"/><path d="M149 427v2c0-1-2-1 0-2" class="G"/><path d="M163 428v-1 1" class="C"/><path d="M179 428h-1l1-1v1" class="G"/><path d="M146 429v-1h-1l1-1 1 1v1h-1" class="I"/><g fill="#ffe80f"><path d="M146 429l-1 3v1h1l1-1v-1l-1-1v-1 1M148 431v-1 1h1l2-2h-1l-3 1v1h1"/></g><path d="M148 432h-1v2l2-1 1-1v-1h-1l-1 1m4-4l1 1h-1l-1-1h1" class="I"/><path d="M150 428c1 0 0 0 0 0" class="G"/><path d="M169 428l-1 2 1-2" class="C"/><path d="M187 428c0-1 0 0 0 0m-1 0h0" class="L"/><path d="M146 428h-1 1"/><path d="M164 428" class="C"/><path d="M212 428v1h-2c0-2 2-1 2-1" class="B"/><path d="M152 429v1h-1v-2l1 1" class="Q"/><path d="M162 428v0" class="C"/><path d="M143 428l1 1-1-1" class="G"/><path d="M144 428v2-1 1h1v-1-1 3l-1-1v-2" class="I"/><path d="M147 428v0" class="G"/><path d="M164 428v0" class="C"/><path d="M148 428v1-1" class="G"/><path d="M170 428l-1 1s1 0 0 0v-1h1" class="C"/><path d="M178 428l-1 2v-1l1-1" class="G"/><path d="M182 428v0" class="B"/><path d="M188 428c0 1 0 0 0 0l-1 1 1-1h-1 1" class="L"/><path d="M141 429v-1 1m43-1c-1 0 0 0 0 0"/><path d="M120 429l-1 2v-3l1 1" class="B"/><path d="M179 429l-1-1h1v1m1-1l-1 1 1-1" class="G"/><path d="M179 432l-2 2v-1l2-2 1-3-1 4" class="I"/><path d="M181 429s0 1 0 0v-1 1" class="B"/><path d="M143 429h-1 1" class="G"/><path d="M181 429s-1 0 0 0v0h-1 1" class="B"/><path d="M194 429h-1 1"/><path d="M142 429l-1 1v-1h1" class="G"/><path d="M152 429h-1 1"/><path d="M189 429l-1 1-1-1h2m2 1h-1v-1l-1 1 1-1h-1l2 1m-44-1v0s1 0 0 0m36 0l-3 3v-1l3-2" class="I"/><path d="M166 431h-1v-2l1 2" class="C"/><path d="M212 429l-3 1 3-1" class="B"/><path d="M140 429v1-1" class="G"/><path d="M154 430l-1 1h-1v-2l2 1" class="Q"/><path d="M143 430h-1v-1l1 1" class="G"/><path d="M162 431h1l3 1h1-3-1l-2-1h1-1 1v-1h1-1v-1h1l-1 2" class="C"/><path d="M179 430l-1 1-1-1v0h2" class="G"/><path d="M121 430l-1 2v-3l1 1" class="B"/><path d="M131 430l4 4-1 2v-2l-1-1-3 4v1l-3-3h1l4-3-1-1h-2l2-1"/><path d="M137 430v1c1 1 2-1 2 1l-2-2" class="I"/><path d="M141 430h-1 1" class="G"/><path d="M165 431l-1-1h1v1" class="C"/><path d="M152 430h-1 1"/><path d="M190 430h-1 1m1 0v1h-2 1v-1h1-1 1m-16 0h-1a1 1 0 011 0m14 0h-1 1" class="I"/><path d="M153 430"/><path d="M181 430h-1 1" class="B"/><path d="M184 430"/><path d="M164 430" class="C"/><path d="M178 430" stroke-width=".2" class="J K"/><path d="M142 431l-1-1h1v1" class="G"/><path d="M211 430l-1 1h-1l1-1h1" class="B"/><path d="M174 430s0 1 0 0" class="I"/><path d="M185 430l-1 1v-1 0h1"/><path d="M144 431v1h-1 1v1h1l-2 1-1-1v-2l2-1v1" class="N"/><path d="M186 431h-1v-1l1 1m0 0v-1 1"/><path d="M167 431h-1l1-1v1" class="C"/><path d="M174 430l-1 1v-1h1" class="I"/><path d="M140 432v-2 2" class="G"/><path d="M151 431h-1v-1l1 1" class="I"/><path d="M153 431v-1 1"/><path d="M175 431h-1l1-1v1" class="I"/><path d="M180 431v-1 1" class="B"/><path d="M143 431h1-2 1"/><path d="M121 431a6 6 0 010 2v-2" class="B"/><path d="M155 431l-1 1h-1l1-1h1" class="I"/><path d="M166 431" class="C"/><path d="M182 431l-1 1 1-1" class="I"/><path d="M188 432v2l-1 1v-1l-1 2h-1l1-1v-1l-2-1c1-2 3-1 3-2v1" class="C"/><path d="M198 431l-1 1 4 4h1l-3 3v-1-1l-3-3h-2l4-3"/><path d="M141 431v1h-1c0-2 1-1 1-1" class="N"/><path d="M180 431" class="B"/><path d="M168 433l-2-2 2 2" class="C"/><path d="M179 431l-2 2-1 3 1-2-1 4v-1c2-1 1-2 2-3l4-3-1 2-3 2 1-1-1 2-2 2 2-2-1 2-1 1h-1l1-3 1-4 2-1" class="I"/><path d="M152 432l-1 1h-1l1-2 1 1" class="Q"/><path d="M168 431l-1 1v-1h1" class="C"/><path d="M210 431v1h-2l2-1" class="B"/><path d="M147 432v0"/><path d="M169 431v1h-1l1-1" class="C"/><path d="M150 431l-1 1h-1 1v1h-1v-1 0l2-1"/><path d="M189 431l-1 1 1-1" class="N"/><path d="M185 432l-1 1c-1-1-2 1-4 1l1-2h4" class="T"/><path d="M153 432h-1 1" class="I"/><path d="M180 432h-1 1" class="B"/><path d="M166 432h-2 2"/><path d="M122 434l-1-1 1-1v2" class="B"/><path d="M146 432v1l-1-1h1m30 1h-2s0-1 0 0l1-1v1-1l1 1"/><path d="M179 433v-1 1" class="B"/><path d="M184 432"/><path d="M209 432c0 2-1 1-2 1l2-1" class="B"/><path d="M166 433v-1 2c1 0 0 0 0 0v1h-1v1-4l1 1m-6 1l1-2-1 2" class="C"/><path d="M190 433l-1 1v-2l1 1m-48 1v1l-2-2h1c1-1 0 1 1 1" class="N"/><path d="M123 435l-1-1v-1l1 2m56-2h-1 1" class="B"/><path d="M150 433v1l-1-1h1" class="I"/><path d="M154 434l1 1-1 1-2 1-1-2v-2h2l1 1" fill="#ffe80f"/><path d="M163 433h-1 1m-19 0h-2 2"/><path d="M185 434l-2 2h-1 1-3l-2 1c0-2 1-2 2-3 2 0 4-3 5 0" class="T"/><path d="M169 434a1 1 0 010-1v1"/><path d="M209 433l-1 1h-2l3-1" class="B"/><path d="M150 434s1 0 0 0v-1 1" class="I"/><path d="M178 433v0" class="B"/><path d="M168 434l1 3h-1v-2 2h1-1l1 1v2l-1-1v-1 2l-1-3v-4l1 1" class="C"/><path d="M147 434h-1 1" class="Q"/><path d="M176 435l-1 1h-1v-1l1-1h-1 1l-1 1v1l1-1v-1h1v-1 2" class="I"/><path d="M146 434c-1 0 0-1 0 0" class="Q"/><path d="M124 436h-1v-2l1 2" class="B"/><path d="M149 434h-1 1" class="N"/><path d="M184 434"/><path d="M146 436v1l-1-1h-1v-1 1-1 1l-1-1v-1h2l1 2" class="N"/><path d="M147 434v1h-1v-1h1" class="Q"/><path d="M149 434v0" class="N"/><path d="M152 436l-1-1v-1l1 2"/><path d="M178 434l-1 1 1-1" class="B"/><path d="M186 435l1-1-1 1"/><path d="M148 435v-1 1" class="N"/><path d="M154 435l-1 1v-1 0h1v-1 1"/><path d="M160 434v1-1" class="C"/><path d="M208 434l-1 1h-1l2-1" class="B"/><path d="M184 435h-1v-1l1 1m0-1v1-1m-3 1v-1 1"/><path d="M150 435" class="N"/><path d="M125 437c-2 0-1-1-1-2l1 2" class="B"/><path d="M161 435l-1 3h-1v-1l1-2h1" class="C"/><path d="M177 436v-1 1" class="B"/><path d="M150 435l-1 1v-1h1" class="N"/><path d="M158 435h-1 1m-12 1h-1v-1l1 1"/><path d="M148 435l-1 2v-1-1h1" class="Q"/><path d="M207 435v1h-2l2-1" class="B"/><path d="M149 436h-1v-1l1 1" class="N"/><path d="M184 435v1l-1-1h1m-3 1v-1 1m-41 1l-2 6c1 1 2 1 1 2l-4-3h1l1-1-3-1v1l-3-2h2l4-2v-2l3 2m17-1h-1 1"/><path d="M170 436l1 1-1-1h1-1" class="C"/><path d="M183 436"/><path d="M151 436h-1 1" class="G"/><path d="M181 436"/><path d="M126 436v3c-2-1-1-2-1-3h1" class="B"/><path d="M161 439c0 1 0 0 0 0l1-3-1 3m19-3"/><path d="M149 437s0 1 0 0v1l-1-1v-1h1v1" class="G"/><path d="M206 436l-1 1h-1v-1h2" class="B"/><path d="M151 437h-1l1-1v1" class="G"/><path d="M157 436h-1 1"/><path d="M158 436" class="C"/><path d="M150 436v1l-1-1h1m0 0" class="G"/><path d="M147 437h-1v-1l1 1" class="Q"/><path d="M172 436" class="C"/><path d="M149 437v-1 1"/><path d="M184 437l-3 1v-1h3" class="T"/><path d="M147 437h1-1" class="Q"/><path d="M167 440l-1-3h1v3" class="C"/><path d="M126 439v-2 2" class="B"/><path d="M180 437l1 1-3 1-1 1v-2l2-1h1" class="N"/><path d="M170 438v-1 1" class="C"/><path d="M206 437l-2 1-1-1h3" class="B"/><path d="M173 437h-1 1"/><path d="M138 437l-1 4-2-2 3-2" class="L"/><path d="M179 438h-1 1"/><path d="M127 440v-2 2" class="B"/><path d="M172 438h-1 1m17 0l2 1h-2l-2 1 1 2 1-1v-1l2 2h-2-1l1 2 2 1-4 2v-2l-2-4h-1l5-3m-26 2v-2 2"/><path d="M205 438l-1 1h-2c0-2 2-1 3-1" class="B"/><path d="M164 440h-1l1-2v2"/><path d="M169 439v-1 1" class="C"/><path d="M128 441v-2 2m76-2h-3 3" class="B"/><path d="M148 442v2l-1-1v-1l-1 1-2 3 1 1-4-1v-1h1a18 18 0 002-4h-2l1-2 5 3"/><path d="M129 442v-2 2m74-2h-3 3" class="B"/><path d="M165 440h-1 1"/><path d="M131 443c-2 0-1-2-1-3l1 3m71-2h-2-1 3m-70 3l-1-1v-2l1 3m69-2h-2-1 3" class="B"/><path d="M182 443c1 2 2 3 1 4-1 2-4 3-6 3s-2-2-2-4l1-3c2-1 5-2 6 0"/><path d="M200 442l-1 1h-1v-1h2m-67 3l-1-3 1 3" class="B"/><path d="M155 444l1 2h-1l-1-1-2-1v2h2l-1 2-1-1-1 2h2l2-1v1l-1 1-6-1v-1l1-1 1-3-1-2 6 2"/><path d="M199 443h-3 3m-65 3l-1-3 1 3" class="B"/><path d="M180 444c1 1 2 3 1 4l-2 1-1-1-1-4 1-1 2 1" class="L"/><g class="B"><path d="M198 444h-3 3m-63 2l-1-2 1 2M197 445a1 1 0 01-1 0h-1 2m-61 0l1 2-1-1-1-1h1m60 0h-2 2m-1 1h-2 2m-57 2l-1-1v-2l1 3m56-1h-1l-1-1 2 1m-55 1l-1-2 1 2m54-1h-2l1-1 1 1m-53 2l-1-2 1 2m52-1c-1 1-1-1-2-1l2 1m-51 1c0 1 0 0 0 0l-1-2 1 2m50-1v1l-2-1h2m-49 2l-1-2 1 2m48-1c-1 1-2-1-2-1l2 1m-47 1c0 1 0 0 0 0l-1-2 1 2m46-1a1 1 0 01-1 1l-2-1h3m-45 2l-1-2 1 2m44-1c-1 1-2 0-3-1h1l2 1m-43 1l-1-2 1 2m1 1a5 5 0 01-1-2l1 2M187 450h-3 3m-1 1c-1 1-2 0-3-1l3 1m-38 1c-2 0-1-1-2-2l2 2m1 1l-1-1-1-1 2 2M184 451h-3 3m-34 2l-1-2 1 2M183 452c-1 1-2-1-3-1l3 1m-31 1a2 2 0 01-1 0l-1-2 2 2"/><path d="M182 452h-3 3m-29 1h-1l-1-1 2 1M180 453c-1 1-1-1-2-1 1-1 2 0 2 1m-26 1l-1-1-1-1 2 2"/><path d="M179 453h-1l-1-1h1l1 1M178 453l-1 1-2-2 3 1m-23 1h-1v-2l1 2m1 0l-1-1c1-1 1 0 1 1m20 0l-2-1c1-1 2 0 2 1"/><path d="M175 454h-1l-1-1c1-1 2 0 2 1m-17 1l-2-2 2 2m16-1h-1l-1-1 2 1m-15 1l-2-2 2 2m14-1c-1 1-2 0-2-1h1l1 1m-13 1h-1v-2l1 2m2 0l-2-2 2 2m9 0l-1-1-1-1h1l1 2M170 455h-1l-1-2 2 2m-7 0l-2-2 2 2M169 455h-1l-1-2 2 2m-5 0l-2-1v-1l2 2M165 455h-1l-1-2 2 2m2 0l-2-1c0-1 0 0 0 0l2 1m1 0h-1l-1-2 2 2"/></g><path d="M191 394v4l-1-1h-2 3-1 1l-1-1h1v-2m0 4v1h-2l-1-1h3m4 0h-3 3M194 397l-2 1 2-1M192 395v-1 1"/><path d="M189 393l1-1v1h-1" class="E"/><path d="M189 393l1-1v1h-1z" class="J K M"/><path d="M192 392v1l-1-1s0 1 0 0h1" class="E"/><path d="M192 392v1l-1-1s0 1 0 0h1z" class="J K M"/><path d="M193 392v1h-1-1 2l-1-1h1" class="E"/><path d="M193 392v1h-1-1 2l-1-1h1z" class="J K M"/><path d="M189 395h-1 1l-1-1 1 1"/><path d="M188 393v-1h1v1h-1" class="E"/><path d="M188 393v-1h1v1h-1z" class="J K M"/><path d="M161 420h1l2 1 1 1 4-2v-1h-1l1-1h-1v-1-1l1-1v-1l1-1v-1l1-1h1-1l-1-1h-1-1-1v-1c-1 0 0 0 0 0h2v-1h2c1 0 0 0 0 0h-1v-1 1h-1-1l-1 1h-1-2v1c0 1 0 0 0 0v1-1h1v1l1-1v1h2v1h-1 1v1h-1l-1 1h-1 1l-1 1h-2 1v1h-2l-2 1h1l-1 1h-4l4 1h3l1-1v1h-3v1" class="P"/><path d="M157 417h3v-1h4l-2-1v-1l1 1v-1l1 1v-1 0h0l1 1v-1l-1-1h4l-1-1 1-1h-2l-1-1v1h-1v-1h-1v-1h-2l-5-1h-5l-1 1 1 3c0 2 2 4 4 6l2-1" class="D"/><path d="M150 395l5-1 2 1-1-1v-1l3 1v1h-1v1l1-1c1 0 0 0 0 0 1-1 3 0 4 1-1 0 0 0 0 0v1h-1 2l-1-2h1l5 4h2c-1 1-3 2-4 1v0l-2-1v-1l1 1c-1-2-2 0-3-1l-1 1h1l2 1h-1 2l2 2h-2 2l-1 1v-1l-1 1-2-1v-1h-2l-1-1 1-1v1h-1-1l2-2h-1l-1 1h-3v-1l-1 1-1-1-1-1h1c0 1 0 0 0 0l2-1h1-1l-3 1h-3 2-2v1h-1v-2a4 4 0 000-1" class="U"/><path d="M150 395l-1-1-1-2 6-5 5 2 6-2 2 1c3 1 6 0 9-2l6 6-2 3h-3 1l-2-1h0l1-1h-1v-1h1-1 1l-1-1 1-1h-1l-1 1h1l-1 1h0l1 1h-1s0 1 0 0l1 1h-2 1v1h-1l2 1h-3l-3-1-3 2-4-2-2-1a1 1 0 01-1 0l-4-2-6 3" class="P"/><path d="M179 404l-1-1h1l-1-1h1l-1-1c-1-1 1-1 1-1h-1s-1 0 0 0c-1-1 1-1 1-1h-2l2-1h-2l1-1h-1 1l-1-1h1l1-1 1 1v7" class="U"/><path d="M150 398v9h2v-1-1 1h2l1-2 3 1 1-1h1l2 1h2v1l2 1-2-1v-1h-1v1c1 0 0 0 0 0h1l1 1h4l-4 1h-2l1 2v-1h2v-1h4l-1-1h-1l2-1h-1 2l-6-3-3-2-2-1-5-2h-5" class="H"/><path d="M179 404h-1v-1 1l2 1h-1v1h-1l2 1v1h-1 1l-1 1v1h-2v1h-1l-2 1 1-1h1c0-2-1-1-2-1h-1v-1h-1l3-1a3 3 0 01-3 0h2l-1-1h1-2v-1h2v-1h-2-2l2 1-2 1 2 1h-3l-1 1h-1l1 1h3l2 1h-1l2 1h3v-1h2c-1 0 0 0 0 0h-1v1-1 1l-1-1v1h2l1-3v-5h-1" class="D"/><path d="M179 412l-2 1h0v1h-1l-1 2h1v-1l-1 1-1 1c0-1 0 0 0 0l-1 1v-1l1-1h1l1-3v-1h-2l-1 1h-1v-1l-1-1-1 2h1l-2 2v0h1v-1 4h1l1-1-1 1-2 1v1l5-2 4-4 1-2" class="H"/><path d="M156 393l-2 1 2-1m-1 2h-1v1l-3 1 2-1a2 2 0 00-2 0c0-1 0 0 0 0l3-2 1 1" class="D"/><path d="M155 395h-1v1l-3 1 2-1a2 2 0 00-2 0c0-1 0 0 0 0l3-2 1 1z" class="J K M"/><path d="M154 395h-1 1m0 0h-1 1M152 396v-1 1m1 0"/><path d="M172 397h-4l2-1 2 1" class="U"/><path d="M154 396h-1 1"/><path d="M174 396h1v1l-1 1h-1 2l-1 1h1l-1 1h-1 1l-4 1h-1-1l3-1h2l-1-1h-2l1-1v-1h3l-2-1h2" class="U"/><path d="M177 397h-1 1v-1 1m-15 0l-3-1-2 2 2-1h-1l2-1 2 1" class="D"/><path d="M162 397l-3-1-2 2 2-1h-1l2-1 2 1z" class="J K M"/><path d="M179 397"/><g class="D"><path d="M170 398l1-1-1 1m6 0h1-1v-1 1M171 398h-1v1-1l-1 1 2-1m4 0c1 0 0 0 0 0m3 0h-1 1m-25 1l-1 1h1v0l1 1c0-1 0-1 0 0l1-1h1l-2 1h1v1l1-1v1-1h1v1h1v-1 1-1c1 1 0 2 1 1l1 1 1-1v1l1-1-2 1 2 1-4-1h-3v1l-1-1v2h-1-1-1l-1 2v-1l1-2v-1-1h-1v-1h1v1-1 1h1l-1 1c1 0 0 2 1 1l1 1 1-1 1-1-1-1-2-1v-1l-1-1h2"/></g><path d="M153 399l-1 1h1v0l1 1c0-1 0-1 0 0l1-1h1l-2 1h1v1l1-1v1-1h1v1h1v-1 1-1c1 1 0 2 1 1l1 1 1-1v1l1-1-2 1 2 1-4-1h-3v1l-1-1v2h-1-1-1l-1 2v-1l1-2v-1-1h-1v-1h1v1-1 1h1l-1 1c1 0 0 2 1 1l1 1 1-1 1-1-1-1-2-1v-1l-1-1h2z" class="J K M"/><path d="M176 399l-1 1 1-1m2 1l-1-1 1 1m-1 0l-1 1h-1s0-1 0 0l1-1h1m-26 1v-1 1" class="D"/><path d="M151 401v-1 1z" class="J K M"/><path d="M174 401h-2l1 1h1v1h-2l1 1h1v1h-2-2v-1 1l-1-1h1l2-1h-1-1v1-1l-1 1h-2l1-1c1-2 3-2 4-2h2" class="H"/><path d="M177 401" class="D"/><path d="M159 402v-1 1m7 0v-1 1"/><path d="M178 402h-1v-1l1 1m-2 0s-1 0 0 0m1 1h-1-1l1-1v0l1 1m-23 0h-1v1h-1v-1l1-1 1 1" class="D"/><path d="M154 403h-1v1h-1v-1l1-1 1 1z" class="J K M"/><path d="M178 403h-1 1m-14 1h-2l1-1 1 1" class="D"/><path d="M164 404h-2l1-1 1 1z" class="J K M"/><path d="M165 404" class="D"/><path d="M165 404z" class="J K M"/><path d="M176 404l-1 1h-1l2-1m2 1h-1v-1l1 1" class="D"/><path d="M160 405h-1v-1l1 1m-2 1l-3-1 3 1" class="E"/><path d="M166 405h0v1h-1l1-1h-1 1" class="D"/><path d="M166 405h0v1h-1l1-1h-1 1z" class="J K M"/><path d="M168 405h-1 1" class="D"/><path d="M168 405h-1 1z" class="J K M"/><path d="M163 405h-3 2" class="H"/><path d="M169 405c0 1 0 1 0 0 0 0 0 1 0 0" class="D"/><path d="M169 405c0 1 0 1 0 0 0 0 0 1 0 0z" class="J K M"/><path d="M160 406h-1v-1l1 1" class="H"/><path d="M177 406v1h0v-1h-1v1l-1-1 1-1 1 1" class="D"/><path d="M161 405v1s0-1 0 0h2-3l1-1m-1 1v1l-1-1h1" class="E"/><path d="M168 406h1-1"/><g class="H"><path d="M157 406l-1 1v-1h1m-4 1v-1 1M154 406v1c-1 0 0 0 0 0v-1"/></g><path d="M159 406l-2 1 2-1" class="E"/><path d="M162 406l-2 2 1-1-1-1h2m-2 2s0-1 0 0l-1-1-1 1 1-1 1 1" class="H"/><g class="D"><path d="M175 407v0c0 1 0 1 0 0m2 1h-1 1m2 0h-1 1m-1 0"/></g><path d="M156 408v1h-1v-1 1l1-1" class="I"/><path d="M156 408v1h-1v-1 1l1-1z" class="J K M"/><path d="M177 409v-1 1" class="D"/><path d="M161 409c1 0 0 0 0 0l-1 1h-2l2-1h-2 3" class="I"/><path d="M161 409c1 0 0 0 0 0l-1 1h-2l2-1h-2 3z" class="J K M"/><path d="M176 409c-1 0 0 0 0 0" class="D"/><path d="M154 409v1h1c0 1 2 1 2 3h1-1v2h1-2 1l-1-2-1 2c1 0 0 0 0 0v-2h-1v1l-1 2v-1-3-1h-1l1-2m9 0v0"/><path d="M157 410h-1l1-1v1" class="I"/><path d="M157 410h-1l1-1v1z" class="J K M"/><path d="M154 410v1c0 1 0 0 0 0v-1" class="E"/><path d="M161 410c2 1 0 4 2 3h-2c0 1 0 0 0 0v-1l-1 1 1 1h-1v-1l-1 1h1l-2 1 1-1h-1v-1h2l1-2v-1"/><path d="M153 410v0" class="E"/><path d="M164 411h-1 1"/><path d="M157 412v1l-1-1-1-1v1-1l2 1" class="E"/><path d="M161 412l1-1-1 1" fill="#c5c5c5"/><path d="M161 411v1l-1 1 1-1v-1" class="D"/><path d="M154 412v-1 1" class="E"/><path d="M166 412h-1-2l1-1 2 1"/><g class="E"><path d="M154 412c-1 0 0 0 0 0M155 412l-1 2v-2h1"/></g><path d="M164 412h-2 2"/><path d="M155 412v1-1" class="E"/><path d="M166 412l-2 1v-1h2m-7 0h-1 1M153 412l-2 1v-1h2m19 1v1h-1v-1-1l1 1m-19 0h-1 1m22 0l-1 1 1-1"/><path d="M157 413h-1 1" class="E"/><path d="M153 413l-1 1 1-1m15 1l-2 1v0l2-1h-1a1 1 0 011 0m6 2h-2v-1 0l1 1v-1a1 1 0 01-1-1h1l1 2m0 0v-1h1l-1 1m-13-1l1 1h-3s0 1 0 0h-1l-1 1v-1h2c0-1 0 0 0 0h1v-1h1"/><path d="M169 417l1 1h-1l-1-2h1v1" class="H"/><path d="M172 417h-2l1-1 1 1m-15 0l-2-1 2 1M163 417a2 2 0 01-2 0l2-1v1m2 0h-1 1m7 0v0m-13 1"/><path d="M162 408h1v-1l1 1h-1 2v-1h-3s1 0 0 0l-1 1h-4c-2 1-1-2-2-1l-1 1-1-1-2 1 1-1h-1l-1 1h12" class="E"/><path d="M166 420l-1 1 1-1m-2 0h-1 1"/><use xlink:href="#B" class="F"/><path d="M165 444l1 3h3l-3 2 1 3-2-2-2 2v-3l-2-2h3l1-3z" stroke-width=".7" class="J K"/><use xlink:href="#B" class="F"/></g><defs><path id="B" d="M165 444l1 3h3l-3 2 1 3-2-2-2 2v-3l-2-2h3l1-3"/></defs></svg>