<svg xmlns="http://www.w3.org/2000/svg" xmlns:xlink="http://www.w3.org/1999/xlink" width="5400" height="3240"><style>.B{fill:#d15b25}.C{fill:#fff}.D{stroke:#000}.E{fill:#30352d}.F{fill:#29b110}.G{fill:#d9d9d9}.H{fill:#ff660f}.I{fill:#787878}.J{fill:#7d3627}.K{stroke-width:2.793}.L{fill:#3cff16}.M{stroke-width:5.586}.N{stroke-linejoin:bevel}</style><defs><path id="F" d="M265 354l2 4 2 4"/><path id="G" d="M263 354l3 4 2 4"/><path id="H" d="M267 354l2 4 3 4"/><path id="I" d="M269 354l3 4 2 4"/><path id="J" d="M275 354l3 4 2 4"/><path id="K" d="M3364 1485a662 662 0 11-1324 0 662 662 0 011324 0z"/><path id="L" d="M3103 1434h15v-20h-15v20z"/><path id="M" d="M3107 1440h7v-32h-7v32z"/><path id="N" d="M2169 1674l-1-1h-1v-2l1-1 1 1h1v2l-1 1"/><path id="O" d="M2575 1634v-1l2-3v4l-1 1-1-1"/><path id="P" d="M2563 1610h4l2 1h1l2 1 2 1v1l1 1-3 3h-1l-2 1h-5l-1-1h-2l-3-2v-2h-2v-1l2-2h3v-1h2"/><path id="Q" d="M2502 1561l-1-1 1-1h3v2h-3"/><path id="R" d="M2113 1562h-1v-2h2v2h-1"/><path id="S" d="M3164 1723c0 2-2 4-5 4s-6-2-6-4 3-4 6-4 5 2 5 4z"/><linearGradient x1="485.3" y1="81.8" x2="485.3" y2="7.7" id="A" xlink:href="#T"><stop offset="0" stop-color="#ff8c00"/><stop offset=".4" stop-color="#b6ae7f"/><stop offset=".7" stop-color="#6ed0ff"/><stop offset="1" stop-color="#6ed0ff"/></linearGradient><linearGradient x1="3103.5" y1="1533.8" x2="3104.2" y2="1612" id="B" xlink:href="#T"><stop offset="0" stop-color="#86e2ff"/><stop offset="1" stop-color="#003f99"/></linearGradient><linearGradient x1="2520.6" y1="2169.9" x2="2919.4" y2="2069.3" id="C" xlink:href="#T"><stop offset="0" stop-color="#38b610"/><stop offset="1" stop-color="#f0b610"/></linearGradient><linearGradient x1="2700" y1="1288.6" x2="2700" y2="1461.4" id="D" xlink:href="#T"><stop offset="0" stop-color="#541e30"/><stop offset="1" stop-color="#7c4790"/></linearGradient><linearGradient x1="2761.8" y1="1821.4" x2="2764" y2="1541.5" id="E" xlink:href="#T"><stop offset="0" stop-color="#29b910"/><stop offset="1" stop-color="#c2d110"/></linearGradient><linearGradient id="T" gradientUnits="userSpaceOnUse"/></defs><path d="M0 3240h5400V0H0v3240z" fill="#00009c"/><path d="M1774 2806h1l100-187h75l-110 193 120 239h-80l-105-220h-1v220h-64v-432h64v187m245 245l108-432h77l104 432h-65l-21-92h-119l-22 92h-62zm187-163l-42-185-44 185h86m369 163l-119-359v359h-61v-432h96l114 340 1-1v-339h60v432h-91m359-309c-2-44-19-65-50-65-24 0-48 18-48 56 0 46 29 52 55 61 46 16 113 35 113 122 0 107-65 144-129 144-69 0-117-38-115-147h66c-3 48 16 80 50 80 26 0 60-11 60-57 0-51-43-55-69-65-42-14-99-42-99-119 0-98 63-142 124-142 59 0 104 46 104 132h-62m148 309l109-432h76l104 432h-64l-22-92h-119l-22 92h-62zm187-163l-41-185h-1l-44 185h86m351-146c-3-43-19-65-50-65-24 0-48 18-48 56 0 46 29 52 55 61 46 16 113 35 113 122 0 107-65 144-129 144-69 0-118-38-116-147h66c-2 48 17 80 50 80 26 0 60-11 60-57 0-51-42-55-68-65-42-14-100-42-100-119 0-98 64-142 125-142 58 0 104 46 104 132h-62" fill="#ffb30f"/><path d="M2558 607c-24 25-62 39-89 47-27 9-58-1-58-1s7-6 18-26c11-19 12-40 8-59-5-25 11-34 14-34 41 7 80 5 80 5s-1 17-3 21-1 32-1 32l41-17c10-4 7 2 7 2s3 8-1 13c-3 5-16 17-16 17m194-70s37 39 61 52c21 26 29 72 34 78 6 7 16 5 16 5s-1-35-8-58c-6-16-15-27-15-27s-16-13-39-28-50-41-50-41l1 19m105 2s18 8 30 24c12 15 25 58 50 64l52 13s-13-16-13-49-6-61-32-68l-28-8-1 34-60-22-7-3 9 15"/><path d="M2847 616c7 17 13 43 10 58-11-20-20-85-45-91l-51-41-5-16c22 30 48 34 82 69m-291 14c-21 22-52 32-77 40s-51 1-51 1 6-6 16-24c9-18 10-36 7-54-5-22 10-30 13-29 37 6 68 4 68 4s2 15 1 18c-2 4-3 34-3 34l38-16 8-2s2 7-1 11c-4 5-19 17-19 17m313-75s23 16 33 31c11 14 23 52 45 58l39 8s-6-11-6-41-3-54-27-61l-24-7 2 32-50-15-12-5" class="L"/><path d="M2909 517c0 6 6 15 0 21l-43-14c-2 4 0-4-6-4-11-2-5-10-18 0 2 13 13 23 17 35l9 11c-4 4-14 0-13 8l-23-7c-8-2-27-14-42-24-14-10-44-36-44-36l-2 29c-4 32-13 65-44 79 3-16-9-31-13-47-5 10-8 23-15 34l-5 5-16 12-1-1-3 3-1-1c-2 1-1 4-3 4l-1-1-2 2c-3 1-9 3-13 2 4-10-3-21-4-32-8 5-22 15-34 16-2 2-6 6-9 2 7-13-2-35 5-50h-1c-14 11-34 9-49 19h-4c-4-15 5-32 7-49-3-2-5 0-8 1-11 4-15-1-27 1v-1c-6 1-10 0-17-3-3 5-7 0-10-1l-10 2-12-1c-2-1-5 0-5-2l-1-3c28-6 48-33 67-54-5-4-12 2-16-5-5-1-12 1-16-4l-1 1c-4-6-17-4-24-9-4 0-9 0-13-3-3 3-5-1-7-1-7-8 7-11 10-16l24-16c-12-5-25-4-36-11 3-7 13-10 19-17 2-2 9-5 13-10-16-8-38-2-53-15-2-7 6-6 10-9 7-1 17-6 24-5 9-8 21-2 31-7l11-4c-6-7-17-7-24-15h-4c-3-3-12-5-18-8-5-2-10-5-11-10 21-13 46-19 72-15-6-17-19-34-23-53 22-1 43 9 63 16 0-17-3-33-4-50 19-1 22 23 36 31l2-14c5-11 1-23 4-36 13 3 20 15 28 24 5 10 7 21 14 29 5-2 1-8 3-13 7-15 11-31 11-46 4-1 5 5 8 7 24 19 33 46 44 71 8-22 15-50 34-65 7-6 13-14 22-14 2 6 0 17 3 24 9 21-1 41-1 61 16-25 35-51 57-74 2-3 7-9 11-6 6 7 3 20 10 27-8 12-3 25-10 38l1 1c24-24 52-41 77-58-3 27-4 56-24 77 15-4 32-7 50-8 13-1 25-7 38-8 7 3-1 10-1 15-18 22-35 48-61 57l40 14h3v2c10 0 20 2 29-4 4 0 6 2 6 5-12 25-36 36-59 44 2 14 21 17 33 23 7 5 20 5 21 14-9 14-31 21-47 18l-6-2c-2 9 10 15 14 22 8 10 22 12 27 24-16 8-34 7-50 3-5-2-12 0-18-3 2 8 6 18 14 24l4 7" fill="#ffb30f"/><path d="M2684 312c56-11 109 6 144 54 12 30-9 62-30 81-60 34-154 32-212-4-11-13-23-34-18-52 9-46 53-71 94-79h22" class="B"/><path d="M2838 538c0 3-1 7 2 10-6 9-16 0-24-2-19-7-46-40-56-52 0-1-4-15-6-16l46 19c10 11 33 22 38 41m-110-22c3 16 1 38-5 54l-1-1-5 8c0-4-2 0-3-3-42-34-18-93-13-89 15-5 22 21 27 31m-57 21c5 22-4 43-18 60 1 7-7 7-12 10-10-31 3-62 9-91-3-2 2-27 5-30 8 8 13 39 16 51" fill="#ff0"/><path d="M2528 549c-9 6-17 14-19 25-1 9 0 18 4 27l-3 2c-5-7-4-14-7-21-16 24-37 48-61 64l-5-3c28-17 51-48 68-77l-44 12c-1 1-2 4-5 3l-1-5c13-8 27-6 41-14 5 3 6-3 12-4 2-2 2-5 3-8 4-2 6 5 9 0 1-2 6-4 8-1m419 21c4 4 10 7 8 14-6 0-6-7-10-9-8-7-16-13-26-14l-2 2c14 19 39 33 42 59-9 2-6-11-11-16-3-10-14-18-21-25-5 3 2 8-1 12h-5c-1-7 3-12-1-20-9-11-17-20-24-32l2-1c6 26 36 11 49 31"/><path d="M2594 602s23-12 25-21c3-9 13-47 11-56-2-10-3-35-3-35s-27 38-32 50c-5 13-1 62-1 62m-49-66l-8 35s25-4 30-8 24-37 27-53l8-36s-27 18-38 31c-12 13-19 31-19 31m260-82s10 23 22 32 71 39 71 39-2-26-18-39c-15-12-75-32-75-32m27-15s33 22 52 29c20 7 31 10 42 11s14-1 14-1-16-11-30-25c-15-13-25-25-42-25s-36 11-36 11m23-34s46 24 61 25c16 1 41-6 41-6s-17-3-34-15c-16-11-7-18-26-19-20-1-49 11-49 11l7 4m-4-25s59 6 67 0l36-26s-23-3-33-8-12-10-30-13-29 5-32 8l-18 19 3 17 7 3m93-112s-59 4-77 12c-19 7-44 50-44 50s16 2 32-3c15-5 52-9 59-19l30-40m-60-56s-1 18-11 33c-9 16-29 43-41 48s-34 22-34 22 12-41 19-47l67-56m-70-13s-2 45-9 57l-25 49-14 1s-9-8-9-22c0-13 24-46 24-46l33-39m-75-3s5 19 5 31c0 11-5 53-5 53l-18 17s-10-5-14-16c-4-10-5-35 0-44s32-41 32-41m-90 4s19 26 25 42c6 15 18 30 16 38-2 9-17 19-17 19s-20-3-23-17l-10-38 9-44m-56 0s21 35 25 48l15 52s-12 9-24 7c-13-2-19-17-18-33l2-74m-34 30s19 29 20 44c1 14 9 47 9 47s-16 0-25-18-4-73-4-73m-59 20s42 20 45 27l23 55s-36-19-43-32l-23-47-2-3m-48 61s26-10 39-5 56 28 56 28-35 3-45-1l-50-22m108 48s-82-8-102-1c-19 7-25 7-25 7l46 9c19 5 59 7 63 4l18-19m-7 33s-51-5-60-3l-40 15 32 8c15 3 59 0 59 0l14-8-5-12m3 31s-44-6-62-1c-17 5-38 20-38 20s-1 3 18 8c18 6 39 18 51 13s38-20 38-20l5-13-12-7m20 31s-40 20-55 30c-16 11-30 31-36 33l-16 6s25 0 39 2 31-7 40-16 31-38 31-38l-3-17" fill="#ff0"/><path d="M2423 682s-4-6 14-6l94-1c11 0 15 1 25 8l47 29s5 5-27 5h-81c-17 0-18-1-25-4l-47-31m268 0s-4-6 14-6l84-1c11 0 15 1 25 8l47 29s4 5-28 5h-70c-17 0-18-1-25-4l-47-31m246 0s-5-6 13-6l77-1c12 0 33 1 44 7l31 25s9 10-23 10h-70c-17 0-19-1-25-4l-47-31" fill="#4fa8ff"/><path d="M2557 682s-4-6 14-6l94-1c11 0 15 1 25 8l47 29s5 5-27 5h-81c-17 0-18-1-25-4l-47-31m256 0s-5-6 14-6l87-1c11 0 14 1 25 8l47 29s4 5-28 5h-73c-17 0-18-1-25-4l-47-31m-514 4s-3-10 15-10l85-1c11 0 15 1 25 8l47 29s5 5-27 5h-71c-18 0-42-4-49-8-6-4-25-23-25-23" fill="#ff0"/><g fill="none" stroke-width=".7" class="D" transform="matrix(12.52451 0 0 5.68642 -985 -1340)"><path d="M272 356l1-2h8l2 2 3 5s1 1-2 1h-6l-2-1-4-5zm21 0l2-2h6l2 2 4 5s0 1-2 1h-6l-2-1-4-5z"/><path d="M313 356l1-2h6c1 0 3 0 4 2l2 4s1 2-2 2h-5l-2-1-4-5zm-30 0l1-2h7c1 0 2 0 2 2l4 5s0 1-2 1h-7l-2-1-3-5z"/><path d="M303 356l1-2h7l2 2 4 5s0 1-2 1h-6l-2-1-4-5zm-41 0s0-2 1-2h7l2 2 4 5s0 1-2 1h-6l-4-2-2-4z"/><use xlink:href="#F"/><use xlink:href="#G"/><use xlink:href="#H"/><use xlink:href="#I"/><use xlink:href="#J"/><use xlink:href="#J" x="-1.8"/><use xlink:href="#J" x="2.1"/><use xlink:href="#I" x="10.2"/><use xlink:href="#J" x="10.8"/><use xlink:href="#I" x="14.8"/><use xlink:href="#I" x="18.8"/><path d="M290 354l3 4 2 4"/><use xlink:href="#G" x="33.1"/><use xlink:href="#H" x="27.4"/><use xlink:href="#H" x="31.3"/><use xlink:href="#F" x="35.7"/><path d="M306 354l3 4 2 4m-7-8l3 4 2 4m-1-8l3 4 2 4"/><use xlink:href="#J" x="35.6"/><path d="M316 354l3 4 2 4m-7-8l3 4 2 4"/><use xlink:href="#I" x="49.1"/><path d="M320 354l3 4 2 4"/></g><path d="M3291 906" fill="#fff00f"/><path d="M3465 1485a765 765 0 11-1530 0 765 765 0 011530 0z" class="C"/><use xlink:href="#K"/><path d="M396 93a95 95 0 01190 0h-95z" transform="matrix(6.98305 0 0 6.98305 -729 837)" fill="url(#A)"/><path d="M3167 1354c-8-7-14-10-24-13-9-3-14-3-25 0-11 2-15 6-22 12-6 6-11 15-13 25s1 17 2 27l50-14s18-4 29-4 12-2 19 0c-1-8-9-25-16-33zm-161 12s-1-1-2 2v4l57 14 3-5c1-3-1-6-1-6m-97-51s-1-1-2 2l1 2 103 38 2-4 1-6m120 0l2 4 3 3 72-42-1-2-2-1m-17-20s1-2 0-3c-1-2-3-1-3-1l-62 51a9 9 0 001 3l3 2m-112 0l4-3 2-5-85-60s-1 0-3 1v3m180 50l2 3 3 2 52-64s1-2 0-3h-3m-184-12s-1-1-2 0c-2 1-2 3-2 3l48 71 4-2 3-4m118-78s0-1-1-2l-3-1-48 78 4 3 4 2m-83-84s-1-3-3-2c-3 1-2 3-2 3l25 77 5-2 4-2m55-78s1-1-2-2l-3 1-20 78 4 2h4m-23-88s0-2-3-2-2 2-2 2l2 86h5l5-1" fill="#ffe400"/><g class="D H M"><path d="M2644 827c85-9 118-3 181 6 62 10 151 49 222 86 62 39 96 70 173 153 20 30 37 61 52 94-4 21-28 18-44 23 0 0-40 1-44-4-4-10-11-17-18-25-9-11-17-17-28-28a624 624 0 00-343-201 540 540 0 00-300 41c-57 21-127 60-176 108-4 1-56 57-58 58-10 9-23 21-21 35-10-2-21-7-33-7-14-1-26 3-39-4-9-1-18 5-25-14 4-30 36-68 36-68 30-37 59-70 98-102 58-42 96-70 147-95 24-10 68-25 110-37s29-11 110-19z"/><path d="M2275 1144c4 5 8 12 5 19-5 18-23 23-37 34-2 12-15 9-18 4-6-8 8-17-1-17s-27 4-34 2c-9-1-22 5-29-2l-3-3c3-4 6-11 10-11 4-4 11-3 16-4 15 0 28-1 44 4l14 8-6-4-3-2 12 8c5-5 13-14 20-18 2-3 0 2 1-1s4-3 4-3c-3 1-3 7-6 5-5 2-8 6-13 9l-7 3c-4-18 7-18 11-26l1 5c8-3 10-14 21-8"/><path d="M2193 1186l30-2c-1 1 2 2 4 2-18 12-13 37-19 54-11 17-19 37-36 49-5-12-2-28-4-42-4-4-9 2-13 4-16 15-34 31-53 43 10-17 12-38 20-56 2 0 3-3 1-3 8-17 9-42 30-49 13 2 28-1 40 0m986-2v6c-12-1-12-8-21-18l-1 1c5 8 8 13 17 21 8-5 25-7 45-6 18-1 28-3 43-7-3 8-11 13-1 21l-79 1c-4 3-14 2-16 9-6-11-16-24-22-37 0-7 7-10 11-14 14 0 16 15 24 23"/><path d="M3263 1204c17 12 22 33 30 51l13 36c-18-8-39-11-52-28-11 8-13 23-18 35-12-9-11-23-22-34-3-6-6-10-11-24l-8-21c-6-3-9-9-14-12 3-3 8-3 11-4 14 0 33 1 47-2 9-1 16 1 24 3"/><path d="M3189 1221l-5 5-9-3c-5 0-2-4-6-7-2-14 7-10 10-11 4 4 6 11 10 16"/></g><g fill="#fff200" stroke-width="1.6" class="D"><use xlink:href="#L"/><use xlink:href="#L"/><use xlink:href="#M"/><use xlink:href="#M"/></g><path d="M2894 1564c7 4 13 9 17 15 10-4 23-1 36-2 35 2 71-1 100-19l-2-2c-9 2-22 12-31-1-3-9 0-20-4-28l-1-30c-4-2-8-1-13 0l1 31-25 3c-2-10 3-23-3-33-1 0-3 0-4 2v3l-3-3-1 2c1 17-4 36 3 52-9 3-19 4-27 9-6 0-9-7-15-6-10 0-20-1-27 5l-1 2" class="C"/><path d="M2203 1918c3 2 4 5 6 8l24 24h41c52-3 106 0 154-1l1 1c12-1 25-3 40-1 1 1 2 1 2 3-58 6-121-3-185 1-12 0-38 0-49 2l20 19c25-2 54-11 76-8v1c13-3 29-1 44-1h18c26 0 42 1 70-1l4 2c6 0 11-2 18-1v-2l4-7c0-1-4-5-4-2-1-3-6-3-5-7-10-5 0-18-10-23-4 3-11 1-13 6 0-1-2-2 0-3h-3c-7-7-11 1-20-1-22-6-37 10-59 4-21-8-48 3-69 0-25-4-55-3-78 0l-3-2 2-2 45-3c20 6 46 2 65 3 17-5 37 2 56 1 17-10 30-2 49-6v-19c-12 2-26 2-38 2-61-1-118 9-174 3-6-2-14 1-20-1l-14 4m548 3c3 6 3 10 1 18 25 6 50-5 76-2 35 5 66-2 101-2 9-4 17-5 25-4l5-5c2-7-2-7-8-9l-94 3-106 1m-232-113c-6-9 13-21 3-31v-2l10 2-2-1c-3 5 3 7 4 11-3 6-9 13-10 20l-5 1" class="B"/><path d="M2664 1743c13-4 25-14 38-12 8 9 24 8 30 21l8-2c-2-9-3-19-2-27 3-16 20-24 31-27 6-3 15 1 20 5l1-1c6 0 12 3 14 7 7 2 15-1 21-2 4 1 9 0 11 4 0-1 2-2 0-4 0-5 5-3 6-4 2 2 4-2 6-1 6 0 7 3 11 4v-3c3 0 3 1 4 3 3-2 7-4 12-3 3 0 5 0 7 3 5 13 7 25 7 41-6 11 6 28-2 41 29-1 54-2 83-1l3 3c-2 0-3 5-6 1l1 1c-31 1-66-2-100 2-34-4-68 3-101 1-14 8-32-2-47 2-34 2-72 2-106 14l-1 1c-12 3-24 6-36 6-8 6-17 0-24 5-20 1-42 7-65 6-1 1-5-2-6 1l-1-2c-33 8-68 0-103 9-2 0-5-3-6 0-1 1-2-1-3-1-19 2-31 4-48 3-46 5-90 7-137 7-7-1-14 3-20 1 1-5 6-2 9-4-2-3-1-8-5-10-4 5-18 7-22 9 15 23 33 46 50 68l18-4c80 5 151-5 232-5 2-11 0-26 0-39l3-4c3-1 5 2 7 2 5 3 4-5 8-7 2-1 7-2 8 1 2 9 12 11 19 14 1-5 4-9 7-13 2 2 6 1 5 5l9-9 10 9c1-2 4-2 5-1 1 12 17 5 20 16 3-3 4-10 9-13 4-1 9-5 14-3 11 11 8 29 11 41l8 4c32 4 63-14 96-10 10 1 22 4 25 15l5-6c10-1 18 5 26 9h11c3 1 45 0 57-1s71-2 78-1l59-1-1-2s-1 3-3 1c-4-4-1-10 1-14h-3v2l-6 1c-2-3-6-6-6-10 1-6 9-5 14-9 1-12 14-6 22-9 9 0 2 11 11 10 6 3 10-2 15 4l-1 7c-2 2-5 4-8 4-3 5-1 10-2 16h230c17-21 23-25 43-56s52-82 65-126l-48-7 5 7-5 3-6-9-2 69-111-5h-124l3 4h-30l21-5 2-61-6 6c-1 0 0-5-3-4 9-8 9-10 11-10l45-52-51-6c-19-1-106-15-106-15-19-3-67-18-85-22-19-4-188-67-195-70s-25-5-31-7-111 0-111 0l-9-1-42-3-17-2-21-6-9-2-51-8h-32c-19-1-32 12-49 9-31-5-55-28-90-21-21-6-42 2-63-1-19-1-46-14-65-6l6 75c10 63 23 110 48 170s22 54 51 96c0-5-1-41-6-46-5-21 16-2 24-9-2-2-2-4-1-6 3 12 16 1 25 5 14 2 22-4 35-1 9 6 13 15 20 24 5 3 5-4 8-7 1-4-2-7-4-10-2-4-1-9 2-12 7 2 16 1 22 3 6-2 19 2 20-9l2 2c14-2 21-3 35-1 8 7 17 8 25 15 3 13 14-1 23 2-4-15-10-26-12-42 3-33 35-11 52-18 6 4 15 0 22-1 22 3 40-13 61-3 7 4 13 11 12 20 1 6-8 15 0 17 0 3-5 3-3 7-7 4-11 16-16 24-1 8 5 18-1 25 17-1 33 0 49-3 2 0 4-3 2-5-1 1-1 3-3 3l-1-2c-1-1 0-4 2-5v2l1-1 2 1c-2-1 0-5-3-5-1 3-5 2-6 4-8 0-10 2-16-3l-9-3-2-3c-3-6 3-11 6-16l-1-1c10-6-2-13-1-20l3-1c9-3 18 6 27 3l1 1c5-3 9-1 15-3 2 0 4-3 6-2 7-7 11-4 19-6 11 3 22 8 29 18 2 2 2 8 6 5-10-13 11-25-1-36 5-7 13 1 19 1 4 0 8-2 12 1l16-2" fill="url(#E)"/><path d="M2665 1754c14-6 28-12 43-15-12-11-23 1-32 3l-19 6 8 6" class="B"/><path d="M2466 1538l491-1-1-37c1 1 1 0 1-1 1-5-5-5-8-6l-3-1v4c-5-12-19-3-27-6-12-9-25-2-37-7-3-2-8 0-12-1-18-19-39 5-58-3-10 2-19-11-31-5-9 3-19 6-27 3-2-3-2-6-2-9l1-1v-2c14-1 31-7 47-3 5-2 16-2 23-1 20 2 44-6 65 7 15 0 27-4 40 1 2-5 8-1 11-4 15-2 30-8 43-1 7 7 22-2 27 11 4 7-5 16 3 22 3 14 2 27 6 40 104 2 205 7 311 5 4-1 26 1 30 1l1-23v-23c-25-1-60-6-83-2l-2-2c2-4 5-2 8-2-1 2-1-1 1 1 1 0 0-2 2-2 25-1 52 1 74 3 1-43 6-63-4-103-2-4-65-19-91-29-9 4-96 54-120 62-17 6 50-20 42-21-17-10-11-10-37-4-42 6-83 25-125 28-2 0-10 6-7 1 15-1 40-7 55-11-28-9-67-15-95-26-39-14-77-40-119-62-34-6-47-11-93-37-34 4-59 25-92 34-28 9-49 35-77 43-29 9-58 22-87 30 11 6 25 9 37 13 27 7 62 4 85 4 53-1 100 1 149 18 10 3 21 4 30 9h-8l-53-16c-35-11-83-10-121-10l-10 2c-24 1-36-4-59-3-39-10-78-29-121-27-7-3-18 0-27-1-23 3-49 0-71-10-1-1-4-1-4 1l-2-2c-12-5-78-25-91-29-30 13-24 13-59 21-41 14-97 22-137 39-7 37-8 52-10 91 17-8 51 3 66 6 40-2 75 0 112 5 24 12 53 27 78 10 12-1 24-4 36-2l36 5 24 5 7 1 27 8h16" fill="url(#D)" class="D M"/><path d="M2888 1472c18 0 35-4 51 6 2 2-1 5 2 5 5-2-1-4 2-7 7 2 15 5 20 11l-1-5c3 1 4 4 5 7l-2 2-1-2c0 3-3 4-6 3l-5-4-1 1c0-1-5-3-7 0 1-2-3-2-4-5-17 10-31-10-49-3-10-4-23-2-31-10-9-1-20 0-29 3-12-1-26 3-37-6-9 0-18 2-26 4-2 5-7 0-9 2-2-1-6 0-6-4 16-3 29-5 47-5h8c27 6 56-7 79 7m112-1c4 2 5 5 6 9-3-1-4 1-5 3 8 3-4 11 5 11-3-2-6 0-9-1 4-6-4-10-5-15-9-10-25 1-33-5l-1 2c-10-4-17 4-26-5 16 2 25-10 41-6 8 5 17 8 27 7" fill="#969696" stroke="#969696" stroke-width="6.7"/><path d="M2993 1487v38l-16 3c-2-10-2-24-5-33 0-6-1-12-7-16l23-5 6 11" fill="#6d3f86"/><path d="M2372 1521c-3-1 0-3 0-4v4" class="I"/><path d="M3229 1492c14-1 33 2 46-1l-3 1 2 2c-16 2-38-1-52-1l-3 1-1-2v1c-26 6-62-1-94 2 12-3 28-3 42-4 21 5 43-2 63 1"/><path d="M3065 1553c-12 7-9 24-21 30-1 4-2 6 1 9-40 1-77-3-115-1l-14-1c1-2-3-6-3-8l-1-2c39-1 78 5 114-10 15 0 26-12 39-17m-208 9c-4 3-11 6-13 11-12 3-27-1-38-1-4-7 6-6 10-8 16 1 22-2 41-2m15 0c2 5 0 10 0 15l-12-11 12-4m19 5c-3 4-11 7-15 13l2 2 18-13c4 4 10 8 12 13-9-2-18-2-26 2 6 5 13-1 19-1 1 2 3 3 6 2l2-2 2 7c-18-1-39 0-55-4-4 1-9 0-13-1v-2c6-2 14 0 21 1 0 2 2 4 3 4 5 2 9-4 12 1 1 0 3 1 3-1-1-4-9-4-6-11 1-4 2-9 1-15 6 0 10 3 14 5m-21 13c-7 5-15-4-24-2l11-11 13 13m-29-4c-2 2-8 2-6 6 0 1 6-2 4 3-17 1-28-1-44-2 7 0 7-10 14-7 3-3 11 0 17 0s9 2 15 0" class="C"/><path d="M3320 1558v-2h2l-2 2m-173 18c1 3-4 0-5 1 2-3 4 1 5-1m151 16l-8-2h9l-1 2m-83 4h-1c-2 3-3 0-4 0h5m3 1c1-2-2 0-1-2l5 1-4 1"/><path d="M3100 1629l2 84 8 12 1 53-58 1 2-52 14-14 7-82 10-10 9-2 5 10" class="B"/><path d="M3151 1702c-2-2-3-5-6-6-8-6-12-15-21-19-4-6-13-9-18-14l2-5 60-7c11 1 22 0 34 2 19 17 31 31 50 57-30 1-59 0-88 2l-13-10" fill="#ff9120"/><path d="M3149 1708c-6-6-10-16-19-17l2-2-25-22c-1 12-4 48 9 54 3 4 0 17 0 17l5 1-6 3c-2 12 2 24-1 37l40 1c3-19 3-45 3-66l-8-6m-90 6c-5 7-9 9-9 17 4 4-1 13 1 21l-6 1c1 3 4 1 6 2l-1 24-25 1 2-60 8-12 33-34c-2 11 1 37-9 40" class="B"/><path d="M2798 1707c5 8 9 17 11 27 2 1 2 3 4 2 2-6-2-14-4-21 0-2 3-2 6-3 0-1 3 0 4 2 0-2 3-5 1-4 3 0 7 3 8-1v1c8 3 12 12 17 19 4 0 1-6 2-7-3-5-10-9-6-16 4 1 6-3 9 0l1-1c3 2 9 0 12 2 4-1 10-3 15-1 5 14 8 29 3 44l2 9h-1l-3-3c-19 6-42 11-64 9-3-4-8-10-13-11-4-2-7 1-11 1 3-15-2-38-16-47l-1 1c-3-3-8-3-12-3 0 5-5 1-7 4l-6 3c7-9 21-14 32-11 6 2 11 5 17 5" class="C"/><path d="M2782 1721c3 11 6 19 5 31-6-2-12 3-18 2-6 2-15-4-22 0-3-12-4-29 7-37-1-1-3-2-4 0-4 3-5 8-7 12-2-11 10-13 16-18 9 2 19 1 23 10" class="G"/><path d="M2404 1794l-4 3c-1-8-10 3-15-1 2 6 1 15 3 21 5-2 15-3 13-12 1-3 5-6 6-10l-3-1" class="E"/><path d="M2408 1790c-4-6-1-17-3-25-3-9-3-20-12-24-6-3-13 0-18 1l-4 4c-2-3 3-8 7-11 12 0 25 3 37 2l2 3c2-4 7-2 10 0 3 12 12 25 8 41l4 1c4-6 3-17 0-23l-8-21c13-4 27-4 41-4 4 6-2 16 5 20-1-6 1-15-2-22 12-3 27-3 31 10-2 18-6 35-16 50l-7-1-7-2c-19-5-37 22-53 3-4-1-9-3-13-2h-2" class="C"/><path d="M2481 1797c-5-1-9-3-15-2-3 2-5 7-7 10 0 7 0 14 4 19l7-1c7-1 14 2 17-5 1-2-2-4-1-6 2-1 3 3 4 1l-4-16h-5" class="E"/><path d="M2395 1749c5 12 7 27 5 40-8-1-11 2-18 1-3-14-17-30-6-43 6-3 16-6 19 2" class="G"/><path d="M3243 1717c4-2 10-1 13-1 2 22 1 47-1 68l2 1c-12 1-27-1-37-2 0-13-2-26-3-37-4-3-8-3-13-2s-16-1-23 3v34c-8 1-12 1-19-1 0-20-4-42-1-63 31 1 52-2 82 0m-606 33l-2 1c12 3-1 11-1 18l-4 7c-3-4-6 0-10-2 0-10 8-19 5-29 4 1 10 1 12 5m91 2c-1 2-4 1-5 2 1 4 5 1 6 4 1 10 4 24-3 31h-5c2-6-7-8-6-13-2 0-2-3-3-6 1-1-1-3-3-5-3 3-1 11-4 13-8 0-16 4-23 3 0 0-8 6-6-1-5 0-6 7-8 11v2h-4l3-1c-5 0-3-3-6-6-2-5-8-7-4-13-2-1-2-3-4-2l-2 8c-7-1-7 6-14 4-7-13 15-23 4-35 4-4 10 2 15 3 1 5 7 6 11 8 2-1 7 1 8-2l-2-2c10-4 25-13 41-14 5 3 11 6 14 11m-139 10c-7 4-16 7-23 12-9 3-20 1-26-3 17 2 32-14 49-9" class="B"/><path d="M2742 1763l-3 3c-2-2-3-6-4-9l6-1c0 2 3 5 1 7" class="F"/><path d="M2788 1756c-5 3 0 14-9 12-9 1-14 2-22 0 5-3-2-6-4-8l-5 8c-2-3 1-8 3-11 11 2 24 3 36-3l1 2" class="E"/><path d="M2592 1800l-4-4c-1-3-2-7 2-9 5 2-1 4 2 6 3 7 10 7 11 14 2-1 5 0 6-2h-1c-1-3-2-7 1-10 2 0 1 3 2 4-2-7 4-16-1-23-5-9-15-9-25-7-9 5-18 11-27 11-11 1-19-7-28-7 11 11-9 21-5 32 5 2 9-5 15-3 2-3 1-7 4-9 8 1-1 6 2 9 5 3 2 9 2 14l9-2c2-3 2-6 5-9l1 5c7-3 14-3 20-7l9-3" class="B"/><path d="M2584 1807c-8 2-17 3-20 6l1 1c2 1 5-2 6-1l28-5-4-4-11 3" class="F"/><path d="M2804 1761v1c-2 1-6 0-9-1 1-2 7-3 9 0" class="E"/><path d="M2334 1784c-7 1-14 4-18 2-8 2-20 0-28 6-2 0-5-3-7 0h1c-7 4-13-9-21-3-2 8 9 15 1 22-2-1-6-4-9-2-2-4 6-8 3-12-2-4-5-8-4-12l33 3c11-11 29-7 43-9l6 5m868-38h11l2 36-29-1v-32c5-3 11-1 16-3" class="B"/><path d="M2808 1770c3 4-1 8-2 12-2 4-6 4-9 4-4-4-10-10-7-16-1-2-2-6 0-8 5 6 13 2 18 8" class="E"/><path d="M2173 1789c14-1 30 2 44-2 4-1 6 3 10 4-18 4-37 6-56 3l-1-3c-2 1-3 3-2 5-7 3-11-5-18-4 1 10 2 20-7 27-9-8 12-17 2-27-1-2 1-2 2-3 8 4 19 2 26 0" class="B"/><path d="M2884 1768c0 6-1 12-4 18-6 0-12 2-16-4-3-2-4-8-3-11 0-3 2-4 4-6 4-2 11 0 14-3 2 1 5 3 5 6" class="E"/><path d="M2742 1769c-1 1 0 4-2 3s0-3 2-3" class="L"/><path d="M2859 1767c-2 4-3 9-1 14l3 5c-7-3-14 4-15-6-2-8 6-17 13-13m-74 10l-2-5c-11 5-19 0-29-1v5c2 7 9 10 15 8v2l12-4 4-5" class="E"/><path d="M2782 1787h10c-2-1-4-3-5-6l-5 6" class="L"/><path d="M2839 1771c1-2 3-2 4-2-2 4-3 11 0 16l-33 2c5-5 6-11 6-18 8 1 17-1 23 1" class="F"/><path d="M2228 1838c4 1 7 1 11-1 1-13 6-26-6-35h1c-3-4-7-6-12-7-15 7-31 5-47 3h2l1 2-11 1-1-2c-4 0-9-2-12-4 1 3 0 8 4 9-2 7-4 14-10 20 0 4 3 6 5 10l4-2-3-8c4 2 5 4 6 8 8 1 6-10 12-11 0 4 2 8 4 13 2 3 4 9 9 6-2-4-2-10 0-13 12 0 23 1 34-2 5-1 6 3 7 7l1 6" class="B"/><path d="M2225 1839l-6 1h-27l-1 2c-5-1-2-7-3-11 10-1 22 1 32-2l2 3 3 7m132-16c1-6 4-11 3-17l12-1c-3 4-4 11-2 16 3 2 1 6 3 8l-14 1-2-7" class="F"/><path d="M2327 1814c-1-3-2-7 0-9 3-1 1 2 3 3 0 12 13 11 12 23l11-1 1-8c1-9 1-16-2-26-1-4-6-5-10-8l-2 4-4-4c-12 3-20 3-33 4-10 9-28 5-38-1l-1 2c1 4 4 5 7 6 4 3-1 6-3 9 2 7-11 9-3 16 4 3 6-2 9-3 0 1 2 1 1 2 4-5 13 1 16-8l1 2c-4 5-1 12-2 17h9c2-6-2-12 3-16l25-4" class="B"/><path d="M2304 1823v10l35-2-2-2c0-6-3-8-8-11l-25 5" class="F"/><path d="M2837 1774v1c-6 0-15 1-19-4 6 1 13 1 19 3"/><path d="M2758 1789c-6 3-15-2-24-1 2-4 8-6 5-13 13-6 8 13 19 14m-49 2c-11 1-22-2-32 1-2-4 1-5 3-7 7 6 14-8 21-2l8-3v11m-63-5c3-3 5-1 8-3 2 3 3 5 2 9l-1 2-44 10v-3l3 1c1-4-1-9 1-13 8 0 15-9 21-2l10-1" class="F"/><path d="M2431 1804c1 2 3 3 2 6-1 1-4-1-4 2 1 3 3 1 5 2-7 8-13 14-24 10-3-2-5-1-7-5 1-8 2-17 10-23 8-2 12 5 18 8m23 2c-5 0-11-2-15 3-3 1-2-3-3-4 8 0 14-7 22-8l-4 9" class="E"/><path d="M2716 1788l1 2-2 1v-3h1" class="B"/><path d="M2379 1809h-2c1-1 2-2 2-5 4 1-3-3 2-3 2 2-1 6-2 8" class="E"/><path d="M2259 1814c-5 4 4 10 6 17 7 3 11-3 16-7l3 1c2 4 1 5 1 9-12 2-28 4-41 3l1-12c2 2 2 1 4-2 2 0 2-5 3-7 2-2 6-2 7-2" class="F"/><path d="M2341 1814l-2 1-1-4c3-1 3 2 3 3"/><path d="M2387 1820l8-2c2 2 8 5 4 9h-2l-2-3c-5 4-11 0-16-1-2-5 2-8 3-11-1 4 2 6 5 8" class="E"/><path d="M2458 1823l-30 2c11-2 6-17 19-15 11-5 6 9 11 13" class="F"/><path d="M2489 1871c0 11-6 22-10 33-13 5-2 21-16 21-2-3-12-1-8-7l-2-11c-4 1-3 5-5 8 1-9 6-21 5-32h1c-1-3-3-3-3-7l7 3c1-2-2-5-5-6h-1l-1-13c5 2 11 5 13-2l1-4c6 8 15 14 24 17" class="H"/><path d="M2549 1882l2 1 1-1c4 3 6 13 4 20-1 7-4 15-11 18-3 0-5-1-6 1l-3-2c-2 3-5 5-8 3-5-2-7-6-11-8l-7 8 1-2h-1c1-2 3-2 3-5 4-5 12-5 16-10-1-2 2-4 3-6 0-4 4-7 1-9-5 3-5 14-12 14l-4 2 1 1c-8 4-11 14-19 19l1-4-1-1c-4 5-8 9-14 12l-3-3c0-4 6-6 6-10-4-2-8 2-10 4-8-14 11-22 12-36 7-9 0-22 9-30l5 7c1-5 5-8 8-12 9 14 31 12 37 29" class="C"/><path d="M2572 1869c2 23 9 47-3 68-8 7-23 12-36 8 1-1 2-4 5-4-7-4-14-4-16-13l1-3c1 4 5 4 6 7 2-2 4-1 7-3l-3-2c5 1 7-7 11-3 1-3 3 1 4-2 13-5 14-19 14-30-4-5-1-15-10-16 1-5 3-12 8-14 7-5 12 0 12 7" class="E"/><path d="M2964 1871c1 4 0 7 4 9 2-3 1 1 4 0 4 5 18-3 13 8-16 0-32-3-48 2 0-2-2-3-1-6 13 3 6-15 19-13h9" class="G"/><path d="M2698 1899c8 11 21 23 14 38-18-3-41-2-57-3 1-3-2-3-2-4-2 2-4 2-3 4-19-2-42 2-61-4-3 1-6 0-9-1-1-9 2-19 2-26 22 12 45-2 66-4l2-2v1c17-1 32-5 48 1" class="C"/><path d="M2976 1892c0 4-4 9-1 13-6 1-13 3-15 6 0-2 2-2 1-4-3-1-8 1-9-2-2 0-2-8-7-5l1-8c12-2 19 0 30 0" fill="#ffe2d1"/><path d="M2739 1915c1 8 2 19 1 25l-20-2-4-19c3-5-5-8-3-13 8 4 21 0 26 9" class="C"/><path d="M2518 1925c0 4 0 10 4 14-5 5-12 4-17 8-1-4-3 1-4 1-4-1-11 1-14-2 0-3-4-5-3-7s5 0 6 1c4-6 14-6 19-13 1 2 2-1 3-1l2-3-1-1c3 2 4-2 5 3" class="E"/><path d="M2984 1921c2 12-2 26-7 37-2-2-6 2-9 1-1 3-3 0-4 0 5-5 6-14 4-20l-3-1c-3 8 0 20-10 22-10 3-18 2-28 11l-11 8v-7h1c-2-10 14-6 19-13 6-14 10-25 21-35 6-5 7-17 18-14l9 11" class="G"/><path d="M3011 1913c57-2 124 1 172-1h22c-3 5-8 11-13 15-13 1-36 5-48-1-28-1-57 7-82 2-26-2-46-1-72-1 1-5-3-9-5-13 11 0 18 2 26-1" class="B"/><path d="M2652 1939c-2 6 3 12 5 18-10-1-24-7-35-9-1-1-2-2-3-1l-12-3c-2-2-5-3-8-2l-11-4-7-2c23 3 50 3 71 3" class="C"/><path d="M2869 1999c-3-1-7 1-11-1 0-6 3-11 3-17-4 0-10-5-14 0-3 3-2 9-2 14-12 0-26-2-39-1v-9c-1-6-6-1-9-2l-2 2c-15 1-25-2-39-5 4-3 6-8 8-12-4-4-11 1-16-4-2-4-1-11-2-17 38 3 75 11 115 14 9 1 17 5 26 7-7 7-11 13-13 23l1 2-3 9-3-3" class="B"/><path d="M2663 1970l-1-2v-1c-1-4-5-2-8-2h-2l-2-3c-4 1-6 3-10 2-8-4-17-5-25-7-17-1-29-15-47-13l6-7c20 9 43 15 63 19 13 6 29 11 43 15 39 8 72 16 113 20 2-2 5 0 5-4h2c2 4-2 10 5 11 2-2 3 2 6 1 12-2 26 4 38 1 1-5 2-11 1-16l6 1c0 5-4 11-2 16 5 3 10 1 16 4l7-2 1-8c2-10 6-20 15-25l-1-1c3 3 7 0 12 2-7 6-17 14-20 23l2 2c6-10 14-18 24-24 1 4-3 8 1 10-14 11-25 26-34 41-3-7-11-6-16-9-1 1-2 2-1 3-7-1-15 3-21 0l2-2c-7-1-16 1-24-2-10-2-23-2-35-1-6-2-8-9-13-12l-27-9-51-12c-7-4-15-5-21-7l-7-2" class="E"/><path d="M2667 1975c2 1 3 2 5 1-3 0 0 2-1 3 7 13 7 29 10 43-9 9-5 24-15 33l-1 9h-20c9-10 11-29 19-43-4-10-12-18-14-29-8-3-3-12-6-18l-3-3c-2 2-1 4-1 6-2-2-3-4-1-6 2 2 3-1 5-2l2 4c2 1 2-2 2-3l-1-1 5 8 2-7c2 0 6 0 7 3l6 2m44-32c3 5-1 12-1 20-1 2-2 6 0 8v1c-16-5-36-6-48-15v-1l2-2-2-1 1-1c-1-4-4-10-4-14l52 5" class="C"/><path d="M2768 1937c28-4 59-4 84-1 20-2 39-2 58-5 11 1 26-2 37-3-17 10-35 19-50 31-4-7-16-1-23-5-31 0-67-7-99-10-7-3-22-1-30-5l2-4c5 1 14 0 21 2" class="B"/><path d="M2625 1963l12 3c-6 3-13 4-21 6v-1l-4 2c-2-3-4 2-6 1h-7l2-3c-5-2-10 2-14 1l-2-2c-1 2-4 2-6 3-1-1-5-3-7-1s-6 1-8 4h-10l7-5c-7-3-10 7-15 8-11 3-6 18-11 26 5 9 9 20 9 29l-6 5-1-1-1 2h1l-4 2c-4-5 0-14-8-16-9-21-8-42 9-61 15-5 34-3 45-15-8 1-19 10-26 0 4-2 8-2 12-5 21 3 39 13 60 18" class="C"/><path d="M2998 1931l-1-1c1 1 6 2 8 1 22 1 43-1 65 3 8-1 14 2 19-2v1c5 1 13 0 18-1 15-1 28-4 44 1 10 1 28-1 37-2-17 20-41 41-61 60-25 4-49 4-70 6l-2 2 1-2c-23-5-40 3-64 2-1-2-4-3-6-2-1 3 2 2 3 3h1l-1 1c1 3 3-1 5 2 1 0 5-2 8-1 14-1 23 2 35-3 3 2 4-4 8 2 16 1 29 1 41-3l1 1c2 0 9 0 15-3 7 0 12-2 19-1-12 12-25 24-40 32l-7-3-2-2c-23 8-46-1-69 4 2 6 9 2 14 2v1c1 1 2 0 3-1 1 1 2 2 4 1v-2l2 2 6-1-1 1 3 2c3-1 7 0 11-2h14l5-1-1-2h3l2 2 10 1c-21 15-44 28-66 40-19-2-43 3-61-3-21-1-41-6-63-5-24 2-49 6-73 0-18 3-36-4-51 4 23 5 50-2 74 2 34 0 78-5 112 5h26c-8 2-19 2-27 1 11 6 27 5 39 1l-1-2 19 2c-7 3 19-10-24 11a885 885 0 01-223 59 656 656 0 01-286-38c-43-16-36-15-54-23l-36-18c34-11 82-5 120 0 25 2 44-4 67 4 13 3 22-2 34 1 13-1 25-1 33-3 6 7 17 3 25 2 13-3 28 2 37 0-3 2 3 4-1 4l3 3 1-7c13 2 26-4 38-1v2c3-4 10-1 15-4l3-3h-17c-5 2-11-1-17 1 1-4-2-10 2-13l50-2c-1-1-2 0-2 1 15 7 35-13 45 6 8 1 18-4 25-6 11 2 19 2 31 2 18-2 35-3 51 2l15 2 1-2v1c5 1 12 2 16 0 5 5 13-1 19 4 8-1 18-2 25-6 2-1 3 1 5-1 4-2 13 0 16-3v-2l-20-1c-7-17-10-35-21-51 8-4 9-13 12-19l-5-9 4-2v2c1 0 4 0 4-3h1c-5-4-15 2-14-8h1l5-26c2 1 5 3 7 1" class="B"/><path d="M2536 2095s-61 25 74 44 220-3 236-7c24-8 86-40 69-43-32-7-67 3-89 2s-34-13-94-9c-49 3-73 7-89 10s-22 6-34 7c-25 1-74-5-73-4z" fill="url(#C)" fill-rule="evenodd" stroke-width="2.6" class="D"/><path d="M2546 1951l3 6c-6 1-14 1-18 5-6 6-6 14-17 12-1 3-5 1-6 2-7 13-32 18-23 37-5 12 12 19 8 32-5 4-10 1-14 0-6-9-19-16-15-29 2-3 1-7 2-11 5 2 1 14 8 9 0-9-9-15-5-25l9-9 1 1 1-2h-1c7-6 14-14 24-17 1-3-3-3-3-7 7 0 12-3 19-3 1-2 5-2 7-2 2-2 8-1 12 1h8" class="H"/><path d="M2730 1944c3 2 7 2 11 2 1 7 0 11 3 17-3 1-4-3-6-1 6 4 9 14 15 11l-3-4c3 0 5 4 8 1-4 19-18 3-31 5l-12-3c4-7 1-19 4-29 4 1 7 3 11 1" class="C"/><path d="M2941 1938c-5 7-5 22-18 23-7-2-11 8-18 1l-1-1c6-6 23-15 34-23h3" class="G"/><path d="M2483 1970l1-2v2c-10 10-25 19-22 36-2 7-4 14-3 21 6 10 16 17 18 27 7 2 12-3 18-5 5-9-1-23-7-31 3-7 0-13 1-20l15-12c15 11 9 34 20 48 1 4 6 10 2 16l2 11c-37 0-74-5-109-9-14 1-29 6-43 9-16-9-36-22-51-33 38-5 83-4 122-3l2 4c4-1 4-5 3-8-12-3-29-1-41-3h-35l-2 2c-3-2-8-1-12 0l-2-2-11 5-27 2-22-15c7-2 23-5 27-2 10-1 18 0 27 1l2-2v1c22 2 48 2 75 0 3 5 7-1 11 2h10c0 2 1 3-1 4l2 1c0-3 5-6 1-9-39-5-82 0-119-4l-38 6c-12-10-26-20-37-31 66-10 148-4 212-6l11-1" class="B"/><path d="M3058 1948v1c2-1 8 1 10 4 1-4 3-1 5-1 2 2 6-1 9 1 20 3 38-4 58-2v2c2-2 5-3 8-3v3c2-2 6-2 8-2 1 2-1 5-3 3-3-2-7 1-12 0-13 1-24-4-37 2l-1-1-1 1c1 0-5 1-6-1-2 2-5 2-9 2-2-2-3-2-5 0-12-3-27-8-41-6l2-1h-3c-1 2-7 2-11 2v-1c-4 2-10 2-14 0l-8 1-1-2c-1 2-2 1-5 2l1-1-8 2-2-2v2l-1-2c5-1 18-3 27-1 10 0 28-4 40-2m-261 19l1 2c0-4 1 0 3-2h8c10 1 14 3 23 0v1c3 2 12-4 12 2-24 3-45-2-70 1l5-3c5 0 10-3 16 0l2-1m-425 18c6-2 15 0 21 0h69c1 4-4 4-4 8 1-8-8-3-11-5h-32c-42 0-82-2-125 2 2-4 6 0 8-2 27-3 48-6 74-3"/><path d="M2521 1977c-3 4-5 10-6 15 1-5-11-10-1-14l7-1" class="H"/><path d="M2583 1976c2 19 6 34 6 52 2 11 5 23 3 35-5 4-15 0-21 1 2-5 2-4 6-7 1 2 2 0 3 0l-2-2v1c2-4 4-14 2-18 2-4 1-8 0-12l-5-14c-4-7-6-18-8-27 1-1 2-3 1-4 6 1 6-10 12-4h3" class="C"/><path d="M2635 1973c2 5 7 7 6 12-1 4 6 6 1 8-17 0-34 5-50 4 7 7 19 3 27 3 9-1 18-1 27-4l14 25c-7 7-4 26-19 20l-42 2-1 2 1 1c18-4 34 1 51-3 0 7-4 16-11 22-12-1-31 4-43 0-3-8 11-10 4-17-5-1-1-6-4-9-3-21-6-43-3-63 3 1 6 3 9 1l1 2 1-2 1 2c1-2 3-2 4-2-1 5 2 7 4 11v-8h1v-3c4 1 14-3 21-4" class="B"/><path d="M2987 1980c-1 3-8 7-7 11l4-3c-4 4-9 10-3 14 10 14 10 29 17 45l-24 1c-4-11-10-21-17-30l-2 1c5-8 9-17 9-26-6 9-8 20-15 29l-1 29c-12 1-12-1-24-2 7-9 1-23 4-36 8-15 16-30 20-46v-1c9-5 20 3 30-5 1 7 12 9 9 19" class="G"/><path d="M3117 1968c0 8 5 1 7 4 1-4 5 1 6-1v3l-1-3c-4 4-12 4-18 3-7-3-17-3-25-2-7 0-10-3-15-1l-1-2-1 2c-6-1-11-3-19-1v-2c-7 4-14-1-21 0-9 1-17 0-27-1l-1-2-1 1 1-2c36 3 84 4 116 4"/><path d="M2551 1982c-2 4 3 1 3 3l2-2 1 1 1-2h3c7 23 3 40 11 62 0 8-2 14-6 19l-14-1c3-12-4-27 3-35-5-6-6-14-13-19 2-8-4-24 9-26" class="B"/><path d="M2716 1990c1 13 23 22 7 36-3 9 3 20-4 28l1 9c-7 3-15-1-24 1-1-5 5-11 6-16 0-10 1-23 3-34-3-9-19-12-14-21-3-5-4 2-8 0-2-6-6-10-9-15 13 2 30 9 42 12" class="C"/><path d="M2942 1968c-3 22-23 37-20 61 0 6 1 16-2 20-2-2-8-2-11-2-1-3-4-1-5-2-14-1-23 6-39 2 7-8 10-17 19-22 9-27 38-45 58-57" class="B"/><path d="M2712 1994c-1 2-3-3-5-4 5 0 1 4 5 4"/><path d="M2728 1991l-2 4c2 4 1-2 4-2 10 6 24 8 35 10 5 0 8 11 16 12v1c10 2 18-1 29 0 6 3 11 1 18 5l-7 2c-2 5-7 5-11 9l-1-1c-8 3-11 20-22 16l-2 1c-1-3-6-1-8-2-18-2-32 2-50 2 3-8-2-16 3-23l3-7 4 3-1 2c5 3 10 3 15 0 5 1 10 2 15-1v1c7-4 21 6 27-2-7-4-12 1-18-3-14-5-41 16-47-11-2-4-5-9-5-14l-3-3c3 1 6 2 8 1m-26 28c-4 15-3 33-10 46-5 1-9-2-14 0l-8-2c-4-10 9-12 7-21 2-7 3-15 9-21l-4-22 3 4v-5c4 8 18 11 17 21" class="B"/><path d="M2532 2012l1-3h2l-3 3m-16 8l-1 2c3 2 5 7 5 11v3l-1-1-2 4-3-18 2-1m137-4c-3 5-12 4-17 4-14 2-26-4-38 2l-1-1c15-9 37 2 56-6v1"/><path d="M2873 2025c-3 6-8 14-10 21l-4 1c-14-3-24 2-38 5-6-6-11-7-20-7 7-10 18-15 27-19l2-2c4 5 9-3 14-3 11 0 17 2 29 4" class="G"/><path d="M2968 2047c-3 7-10 3-15 4 2-10 0-20 0-31 6 8 11 17 15 27" class="B"/><path d="M2463 2042c-30 3-66-1-102 6l-1-2c20-5 43-4 63-3 11 1 27-2 40-1"/><path d="M2548 2059c-4-2-12 1-15 0l-2-11c4 0 7-4 10-2 3-1 3-5 5-7 1 6 3 13 2 20" class="H"/><path d="M2525 2043c-8 3-16 2-24 3v-3h24m-94 6c-1 2-6 2-10 2-1 0-2-1-1-2h11m262-2c-4 2-8 1-12 1v-1h12m45 22c-2-1 0 2-1 2v-2h1m-43 2l-2 2h1-3c2 0 2-3 4-2m-214 9l2 4-2-4m483 8c-7-1-11 6-18 5l5-3c1 2 3-2 4 0l2-2c2-1 7-3 7 0"/><path d="M2259 1103l-20-58 14-12 54 28-14 12-10-6-17 15 5 10-12 10zm14-42l-20-13 9 23 11-10m23-62c15-11 29-13 42 3 13 17 7 30-8 42l-19 14-34-44 19-15zm21 41l5-4c7-5 10-15 3-24s-17-9-23-4l-6 5 21 27m62-32l-11-60 16-10 48 36-14 9-9-7-20 12 3 11-13 8zm21-39l-19-16 6 24 13-8m46-46l-4-4c-2 0-4 0-7 2-3 1-5 5-3 7 2 4 7 3 11 2 9-2 22-8 29 6 5 10-3 21-14 27-12 5-24 7-31-6l14-7c2 4 7 5 12 3 3-2 6-6 5-9-4-7-13 0-27 1-6 0-11-3-13-9-6-12 3-20 13-26 11-5 23-7 28 6l-13 7m37-22l-17 5-3-10 47-17 4 11-17 5 15 43-14 5-15-42m67 22l-15 3-12-54 26-6c9-2 21-2 24 10 2 8-4 14-11 16 10-2 13 3 15 11l6 13-17 4-4-12c-2-6-3-9-11-7l-5 1 4 21zm-1-33c5-1 10-2 9-8-2-6-7-5-11-4l-6 1 2 13 6-2m37 26l13-59 19-3 30 53-17 2-6-10-22 3-2 12-15 2zm34-27l-10-22h-1l-4 24 15-2m54 13l-1-56h26c13 0 23 4 23 18 0 13-9 18-23 18h-10v20h-15zm23-31c6 0 9-3 8-7 0-4-2-7-8-7h-8v14h8m32 29l1-56h43v11h-27l-1 11 25 1v11l-25-1v12l27 1v10h-43m69 5l-15-3 12-55 25 6c10 2 21 7 18 19-1 8-9 11-17 10 10 3 11 8 10 17a69 69 0 00-1 14l-16-4 1-12c1-7 1-10-7-11l-5-2-5 21zm13-30c5 1 10 2 11-4s-3-7-8-8l-6-2-3 13 6 1m46 46l39-45 18 6 3 60-16-6v-11l-22-8-7 9-15-5zm44-8v-24l-15 19 15 5m65 6l1-5-5-4c-3-1-7-1-8 2-2 4 2 7 5 10 8 6 20 12 14 26-5 11-18 11-30 6-11-5-20-14-15-28l15 7c-3 5 0 9 5 11 3 1 8 2 10-2 3-7-8-10-17-20-5-4-5-10-3-16 6-12 18-10 29-6 11 5 20 14 14 26l-15-7m6 49l30-48 22 14c11 7 16 16 9 28-7 11-17 10-29 2l-8-5-11 17-13-8zm36-14c6 3 9 2 11-1 3-4 2-7-3-11l-7-4-8 12 7 4m8 43l33-45 34 26-6 9-22-17-7 9 20 15-6 9-20-15-7 10 21 16-6 9-34-26m55 40l-11-10 38-41 19 17c7 7 14 17 6 25-6 7-13 6-20 1 7 7 5 12 0 19l-7 12-13-12 7-9c4-6 6-8 0-13l-4-4-15 15zm26-19c4 3 8 6 12 2 4-5 1-8-3-12l-4-4-9 10 4 4m0 44l55-25 14 13-23 56-13-12 5-10-16-16-11 5-11-11zm43 11l11-22-22 12 11 10m-434-102l6 18h19l-15 12 5 18-15-11-15 11 5-18-15-12h19l6-18m-62 2l9 17 19-3-13 14 8 16-17-8-13 13 2-18-16-9 18-3 3-19m-56 12l9 16 19-3-13 14 9 17-17-8-13 14 2-19-17-8 18-4 3-19m-59 17l12 15 18-5-11 15 11 15-18-5-11 15-1-19-17-6 17-6v-19m-61 30l14 12 17-9-7 17 13 13-18-1-8 17-5-19-18-2 16-10-4-18m-49 28l15 11 16-11-6 18 16 11h-19l-6 18-6-17h-19l15-12-6-18m-47 43l16 9 14-13-3 19 16 9-18 3-4 18-9-17-18 2 13-13-7-17m-52 49l18 4 10-15 2 19 18 5-17 7v18l-12-14-17 7 9-16-11-15m353-103l7 17h18l-14 12 5 18-15-11-16 11 6-18-15-11 18-1 6-18m-69 8l9 16 19-3-13 14 9 17-17-8-13 14 2-19-17-8 18-4 3-19m-62 19l13 14 17-7-9 16 12 14-18-3-10 16-2-19-19-4 17-8-1-19m-60 28l14 12 16-9-7 17 14 13-19-1-7 17-5-19-18-2 16-10-4-18m-47 36l16 11 15-11-5 18 15 11h-19l-5 18-7-18h-19l15-11-6-18m-42 42l17 6 13-13-1 18 17 8-18 4-2 19-10-16-18 4 11-14-9-16m245-48l11 15 18-5-11 15 10 15-18-5-11 14v-18l-18-7 18-6 1-18m-68 23l13 13 17-7-9 17 12 14-18-4-10 16-2-18-18-5 17-8-2-18m-64 30l15 11 16-10-7 18 15 12-19-1-7 18-5-18-19-2 16-10-5-18m262-211l-9 16-18-2 12 13-8 17 17-8 14 13-3-19 17-9-19-3-3-18m56 12l-9 16-18-3 12 14-9 16 17-7 13 13-2-19 17-8-18-4-3-18m59 16l-11 15-18-5 10 15-10 15 17-5 12 15v-19l18-6-18-6v-19m61 30l-14 13-16-10 7 18-14 12 19-1 8 17 4-18 18-2-15-10 3-19m49 29l-15 10-15-11 5 18-15 11 18 1 6 17 7-17h18l-14-12 5-17m48 43l-17 8-14-12 3 18-16 10 19 2 4 19 8-17 19 2-14-13 8-17m52 48l-19 5-10-16-1 19-18 5 17 7-1 19 12-14 18 6-10-16 12-15m-354-103l-6 17-19 1 15 11-6 18 16-11 15 11-5-18 15-11h-19l-6-18m70 8l-10 16-18-3 12 13-9 17 17-8 13 14-1-19 16-8-18-4-2-18m62 18l-13 14-17-7 9 16-13 14 19-3 9 16 3-19 18-4-17-8 2-19m59 28l-14 12-16-9 7 18-14 12 19-1 8 17 4-18 19-3-16-9 3-19m47 36l-16 11-15-11 5 18-15 11 19 1 6 17 6-17h19l-15-12 6-18m42 42l-17 7-12-14 1 18-17 8 18 5 1 18 11-15 18 4-12-15 9-16m-245-48l-10 15-18-5 11 15-11 16 18-6 12 15v-19l17-7-18-5v-19m67 23l-13 14-17-8 9 17-12 14 18-4 10 17 2-19 18-4-16-8 1-19m64 30l-15 12-15-10 6 17-14 12h18l7 17 6-18 18-1-15-11 4-18m-200-60l6 18h19l-15 12 6 17-16-10-15 10 5-17-15-12h19l6-18" class="C"/><path d="M2889 1318l15-1-15 1" fill="#fff00f"/><path d="M2614 1541s27 5 36 9a839 839 0 0095 36l66 23c16 6 87 27 103 29l122 16 34 4v-23l6-14 8-4 16-1 6 13 2 25 62-8 34 2 57 61 58 9s24-66 29-99c3-30 11-74 11-74l-338-3s-1 7 2 10c3 2 24 2 29 0s19-3 19-3l-4 12c-3 10-9 18-11 20-3 2-5 9-5 9l2 5 15-2 9 1-39 6-27-2-183-5-19-4-33-4 5-3 16-4 4-8s-4-6 3-8c8-2 53-3 53-3l16-3 18 2c2 2 3 0 5-2 3-2 23-4 27-4 5 1 14 7 14 7l21-8-1-10h-343" fill="url(#B)"/><path d="M2750 1553l4 1c-3 3-6 1-9 4-12 4-20-11-30-1-7 2-12 0-18-1 9 0 19 3 28-4 9 0 16 9 25 1m30 14c-7 6-18-6-27 2l-24 2c2-2 5-3 8-3 14 6 23-11 35-1h8m344-10c15 5 29-12 44-3 10 0 26 4 35-5l4 1 1-1c-3 3-7 2-11 6 0 0-2-1-3 1-1 3-5 1-6 2-3-3-6 1-9-1-18-10-34 6-54 2-6-2-9-6-14-8 5 1 9 4 13 6m178 4c5 1 10-3 15-4l-1 1c-4-1-7 5-11 3l-1 1v-1c-1 1-6 2-7 1-3-3-4 0-7-2-2-3-6 0-9-4-1 4-6-1-9 1-7 1-16 7-22 5-1 0-3 2-5 0 12 3 28-11 42-5 5 1 12 5 15 4m-14 65c-1 1-1 4-3 3l-1-1c-2 3-5 0-8 0-4 1-11 0-15-3 8 3 19 3 27 1m-91-55l1-1 12 1 1 1 1-1 1 1c-9 2-21-2-28 2l1 1c-5 4-12 5-18 4-3-4-7-2-10-3l-3-3v3l-3-1-2 2c-2-1-1-2 0-2 12-4 26 8 36-3 3-3 9-2 11-1m76 17c5-2 10 1 15 0 0 4-3 0-5 2l-1-2c-12-1-22 4-30 7-6 4-16 4-23 2 15 3 28-7 43-11l1 2m-768 307c-2 0-3-2-3-4s1-4 3-4 3 2 3 4-2 4-3 4m-39-6c-2 0-3-2-3-4s1-4 3-4 3 2 3 4-2 4-3 4"/><g class="D"><use xlink:href="#K" fill="none" stroke-width="7" class="N"/><path d="M2119 1669l1 1 1 2v8l2 1v2l1 1v1l1 1v1h1l1 1v1l1 1h1l2 3h4v-1h1l1-2v-5l1-1v-1h4l1 1h2l3 3v16l1 1h2v-14l1-1h6l4 5v1h1l2 2h1l2 1h3l1-1v-2l-1-1h-3l-3-1-2-3v-1l-1-2-1-1v-1h1l2-1h2l2-1h1l2-1h1l2-1 1-2h1l3-1h3l1-1h5l1 1h2l2 3v3l-2 4-2 1v1l3 3h3l1-1v-13l2-2h5l2 1h1l3 4h1v1l3 2v1l2 2v1l3 4h1l1 1h1l1-1v-3l-1-1h-1l-1-1-1-2-1-1v-2l-7-7v-3l1-3v-11l-2-5-1-1-1-2-2-1h-1l-3-1h-25l-1-1-13-5-2-2h-1l-3-2h-1l-1-1h-2l-1-1h-9l-1 1h-2l-1 1v1l-1 2-1 1-3 5-1 3-11 5-2 3h-4l-2 1h-3v1l-1 1 1 1v1l1 1h2l6 3m153-38v2h-2l-8 1-1 1h-1v2h-1l-1 1h-1l-1 1h-1l-2 1h-4l-2 1-1 1v1l1 1v1l8 8 2 3 1 5 2 3v2l1 3v3l1 1v1h6v-1h1l1-1v-1h1v-2l1-1v-2l1-1v-1l1-1h6l1 1v2l1 1v6h-1v3h-1v1l-1 1v1l-1 1v4l2 2h1l2-2v-2l2-5 5-4 2 1h1l2 2v1l1 1v2l1 2v1l1 1v1l7 6h4v-3l-1-1v-1h-1v-1l-1-1h-1v-1l-1-1v-2h-1v-2l-1-1v-4h1v-1l1-1h1l1-2h8l1-1h1l1-1h1l1-1h1l5-4v-1l2-3v-1h1l1-1h4l2 2h1v2h1l1 1v3l-1 2-1 1v2l-1 2v1l-1 2v9h2l2-3v-4l1-1v-2l1-1v-1l1-2v-1h2l2-1h4l1 1h1l1 1h2l5 5 1 2 1 1v1l1 2h1l1 2h3v-4l-2-2-1-1v-1l-1-1-1-2-2-3-2-1-1-2-1-1v-1l-2-1-1-2v-1l-1-2v-4l1-1v-2l1-1h7l2 2 1 2 2 2h3v-1h1v-2h-1l-3-2-1-4-1-1-2-1-1-1-2-1-1-1-3-1-1-1-2-1-4-5h-1l-1-1h-1l-2-1h-1l-1-1h-3l-1-1h-12l-1-1h-3l-1 1h-2l-1 1h-2l-1-1h-3l-5-1-3-1h-2l-1-1v-3l-2-1-2-1-4-4-2-1h-1l-2-1h-4l-1 1h-2l-1 1h-1l-1 1h-2l-1 1v1h-1v1l-1 1v9" class="J K"/><path d="M2404 1568v1l2 1h2l10-10h4l2 1 1 1v1l1 1v1l1 2v4l-1 1v2l-1 1v1l-1 3v1l-1 1v1l-2 2-2 5-1 3-1 2v1l-2 1v2h2v1h1l3-3v-1l1-1v-2l1-1v-4l2-2v-1l1-1h1v-1h4l1 1h1v1h1l1 1v1h1v3l1 1v3l1 1v3l2 1v3l2 2v1l1 1h1l1 1h5l2-1-2-1v-1h-1l-1-1h-1v-1l-1-2h-1v-1l-1-1v-2l-1-1v-9l1-2h2l1-1h13l3-1h2l6-3h3l2-2h3l1 2h3l2 1h1l1 1h1l1 1h1v1l1 1h1l1 1h1l3 2h1l1 1v2h3l1 1h3l1 1h4v1h1l1 1h1v1l1 1v2l-1 2-1 2h-1v1h-3v1h-5l-1-1h-5v-1h-3l-1 1h-3l-1 1h-2l-1 1h-1l-4-1h-11l-1 1v3l1 1h10l6 1h2v1l1 1v5l-1 2v4l1 2v12h5v-1h2l1-2v-1l1-1v-2l1-1v-1l1-1h1v-1h8l2 2v1h1v1l1 1v1l2 2v2l1 1v4l-1 1v1l-3 4h-1l-3 3-1 2-2 1v4l-1 3v3h1v1h2l2-2 1-2v-1l1-3v-1l2-2h1l1-1h2l2 1h1l1 1 1 2v1l1 3v3l-1 1v2l-1 1v3l-2 2v2l-3 2v2l-1 1v1l-1 2v2l2 2 1-1h2l1-1v-1h1l12-25v-3h2v-1h7l1 1h3v-1h2l2-2 3-1h1l3-1h3l2-1h6l8 7v4h-2v2h-1v2l-1 1v1h-1v1l-1 1 1 3v1l1 1h1l4-4v-3l1-1v-3l1-1v-1l2-3h1l1-1h12l1 1h3l2 3 2 1 5 5 2 2v1l1 3 3 3h2l1-1h1v-1l-1-2-4-5-1-4-4-5-2-2-1-2v-3l-2-2h-7l-2-2h-2l-1-1v-1l-1-1v-6l1-3 2-1h1l1-1h3l1 1h3l2 1h2l1 1h3l1 2h2l4 4 1 2 1 1 2 2v2h1l1 1h1v-1h1v-5l-1-2-1-1v-1l-1-1-3-1-3-4-2-1-1-1-2-1h-1l-3-1h-1l-2-1h-1l-1-1h-3l-1-1h-2l-1 1h-6l-1-1h-1l-4-4v-1h-1l-2-2v-1l-2-2v-1h-1l-1-1v-2l-3-2h-1l-4-4h-3l-1-1h-8l-1-1h-4l-4-5v-1l-1-1v-3l1-1v-2l-2-7v-3l-1-3-2-2h-5l-3 4v1l-1 1v1l-1 1v3l-1 2v7l1 1v2l-1 2-1 2h-2l-3 1h-6l-3-3v-1l2-1v-4l-2-2-9-10h-2v-1l-1-1v-1l-1-3v-2l1-2v-1l1-2 2-1v-1l-2-3v-4l2-1v-1h1v-1h5l1 1h2v1h1l5 4 2 5 1 1h1l1 1v-1h1l2-1-2-1v-2l-2-4-6-7h-1l-2-1h-2l-1-1h-1l-2-1h-3l-3-1h-5l-2-1h-6l-1-1h-8l-2 1h-2l-1 1h-5l-8-1h-2v-1l-1-1v-2l1-13v-2l-1-2-2-1-1-2v-5l5-4v-2l-1-2-1-1v-3l-2-2v-2h-5l-2 1h-1l-1 1h-1v1h-2v2l-1 2v4l-1 2v6l2 2 2 2 1 1v2l-1 1h-7l-2-1h-2l-2-1h-2l-4-2h-2l-5-2h-1l-2-1h-1l-1-1h-1l-2-3-3-1-3-1-2-2h-2l-1 1h-2v2h2v1l1 2 4 2 15 6 7 3 2 1h4l2 1 3 1 2 1h1v3l-4 5h-1l-1 1h-1l-1-1h-3l-1-2h-1l-1-1h-1l-2-1-1-1h-1l-2-1h-1l-2-2-2-1h-2l-2-1-1-1-5-3h-2l-1 2h-5l-1-2-2-1h-3l-1 3v1l1 2 1 1 1 2 1 1v13l1 4v2l4 9" fill="#583b19" class="K"/></g><g class="J"><use xlink:href="#N"/><use xlink:href="#N"/></g><g class="I"><use xlink:href="#O"/><use xlink:href="#O"/></g><path d="M2075 1554l-2 2v3l2 2 13 14h6v-2l1-1v-4l-2-1h-1v-1l1-1 2 1h1l1-1v-1l1-1h7l1 1v1l1 1v1l1 1v2l2 2h2l1 1h5v1l1 1v3l-1 1v5h-1v1l-1 1v1h-1l-1 1h-10l-2 2v1l-1 2v1l1 1v1l1 1v1h1l5 5v3h1v1l2 1v1l2 2v1l2 2h1v2l1 1h1l1 1h6l1-1 1-3 1-1h4l3 3v4l1 1h2l1 1h2l1 1h1l3 1h1l1 1h2l1 1h3l3-2v-1h-2l-2-2h-2l-1-1h-2v-1h-1l-3-2v-5l2-1v-1l1-1h10l22 3 4 5 7 3 1 1 1 2 1 1 1 2 2 2 1 1h2l3-3-2-1v-1l-7-7-2-1-3-3v-2l-1-1v-2l-1-1v-2h1l1-2v-1h3l1-1h3l1 1h1l1 1h1l1 2h2v-2h1v-2h-1l-3-2h-1l-1-1v-1l-1-1h-1v-1l-3-4v-1l-5-4h-1v-1l-2-2h-1l-1-1h-9l-1 1h-7l-4-1-6-2-4-1-3-1-1-1h-1l-3-2h-1l-1-1h-1l-1-1h-12l-1 1h-5l-5-6v-2l1-1h1v-1h1l2-1h3l2-1h10l1 1h9l3 3v1h1v1h2l1-1v-2l-3-3v-5l2-1 1-1v-2l-1-1v-1l-2-1v-5l-3-3h-25l-1-1-4-2-2-2v-1l-1-2h-7l-1-1h-7l-1 1h-2l-1 2h-1v1l-1 1h-1v2h-1v2h-1v2h-2v1h-1l-1 1h-3l-1 2h-2l-6 6" class="D J K"/><path d="M2520 1610h2v-2h2l1-1h1l2-1h9l2 1h1l1 1h1v2h1v1l1 1v6l-2 2h-1v2h-9l-1-2h-2v-1h-1l-1-1h-3v-1h-1l-1-1h-1v-4l-1-1v-1" class="I"/><path d="M2520 1610h2v-2h2l1-1h1l2-1h9l2 1h1l1 1h1v2h1v1l1 1v6l-2 2h-1v2h-9l-1-2h-2v-1h-1l-1-1h-3v-1h-1l-1-1h-1v-4l-1-1v-1z" fill="#583b19"/><use xlink:href="#P" class="I"/><use xlink:href="#P" fill="#9ad110"/><path d="M2302 1610l1 1h4v-2l-11-14v-1l-1-1v-3l1-1 3-7v-5l-3-4-1-1v-1l-1-1h-6l-3-1h-3l-2-2h-4l-5 3h-6l-3-3h-1l-4-4h-1l-2-2h-9l-1 1h-3l-1 1h-1v1h-1l-1 1v1h-1v1l-1 2v1h-3v2h2v1l-2 2v1h-1l-2 1h-1l-1 1h-1l-1 1h-2l-1 2h-2l-1 1h-3l-2 2h-1v1l-2 2v2l1 1v1h1v2h1l3 3v1h2v7l1 1v1l1 1 4 2h3l1-1h2v-1h1v-1h1v-1l2-3v-1l2-2h1v-1l1 1 3 1h2l4 5v11h1v1l1 1v1h6l3-1 2 1h6v-2h-1l-1-1-3-1-5-6v-2l1-1v-2l1-2h1v-1h2v-1h3l5-5h1l1-1h5l1 1v1l2 2v2l1 2v3h1l1 1v1h2v-1h1v-4l-1-2v-2l1-1h2l2-1 1 1h2l1 1 8 12" class="D J K"/><g class="I"><use xlink:href="#Q"/><use xlink:href="#Q"/></g><g class="J"><use xlink:href="#R"/><use xlink:href="#R"/><path d="M2112 1557h2v-14h-2v14z"/></g><g fill="none" class="D"><g stroke-width="3.5"><use xlink:href="#S"/><use xlink:href="#S" x="-.4" y="13.3"/><use xlink:href="#S" x="-.4" y="26.5"/><use xlink:href="#S" x="-.7" y="40.7"/><use xlink:href="#S" x="-1.4" y="53.9"/></g><path d="M3095 1658l-1 54m7 14l-1 54" stroke-width="4.9" stroke-linejoin="round"/></g><path d="M2786 1939" fill="#efae0e"/><path d="M3374 1484a673 673 0 11-1346 0 673 673 0 011346 0z" fill="none" stroke-width="27.6" class="D N"/><g fill="#ffb32b"><path d="M2709 819c-12 5-19-6-25-15v-1c13-7 16 11 25 16m17 0c-14 9-15-10-25-15 2-3 7 0 11 0 5 5 11 10 14 15m19 1c-14 7-19-10-28-16 11-5 22 7 28 16m-54-2c-2 3-9 2-13 1-6-2-9-10-15-15 9-6 22 7 28 14M2762 821c-14 8-16-11-25-17 11-3 18 6 23 14l2 3m-91-1c-13 7-17-10-26-16 12-2 21 8 26 16m105-9c4 4 7 9 9 14-16 3-22-11-28-21 8 0 16 3 19 7m-122 9c-10 6-17-4-25-11l-1-2c12-5 20 5 26 13m143-5c1 3 3 8 6 11-8 2-13-2-17-8l-6-11c7 0 13 2 17 8m-159 8c-12 5-20-7-28-13 3-4 9-3 13-1 6 4 10 10 15 14M2820 829c-13 2-17-11-22-20 14-2 16 13 22 20m-198-4c-7 3-16 3-21-4-3-2-5-6-8-7 1-5 6-3 10-3l19 14m204-10c4 6 6 13 10 18-10 1-14-8-18-15l-3-7c5-1 7 3 11 4m-223 12c-3 4-7 2-10 2-8-3-12-9-17-14 12-6 18 7 27 12M2853 835c-2 2-7 1-10-1-5-6-9-12-11-19 2 0 6 0 9 2 6 5 8 12 12 18m-267-3c-11 8-19-9-28-14 13-7 22 6 28 14M2870 840c-3 0-8 0-11-2l-11-20c14-2 15 14 22 22m-300-6c-4 2-10 5-14 2l-16-13c5-3 12-3 17 0 4 5 9 6 13 11m315 0c-1 5 4 7 4 12-11-1-17-7-20-17 0-2-3-5-2-7 7 1 14 5 18 12m-334 4c-2 2-8 2-11 3-6-3-12-9-18-13 3-3 8-4 12-3 7 3 11 9 17 13M2908 850v1c-15 3-17-14-22-23l1-1c14-1 15 14 21 23m-374-9c-3 2-7 5-10 3-6-2-11-8-17-12 10-6 18 3 27 9M2925 856v2c-15 1-15-16-19-25 13 0 15 14 19 23m-406-10c-4 3-10 5-16 3l-15-10c9-11 22 0 31 7M2941 864c-4 1-6-3-10-4a385 385 0 00-8-21c13 0 15 15 18 25m-441-14c-1 5-6 5-10 6-8-1-15-7-22-11 10-9 23 1 32 5M2958 866v5c-16 0-11-18-18-27 10 2 16 13 18 22m-475-8c-11 9-22-3-32-6 9-11 22 1 32 6m489 4c0 6 4 10 3 16-16 1-12-17-17-27 6 1 11 7 14 11m-505 2c-11 11-22-3-32-5 9-9 23 2 32 5M2990 879v6c-15 0-10-17-14-26 11 0 11 12 14 20m-539-8c-12 8-22-3-33-5 10-11 22 2 33 5M3007 892l-2 2c-14-4-10-19-14-29 13 4 13 17 16 27m-571-15c-13 10-23-2-36-3 10-8 24-3 36 3m585 9v16c-15-2-9-20-13-29 6 2 10 7 13 13m-602-1c-10 11-23 1-34-1 0-5 6-2 8-6l26 7M3039 912c-4-2-9-4-12-8 1-8-2-15-1-21 13 4 12 18 13 29m-639-19c-3 4-10 7-16 4-4-4-11-2-16-5 9-11 22-1 32 1M3052 919c-12-3-7-18-10-26 12 4 8 17 10 26m-666-17c-10 11-23-1-33-1 9-10 22-2 33 1m680 9l2 18c-17 0-9-19-14-29 5 2 8 7 12 11m-695-1c-5 7-13 5-20 4l-11-4c8-9 21-1 31 0M3084 940c-6-2-12-6-12-13 1-5-2-12-1-17 10 5 13 18 13 30m-728-21c-6 13-21 2-31 1l-1-1 8-5c9-1 15 6 24 5M3097 951c-14-4-7-20-11-31 13 5 9 20 11 31m-757-22c-7 14-20 1-30 1 7-12 21-2 30-1M3112 961c-15-3-8-23-13-32 14 5 12 20 13 32m-786-23c-5 12-20 4-31 4l-1-1c7-14 22-4 32-3m801 17v18c-14-4-8-21-11-31 5 2 9 8 11 13m-815-6c-9 12-22 4-34 4 8-12 23-4 34-4M3141 965l-1 20c-6-4-9-10-9-17 5-3-2-8 2-12 4 0 6 5 8 9m-844-5c-2 3-7 6-11 7-8-2-14-3-22-2 8-11 22-6 33-5m857 29c-2 2-1 5-1 7-3-3-7-4-8-8l1-22c9 4 9 15 8 23m-870-18c-8 13-24 6-36 7 9-13 25-7 36-7m887 18c2 9-2 15-3 22-5-3-8-8-11-12l1-20c5 2 9 8 13 10m-902-6c-5 7-13 12-21 8-4-1-8-3-12-1 1-4 6-6 10-8l23 1m-14 13c-7 13-22 5-33 7 4-12 23-9 33-7m926 25c-4-1-6-6-9-8l4-19c13 7 5 17 5 27m-939-13c-8 13-20 7-32 8 4-14 21-6 32-8m953 6c2 8-2 14-3 20-3 0-6-4-7-7 3-5 0-14 3-19 4 1 5 3 7 6m-965 6c-6 14-22 7-33 10 4-13 22-9 33-10m977 23c-3 1 0 2-4 4-13-8-5-17-3-27 8 4 10 15 7 23m-989-10c-6 15-24 7-35 10 7-14 23-7 35-10m1003 19l-4 10c-14-6-5-17-4-28 5 5 11 11 9 18m-1049 6c1-4 5-7 9-10l22-2c-1 14-21 9-31 12m1060 0c0 8-2 13-5 19-13-8-3-16-2-26 4 0 5 5 7 7m-1041 3c-4 13-20 9-31 11 5-14 22-10 31-11m1052 11c0 8-2 15-5 22-4-5-9-11-7-16s3-12 7-14l5 8m-1062 2c-5 15-21 11-32 13 6-15 22-8 32-13m1072 21c-3 4-4 8-3 13-3-2-7-5-8-9l5-22c5 4 8 11 6 18m-1084-6c-4 12-19 10-30 13 4-15 20-10 30-13m1091 35c-4 0-5-5-7-7-2-9 1-18 5-25 11 8 4 22 2 32m-1101-21c-3 15-20 7-29 14 1-5 4-10 9-12 6-2 14 1 20-2m1117 14c0 9-5 16-7 23-12-8-3-22-1-32 3 1 6 5 8 9m-1126 0c-3 4-5 11-11 12-7 0-15 4-21 4 3-16 19-15 32-16m1129 40c-3-4-8-11-6-17l6-15c13 8 2 22 0 32m-1140-24c-4 12-18 12-28 14 1-15 17-9 25-14h3m1155 16c-1 8-4 14-6 22-14-8 1-20 1-30 3 1 3 6 5 8m-1163-2c-4 16-22 10-32 18 3-16 20-15 32-18m1171 13c1 9-4 17-7 25-10-8-1-21 2-30 2 0 3 3 5 5m-1189 15l-22 6c5-14 20-16 31-20-2 5-4 11-9 14m1198 4c0 9-4 16-7 23-6-2-5-9-7-14 2-6 8-11 7-18 4 0 4 6 7 9m-1199 1c-2 16-20 12-29 19 1-16 18-14 29-19m1207 16c0 9-3 18-8 24-1-6-9-12-4-18 4-4 10-24 12-6m-1243 17c2-13 18-13 27-18-2 14-17 15-27 18m1251 7c-2 6-6 10-9 16-3-4-7-9-4-15l8-16c4 4 5 10 5 15m-1240 3c-6 1-11 6-18 6 0-14 16-12 24-18 3 4-2 9-6 12m1248 12c-2 7-7 13-13 17-8-10 4-19 8-28 4 1 4 7 5 11m-1250 1c-7 5-15 7-23 12-3-17 19-16 28-22l-5 10m1256 12c2 10-6 17-10 25-4-5-4-14-3-21 5-3 10-21 13-4m-1258-5c0 16-18 15-27 22-1-15 16-17 27-22m-13 30l-20 11c-1-4 3-9 4-13 6-6 14-6 21-12 1 4-1 11-5 14m1279-1c-1 8-9 13-13 20-1-6-5-12-2-18 2-5 7-11 11-15l4 13m-1304 30c-5-15 16-17 24-25 2 13-14 19-24 25m1306-24c6 13-2 25-9 33-1-5-6-11-3-17 4-5 8-13 12-16m-1311 42c-2-4 3-9 4-14 7-4 14-7 20-12 4 14-15 19-24 26m1319-12c-2 8-8 14-12 20-9-10 4-22 9-31l3 11m-1304 19c-6 6-13 8-19 14-4-16 14-20 23-29 0 5 0 11-4 15m1296 20h-1c-9-13 6-21 10-31 7 12-1 22-9 31m-1298-4c-6 8-15 10-22 17-4-16 14-19 23-28 1 2-1 8-1 11m1313-8c6 14-6 24-12 32-7-12 4-24 12-32m-1338 44c-1-4 0-9 2-14 6-6 14-9 20-14 6 16-14 20-22 28m1342-24c6 13-6 24-13 32-6-15 5-24 13-33m-1327 30l-18 13c-5-16 13-17 21-26 2 3 0 10-3 13m1331-1c1 10-10 15-13 23-9-13 6-23 12-32l1 9m-1335 21l-16 11c-6-14 12-20 20-27 1 4-2 11-4 16m1338-3c2 11-10 13-14 20-7-11 7-18 10-27 6-1 2 5 4 7m-1356 32c-5-15 12-19 19-26 6 13-12 17-19 26m1356-6l-13 12c-7-12 6-18 13-27 0 5 5 10 0 15m-1357 23c-7-14 12-18 19-28 3 14-11 21-19 28m1344 7c-7-14 8-19 15-28 7 14-7 21-15 28m-1345 10c-5-12 11-20 19-27 5 16-12 17-19 27m1346 9c0-5-3-9 0-15l15-15c7 14-7 22-15 31m-1328-18c4 14-11 21-19 27-4-14 10-22 19-27m1344 7c7 14-8 20-15 27h-2c-5-14 11-19 17-27m-1363 39c-6-14 11-20 18-30 6 16-10 23-18 30m1363-20c6 14-9 19-16 27h-1c-6-16 11-18 17-27m-1362 41c-5-14 9-23 17-31 7 14-11 21-17 31m1362-23c2 6 1 12-3 16l-14 12c-5-10 3-20 11-24 2 0 3-3 6-4m-1359 43c-4-1-1-6-3-8-1-11 11-17 17-26 5 14-4 25-14 34m1358-25c4 11-5 20-14 25l-4 3c-5-15 9-18 18-28m-1355 43l-3 2c-6-14 10-22 16-32 8 11-6 21-13 30m1350-6c-5 4-10 8-16 10-4-14 11-18 19-28 3 5-1 12-3 18m-1349 28h-1c-8-15 9-23 14-33 9 14-6 23-13 33m1350-24c4 14-10 19-18 26h-2c1-6 0-12 4-17 6-2 11-6 16-9m-1347 42c-9-14 7-20 12-31 6 13-6 22-12 31m1345-23c3 12-7 17-15 23l-6 1c-3-14 14-18 21-24m-1328 22c-5 6-9 13-15 18-7-14 9-21 13-31l2 13m1321 10l-17 12c0-4 0-10 2-13l19-13c0 3 0 11-4 14m-1330 27h-2c-9-13 7-22 12-32 8 11-7 21-10 32m1331-22c3 15-13 18-21 24h-2c0-14 13-18 23-24m-1315 21l-14 18c-8-14 9-21 11-31 4 2 2 9 3 13m1311-3c1 15-14 17-23 23-1-7 4-13 10-16 5-1 8-6 13-7m-1318 35l-2 2c-2-3-4-9-2-14l12-16c9 10-3 20-8 29m1310-3l-20 8c-3-16 17-15 23-25 3 6-2 11-3 17m-1296-10c4 13-7 20-11 30-12-10 8-19 9-30h2m5 23c-2 8-6 16-11 23-11-11 5-21 8-31 3 0 1 5 3 8m1289-8c-1 6-1 12-5 15l-19 7c0-7 3-11 6-15 5-4 12-5 18-7m-1283 22c-1 9-7 18-12 24-10-12 7-21 9-31l3 7m1279-4c0 15-16 15-25 20-1-3 1-8 3-12 7-2 14-7 22-7m-1285 44c-9-12 5-22 8-32 11 9-4 23-8 32m1272-13c-6 4-13 3-20 6 0-4 3-9 5-14l20-7c1 5-2 10-5 15m-1263 31c-12-10 2-23 5-34 11 12-3 23-5 34m1262-27c2 18-18 12-26 19 1-6 4-14 12-15 5 0 9-3 14-4m-1256 43c-13-11 4-22 5-34 10 12-1 23-5 34m1246-18c-7 5-15 6-22 8 0-5 2-9 7-11 6-2 13-3 18-7 2 4-1 7-3 10m-1240 33c-11-12 7-21 6-33 8 12-2 23-6 33m1237-27c2 3-2 6-3 10-7 7-16 5-25 8 2-4 4-11 10-13 7 0 12-2 18-5m-1228 43c-9-10 1-24 4-35 11 11-2 24-4 35m1221-27c-1 16-17 14-27 18-2-15 18-13 27-18m-1206 14c1 10-7 17-8 26-9-9 2-22 5-31l3 5m1194 11c-6 4-14 3-22 5 1-12 16-8 24-13 3 3 0 6-2 8m-1193 29c-12-8 0-20 2-31l1-1c10 11-2 22-3 32m1190-23c-2 4-4 10-9 12l-18-1c2-14 18-7 27-11m-1174 14l-7 24c-13-8 0-22 2-32l4 8m1167 1c-4 4-4 11-11 11-7 3-11-1-17-1 2-14 20-10 28-10m-1158 14l-5 25c-3-1-5-7-7-10 4-5 4-38 12-15m1148 2c-3 4-5 11-11 11l-17-1c2-17 18-8 28-10m-1139 19c-3 6-2 13-5 19-14-9-1-23-1-33 4 3 9 8 6 14m1130-4c-3 15-17 6-28 9 3-16 19-8 28-9m-1120 13c-2 8-4 16-4 24-14-8-2-22-2-33 3 1 4 6 6 9m1110 0c2 3-4 6-6 9l-21-1c3-4 4-9 10-9l17 1m-1101 11c0 9-2 17-5 24-10-7-1-19-1-30 4 0 4 4 6 6m1091 1c2 2-1 5-1 7-10 6-15 1-25 1 3-14 18-5 26-8m-1085 36c-3-1-7-5-8-8l7-22c7 8 2 20 1 30m1077-23c-2 15-16 6-26 8h-2c4-16 21-5 28-8m-1067 36c-7-3-7-11-6-19 3-3 2-8 3-12 9 8 3 20 3 31m1058-23c-2 3-3 6-7 9l-22-1c3-15 19-7 29-8m-1046 36l-2 1c-13-9-1-22-4-34 12 8 4 21 6 33m1036-24c0 3-4 5-6 7-8 4-14-2-22-1 5-14 18-3 28-6m-1024 36c-15-2-4-20-7-30v-1c12 6 7 21 7 31m1013-24c0 3-3 5-5 7-8 2-14-3-22-2 5-12 17-6 27-5m-1001 14v26c-14-8-5-21-7-34 4 0 4 5 7 8m992-3c-3 9-11 6-18 6h-10c-1-3 5-5 6-8l22 2m-982 37c-4 0-3-4-6-5v-25c14 6 3 21 6 30m973-27c-3 6-10 11-18 7l-12-2c7-12 20-2 30-5m-962 38c-3 0-6-4-7-7l2-23c11 7 2 19 5 30m950-27c0 5-4 7-8 9l-22-1c5-16 18-7 30-8m-937 39c-15-4-6-20-8-31 15 5 6 22 8 31m925-26c-6 17-20 3-30 4 5-13 21-4 30-4m-911 37c-4-1-8-5-9-8v-23c11 6 4 21 9 31m898-26c2 2-3 6-5 7l-24-2c6-12 19-6 29-5m-885 37c-16-4-8-23-10-31 14 4 6 21 10 31m875-26c-3 5-9 8-16 5-4-3-10 0-15-2 7-11 22-3 31-3m-860 36c-5 1-8-6-11-8l-1-23c13 8 8 20 12 31m848-27c-4 11-13 7-20 5l-9-2c6-13 20-2 29-3m-13 10c0 4-4 5-7 7l-20-5c-2-3 4-3 5-6 8 0 15 3 22 4m-821 28c-16-3-10-21-12-31 13 6 7 21 12 31m810-18c-7 13-20 0-29 0 4-6 12-5 19-4 3 3 7 1 10 4m-794 29c-15-4-12-20-15-31 16 2 11 20 15 31m782-20c-7 11-18-3-30 1 8-11 20-3 30-1m-766 28c-5 3-9-4-11-7l-4-22c15 4 10 19 15 29m754-21c-1 4-5 7-8 8l-20-8c8-8 19 0 28 0m-744 11l3 19c-4 1-7-4-10-6l-4-22c3 3 10 3 11 9m731-1c-3 10-12 3-17 1l-10-5c9-9 19 2 27 4m-10 8c-8 11-19-1-29-3 8-11 20 1 29 3m-705 21c-3-2-9-4-10-9 2-6-2-12-2-19 12 4 9 18 12 28m693-14c-3 3-7 8-12 4l-17-8c9-10 20 3 29 4m-679 23c-14-3-8-21-12-29 13 3 11 19 12 29m667-16c-9 13-19-4-29-4 3-3 7-5 12-4l17 8m-652 22c-15 0-9-19-13-26 12 3 11 17 13 26m641-15c-8 12-20-3-29-5 9-5 19 0 29 5m-627 22c-3 2-5-2-7-2-4-7-5-16-7-24 13 2 9 17 14 26m614-16c0 3-4 4-7 5-7-1-14-6-21-8-1-3 2-2 3-4 10-1 17 5 25 7m-600 22c-3 2-5-1-7-1-5-8-5-16-8-24 12 2 11 16 15 25m588-15c-10 16-20-4-31-4 9-9 22 2 31 4m-576 20l-4 1c-6-7-8-16-10-25 12 2 11 15 14 24m560-12c-2 3-6 5-10 5l-18-11c6-9 21 1 28 6m-548 17c-13 1-9-17-12-24 9 4 8 16 12 24m534-11c-9 10-19-3-28-5-1-3 3-3 5-4 10-2 15 7 23 9m-522 17c-14 0-7-17-13-24 10 4 9 16 13 24m16 5c-3 2-6-2-10-2-4-7-7-15-8-23 14 2 12 16 18 25m494-16c-10 10-20-4-30-6 0-2 4-1 6-3 9 0 15 6 24 9m-13 6c-13 11-23-2-34-6 12-10 23 3 34 6m-467 14c-14 4-12-15-17-23 11 1 12 15 17 23m15 6c-2 3-5-2-8-2-6-6-7-15-11-22 13 1 15 15 19 24m434-14c-9 9-18 2-27-3l-6-4c6-1 10-6 15-2l18 9m-416 19c-15 1-16-14-21-24 13 1 17 14 21 24m399-13c-10 12-21-6-30-8 10-7 21 4 30 8m-384 17l-9-2-10-21c14-2 14 15 19 23m369-12c-10 9-20-6-30-9 10-9 20 7 30 9m-354 14c-2 3-7 0-10-2l-8-18c13-3 12 13 18 20m340-10c-12 11-21-7-32-9 13-8 21 6 32 9m-325 14c-6 2-12-2-14-8l-5-13c13-1 15 13 19 21m310-9c-3 3-8 1-12 2l-2-2-1 1-15-11c5-5 13 0 19 3l11 7m-17 3c0 2-4 2-7 3-9-1-15-9-22-13 10-8 18 5 27 9 1 0 2-1 2 1m-277 9v2c-4 3-7-2-10-3l-10-19c12-1 17 12 20 20m14 0v5c-13 0-14-16-18-23 12-2 13 11 18 18m247-4c-12 8-19-9-28-13 11-6 21 6 28 13m-15 2c-4 6-7 1-12 2l-16-15c12-6 20 7 28 13m-215 8c-13 3-14-12-19-20l1-2c11 1 13 15 18 22m199-4c-5 4-10 0-14 0l-14-14c3-3 6-2 10-1 6 4 14 7 18 15m-183 4v2c-14 3-15-12-21-21 11-1 16 12 21 19m166-1c-11 7-18-8-25-14 3-5 8-1 12 0 4 4 10 9 13 14m-149 3c-3 4-9-1-13-2-3-5-6-12-11-17 13-2 17 12 24 19m15 2c-12 4-16-12-22-19 11-6 15 12 22 17v2m119-4c-6 2-11 2-16-3l-9-12c1-3 6-1 9-1l16 16m-17 2c-2 1-7 2-9-1l-13-15c11-6 15 9 22 14v2m-88 3c-12 1-16-12-21-20 12-2 16 13 21 20m76-3c-4 4-9 1-13 1-2-5-13-11-9-18 10 0 14 11 22 17m-61 3c-12 4-16-10-21-17v-2c11-2 15 13 21 19m13-1c-1 4-6 0-9 0-5-5-9-11-12-18 12-2 16 11 21 18m18 0c-13 7-17-9-24-16 2-4 6 0 10 0l14 16m14-1c-3 4-6-1-9 1-6-5-13-11-13-18 11-2 15 12 22 17"/></g></svg>