<svg xmlns="http://www.w3.org/2000/svg" xmlns:xlink="http://www.w3.org/1999/xlink" width="950" height="500"><style>.B{fill-rule:evenodd}.C{fill:#006}.D{fill:#edb200}.E{fill:#396d4b}.F{fill:#386a4e}.G{fill:#396f4a}.H{fill:#e6ad05}.I{fill:#eab002}.J{fill:#e4ac05}.K{fill:#21205f}.L{fill:#396d4c}.M{fill:#e9ae03}.N{fill:#dea90a}</style><path d="M0 500h950V0H0v500z" class="C"/><path d="M487 400l1 2 2 2 3 3 2 2 6 4-2-7-8-6-2-5-2-6 7-1c7 0 6 6 11 11l1 3 5 1 5 2h2l-3-2a23 23 0 01-3-2c-6-6-7-13-15-14l8-1c3 0 5 2 6 4l1 8 5 5-2-12c0-2-3-4-5-5l-2-2c7 1 4-1 8 4 3 3 8 3 13 4 6 0 9 5 15 7l-5-6c-5-5-8-2-14-7-2-2-4-2-7-3 6-1 5-1 10 2 10 6 16 3 27 2l6-1h-1l-8-1c-8-1-11-4-17-5l-9 1 7 2 4 1 4 1-9-2-5-1-3-1-1-1 7-1 7-2c7-2 9 0 15 2 8 3 15 3 22-2l5-1 1-1h1-11l-5 1c-5 1-10-2-15-3-9-3-16 3-19 4 6-9 4-7 8-16l2-5-8 10-1 4-4 7c-2 2-5 3-8 3l1-1-3 1-3 2-7 1 15-6 3-3c3-2 4-4 6-8l5-8-10 7-4 4-5 3c-12 6-10 9-14 11l-6 2v-1l1-1 6-4c10-6 9-19 10-24l1-3-3 7c-2 5-8 10-11 15l-3 5c-3 4-5 6-11 7l-6 2 3 1 2 11zm-54-19l5 3 2 1c-6 3-9 3-14 11l-5 7-4 4v2c3 0 13-6 16-9l4-7 6-6-8 3 3-2c1-1 5-3 7-2l1 1h6l-3 3-3 2-3 3-2 3 8-10c-2 1-8 3-10 6s0 10-8 15l-2 2 8-4a17 17 0 004-2l3-3 3-6c2-5 3-9 10-8 3 0 3 1 6-1l-5-2c-3-1-5-10-8-13l-3-4c-2-5-4-12-7-14l2 10c-1 3 0 7 2 9 1 3 2 5 5 6l5 7-7-1-7-1c-3-2-6-5-6-10l2 5 4 3-3-7c-2-5-1-13-5-22l-3-2 2 7c0 5-2 9 0 16l2 6v1z" class="B G"/><path d="M340 306l-1 1-2-1c-3 1-1 2-5 1-1 3 0 2-2 3v2l-1 1-3 5c-1 2 0 3 1 7l2-1v-1-1l1-1 1 1c0-3 3-6 6-8l11-1v-1h4c-1 4 0 3 3 3a37 37 0 013 4h1l1-3 1-4c0-2-1-1 3-3v-1l3-1 3-2 1 1c1 0 1-1 3 1s1 1 4 0c0-2-2-2-4-3-1-2-4-2-6-2l-2-1-2 2v1l-4 4-1-3c-1 0-2 0-2-2-1-1 0-4 1-5 4-5 5-4 11-4l1-2h-5l-4 1 1-1 2-1h7l-1-2-5-2c-5 0-3 0-4 1l-2 1h-1l-1 2v1l-1 2-2 2 1 2-2 2c-2 1-2-1-3 2v1l-4 3 1 3 1 2-1-1-2-3-5-1zm-3-40l-3 1c0 1 0 0 0 0l-2 4c-1-1-4-3-8-3h-3c-1 2-3 1-4 4-1 2-2-1-2 6h2l2-2h2v-1l1-1c0 2 0 2-3 4l7-2 7 2 1 3 2 1h2l2-1c2 0 2 2 3 2h2v-1l1-1 4-3 2-2 2-1-4-2c-5 0-3-1-6 2l-2-2-1 1 1-2 2 2 1-1-2-4c1-1 2 0 2 1l1 2h4l4 1c1-1 0-4-1-5h-1c-1-2 1-1-2-1l-3-1c-7 0-5-1-9-3l-4-1-2-1c-1 1-2 0-3 2l-1 4v1l1 1 5-2 1-1 1-1 1 1z" class="D B"/><path d="M569 374c-3-1-4-3-5-5-3-4-5-3-6-4l2-1c3-2 2-1 5-1h3l5 6 3 1-4-6c-1-3-3-4-6-4l-7 1-2 2-2 1 4-16c1-4 5-13 4-17l-2 5c-3 5-7 8-8 14-2 7 3 11-3 17l-4 3 2-9 3-7v-9l1-10-5 10-1 14 3-8-2 11c-1 2-4 7-3 9l12-1c2 4 2 5 5 5 2 1 6 1 8-1z" class="B L"/><path d="M391 359c-7-1-8 2-11 4l-6 2-5 2h11c5-1 9-9 16-2l-2 1-4 3-3 6c2 0 1 1 4-3l5-3h6c3 1 4-1 6 1-1 1-3-1-8 1l-7 4-17-2 2 1 3 2 6 4h5c4 0 5-2 8-3l4-3a19 19 0 012-1h2l-5-1c3-2 8 1 11 2v-1l-4-2c-4-2-3-11-3-14 0-5-1-6-2-9l-2-4-1-3-1-1v-1 4l1 2v1l1 7v13l-6-1-3-3c-2-4-1-2-3-3z" class="B E"/><path d="M333 260c1-2 0-1-2-3l3 1 3 1-1-2-1-2-3-2v-1l5 3v1l1 2 2 1 1-1 1-1 3-2v-5c1-4 1-4-1-5 0-1 1-1-1-3l-3-3-1 1v-2l-2-1-3 4c-2 3-1 3-1 4l-1 1v2h-1v3c-2 0-3-1-5-3l-2 1h-3l-2 2c-5 0-1 0-4 1-3 0-2 1-3 5l2-1 5-2 2-1 4 2 2 1c-2 1-4-2-7-1l-2 1-4 2 5-1a26 26 0 016 0 12 12 0 014 1l2 1 2 1zm281 21h2l1-1 1-1 2-1v-2l2-1 1-3s7-4 11 1l3 3c2-2 1-6 0-8 0-3-3-3-5-5l-1 1-1-1-1 1-1 1c-1 1 0-1 0 0l-3 1-1 2v1c3 0 3-2 4 0h-1c-2 2-2 0-5 3 1-3 1-2-1-5l-1-1h-1l-2-1c-3 0-5 3-4 5h-1l-2-4a9 9 0 01-2-2c-2-2-1-3-5-3l-3-1-2 1-5-2v1 4l2-1h7l2 3h2c0 2-1 1 2 2l1 3v2l1 1 1 2h2s0-1 0 0l-1-1c-1-2 0-3 1-4l1 4 3 3-3-1-3 1 1 2h2v1z" class="D B"/><path d="M418 375c-5-1-10 3-13 5-9 8-10 6-21 11l1 1 11-1c8-1 9-4 16-9l4-2 4-2h-5c-2 1-2 2-4 1 3-2 8-3 11-1l3 2-1-11v1c0 3 0 5 2 8l2 2h2l-3-3v-6c1-6 1-6-1-11s-5-7-8-11l-1-2-1-1v-1l2 7 4 7 1 9v5l1 4-6-2z" class="B G"/><path d="M356 327l-4 1 7 1-2 1c-3 0-3 1-4 2l-1 1 5-2 6 1 8 10-7-1 5 1 4 3-1 1 1 1h2c1-1 1 0 1 1h1l1 1h-2l-2 1 1 1 1-1c2-1 3 1 5 2l1 1c-5 1-5 2-7 3l-7 1h1l1 1c3 1 5 3 10-1l4-2c4 2 1 3 5 4h1c3 0 1 0 2-1-4-9 5-10 3-20-1 2-1 6-4 9-4 5-3 6-3 10-3-3-6-4-4-9 1-2 5-6 0-9l-1 6-1 6-2-5-1-7-1 8c-2-1-2-1-2-3h-1l-2-2-3-3v-7l-1 1h-1c0 1 2 1 1 4l-4-4-1-7-1 2v1l-2-3c-2-2 1-6 1-10h-1l-1 8-3-4 2-1h-1l-3-4c0 3 1 4-1 4l-8-1c1 2 3 2 3 2l4 1h2l3 4 3 4-5-2zm90 77l8-2 4-3 4-2 8-5 9-4c8-2 5-4 12-8l4-3 4-2c6-6 2-8 10-19l2-2-7 7-6 8c-5 3-9 5-13 9l-2 4c-2 4-4 4-8 6l-18 9c-3 2-7 4-10 4l-1 3z" class="E B"/><path d="M340 298h2c2-1 2-1 1-4 0-2-2-4-3-4l-4-2-5-2-3-1-2 1h-2c-3 3-4 0-6 2l-2 3c-2 2-2 1-2 4-1 2 1 0 4 0v-3l1 1-1 2c3 0 4-2 12 0l10 3zm-1-15v3h1l1 2 1 1 3 1c2 1 1 1 1 3 0 1 0 4 2 4l1-3 1-4v4l4-5c2-3 4-7 8-9l4-2 1-2c-1-2 0-2-4-2h-2c-3 1-2-1-3 1l-2-1v2l-1 1-1 1-2 1 1 3h-1l-3 3-1 1-1 1v2h-1v-5h-1-2l-2-1h-2z" class="D B"/><path d="M586 326l-1 5v5l-4 7-3 2 1-3h1-1v-2 1 1l-1 1-1 3-1 2-2 2-4 4c-2 0 0-1-3 2h-1l-1-7-4-5 1 7v9l1-2c2-4 1-4 0-8l-1-2c0-1 0 0 0 0 2 3 3 5 3 8l-1 2 1 1 2-1c6-2 8 2 15-3l4-3-7 2h-7v-1l2-1 2-2 6-2h-3l9-9 4-2c-1 0 0 0 0 0l-5 1 2-3 1 1 1-2 2-2h-2l-4 4 1-5v-3-1-1l-1 2-1-2z" class="B E"/><path d="M608 303l-1 2 2-1h1l2-2h2l1 1 1-1h2c0 2 0 1 1 1l2 2v6h2l-1 3-2 1v3l3 1h3l1-3v-2c0-1 1-1-1-5l1-1-1-3v-1-2l-1-2c-5-3-2-1-6-2l-3-1c-2 2-2 0-3 2l-2 1h-2v1l-1 2zm8-50h3l2-2 2-3v-1s2 0 1-3v-4l-3-1c2-3-2-1-3-3-1 0-2 0-2 2l-2 2-3 4c-1 4 4 7 5 9z" class="D B"/><path d="M467 387h-4l-4 3-4 7 5-3 2-5h6l5-1c-2-1-3-1-4-8-2-11-4-11-11-19l-4-3c1 6 5 11 7 14 3 4 3 7 5 11l1 4z" class="B E"/><path d="M598 349h-1l-2-1-4-2 1-2 2 2h2c1 1-1 1 3 1l1 2h1v2l2 1-2 6-1-1 2 3 1-2c1-1 1 1 2-1l1-1v-2-2-2l-2-4-2-1c-2-3-1-1-3-2l-6-2h-3l-4 2-3 2v2l2-2h1l4 1h-2l-4 2c3-1 9-1 12 1h2zm9-95l2 2 2 3-2 2 2 4 4-1v-2l1-3v-3l-2-3-2-2-1-2-3-1-3-1-3-1-5 2-1 1-2 1 1 2 1-1h8v1l2-1 4 2c1 3 1 3 4 5l-1 1-1-1-1-1-1-1-1-1v-1h-2zm-28 86v2h1l2-2 2-6 1-3 1-5c-1-2 0-6-4-10l-3-1-3-1h-5l-1 1 4 1h1l3 2v2l-2 1 3 3c-1-3-2-2 1-5v3l1 2v1l1 4-1 3v4l-1 2v-4c-2 5-1 4-1 6z" class="D B"/><path d="M428 381h-2l-5 3-8 8-3 3-7 3c6 0 14-3 17-6l2-2 1-1 3-3 9-3-2-2-2-1-1 1a5 5 0 01-2 0z" class="B G"/><path d="M351 254h-4l-2 2-2 1-2 2c0 1 1 5 3 3l3-2v-1h1l1-1h1l1-1h3c2 2 1-1 3 3-3-1-3-2-7-1l-3 2-3 2h-2l1 2 2-1c5-6 13-2 13-2h1l-1-3 3 3h1l1-2c1-3-2-3-3-5l-3-1h-2l-3-1-1 1zm240 71h1v-2l-1-3 2 3 1-1-2-2 1-5 1-1-1 4c0 2 0 2 2 3h4l1-1 2-1v-2l-1-2-3-3-4 1-3-3-2-2c-1-1-2-2-4-1l-4 2 6 1 1 1 2 3 1 4-1-1-1-1v-3l-1-1h-1l1 3h-1l2 4v-3c2 4 0 5 2 9zm-8-36c-1 2 1 3 1 3h10l1 2 3 4v1l1 2 1 3 1 7c2-1 1-1 2-5l-1-6-2-7c-1-2-1-3-3-3l-4-3-1 1c-2-2-5-1-7 0h-1l-1 1zm-207 59c0-1 0-2-1-1h-2l-1-1h-3c-3 5-1 2-4 3l-2 1h-1l-4 4 1 3-1 2c-1 4-2 0 0 5v2l3 5 3-2v-10l2-4 2-3-2 2-2 2-1 4-1 4-1-2 1-1v-5l2-2 3-4c4-1 3-2 7-2h2zm-42-19v2c-2 4 1 1-2 6h3l-1-2h2l2-5 2 1v-2h1v-1c1 1 1 1 4-1 1 0 1 1 3-2l1 1 2-1 3 1 1-1 1 2 2-1-1-2c-2-2-4 0-7-2l-5-1-2 1h-2l-1 1-2 1c-3 3 0 2-2 4l-2 1zm282-38h1c4-2 3-2 8-2 3-1 6 0 9 1 0-2 0-1-1-1l-2-2h1l4 1-1 1 1 2 2-1-1-4c-1-2-2-2-4-2l-4-2h-2-4l-1 1h-1l-4 2h-1v2c-4 1-3 1-3 2v2c2-1 1 0 2-3h4l4-2v-1l1 1 1 1 1-2 1 1h2v1l2-2v2h-4l-1 1c-6-1-4 0-6 1h-3l-1 2zm-249 48h-1l-1-2h-11l-2 3c-4 4-2 1-5 3l-1 2-1 1 1 2-3 2c0 4-2 2 2 6l1-1v-1l2-5v-1l2-2 2-1v-1l1-1 2-2h1l2-1c2 0 1 1 3-1h2l3 1 1-1zm236-22c0 2 1 1 2 0l2 1h1l1-1h1l5 1 2 3v1l3 2v4h3l-1-6-2-3-2-3-2-2-6-1-1 1h-3l-2 1-1 1v1zm16-58l1 1 1-1c0-2 4-3 6-4l9 3 2-2c1-2-1-3-2-4-2-3-5-1-5-1l-3-1-3 1c-2 0-3 1-4 3h2l1 2-3 1v-2l-2 2-1 2h1zm-23 72l-2 1h-1l-2 2-1 2 1-1h5l2-1 2 1h1c1 0 2-1 3 2h2v8h-1l3 1 1-3v-3l-1-5c-1-2-5-3-6-4-3 0-1-2-4 0h-2zm-228 2h1l1-1 2-4-2 2-1 1v-1l1-2h1v-1l1-2 1-1h1c1-1 2-3 4-3h3c1-1-1-1 1-1h5l-1 1c-6 0-2 1-5 1h-2l-2 2-1 1c2-1 1-2 6-3h8v-1c0-3-6-5-10-3h-1l-3 1-2 3-5 3-1 3c0 2 1 1-1 2l1 3z" class="D B"/><path d="M414 373l1 1h3l-1-4 1-14-1-4c-2-1-3-4-2-7l1-4-1 16-2 8 1 8z" class="B G"/><path d="M378 330h-2l-3 4v6h2c-1-3-1-2 1-4 2-1 2-2 2-3h2l3-1c2 2 1 3 4 2l1 2h-3l6 1c0-4-2-5-4-7l-4-1h-5v1zm228-27h1l1-2 1-2v-4l-1-6-1-1c-1-2 1-2-6-2v1l4 3-1 3 1 2v2l1 4v2z" class="D B"/><path d="M342 298h-2l1 1-3 3h7-3l-3 2h1c3 1 5 0 7-2l2-2c2-3 4-2 5-6h-1v1l-3 2-1-3-1 3v4l-3-9v-2l-3-1 2 6 3 7-3-2c-2-1 0-1-1-2h-1z" class="B E"/><path d="M399 364c0-7 4-9 3-11v-5l-1 1c-4 3-6 8-5 12l1 2 2 1z" class="B G"/><path d="M526 350l-3 4c-2 5-4 15-3 16l4-3c2-1 0-7 1-11l1-6zm88-69c1 1 0 1-2 3v-1l-1-2-1 3-1 1h1l1 1-1 2v1c-1 2-1-1-1 3v7c1-1 1-4 7-7l1-1h-1l-3 1-2 2 3-9c0-1 5-3 6-6l-3 2 1-2-1 1-1 1h-2z" class="E B"/><path d="M619 261l-1 1-1 1-1 1h1v1c3 1 1-2 6 1l4-1v-2c-1-3-5-3-7-3l-1 1z" class="B D"/><path d="M571 352c2 0 1-7 1-9l1 6c4-1 0-12 0-15-2 2-3 7-3 9l1 4v5z" class="B E"/><path d="M535 359l4-2 1-1v-1l2-2 3-12-3 4c-2 4-7 11-7 14z" class="B G"/><path d="M609 285l1-1 1-3-1-3-2 1h-2l1 1v1h1c0 2 1 3-1 1l-2-2 1-2 1-1-4-2-4 3h3l-1 2c5 2 3 0 8 5z" class="B D"/><path d="M454 402l-5 15 6-8c2-2 4-5 4-8v-1l-5 2z" class="B G"/><path d="M337 266l2 1c-6 3-2 2-4 4l-3 4-4-2-1 1-1-1-1 1h-2l2 1h5l2 1 3-4 1-1c1-3 1-1 3-2h3l-1-2-3-2-1 1z" class="B C"/><path d="M450 370c1-3-1-12-1-15-2 2-2 6-2 8l1 4 2 3z" class="B E"/><path d="M604 324c0-1 6-2 7 2l1 2 1 1 1-2-1-3-4-3-5 1c-2 0-1 0-1 1h-2l3 1z" class="B D"/><path d="M364 318l-1 3v3l2-5 2-1h4l-5 2v1l-1 2c3-3 1-2 8-4 0-3-3-4-5-3l-2 1-1 1h-1z" class="B I"/><path d="M499 406h3l1-1-1-1-1-2-6-2-4-3c2 6 6 5 8 8z" class="B E"/><path d="M363 277l-2 1c-3 0-1-1-4 1v2s-2 0-2 2l-1 1h-1v2h-1c-1 1 1 1-2 1l1 2v1l1-2 4-4 5-5 4-2-1-1-1 1z" class="B C"/><path d="M579 335c1-6-2-4-6-7l-2-2c0 5 5 6 7 8l1 1z" class="B E"/><path d="M444 384c-2-4-2-2-1-8h1l-1 2c0 3 2 4 4 6l-2-2c0-2 2-2 0-6l-2-2-1 2v3c0 2 0 4 2 5z" class="B L"/><path d="M592 337s-1 0 0 0c4 0 11 0 12 4l1 2v-1-3l-4-2-3-2-5 1c-2 0 0 0-1 1z" class="B D"/><path d="M331 321l1-4c0-1 0-2 2-3 8-4 4-3 14-3h-1l-2-1h-1-4l-2 1-1 1-4 2-2 2c0 1-2 3 0 5z" class="B C"/><path d="M476 390l5 3 4 3v-4c-3-1-6-4-9-2z" class="B E"/><path d="M594 265c7-1 10 2 13 8l3 4-3-4-1-3v-1l-3-3-4-2c-2 0-4-1-5 1z" class="B M"/><path d="M320 293c1 1 5-1 7-1l6 2v-2l-3-1h-1l-2-1-3 1-3 1c-1 0-1-1-1 1z" class="B C"/><path d="M595 330l3-1 2-2 1-1h-1l-2 1-3 1-2 1-2 1 1-5h-1l-1 6 2-1h3z" class="B F"/><path d="M596 323l-1-1-1 3-1 3 1-1h3l2-3-2 1c0-3 4-3 6-4-1-1-3 0-4 1l-3 1z" class="B L"/><path d="M592 295c1 2 4 0 8 16v-2l-1-3-1-5-3-5-2-2-1 1z" class="B J"/><path d="M537 376c1 0 4-2 10-1l10 2-4-1c-5-2-7-2-12-2l-4 2z" class="B C"/><path d="M361 316h1c0-3 2-6 4-7 3-2 5-1 9 0l-2-1c-5-3-6 0-8 1l-2 2-2 5z" class="B H"/><path d="M616 259l-1 3h2l1-5-1-3c2 0 1 2 2-1h-3l1 6h-1z" class="B F"/><path d="M504 385l5-3a33 33 0 015-3l9-6-1 1c-2 2-7 3-9 4l-9 7zm-170-91l4 1 4 2c0-2-2-2-3-3l-3-1h-1v-1l-1 2zm149 91c3-1 3-4 9-8l3-3-4 2-3 3-5 6z" class="C B"/><path d="M606 303l-1-2-1-1-1 2 1 5v2c2 0 1-1 0-5v-2l1 2 1 3v-4z" class="B F"/><path d="M609 320l4 1c1 0 1 1 1-1l-3-1-6 1h4zm-1-14h1l8-1c-1-3-3-1-4-1l-3 1h-1l-1 1z" class="I B"/><path d="M335 260v1l4 1 2 1c0-5-6-3-6-3z" class="B D"/><path d="M359 294l-2 3v1l-3 2 1 2 3-5 2-3v-2l-1 1v1zm-2 16l1 2-1 2 1 1 1-3 1-4-2 1-1 1zm136 76l2-1 2-1 9-11-6 7-7 6z" class="C B"/><path d="M602 325l-2 1h1c3-1 7 0 9 1 0-2 0 0-4-3l-3 1h-1zm5-71l-2-2h-5l-4 1h6l5 1z" class="H B"/><path d="M575 378h7l3-1h-8l-2 1z" class="B F"/><path d="M340 332h-1l-3 4 2-1 2-2 4-4-2 1-2 2z" class="B I"/><path d="M405 347v-9l-1 5 1 4z" class="B F"/><path d="M352 328l4-1h-8l-3 1h7z" class="B M"/><path d="M576 320l-1-3h-4l2 1 3 2z" class="B I"/><path d="M521 409l-2-3-4-1 4 3 4 3-2-2zm83-98c5-1 4 0 8-3l-4 1-4 2z" class="F B"/><path d="M514 384l10 4-5-3c-1-1-4-2-5-1z" class="B C"/><path d="M558 338l2-5-1-1-1 6z" class="B F"/><path d="M618 306c1 1 2 1 2 3v4l1-1v-3l-1-4-2 1z" class="B H"/><path d="M353 346l6-4h-3l-1 1c-1 1-2 1-2 3z" fill="#ce9b0e" class="B"/><path d="M617 322l-1-1c-2 0-1 0-1 1 2 1 3 3 4 6l-1-4-1-2z" class="B J"/><path d="M599 351l2 5 1-3-2-1-1-1z" fill="#ce9b0e" class="B"/><path d="M340 246l2-2v-2c-2 0-2 2-2 4zm-4 6l1-1v-3c-1 0-2 1-1 4z" class="C B"/><path d="M378 336c2-2 3-2 6-1l-1-1c-3 0-4 0-5 2z" class="B N"/><path d="M348 352l4-5-3 2-1 3z" fill="#dba50b" class="B"/><path d="M628 253v1h4l-1-1h-3zm-287 0l2-2 1-1v-2 1l-3 4zm-10 5l-2-2s-2 0-1 1l3 1z" class="C B"/><path d="M586 294h3v-1c-1 0-2-1-3 1z" class="B I"/><path d="M636 272l-3-3 1 2 2 1zm-280 41h-1 2v-2h-2l1 2z" class="C B"/><path d="M604 300l1 1-1-4v-1s-1-1-1 1l1 1v2z" fill="#b48c24" class="B"/><path d="M383 379l-5 3 6-2z" class="B F"/><path d="M444 402v2c0 1 0 0 0 0l2-3-2 1z" class="B G"/><path d="M329 324h1l1-1v-1l-1-1-1 1v2zm25-18v2l1 2v-1a9 9 0 000-1l-1-2z" class="C B"/><path d="M609 306h-1v1h-1l-1 2 3-2v-1z" class="B F"/><path d="M629 270l4-2h-2l-2 2z" class="B C"/><path d="M590 294h1v1l1-2-2-1v2z" class="B M"/><path d="M603 293l1-2-2-2 1 4z" class="B H"/><path d="M376 325c-3 0-3 0-3 2l1-1 2-1z" class="B N"/><path d="M504 405v-2l-1-1-1 1 2 2z" class="B G"/><path d="M624 255l3-1-1-1-2 2z" class="B C"/><path d="M376 338v3l1-4-1 1z" class="B N"/><path d="M619 261l1-1 1-1-1 1-1-1-1 2h1z" class="B F"/><path d="M632 255h2v-2l-1 1-1 1z" class="B C"/><path d="M586 312v-1l-2-1 1 1 1 1z" class="B J"/><path d="M374 350h-2l-2 1 4-1z" fill="#b58c1b" class="B"/><path d="M603 315l2-1v-2l-1 1-1 2z" class="B F"/><path d="M364 341c-2 0-2-1-4 1l4-1z" fill="#bb9223" class="B"/><path d="M580 330v0z" class="B J"/><path d="M375 344h1l-1-3v3z" fill="#d6a429" class="B"/><path d="M354 306l-1-1-1 2 2-1zm264-63h2l-1-1c-1-1-1 0-1 1zm-15 36h2-2z" class="C B"/><path d="M599 351v-1h-1a12 12 0 001 0v1z" fill="#a68333" class="B"/><path d="M367 339h-1 1z" fill="#8a7244" class="B"/><path d="M598 350v0z" fill="#c89919" class="B"/><path d="M-2497 2385zM-466-402v3"/><path d="M478 347a104 104 0 101-208 104 104 0 00-1 208" class="H"/><g fill="#fff"><path d="M417 313l1 1c2 1 3 0 5-2s1-3 0-4l-1-1-5 6m28 16l1 1c2 0 3-1 3-3 2-3 1-4 0-4l-2-1-2 7m21 6h1c2 0 3-2 3-3 1-4-1-4-2-5h-2v8m-9-173l2-1c2 0 2-2 1-4-1-3-2-3-3-3h-2l2 8m78 19l1 1c2 2 3 0 5-1 2-2 1-4 0-4l-1-2-5 6m-12-17l-3 3 2 1 1-4zm-4 155l1 4 2-1-3-3z"/><path d="M478 343a101 101 0 100-201 101 101 0 000 201"/></g><path d="M474 170s-1-4-6-4-8 1-9 6v4l-1 6 4 2 2-2c0-3 1-4 2-5l2-5 4-1 2-1" fill="#fdb83c"/><path d="M462 303l3 2 4 4c2 1 5 3 3 4-1 2-4 1-8 1s-6-3-7-3l-1-4-1-14c-2-7-2-13-1-19l1-9-3-2 1-15v-10c-2-2-2-8 0-10 3-2 4-5 4-5l-2-8-2-6-2-7c0-3 3-9 5-11l5-6s-4-2-3-5l1-4v-5l2-2 4 1-2 7h3l-2 5s-3 1-1 5c0 2 3 3 6 4l1-2a157 157 0 006 8l7 4 6-1s-3 5-5 6l-13-2-4-4-6-2-3 2 2 1-1 2v1l1 1-1 1h3l6 2 6 4 3 1v11c-1 2 0 6 1 12l1 23-2 5s1 5-1 10l-3 13c-1 5-4 11-2 14 1 3 8 6 8 6l-2 3c-2 1-7-1-7-1l-3-2-4-4 1-11 2-16c2-3 3-6 2-7v-3l-4 1-2 12v23" fill="#d88f28"/><g fill="#68613e"><path d="M500 181s1-1-1-2-3 0-4-4l-1-5-3-1 4-2c2 0 6 0 7 3 2 2 1 5 1 7s2 0 1 3l-2 3-2-2m-21 126l4-1 3-1h3l3 2s0 2-3 3-6 3-3 4h8l7-2h2v-5l-4 3v2h-1v-5c-1-1-4-3-5-2s-2 4-5 4h-6l-3-2m-26-68s-4-5-2-8l5-6h3s-1-1 0 3c2 3 3 4 5 3l3-3 3 3-4 3h-5l-3-2-5 7"/><path d="M456 222l3 3h7l-3-4zm13-7l2-4h1l-1 6-2-1v-1z"/></g><path d="M501 183l-5 4-1-1h-1l-3 6 11-7h2z" class="K"/><path d="M469 186l-3-4h-2l2-6c1-2 1-4 3-4l4-1 1 4v4l-1 2c-1 2 0 6-1 5h-3m30-5l-6 3-1 2s-3-1-2-2v-2l-2-2 1-5v-4l4-1 2 5v4l3-1 1 3m-29 23s-2-5-5-5l-6 1 1 1-1 1v2l1 1-1 1h3l3 1h4l1-3m7 20v-3l3-1s-1-2 1-2h6v5l-2 1-2 3-1 1-3-1v-1h-2v-2" fill="#fbd9e1"/><path d="M491 307l-5-3s3-3 2-14c-2-11-3-39-2-48l1-30s-4 2-9 1l-9-4 2-5 7 1 5 1 6-5 2-7 1-2 11-6s6 1 4 17c-1 18-1 24 1 35 1 11 1 18-1 26s-3 12-3 23v20l-4 1 1-14v-22-5l-2-3 1 19-1 20-1 4s-3-3-4-2l-3 2" fill="#2b3636"/><path d="M497 312l3-15-1-27v-6h1l2 22-1 20-2 6h-2" fill="#bce6fb"/><g fill="#010101"><path d="M493 168l1 2-5 1c0-2 2-3 4-3m6 0l-1 2-4 1v-2l5-1m-33 0l-1 2v1h-4l1-2c1 0 2 1 2-1h2m9 2l-1 2h-1v-2h2m-11 2v2h-1c-1-1 0-2 1-2m38 2v4h-3v-2l1-1v-2c1 0 3 0 2 1m-34 1c-1 1 0 3-1 2l-1 1h-2v1h-2l1-3h3v-1h2m-3 4v2h-1v-2h1m-2 3h-2v-2h2v2m38-2v2h2v3h-2v-1h-2v-2-2h2m-37 4l-1 1 1 2c2-1 1 1 1 2v1c-2 0-2-2-4-1v-1 1h-2v-2c1-1 2-2 1-3h1v-1h3v1m6 2l1 2v1h-2l-1-2-1-2 3 1m25 1s-1 0 0 0l1 2-1 1h-1v-1h-2v-2h3m-23 3c0 1 2 1 1 3l-1 2h-1v-5h1m21 1l-1 2h-2c0-1 1-3 3-2m9 6h1l-2 5h-2v-1l-1 1c-1-2 1-3 1-3 1-1 1-4 3-2m-23 2v3l-2 1v-4-1l2 1m-6 4h-2v-3h2v3M453 203h1l-1 4c0 1-1 2-2 1h-1v-3h1v-4h2v2m18 0v2h-2v-2z"/></g><path d="M518 99l-5 18v1h2v-1l5-17v-1-1h-1l-1 1" fill="#232364"/><g fill="#010101"><path d="M461 205v1h-2l1-2c1 0 2 0 1 1m9 1v2h-2c-1-2 1-2 2-2m38 2h-2v-2h2v2m-53-1l-1 2h-1l2-2m9 3h2v2h-2c-1 0-2 1-2-1l-1-1h3m-8 0h1v2h-3v-2h2m12 0v2h-1c-1-2 0-2 1-2m24 3l-1 1h-1v-2l2 1m-33 1h1v2l-2-1v2h-2v-2-1c1 0 2 0 1-1l2 1"/><path d="M462 217l1 2c2 0 1 2 2 3-1 1 1 2 1 2l2 1c1-1 1 1 3 1h4v1l1-1v-2h3v3h-2v-1 2l-4 1h-1-1s-1 0 0 0h-3v-1l-1 1v1h-2c0-1 2-2 1-4h-2v-3h-1v-1h-3v-2h1l-1-2h-1v-2l3 1m9-1l-1 3h-1v-3h2m36 5v3h-4v-3h4m-48 2h1v1h1v2l-1 2v1h-2v-5h-2v-2l3 1m29 1h-1v-2h1v2m-2-1v3h-2v2h-2v-2h2v-3h2m2 3v3h-1v-3h1m-29 5h1v2h-3v-1 1-3l2 1m12 9v3l-1 6h-2l1-5c0-2-1-5 2-4m-1 15v1h-2v-1h2m-16 1l-1 4h-2l1-4h2m18 3h3l3-1v-1h1v6l-2 2-5 1v-4l-1 2v2h-2l-1-1v2h-4v-2h1v-4c1-1 0-3 1-2h1v3l1-1h3v-1h-1v-3h2v2m-11 0v8h-4v1l-1 1h1v2h-1-1 1l-1 2h-2l1-3s2 1 2-1h-2v-6h2v2h2v-1l1-5h2m2 2v6h-2v-6h2m-10 3h-2v-2h2v2m47 0l1 2h-2v-3l1 1m-31 4l2 4v1h-2v1h-2l1-6h1m37 3v4h-2-1l1-4h2m-50 4v2c-1-1-2 1-3 1v-3h3m7 2h-2v-2h2v2m43 2l-1 2h-1c0-1 0-3 2-2m-52 1v1l1 2-1 2 1 2v2l-1 1h-1v-6l-1-3 2-1m51 7h-1v-2h1v2m-49 4v4c-2 1-2-1-2-2v-2h2m49 2h-1v-2h1v2m-39 3v1h-2v-2l2 1m37 1h-2v-2h2v2m-46-1l1 3h-3v-3h2m48 2v2h-2l2-2m-41 1v2l-2 1v-3h2m-6 4h-2v-3h2v3m31-2l-1 1h-1c0-1 0-2 2-1m-25 1v3h-4v-2-1h4m-7 2v2h-1v-2h1m32 7h-3v-2h4l-1 2m11 1v2h-3v-2h3m-12 2l-1 1h1-4v-2l4 1m6-1c1 1 0 2-1 2h-1v-2h2"/></g><g class="K"><path d="M422 304l3 3c2 2 1 5-1 6-1 2-4 4-7 3l-3-3 8-9m9 8l-6 9-2-1 7-10zm7 4l2 1-9 8-1-1 3-11 2 1-3 8 6-6zm5 3l-5 10-1-1 5-10zm3 1l4 1c3 1 2 4 1 7s-2 5-5 4l-4-2 4-10m10 10l-1 3 5 1v2l-7-2 3-11 6 2v2l-5-2-1 3 5 1-1 2zm9-5h4c3 1 3 4 3 7 0 2-1 5-5 5h-3l1-12m14 1h2l2 9 1-9h2l2 8 1-9h2l-2 12h-2l-2-8-1 9h-2l-3-12m17 5v3l6-1v2l-7 1-3-11 7-1 1 1-5 2v2l5-1v2zm17-7l1 1-4 2 2 5h-2l-4-11 6-2 1 2-4 1 1 3zm8 4l-2 1-2-12 1-1 9 8-2 1-2-1-3 1 1 3zm2-15l2-1 5 8 4-3 1 2-5 4zm7-5l2-1 6 7 3-3 2 1-5 5zM421 179c2 2 2 4 1 5s-2 2-4 1l-2-1-6-5 2-2 5 5 3 1v-3l-6-5 2-2 5 6m2-7l5 7-2 1-7-10 2-1 7 5-4-7 1-1 7 9-1 1-8-4zm7-9l6 10-1 1-7-10zM442 169l-2 1-4-8-3 1v-2l6-3 1 2-2 1 4 8zm5-7l1 3 5-2v2l-6 2-4-11 6-2 1 2-5 2 1 2 4-2 1 2zm22-12l2-1 2 9 1-9h2l2 9 1-9h2l-2 12h-2l-2-9-1 9h-2l-3-11m17 6v3l5 1-1 2-6-1 1-12 7 1-1 2h-5v2l5 1-1 2zm14 4c0 1 0 2 2 2h2l-2-2v-1c-2-1-3-2-2-4 0-1 1-3 4-2 3 0 3 3 3 4h-2c0-1 0-2-2-3l-1 2v1l2 1 2 4c-1 3-4 3-5 2-3 0-3-3-3-4h2m11 8l-2-1 3-9-2-1 1-2 7 3-1 2-3-1-3 9zm5 2l-1-1 8-8 2 1-3 12-2-1 1-3-3-1-2 1zm14-1l-5 7-1-1 7-9 2 1-2 9 5-7 1 1-7 9-2-1 2-9zm10 4l3 2c3 3 1 5-1 7s-5 4-7 2l-3-3 8-8"/></g><g fill="none" stroke="#010101" stroke-width=".9"><path d="M473 260v0zm1-90l-2-3c-3 0-7-1-10 1-2 1-3 4-3 6l1 2 2-5m-2 5c-2 2-2 6-1 8l1 1m-1-8v-2m41-6h2l1 9 1 2-2 2M503 178h-1m-2-9h-1v-2l-7 1"/><path d="M499 167l1 2m-33-1h-2m1 1h0m28 1h0m-25 1l-1 1v1m0 0l-2 2M467 173h-1m1 0l1-1m1-1v-1m3 1v1m0-1h1m-9 1l1-1m29 1h1m0 1l-1 3 1 1 1-1v-2m-1 3l1 1h2v0M496 178l-1 1M495 179l1-1m-2-5h1m-1-1v-1m-5 4h3m-2 1v1M490 176h-1l-1 4c2 0 1 3 2 2 0 2-1 3 1 4h1v-1c2-2 4-2 7-3m-7 4h0"/><path d="M490 182h-1m-1-4c0-1 2-2 1-3l1-4m-17 1h0m0 4l2 4-2 1v2l-1 4-1-1"/><path d="M473 183h-1v-3M472 181h1m0-5l-1 1m1-1h-2m2 0l1-4m28 1v0m-42 6c1-2 1-4 3-5m1 0l-1 2m5-1h0m31 1h0m3 2v0m-4 2h-1M498 180l2-2c-1 1-1 3-2 2m-32-1v-1m-4 1h0m2 0v1M490 179v0m-27 1h1m5 0v1m-3 2l2 2m-2-2l-2-1h-1 1v-1M464 182l2 1m-5-1v1m36 4l3-2M497 187l-1 2h1l6-4 2 2c2 6 4 13 2 19m-11-19l-1 1m0-2l4-2M496 186l1 1m-30-1l-3-2m3 4l-2-1m5 2l-1 3 2 1M469 191l-4-2m27 2v-2m-33 0h-1c-4 4-4 8-6 12"/><path d="M458 189h1m3 0h0m-2 0v1m11-1v1m-7 0h0m0-1l3 5m28-4l-2 2m9 0v4m0-4l-3-1c-4 1-8 5-9 8-2 1-1 1-2 3l-4 3v2M484 206h-2v1m0-1c-3-1-7 0-10-2h-1m1 0v-1m5 2v-2"/><path d="M483 206l1-1m4-5l-5 2v1m0-1l-4-2m10 0v-1l1-6h1l-2 5 1 1 1-1m0-1l4-4m-3-1h0m-15 6l-4-5m-19 9c1-2 1-5 3-7m14 1l-2 7c0-1 0-2-2-3-1 1-1 0-1-1-3 0-5-1-7 1v0l3 1c-1 0-3 0-4 2v0h3m-3 0l1 1v1M460 201v0m6-2h0l1 1m2 1h0m1 0l-1-3m1 1v1m1-4l-2-1m3 5v-5m33 13h1l-2 3 1 1 2-1v-3m0 4l-1 9m0-3h-2l-1 2v0l-2 1M503 220v-1m1-1c-1-1-3 1-4 2"/><path d="M503 218l1-3h0-1l-4 4"/><path d="M504 215v-4l-1 1-3 4m3-4l2-2m0-2v-7l-1-5m-28 5l-2-4m23 5l-7 4m6-3l2-2-1 1m-3 7v1m0-1h-1l-6 4v9m0-4h-5c-1 0-2 0-3 2 0 1 1 2 2 1l2-1c1 1 2 1 2 3v0m-6-3h-2v4m0-1h-3l-1 1M474 223v0h-6m6 0h0m3 0v-3l-3-1-3-2m3 2l2-3"/><path d="M476 220h1v-1-6l-5-2-1 5m1-5h-1l-2 5c1-1-1-2-2-4M469 215h1m1-4l-2-1v-1 1M471 211h1m5 2l6 1v-1l-2-2m2 2h4m6-4l7-7-6 7m-23-6h0m-20 2h0m18 0v1m2-1l-1 1m-14 0v4m3-3h8v3h0"/><path d="M467 210l-1-1v2s0 0 0 0h0m0-2h1m-8-2v-1m-5 1v-1 1h0m3 4c1 0 2 1 3-1v-2"/><path d="M459 211h3m-4 0v2m0-1c-2-1 0-3 0-4m5 0v1m-10 1v-1m0 1h1m-1 0h-1v-2m2 1v1m34 0l-4-1m-19 1v0m2 6l-4-4m-7 8l2 1c1-2-1-3-1-4"/><path d="M458 219h1v-1h0m0 1l1 1m-2-1v2h1m-1 0l-1-1v2m0-1c-2-3-1-6-2-8m1 0v1m49-1h0m-22 0h1m0 0h0m20 2h2v1h-1m-46 0h1m11 1h0m20 2h-1v-1l1 1m-21 0v0m-1 2h-5m-3 2h-1m30 0l2 19c2 7 4 16 8 21m-10-40h-1v0h1m-27 0l-2 1m26 2v-2h-1 1m21 33l-2 14M508 257c1-12-1-23-2-34m-46 0l1 1m42 9v-9m-45 2l-2-1c-4 4-5 7-5 12l2 2 5-5h-2l-3 3M456 234l1-1m1 1v-1m-5 6v17m3-31s0 0 0 0v-1m26 2h-1l1 2 1-1m-2 1l-1-1h-1"/><path d="M480 227v-1l-1-1 3 1m2-1v1m-21 0v1m0-1h-2 3m20 0h0m1 0h0m20 26v14m0-14c0-10 1-16-1-26m-25 17h0v14m0-14l-2-15m-19 1v1m2 0l4 1 1 3 3-1-1-2M468 233h1c1-1 2-1 1-3h-1l-1-1"/><path d="M470 230v0m-1 3v7m0-7h-1l-1 6m0-4v-1m-1 0c-2 1-4 1-6-1"/><path d="M462 234l1-3h-1m-2 0v-3m12 7l-1 5m1-5l1-6m14 1l1-1 2 19 4 36v15c1 1 2 0 3 2m-2-2l-1 6h1l3 3h0c4-15 1-27 1-42m-1 42v4m-4-7c-1 2-4 2-4 4l2 1m-2-1h0m1-1c-1-1-2-3-3-2h-1l-1-1-2 1 2 1M484 306l-5 1v1l2 1 1 1h4"/><path d="M481 309c-1-1-2 1-4 2h-4v1c1 1-1 2-2 2h-5l-4-2c-2-1-5 0-6-2v-4"/><path d="M457 311l1-1m0 1v1h1v-1m0 1h1v-1m2 1l1 1m1 0v0m0 0l2 1m7-3l-5 1-9-3-1-1v-2"/><path d="M473 311l-1-1-4-2-1 1m1-1l-5-4M472 310l1 1m6-2v-2l-3-1-2-1-3-4h-1m1 0v-2l-5 2m5-2l-1-1h-2l-1-1-1 1 1 1h-3v-1h2"/><path d="M467 297c-1-1-1 1-1-1l4 2 1-5h-2m2 0l1-4-2 1m2-1l1-3-1 1m1-1l2-10c2-5 2-6 2-11m9 40l1-2m0 1l1 2m3 2l1-1m2-7v-1m-7-69c-1 22-2 39 0 59 1 4 2 8 1 12h0m-1-71v-1m-15 14l3-12m-17 1h0m5 2h0m-7 9v9m17-7l-3 9m-4 3l2-7v-1m2-1l-1 7m3-3l-1 5m-17 6l1-8m1 8v-7m12 1l-1 2m2 2l-1-1v1m0-1l1-3m4 1l-1 2m-13-2v1m-1 0l-1 6m8-6v2l-1 4m1-6v0m-2 2l-1-2v2m10-2v1m-20 0v2m1-2v2m1 2c-1 0-1 0 0 0m18 2h-1m33 6l-1-2h0l-2 3 1 12 2-4m-2 4v5l2-3M502 289v6"/><path d="M502 290v-1m-1-16v-4-3l2 4m-34-4l-1 2M468 267v-1h1m-8 0h0m3 1h-1m0 7v1h-1c2-2 2-6 2-8m-7 1v1m-2 0l-1 1m2 4v-3 1m15 1h0m-18 2l1-2m11 10l1 1M465 283v2l1 1M465 285v2l1 1m-1-1l-1 3 2 1m-2-1l1 3h1m-1 0v2M465 294l-1 1v-1m1-11l2-9m4 1l-2-1m36 2v-1m0 1v3h0m0-3l-1-1-1 5m1-5s0 0 0 0m-42 24l1-22m-7 6v0m0 0l-1-2h-1c1 0 2 0 2-2l-2 1"/><path d="M455 280l1-1v-2 5m-2-5l-1 3m52 1v4m-50-1h0m0 1h0m1 2v1m48 3l1-4v4h-1m-48-1h0m-2 0h0m49 3v2m1 3l1-5m-50 2h0m2 0v1m43 13l2-2 1-7M502 307h1l2-7M503 307v5l-3 1"/><path d="M502 313v-1h-2m2 0h1m-3-3l-1 3m1-3l2-12m-44 3h0m-2 0h0m8 1l2 1m-3 0v0h0m-6 2l1-1m-1 1h-1v-1m4 0h0m0 2h0m18 4c-2 1-5-1-8-1m20 3h1m-7 2v1M484 314l2-3m8 3l2-1h1l-3 1m-4 1h2m-2 0h-2M490 315v-1h-2m2 0h2"/></g><path d="M466 327h2l2 2 1 2-1 3-3 1h-2l1-8m-19-5l2 1 1 2v2l-1 2-3 1-2-1 3-7m-25-15l1 1 1 2-1 2-2 2h-3l-1-2 5-5m118-132l2 2v2l-1 2-2 2-3-1-1-1 5-5m-21-9l4-3-2 5zm1 156l-1-5 4 4z" fill="#fff"/><use xlink:href="#B" class="K"/><use xlink:href="#C" fill="#fff"/><use xlink:href="#B" class="K"/><use xlink:href="#C" fill="#fff"/><g class="H"><path d="M324 200l13 3v1l-2-1a21 21 0 00-5 0h-6l-1 2v1l2 1 28 6h2v-2l-2-2-6-3-3-1h-1 1l3 1c4 0 6 2 8 3l1 4-2 2-4 1-10-1-4-1c-3 0-6-1-8-3l-5-3-1-3 4-3-2-2zm18-12l8 2 9 6v4l-2 3h-4l-7-1-9-3c-5-2-7-4-9-6l-1-4 1-2 2-1h7l5 2zm13 13h3l1-1v-1l-1-1-27-10h-2l-1 1v1l2 1 25 10zm-22-24l-1 1 3-6 19 8-17-12 3-5v-1 2l28 15 1-1-3 6v1-2l-27-14 25 17 1 1-1 1h-1l-28-11 25 13h2l1-1v1l-2 3v-1l-2-2-26-13zm11-21v1h-1l4-5 17 10-14-14 3-5h1l-1 1v1l26 19 1-2v1l-4 6h-1v-1l1-1-25-18 23 21v1l-1 1h-1l-26-15 23 16 1 1h1l1-1v1l-2 3v-1-1l-1-1-25-18zm31-18l6 6 6 9-1 4-3 1-4-1-6-4-7-7-6-8 1-4 2-1 2-1 3 1 3 2 4 3zm7 18l2 1h2v-1l-1-2-21-19a3 3 0 00-1-1h-1l-1 1a3 3 0 001 2l20 19zm-3-35l-1-1h-1l-1 1v-1l3-2v1l1 2 20 23-3 2-24-19 18 21 1 1h1l1-1v1l-3 2v-2l-1-1-19-23-1 1h-1 1l4-4 19 16-14-17zm6-7h-1l5-4h1l-1 1 13 18-8-18-2-2-1 1v-1l6-4v1l-1 1 14 17-9-17v-1l-1-1h-2l3-2h1l-1 1 1 2 12 25 1 2v1l-2 1-2-2-16-20 12 23v2l-1 1h-1l-1-1-19-24zm23-14l-1 1v-1c-1 0-1 0 0 0l11-5 5 11v1l-1-1-4-6-3-3-2 1h-1l7 14 1-2-1-5-1-1h1l6 14v1l-1-2-3-4h-2v1l6 14 1-1a3 3 0 001-1l1-3v-4l-2-5v-1l6 12-12 5v1-1h1l-13-30zm20-8l2-1 14 30 1-1v1l-6 2h-1l1-1h1l-3-6-4 2 1 3v1l1 1h1v1l-3 1h-1l1-2v-2l-5-29zm2 8l3 17 4-1-7-16zm11-12l-1 1-1-1 8-1c0-1 0 0 0 0h-2l7 32h1l1-1 1-3 1-6-1-4h1l2 13-12 3v-1h1l-6-32zm19-3h-1a1 1 0 000 1l-1 1-1 7v5h-1l-1-14 14-1 2 13v1h-1v-1l-1-5-2-6-1-1-1-1h-1l3 33h2l-8 1v-1h2l-3-32zm15 31l1-32h-2l1-1h6l1 1h-2v15h3l1-15h-2 7-1l-1 32 2 1h-7v-1h1v-16h-3v16h1v1h-7v-1h1zm38-16l-2 8c-1 5-2 8-4 10l-4 2-3-2-1-4v-8l2-9c1-5 2-8 4-10l4-1 2 1 2 2v11zm-11 16v2l1 1h1l1-2 5-28v-2h-1-1l-1 2-5 27zm19-26l-1-1 12 4-4 11v0l1-6v-5l-1-1h-1l-1-1-5 15 2-1 3-4v-2h1v1l-5 15h-1l1-2v-5l-1-1-5 15h2v1h-1l-7-2v-1l2 1 9-31zm25 9l-1-1h-1 1l6 3v1l-1-1-7 14 9-8 2-2v-1-1h-1v-1h1l4 3c1 0 0 0 0 0h-1-1l-4 3-4 4-5 22h1v1h-1l-6-3v-1h1l1 1 3-16-7 14h1v1l-6-4 1 1 15-29zM564 109h-1v-1l11 7-7 10h-1 1l3-7v-4l-1-1-1-1-9 13h3l3-4 1-1h1l-10 14v-1l1-1 2-5-1-2v1l-9 12v1h2l3-1 3-2 3-4 1-1h1l-8 12-11-8h1l1 1 18-27zm20 18l1-1v-1l-1-1 3 3h-2l-1 1-20 23-2-3 15-26-18 21v3l-3-3h2l1-1 20-22-1-1v-1l4 4-12 22 14-17zm10 7l-1-1-2 1-6 3-3 3h-2l1-1 10-9 10 11-11 9 1-1 3-3 3-5 1-2v-1h-1l-24 21 1 2-5-6v-1l1 2 24-22zm11 12l-1-1 4 6-1-1-25 18v1 1l2 2c1 0 3 0 4-2l20-14 2-1v-2l2 3h-1l-3 1-20 14c-1 1-3 2-4 1l-3-2-2-5 3-3 23-16zm16 24l-12 6v1l-1-1h1l1-1 4-3 4-5v-1l-1-1-2 1-25 14-1 1v1l2 1 2 1 6-3 3-1 1-1v1h-1l-3 2c-3 2-5 2-7 2l-4-2v-3l2-3 8-6 4-2 8-4h6l2 2v3l2 1h1zm2 7l-1-2h1l3 7h-1v-1l-15 6h15l1-1v-2l3 5h-1v-1h-2l-4-1h-6l-18 14v1l-3-6v-1h1v2l13-10-14 6v2l-3-7v-1 1l1 1 30-12zm-8 26l15-7v-2 1l2 6v1l-1-2-13 7h12l1-1h1l1-1v-1l1 4-3-1-15 1-15 4 1 2h-1l-2-8h1v2l15-5z"/></g><defs><path id="B" d="M453 153l4-1c3-1 4 2 5 4s1 6-2 7l-4 1-3-11"/><path id="C" d="M455 154h4l2 3v2l-2 2-2 1-2-8"/></defs></svg>