<svg xmlns="http://www.w3.org/2000/svg" xmlns:xlink="http://www.w3.org/1999/xlink" width="990" height="630" fill-rule="evenodd"><style>.B{fill:#fbbc54}.C{fill:#fdbe56}.D{fill:#5d2401}.E{fill:#975618}.F{fill:#591e01}.G{fill:#6f3c15}.H{fill:#f3c283}.I{fill:#a35c0a}.J{fill:#a86518}.K{fill:#f4b653}.L{fill:#683406}.M{fill:#8f5010}.N{fill:#592101}.O{fill:#2b220a}.P{fill:#a15e1a}.Q{fill:#642b01}.R{fill:#834c26}.S{fill:#a5a5a9}.T{fill:#7a431a}.U{fill:#352b16}.V{fill:#f9c587}.W{fill:#561e00}.X{fill:#a96923}.Y{fill:#724e2d}.Z{fill:#fefefe}.a{fill:#531a01}.b{fill:#995507}.c{fill:#544930}.d{fill:#e8932e}.e{fill:#492e11}.f{fill:#d7d7d8}.g{fill:#f79a2b}.h{fill:#894c15}.i{fill:#ebebec}</style><defs><linearGradient id="A" gradientUnits="userSpaceOnUse"><stop offset="0" stop-color="#fff"/><stop offset="1" stop-color="#8c8c8c"/></linearGradient><linearGradient id="B" gradientUnits="userSpaceOnUse"><stop offset="0" stop-color="#8c8c8c"/><stop offset="1" stop-color="#fff"/></linearGradient><linearGradient x1="252.4" y1="441.5" x2="295.7" y2="441.5" id="C" xlink:href="#B"/><linearGradient x1="695.4" y1="442.3" x2="741" y2="442.3" id="D" xlink:href="#A"/><linearGradient x1="704.3" y1="436.8" x2="744.2" y2="433.6" id="E" xlink:href="#B"/><linearGradient x1="253.2" y1="433.6" x2="286.7" y2="437.6" id="F" xlink:href="#A"/></defs><path d="M0 0h990v630H0z" fill="#00447b"/><path d="M507 551a482 482 0 00245-73c3-2 3-2 3-5l-2-8c-1-4-4-10-2-12l6-6 7-4 1-1-2-3c-5-7-6-10-8-16l-1-12-2-8-2-3-1 1-8 8-12 7a122 122 0 00-22 14l-11 12-1 4v1l14-5a283 283 0 0130-14l2 1-1 3-10 7a176 176 0 01-31 17 597 597 0 00-33 15 693 693 0 01-108 30c-27 4-46 5-64 5l-11-1h-8l-29-1-24-4a590 590 0 01-87-22 320 320 0 01-83-49c0-2 1-3 3-2 4 0 16 4 26 9l15 6v-1l-8-8a85 85 0 00-34-18 77 77 0 01-13-9l-3 10c-1 6-1 9-3 13l-3 5c-3 2-4 5-6 8l-1 4 2 1 9 4 4 4v2l-5 16 3 4c6 6 17 13 31 21l7 4a361 361 0 0076 30 481 481 0 00155 19z" fill="#fff"/><path d="M705 453a178 178 0 0036-23v-1c-1-1-4 0-8 2a322 322 0 00-22 10 48 48 0 01-16 7 76 76 0 003 8l7-3z" fill="url(#D)"/><path d="M291 455a215 215 0 004-12l-12-5-21-9-9-2-1 1c0 2 3 5 8 9l25 16 6 2z" fill="url(#C)"/><path d="M289 472h-3l-3 5c-1 3-4 6-2 8 3 4 7 5 9 3l7-11h-1l-5 8c-1 3-4 4-6 2l-2-2 1-4 5-9zm15 8l-7 14 1 1 5-11h1l4 16 7-15h-1l-4 9-4-13zm19 9l-6 15 3 1v-2l6-13zm30 11l-6 15h1l4-11h1l6 15 5-15h-1l-3 9h-1l-4-12zm-17-6l-5 2c-3 3-3 9-1 11s5 3 8 3 6-1 7-5 0-8-4-9a11 11 0 00-5-2zm1 1a4 4 0 011 0l4 3v4c-1 4-3 8-7 7s-3-8-1-11l3-3zm62 17h-3l-4 12c-1 2-4 1-5 0l1-5h-2l-1 2c-1 4 4 5 7 5 3 1 4-2 5-6zm9 2h-3l-1 6c0 3-1 7 1 8 4 3 8 3 10-1l2-11-1-1-1 10c-1 3-3 4-6 4l-2-2-1-3 2-10zm27 7v-3c-2-1-7-2-9-1s-3 2-3 4c0 3 6 4 8 7l1 1-1 2h-3c-3 0-5-1-6-4v1c0 4 5 5 8 5s5-3 5-5l-4-4-5-3 1-3c3-1 7 1 7 1v2zm6-2v1h5l-1 10v3l-1 2h4l-1-1 1-3 1-11 5 1v-1zm19 2l-2 15h4l-1-1 2-14zm92-2l-3 4c-2 4 1 9 4 10h8c2-1 5-4 4-8 0-5-3-7-7-7l-6 1zm2 1l1-1 4 1 2 3c1 4 2 9-3 10-4 0-6-6-6-10 0-2 1-3 2-3zm-12 4l-1-3-4-1c-5 0-9 3-9 8 0 3 2 6 4 7 1 1 7 2 10-1l1-1v-1l-1 1-5 2c-2-1-4-2-5-6 0-3 1-7 4-8l5 1 1 2zm-42 1l-1-3h-10v16h10v-1h0-6l-1-7h5v-1h-4l-1-6h4l2 1 1 1zm71-9l2 15h1l-2-12h1l12 10-2-15h-1l2 10h-1l-10-9zm20-4l1 2 2 11v2l4-1-1-1-1-6 4-1v-1l-4 1-1-6c2-1 5-2 6 0h1l-1-2zm16-5c2 1 4 12 4 15h4l-1-2-4-13zm21-5h-2l-4 1-4 2v1l2 6 2 5v2l6-2c3 0 4-1 6-3 3-5 1-10-4-12h-2zm-3 1a5 5 0 011 0l3 1c3 2 5 9 1 12l-4 1-5-13 4-1zm-143 23v-3l-4-1c-6 0-9 3-9 8 0 3 1 6 3 7s8 2 10-1l1-1v-1l-1 1c-1 1-3 2-5 1-2 0-4-1-5-5 0-3 1-7 4-8l5 1 1 2zm206-43l-2-2h-4c-5 3-7 7-5 11 1 3 4 5 6 5s8-1 9-5v-2 2l-4 3c-3 0-5 0-7-3-1-3-2-7 1-9 1-1 3-2 4-1l2 1zm-39 13l-1-2-9 4 1 2 4 12 9-3v-1l-6 2h-1l-2-6h1l4-2v-1l-5 2-2-6 4-1h2l1 1zm7-4l6 14h1l-5-11 1-1 14 8-5-14h-1l3 9-11-6zm48-18l-2-2-9 5h1l1 3 6 10v1l8-5a1 1 0 001-1h-1l-6 3-3-6 4-2v-1l-4 2-3-5 3-2h3z" fill="#004279"/><g class="Z"><path d="M477 138c-1 21 8 53 14 73l1 8c1 6-1 25-2 30-2 8-7 26-15 28-6 5-12 4-17-1-3-2-8-10-10-15l-12-35c-2-4-3-9-3-13-2-2-15-59-20-72l-6-16-2-3v-1h-1l-2-1c-8-4-20-3-25 2-6 6-15 43-18 53l-7 26c-10 27-19 55-31 80-8 17-17 38-27 54-3 6-6 13-10 18l-16 25-5 10c11 0 28-30 32-38 16-26 20-33 32-62l8-16 1 14h-1l2-13c-4 1-4 3-5 7-14 34-30 63-51 94l-10 13c2 1 4 2 6 0 6-5 8-8 11-12 7-7 12-17 17-25l26-49-11 24c-5 12-22 41-31 52l-8 9 5 4 6-8 10-11c11-12 25-42 32-57l11-30c1 2 0 4-2 7-2 7-4 15-8 22-16 33-13 33-36 64-5 8-4 3-5 12 5 1 11-8 14-11 11-17 17-27 26-45l3-4c-1 7-20 37-25 45l-11 14c6 4 13-7 16-12 16-21 22-37 31-61 1 0 1-1 1 2l-18 41c12-1 19-25 22-35l-8 26c6 0 11-9 13-16l7-22v5l1 3 4-3c1-2 4-10 6-11h3l1 1v5h4l3-4 4-6 4-7h1v1l1 1 2-3 1 2h1v1c3-2 5-12 8-13-1 5-10 19-10 22v2h4l2 1 5-2c1 9-5 11-2 22 2 8-2 18 5 23 2-4 1-11 3-14 2 5 0 2 0 10l2-6 1-5 3-11 1 2 5-9-2 10 6-12-1 4-1 4 5-9v3c1-4 1-5 4-7l-3 9c4-7 2-5 4-5l-4 8c5-4 4-10 11-12l-6 9 6-5c-2 5-5 6-6 10l4-4-3 8c3-3 3-7 7-10l-8 19 4-7c0-3 1-5 4-7l-1 4v1l2 1 4-3v1h5l4-2c0-2-1-1 1-2l1-1 3-3 1-2 2-1 2-4h1l4-5c1-1 1-2 4-2v4c-2 2-2 0-4 3l-15 18 1 2v-1l1-1 1-1 2-2 4-5c4-5 3-2 5-4 3-3 0-4 4-6h4c-1 2 1 1-2 2l-4 6-3 6-3 5v9l2-5-1 6 3-4-2 10c2-3 1-5 2-8l3-6-1 6 3-3h1l1 5c2-3 0-3 3-6l-2 10 4-7-3 16 5-19c1 0 1-2 1 2l-3 10 1-2 2-7v5l3-4-1 7c2-1 1-2 2-4l1-1 8-8 4-8c6-12 1-24 9-24l1 5c2 2 2 3 2 6l3-2c2-3-2-1 1-1l2-1-2-2 3-1h-1l-1-3h4c3 0 1-1 2 2l9 16 2 3 2 3c0-4-1-23-4-26-3-2-1 2-2-3h5c2 8 5 22 10 28 5 5 7 10 9 17l2 6-6-22 2 3 4 7 5 13-6-26c4 5 6 12 7 18v-3l-1-4c-1-2-2-5-1-7 2 2 1 4 3 8l3 7v-3l-3-7c-1-4 0-2 1-3l7 20 1 7c5-5 4-11 4-14l1-2 1-7h2c1-8 2-12 1-20v-19c6 8 5 9 9 15 5 8 6 13 12 14l-3-6 10 7-2-7 10 10 1-3c3 2 4 4 6 4 3 0 1-1 2-1l-5-9c7 9 7 11 15 12 3 5 2 5 8 8 5 3 3 7 9 6l-14-28 6 8 13 24c6 12 3 6 10 16 2 4 7 11 14 9l-12-18-10-17-20-37 8 14 3-1v-2l4-2 2-6-9-16c-2-4-6-13-9-15 0-3 0-1 1-2l-1-1c7 0 2 0 3-1l-6-7-1 2-25-14-4-9h-3l-9-21c-1-3-2-5-1-7 2 7 6 22 10 26l2-2v-1l5 10c3 7 3 8 7 8l-12-30 9 18c3 6 5 15 9 19h4v-1l-4-12-14-32-1-3v-3 2h3v-2l2 1-1 1c6 2 3 1 5 3l2-2-3-5v-2c3 0 1 1 2-1l-3-3-2-8-2-1v-2l-1-4-1-1-6-16 1-1 1-1-3-1-3-13-2-2h-2l-1-2v-1l3-1-1-2-3-8c-1-5-2-4-3-7-1-1-2-7-10-7h-3c10 1 11 0 13 5l1 2 2 2c2-1 2 1 2-1h2l1 3c0-1 0 0 0 0 2-3 1-3 4-3l-1-3-5-11c-3-4-5-5-10-7-8 0-15 0-18 5-10 14-19 64-23 86l-10 45 3 26c0 8-2 18-9 18-1 2-2 2-6 1-2-4-3-4-1-7l2-2-8-41c-14-58-24-60-33-91-2-6-3-10-2-16l1-4 4 1 1-5 5 1v-6l-2-6 8 11-2-9c2 1 2 3 4 6l3 6c0-4 0-1-2-5l3-2 2-1 1-1 2-1 3 1-1-9-2-2v-3h2l3 8v-8c3 3 1 2 3 6v-9l1 5v2l1-12 2 7-1 2 1 3 1 3 3-20h-1c-2-3-5-9-8-11s-8-4-13-4c-10-1-19 2-24 10-7 11-10 35-11 48z"/><path d="M602 134l3 10 1 2c0 2 0 1-1 1l2 2-4 1v1h1v2h3l1 2v1c1 4 4 7 3 12l3 1-1 1-1 1c2 1 3 6 4 8l3 9 1 1 1 3h-1v2l2 1 2 4 1 2c0 3 0 1-1 2l3 3c-1 2 1 1-2 1l3 6c4 8 2 4 1 5l-1-4-2 2c-2-2 1-1-5-3l1-1-2-1v2h-2s18 46 23 50h4l-5-11 6 9c2 3 3 6 6 7 1 0 1 1 1-1-2-3-6-9-7-14l17 29 25 42 19 25 9 13-17-21-9-12-7-12-15-25-8-12c-7-12-3-8-9-10-1 1 4 1-3 1l1 1 15 27c4 8 15 23 16 27-9-11-9-14-14-21l-2 6-4 2v2l-3 1c2 1 11 20 14 25 5 9 11 17 17 24l6 8h9c0-3 0-2-2-4-5-5-32-49-37-57l6 8c5 7 28 45 34 50l9 5-1-4 9 3-1-4 11 3c1-4-5-11-7-14l-9-12-7-10-15-22-7-11-6-10a720 720 0 01-62-141l-8-23 1 3c-3 0-2 0-4 3 0 0 0-1 0 0v-3h-3c0 2 0 0-2 1z"/></g><path d="M506 335l-6 6c-9 13-3 22-7 28s-12 9-14 11c-3 2-4 17-5 19l3-20-7 2c-2 1-8 11-10 14l-5 6 4-1c2-3 4-1 6-7 1-3 1-1 2-2l12 21 6-20v-4c0-5-1-2 1-3-1 6-2 24-7 29l-10-3v-3c-1 2-2 3-1 5v2h3l-1 3 2 2h-3l1 1v1l2 3-2 2 3-1h1l1 2 2 1-1-2-2-2c4-1 4-2 6 1l6 2 6 3 3-3 1 1c3-1 5 1 8 2 5 2 3 2 8 0v-1h2c-1-2 0 0-3-2l4-1-2-2v-4c2-1 2 0 2-2l1 1c1-2-1-1 2-2l-1-7-1 2c-1 2-10 9-11-3 0-3 1-20 3-22l-1 27h6l5-9c3-5 1-7 4-9l6 12-3-14c-2-7-3-10-8-11 0 7 0 12-2 19l-1 1v1c-1-4 0-3 1-9 3-14 0-14-3-17l-5-6c1-6 1-12 4-16l-2 8c2-1 5-12 6-13v-9c0-5-1-4-3-7-1-9 6-29 4-34-2 2-2 4-3 9 0 6-2 15-5 21l-2 3z" fill="#fdfdfd"/><path d="M548 329a38 38 0 01-2 4l-2 4h-1c-3 7-1 8 1 13 8 6 4 20 2 28h-5l-1 1 3 15-8-1-4 17 8-12 15 6-1-7c-1-9 0-6 1-7l2 15-8 3 1 2 2 2v-2l5 1-4 1 3 2-2 2c4 0 1 0 2 1l2-1 2 3 5 1 7-1 3-5c4-3 9-14 11-16l3 1c0 4-2 6-4 10l-5 6-1 1c2 1 5-1 6-2 0-2 0-2 3-4l2-2 1-2c2-4 2-6 2-11 0-4-3-8-4-10l-7-8c-3 0-3 0-4-3l5 2h1l2-1 2-1 4-1 3-1c3-1 3-2 5-4l-8-4 23-8-31 3c-4 3-12-1-15 4 13 4 11 1 15 2-4 3-1 1-9 3-11 3-16-12-15-15 1-4 2-4 2-9 0-6-5-16-10-16-1-1-1 0-3 1zm-33-176c2 2 2 4 3 8l5 26 7 28c1 3 1-1 2 6l3 18 4 13v4l-3-14-7-29-2-6-18-63v2c-3 7-1 7 1 15l5 18 7 35-1-3-1-3-1-2c0 7 3 12 5 19 5 22 5 29 9 50l3 9-4 7 6 1c4-3 6-4 7-12 1-7 0-12-1-19l-9-71-2-38-4-2c-3-3-5-8-6-12-6 0-5 2-11-3l-9-8 4 21 2-8c4 0 6 9 6 13zm-94 219l-6 4-2 2-5 6-2 6 1 8v7l5-10 1 1c2 1 2 0 0 5l3 1v11l11 2 1-1v-1l1-2c1-1-2 0 1-1l7 7v-5l4 3 2 3 3-1 4-3 2 1h-1c-3-4 1 1-5-4l2-1-1-2h4v-1l-1-5v-2-3c0-3-1-1 1-5 3 4 0 3 2 14l1 2c3-7 0-5 0-7l6-23-25 8 2-1c6-2 12-7 20-9l-3-5c-6 3-18 10-22 15l-1 2c-1 2-2 2-2 6l9 4c3 1 7-3 8-3 4-1 3 1 3 1l-11 4c-5 0-9-2-10-5 3-8 3-10 10-15 4-4 11-9 16-11 0-5 0-15 2-17 3-8 1-7 2-14l1-3 1-4-14 4c-4 5-1 12-3 18-1 3-9 13-15 16-3 1-6 1-7 3z" class="Z"/><path d="M516 338c-1-1-1 1-2-2h-1c1 3 2 2 2 7v9c-1 1-4 12-6 13l2-8c-3 4-3 10-4 16l5 6c3 3 6 3 3 17-1 6-2 5-1 9v-1l1-1c2-7 2-12 2-19 5 1 6 4 8 10l3 15-6-12c-3 2-1 4-4 9l-5 9h-6l1-27c-2 2-3 19-3 22 1 12 10 5 11 3l1-2 1-4 2 1 2-8-2 15c1-1 1 1 2-5l1-5c3 6-1 13 0 17l2-14c6 3 5 3 5 7l2-4c1 1 1-2 1 1l-1 7 3-12 1 4 1-7c1-1-1-3 1 1l2-5v14l1-3v-4-7l1 6 2-5v8l1-1 1-5 1 2 1 3 8-3-2-15c-1 1-2-2-1 7l1 7-15-6-8 12 4-17 8 1-3-15 1-1h5c2-8 6-22-2-28-1 1 1 2-2 0l-1-3-2-4-3-6 1 11-3-12 1 12-3-14v8l1 8-3-8 3 27c-2-3-1-2-1-8-1-4-3-19-5-21 1 5 3 14 2 16l-6-21 2 15-2-9-1-2 1 10-2-5 3 27c-2-3-1-3-2-8 0-3-2-18-4-20l2 15-4-20z" fill="#a2a1a6"/><path d="M466 344h-2v1l-3 3-1 1-1 1-1 2c-2 2-1 1-2 0-2 2-2 12-2 17-5 2-12 7-16 11-7 5-7 7-10 15 1 3 5 5 10 5l11-4s1-2-3-1c-1 0-5 4-8 3l-10-4 3-6 1-2c4-5 16-12 22-15l3 5c-8 2-14 7-20 9l-2 1 25-8-6 23c0 2 3 0 0 7 2-1 2 0 2-6l2 2h1v-4l-4 1 5-6c2-3 8-13 10-14l7-2-3 20c1-2 2-17 5-19 2-2 10-5 14-11s-2-15 7-28l6-6-1-1-8 8-1 1c-1 2 0 3-2 4l1-7-3 4v-5l-2 7-1 2 3-10c1-4 0-2-1-2l-5 19 3-16-4 7 2-10c-3 3-1 3-3 6l-1-5h-1l-3 3 1-6-3 6c-1 3 0 5-2 8l2-10-3 4 1-6-2 5v-9l-1 2-1 1a76 76 0 00-2 3c-3 5-3 2-3 6z" class="S"/><path d="M538 292l-6-1 4-7-3-9c-4-21-4-28-9-50-2-7-5-12-5-19l1 2 1 3 1 3-7-35-5-18c-2-8-4-8-1-15l1-2 17 63 2 6 7 29 3 14v-4l-4-13-3-18c-1-7-1-3-2-6l-7-28-1-1v-2l-1-3-2-6c-2-11-5-23-10-34l3 2c0 1 2 11 3 10 0-4-2-13-6-13l-2 8-4-21 9 8c6 5 5 3 11 3 1 4 3 9 6 12l-3-8-2-9h-1l-1 1c-1 2 0 2-3 1l-5-2a44 44 0 01-1-1l-1-1-3-6c-2-3-1-5-4-6l3 9c1 1 0-3 1 2-3-1-1 0-2-2l-8-11 2 6v6l-5-1v5l-5-1-1 4c-1 6 0 10 2 16 9 31 19 33 33 91l8 41-2 2c-1 3-1 3 1 7 4 1 5 1 6-1z" class="N"/><path d="M392 397l2 7 2 5 2 7 6 13-5-8c5 15 4 16 10 22l1 1 2 1 1 2-11-7-7-11-1-1-1-1c-1-3-1-10-4-16l8 26-3-4c-2-2-3-1-4-4l3 2c-5-12-3-6-6-11l-2-5c-2-4-4-2-4-4h-1c-2-1-2-2-5-1 4 4 3 4 9 7v1l1 3h-2l1 6 2 4 6 7a32 32 0 006 4l1-2 2 2 2 3 12 7c5 3 7 5 13 7l-1-1 6 2c5 2 18 5 21 8l-21-7 1 1c5 5 23 13 32 9l10 3h7c10 2 22 1 31-1l7-4h2l1-2c-3-3-8 2-15 4l-19 1-18-3h14c-6-4-24-1-28-1l-4-1 19-1-3-3c-4 0-3 1-7 2-5 2-9 2-14-1-8-5-3-3-13-6l11 3c5 1 9 2 13 0-2-2 0-2-4-3h-11l-11-4c-2-2-3 0-7-5l-6-8-4-6-3-1-1-5c-3 4 0 5 2 10l-3-2-1-8-4-1v-4l-3-9c-3-5-1-4-1-7l-1-11h-2c-2 14 3 26 8 35l-6-13-2-7-3-8c-1-2-2-3-1-6-2-1-3-5-4-7l-1-1 1 7z" class="B"/><path d="M413 351l2 5 12 1-3 5h10c-2 4-11 7-14 8l1 2c1-2 4-2 7-3 6-3 14-13 15-16 2-6-1-13 3-18l14-4-1 4c2-2 2-2 2-6-2 0-2 1-2-1h-5v-1l-4 3-2-1v-1l1-4c-3 2-4 4-4 7l-4 7 8-19c-4 3-4 7-7 10l3-8-4 4c1-4 4-5 6-10l-6 5 6-9c-7 2-6 8-11 12l4-8c-2 0 0-2-4 5l3-9c-3 2-3 3-4 7v-3l-5 9 1-4 1-4-6 12 2-10-5 9-1-2-3 11-1 5-2 6c0-8 2-5 0-10-2 4-1 10-3 14z" class="S"/><path d="M284 353l-4 5-8 13-4 6-5 6c-3 3-3 4 0 6 11-3 5 0 12 1l5-2 11-1 3 4 6-2 17-10 13-19c4-3 7-1 11-6 5-7 10-4 15-11l9-1 5-1 4-1h6c7-3 6 3 11-3 3-3 10-18 13-23l3-5 1-2-2 12c-2 6 0 8 1 13s-1 9 1 14l5 9 2 1-2-5c-7-5-3-15-5-23-3-11 3-13 2-22l-5 2c-2 5-13 26-17 30l-5-1c-1 0-6 3-15 2l10-21c-4 5-3 6-6 13-3 4-5 9-10 10l8-18c-4 2-3 5-6 10-3 7-3 7-7 8l7-25h1v-5l-7 22c-2 7-7 16-13 16l8-26c-3 10-10 34-21 35l17-41c0-3 0-2-1-2-9 24-15 40-31 61-3 5-10 16-16 12l11-14c5-8 24-38 25-45l-3 4c-9 18-15 28-26 45-3 3-9 12-14 11 1-9 0-4 5-12 23-30 20-31 36-64 4-7 6-15 8-22 2-3 3-5 2-7l-11 30c-7 15-21 45-32 57l-10 11-6 8-5-4 8-9c9-11 26-40 31-52l11-24-26 49c-5 8-10 18-17 25-3 4-5 7-11 12-2 2-4 1-6 0l10-13c21-31 37-60 51-94 1-4 1-6 5-7l-2 13h1l-1-14-8 16c-12 29-16 36-32 62-4 8-21 38-32 38l5-10 16-25z" class="O"/><path d="M395 294c0 3-4 9-6 13-2 3-3 9-7 10 1-2 4-5 5-10l-3 4h-4v-1-3-1l-1-1h-3c-1 4-3 10-6 12v-1l-4 3-1-3h-1l-7 25c4-1 4-1 7-8 3-5 2-8 6-10l-8 18c5-1 7-6 10-10 3-7 2-8 6-13l-10 21c9 1 14-2 15-2l5 1c4-4 15-25 17-30l-2-1h-4v-2c-3 2-1 4-4 5 0-4 5-10 6-14v-1h-1l-1-2-2 3-1-1v-1h-1z" class="Z"/><path d="M581 357l-1 2h2l7-16-1-6 3-1c-1-10 2-11 2-18v-16l8 15c6 11 5 9 19 10 4 6 6 1 11 3 4 2 4-1 6 0l7 2c3 9 16 11 19 15 2 1 4 8 9 14l3 4 7 8 11 2c4 2 2 4 12-1 4 4 6 4 10 1 5 2 5 2 9-2l8 1c3-4-2-9-6-14l-10-13h-1l9 12c2 3 8 10 7 14l-11-3 1 4-9-3 1 4-9-5c-6-5-30-43-34-50l-6-8c5 8 32 52 37 57 2 2 2 1 2 4h-9l-6-8c-6-7-12-15-17-24-3-5-12-24-14-25l-8-14a1205 1205 0 0030 54l12 18c-7 2-12-5-14-9-7-10-4-4-10-16l-13-24-6-8 14 28c-6 1-4-3-9-6-6-3-5-3-8-8-8-1-8-3-14-12l4 9c-1 1 1 1-2 1-2 0-3-2-6-4l-1 3-10-10 2 7-10-7 3 6c-6-1-7-6-12-14-4-6-3-7-9-15v19c1 8 0 12-1 20h-2l-1 7-1 2c0 3 1 9-4 14z" class="O"/><path d="M519 307c0 10-4 21-3 31l4 20-2-15c2 2 4 17 4 20 1 5 0 5 2 8l-3-27 2 5-1-10 1 2 2 9-2-15 6 21c1-2-1-11-2-16 2 2 4 17 5 21 0 6-1 5 1 8l-3-27 3 8-1-8v-8l3 14-1-12 3 12-1-11 3 6-3-17-5-13-1-6-2-1-3 1 2 2-2 1c-3 0 1-2-1 1l-3 2c0-3 0-4-2-6z" fill="#fafbfb"/><path d="M543 104c-1 3 0 5-3 5v8l1 8-2-6c-1-6 0-3-2-4v13l-2-3v-8l-3-1-1 2c-2-2-3-4-2-9l1-2c-3 2 0 1-1 6l-1 1-1-2v-2 13l-2-3v-4l-2 1s0 1 0 0c-3-5-2-6-3-4l1 9c2 4 4 6 3 11l2 9 3 8 4 2 2-1c3-3 4-4 5-9h-1v-18l2 4v12c3-2 3-5 3-9 0-12 2-20 8-29-3 2-3 3-5 6l-3 5c0-7 2-12 3-18l-4 9z" fill="#e9961a"/><path d="M517 411l1 7c0 5-2 10-4 13 7-1 16-9 21-13 1-1-1-1 3-1 2 5-24 16-26 18h3l20-6-2 2-1 1c3-1 10-8 13-10l3-2c0-2 1-3 3-5 1 1 3-1 0 4l-2 5 2-4 1 1v-6h-3v-5l-1-2-1-3-1-2-1 5-1 1v-8l-2 5-1-6v11l-1 3v-14l-2 5c-2-4 0-2-1-1l-1 7-1-4-3 12 1-7c0-3 0 0-1-1l-2 4c0-4 1-4-5-7l-2 14c-1-4 3-11 0-17l-1 5c-1 6-1 4-2 5l2-15-2 8-2-1-1 4z" class="N"/><path d="M554 326c-1 1 1 3-3 0 0 1 2-1 0 0l-1 1c-2 1-2 0-2 2l3-2c5 1 10 11 10 17 0 5-1 5-2 9-1 3 4 18 15 15l9-3c-4-1-2 2-15-2 3-5 11-1 15-4h-3l1-2-1-7-7-20c-1 1-2-1-1 3l3 7v3l-3-7-3-8c-1 2 0 5 1 7l1 4v3c-1-6-3-13-7-18l6 26-5-13c-2-1-3-5-4-7l-2-3 6 22-2-6c-2-7-4-12-9-17z" class="S"/><path d="M535 151l-2 1 2 38 9 71c1 7 2 12 1 19-1 8-3 9-7 12 7 0 9-10 9-18l-3-26 10-45c4-22 13-72 23-86-9 5-17 43-20 57l-14 62-1-5c-3-22-9-61-7-80z" class="O"/><path d="M537 445h-1l-1 1c-5 3-16 5-22 5v1l-4 2 18-1-9 2-8 4c-1-1-11 3-12 5l-1 1c-4 2-19-1-27-5l-3-3-4-3c6 4 3 3 15 1l5-4-21 2c-2-2-1-1-4-1v2l3 2 6 5c2 1 2 0 3 2 4 1 21 8 32 3l6-3 20-9c1-1-2 0 1-1l-2-1c14-5 7-4 13-6-3 4-3 6-7 7-2 0 0-1-6 4l-2 2-3 3v1l-2 1-3 1 1 1h1l5-1 5-2c4-1 4-3 5-3 2 0 0 0 0-1l5-6c3-3 1-4 5-6l3-5 3-5c1-2 3-9 1-10l-8 15c-2 3 0 0-4 1l-2 2zm53-39l-1 2-2 2c-3 2-3 2-3 4 2 3 3 0 7-4l3-3-7 9c-3 3 1-2-8 1-5 2-2 2-5 4h6c-4 4-5 2-9 8l3-1 12-8c5-7 3-2 6-6l3-3 2-1 2-2-3 7-3 7c-1 3-2 5-4 6l-3 6-1 2-2 2c-2 2-3 3-2 6l2-1 3-3c1-4 1-2 2-2l3-1 7-4c4-2 5-1 5-5-1-1 2-1-1-1l-2 1-2 1-3 1-2 1-3 3-2 2 3-5 1-2 4-8 5-15h-1c2-2 0-2 4-4l-2 5c2-3 3-5 6-6 5-3 10-5 9-8-7 2-3 1-8 4l-4 3 4-5c2-4 5-6 5-11-3 0-3 0-3 2l-2 3-1 1 1-12c-5 1-3 3-4 8v8l1-1v-1l2-1-3 5a44 44 0 01-2 2l-2 2 2-8c-3 4 0 2-6 7-3 3-3 5-7 7z" class="B"/><path d="M514 431c-4 3-21 6-26 6h-5l-3-1-6 1c-2 2-1-1-1 2h7l27-3c1 1 2 2 8 3 5 1 6 1 11-1l10-4-12 7-7 3-6 3-27 5c4 4 17 3 22 2l7-3 1-1c2-3 9-6 12-7 5-2 7-4 10-7l3-2c2 0 1 0 1-1l-2-1 7-8v-2c-3 2-10 9-13 9l-5 2-3 2h-12c2-2 28-13 26-18-4 0-2 0-3 1-5 4-14 12-21 13z" class="K"/><path d="M497 135l-6-1c-1 9 0 9 3 17 5 13 15 29 22 42-1-11-5-24-8-33-4-13-4-10-6-23-2-5-1-4-4-7l-1 5z" fill="#f99d31"/><path d="M391 376v4l-4-6-3 3 4-1 1 2c-2 1-2-1-4 2l-1-2-4 1v9l-1 2 2-2v4l-5 5h3c0-2-1-2 2-3l1 4 2 14-4-6 1 3c0 3 1 1-1 2h1c0 2 2 0 4 4l2 5c3 5 1-1 6 11l-3-2 3 4 4 4-8-26c3 6 3 13 4 16l1 1 1 1-2-7 2 2-4-10c-1-2-2-8-1-11v-1c-2 4-2 10-2 14l-1-12 3-10 1 5 1-2-1-7 1 1c1 2 2 6 4 7l-1-4v2l-2-8v-7l-1-4c3 1 2 1 2 4l2-1c-1-1-1 1-1-2l-1-3c3 1 3 2 4 4h1l-2-3v-2l-1-1v2l-4 1h-1z" class="P"/><path d="M459 400v4h-1l-2-2c0 6 0 5-2 6l-1-2-1 2v5l-1 2h1l-2 5-3-1c0 3-2 7-1 11 0 3 2 8 1 10l5 4c-4-3-4-2-4-9l3 3c3 1 1 0 1-3l-1-4-3-4 4-1-5-1v-3l1-2 6 2 1 4v-3c5 0 4 1 6 5 0-3 0-1 1-2l6 4 1-1a30 30 0 01-2-14l1-2c-1-2 0-3 1-5l-1-4-1 5c0-10 1-8-2-13-3 8-1 9-2 16l-1-13-3 1z" class="D"/><path d="M402 397l1 11c0 3-2 2 1 7v-5l6 5 1 1 1 2-1-3c5 0 4 2 8 4l8 4h-6l1 2 2 2-3-1c0 3-1 1-3 1l18 4c1-3-3-6-4-9-1-4-3-7-3-11l-1 2v1l-1 1-11-2v-11l-3-1c2-5 2-4 0-5l-1-1-5 10v-7l-1-8h-1v5c-2 0-1 1-3 2z" class="P"/><path d="M410 368l3 1 7 1c3-1 12-4 14-8h-10l3-5-12-1-2-1-21 1 16 3c6 0 4 0 5 1-5 1-9 2-10 5 2 2 3 3 7 3z" fill="#fdfdfd"/><path d="M555 417l-1 5-2-1 1 3h-4l-1 1-1 2-2 3c3 0 5 0 6-3 2 1 0 8-1 10h1l1-5 1-5 4-10c2 4-2 15-3 20 2 2 5 1 8 2 8-4 7-2 18-8l-1 3 4-3-3 4c4 0 5-2 8-4 0-2 1-1-1-2l-15 3-16 1 1-3 10-1v-1h-3c2-2 7-7 7-9l-7 1h5c-5 4-3 3-11 4l1-5-2-3-2 1z" class="I"/><path d="M403 378c-2-1-1 1-2-1 1 3 1 3-2 4v-2h-1l-2 1-2 1 1 13 1 4c-1 3 0 4 1 6l3 8 2 7 6 13c-5-9-10-21-8-35h2l1-6 2-4v3h1l2-6-1-2-1-1 1-3h2v-2l-3 4h-4l1-2z" class="Q"/><path d="M477 429l-2-1h-1c-2 1-1 2-5 1l-1 1v1h-3l-3 2c-6-5-3-4-5-6l-2-1h-3l5 7 2 2v-1l2 1 20-3-4 1h4l3 2 2 1h1l1 1c5 0 22-3 26-6h-2c-5 2-3 2-8 0-3-1-5-3-8-2l-2 3-2-1-6-3-6-2 2 1c6 4 12 5 18 7-8 4-12-2-18-4-4-1 0 1-3 1s-2-1-2-2z" class="P"/><path d="M436 431c0 3 1 2 2 2l1 1 1 3c-6 2-17-1-20-3l-5-3 2 4c3 1 11 5 15 5 4 1 5 0 9-1 2 0 2 1 3 2 4 2 2 1 2 2l12 5-2-2-3-2c5 2 2 3 7 1-3-2-6-3-9-7l-3-3c0 7 0 6 4 9l-5-4c-3-1-3-2-4-5-3-3-6-9-7-13-3-2 0 2-2-1v-2c-2-2-2-5-3-8h-2c0 4 2 7 3 11 1 3 5 6 4 9z" class="B"/><path d="M537 98l-1 3-2-6-3 20-1-3-1-3c-1 5 0 7 2 9l1-2 3 1v8l2 3 1-13 1 4 2 6-1-8v-8l1-12 1-10-4 12-1-3v2z" fill="#f1b013"/><path d="M645 263l6 7c6 2 2-2 9 10l8 12 15 25 7 12 9 12 17 21-9-13-19-25-25-42-17-29c1 5 5 11 7 14v2l-1-1c-3-1-4-4-6-7l-6-9 5 11z" class="a"/><path d="M599 381l-1 1h2v13c-2-4-1-5-1-9l-1-1-3 6-2 6-1-3v1c0 5 0 7-2 11 4-2 4-4 7-7 6-5 2-3 6-7l-2 8 2-2 2-2 3-5-2 1v1l-1 1v-8c1-5-1-7 4-8l-1 12 1-1 2-3-2-2v-3l1-5c-3 1-8 5-11 5z" class="E"/><path d="M470 463l3 3-19 1 4 1c4 0 22-3 28 1h-14l18 3c3-3 11-1 14-5l-1-1c15-4 14-2 23-10l2-1v-1l-20 9-6 3c-11 5-28-2-32-3z" class="b"/><path d="M459 400l3-1 1 13c1-7-1-8 2-16 3 5 2 3 2 13l1-5 1 4v3l10 3c5-5 6-23 7-29-2 1-1-2-1 3v4l-6 20-12-21c-1 1-1-1-2 2-2 6-4 4-6 7z" fill="#a2a2a4"/><path d="M469 439l-1 1-5 5h-2v1l-4 3c-7 4-10 4-20 5 4 3 5 2 10 2l7-1 4-3 7-6 2 2 5-1 2-1 1-1v-2l1-1 3-1c-1-1 2-1-3-1l-8 3 6-7v-2c-2 0-3 1-4 3l-1 1v1z" class="B"/><path d="M458 452c3 0 2-1 4 1l21-2-5 4c6-1 5 2 10 3 4 0 11 2 18-2 2-2 1-1 0-2-5 1-18 2-22-2l27-5-20 4c-5 0-16-1-19-4l-5 1-2-2-7 6z" class="Q"/><path d="M475 277c-5 0-6 2-11 0-14-5-19-42-28-51l12 35c2 5 7 13 10 15 5 5 11 6 17 1z" fill="#291d05"/><path d="M571 419c0 2-5 7-7 9h3l7-7 2-3v-1l2-1 1-1 5-6c2-4 4-6 4-10l-3-1c-2 2-7 13-11 16l-3 5z" class="K"/><path d="M573 443l-17 5c-2 0-6 3-8 5-2 0 0 0-1 1l-3 3c4-1 9-4 13-4 2-3 13-4 18-6 2 0 2-1 4-3v-3l-6 2z" class="B"/><path d="M432 440v1h-11l6 8c4 5 5 3 7 5l1-1h8l-11-4-7-4h9c4-2 9-1 13-1l-1-1c0-1 2 0-2-2-1-1-1-2-3-2-4 1-5 2-9 1z" class="I"/><path d="M645 263h-4c-5-4-23-50-23-50l-1-2v3l1 3c5 14 8 19 14 32l4 12v1h-4c-4-4-6-13-9-19l-9-18 12 30c-4 0-4-1-7-8l-5-10v1l-2 2c-4-4-8-19-10-26-1 2 0 4 1 7l9 21h3l4 9 25 14 1-2z" class="D"/><path d="M451 438c3 4 6 5 9 7-5 2-2 1-7-1l3 2 2 2-12-5 1 1 3 2c-6 3-10 0-16-1l5 2c11 2 11-2 15 2h1v1l-11 1-12-2 11 4h-8l-1 1 11 4 2-2c-5 0-6 1-10-2 10-1 13-1 20-5l4-3c-4-4-6-12-10-15l1 4c0 3 2 4-1 3z" class="b"/><path d="M562 439l-9 5v4l20-10c3-1 4-2 5-4-1 2-5 6-5 8 4-1 3-1 5-3 0-3 0-1 2-4l3-4-4 3 1-3c-11 6-10 4-18 8z" class="C"/><path d="M581 377l7 8c1 1 4 6 4 10v-1l3-9h3v-3l1-1-3-3-3 1-3-2-7-1h-1l-1 1z" class="F"/><path d="M515 439c-2 0-1 0-1 1h8c-4 3-9 4-13 5-4 0-12 0-15-2-2 2-1 2-5 1l-4-1-6-2-3 1-1 1v2c3-1 8 3 17 2l20-2c-3 1 0 0-1 2l6-3 7-3 12-7-10 4c-5 2-6 2-11 1z" class="I"/><path d="M472 447c3 3 14 4 19 4l20-4c1-2-2-1 1-2l-20 2c-9 1-14-3-17-2l-1 1-2 1z" class="H"/><path d="M513 451c6 0 17-2 22-5l1-1h1l1-4c-4 2-4 2-8 1l10-8c-2 0-1-1-4 2s-5 5-10 7c-3 1-10 4-12 7l-1 1zm44 2c-1 0-19 10-21 9l-5 3 22-6c-2 4-3 1-4 5l6-3h-1c7-7 7-10 18-12l-1 1-1 1c3-1 4-2 5-4-5 2-16 3-18 6z" class="I"/><path d="M494 443c3 2 11 2 15 2 4-1 9-2 13-5h-8c-12 4-15-1-30-1 3 3 6 4 10 4z" class="C"/><path d="M480 439v1c0 2 0 2-1 1l6 2 4 1c4 1 3 1 5-1-4 0-7-1-10-4 15 0 18 5 30 1 0-1-1-1 1-1-6-1-7-2-8-3l-27 3z" class="D"/><path d="M530 307l14 28v2l2-4 2-4-1-2c-3 3 1 1-3 2l-3-8-9-16c-1-3 1-2-2-2h-3l3 4z" fill="#e59b4e"/><path d="M553 448l-5 2-14 9c0 1 2 1 0 1-1 0-1 2-5 3l-5 4-1 2h-2l-2 1-1 2c4 0 5-1 8-3l1-1 1-2 3-1 5-3 2-2 3-2 6-4c0-1-1-1 1-1 2-2 6-5 8-5 4-2-1 2 1-1l-4 1z" class="H"/><path d="M477 138c1-13 4-37 11-48 5-8 14-11 24-10l-3-1c-8-1-12 1-18 5-4 2-7 8-9 14-2 8-7 33-5 40z" class="O"/><path d="M506 454c1 1 2 0 0 2-7 4-14 2-18 2 6 6 17 1 23-1-2 1 0 0-1 2l8-4 9-2-18 1 4-2v-1l-7 3z" class="I"/><path d="M531 465l-3 1-1 2-1 1v1h3l10-2 10-4c1-4 2-1 4-5l-22 6z" class="B"/><path d="M586 420v3l-2 4 6-1-2 3 1-1c2-1 3-3 4-6l3-7 3-8-2 2-2 2-3 3c-3 4-1-1-6 6z" class="I"/><path d="M548 420l-1 2-2 2c0 3-3 6-5 9 0 1 1 1-1 1l-9 8c4 1 4 1 8-1 3-2 5-7 7-11l2-3 1-2 1-1 2-5c3-5 1-3 0-4-2 2-3 3-3 5zm36 7l-10 1-3 1h-4l-10 1-1 3 16-1 15-3h1l2-3-6 1z" class="H"/><path d="M505 334l1 1 2-3c3-6 5-15 5-21 1-6 1-7 3-9 2 4-5 25-3 34h1c-1-8 1-22 3-28l-3 28c1 3 1 1 2 2-1-10 3-21 3-31l-1-5c-8 0-3 12-9 24l-4 8z" fill="#554b34"/><path d="M478 308l-2 3-2 2-1 2-2 2-1 2-2 1-5 6-1 2-1 1c0 4 0 4-2 6v5c4-2 3-2 6-5l-3-1c8-14 7-11 15-21 3-4 5-2 4-6h-2l-1 1z" fill="#fdfdfa"/><path d="M608 408l-1 1-3 2c-5 2-4 1-6 5l2 2-4 3v2l5-2c2-1 5-3 5-5l2-5 3-2 1-2 1-2-2 1-3 2z" class="B"/><path d="M551 437l-2 8-1 4 3-1 2-5 1-6c1-5 5-16 3-20l-4 10-1 5-1 5z" class="C"/><path d="M432 449l12 2 11-1v-1h-1c-4-4-4 0-15-2l-5-2h-9l7 4z" class="B"/><path d="M512 131l1 1 1 1 5 2c3 1 2 1 3-1l-2-1 2-1c1-1 0-3-1-4l-7-3 1-2-2 2-3 1c2 4 2 1 2 5z" fill="#b6b6b9"/><path d="M541 321l3 8c4-1 0 1 3-2 0-5-3-22-5-26l-2-2c3-1 3 0 4 2l3 12 4 13c4 3 2 1 3 0-5-6-8-20-10-28h-5c1 5-1 1 2 3 3 3 4 22 4 26l-2-3-2-3z" class="c"/><path d="M407 424h2c3 1 5 3 9 3 2 0 3 2 3-1-3-1-7-7-9-8l1 2c-4-2-5-4-9-5l3 9z" class="F"/><path d="M517 465c-5 2-7 2-13 2-3 4-11 2-14 5l19-1c7-2 12-7 15-4l5-4-5 2-5 1h-1l-1-1z" class="D"/><path d="M432 433h6c-1 0-2 1-2-2l-18-4c-4 0-6-2-9-3l-1 3 24 6z" class="H"/><path d="M398 421l1 5-2-1-2-1 3 3 2 3c2 3 0 2-1 2l2 1 1 5v2l11 7-1-2-2-1-1-1c-6-6-5-7-10-22l5 8-6-13v5z" class="E"/><path d="M536 326l4 17 3-6h1v-2h-2l-5-11-2-6-4-5 5 13z" class="d"/><path d="M476 427l1 2c0 1-1 2 2 2s-1-2 3-1c6 2 10 8 18 4-6-2-13-3-18-7l-2-1c-4-1-1-2-5-2l1 3z" class="H"/><path d="M523 187l-5-26c-1-4-1-6-3-8-1 1-3-9-4-10l-2-2c5 11 8 23 10 34l2 6 1 3v2l1 1z" class="d"/><path d="M604 374c-3 3-4 4-8 4l3 3c3 0 8-4 11-5l6-2 1-4-2 1-11 3z" class="C"/><path d="M666 305c5 7 5 10 14 21-1-4-12-19-16-27l-15-27c-1 1-1-1-1 2 3 2 7 11 9 15l9 16z" class="F"/><path d="M466 334l-1 1c-3 3-2 3-6 5v-5l-1 3 1 7 2-4 8-8 5-7 4-4 1-1 4-6 1-1-2-1-1 1c0 3-2 5-6 8l-1 3-8 9z" class="d"/><path d="M478 455l-1 1 2 1 4 2 3 1 2 1c4 2 6 4 10 3 1-2 11-6 12-5 1-2-1-1 1-2-6 2-17 7-23 1-5-1-4-4-10-3z" class="H"/><path d="M596 421l4-3-2-2c2-4 1-3 6-5l3-2 1-1v-7c-3 1-4 3-6 6l2-5c-4 2-2 2-4 4a2 2 0 001 0l-5 15zm-142 34l2 1 2 1-2 1c4 1 2 0 4 3l2 2 1 1v1c4-1 3-2 7-2-1-2-1-1-3-2l-6-5-3-2v-2l-4 3z" class="I"/><path d="M545 430c-2 4-4 9-7 11a10 10 0 01-1 4l2-2c4-1 2 2 4-1l8-15c-1 3-3 3-6 3zm166-60c-1-4-11-18-14-21l-10-15-5-5 7 11 5 7 2 3 11 15 4 5z" class="F"/><path d="M488 461l-2-1-3-1-4-2h-5c2 4 2 5 7 6 2 1 8 2 11 1-5-2-5-1-4-3z" class="K"/><path d="M463 465v-1l-1-1-2-2c-4 2-8 1-13 0l-11-3c10 3 5 1 13 6 5 3 9 3 14 1z" class="D"/><path d="M458 338c-1 7 1 6-2 14 1 1 0 2 2 0l1-2-1-1 4-5 2-3 3-3 7-10 2-1 3-6-1 1-4 4-5 7-8 8-2 4-1-7z" class="e"/><path d="M451 415l1-2v-5l1-2c-2-11 1-10-2-14-2 4-1 2-1 5v5l1 5v1h-4l1 2-2 1 5 4z" fill="#cbcbcd"/><path d="M567 190l3-18 5-17 3 9c1-1-1-7-2-10s-1-2 1-9c-3 1-11 41-11 44l1 1z" class="T"/><path d="M389 383c0 7-8 23-3 32 0-16 0-12 4-26l3-8h-2l-2 2z" class="B"/><path d="M528 454v1l-2 1c-9 8-8 6-23 10l1 1c6 0 8 0 13-2l3-2 2-1 3-3 2-2c6-5 4-4 6-4h-1l-4 1z" class="V"/><path d="M553 448l4-1c-2 3 3-1-1 1l17-5h-1v-1h1c0-2 4-6 5-8-1 2-2 3-5 4l-20 10z" class="D"/><path d="M498 464c-4 1-6-1-10-3-1 2-1 1 4 3-3 1-9 0-11-1-5-1-5-2-7-6h5l-2-1 1-1c-12 2-9 3-15-1l4 3 3 3c8 4 23 7 27 5l1-1z" class="E"/><path d="M542 301c2 4 5 21 5 26l1 2c0-2 0-1 2-2l1-1c2-1 0 1 0 0l-4-13-3-12h-2z" fill="#fdfdfa"/><path d="M549 445l-5 2-5 5-5 7 14-9 5-2v-5l-2 5-3 1 1-4z" class="b"/><path d="M469 429c4 1 3 0 5-1h1l-1-2h-1l-3 1 2-2-2-3v-1l-1-1h3l-2-2 1-3h-3v-2l-1 2v2c-1 4 0 7 2 12z" class="f"/><path d="M451 431c4 2 6 11 10 15v-1c1-4-2-6-2-10l-2-2-5-7-4 1 3 4z" class="H"/><path d="M412 418c2 1 6 7 9 8l3 1-2-2-1-2h6l-8-4c-4-2-3-4-8-4l1 3z" class="B"/><path d="M520 113c1-2 0-1 3 4h1l1-1v4l2 3v-13l-1-5v9c-2-4 0-3-3-6v8l-3-8h-2v3l2 2z" fill="#fcd14b"/><path d="M424 417l-8-4-5-2c0 5 1 2 4 4l5 4 12 5c-2-6-5-3-8-7z" class="C"/><path d="M395 424l2 1 2 1-1-5-4-7-2-4-2-7c-1 3 0 9 1 11l4 10z" class="B"/><path d="M417 435l-2-4 5 3-3-3 13 3c1-1-1-1 2-1l-24-6 1-3h-2v4l4 1 1 8 3 2c-2-5-5-6-2-10l1 5 3 1z" class="P"/><path d="M459 350l2-3 3-2v-1h2c0-4 0-1 3-6l2-3 1-1 1-2 3-5-2 1-7 10-3 3-2 3-4 5 1 1z" class="g"/><path d="M439 422l2 7 1 6c3-1 1-7 0-9l-1-11-2-1-1-1 1 9z" class="C"/><path d="M531 313l4 5 2 6 5 11h2l-14-28 1 6z" fill="#291d05"/><path d="M464 333c1 1-1 1 2 1l8-9 1-3c4-3 6-5 6-8-4 1-1 2-4 5-2 2-1-1-5 4l-4 5-2 2-1 1-1 1v1z" fill="#b19b8d"/><path d="M353 277l1-5-3 7-5-2 1 3c4 3 2-1 6-1l5-6 7-2 5-10v-4c-5 7-4 11-6 12l-6 3c-3 3 0 4-5 5z" class="Q"/><path d="M447 440c1-2-1-7-1-10-1-4 1-8 1-11 1-2 1-2-1-1l-1 1-1 12c0 8 1 7 3 9z" class="H"/><path d="M555 461l16-10v-1l1-1c-11 2-11 5-18 12h1z" class="C"/><path d="M443 435c1 3 1 4 4 5-2-2-3-1-3-9l1-12 1-1v-1l-3 1-2-3 1 11c1 2 3 8 1 9z" class="E"/><path d="M412 372l-3 4v2c2 1 1 1 2-1l1-3 3 2 6-4-1-2-7-1c0 1 1 3-1 3z" fill="#014279"/><path d="M379 390c-3 0-5 3-7 5v4l4-2 5-5v-4l-2 2z" class="B"/><path d="M355 223l2-3 5-11 4-17c-2 1-2 4-3 7l-3 9c-1 3-6 13-5 15z" class="a"/><path d="M408 371c0 2-4 5-5 7l-1 2h4l3-4 3-4v-3l-2 1-2 1z" class="C"/><path d="M540 142l1-2v-12l-2-4v18h1z" fill="#f1b013"/><path d="M552 102c-6 9-8 17-8 29 2-7 2-13 6-24l4-7v-1l-2 3z" class="O"/><path d="M542 87l-1 10-1 12c3 0 2-2 3-5l-1-2 3-20-3 5z" class="U"/><path d="M432 433c-3 0-1 0-2 1l3 2 1 1c0-1 0 0 0 0-12-2-9-3-14-3 3 2 14 5 20 3l-1-3-1-1h-6z" class="L"/><path d="M547 454l-6 4-3 2-2 2c2 1 20-9 21-9-4 0-9 3-13 4l3-3z" class="D"/><path d="M379 397l1 9 4 6-2-14-1-4c-3 1-2 1-2 3z" class="C"/><path d="M549 410v5h3v6l2 1 1-5c-1-1 2-1-2-1l2-2-3-2 4-1-5-1v2l-2-2z" class="f"/><path d="M514 336l3-28c-2 6-4 20-3 28z" class="g"/><path d="M602 302v-1l-1-2-4-11-8-15c0 3 11 27 13 29z" class="J"/><path d="M512 431h2c2-3 4-8 4-13-3 1-1 0-2 2l-1-1c0 2 0 1-2 2v4l2 2-4 1c3 2 2 0 3 2h-2v1z" fill="#d3d3d5"/><path d="M401 296c-1 4-6 10-6 14 3-1 1-3 4-5 0-3 9-17 10-22-3 1-5 11-8 13z" class="J"/><path d="M421 441h11v-1c-4 0-12-4-15-5l4 6z" class="F"/><path d="M645 329c-2-6-13-25-17-32l15 30 2 2z" class="D"/><path d="M581 333c1-3-3-9-4-12l-5-12c0 1-2-2 1 6 1 3 6 17 8 18z" fill="#a2a1a6"/><path d="M452 426h3l-1-4-6-2-1 2v3l5 1z" class="B"/><path d="M564 420l-5-1-1 5c8-1 6 0 11-4h-5z" class="K"/><path d="M474 434v3l6-1 3 1h5l-1-1h-1l-2-1-3-2h-6l-1 1z" class="W"/><path d="M379 143c3-2 3-5 5-7l11-1c-2-2-2-2-5-2-7 0-10 3-11 10z" class="a"/><path d="M639 248l-12-27v1c0 2 10 25 12 26z" class="L"/><path d="M397 404l2 2c1-9 2-12-1-18l-1 16z" class="B"/><path d="M387 307c-1 5-4 8-5 10 4-1 5-7 7-10 2-4 6-10 6-13l-4 7-4 6z" class="J"/><path d="M515 123l-1 2 7 3c1 1 2 3 1 4l-2 1 2 1 1-1c1-4 0-5-2-8s-3-2-6-2z" fill="#f3f3f4"/><path d="M455 426l2 1c2 2-1 1 5 6l3-2-4-3c-2-4-1-5-6-5v3z" class="C"/><path d="M434 445c6 1 10 4 16 1l-3-2c-4 0-9-1-13 1z" class="H"/><path d="M413 396l-2 1-4 15 3 3c-1-18 5-14 3-19z" class="B"/><path d="M539 343l2 4 1 3c3 2 1 1 2 0-2-5-4-6-1-13l-3 6-4-17 3 17z" class="e"/><path d="M567 428v1h4c4-6 5-4 9-8h-6l-7 7z" class="F"/><path d="M387 374l4 6v-4c-1-3-5-7-10-7 1 3 0 1 3 3a23 23 0 013 2z" class="B"/><path d="M528 454l4-1h1c4-1 4-3 7-7-6 2 1 1-13 6l2 1c-3 1 0 0-1 1z" class="X"/><path d="M547 95c-1 6-3 11-3 18l3-5c-1-6 2-13 3-18l-3 5z" class="U"/><path d="M592 291l-6-12-5-12c-1 2 5 15 7 19 3 6 1 5 4 5z" class="J"/><path d="M583 376c5-1 7-2 10 1h-3l3 2v-3l4 1-1 1c4 0 5-1 8-4l-2 1-1-1v1h-2v1l-9-2 1-1-4 1-2 1-2 1z" class="E"/><path d="M396 373l1 1v2l2 3v2c3-1 3-1 2-4-4-7-1-7-5-8v4z" class="C"/><path d="M420 434c5 0 2 1 14 3 0 0 0-1 0 0l-1-1-3-2-13-3 3 3zm172-40l1 3 2-6 3-6h-3l-3 9z" class="B"/><path d="M515 435h9l3-2 5-1 1-1 2-2-20 6z" class="V"/><path d="M429 411h2c1 3 1 6 3 8l1-2c3 1 3 1 3 5h1l-1-9 1 1 2 1-4-3v5l-7-7c-3 1 0 0-1 1z" class="X"/><path d="M428 459c1 2 4 3 6 3l-1-1 21 7c-3-3-16-6-21-8l-6-2 1 1z" class="P"/><path d="M605 147c1-1 1 1 1-1l-1-2-3-10-2-2-1-2c-2-5-3-4-13-5h3c8 0 9 6 10 7 1 3 2 2 3 7l3 8z" class="N"/><path d="M393 381v7l2 8v-2l-1-13c0-3 1-3-2-4l1 4z" class="B"/><path d="M592 429c0 3 0 1 1 1h2l1-1c4-2 2-1 4-4l1-1h-1c0-2 1-1-1-2-9 6-2 3-7 7z" class="C"/><path d="M394 414l4 7v-5l-2-7-2 5z" class="F"/><path d="M478 308l1-1h2c1 4-1 2-4 6-8 10-7 7-15 21l3 1 1-1c-3 0-1 0-2-1l-1-2 15-18c2-3 2-1 4-3v-4c-3 0-3 1-4 2z" class="U"/><path d="M390 402l1-3-1-5-3 10 1 12c0-4 0-10 2-14zm14 13c4 1 5 3 9 5l-1-2-1-2-1-1-6-5v5z" class="H"/><path d="M381 254c-1 0-2 1-3-1l-1-4v5l11-13-1 2c-1 1-2 7-6 11z" class="F"/><path d="M337 329v-1l3-7 10-26c-2 1-13 31-13 34z" class="U"/><path d="M459 435v1l2 3 2 5 3-5-5-4-2-1v1z" class="C"/><path d="M574 428l10-1 2-4v-2-1l-12 8zm-21 15v1l9-5c-2-1-6 0-8-2l-1 6z" class="F"/><path d="M391 399l-1 3v1l2 7 1-3 1-3-2-7-1 2z" class="W"/><path d="M392 438l-6-7-2-4v2l-3 2c2 4 2 2 6 3l5 4z" class="h"/><path d="M411 410l3 1 1-9c-4 1-4 3-4 8z" class="C"/><path d="M467 368l2-14c1-3 1-2-1-6 0 5-3 16-1 20z" class="i"/><path d="M580 435c-2 3-2 1-2 4h2l3-1 2-2 1-2 3-6-1 1-1-1c2 2 1 1 1 3-3 2-4 4-8 4z" class="D"/><path d="M447 456l-2 2h11l2-1-2-1-2-1-7 1z" class="W"/><path d="M443 435c-1-2-2-2-2-6l-2-7h-3c1 4 4 10 7 13z" class="D"/><path d="M538 368l1-1c1-4-1-11-3-18v4l2 15z" fill="#eff1f4"/><path d="M395 429l4 3c1 0 3 1 1-2l-2-3-3-3-2-2 2 7z" class="V"/><path d="M422 349l3-14v-4c-1 5-5 14-3 18z" fill="#eff1f4"/><path d="M409 378c0 2 0 4-2 4l1 2 5-6 2-2-3-2-1 3c-1 2 0 2-2 1z" fill="#bb8236"/><path d="M578 439c-2 2-1 2-5 3h-1v1h1l6-2v3h3l1-1-2 1c-1-3 0-4 2-6l-3 1h-2z" class="M"/><path d="M584 414c-1 1-4 3-6 2l-2 1v1l-2 3c3-2 0-2 5-4 9-3 5 2 8-1l7-9-3 3c-4 4-5 7-7 4z" class="E"/><path d="M341 270l2-2 1-2 5-15c-3 3-7 15-8 19z" class="D"/><path d="M450 341v-3h4l1-3 1-3c-4 1-8 5-6 9z" class="c"/><path d="M593 422l3-11-7 14 3-2 1-1z" fill="#fcc05a"/><path d="M398 160l1-2v-8h-1l-1-5c-1 2 0 12 1 15z" class="R"/><path d="M392 410l2 4 2-5-2-5-1 3-1 3z" class="I"/><path d="M555 335l-3-4-1 6 4 1 1 4c1-2 0-5-1-7z" class="U"/><path d="M544 447l5-2c0-2 2-5 1-8l-3 5-3 5zm-142-7v-2l-1-5-2-1-4-3 7 11z" class="W"/><path d="M376 337c3-1 6-11 7-14-2 1-7 14-7 14z" class="D"/><path d="M591 373l-1 1 9 2v-1l-4-2-1-1-3 1z" class="K"/><path d="M389 167l1-1 1-2h-3l-1-8c-2 3-1 2 0 8 1 3 0 2 2 3z" class="Y"/><path d="M619 188l-3-9c-1-2-2-7-4-8l6 16 1 1z" class="G"/><path d="M630 314l-8-19c0 3 5 17 8 19z" class="F"/><path d="M402 397c2-1 1-2 3-2v-5-3l-2 4-1 6z" class="K"/><path d="M446 417v1c2-1 2-1 1 1l3 1 2-5-2-1-4 3z" class="f"/><path d="M466 439l2 1 1-1-1-2-1-1-3-1h-3l5 4z" class="F"/><path d="M461 445h2l5-5-2-1-3 5-2-5-2-3v-1c0 4 3 6 2 10z" class="P"/><path d="M384 335c2-1 3-4 4-7l2-7-5 10-1 4z" class="N"/><path d="M602 289l-1-9-2 2-4-7 7 14z" fill="#b6762a"/><path d="M464 435l3 1 1 1 1 2v-1l1-1c1-2 2-3 4-3l1-1-11 2z" class="I"/><path d="M479 441c1 1 1 1 1-1v-1h-7c0-3-1 0 1-2v-1l-6 7 8-3c5 0 2 0 3 1z" class="M"/><path d="M520 131c1-3-1-5-4-5-1 3 0 5 4 5z" fill="#241a01"/><path d="M424 417l6 3-1-4-7-1 2 2z" class="C"/><path d="M470 448l-4 1 1 4h4z" fill="#ab650d"/><path d="M598 385l1 1c0 4-1 5 1 9v-13h-2v3zm-137 43l4 3h3v-1l-6-4c-1 1-1-1-1 2z" class="C"/><path d="M415 444l2 2 9 6-2-2-6-7c-1 2-3 1-3 1z" class="E"/><path d="M515 123c3 0 4-1 6 2s3 4 2 8h1c1-5-1-7-3-11l-3-1-2 1-1 1z" fill="#a2a2a4"/><path d="M395 180l2-2 3 1c-1-2 1-2-4-3h-1v-6l-1 7 1 3z" fill="#9a6846"/><path d="M527 112l1 2s0-1 0 0l1-1c1-5-2-4 1-6l-2-7-1 12z" fill="#fbd66d"/><path d="M373 196l-3-2c0 8 6 3 5-3l-1-1-1 6z" class="L"/><path d="M619 314c-1-5-3-10-6-13l6 13zm-249 2v1c3-2 5-8 6-12-2 1-5 9-6 11z" class="X"/><path d="M415 212c2-3 1-5-1-10s0 1 0 1v4c0 3-1 2 1 5z" class="N"/><path d="M351 264c2-1 5-11 4-13l-4 13z" class="G"/><path d="M512 351v-5-7c-1 3-2 9 0 12z" fill="#463a25"/><path d="M536 101l1-3-2-7-1 4z" fill="#fbcd94"/><path d="M611 168c1-5-2-8-3-12v-1l3 13z" class="G"/><path d="M602 391c2-2 2-4 2-7h-3l1 7z" class="B"/><path d="M434 419v2c2 3-1-1 2 1h2c0-4 0-4-3-5l-1 2z" fill="#f0af4f"/><path d="M382 183l-3 1-2-2c-2 5 3 7 5 1z" class="D"/><path d="M583 376l7 1h3c-3-3-5-2-10-1z" class="C"/><path d="M583 151l-2-15c-1 1-1-1-1 4l1 4c0 2 0 5 2 7z" class="G"/><path d="M355 317l6-9c-2 1-1 1-2 3l-2 3c-1-2-1 2-1-2l2-8c-2 3-5 10-3 13z" class="D"/><path d="M423 232l-2-9-2-2c1 3 1 9 4 11z" class="L"/><path d="M377 294l2-2 4-6c-4 0-3 2-6 8z" class="J"/><path d="M593 402l1-1 3-3-2-2-2 6z" class="C"/><path d="M601 205l1-3-3-10c-1 2-1-2 1 5l1 8z" class="G"/><path d="M540 433c2-3 5-6 5-9l-7 8 2 1z" class="E"/><path d="M425 251c2-3-1-9-2-12l1 9 1 3z" class="Q"/><path d="M571 198l-3 2-2-6c0 10 5 11 5 4z" class="D"/><path d="M461 435h3l11-2h2l4-1-20 3z" class="V"/><path d="M403 188l2-3h-3l-1-5v5c0 3 0 2 2 3z" fill="#663a24"/><path d="M368 249l-2-2 7-2c-3 3-1 3-5 4z" class="D"/><path d="M628 214l1 4c1-1 3 2-1-5l-3-6v2l3 5z" class="R"/><path d="M592 429c5-4-2-1 7-7 2 1 1 0 1 2l1-2v-1l-5 2v-2l-4 8z" class="E"/><path d="M401 280c3-3 5-9 6-13l-6 13z" class="X"/><path d="M581 167c0 1 1 4 2-3l3 4-2-6c-2 1-1 1-2 3l-1 2z" class="R"/><path d="M576 178c0-1 1 1 1-4l-2 2-2-3c0 3 0 4 3 5z" class="G"/><path d="M607 283l3 2c-1-4 0-2-4-7-2 3 2 1 1 5z" class="J"/><path d="M365 304l6-7c-3 4 2 2-5 4l1-5c-2 1-2 5-2 8z" class="Q"/><path d="M384 378l1 2c2-3 2-1 4-2l-1-2-4 1v1z" class="B"/><path d="M432 327l-2 2v-1l2-1-1 4c3-2 4-6 3-10l-2 6z" class="i"/><path d="M386 292c3-2 4-6 6-10-2 1-2 3-3 5-2 2-4 3-3 5z" class="J"/><path d="M389 383l-2-4c-2 2-1 5 1 7l1-3z" class="B"/><path d="M590 166l-3-9c-1 0-2-1-1 2l1 3 1 2c1 3 0 1 2 2z" class="T"/><path d="M601 383h4v-3l-3 1c-2 1-1-1-1 2z" class="B"/><path d="M407 183c3-1 2-1 1-4l-1-5v9z" class="R"/><path d="M384 427l-1-6h2l-1-3-1 3-1 2c0 4 2 4 2 4z" class="Y"/><path d="M412 193c1-1 2 2 0-6h-2l2 6z" class="D"/><path d="M400 173c2-2 3-7 4-10l-2 2-2 8z" class="G"/><path d="M591 148v-9l-1 1v6c0 3 1 1 1 2z" fill="#8d5731"/><path d="M549 424h4l-1-3-1-1-2 4z" class="K"/><path d="M395 167c-2-4-1-2-1-5l-3-4c4 5-1 8 4 9z" fill="#8d5731"/><path d="M587 149v-8l-2-3 1 6 1 5z" class="L"/><path d="M396 380l2-1c-1-2-1-3-4-4l1 3c0 3 0 1 1 2z" class="C"/><path d="M558 237c2-1 2-2 0-7v7z" fill="#9a6846"/><path d="M492 431l2 1 2-3-1-1-3 3z" fill="#dfdee1"/><path d="M500 336c2-1 3-4 3-7-2 1-3 5-3 7z" class="S"/><path d="M455 317h1l6-8c-2 2-6 5-7 8z" fill="#a1a0a5"/><path d="M595 430h-2c-1 0-1 2-1-1l-1 2-3 5 2-2 3-3 2-1z" class="E"/><path d="M390 156l-1-12c-1 3-1 9 1 12z" class="G"/><path d="M418 335l1-2 1-6c-2 2-3 6-2 8z" fill="#a8a7ab"/><path d="M561 221c2-2 1-2 1-4l1-3c-3 0-2 4-2 7z" class="L"/><path d="M616 296c1 0 2 0 1-3l-3-3 2 6z" class="J"/><path d="M624 203c1-1 1 1 1-2l-1-2-2-4 2 8z" class="G"/><path d="M595 430l3-1 2-1 2-1h-2l1-3-1 1c-2 3 0 2-4 4l-1 1z" class="T"/><path d="M407 382c2 0 2-2 2-4h-2l-1 3 1 1z" class="B"/><path d="M581 377l1-1-5-2c1 3 1 3 4 3z" class="S"/><path d="M386 431h-5l6 2-1-2z" class="C"/><path d="M528 306l2 1-3-4h3-4l1 3h1z" class="c"/><path d="M595 373l4 2-1-2c4-1 2-1 3 1 0-3 2-1 0-3l-3 2h-3z" class="Y"/><path d="M538 257v5c3-1 1-2 0-5z" class="O"/><path d="M599 375h2v-1c-1-2 1-2-3-1l1 2z" class="B"/><path d="M653 337l-4-9c0 3 2 7 4 9z" class="G"/><path d="M542 301h2c-1-2-1-3-4-2l2 2z" class="g"/><path d="M593 379l3-1 1-1-4-1v3z" class="B"/><path d="M398 442l2 1 3 2-2-3-2-2-1 2z" class="M"/><path d="M463 326l5-6-3 3-1 1c-2 1-1 0-1 2z" fill="#463a25"/><path d="M408 371l2-1 2-1v3c2 0 1-2 1-3l-3-1-2 3z" class="R"/><path d="M615 371l2-1-1 4 2-1v-4l-2 1-1 1z" fill="#4e3330"/><path d="M476 427l-1-3c4 0 1 1 5 2-2-3-2-2-6-1l2 2z" fill="#975a26"/><path d="M459 328c0 2 0 1 2 1l1-1 1-2-4 2z" fill="#362b12"/><path d="M340 280l1-2-1-3v5z" class="N"/><path d="M545 422v2l2-2 1-2-3 2z" fill="#b6762a"/><path d="M382 195l1-3-1-3v6z" class="G"/><path d="M459 350l1-1 1-1 3-3-3 2-2 3z" fill="#785b46"/><path d="M449 317l2-2 1-1c-3 0-3 0-3 3z" fill="#aaaaad"/><path d="M586 440l5-3-3 1c-1 0-1-2-2 2z" class="h"/><path d="M483 315c3-1 1 0 2-2h-3 2l-1 2z" fill="#6c562e"/><path d="M572 193v-2c0-3 0-2-2-4l2 6z" class="L"/><path d="M474 313l2-2 2-3-4 5z" fill="#736952"/><path d="M415 444l-3-3-3-3 6 6zm102 21l3-1 2-1v-2l-2 2-3 2z" class="M"/><path d="M609 397v-2l-4 5 4-3z" class="e"/><path d="M581 164l-1-2-1-1c0 3 0 2 2 3z" class="Q"/><path d="M596 406l3-4-3 4z" class="E"/><path d="M471 317l2-2 1-2h-1l-2 4z" fill="#655a43"/><path d="M442 422c1 0 3 1 1-3l-1 3z" class="B"/><path d="M465 431l-4-3 4 3z" class="M"/><path d="M612 407c1-1 1 1 2-2-4 0-2 0-3 1l2-1-1 2z" class="E"/><path d="M508 128h-1c1 2-1 1 2 2-1-5 0-1-1-2z" fill="#b3886a"/><path d="M468 320l2-1 1-2-2 1-1 2z" fill="#554b34"/><path d="M620 192h1l-1-3-1-1 1 4z" class="T"/><path d="M466 344v2l1-4-1 2z" fill="#e8e7e8"/><path d="M450 329l1-2-1 2z" fill="#bbbbbd"/><path d="M390 429l-3-4 2 3 1 1z" class="M"/><path d="M553 335l1 1 1-1z" fill="#eae3da"/><path d="M526 411v-1c-1 1-2 0 0 1z" fill="#8c6e53"/><path d="M452 335c0 1-1 2 1 1l-1-1z" class="i"/><path d="M538 257v0z" fill="#a49b88"/><path d="M608 153c-1-3 0-1-2-2 1 2-1 1 2 2z" class="Y"/><path d="M606 416c1-1 1 1 1-2l1-3-2 5z" class="h"/><path d="M394 169l2-2c-4 2 1 0-2 2z" class="R"/><path d="M582 182l-1-2-3-6c5 5 0 5 4 8z" class="T"/><path d="M652 268l1 1v-2c0 2 0 1-1 1z" fill="#bb9579"/><path d="M408 432l3 4-1-2h-1l-1-2z" class="M"/><path d="M494 304l-3 5-4 3 1 3h3l2-4 1-7zm5 1l2 7 4 4-1 3-3-1-2-4v-9zm-4 10l-1 4-2 5v3l1 2c2 0 3-1 3-2v-2-3l-1-5v-2z" fill="#ff2a2a"/><path d="M751 458v-5l6-6 7-4 1-1-2-3c-5-7-6-10-8-16l-1-12-2-8-2-3-1 1-8 8-12 7a122 122 0 00-22 14l-11 12-1 4v1l14-5a283 283 0 0130-14l2 1-1 3" fill="url(#E)"/><path d="M252 429c0-2 1-3 3-2 4 0 16 4 26 9l15 6v-1l-8-8a85 85 0 00-34-18 77 77 0 01-13-9l-3 10c-1 6-1 9-3 13l-3 5c-3 2-4 5-6 8l-1 4 2 1 9 4 4 4" fill="url(#F)"/></svg>