<svg xmlns="http://www.w3.org/2000/svg" xmlns:xlink="http://www.w3.org/1999/xlink" width="1500" height="900" overflow="visible"><style>.B{stroke:#000}.C{fill:#e6a300}.D{fill:none}.E{stroke-width:.924}.F{stroke-miterlimit:10}.G{stroke-width:.588}.H{fill:#1f2c5c}</style><path d="M0 0h1500v900H0z" fill="#fff"/><path d="M658 240c-9 5-23 6-23-1-1-7 11-8 15-5l8 6" class="C"/><path d="M700 643c97-53 157-194 140-378H560c-17 184 43 325 140 378" class="H"/><path d="M613 281l7 22h24l-19 14 7 22-19-13-19 13 7-22-19-14h24l7-22" fill="#fff"/><path d="M887 512l1-1c2-5 1-2-1 1" fill="#31319c"/><path d="M896 349l-4 2-6 9c-1-6 2-13 6-20l3-6c8-15-3-20-3-20v1l-29 4c-20 21-11 60-3 109 6 39 8 46 2 71l-8-2s-10 3-13 15c-8 42-7 60-42 96-38 37-67 35-77 35s-6 14-6 14a136 136 0 01-32 0s4-14-6-14-49-3-76-36c-27-32-37-53-39-63l7-2c3-1 8-9 3-23-4-15-8-21-16-19l-6 1v1c-9-15-12-37-7-74 8-49 17-88-3-109l-30-4v-1s-10 3-4 15 6 12 2 22c-5 10-2 16 6 21 0 0-7-9 3-17l6 10 1-1c-1 12-3 30-9 58-10 55 4 91 19 98l8-2c2 5 4 10 4 17l-9 3s-3 8-1 15c3 7 12 41 43 72s54 44 92 45v9c0 6 14 7 27 7h1c14 0 28-1 28-7v-9c38-1 64-14 94-45 34-36 43-81 46-105l8 2c3 1 6 2 11-8l1-4c12-29 0-88 0-88-5-24-7-40-8-52 1 0 9 4 13 2 4-3 5-6 2-11-4-6-2-10 1-12" class="H"/><g fill="#31319c"><path d="M731 236c10-5 23-6 24 1 0 7-11 8-16 5s-8-7-8-7m-79-1s9-6 18 0l9 7s-13 8-21 0M690 234s11-6 19 0l9 7s-12 8-20 0"/></g><g class="C"><path d="M671 234s10-6 18 0l9 7s-12 9-20 0l-7-7m60 1l-2-1c-8-6-19 0-19 0l8 7c8 8 19 0 19 0l-6-6"/><path d="M702 158l-1 3s-12-14-16-10l-2 2c-3-3-9-1-4 3l2 2s-3 4-3 7v1l-4 1-3-4s0-3-3 1c-3 3-4 5-3 7l-13 10c-5 3-2 3-5 6l-5 6c-2 3-3 5 2 12s16 19 35 27c0 0 5-2 10 3 7-3 9-5 17-3 3-5-2-6-4-10s-1-3-8-6l-8-4c-1 2-3 1-8-2l-4-3-4-3v4l-2-5-5-4c-2-1 2-4 4-7 3-2 2-4 5-5 4-1 4-5 4-5l2 1c3 1 3 0 6-3s-1-5-1-5l1-1v-2h10c-2 3 3 3 3 1a9 9 0 011-2c25 18 62 49 81 80-14-33-45-60-77-85l2-3c4-4 0-5-2-4v-1M546 339h-1c0 1 0 2-2 2l-13 1c-1 0-2-1-2-3v16l6 1v-1c-4-1-5-4-5-7l1-2h7c0 3-1 4-4 4v1h9v-1c-4 0-4-2-5-4h7l1 2c0 3-1 5-4 6v1l5-1v-15zm327 7c-1 2-1 3-3 3h-12c-2 0-2-1-2-2h-1v6l13 5-12 6v7l2-3h13c1 0 2 0 2 3h1v-7h-1c0 3-1 3-3 3h-12l16-7-17-7h14l2 2v-9zm-344 11l-1 1v6h1c0-2 1-3 3-3h10l-14 12v1h15c2 0 2 0 3 2v-6c-1 2-1 3-3 3h-8l11-10v-5l-2 2h-13c-2 0-2-1-2-3zm340 16v1c4 1 5 3 6 6l-1 2-7 1c0-2 0-4 4-5l-9 1v1c3 0 4 1 4 3l-6 1c-1 1-1 0-1-1-1-4-1-6 3-7v-1l-5 1 2 15h1c0-1-1-2 1-2l13-2c2-1 2 0 2 2h1l-3-16h-5zm-341 4v2l-1 4c0 5 3 7 5 7 3 1 5-1 5-2l3-4c1-2 2-3 3-2 2 0 2 1 2 3 0 3-3 4-5 4v1l6 1v-1l-1-1 1-4c0-5-3-6-5-7-1 0-3 0-6 5l-1 1c-1 2-1 3-3 3 0 0-3 0-3-3 0-4 3-5 6-5v-1l-6-1zm-1 15l-2 15 5 2v-1c-3-2-4-5-3-7 0-2 0-3 2-2h6c0 3-2 4-5 4v1l9 1c-3-1-4-3-3-5l6 1 1 2c-1 3-2 5-5 5l-1 1 6 1 2-16h-1c0 1 0 3-2 2l-13-2-1-2h-1zm338 1l-5 1 3 16 5-1v-1c-4 1-5-2-5-4l13-3c3 0 3 0 3 2h1l-2-9h-1c1 2 1 3-2 3l-13 3c-1-2-1-5 3-6v-1zm16 17h-5v1c4 1 5 3 6 6l-1 2-6 2c-1-3 0-4 3-5v-1l-9 2c3 0 4 1 5 4l-6 1c-1 0-2 0-2-2-1-3 0-5 3-6v-1l-5 1 3 15h1c0-1-1-2 1-3l13-2c1-1 2 0 2 2l1-1-4-15zm-358 6l-2 9h1c0-2 0-2 2-2l5 1v7l3 3c5 1 6-4 7-6l1-8c-1 1-1 2-3 1l-12-2-2-1v-2zm7 8l7 2 1 1c-1 2-2 3-5 2-3 0-3-2-3-5zm355 4h-1c1 1 1 2-1 3l-13 2-2-2h-1l2 9h1c-1-1-1-2 1-3l13-2 2 2h1l-2-9zm-366 6l-1 15 5 2v-1c-4-2-4-5-4-7s1-2 2-2h6c0 3-1 4-4 4v1l9 1v-1c-3-1-4-2-4-5l6 1c2 0 2 0 1 2 0 4-1 5-4 6h-1l6 1 1-16h-1c0 2 0 3-2 3l-12-2c-2 0-2-1-2-2h-1zm351 11h-1l1 5h1l1-2h2l9 3-8 4-3 1-1-2h-1l1 9h1c0-1 0-2 2-3l15-8v-1l-16-4-3-2zm-334 8h-6v1c5 1 5 3 5 5l-14 1c-2 0-2-1-3-3v10h1c0-2 0-3 2-3h14c0 1 0 4-4 5v1l5-1v-16zm343 10c-5 0-9 5-9 10s4 9 10 9c3 0 7-2 8-6l1-5v-7h-1l-1 3c-2-2-4-4-8-4zm0 5c3 0 9 0 9 5s-6 5-9 5-8-1-8-5 5-5 8-5zm-342 3h-1c0 1 0 2-2 2l-12 2c-2 1-2 0-2-2h-1l1 10 1-1 1-2 13-2c2-1 2 1 2 2h1l-1-10zm1 10l-5 1v1c4-1 5 2 6 4l-14 3c-2 1-2 0-3-1l2 9h1c-1-2-1-3 1-3l14-4c0 2 1 5-3 6v1l5-1-4-16zm310 26l-2 15 2-2 13 2c2 0 2 1 2 3l3-16-6-2v1c4 3 4 5 4 8 0 2-1 2-2 2l-6-1c0-3 1-4 4-4h1l-9-2v1c3 1 3 2 3 5l-6-1-1-2c0-4 1-6 5-6l-5-1zm-2 15l-4 16 6 1v-1c-4-1-4-4-4-6l14 3c2 1 2 2 2 3l1 1 2-10h-1c-1 2-1 3-3 2l-14-3c1-2 2-4 6-4v-1l-5-1zm14 17c-1 1-2 2-5 2l-15 2v1l12 9c2 2 3 2 3 4l2-5h-1s-1 2-2 1l-3-2 2-5 4-1v3h1l2-9h-1zm-8 7l-1 5-6-5h7zm-13 4l-6 15 5 2 1-1c-4-2-3-4-3-6l13 5c2 0 2 1 2 3l4-9h-1c-1 2-1 2-3 2l-13-5c0-2 1-4 5-3l1-1-5-2zm-279 3v1c0 1 0 2-2 3l-10 5-2 1-1-2-1 1 4 8 1-1c-1-1-1-2 1-3l4-2 4 5c2 2 4 1 5 0 4-2 2-6 1-8l-4-8zm2 7l1 1c1 2 0 3-2 4-3 2-4 1-6-2l6-3h1zm273 8c-3 0-5 4-5 5l-4 8h1c1-1 1-2 3-1l11 5c2 1 2 2 1 3l1 1 3-9c-1 2-2 2-3 1l-5-2v-1l10-1 2-5h-1l-9 2c0-1 0-4-3-6h-2zm-267 1c0 1 1 2-1 3l-11 6c-1 1-2 1-3-1v1l7 13 6-2v-1c-4 1-6 1-8-3v-3l11-6c2-1 2 0 3 1h1l-5-8zm265 3l2 1c3 1 3 3 2 6l-6-3-1-2 3-2zm-8 10l-8 14h1c1-1 1-2 3-1l11 7v3l9-13-4-4-1 1c3 3 2 6 0 8 0 2-1 2-2 1l-5-3c1-2 2-3 5-2h1l-8-5v1c2 2 2 3 1 5l-5-3v-2c1-3 3-5 7-3v-1l-5-3zm-242 9l-16 3h-4l3 5v-1-2l3-1 4 5-2 3-2-1h-1l5 7 2-5 8-13zm-6 2l-3 6-3-4 6-2zm242 4c-3 1-5 3-5 4l-5 7c1-1 2-2 3-1l10 8c2 1 1 2 1 3v1l5-7c3-5 3-8 1-9-3-2-5-1-7 1 0-1 2-4-1-6l-2-1zm-3 4l3 1c2 1 2 3 0 5l-5-3v-2l2-1zm-229 1l-6 3c-4 3-5 8-1 13 2 3 4 3 7 3v-1l-6-2c-1-1-2-3-1-5l4-5c3-3 7-4 9-1 2 2 1 6 0 8h1l4-4h-2l-2-5-7-4zm236 3l3 2c1 1 3 2 1 5h-2l-5-4v-1l3-2zm-15 3l-6 7h3l10 9c1 1 0 2-1 3h1l6-7c-1 1-2 2-3 0l-10-8v-4zm-209 3v4l-9 9h-4l7 7v-4l9-9h4l-7-7zm198 8l-7 6v1c1-1 2-2 3 0l8 10c2 1 1 1 0 2v1l12-10-3-5c1 3 1 6-2 9h-3l-8-10c-1-2-1-2 1-3l-1-1zm-190 0v4l-8 10h-3v1l6 5c6 4 11 2 14-1 2-4 3-9-3-13l-6-6zm4 6h2c3 3 0 8-1 10-4 5-7 5-9 3l-1-2 9-11zm168 8l-5 1-7 4c1 0 2-1 3 1l6 12-1 2v1l8-4c5-2 5-6 4-8s-4-2-7-2c1-1 4-3 2-5 0-2-1-2-3-2zm-151 1l-13 10-4 1 5 3-1-2 2-3 6 3-1 4h-3l8 5v-1l-1-4 2-16zm148 1c1 0 2 0 2 2 2 2 2 3-2 5l-2-5v-2a3 3 0 012 0zm-10 3l-5 2v1h3v11l-7-6-1-2 2-2-1-1-8 3v1l3 1 12 13 1-1v-17l1-2v-1zm-142 0l-1 7-5-3 6-4zm11 1v1c1 0 2 1 1 2l-4 12c-1 2-1 2-3 1l-1 1 6 2 1-1c-2-1-3-1-2-3l4-12 1 17 1 1 12-13-5 13-3 1 8 3c-1-1-2-1-1-3l4-11c1-3 2-2 3-2l-6-3-9 10-1-14-6-2zm144 3c2 0 3 0 4 2s1 4-1 5h-2l-3-6v-1h2zm-32 3h-1l-1 1h-4c-5 2-4 6-4 7 1 1 1 4 6 4l2 1c2 0 4 0 4 2 0 0 1 3-2 4s-6-2-7-4h-1l2 6h1v-1l5-1c5-1 5-5 5-7-1-3-4-4-5-4h-4l-4-2 2-4c3-1 6 2 7 3l-1-5z"/></g><path d="M700 686c-13 0-28 0-28-7v-29c0 7 15 8 28 8m-16-1s4-14-6-14-49-3-76-36c-27-32-37-53-39-63s-3-14 2-15l-27 9s-3 8-1 15c3 7 12 41 43 72s54 44 93 45m-1-19c0-3 2-5 6-2s7 1 6-2M563 544l7-2c3-1 8-9 3-23-4-15-8-21-16-19l-6 1m-8 17c2 5 4 10 4 17m-12-15l26-7c-15-12-24-36-17-85 8-49 17-88-3-109l-30-4s9 4 12 21c3 16 4 30-7 86-10 55 4 91 19 98zm-24-206s-10 3-4 15 6 12 2 22c-5 10-2 16 6 21 0 0-7-9 3-17l6 10m40 164s7-2 4 5l-2 4c-1 3 2 6 5 4m-10-29c4-1 6-4 1-6s-5-7-2-7m140 186c13 0 28 0 28-7v-29c0 7-15 8-28 8m27 12c39-1 65-14 95-45 34-36 43-81 46-105 2-13 6-17 10-17l-24-6s-10 3-13 15c-8 42-7 60-42 96-38 37-67 35-77 35s-6 14-6 14m12-6c0-3-3-5-6-2-4 3-7 1-6-2m152-127a32 32 0 008 2c4 1 6 2 12-11 5-13-12 29 0-1 12-29 0-88 0-88-11-56-10-70-7-86s12-21 12-21l-30 4c-20 21-11 60-3 109 6 39 8 46 2 71m30-185s11 5 3 20-14 29-3 37m-12-1s8 4 13 2c4-3 5-6 2-11s-2-10 1-12c0 0-8 1-10 11m-9 143c5 2 5 8 2 11s-6 7-2 9" stroke="#fff" stroke-width="2.8" class="D"/><path d="M731 236c10-5 23-6 24 1 0 7-11 8-16 5s-8-7-8-7zm-79-2s9-6 18 0l8 7s-12 8-20 0" class="B E H"/><path d="M671 234s10-6 18 0l9 7s-12 8-20 0" class="B D E"/><path d="M690 234s11-6 19 0l9 7s-12 8-20 0" class="B E H"/><g class="D B E"><path d="M738 241s-12 8-20 0m-8-7s11-6 19 0l2 1m-31-71l2-6c2 0 6 1 2 5l-7 10c0 2-5 2-3-1l6-8z"/><path d="M702 166c32 25 63 52 77 85-19-31-56-62-81-80m3-10s-12-14-16-10l-2 2c-3-3-9-1-4 3l2 3s-3 3-3 6l1 2s0-3-5 0l-3-4s0-3-3 1c-3 3-3 5-3 7l-13 10c-5 3-2 3-5 6l-5 6c-2 3-3 5 2 12s15 18 34 26m16-59h-8l-3-1s2 1 1 3l-1 1s4 2 1 5-3 4-6 3l-2-1s0 4-4 5c-3 1-2 3-5 5-3 3-6 6-4 7l5 4 2 5v-4l4 3 4 3c5 3 7 4 8 2l8 4c7 3 7 2 8 6 2 4 6 4 3 10m-15 1s-6 0-5-5c1-4 5-9 1-15"/><path d="M678 215c1 7 7 13 7 13l-6-2m1 5c-9-4-7-9-16-14m6-9c2 2 5 7 0 4m-8-14s-1 4 2 6m-5-6c-3 4-3 2-2 6m3-8c-5 1-5 2-6 5m12-14c5 0 6-1 7-3m-12-5c4 0 7 0 9-2m-5-5s7 3 11 9m-2-14l9 8"/><path d="M670 165c-1 1-5 3-3 5 1 1 1 0 2-2l1-3zm4 4c-2 1-5 3-4 4 2 2 2 1 3-1l1-3zm-5 2c1-1 2-5 3-4s0 2-1 3l-2 1zm4 4c0-2 2-5 3-4 2 1 1 1-1 2l-2 2zm4 4c1-2 2-5 3-4 2 1 1 1 0 2l-3 2zm1-6c-1 1-5 3-3 4 1 2 1 0 2-1l1-3zm5 4c-2 1-5 3-4 4s2 0 2-1l2-3zm17-14l-9-7c-4-3-5-3-8 0l-2 2m8-4c0 3 0 2-2 4l-3 2c0-1-2-2-1-4m9 1l-2 4c-2 2-2 3-3 1-2-1-1-2-1-3m-5-1s3 2 3 5l-1 4 4-2 4 3 1-2c1 0 0-2 2-3s1 0 2 2c0 2 1 2-1 5m0-12v4c-3 2-1 2-3 2-1 1-4 1-3-1m9-2c0 1 0 3-2 4" stroke-linejoin="round"/></g><path d="M644 372l1 2-5-1h-1l-1 1v-2h6m-1 3l2 2h-8v-1c1-1 3-2 5-1h1m2 4v1l-5-1-3 2v-2l4-1 4 1m-3 4l-2 1-1-1h3m118 9l-6 21-2 4-6 19c-1-2 1-4 1-7l3-8 3-11 4-14 2-4h1m-3 3c-1-1-2-2-1-3l1-2v5m3 6l-2 1c1-3 1-8 4-10l-2 9m-4-4l-2 6c-1-3 0-5 1-8 0 1 2 1 1 2m-3 9l-1-1 1-2c2 1 0 2 0 3m6-3c0 2 0 4-2 4l1-4h1" class="C"/><path d="M754 406l-1-1v-2c2 1 1 2 1 3zm5-3c0 2 0 4-2 4l1-4h1z" stroke-width=".6" class="B D F"/><path d="M762 391l-2 3v-3h-2v1l-1-3h-1l-1 3 1 3h-1v-1l-1 1v1c-1 2-2 4-1 7l1 1v-1l-2 7-2 5-1 5-1 5-2 4v2l-1 2 1-10c1-4 2-9 1-14v-1l1-3a12 12 0 00-3-9h-1v-1l-2-13-2-8v-1l-2-7-5-12c-1-3-4-4-6-4l-1-1h-2-1v-1h-2l-1 2-1-1h-1v1a7 7 0 000-1c-3-3-4-6-4-11l1-1h-1l1-3v-4 5 4h-1l1 3 1 3 1 3 2-1-1-4h-1l-1-3 1 3 2 4h1v-1l-1-3-1-4-1-5v-2l-1-1h1v-1l-1-1v-1l1-8c0-7-3-12-7-14l-1-1h-1-3-2l-1-4-1-2-1-2v-2l-1 1c0-2-1-5-4-8l-1-1v1c-1-3-3-4-6-3l-1 3v1l4 2h-1-2v1a2 2 0 000 1c-1-2-3-3-5-3l-1 4c0 2 2 3 3 4h-1v2l1 1c1 2 1 3 4 3l-1 1h-1 1c0 2 1 2 2 3l1 1v1h3c-3 4-4 9-4 15h1-1v4l1 2v-1l1 1h-1l-1 1h1v7l-2 9h-1a52 52 0 00-2 1l-3 1-5 1-1 2-3 4c-2 3-2 6-2 10l-1 8-1 4v3l-2 3-1 5v2l1 1-2-1-1-1-5-2-5-2-1-10-2-13v-1l-1-9v-9l-1-5v-10l-1-1h-1v1l-1 1a7 7 0 00-1 0v3l-2 15-1 6a19440 19440 0 01-2 14v1l1 1h-4l-1 3h1a6 6 0 00-1 1h-1v2h1a8 8 0 001 0l-2 1v1l1 2-1 2 3 4v15 53l1 11 3 25a494 494 0 0023 90l1 1 1 1h2v-3l-1-4-2-26v-8l-1-14-1-4-1-14-2-22-1-22-1-13v-1l-1-3v-3l-1-15-1-15h-1v-8-5c2 3 6 5 8 6l2 1 5 2c2 0 2-2 3-3l1-1v-1l1-1v1h2v-1-2l2 1v-3 1h1v-1c2-3 1-7 0-10v-1-1-3l-1-5 1 1 1 1v-2a29 29 0 010 1v25l1 3 1 3v3l1 1a1 1 0 00-1 1l1 1v3a1 1 0 001 1h1-1l-3 9-1 4c0 7-2 12-3 18l-1 4-1 6v8h-1v11h2v-1h1v-5l1 7v7l1 3c1 3 2 7 1 10l2 7 1 2a6 6 0 00-1-1l-1-2v10c-1 7 0 14 2 20l1 1v1h-1v-1 7l1 8v2l-2 3v1l-1-1 1 1h-1v1l-1 2-2 5c0 2-1 3-3 4s-3 2-4 5l1 5 1 2c1 2 3 1 5 0l3-2 1-1h-1c2 0 4-2 5-4l2-2 3-2 4-3 2-1 1-7v-1l-1-3-1-1-3-2h2l1-1-1-2v-4h-1c2-1 2-4 2-6v-3h-1l-1 2v-1c4-9 4-18 2-27v-1l-1 1c2-4 3-9 3-13l1-9v-4-4-4l1-3 1-1 1-1v1h1l1-2v3h1l1-1v1h2v-1l1 1 1-1v1h2v-1-1l1 1-1 1-1 2v3l1 6 1 1v-2 2l1 17v3l1 2-1-1v-1l-1 1v4 21c1 6 1 11-1 17v1l-1 3 1 2-1 1v1l1 2-1 3 3 2 2 2 1 1 1 2c1 3 3 6 5 7h1l2 1c2 1 4 2 6 0v-6c1-4-2-8-4-10l-1-3-1-2v-2l-1 1v-2-1l-1-2v-1-3l-1 1c2-3 2-5 2-8l1-5 2-8 1-9 1-2v-4-6h-1-1l2-3v-1l1-1h-1l-2 2 2-3 1-2-1-1-1 1 4-12v-1-3-4l5-1 1 1-1-5 1-1v-7l-1-11v-1h1c2 0 2-2 2-4a1 1 0 001 0v1l1-3v-1h2v-1l1-1 1-2-2-6-2-4 1 1v1l1-2v-1l6-18 1-2v-2l2-7 1-3 1-1h1l1-1 3-9v-2l-1 1zm-116-30v-4l2-17v-3l1 5v10l1 3v9l1 6v6l1 3v5l-2-2v-1h-1v-1c1-2-1-4-2-6v-1-2-3l-2-2 1-5zm10 62l1 15 1 9v3l1 15v3l1 2v15l1 12 1 9v1l1 4v9l1 11 1 10 2 21v3l1 6v4l-2-6-7-21-2-8-1-3-4-19-1-4v-4c-2-10-3-19-3-29l1-4-2-25c-1-3 0-7-2-10l-1-9c-2-14-1-29-1-45l2 1 9 10 1 16v1l1 7zm59 141zm15-69v1-1zm4-59h1v1l-1-1zm3 3l-1 4v1-1l-1-3 1-1v-3l-1-1v1l-1-1 1-4-2-4-1-4v-5l-1-2v-1-2l-1-2 1-1v-1l-2-11-2-10 3 7 1 1v-1-2l1-1v-2l1-4v12l-1 4v7-1 2a1 1 0 001 0h1l1 6 1 4v2l1 2v15z"/><g class="C"><path d="M694 288v5l-5-7v1l3 4-4-2 1-4c2 0 4 1 5 3M699 300v1l1-2v-2 6l-3-5-3-5 1-4c3 3 5 7 4 11m-5 2l2 6h-1l-11-17v1c4 5 8 12 10 18-1 1-1 0-2-1l-4-4h3l-2-1c-3 0-3-3-4-4v-1h3c-2-1-5-2-5-5v-3c5 0 8 7 11 11m-3-10c2 0 2 2 3 3l-3-1-2-2h2m6 9c-1-1-3 0-3-2l3 2m5 4h3l3 1 2 1c5 2 6 8 6 13v8c1-4 0-10-1-14l-4-5-1 1 2 2c4 5 3 12 3 17l-1 9c-1 4 0 8 3 11v7h1l1-5v-1l1 2c1-1 0-4 2-3l2 1h2c3 1 6 1 6 4 4 6 5 13 8 20l4 21c-2-1-1-3-2-4h-1c0 2 1 5 3 6h1a12 12 0 012 8c-1-3-3-5-6-5h-3c-3 2-3 6-5 9-1-4 1-8 1-11v-13l-1-5-1 10-1-5 2-13v-5l-1 1c1 3-1 6-1 9l-1 3 2-16-1-8-1-1v16c0 4-2 9-1 13 0 3 0 6 2 9v2c-2-4-4-8-3-12v-2l-1 5c0 8 4 16 4 24l-3 2 1-7-2-6v2l1 5c-2 1 0 3-2 3v2l-2 1h-2v-3l1-6v-9l-1 4v3l-2 6c-1 3-1 8-5 8l-1-3-1 3-5-1-1-4c-1 1 0 4-2 4h-7c-3-3-2-8-2-12l-1 7v3c-2-3 0-8-1-11l1-6-2-2v2c2 6-1 11 0 18l-2-1-1-3v3c-2 0-2-2-3-3l-1 3-2-1-1-6v-21-12-6-2l-1 3-1-3-1-6-1-4v-1c-1 6 1 12 3 18h-1l-3-9c-1 5 2 8 3 13l1 6-1 2c-2-2-1-6-2-8-1 4 1 8 1 12l1 5c1 3 2 7 0 10v-1c2-5-1-9-2-14-1 2 1 4 1 7 1 3 0 7-1 11v-10l-1-3v1c0 4 1 9-1 13v1l1-3-2-12-2-2-1-1h-3l-2 1c0-3 3-5 2-8l1-7 2-8c-1-3 0-7 2-9l4-6 4-1 6-2 1 3 2 4 2 2 1-1-1-2h-1 1l1-2h-1l1-1 1 1v-1l3 6 4 2c0 1 0 2 2 2-1-2-2-4-5-4l-1-3c2 0 2 2 3 1l-5-6h1v1h2l1 1 1-1-1-1h-1l-1-1h-1v-1l1 1v-1l1 2 1-1 1 1 2-1 1 2-2-1-1 1 1 2 1-1 3 1v3l-1 5 1-2v1l2-1c1-1 3 0 3-2l2-2 2-3c0 1-2 2 0 3l-1 2h2v-2-2-2l-1-1h-1v-1c-2-4-1-8-1-11v-2-18c0-3-2-5-4-6l-4-1c-1-1-1 2-2 1-2-2-4 1-4-1l-3 2v-2c-5 4-4 10-4 16l2 11 1 5 2-2h3c2 1 4 2 6 1 2 1 1 3 2 5l-1 2-2-1-1 1h-1l-1-1h-1l-3-1-1-2-2-1v2l1 1h-1l-1-1h-1l1 2 1 1-2-1v1l-2 1v2c-1-3 1-6 2-9 1-2 1-6-1-9-1-3-2-7-1-11v-4l-1 1v5c0-7 2-14 8-18l2-2-1-1 2-3v4m-3 0l-1 1c-1-1-3-2-3-4l4 3"/><path d="M713 317c1 4 1 8-2 11v6l-4 5c-3-1-7 2-9-2l-2-5v-4c-2-3-2-7-1-10l2-3c5-1 9-2 14 0l2 2m-22 11v1-4 3m-42 2l1 6v9l-1-9h-1l-2 21-1 10 2 2-1 5c2 2 4 4 3 6-1 1-1 3-3 2v-7l-1-3c0-1-1-2-3-2l2-14 3-22v-2l1-2h1c0-1 0 0 0 0m67 4l3 9 1 4c-1-3-4-7-4-11v2-7 3m-25 11l-1 6c-1-4 0-8 1-11l1-3-1-5v-1c2 5 2 10 0 14m24-7l1 1-1-1m1 1l1 5 1 4-2-6-1-3h1m-3 7v1-1m-1 1l-1 1 1-1m-2 2h-1 1m9 0v-1 1m-5 0h-1 1m-2 0v1h-1l1-1m-5 2h-2c0-2 2 0 2 0m3 0c-1-1 0-1 0 0m-2 0v1-1m-14 2h-1c-1 0 0 0 0 0h1m51 55l1 7v-7l1 1c1 10-3 18-2 27l3 10-2 4h-1l-1 3c-1 0 1-2-1-2-1 2 1 5-2 6 1-3-1-4-1-7l-2-4c-1 3 1 5 1 7v1l-1 1-1-4-1-2-1 13 1 1-3 8-1 1v3c-1-1 0-3-2-3v3l-1-3c-2 0 0 2-1 3v1l2 1v4l-4 12-1 1v1c-1 0-3 0-3 2l1 7 1 3 7-7v-2l-1-2 1-1c-2-2 0-3 0-5l3-9c2 3 0 6 0 9 0 5-1 9-4 13v1l2-2-4 7 1 1 1-2 2-2c-1 2-3 4-2 6l1-1c2 3 0 6 1 9l-1 2c0 6-3 11-3 17-2 5 0 11-5 15 1 1 2-1 3-2v4l1 2h-1-1c-3-1-5 2-9 1v1c2 1 5 0 7-1l3 1c0 1 0 3-2 4s-5-2-7-3l-2-2 5-2-2-1-4 2c-1-2 1-2 1-4 2-7 1-14 1-22-2-5-1-11-1-16l1-4 2 7-1-11c-2-6-1-13-1-20v-3c-2 1 0 3-1 4-2-2-1-5-2-8l2-1c0-1 2-1 2-3l-1-3v4l-1-2-1-2-1 4c0 1 0 0 0 0l-1-3-1 2v2l-1-1v-3l-1 4v-1l-1-3c-2 0 0 3-1 3h-1v-4l-1 4-1-4-1 3c-1 0 1-3-1-3l-1 3v-3h-1l-1 3-1-4-1 3c-1 0 1-2-1-3-1 1 0 3-1 2l-1-2-1 3 2 2h2l-1 2c1 2 0 3-1 5l1 1v1h1v3l2-2v-1l-1-1c2-2 2-4 3-7v7l-1 8c-1 8 0 17-4 23v4l1 1 1-5c1 9 2 18-2 26v2l2-2c-1 3 0 7-3 8l-1 1h2l1 5-1 1-2-1v1l4 2 1 4h-4c-3-1-6-2-9 0l-2-1 2-3 1-3-2-14 1 1v-2-1c-2-6-3-13-2-20v-2-5l1 1v2l1-3c-1-3-3-5-3-8l-2-13-1-15h-1v-4c-2 3 0 6-1 9v-7h-1v-2l1-9 2-10c1-6 3-11 3-17 1-4 0-10 4-13 2 0 1 2 2 3v4l1-1v-5h2l1 10 1-2v-5c0-1 2-3 1-4l-9-1v-2h2l13 2h18l2-1h3l4-1 4 1-1 1c-8-2-16 3-24 2h-7 1l6 1c5 1 10 1 14-1h2l-3 2h3l4-1 1 1 2 4c1 2 3 5 3 8l1 4v-7l1 1 1 9 2-8v-15l-1-4-2-9 2-7 4-2c3 1 3 4 4 6m-69 2l1-3v3h-1m0 1v-1 1m55 3l-2 2c-7 0-13 4-20 4l1 1c2 1 4-1 7-1h1c4-1 8-3 13-3v1l-4 1-7 3-13 1h-1l2-1h-3c-4 2-8-1-12-1l-8-1v-1c4-1 7-2 11 0 3 1 6 2 10 1l8-1v-1l-9 1c-3 0-6 0-9-2h-11v-2h8c6 2 11 1 17 1l-5 1h1l4 1 4-1h3c5 1 9-3 13-3h1m3 17c-2-1-1-3-2-4l2 4m0 4v-1 1m2 5v-3 3"/><path d="M694 441l-1-3 1 3m24 6l-1 6v-7l1 1m22 8c0 4-2 7-3 11l-8 27c-2 0 0-1-1-2l2-5a7 7 0 000-1l3-9 3-11c1 0 0 0 0 0l3-9 1-1m0 8v4-4m-3 12v-2 2m1-1v1-1m2 2v-1 1m-2 1v-1 1m2 4v-2-2 4m-63 3v-1 1m21 7l-1 3-1-1 2-2m31 4c0 1-2 1-1 2l2 2-4 6h-1l-1-4-1-4 4-1v-1l-1-1 3 1m-13 67c2 2 4 3 7 3l-2 3-1 1-6-8c0-2 2 0 2 1m13 4c3 3 6 6 5 11l-1 5c-2 2-5-1-7-1-3-2-5-4-6-7l-1-3c-2-3-7-2-5-6l7 5c2 1 1-2 2-2l3 5c1 1 3 3 5 2l1-2-4-5h1l-1-3-2-1 1-3c1 2 3 3 2 5m-35-1h1l-2 2h-8v-2h3l1-1 5 1m-10 2l1 1-4 3c-1-2 1-4 2-6l1 2m14-1c1 2-1 3-2 4l-8 2-1-2v-1l7-1 3-2h1m27 0c0 3 3 5 4 7-1 1-1-1-2-1-2-2-3-4-2-6m3 2l-1 1-1-3 2 2m-43 2v-1 1m-3 7l-2 1 3-3 2-5c0 3-1 5-3 7m6-4l8-1c0 1-3 0-1 2l2-1-7 5c-3 2-5 6-8 6l-3 1h3l-2 2h-5l-1-7c1-4 6-4 7-8h1v1c-1 2-6 3-3 6h2c3-2 5-4 5-8l2 2m-8 3l1-1-1 1"/></g><path d="M705 320h5l2 1v1c-2 0-1 2-3 1-1 2-3-1-4 1 0 3 2 3 3 5l1 3c-1 0-1-3-3-2l-3 1-3-2-2 3v-1c-1-1 0-1 1-2l2-1 1 1c1-1 2 1 3-1 0-3-2-6-1-9l1 1"/><path d="M672 391l-4 1 3 3v2l-6-5c-3-2-8-1-11-5l-1-10-1-14-1-16-1-1v9l1 9 1 12 1 5-1 5-3-4v4l1 3c-2-1-2-3-4-3l-1 2h-1l-1-4 2-1-1-1c-1 0-1-2-3-1-1 0-4 0-4 2s2 3 3 4v15c-2 18-1 36 0 53l4 36a493 493 0 0024 89c-2 2 1 1 1 3h1l-1-6-3-35-1-13-1-19-4-43-1-14v-7l-3-30-1-14c3 3 6 5 10 6 2 1 3 4 6 4l3-4 1-1 1-2-3 4c0-3 2-6 3-8 1-4-1-8-4-10zm-16 32l1 15 1 10v2l1 15 1 4v9l1 7 1 12v9l1 1v4l1 9 1 11v10l2 21v4l1 6v3l-2-5-7-21-2-9-1-3c-1-6-3-12-3-19l-1-4-1-4c-1-9-3-19-3-29l1-4-2-25c-1-3 0-7-2-10l-1-8-1-45h3l8 10 1 16 1 8z" class="C"/><path d="M702 320l1 2-2 2-4-1c0-1-3-1-2-2 2-3 5 0 7-1"/><path d="M705 334c0 2-2 1-3 1v-1h3m2-1h1l-9 1v-1l2-1 6 1" class="C"/><path d="M712 356l-5 3 7-9-2 6m5 3c0 1-2 1-1 2v1l-1 1v1l-1 1c0 1 1 2-1 2v1l-2 1-1 1h-1l1-1c2 1 0-3 3-2l-1-2h2v-2l1-1-1-1 1-1v-2l2 1m-21 0l-1 1-1-1v-1l2 1m1 3l-1 1-1-1v-1l2 1m1 2l-1 2-1-1v-1h2m2 3l-1 1-1-1v-1l2 1m1 2v1l-1-1v-1l1 1m4 1h4l-1 1h-1l-1 1-2-1h-2v-1l1-1c1 0 1 3 2 1m18 70c0 8-2 15-3 22l-1 5v1l-1-3-1-6 2 1 2-8 1-12h1m4 34v2h-1v-3l1-1v2m-2 2h-1v-4l1 4m-2 0h-1v-3l1 3m-35 0v-3 3m4-1c0 1 0 0 0 0v-2 2m29-1v3l-1-2v-2l1 1m-31 1h-1l1-2v2m-3 1h-2l-2 1h-1s0-1 0 0l-1 1-1-3 1-1 1 1v-1c1 1 3-2 3 0l1-1 1 3m32 0v1h-1v-3l1 2m-42 7v-5 5"/><path d="M705 320h5l2 1v1c-2 0-1 2-3 1-1 2-3-1-4 1 0 3 2 3 3 5l1 3c-1 0-1-3-3-2l-3 1-3-2-2 3v-1c-1-1 0-1 1-2l2-1 1 1c1-1 2 1 3-1 0-3-2-6-1-9l1 1zm-59 69l8 10 1 16 1 8 1 15 1 10v2l1 15 1 4v9l1 7 1 12v9l1 1v4l1 9 1 11v10l2 21v4l1 6v3l-2-5-7-21-2-9-1-3c-1-6-3-12-3-19l-1-4-1-4c-1-9-3-19-3-29l1-4-2-25c-1-3 0-7-2-10l-1-8-1-45h3zm56-69l1 2-2 2-4-1c0-1-3-1-2-2 2-3 5 0 7-1zm3 14c0 2-2 1-3 1v-1h3zm2-1h1l-9 1v-1l2-1 6 1zm5 23l-5 3 7-9-2 6zm5 3c0 1-2 1-1 2v1l-1 1v1l-1 1c0 1 1 2-1 2v1l-2 1-1 1h-1l1-1c2 1 0-3 3-2l-1-2h2v-2l1-1-1-1 1-1v-2l2 1zm-21 0l-1 1-1-1v-1l2 1zm1 3l-1 1-1-1v-1l2 1zm1 2l-1 2-1-1v-1h2zm2 3l-1 1-1-1v-1l2 1zm1 2v1l-1-1v-1l1 1zm4 1h4l-1 1h-1l-1 1-2-1h-2v-1l1-1c1 0 1 3 2 1zm18 70c0 8-2 15-3 22l-1 5v1l-1-3-1-6 2 1 2-8 1-12h1zm4 34v2h-1v-3l1-1v2zm-2 2h-1v-4l1 4zm-2 0h-1v-3l1 3zm-35 0v-3 3zm4-1v1-3 2zm29-1v3l-1-2v-2l1 1zm-31 1h-1l1-2v2zm-3 1h-2l-2 1h-1s0-1 0 0l-1 1-1-3 1-1 1 1v-1c1 1 3-2 3 0l1-1 1 3zm32 0v1h-1v-3l1 2zm-42 7v-5 5zm17-195v5l-5-7v1l3 4-4-2 1-4c2 0 4 1 5 3zm5 12v1l1-2v-2 6l-3-5-3-5 1-4c3 3 5 7 4 11zm-5 2l2 6h-1l-11-17v1c4 5 8 12 10 18-1 1-1 0-2-1l-4-4h3l-2-1c-3 0-3-3-4-4v-1h3c-2-1-5-2-5-5v-3c5 0 8 7 11 11zm-3-10c2 0 2 2 3 3l-3-1-2-2h2zm6 9c-1-1-3 0-3-2l3 2zm5 4h3l3 1 2 1c5 2 6 8 6 13v8c1-4 0-10-1-14l-4-5-1 1 2 2c4 5 3 12 3 17l-1 9c-1 4 0 8 3 11v7h1l1-5v-1l1 2c1-1 0-4 2-3l2 1h2c3 1 6 1 6 4 4 6 5 13 8 20l4 21c-2-1-1-3-2-4h-1c0 2 1 5 3 6h1a12 12 0 012 8c-1-3-3-5-6-5h-3c-3 2-3 6-5 9-1-4 1-8 1-11v-13l-1-5-1 10-1-5 2-13v-5l-1 1c1 3-1 6-1 9l-1 3 2-16-1-8-1-1v16c0 4-2 9-1 13 0 3 0 6 2 9v2c-2-4-4-8-3-12v-2l-1 5c0 8 4 16 4 24l-3 2 1-7-2-6v2l1 5c-2 1 0 3-2 3v2l-2 1h-2v-3l1-6v-9l-1 4v3l-2 6c-1 3-1 8-5 8l-1-3-1 3-5-1-1-4c-1 1 0 4-2 4h-6c-4-3-3-8-3-12l-1 7v3c-2-3 0-8-1-11l1-6-2-2v2c2 6-1 11 0 18l-2-1-1-3v3c-2 0-2-2-3-3l-1 3-2-1-1-6v-21-12-6-2l-1 3-1-3-1-6-1-4v-1c-1 6 1 12 3 18h-1l-3-9c-1 5 2 8 3 13l1 6-1 2c-2-2-1-6-2-8-1 4 1 8 1 12l1 5c1 3 2 7 0 10v-1c2-5-1-9-2-14-1 2 1 4 1 7 1 3 0 7-1 11v-10l-1-3v1c0 4 1 9-1 13v1l1-3-2-12-2-2-1-1h-3l-2 1c0-3 3-5 2-8l1-7 2-8c-1-3 0-7 2-9l4-6 4-1 6-2 1 3 2 4c2 0 1 1 2 2l1-1c1-1 0-2-1-2h-1 1l1-2h-1l1-1 1 1v-1l3 6 4 2c0 1 0 2 2 2-1-2-2-4-5-4l-1-3c2 0 2 2 3 1l-5-6h1v1h2l1 1 1-1-1-1h-1l-1-1h-1v-1l1 1v-1l1 2 1-1 1 1 2-1 1 2-2-1-1 1 1 2 1-1 3 1v3l-1 5 1-2 1 1 1-1c1-1 3 0 3-2l2-2 2-3c0 1-2 2 0 3l-1 2h2v-2-2-2l-1-1h-1v-1c-2-4-1-8-1-11v-2-18c0-3-2-5-4-6l-4-1c-1-1-1 2-2 1-2-2-4 1-4-1l-3 2v-2c-5 4-4 10-4 16l2 11 1 5 2-2h3c2 1 4 2 6 1 2 1 1 3 2 5l-1 2-2-1-1 1h-1l-1-1h-1l-3-1-1-2-2-1v2l1 1h-1l-1-1h-1l1 2 1 1-2-1v1l-2 1v2c-1-3 1-6 2-8 1-3 1-7-1-10-1-3-2-7-1-11v-4l-1 1v5c0-7 2-14 8-18l2-2-1-1 2-3v4zm-3 0l-1 1-3-4 4 3zm14 12c1 4 1 8-2 11v6l-4 5c-3-1-7 2-9-2l-2-5v-4c-2-3-2-7-1-10l2-3c5-1 9-2 14 0l2 2zm-22 11v1-4 3zm-42 2l1 6v9l-1-9h-1l-2 21-1 10 2 2-1 5c2 2 4 4 3 6-1 1-1 3-3 2v-7l-1-3c0-1-1-2-3-2l2-14 3-22v-2l1-2h1c0-1 0 0 0 0zm67 4l3 9 1 4c-1-3-4-7-4-11v2-7 3zm-25 11l-1 6c-1-4 0-8 1-11l1-3-1-5v-1c2 5 2 10 0 14zm24-7l1 1-1-1zm1 1l1 5 1 4-2-6-1-3h1zm-65 8l1 16 1 14 1 10c3 4 7 3 11 5l6 5v-2l-3-3 4-1c3 2 5 6 4 10-1 2-3 5-3 8l3-4-1 2-1 1-3 4c-3 0-4-3-6-4-4-1-8-3-10-6l1 14 3 30v7l1 14 4 43 1 19 1 14 3 34 1 6h-1c0-2-3-1-1-3a396 396 0 01-24-89l-4-36c-1-17-2-35-1-53l1-15c-1-1-3-2-3-4s2-2 4-2c2-1 2 1 3 1l1 1-2 1 1 4h1l1-2c2 0 2 2 4 3l-1-3v-4l3 4 1-5-1-5-1-12-1-9v-6-2-1 1h1zm62-1v1-1zm-1 1l-1 1 1-1zm-2 2h-1 1zm9 0v-1 1zm-5 0h-1 1zm-2 1h-1 1zm-5 1h-2c0-2 2 0 2 0zm3 0h-1 1zm-2 0v1-1zm-14 2h-1c-1 0 0 0 0 0h1z" class="B D F G"/><use xlink:href="#B" class="C"/><use xlink:href="#B" class="B D F G"/><use xlink:href="#C" class="C"/><use xlink:href="#C" class="B D F G"/><path d="M645 379v1l-5-1-3 2v-2l4-1 4 1z" class="C"/><path d="M645 379v1l-5-1-3 2v-2l4-1 4 1zm-3 4l-2 1-1-1h3z" class="B D F G"/><path d="M760 392l-6 21-2 4-6 19c-1-2 1-4 1-7l3-8 3-11 4-14 2-4h1z" class="C"/><path d="M760 392l-6 21-2 4-6 19c-1-2 1-4 1-7l3-8 3-11 4-14 2-4h1zm-15 16l1 7v-7l1 1c1 10-3 18-2 28l3 9-2 4s-1-1-1 1l-1 2c-1 0 1-2-1-2-1 2 1 5-2 6 1-3-1-4-1-6l-2-5c-1 3 1 5 1 7v1l-1 1-1-4-1-2-1 13 1 1-3 8-1 1v3c-1-1 0-3-2-3v3l-1-3c-2 0 0 2-1 3v1l2 1v4l-4 12-1 1v1c-1 0-3 0-3 2l1 7 1 3 7-7v-2l-1-2 1-1c-2-2 0-3 0-5l3-9c2 3 0 6 0 9 0 5-1 9-4 13v1l2-2-4 7 1 1 1-2 2-2c-1 2-3 4-2 6l1-1c2 3 0 6 1 9l-1 2c0 6-3 11-4 17-1 5 1 12-4 15 1 1 2-1 3-2v4l1 2h-1-1c-3-1-5 2-9 1v1c2 1 5 0 7-1l3 1c0 1 0 3-2 4s-5-2-7-3l-2-2 5-2-2-1-4 2c-1-2 1-2 1-4 2-7 1-14 1-22-2-5-1-11-1-16l1-4 2 7-1-11c-2-6-1-13-1-20v-3c-2 1 0 3-1 4-2-2-1-5-2-8l2-1c0-1 2-1 2-3l-1-3v4l-1-2-1-2-1 4c0 1 0 0 0 0l-1-3-1 2v2l-1-1v-3l-1 4v-1l-1-3c-2 0 0 3-1 3h-1v-3l-1 3-1-3-1 2c-1 0 1-3-1-3l-1 3v-3h-1l-1 3-1-4-1 3c-1 0 1-2-1-3-1 1 0 3-1 2l-1-2-1 3 2 2h2l-1 2c1 2 0 4-1 5l1 1v1h1v3l2-2v-1h-1l3-8v7l-1 8c-1 8 0 17-4 23v4l1 1 1-5c1 9 2 18-2 26v2l2-2c-1 3 0 7-3 8l-1 1h2l1 5-1 1-2-1v1l4 2 1 4h-4c-3-1-6-2-9 0l-2-1 2-3 1-3-2-13h2v-2l-1-1c-2-6-3-13-2-20v-2-5l1 1v2l1-3c-1-3-3-5-3-8 1-5-1-9-2-13l-1-15h-1v-4c-2 3 0 6-1 9v-7h-1v-2l1-9 2-10c1-6 3-11 3-17 1-4 0-10 4-13 2 0 1 2 2 3v4l1-1v-5h2l1 10 1-2v-5c0-1 2-3 1-4l-9-1v-2h2l13 2h18l3-1h2l4-1 4 1-1 1c-8-2-16 3-24 2h-7 1l6 1c5 1 10 1 14-1h2l-3 2h3l4-1 1 1 2 4c1 3 3 5 3 8l1 4v-7l1 1 1 9 2-8v-15l-1-4-2-9 2-7 4-2c3 1 3 4 4 6zm-69 2l1-3v3h-1zm0 1v-1 1zm55 3l-2 2c-7 0-13 4-20 4l1 1c2 1 4-1 7-1h1c4-1 8-3 13-3v1l-4 1-7 3-13 1h-1 2l-3-1c-4 2-8-1-12-1l-8-1v-1c4-1 7-2 10 0 4 1 7 2 11 1l8-1v-1l-9 1c-3 0-6 0-9-2h-11v-2h8c6 2 11 1 17 1l-5 1h1l4 1 4-1h3c5 2 9-3 13-3h1zm3 17c-2-1-1-3-2-4l2 4zm0 4v-1 1zm2 5v-3 3zm-42 1l-1-3 1 3zm24 6l-1 6v-7l1 1zm22 8c0 4-2 7-3 11l-8 27c-2 0 0-1-1-2l2-5a7 7 0 000-1l3-9 3-11c1 0 0 0 0 0l3-9 1-1zm0 8zm0 0v5-5zm-3 12v-2 2zm1-1v1-1zm2 2v-1 1zm-2 1v-1 1zm2 4v-2-2 4zm-63 3v-1 1zm21 7l-1 3-1-1 2-2z" class="B D F G"/><use xlink:href="#D" class="C"/><g class="B D"><use xlink:href="#D" class="F G"/><path d="M658 240c-9 5-23 6-23-1-1-7 11-8 15-5l8 6z" class="E"/></g><defs><path id="B" d="M644 372l1 2-5-1h-1l-1 1v-2h6z"/><path id="C" d="M643 375l2 2h-8v-1c1-1 3-2 5-1h1z"/><path id="D" d="M729 495c0 1-2 1-1 2l2 2-4 6h-1l-1-4-1-4 4-1v-1l-1-1 3 1zm-13 67c2 2 4 3 7 3l-2 3-1 1-6-8c0-2 2 1 2 1zm13 4c3 3 6 6 5 11l-1 5c-2 2-5-1-7-1-3-2-5-4-5-7l-2-3c-2-3-7-2-5-6l7 5c2 1 1-2 2-2l3 5c2 1 3 3 5 2l1-2-4-5h1l-1-3h-2l1-4c1 2 3 3 2 5zm-35-1h1l-2 2h-8v-2h3l1-1 5 1zm-10 2l1 1-4 3c-1-2 1-4 2-6l1 2zm14-1c1 2-1 3-2 4l-7 2-2-2v-1l7-1 3-2h1zm27 0c0 3 3 5 4 7-1 1-1-1-2-1-1-2-3-4-2-6zm3 2l-1 1-1-3 2 2zm-43 2v-1 1zm-3 7l-2 1 3-3 2-5c0 3-1 5-3 7zm1-6zm5 2l8-1c0 1-3 0-1 2l2-1-7 5c-3 2-5 6-8 6l-3 1h3l-2 2h-5l-1-7c1-4 6-4 7-8h1v1c-1 2-6 3-3 6h2c3-2 5-4 5-8l2 2zm-8 3l1-1-1 1zm77-181c-1-1-2-2-1-3l1-2v5zm3 6l-2 1c1-3 1-8 4-10l-2 9zm-4-4l-2 6c-1-3 0-5 1-8 0 1 2 1 1 2z"/></defs></svg>