<svg xmlns="http://www.w3.org/2000/svg" width="685" height="457"><path d="M-2513 2322z"/><path d="M0 457h685V0H0v457z" fill="#00287e"/><path d="M324 281h66v-1 18c0 4 1 8-7 10l-40 10-40-10c-8-2-8-6-8-10a9 9 0 001 0h2l1-1h1a5 5 0 011 0 5 5 0 001 0h1l11-1 15-1 15-2 8-2c5-1 3-2 3-2l-4-1-5-2h-4l-3-1-5-1h-3l-4-2-3-1" fill="#9ed9ff"/><g fill="#006fff"><path d="M343 323c2 0 5 1 2 6s6 7 6 7l3-3c-4-3-4-4 1-8s6 5 6 5l4-2v-4c9 1 15 0 23-5-16 5-24-1-24-1l23-6c6-1 10-3 10-11v-78c0-24 9-21 9-21l-10-17c-26 9-31-7-53-7s-27 16-52 7l-10 17s9-3 9 21v78c0 8 4 9 10 11l23 6s-9 6-24 1c8 5 13 6 22 5l1 4 3 2s2-8 7-5c4 4 4 5 0 8l3 4s9-3 6-8c-2-5 0-6 2-6v-5l-40-10c-8-2-8-6-8-10v-69h95v69c0 4 1 8-7 10l-40 10v5m-37-20l9-2 9-1c4-1 15-2 10 0-5 1-3 2 5 1 8 0 13-1 12-2 0-2 0-1-4-1h-5s1-2 4-2h10c2 0 4 2 1 2-2 0-1 2 1 2s3 4-6 3-12 1-18 1c-7 0-14 0-11-1h-15l-9 1 7-1"/><path d="M357 292l9-1h3c-5 1-4 1-1 1l7-1h2l-4 1-10 1c3 0 7-1 2-1h-5-3m33-4h-9l6 1-5 1h7l1 1v2h-3l-8 1h11M346 282l5 1c-3 0-4 0 0 1h7-11l-2-1-1-1h2m23 24l14-2c9-2 1-3-4-4s9-2 7-2h-16c-6 0-1 3 5 4 5 1-7 1-13 2 0 0 2 1-10 1-12 1-20 1-15 2s25 1 11 2l-21 1-9 2 8 1h6l22-2c6-1 18-2 11-3-7 0-11-1-5-1l9-1"/></g><path d="M327 144l-3-1 2 5m6 9l-4-2-3-1v-1a2 2 0 000-2l-1-2c-2-3-3-3-7-4-4 0-7-2-7-2s0 3 4 4l8 4s0 2-3 1h-2a2 2 0 000-1 2 2 0 00-3 0l-4-2c-2-2-6-4-9-4l4 3 3 2a2 2 0 00-2 2 3 3 0 000 1l-3-2a2 2 0 00-2-2l-1 1h-8a6 6 0 002 1c1 0 3 0 4 2v2h-1v-1a2 2 0 10-4 0 2 2 0 001 1 2 2 0 00-1 0l-2 2a2 2 0 002 2 2 2 0 002-2 2 2 0 000-1 2 2 0 001 0v1l2 2-3 1-6 5 5-1c2-1 4-1 5-3l3-5h1a2 2 0 00-1 0 2 2 0 104 0h2s0 3-2 5l-6 5s4 0 6-2l3-4 3-3h1l-1 1a2 2 0 002 2h0l-5 5s2 1 5-1c3-3 4-5 6-5l3-1s0 3-4 5l-5 5 4-2 5-3m-28 111c3 0 4 0 7 2l6 3 5 1 4 1h5l5 1 4 2h3l5 1 3 1h4l5 2 4 1-3 2c-5 0-6 1-8 2l-15 2-15 1-11 1-8 1v-24m22 60c7 6 10 5 18 16-4-9-5-12-10-16 9 6 12 6 18 16-14-42-72-20-87-13 20-5 35 1 43 11l-7-14c13 9 13 8 20 15l-6-14c10 3 18 15 18 15l-7-16m52 0c-7 6-10 5-18 16 3-9 4-12 9-16-8 6-11 6-17 16 14-42 71-20 86-13-19-5-34 1-42 11 0 0 3-9 7-14-13 9-13 8-20 15l6-14c-11 3-18 15-18 15l7-16" fill="#35b336"/><path d="M201 99v-2l1 2m88 124c0-24-9-22-9-22l10-16c8 3 15 4 20 2s0-2-2-7c-1-5-2-5-5-5s-11 4-16 6l-13 4-5-9c-2-2-4-3-5-7l-5-8a696 696 0 01-7-10c1-2 3-1 7-2 4 0 4-4 5-5v-4c-1-4-3-5-5-5l-7-3c-2-3-10-6-12-7-1-1 0-3 2-4h15c3 0 1-1-1-1l-8-2s4 0 14-5 13-14 13-14c-3 4-10 7-12 8-2 0-1-2 0-5s0-2-3 3c-2 4-8 6-11 7s-3 1 0-1c3-3 3-5 4-8 1-4 1-5-2 0-2 5-11 10-13 12-2 1 0-3 1-6s1-3-1-1c-1 3-3 6-6 7-2 2-2 1-2 0 0-6-2-8-3-8v8c0 2-1 1-2 1-1-1-2-3-1-5 5-9 4-15 4-19 0-5-1-1-1-1 0 16-8 20-8 20-2-6-3-5-3-5l-1 4s-7-8-5-15c1-7-1-11-1-11-2 22-18 15-18 15l8 5c-3 10-16 5-16 5 4 8 28 4 28 4l7 6 9 6-1 1c-6-4-12-4-15-3l-6 4c2 7 12 9 12 9-1 3-2 11-1 19 1 9-1 17-1 17l3-2v4c-1 2 1 3 2 3 2 1 2 3 2 3v5l2-2 2 12-2 8v5l2-1-5 15c-2 4-12 10-22 21s-8 21-9 26 3 2 3 2 6 7 6 16-6 15-8 17 0 3-1 7c0 3 0 7 2 10 2 4 1 16 0 20 0 3 0 3 2 4l5 6c3 2 4-1 4-4v-3l-4-5c-3-3-2-12-1-22 1-9 2-8 11-16 10-9 16-24 16-24l10 6c7 5 5 5 3 12v12c2 2 3 4 8 6 4 2 4 2 9 8 4 6 6 7 10 8 4 0 4 2 4 2l7-3c-2-4-5-3-9-4-3 0-4-1-8-5-4-5-7-9-10-16s0-13 5-25c4-12-2-17-2-17l11-11c5-4 11-16 11-19 1-3 1-3 6-3 4 1 2 9 1 15s-1 7 1 9 1 4 0 9c0 4 4 6 7 5v-43m184-99c12-2 21-12 25-17 4-6-1-5-2-3l-4 5c-3 3-5 3-4-1 2-3-3 1-7 4-5 3-5 1-2-2 2-3-1-2-4 0l-9 3s0-2 7-6 17-12 18-16c2-3 1-6-1-1-2 4-5 4-8 1-9 7-8-1-8-1l-3 4c-1 2-3 2-4 1-2-1-2-1-7 3s-9-5-9-9-1-5-2 0c-1 4 0 9 2 15s-2 4-4 3c-3 0-9-5-12-8s-2-3-2 0l1 7s-9-4-12-7-4-1-2 1c1 3 2 9 17 11 14 2 17 5 17 10-18 1-24-6-25-7-2-1-1 3-1 3s-6-2-8-4c-3-3-3 0 0 3 10 13 34 10 34 10l-7 4c-1 2-3 2-5 3-6 0-10 0-15 2-5 3-5 8-4 11s6 3 7 5l5 1 3-3c2 0 3 0 2 2-1 3-8 10-11 13s-2 3-3 5l1 4-2 5c-2 2-4 4-4 6s-5 6-5 6l-18-11c-4-3-4-3-9-3s-8 6-8 12l14-3 10 16-4 2 4 3-8 3-1 14v42c3-2 3-8 2-13 4-1 3-5 2-5-1-1-2-15-1-21 2-6 4-5 7-6 4 0 3 4 4 9l4 9v-4s-1-3 3 2c3 6 23 17 23 17s-4 3-7 12c-3 10 4 21 2 36-2 10-10 20-15 23-5 2-6 5-6 5l6 3 2-3 4-1c3 0 5-6 7-11s10-13 10-13c4-6 3-5 2-8v-10c4-13 16-21 16-21v5c0 11 3 12 13 25 9 13 7 29 6 36s-5 11-5 11l3 8 1-2c1-2 2-6 4-7s2 1 2-7l2-25c2-10 1-8-2-17-4-10-2-11 1-18l5-11s3 0 2-3c0-8-6-14-16-24s-13-20-13-20h1c-2-5 2-2 2-2-2-7 2-14 2-14-3-5-2-7-2-7l2-1c-3-10-2-11-2-11h2v-9h3l2-15c1-8 3-3 0-19 9-3 9-8 9-8s-5-3-11-3-4-3 1-3m-112 1l3 2 1-4 4 4 1-3 3 5 2-2 4 3 2-4s-3-4 0 0 6 4 6 4l1-3 4 4 2-3 4 11 2-1c0 5 2 8 2 8l1-4 2 8 2 5 1-3 3 6c5-40-12-58-18-66-6-7-21-13-31-13-9-1-8 10 0 14 5 4-4 11-4 11l-2-3h-1l1 2v3h-1l-1 3c-1 1 1 3 1 3l-3-3v3l-3-1-1 2-2-1-1 1-3-1-1 3-2-3-2 3-1-3-1 1-1-2-1 4-3-3-2-1-1-3-1 1 1-9 1 1c-7-5-12-9-10-18 2-6-5-13-21 1-18 17-24 50-23 71l4-6 1 2 3-6 1 1s5-5 6-9 0 1 0 1l1 2s1 0 3-2l4-9s0 4 2 5l4-5 2 2s4-1 4-3l1 3 6-5 2 3 3-4 5 3s-2 3 0 7v10l-1 5c0 2 1 4 3 4l6 2 6-1c3-1 3-3 3-4v-4c0-3-1-5 1-5s2-1 3 2l2 6c0 3 0 5 2 6h10c3 0 4-2 5-3v-4l-1-3-3-12-1-9m-36 42v-8l40-1v8l-40 1" fill="#86473f"/><g fill="#ffef6f"><path d="M333 155s2 1-3 4c-4 2-7 2-7 5v3h10l3-1 2 1h2l4-1s2-3-1-5l-5-2-1-3m19 0s1 1-2 3c-4 2-6 2-6 5v3l3-1 1-1 3-4 1 3c-1 2 1 3 1 3h2v-3-3l1 1c1 1 2 1 2 3l1 2 2-1s3-3 1-4c-3-2-6-3-7-6"/><path d="M366 163l11-3v1l3-3h-4v1l-10 2m0 5l15 3v1l4-1-3-2-1 1-15-4M366 164h20v1l4-2-4-1v1h-20m24 118v-52h-95v45c3 0 4 0 7 2l6 3 5 1 4 1h73"/></g><path d="M326 289c2 0 2-1 4 1l1-7 2-7 1 6c0 4-1 6 2 6h4s-2 0-2-3l-1-13v-4l1-3h3l4-1h1l1-1-5-1h-4l-1-2-1-3v-2l1-3-4-2-2 3v2l-1 2-1-1-2 2h-2v-2l-1-2-1-4-1-2-1 3 1 4v4s0 2 2 3h4l1 4v7l-2 9-1 7" fill="#86473f"/><g fill="#b37535"><path d="M253 261l-5 5s6 9 1 21c-4 12 1 16 1 16s-2-9 3-22 4-14 0-20m-60 60c2-4 4-12-1-17l-1 1v11l1 3M201 297c3-11 0-13 3-27 2-14 0-28 6-26s13 6 12 15-7 21-13 29-8 12-8 8m0-28c5-9-1-22 8-27l5-3s-15 1-15 18c-1 18 1 14 2 12m34-56c-8 22-11 30-7 34 4 5 11 4 17-5s10-22 10-25c1-3 1-5 7-2l19 7c4 1 7 0 7 13s-2 11-2 18c1 6 0 12 3 13v-47l-21-9c-3-2-7-22-13-33-5-11-14-19-19-27-6-9-6-13-2-11s8 7 14 8l-5-6c-2-2-3-3-1-3s4 0 4 2-1 2 3 3c3 2 5 0 2-2-4-1-4-5-4-5l6 2 4 3 6-3h-5c-3 0-8-3-9-4s-6-6-13-4-8 3-8 3h-3l2 2s-2 2-3 6c0 4 2 2 2 2l2 8c0 7-2 5-2 10l1 7s1-5 1 0c1 5-1 8 3 14s4 10 4 10l-4-4s2 1 0 9 1 7 1 7 3 1 1 4c-1 4 2 1 2 1s1 0 0 4m-27-85s6-4 10-3c5 2 8 7 8 7s-7 3-10 1l-8-5m-18-16c7 0 10-1 11-6-1 5 3 5-11 6m10-10c-3 0 8-2 9-6 2-4 2-3 0 1-1 5-2 5-9 5m274 183c-7-10-6-13-7-21s-2-8 0-14c2-5 12-8 15 0 2 9 5 14 0 23s-6 17-8 12m-12-22s-4-4-10 7c-6 10-9 9-9 17l1 13h3s-2-8-1-13c2-4 5-11 9-15l7-6v-3M434 216s1 12 9 19c9 7 13 10 17 8 3-3 4-3 0-12-4-10-7-16-7-20v-11l3 4-1-12 3 1-2-8v-7l3 3-2-11-1-2 3 2 1-9 2-10 2-7 1-8 6-1c5 0 11-4 11-4s-6-4-13-2l-8 3s-5-5-9-3c-4 3-7 6-11 6s-11 0-13 3c-1 4-3 6 0 7 0 0 0-4 2-5l6-2s7 0 10-2 5-4 8-3c3 0 6-1 4 3-3 4-7 5-7 5s4 1 1 5c-2 4-5 5-6 7l-5 7 5-1-9 12 5-1-4 3 2 1-7 9s-1 3-4 7l-6 5-3 5s-3 5-9 7l-14 5s-2 5-1 18v19s2-1 2-12-3-21 7-23l26-6c7 0 9 2 5 3l-5 3s2-3 3 2m-51-28s0-8 4-9c5 0 5 0 11 5 5 5 5 9 4 11l-6-9-13 2m63-79s7 0 9 3l3 13s4 3 7 1l6-4c3-3 16-8 16-8s-3-1-1-3 0 1 0 1l-10 4c-2 0-2-2-1-3l-8 3s-2-1-1-4l4-5s-5-1-7 4v11h-3l-2-8-3-12s1 5-1 7c-1 2-8 0-8 0m-25-11l7 7 10 3-5-11 1 8s-10-4-13-7m-2 13l10 6v-4s3 4 9 6 7 2 17 1l-1 2-14-1c-5 0-9-4-9-4l1 3h-4l-9-8m-92 177l2-9 1-7 1-3-1-3v-4-3c1-1 2-4 3-1v4l3-5 1 1-4 5v3l-1 5v5l-2 7-2 5h-1m9-1v-3l-1-8 1-3v3l1 9 1 2h-2m0-34l-2-1h-1v2l1 2h1l2-2-1-1"/><path d="M332 269h4l-2 1h1l-3 2m-10-18l1 3 2 5s-2 0-2-2l-1-6"/></g><path d="M329 101s6-10 2-13l-4-3-1-2h-3c-1 0-2-1-1-4 1-2 4-4 8-2 0 0 3-2 7-1 5 2 9 4 11 10l5 9 4 6h-1l1 2v3h-1v6l-3-3v3l-3-1-1 2-2-1-1 1-3-1-1 3-2-3-2 3-1-3-1 1-1-2-1 4-3-3-2-1-1-3-1 1 1-9 1 1m34 34c4 5 13 9 9 10h-4c-1-2 0 0 0 0l-1 2-4-12m-13 14c-2 0-6 0-6-4 0-2-1-2 1-3 1 0 1-2 2 1 0 0 3 3 3 6m-28 100v-1 1m0 6l-1-4 1-2-1 1 1 3v2m10 26h2l-1-5-1 5m-3-8v-4-3l-1-4h-4c-2-1-2-3-2-3v-2l-5 5c-5 3-5 6-2 6s2-2 6 1 3 3-4 1-5-1-8-1c-3 1-5 2-3 3 3 1 5 2 2 3l-6 1 6 3 5 1 4 1h11l1-8m56-25c-3 1-5 2-6-1-2-3-6-2-8-1l-6 1c-1 0-5-3-3-4 2 0 1-6-5-3-7 2-12 1-7 3 4 2 7 5 2 6l-10 4c-1 1-1 1-3-2s-4-6-7-3c-4 2-3 5-4 6l-3 1-1-4v3a11 11 0 001 2v2h3l1-2 1 1 1-2v-2l2-3 4 2-1 3v2l1 3 1 2h4l5 1-1 1h-1l-4 1h-3l-1 3v4l1 9h52v-35l-5 2m-42 104c-40 1-60-4-93-17-33-12-35 3-45 11l-4 5 2-1h1c33 31 67 62 139 62 70-1 102-32 135-62l3 1-4-6c-10-8-14-20-41-10-33 13-54 18-93 17v17c60 0 84-12 100-19-20 16-46 41-100 39-54 2-85-23-104-39 16 8 43 19 104 19v-17" fill="#fff"/><g fill="#ffb935"><path d="M372 281l1-4a6 6 0 00-6-7 6 6 0 00-6 7 6 6 0 001 4m-17-3h14v-1h-14v1zM359 275l-12-1v1l12 1v-1m1-1l-14-6v1l13 6 1-1m1-2l-11-6-1 1 11 6 1-1m0-1l-11-12v1l11 12v-1m2-1l-7-10h-1l7 11 1-1m1-1l-6-18h-1l6 19 1-1m2 0l-2-12h-2l3 12h1m2 0l1-19h-1l-2 19h2m1 0l3-12h-1l-3 12h1m2 1l9-17-1-1-9 17 1 1m1 1l8-10-1-1-8 10 1 1m1 1l16-12-1-1-15 12v1m1 1l11-6v-1l-11 6v1m1 2l13-3-1-1-12 3v1m0 1l12-1v-1l-12 1v1m0 2l12 2v-1l-12-2v1"/></g><path d="M343 64c25 0 52 6 73 17 0 0 2 0 3-3l2-3s12 10 18 12c0 0-3-6-3-12l14-4c-10-4-23-12-29-19s-17-10-18-4l-2 8s-24-9-58-9-59 9-59 9l-2-8c-1-6-12-3-18 4s-19 14-29 19l14 4c0 6-3 12-3 12 6-2 18-12 18-12l2 3c1 3 3 3 3 3 21-11 48-17 74-17" fill="#ef1439"/><path d="M233 131c3 0 4-2 7-1l6 4 1 1s-2-1-3 0h-6l-2-2-5-1-2-1h5l3 1 2 1c1-1 1-2 2-1 0 0 2 0 1 1v2l1-1h2l-5-3h-7m31 7c-2-1-2 0-4 1l-3 1 3 1 4-1v-2m-54-11l6-1c3 1 5 1 7 3 1 2-4 2-5 1l-8-3m223 17c-3 5-7 1-4-3l3-1 4-2s-4 1-5 3l-1 3h1l2-1v1m12-8l6-4 4 1 2 1-3-1s-1 5-3 1l-3 1-2 1m19-2l3-2 4-1 4 1s-2 2-6 2h-5M330 77l8 4c4 2 1 2-1 1l-1-1h-3v-3l-3-1m-2 89v-4l4-2s-2 0-2 2l-1 4h-2 1m7 0l1-2-1-3c1-1 1-1 1 1l1 4h-2m-12 1l1 1 1-1m6 0l1 2 1 1v-1l1-2h-3m9 0l1 2v-1l1-2-2 1m8 0l1 2 1-2h-2m8 0l2 2 1-2h-3m7 0l1 2v-1l1-2-2 1m-17 95l1-5-1 5m-1 2l-2 17-1 2h-1l1 1-1 4h1l1-5 1-3 2-16m-20 25s2-1 4 0c1 1-1 2-1 2l-3-2m14 0h-2l-3-1m-57 41l-2-3-5 4 2-1-9-1 5 2 2 1h-1l8-2m-81 18h7l-1 4-1 1-5-5m223-14l1-1-6-4-2 3 7 2m58 7l4 3-1 2-3-2v7l-1-6-2-1 3-3m-233 6l1 1h1c1-1 0-2-1-2l-1-1a2 2 0 010-2l3-2 2 3h-2v-1h-1v2l2 1v2c-1 2-2 2-4 2-1-1-2-2-1-4l1 1m7-4h2l-3 8h-2l3-8m13 13l-2-1h-3a4 4 0 01-1-9 5 5 0 014 0c2 1 4 3 3 6l-2 2a2 2 0 001 1v1m5-7l-1 5-1 1 1 1h1l1-2 2-5 1 1-1 5-2 2h-2l-2-1v-3l2-5 1 1m10 2l4 1-1 2-2-1-1 2 3 1-1 1h-2l-1 2h3v2l-4-1v-2l-2-1-2 2-2-1 8-7m6 2h3l2 2v2a3 3 0 01-1 1l-2 1 2 4-2-1-1-4-1 4-2-1 2-8m7 1l2 1-2 8h-1l1-9m4 7l1 1h1l-1-2-2-1v-2c0-1 1-2 3-2l2 3h-2l-1-1h-1l1 2 2 1v2c0 1-1 2-3 2l-2-3h2m9 4v-9h2l2 1a3 3 0 011 2l-1 2-2 1h-1v3h-1m7-8h5l-1 2-3-1v2h3v2h-3v2h3v1h-4v-8m6 0h2l3 6 1-6h1v9h-2l-3-7v7h-2v-9m9 0h2v9h-2v-9m4 0h2l3 7v-7h2v9h-2l-4-6v6h-1v-9m10 7l1 1 1-1-1-2-2-1a2 2 0 01-1-1c0-2 2-3 3-3s2 1 2 3h-1l-1-1-1 1 1 1 2 1 1 2-3 2c-2 0-3-1-3-2h2m7-7v7l1 1 1-1v-7h2v6l-1 2-2 1-2-1-1-2v-6h2m6 0h1l1 7h2v2h-4v-9m8 0h1l4 8h-1l-1-2h-3l-1 3h-2l3-9m6 0l2-1 3 7 2-7h2l1 8h-2v-6l-2 7h-1l-3-6v6h-1l-1-8m17-2h1l5 7-2 1-1-2h-3l-1 2-1 1 2-9m6-1l2-1 4 6 1-6 2-1 1 9h-1l-1-6-1 6h-2l-3-5 1 6h-1l-2-8m19 4l-3 1c-2 1-4-1-5-3s1-5 3-5h3v-1l4-1v2h-2v2h3v1l-2 1v2l2-1 1 2h-4m3-9l2-1 5 5-1-6h1l2 8h-1l-5-4 1 5-1 1-3-8m12-4h1l6 7h-2l-1-1-3 1v2h-2l1-9m5-2h2l5 5v-7l2-1 3 8-2 1-2-6v7h-1l-5-5 3 6h-2l-3-8m-178 32l-1-4c-2-1-3 0-5 2v5c2 1 3 0 4-1l2 2c-2 1-4 2-7 0s-5-5-2-9c2-3 5-3 8-1l2 2v-1l2 1-1 5-2-1m4 9h3l3-5-1-2h-1l1-2 8 5-1 1h-3l-3 5 1 2h1l-1 2-8-5 1-1m14 8h2l3-6-1-2h-1l1-2 7 4c4 1 5 4 4 5 0 2-2 2-4 2l1 3 2 2v1l-5-2-1-5-1-1-1 2c-1 1 0 1 1 2v1l-8-3 1-1m32 5c0-1 0-3-2-3-2-1-3 1-4 3 0 2 0 5 2 5 2 1 3-1 4-2l1 1c-1 2-3 3-6 3-4-1-6-4-5-8s4-5 8-4l2 1h2l1 4h-3m16-1v1l-2 1v6c0 1 0 2 2 2 1 0 2 0 2-2l1-6-1-1h-1v-1l7 1v1h-1l-1 1-1 6c-1 2-3 3-6 2-5 0-5-2-5-4l1-6-2-1v-1l7 1m14 11l2-1v-6l-2-1h-1v-2h8l2 6 3-6h7v1l-2 2v6l2 1v2h-8v-2h1l1-1v-6l-3 9h-2l-4-9v6l2 1v2h-6v-2m26-3l2-1 6 2 2-1-3-1-4-1c-2 0-3-1-3-3l4-4a7 7 0 013 0h2l2 3h-2c-1-1-2-2-4-1l-2 1 3 1 4 1c2 0 3 1 3 2 0 2-2 4-5 5h-5l-3-3m20-1h1l1-2-2-6-1-1h-1v-1l7-2c3-1 7-1 7 2 1 2-3 4-6 5h-1l1 2 2 1 1-1v2l-8 2-1-1m21-6v-1c1 0 2 0 1-1l-2-6-2-1v1l-1-2 8-3 1 2h-1c-1 0-2 1-1 2l2 5 2 1h1v1l-8 3v-1m21-16c-1-1-2-2-4-1s-1 3-1 5c1 2 3 4 5 3l1-4h3c0 2-1 4-4 6-3 1-7 1-9-3-1-4 1-7 4-8h2v-1l1-1 4 3-2 1m11 1c1-1 2-1 1-2l-4-5h-2l-1-1 10-7 4 2-2 1c-2-1-4 0-5 1l-1 1 2 2h1v-2l2-1 2 4-1 1h-1l-1-1-1 1 2 3 1-1c2-1 3-2 3-5l2-1v4l-10 7-1-1"/><path d="M274 62l6-2 1 2-4 1 1 3 3-2 1 2-4 2 1 2 4-1v2l-5 2-4-11m21 5l-3-11h6l2 2-1 3-3 1v1l1 4h-2m6-13h2l2 9 3-1 1 2-6 1-2-11m10-2l1 7v1l2 1a2 2 0 001-1v-2l-1-6 2-1 1 7v3l-3 2-3-1-1-3-1-6 2-1m8-1h6c1 1 2 1 2 3l-1 2-2 1 4 4h-3l-3-4v5h-2l-1-11m10-1h2v11h-2V50m5 0l2-1 3 1 1 2-1 2 2 3-1 3h-3l-3 1V49m12 0l-1 7 1 2 1 1a2 2 0 001-1l1-2v-7h2v7l-1 3-3 2-3-2-1-3 1-7h2m9 9l1 1 2-1-2-2-2-1a3 3 0 010-2c0-2 1-3 3-3s3 1 3 3h-2l-1-1-1 1c-1 1 0 1 1 1l2 1 1 3c0 2-2 3-4 3s-3-2-3-3h2m20-6l-1 7v2l1 1a2 2 0 001-1l1-1 1-7h2l-1 7-1 3-4 1-2-2v-3l1-7h2m8 2l3 1 2 8 2-7h2l-3 11-2-1-2-9-2 8h-2l2-11m14 4l-2 6v2l1 1h1l1-2 2-6h2l-2 7-2 2-3 1-2-2v-3l2-7 2 1m8 2l3 1v9l5-7 3 1-4 11-2-1 3-8-5 7-2-1v-8l-3 7h-2l4-11M295 219h1l1-2v-11l-4 4-2-1 3-5h11l2 5-2 1-4-4v11c0 2 1 2 2 2h1v2h-9v-2m21-15v2h-1l-1 2v8c0 2 1 3 2 3 2 0 2-1 2-3v-8l-1-2v-2h6v2h-1l-1 2v8c0 4-3 5-5 5-6 0-6-3-6-6v-7l-2-2v-2h8m9 15c1 0 2 0 2-2v-9l-2-2v-2h12l2 5-2 1c-1-3-3-4-6-4v5h1l1-1v-1h2v7h-2v-1l-1-1h-1v5h1c3 0 4-1 6-4l2 1-3 5h-12v-2m16 0h1l1-2v-9l-1-2h-1v-2h6c4 0 8 1 8 5 0 2-2 3-5 3 4 0 6 2 6 4 0 4-4 5-7 5h-8v-2m24-15c5 0 7 4 7 9 0 4-2 8-7 8-4 0-7-3-7-8 0-6 3-9 7-9m9 15c2 0 2 0 2-2v-9c0-1 0-2-2-2v-2h8c4 0 7 3 7 5 0 3-2 4-4 5l2 3 2 2h1v2h-6l-3-7h-1v3c0 2 1 2 2 2v2h-8v-2M263 352l1-2c1-1 0-3-2-3a3 3 0 00-2 0l-1 1v2l2 2h2m16 3v-2l-2 2h2m9 1h2l-1-1-1-1h-1v2h1m20 3h1l1-1-1-1h-1l-1 2h1m57 2l-1-3-1 3h2m40-6c0 1 1 2 3 2l2-4-3-2c-2 1-3 2-2 4m24-7l-2-2v3l2-1m-150 41h4c0-2-1-3-3-3v-1l-2 4h1m105 6h1c1 0 3-1 2-2 0-2-2-2-4-1l1 3m4-37l-1-2-1 3 2-1" fill="#fff"/><path d="M296 61l1-1 1-2-2-1-1 1v3h1m27-5l1-1a2 2 0 001-1l-1-1-2-1-1 1 1 3h1m14 2h2v-1l-1-1h-2v3l1-1m-1-4l2-1v-1-1h-2v3" fill="#ef1439"/><path d="M348 211l2-2-2-2h-1v4h1m0 8c2 0 3-1 3-3s-2-2-3-2h-1v5h1m17 0c2 0 3-4 3-6s-1-7-3-7-2 4-2 7 0 6 2 6m16-7c2 0 3-1 3-3s-1-2-3-2h-1v5h1" fill="#006fff"/><g fill="none" stroke="#000" stroke-width=".9"><path d="M204 344s1 1 0 3c0 3-1 6-4 4l-5-6c-2-1-2-1-2-4 1-4 2-16 0-20-2-3-2-7-2-11 1-3-1-4 1-6s8-8 8-17-6-16-6-16-4 3-3-2-1-15 9-26 20-17 22-21l5-15-2 1v-5l2-8-2-12-2 2v-5l-2-3c-1 0-3-1-2-3v-4l-3 2s2-8 1-17c-1-8 0-16 1-20 0 0-10-1-12-8l6-4c3-1 9-1 15 3l1-1-9-6-7-6s-24 4-28-4c0 0 13 5 16-5l-8-6s16 8 18-14c0 0 2 4 1 11-2 7 5 15 5 15l1-4s1-1 3 5c0 0 8-4 8-20 0 0 1-4 1 1 0 4 1 10-4 19-1 2 0 4 1 5 1 0 2 1 2-1v-9c1 1 3 3 3 9 0 1 0 2 2 0 3-1 5-4 6-7 2-2 2-2 1 1s-3 7-1 6c3-2 11-7 13-12 3-5 3-4 2 0-1 3-1 5-4 8-3 2-3 2 0 1s9-3 11-7c3-5 4-6 3-3s-2 5 0 4c2 0 9-3 12-7 0 0-3 9-13 14s-14 5-14 5l8 1c1 0 4 2 1 2h-15c-2 1-3 3-2 4 2 1 10 4 12 7l7 3c2 0 4 1 5 5v4c-1 1-1 5-5 5-4 1-6 0-7 2l-1 1m-51-53v-2l1 2m50 53l8 9 5 8c1 4 3 5 5 7l5 9 13-4c5-2 13-6 16-6s4 0 5 5l2 7m-28 16l-4 5-1 6 12 4m0 48c-3 1-7-1-7-5 1-5 2-7 0-9s-1-2-1-9 3-14-1-15c-5 0-5 0-6 3 0 3-6 15-11 19l-11 11s6 5 2 17c-5 12-8 18-5 25s6 11 10 16c4 4 5 5 8 5 4 1 8 0 9 4m-7 3s0-2-4-2-6-2-10-8c-5-6-5-6-9-8-5-2-6-4-8-6v-12c2-7 4-7-3-12l-10-6s-6 15-16 24c-9 8-10 7-11 16-1 10-2 19 1 22l4 5m73-116l-6-2c-2-1-4-2-7-1-4 0-11-4-11-4m25-8l-11-5-5-6m13-17l3 6 2 11-1 4m-53 71l2-14c-1-5 2-9 2-9"/><path d="M253 261l-5 6c-1 1-3 4-8 5l-9 3m-31-172s5 2 7 6c0 0-5 1-4-3m17 5s-2 2-3 0m10 5l5 2 6 6m10-12l-6 4c-2 2-3 1-3 4l2 4m23 20l-5 1-4 3h-4m131 40c0-6 2-12 8-12s5 0 9 3l18 11s5-4 5-6 2-4 4-6l2-5-1-4c0-2 0-2 3-5s10-10 11-13c1-2 0-2-2-2l-3 3-5-1c-1-1-6-1-7-5-1-3-1-8 4-11 5-2 9-2 15-2l5-3 7-4s-24 3-34-10c-3-3-3-6 0-3l8 4s-1-4 1-3c1 1 7 8 25 7 0-5-3-8-17-10-15-2-16-8-17-11-2-2-1-4 2-1s12 7 12 7l-1-7c0-3-1-3 2 0s9 8 12 8c2 1 6 3 4-3s-4-11-2-15c1-5 2-4 2 0s5 13 9 9 5-4 6-3c2 1 4 1 5-1l3-4s-1 8 8 1c3 3 5 3 8-1 2-5 3-2 1 1-1 4-11 12-18 16s-7 6-7 6l9-3c3-2 6-3 4 0-3 3-3 5 2 2 4-3 9-7 7-4s0 5 4 1l4-4c1-3 6-4 2 2-4 5-13 15-25 17-5 0-7 3-1 3s11 3 11 3 0 5-9 8c3 16 1 11 0 19l-2 15h-3v9h-2l2 11-2 1 2 7s-4 7-2 14c0 0-4-3-2 2m-1 0s2 11 13 20 16 16 16 24c1 3-2 3-2 3l-5 11c-3 7-5 8-1 18 3 9 4 7 2 17-2 11-2 18-2 25s0 6-2 7-3 5-4 7l-1 2-3-8s4-3 5-11c1-7 3-23-6-36s-13-14-13-25v-5s-12 8-16 21v10c1 3 2 3-2 8l-10 13c-3 5-4 11-7 11-4 0-3-1-4 1l-2 3-6-3s1-3 6-5c5-3 13-13 15-23 2-15-5-26-2-36 3-9 7-12 7-12s-20-11-23-17c-4-5-3-2-3-2v4s-3-5-4-9c-1-5 0-9-4-9-3 1-5 0-7 6-1 6 0 20 1 21s2 4-2 5c1 5 1 11-3 13m2-56l8-3-4-3m4 3l8-3 1-5 2-4 6-3 3-3"/><path d="M418 192l1-4m3-3s1 2 4 0m2-13s1 2 3-1l4-5m-26 54l25-5m28 50s1-4-1-9m-31-106s2 2 4 0 4-5 9-3m31-10h-3l-5 1m-191 17c-1-21 5-54 23-72 16-13 23-6 21 0-2 9 3 13 10 18 0 0 6-10 2-13l-4-3-1-2h-3c-1 0-2-1-1-4 1-2 4-4 8-2 0 0 3-2 7-1 5 2 9 4 11 10l5 9 6 9s9-7 4-11c-8-4-9-15 0-14 10 0 25 6 31 13 6 8 23 26 18 66l-3-6-1 3-2-6-2-7-1 4-2-8-2 1s-2-4-4-11l-2 3-4-4-1 3s-3 0-6-4 0 0 0 0l-2 4-4-3-2 2-3-5-1 3-4-4-1 4-3-2m-87 30l4-6 1 2 3-6 1 1s5-5 6-9v1l1 2s1 0 3-2l4-9s0 4 2 5l4-5 2 2s4-1 4-3l1 3 6-5 2 3 3-4 5 3s-2 3 0 7v10l-1 5c0 2 1 4 3 4l6 2c3 1 4-1 6-1 3-1 3-3 3-4v-4c0-3-1-5 1-5s2-1 3 2l2 6c0 3 0 5 2 6h10c3 0 4-2 5-3v-4l-1-3-3-12-1-9m-83 24c0-2 1-23 6-34m-2 30c0-2 2-21 6-28m1 19c1-5 1-9 4-16m4 10l2-6m4 5l1-3m104 26l-2-14-1-8m-2 12l-1-10-2-9m0 15l-4-18m-2 8l-4-10m-2 9l-2-7m-6 5l-1-4m-52-21l-2 9 2-1 1 3 2 1c2 0 3 3 3 3l1-4 1 2v-1l2 3 2-3 2 3 1-3 2 1 2-2 2 2 1-2 3 1v-3l3 2-1-2 1-3h1v-3l-1-2"/><path d="M326 83l6 1m-40 26c0 2 0 6 5-1m-3-5c0 2-1 5 4-1m0 8c0 2-1 5 4-1m2-4c0 2-1 5 4-1m-7-2c0 2 0 5 4-1m-7-7c0 2 0 5 5-1m-1 22c0 2 0 5 5-1m2-13c0 3-1 6 4 0m-2 9c0 2 0 5 5-1m-4 9c0 2 0 5 4-1m3-5c0 2 0 5 4-1m-19-1c0 2-1 5 4-1m-16-11c0 2 0 5 4-1m-8 8c0 2 0 5 4-1m7-15c0 2 0 5 5-1m90 21c0 2 0 6-4-1m3-5c0 2 0 5-4-1m0 8c0 2 0 5-4-1m-2-4c0 2 0 5-4-1m6-2c0 2 1 5-4-1m7-7c0 2 1 5-4-1m0 22c0 2 0 5-4-1m-2-13c0 3 0 6-5 0m2 9c0 2 0 5-4-1m4 9c0 2 0 5-5-1m-3-5c0 2 1 5-4-1m20-1c0 2 0 5-4-1m15-11c0 2 1 5-4-1m8 8c0 2 1 5-4-1m-7-15c0 2 1 5-4-1m-20 47c4 4 13 8 9 9h-4c-1-2 0 0 0 0l-1 2m-17 2c-2 0-5 0-6-4m-11 10s2 1-3 4c-4 2-7 2-7 5v3h10l3-1 2 1h2l4-1s2-3-1-5l-5-2-1-3m18 0s2 1-1 3c-4 2-6 2-6 5v3l3-1 1-1 3-4 1 3c-1 2 1 3 1 3h2v-3-3l1 1c1 1 2 1 2 3l1 2 2-1s3-2 1-4c-3-2-6-3-7-6m-95-81l-3-8c-1-3-5-5 2-8s19-4 18-11m-22 15c1 3 2 3 6 1l19-8m59 8c25 0 52 6 73 17 0 0 2 0 3-3l2-3s12 10 18 12c0 0-3-6-3-12l14-4c-10-4-23-12-29-19s-17-10-18-4l-2 8s-24-9-58-9-59 9-59 9l-2-8c-1-6-12-3-18 4s-19 14-29 19l14 4c0 6-3 12-3 12 6-2 18-12 18-12l2 3c1 3 3 3 3 3 21-11 48-17 74-17h0z"/><path d="M421 75l3-8c1-3 5-5-2-8s-19-4-18-11m22 15c-1 3-2 3-6 1l-19-8m-63 103l17-1m5 0h6v4m-3 4h-4m-3 0h-5m-3 0l-6 1m-16-6v-2h4m2-2l-4-2h-3v-2s0 0 0 0v-2l-1-2c-2-3-3-3-7-4-4 0-7-2-7-2s0 3 4 4l8 4s0 2-3 1h-2v-1a2 2 0 00-3 0l-4-2c-2-2-6-4-9-4l4 3 3 2a2 2 0 00-2 2v1l-3-2a2 2 0 000 0 2 2 0 00-3-1h-8a6 6 0 002 1c1 0 3 0 4 2v2h-1v-1a2 2 0 10-3 1 2 2 0 00-1 0l-2 2 2 2a2 2 0 002-2v-1a2 2 0 001 0v1l2 2-3 1-6 5 5-1c2 0 4-1 5-3l3-5h1a2 2 0 00-1 0 2 2 0 104 0s0 0 0 0a14 14 0 012 0s0 3-2 5l-6 5s4 0 6-2l3-4 3-3h1l-1 1a2 2 0 002 2h0l-5 5s2 1 5-1c3-3 4-5 6-5l3-1s0 3-4 5l-5 5 4-2 5-2m4-20l-3-1 2 5m40 15l11-3v1l3-3h-4v1l-10 2m0 5l15 3v1l4-1-3-2-1 1-15-4m0 0h20v1l4-2-4-1v1h-20m-23 155l-40-10c-8-2-8-6-8-10v-69h95v69c0 4 1 8-7 10l-40 10m-8 18s9-2 6-7c-2-5 0-6 2-6"/><path d="M325 329s2-7 7-4c4 4 4 5 0 9m33-6v-4c9 1 15 0 23-5-16 5-24-1-24-1l23-6c6-1 10-3 10-11v-78c0-24 9-21 9-21l-10-17c-26 9-31-7-53-7s-27 16-52 7l-10 17s9-3 9 21v78c0 8 4 10 10 11l23 6s-9 6-24 1c8 5 13 6 22 5l1 4m32 5c-4-3-4-4 1-8s6 4 6 4m-18-6c2 0 5 1 2 6s6 7 6 7m-56-62c3 0 4 0 7 2l6 3 5 1 4 1h5l5 1m12 3l3 1h4l5 2 4 1s2 1-3 2c-5 0-6 1-8 2l-15 2-15 1-11 1-8 1m95-17h-52m-4 0h-2m-5 0h-4m3 8c2 0 2-1 4 1l1-7 2-7 1 6c0 4-1 6 2 6h4s-2 0-2-3l-1-13v-4l1-3h3l4-1h1l1-1-5-1h-4l-1-2-1-3v-2-3c0-1-1-2-3-2l-2 3v2l-1 2-1-1-2 2h-2v-2l-1-2-1-4-1-2-1 3 1 4v4s0 2 2 3h4l1 4v7l-2 9-1 7zm5-6l3 1m-17 50c7 6 10 5 18 16-4-9-5-12-10-16 9 6 12 6 18 16-14-42-72-20-87-13 20-5 35 1 43 11l-7-14c13 9 13 8 20 15l-6-14c10 3 18 15 18 15l-7-16zm52 0c-7 6-10 5-18 16 3-9 4-12 9-16-8 6-11 6-17 16 14-42 71-20 86-13-19-5-34 1-42 11 0 0 3-9 7-14-13 9-13 8-20 15l6-14c-11 3-18 15-18 15l7-16zm108 11c-10-8-14-20-41-10-33 13-54 18-93 17-40 1-60-4-93-17-33-12-35 3-45 11m274 4c-11-5-15-9-31-2-15 6-37 20-105 21-68-1-94-14-110-21s-20-2-31 3"/><path d="M443 350c-19 15-46 41-100 39-55 2-85-23-105-39m240 0c-33 30-65 61-135 62-72 0-106-31-139-62M326 83l6 1"/></g></svg>