<svg xmlns="http://www.w3.org/2000/svg" height="458" width="687"><style>.B{fill:#6f513e}.C{fill:#fff}.D{fill:#36e218}.E{fill:#ffe84f}.F{fill:#ffd1d1}.G{fill:#9ed9ff}.H{fill:#3e6f3e}.I{fill:#3c3c9e}.J{fill:#ff163c}.K{fill:#c5c5c5}</style><path d="M0 458h687V0H0v458z" fill="#002664"/><g class="E"><path d="M343 91c2 5 1 8 1 14l-1 7v1l-1-21v-1h1M343 95v-4 4m-2 3l1 13-1 2-2-16v-1l2 2"/><path d="M341 103v7l-2-13 2 6m6-5v5l-2 10-1-1 2-12v-3l1 1"/><path d="M347 97l-1 6v2l-1 2v1l2-11m-10 2l1 2 2 13v1l-4-14 1-2"/><path d="M337 102l2 9-3-11 1 2m14-1l-5 13h-1l4-13 1-1 1 1M350 101l-4 10 4-10m-14 3c0 4 2 8 3 11l-1 1-5-13 1-2 2 3"/><path d="M335 104l2 7-4-9c2 0 1 1 2 2m18-1v2l-6 11h-1l6-14 1 1"/><path d="M353 104l-5 9 4-10 1 1m-17 9l2 5-2-3-6-11h2c2 2 2 6 4 9"/><path d="M334 109l2 5-5-9v-1c2 1 2 4 3 5m21-4c1 2-1 3-1 4l-6 8v-1l4-7 3-4"/><path d="M355 106l-6 9 6-10v1m-26 0l8 13h-1l-8-11v-2h1"/><path d="M330 108l5 8-7-9v-1l2 2m28-1l-1 2-7 9-1-1 8-11 1 1"/><path d="M353 114l4-7v1l-4 6m-28-6h1M325 107c-1 2 1 2 1 3l9 9c0-2-2-3-3-4l-6-7-1-1M325 108l6 6-5-5-1-1m35 1l-2 3-7 7v-1l8-10 1 1"/><path d="M359 110l-7 7 7-8a2 2 0 010 1m-36-1l11 11v1l-12-11v-1h1"/><path d="M324 111l7 6-9-8 2 2m-4 0l11 9-13-8 1-1h1"/><path d="M320 111l7 6-9-5 1-1h1m44 0l-4 4-8 5 10-9h2"/><path d="M363 111c-3 4-6 6-10 8l10-8m4 2c-2 3-5 3-8 5l-5 3 11-9 2 1m-37 8c-6-1-11-5-16-7l1-2 15 9"/><path d="M328 120l-14-6 1-1 13 7m38-7l-8 5-2 2 10-7M331 114v1-1m40 1l-3 2-12 5h-1l4-3 10-5 2 1m-42 7l1 1-20-7v-1l19 7m41-7l-1 1-10 4 11-5"/><path d="M324 121l-14-5v-1c5 2 10 3 14 6m52-5l-1 2c-4 1-6 3-10 3l-3 1 10-2 1 1v1l-16 3c-1 0 0-2-1-1v-1l5-2 14-5h1"/><path d="M375 117l-1 1-9 3-4 1 14-5m-48 6l2 1c-5-2-11-2-17-3v-2h3l12 4"/><path d="M321 122h2l-10-1-1-1a4 4 0 012 0l7 2m52-1l-9 2h-1l8-2h2m-52 2l4 1 4 1h-3l-11-1-1-1h7"/><path d="M321 124l-7-1h2l5 1m42-1l-4 1 4-1m9 2l-1 1h-13-1l1-1h3l10-1 1 1M371 125h-9 9m-50 1h9l-4 1h-10v-1h5"/><path d="M323 126h5l-10 1h-1v-1h6m46 1v1c-2 2-5 1-8 0h-7 2l3-1h10m-1 1h-11l9-1 2 1m-37 0l-4 1-9 2-1-1 1-1 12-1h1"/><path d="M329 129l-12 1 12-2v1m26 2h2l3 1 7 1v-1l-2-1-11-2-1 1 2 1"/><path d="M356 130l8 1 3 1h-2l-5-1h-2s-1 0 0 0l-4-1h2M329 130v1h-1l-10 3h-1l1-2 9-2h2c1 0 0 0 0 0"/><path d="M328 130l-10 4 1-1 9-3m3 1v1c-3 1-5 4-8 4l-2 1-2 1v-2c3-2 6-1 9-4l3-1M360 133l6 2v1c-3 1-5-2-8-2l-4-2h3l3 1m-30 1l-5 5-2 1-1 1h-2v-1l7-5 2-1c1-2 2 0 1 0M358 133h1-1"/><path d="M366 135v1c-3 0-5-2-7-3l7 2m-46 2h-1l1-1 6-2c-1 2-4 1-6 3m41 0l5 2v1l-5-2-7-3 2-1 5 3m-31 0l-7 8h-2v-1l9-8 1-1c1 1-1 2-1 2m-8 3h-1l7-5-6 5m44 0l-5-2-4-3 9 5m-1 3v1c-1 1-2-1-4-1l-7-6v-1l11 7m-6 2l-1-1-6-6c3 2 6 4 7 7m-27-6l-10 11h-1l-1-1 12-11v1m32 5l-8-6 8 6M345 138l3 9h-1l-2-4v-5m-17 1l-7 6 7-6m16 1l1 8h-2v-9l1 1m12 5h-2l-3-4-1-1h1l5 5m-15-5v9h-1v-4l1-5m14 5h-1l-3-5 4 5"/></g><path d="M367 145l-6 1c-5 0-9 1-14 3-7 2-15 4-22 4l-1 1-10 1 2-5-1-1-1-1h1-2c-3-1-6-1-9 1v3l2 6v12c4 2 8 4 11 4 9 1 17-2 25-4l12-3 12-2-4 6c2 2 5 2 7 2s4-2 4-3l1-7c2-4 6-8 6-13l-7-4-6-1z"/><g class="E"><path d="M339 141l-1 9h-1l1-7v-2h1m8 6v-1l-2-5 2 6m12-3h-1l-3-3 4 3m-7 2l-1 1-2-3-1-3h1a14 14 0 013 5m-18-4l-3 7c-1 1-1 4-3 3 1-4 3-7 6-11v1m10 6l-1-7 1 7m-8-6v2l-1 2-1 5h-2l3-9h1m15 4l-1-1-1-3 2 4"/><path d="M325 152h0l4-7 3-4-7 11" stroke="#ffe84f" stroke-width=".5"/><path d="M321 150l1-2 5-5-6 7m19-1l1-5-1 5m-3 1l1-6-1 6m-8 2h-1l4-7-3 7"/></g><path d="M375 147c2 1 5 2 4 5-2 5-6 10-6 15-4-4-9-3-14-2l-10 3-14 4c-7 2-13 2-20 1-3 0-6-1-8-3v-1l3 1-3-1v-2h2l-2-1v-1h3l-3-1v-1l2 1-2-2v-1l2 1c0-1-3-1-2-3l2 1c-1-2-3-1-3-3h2l-2-1-1-2 3 1h5v1l1-1 17-2 18-4 15-3h8l3 1" class="J"/><g class="E"><path d="M334 147h1v-1h-1v1zM334 151h-1v-1l1-2v-1 4"/></g><path d="M315 149v1c-2 1-4 2-7 1l-2 3-1-1v-4c2-1 4-2 7-1l3 1" class="J"/><path d="M372 151v7c-1 2-3 4-6 4-2 0-4-2-5-4-2-2-2-5-1-7a9 9 0 016-3c2 0 5 1 6 3"/><path d="M371 151c2 2 1 5 0 7s-3 3-5 3l-4-2c-2-2-2-6-1-8 3-2 8-4 10 0" class="C"/><path d="M358 150v4l-2-1h-3c-3 1-1 5-1 7l2 1 1-1c1-2 0-3-1-5h1c1 1 4-1 4 2l1 4-1 1h-1c-2 2-5 1-7 0l-3-3c-1-2 0-4 1-6l1-2h1c2-2 5 0 7-2v1"/><path d="M358 150v3l-2-1h-4c-2 2-1 6 0 8l3 1c2-1 1-4 0-5h3l1 5c-2 1-6 3-9 1l-2-6c0-2 2-5 4-5l6-1" class="C"/><path d="M369 152c0 3 1 6-2 7h-2c-2-2-2-5-1-7 0-1 1-2 3-2l2 2"/><path d="M368 152c0 2 1 6-1 7h-2l-1-7 3-1 1 1m-55 3l-6-1 2-3h6l-2 4" class="J"/><path d="M346 153l1 9 1 2-4 1v-3l-2-7-1-1 5-2v1"/><path d="M346 162l2 2-3 1-2-10-1-1 4-1v9" class="C"/><path d="M341 156v5l-1 2 4 1-3 3c-2 1-4-2-6-3v1l1 3-3 1-1-1-1-7v-4h-1l1-1c3-1 7-2 10 0"/><path d="M341 157v4c-1 2-2 1-4 2h2l4 2-4 1-4-3-1 1 1 4h-3l-1-11 6-2 4 2" class="C"/><path d="M329 156l-1 2 1 10s2 0 1 1l-1 1h-4l1-1-2-10-1-1c1-2 3-1 5-2h1"/><path d="M327 158l1 9 2 2h-4l-1-11h-1l2-1c0 1 2-1 1 1" class="C"/><path d="M337 158l1 2-3 2-1-4c1-1 2-2 3 0m-15 3c2 2 1 5 0 7l-4 2h-5l-1-1h-1l1-1v-10h-1v-1c4 1 10-1 11 4"/><path d="M337 158c1 1 0 2-1 3h-1l-1-3h3" class="J"/><path d="M320 159c2 1 3 4 2 6l-2 4h-7v-2l-1-9 8 1" class="C"/><path d="M319 160l2 5-3 3h-2l-1-2v-7l4 1m-45 25h-1v1"/><path d="M268 159h-1l-6 3c-2 1-1 2-1 4l-5 2c-3 2-3 5-3 8-1 1 0 2 1 3l5 2h2l1 3h-1l-3 1-7 2c-2 1-4 4-7 4-2 0-3 3-6 3-2 0-3 2-3 4s-1 3 1 4c1 5 4 11 8 15-4 4-8 8-10 14l-1 2h1l13-11 2 4h-2l1 2h2l1-1v1l1 12c-1 5 1 10 2 14 1 5-2 11 0 16l2 13v8h-1v5l3 1-1 4-3 4-1 1h-15l-2 3a229 229 0 007 27l1 2h4c2 0 1-2 1-4l19 1-2 2 1 2c6 5 11 9 17 12l16 8 16 6 3 1 13 1h23l9-2 10-3c8-2 17-5 25-10 5-3 11-6 16-11 1-1 0-2-1-4h18c-1 1 0 2 1 2 1 1 3 2 4 1l2-2c1-8 4-16 6-23v-1l-1-4-5-2 5-5c4-3 5-8 8-11l2-1c3-1 1-6 1-9l-1-6-1-2-5 7c-1 2-3 4-2 7l2 2c-2 4-5 10-10 10l-1-1-1-13 1-17c0-2-1-3 1-4l1 1 1-2h1l1-2h2v1l1-1v-2l2 2v-1l-1-2 1 1h1l-3-2 1-3v-5l-1-2v-4l1-2-1-3v-3c0-2 2-1 3-2h4v-6l-9-1c1-2-1-1-2-2 3-3 3-8 2-11-3-6-1-13-4-19l-5-4h-3l-2-1-5-4-1-1 2-1 3-4 5-3-1 3 2 1 1-1v-1c-2 0 0-2 0-3l-3-4-1-1c1-1 2 0 3 1l2-1v-2h-8l-1 1h-1v-5l-11-2-3 3c0 1 0 3-2 3-2 1-6 1-7 5 1 2 3 5 5 5l3 4 1 5 1 1-5 2c-1 2-3 2-5 3l-3 2c-4 6-3 13-6 19l-3 2-2-1-2 1 4-9c2-2 2-6 2-8l-1-3-4-3-4 3v2c-4-2-7-6-10-9-5-3-9-8-15-9h-9l-1-2c-2-1 0-3-2-3l-2-1-2-1-3 1v1l-1-1-2 1v2h-1l-1 2h-4l-9 3-10 7-12 9-3 1v-1c1-1 0-3-1-4l-3-1c-2 0-3 2-4 3l-4-8c-2-4-6-3-9-3l-1-1h-1l1-7v1l4-3 2-6-5-9h-6s1 0 0 0v-2h-1zm-18 45v8l-2 1-4-7c2 0 4 0 6-2zm28 7l8 2v-1 1l-1 19-1 7c-2-4-4-8-4-12l-1-5v-1l1-1-2-8v-1zm15 1l4 8h-4l-2-2 1-5 1-1zm-1 12c3 1 3 4 4 6 0 3 0 8-3 10h-1v-2c-1-1-1-3-3-2l1-11 2-1zm148 10h1-1l-1 3 1 3-1 2v2c2 0-1 2 1 3l-1 2c2 0-1 2 1 3v3l-1 2c2 0 0 2 1 3l-1 1v1h-3v-1-24-2l3-1h1zm-37 2l-3 12a65 65 0 00-1 11c-2-4-3-9-7-12 3-1 4-3 5-6 0-3 4-3 6-5zm-14 1v3l1 1 2 1-4-1h-1v-1l1-2 1-1zm-120 14l4 17c2 6 5 12 5 18v2l1 1-3 8-4 9h-5v-5-5a2 2 0 001 0l1-5-1-6c-2-6-1-11-1-17 1-5 0-11 2-17zm131 22l9 10c0 2 1 2 2 3 1 2 0 5 2 6h1c0 3 1 7-1 10 0 1-2 1 0 1v1c-2 2-6 1-6 4a272 272 0 00-21 1c0 2 2 2 2 3l2 7 1 1-9 5-12 5-15 4-13 2-19-3c-8-1-15-5-22-9-4-1-7-3-11-6l-2-1 1-2 3-6v-2h1l5 5 2 2c3 3 6 7 10 7 2 2 5 2 7 3h1l3 1h11l1 1c3 1 5 5 9 3h2l2-2 2-2h3c5 1 9 1 14-1 6-1 10-5 15-10 3-4 8-8 10-13l1-1 1-1c4-7 5-14 7-22l1-4zm-120 24l1 9h-5l4-9zm8 8l1 1h-1v-1z"/><path d="M260 166v-1l4-2-4 1v-1l3-1-3 1 6-3h3c1 2-2 2-2 3l-3 2-4 1" class="E"/><path d="M319 161l1 4-2 3h-2v-8l3 1" class="J"/><path d="M274 162l3 3-3-1 2 2 1 1h1c1 2 2 4 1 6 0-3-2-6-5-7l2 1c2 2 3 5 2 8l-1 1c1-3 0-6-2-7l-2-2 1 1c3 2 3 5 3 8h-1 1-1v-4l-3-2c1 1 4 3 3 5v2l-2 1-1-6c-2-3-6-3-9-2s-5 4-6 6l1 4h-2v-4l2-4-1-1-2 7 1 2-2-1 2-8h1l-1-1c-2 3-2 6-2 9l-1-1 1-3h-1l-1 3h1l-1-2 2-4v-1l-3 6v-2c1-2 0-4 2-5l7-4c-1 1-3 1-3 3l6-3c2-1 4 0 5-2h-2l-2 1c1-1 3-1 3-3 2-1 4-2 6 0" class="E"/><path d="M425 166v4h-3l-2-1h-9l2-5h8l4 2" class="C"/><path d="M371 167l-2 2-3-1-2 1 2-4c2 0 4 0 5 2m2 2l-2 3c-2 1-6 1-8-1l3-2h3v2l3-4 1 2" class="J"/><path d="M266 168l-4 1-2 1h-1c2-2 4-2 7-3v1"/><path d="M429 172l2 1 2 2-1 1-5 4c-1-3-2-7-5-8-6-1-12-1-15 4l-1 2c-2-1-3-3-3-5l7-4 14 1 5 2" class="C"/><path d="M434 170h1l-1 1c-2 1-3-2-4 0h-1l-2-1 2-1c2 0 3 2 5 1" class="I"/><path d="M273 173v4l-2 2 1 1-1 1h-1l2 2-2-1c-1 1 2 2 1 3h-1l-1-2v2l-1-2v2h-1v-2c-1-1-2 1-1-1h4l-2-1-3 1-1-1-1 1-1-2v-1h-1v-1-1l1-4s-1-1 1-1l1-2c3 0 7-1 9 3" class="F"/><path d="M267 174v1l-1-1v1h-3v-1h3l-1-1h-2c1-1 3-1 4 1m5-1l-2 1 2 1-3-1v-1l1-1 2 1"/><path d="M343 175l-1 1v4h-1c1-2-4-4-1-5h3m3 1v2l-3 2c1 1 1 0 2-1h1l2 1v1c-1 1-4 1-5 3l-2 2c0-1-2-3-1-4l3-1 1 1v0l-1-2c0-1-1-4 1-4h2" class="E"/><path d="M433 179l1 1h-2l1-4v3" class="I"/><path d="M341 180l-2 2-3-1-2-1 1-1c2-1 3 2 4 2l-2-2-1-1 1-2h1l3 4" class="E"/><path d="M258 179v1h-1l1-3v2m12-1l-1 2-1-1h-1v1-2c1 1 1 2 2 1v-1h1"/><path d="M262 181c0-1 0-1 0 0m9 0c1 0 0 0 0 0" class="F"/><path d="M364 184l17 14c2 1 4 4 6 3l1-2v3h-7l-8-3c-4 0-8 0-11-2l1-2 3-2-3 1h-3-2l-1-4c1-2 5-2 7-2l1 1 1-1h-1c-4-3-7-5-11-5s-8 2-11 4l1 3 2 1 1-1v-1l-1 1h-2l1-3h3l2 2c0 2-1 4-3 4h-4c-2-1-3-4-2-6 1-3 5-4 7-5l5-1c4 0 7 1 11 3m-25-1c2 3 1 7 0 9l-3 2-4-2v-4l4-1 1 1v1l-1 1h-1v1h2l1-3c-1-3-5-4-8-4-5 0-10 2-13 5v1l2-1h3l1 3-3 2-2-1 1 1 1 1c-1 3-6 2-9 3-3 0-6 2-8 4h-9c-1-1-2 0-2-2 2 1 3-1 4 1l10-5 8-8 6-4 3-1 4-1h2c3-2 8-2 10 1" class="E"/><g class="F"><path d="M265 183v1h-1v1l-1-1 1-1v-1h1v1M263 183v-1 1m3 2v-2 2M265 184v-1 1"/></g><path d="M358 184l4 2c-3 0-8-1-11 1l-1 1-2-2h-1c3-2 7-3 11-2" class="E"/><path d="M265 185v-1 1" class="F"/><path d="M326 186l6 1-1 4c1 2 3 3 5 3l4-2v-2c1 2 2 4 4 4h4c2-2 3-4 2-6 4-2 9-2 13-1-3 1-5 0-6 3v4l5 1v2l1 1c3 2 7 1 11 2 3 2 7 3 11 3h3l-8 11-3 9-1 2v4l-4-1v-1-2-2l1-2-6-3v-2l-4-2-1-1c2-2 5-1 6-4-1-2-4-3-7-3l2-2-3-1h-4l1-2c-2-2-5-1-7-1l-1-2a2 2 0 000-1c-1-2-2-2-3-2h-8l-4 1-2 1c-1 0 0 2-1 1l-4 4-4 1-2 1-6 3 1 1 4 1-2 1c-1 0-3 0-3 2l1 1-2 1 4 2c-1 1-3 0-4 2v1l-1 2v2l-3 1-1 2-3 1h-1c0-7-4-14-9-19l-3-6c4 2 10 1 14-2 3-3 8-2 12-3l2-2h-1l4-3-2-3h-4l6-3h2" class="G"/><path d="M325 185c4-1 8-1 11 1l-4 1-4-2h-3" class="E"/><path d="M288 198l-2 1" class="C"/><path d="M422 189v4l-5 9-3 1-2-7 1-6 2 1 5-1v-1c1 0 0 2 1 1l1-1" class="F"/><path d="M385 240l-2 3 4 3h6l3-6c0-2-1-3-3-4l-3 1v3l2 1v-2h1l-1 3h-4l-2-1-1-1" class="E"/><path d="M389 237l-2 1-2-2h-2c0-7 5-13 9-18l2-5c2-5 2-12 5-17 2-2 5-2 7-3 0 2-2 4 0 6 1 1 3 0 3 2l-3 16-1 4-2 14c-1 2-3 2-5 3l-1 2-3-4h-2l8-13c1-6 2-11 1-17v1c-1 8 0 16-5 22l-5 7h-1" class="I"/><path d="M295 195l1 4-2 1-1-1-1-1 1-1-1 2c0 3 1 7 4 10 5 5 9 11 8 19 0 3-1 7-3 10v2l-3 3-4 2c-3 1-7 0-9-2l-1-2c0 1 0 0 0 0l1-4 4-1 3 3-1 2h-2l-1-2v-1h-1l-1 2 1 1 2 1 3-1c4-2 5-7 4-12 0-2-1-5-4-6-1 1-2 2-3 1-2-1-2-2-2-3l3-2 2 1 1 1h3c3 3 3 7 3 10l1-1c1-6 1-12-3-17l-1 1 2 3 1 1v7l-1-3-1-1c0-5-3-9-5-13-1-4-5-8-2-12l2-2 3 1m96 3c3 13-13 21-10 34l1 4-3 1-2-3c-1-4 0-8 1-13 2-7 8-12 11-18v-4-1c-1 1-2 3-4 2l-1-1v-3l4-1 3 3" class="E"/><path d="M340 197l-2 1v2h-1l-1 2 2 2h-2-1v-1l-1 1c0-2-2-1-2-1l-2 1 1 2v2h2l1 2h2l-1 2-4-2c-1-1-1-2-3-2l-1 1h-1v2l1 2v1h3l-1 2-1-1-1 2 1 3c-1 1-1-1-2-1l-1-1-2 1v2l-1 1 1 1h1c0 1-2 2 0 3v-1 1c1 0 2-2 3 0l-2 1h-1l-1-1h-1l-2-1-1 1v3l-1 1 1 1h2v-1l-1 2 1 1h0l-3-1-1-3h-1c-1 1-3 2-2 4v1h-1l-2-3-1 1c-1-1 0-3-2-4v2h-1l-1-3c1 0 4 0 4-2l3-2h1c0-1-2-3 0-3v-2l3-1 1-1v-1l-3-1c0-1 2-1 1-2v-1l5-1-1-2h-2l-2-1 1-1 5-1c1-4 6-2 7-4l3-2 1-2c2 0 5-2 7-1v1m9 0v3c2 2 5 0 7 1l-1 2c2 2 5 0 7 1l-2 2 5 1a1 1 0 001 1l1 1v1c-1 1-4 1-5 3v1c1 2 3 1 4 2 2 0 0 2 1 2l5 4-1 2 1 1-1 3 4 1 1 1v4h-2l-1-2-1-1c-1 1-1 2-2 1l-2-1-1 3c0-2-2-1-1-3l-2-1h-6l3-1v1l1-1 2-1-1-1-1-1 1-1c1-1 0-2-1-2h-1c-1 2-2-1-4 0h-1l1-1h2v-1-1-2-1h-2l-1-1-3 3 1-2h-1l2-1 1-1-1-1 1-2v-2l-3-1-2 1c-1-2 2-4 0-5-1-2-2-1-3-1h-2l1-1v-2h-2v-1c1-1-2-1-1-2l-2-2v1l-1-1h7l1 1" class="C"/><path d="M343 198h-1v1h-2 3l-1 1h-2v1h-1v1l2-1v-1h2v-1l1 1-1 1 2 1 1-1c0 2-2 2-2 3l4 1h2l1 2-2 2 1 2h3c1 0 1-2 2 0l-1 2-2 1 1 1h2l-3 1v1l1 1-1 1 3 1 1-1-2 1 2 1 1-1-1-2-1 1 1-1v-1l2 1-1 2 1 1c-1 1-5 0-4 3h4l2 1 2-1v2l-2 1c-1 0 0 0 0 0 1 0 2 2 3 1l-6 1v2l2 1 2-1h3v1c1 0 1 3 3 2v1l-1 1v6l-2-1v2l-1 1-1-2h-1l-3 1h-2v-1h4c-1 0 0 0 0 0v-2l1-2h2-2c-2 0-1 2-2 2s-3-2-3 0l-1 1-1-1 1 1h-1l-1-2-2 1-3-1-1 1-1 1-2-1c-1 0 0 0 0 0h-1-1c-1 0 0 0 0 0h-1l-2 1-3 1v1s0-1 0 0c1-1 3 1 4-1v-1h7l2-1 3 1 1-1v1l1 1c-2 0-4 3-6 1l-1-1c1 1 3 3 4 2l4-2 2 2 3-1h1l1 1h2l1-1v-1 1h1v1l1 4h1l-2 1-3-1h-2l-1 1h2c1 1 3-1 4 1l3-1h1c1 0 1-2 2-1v1c0 1-1 3-2 2h-1l1-1-2 1h-4v1h7c-1 2-5 3-2 6l-5 1c-1 2-3 2-4 2h-3l-4 2-4-1-7 1-5-1h-7l-4-1-8-2-1 1-1-1c-2 0-1-2-2-3 1 0 2 2 3 1h1c2 1 3-2 4 0h1l-2-1-2 1-1-1-2 1c-1-2-4 0-3-3l3 1c1 0 2 1 2-1l2 1c1 1 2-1 4-1v-1l-1 1h-4l-3-3s2-2 0-2v-1l-1-1c-1-1 0-1 1-1h3l3 1 2-2-4 1c-2-1-3-2-5-1v-1h-1v-1h3l1 1 1 1 2-1h2l-2-1h-1l-1-2-1-1h-1l1-1v-1h1v-1l-1-2h1l2-1c0 1 2 2 3 1v-3h-2v-1h1l-2-1h-2l2-2-1-1h1l2 1-1 1-1-1v1h2l1 1 1 1h1v2l1-1v-2h1l1-1 2-1 2-1h1c0 1 0 0 0 0h-4c0 2-2 0-2 1l-2 1v2l-1-1-1-1v-1l2 1v-1-1h2l-1-2-1-1v-1l-1-1v-1l-1-2h1l1 1v1l1 1 1 1-1-2h2s1 2 2 1h1l-1-2h-1 3s-1 0 0 0l1 1v-1h-1l1-1h-3-1l-1-1v1l-1-2h1v-1 1l1 2 4-1 2-1-1-1h-2c-1 1-1-2-2-1l1-1-2-1h-2v-1l-1-2h2v-1l1 2c2-1 3 2 4 2h3v-1l-1-1 1-1-2-1-2-1v-1h-2l1-2-1-1h1c1 1 2 1 1 2v1l2-1v2h1v1h2l-1-1 1-1c-1-1-1 1-2 1v-1l1-1-1-1h1l2 1 1-2-3-2v-1s1 2 2 1v-2l1-1-1-1c1 1 1 0 2-1l2 1" class="H"/><path d="M416 226h-3l-1 6h1c1-2 1-5 3-6m1 0c2-1 4-3 6-2s1 3 2 4l-4 3h4l1-1c-1-3 2-6 0-9-3-1-6 0-7 1-2 1-2 3-2 4" class="I"/><g class="C"><path d="M415 225h-3-7l4-24c1 2 2 3 4 3-2 2-2 4-2 6l-2 7c1 2-1 3-1 4 1 1 1-1 3-1l1-1-1 5h2l2-2 3-4v-2c1-2 1-5-1-7v-5c3-1 5-4 6-6l1 1-1 18c0 1 1 3-1 3-2 1-5 2-6 5v1h-1m-129-27v1l2-1"/><path d="M286 199l-7-1-1-3v3l-2 1-3 1-1 1 1-3c2-2 2-6 5-6v-1l-4-5 8 1v8c1-2 2-3 1-5 1 1 3 2 2 4l-1 3 2-2v-2l2 5v1l1 5h-15v-2-1c4-2 8-2 12-2"/></g><path d="M242 203l1 2c1 3 4 6 4 9l-3 3-1-1c-4-4-6-9-8-14v-1l4-1c2 0 3 1 3 3m31 0c0 2-2 2-3 3s-3 1-2 3v1h-1l1-5-1 1-1 4-1-1c-1-2 0-4 2-5a1 1 0 00-1-1c-1 2-3 4-2 6h-1c-1-3 0-4 1-6-2 1-2 3-2 5l-1-3c2-5 8-3 11-4l1 2" class="F"/><path d="M343 202v1h-2l1 2-1-2v-1h2l-1-1 1 1"/><path d="M289 205c2 1 2 3 3 5v2l-1-2h-5l-1 1c-8-2-18 0-26 3-10 5-18 11-26 19 1-7 7-12 12-17l2-2 4-2c3-3 6-4 10-5 0 1 0 3 2 3h3l3 1v-3c2-2 6-3 9-3a30 30 0 019 1l-1 2 1-1 1-1c-1-2-2-1-3-1h-12l7-1 9 1" class="C"/><g class="I"><path d="M417 210c1 3 1 7-1 10l-4 4 2-6v-2l1-1v-11h2v6"/><path d="M414 204c-1 4 2 9 0 12l-2 3-3 2c2-2 1-4 1-7l2-7 2-3"/></g><path d="M335 205l-1 1v-1h1" class="H"/><path d="M350 206h-1-1l1 1v1h-3v-1l2 1v-1l-1-1h1v-1h1l1 1"/><path d="M346 206h1-1l-1-1 1 1m-3 0l-1 1h1v-1 2h-2v-2h-1 3m-82 2l-16 10c-4 4-9 8-11 14l2-5 2-2h-1l3-2 8-8 4-3 9-4m84 0v1h-2 1l1-1m-4 1h2l-1 1-2-1h1m6 1l-1-1 1 1"/><path d="M292 211l-1 1-1 6-3 1v3l2 3-1 10-3 2 1-13 1-11v-1h-1l2-2 4 1" class="B"/><path d="M355 211l-1 2c-1 0-1-2-2-1h-2 1l2-1h2m-8 1h1c1 1 0 1-1 1l-2-2 2 1"/><path d="M250 221l1 1v3l-2 2-1 1-1-1 1-1v-1l1 1v-1 1l-1-2v-1-1h-1v0s-1 0 0 0l3-2v1" class="F"/><path d="M277 211l-9 1c-7 1-12 4-18 8l1 2h3v-2 1c2 2 5 1 7 1 3 2 6-1 8-3h1l-2 2c2 0 5 2 7 1h3c2-3 0-6 0-9l-1-2" class="C"/><path d="M342 211l-1 1 1 2-2-1v-1h1l-2-1h3m-11 1v1h-1v-2l-1 1v-1l2 1m13 0h1-1-1 1m-11 0v1h1v2l1-1 1 1h1-1-1-2v-1h-1v-2h1m18 3l-1-2c1-1 1 1 1 2m-12-2h-1 1m13 2l-1 1v-1l1-1v1m-9 0h1v1h-1l-2-1-3 1v-1 1l3-1h2m5 1h2v1h-1v-1h-2v-1l1 1"/><path d="M331 217l-1-1 1 1" class="C"/><path d="M388 217l-2 3c2-1 3-4 6-3-3 5-8 10-9 16v2l-1-4c-1-5 1-9 3-13 1-1 2-2 3-1" class="E"/><path d="M339 218c1 1 2-1 3 1l3-1v1h-1l2 1c1 0 1 0 0 0h-3v-1h-1l-2-1v1l-1-1v-1 1m-1 0l-2 1 2-1m11 1l1 1h1v1c-1-1 0-2-1-1h-1v-1m-7 1a7 7 0 01-3 1v-1h3m0 2h4l2 2c1 0 3-2 4-1v1h-1l-1-1-2 1-1-1-2 1v-1 1l-1-1h2l1-1h-4l-2 1-1-1h-1l1-1 2 1m-5 0h-2v-1l2 1m17 2l-2-3 2 3"/><path d="M281 282c-2-10-2-17 0-26 2-3 1-6 2-9h-1c-1-1-3-1-3-3 1-1 1-2 2-1v1h4-2l1-1-1-3-4-10h-2l2-1-1-3h-1l-2 1v-1h3v-3l-4 1v-1l-4-1h-4v1l-3 1-5 1v-1l4-1h-1l-4 1v-1h1-2l-5 1h4l-1 1h-2 3a1 1 0 01-1 1h0v1h-3v1l3-1a1 1 0 010 1l-3 1 2-1 1 1h-3v1h2v1h-2 2l-2 1v2h1l2 1-3-1v1h4l-4 1 1 1h2-2 2l-2 1-1-1v3l3 15-1 12 2 11 1 12-1 1c3 0 6 2 8 0l1-1a2 2 0 012 0h2l-1-6v-1l-3 1 3-1-1-2-2 1v-1h1c1 0 2 0 1-1h-2l2-1v-1 1l-3-1h3v-8h-2 3l-1-3-3 1v-1l4-1h-4l4-1h-1s0-1 0 0h-2v-1-1h2l1-5h-3l3-1v-1h-3l3-1h-3l3-1h-1-2l1-1h2c0-1-2 1-2-1h3v-5l1-11h1v4l-1 2v4h1l1 1h-2v1h1l1 1h-2v1l3-1v1h-3 4c1 0 1 0 0 0h-3v1h4l-4 1 1 4 1 3h3v1h-3v1h3l-3 1 2 5h2v1h-2v1l1-1 2 1h-3v1h3l-2 1h3-1l-2 1h3l1 1h-3a71 71 0 013 15l2-6m-4-60l-2 1 2-1" class="B"/><path d="M334 223v1c0-1 0-2-1-1v1h-2v-1h2s1-2 1 0m-4 0l-1 2h-1v-1l1-1h-1 2m-57 0h1v1h-3l2-1m5 1h-4 4m67 1s0 1 0 0l-1-1v0l1 1"/><path d="M254 224h-2 2" class="B"/><path d="M357 225h-1-1 1l-2 1 1 2-1-2-2 1v1l-2-1-4-1 2 1v-1h2c1 0 1 2 2 1 0-2 2-1 2-2h3m3 1l-1 2h-3 1l1-1 1-2v-1l1 2"/><path d="M426 233v2h1v-2-1l-1 1" class="B"/><path d="M415 240h1l2 1 2-2h-1l2-6 1-1h1l-2 4v2l1 1 3-6h-1l1-1v1h1l-1 1-2 6h1l1-3v1h1l-1 2h1l-1 2 1 1-1 2h1v2c1 1-1 2-1 3l1 1c0 1-2 2 0 3l-1 2c2 0 0 2 2 2l-1 3c2 0 0 2 2 2v0l-5 7-1 1c4 0 5-4 7-6h1v1l-7 7h1l-1 1c1 1 2 0 3-1l4-5-2 4-4 4 1 1h-1 2l3-2-2 2h1l1-2v1l-2 3 3-3-2 3c-1 1-2 1-1 2l1-1-2 2c0-2-2-3-3-5l-1-1-4-7-1-1v-1l-4-7h-1 2l1-6 1-3-1-3v-2l-2-4v4h-1c1 3 4 5 2 8v1l-3-2v1l2 5h-2-1l3 3 1 2 2 2v1h-2l-1 1h3l4 6 2 3 4 5-1 1h1l-1 1h2v1h-1c-1 1 1 0 1 1l2 3v-1l1 1-4-2-1 1 5 2-2 1c0 1 3-1 3 1l-1 1-4-3h-1c2 2 5 3 5 5v3l-2-2v2l2 2-1 1-3-1-7-8v-1c1 0 2-1 2-3-1-4-5-8-6-13-1 0 0 0 0 0h-1l-2 6-1 5v-2c-1 1-1-1-2-1l-7-9c-1-1-3-2-2-4l-1-9 2-13 1-6 2-5v-6l4 1h4v5l2 3h1" class="C"/><path d="M415 240l-1-4 1-3v2l-1 1 1 4h1v-6l1-1c0 2-2 3-1 5l2 2-1-3 1-1 1-2-1 2 1 2v-1-1c0-1 2-2 1-4 0-2 3-2 4-4v-2l-2-1c-2-1-3 0-5 1l-2 2-3 9 2 2 1 1" class="F"/><path d="M431 266h1l1 1c1 0 1-2 2-1v35a3 3 0 001 2h-1 2c5-1 7-6 11-10l2-3 3-3h-2l-4 1v1l2-1h2l-5 7-2 1c2-1 3-4 4-6-1-1-2-1-2-3v-4l6-8 2 9c0 2 1 6-2 7l-2 1c-3 6-7 11-12 15h-5c-3 0-6 1-8-1l-4-5-5-9-2-10 1-2h-1v1l-1 1 2 10-2-1-1-7 2-9c1 5 5 9 7 13l-1 2h-2v1c-2-3-3-7-3-11v1l2 10 2 3c3 3 6 6 9 7l2 3c1 0 3 0 4-2h0l-1-2v-3l-1-28-1-2v-1" class="K"/><path d="M278 225l-3 1v-1h3m63 0l-1 2v-2h-2l-1 1-3-1-2 2-1-1h2l2-1 2 1c1-1 1-2 2-1h2"/><path d="M251 226h2l1-1v1h-3" class="B"/><path d="M410 226v6l-6-1 1-6 5 1" class="I"/><g class="B"><path d="M438 262v1l-1 2 1-2v-1m2-1l1 1-1 2v-3m-4 2l-1 2 2-2-1-1v1m5-30h-1v-3-1l-1-1h-1v-1c-3 2-7 2-10 3v2c-1 0 0 0 0 0h2v3h5l1-1 4-1h1M438 227h2v-1l-2 1"/></g><path d="M429 233h-1v6l1 3v1 2c1 1 0 1-1 2l1 1-1 3 1 3v2 3l1 2v-22l-1-4 1-2h-1m-18-7v1l2-1c-2 1-1 4-2 6l-1-1 1-5" class="C"/><path d="M442 226l-2 3v-1l1-2h1" class="B"/><path d="M278 227l-2 1h-2v-1h4"/><path d="M443 228l-2 2v-1h-1c2 0 2-3 3-1m8 0v6h-7v-1c1-1-2-1 0-2l-1-2v-1-1h1l7 1" class="B"/><path d="M305 230v-3 3" class="C"/><path d="M341 229l1-1c2-1 2 3 3 1 1 0 1-2 2-1-1 0-2 2-3 1l-2-1-1 1c-3 1-4-3-6 0l2-1 4 1"/><path d="M307 230v1l1-1v-1l2 4 1-1 2 3 2-1c-1-2 0-3 1-4v-1l1 3 1 1h-3l1 1 1 2-1 1-1-2h-1l1 1c1-1 0 1 1 1v1l1 1h-1l-2-1-2 1-2 1v1h-2l-1-1v1h4c0-1 0-2 1-1 1 0 2-2 3 0h1l2 2-4-1-2 2v1h-1l-1 1h2c0 1 2 1 1 2l-1-1h-1v1l-1-1-2 1v-1 1-2-1l-2-1h-1v1c-1-2-3-2-5-2l1-1h1v1l1-1-1-1 3-1-2-1 1-1h3v1l3-1h2v-1l-1-1 1-1h-1v-1l-1 2-1-1s1 0 0 0l-1-2-1-1v1h0l-1-1h1l-1-1-1 1v1h-1l1-2 1-2 1 2" class="D"/><path d="M279 229h-3l2-1 1 1m72 0l1-1v1h-4v-1c1 1 2 2 3 1M257 243v1l-1-2v-7l-1-6c3 4 0 10 2 14m77-13c-2 1-2-3-3 0l-3 1h-1 2c2-1 2-3 3-2l2 1"/><path d="M443 230l-2 3v-2l2-1" class="B"/><path d="M436 232l-2 1h-2l1-1h2l1-2v2m-93 0h1l8-2v1h-1l-7 2-2-2h-1v-1c1 1 2 0 2 2"/><path d="M427 231v1h-1v-1l1-1v1" class="B"/><path d="M369 233l3-1 1 2h1l2 1h1v2c-1 0-1 3-2 1l-1 1-1-2-1 1v1l2 1h1v2l-1 1h-2v1l1 1h-1l-3-1h-2v-1h1v1l1-1h2l-1-1-1 1-1-2h-1l1-1h1c-1 0 0-2-1-1v-1l1-1v1h-1l1 1 1-2-1-1-1 1v-4l1-2v2" class="D"/><path d="M334 232h-3 3m20 2l2-2h3l-3 1-3 1c-1 0-1-2-2-1h-3l4-1 2 2"/><path d="M443 235h-2l1-2 1-1v3" class="B"/><path d="M309 234c-1 0-3-1-3 1h2l3 1-3 1-1 1-1-2v1l-2-1v-3l1 1 1 1v-2c1 1 2-1 3 1" class="D"/><path d="M425 233c-1 2-1 5-3 6l3-6m-87 1l2 2 3-1 2 1h-3l-3 1-2-3-2 2h-1v-1h2l1-1v-1l2 1h-1m-39 0l-2 6v1c-1 1-1 2-2 1l-3 1h-3c3 0 5-1 7-3l2-6h1m50 1l-1 2h2l2-2 2 1h2l3-1h3l-3 1h-3v1h-1-3v-1l1 1-1-1h-1v1l-2 1-1-1c0-1 2-2 0-2l-1-1-2 3h-2l-2 2h-1-1l-2-1 3 1c1 0 3 0 3-2h2l2-3 2 1m-19 0h2-3-1l-1 1h-2l-1 1 1 1-1-1 1-2c2 2 3-2 5 0"/><path d="M441 234v3h-1c-1-1 0-2 1-3" class="B"/><path d="M372 235v1h1l-1 1v-1h-2v-1h2"/><path d="M442 236l1-1-1 1" class="B"/><path d="M322 235v2c-2 0 0 1-1 2h2l1-1v1h-1l2 1v1l1-1v1l1-1 1-1 2 1h2v-1 1l2-1-1-2-1 1-2 1v-1h-2l-2 1h-1 1l1-1h2-1l1-1c1 0 1 2 2 1 1 0 2-2 3-1l1 2h-1-1l-1 1 1 1h2v1h-1l-3-1-1 1h-1l-1 1h-2v-1h2l2-1-1-1c-1-1-2 1-2 1h-2l-1-1v1l-1-1-2 1 1 1h1l-1 1-1-1v-2h0v-3l1-1-2 1a2 2 0 01-1-1h1v-1h2"/><path d="M427 235l-1 2c0 1 0 1 0 0l1-2" class="B"/><path d="M435 236v28l-2-1v1l-1-1-1-1v1l-1-27h5" class="K"/><path d="M253 237v-1 1"/><path d="M444 238a3 3 0 01-1 1h-1l1-3 1 2" class="B"/><path d="M315 236l-1 1-1 1v-1l2-1"/><path d="M441 239h-1l1-2v2" class="B"/><path d="M386 237v2l-3 3-4 2 1-2-1-2h-2l-1 2c0-1 0-4 2-4l5-1h3" class="F"/><path d="M427 238c-1 0 0 2-1 1l1-1" class="B"/><path d="M370 239l1 1h-1-1v-1h1s0-1 0 0m63 4v14c0 2 1 4-1 5l1-1-1-15c0-2 1-5-1-7l2 2v2"/><path d="M441 241h-1l1-1v-1 2m-13 0l-2 1 2-3v2m15-1v2h-1l1-2" class="B"/><path d="M358 240h2v1l-4-1h2" class="H"/><path d="M379 241v4l3-1-2 1h-1l-1-1 1-3h-1 1" class="D"/><path d="M306 242l4 1c-2 1-3-1-4-1h-2v-1l2 1"/><path d="M441 245l-1 1v-1l1-1v-1l-1 1 1-3c2 2 0 3 0 4m-13-3v1l-1 1-1 1 1-3h1m16 1l-2 2v-2l2-1v1" class="B"/><path d="M377 243l-1 2-2 1 1 1 1 2v6c1 1 2 4 4 4l-1 1v-1 2l-1-2-1 1v-1l-1 1h-1v2l-1-2v2l-1-1v1l-1-2h-1l-1 1-1-1v1l-1-1-1 1-2-1 4-1 1-1 1-4c0-3 5-1 4-4l-1-1-1-2h-4-1l-1-1 1-1h1l1 1v-1c1 2 2 0 2 1h1v-2h1v-1l1 1v-1h2" class="D"/><path d="M302 243l2 2c0 1-2 2 0 4l-2-2-6-2h-1l2-1 3-1h2" class="E"/><path d="M332 245l2 1h2l1 1-2-1h-1 1c2 1 3 5 6 2h1l-3 1 3 2 1-1v-2l1 1h4l1 1h5l2 1-2-1v1l-1-1-3 1-2-1-2-1h-2l-2 2h-1l-4-2c-2 1-2 4-4 2-1 0-1-2-3-1 0-1 2-1 1-2l2-2h-1l-1-3c-2 1-3 3-5 2h1l4-2 1 2"/><path d="M281 243h-1v1l4 1h1c1 1 0 1-1 1-1 1-3 0-4-1v-1l1-1" class="B"/><path d="M383 244l2 1-3 1v-3l1 1" class="D"/><path d="M348 244l3 2h4l2 2c1-1 1-3 3-3 1 1 3 2 4 1l1-1-1 1-2 1c-1 0-2-2-3-1-1 0-1 2-3 2l-1-1-2-1c-1 1-3 0-4-1l-2-1v2l-1 1-1-1-1-2c-1 1-3 2-5 1v-1h6l1 2h1l-1-2v-1l2 1"/><path d="M377 246v-2h1l-1 2" class="D"/><path d="M258 244l-1 4 1-4"/><path d="M307 245h-1v1h-1l1-1v-1l1 1" class="D"/><path d="M315 245l-1 1v-2l1 1" class="H"/><path d="M443 247l-1 1v-2l2-2-1 3m-15-1l-1 1h-1l2-2v1" class="B"/><path d="M414 246v-1 1" class="C"/><path d="M287 245l-4 5c1-2 0-3 2-4l1-1h1" class="B"/><path d="M318 246h-1l-1-1 2 1" class="H"/><path d="M380 246c-2 0-3 1-3 2h-1v-1l1 1v-1l-1-1h2v-1l2 1" class="D"/><path d="M340 246h-2 2"/><path d="M292 246l-4 2c-2 0-3 2-5 3 1-2 3-5 5-5h4" class="E"/><path d="M441 249l-1-1 2-2-1 3" class="B"/><path d="M387 246c-2 0-6 1-8 3l-1 2c-1 1 0 3 1 5l3 2h6v-4c2 0 4 2 6 4l1 5h1v1h1a30 30 0 00-2-5l1-1c-2-3-4-7-7-9-2-1-5 0-7 1-2 2-2 3-2 5v1l-1-2v-4c2-3 6-3 10-3l5 6h1c-1-3-4-5-6-6h3c3 3 4 6 5 10 3 6 3 12 2 18l-1 4-3 11-2 2c-2 5-3 10-7 14l-9 10-7 6c-6 2-12 4-18 3-3-1-5-1-7-3-3-2-4-4-5-7 1-2 1-5 3-6s5-2 7 0l1 5-2 2h-4l-1-2 3-3s0 1 0 0v-1l-2 1c-1 1-2 3-1 4 0 3 2 6 6 7l6 1c6 0 12-3 15-9l1-6c1-2 0-5 3-7v3c0-1 0-3 2-4l3-1 1 2v2l1-2c1 3 0 5-1 7h1c2-1 1-4 3-6v-3-9l-2-7v-2l2 1 2 2v-1c-1-2-1-5-4-6l3-1 1-1-1-1 4 1 1 5s0 1 0 0v-3-1l-2-4-3-3 4 5h-4c-2-3-3-6-1-9h-1l-2-2h1l-1-1h1c-1-1 1-1 1-2 2-1 4 0 6 1l1 1-1-2c-2 0-3-2-5-1l-4 4h-1v-1l1-3h1l-2-1-3-3-1-2c0-2 1-5 3-6l7-1h1m-84 2c0 2 1 4-1 6-1 2-3 1-4 1l-2-1v-2c1 0 0 2 1 1v-1l1 1v-1l-2-1c-1 1-2 1-1 2v3a5 5 0 005 0v0l1 1-1-1v1l-1 1h1-3c-2 0-4 0-5 2 2-2 5-2 7-1v6l-1 2-2 1c-1 2-1 4-3 5 0 2-3 3-3 5l-2-3 2-3 2-3c-2 2-4 4-4 6h-1l-2 8 4 10-3-13 1-4 2 1 1 2 4-4 1 1 1 1-1 1v3l1-1c1 5 1 8-1 12v6l4 12v-1l-3-8 1-2 1 1 1 3v-2l3-2 2 6h1v-2c-1-1 0-2 1-2l2 7 3 9h1l5 4 4 1h9l2-1 3-2 2-3v-2l-1-3h-1l1 4c-2 2-3 0-5 0l-2-2a5 5 0 011-3c2-1 3-2 5-1 2 0 5 2 5 4 0 4-4 9-7 10l-5 2-6-1h-1-1 1l-12-4-8-6-3-3c-3-3-7-6-9-10l-3-7c-3-7-6-15-6-22l1-15 2-3c0-2 2-3 4-5l5-2v-1l1 1v-1 1l1-1h2c2 0 5 0 7 2" class="E"/><path d="M305 248h-1l1-2v2" class="D"/><path d="M414 247v-1 1" class="C"/><path d="M312 247l2 1 1 1h-2 2v1h-1l-1-1h-1v-1l-1 1c-1-1-2 0-2-2 1-1 2 2 2 0h1" class="D"/><path d="M337 249l-2 1-2-1h-1c0-2 1-2 2-2s2 0 3 2" class="H"/><path d="M293 247l-3 1h-1 1c0-1 0 0 0 0l2-1h1m73 0h-3-1 4m-38 1l-1 1c-1 0-1-2-2-1h-3c2 1 4-2 5 0h1"/><path d="M308 248l1 1v-1l1 1c-1 0 1 2-1 1v-1l-1 1v-1l-1 1-1-1h-1v-1h1l1-1 1 1" class="D"/><path d="M428 248l-1 2h-1l1-2h1m16 0l-2 2v-2h2" class="B"/><path d="M295 248h2c1 0 3 0 4 2l1 2-2 2-1 1c0-1 2-2 1-3l-1-2-6-1h-1v1l-7 8v2h-1l3-7 5-4h1v-1 1l2-1m63 2v2h-1l-1-3c-1-2-4 1-5 0 2 0 4-2 5 0l2 1"/><path d="M440 251l2-2c-1 0 0 2-2 2" class="B"/><path d="M322 249l2 1 2-1v1l-1 1c-1-1-3 0-4-2-1 1-3 2-4 1v-1l2 1 1-1h2"/><path d="M307 251v-1l1 1h2l1 1h1v-1h-1l1-1 1 1v-1h1l1 1c-1 0-1 2-2 1l-2 1 1 1h-2l-1 1v1c1 0 1-2 2-1v1h1v1h-1l-3 1-1 1h2l-1 1c-2 0-2 1-3 2l-1-1c-1 2-2 1-3 1l-1-3h1l2-1 1 1h1c-1 1-3-1-4 1h5v-1h-1v-1l-1 1v-1h-2 2c1-1 2 1 3-1l1 1 1-2-1 1h-2l-3-1h2l1-1c0 2 1 1 1 0 1-1-1-1-1-2l-1 1s2 0 1 1h-2l1-3 1 1c1-1 1 2 2 0l1 1 1-1-1-1v1l-1-1-1 1v-1l-1 1-1-1c1-1 0-2 1-1v-1l1 1" class="D"/><path d="M443 252l-1 1v-2l2-1c1 1-1 2-1 2" class="B"/><path d="M374 251l-1 1v-2c0 1 2 0 1 1" class="D"/><path d="M394 256l1 2c-2-2-4-5-8-5h-1a3 3 0 00-2 1l1 2v-2l2-1v1l-1 3h-3l-1-1-1-2 5-4c4-1 6 3 8 6" class="E"/><path d="M428 252l-2 2 2-4v2m14 1h-1l-1 1 1-2 1-1v2" class="B"/><path d="M328 254l2-1-2 1-1-2-1 1v-1l-1 1h-1-1l-1-1 3 1 2-2 1 3"/><path d="M317 253v2l-2-1 2-1v-1 1" class="H"/><path d="M357 253l-1 1h-1l-2-1h-1l-1 1h-4l-2-1h-3 1l2-1 2 2h2c2 0 3-2 5-1 1 0 3 1 3-1v1"/><path d="M444 253l-1 3-1-2 2-1c0-1 0 0 0 0" class="B"/><path d="M340 254l-1 1 4 1h-1l-3 1-1-1-3 2-1-2c-3 0-6 1-8-1 0 0-1 0 0 0 1-1 0 0 1 1h6l-1-1h-3 4l2-2 1 1 3-1 1 1"/><path d="M428 253l-1 2-1 1 1-2 1-1" class="B"/><path d="M369 254l-1 1-1 1h-2l-2-1h-3l-2 1v-1h9l2-2v1"/><path d="M339 254v2h3c-2 2-3-1-5 0l-2 1-1-1c1 0 1-3 2-2h3" class="H"/><path d="M374 254l-1 1h-1v-1l-1 1h1l-2 1 1-2h3"/><path d="M442 256l-2 1 1-3v1l1-1-1 2m-13-1v2h-2l2-2m16 1l-1 2v-2h1" class="B"/><path d="M357 257c1 1 2-2 4 0l3-1-3 1h-1l-3 1c-1 0-1-2-2-1h-1l-3 1-1-1h-3l-4 1v-1h5l3-1 1 1 3-1 2 1"/><path d="M442 258l-2 1 2-3v2" class="B"/><path d="M312 258h1l-1 1v1h1l1 1v-1h-1l1-1 1 1 3 1c-1 1-3 0-3 2l-1-1h-1v1l-1-1v1c0 2 1-1 2 1v-1h2l1 1-1 1 1 1a3 3 0 01-2 1v-2l1-1h-1v3l-1 1 1 1c0 1 2 1 1 2v1h1l1 1h1l1 1h1v-1c-1 1-1-1-2-1h-1v-1l6 2c-2 1-4 2-5 1h-2l-3 1 1-1 1-1-2-1h-1c1-2-1-2-2-3l1 1v2l1 1h1v1h-1-1c1 0 0 0 0 0l-1-1v1l-1-1v1s0-1 0 0h-1-1-1v-1l-1-1 1-1 2 2s0 1 0 0h2v-2l-1 1h-1l-1-1c-1 0 1-2-1-2v1h-1-1l-1 1 1 1h-1l2 1v-1 1h-1-1-1v-1l-1 2-1-2v-1h1v-2s0-1 0 0l-1-1v1l-1-2-1 1 1 1 1 1 1-1v1h-1-1-1l-1 1h-2l1-2h1l2-3h4l2 2 4 2 1-1h3v-2h-1v-2a2 2 0 000-1h-2l-1 2h1l1 2h1-3l-1 1-1-1-3-1-1-1 1-1c1-1-1-2 1-3l1 1h1l-1 1v2h-1l1 1v-1l1 1h1v-3l-1-1 1 1v-1l1-2h-1l-1 1h-1l2-2h1v-2h1v-1l1 1" class="D"/><path d="M428 259s0 2-1 1l1-2v1m15 1l-1 1v-1-2l1 2" class="B"/><path d="M323 260l1-1 2 1 3-1h1l2 1h6c1 3 3-1 4 1l4-1 1 1 2-1 3 1 4-2h1v1l2-1v1h-3l-3 2-2-1-4 1-1-1-4 1-2-1c-2 2-3-1-5 0h-3-1l-3-1h-3l-1-1-2 1-1-1h-1c1 0 2-1 3 1m45 0v-1 1"/><path d="M444 260l-1 2v-2h1m-15 1l-1 1c-1-1 1-3 1-1" class="B"/><path d="M297 261v5-2l-1-4 1 1m-4 0l-1 1c-3 3-4 7-5 11v2h-1c1-5 2-10 6-14h1"/><path d="M376 261l1 1v-1l-1 3h1v1h1v-1 1h4l-1-1h-1 1l1-1 1 2 1 1c-1 3 0 5 1 7l-2 1-1 1h-5l2-2 1 1h1l-1-1v-1h-1l-2 2v-2l-1 2-1-2v1h-1l-1 1v-1 2-1 1l-3-1 2-2v2l1-2v-1h-2v1l-1 1v-1l-1 1v-1 1l-1-1-1 2v-1h-1c0 1 0 0 0 0l-1 1v-1c-1 0 0 0 0 0l2-1-2-2-1 1v-1h-2v1l-1-1v1l-1-1v0l1-1c1-2 3 1 5 0h5l3 1c1-1 3 1 4-1v-2l-1-2h-1l-2 2v1h1v1l1-1 1 1h-5l-2-1c-1-1-1 2-2 1-2 0-2-2-4-1l-2-1-2 1v1h-2l-2-1-1 2-2-1-2-1-2 2h-1l-3-2h-1v-1h-1v-2-1h1v1h1l1 1 1-1 1 2v-3h1l1 1v2l-1-1v2h2v-2h1c-1 0 0 0 0 0h1v-1 1l1-1v-1l2-1 1 1h1v-1l1 1v-1l-1 1v2h1l1 1c0-1 0 0 0 0l2-2v2h1v-1l1 1v-1-2l-2 2v-2l-1 1v-1h-1l1-1v-1l1 1 1-1h1l1-1h3l1 1 1-1 1 1 1 1h1v-1l1 1h1l1-2" class="D"/><path d="M266 261h-2 2m120 1l4 3v-1l2 3c4 6 4 13 3 19l-1 2c1-6 2-11 0-17v2l-3-7-6-4v-1a74 74 0 011 1"/><path d="M327 263v1l-1-1v1h-1v2h1l1-2 1 1v-1l1 2h3l-1-2h-1v1l-1-2h9v1l-1-1v1l-1-1v2l-1-1v0h-1v1h-1l1 1h1l1-1 1 1v-1 1l-3 3h-1l-3 1h-2v-2l-1 1-2-2-1-1-1 2v-3h-1l-1 1v-1l-2-1-1 1-1-1 1-1 1-1v1l1 1 1-1 1-1 1 1v-1h-1 3l2 1" class="D"/><path d="M430 264h-1l1-2v2m-90 2v-2c1 0 3-1 2 1v1l-3 2v-3c0 1 0 0 0 0l-1-2c3 0 1 2 2 3m92-2l-1 2v-3l1 1" class="B"/><path d="M302 263l1 1h1v1h-3-1l1-2h1" class="D"/><path d="M369 264v1l1 2-1 1a1 1 0 000-1h-1c-1-1-3 1-3-1 1 0 0 0 0 0l1-2v2l2-3 1 1m-63 0v1s0-1 0 0v-1"/><path d="M434 265l-1 1 1-2v1" class="B"/><path d="M372 266v2l-1 1-1-1v-1l1-1h1"/><path d="M322 267l1 2 1-1v2l-5-1-3-2s0 1 0 0h2v1l1-1h1l1-1 1 1" class="D"/><path d="M339 269l3-2v1h1l-3 3c-5-1-9 4-13 1h-2-1c-3-1-7-1-9-4l3 1 7 2v-3c1 0 1 2 2 1h1l-1 1h7l2-1 3-3c0 1-2 2 0 3" class="E"/><path d="M432 269v30l2 3-3 1c-1 1-2-1-2-2 4-2 1-6 2-10l-1-10 1-14 1 2" class="K"/><path d="M266 269h-2 2"/><path d="M354 270l1 1 2-2 1 1h1v1h-2v1h1l1-1v1h3l1-1h2l1 1-3 1-1 1v1h-1l-1-1h-1l-2 1v-1c-1 1-2-1-2 1l-1-1c-1 1-1-2-1 0l-1-1-1-1-1 1v-1l-1 1-1-1h-1c0-1 0 0 0 0v-1h-1l-1 1 1-2h-1 2l1 1c1-1 2 1 2-1l1-1c2-1 1 2 3 1" class="D"/><path d="M342 272v5h-1l-1-6h2v1" class="B"/><path d="M343 270c1 1 1-1 1-1h1l-2 2v1h3c1 0-1 1 1 2v-1c0 1 0 0 0 0h1v1h-2l-1 1h-2v-5" class="D"/><g class="C"><path d="M425 269l-1 1 1-1M428 274l1-2v-1c1 1 1 3-1 3"/></g><path d="M338 272l-9 2h1l1 1 4 1h3v-4" class="D"/><path d="M339 276v-5l1 1h-1l1 5h-1v-1" class="B"/><path d="M338 277l-3-1h3v1" fill="#e2ffb3"/><path d="M266 272h-2 2"/><path d="M299 272h0m-3 0h2l-1 1h-2v1h2-4l3-2" class="D"/><path d="M339 289v-1h2s0 1 0 0l1 1h1c1-1 0 1 1 1v-1l1 1h2l1 1 2-1h4s0-1 0 0l2-1h2v1l-5 1c-2-1-3 1-5 1l-1 1h7c3-1 7 1 9-1l1-2c-1-3-3-7-6-8-3-2-7-3-10-3l-5-1h-3l-4-1-6-2h-1v-1l-2-1h-2l-3 2-5 3v2l1 1 3-2 2 1h1l2 1 1-2h1v1l-1 1v2l1 1 1 2 1 2-2 1v-1l-5 2h-3l4 1h9l4-1 1-1h1" class="B"/><path d="M300 276v3l-1 1-1-3-3 3h2v3c2 6-4 11-1 17l1-2 2 2 3-1c1 0 2 1 2 3l1-2h2a64 64 0 011 4l65-2 1-2h2l4-2 1 2 1 1v-1c2 0 1 2 2 3v-3-11l-2-7v-2h1l2 1-1-3-2 1h-1v-3h-7c-3-1-6-2-9 0-5-1-10 1-15 1-1 0-3-2-4-1l-3-1v2l2 1c3 1 7 0 10 2l7 5c1 2 3 4 2 7l-4 1c-4-1-9 1-13 1l-1-1-4-2h-1l-1-1h-2 1l-1-1v1c-3 2-6 2-10 2-3-1-6 1-8-1v-2h2l7-2-2-1-1-1-2 2-1-4c-1-1-1-2-3-2h-4v-3c0-2 2-2 4-3l-3-1-3 2-2-1-3 1h-6-3" fill="#e2ffb3"/><path d="M300 275l-3-1 1-1h3v2h-1" class="D"/><path d="M372 303l-1 9c-2 3-3 6-6 7-3 2-5 3-9 3h-1c-3-1-5-2-7-5h2l1-1h-1c2-1 2-4 2-6l-4-3a7 7 0 00-7 2l-1 3-1-2-6-2-4 3v3l4 3-2 2-6 2c-3 0-5 1-8-1l-3-1-4-4 9-1h1-10l-1-2h3l5-1-8 1v-2h9v-1h-9a41 41 0 00-1-4l64-2m19 15v-1l-3-6 9 2-1 3h-4v1h3l-3 2h-1m-103-4l4-7-2 1c-3 0-6 0-8 2l3 2v-1l-1 1v-1l3-1h-3l3-1 3-1-2 2 2-1-1 1v1l-4 2 2-1h1l-2 1 2 2v-1" class="G"/><path d="M351 275h1l1-1-1 2-4-1h1v-1 1l1-1c1 0 0 2 1 1" class="D"/><path d="M299 275l1 3-1 1c0-1 0-3-2-5l2 1m86-1l-2 2-2 3v-2l4-3" class="E"/><path d="M430 279l-1 1 1-1" class="C"/><path d="M369 280l-3 1 1-1h2"/><path d="M430 281h-1 1" class="C"/><path d="M378 281h-1-2 3"/><path d="M429 282h-1 1m1 1h-1l1-1v1" class="C"/><path d="M309 283l-3-1h3v1"/><path d="M282 286l-3 9-2 7-2 4h-2c4-7 7-14 8-22v-1l1 3" class="B"/><path d="M427 284l1-1-1 1m2-1l-1 2 1-2m1 5l-1-2 1-2v4" class="C"/><path d="M388 286c2 5 1 11-2 17l1-4c1-3 2-6 1-10v-4 1m-96-1v11l-1-1-1-9c1 0 1-2 2-1m16 0l-1 1v-1h1m65 0l-1 1v-1h1m-2 0l1 1v-1 1l-1-1m-104 1h-2 2m69 1h-6 6m-69 0h-2 2m13 9l2 10h5v-1l3 1h2l-6-10h-6"/><path d="M280 295l3-8 1 4h-3 3l2 4-5 1-1-1" class="B"/><path d="M268 288h-3 3m-1 1l-2 1v-1h2"/><path d="M268 291l-1 5h-10c-1 0-3 1-3-1v-3h8l6-1" class="B"/><path d="M416 295l7 11c-2 0-2-2-3-3l-5-1h-1l1-2v-8l1 3" class="C"/><path d="M370 295l2-1c1 1 2 2 3 1l1 1c1 0 2-2 4-1l3 2c-2 0-4-4-6-1l-1 1c-1 0-1-2-2-1l-2-1h-2s0 1 0 0c-1 0-2-2-3 0h-1l-2 1h-1-1l3-1 3-1 2 1M362 296h-4c-1 0-2 2-3 1-3-1-2 4-5 2l-6 1h-1l-2-1h-1c-2 1-3-4-4-1-2 1-4-2-5 0-2 0-4-2-6-1h-2l2-1h1c2 0 3 2 6 1 1-1 3 2 5 0l4 2 2 1 2-1h6l3-2h2l3-2 3 1m-45 0l4 1h-1-2l-1-1h-2-8l-2 1c-1 0-2-2-3-1h-5l-1 2 1-2c1-2 3 0 5-1 1 1 2 2 4 1l1-1 4 1 3-1 3 1m-50 0v9l-1 1h-13l1-2 3-3 1-4 9-1"/><path d="M440 301l-3 2-1-3c2 1 4 0 6-1l2-2-4 4" class="K"/><path d="M377 298l-3 1-3-1-2 1 1-1h3s0 1 0 0l3-1 1 1m-71 0s0 1 0 0l1 1h4v1h-1l-1-1-3 1-3-2h3m17 2h0-1-1-1c-1 0 0 0 0 0h3M319 300l-1-1 1 1m-8 2h3l4-1-4 1h-1a4 4 0 00-2 0h-1l1-1v1m56-1l1 1c1 0 2-2 3-1h1l-1 1h-4l-2-1c-2 2-3 0-5 1l2-1 2 1 3-1m-41 1h0m94 2l2 3v1h-13l-1-1 5-2 2-3 5 2m-60 1l-2 1h-7l9-1m-43 1h-3l-3 1v-1h6"/><path d="M252 307h39v1l1-1v1h-21l-13 1-18-1-4 2-1 1 1-3c5-2 11-2 16-1" class="G"/><path d="M423 308l1-1v-1l-1 1 1-1 2 1-3 1m-94-1h-7 7"/><path d="M443 311v4l-6 1-2-1-3-1h3l-1-1h-3v-1h5l-1-1h-4c4 0 8-1 11 1l1 1v-1l-2-1c-5-2-10 0-14-1l-35 1-2-1h-3l3-1a343 343 0 0020 0l13-1 17 1 3 2m-160-2l-3 3h-9l1 1h8v1h-9l8 1h1l-1 2h-6v1h5v2l-1-1h-5v1h5l-2 5h-5l1 1 3-1-3 2h-2 4l-1 1-6 1h5l-1 2-21 1h-1v-1h3v-1l-3 1v-1l4-1h-4l4-1v-1l-4 1v-1h4v-1l-3 1v-1h2-2l2-1v-1l-2 1v-1h3-3v-1l3-1h-3l3-1h-3c-1-2 2-1 3-1l-3-1 3-1h-3v-1h4l-1-1-3 1v-1h3-3l3-1h-3v-1h3-3l1-1h-1v-1h4l-3-1h-1l-1-2h35m-36 0v3c0 2-3 2-5 2s-4 0-6-2l2-3h2l-3 1v1l1-1h4l1-1h-1 5" class="G"/><path d="M371 309l-11 2 10-2h1m-129 1l1 1h-1c0-1 0 0 0 0h-4l4-1m39 1h-10 10"/><path d="M430 311v4h-6l1 1 5-1v1h-6l1 1 5-1v5h-4v1h4l1 4h-7v1h7v5l-20 1-4-6h1c-2 0-2-2-2-2l2-1h-3v-1h3v-1c-1 0-4 1-4-1h4l-5-1-1-1h7l-1-1h-6l-1-1h6l-4-1h-3 5v-1h-5l-1-1h7l1-1h-8l-3-1-2-1h36" class="G"/><path d="M317 311"/><path d="M282 311l2 3 16 11c8 4 16 8 25 9 7 1 14 4 22 2l14-2c9-2 18-6 26-11l9-6 2-3 2 3h-1 1l1 1-4 4 4-3h1v2h-1l-2 2 1 1 3-3v1l-3 2v1l3-3 1 1-4 3h1l3-3 1 2-3 2 3-2 1 2 8 12c0 2-2 3-3 4l-7 5c-7 3-13 8-20 10l-24 7c-11 3-21 2-32 2-8-1-16-4-23-6l-22-10-4-3-10-7c-1-1-4-2-3-4l1-2c5-6 10-11 13-18l1-3 13 11 14 7 6 2c6 2 11 4 18 4h18c6 0 11-2 16-3l5-2 8-2c7-4 14-8 20-14v-1l-2 1c-5 6-11 9-18 13l-15 5c-9 3-20 4-30 3l-15-3-9-3-15-7-14-12 1-2" class="G"/><path d="M243 312h-1l-4 1v-1h5m127 0h-2l-5 1 6-1h1"/><path d="M248 313c1 9-1 16-1 25l-5-1-5-21 6 1h1l2-1v-1c-2 1-5 2-7 1l-2-1v-2l6 2c2 0 4-1 5-3v1" class="G"/><path d="M435 313h-4v-1l4 1m-7-1l-8 1 8-1M439 313h-2l1-1 1 1m-42 0v1l-5-1h-1 6m-154 0h-3 3m113 0l-2 1h-2 2v-1 1l1-1h1m73 0l-7 1 6-1h1m-167 4v1h-1v-4h1v-1 4"/><path d="M432 315l5 1h6l-1 5-5-1v1l4 1-1 2h-4v1h4v2h-4v1h4l-2 5-1 4h-5l4 2h1c-1 0-3 2-4 1-2-1-2-3-2-5v-16-2c3 2 8 2 11 1-3 0-7 0-10-2h-1v-3l1 2" class="G"/><path d="M438 315l-1-1 1 1m-177 3h-1c-1-1-2-1-2-3v-1c2 0 2 2 3 4M265 316l-2 2 1-4 1 2m131-1h-4v-1l4 1m22 0c1 1 0 3-1 4v-5l1 1m-59 0h0l-5 1-3 1 1-1h1-1 3l3-1h1M417 319h-1v1c-1-2-3-2-2-4l1-1 2 4m4-3l-2 4v-1l1-3h1m-145 0h1-5c-1 0 0 0 0 0h4m8 3l-3-2v-1l3 3m-25-1v1s1 0 0 0l-3-1v-1c1-1 2 1 3 1m8-1l-3 2v-1l2-2 1 1m57 0h1l-8 1h-1-1v-1h9"/><path d="M336 317c-1 3-5 4-8 5h-1 1l2-1 4-4h2m8 6l4 1-2 3h-1l-3-5h-1c2 1 2 4 3 5l-1 1h-1l-1-3-1-3-2 4-1 2-2-2 4-5h-1l-1 2c-1 1-2 3-4 3v-2c3-1 6-4 7-7l4 6" class="E"/><path d="M415 320h-1c-1 0-3 0-3-2l1-1 3 3"/><path d="M348 317c1 3 3 4 5 5-3 0-6-1-7-3l-1-2h3" class="E"/><path d="M246 317l-1 1h-2l3-1m154 0l-4 4 4-4m30 1h-5 5m-6 0v1l-3 2h-1v-1l1-2h3m-143 0l3 3v1l-4-4h1m-35 0l-1 1h-3l4-1m17 1l-1 3-1-1v-2h1v-1l1 1m-3 1l-1 1c-1 0-3 1-4-1l1-1 4 1m8 0v1l-4-1 1-1 3 1m162 0h-4l3-1 1 1m12-1v1h-5v-1h5m-196 1h-1l-3 1 1-1h3m34 0l3 3-1-1-2-2m122 0l-3 3v-1l3-2m13 1l-2 1h-3v-1h5m4 0l-1 3h1l2 3-1 1-2-3v-1h-2l-1 4a2 2 0 01-1 0l-1-2 1-1h-2a1 1 0 01-1 0l4-3a1 1 0 010 2l-1 1 2-2v-2h3m5 0v2h-4v-1l1-1h3m-178 0l-2 1h-2l2-1h2m21 1v2h-2v2h-1l-1-4 1 1v-2h1l2 1m-7-1c-1 1-2 4-4 3v-1l4-2M276 321l-1 1h-4v-1h5m5 2l2 1-3-1-1-2 2 2m-35-1l-3 1 3-1m14 0v3l-2 1 2-4m3 2l-1 3-1-1 1-4 1 2m19 2l-3-3v-1c0 2 2 3 3 4m159-3h-4l4-1v1m-11 0h-4 4M276 323l-2 1-3-1h5m5 3v1c-2-1-2-3-4-3v-1l4 3"/><path d="M423 325v1c-2 0-2-2-3-2 0-2 1 0 1-1l2 2m-176-2l-4 2v-1l4-1"/><path d="M341 328h-3l2-4 1 4" class="E"/><path d="M395 324l-3 3s-1 0 0 0l3-3m23 2v2l-1 1v-5l1 2m12-1h-5 5m-150 3l-3-3c1 1 3 1 3 3m13 0l-2-1-3-2 5 3m2-1l-4-2a8 8 0 014 2m-49-2l-2 1h-2l3-1h1m31 1l3 3-4-3c-1-2 0 0 1 0m119 0l-4 3 4-4v1m9 0l-1 1-2 2v-1l3-2m34 0h-4 4m-146 4l-6-4 6 4m-48-3l-2 1v-1l2-1v1m152 0l-1 1-3 2 4-3m-118 3l-3-2v-1l3 3m127-3l-3 3h-1l3-3h1m-116 2l3 2-6-4 3 2m108-1l-4 3 4-3m-123 0l4 4h-1l-4-3v-1h1m155 1h-10 10m-184 0l-3 2v-1c1 0 2-2 3-1m160 0l-2 2 2-2m-17 0l-3 3 1-2 2-1m10 0l-4 3h-1l5-3m-106 4l-6-4 6 4m146-3h-4 4m-139 2v9l8-5c2 0 4 0 5 2l-2 1-5 13 1 2h-2l-2-1-4-1v-1l2-1v1l4-8-7 6-1-1h1l-1-1v-8l-3 5v2 3h-1-1l-6-3 3-2 6-12v-3l5 3m108-2l-2 1-2 2 1-1 3-2m-131 3l-3-3 3 3"/><path d="M299 332l1 10c1 1 1-1 2-1l6-5 4 1-1 2-5 12v3l-6-3c3 0 4-3 5-6l1-3h-1l-7 6-1-11-4 9 1 3-7-3c1-1 3-1 3-3l6-10v-3l3 2" class="C"/><path d="M390 330l-4 2 4-2m10 0l-5 4v-1l5-3m29 0v1h-8l1-1h7m-138 3l1 1-6-3 5 2m-15 1l-3-3 3 3m132-3l-3 3v-1c0 1 0 1 0 0l3-2m-17 0l-4 3v-1l4-2m47 0l-3 1v-1h3m-146 4v1l-7-5 7 4m108-3l-4 3 4-4v1m-125 3l-4-3h1l3 3"/><path d="M269 332c-1 1-2 3-3 2h-18v-2h21" class="G"/><path d="M387 336c-4 0-7 1-10 3-2 0 0 2 0 3l3-1 3-3 4 5h-1-1l-1 1v-1l-3 1h1l-3 1 1 3c4-1 7-2 10-5v-1l1 4v2h-1l-3 2-9 4h-2-1v-2l-2-8c-1-2-2-5-4-6v-1l5-1 9-4 4 4m22-3l-3 1 2-2 1 1M392 333l-4 2h-1l4-3v1"/><path d="M386 336c-2-1-5 1-7 1l-2 1-1 1 1 3c2 0 5-1 6-3l3 4-8 2 2 4h1l1-1h1l1-1h1l2-1 3-3 1 4-3 2-13 5c2-4-1-8-3-12l-2-4c4-2 9-3 13-6l3 4" class="C"/><path d="M292 337h-2l-5-4h-1l8 4m117-4l-3 3 3-3m-134 4h-1l-4-4 5 4m126-4l-1 2-3 2v-1l4-3"/><path d="M431 333v3l-11 1h-7l-2-3 20-1" class="G"/><path d="M438 333c0 2-2 1-2 2l-2-1 4-1m-46 1c-2 1-3 3-6 3l6-3m18 1h-1l-2 2 3-3v1m-137 3l-4-4 4 4M291 339l-8-4v-1l8 5m102-4c-2 1-3 3-5 3l3-2 1-2 1 1m9-1v1l-4 3h-1l5-4m-130 4v1l-3-4 3 3m131-2l-5 3 5-4v1m-135-1l11 10 13 6 17 8c13 5 25 5 39 4 7 0 14-2 21-4 9-2 18-6 26-11l17-10c-7 7-16 10-24 15l-7 2c-7 3-14 6-22 7-6 2-13 2-19 2l-17-1-18-5-7-4-17-7c-5-3-10-7-13-11v-1m143 1l-3 3h-1l2-1 1-2h1m26 0h-3 3"/><path d="M394 336l-6 4v-1l5-3h1m-104 4l-3-2-4-2 7 4m-1 1h-1l-6-4h-1v-1l8 5m114-3l-5 3 4-4 1 1M394 338l-4 3-1-1 5-2m1 0v1l-5 2 2-1 3-2m-107 4l-3-1-4-3 7 4m77-3h1c0 1-2 1-1 2v3l2 10 2 2-6 2-1-3c-2-3-5-5-8-6l1 6 2 4-4 1-2-1-2 1 1-3c1-4 0-6-1-9v-3l-2-3 2-1h3c2 1 3 4 6 5l3 2-1-5-2-2 1-1h2v-1h4m39 0l-3 3h-2l5-3m-8 1l-4 3c-1-1 0-1 1-2l3-2v1"/><path d="M365 339v4l2 11 2 2-6 1c0-2-2-3-3-5l-6-4v2c0 3 0 6 3 8l-7 1c2-5 0-10-1-15l-2-2 5-1 5 5 4 3 1-1c-1-3-1-6-3-7l6-2" class="C"/><path d="M369 340h-3 3m-82 3h-1l-6-3 7 3M317 341l-5-1 5 1m7-1c-1 0 0 0 0 0h1l4 1-1 1c0 5 2 10 3 14l1 3h-9l2-2c-1-1 1-4-1-4h-5l-1 5-6-2-2-1 1-1c3-2 5-6 7-9l1-4a2 2 0 010-1h5"/><path d="M321 340l7 1c-2 2 0 4 0 5l2 11 2 2h-8c2-1 1-4 1-5l-1-1-2-1h-2-1l-1 1v4l-7-2c5-3 7-9 9-14l-1-1h2" class="C"/><path d="M402 343l-2 1 5-4c0 2-2 2-3 3m-32-2l-4 1 3-1h1m-53 2l-5-2 5 2m80-2l-5 3v-1l4-2m-60 1M336 342h6v16l2 2h-9v-1h1v-1l1-11c-1-2 0-4-2-5h1m-2 0h-1-2 3m37 0l-1 1-4 1v-1l4-1h1m26 1l-4 2 3-3 1 1m-112 2l-3-2-2-1 5 3m31-1h-2l-3-1 5 1m17-1v1l-3-1h3m65 1l-4 2h-1l4-3 1 1m-27 0l-5 2 2-2h3m-24 0h-4 4m-32 1v1l-4-1-1-1 5 1m19 0h-4 4m38 0l-4 2h-1l5-2m-49 1l1 3h-1-1-1l2-4v1m24-1v1h-4v-1h2c0 1 0 0 0 0h2m-33 2h-2l-2-1 4 1"/><path d="M323 346v2h-1l1-2" class="G"/><path d="M373 346l-6 2h1l5-2m-38 1h-5v-1l5 1M348 346v1h-5l1-1v1-1h4m-34 3h-2l-3-1v-1l5 2m21-1h-5 5m38 0l-2 1-3 1 5-2m-25 0h-2a11 11 0 01-4 1v-1h6m-36 3l-4-2 4 2m23-1l-5-1 5 1m38-1l-4 2v-1l4-1m-25 0v1h-5l4-1h1m26 2l-4 1 2-1h2m-63 1h-1l-2-1h-1l4 1m37-1l-1 1-4-1h5m-14 0v1h-3v-1h3m24 1l-1 1h-2l3-1m-10 1h-4 4m25 0l-2 1h-1l3-2v1m-38 1l-4-1s1 0 0 0h4v1m-26 0l-1-1 1 1m50-1v1h-2l1-1h1m-10 1l-5 1-1-1h6m12 1l-1 1h-3l1-1h3m-26 0v1h-3v-1h3m13 1l-3 1h-2v-1h5m14 1h-2c-1 0 0 0 0 0h2m-27 0h-3 3m12 1h-1l-1 1v-1h2"/><path d="M336 342c2 2 1 5 1 8v8l-1 1h2v1l2-1 3 1v-1c-2-2-1-6-1-9v-8h-6" class="C"/><path d="M268 200c2-3 5-6 5-9l-1-5-1 1h-6l-3-1v3l5 10v1h1" class="F"/><path d="M273 186h-1c1 2 2 5 1 7l-2 3-3 4h-1l-3-7c-2-3-4-5-2-8l-1-1-1 1c-1 2-3 5-3 8h4c2 1 0 4 2 4l3 3v1l-1-1-3-3v-3l-5-1c-1-2 1-4 2-6l1-2h-3c-3 2-7 1-10 4l-3 4c-1 2 1 3 1 5l-1-2-1-2 2-3-3 1-5 2c-2 1-3 3-3 5l1 2 2-1v-3l2-1-2 2v2c2-1 4 0 5 1 2 1 0 5 3 4 2 1 4-1 5-2 0-3 1-5 3-6l-2 3-1 6v5l10-4 1-2c1-2 3-4 5-4h5l1-1 4-8h2c0-2-2-2-3-4l-1-2h-1" class="C"/><path d="M428 191l7 1c5 3 4 10 4 15 2 5 4 10 3 15-2 4-6 6-10 7l-5 1-1-4 1-4-3-2 9-3-1-8v-3 10l-2 1-3 2-3 1v-20h1l-1-2h2l2-3v-4" class="I"/><path d="M422 187v-1h1l4 4c1 2 0 5-1 8h-4c0 2-3 4-5 5l-4 1c-2 0-3-3-4-5h-3v-2-3c0-3 4-4 6-5v1c-1 4-1 10 2 14l1-1c4-1 6-5 7-9 1-2 2-4 0-6v-1" class="C"/><path d="M421 187v1-1h-1l1 1-2-1 1 1h-2l1 1-1-1v1l-1-1 2 2c-2 0-3-2-5 0l-2-2-2-5-1-4 1-4 1-1 2-1 1 2h7v6c2 0 0 1 1 2l1-2c1 2 0 3-2 4h-1 1-1v1l1 1" class="F"/><path d="M418 177l-1 1h2l1 1-1 1-3-2 1-1h1m-5 0v3l-3-1 1-1 1-1 1 1-2-1h2"/><path d="M412 179" class="C"/><path d="M415 184l1-1h1l-1 2-2-1v-2l1 2m2 2v1h-3l-1-1h-1l3-1 2 1"/><path d="M416 186h-2 2" class="F"/><path d="M342 118l3 7h7l-6 4 2 7-6-4-6 4 2-7-5-4h7l2-7" class="E"/></svg>