<svg xmlns="http://www.w3.org/2000/svg" width="750" height="500"><style>.B{fill:#00589c}.C{fill:#fff}.D{fill:#4ab932}.E{fill:#453e6f}.F{fill:#ef1439}.G{fill:#e2e258}.H{fill:#918876}.I{fill:#ff9e0f}.J{fill:#ffe8b9}.K{fill:none}.L{fill:#674413}.M{stroke:#ff9e0f}.N{stroke-width:.696}</style><path d="M-2739 2536z"/><path d="M0 500h750V0H0z" fill="#f0dc82"/><path d="M501 188" class="E"/><path d="M371 98l-1 4-1-1-1-2c-2 3-2 7-1 10h-4c-2 0-3 3-5 3l-1-1v1l4 1c1 2 0-1 2-1v1l-14 13c-1 1-4 4-4 6 2 1 1 3 2 4 1 2 3 0 4 1v1c1 2 2 0 3 1l3-1c1-3 5-2 7-4 3-3 7 1 10 0h1c-6 6-16 11-17 20-2 2 0 6-3 7l-6 1-6 1c-3-1-7 0-10-2v-2c1-1 1 1 2 1v-3l-2-1c-1 1-2-1-3-1v-1l1 1 1-2-1-2-5 2c-1 2-2 3-1 5l-2 1c-3-1-6-3-6-6l1-2v3h2l2-2h3l2-2 2-4-1-3-3 1 1 1h-3c-2 0-1-3-2-3-1-1-1 1-2 1l-3 2-4-1-1 2h1l1 3h-1c-3-2-4-6-4-10l2-1 1 1 1 1 1-2c2-2-2-3-1-6v-4l-2-3 3-2c1-1 2 1 3-1a2 2 0 000-1v-1c2-1 4 0 5 1l-1 1c-1 1-1 0-2-1l-1 1c1 2-1 3-1 4v5l2-1c2-2 2 1 3 1l2-1c-2-1 1-2 2-4v-6-3l4 2v3h-2c-2 3 3 2 2 5 0 2-1 1-2 1l1 2h3l3-3h1l-2 3c-1 1 1 1 1 2-1 2-3 3-5 3-2-1-3-2-3-4-2-1-2 2-4 1-2 1-5 1-7 3v4l3 2 1-3 1 1c3 0 2 2 4 3 1 2 1-1 2-1l5-1c2 1 0 3 0 5s2 5 4 6 4 0 4 2c3 0 1-3 4-4h2c1-2-2-2-3-4l-4-2-1 1h-2l5-7h2l1-2-1-1-1-2c1-4 0-8-2-11 1-2 4-1 5-4 1-2-1-3-2-5l-2 2-1 2c-4 0-6-3-9-3-7-3-16 0-21 5-2-1-1-2-2-4l-4-2c-3-1-5 1-7 3l-1 1 2 2c0 1-2 1-1 2l3 1 1-1 4-1-3 12v-7c-1-2-3-1-4 0-1-1-1-3-3-2l-5-2c-1 1-4 0-3 2l4 3c1 1-1 2-2 3v1l3 1h-3c-3-2-7 0-9 2-3 2-4 6-7 4l1 3 3 1 2 6-1 1c0 2 2 2 3 2l3-3h6l-1 2 1 1c2-1 3-1 3-3 1-3-1-5-3-6l-3-2 1-1-1-2-2 1h-1v-3l3-1c5 2 8 6 11 10 4 7 9 14 16 19l-1 1-1 3 3 2v-3l12 3c1 1-2 1-2 2l-1 1c-1 1-2-1-3-1l2 4 6 1-2 3c-2 1-3 5-5 3v-2l-1-1-1-4h-2v2c-2 0-1 3-3 3v1c1 2 0 3 2 4 1 2 4 2 5 2 2-1 3-2 4-1-1 3 0 6 1 9l-1 2h2l2 3 1 1h-3l1 3h4c3-1 1-5 3-7l6 2-1 1-3 1v1c1 2 3 2 5 2l3-3h4l1-3-1-2-2 2-3-2v-1l4-3 2-2c1 1-1 1-1 2l2 1s1 0 0 0v2h3c1-1 2-3 1-4l2-1v-2h-1c-1-1-3-3-5-3l-6 3-1-1 1-3 2-2-3-1c0-2-2-3-3-4h-2v1l-1 3c1 2-2 1-2 3l2 2-1 3-4-2-1-5c2-5 8-9 13-12v2c0 2-1 4 1 5l3 1 1-2-1-1 2-1h2a13 13 0 012-4c2 0 3-2 4-1l2-1-4 10c0 6 3 12 9 17l-1 3c-1 3-5 3-7 4l-4 1c-2 3-6 1-7 4l-1 4c1 4 6 4 10 5 2 3 5 6 8 6l2 2-5 1c-1-1-2 0-2-2l-4-2-11-4-21 2-2-1-4-2-2-10-3-12-3-4-4-2-1-1 1 2-2-2c1-1-1-3-2-4v-4h1v-3h1v-4l2-3h-1l1-6h-1-1l-2-5v1l-2-1-2-2v2l-2-2v2l-1 1-4-1h-2l1-3-5 3v-3h-1l-1 2c-1 1-1 3-2 2l-1 4-1 3-1-1v6c0 2 3 3 2 5l2 3 2 4-1 3v-2l-2 1c-1 1-3 2-2 3h1-3l-2 3c-5 2-5 7-7 11l-1 3-2-15c2-1 0-2 1-4v-3c-1-1 1-3-1-4h-1l-1-6 1-1 7-8c2-2 0-5-1-7-2-2-5-4-5-6-1-2 2-3 2-4l-1-3c-1-1-2-4-5-3s-5 3-5 6c0 7-6 12-5 18v7c0 2 1 5 3 7 3 1 4-2 6-4l1 1v4c1 2-1 2-2 3-3 5-7 11-6 17-1 8 0 15 3 22 3 6 3 13 5 19 1 2 1 5 3 6l3-1c0 5-2 9-1 13l1 7c-1 3-2 6-1 8 2 6 3 11 2 18-1 2-2 4-1 7 1 1 0 4 2 6l-1 9-1 19 3 4v3l-2 6c-1 1 1 2 1 4 1 5-5 3-6 7v3c3 4 5 9 5 14l2 3h3c2-1 0-3 0-4 5-2 10-2 16-2 16-1 35 0 50 6l4 2c0 3-3 5-4 7s1 4 3 6c8 6 17 10 27 11l5 1c8-1 15-2 22-5l4-2 8-5c1-2 4-3 4-6l-4-6c-1-2 2-1 3-2 17-7 38-8 57-6l10 1v3h3c2-2 1-4 2-7l5-11c0-3-3-4-5-5l-2-1c1-2-2-3-1-5-1-1 0-3-2-2-3-3-2-7-2-10s3-2 3-4c2-3 5-7 6-11s-1-9 3-12l-3-18c2-3 1-6 0-9 0-2 2-1 4-2l1-2-1-2h-2l-1 2v-4c2-3 0-5-1-8l2-3v-1l3-7 5-13v-8c2-1 0-3 0-5l4-5h1l2-4v-2l2-3c1-1-1-3 1-3v1c1 1 2 0 3-1v1h-1v1l1 1v1l2-1c0-2-2-2-2-3l1-1a1 1 0 010 1l2 1v-1c0-1 1-2 2-1l1-3h-1l-1-3c-3-1 0-3 0-4 0-3 3-2 3-5h-2l2-1v-1-1c1-1-1-3 1-3l-1-2c-1 1 0 2-2 2v-1l1-1v-2l-2 1v-1l1-4-2 1-1-3-2 2-2-2-1 1h1v1l1-1 1 1c-1 2-2 1-3 2l-1 1c-2 0-1-2-2-3-1 1-1 2-3 2v-1l-1 1c-1-1-1 1-1 1l-2-4-1 2-2-2-2 4-1-2-1 3-4-1v1 4l-2 1h1l1 1-1 1-2-1c0 2 1 2 2 3l-1 2 2 1-1 1-2-2c-2-1-2-5-5-5v1c-1-1-1-4-4-4v1l1 1c-2-2-1-4-2-6h-1l1 4-2-3c1-2 2-5 1-7v-3 2c1-1 2-3 1-5l1-4v-4l1-2-1 1-2-3v-4 3h-1l-2-5v3c-2 0-2-2-4-3l2 3-1 2-1-1v1h-3l1-1h-2-1c-1-1 1-2 1-3l1-1-3 3c-1-2 1-4 1-5h-1c0 2-3 4-4 6v1-3-2l-3 6v-2 4l-2 2-1-1 2 10v1 4c0 3 4 5 2 9v1l-1-5c-1 2 0 4-2 6l1-2v-1c-3 1-3 5-5 6l1-3-5 5c0 2-2 2-3 4-3 5-3 13-4 19 1 4-3 3-5 5l-19-3c-3-1-6 0-9 1-3 0-5 2-8 3v2l-4-1v-1h1c4-1 7-4 9-6 3 0 6-1 8-4v-5c0-2-2-2-4-2s-4-3-6-2c-2-2-4-3-7-3v-7l2-3c5-6 5-14 2-20 0-2-3-3-2-5l3 1 3 1c3 0 5 2 6 4v3l2-1 2 1-2 2 2 1h2l1-3 1-3c3 1 6 3 8 6 2 2 2 7 1 10-1 1-3 3-5 3l-2-2 1-2h2l1-2-2-1v-4c0-1 1-3-1-3l-1-1v2l-2 1c-1 1-3 1-3 3s-3 1-4 2v1c2 0 2 2 3 3l-2 1h-4c-3 1-3 5-5 6l2 2c1 1 2 3 4 3l-1-2 3-2c0-1-2-1-1-2l1-1 6 4-1 1-1-1-2 1v2l2 2 2 3h3l1-2c1-2-1-1-2-1l4-4 2 1c0 2 0 5 3 6h2l2-3h-3v-2c2 0 1-2 2-4h2l1-1c-1-1-2-3-1-5 0-4 4-1 6-2 3-1 3-4 6-4l-1-2v-4h-2c-1 0-3 1-3 3h-2v3h-2l-4-5 1-1 4 1v2l2-2-2-5c-2-1-1-3-2-4h-4l4-1 12-2 2 1-1-2c0-1-2-1-1-2l7-6 11-15c3-4 7-8 11-8l2 1a2 2 0 010 3h-3c-1 1 1 3-1 5 1 2-1 5 1 7l4 1 1-3h-2c0-2 2-2 4-3v1l3-1c-3-1 0-4-1-7a8 8 0 00-3-5c-2-3-6-2-9-2h-3c-2 0-1-2-1-3l-1-5-3-3-3 1 3 3-1 2h-2l-1 2-3-6c1-2-1-5 2-6v2c2-1 4 2 6 0l1-2h-1c-2-2-4-4-6-3-2 0-3 0-4 2l-2 3-6-4c-8-2-15-1-22 3l-1-1 1-3a1 1 0 00-1-1c-1 1-3 1-3 3-1 2 0 3 1 4h1c-1 3-3 4-5 6h-3l2 3h2c-1 5-1 10 1 14 1 2 4 4 4 6l-1 1-2-2-1 1c1 2-2 3-2 5v3h1l3-1 1 1h2c-1-1 1-1 1-2 2-2 2-5 1-7h2c4 1 7 1 10-1 2 0 3-2 5-3l1 1h2v-3l-1-1-1-2v-3l2 1h1l-1-4-5-1-5 6c-1-1-2 0-3 1l-1-2h-1l-1 2h-1c-2-1 0-3-2-4l-2 1-2-2 1-2 2 1 4 3c2 0 4 0 5-2l1-2-2-2-1 1-1-1 2-3-1-2-1 1-2-1c-1-2 1-2 2-3s1 0 2 1l3-2c1-1-1-1-1-1l1-1c1-1 2 0 2 1 1 2-3 3-2 6l2 2c2 2 3 1 5 2l1-1v-2c0-2-2-2-2-3 4-1 8 2 10 6l2 4-2-2h-3l-1 2 1 1c2 0 0 2 1 3l-2 2 1 1 3 1v5c-1 1-1 4-3 4-2-1 0-4-2-5s-4 0-5 1 1 2 1 3h1l-1 2h-1l-3 1v2l1-1 2 3-3 4h-2l1-2v-5l-2-2-2 1c-1 1 1 1 1 2l-3 1c-1 2-2 0-4 1l-2 1 1 2-4 4-18 1-1-1c2 0 3-2 5-3v1h1v-2c-1-2-4 1-5-1h2l3-2c1-1 0-3 2-4l-1-1-3 2h-1c-1-2 0-4 1-6l1-2 3-1 1-3 1-1c-2-1-2 1-2 2l-1-1-1-12c-3-2-1-7-3-9v-3-1h-3l-8-6 1-2-1-2-2-1 1 1-1 2h-10l-1-1-4-7v-1h-1zm55 40l1 1-1 3h-7c1 0 4 0 5-2l2-2zm-164 53v1l3 19h-2l-1-4-1-2c0-4-4-10 0-14a1 1 0 011 0zm44 25l2 5 1 5c-1 3 3 5 2 9v1l-4-9 1-4-2-7zm-31 1l1 1-1 10h-1v-5c-1-2 1-4 1-6zm203 3l3 10c-1 1 0 4-2 5v2l-2-3-2-5v-2-4l2-3h1zm-129 1l5 2-4-1-1-1zm51 1l-2 1h-3l5-1zm8 1h-2 2zm-74 0l-11 9c1-2-1-5 2-6l9-3zm109 0l1 1v5l-1 3-1-4 1-5zm-17 6l1 1 2 1v2l-3-3-1-1h1zm3 10h1l1 17 3 1c0 4-2 9 0 13-1 2 1 6-1 8 0 5 2 10 4 15-1 2-4 4-2 7 1 3 0 6-1 9v5l-3 15c-2 2-4 5-4 9-1 1 0 3-2 4l-1 3v1c-1 1-3 3-2 5l-4 1a73 73 0 00-26 9l-5 5c-1 3 4 5 5 8-5 4-11 7-18 7-6 0-11-2-16-5-1-1 1-2 1-3l3-4c1-2 0-3-1-5-3-3-8-5-12-7l-1-1-25-7c-1 0-3 1-3-1-1-3-1-7-3-9l-1-15v-5l-1-21v-6l1-7c1-3-3-5-1-9 0-3 3-6 1-9v-6c3-3 0-7 0-11h3c4-3 3-7 4-11v1l2 4c3 6 4 15 3 22l-4 12-1 4c-2 4-3 9-3 13-2 9-1 19 2 27a44 44 0 003 8l7 8c5 5 12 8 19 10l3 2 13 5 3 1 5 4 3-2c5-5 11-6 17-9l4-1c6-3 12-5 17-9l9-9c6-10 7-22 6-34-1-5-1-11-4-15-2-8-5-16-4-24 1-7 3-13 6-18zm54 4l-1 6-1-1 1-4 1-1z"/><path d="M369 102c3 2 0 8 5 8l1 2-4-2-1 1c0 2 4 1 3 3l1 1v-1l1 2 1-1c-2-2 1-5-3-6-2 0-1-2-2-4l1-3c1 0 0 2 2 2v-1l2 3v4c1 1 0-1 2-1l2 2c1 3 0 8 4 9 1-1 3 1 3-1l-2-2 1 1c1-2-2-1-1-3l2 1 2-1c1 2-3 3-1 4h1c-1-1 1-1 1-2l2 1v2l-2 1 1 1h1v3l2 2v3c0 2-2 4-1 6v4l-1 1h1l-1 4 2 4-2 6h-1l-2-1v2l1 2c1 1 4-1 3 1h-3c-3 0-6-3-9-2-2 1-4-1-6-1l-1 1h-5c-2 0-3 2-5 1-3-1-4 3-6 1 0-8 7-16 14-20 3-2 4-6 7-6l3-2-2 1c-2 1-5 2-8 1h-6l-8 3c-1 1-1 3-3 2h-3c0-2 2-1 3-2l3-2c-2-2-4 0-6 1l-3 2c-2-1 0-4-2-4v-2l6-6 13-12c-1-2-2 0-3-1l2-1c-2-1-3 1-5 1 2-2 4-2 6-2h2v-9l1 1" fill="#a96a41"/><path d="M389 107l-1 2h-1l2 1 9 7h0l-1-1v1c3 2 4 7 3 11 0 4-6 5-5 10h-1c0-1-1-4 1-6 1-2 4-4 3-7l-1 2-2 3c-1-3 3-5 3-8l-3-6 1 4-2 4v1l-1-2c0-2 3-4 1-7v1a4 4 0 01-1 4c0-3 0-7-2-9h-1c1 1 2 3 1 4l-1-1v1c0-2 0-4-2-5l-3-2-1-1c1 0 3 1 4-1h1m-4 4l2 4c-1 0-1-2-2-1 0-3-2-5-4-6l-1 1 2 1c2 1 3 3 2 5l-1-1c1 2 0 4 2 5l-3-2c0-3 0-7-4-9h-1c2-1 4 0 6 1l2 2" class="L"/><path d="M374 113l-3-2 3 2"/><path d="M389 114h-1l-1-3 2 3" class="L"/><path d="M304 114v1l-2 2v2l-1-1c0 2-2 1-3 2h-1l1-3h-1l4-4 3 1" class="C"/><path d="M307 116c0 3 2 5 1 7l-3 7h1l3-7v-3c5-6 14-9 21-6 4 1 8 5 13 3l-2 2c-1 0-2 2-3 1l-3-2v1c5 2 6 7 5 13 0 1 0 3 2 4h-2l-1-1v-2l-1 2c2 1 0 2 0 3l-5 8c-1-2 2-4 0-6 0-2 2-2 3-4-2 0-3 3-5 3-2 1-5 0-7 3l-1-1v-2c-2 1-2-2-4-2h-3l3-3h5l1-2 2 3c2 2 6 2 8 1l4-4c-1-2 1-2 1-4l-1-3-1 5-4 1c2-1 3-4 3-6-2-1 2-3-1-3l-5-6c-3-2-6-3-9-2l2 1c2 0 5 1 6 3-3-3-7-2-11-3h-3l1 1c2-1 5 0 6 1l1 2-3-2v1c2 1 4 2 4 4l-1 3c1-2-1-4-3-5-1-1-4-2-5-1l-5 1v1l2-1c2-1 1 1 3 2h-3c-3 0-3 4-6 5v1c2 0 0 2 1 2l-3 2h-2c1 4 0 9 2 13h1l-1-2-1-10 2 1c0-1 1-3 3-3l1-2v-2c2 2 1 4 1 6 1 1-1 3 1 3v3l-1-1h-3c-3 3-2 8 0 12l5 6c2 4 7 6 10 7v-1c-4-1-8-3-9-7l2-3c-1 2 0 4 2 5 3 4 7 5 11 7l7 1h14l-1-1c-4 1-9 2-12 1l-3-1-4-2c7 3 16 2 24 1l1 2c-3 1-6 2-8 1l-1 1c-6 2-11 6-14 12 0-4 3-7 6-9l6-3v-1c-6 2-12 7-13 13v4l4 5c3 1 6 0 7-2l-1 3-4 2h3l3-4h2l-2 2 2-1 6-4 2 1c-3 1-5 3-7 6-2 2-5 3-9 2v1c2 1 4-1 6 1 2 0 3 3 5 4h-3c1-2-1-3-2-4v1c1 0 2 1 2 3-2 0-1 1-2 2l-1-3c-2-3-6-3-9-5l1-2c-1-1-2 0-3-2-2-1-3-3-3-5v-1c0 2-1 4 1 5l4 3-1 2c1 1 2 2 1 3v3l-2 3v-1l-1 1h-2c1-1-1-2 1-2h2v-2c-1 0-3-2-3-4l-2 1v-5c0-3-1-6 2-8l3-6h-1c-1 2-1 6-5 6-2 2-3 2-5 2l3-1 7-9c1 1 1-1 2-2l7-5h-1l-7 6c-1 2-2-1-3 0-2-1-4 1-5-1l-1-1 3-1c0-2 4-1 3-3h3l3-1c-1-1-4 2-6 0h-1-2c-4-1-8-4-13-2l1-2h4v-1c-1-1-2 1-4-1-7-5-11-12-15-19-4-5-8-9-14-10h4c2 0 3 2 6 1 3 0 4 3 5 6l1 3 1-1c-1-3-2-6-5-8-3 0-4-3-6-4l2-1-1-5v-1c2 0 2 3 4 2l2 2 3-1a27 27 0 000 8l3 12 5 9h1c-5-7-8-15-6-23 0-5 4-10 2-16l-1-1 3 3" class="B"/><path d="M343 115c1 1 0 1-1 2h-3l3-3 1 1m73-2a7 7 0 00-1 3h-2l1-3h2" class="C"/><path d="M447 123l-2-5 1-2 3-3h2l-1 1 2-1c2 1 2 3 5 3-1 2-2 1-3 1-1-1-3 1-3-1l-2-1 1-1c-1-1-1 0-1 1l-1 4 2 10-1 1c3 4 3 10 0 15l1 1 1-2c1-4 1-11-1-15 3 1 1-3 4-3 2-2 3-3 3-5l1 2v7l2 1c-3 2-4 5-5 7l1 1c1-3 1-6 4-7l2-1h5l4 1c-6-1-11 4-15 8-6 8-12 18-21 22l-3 1h2l4 1-9 1-3 1c-4 2-10 2-15 1l4 1 11 2-1 2c2 0 2 2 4 3v2c-1-1-3-2-5-1-1-1-1 1-3 1-1-5-6-7-10-9v1h1c3 2 9 3 9 8h1c3 3 4 8 9 9h-4l-3-2v2c0 2-1 5 1 7l-2 1-2 4v5l-2-1-1-6c-1-2 2-3-1-4l1-1c3 0 3-3 4-5 0-2 1-4-1-6l1 3c0 3-1 6-3 7l-3 1c0 1 3 2 1 3-2 3-8 5-7 9l-1-1v-3h-2l-1-1c2 1 3-2 6-2 1 0 3 0 4-2l-2 1c-6 2-9-6-15-5 1-2 3-2 4-1h3l-1-1h2c1 2 4 5 6 4-2 0-4-1-5-3l-1-2c2 3 5 4 8 3 3 0 5-3 6-6 1-5-2-9-6-12l-5-3v-1h-2l-6-3h-2l4 1 5 2v2 1l-1 4-3-3h-2c0-3-3-6-6-7 1-2 3 0 4-1 7 1 14 0 20-1l2-1 5-1c-8 2-15 5-23 4v1c8 1 17 0 24-3l2-1h1c-1-1 1-1 2-2 1-2 2-4 1-7 0-1-2-1-1-2h2l1 1 1-3 2-2v-1l2 3v2h1c-3 3-4 8-8 10h1l1-1c3-2 4-5 6-8 1-1 3 0 2-1l1-3c1-2 2-5 0-8l-3-2v-1c2 0 0-2 1-3v-2l-1-1 4 2 1 3 1-1v8c2-2 0-5 1-8l-1-1-4-7c-3-4-7-7-11-6l-4 3v-2l2-3 3-1h-2l-1-2 1-1c1 2 4 2 6 3 3 2 6 4 7 8h1c-1-3-3-4-5-6-2-4-7-3-9-6l-2 1-2 1-2 3v1l-1-1c-1-1 0-2 1-2-1-1-2 1-2 1l-4 4 1-4 6-4h-1c-6 1-12 8-13 14l-1 1a2 2 0 001 1c1 2 1 5 3 6l2-1v2l4 2h1l-2 2h-5l-1-1-2 1-2-8 1-5-1-1c-1 4-1 9 1 13 0 1-1 2 1 2l2-1c2 2 5 4 8 3l2-1-5 2-4-1v1c1 2 2 4 1 6-1-5-6-9-7-14v-10c3-1 3-4 5-5-1-1-2 1-2 2l-2 2c-2 0-4 1-4-1 4 0 6-6 10-7l1-1-2 1h-2l-2-1h1c4 1 7-3 12-3 6-2 13 0 18 4l3 5" class="B"/><path d="M336 122l1 1-1 1h-2v2l-2 3-3 1 1-2c1-1 0-2-1-4h-1l2-1 1-4-1-1-2-3 8 7" class="C"/><path d="M371 117l-3 1h-2-1l2-3c2-1 3 2 4 2"/><path d="M304 116v3l-1-2 1-1" class="B"/><path d="M368 116v1l-1-1h1" class="C"/><path d="M392 117v-1 1" class="L"/><path d="M420 120l1 4 3 1a4 4 0 002-1l-1 3-2 1c3 1-1 4 2 5h-3c-1-1-4-2-4-4h-4l2-1c2-2 1-5 3-8l2-2-1 2m8 0v-1 1m-138 2l1 2c-1-1-3 0-3-2 0-1 2-2 2 0m33 5c0 1-2 2-1 4l-1-2v-1l-2 1-2 1 1-4v-2-1l2 1 2-2c2 1 2 3 1 4m133-5v2l-3-2 1-1 2 1" class="C"/><path d="M396 125h-1l1-3v3" class="L"/><path d="M436 126l1 1c-2-1-4 0-6-2l1-2 2-1c0 2 3 2 2 4m-127 1v1h-1l1-1" class="C"/><path d="M403 141l1 1h1l-1 1-2-1v-2c-2 0 0 2-1 3l-2 9c1 1 1 2 3 1 0 1 0 3-2 3h-2l-1-2v-4c-2 2-2 4 0 6l1 3h4c-2 0-4 4-7 1l-1-3 1-2h-1l-1 2h-3v-1h2l2-4c1-1 1-4 3-3l1-1c0-1-2 0-1-1l3-4-1-1c2-1 2-3 3-5v-2l-1-1v2c0 4-4 6-6 10l1 2h-1c-2-1-2-2-2-4 1-5 8-6 8-11v-5c3 3 2 9 2 13" class="L"/><path d="M351 132l-1 1-1 1-1-1 2-1h-2v-2c2 0 2 1 3 2"/><path d="M285 132l-3 1v3l1 2 3-1v2l-2 1h3c2 0 1 2 3 2l2 4-1-1c-2 1-4-1-6 1-1 1-4-3-3 0l-2 2h-2l2-2c-1-3-3-5-2-8h-1l-1 1-2-1v-1c3 1 4-4 7-5h4" class="C"/><path d="M427 130v2h-2l-1-1 2-1h1m-89 1c-1 2-3 4-6 5 3-1 4-3 5-5h1" class="B"/><path d="M400 134l-4 5c0-3 2-5 4-7v2" class="L"/><path d="M435 131v4l-1 4h1l2 1-8 6h-7l6-3v-4l-1-2h2s0 1 0 0l1-2c2-1 2-4 5-4" class="C"/><path d="M439 133v2l-3-1h-1l2-3 2 2" class="B"/><path d="M443 131l-1 2v-1-1h1m30 3c2 2 2 6 1 9l1 2-2-1-1-1-1 2c-2-1-2 2-3 2v2c-2 0-2-1-2-2v-4c0-1 2-2 1-3v-2h3v-3l-1-2 4 1m-155 3v3l-2-1c-1-2 1-2 2-2" class="C"/><path d="M424 137v1h-1v-2l1 1" class="B"/><path d="M265 143v2l-1 2c-2 0-2-1-3-2v-1l-1-1v3c1 1 4 3 4 5v1l3 3h-3l-6 6-6 7-1-4 2-9h1v1l1-5 1-4c0-2 0-5 3-6l4-1 2 3" class="F"/><path d="M313 153v2l-3-3c-2-3-3-6-3-10 1 4 3 8 6 11m124-11v1l-1-2h1" class="B"/><path d="M321 145v1h1l3 1h3c1 1 0 2-1 3-2 1-3 2-5 1l-1-1v2l-1 2c0-1 0-3-2-3l-3 1-1 1c-1-2 1-5-1-7 1-1 2 0 2 1l1 1 1-1 4-4v2" class="C"/><path d="M396 146l3-3c0 2-2 2-3 3" class="L"/><path d="M328 146h-1v-2l1 2" class="B"/><path d="M336 146l3-1 1 1h2l3 2-3 1-2 1v2c-2-2-6-1-7-4l1-4 2 2" class="C"/><path d="M445 149l-1 1 2-7c1 2 0 4-1 6m-154-2l-1 1v-2l1 1" class="B"/><path d="M439 146l-1 2-1-1-1-1c1 0 2-2 3 0m-22 4c1 2-1 3-2 5l-1-1-1-1-3 1v-2c0-1 3-2 2-4l1 1c2 1 3-3 4 0v1" class="C"/><path d="M470 148c1 1 0 2-1 2l-1-1 1-1h1m-138 5v1h-3l1-2 2 1" class="B"/><path d="M329 153c-1 2 2 3 3 5h3l-3 1 1 3h1l-8-2h-2l3-1-1-3c0-2 1-3 3-3" class="C"/><path d="M430 152v1l-2-1h2" class="B"/><path d="M431 155l-1 3-1 2c1 0 2 0 2 2-5-3-9 0-14 1 2-1 4-3 4-5 0-1-2-2 0-2 1-1 2 0 3 1 1-2 4 0 5-3l1-1 1 2" class="C"/><g class="D"><path d="M287 158v-1l-2 1 3-3-1 3m-3 0l-1 2-1 2c-2-2 0-4 1-6l1 2m14 0v5l-1-2-1-4 2 1m3 1l-1 2v-1h-1a9 9 0 010-3l2 2M455 154v2h1v1l-2 2c0-1 2-2 1-3l-2 1 2-3m-169 8l-1 1c0-1-1-4 1-4v3"/></g><path d="M376 161v1c-4 1-7-1-9-3 1-2 3-2 5-2l4 4" class="C"/><path d="M467 159l-1 1-2-1v-1l1 1c1-1-1-1-1-2l2 1v-1l-1-1 2 3m2 0l-2-1v-2l2 3" class="D"/><path d="M386 158l5 5c-1 2-3 1-4 1-3-1-4-4-6-6h5" class="C"/><path d="M303 163h-1v-4l1 4" class="D"/><path d="M270 160c-1 4-4 6-6 8l-2 2c0-2-2-5 2-6 1-2 3-6 6-4" class="F"/><path d="M458 158l-3 1v-1h3m-8 3v-3h1c1 1-1 2-1 3m-169 2l-1 4-1-1v-4l1-1 1 2" class="D"/><path d="M295 164l4 5c0 5-1 10-6 12h-4c-4-4-6-9-3-14l2-2 3-2 1-2c1 1 1 3 3 3" class="J"/><path d="M453 158v3c1 0 1-2 2-1l-3 2v-2l-1 1 2-3m-170 9l-1 2-2-2 1-2c1-1 1-3 3-3l-1 5" class="D"/><path d="M364 163l-2 2c-1 1-4 2-6 1v-3l2-2c2-1 4 1 6 2" class="C"/><path d="M301 164l1 3-1 1a4 4 0 01-2-2l1-4 1 2m168-3v1l-2-2c1-1 1 0 2 1m1 0v2h-1v-3l1 1" class="D"/><path d="M463 165c0 2 3 2 3 4 1 4 0 11-5 13-3 1-5-1-7-3l-2-10c1-1 2-3 4-3l2-2 2-4c1 2 1 4 3 5" class="J"/><path d="M304 163l-1 5c0-2-1-3 1-5m164-1l-1-1 1 1" class="D"/><path d="M383 163l2 1 3 1c5 5 7 12 5 18l-4 6c-4 5-11 7-18 5-6-1-12-7-12-14-1-5 1-12 7-16l4-1c3 0 5 1 7-1 2 0 4 2 6 1" class="G"/><path d="M451 163c0 1-2 1-1 2l1 1-2-1v-1l1-2 1 1" class="D"/><path d="M314 165v1l-2-1 1-1 1 1" class="C"/><path d="M449 165h-1l1-3v3m19-2h-1l-1-1 2 1" class="D"/><path d="M426 163l-5 1-1 1 6-2" class="B"/><path d="M453 163l-2 2 1-2h1" class="D"/><path d="M376 165v2l1-2 2-1 1 4 1-3 3 1v3l1-2 2-1 1 3c1 4 4 7 3 11l-3 7c0 1 0 3-2 3l-1-1v-2l-1 1v2l-3 1c-1-1 0-4-2-2v2h-2c-1 0 0-3-1-2l-1 2h-2l-1-3-1 3-2-1c-1-1 1-3-1-3l-1 2h-1c-2-1-2-3-3-5-2-2-3-6-2-9 1-2 3-4 3-7l1-2h2l1 3c1-1 0-3 2-4l2 1v2c1-2 0-3 2-4l2 1"/><path d="M470 165a5 5 0 010 3l-1-1-1-2h1v-2l1 2m-189 5l-1 1-2-3v-1l3 3" class="D"/><path d="M375 166v24l-2 1v-1c-1-8-1-16 1-25l1 1m4 0a75 75 0 01-1 25h-1l1-10a283 283 0 00-1-16l2 1" class="F"/><path d="M471 164h-1v-1h1v1" class="D"/><path d="M356 167l-4 5-1-1c-1 0-2 2-3 1l-2 3v-5l3-2-2-1 6-1v1l2-1 1 1" class="B"/><path d="M371 166c-1 5-2 10-1 15l1 8v1l-1-1-2-6c-1-5 0-10 1-15l1-2h1" class="F"/><path d="M261 170l1 8h-1l-1-10v-1l1 3"/><path d="M383 169c2 6 2 13 0 18v3h-2c1-6 2-12 1-18 0-2-2-4 0-6 2-1 0 2 1 3" class="F"/><path d="M468 165v-1 1m-165 4v1l-1-1h1l1-1-1 1" class="D"/><path d="M367 169c-3 5-3 13 0 18l-1 2-1-3c-2-4-3-9-1-14 1-1 0-4 2-5l1 2" class="F"/><path d="M292 170h-1l-1-1h-3l2-1 3 2m5-1h-3l-1 2-1-2 2-1 3 1"/><path d="M387 167c1 5 3 10 2 15l-2 7h-1c-2 0 0-1 0-2 2-5 2-12 0-17v-3h1" class="F"/><path d="M450 166l-1 2-1-1h1v-1h1" class="D"/><path d="M259 169c0 2 2 4-1 5-1 1-2 3-4 3-1-2 1-2 1-4 2 0 2-3 4-4" class="F"/><path d="M297 170l-1 1-2-1 1-1 2 1"/><path d="M301 170l-1-1 1 1" class="H"/><path d="M290 170v1h-2l-1-1h3"/><path d="M302 172v1l-1-3 1 2" class="H"/><path d="M449 171l1-3c-1 0 0 0 0 0l-1 3" class="D"/><path d="M301 176v-1l-1-3v-1l1 5" class="H"/><path d="M464 169l-3 1-1 1v-1l4-1m-5 2h-1l-1-1h-3l2-1 3 2"/><path d="M281 173v-1 1" class="H"/><path d="M293 174l-1 2-1-1v-1l1 1 1-2v1m164-3v1h-3l1-1h2m7 0l-1 1h-1v-1h-1l1-1 2 1"/><path d="M281 176v-2 2m187-4v-1 1" class="H"/><path d="M349 174c1 1 0 1-1 1h-1l1-1h1m-30 2v2l1 1 1 3h1l-3 2-3-2-1-2 1-1 1-2 1-2v-1l1 2" class="C"/><path d="M469 173h-1v-1l1 1" class="H"/><path d="M407 176h-1v-1l1-1v2" fill="#97d9d9"/><path d="M461 174l-1 2-2-1h2v-1h1m-167 3l-1 1v-1l-1 2-2-2 1-1 3 1"/><path d="M343 179v1h3c-3 3-4 8-8 8l1-4-2-2 2-1c-1-2 2-2 1-4v-1c2-1 3 2 3 3m71-2c1 1-2 2-1 4v2h2v2h-2l-2 2 2 3c-4 0-6-3-8-6l-1-1c1-2 4 1 3-2 1-1 1-2 2-1 1-2 4-2 4-4v-1l1 2" class="C"/><path d="M289 182h5l3-2 1 5 1 2h2c1 6-4 10-8 13l-1 1c-3-4-10-7-10-13 1-1 3 0 4-2 0-2 1-6-1-8l4 4m-25-4c1 2-2 3 0 4v3c-1 1 1 3-1 4l-3 2c-4 7 1 14 2 21l1 1a142 142 0 011 12c-1 2 1 5-2 5l-2-1-1-2-3-7-2-5c-2-7-1-15 0-22 1-2 1-5 3-7 1-3 4-6 7-8h1" class="J"/><path d="M300 181l-1-2 1 2" class="H"/><path d="M435 177v4h1c-2 1-3 5-6 4l-2-1 2-1v-3h2c0-1 1-3 3-3" class="C"/><path d="M462 178l-2 1c-1 0-1-2-3-1l1-1 4 1"/><path d="M301 182h-1 1" class="H"/><path d="M461 183l4-3c0 3 1 7 5 8l1 2c-2 5-7 7-11 9l-1 1c-2-4-9-5-11-10l4-3 1-7h1c1 2 4 4 7 3" class="J"/><g class="D"><path d="M509 179v3l-2-1c0-1 2 0 1-2h1m-14 4h-1-1l1-3 1 3M492 182h-2l2-2v2m19-2l-1 3-1 1v-2l2-2M501 181v6h1c1 0-1 2 1 3 1 0 2 0 1 1l-1 1-2-5-3-1c-1-2 1-4 3-5m-3 1l-1 3v-3h1"/></g><path d="M507 184h-1l-1-1 1-1 1 2" class="E"/><path d="M489 184l-1 1v-3l1 2" class="D"/><path d="M356 187l-2 1 1 3-1 1-2 1v-3h-1v-2l-1-1 3-2 3 2" class="C"/><path d="M491 183v1l-1-1h1" class="D"/><path d="M504 183" class="E"/><path d="M496 186l-2 2v-3l2-2v3m-2-2l-1 1-1-1h2" class="F"/><path d="M487 185c0 2-2 1-2 1l-1-2h2l1 1" class="D"/><path d="M490 184l-1 3-1 1c-1-2 1-3 2-4m1 0v0" class="F"/><path d="M504 185h-1s2 0 1-1v1" class="E"/><path d="M306 188h-1 1" class="H"/><path d="M509 185v-1 1m4 1l-1-1-2 1 1-2 2 1m-7 0l1 1h0l-1-1" class="E"/><path d="M282 192c2 4 7 6 9 11h1l2-3c4-3 7-6 8-11l3 2h1c0 4-4 8-8 11-2 1-4 2-6 5-5-6-15-9-16-18h5l1 3" class="I"/><path d="M502 186v-1 1" class="E"/><path d="M491 186l-1 1 1-1m2 1h-2c0-1 1-2 2 0" class="F"/><path d="M264 194l1 9 9 64 10 81-17-122-3-25-1-10v-1l1 4"/><path d="M277 193c3 7 11 10 15 16l2-2c3-4 8-5 11-10l3-6c1-1 3 2 4 3l4 18c0 2 2 4 0 5l-2 2-4 6-1-7c-2 0-1-2-1-3v-3l1-7v-4-1l-1 1-1-1 1 2c1 4 1 8-1 12l-2 2v1l1 2c0 3 2 5 0 8h-4l-2-1-1-1v2l-1 1h-4-1l-1-1-2 1c-1 1-2 0-3-1v-1c-1 0 0 2-2 2h-2l-1-1-3 1c-2 0-3-1-3-2l1-6c0-1 0 0 0 0l1-2c-4-2-5-6-5-10l2-9h-1l-2 7c0 3 0 6 2 9l-1 4-1-8h-1l3 21-2 2-3-10-2-17c1-5 2-11 6-16l2-1 2 3" class="I"/><path d="M507 186l-1 2v-1l1-1" class="E"/><path d="M501 188v3l-1-3-1 1-1-1-1 2-2-1 2-2c2-1 3 0 4 1" class="F"/><path d="M505 187h-1 1" class="E"/><path d="M487 188l-2 2-2-2 1-1 3 1" class="D"/><path d="M509 187l-1 1v-1h1m1 2v1l1-3-1 2m-6-1v-1 1" class="E"/><path d="M494 190v1l-2-1c-2 1 1 5-3 4h-1v-2l-1 1-1 1c-1-2 0-3 1-4 1-2 3-2 5-2l2 2" class="F"/><path d="M512 188h-1 1" class="E"/><path d="M402 191l-1 2 1 2h-2v2l-2-2-2-1c1-1 2-5 5-4l1 1" class="C"/><path d="M508 189v1-1m-2 0h1-1m3 0" class="E"/><path d="M500 191l-2 1v-2l1-1 1 2m-2-1h-1 1" class="D"/><path d="M449 192c2 4 8 5 10 10l2-2 9-7 2-3 3 3h2c-2 5-7 8-12 10l-5 4-1-1c-5-5-13-5-17-11l-1-2c2-2 5 0 7-2l1 1" class="F"/><path d="M485 191h-4 4" class="D"/><path d="M476 191v1l-1-1h1" class="H"/><path d="M513 191h-1c-1 1 0 2-1 1l-1-1-2 1-2-1h5c1 0 1-2 2-1v1" class="E"/><path d="M503 195c-5 3-12 3-18 6l-1-1 1-2v-1l1 1 2-1h-1 2s-1-2 1-2c1 0 2-1 2 1l1-1 6-2 3-1v2l3-3c0 1 0 3-2 4" class="G"/><path d="M493 192h-1v-1l1 1" class="D"/><path d="M386 193c-1 2 1 4-1 6l-4 1h-1c-1 2-3 2-5 2s-2-3-5-2l-3-2v-4c6 3 13 2 19-1" class="G"/><path d="M485 192l-1 2h-2l3-2m9 1l-1 1h-1l1-1h1" class="D"/><path d="M510 193h2v1l-2-1v3h-2l1-2c1-1-1-1-1-1v-1l2 1" class="E"/><path d="M441 195l6 5 1 1c4 2 9 3 11 8h1c0-2 1-3 2-3 3-3 6-3 9-5l7-7 3 2c1 2 3 2 3 4 1 2-1 4 1 6v9l-1 4-1 4c1 1-1 2-2 4l-1-3-2-7c1-4 0-7-2-10-1-2 2-2 0-3v-1c-3 3 2 6 2 10 0 3-1 6-3 8l-2 1 1 1-1 1h1v4l-4 1v-1l-1 1-5-1-1-1v2h-7v-2l-1 1v1h-5l1-2 1-1c-1-1-1 1-2 1l-1 2c-2 0-4 1-4-1v-4l1 2-2-5 2 1-3-2c-2-4-2-10 0-14 0-1 2-1 1-2l-1 1-1-1c1 2-1 5-1 8-1 4 3 7 1 11l-2 6-3-4c1-1-1-2-1-3l1 2-5-5c1-1 1 1 2 1 1 1 1 2 2 1 0-2-4-2-3-4 1-7 1-13 3-19l4-4 1 1" class="F"/><path d="M350 197l-1 1h-2l2-3 1 2" class="C"/><path d="M488 196h-1l-1 1 1-2c-1 1-2 3-3 1h-1c2-1 3-2 4-1v-2l1 3" class="D"/><path d="M507 194l-1-1h1v1" class="E"/><path d="M371 196l-1 1h-1l1-1h1m12 0l-1 2-1-1 1-1h1"/><path d="M507 195l1 1-2-1 1-1v1" class="E"/><path d="M407 198h-1l-1-1 1-1 1 2" class="C"/><path d="M505 197l-4 4-15 4-1-2c3-3 7-3 9-5 4-1 8-1 10-3l1 2" class="G"/><path d="M377 198l-1 1-1-1c0-1 2-2 2 0"/><path d="M512 195l-1 1 1-1" class="E"/><path d="M342 201l-2 1-2-2 3-1 1-1v3" class="C"/><path d="M368 200c2 1 4 0 6 2h5c1-2 3-1 5-1l2-3c1 2 3 3 5 3-3 1-5 5-9 4-1 1-3 3-5 3-3 0-5-1-7-3-4 0-6-3-9-5 2-1 4 0 5-2l2 2" class="G"/><path d="M511 197l-1 1-2 2 2 1h-2l-1-1 2-2h-2v-1h3l1-1v1" class="E"/><path d="M484 197l-1 1v-1h1" class="D"/><path d="M508 197v-1 1m-2 1v-1 1" class="E"/><path d="M364 204l6 2c2 2 5 3 9 2l3-2c1 1 3 0 4-1 2-1 4-4 7-4l1 2c-4 2-6 8-11 7-2 1-3 3-6 3-3 1-5-1-7-3-6 1-8-5-13-8l2-1c2 0 4 1 5 3" class="G"/><path d="M507 199l-1 1v-1h1" class="E"/><path d="M413 201v1l-2 1v-2h2m10 0l-1 2-1-1 2-1" class="C"/><path d="M505 200l-1 4-11 4-7 2v-2c0-3 3-3 6-4l13-4m-140 10l5 1c2 3 6 3 9 3l4-3c6 1 8-6 13-8h1c-3 3-4 8-8 11l-5 2c-3 2-6 4-9 3-2 0-3 0-4-2l-4-2c-4 1-6-4-8-7l-5-5 1-1c5 1 6 7 10 8m-6 1c2 2 5 6 9 5l6 4c4 1 7-1 10-3 6 0 10-7 13-12 1-2 3 0 5 0-4 3-5 9-9 12-2 2-4 3-7 3l-1 1c-2 3-7 2-9 6l-4-3-5-3-2-2c-5 0-8-5-10-9l-6-5c2-1 5-2 7 0l3 6" class="G"/><path d="M507 202h-1v-1l1 1m2 1l1-1-1 1c-2 1-1-1-2-1h1l1 1" class="E"/><path d="M354 205v2l-1-1v-1h1m45 1v1l-1-1v-1l1 1"/><path d="M506 204h-1 1m1 0v1l1 1-1-1-1-1h1m3 0l-1 1v-1h1m3 2l-1 1h-1-1v2l-1-1 1-2c0-1-1-2 1-2 1 1 0 2 2 2" class="E"/><path d="M504 205l-1 4c-5 4-11 3-17 6v-1-3l5-2 5-1 8-3" class="G"/><path d="M505 206v-1 1m4 0v-1 1m-1 1h-1 1m-2 2l-1 1c1-1-2-2 0-2l1 1" class="E"/><path d="M265 212l3 25v4l-1-4-1 6c-1 1-2 2-3 1l-4-15v-1l2 3h3a61 61 0 010 11l-1-1v1l1 1h1v-23l-1-7 1-1" class="I"/><path d="M359 211l-1 2-1-1 1-1h1m36 1v1h-2l1-1h1"/><path d="M503 211l-1 3-9 3-7 2-1-2c2-4 7-3 11-4l7-2" class="G"/><path d="M508 212v-1 1" class="E"/><path d="M319 216l-2 2h1l3-1-3 3-2 4c-2 3-1 6-1 9l1-1 1-5-1 16 1 6c-1 1-1 0-1-1l-1-4v4c-3-6-2-13-3-20-2 0 0 2-1 2l-1-3 8-11h1" class="I"/><path d="M355 221l3 1v1l-6-3h-4v1c1 1 3 1 3 3-2-3-5-1-7-2-2 0-3-2-5-1l-2-1-4 2-15 5 1-7c0-2 2-1 3-2 11 0 20-4 30 1l3 2" class="J"/><path d="M366 218l-1 1h-1v-2l2 1m22 0v1l-1-1v-1l1 1"/><path d="M500 216v3c-2 2-4 2-7 3l-9 2 1-3c4-3 8-3 13-5h2" class="G"/><path d="M418 220l11 2c2 2 3 5 3 8l-3-1-6-2-7-6c-3 0-5 2-7 1-1 0-3-1-4 1-2 1-4 0-6 2l-1-1 5-2-1-1c-3 1-6 0-8 2h-2l2-2 11-3 13 2" class="J"/><path d="M431 220c4 2 6 7 10 10h1l-1 6-5 12-2 7v-7-16l1 7v1l1-1-1-6-2-7-4-6h2" class="F"/><path d="M353 221h1-1m2 1h-1 1" class="J"/><path d="M377 222v1h-2a1 1 0 010-1h2"/><path d="M397 222c-1 0-2 2-4 1l3-1h1m-41 1h-1 1" class="J"/><path d="M497 222c0 2-2 3-4 4l-11 3v-2c3-4 8-4 12-5h3" class="G"/><path d="M353 227l12-1 4-1c2 1 3-1 4 1l3 3 2-2 3-2 5 1c7 2 14 2 22 1l7-2 12 11c-7 11-11 25-6 38l2 5 3 9 1 12 1 8c-1 10-5 21-13 27-4 4-9 6-13 8-9 3-19 6-26 11-1 2-3 0-4-1l-15-6c-12-4-25-10-30-23-3-4-3-9-4-14-2-15 5-28 8-41 3-10 0-21-4-31l-2-3 13-11c5 3 10 3 15 3" class="B"/><path d="M357 224" class="C"/><path d="M322 227c-1 3 2 6-2 7l2 3-1 9-3 3-1-2 1-17 2-2 2-1m-42 2c2-1 5 1 7-1 1 0 2 2 4 1h3l6-1h6c5 8 7 17 9 25l1 4-5-2c0-1 2-1 1-3l-7-19h-1l1 3 6 16-8-1-2-17v4l1 14 1 1h-11c3-1 2-4 2-6l-1-14h-1l1 18h-7l2-13h-1l-1 10-1 4 2 1-1 1h-8c1-2 3-2 3-4l-1-16v16l-7 2-1-7 2-7h-1l-1 5h-1c1-2-1-4 1-6l2-5c0-1 0-3 2-4 1 0 2 2 4 1" class="I"/><path d="M464 227h-1 1"/><path d="M272 236l-1 2-1-8 2 6" class="I"/><path d="M493 227c-2 5-8 3-12 6l1-3c3-2 7-2 11-3" class="G"/><path d="M494 231l-2-1 1-1 1 2m-32-1h3c1 0 4 1 5-1 1 1 4-1 5 2s4 6 3 10c-2 1 0 3-2 4v5 5l-1 4c1 2 0 5 2 7-2 3 1 6 0 9l1 1c1 0 1-3 2-1l1 1v2h2c0 2 2 5 1 8l-3-3v-2l-1-6h-1l1 5-6-8 1-4-6-27h-1l4 16 2 12h-8v-1l2-2c-5-8-4-19-4-28l1-1-1-1v3l-1 23v5l-4 1 2-1 1-2-1-2-2-18v1c0 7 0 13 2 19h-3a25 25 0 01-3 1l2-1-2-18v9l1 8h-6c-3 0-6 0-9 2l1-2c-2-5-3-9-3-14h-1l2 13-6 4c0-9 2-18 5-26l1-2 5-9h8l3-1 6 1m-29 2v23l-1-3-2-15 2-2-2-1v-3l3 1" class="F"/><path d="M493 232l1 6-10 25c-1 3 3 5 1 8 0 1-2 2-1 3v1c-2 0-3-3-4-4h-1c-1 1 1 3-1 4h-1l1-4v-5c3-5 3-11 5-16l1-9 2-3c2-1 0-4 3-4 1-1 2-2 1-3 1-1 3 0 3 1" class="J"/><path d="M316 235h-1v-1l1 1"/><path d="M489 231c0 2-3 4-5 4l-4 2v-2l6-3 3-1" class="G"/><path d="M405 234c0 2-1 4-3 5v-1c-4 1-6 5-7 8l-2 7 3 1 2-2c3-7 8-16 17-17l1-1v1l-3 5c-1 0 0-3-2-2l-8 7-5 9 1 1-2 4v-1l-2 4h1l-1 5-1 1-16-1h-32l1-1 8-8c3 2 3-2 5-3l-7-1h-3l-14-3 5-6c7 3 14 4 21 5h1c1-1 2-4 4-4v1l-2 3 13 2 3-5h1l-2 5h5l6 1c2-7 3-15 11-18l2-2 1 1"/><path d="M486 237c-2 2-5 2-7 3-1-1 0-1 1-2l6-3v2" class="G"/><path d="M269 251v2l-3 3 3-15v10" class="I"/><path d="M484 239c-1 3-3 4-5 4l-1 1v-2l6-3" class="G"/><path d="M456 242l-1 4v-2l1-3v1"/><path d="M482 243c0 3-4 2-5 4v-1l4-3h1" class="G"/><path d="M439 247v1-1"/><path d="M481 246l-1 2-3 2v-2l4-2" class="G"/><path d="M279 251l-1 1v-1h1m-2 1l1 3 8 1c3-1 0-6 4-4l1 1a2 2 0 000 1c2 1 4-1 6 1 0 2-1 4-3 5l-2 3-7 3-3 1-7 3-2-18h4m15 0v-1 1m-5 1l-1-1 1 1m23 1v2l5 2v10c-2 0-3-1-3-2-2-2-4-4-4-6h-1c1 4 4 7 7 9l1 1-2 12-2-1c-5-7-7-16-10-24v-2l3-1 1-2c2 0 4 0 5 2" class="I"/><path d="M480 249c0 2-2 2-4 3v-1l4-2" class="G"/><path d="M304 252v1h-1v-1h1m7 2l-1-1 1 1m-41 0l2 17h-4l-1-12 1-3 2-2" class="I"/><path d="M481 250c1 4-1 9-2 13v-4-8l2-1" class="F"/><path d="M300 254c0 4-2 9-4 13-5 8-11 15-18 21l-3-17 15-7-1 3-5 5v-1l-2 1 1 1c2 0 3-2 4-3l9-10 4-6" class="I"/><path d="M479 252l-1 2a6 6 0 01-2 1l1-2 2-1" class="G"/><path d="M370 255l5 1-4 6h-13l4-7h8m18 2l-8 5h-6-1l5-6 10 1" class="B"/><path d="M476 258v-2l2-1c1 1-1 2-2 3" class="G"/><path d="M310 281l3 3 2-1c0 3-3 5-2 8h1v-2 7l-8-10-5-16-1-6c-2-2 0-4 0-6 4 7 5 16 10 23" class="I"/><path d="M467 266l-2 1-1-11c0 3 1 7 3 10" class="F"/><path d="M395 258l-2 4h-3l1-4h4m-6 0l-1 5-5-1 6-4" class="B"/><path d="M478 258l-2 2v-2h2m0 3l-1 2c-1-1 0-2 1-3v1m0 3v2-2l-1 1v-2l1-1v2" class="G"/><path d="M296 278l-2 20 1 1 3-1c1 1 2 3 1 4-2 6-7 10-10 15l2-9 3-25 4-17-2 12m3-11l1 32c-1-2-3-3-5-2l3-25 1-6v1" class="B"/><path d="M267 267v3l-1-1 1-2" class="I"/><path d="M440 264v0" class="F"/><path d="M296 268l-4 8v1c-4 6-8 12-14 17v-5c7-6 14-13 18-22v1" class="I"/><path d="M441 267l3-1c3-1 7-2 9-1l2 2h3l1 2h1c-3 9-7 18-12 26-2 6-5 11-10 14-1 1-2 0-2-1v-2l1 1c3-1 5-3 6-5-1 1-3 4-6 4l-1-5v-2c4-2 5-7 7-11l1-4-1 3-5 9v-2l-4-14c2 1 4 0 5-1l5-5c-2 3-6 5-9 6-1-1-2-1-1-2v-1l1 2v-2-3c0-3-1-6 2-8l2-1 2 2" class="B"/><path d="M455 265c1 0 0 0 0 0m6 1l-1 1h-1l2-1" class="F"/><path d="M405 267l-3 6s-1-2-2-1c-3 2-5 6-6 9l-2 5 5 1c3-6 5-13 12-16l6-3v1l-2 4-1-1h-2c-6 2-9 10-12 16h1c-1 1-1 4-3 4l-1 3 1 1-2 4h-8-4l-10 1-3-1-8 1-3-1h-2-10c-1-1 0 0 1-1l9-8h1l2-3h-3l-7-1-13-3 5-5 17 4v1l1-1h4c1-1 2-4 4-3l-1 1-1 2 1 1 12 1 2-4h2l-2 4h5l5 1 7-14c1-2 3-4 6-4 1 0 1-2 2-1"/><path d="M270 273l3-1 2 18-7 4 1-9 1 3-2-8-2-10c1 1 2 3 4 3" class="I"/><path d="M469 270l-6 26c-1 2 3 2 2 3l-4 21-5 25 1 4 1 1-3 1-6-1 1-2c3-10 4-19 8-28l1-5v-1l-2 5-2 7c-2 8-6 15-11 22l2 3-4 1-4-1s2 0 1-1c-2 2-2-2-4-2l1 1h-1c0 1 2 1 1 2l-3 1-2-5-1-1-3-1h-2v-2h3c0-1-2-1-1-2l1-1 1-4v-1c0 1 1 2 2 1 3 0 5-3 7-5 9-8 14-18 19-29 0 0 1-2-1-2l-2 3h1l1-1-10 19c-4 5-8 11-14 14-1-8 1-15 3-22l1-2h1c9-6 12-16 17-24l7-19h4c0 2 2 2 4 2m-168 2l6 18v12l-4 40v1l1-4 1-9 2 17-2 1c-3-1-5-4-9-4l-1-14c6-4 2-11 2-16v-6c2-3 5-7 4-11 0-8-2-16-1-26l1 1m170-2l2 22-2 1-6 2 1-5 3-19c0-1 1-2 2-1m1 0c1 4 4 7 7 10 2 3 0 6 0 10l-2 9c0 4-2 8 0 12v3l-2 2-2-1c-1-4-3-9-2-13l3-9-2-23" class="B"/><path d="M474 270v1l-1-1h1" class="F"/><path d="M463 287l-2 7-2 13-8 21-1 1 3-7 9-30 3-21-2 16"/><path d="M295 274c0 8-3 15-4 22l-3 22c-1 2 3 2 2 5v1l-6 14-4-30v-5l-2-8 8-8c4-4 6-8 8-13h1" class="B"/><path d="M480 272v0s0-1 0 0m1 3l-1-2h1v2m7-1v2c-1 2-3 1-5 1 0-1-2-1-1-2l1 1h4v-1l-1 1 1-2a1 1 0 011 0" class="G"/><path d="M483 277h-1 1" class="J"/><path d="M314 282v-1 1" class="I"/><g class="B"><path d="M485 297l1 8-4-1-4 1v-3l1-11 2-5v-2c5 3 2 9 4 13m-116-8h6l-4 7-13-1h-1l5-7 7 1M388 290l-8 5h-6c-1-1 1-2 1-3 1-1 2-3 4-3l9 1"/></g><path d="M276 296l-8 5-1-4v-1l8-5 1 5" class="I"/><path d="M309 292c7 5 4 15 5 23v4l-1-1 1 2a122 122 0 012 21h1l-5 2 1 1 5-2v3c-3-1-6 2-8 4h-2c-1-1 0-2 1-2l-3-27 1-4 1-24h1" class="B"/><path d="M267 295v-2 2" class="I"/><path d="M394 292c-1 1 0 4-2 4l-3-1 2-4c1 0 4-1 3 1m-7 3h-4l5-3c1 1 0 2-1 3m86 0l-3 5 1-5c0-1 2-2 2 0m-197 2l6 45-2 4-1-1-3-1 2 1 4 3-1 1c3 0 6-1 8-3l1 1c-4 2-6 5-10 4l-5-5c-2-1-5-1-6 1l-1-1c0-4 2-7 3-10l1 2v-2c-2-3-6-4-5-8l2-24 7-7m194-2v2h-6l4-2h2m-33 1l-1 2c-1-1 0-2 1-2m32 3c0 5 2 12 4 17l2 2v15l-1-1-3-13c0 8 2 15 4 23l-4 2h2c1 0 2-2 3-1l2 2-3-1c-2 1-5 2-6 4v2h-2c-2-2-2-5-2-8-1-10 1-19 1-28v-4l-1 5-1 13c0 8-1 14 1 21h-2c-1-2 1-4-2-6l1-17v-1l-1 7v10l1 3v3h-3v-3l-1 3h-1l1-8 3-19 1-2 2-10 1-4 1-7 3 1" class="B"/><path d="M404 302c0 2 0 4-2 5-4 0-5 5-7 7l-3 7 4 1 4-7c3-5 7-10 13-11l3-1v1c-1 2-1 4-4 4l-1-1c-4 1-7 5-9 8l-4 7c2 1 0 2 0 2l-2 3-1 4v1l-1 4h-28l-2-1h-18l2-1 7-8 2 1 2-4h-3l-8-1-12-3 1-1 4-4 19 5c1-1 3 1 3-1l2-3h2l-2 4h2l11 1c2-2 2-5 4-4v1l-2 3h4l6 1 4-9c2-3 4-7 8-8l2-2"/><path d="M486 306l-2 3-2 3v-6h4m-5 0v8c1 1 3 1 2 3l-5 12-2 1v-6c1-3-1-7 2-10l1-8h2m-3 0v4c-1-1-2-4 0-4m-182 6l1 10h-1l-6-3 3-6c1-1 4-3 3-1m188-1v3l-2-1 2-2m-187 13c1 1 0 2-1 3l-9 7c0-4 3-7 4-10l2-2 4 2m78 0l-5 6a391 391 0 01-12 0l2-5 2-2 13 1m8 1h5l-9 6-5-1h-1l4-6 6 1m12 1c-2 2-1 6-4 5h-1l1-5h4m-6 1l-1 3-2 1h-3l1-1c2-1 3-3 5-3m-95 4a173 173 0 011 14c1 3 4 1 5 4l-5-1-4 1v-4l-1-11v1l-1 11-4 2-1-8c1-2 2-5 4-6l6-3" class="B"/><path d="M450 331c-3 5-5 11-9 15h-1l-3-3 2 2c0-1 0 0 0 0h1v1h1c4-5 7-11 9-17v2"/><path d="M431 335l-1-2 1-1v3m21 1l-3 12h-3l6-12m-169 12h-1l-1-2 1-2 1 4" class="B"/><path d="M436 343h-2 2"/><path d="M302 348h-1c0-2-3-2-4-2l2-1 3 3" class="B"/><g class="J"><path d="M318 346h1-1v2l-2-3 2 1m-45 3c0 1-2 1-1 2l-1 1v-1l2-3-2 2v-2l-1 2v0h-1c0-1 2-1 1-2l-1 1v0c0-2 2-2 3-3l1 3"/><path d="M275 347h-1v-1l1 1m43 1c-1 1-1-2-3-1l2 2c-1 1 0-1-2-1v-2l1-1 2 3m-41 1l-3 2h-2c2 1 1-2 2-2l2-2 1 2m152-2v3l2-2v2l-4 3c-2 0-3-2-4-3v-2l1 1-1 1c1 0 1 2 2 1l1 1v-1h1l1-3-2 2c-1-1 1-2 1-2-2 0-2 2-3 2v-1c1 0 1-2 2-1v-1l-2 1c-1-1 1-2 2-3 1 0 2 0 3 2m-115 1l1 1h1v1l-4-1 1-2 1 1m164-2v1l1 2-1-1v1l-2-2-1-1 1 3-2-2 2-2 2 1M474 345l-1 1 1-1m-155 4l-1 1v-2l1 1"/></g><path d="M477 348v-1l-1-1 1 2"/><path d="M430 347h-1 1m43 0l2 2h1c0 2-1 1-2 1l-4-2 1-2 2 1" class="J"/><path d="M317 351l2-2 1 1c-2 2-4 2-6 2l-3-2c2 1 4 2 6 1" class="H"/><path d="M310 351c2 2 5 3 8 1h6a90 90 0 0132 12c2 2 5 4 4 7l-7 10v-1l-14-7-12-4-3-1c-13-2-28-3-42-1-5 1-10 1-14 3l-1-5-4-7c1-2 3-4 5-4 3 2 7 2 10-1 2-3 4 0 6-2l14-1 12 1" class="B"/><path d="M310 351c2 2 5 3 8 1h6a90 90 0 0132 12c2 2 5 4 4 7l-7 10v-1l-14-7-12-4-3-1c-13-2-28-3-42-1-5 1-10 1-14 3l-1-5-4-7c1-2 3-4 5-4 3 2 7 2 10-1 2-3 4 0 6-2l14-1 12 1z" class="K M N"/><path d="M269 351c0-1 0 0 0 0" class="J"/><path d="M279 351c-3 2-5 4-7 3-2 0-4 0-4-2l1 1c4 2 7 0 9-3l1 1m-4 1l1-1-1 1" class="H"/><path d="M317 350l-1 1 1-1" class="C"/><path d="M446 350l-1-1h1v1" class="B"/><path d="M274 352h-5 5m206-2c-2 1-4 2-5 1l-3-1 4 1 3-1v-1l1 1m-3 2l3-1-2 1c-3 2-6 0-9-2l1-1c2 1 4 4 7 3" class="H"/><path d="M428 350v1h-1v2l-1-1 2-2"/><path d="M477 350h-1v-1l1 1m-52 1v-1 1" class="J"/><path d="M424 353l4 1 4-2-6 2-4-2v-1l2 2m7-2" class="H"/><path d="M453 352h4c2-2 4-1 5-1 4 1 8 0 12 2h6c2 1 5 2 6 5l-5 12-2-1-9-2c-15-1-30-1-45 2l-9 2c-6 2-12 4-17 8l-2 2-2-4-6-8c1-4 5-6 9-8l14-5 11-2c2 1 5 2 7 0 2 0 3-2 4-1 2-1 3-2 4-1h7l2-1c2-1 3 1 6 1" class="B"/><path d="M453 352h4c2-2 4-1 5-1 4 1 8 0 12 2h6c2 1 5 2 6 5l-5 12-2-1-9-2c-15-1-30-1-45 2l-9 2c-6 2-12 4-17 8l-2 2-2-4-6-8c1-4 5-6 9-8l14-5 11-2c2 1 5 2 7 0 2 0 3-2 4-1 2-1 3-2 4-1h7l2-1c2-1 3 1 6 1z" class="K M N"/><path d="M292 355l-1 2 1 2-1 2-5 1h-1l1-1v-6c0-1-2 0-1-1 2 0 5-1 7 1m8-1v2l-2-1h-2v2l2-1 1 3h-1l-1-1h-1l1 3 4-2-1 3h-7l1-1v-6c0-1-2 0-1-1h7" class="C"/><path d="M429 352l2-1-1 1h-1" class="H"/><path d="M306 354l3 2-1 2-1 1c1 1 2 3 4 3v1l-3-1-3-4v3l1 1h-4l1-1v-6l-1-1h4m-23 0l-1 1 1 6 1 1h-4l1-1-1-5-1-1 3-1h1" class="C"/><path d="M290 356l-1 1h-1v-2c1-1 2 0 2 1" class="B"/><path d="M319 356v2l-1-2h-1l-1 6c0 1 2 0 1 1h-4l1-2 1-5h-2l-1 1v-2l7 1m-45 0l-1 1 1 5h3c1 0 1-2 2-1 1 3-4 2-5 3h-3l2-1-2-6-1-1h4s0-1 0 0" class="C"/><path d="M307 356v1l-2 1v-3l2 1" class="B"/><path d="M325 356l-1 1 2 3 2-3h-1l3 1-4 3c0 1-2 3 0 4 0 0 1 0 0 0l-4-1 2-1c1-2-1-4-2-6l-1-1h4m119 0v1l-2-1h-3v2h2l1-1v3c-1-1-1-2-2-1v2h3l2-1-1 2-7 1v-1c2 0 1-3 1-5l-1-1-1-1h7l1 1m9 0l-2 3 3 3c-1 0-3 1-3-1l-2-2v3h1-4l1-1v-5l-1-1c2 0 5-1 7 1m6-1c-2 1 0 4-1 6v1h1-4l2-1v-5l-1-1h3m-25 1l1 3-3 1v3h1l-2 1h-2l1-2-1-5-1-1 4-1 2 1m35 0v2l-2-2h-1l-1 6 2 1h-4v-1l1-1v-5h-2l-1 1 1-2 7 1" class="C"/><path d="M451 356l-1 2h-1v-3l2 1m-161 3v2h-2v-3l2 1" class="B"/><path d="M426 359l-2-2-2 1 1 2 4 1v3l-5 1-1-2 1-1 2 2 2-1-1-2-4-1v-2c1-1 3-2 4-1l1-1v3" class="C"/><path d="M434 357l-1 2h-2l1-3 2 1" class="B"/><path d="M474 356v1h-1l2 3 2-2-1-1h3v1c-2 0-2 2-4 3 0 1-1 3 1 3v1l-4-1 1-1 1-3-4-4h4m-137 4v6l1 2-3-1 1-1-1-2c-1-1-1 0-2 1l1 1-3-1h1l5-5m81 0c2 1 1 3 1 4l-2 3-5-1-1-4c0-2 2-3 4-3l3 1" class="C"/><path d="M417 361l1 4-2 1-3-1v-4l2-1 2 1" class="B"/><path d="M345 368h1c0-2 2-3 0-4l3 1h-1l-3 5h-1v-2l-1-3-1-1-1 4 1 1-3-1v-1c1 1 1 0 2-1 0-1 2-3 0-4v-1c4 1 3 5 4 7" class="C"/><path d="M336 363h-1v-1l1 1" class="B"/><path d="M408 363l-1 3 5 2-2 1-4-2v2l2 1-4 1c2-2-1-4-1-6h-1l-1-1 3-1h4" class="C"/><path d="M407 364l-2 2-1-2c-1-1 1-1 1-1l2 1" class="B"/><path d="M355 370l-1 3c-2 1-5 0-7-2h1l2-5c0-1 0-1 0 0 2 1 5 1 5 4m46-3l-1 3-2 1 2 2h1l-2 1-2 1 1-2-3-4h-2v-1l5-2 3 1" class="C"/><path d="M354 369l-1 3-2 1c-1-1-2-1-1-2l2-4 2 2m45-1v2h-1l-2-2c1-1 3-2 3 0m-127 4v2h-3l3-2" class="B"/><path d="M272 372v2h-3l3-2z" class="K M N"/><path d="M480 373l-1 1h-1v-2l2 1" class="B"/><path d="M480 373l-1 1h-1v-2l2 1z" class="K M N"/><path d="M394 377c2 3 2 6 5 8 1 2 3 0 5 0 2-1 4-2 6-1-5 6-13 9-20 12a50 50 0 01-49-10l-1-2 8 2 4-1 4-7c8 4 16 7 25 5 5-1 9-4 13-6" class="B"/><path d="M394 377c2 3 2 6 5 8 1 2 3 0 5 0 2-1 4-2 6-1-5 6-13 9-20 12a50 50 0 01-49-10l-1-2 8 2 4-1 4-7c8 4 16 7 25 5 5-1 9-4 13-6z" class="K M N"/><path d="M351 383v1l-2 1-7-2h-2l2-2 2-3 7 5" class="B"/><path d="M351 383v1l-2 1-7-2h-2l2-2 2-3 7 5z" class="K M N"/><path d="M406 378l3 5-5 1c-1 0-4 2-5 0-1-3 3-3 5-5l2-1" class="B"/><path d="M406 378l3 5-5 1c-1 0-4 2-5 0-1-3 3-3 5-5l2-1z" class="K M N"/><path d="M364 386l-2 7h1l-4-1h1l2-6-1-1h1l2 1m22-1l-2 4 1-1h3l1 4-2 1h-3l-1-3c0-2 1-5 3-5m-13 3l-5 7h-1v-1l4-5-2-1c-1 1-2-1-3 1v-1l1-2 6 2m8-1l-1 2-2 6h-1l2-6h-3l-1 1v-3h6" class="C"/><path d="M388 390v2l-2 1-2-2 1-2c1-1 2 0 3 1" class="B"/><path d="M369 224l-14 1-17-3-16 12 5 9c2 4 5 14 3 23l-10 35c0 6 1 21 8 30 6 7 13 12 27 16 9 3 13 6 16 8l4 3s5-5 15-9c10-2 21-8 25-11 5-4 11-13 12-18 3-9 4-23-2-40-5-16-5-23-3-29 1-6 7-16 7-16l-13-12-15 2c-7 1-16-1-16-1" stroke="#fff" stroke-width="1.4" stroke-linecap="round" class="K"/><path d="M396 258h1l1-3v-1s4-9 7-12 6-4 7-4c2 0 1 1 1 1l3-4s-8 2-12 6l-7 13-5-1s2-10 6-13c0-1 2-3 4-3l1 1 2-4-8 5c-3 3-5 14-5 14l-13-1 3-4h-1l-3 5-14-2 2-4-3 4h-2l-13-3-7-2-3 5 17 2 34 3 1 1-1 5 2-5 4 1-1 4 2-4" fill="#682129"/><path d="M396 257v1" fill="#ff582b"/><path d="M396 291h1l1-3-1-1s4-9 8-12l7-4 1 2 2-5s-8 3-11 6l-7 14-6-1s4-11 7-14c1-1 1-2 3-2 1-1 1 1 1 1l2-4-6 3-7 16-12-1 2-5-3 5-14-2 2-4-3 4h-2l-14-2-6-2-3 4 16 2 34 4h2l-2 5h1l2-5 4 1-1 5 2-5" fill="#682129"/><path d="M396 326h1l1-3-1-1s5-8 8-12l7-4 1 2 2-4s-8 2-11 6l-8 13-4-1s3-10 6-13l3-3c2 0 1 1 1 1l2-4-7 5-6 13h-12l2-5-3 5-14-2 2-4-3 4h-2l-14-2-6-2-3 4 16 3 35 3h1l-2 6h1l2-6 4 1-1 5 2-5" fill="#612829"/><path d="M360 324l-3 3h-2l-3 4-4 3 45 1 1-3-13-1 8-5h-1l-8 5h-8l4-7h-1l-5 7-14-1 5-6h-1" fill="#71777b"/><path d="M360 288l-3 4h-1l-4 4-5 3 46 1 2-4h-13l7-5v-1l-8 6h-9l5-7h-2l-4 7h-15l5-7-1-1" fill="#77717b"/><path d="M360 255l-2 4-2-1-4 5-3 3 45 1 1-4h-14l8-5-1-1-8 6h-8l5-7h-1l-5 7h-15l5-8h-1" fill="#71777b"/><path d="M291 157v3l-1 2-1 1-1 1-1 1-2 2v-2l2-4v-2l2-2h2m1 0l1 4 2 2 2 2 2 3v-2-2l-3-3-1-4h-2-1m7 15l1 4v3l-1-2v-5m0-4v3l1-1-1-2m-1 10l-1 2 1 4 1 1 1 1 2 1v-1l-2-2a14 14 0 01-2-4v-2m3 5l1 1h1l-1-1h-1m2 3v2l1 1 2 1h2l-1-1-3-1-1-1m2-1l2 1h-2v-1m2 2l2 1a3 3 0 001 1h-1l-1-1h-1v-1m-26-17l-1 2v1-1l1-2m3-3v5l1 4-1 2-1 2-1-2 2-3-1-4 1-3h-1l-1 4 1 3-1 2v-4-3l1-2m2 10l1 1-1 5v1a9 9 0 00-3 1v-1l2-2 1-3v-2m-3 4l-4 2h3v-2m3-3l-1 1v3l-1 1-1 1 2-1 1-2v-3m-3 7v1h-3l-3 1h-1l2-2h5" class="H"/><path d="M252 169v4l1 2 1-2 2-1 2-3 1-1 2-3 2-2 4-3 2-1 1 1-1-3-2-1h-2l-2 1-11 12" fill="#353db3"/><path d="M252 169l1 1 1-1v1l1 1h-1l-1 1v-1h-1 1l-1-2m3-2h1l1-1v1l1 1h-1l-1 2v-2l-1 1v-2m2-4l2 1 1-1-1 2h1-1v2l-1-2h-1 1l-1-2m3-2h1l1-1v2h1-1l-1 2v-1h-1v-2m3-3h2l-1 1 1 1h-1v1l-1-1h-1l1-1v-1m3-2l1 1 1-1v2h-1l-1 1v-1l-1-1h1v-1" class="C"/><g class="H"><path d="M460 157l1 4 1 3h4v-1l-1-2-1-1-1-2-3-1m4 8l1 1 2 2v2h2v3l1 1v-3-2l-2-1-2-1-2-2m1 0l2 2 2 1v-2l-2-1h-2m2 6v3l-1 4v2l1 5 2 2v-1l-2-4v-5-6m1 3l1 2v4l-1 2v-3-5m-9-16h-1l-1 1-1 1-1 1-2 1v2l2-1h3l1-3v-2m-3 6l-1 1-2 1-2 5v-2l1-4 4-1m-6 6l1 2 2 5v3l-1 5-1 1 1-3-1-4-2-4 1-5"/><path d="M453 178v1h1-1m-3-8l-1 1M449 172v4l-1-2 1-2v-1m0 6l2 3 1 3-2-3-1-2v-1m0 5v1l-1 4 2-3-1-2m-2 3l-1 2-1 2 1-1v-1l1-2m-4 3l-2 2-1 2h1l1-2 1-2m0 2l-1 2 2-1 2-1 2-1 2-2c1 0 0 0 0 0l-3 2-4 1m27-7v3l1 2-1-1v-2l-1-1 1-1m2 3v1l1 1 1 3v-3l-2-2m4 4l1 1a33 33 0 001 2l-1-1-1-2m-6-3l2 2 2 2 1 1h-1l-2-2-2-3"/></g></svg>