<svg xmlns="http://www.w3.org/2000/svg" xmlns:xlink="http://www.w3.org/1999/xlink" height="450" width="900"><path d="M-2761 2662zm0-2z"/><path fill="#002a86" d="M0 450h900V0H0v450z"/><g fill="#46b7e8"><path d="M492 315h-1 1m-2 1v-1M520 318v-16h-1l-38 2 6 3h-4l6 2-4 1h6l-5 2h9l-9 3 9-1-3 1 4-1s-2-6 4-2 10 4 10 4 4-5 3 0c0 4 6 4 6 4h1v-2M393 321h6s5-4 8-4l2 1 2-2h-7l8-2-8-1 6-1-6-1 5-1-5-2 7-1-9-1 14-1s2-2-7-2l-28-1h-1v16h1c7 0 6 1 12 3m20-4v0m37-141h-40c-6 10-15 19-26 23a38 38 0 01-4 51v8l6-4c3-2 5-3 7-1l6 3 7-5c3-2 2-3 6-2 5 1 15-2 18-4 4-2 6 0 9-4s3-3 8-5 4-5 10-4c6 2 9 1 18 8l18 13c3 4 7 6 7 6l7-3c4-2 5-3 8-1l5 2v-7a38 38 0 01-3-51c-11-4-21-13-26-23h-41m-32-20h12c-4 0-4-4-6-6s-5-3-8-3-5 1-4 5c0 3 3 4 6 4m30-6c-2-2-4-3-7-3l-6 2 1 1c2 2 3 6 7 6h-1 13c-4 0-4-4-7-6m25 0c-2-2-4-3-7-3l-6 2 1 1c2 2 2 6 6 6h13c-5 0-5-4-7-6"/><path d="M477 146c3-4 5-10 5-15a29 29 0 10-54 16h-1 2c2 0 4 0 6 2h1l5-2c2 0 4 0 6 2l6-2c3 0 5 0 7 2l6-2c2 0 4 0 6 2l5-2v-1m76 59s3-3 7-4l14-2 8 1 10 5c0 9 0 21-2 31l-2 11 6 3s2 4 5 3c4-1 3-1 3-17-1-15-6-39-6-39v1l-1-3c0-4-5-3-6-2l-2 2-3-1-10-1-9 1c-5 0-7 1-9 3l-3 8m-260-34l10-19c2-4 4-5 5-4l6-2c3 0 8-3 8-3l4 10c2 4 2 2 3 2h8c2 0 1-1 2-4l1-7v1-1s2 3 5 4l8 2c3 1 6 9 10 13 3 3 3 5 3 7v1l-2-2c-6-1-5 5-6 10l5 4-4 16c-2 4-4-1-5-7-1-5-3-9-3-21l-2 20v1l-4 1c-3 2-1 1-5 1s-9-1-13-3h-9l-6 1s-2-3-1-8v-4c-2-1-1-7-1-7l-2 4-4 16c-2 6-6 12-8 5l-1-7c4-1 5-4 6-11 1-6-4-8-8-7v-2m20 26c-5 5-6 10-7 18v19c-4 14 4 36 4 36s-1 11 2 23l-3 3s4 7 3 11c-2 5-1 5 2 8-2 2 3 11 0 23 4-1 10 4 17 6 6 3 15 1 20-1 4-2 10 1 10 1l-1-2c-1-5-5-9-5-9s-2-29-1-38l2-10s-2-4-2-10l2-19v-9h-10c-2-1 0-7 0-7l-1-39-13 1c-5 0-2-1-7-3-5-3-13-2-13-2"/></g><path fill="#fff" d="M450 388c27 0 30-2 56-7-4-8-4-15-7-25-4-10 12-9 23-10l92 2c16 0 17-1 30 6-5 7-9 18-12 23s-4 7-12 5l-2 6c-11 0-16-1-12-7l6-10-55 1 8 12s-40 28-115 28-116-28-116-28l8-12-54-1s1 5 5 10c5 6 0 7-12 7l-2-6c-8 2-9 0-12-5l-11-23c13-7 14-6 29-6l93-2c11 1 26 0 23 10s-3 16-7 25c26 5 29 7 56 7"/><g fill="#ffe84f"><path d="M453 234a12 12 0 0011-12 12 12 0 00-11-11 12 12 0 000 23m125-70l10-1-4-16-4-1 2 5a235 235 0 002 9l-5 1h-11s-2-10-5-15l-3 1 6 17h7l1 4-4 12-4 13h4l5-13c2-6 3-8 3-13v-3M489 148h14c3 0 3-2 0-2h-14c-3 0-4 2 0 2m5 9v3c0 1 2 2 2 0v-4"/><path d="M432 109c2-1 3 4 3 4l1 3s-1 1 0 1h3-1l-2 2-2 2-2 1v1l-2-2h-2l-1-5s3-6 5-7m-25 143l2-3 10-7h-1c-5 4-11 6-17 8l-1-1c4-5 9-7 14-10v-2h-1l-4 1-6 1v-1l2-1c1-1-1-1-2-1v-1l7-3v-1h-3l4-2c-1 0 1 1 0 0l4-2-4-1c-3-1 2-1 1-2h-9c-2-1-6 0-7-2l6-2-2-1 8-1 8-1c1-1-1-1-1-2l-13-5-2-2 9 2c4 0 8 2 11 1l-1-1-15-10 1-1-6-4v-1c7 1 12 5 19 7v-1l-7-5c1-3-2-3-2-5l21 12h1l-16-16v-2l6 3v-1l12 9c-2-3-3-7-6-10l-1-2v-3l1 1 11 12v-2h-1l-3-8c1-1 1 2 2 1 0-2 1-1 2-2 0-1-2-3-1-5l2 2 6 12c2 1 1 3 3 3 3-1 2-4 4-7l3 2 1-1 2 1h2c1 2 0 4-1 7h1l7-15 1-1-1 7h1c-1 2 1 0 2 0 0 4-2 7-1 9 2 1 3 0 4-1l6-10h1l-5 12c1 1 1-1 2-1v-1l7-6 3-2v2h1v2c1 1 2-1 3-1v1l-4 6-3 2-3 5 1 1 9-7 2-1h2c0 1 2 1 0 3h2l-7 5-7 4v1h1l11-3 3-2c2 0 1 1 1 2 0 0 3 0 2 2l-1 1 1 1-4 3-10 2v1h2l13-2 2 2-1 1c0 1 3 1 2 2l-15 2-2 1 1 1h1c4-1 8 1 12 1v2l2 1-2 1c0 2 2 1 1 2l-2 1-12-1-1 1c1 1 3 3 5 3 3 3 8 3 11 6l1 1 1 1h-2l-14-4 1 1c1 1-1 1-1 2 4 3 8 6 13 7 3 1 4 4 7 4l1 1"/></g><g fill="#ffd9ee"><path d="M565 145l2-6-1-7-2-1 3-2-1-2h13l1 2 1 3c0 3-2 2-2 6v7l1 1s1-1 2 5a220 220 0 002 9l-16 1s-2-10-5-15l2-1m3-24h9l-2-3s-1-1-2 1c0 2-3 3-3 1-1-1-2-1-2 1m-39 51l-10-9-11-10c-3-3-9-4-9-4l-1 2-1 2 1-2-5-2c-1-1-4 0-3 1l1 3 1 3h5-1s0 1 4 2 3-1 6 2c2 2 16 22 22 26 5 3 11 4 11 4l-10-18"/><path d="M539 191c1-5-1-12-2-14-3 1-5 2-7-2l-1-3m77-1l2-15s-2 0-2-2l-1-4s-2 0-1-1c0-1-2-2 0-2h5l2 1c1 2 2 1 2 5 1 3 1 11-1 19s-5 19-7 22c-3 3-6 3-6-1l-1-5c2-1 3-1 3-4l3-7c1-2 3-5 2-6m-284-28l3-3v-10s-2 1-2-1v-4l2-2c0-2 3-5 4-6l4-2 3 3c2 1 4 1 5 4v7c-1 3-2 3-2 7l1 9v-1l-1 7c-1 3 0 4-2 4h-8c-1 0-2 1-3-2l-4-10m-29 30c4-1 9 1 8 7-1 7-2 10-6 11m-2 2c-5-3-8-10-10-23s-3-21-1-24l3-9c0-1 0-4 2-6 1-1 3-3 2-1l-2 4c0 3-1 5 1 4 3-1 7 0 5 1l-1 1s2 1 1 2h-1s2 0 1 1v1c1 1 1 1-1 2l-4 4c-2 3-2 1-1 5 0 4 3 8 3 8m74 6s3 1 4 5l18-11 7-5c2-2 3-2 7-3l8-2c1-1 2 0 2 1l4 3c1 1 2 3 0 2l-4-3v3l-1-3-2 1-6 1 1 2 3 2h-6c-2 0-4-2-6 2-1 3-11 17-19 21-3 1-3 2-7 0-3-1-8-4-9-6 1-5 0-11 6-10m-47 171l-4 3c-1 2-2 2 0 3s3 0 5-1c3 0 4-2 4-2l-3-1-3 2 1-3 1-1h-1m1-1l6 4 1-1-7-4v1m31 5l3 2s-1-2 2-2l4-1s-6-2-9 1m5 2l4 5h4l1-1 2 1c0-1 2-1 0-2l-3-4s-3 1-2 2c-1-1-5-4-6-1m184-7l-1 3 4 2 2-3s-2-2-5-2m6 3l-2 3 3 2 2-2-3-3m-4 10l4-4s-2-2-3 0c-2 2-3 1-2 0s-1-4-2-4l-1 1c-1 2-2 2-1 3 1 2 1 3 3 3l2 1m38-5l4 2h2l1 1h3l2-1-2-2-5-3h-2l-3 3"/></g><path fill="#193a84" d="M399 331s6-3 11-3h11l17-4c7-3-3-4-3-4h-6l-5-4c-4-2-5-1-10 1l-5 1 2-2h-7l8-2-8-1 6-1-6-1 5-1-5-2 7-1-9-1 14-1s2-2-7-2l-28-1h-1v-10l1-1h138l1 1v10h-1l-38 2 6 3h-4l6 2-4 1h6l-5 2h9l-9 3 9-1-3 1-2 1-9 2s-3 2-6 0c-3-1-7-3-11-3-5 1-7 7-7 7s-2 1 1 4c2 3-1 2-5 3h-9c-10 0-22 5-11 6l33 1c5 1-2 5-13 5s-21-1-22-3-7-4-8-2c-2 3-9 3-9 3"/><path fill="#197352" d="M380 258l6-4c3-2 5-3 7-1l6 3 7-5c3-2 2-3 6-2s15-2 18-4c4-2 6 0 9-4s3-3 8-5 4-5 10-4c6 2 9 1 18 8l18 13 7 6 7-3c4-2 6-3 8-1l5 2v34l-139 1-1-34"/><path d="M608 156l1 13h-4l1-14m3-14l-2-1-2 1 1 2v3h2v-3a2 2 0 001-2" fill="#c5baad"/><path d="M410 328h11l17-4c7-3-3-4-3-4h-6l-5-4c-4-2-5-1-10 1a4 4 0 01-1 0l-1 1h-1-1l-3-1c-3 0-8 4-8 4s-1 1-6 0c-6-2-5-3-12-3h-1v2l1 1 18 10c2-1 7-3 11-3m109-8s-6 0-6-4c1-5-3 0-3 0l-10-4c-6-4-4 2-4 2l-4 1h-1l-1 1-9 2s-3 2-6 0-7-3-11-3-7 7-7 7-2 1 1 4c2 3-1 2-5 3h-9c-10 0-22 5-11 6l33 1c5 1-2 5-13 5s-21-1-22-3-7-4-8-2c-2 3-9 3-9 3l-7-4 43 25 69-39 1-1h-1m-49-48s2-4-5-4c-6-1-8-3-14-2s-10 1-10-2c0-2 3-3 6-2 2 2 3 0 6 1s4 1 6-1l6-2c4 1 5 0 0-2-6-2-6-1-4-6 3-4 2-7-2-7-4 1-4 3-6 6s4 5-4 7-15 0-18 0-3-1-6 4c-2 4-2 3-9 4-8 1-8 3-6 4 2 2 0 2-4 2l-9 1c-3 0-1 3-1 3s5 2-2 2-16 5-8 6c7 0 13 0 14 2l3 5h-22v-22c6-3 12-7 16-6 5 0 8 4 11 2l6-3s7 2 8 1l2-4-7-3c-2-1-3-2 1-3s1-5 1-5h4s3 3 1 6c5 0 4-2 9 2 4 3 9 0 9 0s11-4 9-8c-1-5-3-9 2-10 4 0 4 3 4 3l8-2 7-1 5 4c-8 1-9 0-10 3l-3 8c-1 2 4 2 4 2s3 1 7-3l7-7 8 7c4 3 9 5 11 8s6 5 11 6l8 4-1 6s-6-4-12 0-5 1-9 1l-12-1-15 3-9-2c-5-2-4-1-8 1-3 1-6 0-10 2s-8 2-8 2 4-2 0-5c-3-3-1-5-1-5s-5-7 0-6c4 2 5 4 11 5l14 1h10" fill="#10503a"/><path d="M448 111v-3-2c0-1-1-2 1-1h3l1 2-1 2-3 2h-1m6-1h1-1m-10 0l1-1 1-1-1-2h-1v2l-1 1 1 1m16 5l-1-2v-1c1 0 3 2 2 3h-2m-1 0l1-1-1 1m-25 14l1-1 1 1s0 1 0 0h-2m-1-2l-1-1-1-1 2 1 1 2-1-1m38 20l1-3v-4l-1-2c0-1 1-2-1-2l-5 1c-2 1-3 0-4-1l-2-3v-3l1-3 2-2v-2l1-1 4-1h1l2 1h2l1-1 2-2-2-1h-1v-2c1 0 2-1 0-2-1 0-3-1-2 1 1 1 2 1 1 2s0 3-1 2 1-2-2-3-2 0-1 1l2 2h-1l-1-1h-3c0 2 1 3-1 3-2 1-2 0-2-1v-2l2-1-1-2 2-2c2-1 2-2 1-2l-1-1-2-1a11 11 0 002 2l-1 1-1-1c-1-1-2-2-1-3v-1l2-1c0-2 1-1-1-2l-5-2c11 1 19 8 23 17v-1 8l-2-2-2-3h-1a138 138 0 003 4l2 3 1-1v5l-2 6-1 4-2 5-3 2-2-2m-35 1l-2-3-3-5v-4-2c-1-1-2-1-2-3l-2-4v-5l1-7-1 2c4-6 9-11 15-14l1 1v2c1 2 1 2-1 2-3 1-3 1-3 3v2l2-1 1-2 2 1v1l1 5-2-2h-2v2h-2l-2 2-2 2-2 1v1l-2-2-3 1c0 2 0 5 1 4h1v4l1 2h4l3 3 3 2 2 2c2 3 2 2 3 2 2 1 6 2 4 3l-1 3-1 1s-3-2-5-1l-7 2v-1" fill="#596e60"/><g fill="#fff"><path d="M450 375l76-43c7-4 7-9 7-14v-73l-2-2c-6-5-10-12-10-20a25 25 0 0112-21l2-2-6-11c-14-2-26-14-29-26h-50v13h41c5 10 15 19 26 23a38 38 0 00-9 24 38 38 0 0012 27v70a25 25 0 01-1 1l-69 39-69-39-1-1v-70c8-7 12-17 12-27a38 38 0 00-8-24c11-4 20-13 25-23h41v-13h-49c-4 14-15 24-30 26l-6 11 3 1a25 25 0 0111 22c0 8-4 15-9 20l-3 2v73c0 5 0 10 8 14l75 43m-28-79c2-3 1-4 1-4h10l2 5h-13l-2 1"/><path d="M422 290h9s2-2 0-5h-9s2 1 0 5m2-6h6l1-2-7-1v3"/><path d="M433 288v4h3l-2-4h-1m-13 7v-3l-11-2s1 2 0 6l11-1m-8-5c1-2 2-5 1-8h10l-2 3v3l-9 2m9-8l-8-1v-3h7l1 4M412 288l-6-1s0-3-1-6l7 1m-3 8h-6v7l6-1v2m82 3c-6-8-6-18-6-18l-5 2v18l13-3m-15 2c-2-5-4-13-2-17 0 0-6 9-8 15l10 2m86-175l2-4c0-1 0-2 2-2l9 1 2 1 2 4s0 2-1 1l-2-1h-14m-66 18l-2-72h-1l-2 72m-204 4l18 196c0 3 2 2 2 2l-18-199m-3-11v-5l1-2 1 7M289 129l-1-9-2 1 1 9"/></g><g fill="#ffd90f"><path d="M450 373l74-43c7-3 7-7 7-12v-72l-2-2c-6-5-10-13-10-21 0-10 5-18 13-23v-1l-4-8c-14-2-26-13-30-26h-48v8h42c6 12 16 21 29 25a36 36 0 001 51v72l-2 2-70 40-70-40-2-2v-72a36 36 0 002-51 45 45 0 0028-25h42v-8h-48c-4 14-15 24-29 26l-5 8 1 1c8 5 12 13 12 23a28 28 0 01-10 21l-1 2v72c0 5 0 9 6 12l74 43m-14-223c-2-2-4-3-7-3l-6 2 1 1c2 2 2 6 6 6h13c-4 0-5-4-7-6m25 0c-3-2-5-3-8-3l-6 2 1 1c3 2 3 6 7 6h12c-4 0-4-4-6-6m17-3l-6 2 1 1c2 2 2 6 7 6h-1c5 1 8 1 8-3s-4-6-9-6M437 46c-4 0-5 3-5 3h6v-2l-1-1m11 54l-1-3h-2l1 3c0 1 0 2-2 3-2 0-2 1-3 2l3-1 1 1s-1-1 1-2h5l-3-2v-1m12 0l-1-3h-2l1 3-2 1 3 1v3l1-1h2l2 1s1-2-1-3l-3-1m105 19c3-2 6-4 8-3l8 2-1-3c-6-2-9-3-12-1l-3 2v3m5 60l4-12-1-4h-7l-6-17v-1c-4 1-11 3-13 5l-2 7-3 4s3 9 0 12l-5 3s2 9-2 21v1s2 4 4 2c2-1 0-3 3-7l12-18s4 10 2 14c-1 4-2 6 0 7 2-2 4-3 9-3l1-1 4-13m34-10c-3-2-4-5-5-9l-4-8c-1-3-7-5-11-6l4 16-10 1v3c0 5-1 7-3 13l-4 13h3a32 32 0 0113 2l2-2c1-1 6-2 6 2l1 3 1-10c1-5 1 0 2 0l3-5c0-3 2-4 3-7 1-4 2-4-1-6m-10 91l-1 1c-2 0 0-2 0-2l-2 1v-1l-1 2v-3l-2 2v-3l-1 2 1-13 2-11c2-10 2-22 2-31-1-2-6-4-10-5l-8-1-14 2c-4 1-7 4-7 4l-2 8c-2 3-2 9-3 21-1 13 0 18 1 25s-1 8-2 20l-4 27c-1 8-2 10-1 15s-1 8-3 11c-2 4-5 8-5 12 2-4 6-6 9-3l6 5 23 2 6-4c3-2 3-2 5 0s6 1 6 1l4-3c3-1-1-21-1-32l2-48v-1M340 115l-1-1-2-1-1 1c-1-2-2 0-2-1h-8l-1 1h-1l-1 1v2c3-1 5-3 9-3l8 1m-28 77l6-1h9c4 2 9 3 13 3s2 1 5-1c4-2 7-1 5 3 3 2 3 4 1 6 0 0 8 30 8 36-8 0-13 2-13 2l-1-39-13 1c-5 0-2-1-7-3-5-3-13-2-13-2s2-1 1-5m50 152l4-2 1-2 2 2 1 3 1-1v-1h1v1l1-1 1 1-1 1h1l-1 2-1-1-1 1 2 2s3-1 4-4 2-6-1-7c-2 0-4-2-5 1l-2 3-2-2 3-4h6c2 0 5 1 5 5-1 3-1 6-3 8l-4 2 1 1s0-2 4-2 6 0 8 2 3 2 2 5c-1 4-2 7-4 7l-5-1-1-1h4c2 0 2 0 3-2v-5c-1-1-2-3-5-3l-5 2 1 2h1l1-1v1l1-1v3l-1 1v-1l-1 1 2 4-7 1-2 1-2-8c-2-4-3-9-5-10l-2-3"/><path d="M381 345h3l1 1c1-1 2-3 1 0v3h2l-2 1h-4l-7 2v-1l4-3 2-2v-1"/><use xlink:href="#B"/></g><g fill="#d18644"><path d="M403 298l1 3h27l4-3-27 1-5-1m72 8h15s2-1 1-4c0 0-11 2-17 1l1 3m-30-86c1-1 1-2 3-1l2-1 1 1h-1l-4 1h-1m15 0c-1-1-1-2-2-1l-3-1-1 1h2l3 1h1M450 224h5l-2 1a5 5 0 01-2-1s-1 0 0 0m-2 3h6-4-2m6 2l-3-1-1 1m-1-6l-2 2-1 1v2s1-4 3-5m5 0l2 2v1l1 2s-1-4-3-5m110-106l3-2c3-2 6-1 12 1h-1c0-2-1-2-3-4l-6-1-4 3c-2 1-1 3-1 3m15 11v1l1 3c-1 3-2 2-2 6v7l1 1h1l2 1 5 2 1-1h-1l1-2v-3c-1-3-2-3-4-4l-1-6c0-4-1-6-3-9v-5l-8-2c-2-1-5 1-8 3s-1 1-2 2l-3 4v6c1 3-1 3-3 4s-2 4-3 6c-2 1 1 1 0 3v3l8-2h1l2-1 2-6-1-7-2-1 2-2v-2h-2l1-3c1-1 1-3 2-2l1-1c0-2 1-2 2-1 0 2 3 1 3-1 1-2 2-1 2-1l2 3v1l2 1 3 4c0 2-2 0-2 0v1m-227 22l-8-2c-3-1-5-4-5-4v1l-1-9c0-4 1-4 2-7v-7c-1-3-3-3-5-4l-3-3-4 2c-1 1-4 4-4 6l-2 2v4c0 2 2 1 2 1v10l-3 3-8 3-6 1c3-5 3-9 6-12l5-5-1-6 1-3c0-2 0-2 2-3h2l2-2 5-1h6c2 0 4 0 5 2s5 8 3 14c3 3 3 5 4 8s-1 2 1 2l1 2 2 2 1 5M339 114l-2-1-1 1c-1-2-2 0-2-1h-8l-1 1h-1l2-4c1-1 2-2 5-2s4-1 6 2l2 3v1m-45 1h-3l-3-1-1-3-2-4v-5c2 0 3-2 4-3 1-2 0-2-2-2s-5 0-5 4c-2 2-3 4-3 7-1 3 0 3 1 4v2 6l-1 6v-1l1 1 6-2 2-1 7-6-1-2m18 230l4 1c3 1 6-3 6-3l-2-2-4 2 1-2 1-1h-1l1-1 6 4 1-1 2 1-7 5-5 1h-1l-4-3 1-2m37 0s6 7 10 8h8l-1-2-1 1h-2c-1-1 0 0 0 0l-2 1-2-2-4-3s0-2 1-2c2 0 3 0 5 2 1 1 0 0 0 0v-1l1-1v-1l-3-1s-5 0-6 3l-3-3-1 1m226 3l6 4 6 1 4-1v-2l-3 1h-5l-4-3 4-4s1-2-3 1l-5 3m-27-3l-2 3-3-3 2-2-1-1-2 3-4-2-1 1s4 2 3 4v2l2-1 2-1 1 1-3 4-2-1-2-1-2-2v-1l3-7-3 3c-1 2-3 6-2 7s3 4 5 4 3-1 5-3l6-5-2-2"/></g><path d="M459 96c0-2 0-1 1-1 2 0 1-3 1-3l7-1c2 0 2-3 4-3 3-1 2-2 2-2h3l2-1v-2h3v-2l4-1v-1h3v-2h1l-1-2h3v-3h2l-1-2h2l-1-3h2v-1l2-1-1-2h3v-2s2-1 3-3l4-4-1-1 2-1v-2l8-2c4-1 5-5 5-5l-22 3c-12 1-22 2-27 4-6 1-1 6-8 13-4 4-10 2-11-1l-4-9h2l-2-4 2-1-5-3c-4-1-7-1-9 1-4 0-5 3-5 3h5c1 1 3-1 4 10 0 10-5 8-10 8-5-1-6-2-8-6-1-4 1-6-4-10-5-3-21-6-30-7l-22-6s0 2 3 4l4 4 2 2 4 3 2 3 6 7 5 1c-1 0-2 1-2 3l4 2-1 1 3 1v2l4 1-1 2h4l-1 2 3 1-1 1h5l-1 2h4l-1 2h3l11 6c4 1 2 2 8 0l3-1 3 2c-1 2 0 3 2 6 1 3 0 2 2 2h1l2 1v-2l1-2 2 2-1-5v-4l2 1s1 4 4 7l2 2h2m98 87v-4-4-4c0-4 0-2-1-3-2-1-2-1-1-3s2-2 1-5l-2-5v5l-1 6v6l1 3 2 8m7 151l7-39c1-5 3-12 3-19l2-18c2-9 2-16 2-25l-2-20s2-1 3 2c0 4 1 5 2 3 0-2 1-4 2-1 1 2 3 2 3 2h1l1 1 3-2 2-4s1 6-1 13c-2 6-2 4-2 9v6s-1 1-1-4c-1-4-1-8-2 1s-5 18-3 9c1-10 2-21 0-19-3 2-4 0-4 8l-1 14-2 17-3 16 1 19c0 9-2 10-3 10-2 1-1 0-2 9l-2 14h-4m28-74l-4 32c-1 15 0 25-2 32s0 14 0 14-1 3-2-3c-1-5-4-13-3-5l2 10s3 3 5 3c2-1 1-1 2-4 2-3 3-1 1-10-1-9 1-24 2-30l-1-18v-21m-32 72c3-8 5-20 6-26 0-7 0-16-1-7l-5 25v8m4-43c0-6 1-8 3-13l3-14 3-18 2-7-4 11-5 20-3 13c-2 5-1 4-1 9-1 4 1 2 2-1m-21-98l-1-10-2-7h2c1 0 1-1 2 2v7l-1 8m5-11c1-1 2 0 2-5l-1-7c0-2 0-3-1 0l-1 7-1 6 2-1m-12 15l-3-10 6 2s0 5-3 8m38-31s0 6-5 6h-7l6 1h5l1-5m22 2a6 6 0 01-1 2l-2 3s2 2 2 9v7l1 2c-1-1 0-7 1-11l2-8c1-2 2-2 3-2h-2c-2 1-2-1-2-1m0-3l-1-3-2-8c0-2-2-4-1-1l1 8 1 5" fill="#b3875a"/><path d="M447 97v-1l1-2 2 2-1-5v-4l-2-6c-3-3-8-6-8-1l-1 7 2 2c-1 2 0 3 2 6 1 3 0 2 2 2h3m12 0l-1-4v-5l1-1-1-7c-1-3-6-4-6-2-1 2-2 7-1 10 0 0 1 4 4 6l2 3h2m-6-36s-2 0-2 4c-1 5-2 8-6 10l-5 1-1-5c0-2 2-2-5-1-7 0-10 0-17-8-8-9-5-10-16-13l-19-5c-8-1-12-2-15-6 0 0 13 4 22 5 9 2 25 5 30 8 5 4 3 6 4 10 2 4 3 5 8 6 5 0 10 2 10-9-1-7-2-8-3-9v-1l-1-2c2-2 5-3 9-1l5 3-2 1 2 3h-2l4 9c1 3 7 6 11 2 7-7 2-12 8-13 5-2 15-3 27-4l22-3-35 9c-5 1-6 1-11 9-6 8-16 10-19 7l-2-5" fill="#ffe8b8"/><path fill="#9bd9f4" d="M345 148l-1 8c-1 5-3 4-6 4l-13 1c-3 0-3-1-4-5l-3-11 4-2 4 10c1 2 0 2 4 2h6c2 0 2 1 3-3l1-8s2 3 5 4"/><g fill="#ff3515"><path d="M570 135l3-1h2l2 1h-5-2m32 117v6l-1 3-1-2-1 3v-2l-2 3-1-3-2 3v-2l-1 1v-2l-2 1v-1l-1 2v-3l-2 2v-3l-1 2 1-13 5 3 5 3 4-1m-55-101l-3 3-3 3c-2 1-2 3-3 7s-3 2-6 4l-3 4 2 5c2 2 7 0 7 0l4-3s1-3 1-6l-1-6 3-5 2-6m-12 48s2 4 4 2 0-3 3-7l12-18s4 10 2 14c-1 4-2 6 0 7l-2 8-3 8c-2 3-2 9-3 21-1 13 0 18 1 25s-1 8-2 20l-4 27c-1 8-2 10-1 15s-1 8-3 11c-2 4-5 8-5 12l-1 2-13 1 4-4c2-1 3-1 3-4l4-7c3-3 4-7 4-14l2-44v-61-7l-1-6"/><path d="M600 253c3-1 2 0 2-16-1-16-5-39-5-39l-1-2 1 3 1-11c1-5 0 1 1 0v5c1 4 3 5 6 2v-1l7 54c0 4-3 1-2 4 0 4 3 6 0 8s-5 3-6 9l2 62c1 8 1 9 4 12l4 5-25-1-1-1 5-4c3-1-1-20-1-32l2-47M330 131h1l3-1 1 1h2l-3 1h-1l-3-1m-23 213l-3 1c-4 0-8-9-15-16-6-8-3-26-3-26l-3-2 2-24-4-2 12-80 14 150m54-1v0M363 325l-1-39a511 511 0 002-101l-1-1-4 15c-2 4-4-1-5-6l-3-22-2 21c2 0 3 1 1 4 3 2 3 4 1 6 0 0 8 30 8 36l-7 1-6 1s-2 6 1 7h9s1 3 0 8c-1 6-3 13-2 20 0 6 2 10 2 10l-2 10c-1 9 2 38 2 38l4 9 1 2h3c2-1 4-2 6-6 0 0-5-2-6-13m-50 13c-2 1-4 3-5 6l-13-146c2 7 6 2 8-5l4-16 2-4s-1 6 1 7v4c-1 5 1 8 1 8h1c1 4-1 5-1 5h1c-5 5-6 10-7 18v19c-4 14 4 36 4 36s-1 11 1 23l-2 3s4 7 2 11c-1 5 0 5 3 8-2 2 2 11 0 23M364 353l5 11c1 1 3 3 3 1l-4-14-5-7-2 1 2 2 3 4c0 1 0 2-2 2m7-9l-1-1 1-3s9 0 8 2l-2 5c-1 2-2 2-3 2l-2-2 1-1h2l-1-1h1l-1-2-1 1v-1h-2l1 1h-1m8 15l1-1v1l1-1v-1h1l-1-1-1-1h-1v1l-1 1-1-3 3-1h5v5c-1 2-4 3-5 3l-1-2"/></g><path d="M572 131h4l-1-2s2 2 1 2l-3 1-1-1m-233-9h-4l1 4c0 1 0 3-2 2h-2v-1l1 1a5 5 0 001 0l1-1v-5l2-1 2 1m-7 1l-1-2c-1-1-2 0-4 1h5v1m0 10h2-2" fill="#d18644"/><path d="M590 206c0 4-5 7-10 7-6 0-11-3-11-7l11-1 10 1m54 0c0 4-5 7-10 7-6 0-10-3-10-7l10-1 10 1m-37-35l28 1v-1l-26-2h-4l-25 2v1l27-1" fill="#c5baad"/><g fill="#61619e"><path d="M363 183l-5-4 1-6 2-4h3l2 1v-1s-4-5-7-2c-3 2-4 7-4 15v13l1 4a515 515 0 007-16m-67 8s5 2 5 5v-15s-1 7-5 10M310 177l2 2c1 1 3 1 1 3l-1 6c0 2-1 1-1 1v-5-4l-1-3"/><path d="M313 192h-1l-1-3 4 1 5-1h7c2 0-1 1 3 1l7 1c2 0 4 2 7-1s4-3 3-6l-2-8c-1-1-1-2 1-4s3-1 4-5v-7c0-2 0-9 1-6 0 4 2 4 1 9 0 5 0 4 2 2s6-5 3-1c-3 5-5 7-5 11v4l-1-7-2 19-5 2c-2 2-3 1-6 1l-10-2c-4-2-5-2-8-1l-8 1m-7-15l-5-4c2 2 3 6 3 7v11l1-13 1-1"/><path d="M316 171c3 1 6 2 9 1l-2 12s0 3 1 1l5-23c0-2 0-3-1-1 0 1-1 7-3 9h-10l1 1m18-10l1 14c1 4 2 5 1 1s-2-6 2-5c3 1 6 4 10-1l3-4s-1-7-2-4c0 4-1 6-4 7-2 1-4 2-6 1s-3 2-3 0l-1-8c0-1-1-3-1-1m-24 14s2 1 1-4l-1-6v-6c-1-3-2 0-2 0v6l-1 3-1 8-1 10 1-1-1 10 1 11v5c0 1 0 2 1-1l3-10c1-1 1 0-1-1-2-2-2-4-2-6l1-10v-5l2-5v2m5 22l-2 7c-1 2 1 2 2 0l3-7h-3m9 2c2 2 6 2 6 5 1 3 2 8 3 5 0-4 2-5 4-5 2-1 4-1 4 3v13l-1 16 3-15c0-6 0-6 1-5l1 2v-17l-15 1s-3-4-6-4m-15 64c-3-11-3-18-3-23 1-5 2-4 2 1-1 4 1 16 2 20 0 4 0 6-1 2m21-33v13c1 12 3 15 1 26-3 12-3 22-3 29s1 15 2 4l3-36 1-25 1-23c0-6-2-4-3-1v3l-2 10m15 0l-4 26-5 29v9l5-26 4-23 1-4-1-11m2 18c-1 10 1 9-3 24-3 15-4 16-5 27s-2 3-3 14-3 11 0 15c4 4 9 5 9 5l-5-4-3-7h3s-2-1-2-5c1-4 3-4 3-4l1-15c1-9 1-16 3-19 2-4 4-8 4 0l2 35c0 9 1 16 3 19 1 4 4 6 4 6l-2-5-2-22c-1-9-2-19 2-26-2-9-4-10 0-28v-10l-4-1s-1 2-5 1m-4 89c-6-3-10-5-13-10-2-6-3-7-3-16s-3-23-3-15v30c1 9 5 9 0 9-4 0-9-1 0 2 9 2 3 7 10 4 6-2 2-5 9-4m-30-47l5-10v-5c1-3-1-2-3-1-1 1-3-1-3 4l1 12m9-13c5-10 7-16 6-21v-8l-2 6 2-9 1 6c0 7 1 11-1 22l-4 16-1-7c-1-2-2-2-1-5m9-113l-1 20c-1 6 1 6 1-1v-18-1"/></g><g fill="#fff"><path d="M382 347a1 1 0 001-1l-1-1a1 1 0 00-1 1 1 1 0 001 1M384 347l1-1-1-1-1 1 1 1m-1 3l1-1-1-1-1 1h1M381 349a1 1 0 000-2 1 1 0 000 2m5 0l1-1-1-1a1 1 0 00-1 1l1 1m2 3l1-1a1 1 0 00-1-1l-1 1a1 1 0 001 1m2 2l1-1-1-1a1 1 0 000 2m1 2a1 1 0 000-2l-1 1 1 1m0 2l1-1a1 1 0 00-1-1l-1 1a1 1 0 001 1m0 3a1 1 0 001-1l-1-1-1 1a1 1 0 001 1m-1 2l1-1a1 1 0 00-1-1 1 1 0 00-1 1l1 1m-7-19l1-1-1-1-1 1a1 1 0 001 1m0-2l1-1-1-1a1 1 0 00-1 1l1 1m0-2a1 1 0 001-1l-1-1-1 1a1 1 0 001 1m-2-1a1 1 0 001-1l-1-1-1 1 1 1"/></g><path d="M438 45l5 1c2 2-1 1-2 0l-3-1m53 103l7 3 1-3h-8m-163-25h3l-1 1h-1l-1-1m8 0h2l1 1h-2l-1-1m-49-22l-4 1-1 1 4 1-1-1 2-2m-1 9c-2 1-2 2-1 2l2-1-1-1m-6 2h2l-1-1-2-1 1 2m0 9l3-3 3-1s1-2-1 0l-4 1-1 1v2m10-5l-5 3-2 2-2 2-1 1h1l4-2h1v-2l2-1v1h1c1 0 1 1 2-1l1-2 2-1h-4m102 276c0-3-2-5-5-6l-2 1v3l4-1-1 5v1c0-3-2-4-4-4l-1 6 1 2c3 0 6-1 8-3l-2 5-13-3h-1c2 0 3-2 3-3l3-9c0-1 0-3-2-3l13 3-1 6m9 11l2-1v-1l-1-3-3 2-1 1 2 1v1l-6-1 3-2 4-4-2-6-2-3 8 2c-2-1-2 0-2 1v1l1 3 2-2 1-1-1-2 6 1h-1l-3 2-4 3 3 7 2 3-8-2m26-5c-1-4-3-6-5-6-3 0-4 2-5 6 0 5 1 7 4 8 3 0 5-1 6-5 0 4-3 6-7 6-5-1-7-5-7-9 1-4 5-8 9-7l4 2 2-1-1 6m17 0v1c0-3-3-5-6-5l-1 1-1 3c3 0 4 0 5-2v6c-1-2-3-3-5-3v6c0 2 0 2 2 2 3 0 6-2 6-5v6h-14c2 0 2-2 2-3l1-10-2-3 13 1v5m4 10c2 0 2-1 2-2v-11l-2-2h8c-2 0-2 1-2 2v11l1 1c3 0 5-2 6-5v6h-13m16-6c1 2 4 5 7 4l2-2c0-4-9-2-9-7 0-3 2-5 4-5l4 1 2-2 1 6c-1-3-4-5-6-4-1 0-3 1-2 2 0 4 8 1 9 7 0 3-2 5-5 5h-4l-2 1-1-6m16 4c2 0 2-2 2-3l-2-10-2-2 8-1c-2 0-2 1-2 2l2 11 2 2-8 1m16-19c4-1 8 2 9 6s-2 9-6 10c-4 0-8-2-9-6s2-9 6-10zm3 15c3-1 3-4 2-8s-2-6-5-6c-3 1-3 4-2 8s3 6 5 6m24-6l-2 1c-2 0-3-1-4-3-1-3-1-3-4-3l2 4c0 2 1 3 3 2h-1l-7 3c2-1 2-2 1-3l-3-10-2-2 7-2c4-1 6 0 7 2 0 3-2 4-5 5h1l4 2 2 3c2-1 3 0 1 1zm-10-6c2-1 4-1 3-4-1-2-2-2-3-2s-2 1-1 2l1 4"/><path d="M370 249c0 3 8 1 8 4m-3-12c-2 2 5 6 3 8m0-12c-2 3 6 5 4 8m-2-12c-2 3 6 4 5 7m-4-11c-1 3 7 3 6 6m-5-10c-1 3 7 2 7 5m-7-10c0 4 7 1 8 4m-9-8c1 3 8 0 8 3m-9-7c1 3 7-2 8 1m-10-5c1 3 7-3 8 0m-11-3c2 2 7-4 9-2m-12-1c2 2 6-5 8-3m1-10c-3 1 2 7-1 9m5-11c-3 1 3 7 0 9m4-12c-3 2 3 7 1 9m2-11c-2 2 5 6 2 8m1-12c-2 3 5 6 3 9m0-12c-2 2 6 5 4 8m-1-12c-2 3 6 5 4 7m-2-12c-2 2 6 5 4 8m-36 71c-1 3 7 2 7 5m-8 3c0 3 8 1 8 4m33-84c3 0 1-8 4-8m1 8c3 0 1-8 4-8m1 8c4 0 2-8 5-8m1 8c3 0 1-8 4-8m1 8c3 0 1-8 4-8m1 8c4 0 2-8 5-8m1 8c3 0 1-8 4-8m1 8c3 0 1-8 4-8m1 8c4 0 1-8 5-8m1 8c3 0 1-8 4-8m1 8c3 0 1-8 4-8m1 8c3 0 1-8 5-8m1 8c3 0 1-8 4-8m1 8c3 0 1-8 4-8m1 8c3 0 1-8 4-8m1 8c4 0 2-8 5-8m-125 93c0 3 8 1 8 4m-8 0c0 4 8 2 8 5m-8 0c0 3 8 1 8 4m-8 1c0 3 8 1 8 4m-8 0c0 4 8 2 8 5m-8 0c0 3 8 1 8 4m-8 1c0 3 8 1 8 4m-8 1c0 3 8 1 8 4m-8 0c0 3 8 1 8 4m-8 1c0 3 8 1 8 4m-8 1c0 3 8 1 8 4m-8 0c0 3 8 1 8 5m-8 1c0 3 8 1 8 4m-2 10c2 2 4-6 7-4m-3 7c3 2 5-6 8-4m-3 7c2 1 4-6 7-5m-3 7c3 2 5-6 8-4m-3 7c2 1 4-6 7-5m-3 7c3 2 5-6 8-4m-3 7c2 2 4-6 7-4m-3 7c3 1 5-6 8-5m-3 7c2 2 4-6 7-4m-3 7c3 1 5-6 8-5m-3 7c2 2 4-6 7-4m-3 7c3 2 5-6 8-4m-3 7c2 1 4-6 7-5m-3 7c3 2 5-6 8-4m-3 7c2 1 4-6 7-5m-4 7c3 2 5-6 8-5m-80-43c1 3 7-1 8 2m-7 4c3 2 7-5 9-3m-1-126c-1-2-3-2-5-2h-3m159 54c0 3-7 1-7 4m2-12c2 2-5 6-3 8m1-12c1 3-6 5-4 8m2-12c1 3-7 4-6 7m4-11c1 3-7 3-6 6m6-10c0 3-8 2-8 5m8-10c-1 4-8 1-8 4m8-8c0 3-7 0-8 3m10-7c-1 3-8-2-9 1m11-5c-2 3-7-3-9 0m11-3c-2 2-6-4-8-2m12-1c-3 2-6-6-9-3m-1-10c3 1-2 7 1 9m-5-11c3 1-2 7 0 9m-3-12c2 2-4 7-1 9m-3-11c2 2-4 6-2 8m-1-12c2 3-5 6-3 9m0-12c2 2-5 5-3 8m1-12c1 3-6 5-5 7m35 67c0 3-8 2-7 5m7 3c0 3-7 1-7 4m7 1c0 3-7 1-7 4m7 0c0 4-7 2-7 5m7 0c0 3-7 1-7 4m7 1c0 3-7 1-7 4m7 1c0 3-7 1-7 4m7 0c0 3-7 1-7 4m7 1c0 3-7 1-7 4m7 1c0 3-7 1-7 4m7 0c0 3-7 1-7 4m7 1c0 3-7 1-7 4m7 1c0 3-7 1-7 4m7 0c0 3-7 1-7 5m7 1c0 3-8 1-8 4m3 10c-3 2-5-6-8-4m3 7c-3 2-5-6-7-4m3 7c-3 1-5-6-8-5m3 7c-3 2-5-6-7-4m3 7c-3 1-5-6-8-5m3 7c-3 2-5-6-7-4m3 7c-3 2-5-6-8-4m3 7c-2 1-5-6-7-5m3 7c-3 2-5-6-8-4m3 7c-2 1-5-6-7-5m3 7c-3 2-5-6-8-4m3 7c-2 2-5-6-7-4m3 7c-3 1-5-6-8-5m3 7c-2 2-5-6-7-4m3 7c-3 1-5-6-8-5m4 7c-3 2-5-6-8-4m81-43c-1 3-8-2-9 1m7 4c-2 2-6-5-9-3m1-126c1-2 3-2 5-2h3m-120-22v-7m84 9l6-7" stroke="#000" stroke-linecap="round" stroke-width="1.2" fill="none"/><g stroke-width=".7" fill="none"><use xlink:href="#B" stroke="#d18644"/><g stroke="#000"><path d="M450 163h-49c-4 13-15 24-30 26l-6 11 3 1a25 25 0 012 42l-3 2v73c0 4 0 10 8 14l75 43h0l76-43c7-4 7-10 7-14v-73l-2-2a25 25 0 012-42l2-1-6-11c-14-2-26-14-29-26h-50m0 13h41c5 10 15 19 26 23-6 7-9 15-9 24a38 38 0 0012 27v70l-1 1-69 39h0l-69-39-1-1v-2 0-68a38 38 0 004-51c11-4 20-13 25-23h41m0-11h-48c-4 14-15 24-29 26l-5 8 1 1a28 28 0 012 44l-1 2v72c0 5 0 9 6 12l74 43h0l75-43c6-3 6-7 6-12v-72l-2-2c-6-5-10-13-10-21a28 28 0 0113-24l-4-8c-14-2-26-13-30-26h-48m0 8h42a45 45 0 0029 25c-7 7-10 15-10 25a36 36 0 0011 26v72l-1 2-71 40h0l-70-40-2-2v-72a36 36 0 0012-26c0-10-4-18-10-25 12-4 23-13 28-25h42m-70 119l1-1h22m33 0h36m3 0h5m6 0h34v1m-121 39c2-1 7-3 11-3h11l17-4c7-3-3-4-3-4h-5l-6-4c-4-2-5-1-10 1a4 4 0 010 0h-1s0 0 0 0 0 0 0 0l-1 1s0 0 0 0 0 0 0 0h-1s0 0 0 0h0s0 0 0 0 0 0 0 0h-1 0v0s0 0 0 0 0 0 0 0h0l-3-1c-3 0-8 4-8 4s-1 1-6 0c-5-2-4-3-12-3h-1"/><path d="M450 360l69-39 1-1h-1s-6 0-6-4-3 0-3 0l-10-4c-6-4-4 2-4 2l-4 1h0s0 0 0 0h0s0 0 0 0h-1s0 0 0 0 0 0 0 0h-1v1l-9 2s-3 2-6 0-7-3-11-3c-5 0-7 7-7 7s-2 1 1 4-1 2-5 3h-9c-10 0-22 4-11 6s28 1 33 1c5 1-2 5-13 5s-21-1-22-3-7-4-8-2c-2 3-9 3-9 3m-11-41l1 3h27l4-3-27 1-5-1h0zm0 0l-5-1 5-5m29 0c1 2 0 3-1 4l-1 2m6-6l3 4-4 2m-18-24v3m0 4v1m0 7l-1 2m0 5l1 2m-8-17v-4m0 10v3m19-12v3m0 3v1m-1 5v2m0 5v1m-22-8l2-2m22 8l1 2m-10-3l-1 3m3-8l-5 8m4-10l-2 3m3 5c2-3 1-4 1-4h10l2 5h-13l-2 1m2-8h9s2-2 0-5h-9s2 1 0 5h0zm2-6h6l1-2-7-1v3zm8 4l1 4h3l-2-4h-2zm-12 7v-3l-11-2s1 2 0 6l11-1zm-8-5c1-2 2-5 1-8h10l-2 3v3l-9 2zm9-8l-8-1v-3h7l1 4h0zm-9 6l-6-1s0-3-1-6l7 1m-3 8h-6v7l6-1v2m66 8h15s2-1 1-4c0 0-11 2-17 1l1 3h0zm1-3l-9-3m11 3v-23m2 5v18l13-3m-2 1c-6-8-6-18-6-18m-7 19c-2-5-4-13-2-17 0 0-6 9-8 15l10 2h0zm-2-17l2-5m1 6l7-4m-106-24l6-4c3-2 5-3 7-1l6 3 7-5c3-2 2-3 6-2 5 1 15-2 18-4 4-2 6 0 9-4s3-3 8-5 4-5 10-4c6 2 9 1 18 8l18 13 7 6 7-3c4-2 6-3 8-1l5 2m-19 2l8 7 10 3m-83-119c-2-2-4-3-7-3l-6 2 1 1c2 2 2 6 6 6 0 0 0 0 0 0h13c-4 0-5-4-7-6zm-18 6h12c-4 0-4-4-6-6s-4-3-7-3c-4 0-6 1-5 5 0 3 3 4 6 4m30-6c-2-2-4-3-7-3l-6 2 1 1c2 2 3 5 7 6h-1 13c-4 0-4-4-7-6zm13 0c-3-2-5-3-8-3l-6 2 1 1c3 2 3 5 7 6 0 0 0 0 0 0h12c-4 0-4-4-6-6zm12 0c-2-2-4-3-7-3l-6 2 1 1c2 2 2 5 6 6 0 0 0 0 0 0h13c-4 0-5-4-7-6zm5-3l-6 2 1 1c2 2 3 5 7 6h-1c5 1 8 1 8-3s-4-6-9-6h0zm-1-1c3-4 5-10 5-15 0-12-7-23-18-27m-5-2l-7-1a35 35 0 00-3 0m-4 1a29 29 0 00-17 44m31-49c0-3 0-2 1-2 2 0 2-3 2-3l7-1c2 0 1-3 3-3 3-1 2-2 2-2h3l3-1v-2h2v-2l4-1 1-1h3l-1-2h1l-1-2h3v-3h2l-1-2h2l-1-3h2v-1l2-1v-2h2v-2 0s2-1 4-3l3-4-1-1 2-1v-2l8-2c4-2 5-5 5-5l-22 3c-12 1-22 2-27 4-6 1-1 6-8 13-4 4-10 1-11-2l-4-9h2l-2-3 2-1-5-3c-4-1-7-1-9 1-4 0-5 3-5 3h5c1 1 3-1 4 10 0 10-5 8-10 8-5-1-6-2-8-6s1-6-4-10c-5-3-21-6-30-7l-22-6s0 2 3 4l4 4 2 2 4 3a49 49 0 002 3l6 7 5 1c-1 0-2 1-2 3l4 2-1 1 3 1v2l4 1-1 2h4l-1 2 3 1-1 1h5l-1 2h4l-1 2h3l11 6c4 1 2 2 8 0l3-1 3 2 2 6c1 3 0 2 2 2h1"/><path d="M457 97l-2-3c-3-2-4-6-4-6l-2-1v4l1 5-2-2-1 2v1m-72-51h3m2 5h4m-1 3l6 1m-3 4h7m-1 3l6-1m-3 6l6-1m-4 3l5-1m3 3l-4 1m3 3l4-2m-2 3l4-2m0 4l4-2m-1 4l4-2m-2 4l4-2m-2 3c3 0 5-2 5-2m-2 4l4-2m-1 3l4-2m44 4h-3m6-2l-3-1m9-2l-6-1m8-2l-6-1m10 0l-9-3m12 1l-6-1m6-1l-6-2m9-1l-6-1m8-1l-6-1m6-2h-4m5-1l-4-1m6-2l-4-1m7-1l-5-1m8-3h-5m8-4h-4m6-2h-5m-58 46l1 3c0 1 0 2-2 3-2 0-2 1-3 3 1-1 2-2 3-1h1s-1-1 1-2h5l-3-2v-1l-1-3m10 0l1 3-2 1 3 1v3l1-1h2l2 1s1-2-1-3l-3-1m0-1l-1-3s0 0 0 0m115 64h-6s-2-10-5-15l2-1 2-6-1-7-2-1 3-2-1-2h14v5l-1 6v7l1 1s1-1 2 5a220 220 0 002 9l-6 1m-10-40h9l-2-3s-1-1-2 1c0 2-3 3-3 1-1-1-2-1-2 1h0zm11 16s-2 4-5 4l-5-2m-4-19c3-2 6-4 8-3l8 2-1-3c-6-2-9-3-12-1l-3 2v3z"/><path d="M566 127h-2l1-3c1-1 1-3 2-2m13 5s2 2 2 0l-3-4c-1-2-2-1-2-1m-23 26v-3c1-2-2-2 0-3 1-2 1-5 3-6s4-1 3-4v-6l3-4 2-2m0-3l1-3 4-3 6 1c2 2 3 2 3 4m2 3l1 5 2 9 1 6c2 1 3 1 4 4v3l-1 2h1m-27-2s-13 2-15 5l-2 7-3 4s3 9 0 12l-5 3s6 11-2 21c-2-3-2-7-3-10m3 11s2 4 4 2 0-3 3-7l12-18s4 10 2 14c-1 4-2 6 0 7 2-2 4-3 9-3l9-1 10 1 3 1 2-2c1-1 6-2 6 2l1 3 1-10c1-5 1 0 2 0l3-5c0-3 2-4 3-7l1-5m-3-2l-4-8-4-8c-1-3-10-5-12-6h-2m3 0l4 16-10 1m-5 0h-7l-6-17m-6 57l2-7m40 0s5 24 6 39c0 16 1 16-2 17-4 1-6-3-6-3h-1l-5-3 2-11c2-10 2-22 2-31-1-2-6-4-10-5l-8-1-14 2c-4 1-6 4-6 4l-3 8c-2 3-2 9-3 21s0 18 1 25-1 8-2 20l-4 27c-1 8-2 10-1 15s-1 8-3 11c-2 4-5 8-5 12 2-4 6-6 9-3l6 5 23 2 6-4c3-3 3-2 5 0s6 1 6 1l4-3c3-1-1-21-1-32l2-48m-6-15l-1 13 2-2v3l1-2v3l1-2v1l2-1s-2 2 0 2l1-1v2l2-3 1 3 2-3v2l1-3 1 2 1-3v-6m-36-59l4-13 4-12v-7h5c-3 0-1 1-1 6s-1 7-3 13l-4 13m-33-16s-5 2-7 0l-2-5 3-4c3-2 5 0 6-4s1-6 3-7l4-3 2-3"/><path d="M539 190s-6-1-11-4c-6-4-20-24-22-26-3-3-2-1-6-2l-4-2h1c-2 1-2 0-2-1-1-1 1-1 1-2l2-2 1-2s6 1 9 4l11 10a222 222 0 0010 9m-31-21l-5-2c-1-1-4 0-3 1l1 3 1 3h3m2 0l1-1 3-1m-10-3l2 1 4 1m-6 0l4 1m-4 1h3m-5-7h14c3 0 3-2 0-2h-14c-3 0-4 2 0 2zm5 9l1 3c0 1 2 2 2 0l-1-4m2-11l-2-72h-1l-2 72m115 11s-2 0-2-2l-1-4-1-1c1 0 1 0 0 0 0-1-2-2 0-2h5l2 1c1 2 2 1 2 5v16m0 3c-2 7-5 19-8 22s-6 2-6-1v-5m7-38h2m-3-2h2m-1 4l2-1m-2 3l2-1m-3 40l7 55c0 3-3 0-2 4s3 5 0 8c-3 2-6 2-6 8l2 62c1 8 1 9 4 12l4 5m-94-1l4-3c2-1 3-1 3-4l4-7c3-3 3-7 4-14l2-45v-60-7l-2-5m72-32h-2l-25 2v1l27-1m0-2h2l26 2v1l-28-1m-2-2l1-14m3 14l-1-13m0-14v4m-2 0v-4m1 1l2-2-2-1-2 1 2 2zm-17 63c0 4-5 7-10 7-6 0-10-3-10-7l10 1 10-1zm54 0c0 4-5 7-10 7-6 0-10-3-10-7l10 1 10-1zm-62 0l-2-34-11 33h21l-9-33m55 34l-2-34-11 33h21l-9-33m-313-29l3-3v-10s-2 1-2-1v-4l2-2c0-2 3-5 4-6l4-2 3 3c2 1 4 1 5 4v7c-1 3-2 3-2 7l1 9v-1l-1 7c-1 3 0 4-2 4h-8c-1 0-2 1-3-2l-4-10h0zm17-10c0 2-1 3-5 4s-5-1-5-1m-7 7l-8 3-6 1c3-5 3-9 6-12l5-5-1-6 1-3c0-2 0-2 2-3h2l2-2 5-1h6c2 0 4 0 5 2s5 8 3 14c3 3 3 5 4 8s-1 2 1 2l1 2 1 2 2 5m-13-6s2 3 5 4l8 2m-13-35l-1-1-2-1h-3-8l-1 1h-1l-1 1v2m1-3l2-4c1-1 2-2 5-2s4-1 6 2l2 3m-46 60c4-1 9 1 8 7-1 7-2 10-6 11m-5-28l-3-8c-1-4-1-2 1-5l4-4c2-1 2-1 1-2v-1c1-1-1-1-1-1h1c1-1-1-2-1-2l1-1c2-1-2-2-5-1-2 1-1-1-1-4l2-4c1-2-1 0-2 1-2 2-2 5-2 6l-3 9c-1 3-1 11 1 24s5 20 10 23m-1-54h-3m3 3l-2-1m2 3h-2m-1 5l18 196c0 3 2 2 2 2l-18-199m73 21s3 1 4 5l18-11 7-5c2-2 3-2 7-3l8-2c1-1 2 0 2 1s0 0 0 0l4 3c1 1 2 3 0 2l-4-3v3l-1-3-2 1-6 1 1 2 3 2h-6c-2 0-4-2-6 2-1 3-11 17-19 21-3 1-3 2-7 0-3-1-8-4-9-6 1-5 0-11 6-10v0zm46-15h-2m1 2h2m-103-8c-2 0-3 1-5 4-4 5-10 19-10 19"/><path d="M312 192s-2-3-1-8v-4c-2-1-1-7-1-7l-2 4-4 16c-2 7-6 12-8 5m16-6l6-1h9c4 2 9 3 13 3s2 1 5-1c4-2 7-1 5 3 3 2 3 4 1 6 0 0 8 30 8 36-8 0-13 2-13 2l-1-39-13 1c-5 0-2-1-7-3-5-3-13-2-13-2s2-1 1-5m36 0l2-21 3 22c1 5 3 10 5 6l4-15m3-14c0-2 0-4-3-7-4-4-7-12-10-13m-7 90s-2 6 0 7h8l5 1v-10m-3 9s1 3 0 9c-1 5-3 12-2 19 0 6 2 10 2 10l-2 10c-1 9 1 38 1 38l5 9 1 2c0 1-6-3-10-1-5 2-14 4-20 1-7-2-13-7-17-6 3-12-2-21 0-23-3-3-4-3-2-7 1-5-3-12-3-12l3-3c-3-12-2-23-2-23s-8-22-4-36v-19c1-8 2-13 7-18m-20-2l-12 80s1 1 4 2l-2 24 3 2s-3 18 3 26c7 7 11 16 15 16h3m-22-68a78 78 0 008 4c5 2 5 3 2 6-4 3-14 13-12 15m3 1s9 3 6 8c-3 4-7 7-6 11m11-39s-2-12 1-30m11 91l5-6m-24-201l-1-7m-1 7v-5m1-3l-1-9-2 1 1 9m1-7l7-6c0-2 0-3-4-1l-11 7v3l6-2m8-9h-3l-3-1-1-3-2-4v-5c2 0 3-1 4-3s0-2-2-2c-1 0-5 0-5 4-2 2-3 4-3 7-1 3 0 3 1 4v2 6c1 1 1-2 0 0l-1 6m22 51c0 8 1 20-1 23m55-5c-1-8 0-23 3-27 2-2 7-2 8 1m-21-21l-1 8c0 4-3 4-6 4l-13 1c-3 0-3-1-4-5l-3-11m11 15c-1 0-2-1 0-3m4-2c2 0 2 0 2 3v1m13 185c2 3 8 9 13 9s5 0 5-2c0-1 0 0 0 0l-1-1s2 1-1-2l-3-4h2c3-1 5-2 7-6 0 0-6-2-7-13l-1-39a513 513 0 002-101"/><path d="M365 351h-1c-1-1-1 2-2 1l-2-1h-2l-4-4m0 1s-1-2 1-3l6 3s-2-3 0-3m-9 2c0-2 1-3 3-3l3-1m6 8l-2-2m-1 2l-1-1m-1 1v-1m-7-4l-3-2m-22-1l-9 6c-4 1-4 0-6-1s-2-1-1-3c2 3 5 3 8 1l4-2-2-2h-3l-2 2v-2l2-2h-1c-2 0-3 2-4 3 0 1-2 2 0 3m1-2l-1 2c1 0 0 0 0 0m1-1v1m2-1l-1 1h1l3-1 3-1m2-1l-3-3-3-1-1 1m-5 4l-1 1m224-1s-4 5-1 7 4 4 8 2l5-5 2-2m25 1c6 4 8 6 12 5h4v-2l-1-2-4-3m-3-1c-2 0-4 3-4 3l2 2 3 1h6l1-1m-3 1l-2-1m4 1l-1-1m-4 1v-1"/><path d="M544 348c-3 4-4 5-5 4l-1-1h-1l-2-2v-3l1-2s4 1 3 3v2l2-1h2m0-7l-2 3-4-2 2-2m5 3l-1 2 2 2v1l1-1 1-2m-9 6l1-1m-2 0v-1m-2-1l1-1m-162 2c3-1 4-4 5-6 0-2 0-4-2-5h-5l-2 4 1 3 1-1v0l1-1v1l1-1 1 2h-1l1 1-1 1-1-1-1 1 2 2h0zm-11-5l2 2c2 2 3 7 5 12l2 7 5-1h7c2 0 3 0 4-2s4-8-1-11c-6-2-8-1-11 1l-1-1c3-2 6-2 7-8s-6-8-8-8l-4 2m7 16h8c2 1 3 2 2 5l-2 4-5-1-1-2 1-1v1l1-1h0l1-1-1-1h-1v-1l-1 1h0-1l-1-2v-1h0zm-6 13s0 1-2-3l-5-10m17-8h2l2 1c0-1 2-2 1 0l-1 2 1 1h2l-2 1h-1m-3-3a1 1 0 001-1l-1-1a1 1 0 00-1 1 1 1 0 001 1zm2 0l1-1-1-1-1 1 1 1zm-1 2h1l-1-1-1 1h1zm-2 0a1 1 0 000-2 1 1 0 000 2zm5 0l1-1-1-1a1 1 0 00-1 1l1 1zm2 3l1-1-1-1-1 1 1 1z"/><path d="M390 354l1-1-1-1a1 1 0 000 2zm1 2a1 1 0 000-2l-1 1 1 1zm0 2l1-1a1 1 0 00-1-1l-1 1a1 1 0 001 1zm0 3a1 1 0 001-1l-1-1-1 1a1 1 0 001 1zm-1 2l1-1a1 1 0 00-1-1 1 1 0 00-1 1l1 1zm-7-19l1-1h-2a1 1 0 001 1zm0-2l1-1-1-1a1 1 0 00-1 1l1 1zm0-2a1 1 0 001-1l-1-1-1 1a1 1 0 001 1zm-2-1a1 1 0 001-1l-1-1-1 1 1 1zm69 73c-75 0-116-28-116-28l8-12-54-1s1 5 5 10c5 6 0 7-12 7l-2-6c-8 2-9 0-12-5l-11-23c13-7 14-6 29-6l25-1m12 0h28m36 0c9 0 17 2 15 9-3 10-3 16-7 25 26 5 29 7 55 7m-180-7c-2-5-1-9 19-10m-8 12c7-1 10-7 15 1m47-13c3-6 4-13 11-9 8 3 44 13 48-6m-54 6c-3 8 10 13 47 19m56 30c75 0 115-27 115-27l-7-12 54-1s-1 5-6 10c-4 6 1 7 12 7l2-6c8 2 9 0 12-5s7-16 12-23c-13-7-14-6-30-6l-25-1m-56-1h-11c-11 1-27 0-23 10 3 10 3 17 7 25-26 5-29 7-56 7m180-7c3-5 1-9-18-10m8 12c-7-1-11-7-15 1m-47-13c-4-6-4-13-12-9-7 3-43 13-47-6m54 6c2 8-11 11-47 19"/></g></g><defs><path id="B" d="M458 233c4-2 6-6 6-11a12 12 0 10-13 12"/></defs></svg>