<svg xmlns="http://www.w3.org/2000/svg" xmlns:xlink="http://www.w3.org/1999/xlink" height="500" width="750" xmlns:v="https://vecta.io/nano"><style><![CDATA[.B{fill-rule:evenodd}.C{fill:#ffdf00}.D{stroke:#000}.E{stroke-width:1pt}.F{fill-opacity:.94}]]></style><defs><linearGradient id="A" gradientUnits="userSpaceOnUse"><stop offset="0" stop-color="#014004"/><stop offset="1" stop-color="#014004" stop-opacity="0"/></linearGradient><radialGradient xlink:href="#A" id="B" gradientTransform="matrix(1,0,0,0.9482742,0,9.464744)" cx="79.311" cy="182.979" fx="79.311" fy="182.979" r="10.849"/><radialGradient xlink:href="#A" id="C" gradientTransform="matrix(1,0,0,1.0163886,0,-2.6035962)" cx="86.412" cy="158.866" fx="86.412" fy="158.866" r="10.748"/><radialGradient xlink:href="#A" id="D" gradientTransform="matrix(1,0,0,1.3515481,0,-58.145304)" cx="63.265" cy="165.398" fx="63.265" fy="165.398" r="6.976"/><radialGradient xlink:href="#A" id="E" gradientTransform="matrix(1,0,0,0.7258778,0,38.759054)" cx="62.874" cy="141.393" fx="62.874" fy="141.393" r="9.733"/><radialGradient xlink:href="#A" id="F" gradientTransform="matrix(1,0,0,1.1579706,0,-18.783666)" cx="59.143" cy="118.906" fx="59.143" fy="118.906" r="6.907"/><radialGradient xlink:href="#A" id="G" gradientTransform="matrix(1,0,0,0.694891,0,31.30127)" cx="77.34" cy="102.59" fx="77.34" fy="102.59" r="8.255"/><radialGradient xlink:href="#A" id="H" gradientTransform="matrix(1,0,0,0.977248,0,2.8998903)" cx="95.646" cy="127.457" fx="95.646" fy="127.457" r="9.389"/><path id="I" d="M61.46 74.333c-6.996 12.492-26.483 12.492-27.482 16.99s2.998 8.744 2.998 8.744 28.732-8.994 34.728-17.988-10.243-7.745-10.243-7.745z"/><path id="J" d="M33.83 92.95c-.368 3.23 11.392-.88 13.9-.63s4.997 3.248 3.997 4.997-7.245 4.497-10.493 4.747-7.916-5.454-7.394-9.115z"/><path id="K" d="M37.163 56.018C32.332 45.7 49.766 33.86 33.25 42.524c1.567-9.608 13.386-5.3 13.386-1.565s-4.94 7.368-4.858 10.364 5.02 5.1 5.02 5.1l-9.635-.405z"/><path id="L" d="M63.02 38.497c-9.71-1.022-14.877 16.948-25.837 17.773-.3 1.008 2.556 3.804 8.05 3.833 8.178.043 24.532-16.227 24.532-16.227l-6.745-5.38z"/><path id="M" d="M51.555 68.83c.282-7.057 13.877-16.336 15.065-23.865.847-5.363-4.234-6.493-4.234-6.493s6.493-1.976 20.607 17.502-31.258 12.88-31.438 12.855z"/></defs><path d="M0 0h750v500H0z" fill="#0047ab" class="B"/><g transform="matrix(.997766 0 0 1.001357 -216.66228 -80.281379)"><g transform="matrix(1.01238 0 0 1.01238 229.47118 89.285422)"><g transform="matrix(-1 0 0 1 288.0376 .538291)" class="B C D E"><use xlink:href="#I" class="F"/><use xlink:href="#J"/><path d="M39.974 111.14c-2.998-9.244 14.12-15.776 7.6-17.498 3.51-.18 8.766 3.943 6.142 7.51-.947 1.288-12.992 3.992-13.74 9.988z" class="F"/></g><g class="B C D E"><use xlink:href="#I"/><use xlink:href="#J" class="F"/><path d="M39.974 109.8c-2.998-9.244 14.12-15.777 7.6-17.5 3.51-.18 8.766 3.938 6.142 7.506-.947 1.288-12.992 3.997-13.74 9.994z"/></g><g transform="matrix(-1 0 0 1 287.2113 -.296097)" class="B C D E"><use xlink:href="#K"/><use xlink:href="#L"/><use xlink:href="#M"/></g><g class="B C D E"><use xlink:href="#K"/><use xlink:href="#L"/><use xlink:href="#M"/><path d="M52.188 68.69c19.458.244 42.167-37.6 91.56-37.6 49.567 0 76.67 36.224 90.705 36.85 6.815.304-18.11 24.056-21.844 24.27-8.253.474-39.212-33.206-68.372-33.206-25.202 0-53.06 31.965-69.078 31.59-3.046-.07-27.99-21.958-22.972-21.896z"/></g><path d="M210.7 65.174l-10.782 13.47-2.623-2.1 3.345-7.37-4.9 6.123-2.502-2.003 10.782-13.47 2.502 2.003-3.177 7.408 4.855-6.065 2.502 2.003m-18.797-13.44l2.3 1.44c1.533.96 2.527 1.678 2.98 2.155.46.48.68 1.112.66 1.897-.01.782-.405 1.796-1.185 3.043-.712 1.138-1.312 1.827-1.8 2.067s-1.1.177-1.87-.2c.526.6.802 1.1.827 1.56s-.02.826-.134 1.123c-.106.294-.528 1.032-1.266 2.212l-2.414 3.857-3.018-1.9 3.042-4.86c.5-.783.74-1.3.748-1.556.014-.25-.203-.517-.65-.797L186 68.392l-3.25-2.034 9.154-14.624m1.683 4.536l-2.035 3.252c.365.23.656.33.87.307.225-.027.54-.363.942-1.007l.503-.804c.3-.464.4-.813.355-1.048-.048-.23-.26-.465-.636-.7m-11.506 1.672l-1.578 3.264a4.39 4.39 0 0 1-1.38 1.506 3.59 3.59 0 0 1-1.883.638c-.7.036-1.407-.113-2.153-.447-.708-.317-1.285-.736-1.732-1.257a3.62 3.62 0 0 1-.81-1.83 4.4 4.4 0 0 1 .18-2.043c.22-.667.686-1.797 1.4-3.4l1.185-2.65 1.565-3.26c.356-.62.817-1.126 1.384-1.515a3.65 3.65 0 0 1 1.89-.634c.688-.036 1.407.113 2.153.447.708.317 1.28.738 1.72 1.263a3.52 3.52 0 0 1 .821 1.825c.1.695.04 1.376-.18 2.043s-.686 1.797-1.4 3.4l-1.185 2.65m-1.164-6.625c.322-.72.492-1.195.5-1.424.026-.233-.067-.397-.28-.492-.18-.08-.356-.06-.528.062-.164.118-.424.575-.78 1.372l-3.233 7.228c-.402.9-.62 1.467-.654 1.704s.07.4.3.513.438.05.612-.162.464-.775.872-1.687l3.182-7.114m-16.87-11l3.676 1.053c1.16.333 2 .7 2.544 1.072.54.384.902.953 1.083 1.707.184.747.07 1.838-.34 3.272-.278.97-.603 1.608-.975 1.916-.366.3-.96.456-1.784.442.787.47 1.258 1 1.4 1.623.155.606.078 1.45-.23 2.528l-.44 1.537c-.32 1.12-.67 1.918-1.045 2.394s-.823.747-1.358.808-1.544-.12-3.026-.545l-4.263-1.22 4.75-16.586m2.873 3.893l-1.056 3.688.37.095c.362.104.622.067.78-.1.16-.183.38-.767.662-1.75.15-.52.2-.893.188-1.12-.02-.235-.1-.4-.2-.492-.113-.1-.358-.195-.735-.3m-1.795 6.27l-1.33 4.64c.525.128.882.127 1.07-.004.195-.13.388-.528.58-1.197l.443-1.547c.203-.7.262-1.16.177-1.346s-.4-.37-.942-.547m-24.872-13.477h6.43v3.473h-2.574v3.3h2.4v3.302h-2.4v3.083h2.83v3.467h-6.686V37.014m-9.73 1.214l2.573 13.195 3.758-.757.66 3.268-7.44 1.504-3.217-16.496 3.665-.715m-9.983 2.497l1.187 3.242-2.138.783 4.744 12.96-3.6 1.318-4.744-12.96-2.13.78-1.187-3.242 7.866-2.88m-12.66 5.062l1.547 3.087-2.035 1.02 6.182 12.338-3.427 1.717-6.182-12.338-2.027 1.016-1.547-3.087 7.5-3.752M94.5 53.5l11.22 13.3-3.294 2.133-1.846-2.5-1.154.747 1.494 2.727-3.332 2.157-7.74-15.542 4.655-3.013m4.324 10.416l-4.42-5.757 3.32 6.47 1.1-.713m-21.975.555L80 62.294c1-.7 1.803-1.123 2.437-1.297s1.308-.098 2.008.237c.696.33 1.47 1.106 2.323 2.33.577.828.867 1.483.87 1.965s-.252 1.033-.783 1.663c.86-.315 1.577-.338 2.15-.07.568.262 1.173.854 1.815 1.775l.914 1.3c.666.956 1.065 1.73 1.197 2.322s.06 1.1-.23 1.564-1.068 1.12-2.333 2.003l-3.637 2.536-9.868-14.152m4.833.23l2.194 3.147.308-.227c.3-.215.444-.44.407-.674-.04-.24-.355-.78-.94-1.618-.3-.443-.56-.727-.75-.854-.196-.132-.367-.18-.514-.148s-.377.155-.705.374m3.73 5.35l2.76 3.96c.43-.326.655-.604.673-.833s-.165-.634-.563-1.205l-.92-1.32c-.423-.606-.733-.935-.932-.987s-.54.077-1.02.386"/></g><path d="M374.848 158.636l9.09 25.152H410l-21.818 16.06L396.97 225l-20.91-16.06-22.424 15.758 8.182-24.848L340 183.788l27.273-.606 7.576-24.546z" fill="#c9c0bb" class="B"/><g transform="matrix(1.020214 .225931 .082781 1.013306 204.48293 76.647791)" id="N" class="B"><path d="M178.467 223.04c-4.685 3.407-13.204-13.204-35.78-16.61s-20.445 17.89-31.52 11.074 15.334-10.648 15.334-10.648-6.815.426-11.074 0-11.5 4.26-16.61 4.685-7.667-2.982-8.52-6.39-1.278-6.39-1.278-6.39 6.39 5.537 9.797 5.963 10.222 0 10.222 0-5.537-2.556-9.797-5.11-8.945-6.39-8.945-6.39-8.093 4.26-15.76 2.982-12.778-13.63-12.778-13.63 7.667 8.945 13.204 9.797 8.945-1.704 8.945-1.704-5.537-6.39-8.52-10.648-3.407-2.556-2.982-4.26.426-3.407.426-3.407l-5.963-2.13-3.833-4.26s-5.11-5.537-5.537-8.093 5.11-7.24 7.24-6.39-1.278 4.26-.852 7.24 7.24 6.815 7.24 6.815-3.407-5.963-3.407-8.52-.426-3.833-.426-3.833.852 1.278-2.13-1.704-8.52-2.556-8.52-5.963-.426-5.11-.426-5.11 2.13 2.982 4.685 4.685 4.685 1.704 4.685 1.704-2.556-2.982-5.537-7.24-13.63-9.37-13.204-11.5 1.704-4.26 1.704-4.26 1.278 4.26 5.537 4.26 4.26-8.52 4.26-8.52 2.556 7.24 5.11 7.24S69 122.944 69 122.944s-.852 8.093-2.556 10.222-4.26 4.26-2.556 6.815 5.11 8.945 5.11 8.945 1.278.852 2.982-2.556 4.26-8.945 1.704-12.352-5.537-5.963-5.537-5.963 3.833 2.13 4.685 1.278-.852-7.24-2.556-13.63-5.537-11.926-5.537-11.926 3.833 3.407 10.222 3.833 13.63-.852 13.63-.852-4.685 2.13-7.24 2.982-4.685 2.13-4.685 2.13 5.11-.852 4.685.852-6.815 3.407-6.39 6.39 6.815-2.556 11.074-4.685 9.797-2.13 9.797-2.13-5.537 7.24-8.093 8.52l-9.37 4.685s2.13 1.704 4.685.426 4.685-3.407 4.685-3.407-1.704 6.815-4.685 9.37-5.963 1.704-5.963 1.704-.426 1.278-.426 4.685-.852 5.963-.852 5.963 5.963-5.537 7.24-8.093 6.815-4.26 6.815-4.26L88.594 137l6.815-6.815 1.704 5.11S97.54 137 100.095 137s3.833.426 3.833.426-5.963 1.704-11.5 2.13-8.52-1.278-9.37.852 0 3.407-2.556 6.39-5.11 11.074-5.11 14.482 1.278 4.26 1.278 4.26 0 .426 2.13-3.833 6.815-8.945 6.815-8.945-3.407 9.37-4.685 11.926-3.407 5.537-1.704 8.945 10.648 13.204 14.908 17.037 8.52 7.24 8.52 7.24-2.556-4.26-.852-6.815 6.815 2.556 8.52 5.537 3.407 6.39 5.537 7.24 1.704.426 1.704.426l-.426-5.963s2.556 3.407 5.537 4.26 6.815 1.278 6.815 1.278-5.11-3.833-8.52-7.667-6.39-6.39-7.667-5.537-2.556 3.407-4.685.426-3.833-6.39-6.815-6.815-5.11 4.26-5.11 4.26-.852-4.685-.852-7.667 4.26-2.982 3.407-5.11-2.982-1.704-4.685-6.815-5.963-9.37-5.963-9.37 7.24 6.815 9.37 6.39 6.39-6.815 6.39-6.815-.852 5.11-.852 10.648 0 11.074 2.556 11.5 1.704-4.26 4.685-1.704 5.537 10.222 8.093 11.5 3.833-1.278 2.556-4.685-4.685-2.982-5.11-6.815.426-5.11.426-5.11 1.704 6.39 3.407 6.39 3.407-11.926 3.407-11.926 5.963 8.52 5.537 12.778-4.26 3.833-4.26 7.24-.426 8.945 1.704 8.52 5.11-7.667 5.11-7.667.852 4.26 2.556 7.24l3.407 5.963s1.278-1.278 0-6.815-2.982-8.52-3.407-11.5 1.704-6.39 3.833-5.537 2.13 4.26 1.704 10.222-.852 12.778.852 12.778 13.63 2.556 22.15 7.667 17.463 9.37 15.76 13.204z" fill="#017b21" stroke="#014004" stroke-width="1.25"/><g class="C"><path d="M73.515 182.345c-2.663-2.283-6.087-1.522-3.805-4.946s5.326-3.044 7.61-1.522-1.522-3.044 1.902-2.663 8.75 5.707 6.848 7.61 2.663 1.902 3.424 4.566-1.14 8.37-4.946 7.23-8.37-.38-8.75-3.044-1.902-10.653-2.283-7.23z" stroke="url(#B)"/><path d="M79.037 160.97c2.873 7.542 5.746 8.62 9.696 8.26s10.055-9.337 7.182-12.928-7.542 3.232-7.542 3.232 0-1.795-.718-3.59-2.514-1.796-2.514-1.796 2.155 1.437 5.028 0 3.232-3.232 1.436-4.67-8.26-1.437-11.85.36-3.59 6.464-3.59 8.62 0 1.436 2.873 2.514z" stroke="url(#C)"/><path d="M60.91 171.075c-5.537 2.13-4.685-7.24-2.13-10.222s3.407-5.537 5.537-3.833-1.278 4.26 1.278 3.407.852-4.685 2.982-3.833.852 5.11 0 8.52-1.704 7.667-3.833 8.52-4.685 1.704-3.833-2.556z" stroke="url(#D)"/><path d="M63.038 147.222c-6.815 0-5.963-.426-6.39-2.556s2.982-1.278.426-3.833-2.982.852-3.407-2.13 4.26-3.407 7.667-3.833 1.278 2.556 4.26 2.556 4.685-.852 4.685-.852L69 140.407s3.833-1.278 2.982 1.704-1.704 7.667-8.945 5.11z" stroke="url(#E)"/><path d="M58.353 119.962c-1.278 4.685 1.278 6.815-2.556 6.39s-2.982-4.26-2.982-8.093 2.13-7.24 5.963-6.815 6.815 4.26 4.685 7.24 4.26-.852 1.278 2.13-4.685 2.556-6.39-.852z" stroke="url(#F)"/><path d="M70.705 97.814c1.278 3.833-4.26 8.52 1.704 9.797s14.482-3.407 12.352-5.963-4.685 0-8.093 0-2.556-5.963-5.963-3.833z" stroke="url(#G)"/><path d="M103.928 134.444c-2.556 3.833-5.537 0-8.945-.426s-7.24 0-8.093-2.982 2.556-.426 4.685-2.13 0-2.982 2.13-2.982 1.704.426 3.407 2.13-.852-4.685.426-6.815 5.11-4.26 5.537 0-1.278 8.093-2.13 9.37 5.537-2.13 2.982 3.833z" stroke="url(#H)"/></g></g><use xlink:href="#N" width="744.094" transform="matrix(-1 0 0 1 750.00002 1)" height="496.063"/><path d="M406.663 228.475l10.837 10.2-3.55 2.685-1.764-1.972-1.243.94 1.385 2.26-3.6 2.716-7.1-13.034 5.014-3.794m3.856 8.913l-4.24-4.5 3.054 5.406 1.186-.897m-21.88 2.672l2.794-1.518c1.804-.98 3.062-1.568 3.776-1.763.72-.198 1.336-.217 1.852-.057s.928.428 1.238.802.8 1.165 1.453 2.388l2.446 4.52c.627 1.158.985 1.968 1.073 2.43.092.452.047.872-.134 1.26-.184.382-.473.738-.868 1.07-.398.326-1.043.732-1.936 1.217l-4.7 2.56-6.983-12.905m4.93.18l4.593 8.5c.538-.292.818-.568.838-.827.018-.264-.206-.827-.672-1.687l-2.713-5.014c-.316-.585-.54-.948-.67-1.1s-.3-.2-.478-.204c-.2.001-.5.112-.9.334m-10.543.932l5.62 13.78-4.343.967-.785-2.527-1.522.34.32 2.63-4.394.98-1.033-14.802 6.137-1.367m-.196 9.7l-1.983-5.863.532 6.186 1.45-.323m-7.443-8.396l-4.2 14.242-6.742-.9-.62-14.886 4.685.626c.006 4.08-.06 7.517-.197 10.315l1.724-7.36.667-2.663 4.685.626m-23.342-5.1l9.5 3.105-.884 2.8-3.807-1.243-.838 2.653 3.563 1.163-.84 2.662-3.563-1.163-.972 3.077 4.186 1.367-.884 2.8-9.9-3.23 4.42-13.993m-1.137-.75l-8.445 12-3.9-2.744 1.525-7.083-3.84 5.455-3.72-2.618 8.445-12 3.72 2.618-1.3 7.158 3.803-5.403 3.72 2.618" class="C"/></g></svg>