<svg xmlns="http://www.w3.org/2000/svg" height="440" width="660"><style>.B{fill:none}.C{stroke:#000}.D{stroke-width:.374}.E{fill:#fff}.F{fill:#de1c2c}.G{fill:#efae0e}.H{stroke-width:.363}.I{fill:#9e4d3c}.J{fill:#002a86}</style><path d="M0 440h660V0H0v440z" class="J"/><path d="M382 253c-1 2-1 5 1 7l-96-9h-4l-3-8c-2-5-5-11-9-13h7c2-1 2-3 1-4-1-2-5-3-8-4v-1c-4-1-11-5-16-9 5 3 25 9 42 13h2l3 1 44 6 3 1h10v-4h-1v-2h23v-1l13 1 2 1h3a5 5 0 00-3 2c-1 3-2 7 0 9l-4 1-3 6-6 2m-105-18c2-1 2-3 1-4-1-2-5-3-8-4v8h7zm77-70l-2 15h1l1-15zm-3 30l-6 42 3 1h2l2-43h-1zm2-12h-1l-1 8h2v-8zm-57 47h2l3 1 2-34h-2l-5 33zm9-63l-2 16 1 1 1-17zm-2 19l-2 8h2l1-8h-1zm54 6l-4-1h-5l1 4h8v-3zm-4-9l2 1 1-3-3-1h-2v3h2zm-49 1l-1-1h-2v3h5v-2h-2zm-3 10h-3v3h7v-3h-4zm-42 90l-2-2 2-3 3 2c0 1-1 3-3 3zm156-31l1-3c0-1-2-2-3-1-1 0-2 1-1 2 0 1 1 3 3 2zm-26 22l2-2-2-3-3 2c0 2 1 3 3 3zm-69-127a46 46 0 016-5l-8-1 4-7c-4 0-9 2-10 5l-7 7 2-5h-1c-1 3-5 6-8 7l-14 7-1-2 4-2c3 0 15-7 13-13-1 2-5 3-9 4-6 0-11 5-10 11a9 9 0 011 3l-5 4-1-6c0-1-1-2-1 0 1 2 0 6-1 8-5 5-10 10-14 17l-1-1c-1-2 1-3 3-4 3-1 10-13 6-18 0 3-3 5-7 8-5 3-7 9-3 14l1 2-3 5-2-4h-1l2 8c-3 6-5 13-6 21l-2-1 2-4c2-2 5-16-1-19 1 3-1 6-3 10-4 4-3 11 2 14l2 2-1 5-4-4c-1 0-3 0-1 1l5 7c0 7 0 14 2 22h-2v-4c1-3-2-16-8-17v10c-1 5 3 11 8 12h2l2 7-6-1c-1 0-2 0 0 0l7 4 9 18-2 1-2-4c0-4-7-16-13-14 2 2 3 5 4 10 0 5 5 10 11 9h2l4 5h-5c-1 1-2 2 0 1l8 2 12 12h-1c-1 1-3-2-4-3-1-4-10-8-16-4 3 0 5-1 7 4s9 7 13 5l3-1 5 3-4 3v1l7-2c6 3 13 6 21 7l-1 2c-1 0-3 0-4-2-3-2-16-6-19 0 3-1 6 1 9 4 5 4 12 3 15-2l2-2 4 1 1-3-5-1 1-4c-1-4-6-8-11-8-4 0-7-4-10-4l2 5c1 5 7 8 14 8 2-1 3 1 3 3-7-2-14-4-21-8l-3-5c0-2-1-2-1 0l1 4-4-3 2-4c1-3-2-9-6-12-4-1-5-6-8-8v6c-1 5 3 10 9 13 2 0 3 3 2 5l-13-11c-2-4-1-7-1-8 0-2 0-2-1 0l-1 5-4-6c1-1 4-1 5-4s0-9-4-12c-3-3-3-8-5-10l-1 5c-3 5 0 11 5 15 2 1 1 5 0 5-4-5-7-11-9-17l2-8c1-1 1-2-1 0l-2 4-1-6 4-1c2-3 3-8 1-12-2-3 0-8-2-10l-3 3c-3 3-3 9 1 15 1 1 0 4-1 4-3-11-3-22-2-31h6c3-2 6-7 6-12-1-4 3-7 3-10l-5 3c-5 1-7 7-6 14 1 2-2 4-4 4l5-20c3-3 6-4 8-4s2-1 0-1l-6 2 3-7c2 0 3 3 6 2 3 0 8-3 10-8 1-4 5-6 6-9l-5 1c-5 0-10 5-11 11 0 3-4 3-5 2 3-6 7-11 13-16 4-2 6-1 8-1 2 1 2 0 0-1a17 17 0 00-5-1l6-4c1 1 1 4 4 5s9 0 12-4c3-3 8-3 10-5l-6-2c-4-2-10 0-14 6-2 2-5 1-6 0 7-4 13-7 21-9v-1c6 3 12 2 15 0zm24 157h-3v4l4-1 1 2c4 5 11 5 15 2s7-5 10-4c-3-6-17-2-20 0-1 1-3 2-4 1l-1-1 21-7 7 2c2 1 1-1 0-1l-4-3 6-3 2 1c4 2 12 0 14-6 1-4 3-3 6-4-5-3-15 1-16 4 0 2-2 5-4 4l-1-1c5-3 9-7 12-11l8-2c2 1 1 0 0-1h-5l4-6 2 1c6 1 11-4 12-10 0-4 1-7 4-9-7-2-14 10-14 14 0 2 0 4-2 4l-1-1c4-6 6-12 8-18l7-4c2 0 1-1 0-1l-5 2 1-7h2c6-2 9-8 8-13-1-3-1-6 1-9-6 1-9 14-8 17l-1 4h-1c1-8 2-15 1-23l5-6c2-1 0-1 0-1l-5 4v-5l2-2c5-3 5-10 2-14s-5-7-4-10c-6 3-3 17 0 19 1 2 2 3 1 4l-2 1c-1-8-3-16-6-22l2-7h-1l-2 4-3-5 2-2c3-5 1-11-4-14-4-3-7-5-7-8-4 5 4 16 7 18 2 1 3 2 2 3l-1 2c-4-7-8-12-13-17-2-3-2-7-2-8 0-2-1-1-1 0v6l-6-4 1-3c1-6-4-11-9-11-5-1-8-2-10-4-2 6 10 13 14 13l4 2a2 2 0 01-1 2l-14-7c-4-1-8-4-8-7h-1l1 5-7-8c-1-2-6-5-9-4 0 2 2 5 4 6l-9 2 7 5c2 2 8 3 15 0v1c7 2 14 5 20 9-1 1-4 2-6 0-3-6-9-8-14-6l-5 2c2 2 7 2 9 5 3 4 10 5 13 4l4-5 6 4a16 16 0 00-6 1c-2 1-1 2 1 1 1 0 4-1 8 1 5 4 9 10 13 16-2 1-5 1-6-2-1-7-5-11-10-11a20 20 0 01-6-1c1 3 6 5 7 9s6 8 10 8l5-2 3 6-5-1c-2 0-2 1 0 1 1 0 4 1 7 4l5 20c-2 0-4-2-4-4 2-7-1-13-6-15l-5-2c0 3 4 6 4 10-1 5 3 10 6 12h5c2 9 1 20-1 31-1-1-3-3-2-4 4-6 5-12 1-15l-3-3c-1 2 1 6-1 10-3 4-2 9 0 11s4 1 5 2l-2 6-2-4c-1-2-2-1-1 0l2 8-8 17c-2 0-3-4-1-5 6-4 8-10 6-15l-2-5c-2 2-2 7-5 9-3 3-4 10-3 13l4 4-4 6-1-6c0-2-1-1-1 1v7c-4 5-9 8-13 11-1-1-1-4 1-4 7-3 11-8 9-13v-6c-2 2-4 7-7 8-4 2-7 8-7 12 0 2 2 3 3 4l-5 3 1-4c0-2-1-2-1 0l-3 5a74 74 0 01-21 8c1-2 2-4 4-4 6 1 12-2 13-7l3-6c-3 1-7 5-11 5s-9 4-10 7v5zm52-33h-3c-5 2-31 4-37 2l-6 1c-2 1-4 2-7 1l-6 2c-1 1-5 2-10 1s-11 1-15 3c-2-1-5-1-8-4-7 1-18 4-26 3-7-1-16 3-23 2a94 94 0 00155-10v-1h-14zm-118 18c4 3 13 1 15 0l8-2c4 0 8-1 11-4 2-2 1-2 0-3l-7-4h-2l-5-1c-2 0-15-1-18 2-2 2-7 4-4 9l2 3z" class="B C D"/><g class="G"><path d="M330 96h-13l-6 1-6 1-6 1-6 2-6 2-5 2-6 3-5 2-5 3-5 4-5 3-5 4-4 4-5 4-4 4-4 4-3 5-4 5-3 5-3 5-3 6-2 5-3 6-1 5-2 6-1 6-2 6v6l-1 7v12l1 7v6l2 6 1 6 2 6 1 5 3 6 2 6 3 5 3 5 3 5 4 5 3 5 4 4 4 4 5 5 4 3 5 4 5 3 5 4 5 3 5 2 6 3 5 2 6 2 6 2 6 1 6 1 6 1 7 1h12l7-1 6-1 6-1 6-1 6-2 6-2 5-2 6-3 5-2 5-3 5-4 5-3 5-4 4-3 5-5 4-4 4-4 3-5 4-5 3-5 3-5 3-5 2-6 3-6 1-5 2-6 1-6 2-6v-6l1-7v-12l-1-7v-6l-2-6-1-6-2-6-1-5-3-6-2-5-3-6-3-5-3-5-4-5-3-5-4-4-4-4-5-4-4-4-5-4-5-3-5-4-5-3-5-2-6-3-5-2-6-2-6-2-6-1-6-1-6-1h-13"/><path d="M330 91h-13l-7 1-6 1-6 2-6 1-6 2-6 3-6 2-5 3-6 3-5 3-5 4-10 8-4 4-4 5-4 4-4 5-4 5-3 5-3 6-3 5-3 6-2 6-2 6-2 6-1 6-1 7-1 6-1 6v14l1 6 1 7 1 6 1 6 2 6 2 6 2 6 3 6 3 5 3 6 3 5 4 5 4 5 4 5 4 4 4 4 5 4 5 4 5 4 5 3 6 3 5 3 6 2 6 3 6 2 6 2 6 1 6 1 7 1h6l7 1 7-1h6l7-1 6-1 6-1 6-2 6-2 6-3 6-2 5-3 6-3 5-3 5-4 5-4 5-4 4-4 4-4 4-5 4-5 4-5 3-5 3-6 3-5 3-6 2-6 2-6 2-6 1-6 1-6 1-7 1-6v-14l-1-6-1-6-1-7-1-6-2-6-2-6-2-6-3-6-3-5-3-6-3-5-4-5-4-5-4-4-4-5-4-4-10-8-5-4-5-3-6-3-5-3-6-2-6-3-6-2-6-1-6-2-6-1-7-1h-13"/></g><path d="M330 91h-13l-7 1-6 1-6 2-6 1-6 2-6 3-6 2-5 3-6 3-5 3-5 4-10 8-4 4-4 5-4 4-4 5-4 5-3 5-3 6-3 5-3 6-2 6-2 6-2 6-1 6-1 7-1 6-1 6v14l1 6 1 7 1 6 1 6 2 6 2 6 2 6 3 6 3 5 3 6 3 5 4 5 4 5 4 5 4 4 4 4 5 4 5 4 5 4 5 3 6 3 5 3 6 2 6 3 6 2 6 2 6 1 6 1 7 1h6l7 1 7-1h6l7-1 6-1 6-1 6-2 6-2 6-3 6-2 5-3 6-3 5-3 5-4 5-4 5-4 4-4 4-4 4-5 4-5 4-5 3-5 3-6 3-5 3-6 2-6 2-6 2-6 1-6 1-6 1-7 1-6v-14l-1-6-1-6-1-7-1-6-2-6-2-6-2-6-3-6-3-5-3-6-3-5-4-5-4-5-4-4-4-5-4-4-10-8-5-4-5-3-6-3-5-3-6-2-6-3-6-2-6-1-6-2-6-1-7-1h-13z" class="B C H"/><path d="M330 100h-12l-6 1-6 1-6 1-6 2-5 2-6 2-5 2-5 3-5 3-5 3-5 3-4 4-5 4-4 3-4 5-4 4-3 4-4 5-3 5-3 5-2 5-3 6-2 5-2 5-1 6-2 6-1 6v6l-1 6v12l1 6v6l1 6 2 6 1 6 2 5 2 6 3 5 2 5 3 5 3 5 4 5 3 4 4 4 4 5 4 4 5 3 4 4 5 3 5 3 5 3 5 3 5 2 6 2 5 2 6 2 6 1 6 1 6 1 6 1h12l6-1 6-1 6-1 6-1 6-2 5-2 6-2 5-2 5-3 5-3 5-3 5-3 4-4 5-3 4-4 4-5 4-4 3-4 4-5 3-5 2-5 3-5 3-5 2-6 2-5 1-6 2-6 1-6v-6l1-6v-12l-1-6v-6l-1-6-2-6-1-6-2-5-2-5-3-6-3-5-2-5-3-5-4-5-3-4-4-4-4-5-4-3-5-4-4-4-5-3-5-3-5-3-5-3-5-2-6-2-5-2-6-2-6-1-6-1-6-1h-12" class="J"/><path d="M330 120l-10 1-10 1-9 3-9 3-9 4-8 5-8 6-7 6-3 4-3 3-6 8-5 8-4 9-4 9-2 9-1 5v5l-1 5v5l1 10v5l1 5 2 10 4 9 4 8 5 8 6 8 6 7 3 3 4 3 4 3 4 3 8 5 4 2 5 2 4 2 5 1 4 2 5 1 5 1h5l5 1h5l10-1 10-1 9-3 9-3 9-4 8-5 8-6 7-6 6-7 6-8 5-8 2-4 2-4 4-9 1-5 1-5 1-5v-5l1-5v-5l-1-10v-5l-1-5-2-9-4-9-4-9-5-8-6-8-6-7-3-3-4-3-4-3-4-3-4-2-4-3-4-2-5-2-4-2-5-1-4-2-5-1h-5l-5-1-5-1h-5" class="G"/><path d="M279 276c8 1 19-2 26-3l25-2c4 0 3-1 4-2h4l8-1c3-2 6-3 9-2 3 2 33 2 39 1h3l-156-15c4 10 9 18 15 26 7 1 16-3 23-2zm124-30l-10 1-6-1c-6 1-123-1-149-5l2 6 174 16 7-19-18 2z" class="B C D"/><path d="M330 125h-10l-9 2-9 2-9 3-8 4-8 5-7 5-7 6-6 7-6 7-4 8-4 8-3 9-3 9-1 5v4l-1 5v5h190v-5l-1-5-1-9-3-9-3-9-4-8-4-8-6-7-6-7-7-6-7-5-8-5-4-2-4-2-9-3-4-1-5-1-5-1-4-1h-10" class="E"/><path d="M330 125h-10l-9 2-9 2-9 3-8 4-8 5-7 5-7 6-6 7-6 7-4 8-4 8-3 9-3 9-1 5v4l-1 5v5h190v-5l-1-5-1-9-3-9-3-9-4-8-4-8-6-7-6-7-7-6-7-5-8-5-4-2-4-2-9-3-4-1-5-1-5-1-4-1h-10zm-53 106l7 14m100 16h3l1-5-7-1c0 3 1 5 3 6zm-2-10v2l-1 2 7 1 1-5h-7zm7-5l-6 2-1 2v1h7v-5zm-23-17v4h6v-4h-6zm-7 0v4h7v-4h-7zm22 0h-8v4h8v-4z" class="B C D"/><g class="G"><path d="M336 72l11-8h-13l-4-11-4 11h-13l11 8-4 12 10-8 11 8-5-12m-93 30l10-8h-13l-5-11-3 11-13 1 10 7-3 13 10-9 11 8-4-12m-57 87l13-1-11-7 3-12-10 8-11-7 5 12-10 9 13-2 5 13 3-13m12 95l10-9-13 2-5-11-3 12-13 1 12 7-3 12 10-9 10 7-5-12m66 67l2-13-9 9-11-6 6 12-10 8 13-1 5 12 3-13 13-2-12-6m25-32l1-6-3 4-5-2 2 5-3 4 5-2 3 5v-5l5-1-5-2m82 0l-1-6 4 5 5-3-3 5 3 4-5-1-2 4-1-5-5-1 5-2M302 75h-2l-1-1h-9l-3 1h-2l3-2 5-3 5-3 2-2 1-1h2l1-1v-1l1-1-1-1v-1h-1l-1-1h-1l-1 1-1 1v2l1 1v1l-3 2-3 3-4 2-4 2-8 3-8 3 1-1 2-1 5-3 5-2 2-2 1-2 2-2 1-2 1-3 1-2h-3l-2 1-2 1-2 1-4 2-3 4-3 3-2 3-2 3-1 3h-1v-4l1-3 1-3h1l1-1h1v-3l-1-1h-3l-1 1v2l1 1v1l-1 3-1 3-2 4-1 2-8 5v-4l1-1 1-1 3-3 1-1 1-2v-6l-1 1h-1l-2 2-4 3-1 1-1 2v4l1 2 1 1v3l-3 2-1 1v1h2l1-1 3-1 2-1h3l1 1h2l1 1 1 1-1 1v3l1 1h3l1-1v-1l1-1v-1l-1-1-1-1h-3l-1-1-2-2h-4l3-3h4l2 1 2 1 3 1 4 2h2l2 1h2l2-1 3-1 1-1h1l-1-1-1-2-4-3-2-1h-5l-2 1-3 1-2 1h-5l3-2 3-1 9-3h2l3 1 2 1 2 1 3 2 3 1 4 1 3-1 3-1 3-1 2-2 2-2h-5l-2-1-2-2m-82 47h-1l-2 1-3 1-2 2-2 2-1 3-2 1 1-4 3-5 1-6 1-2v-2h1v-1l1-1v-1l-1-1-1-1-1-1-1 1h-1l-1 1v3l1 1h2l-1 4-1 5-2 4-2 4-4 7-5 7 2-4 2-5 2-5v-2l1-3v-2l-1-3v-2l-2-3-1 2-2 2-1 2-1 2-1 4-1 5v4l1 4v4l1 2v1h-2l-1-1v-2l-1-3-1-3v-1l1-1v-1l-1-1-1-1h-2l-1 1v3l1 1h2l1 3 1 4 1 3v4l-3 9-1-1-1-1v-2l-1-2 1-1v-7l-2-3-2-3v3l-1 3-1 4v5l1 1 1 1h2l1 1 1 1 1 2-1 3v1h1v1l1-1 1-1 1-3 2-2 2-2h1l2-1h1l1 1v1l1 1h1v1h2l1-1h1v-4l-1-1h-3l-1 1-1 1-2-1-2 1h-2l-2 1 2-4 1-1 2-1 2-1 2-1h3l4-1 2-1 1-1 2-1 1-2 2-3 1-1-1-1h-9l-2 2-2 1-1 2-2 3-1 2-2 1-2 1 1-3 2-3 5-7 2-2h2l3-1h2l4-1 3-1 3-2 2-2 2-3 1-2 1-3v-3l-1 1-3 2-2 1h-3m-36 87l-1 1-1 1-2 3v9l-1 2-1-4-1-5-2-6-1-2-2-2 1-1v-1l-1-1-1-1h-2l-1 1-1 1v1l1 1v1l1 1h2l1-1 2 4 1 4 1 4 1 4 1 9 1 8-1-1-1-2-1-6-1-5-1-2-1-2-2-2-2-2-2-2-2-1v9l2 4 2 4 3 4 3 3 2 2 2 2v1h-1v1l-1-1-2-1-2-2-2-1h-1v-2l-1-1-1-1h-1l-1 1h-1v3l1 1h3v-1l3 2 3 2 3 3 2 2 3 9h-2l-2-2-1-1-1-1-1-3-2-2-1-1-3-1-3-1v1l1 1 1 4 1 3 1 2 2 1 1 1h3l2-1h1l1 1h2l1 3 1 1v1h1v-3l-1-3 1-3v-3l1-1 1-1 1-1h1l1 1h3l1-1 1-1v-1l-1-1v-1l-1-1h-2l-1 1h-1v3l-2 1-2 2-1 2-1 1-1-4v-2l1-2 1-1 1-2 3-3 2-3 1-1 1-2v-10l-2 1-2 1-3 2-2 2-1 3v12l-1 2-1-6-1-10 1-2 1-2 2-2 2-1 2-3 2-3 1-3 1-3v-4l-1-3-1-2-2-3v2l-1 3-1 2-2 2"/><path d="M208 300v3l1 4 1 2 1 2 2 3 1 2-3-3-5-3-4-3-3-1-2-1v-2h-1l-1-1-1 1h-1l-1 1v2l1 1v1h3v-1h1v-1l4 2 4 2 3 3 4 3 6 6 5 6h-2l-1-2-5-4-4-3-2-1-2-1-3-1h-7l1 3 3 3 2 1 3 3 5 2 4 1 4 1h6v2l-1 1h-9v-1h-1l-1-1h-1l-1 1-1 1v1l1 1v1h3l1-1v-1h11l3 1 8 5-1 1h-5l-1-1-3-1-2-1h-2l-3 1-3 1 1 1h1l3 2 3 2 2 1h3l1-1 2-1 1-1 1-1 1-1h2l3 1 1 1h1v-1l-1-1-1-1-2-2-2-2-1-2v-3l1-2v-1l1 1 1-1h1l1-1v-3l-1-1h-4v1l-1 1v1l1 1 1 1-2 2v4l1 2-4-2-1-2v-2l-1-2 1-2v-9l-1-2-1-2-1-2-2-2-1-1v-1l-1 1-1 2-1 5-1 2 1 2 1 3 2 1 2 2 1 2 1 3 1 2-3-3-2-2-6-7-1-2v-5l1-2v-7l-1-4-2-2-2-3-2-2-3-2h-2l1 2v2l1 3-1 2m130 85h4l2-1 2-1v-1l-3-1-3-1-3-1-2-2-4-1-2-1-2-1h-1l-1-1-2-3-2-4v-3l1-1h1l1-1v-1l-1-1v-1l-1-1h-3l-1 1v4h1l1 1 1 3v3l1 4 1 1 1 1-4-1-2-1-2-1-1-1-1-3-1-3-2-3-2-1-1-2-2-1-1-1h-4l-1-1-1-1v4l1 5 2 2 1 2 2 1h3l2 1 3 1 2 1 2 2-4-1h-3l-9-3-2-2-1-2-1-2-1-2-1-4-2-2-3-3-3-1-3-2h-6l-3 1 2 1 2 2 1 2 1 2 1 2 1 1 2 2 3 2 2 1 3 1 2 2-5-1-5-1h-8l-2 1-1-1h-3l-1 1v3l1 1h3l1-1 1-2-1-1h9l4 1 5 1 8 2 8 2h-4l-6-1h-10l-2 1-3 1-2 1-2 2 2 1 2 1 3 1h6l5-1 4-1 4-1 3-1 2-2h1l1 1-1 1v1l-1 1-3 2h-2l-1 2-1-1h-2l-1 1-1 1 1 1v1l1 1h2l1-1 1-1v-1l-1-1 3-2 3-1 3-2 3-1h6l2 1h3l2 1 3 2 3 2 2 2m79-283l-10-8h13l5-11 3 12h13l-11 7 4 13-10-8-11 7 4-12m57 87l-13-1 11-7-3-12 10 8 11-6-5 12 10 8-13-1-5 12-3-13"/><path d="M462 284l-10-9 13 2 5-11 3 12 13 2-12 6 3 13-10-9-11 6 6-12m-66 67l-2-12 9 9 11-6-5 11 8 9-12-2-5 12-3-13-13-2 12-6M358 76l2-1 1-1h7l2 1h5l-3-1-5-3-5-4-2-1-1-2h-2l-1-1v-1l-1-1 1-1v-1h4l1 1v2l-1 1v1l3 3 3 2 4 2 4 2 8 4 8 2-1-1-2-1-6-3-4-2-2-2-1-2-2-2-1-2-1-2-1-3h3l2 1 2 1 2 1 4 3 3 3 3 3 2 3 2 4 1 2h1v-3l-1-3-1-4h-2l-1-1v-3l1-1h3l1 1v3l-1 1 1 3 1 3 2 4 1 3 8 5v-5l-1-1-1-1-3-2-1-1-1-3v-6l1 1 1 1 2 2 4 2 1 1 1 2v4l-1 2-1 1v1l1 2 2 2 1 1v1h-3l-3-2h-8l-1 1-1 1 1 1v3l-1 1h-4v-1l-1-1v-2l1-1h1l1-1h1l1 1 1-2 2-1 2-1h2l-3-2-2-1-2 1h-2l-2 1-3 2-4 1-2 1h-4l-2-1-3-1h-2l1-2 2-1 3-3 2-1 2-1 3 1h2l3 2h7l-3-2-3-1-9-3h-2l-3 1-2 1-2 2-3 2h-3l-4 1-3-1h-3l-3-2-2-2-2-2h5l2-1 2-1m82 46l1 1h2l3 1 2 2 2 3 1 2 2 2-1-4-2-6-2-5-1-3v-2h-1v-1l-1-1 1-1v-1l1-1h3l1 1v3l-1 1h-2v1l1 4 1 4 2 4 2 4 4 8 5 7-1-4-3-6-2-4v-3l-1-2v-3l1-2v-3l2-2 1 1 2 2 1 2 1 2 1 5 1 4v5l-1 4v3l-1 3h2l1-1v-1l1-3 1-4-1-1v-1l1-1v-1h1l1-1 1 1h1v4h-1l-1 1h-1l-1 3-1 3-1 4v3l3 9h1l1-1v-3l1-1-1-2v-7l2-3 2-2v2l1 3 1 4v5l-1 1-1 1-2 1h-1l-1 1-1 2 1 3v2h-1l-1-1-1-1-1-3-2-2-2-1-1-1h-1l-2-1-1 1v1l-1 1v1h-4v-1l-1-1v-2l1-1 1-1h1l1 1h1l1 1h4l2 1 2 1-2-4-1-2-2-1-2-1h-2l-3-1-4-1-1-1-2-1-2-1-1-1-2-3v-1l-1-1h1l3-1h4l2 1 2 1 2 2 2 1 1 3 1 2 2 2 2 1-1-4-2-2-5-8-2-1-2-1-3-1h-6l-3-1-3-2-2-3-2-2-1-3-1-3v-3l2 2 2 1 2 1h3"/><path d="M476 209l1 1 1 2 2 2v9l1 2 1-4 1-5 2-6 1-2 2-1-1-1v-1l1-1v-1l1-1h1l2 1 1 1v3h-1l-1 1h-2l-1-1-2 4-1 4-1 4-1 5-1 9-1 8 1-2v-2l2-6 1-5 1-2 1-2 2-2 2-2 2-1 2-2v9l-2 5-2 4-3 3-2 3-3 3-2 1v1l1 1 1-1h2l2-2 2-1 1-1v-2l1-1 1-1 2 1 1 1v3h-1l-1 1h-1l-1-1-3 1-3 3-3 2-2 2-3 10h1l1-1 2-1 1-1 1-2 1-3 1-1 2-1 3-2h3l-1 2-1 3-1 4-1 1-2 2h-8l-2 1-2 3v1h-1l-1-1 1-2 1-3v-2l-1-3-1-1-1-2h-1l-1-1-1 1h-1l-1 1-1-1h-1v-1l-1-2 1-1v-1h4v1h1v2l2 2 2 1 1 2 1 2 1-5v-1l-1-2-1-2-1-2-2-2-3-3-1-2-1-2v-9h2l2 1 3 3 2 2 1 2v8l-1 2 1 3 1 2 1-4v-3l1-9-1-2-1-2-2-3-2-1-2-3-2-2-1-4-1-3v-3l1-3 1-3 2-2v2l1 2 1 2 2 2m-24 91v4l-1 3-1 3-1 2-2 2-1 2 3-2 5-4 4-3 3-1 2-1v-1l1-1h2l1 1h1v3h-1l-1 1h-3v-2h-1l-3 2-4 2-3 3-4 3-6 6-5 7 3-3 5-4 4-3 2-1 2-1h3l2-1h3l2 1-1 2-1 2-2 1-2 2-3 2-5 2-4 1-4 1-3 1h-3v2h10l1-1h3v1l1 1v1h-1v1l-1 1h-1l-1-1h-1v-2h-11l-3 1-8 5 1 1h6l3-2 2-1h2l3 1 3 2h-2l-3 2-3 2-2 1-2 1-1-1h-1l-2-1-1-2-1-1h-1l-2-1-3 2h-2l1-2h1l2-2 2-2 1-3v-4l-1-1h-2l-1-1-1-1v-3l1-1h4v1l1 1v1l-1 1v1l1 2v5l-1 2 4-3 1-2v-2l1-2v-2l-1-3v-6l1-2 1-2 1-1 2-3 1-1v-1l1 2 1 2 2 4v2l-1 3-1 2-1 2-3 2-1 2-1 2-1 2 3-2 2-2 6-7 1-3v-5l-1-2v-7l1-3 2-3 2-3 2-2 3-1 2-1-1 2v7m-130 85h-6l-2-2 3-1 4-2 2-1 2-1 4-2 2-1h2l1-1 1-1 2-3 2-4v-3h-1l-1-1-1-1v-1l1-1v-1l1-1h3l1 1v4l-1 1h-1v3l-1 4-1 3-1 1-1 1h5l1-1 2-2 1-1 1-2 2-3 1-4 2-1 1-2 2-1h1l4-1 1-1h1v4l-1 4-1 2-2 2-2 1-2 1h-3l-3 1-2 2-1 1h3l3-1 9-3 2-1 1-2 1-3 1-2 2-3 2-3 2-2 3-2 3-1 3-1h3l3 1-2 1-2 2-1 2-1 2-1 2-1 1-2 3-3 1-2 1-3 1-2 2 4-1h6l6-1 2 1h2l1-1h3l1 1v3l-1 1-1 1h-1l-1-1h-1v-3h-13l-4 1-9 2-8 3h4l6-1 5-1h2l3 1h2l3 1 2 2 2 1-2 2h-2l-2 1h-12l-4-1-4-2-3-1-2-1h-1v1l1 1 1 1 3 2 1 1 1 1 1-1h2l1 1v3l-1 1h-3v-3l-3-2-3-2-3-2-3-1h-6l-2 1h-2l-1 1h-2l-3 2-3 2-2 2m8-276h-2v3h3l1-1v-1l-1-1h-1m-82 37l-1 1h-1v3h3v-1l1-1-1-1h-1v-1m-26 53l-1 1-1 1 1 1 1 1h1l1-1v-2l-1-1h-1m3 50h-1v1l-1 1h1v1h1v1h1l1-1v-3h-2m155-129l1 1h1v3h-3l-1-1v-1l1-1h1v-1m-77 202h-3l1-2h3v-1l2 1-3 10h-2l2-8m22 0l-1 2-1 2-2 2v2l-1 3h-2v-3l2-3 2-3h-5v-2h8m16 1v1l-1 2-1 2-1 3-1 2h-2l1-3 1-3 2-3h-5v-1h7m16-3h-4l-1 2-1 2v2l1 2v2h1l1 1h3l1-1 1-2v-1l-1-1v-2h-4l-1 1v-2l1-1h2v1l2-1v-1l-1-1m-97-19l-2-1 1-2-1-1-1-1-1-1v1h-1v1l1 1 1 1v5l-2 1h-1l-2-1-1-1-1-1v-3l1-1 1 1v2l1 1 1 1h1v-3l-1-2-1-1v-2l1-1h1l2-1 1 1 2 1 1 2v3l-1 1m-21-13l1-1 4 5 2-2-4-4 2-1 3 4 2-2-4-5 2-1 5 7-8 7-5-7M243 275l-2 1-3-4 2-1-1-2-8 9 2 2 11-3-1-2m-6-11l-10 5-1-3 8-3-2-5 2-1 3 7m-18-71l2-9h2l-1 3 9 2-1 3-9-2v3h-2m16-13l-1 2-11-4 1-3 4 2 2-4-4-2 1-2 10 4-1 3-4-2-2 4 5 2m0-25l2 2-4 4 2 2 3-5 2 1-3 5 2 1 4-5 1 1-4 7-9-6 4-7m22-13l2-2 1 1 2-1v-1l1-1-1-1h-1l-1 1h-1l-3 1h-1l-1-1-1-1v-1l1-2 1-1 1-1h3l1 1-1 1h-3l-1 2v1h1l2-1 2-1h3l1 1v1l1 1-1 2-1 1-2 1-1 1h-2l-1-1m8-17l7-5 1 2-2 2 5 7-2 1-5-7-3 2-1-2m19 1v-2l4-2 1 2 2-1-8-8-2 1 1 11 2-1m9-15l9-3 1 2-4 1 3 9h-2l-3-8h-3l-1-1m24-5v1l-6 1v3l6-1v2l-5 1v3l6-1 1 1-9 2-1-11 8-1m33 1l-1-1h-4l-2 1-1 1v1l-1 3v2l1 1 1 1 1 1 2 1 2-1 2-1h1v-2l1-2-1-3v-1l-1-1m7 12l3-10 8 2-1 2-6-2v3l4 1v2l-5-1-1 4-2-1m31 14l7-9 2 2-2 9 5-7 2 2-7 8-2-1 1-9-5 6-1-1m27 9l-1 1-5-4-1 2 4 4-2 1-4-4-2 2 5 5-2 1-5-6 7-8 6 6m6 7l1 2-4 5-2 1 2-1 6-2 1 2-4 5-1 1 1-1 6-2 2 2-11 4-2-2 5-5 2-2-2 1-6 3-2-2 8-9m8 39l-1-2 11-3v2l-4 1 2 5 4-2v3l-10 3-1-3 5-1-1-4-5 1m3 14h3v4l-2 1v3l11-6-1-2-11-2v2m4 18l9 2v3h-11v-2h9l-9-2v-2l9-2h-9v-2h11v3l-9 2m6 20l1-1 1-1v-5l-11-1v2h4v6h1l2 1h1l1-1m-8 6l-1 2h-1v1l-1 1v2h2l1-1v-1l2-2 1-1h1l2 1v1l1 2-1 1v2l-1 1-2 1-1-1v-2h2l1-1v-2h-1v-1h-1v1l-1 1-1 2-1 1-2 1h-1l-1-1-1-1v-4l1-2 1-1h3m-9 15l1-2 10 5-1 1-4-1-2 4 4 1-1 3-10-5 1-2 5 2 1-4-4-2m2 19l-9-6 1-2 10 6-2 2m-3 6l-9-7-2 2 4 3-2 2-1 1v-1h-1l-2-1v-1l-2 3h1l1 1 2 1 1-1v2l1 1 1 1h3l1-2 4-4m-17 18l-1-1 4-4-1-2-4 4-2-1 4-4-2-2-4 4-2-1 6-6 8 8-6 5m-190-76l-1 2v4l1 2h1l1 1h5l1-1 1-1 1-1v-4l-1-2-1-1h-7l-1 1m10-8h-11l-1-8h2v6h3v-5h2v5h5v2m100-50h6l-2 35h-2l-2-35"/></g><path d="M333 205l6-25m-18 0l6 25" class="B C D"/><path d="M306 177l5-3 13 32h-1l-17-29" class="G"/><path d="M304 188l16 20" class="B C D"/><path d="M289 192l4-5 26 23-1 1-29-19m-7 20v-5l34 9-1 1-33-5" class="G"/><path d="M293 202l24 11" class="B C D"/><path d="M354 177l-5-3-13 32h1l17-29" class="G"/><path d="M356 188l-16 20" class="B C D"/><path d="M371 192l-4-5-26 23 1 1 29-19m7 20v-5l-34 9 1 1 33-5" class="G"/><path d="M367 202l-24 11m-38-18h2m-2 3h2m-2 4h3m-3 3h3m-3 7l4 1m-44 3l37-24" class="B C D"/><path d="M384 261h3l1-5-7-1 1 2v2l1 1 1 1" class="F"/><path d="M384 261h3l1-5-7-1c0 3 1 5 3 6z" class="B C D"/><path d="M382 251v2l-1 2 7 1 1-5h-7" class="F"/><path d="M382 251v2l-1 2 7 1 1-5h-7z" class="B C D"/><path d="M389 246h-2l-2 1h-1l-1 1-1 2v1h7v-5" class="F"/><path d="M389 246l-6 2-1 2v1h7v-5z" class="B C D"/><path d="M366 229v4h6v-4h-6m-7 0v4h7v-4h-7" class="E"/><path d="M372 234h9v-6h-9v6z"/><path d="M314 165v2h-1l-1 1h3l1-1 1-1v-1h2l-2-1h-1l-2 1" class="F"/><path d="M314 165c0 1 0 2-2 3 2 1 4 0 4-1l3-2h-5z" class="B C D"/><path d="M321 160v2l-1 1h-4l-1 1-1 1 2-1h1l2 1 2-1h1v-1l-1-2v-1" class="F"/><path d="M321 160c1 1 0 3-2 3-2-1-4 0-5 2h5c5 0 3-4 2-5z" class="B C D"/><path d="M320 159l1 1v1l1 2v1h-1l-2 1 2-1h1l1-1 1-1v-2l-2-3-2 1v1" class="F"/><path d="M320 159l1 1c1 1 3 5-2 5 2 0 5-1 5-3l-2-5-2 1v1z" class="B C D"/><path d="M355 161h-5l-3-1-2-2-3-2-3-1-4-1-3-1h-7l-3 1-2 2-1 1 1 1 2-1h8l4 1 2 1 2 1 3 2 5 2 4 2h4v-4l1-1" class="F"/><path d="M355 161c-4 0-6 0-10-3-7-5-20-8-25-2v2l2-1c5-1 12 0 16 3s11 6 16 6l1-5z" class="B C D"/><path d="M305 163l-2-1h-5l-3 1h-2l-2 2-2 1v2l2-1 2-1 3 1h9v-4" class="F"/><path d="M305 163c-4-2-16-1-16 5l4-2 3 1h9v-4z" class="B C D"/><path d="M292 175v1l-1 1-2 1-2 1-2 3-1 1-1 2 3-2 2-2 2-1 1-1 2-1 1-1-1-1-1-1" class="F"/><path d="M292 175l-1 2c-2 1-7 4-8 8 3-3 6-6 8-6l3-2-2-2z" class="B C D"/><path d="M293 172l-1-2v-2l1-2-2 1-2 1v4l1 1 1 1 1 1 1 1 1 1v-4l-1-1" class="F"/><path d="M293 172v-6l-4 2 2 6 1 1 2 2c1-1 1-3-1-5zm65 45l6-2m-6-1l5-2m-5-2l4-2m-5-1l5-1m-5-1l4-1m-4 0l4-2m-4-1h4m-4-2h3m-3-2h2m-2-3h2m-2-2h1m-8 26h5m-5-3h5m-4-3h4m-4-3h4m-4-3h4m-4-2h4m-3-3h3m-3-2h3m-3-2h3m-3-3l3 1m-3-3h3" class="B C D"/><g class="E"><path d="M318 307l1-3 1-4v-10l-6-1v4l1 3-1 5-1 4v2l1 1 1 1h1l1-1 1-1m19-13l-1 1-1 2v2l-1 4 2-3 2-3 1-1v-1l-1-1h-1"/><path d="M327 307l-1 1-1 2h-1l-1 1 1 2h2l1-2 2-1 1-2h-2l-1-1m-1-4l-1-3v-3l1-2v-1h1v-2l-1-1h-5v1h-1v8l-1 4-1 3-1 1-1 1h-1l-1-1v3l1 1h2l1 1 2-1h1l2-1 1-1h1l1-2 1-1v-3l-1-1m1-7v-2h-1v1l-1 2v3l1 3 1 1v-8m23-8h-1l-1 1h-2l-1 2-2 3v4l-1 2v3l1 3v2l1 1h1l1-1 1-1v-7l1-3 1-3v-3l1-3"/></g><path d="M334 303v1-1zm0 1l1 1-1-1z" class="B C D"/><g class="E"><path d="M335 305l-2 2-1 1 2 3 2 1 1 1 1-2-1-1-1-1-1-2v-2"/><path d="M334 304v-1l1-4v-2l-1-1h-1l-2-1-2 1h-2v11l1 1h4l1-1 2-2-1-1m9 4v-2l-1-2v-4l1-2v-4l-1-1h-4l-1 1h1l1 1v1l-1 1-2 3-2 3v1l1 1v2l1 2 1 1 1 1 2 1 2 1 2-1 2-1 1-1v-3l-1 1-1 1h-1l-1-1"/></g><path d="M334 304zm49-44l-96-9h-4l-43-4 1 5 156 15h14l3-4-31-3z" class="B C D"/><path d="M313 277l3-2h4l4-1h10l2-1h2l1-1 1-1h8l3-1 4-1h2l3 1h5l11-1 11-1h4l3-1h-36l-3-1h-7l-2 2-3 1h-5l-2-1-1 1h-1v1h-1l-1 1h-2l-11 1h-8l-6 1 2 2 2 1h2l2 1" class="E"/><path d="M313 277c4-2 10-4 15-3s8 0 10-1l6-2c3 1 5 0 7-1l6-1c6 2 32 0 37-2-6 1-36 1-39-1-3-1-6 0-9 2l-8 1h-4c-1 1 0 2-4 2l-25 2c3 3 6 3 8 4z" class="B C D"/><path d="M341 219v-2l-1-2v-2l-2-2-1-1-2-1-2-1h-5l-2 1-2 1-2 1-1 2-1 1-1 3v2h22" class="G"/><path d="M283 159v-2h3l1 1v2l-1 1h-2l-1-1v-1" class="F"/><path d="M283 159l2-2 2 2c0 1 0 2-2 2-1 0-2 0-2-2z" class="B C D"/><path d="M274 148l1-1h1v-1l1 1h1l1 1-1 2v1h-2l-1-1h-1v-2" class="F"/><path d="M274 148l2-2c2 0 3 2 3 2 0 2-1 3-2 3s-3-1-3-3z" class="B C D"/><path d="M264 183l-1-1v-1h1l1-1h2l1 1v2l-1 1h-3v-1" class="F"/><path d="M264 183c-1-1-1-2 1-3 1-1 2 0 3 1l-1 3c-1 1-3 1-3-1z" class="B C D"/><path d="M252 177l-1-1 1-1 1-1h2l1 1v3h-4v-1" class="F"/><path d="M252 177c-1-1-1-2 1-3l3 1-1 3c-1 1-3 1-3-1z" class="B C D"/><path d="M241 211v-3l1-1h2l1 2v1l-1 1h-3" class="F"/><path d="M241 211v-3l3-1c1 1 2 2 1 3s-2 2-4 1z" class="B C D"/><path d="M257 243l-1-1v-2l1-1h2l1 1v2l-1 1h-2m-12 5h-1v-1l-1-1 1-1v-1h2l2 1v1l-1 1v1h-2" class="F"/><path d="M245 248l-2-2c1-2 2-3 3-2l2 2c0 2-1 3-3 2z" class="B C D"/><path d="M271 270h-1l-1-1h-1v-2l1-1h4v2l-1 1v1h-1m14 30l-1 1h-1l-1-1v-3h1l2-1v1h1v3h-1m20-165v-1l1-1h3l1 1v1l-1 2h-3v-1l-1-1" class="F"/><path d="M305 135l2-2c2 0 3 1 3 2l-2 2c-1 0-3 0-3-2z" class="B C D"/><path d="M290 288v1h-1l-1-1-1-1v-1l1-1 2-1h1v1l1 1v1l-1 1h-1" class="F"/><path d="M281 223l1 3v3l5 2v-6l-6-2m17 5v5l6 1v-5l-6-1m-8-2v5l5 2 1-6-6-1m68 9v4h5v-4h-5m-9-1v4l6 1v-5h-6m17 1v4h5v-4h-5m-25-1v4h6v-4h-6m37 1h-3v4h3v-4m-63-4v5h6v-4l-6-1m-8-1v5h6v-5h-6m25 3v4l6 1v-4l-6-1m-8-1v5h5v-4l-5-1" class="E"/><path d="M287 251l-1-3-1-2 11 1 5 1 13 1h7l5 1h7l5 1h12l8 1h16l8 1v-3l1-2h-18l-30-1-32-1-13-1-10-2 3 8h4" class="F"/><path d="M287 251l-2-5a434 434 0 0016 2l13 1h7l5 1h7l5 1h12l8 1h5l19 1 1-5c-13 1-81-2-103-5l3 8h4zm96-23l-1 9h11l2-8-12-1zm-1 10l4 8 3-1 2-7h-9z" class="B C D"/><g class="E"><path d="M295 251h6v-3l-5-1-1 4m51 5h4v-5h-4v5m12 1h5v-5h-5v5m-25-3l5 1v-4l-5-1v4m-26-2l7 1v-4l-7-1v4m14 1l5 1v-4l-5-1v4m60 13l-5-19v-1l1-1h1v1l8 20h-5m-14-1l-3-18v-2h1l1 2 6 18h-5M354 264l-1-9-2-10v-1h1l1 1 5 19h-4m-13 0v-20l1-1 1 1 2 20h-4m-14-1l1-9 1-10v-1h1v1l2 19h-5m-14 0l5-21v1h1l-1 20h-5m-14-2l5-17 1-1 1 1v1l-3 16h-4m-15-1l9-16 1-1h1v1l-7 16h-4"/></g><path d="M378 159v-1l-1-1h-3l-1 1v1l1 1v1h2l1-1 1-1" class="F"/><path d="M378 159c0-2-1-2-2-2-2 0-3 1-3 2l2 2 3-2z" class="B C D"/><path d="M386 148v-1l-1-1h-2l-1 1v3l1 1h1l1-1h1v-2" class="F"/><path d="M386 148l-2-2c-1 0-3 1-2 2 0 2 0 3 2 3 1 0 2-1 2-3z" class="B C D"/><path d="M397 183v-3h-4v1l-1 2h1v1h3l1-1" class="F"/><path d="M397 183l-1-3c-1-1-3 0-3 1v3c1 1 3 0 4-1z" class="B C D"/><path d="M409 177v-2h-1v-1h-3v1l-1 2h1v1h3l1-1" class="F"/><path d="M409 177l-1-3c-2-1-3 0-3 1v3c1 1 3 1 4-1z" class="B C D"/><path d="M419 210v-3h-1l-1-1-1 1-1 1v2l1 1h2l1-1" class="F"/><path d="M419 210v-3h-3c-1 1-2 2-1 3h4z" class="B C D"/><path d="M403 243h1v-1l1-1v-1h-1l-1-1h-1l-2 1v2l1 1h2m-3 36l1-1h1v-2l-1-1v-1h-1l-2 1v3h1l1 1m-30 9h2l1-1v-2l-1-1h-2l-1 1v3h1m5 12l1 1h1l1-1v-3l-2-1h-1v1l-1 1v1l1 1m-20-165v-1l-1-1-1-1-1 1h-1v3l1 1h2l1-1v-1" class="F"/><path d="M355 135l-2-3c-1 0-3 2-2 3l1 2c2 0 3 0 3-2z" class="B C D"/><path d="M354 326h3v1l-1 2h-2v-3m-117-52l2 2-5 2 3-4m49-153l-2 1-1-5 3 4m58-6v-2l-1-1 1-2v-1l1-1h3l1 1v6h-1l-2 1-1-1h-1m93 90v-2h4l-4 3m2 32l-1-1 1-2h3v2l-1 1v1h-1l-1-1m-21 52h-1l-1-1v-1l1-1 1-2 3 2-2 2-1 1m-193-56l-2 1h-3l-1-1-1-1v-2l1-1 1-1h3l1 1 1 1v3" class="J"/><path d="M330 96a124 124 0 100 247 124 124 0 100-247z" class="B C D"/><path d="M235 219v6l1 5 1 5 1 6h6l7 1 20 1 24 2h25l24 1h46l3 1h5l3-1h2l4-1 5-1h9l2-6 1-6v-7l1-6H235" fill="#4f9eff"/><path d="M235 219v6l1 5 1 5 1 6h6l7 1 20 1 24 2h25l24 1h46l3 1h5l3-1h2l4-1 5-1h9l2-6 1-6v-7l1-6H235z" class="B C H"/><path d="M397 267h-3l-3 1h-4l-11 1-11 1h-5l-3-1h-2l-4 1-3 1h-8l-1 1-1 1h-1l-3 1h-10l-4 1h-4l-3 2-1-1h-3l-2-1-2-2-13 3h-6l-4 1-3-1h-5l-7 1-6 1h-5l3 4 4 4 4 3 4 4 4 3 4 3 5 2 4 3 5 2 5 2 5 2 5 1 6 1 5 1h24l6-1 6-2 6-2 5-2 6-2 5-3 5-3 5-4 5-4 4-3 4-5 4-4 4-5 3-5v-1h-14" fill="#4f9eff"/><path d="M397 267h-3l-3 1h-4l-11 1-11 1h-5l-3-1h-2l-4 1-3 1h-8l-1 1-1 1h-1l-3 1h-10l-4 1h-4l-3 2-1-1h-3l-2-1-2-2-13 3h-6l-4 1-3-1h-5l-7 1-6 1h-5l3 4 4 4 4 3 4 4 4 3 4 3 5 2 4 3 5 2 5 2 5 2 5 1 6 1 5 1h24l6-1 6-2 6-2 5-2 6-2 5-3 5-3 5-4 5-4 4-3 4-5 4-4 4-5 3-5v-1h-14z" class="B C H"/><path d="M279 285l2 1h11l2-1 3-1 2-1h6l3-1 3-1 2-2 1-1v-2h-1l-3-2-2-1-2-1v-1h-1l-1 1h-2l-3-1h-9l-5 1h-2l-2 1-2 2-2 1-1 2v2l1 2 1 1 1 2" class="G"/><path d="M279 285l2 1h11l2-1 3-1 2-1h6l3-1 3-1 2-2 1-1v-2h-1l-3-2-2-1-2-1v-1h-1l-1 1h-2l-3-1h-9l-5 1h-2l-2 1-2 2-2 1-1 2v2l1 2 1 1 1 2z" class="B C D"/><path d="M337 294l-2 3-1 6c3-3 7-9 3-9" class="G"/><path d="M337 294l-2 3-1 6c3-3 7-9 3-9z" class="B C D"/><path d="M318 307c1-3 3-11 2-15v-2l-6-1c2 10-2 15 0 19 1 2 3 1 4-1" class="G"/><path d="M318 307c1-3 3-11 2-15v-2l-6-1c2 10-2 15 0 19 1 2 3 1 4-1z" class="B C D"/><path d="M327 307l-4 4c1 2 2 2 3 2l4-5-3-1" class="G"/><path d="M327 307l-4 4c1 2 2 2 3 2l4-5-3-1z" class="B C D"/><path d="M326 303c-2-5-1-8 1-9v-2c-2-3-7-1-7 0 1 4-1 12-2 15-1 2-3 3-4 1-1 5 5 5 9 3l4-4v-2-1l-1-1" class="G"/><path d="M326 303c-2-5-1-8 1-9v-2c-2-3-7-1-7 0 1 4-1 12-2 15-1 2-3 3-4 1-1 5 5 5 9 3l4-4v-2-1l-1-1z" class="B C D"/><path d="M327 296v-2c-2 1-3 4-1 9l1 1v-8" class="G"/><path d="M327 296v-2c-2 1-3 4-1 9l1 1v-8z" class="B C D"/><path d="M350 288l-4 1-3 5v3 11c2 1 3 1 4-1v-7l3-12" class="G"/><path d="M350 288l-4 1-3 5v3 11c2 1 3 1 4-1v-7l3-12z" class="B C D"/><path d="M335 305l-3 3 4 4c1 1 2 1 2-1-2-1-3-3-3-6" class="G"/><path d="M335 305l-3 3 4 4c1 1 2 1 2-1-2-1-3-3-3-6z" class="B C D"/><path d="M334 304v-1l1-6c-2-2-7-2-8-1v11l3 1h2l3-3-1-1" class="G"/><path d="M334 304v-1l1-6c-2-2-7-2-8-1v11l3 1h2l3-3-1-1z" class="B C D"/><path d="M343 308l-1-4v-4l1-3v-3l-4-1-2 1c4 0 0 6-3 9v1l1 1c0 3 1 5 3 6l4 2c3 0 5-2 5-6-1 2-2 2-4 1" class="G"/><path d="M343 308l-1-4v-4l1-3v-3l-4-1-2 1c4 0 0 6-3 9v1l1 1c0 3 1 5 3 6l4 2c3 0 5-2 5-6-1 2-2 2-4 1z" class="B C D"/><path d="M416 248l1-1v-2l-1-1h-2l-1 1h-1l1 1v2h3" class="F"/><path d="M416 248l1-1v-2l-1-1h-2l-1 1h-1l1 1v2h3z" class="B C D"/><path d="M390 270h1v-1h1v-2l-1-1-1-1-2 1-1 1v1l1 1 1 1h1" class="F"/><path d="M390 270h1v-1h1v-2l-1-1-1-1-2 1-1 1v1l1 1 1 1h1zm-11-84v1h2v-1h-2zm0 13l-3 28h4v-28h-1zm1-3h-4v1l3 2h1l2-2v-1h-2z" class="B C D"/><path d="M380 187l-1 9h1v-9" fill="#523737"/><path d="M380 187l-1 9h1v-9z" class="B C D"/><path d="M379 199l-3 28h4v-28h-1" class="I"/><path d="M379 199l-3 28h4v-28h-1z" class="B C H"/><path d="M380 196h-4v1l3 2h1l2-2v-1h-2" class="I"/><path d="M380 196h-4v1l3 2h1l2-2v-1h-2z" class="B C H"/><path d="M379 186v1h2v-1h-2" class="I"/><path d="M379 186v1h2v-1h-2z" class="B C D"/><path d="M355 160l-2 15h1l1-15" class="I"/><path d="M355 160l-2 15h1l1-15z" class="B C D"/><path d="M354 178h-1l-1 8h2v-8" class="I"/><path d="M354 178h-1l-1 8h2v-8z" class="B C D"/><path d="M358 187l-4-1h-5l1 4h8v-3" class="I"/><path d="M358 187l-4-1h-5l1 4h8v-3z" class="B C H"/><path d="M354 178l2 1 1-3-3-1h-2v3h2" class="I"/><path d="M354 178l2 1 1-3-3-1h-2v3h2z" class="B C H"/><path d="M297 225h2l3 1 2-34h-2l-5 33" class="I"/><path d="M297 225h2l3 1 2-34h-2l-5 33z" class="B C H"/><path d="M306 162l-2 16 1 1 1-17" class="I"/><path d="M306 162l-2 16 1 1 1-17z" class="B C D"/><path d="M304 181l-2 8h2l1-8h-1" class="I"/><path d="M304 181l-2 8h2l1-8h-1z" class="B C D"/><path d="M305 179l-1-1h-2v3h5v-2h-2" class="I"/><path d="M305 179l-1-1h-2v3h5v-2h-2z" class="B C H"/><path d="M302 189h-3v3h7v-3h-4" class="I"/><path d="M302 189h-3v3h7v-3h-4z" class="B C H"/><path d="M389 210v-2h-2l-1 1-3 2-2 1-1 1h-2v1h3l2-2 3-1 1-1h2" class="F"/><path d="M389 206l-10 5-1 2c3 0 7-5 11-5v-2zm0 4v-2c-4 0-8 5-11 5v1c3 1 7-4 11-4zm0 0c-4 0-8 5-11 4v2c4 0 7-4 11-5v-1zm-4 6c3-2 9-3 12-1l1-1c-3-3-9-2-12 0-2 1-6 4-9 4v2l8-4zm4-5c3-1 8 0 10 1l2-8c-3-2-7-1-11 0l-1 7zm0 0z" class="B C D"/><path d="M389 206l-2 1-3 1-3 2-2 1-1 2h2l1-1 2-1 3-2 1-1h2v-2" class="E"/><path d="M389 206l-2 1-3 1-3 2-2 1-1 2h2l1-1 2-1 3-2 1-1h2v-2z" class="B C H"/><path d="M390 204l-3 1-4 2-2 1-2 1v2l2-1 3-2 3-1h1l1-1 1-2" class="F"/><path d="M390 204l-3 1-8 4v2l10-5 1-2z" class="B C D"/><path d="M389 210h-2l-1 1-3 1-2 2h-3v2h1l2-1 2-1 3-2 1-1h2v-1" class="E"/><path d="M389 210h-2l-1 1-3 1-2 2h-3v2h1l2-1 2-1 3-2 1-1h2v-1z" class="B C H"/><path d="M385 216l-4 2-2 1-1 1h-1l-1 1h4l2-1 2-1 1-1 2-1 1-1h6l3 1v-2h-1l-1-1h-4l-3 1-3 1" class="F"/><path d="M385 216l-8 4-1 1c2 1 6 0 8-2 3-3 9-3 13-2v-2c-3-2-9-1-12 1z" class="B C D"/><path d="M385 216l3-1 3-1h4l1 1h1l1-1-1-1-2-1h-3l-4 1-2 1-4 2-3 1-2 1v2h1l1-1 2-1 4-2" class="E"/><path d="M385 216l3-1 3-1h4l1 1h1l1-1-1-1-2-1h-3l-4 1-2 1-4 2-3 1-2 1v2h1l1-1 2-1 4-2z" class="B C H"/><path d="M398 214l1-3h-10l-3 1-3 2-2 1-2 1h-1l-1 2 2-1 3-1 4-2 2-1 4-1h3l2 1 1 1" class="F"/><path d="M398 214l1-3h-10c-4 1-7 5-11 5l-1 2c3 0 7-3 9-4 3-2 9-3 12 0z" class="B C D"/><path d="M389 211h10l2-7h-1l-1-1h-6l-3 1-1 4v3" class="J"/><g class="B C"><path d="M389 211h10l2-7h-1l-1-1h-6l-3 1-1 4v3z" class="H"/><path d="M401 204l-4 13-3 10 2 1 5-26v2zm-90 23l-5-35m2 35l-2-35m52 35l-1-37m4 37l-4-37m10 37l-9-37 5 37m-8 6v-43m-1 0l-2 43m-47-15l5 1m-5 2l5 1m-5 2l6 1m-6-33v35m53 0l8-4m-8 1l8-3m-8 1l7-2m-7 0l7-3m-16 10h6m-6-2h6m-5-3l5 1m-5-3l5 1" class="D"/></g><path d="M349 232l4-42" class="I"/><path d="M349 232l4-42" class="B C D"/><path d="M352 190l-6 42 3 1h2l2-43h-1" class="I"/><path d="M352 190l-6 42 3 1h2l2-43h-1zm-81 37l-16-15 16 18" class="B C D"/><path d="M278 230l1-1v-3l-1-1-2-1-2-1-3-1v8h7" class="G"/><path d="M278 230l1-1v-3l-1-1-2-1-2-1-3-1v8h7z" class="B C H"/><path d="M382 253l-1 1v2l1 2 1 2-96-9h-4l-3-8-2-3-2-4-2-4-1-1-2-1h7l1-1v-3l-1-1-2-1-2-1-3-1v-1l-8-3-4-3-4-3 6 3 10 3 13 4 13 3h2l3 1 22 3 22 3 3 1h10v-4h-1v-2h23v-1l6 1 7 1h5l-2 1v1l-1 1-1 2v4l1 2h-2l-2 1-1 3-2 3h-2l-2 1h-1l-1 1-1 5" class="I"/><path d="M382 253l-1 1v2l1 2 1 2-96-9h-4l-3-8-2-3-2-4-2-4-1-1-2-1h7l1-1v-3l-1-1-2-1-2-1-3-1v-1l-8-3-4-3-4-3 6 3 10 3 13 4 13 3h2l3 1 22 3 22 3 3 1h10v-4h-1v-2h23v-1l6 1 7 1h5l-2 1v1l-1 1-1 2v4l1 2h-2l-2 1-1 3-2 3h-2l-2 1h-1l-1 1-1 5z" class="B C H"/><path d="M281 233c8 5 24 8 34 8 17 2 41 2 56 2v2c-12 1-47-1-52-1-5-1-27-2-38-11" class="F"/><path d="M281 233c8 5 24 8 34 8 17 2 41 2 56 2v2c-12 1-47-1-52-1-5-1-27-2-38-11z" class="B C D"/><path d="M271 270c-2 0-3-1-3-2l2-3 3 2-2 3" class="F"/><path d="M271 270c-2 0-3-1-3-2l2-3 3 2-2 3z" class="B C D"/><path d="M403 243c1 0 2-1 2-3-1-1-2-2-3-1-2 0-2 1-2 2 0 2 1 2 3 2" class="F"/><path d="M403 243c1 0 2-1 2-3-1-1-2-2-3-1-2 0-2 1-2 2 0 2 1 2 3 2z" class="B C D"/><path d="M260 279l-1-1h-1v-2l1-1h1v-1l2 1h1v2l-1 1-2 1" class="F"/><path d="M260 279l-1-1h-1v-2l1-1h1v-1l2 1h1v2l-1 1-2 1z" class="B C D"/><path d="M257 243c-1 0-2-1-1-3 0-1 2-2 3-1s2 1 1 2c0 2-1 3-3 2" class="F"/><path d="M257 243c-1 0-2-1-1-3 0-1 2-2 3-1s2 1 1 2c0 2-1 3-3 2z" class="B C D"/><path d="M285 300h-3l1-3h3c1 1 0 3-1 3" class="F"/><path d="M285 300h-3l1-3h3c1 1 0 3-1 3z" class="B C D"/><path d="M290 288h-2v-4l3 1c1 1 1 3-1 3" class="F"/><path d="M290 288h-2v-4l3 1c1 1 1 3-1 3z" class="B C D"/><path d="M370 288c1 1 2 0 3-1l-1-3-3 1c-1 1-1 3 1 3" class="F"/><path d="M370 288c1 1 2 0 3-1l-1-3-3 1c-1 1-1 3 1 3z" class="B C D"/><path d="M375 300h3v-3h-3v3" class="F"/><path d="M375 300h3v-3h-3v3z" class="B C D"/><path d="M400 279l2-2c0-2-1-3-2-3l-2 2c-1 1 0 2 2 3" class="F"/><path d="M400 279l2-2c0-2-1-3-2-3l-2 2c-1 1 0 2 2 3z" class="B C D"/><path d="M366 229v4h6v-4h-6" class="E"/><path d="M366 229v4h6v-4h-6z" class="B C D"/><path d="M359 229v4h7v-4h-7" class="E"/><path d="M359 229v4h7v-4h-7z" class="B C D"/><path d="M381 229h-8v4h8v-4" class="E"/><path d="M381 229h-8v4h8v-4z" class="B C D"/><path d="M281 223l1 6 5 2v-6l-6-2" class="E"/><path d="M281 223l1 6 5 2v-6l-6-2z" class="B C D"/><path d="M298 228v5l6 1v-5l-6-1" class="E"/><path d="M298 228v5l6 1v-5l-6-1z" class="B C D"/><path d="M290 226v5l6 3v-7l-6-1" class="E"/><path d="M290 226v5l6 3v-7l-6-1z" class="B C D"/><path d="M358 235v4h5v-4h-5" class="E"/><path d="M358 235v4h5v-4h-5z" class="B C D"/><path d="M349 234v4l6 1v-5h-6" class="E"/><path d="M349 234v4l6 1v-5h-6z" class="B C D"/><path d="M366 235v4h5v-4h-5" class="E"/><path d="M366 235v4h5v-4h-5z" class="B C D"/><path d="M341 234v4h6v-4h-6" class="E"/><path d="M341 234v4h6v-4h-6z" class="B C D"/><path d="M378 235h-3v4h3v-4" class="E"/><path d="M378 235h-3v4h3v-4z" class="B C D"/><path d="M315 231v5h6v-4l-6-1" class="E"/><path d="M315 231v5h6v-4l-6-1z" class="B C D"/><path d="M307 230v5h6v-5h-6" class="E"/><path d="M307 230v5h6v-5h-6z" class="B C D"/><path d="M332 233v4l6 1v-4l-6-1" class="E"/><path d="M332 233v4l6 1v-4l-6-1z" class="B C D"/><path d="M324 232v5h5v-4l-5-1" class="E"/><path d="M324 232v5h5v-4l-5-1z" class="B C D"/><path d="M385 230l-1 5 2 1v-6h-1" class="E"/><path d="M385 230l-1 5 2 1v-6h-1z" class="B C D"/><path d="M392 230h-1v6h1v-6" class="E"/><path d="M392 230h-1v6h1v-6z" class="B C D"/><path d="M387 230v6h1v-6h-1" class="E"/><path d="M387 230v6h1v-6h-1z" class="B C D"/><path d="M389 230v6h1v-6h-1" class="E"/><path d="M389 230v6h1v-6h-1z" class="B C D"/><path d="M295 251h6v-3l-5-1-1 4" class="E"/><path d="M295 251h6v-3l-5-1-1 4z" class="B C D"/><path d="M346 256h4v-5h-4v5" class="E"/><path d="M346 256h4v-5h-4v5z" class="B C D"/><path d="M358 257h5v-5h-5v5" class="E"/><path d="M358 257h5v-5h-5v5z" class="B C D"/><path d="M333 254l5 1v-4l-5-1v4" class="E"/><path d="M333 254l5 1v-4l-5-1v4z" class="B C D"/><path d="M307 252l7 1v-4l-7-1v4" class="E"/><path d="M307 252l7 1v-4l-7-1v4z" class="B C D"/><path d="M321 253l5 1v-4l-5-1v4" class="E"/><path d="M321 253l5 1v-4l-5-1v4z" class="B C D"/><path d="M381 266l-5-19c0-2 2-3 2-1l8 20h-5" class="E"/><path d="M381 266l-5-19c0-2 2-3 2-1l8 20h-5z" class="B C D"/><path d="M367 265l-3-18c-1-1 1-4 2 0l6 18h-5" class="E"/><path d="M367 265l-3-18c-1-1 1-4 2 0l6 18h-5z" class="B C D"/><path d="M354 264l-3-19a2592 2592 0 017 19h-4" class="E"/><path d="M354 264l-3-19a2592 2592 0 017 19h-4z" class="B C D"/><path d="M341 264v-20h2l2 20h-4" class="E"/><path d="M341 264v-20h2l2 20h-4z" class="B C D"/><path d="M327 263l2-19c-1-1 1-2 1 0l2 19h-5" class="E"/><path d="M327 263l2-19c-1-1 1-2 1 0l2 19h-5z" class="B C D"/><path d="M313 263l4-20h2l-1 20h-5" class="E"/><path d="M313 263l4-20h2l-1 20h-5z" class="B C D"/><path d="M299 261l5-17c1-1 3-1 2 1l-3 16h-4" class="E"/><path d="M299 261l5-17c1-1 3-1 2 1l-3 16h-4z" class="B C D"/><path d="M284 260l9-16a392 392 0 00-5 16h-4" class="E"/><path d="M284 260l9-16a392 392 0 00-5 16h-4z" class="B C D"/><path d="M321 143l3-3 3-2-2-1h-6l1-2 1-1 1-2 1-2h-3l-3 1-2 2h-1l-1 2-3 3-4 4 1-3 1-1v-2h-1v1l-1 2-2 2-3 2-2 1-7 3-7 4-1-1v-2h1l1-1h3l3-1 2-1 2-2 3-2 1-3 1-2v-2 1h-1l-2 2h-3l-3 1h-2l-2 1-2 1-1 1-2 2v2l-1 2v2l1 3-5 4v-3l-1-3v-1h-1v7l-1 2-4 4-4 4-3 4-3 5-1-1v-2l1-1 2-1 1-1 2-2 1-2 2-2 1-3v-7l-1-1v2l-2 2-2 2-3 2-1 1-2 2-1 1-1 2v4l1 2 1 2 1 2-3 5v-2l-2-2-1-1v1l1 3 1 5-2 4-2 6-1 5-1 6h-1l-1-1v-1l1-2 1-1 1-1v-2l1-3v-9l-1-2-1-1-1-1v5l-1 2-2 3-1 1-1 2-1 2v2l1 3 1 1 1 2 2 1 2 2-1 5-2-2-2-2h-2l1 1 1 1 2 1 1 2 1 3v10l1 6 1 6h-2v-1l-1-1 1-2v-4l-1-2-1-3-1-3-1-2-2-2h-1l-1-1 1 2v8l-1 2 1 1v2l1 2 1 2 1 1 2 1 2 1h2l2 7-3-1h-4 1l1 1 2 1 2 1 2 1 3 9 3 5 3 4-1 1h-1l-1-1-1-2v-3l-1-2-1-2-2-3-2-2-2-2-3-1h-2l1 1 1 1 1 2v2l1 4v2l1 2 1 1 1 2 2 1 2 1h7l3 5h-5l-1 1v1l1-1h1l2 1 5 1 6 6 3 3 3 3h-2l-1-1-1-1-1-1-1-2-1-1-2-1-2-1-3-1h-2l-3 1-2 1h4l1 1h1v1l1 2 1 1 1 2 2 1 2 1h2l2 1 2-1h1l3-1 5 3-2 2-2 1-1 1h1l3-1 4-1 5 2 5 2 5 2 6 1v1l-1 1h-2l-1-1-1-1-2-1-2-1h-2l-3-1h-6l-3 1-1 1v1h2l2 1 3 1 2 2 2 1 2 1h6l2-1 2-1 1-2 1-1 1-1 4 1 1-3-5-1 1-2v-2l-2-3-2-2-2-1-2-1-1-1h-3l-2-1-2-1-3-2h-2l1 2 1 3 1 2 1 1 1 2 2 1 2 1h2l2 1h5l1 2v1l-5-1-6-2-5-2-5-3-1-1-1-1-1-3v-1h-1v1l1 4-4-3 1-2 1-1v-4l-1-3-1-2-1-1-2-2-1-1h-2l-1-1-1-3-2-2-1-1-1-1v10l1 2 1 1 1 2 2 1 2 2 2 1 1 1 1 1v2l-7-5-3-2-3-3-1-3v-7l-1 1v3l-1 3-4-6 1-1h1l2-1 1-2v-6l-2-4-1-1-1-1-1-2v-1l-1-3-1-2-1-1-1-1v3l-1 2-1 2v6l1 2 2 2 1 1 2 2h1v4l-1 1-3-4-2-4-2-5-2-4v-3l1-2 1-2v-2l-1 1-1 2-1 2-1-6h2l1-1h1l1-2 1-3v-4l-1-2v-1l-1-1v-7l-1-2-1 2-2 2-1 1-1 1v5l1 2 1 3 1 2v3l-1 1-2-8v-23h6l1-1 1-1 2-3 1-1 1-2v-7l1-2 2-3v-2l-2 1-3 2h-2l-1 2-1 1-1 2-1 2v9l-1 1-1 1h-2l1-5 1-5 2-5 2-5 2-2 2-1 1-1h3v-1h-4l-3 2 3-7 2 1 1 1h5l4-2 1-1 1-2 1-1 1-2v-2l1-1 2-2 2-2 1-1v-1l-2 1h-5l-2 1-2 1-1 1-2 2-1 2v2l-1 2v1l-1 1-1 1h-2l-1-1 3-4 3-4 3-4 4-4 2-1h7l-1-1h-3l-2-1 6-4v1l1 2 1 1 2 1h6l3-2 2-1 2-2 1-1 3-1 3-1h1l1-1h-3l-3-1-1-1h-6l-2 1-2 2-1 1-2 2-1 1h-4l-1-1 5-3 5-2 5-2 6-2v-1l2 1 2 1h5l3-1 3-1" fill="#3f863f"/><path d="M321 143l3-3 3-2-2-1h-6l1-2 1-1 1-2 1-2h-3l-3 1-2 2h-1l-1 2-3 3-4 4 1-3 1-1v-2h-1v1l-1 2-2 2-3 2-2 1-7 3-7 4-1-1v-2h1l1-1h3l3-1 2-1 2-2 3-2 1-3 1-2v-2 1h-1l-2 2h-3l-3 1h-2l-2 1-2 1-1 1-2 2v2l-1 2v2l1 3-5 4v-3l-1-3v-1h-1v7l-1 2-4 4-4 4-3 4-3 5-1-1v-2l1-1 2-1 1-1 2-2 1-2 2-2 1-3v-7l-1-1v2l-2 2-2 2-3 2-1 1-2 2-1 1-1 2v4l1 2 1 2 1 2-3 5v-2l-2-2-1-1v1l1 3 1 5-2 4-2 6-1 5-1 6h-1l-1-1v-1l1-2 1-1 1-1v-2l1-3v-9l-1-2-1-1-1-1v5l-1 2-2 3-1 1-1 2-1 2v2l1 3 1 1 1 2 2 1 2 2-1 5-2-2-2-2h-2l1 1 1 1 2 1 1 2 1 3v10l1 6 1 6h-2v-1l-1-1 1-2v-4l-1-2-1-3-1-3-1-2-2-2h-1l-1-1 1 2v8l-1 2 1 1v2l1 2 1 2 1 1 2 1 2 1h2l2 7-3-1h-4 1l1 1 2 1 2 1 2 1 3 9 3 5 3 4-1 1h-1l-1-1-1-2v-3l-1-2-1-2-2-3-2-2-2-2-3-1h-2l1 1 1 1 1 2v2l1 4v2l1 2 1 1 1 2 2 1 2 1h7l3 5h-5l-1 1v1l1-1h1l2 1 5 1 6 6 3 3 3 3h-2l-1-1-1-1-1-1-1-2-1-1-2-1-2-1-3-1h-2l-3 1-2 1h4l1 1h1v1l1 2 1 1 1 2 2 1 2 1h2l2 1 2-1h1l3-1 5 3-2 2-2 1-1 1h1l3-1 4-1 5 2 5 2 5 2 6 1v1l-1 1h-2l-1-1-1-1-2-1-2-1h-2l-3-1h-6l-3 1-1 1v1h2l2 1 3 1 2 2 2 1 2 1h6l2-1 2-1 1-2 1-1 1-1 4 1 1-3-5-1 1-2v-2l-2-3-2-2-2-1-2-1-1-1h-3l-2-1-2-1-3-2h-2l1 2 1 3 1 2 1 1 1 2 2 1 2 1h2l2 1h5l1 2v1l-5-1-6-2-5-2-5-3-1-1-1-1-1-3v-1h-1v1l1 4-4-3 1-2 1-1v-4l-1-3-1-2-1-1-2-2-1-1h-2l-1-1-1-3-2-2-1-1-1-1v10l1 2 1 1 1 2 2 1 2 2 2 1 1 1 1 1v2l-7-5-3-2-3-3-1-3v-7l-1 1v3l-1 3-4-6 1-1h1l2-1 1-2v-6l-2-4-1-1-1-1-1-2v-1l-1-3-1-2-1-1-1-1v3l-1 2-1 2v6l1 2 2 2 1 1 2 2h1v4l-1 1-3-4-2-4-2-5-2-4v-3l1-2 1-2v-2l-1 1-1 2-1 2-1-6h2l1-1h1l1-2 1-3v-4l-1-2v-1l-1-1v-7l-1-2-1 2-2 2-1 1-1 1v5l1 2 1 3 1 2v3l-1 1-2-8v-23h6l1-1 1-1 2-3 1-1 1-2v-7l1-2 2-3v-2l-2 1-3 2h-2l-1 2-1 1-1 2-1 2v9l-1 1-1 1h-2l1-5 1-5 2-5 2-5 2-2 2-1 1-1h3v-1h-4l-3 2 3-7 2 1 1 1h5l4-2 1-1 1-2 1-1 1-2v-2l1-1 2-2 2-2 1-1v-1l-2 1h-5l-2 1-2 1-1 1-2 2-1 2v2l-1 2v1l-1 1-1 1h-2l-1-1 3-4 3-4 3-4 4-4 2-1h7l-1-1h-3l-2-1 6-4v1l1 2 1 1 2 1h6l3-2 2-1 2-2 1-1 3-1 3-1h1l1-1h-3l-3-1-1-1h-6l-2 1-2 2-1 1-2 2-1 1h-4l-1-1 5-3 5-2 5-2 6-2v-1l2 1 2 1h5l3-1 3-1z" class="B C H"/><path d="M345 300h-3v4l4-1v1l1 1 2 2 2 1 1 1h7l1-1 2-1 3-2 2-1 2-1h2v-1l-1-1-2-1h-9l-3 1-2 1-2 1-1 1-1 1h-1l-1-1-1-1 6-1 5-2 5-2 5-2 4 1 3 1h1l-1-1-2-2-2-1 6-3 2 1h8l2-1 1-1 2-2 1-2v-1l1-1 1-1h2l2-1h-2l-3-1h-2l-2 1-3 1-2 1-1 1-1 1v2l-2 1-1 1h-2v-1l3-2 3-3 6-6 3-1 2-1h5l-2-1h-5l4-6 2 1h4l2-1 2-1 1-2 2-2v-1l1-3v-3l1-2 1-2 1-1 1-1h-3l-2 1-2 2-2 2-2 2-2 3v2l-1 2v2l-1 1-1 1h-1v-1l2-5 3-4 2-5 2-4 1-1 2-2h2l1-1h1l-1-1-3 1-2 1 1-7h2l2-1 2-1 1-1 2-2v-2l1-2v-3l-1-3v-3l1-2 1-2-1 1h-1l-2 2-2 2-1 3-1 2v10l-1 1h-1v-6l1-6v-11l1-2 2-2 1-1 1-1 1-1h-1l-3 2-2 2v-5l2-2 1-1 2-2v-2l1-2v-4l-1-2-1-1-2-3-1-3-1-2v-2l-1 1v1l-2 2v9l1 2 1 3 1 1 1 1v3l-1 1h-1l-1-6-1-6-2-5-2-5 1-4 1-3h1l-1-1-1 1-1 2-1 2-3-5 2-2 1-2v-6l-1-2-1-2-1-1-2-1-3-2-2-2-1-2-1-1v-1 1l-1 1v3l1 3 1 2 1 3 2 2 1 2 2 1 1 1 1 1v2l-1 1-3-5-3-4-7-8-1-2-1-2v-5l-1 1v6l-6-4 1-3v-4l-1-2-1-2-2-1-2-1-1-1h-2l-4-1-2-1-2-1h-1l-1-1v2l1 2 2 3 2 2 2 1 3 2 2 1h3l1 1h1l1 1-1 1v1l-7-4-7-3-3-1-2-2-2-2-1-1v-1l-1-1v3l1 3-4-4-3-4v-1h-1l-3-2-3-1h-2v2l1 2 1 1 2 1-5 1h-2l-2 1 3 2 4 3 2 1 2 1h4l2-1h2l3-1v1l5 2 6 2 4 2 5 3-1 1h-4l-1-1-1-2-2-2-2-1-2-1h-1l-2-1-2 1h-2l-3 1-2 1v1h2l2 1 3 1 1 1 1 1 2 1 1 1 2 1 2 1h6l1-1 1-2 1-1 1-1 6 4-3 1h-3l-1 1h7l3 1 3 4 4 3 3 5 3 4-2 1-1-1h-2v-1l-1-1v-2l-1-2-1-2-2-2-1-1-2-1-1-1h-5l-3-1v1l1 1 2 2 2 2 1 1 1 2v1l1 2 1 1 2 2 3 2h4l2-1h1l1-1 3 6h-2l-3-1h-2v1h3l2 1 2 1 2 2 2 5 1 5 1 5 1 5h-1l-2-1-1-1v-5l1-2-1-2v-2l-1-2-2-2-1-1-2-1-2-1-3-1 1 1v1l1 3 1 2 1 2v1l-1 2 1 2v2l1 1 2 3 1 1 2 1h5l1 7v8l-1 8-1 8-1-1-1-1v-2l2-2 1-3v-7l-1-2-1-1-2-1-1-2v4l-1 3v3l-1 1-1 2v3l1 3 1 2 1 1 1 1h3l-2 6-1-3-1-1-1-1v1l1 1v2l1 2v3l-2 4-2 5-2 4-2 4-1-1-1-1v-3h1l2-2 2-2 1-2 1-1v-2l1-2-1-2v-2l-1-3-1-2-1 1v1l-1 2-1 3-1 1-1 1-1 2-1 1-1 2v2l-1 3 1 3 1 1 1 1 2 2-4 6v-3l-1-3v-1h-1v2l1 1v2l-1 2v2l-3 3-4 3-3 3-3 2-1-1v-1l1-2h1l2-2 2-1 2-1 2-2 1-2v-1l1-2-1-2v-6l-1 1-1 1-1 2-2 3-1 1h-1l-2 1-1 2-1 1-1 2-2 3v4l1 1 2 2-5 3 1-4v-1h-1v1l-1 2v2l-2 1-5 3-5 2-5 1-6 2 1-2v-1h1l2-1h7l2-1 1-1 2-2 1-1v-2l1-3 2-3-2 1h-1l-2 2-3 1-1 1h-3l-2 1h-2l-1 1-3 3-1 1v1l-1 2 1 1v2" fill="#3f863f"/><path d="M345 300h-3v4l4-1v1l1 1 2 2 2 1 1 1h7l1-1 2-1 3-2 2-1 2-1h2v-1l-1-1-2-1h-9l-3 1-2 1-2 1-1 1-1 1h-1l-1-1-1-1 6-1 5-2 5-2 5-2 4 1 3 1h1l-1-1-2-2-2-1 6-3 2 1h8l2-1 1-1 2-2 1-2v-1l1-1 1-1h2l2-1h-2l-3-1h-2l-2 1-3 1-2 1-1 1-1 1v2l-2 1-1 1h-2v-1l3-2 3-3 6-6 3-1 2-1h5l-2-1h-5l4-6 2 1h4l2-1 2-1 1-2 2-2v-1l1-3v-3l1-2 1-2 1-1 1-1h-3l-2 1-2 2-2 2-2 2-2 3v2l-1 2v2l-1 1-1 1h-1v-1l2-5 3-4 2-5 2-4 1-1 2-2h2l1-1h1l-1-1-3 1-2 1 1-7h2l2-1 2-1 1-1 2-2v-2l1-2v-3l-1-3v-3l1-2 1-2-1 1h-1l-2 2-2 2-1 3-1 2v10l-1 1h-1v-6l1-6v-11l1-2 2-2 1-1 1-1 1-1h-1l-3 2-2 2v-5l2-2 1-1 2-2v-2l1-2v-4l-1-2-1-1-2-3-1-3-1-2v-2l-1 1v1l-2 2v9l1 2 1 3 1 1 1 1v3l-1 1h-1l-1-6-1-6-2-5-2-5 1-4 1-3h1l-1-1-1 1-1 2-1 2-3-5 2-2 1-2v-6l-1-2-1-2-1-1-2-1-3-2-2-2-1-2-1-1v-1 1l-1 1v3l1 3 1 2 1 3 2 2 1 2 2 1 1 1 1 1v2l-1 1-3-5-3-4-7-8-1-2-1-2v-5l-1 1v6l-6-4 1-3v-4l-1-2-1-2-2-1-2-1-1-1h-2l-4-1-2-1-2-1h-1l-1-1v2l1 2 2 3 2 2 2 1 3 2 2 1h3l1 1h1l1 1-1 1v1l-7-4-7-3-3-1-2-2-2-2-1-1v-1l-1-1v3l1 3-4-4-3-4v-1h-1l-3-2-3-1h-2v2l1 2 1 1 2 1-5 1h-2l-2 1 3 2 4 3 2 1 2 1h4l2-1h2l3-1v1l5 2 6 2 4 2 5 3-1 1h-4l-1-1-1-2-2-2-2-1-2-1h-1l-2-1-2 1h-2l-3 1-2 1v1h2l2 1 3 1 1 1 1 1 2 1 1 1 2 1 2 1h6l1-1 1-2 1-1 1-1 6 4-3 1h-3l-1 1h7l3 1 3 4 4 3 3 5 3 4-2 1-1-1h-2v-1l-1-1v-2l-1-2-1-2-2-2-1-1-2-1-1-1h-5l-3-1v1l1 1 2 2 2 2 1 1 1 2v1l1 2 1 1 2 2 3 2h4l2-1h1l1-1 3 6h-2l-3-1h-2v1h3l2 1 2 1 2 2 2 5 1 5 1 5 1 5h-1l-2-1-1-1v-5l1-2-1-2v-2l-1-2-2-2-1-1-2-1-2-1-3-1 1 1v1l1 3 1 2 1 2v1l-1 2 1 2v2l1 1 2 3 1 1 2 1h5l1 7v8l-1 8-1 8-1-1-1-1v-2l2-2 1-3v-7l-1-2-1-1-2-1-1-2v4l-1 3v3l-1 1-1 2v3l1 3 1 2 1 1 1 1h3l-2 6-1-3-1-1-1-1v1l1 1v2l1 2v3l-2 4-2 5-2 4-2 4-1-1-1-1v-3h1l2-2 2-2 1-2 1-1v-2l1-2-1-2v-2l-1-3-1-2-1 1v1l-1 2-1 3-1 1-1 1-1 2-1 1-1 2v2l-1 3 1 3 1 1 1 1 2 2-4 6v-3l-1-3v-1h-1v2l1 1v2l-1 2v2l-3 3-4 3-3 3-3 2-1-1v-1l1-2h1l2-2 2-1 2-1 2-2 1-2v-1l1-2-1-2v-6l-1 1-1 1-1 2-2 3-1 1h-1l-2 1-1 2-1 1-1 2-2 3v4l1 1 2 2-5 3 1-4v-1h-1v1l-1 2v2l-2 1-5 3-5 2-5 1-6 2 1-2v-1h1l2-1h7l2-1 1-1 2-2 1-1v-2l1-3 2-3-2 1h-1l-2 2-3 1-1 1h-3l-2 1h-2l-1 1-3 3-1 1v1l-1 2 1 1v2z" class="B C H"/></svg>