<svg xmlns="http://www.w3.org/2000/svg" width="750" height="450"><style>.B{fill:#ffea0f}.C{stroke:#ffea0f}.D{stroke-linecap:round}.E{stroke-width:2.316}.F{stroke:#002a86}</style><path d="M-2428 2317z"/><path d="M0 450h750V0H0v450z" fill="#002a86"/><g class="B"><path d="M331 119c-6 0-13 3-18 6 1 2 2 2 3 1l3-1a1 1 0 010-1h1l2-1h1c4-3 9-2 15-2v1c-4-1-11-1-15 2 4 3 8 5 13 4l3-1c2 7 10 10 15 12l1-4-4-4c2 0 4 1 5 3s0 4-1 5h2l8-6h2l10 7v1l-2-1-9-6-9 6c-5 0-11-3-15-7l-3-5-3 1c-5 0-10 0-14-4-3 0-7 5-10 1-11 11-26 17-35 30 2 3 5-1 7-2l11-7v-1-1h-2l2-2 11-7 5-5v1h1c-6 5-10 10-16 12v1c1 1 3-1 4-1 3-2 6-5 10-6v1l-3 2h-1l-1 1-4 3-4 2a1 1 0 000-1h-1c-2 5-8 6-12 10l1 2h2l14-11 2-1a1 1 0 010 1l-2 1-12 10 1 1c5-1 8-6 12-8l11-9 1 1h-1a2 2 0 000 1l-9 7-8 6c2 2 5-1 7-1 0-1 2-3 4-3l-3 4a3 3 0 004-2c5-3 5-10 11-13 0 2-3 3-3 5l-3 5-2 2 3 1 6-8v1l-2 4c3 1 4-3 5-4l4-7h1v1a1 1 0 00-1 0l-3 7 1 1h1v-1l2-3h1v2l-1 1v1c2 0 3-1 4-3v1l-1 3h2v-1h1v2l5 2 1-1v2h-1l1 1 2-1v1l1 1h1l2-2v4a1 1 0 001 0l1-1v1h1l1 1 2-6 1-2c0-2-4-2-5-3l-12-12-1-2c-3 4-8 3-12 3-4-1-9-4-10-9v-1h1v2l1 2 3-2c1 2-4 3-1 4l2-3 1 1-1 3 2 1 2-5c2 1-1 3-1 4l-1 1c4 1 8 3 9-2a1 1 0 011 0v2h-1c3 2 3-2 5-3l2 3c5 5 9 12 16 14l3-5 5-1 3 4v8h6c0-3-3-9 1-10l7-1-2-9v-2l3-1c7-1 14-4 17-11 0 7-8 10-13 12l-6 1 1 4c3 0 7-3 10-4l2-2c4-1 7-6 11-6l4 2c2 1 6 0 8-3h2l8 5 1-1c-6-5-13-10-22-10-9-3-13 11-23 9-2 0-5 0-7-2-2 2-5 4-8 2l-6-3c-2 1-4 3-7 2-7-2-12-10-20-9zm15 9l3 3h-1c-1 0 0 0 0 0l-2-2v-1zm57 28c-5 4-11 7-16 9-4 2-9 3-13 3h-1v2c-1 2-4 1-6 1-2-1-6 1-7-1l-1-1-1-1-9-3-2-1c-2 0-4-1-3-3a1 1 0 01-1 0l-1 1h-1l-1-3a2 2 0 00-1 0l-1 2-5-4v2c-2 0-2-3-5-3v3h-1l-3-2-1 2c-2-1-3-2-5-1 0 2 1 3-1 4l1 1 2-2 3-2 1 1v1l-1 2h2l2-3v-1l2 1a14 14 0 001 0l-1 3 1 1c1-2 1-3 3-3v3c2 1 3-3 6-2v3c2 0 3-2 5-1l2 4 1-1c2 0 4 2 6 1s3 0 5 3l31 1c5-4 12-6 17-6a1 1 0 001 0c-6-2-10 2-16 2l-1-1v-1c5-1 8-5 13-5 2 0 5-1 7-3h-4c-2 1-4 4-6 2 0-2 3-2 4-4a2 2 0 00-1 0zm-20 13a2 2 0 011 1h1-3l1-1zm-6 0v1h1l-3 1v-1h2v-1z"/><path d="M367 112l-3 1c-3 1-4 5-4 8l-1 4h1v1h3l1-1a1 1 0 011 1l-1 2a1 1 0 001 0c3 1 5-1 7-2 0-3-3-5-1-8 1-2 3-1 4-2a3 3 0 001 1l1 1c1-2 0-4-1-5l-4 1-1 1v-1l-1-1-2-1h1-2zm0 2l2 1-1 2a2 2 0 01-1-2v-1zm49 15c3 1 6 4 10 3l18 11c2 4 7 5 9 8l-21-12-7-1c-4-2-7-6-11-7l-1-4c2-1 2 2 3 2m-14 0c-1 9-11 15-17 20l-4 2-2-11c6-1 12-6 17-9l4-3 2 1m16 6c-1 2-3 2-5 1v-1c-2 1-3 3-4 1-3-1-3 3-5 1h-3c0 3 3 1 4 2 2 1 3-4 5-1 1 1 2-1 3-1 0 2 2 1 3 1h2c1 3 4 5 6 7 1-2-2-3-3-4l-2-5h1c3 1 7 6 10 4 4 0 6 4 10 5l8 5c3 1 5 2 6 5l-1 3v-1l-16-11v2l14 10c0 1-1 3-2 2-4-1-7-4-11-7-3-4-8-6-10-10h-1v1c6 5 11 13 19 16l-1 1-5-2c-1 2-3 1-5 1-2-4-6-7-9-10 0-1 0 0 0 0 0 3 4 6 6 9l-1 1-4-4h-1l-8-10h-1c2 5 5 8 9 12v1l-8-6-4-8-1 1c1 3 3 5 3 8h1c-3 0-4-3-6-4l-1-6h-1v6c-1 0-1-3-3-2-1 2-5 1-6 3v1l-1-2-2 3-2-1c-2 0 0 2-2 3-1 0 0-3-2-2v3h-3v2h-2l-2 2-1-3c-1-1-2-4-1-5 6-1 10-7 14-11 5-3 6-7 7-11 3 1 6 0 9-1 1 3 4 4 6 6m-54 14l-2 17h-2v-4c-2 1 1 6-3 4l-1-2-1 2-2-1c0-2 3-3 2-5-2 1-3 3-3 5h-1c2-4 1-9 3-13v-1h1l1-3 2-2 1-1c2 0 4 2 5 4m10-2h-2l-2 2c2 6 1 12 3 17v1l3-1h-1v-4l1-1 1 6 6-2-1-4a1 1 0 010-1c-3-4-1-9-4-13h-4zm5 15l1 3-1-2v-1zm-9-4c0 3 0 7 2 10 1 1 0 2-1 2-1 1-2-2-4-1v-2l-1 1v1h-2c0-1 1-3-1-3l1-9 6 1m-9 12v-3h2v3h-2"/></g><path d="M306 172s-4-7-9-8-8 0-11 2-10 6-14 19c-4 14-4 22-3 30 0 0 5 35 23 59s33 37 43 43l34 14s32-8 57-34c24-26 28-36 35-53s7-30 6-39c-1-10-5-29-14-35s-14-5-19-4-8 7-8 7l-120-1z" fill="none" stroke-width="3.5" class="C"/><g class="B"><path d="M347 181h-1l1 3 2 28-3-1-1-8h-4v7h-4l-3 3-1-9h6v-2h-6l-1-14h-2v26l-5-1-4-17h-1l-1 1-4-1v6l5 1 2 11-1 1 2 4 11-1 1-2 2 1 4 1 1-2 3 1 10-2 53 1-2 3 2 2h31l-1 5v4l-3 4 3 1-5 6 3 1-3 3h5v11l2-1v-3h3v4h3v-6h2v6h2l1-17 3 2-1-5h1l-2-6v-5l2 1 1 3-1 2 2-1v17l-3 4 3-1v1l3-5v-16l1-5h3v-1l-3-2 4-2-3-2v-5l3-3-3-1-1-4 2-2-2-3-1-3 4-1-7-6-8-4-3-3h-3-1l-14 12-2 6-4 5-1 2 1 1 5-1 1 1h-2l-6 3-4 2h-1l6-4-2-1-6 3-2 2c-1 0-6-8-13-8s-12 8-12 8l-14-2v2l-9-1 5-1v1l3-1-14-4-1 4-4-1-3-27v-3a1 1 0 00-1 0zm104 10l2 1 1 3-1 3 2 2 1-2h1l-2 4a1 1 0 000 1h1l1 1v5l-1 1a2 2 0 010 1 2 2 0 01-1 0l1 1 1 7c0 4-2 5-3 5l-2-6 2-1-3-6 3-1-2-3v-5-3l1-3v-2-1l-2-2zm-3 1l-1 1 2 2v5c0 1 3 2 1 6l-2 7v4l-1-1v-3l-1-1 1-5-1-5-8 2-3 2-1-2 9-3h2l2-5-2-2 3-2zm-9 15h1l1 1-2 3 1 1 3 2 1-5h1v2l-2 6 1 3-1 2h-1v-1l-1-2v-1l-2 1-2-2-2 1-2-2-1-4h-1l-1-1 4-3v1l-1 2v3c1 2 2 2 3 2l1-1 2 2h2l1-2-5-3a2 2 0 010-1c-1-1 0-2 1-3l1-1zm10 12l-1 2-1 3-1-5h3zm-6 5l1 2-1 3-2 1v-3l2-3zm4 5l2 1v3l-1 4-2-2 1-6zm-5 3l1 2-1 2h-1v-3l1-1zm0 6l1 2v1h-2l1-3zm4 3h2l-1 6h-1v-6zm-5 3l3 1-3 3h-1v-3l1-1z"/><path d="M351 217l-4 2v1c-2 1 0 7 1 11s9 15 9 15l3 7-1 2c-1 1-2 4-2 9 0 4 4 6 6 7h6l1 1-23-1 1-7 2-3 1 6 1 1v-1a1 1 0 001 0v-6-14c0-3-2-3-2-3l-6-1v-1l-4-2-11-1-14 1-14 2-4-3-2 1-2 1 1 3-2 9 2 3 4 1 1-2v1l1 2h7l3 6-1 7-4 1v1l4 1h32l14-1 19 1 15 1h17l19 2a2 2 0 001-1l-4-2h-9a20 20 0 011 0c4 0 8-4 9-7l1-7h8c2 1 3 0 4-1l2-2h-6l1-4v3h3l-1-9-3 2 1 1-1 1-1-3-3 5h1v3h-4v-7c0-4 6-16 9-18 2-2 2-5 1-6l-6-2h-6l-7 1h-7c-3-2-6-1-8 0-2 0-4 0-5-2h-12c-1-2-2-1-6-1-4 1-4 0-6-1s-8 1-11 1-4-1-7-3l-3-1h-1zm-52 31v2h-1-1v-1l2-1zm7 2a2 2 0 011 0l-1 1v1h-1l1-2zm116 2l1 5-3-3-8-1c-5 0-8 5-8 5h-1l1-5-25 1 4 2 4 6-1 1h10v5l2 4h-16l3-5 1-4-1-3-3-4-11-2-2-1 53-1zm-31 2l1 1v2h-1v-3zm23 1l1 1-1 3v-4zm-101 0l1 2-1 12-2-9-2-4 4-1zm50 0l4 1-2 2-2-2v-1zm37 0h1l-1 3-1-2 1-1zm12 0l1 4h-2l-1-3 2-1zm-4 1l1 3-3-1 2-2zm-35 0h2l-1 4-2-2 1-2zm44 0l1 1-1 2h-1l1-3zm-40 1l2 1-1 3h-1l-1-1 1-3zm-37 1v2l4 3-1 7-7 1 4-13zm21 0l4 1-1 1-3-1v-1zm29 0h5v1h-5v-1zm-20 1l2 2-1 1h-2l1-3zm36 0l3 2v2h-3v-4zm-89 1l5 4v6h-6l1-10zm103 0v2h-3v-2h3zm-40 0h1v3h-3l2-3zm-20 1l4 1h-4v-1zm54 1h1v1a2 2 0 010 1h-1a1 1 0 01-1 0v-1-1h1zm-79 0l-3 9h-5l-1-3v-6h9zm39 1h1v1h1a1 1 0 01-1 0 1 1 0 010 1l-1-1v-1zm-9 1v1l-3 1-1-1 4-1zm52 0h2v1h-2v-1zm-48 0h3v1l-2 2-1-3zm31 0h2l-1 2-1 1v-3zm9 0v2l-2 1-1-2 3-1zm-31 1h3v2l-3-1v-1zm38 1l1 3-2 1-1-4h2zm-51 0l1 1-1 2-1-1 1-2zm11 1h1l1 2-2 1v-3zm-2 0l1 1v2h-3l2-3zm36 1l-1 3-1-1 2-2zm2 1h1v2h-2l1-2z"/></g><g fill="none" stroke-width="1.2" class="D"><path d="M355 234l-3-6c0-2 1-6 3-4l4 6v3m2-9l5 10 1 7m4-1l-1-11m13 14l1-10m12 5v-6m10 9l1-10m11 11l3-9m-52 9l4 2 3 1v3m0-3s0-2 2-2c3 1 5 0 5 3v3m3 0s-1-4 2-4l6 1v3m8 0s0-4 3-4m9-1s-3 0-3 2v3m6-1l2-3 3-1m-62 0l4-1" class="F"/><path d="M428 263h2m2 0l11-2m-14 6l2-1m-6 3l6-1m0 3h6" class="C"/><path d="M361 246l4-1m-3 3l3-2m-2 4l3-2m-3 3l4-1m-63-5l8-2 4 1 4-1h12m12 1h-2m-25 2l-2 2 1 3c-1 1-2 2-1 3h2m1-3s0-2 1-3h3m3 5l2 6" class="F"/></g><path d="M288 182h-2v1l-3 1h3v2l-2 2-2 4-1 5-8 7 10 11 27 1 1-3 2-2v-6l1 1v-1h-5v2l1 1-1 2h-2v-11h3v-2h-6v14l-5-1v-6h3v-9l-3-1v-2h2v-6h-2v-3h-2l-1 4-2 3v2h3v2h-6v5h-2l1-9 3-3-5-1v-4zm-2 18l1 11h-3v-10l2-1zm-4 3v7l-2-2 1-5h1zm12 0h2v8h-8v-3h1v1h5v-6zm-16 1l-1 2-1-1 2-1z" class="B"/><g class="C"><path d="M410 209l12-4m-13 3l16-8 35-18m-2-5l-49 29m43-35l-45 33m26-36l-27 37 39-38m-22 7l-19 30m9-31l-11 29m5-29l-7 29m1-29l-3 28m-4-28l1 28m-9-28l7 28m-20-28l18 28-11-28m-15 0l23 30m-30-30l29 32m-37-32l35 33m-47-33l47 32m-59-32l58 33m-96-40l95 41m-102-37l99 41m-104-34l104 35m-107-30l97 28m-98-20l10 2m40 9l21 7m-73 6h12m28 0l11 1" fill="none" class="E"/><g class="B"><path d="M280 218l-2-1-4 1 3 1 3-1m1 4l-3-1-4 1 3 1c1 1 4-1 4-1"/><path d="M286 222l-3-1-3 1 3 1 3-1m-4 3l-3-1-3 1 3 1 3-1M286 220l-3-1-3 1 3 1 3-1m7-1l-3-1-3 1 2 1 4-1m0 4l-3-2-3 1 2 1h4m7-4l-3-1-3 1 2 1 4-1m-8 6l-3-1-3 1 3 1 3-1m8 1l-3-1-3 1h6m-3 3l-2-1-4 1 3 1 3-1m6-8l-3-1-3 1 3 1 3-1m4 2l-2-2-4 1 3 1h3m4-2l-3-2-4 1 3 1h4m8-2l-3-2-3 1 3 1h3m-1 3l-3-1-3 1 3 1 3-1m7 0l-3-1-3 1 3 1 3-1m-11 5l-3-2-4 1 3 1h4m6 2l-3-2-4 1 3 1h4m9-1l-3-1-3 1 3 1 3-1"/><path d="M285 261h11l-2 2 4-2 11-1" class="E"/><path d="M306 265l-3-1-4 1 3 1 4-1m1 3l-3-1-4 1h7m-7 3l-3-1-3 1 2 1 4-1m9 8l-3-1-4 1 3 1 4-1"/></g><g fill="none" class="E"><path d="M321 286l6-1 5 1c2 2 1 2 1 4 0 3-5 3-10 4-4 0-2-4-2-9 0-4-1-4-5-4s-10 4-10 4l5 2v4l9-1" class="D"/><path d="M427 287s-6-5-10-5c-4-1-7-1-6 3l1 7h4l5 1v-5l6-1zm-98-8s-2 8 7 7h67s5 0 4-4c0-4 2-6-10-7l-63-1s-6 0-5 5z"/><path d="M402 287s0 4 3 5c6 3 9 0 9 0m-4-8l-3 1" class="D"/></g></g><path d="M359 287l2 4-4-2-1 2 3 3-5-1-2 4 9 2-1 7-8-1-3-9-3 1 2 8h-11l3 10h2l-2-7 9 1 1 3-5-1v3l9 3 2 5 8 2 18-1-1-4 4-2c3-1 6-9 6-9l3-1-4-1 5-7h8v-2h-8l-4 2 2-4 8-1v-1h-9l-10 12h-3l1-7 3 1-2-2 3-1-1-1 1-2-6-1 3-3-3-2-4 4 1-4h-7v3l-1-3h-4v3l-1-3h-3zm-1 21v2l-3 3-2-5h5z" class="B"/><path d="M360 315l-2 3m8 2l2-2m4 3l1-2m-9-14h9m5 4l-5 7h7" fill="none" class="D E F"/><g class="B"><path d="M339 279h-2v-2h6v2h-2v5h-2v-5" class="C"/><path d="M344 284v-7h2v3h3v-3h2v7h-2v-3h-3v3h-2m8 0v-7h6v2h-4v1h3v1h-3v2h4v1h-6m17-7v4c0 2-1 3-3 3s-4-1-4-3v-4h2v4l2 2 1-2v-4h2m2 0h2l3 5v-5h2v7h-3l-3-5v5h-1v-7m8 7h2v-7h-2v7zm3-3c0-3 2-4 4-4s4 1 4 4-2 3-4 3-4-1-4-3zm4-3l-2 3 2 2 2-2-2-3m5-1h3l2 5v-5h2v7h-3l-2-5v5h-2v-7m-132-67l2 3h3l-2 3v3l-3-1-3 1v-3l-2-3h3l2-3m0-14l2 3 3 1-2 3v3l-3-2-3 2v-3l-2-3 3-1 2-3m4-15l1 4h3l-2 3v3l-3-2-3 1 1-3-2-3h3l2-3m5-14l1 4h3l-2 3v3l-3-1h-4l1-3-1-3h3l2-3m-8 56l2 3h3l-2 3v3l-3-1-3 1v-3l-2-3h3l2-3m1 14l2 3h3l-2 3 1 3-3-1-4 1 1-3-2-3h3l1-3m5 12l2 3 3 1-2 2 1 4-3-1-4 1 1-3-2-3h3l1-4m4 12l3 3h3l-2 3v3l-3-1-3 2v-4l-2-2 3-1 1-3m7 12l2 3h4l-2 3v4l-3-2-3 2v-3l-2-3 3-1 1-3M285 285l2 3h3l-2 3 1 3-3-1-4 1 1-3-2-2 3-1 1-3m8 10l2 3h4l-2 3v4l-3-2-3 2v-3l-2-3 3-1 1-3m11 10l2 3h3l-2 3 1 3-3-1-4 1 1-3-2-2 3-1 1-3m12 8l2 3h3l-2 3v3l-3-1-3 1v-3l-2-3h4l1-3m11 7l2 3 3 1-3 3 1 3-3-2-4 2 1-4-2-2 3-1 2-3m12 7l2 3 3 1-2 3v3l-3-2-4 1 1-3-2-2 3-1 2-3m14 5l2 3h3l-2 3v3l-3-1-3 1 1-3-2-3h3l1-3m15 2l2 3 3 1-2 2v4l-3-2-3 1 1-3-2-2 3-1 1-3m-76 76h13v-45h-13v45zm39-22c-6-1-8-5-8-10 0-9 8-12 15-12 8 0 14 3 14 12 0 5-1 9-6 10 6 1 9 6 9 13 0 10-10 11-18 11s-17-3-17-12c0-7 4-11 11-12zm14 10c0-4-3-6-7-6s-7 2-7 6 3 6 7 6 7-2 7-6zm-13-19c0 3 2 5 6 5s6-2 6-5c0-4-2-6-6-6s-6 2-6 6m40 19c1 1 5 3 8 3 5 0 6-1 6-5s-2-7-4-7c-2 1-8 1-8 4l-7-3 4-23h25v9l-15-1-2 7h5c9 0 14 5 14 13 0 11-6 16-16 16-9 0-12-3-14-4l4-9m46 4l6 1 3-1c3 0 7-2 7-8-3 3-6 3-10 2-6-1-11-6-11-14 0-11 6-16 15-16 13 0 18 11 18 25 0 6-3 13-6 15-4 5-9 6-13 6-8 1-13-2-13-2l4-8zm10-28c-4 0-7 3-7 7 0 5 3 7 7 7 5 0 7-4 7-7 0-4-3-7-7-7M138 68l-6 5s-4-4-8-3c-3 0-7 4 1 9s9 12 9 17c0 7-6 12-11 12-9 0-18-6-18-6l5-8 9 4s5 0 4-5-10-14-12-18c-3-6 5-16 10-15 9 0 12 2 13 3l4 5m6-6v11l10-1 1 34 10-1V71l9-2v-9l-30 2m61-6l-14 2-10 46h11l2-8 12-1 2 5 10-2-13-42zm-6 14l5 16-9 2 4-18zm20-17v10l12-1 1 35 13-2-1-35 9-2V47l-34 6m43-7l1 44 28-4v-9l-17 2 1-8 7-1v-9l-7 1v-9l17-4-1-9-29 6m76-8c-9 0-19 6-18 21 2 21 10 27 20 27s18-13 17-25-5-24-19-23zm0 9h1c8 0 8 9 8 14s-1 14-9 14-8-9-9-15 4-13 9-13zm49-8l-23-1v46h11V65h5v-9h-5v-9h13l-1-8m46 3c-10 0-20 6-19 20 1 22 9 28 19 28s18-13 18-24c0-12-4-24-18-24zm0 9h1c8 0 7 9 7 14s-2 15-10 14-7-9-8-15c0-6 5-13 10-13zm27-6h-1l-1 49 9 2V85l16 15 2-11-8-8s11-6 11-13-2-15-12-19c-7-3-13-4-16-4zm10 13l6 1c3 1 2 8 1 12-1 3-10 4-10 4V58h3zm29-3l-3 45 24 5V95l-12-4v-7h7V74l-6-1v-8l11 2 1-9-22-3m61 18l-7 5s-4-7-11-3-7 11-6 17c1 5 2 10 7 11 9 1 7-4 7-4l-6-1v-9h16s0 17-4 20c-5 4-16 7-23 0-6-6-8-14-7-24 0-5 3-15 9-18 5-3 12-4 15-2 4 1 10 8 10 8m25-4c-10 1-19 6-18 21 1 21 10 27 20 27s17-13 17-25-5-23-19-23zm0 9a6 6 0 011 0c8 0 8 9 8 14s-1 14-9 14-8-9-9-15 4-13 9-13zm26-7l1 45 9-1 1-19 12 18h11l-1-46-10 1 1 24-17-22h-7M477 211l-2 3h-3l2 3-1 4 3-2 4 1-1-3 2-3h-3l-1-3M477 198l-2 3h-3l2 3-1 3 4-1 3 1-1-3 2-3h-3l-1-3m-4-16l-2 4-3 1 3 2v3l2-1h4l-1-3 2-3h-4l-1-3m-5-13l-2 3-3 1 3 2v4l3-2h3l-1-3 2-3h-3l-2-2m8 55l-2 3h-3l2 3-1 4 3-2 4 1-1-3 2-3h-3l-1-3m-2 14l-2 3h-3l2 3v3l3-1 3 1-1-3 3-3h-4l-1-3m-4 13l-3 3h-3l2 3v3l3-1 3 1v-3l2-3h-3l-1-3m-5 11l-2 3h-3l2 3-1 4 3-2 4 2-1-3 2-3-3-1-1-3m-7 12l-2 3-3 1 2 2-1 4 3-2 4 2-1-3 2-3h-3l-1-4m-7 12l-3 3h-3l2 3v3l3-1 3 1v-3l2-2-3-1-1-3m-9 10l-2 3-3 1 2 2-1 4 3-2 4 2-1-3 2-3h-3l-1-4m-10 10l-3 3h-3l2 3-1 4 4-2 3 2-1-3 3-3-3-1-1-3m-12 8l-2 3h-3l2 3-1 3 3-1 4 1-1-3 2-3h-3l-1-3m-11 7l-2 4h-3l2 3v3l3-1 3 1-1-3 2-3h-3l-1-3m-12 6l-2 4h-3l2 3-1 3 4-1 3 1-1-3 2-3h-3l-1-4m-15 5l-2 3h-3l2 3v3l3-1 4 1-1-3 2-3h-3l-2-3"/></g></svg>