<svg xmlns="http://www.w3.org/2000/svg" width="675" height="450"><style>.B{fill:#9a3b26}.C{fill:#efe8c7}.D{fill:#b3995d}.E{fill:#773141}.F{fill:#1d5c42}.G{fill:#1691ff}</style><path d="M-2514 2317z"/><path d="M0 450h675V0H0v450z" fill="#0073cf"/><path d="M374 234" class="B"/><path d="M292 80h-1c0-8-4-15-8-21l-2-2 1 15v1l-2-5-4-4-7-5-2-1h-2v3c3 4 8 8 10 13l-3-1-1 1 4 6c-6-3-4-10-10-14l-2-1 2 5 1 3h-1l-5-2 7 11c2 4 4 9 7 12l-1 2-2 1-3-1c-1-1-1 0-1 1l3 3-1 1h-1c-4 6-8 11-10 18h-2c-1 2 0 3 1 4l-1 2-1-1c-3 1-1 4-1 5l-4 19c-1 1-3 2-3 4l-1 2-4 1v2l3 1h1c-1 2-3 2-4 2l-5 2 1 1c1 1-1 1-2 3v16l1 1v7h1v11l1 1-1 3-1 11h1c0 1 0 0 0 0v1 12h2l-1 3c-2 2 0 5-1 7l1 1v1c0 2 0 4 2 6l1-2 1-3c3-2 2-4 3-7-1-2 1-4 1-6l2-6c-1-2 1-4 1-6-2-3 1-6-1-9 2-1 1-3 2-4 1-2-2-4 0-6s0-6 3-7l1 1h1l6 15 10 15-7 7-5-8v-1c-2 0-4 0-5 2l-3 4c-1 3 3 5 5 7l2 1c-3 5-8 9-12 13-2 4-8 7-8 11l1 1c9-6 16-14 25-22v1h2v-3l9-8-2 7-3 2-3-1v4h-2l-1 5 1 1v3l-2 2v7h2c0 2-1 2-2 3l-1 8 1 4c-1 1-2 2-1 3l1 7v4l1 7v4l1 1c-1 2-1 5 1 6-1 2 1 4 1 6l1-3c2-2 3-6 2-9 3-1 2-4 1-7 2-1 1-4 1-6l1-5 2-7v-3l1-3v-8l2-5-1-5 2-2c1 1 1-1 1-1v-5l-4-7 2-5 1 1a4 4 0 00-1 1c2 4 5 1 7 4v1c0 1 1 2 3 2 1 1 2-1 3 1l11 7h-1l-2 2-4-1v1l2 2 4-1-2 3c-1 2-4 4-7 4v2l1 2v1c0 2-1 4 1 5v2l1 2c0 2-1 5 1 6-2 2 0 4-1 5l1 1v3c1 2-1 4-1 6 2 2 2 6 1 8l1 1c0 3-2 5-1 8 2 4 0 10 4 14l1-1c2-3 2-6 3-10 2-1 2-4 2-6l1-9c1-4 3-8 1-12l-1-1c1-2 2-5 0-7l1-1 1-1v-2c-2-3 1-6 0-9-2-3 1-6 0-9l-3-1c-3-1-1-4-1-6h1c3 3 8 3 12 4l2 1 2 1h3c1-1 1 0 2 1s3 0 4-1l1 2-1 5-3-3c-2 1-2 2-2 3l1 2v1l-5 1 1 6h2v3c-4 1-1 5-2 7 0 2 2 1 3 2-1 1 0 3-2 4l-1 2 2 1-1 7 1 1v4c-2 2-2 4-1 6v1c0 2-1 4 1 5l-1 7c0 2 2 5 1 7-1 4 1 8 1 12 2 0 2-2 3-4l2-7c0-3 1-5 3-8v-5l1-5v-1c2-3 2-7 2-11l1-7 2-11c-1-1-2-3 0-3v-7l1-2-1-2-3-5h-3v-7l8-1c8 0 16-1 24-4l2 1-1 4v1c-1 1-2-2-3-2l-1 2c-1 1-2 2-1 3l-2 1-1 2 2 1-2 1v9 4h2l-2 2 2 13h1l-2 4c2 3 2 7 1 11l1 3 1 1v4l1 3v1l-1 9 1 1c1 0 2-1 2-3l1-3c2-2 2-5 3-7l2-10v-12c2-2 1-4 2-5l1-6-1-4c1-3-2-5-2-7l4-1-1-3h2v-3l-2-2v-2l-4-7c-2-1-1-4-1-5l9 1c3 0 5 3 9 2l3-1 3 6-1 4 1 3-1 4 1 1c-2 2-1 5-2 7v2c-1 3 0 5 1 8l-1 3c2 2-1 3 0 5l-1 7v5c-1 2 1 4 1 6 0 1 1 2 2 1l1-3c-1-3 4-4 3-7l3-9c1-1 2-2 1-4-1-3 2-5 2-8-1-3 1-5 1-7v-1l5 6 4 7v-1c2 3 5 4 8 6 1-1 0-3-1-4l-1-2-1-3-2-1-5-10-4-8 1-1-1-5-1-2 2 1 1-3c1-2-1-3-2-4h2l2-3-1-2c3-3-3-5-3-8h1c2 0 1-3 2-4l-3-2c-3-3 1-7 0-11 3-1 2-4 2-7h1v2h1l1-4 1-1 2-4 2-6 1 1v6l2 1-1 1c-2 3 0 5-2 7 1 3-2 5 0 7l-1 1c0 2 1 2 2 3l-1 2v5c-1 1-2 3-1 4 2 2 0 4 0 6-2 3 1 6 1 9h1c1-1 3-3 3-5l3-5c2 1-1-1 1-1-1-3 2-5 1-7l3-9 3-11c2-2 2-6 2-9l1-10c3-3-1-7 1-10l1-8c0-2-2-1-3-1l-2-5 1-2v-2h-3c-1 2-1 0-2-2l-1-1-2-4c1-7-1-13-2-20l-1-6 1-1-3-4-1-1v-2h1c1-2-2-4-4-5l-1-3-8-15 12-12 3-4-2-4 1-1 1-2-2-3-3 3-2-2-4 1-9 9-1 1c-2-1-3 1-4 2l-4-3v-2h-3l-1-1-2-2c-5-3-10-7-16-9-6-3-13-5-20-6h1v-2h-3c-1 2-3 1-5 1l1-2-6 2h-9l-22 4-5 1-1-1c-3 1-3 4-5 5l-3-5c-1-2-3-4-6-4v2c2 3 3 6 3 10"/><path d="M419 230v1l5-1v-2l-4 1-1 1m9 1l-1-3c1 1 2-1 2-1 1 1-1 2-1 3v1" class="B"/><path d="M432 215l-2 3-1-1-1-2-1 3c-1 3-4 4-7 4-2-2 0-4 0-6v-6l2-4h-1l-1-5v-3c3-8 6-16 7-25l1-1 1 4-1 4c2-3 2-6 1-9l-1-2-1-4 1 1 1 2-1-3h1l1 1v1l1 17v-5l2 2-1-2-1-1v-10c1 1 2-1 3-1v3c-1 1 0 2 1 3l1 4 2-1v5c1 4-2 7 0 11l-2 3v9l-1 6-4-3v-1l1 5 2 2a25 25 0 00-1 2h-1" class="C"/><path d="M433 216l-2 8-1-1-2-3-1 4-2-1-4 2h-1l-1-1 1-2 5-1 4-4 1 1 2-2h1" class="B"/><path d="M420 226v1l-1 2h1l4-2v4h-5v2l-1 3 2-1h6l2-3-1-1-1-4 2 1 1-3 1 2v-1l1-2-3-3v2l-1 2-1-1h-1l-4 1-1 1" class="C"/><path d="M406 272l-2-2 1 4-1 1h1l1-1v-2" class="B"/><path d="M336 302v-1l-1 1h-1l-1 1c1 2 2 4 1 5v3h-3c1 2 4 4 4 6s-1 4-3 5l-2-2v4c1 2 0 6-2 8l-1-5-1 1 1-3h1v-6l-2-1 1-5 4-3v-2c-2 0-4 3-5 0l1-1 4-5c-1-1-3 1-5-1l1-4-2-1 2-7-2-1c-1-2 2-2 2-5l1-2 1-2-4 2v-6l2-2-1-3h-2v-1-5l5-1-2-3 2-2c1 1 2 3 4 2v-7l2 1v4c1 3-1 6-1 9l3 6-2-4v-4-4l3 1c0 3 3 4 3 6v1 2c0 2 0 5-2 6l1 3-1 9v2l-1-3-2-2 1 7h-1l-1-1-1-2 1 2v1l2 4v5h-1" class="C"/><path d="M336 302l-1 1-1-1 1 3v3h-1v3l-1 1-1-1 3 4v-6c2-2 2-4 2-6l-1-1" class="B"/><path d="M246 157v-2l-4 1v1h4" class="C"/><g class="B"><path d="M428 169l-1-1-2-4-2-1h-1l2 4 4 5v-1l-1-1 1 1v-2m-171-45l1 1v3l-2-3 1-1m23 105l-3-3 2-1 5 4-3 1-1-1m134-20v-1c5-11 8-23 10-35l1-4c3 3 1 5 1 8l-4 15-2 3-5 14h-1M418 127a22 22 0 013 1v-1l-1-1-3-2 1 2v1"/></g><g class="C"><path d="M403 90c3 4 2 11 3 16l16-17c1-1 2-2 1-3-1-3-4-5-6-7h-2l-11 10-1 1"/><path d="M422 82l2-2-3-2-2 2 2 3 1-1"/></g><path d="M388 88h-1v1c2 1 5 0 6 2l-1 1c1 2 2 0 3 1l3 1v1l-6 5c-1 1-2 2-4 1v-5l-6-1v2l-1 4h-5l-1 5 2 1h3v4l-29 30-1-9c-1 0 0-2-1-1-2 1-2 3-3 5l-2 8v3c0-8-1-16-6-22l-1-1-1 1c2 4 1 10 0 14v-7c0-6-2-11-5-16h-2v1l-1 20 2 9v4l-1-2-5-6 4-8c2-9 0-20-3-29-1-2-2-4-4-4l-1 1c3 6-1 12 1 18 0 6 2 13 0 19h-1c-2-1-3-4-2-6l2-8c0-7 1-14-5-19-1-1-2-3-4-3l-1 7c3 4 4 8 4 12l-2-1-4 2-2-4 1-2c2-5 4-11 2-17-1-2 2-1 2-2v-6l-5-1v-5l-6-2v-4-1l1 1c2 0 2-2 3-4l13-3 21-3 1 1v1c2 1 3-2 5-2l2 1v1c2 1 3-1 4-1h2l11 4c8 4 17 7 25 12v1" class="D"/><path d="M391 86c-11-9-24-15-38-18l-3 3 8 2c9 2 17 7 25 11l6 3 2-1" class="B"/><path d="M382 242c3 2 5 4 9 4v-1l-3-6-5 3h-1" class="G"/><path d="M382 242l-1-1 1-1 5-3 1 1-5 3-1 1m-15 5v2l-9 2c-5 2-11 1-16 2h-10l3-2h11c8-1 14-1 20-4h1" class="B"/><path d="M389 187c-4 0-6 3-7 5l-7 13-2-4 4-6c4-5 3-13 3-20v-8-1l-1 1c-8 6-5 17-8 25l-1 6-4-4v-1l3-4 3-10c1-6 4-11 4-17 0-2 0-5-2-7-1 3-3 4-5 6-4 4-7 10-5 16v1l-1-1c-2 1-4 4-4 6l-2-4c3-3 4-7 4-11l-2-15 13-13 19-19 10-9-2 8 2 5c-2 4-2 8-1 12l-1 10c-2 3-1 7 0 11-2 3-1 8-1 11l-2 7c0 2 2 4 1 6v4l-1 3v6l-1 1 1 3v4l2-1v-2-4l1-4 1-1v-5l1-2 1-6v-1l2-6-1-2c0-1-1-3 1-4h-1c2-2 1-4 2-6l1-4v-3c3-3 3-8 2-12 3-4 2-8 1-12 2-4 3-9 2-13v-2l4 7v1l-1-1v1c0 2 2 2 3 3v2l1 1-2-1h-1c0 3 3 3 5 5 3 8 3 17 3 26-1 2 1 3 1 4v2h-2c-1 2 2 3 2 5-2 14-5 27-11 39v-1h-1l-1 3h-1v-1l-2 1c-1 0 1-1-1-1l-4 6-2 7c-1-6 5-11 2-17l-1-5-1-2c0 4-2 8-4 11l-3 6h-1c0-7 0-18 2-25l-1-5-3 2-2 1m-43-12l-4 1c-2 1 0 3 0 5l-5-1-5-1 2-2v-1l2-1c2-2 6-1 9-1h1v1" class="D"/><path d="M370 235l6-2v4h-6l-1-1 1-1" class="B"/><path d="M308 130l-6-10-6 4c-8 2-15-4-23-2l-2-1 3-3 3-1c-2-3-2-8-6-10l-1-2a1 1 0 012 0c6 1 9 7 14 10l7 1c3 0 5 2 7 1-1-2-2-6-6-6l-11-1-2-1c-3-1-6-4-9-7l-1 1-2 3c-4 6-8 11-9 17l1 5-2-1-1 2 1 4h-1l-1-1v1c-2 4-3 13-3 13-1 10-1 21 1 30l1 7 3 3-2 1v2l5 3-1 2h-1l2 4c3 7 7 15 12 21l5-5 20-21h2v-4l13-12-3-1 3-2h-6l-5-1h-1v-1c2 0 2-1 3-2-2-1-5-2-5-5l1-1c2 0 5 2 8 0 4 0 9 0 13-3l-14 3-10-4-4-3c4-4 8 1 13 0l9-3c3-1 7 2 10-1l-1-2-1-2-3-2-3 2-6 3c-2 1-5 2-7 1-4-1-8-2-11-5l-4-6 1-1h4c4 2 7 5 12 4l9-3-2-2-7 2c-6 2-9-4-15-2l-4-1-5-2-2-3-1-1-3-4h2l7 2 7 1 7 3 3 1-1-2v-3h6v-1" class="D"/><path d="M368 247l2 1-2 1v-2m43-37v1h1l-1-1M272 98l2 1 3-4-2-1-2 2-1 2m67-28l1-1 1-2h-11a106 106 0 00-25 6l-1 3 6-2 20-4h9" class="B"/><path d="M292 80"/><path d="M291 85l-1 5 1 2c0-3 3-5 2-9l-1 1-1 1" class="D"/><path d="M347 65l-5 5-3 2c0-2 2-4 4-5l3-2m7 1c1 2-1 2-2 3l-4 3 1-2 5-4m-4 2l-2 2h-3l2-2h3m-47 10l-1 2c-1-3 1-6 3-8 2 2-2 4-2 6" class="B"/><path d="M276 75l4 3c1 2 3 3 3 5l-3-1-5-2-3-7 4 2" fill="#395839"/><path d="M300 76l-1 2v-1l1-1m5 10v5l6 1v6h-2l-5-7h-1v16h-2c2-6 3-14-1-20v-2l5 1" class="B"/><path d="M280 88l-1 1-2-2 3 1" class="G"/><path d="M395 88l-7 1 2-2h5v1m-112 2l-1 1-2-2c1-1 2 1 3 1m112 0h-3l3-1v1" class="B"/><path d="M348 90v6l3 1 1 4c-1 1 0 3-2 3l-3-1-2 10h-5c-2 0-1-3-1-3v-7l-4-1v-6c2-2 6 1 5-3l1-4 7 1"/><path d="M401 110v1l-1 1-36 35-6 5c-1-4-1-8-4-10h-1v10l-1 6-1 1c2-6 1-11 0-17v-1l32-32 15-14c0 5 2 9 4 13l-1 2m1-8c-1-3-2-6-1-10 2 4 2 7 2 11l-1-1" class="C"/><path d="M401 102l-1-9 1-1 2 3v13l-1 3c-1 4-4 9-1 13h0l3 6 4 9c2-4 1-8 0-12-4-4-5-10-6-15l4 10 3 5 2-12c-1-3-3-7-7-8h1v-1c0-5 0-10-2-15l-1-2c-1 2-3 2-3 4-1 3 0 7 2 10l1 4v-1l1-2-2-2" class="E"/><path d="M347 91v6h2l2 1-1 5h-4l-1 10h-4l-2-1 1-10h-5l1-6 5-1v-5l6 1" class="B"/><path d="M286 92l-3-1c1-2 2 1 3 1" class="D"/><path d="M398 90v1l-3 1h-2v-1h1l4-1m0 3h-2l2-1v1" class="B"/><path d="M296 96l2 1-1 7-2-4v-4h1" class="D"/><path d="M296 96h2l-1-3-2 3h1" class="B"/><path d="M289 98l5 9c-3-1-4-4-7-4l-13-4 3-3 12 2" class="D"/><path d="M387 96h1v6h1l-8 9v-4l-5-1v-4l5-1 2-5h4m-117 4l-4 5c-4 4-6 9-8 14l1 3c3-7 8-13 13-20l-2-2" class="B"/><path d="M406 106l-1 2 4 2-3-3v-1" fill="#d1b881"/><path d="M406 106l2-2c4 4 6 9 9 14l1 3c-4 0-3-4-5-6l-6-8-1-1" class="B"/><path d="M303 109c0 2 2 4 1 6-1-2-5-4-4-7l3 1" class="D"/><path d="M258 120l2 8-4-7 1-2 1 1m164 5v1l-7-4-1-1c3 0 7 1 8 4m-166 2c1 1 3 3 3 5-2 0-3-2-4-3v-1c0-1-2-2-1-4l2 3" class="B"/><path d="M407 139l1 2c0 3 1 7-2 10l-1-5c-1-5-5-9-5-15l1-5c3 4 4 9 6 13" class="E"/><path d="M425 133c-4 0-5-4-9-5l-1-1c4 0 8 2 10 6m-169-1c-2 7-4 15-4 22l1 13c0 6 2 10 3 16-1-1-4-1-4-3l-2-17v-1-5c1-5 0-11 2-17l3-10 1 2m168 3c1 5 1 12 3 16v8l-3-2c0-6 0-13-2-19l-1-6c0 1 3 1 3 3" class="B"/><path d="M307 134h1l3 2-2-1h-5v-1c0 1 0 0 0 0h3"/><path d="M405 152v5l-5-10c0-3-1-6 1-9 2 4 4 9 4 14" class="E"/><path d="M337 153l-1 2-3-3 2-8 1-2 1 11" class="D"/><path d="M249 153l-1 6 2 1v-7h-1" class="G"/><path d="M250 152v-4c-1 1-3 3-3 5l-1 11-1 8-2 2c-1-1 0-1 1-1v-6l-1 1 2-3v-6c-1 2-4 2-7 3l1 2c-4 1-1 5-2 8l2 1-2 1v8h3s1 0 0 0l-2 1v2l2 2h1v1c-1 1-1 3-3 2l1 11h2l-1 1c-1 2-2 3-1 6l1-1 1 4 2-2c2-1 1 1 2 1l1-1v1l2 1 1-1v-1c-1-2 2-2 1-4v-6c-1-2-2-4-1-6l1 1 2-5h1v0h1v-1c1-3-3-3-3-5l1-2c-2-5-1-10-2-16-1-1 1-5-2-5h-1c0-2 0-5 2-7l1-1" class="C"/><path d="M255 189l6 3v1h-2l-4-3v-1" class="B"/><path d="M344 164l-2-1 1-6 1-9v16" class="C"/><path d="M404 159l-1 6c-2-5-6-10-4-16v-1c1 4 5 7 5 11" class="E"/><path d="M338 154v4l-2-3 2-1" class="C"/><path d="M427 160l1 4v1l-5-7 4 2" class="B"/><path d="M332 159l-2 1 1-1h1m22 8l-4 2-1 2-2-3c0-2 2-3 3-5l2-4 2 8" class="D"/><path d="M353 168h-1l-2 2-1 1 4 5 1-3v-4l-1-1" class="F"/><path d="M402 165c-1 2 1 5 1 7l-1 4c-2-5-5-11-3-17l3 6" class="E"/><path d="M248 162l1 3 1 1-1 1-1-2v5l-1-1v1h-1l2-8"/><path d="M427 165c-1-1-3-1-2-3l2 3" class="B"/><path d="M306 170l-4-2-2-3c3-1 5 1 7 1l7-2-8 6" class="F"/><path d="M339 168c-5 0-9 3-14 5h-7l1-2 3-1 8-1 7-3 2 2" class="C"/><path d="M401 176l-1 9-4-9 2-6 3 6" class="E"/><path d="M352 171v3l-1-2 1-1"/><path d="M315 174l4-2-4 2" class="D"/><path d="M245 175l-1 2v-2h1m187 0c1 2 2 3 1 4l-2-5 1 1"/><path d="M333 176c-1 1-2 4-3 3h-2l5-3" class="C"/><path d="M247 178c0 2-2 4 1 6v1l-2-2-1 4h-1c3-2 1-6 3-9m104 1l-2-1 2 1m-106 4l-1 1 1-3v2"/><path d="M259 186l-1 1c-2-1-6-1-6-4v-1l7 4" class="B"/><path d="M400 186h-1v2c-1-2-3-4-2-7l3 5" class="E"/><path d="M363 183l-2 4 1-2 1-2"/><path d="M239 186v2l2-1-2 2-1 1-1-5 2 1" class="B"/><path d="M429 184l-1 2 1-2m8 1l-1-1a1 1 0 011 1"/><path d="M393 235l-1-1h1l1-2 2-1 2-3c1 3-2 4-5 6v1" class="B"/><path d="M394 234l4-3-3 9-2-4 1-2" class="G"/><path d="M390 229l-2-3c2-1 4-2 5-5l-1 8-1 1-1-1" class="D"/><path d="M391 231c2-2 2-5 3-8 0-3-1-6 1-9 1-5 6-9 6-15 2 5 4 10 1 14-2 5-2 12-5 16l-3 3-2 1v1c0 3 2 5 3 7l1-1c2-4 4-9 3-13 1-5 5-8 5-13 0-2 2-4 3-5 1 7 2 16-1 23-2 5-6 8-9 13l5 9c5 9 11 17 15 27-1 0-2 0-3 2l-21-33h1c-4 1-8 2-11-1l-11-1-9-3c-3-1-6-2-7-5v-1c4-1 6 2 10 1 3 0 6-2 9 0l4 1c4 3 8 6 13 6v-1l-3-8-2-2c-1-3-4-3-6-3l-5-1c-4 1-7 3-11 3s-8 1-11-3l-1-3c6 2 13 1 18-1l6 1 7 2v-2l-3-3c-3 2-8 1-12 1-5-2-10-4-16-3h-4c1-1 2-3 4-3h9c3 0 6 2 9 0h4l3 1 2 1-1-1c-2 0-3-2-4-3s0-2 1-2h1c1-1 2 1 3 1l2 3h1l-2-3v-4l1-2 4-1 1 6-2 4h1c1-2 3-3 2-5l-1-6c3-7-2-18 5-24l2-1-1 17v15c0 3-1 6-4 8l-1 1 1 3 2 2" class="F"/><path d="M431 185v4-4"/><path d="M256 187l1 2-3-1v-2l2 1" class="B"/><path d="M399 191c0 1 0 0 0 0v2c-2-2-3-5-2-7l2 5" class="E"/><path d="M245 190l2 4v1l-2-5-2 2 2-3v1m182 0l2-1-2 1"/><path d="M306 198c0 1 1 2 3 2 6-4 11-11 17-16l1 1c4 0 7 3 11 4 5 1 10-3 14-6l3 2v2h-4l-1 1 4 5-1 1h-2l-11-2-3-2-10 1v2l10 6c3 2 7 0 10-1h9l6-1 2 1h-3l-4 1-3 1-10 4c-3 0-6-2-9 0l4 5c2 2 6 1 8 0h1l2-2v2c-2 3-6 5-10 5l-3 1v-6h-2c-1-1-3 0-5 1v3l-4 1-1 2v5h2l2 1-1 8 7 1 1-8 5-1v-4h7l-5 3 1 1h6l-2 2c1 2 3 1 4 1h8l9 3-5 1c-4 1-8 0-11-1l-1 1 3 5c3 2 5 2 8 2l6-1v2l7 1 1-5h2c3 1 7 0 8 4l-7 4h1-1l-5-2c-2-1-6 0-8 1-4 1-8-2-11-1l-1 1c2 5 7 5 12 7h-1l-7 2-24 2v-1l1-3-1-1-4 5-3-1c0-1 4-2 2-4l-1-1-1 1-4 4-1-1c-10-1-19-7-28-12v-2c-1-2-3-1-4-1-1 1-2-1-2-1l1-1v-2l-6-1-4-3v-1l9-10v11l6-1 1-7h5v-8c-1-2-5 1-4-2l9-9c1-1-1-1-1-2v-1l1 1" class="D"/><path d="M306 196l-1-3-3 1-1-4 5 2c1 3 3 4 3 7v-1l-3-6-4-3 12-12 6 3v3l5 1-13 13-4 2-2-1v-2" class="C"/><g class="F"><path d="M351 208c-2 4-6 6-10 7h-2c0 2 2 2 3 2 4 1 8 0 11-3 3-2 6-4 6-7h-8v1"/><path d="M331 162h2c1 0 2 0 1-1l-3-3h-1c0 6-6 10-11 13-4 3-11 4-16 1l10-7c4-1 8-1 10-4h-2-1l-11 2-5-1c-4-1-6-3-9-5 2-2 6 0 9 0 4 1 6-1 10-2s9 1 12-2h1l-5-6h-2c-5 3-10 8-16 5-4 0-7-2-9-5l-4-6 9 3c5 3 9 0 13 0l4-2-3-3c-2 0-4 3-7 3-4 1-7-2-11-3l-10-1c-4-1-5-5-7-7l-2-2 7 2 8 1c4 0 6 4 11 5h2l4 1v-1c-2 0-4 0-6-2l-1-3c2-2 4-1 6-1l4 4s0 1 0 0l-1-2-2-2-1-1c-1-4-3-7-6-11l-2 1c-4 6-12 4-17 2-4-2-7 0-11-1l3-3h4v-1l5-1c-2-1-4 0-6 1-3-3-2-7-5-9l-2-2c6-1 9 6 13 9l8 1 8 2 1-1-4-6-7-1c-5 0-10-1-14-5l-5-5-3-3v-1l8 5 7 2c4 0 7 3 10 5h1l1-2-5-8-9-2c-5-1-9-4-11-9l-9-15 5 2c1 5 4 9 8 11l2 2c3 3 6 5 10 6h2c-2-3-5-3-7-5l-7-3c-6-4-8-12-10-19l2 2h1c3 3 2 8 5 11 2 2 5 2 8 3l4 2c0-4-4-6-6-8-3-2-4-6-6-9-2-2-6-5-6-8l1-1 5 5c3 2 6 3 8 6l6 13v6l1 1v-1c0-4 0-6-2-9-4-6-2-14-3-21-1 0-1 0 0 0 5 6 8 13 8 21 2 5-2 10 1 14l1 1c-1-3 1-6 2-10 0-5-1-11-3-16h1c4 2 6 6 7 11l1 5c-1 5-4 8-6 13-1 3 2 5 3 8v2c1-5 2-10 0-15l2-5c4 6 3 15 1 21-2 3 2 5 3 8h1l1-3c-1-4-2-7-1-12v-9l2 4c3 4 3 10 2 15-1 2 0 5-2 7-1 2 1 3 2 5v5c1 1 2 1 2 3h2c-2-2-1-5-1-6l-1-1 1 7-2-3v-5l2-2c5 2 1 6 1 9h1v-2c1-4 2-8 1-12s-5-6-3-10v-3l3 2c6 5 6 13 6 19 0 4-2 7-3 9 0 3 1 6 3 7l1-1c1-4 2-9 1-13 0-6-2-11 0-17l-1-8 2 1c4 8 5 19 5 28l-5 12 5 6 2 2c2-4-1-7-1-11-1-3 1-8 1-11l-1-12h1c3 4 4 8 5 12 0 5 1 11-1 16l-1 8 6 7-3-14c-1-6 2-10 2-15l-1-6c2 4 5 7 6 11 1 7 1 15-1 21v7l2 2-1 1 1-1c2-4 2-10 1-15v-10l4-8c0 8 4 17 2 24l-5 12 3 3c0 2 2 4 3 5h2l1-9c0-4-4-8-2-12l1-12 2 2 3 14c2 7 3 15-2 20v2l2 4 2 1-2-2c1-2 1-5 4-6h1v7c1 2-2 3-2 5 1-1 3-3 2-5l1-9c-4-8 5-14 9-20 1 3 2 7 1 10-2 7-3 15-7 22l-3 6 4 4h1l3-12c1-7 1-14 7-19v5c-2 8 2 17-4 25l-3 3v2l2 3 3-3c3-5 4-14 12-15l-3 12c-2 4-6 7-10 8v1l3 4v5l-3-1-3-4c-1-2-3-1-5 0-5 3-9 7-15 8l-9 2-1-1c7-4 14-11 22-13l5-1-2-3v1c-3 2-7 2-11 2-3 1-7-1-10 1-3 1-6 2-8 1s-4-3-4-5h2c4 1 9 0 12-2l8-3h6l-2-3-5 2-9-1c-3 0-7 3-10 2l-9-5-2-3h4c6-1 10 2 15 3h8a15 15 0 003 1l3-1h-4c-3-1-5-4-5-7h3l3 2c1 0 2 1 1 2l-3-1 4 3v-1l-2-5-1-1-3-3h-2c-4 3-9 7-14 5l-14-5-3-1v-2c5-2 10 0 14 0 5 1 10 2 14 1l2-1-2 1h-5c-1-2-2-3-1-4l4-2v1l4 2-1-1-2-2-1-1-1-1h-7l-11 6h-6c-3-1-7-1-9-3 3-2 7-2 10-2l14-5 4-1-2-3-5 2c-3 2-5 2-8 2h-2l2-2 4-4a11 11 0 010-1h2"/></g><path d="M330 162l2-3 2 2-1 1h-3" class="C"/><path d="M251 193v5l-2-4 1 1c2-1 1-3 2-4l-1 2" class="B"/><path d="M435 191l1 3-1-2v-1"/><path d="M259 194l11 20 4 5-2 2c-6-8-12-18-15-28l2 1" class="B"/><path d="M398 196c-1-1-2-2-1-4 0 1 2 3 1 4m-94-2v-1l2 2-2 2c1 1 2 2 1 3l-24 22-14 12-2-5 7-7 28-28v-1c1 1 2 2 4 1" class="E"/><path d="M432 193l-1 2v-3l1 1m-3 1l-2 1 2-2v1m-182 9l-2-4-1 1v3c-1-3 2-5 2-7-1 2 1 4 1 7"/><path d="M398 199l-2-1v-2c2 1 2 2 2 3" class="E"/><path d="M431 198v4-1-3"/><path d="M397 201v-1 1" class="E"/><path d="M429 201h-1l2-1-1 1"/><path d="M386 210l-5 2-1-1-2-2v-2c2 0 4-1 5-3l4-4c0 4 1 7-1 10" class="D"/><path d="M246 207l-1-1-1 2c0-2 2-3 1-5l1-1v5m185-4l-1 2 1-2"/><path d="M370 207l-6 1-5 2 1-3h3l6-2 1 2" class="D"/><g class="B"><path d="M413 208v6l-1-8 1 2m-173 0v4c1 0 3-1 3-3v4l-2 1-3 2 1-8h1M297 210h3v7c-1 1-4-1-5 1l-1 7h-5v-10l7-7 1 2m137 2l-2-4c1 1 4 3 2 4M336 210l1 6c1-1 2 1 3 1l1 1-1 4-5 1v7h-6l1-9h-4v-7h5v-4h5m74-1c0 3 2 7-1 10l-1-8 2-2"/></g><path d="M427 209l-1 2 1-2"/><path d="M249 219c-2 1 0 4-2 5v1c0-1-2-1-1-2-2-1-1-4-1-6l-1 3-1 4 1-2 1 2v3h-1l-1 3c-1 1-1 3-3 2l-1 1h2l1-1 1-1 2 2v6c0 1-3 2-3 4v1l-1-5c1-1 3-3 2-5l-2 2-1-1-1 1v-4c2 0 2-3 3-4v-3l-2-6-1 1v-4l1-1h1l3-2 1 3h1l-1-4 1-2 3 9" class="C"/><path d="M249 217v1l-2-7 1 1 1-1v6" class="B"/><path d="M245 211" class="C"/><path d="M428 211a10 10 0 01-2 3l2-3"/><path d="M375 213l-3 1h-1l-1 4-5 1v2l-9-1 3-1 7-4 3-2c1-1 2-2 4-1l2 1" class="D"/><path d="M376 216c-1 0-3 1-2 3v1c-2 0-6 2-9 1l1-2h5v-5c2 0 5-1 5 2" class="B"/><path d="M383 220l1-4-1 4m42-3h-3 3"/><path d="M239 220l2 6v2l-2 1-1-7 1-2" class="B"/><path d="M261 223l3 6-5 3v1h-1c-2-2-6-4-5-7s3-5 5-5 2 1 3 2" class="E"/><path d="M382 221h-3v-1l3 1"/><path d="M247 226l-2 6-1-4 1-1 1-2 1 1" class="B"/><path d="M278 228v2l-1 2v3c0 3 5 5 3 9v3h-1c-2 1-2 3-1 5 0 4-3 7-2 10v7l-1 2c1 2-2 5-1 8-2 2 1 4-1 6v3c-1-1-1-3-2-2v3h-2l2 5h1v3l-1 1-1-1-1 1v2h-1v-4h-1l-1-2 2-4v-2l2-3v-1a45 45 0 00-2 3l-2 2-1-3 3-3 1-5c-1-1-2 1-3 1 0-1 2-3 1-4l-2 2-1-3c0-1 0-3 2-3v-2l-1 2h-1v-4-7c1-1 2 0 3-2v-2l-3 1c0-3 2-5 1-7l2-5h1l-1-1-2-1c1-1 0-3 2-3l2-1v-3c1 1 3-1 4-1 3-2 3-5 4-8l1 1" class="C"/><path d="M381 227l2 3-4-2h-2c1 0 3-2 4-1" class="D"/><path d="M375 228h-2 2m-4 0h-1 1" class="B"/><path d="M411 235l-3 1c0 2 2 3 3 5 1 0 2 1 1 2l-1 2c2 0 1 2 1 3-1 2-4-1-3 2 0 1 2 1 2 3l-2 2-2-1 1 2c1 2 2 4 1 6h-1l-10-16v-1l8-12-2 8 3-9h-1l2-4c0 3 5 3 3 7" class="C"/><path d="M265 232l1 4 1 1h-2l-6-3c1-3 3-4 5-5l1 3" class="E"/><path d="M289 231c1 1 0 1-1 2-2 0-6 1-8-2v-1h9v1m-1 2l1 1-2 1-1-1 2-1m6 2l-1 2h-6l-1-1 8-2v1" class="B"/><path d="M264 237c-8 8-15 16-24 22v-2l1-2 16-16 2-4 5 2" class="E"/><path d="M239 239v-2l1-1h1l1-1c0 2-1 4-3 4m187-1c0-1-1-2-3-2l-4 2v-1l1-2c2 2 3 1 5 0l1 1 1-1-1 3m-123 5l20 7-2 2-1-1c-4-1-9-1-12-4l-5-2c-4-1-7-5-11-7l2-1 9 6" class="B"/><path d="M244 239h-1v-1l1 1"/><path d="M426 239v2l-2 2-2-1v1c0-1 1-3-1-2v-1h-2v-1l6-2 1 2" class="C"/><path d="M242 245l-1 1-2-5 1-1 2 5" class="B"/><path d="M406 239l-1 5h-1l2-5m-134 4l-1 7-1 1h-1l2-2v-2l-1 1v-1l1-4h-1l1-1 2-1-1 2"/><path d="M422 241c0 2-2 2-3 3v-3l2-1c0 1 0 2 1 1" class="B"/><path d="M274 244l1 2-1-1-1 2 1-5v2"/><path d="M421 248l-1-4 2-1c-1 2 3 4-1 5" class="C"/><path d="M424 244l-1 2v-3l1 1" class="B"/><path d="M407 243l-1 11 1-10v-1"/><path d="M420 245l1 3 1-1h1l-3 5c0-2-2-5-1-7h1m-90 1l-5 6-3 1-1-1c3-1 5-4 7-6h2" class="B"/><path d="M305 248v9h1v-2l-1-2 4 2v5l1 5-1 6v4h-1v2l-2-5-1-10v9l-1 3v8l2 1c0 2 3 1 3 3v6l-2-5-1 2v5l-1-2h-1c0 4 4 8 2 12 0 3 0 5-2 7v1l-1-1v2l-2 3-1-6h-1c-1-2-2-6-1-8l1-2c2-2 4-4 4-7v-1l-3 3c0-2-1-4-3-4l1-4 5-5c-2 1-3 2-5 1l2-2 2-1-1-2h-4l1-2c-2-1-1-4-2-6h1l-2-2c1-1 2-3 0-4v-4l-1-1v-2c3 0 6-2 7-5l2-5v-1c1 1 3 1 2 2" class="C"/><path d="M336 247c-1 3-4 6-7 7l-1-1 5-3 2-3h1" class="B"/><path d="M302 247c1 2-1 2-2 2h-3v-2c2 0 4 3 5 0" class="C"/><path d="M405 247l-1 6h-1l1-3v-3h1"/><path d="M363 295l1 1h1l2-1c0 3-4 5-3 8h2l1-2c0 3-2 5-4 7-1-4 2-8-1-13a6 6 0 010-1l1 1" class="B"/><path d="M363 294a3 3 0 010-1c0-3 4-4 3-8h-2l1-3h-2l-1 2c-1-3-2-6 1-8-1-1-3 0-3-2l1-2v-3a17 17 0 01-1-6l3-1-2-2v-1l3-1h1c-1-1-2-1-1-2l1-3c1 1 1 3 3 3v-1l1 6v-2-5l1-5c0 3 2 7 0 10l2 5h1c1-3-3-4-1-6l-1-6 4 7 1 1c-1 3 1 4 2 6l-2 1v3h-2l-2 1 2 5v4h-1c-1 0 0 0 0 0l-2-1v1c0 2 2 4 3 5h1c1 3-2 5-1 7l-1 2v6h-1l-2-6v4l2 5v2l-2-4h-1c0 3 2 5 1 8l-3 2c-1-1-1-3-2-2v-1l2-3 1-4v-1l-3 3v-3c0-2 3-3 2-5-1-1-1 0-2 1l-1-2h-1" class="C"/><path d="M273 254l-1-4h1v4"/><path d="M330 251c-1 1-2 2-4 1l1-2 3 1" class="B"/><path d="M303 253v5l-2 2 2-2-1-4v1l1-2m-32 1v3c-2 0 0-2 0-3m134 1v-2 2"/><path d="M394 294c1 2 0 5-1 7v1l4-4c1-1 1 0 2 1 1-2-1-3-1-5l-2 1-2-1" class="B"/><path d="M394 293h-1c3-1 3-4 5-6v-1h-1-1l-1-1v-1c3 0 4-3 5-5-1-1-2 1-3-1l-1-1c-1-1-2 1-3-1l9-6v-1c-2-2-3 1-4 1l-4 3c1-2 0-4 2-5l-1-1 1-4c0-1-2-1-1-2v-5l9 14h-1l1 4-2-1v4l2 2v2l-3-4v4l2 4v5l-3-5h-1v1c-1 2 0 5 2 7a11 11 0 01-1 4l-2-4-2 1-1-1h-1" class="C"/><path d="M272 257v6h-1v-6h1m33 4l-1-3 1 3m70 1l-2-3 2 3m-42 1v2l-1 8 1-9h-1l1-2v1m-30 2l-1 6 1-1v-6 1m66 0v9c0-3-2-6 0-9m-97 1l-1 5-1 1 1-6h1m98 2l1 8h-1v-8l1-1-1 1"/><path d="M401 270c-2 3-5 5-8 6 1-3 4-4 6-6l2-1v1" class="B"/><path d="M269 270c1 2 0 3-1 3l1-2v-1m34 1l-1 2 1-2M303 272v0"/><path d="M305 272c1 2 1 4 3 5v5l-1 1 1 1c-2 0-2-3-3-2v-10" class="B"/><path d="M335 273l1 5-1-1v-4m-6 0l-2 2v-1l2-1"/><path d="M265 277l2-1c-1 2-2 3-1 4l2-1v3c-1 1-2 3-4 3v-10l1 2m140 0l-1 1-2-4 3 3" class="B"/><path d="M340 276l-1 1-1-1v-1l2 1m29 2c0 3 1 7-2 9 2-3 1-6 2-9l-2 2 1-1 1-4v3"/><path d="M397 279h2l-4 5c-1-2-2-3-1-5a3 3 0 000-1l2-1 1 2" class="B"/><path d="M370 280v-2 2"/><path d="M300 281h-3v-2l4-1c1 2-1 2-1 3" class="B"/><path d="M333 282l-1 4v-2l1-6v4"/><path d="M404 282l-1 2-2-6 3 4m-29 0v3l-3-4h2l1 1" class="B"/><path d="M418 282l1 1c1-1 1 1 1 1l3 6c-3-2-6-3-8-6l1-2h2" class="F"/><path d="M364 283v3h1c1 2-1 3-2 4h-1v-6c1 1 1-1 2-1m-62 0l-3 3-2-1v-1l5-1" class="B"/><path d="M369 284v0"/><path d="M403 291l-1 1-2-1-1-5 4 5" class="B"/><path d="M303 286v6l-1-3v1a16 16 0 001-4"/><path d="M397 287v-1 1c-1 2-1 4-3 5 2-2-1-4 0-6 1 0 1 2 3 1m-130 2l-1 4h-1v-6c1 1 0 4 2 2m71 2v7l-2-5h1l-1-6 2 4m-66-1v4l-2-4h1l1-2v2" class="B"/><path d="M333 288l-1 2v-2h1"/><path d="M307 296v4l-2-7 1 2 1-2v-4c1 2 2 5 0 7" class="B"/><path d="M269 291l1 3-1-1h-1l1-3v1m100 0v6h-1v-6h1"/><path d="M300 295v1l2-2-3 6-1-1-1-8 3 4" class="B"/><path d="M333 294h-1v-2l1 2"/><path d="M266 296h1l1 5v4c2 0 0 2 1 4-2-2-1-5-3-7 0-1 2-3 0-5v-2 1m106 6l-2-6 2 6m-101 2l-1-3v-3c1 1 2 4 1 6" class="B"/><path d="M333 301l-2 4h-1l2-2v-5l1 3"/><path d="M398 303c0 2-3 3-3 6h-2v-6l-1-1h3c2-1 1-6 4-3l-1 4" class="C"/><path d="M302 304v-1l1-2-1 3"/><path d="M270 305v1l-1-2v-1-2l1 4" class="C"/><path d="M330 302c-1 2-2 4-5 4v-3l1-2c1 2 3 1 4 1m42 3l-2 8c0-1-1-3 1-4v-6l1 2m-44 6l-2 1v-3l1 1 3-1v-1c0 1 0 3-2 3m67-2v1h1a3 3 0 01-1 2c-2 1-1-1-2-1v-2h2m-95 1l1 7 1-1 2-3-2 6-1 2c-2-3-2-7-2-10l1-1m66 1c1 1 2-1 2-1 1 3-1 5-2 7h-1v-7l1 1" class="B"/><path d="M370 314l-1 6-3 1-1-2c0-2 1-2 2-3l2-5 1 3" class="C"/><path d="M327 319l1 6-1-1c-1-2-2-4-1-6l1 1m39 3h1l1-1c-1 2 0 6-3 7v-8l1 2m-34 1h1c-2 2-1 6-3 10l-2 5v-3l-2-7 1-1v2l1 3 1-1c1-3 3-6 1-9v-1l2 2M293 80l-2 1v3h1l1-1v-3h-1 1" class="B"/><path d="M196 354h6l4 1c4 2 6 5 7 9v18c-1 5-3 8-6 10l-5 1a53 53 0 01-14 0l-5-2c-3-2-5-4-5-8l-1-7 1-14c1-3 4-6 8-7l10-1m0 9h-5l-3 3v8l1 8 2 2h9l2-2 1-9v-5l-1-3-2-2h-4m33-9v15h3l10-15h12l-13 19 15 20h-13l-11-15h-3v15h-11v-39h11m40 0v30h16v9h-27v-39h11m43 32h-14l-2 7h-11l12-39h16l11 39h-10l-2-7m-2-7l-5-17-5 17h10m52-25v39h-11v-15h-13v15h-11v-39h11v15h13v-15h11m23 0h7l4 1c3 2 5 5 6 9l1 10-1 8c0 5-2 8-6 10l-5 1a53 53 0 01-14 0l-5-2c-2-2-4-4-5-8v-7l1-14c1-3 3-6 7-7l10-1m0 9h-5l-2 3-1 8 1 8 2 2h9l2-2 1-9v-5l-1-3-2-2h-4m71-9v39h-10v-12-18l-1 5-2 4-7 21h-9l-4-12-6-18v5l1 13v12h-10v-39h16l4 11 4 14 1-4 3-10 3-11h17m29 32h-14l-2 7h-10l11-39h16l12 39h-11l-2-7m-2-7l-5-17-5 17h10" fill="#fff"/></svg>