<svg xmlns="http://www.w3.org/2000/svg" width="675" height="450"><path d="M0 450h675V0H0v450z" fill="#002a86"/><path d="M513 317c-2-1-3-1-2-3l1-1 1-2 4-8 1-11-2-6-6-7a114 114 0 01-8-7l-1 1v2l-1 3v3l-1 2-1 3v5l-1 3v1l-1 2 1 8 1-2c1-2 1-4 3-4v3l-2 5c-1 2-4 1-5-2a31 31 0 010-10l1-3v-2l1-3v-2-3l1-3 1-2v-3l1-2-1-3-2-1-7-8-3-3-6-3-4-1c-5-2-5-2-6-1-1 2-2 3-1 6v4l-1 1-1 2-5-1a39 39 0 00-21 5l-4 1h-2v2c0 3-1 3-3 5l-8 2h-3v-3l9-10 3-3 3-2 5-1c7-1 12-3 14-5v-20c1-2 4-4 7-4h2l-3-2-17-12c-3-3-3-3-5-3l-6-1h-11l-4 2v2l-2 6v6c0 4 0 4-2 5l-1 1 2 2 2 1v4l-1 2-1 3-3 2s-3-3-3-5l-1-4a65 65 0 000-5v-5a148 148 0 014-19c1-4 2-5 7-6l12-5 1-1-2-1-3-4-5-11-2-2-2-3-2-2-6-1-6 1h-5-2l-6 1h-6l-4-4 5-2 3-2h12l13-1h7l3 1 3 4 5 4 4 4 1 1 2-1 5-4 3-2v-1h1l3-2 2-1 2-2 10-4h2l-1-2v-2l-1 1h-4v-3s0 0 0 0h-1c-3 1-4 0-5-2v-4a10 10 0 001-3l2-2 4-1 6-3 5-2-3-1h-4c-2 0-2-1 0-1l2-1 1-1-1-3v-3l1 1 3 2-1-1-2-5c0-2 0-2 1 0s2 3 5 3l2 1 1-1 1-2 2-4 4 8 1 2v-3-4-2c0-1 4 1 5 4l1 1 1-1 2-1h5l3 3c1 2 2 2 4 1l4-2v5l-1 1 2-1 2-1h1l-1 2 1 1 3 3 1 1h2l-4 1s0 0 0 0l2 2v1h-1c-2 0-2 1 0 2 1 2 2 4 1 5v10l-1 2-1-2-1-4v5l2 6c-1 2-1 1-2 0l-1-1v9a22 22 0 00-2 6c0 1 0 0 0 0l-1-1-1-2-2-4 1 2v4l1 1v1l1 2 1 1-2-1-1-1-1 2-2 4v-3-4 2l-2 4-4 4-2 1-2 1-1 1c-2 3-4 4-6 4v-1l1-1 1-5-1-5v1l-1 8-3 3c-1 1-1 0-1-1l1-4-1-3-1 4-1 1v2l2 3 2 2 2 1 1 3 6 3 4 2a69 69 0 0111 7h0l3 2 3 4v1l1-1 5-8c3-4 5-5 9-5 3 0 5 1 7 4 4 3 5 6 4 12v3l2 1c2 0 4 2 5 3l2 3c2 1 4 4 5 7l1 4 1 4v13l1-1c2-2 6-1 7 0l2 1 1 1h-1-1-2l-4 2c-1 2-2 3-1 4v3l-4-2h-1l-3-2-1-3-2-1-7-4c-2-1-3-4-3-7v-2h-2l-4-1-3-4-1-1h0l-1 1-1-2-1-4-1-5c0-3 0-5 2-6l2-5c1-1 0-1-1-1l-4 1-4 2-2-1-1 1c2 5 1 11 0 15l-3 7-2 4-1 2 3 6 6 6 2 2v7c0 3 0 9 2 17v4c0 1 0 2-1 1h-1l-1 2-1 1 1 1c-1 1 1 3 1 3l1 1-1 1c-1 2-1 2-3 2-3 2-6 2-8 1zm-24-128l2-2a48 48 0 007-9l1-2a146 146 0 012-3l4-7a19 19 0 010-3v-6 1l-4 13c-2 4-6 10-11 15l-3 5 2-2zm19-15s0 0 0 0h-1l1 1v-1zm-39-9l-1-4v3l1 1zm7-2l4-1 1-1h-2l-3-1h-3l-4 1 1 1v2c1 1 3 1 6-1zm3-15v-2c-1-2-1-2-3-2l-4 2 1 1 2 1h4zM162 312l-2-1-4-3 1-3v-3l-2-1c-2 0-2 0-2-3v-5a74 74 0 00-1-19l3-3c2-1 4-3 6-7l1-3v-2l-2-4-3-7v-15h-1-2l-4-1-4-2-1 1 3 5c1 1 2 3 1 6l-1 5-1 4-1 2-1-1h0l-1 1-3 4-4 1h-2v2c0 4-1 6-3 7l-7 4-1 1-2 3-2 2h-2l-4 2v-2c1-2 0-3-1-5l-4-2h-4l1-1h2c1-2 5-2 7-1l1 1v-2l-1-7 1-4 1-4 1-4 5-7 2-2c1-2 3-4 6-4l1-1v-3c0-6 1-9 4-12 2-3 4-4 7-4 5 0 6 1 10 5l5 8v0l3-3 3-3h0l2-1 10-6 4-2 5-3 1-3 2-1 2-2 2-4v-1l-1-1-1-4-1 1 1 6v1c-3 0-4-4-4-9l-1-3v1a39 39 0 000 10h1v1l-3-1-2-2-4-3-4-2-3-7-1-1v7l-2-3-1-3-1 1h-2l1-1 1-2v-1l1-1 3-9h-1l-1 2-3 8h-1l-2-7v-6-2l-1 1-1 1s0 0 0 0c-1-2 0-5 1-7l1-5-2 5c0 2-1 1-2-1v-7l1-2c-2-1-1-4 0-6 2-1 2-2 1-2h-2v-1l2-1v-1l-3-1h1l2-1c0-2 2-3 3-3v-2l-1-1h1l2 1 2 1-1-1v-5l1 1c3 2 6 2 7 1 1-2 1-3 3-3 2-2 5-2 6 0a4 4 0 002 1l1-1 5-5v10l2-3 1-4c2-3 2-3 3-2l2 5 1 1h2c3-1 4-2 5-4s1-2 1 0l-2 5-1 1 3-2 1-1s0 0 0 0v5l-1 1 1 1 3 1c1 0 1 1-1 1h-6v1a379 379 0 0016 9l1 2v4l-3 3-1-1c-2-1-3 0-2 1 2 2-2 4-4 2h-1v1c-1 2-1 2 2 3l8 3 3 2 2 1 3 2h1v1l4 2 4 4 2 1 1-1 4-3 5-5 3-4 3-1h7l13 1h5l5 1h2l3 1c4 1 5 1 5 3l-4 3h-6l-6-1h-6l-7-1-5 1-3 3-2 2-2 2-5 11-3 4-2 2h1l13 5c5 1 5 3 6 7l1 5 4 13v5l-1 5-1 4c0 2-3 5-3 5l-3-2-1-2-1-2v-2-2l3-2 1-1-1-2c-2-1-2-1-2-5v-6l-1-6-1-2-4-1c-4-2-4-2-11-1l-6 1c-2 0-2 0-5 3a129 129 0 01-19 14h1c3 1 6 2 7 5v13l1 7 13 5 5 1 3 2 3 2 9 10v3l-3 1-7-3c-3-1-4-2-4-4v-2h-2l-4-2-7-3c-5-1-8-2-14-1h-5l-1-1-1-2 1-4c0-3-1-4-2-5l-2-1-4 1-9 2-4 4-4 5-2 2v4l1 2v4l1 3v2l1 4v4l1 5v6l-1 3c-2 2-2 2-3 1-2 0-2 0-2-4v-3c-1-1 0-2 1-1l1 3 1 1 1-2-1-2-1-5v-3-2-1l-1-7-1-3v-1-2l-1-2v-2l-2 2-3 2-4 3a119 119 0 01-5 4l-3 3v16l2 2 2 2 1 2 3 8v1h-7zm26-124l-2-3-11-15c-2-4-4-10-3-13l-1-1v9l4 7 2 3c1 2 1 3 2 2v1l7 9 3 3h0l-1-2zm20-25v-3l-1 4 1-1zm-2-1v-3h-6l-3 1h-1v1l4 2 5 1 1-2zm-5-15l2-1 1-1-3-1c-3-1-3-1-4 2v1h1a22 22 0 011 0h2z" fill="#414141" stroke="#fff" stroke-width="1.7"/><path d="M297 236h85v2h-85z" fill="#dca90d"/><path d="M324 78l6 3 3 3v5l-1 8v4l-15-8 7-3 2-2-5-4-1-5 4-1zm16 85l21 3 25 38 9 21-23 7-15 1h-57l-3-26 7-35 36-9z" fill="#fff"/><path d="M309 199l-4-4h2l2 1c1 0 0 0 0 0l1 2c2 2 2 2-1 1zm47-3l-3-3v-2l3 3 3 3-3-1zm1-2l-3-4h2v-3l7-4v7l-1 4-1 3-4-3zm6 3v-1l1-1 2 1 1 1h-4zm-31 0l4-5 1 1-5 4zm2 0l1-1 1-1v1l-1 1h-1zm6 0v-3l3 3h-3zm2-2l-2-4 5 5 1 1h-1l-3-2zm6 2l1-1v1h-1zm2-1l-1-1 1-1 2-2v3c0 3-1 3-2 1zm3 0v-1l1 1 2 1h-3v-1zm-40 1l3-4v3c1 1 1 1-1 1h-2zm15 0l6-6h3l-4 3-4 3h-1zm-18-1l7-13v6l-3 4-3 4-1-1zm34-3l-2-3 3 3c3 2 3 2 2 3l-3-3zm-59 2l2-6c3-4 7-9 11-10l4-2 1 1c0 1 1 2 3 2 1 1 4 0 4-2l1-1 1 1 2 2 3-1 1-7 2-6 3-5 5-2h2l3 1h2l2-1 3 1h2c2 2 4 2 5-1l2-1 2 1c3 1 7 5 8 9l1 5 1 4c1 2 3 2 4 1l2 1 1 2 2 1c2 0 3 0 4-2l1-1h2l4 2 7 8 2 6a130 130 0 01-22 0v-2-3h-3l-1-6v-2l-4 2-4 2v-4h-2v-5c-1-4-1-4 1-4l1-1-3-1-1 2v3l-3 3-4 4 1-4-1-1-1-1-1-1h3l-2-1-3-1-1-3 3-1-1-2-2-1-1 4v4h-4l2 1 2 1-3 1h-2l-5 5v-2l-1-2-1-2v-1l-2-1v-3l-1-2v2c0 2 0 2-4 5l-11 9-8 5c-4 3 1 1 2 2l1 2-9 1-10-1zm22-1c-3-1-4-2-2-2l3 2h-1zm21 1l-1-1 2-1h1l-1 1-1 1zm18-3l-1-2v-1-2l1-3 1-2v3l1 5h4l-3 4-3-2zm-16 0l1-2h2c1 1 0 0-1 1l-2 1zm-3-1l1-1 1-2c-1-3-1-3 1-5l2-2v7l-2 2c-2 2-3 2-3 1zm22-10l1-2 2-1v3l-1 1-2-1zm-23-1l-1-2v-1l1 1 1 2h-1zm-7-1l1-1 2-1 1 1v2h-2l-2-1zm21-2l1-1 2 2h-1l-2-1zm-18-1l1-1h1v1h-1-1zm3 0zm15-1h1-1zm20-26l-4-1h-2-5v-3l1-1c0-1 1-2 5-1l3 1 2 3 2 3-2-1zm-39-2l-2-1v-2c7-2 8-2 10 0s0 3-5 4l-3-1zm11 0l-2-2 2-1h3c2 1 3 2 1 3h-4z" fill="#82cce2"/><path d="M286 204c-1-4-2-5-1-7v-1h25l1 1 3 3 3 2h-9l-7 2-2-1h-1l2 1c2 1 6 0 8-1h8l1-1 4 1h4-7l1 1h3l4-1h3l2 1 8-1 1-1h26l3-3-1-1c-2-2-2-2 5-2h18l1 5 1 5H286v-2zm95 1l2-1h-10l2 1h6zm-31-1l2-1h-3c-8 0-9 0-8 1h9zm15-1l1-1-5 1h-6l2 1h4l4-1zm-69 1l1-1c1-1 1-1 0 0h-3c-1 0-2 0-1 1h3zm78-2h2l6-1h7l1-1h-1-7l-3 1-2-1-2 1h-7c-1 1-1 0 0 0l1 1h5zm-82-1l3-1h-8c-1-1-1-1 0 0s3 2 5 1zm15 0l1-1h-11l2 1h8zm-4-2l3-2h-1l-8 1-2-1 4 2h4zm82-1h0l-6-1h-1l-5 1h-3 9l3 1 3-1zm-93 0l-2-1-2 1h4z" fill="#1f5290"/><path d="M315 265h-3l-3-1v-2-3l1-4-1-3-2-1c-1-3 0-7 2-8l3-1 4-1c2-1 5 0 7 3l3 4c0 2-1 3-2 3l-2 1 2 4 1 3v1a2 2 0 011 2l-3 2-2 1h-6zm43 0l-1-1-1-2v-1-3l1-3v-3l-2-1v-4l4-5 3-1 6 1c4 2 4 2 5 5v3l-2 1v7c0 6 0 6-6 6l-5 1h-2zm-24-2c-1 0-2-2-1-3v-6l-1-3c-1-1-2-2-1-3l1-1v-2l2-2 1-1h1l2-1h3l3 1 3 1 1 1 1 2a7 7 0 011 2l-1 2-2 1h-1v1l1 3v3l1 3-1 2h-1l-5 1-7-1zm-39-30l-4-3-1-1h2c2 0 2 0 3-2l1-1v-2c-1-2-2-3-4-3l-2 1a2 2 0 01-1 0l-2-2-6-12c0-3 0-4 1-2l4 1v-1h107v4a51 51 0 01-5 16l-1-1c-2-1-4-1-5 1l-1 2 1 2 1 1 3 1h2l-2 1-2 2-1 1h-86l-2-3zm20-6l7-8h-2l-3 3-4 3-2 2-3 4h3l4-4zm4-2l4-5-3 2-7 9h1l5-6zm4 0l4-5-1-1h-1l-5 6-4 5 1 1h1l5-6zm32 6l12-1-3-1h-2l-4-1-5-1-13-2-10 3-4 3h29z" fill="#ffce00"/><path d="M366 230l-2-1 2-1 1-2-2-1-2-1-3 2-1 2h-2l-2-1 4-4 2-1h-1l-3-1c-7-2-7-2-17-2l-21-1c-9-1-14-3-14-5h3a53 53 0 0024 4l26 1 4 1 2 1 2-2c4-3 14-6 16-4v2h-3l-8 2 2 2 1 1 5-2 6-1h2c2 1 1 2-2 2l-5 2a59 59 0 00-12 8h-2zm4-7v-1l-3-1v1l2 1h1zm-61-81l-1-3-1-3-2-7-2-9-7-33v-2l1-1 3-1h2l8 11 2 4 2-2 2-2 2-1h2l1 1c-1 0 0 0 0 0l1 1h2l1 1 2 1v-1l1-1 1 1 1 1v-2l1 1 2 1v1h1c1-2 3-5 3-8l2-4c2-3 8-2 12 2l7 9 22 22c6 4 7 5 6 6s-2 0-5-1l-4-2 5 5 5 3v1c-2 2-7 0-12-3a557 557 0 00-25-15c0 3 0 2 12 11 15 10 18 13 18 15l-2 1h-5l-5 1-2 1a61 61 0 01-11-8l-2-2v1l-2 4-2 2-2-4-3 2-2 2-2-1-1-1-1-1-2-2v1c-1 1-2 2-3 1h-1v-1l-2-4-2-5-1-2h-2l-7-4-4-2-1 11-1 8-1 4-1 2-1-1z" fill="#352b00"/><path d="M342 317l-6-3h-1l-1 1-5 2 1-1 3-2 1-1-7-1-10-1c-6-1-15 0-21 1h-5l11-5 4-1-13-1h-2l2-1 6-1v-1l1 1h2l3 1 1 2h4a105 105 0 006-1h3l-3-1-6-3-6-5-6-8-1-7 4 3a69 69 0 003 4l1 2h3l7 2 7 4 15 12 2 1 8-8 3-2 3-2 7-3 2 1-7 8-5 4a78 78 0 0014-9c3-3 7-6 9-6h3l-2 3-2 2-2 3-2 2 3-1 5-1-2 1c-4 1-4 1-1 1h3v1c2 2 4 2 6 1l1-2-2-2-1-2 2-10 6-10 1 5v3l-1 3-2 4-1 3 3-2 3-2v1l-2 2-2 2 4-1h2l7-2 2-1 3-1h1l-5 5c-4 5-12 7-17 4l-1 1 1 1a88 88 0 0110 3v1a21 21 0 00-2 0c-3 2-9 3-13 2l-11-2-3-1-2-1h-3l-3 1-2 1h-2l-1 1h1a90 90 0 0017 4l1 1-3 1c-5 2-9 1-18-2l-6-1h-2l2 2 5 5h-1l-1-1h-1l1 1c1 1-1 1-5-1zm-25-18a28 28 0 00-11-8l8 7 3 2v-1zm-41 9l-1-6c-1-5-2-6 0-8l2-2 5-1h3l-2-1c-5-1-15-8-22-14-4-4-4-5-3-5a160 160 0 0113 6l-2-5-3-7c-1-3-3-5-6-6l-1-1v-1l3 1 6 4 1 1-1-7-2-6 1 1 2 3 1-4 2-13v10a78 78 0 011 6v4l1-3 1-5 1-2 1-1-1 3-1 8 1 9v-2c0-3 1-6 3-8l2-1 2 1c1 0 2 2 2 5l1 5v2l-3-3-2-3v6l1 4 1-1 3-1 4 6 4 10 2 4-2-3-5-5c-1 1 4 7 6 9l1 1-1 2c-2 2-2 4-1 5h-3l-10-2-1 2-2 7v2l-1 1-1-1zm123-20l-1-1v-1l4-6 1-1v2l-1 1 3-1 3-2h1l7-4v1l-1 2-7 7-7 4h-1l-1-1zm-4-3l-1-4c-2-6-2-8-1-11v-4h2l1 3c2 2 2 3 1 4l1 3v6c0 3-2 5-3 3zm-71-11c-1-2-2-3-4-3l-2 2c0 1-4 1-7-1s-6-5-6-8v-2l1-2v-2l-4-1-1 1v-2-8a39 39 0 00-3-10 4990 4990 0 0184 1l-3 7c-1 5-2 8-1 12v1h-4c-1 1-2 3-1 4l1 1c1 1 1 2-1 5-3 3-6 4-10 5l-1-1c-2-3-5-2-7 1l-5 1-2-1 1-1-2-4h-2l-2 1-1-1-1-2-1-1-1 1-1 1-1 2-2-1c-1-1-1-1-3 1l-1 4-4 1h-2l-1-1zm-9-8h5l2-1 1-1c2 0 2 0 2-2v-3l-1-3-1-3h1l1-1v-1-5a4 4 0 00-1-1l-1-2-1-1h-2c-2-2-3-2-5-1l-3 1-2 1h-1v1a8 8 0 01-1 1l-2 5 3 2 1 3v4l-1 4-1 1 1 1 6 1zm47-1h5c3 0 4-1 4-2v-4l-1-5 1-2 2-2c1-1 0-4-1-6l-3-2-5-1h-2-1l-6 5c-1 3 0 6 2 6l1 1-2 6v2l1 3 3 1h2zm-18-1h2l2-1-1-10v-1l2-1 1-2-1-3v-1c0-1-4-4-6-4h-2l-1-1-7 3-1 4-1 2 1 3c1 1 2 1 2 3l-1 5-1 2 1 1c1 1 2 2 4 1l3 1 4-1zm59 10c0-2 0-3-3-6l-3-7v-9l6 12c1 5 2 9 1 10l-1 1v-1zm3-2v-3c1-3 0-6-1-9l-3-5-1-7-1-6-1-1c0-1 3 0 4 2 3 2 5 8 6 12l-1 5-1 7 3-3a222 222 0 015-5l3-4v-2l1 1c0 2 0 7-2 10 0 2-5 6-8 7-2 1-2 2-3 1z" fill="#076a21"/><path d="M337 353l-12-3c-6-2-8-4-16-9-4-2-10-8-14-13a98 98 0 00-12-13l10-2 12 8 5 5 1 2c1 3 4 5 6 4 1 0 2 0 3 2 5 4 13 6 20 6s15-2 20-4l3-1 3-2 2-2 10-8 5-5 5-1h6l6 2-2 1h-3l-1 1-5 6c-5 7-11 12-19 17-10 7-21 10-33 9zm-91-12c-4 0-9-1-15-4l-10-6-14-13-11-11-6-4h-2l2-1 5-5 2-1 7 3 1 2 1 2 3 2a114 114 0 0030 22l14 2 9-4 1-1h15l-6 6-11 8c-5 3-11 4-15 3zm184 0a66 66 0 01-31-11l-4-2-2-4 1 1 15 1 9 2 15 2 12-2 13-7 10-9 9-8c6-4 6-4 11-1l5 3 1 2h-1c-2-1-3-1-5 1-3 1-10 7-10 8l1-1v-1l1 1v2l5 4 2 2h1v-1l3-1 1 1h2l4 5c1 4 3 5 6 4v2l-2 1h-2l-4-2h-1l-1-1c-1-2-1-2-3-2h-3c-1 2-2 3-7 4l-12 3-1 1v-1a14 14 0 016-8l2-1v-1-4l1-4-1-1-4 5c-6 6-12 11-19 14-6 3-14 5-23 4zm-221-4l-7-2c-5-1-7-2-7-4l-1-2-3 2-3 3-2 1c-2 1-9-1-10-3-1-1-1-1 1-1l6 1 3-2 1-2c0-2 6-8 8-9l4-3 1-2 3 2 3 3v3l-1 6h-1l2 2c2 2 3 5 3 7 0 1 0 1 0 0zm152-27l-1-1c-2 0-2-1-2-2s0-2 2-2c1-1 2-1 3 1v3l-2 1zm17-7l-2-3v-1l1-1-1 1-2-1c-2-2-1-4 2-4l2 1v3h1c2 0 3 1 3 2 1 2 1 3-1 3a18 18 0 00-1 1l-2-1zm15-9l-1-2-1-1-3-3c0-1 0-2 2-2l3 1 1 2h1l3 2c1 1 0 3-1 4h-2l-2-1zm13-16v-3c1-2 4-1 4 1l-1 3-3-1zm-9-2c-1-1-1-2 1-3l2-1 2 1c2 2 0 4-3 4l-2-1z" fill="#d10b10"/><path d="M342 317l-6-3h-1l-1 1-4 3-1-1 2-1 2-2 1-1-7-1-10-1c-5-1-14 0-21 1l-4 1c0-1 4-3 11-5l3-2h-12l-3-1h3l5-2 1-1 1 1h1l3 2 2 1h9l3-1-3-1-5-3-7-5-6-8-1-7 4 4 3 3 1 2h3l7 2 7 5a636 636 0 0015 11l3 2 8-9 2-2 3-2 8-3 1 1-7 8-4 4a78 78 0 0014-9l8-6h4l-3 3-1 2-3 3-2 2 3-1 6-1-3 1c-4 1-4 1-1 1h3l1 1c1 2 4 2 5 1l1-2-2-2-1-2c0-2 1-7 3-10 1-4 5-10 6-10v8l-1 3-1 5-2 3 4-3 2-2 1 1-3 2-2 2 4-1h3l6-2 2-1 4-1c2-1 2-1 0 0l-5 6c-4 4-12 6-17 4h-1l2 1a88 88 0 0110 3l-1 1-2 1c-3 1-8 2-13 1l-11-2-3-1-2-1h-3l-2 1-3 1-2 1a90 90 0 0017 4l2 1-3 1c-5 2-10 1-19-2l-5-1h-3l2 2 5 5h-1l-1-1h-1l1 1c1 2 0 1-5-1zm-25-17a28 28 0 00-11-9l9 8 2 1zm-40 8l-2-6v-8l2-2h8l-1-1c-6-2-16-9-23-15l-3-4a160 160 0 0114 5l-2-4-4-7c-1-4-3-6-5-7l-2-1s0-1 0 0h3l6 4 2 1-2-7-2-6 1 1c1 1 2 4 3 3v-4l2-13v4l1 6v6l1 4v-3l2-4 1-3c0-1 0-1 0 0v2l-1 8v8c0-4 1-7 3-9l2-1 2 1c1 0 2 2 2 5l1 5v3c-1 1-1-1-2-4l-3-3v1l1 5v4h1c1-2 3-2 3-1 2 0 3 3 4 5l4 10 2 4-2-2-5-6 6 9 1 1-1 2c-2 3-2 4-1 5v1l-3-1-9-2-2 2-1 7-1 2-1 1v-1zm122-20l-1-1v-1l4-6c1-1 1-2 2-1l-1 2v1l2-1 3-1 2-1 6-4v1l-1 2-7 8-7 3h-1l-1-1zm-4-3l-1-4c-2-5-2-8-1-11l1-3c0-2 0-2 1 0l1 2c2 2 2 3 1 4l1 3v6c0 3-2 6-3 3zm9-11l-3-6c-3-3-3-4-4-7v-9c1 0 6 9 6 13 1 4 2 8 1 9v1-1zm2-2v-2c1-4 0-6-1-9l-2-6-2-7-1-6v-1l4 2c2 2 5 8 5 13l-1 4v7l2-2a222 222 0 015-6l3-4 1-2v1c1 2 0 7-1 10l-8 7c-3 2-3 2-4 1z" fill="#076a21"/><path d="M343 339l-2-2-1-5 3-8a22 22 0 0117-8l20 2c1 0 1 1-1 2l-2 2h-1c-3-2-6-3-11-3l-5 1 3 2 6 2h2l-2 3h-3c-1-1-1-1 0 0 1 3 0 6-2 7h-2l-2-1-1-3v-2l-1-1-5-1-4 1c-2 1-4 5-2 5l1 3c0 3-2 5-5 4zm-10-1c-2 0-3-1-3-2-1-2 0-5 2-5l1-1-1-1-3-3c-2-1-4-2-7-1-1 0-2 1-1 2 0 2 0 3-2 4l-2 1c-3 0-5-2-5-4l2-5 2-1h-2c-4 0-7-1-6-2l4-3h-11l-2-1-2-2 2-1 17 1 5 1c8 2 12 4 15 7s4 4 4 7l-1 7c-1 2-4 3-6 2zm180-11l-8-3c-4 0-6-2-9-6l-2-3 1 2 1 2-2 3-2-4-3-3h-1l1 5-1 3h-1l-1-1-5-4-1-1c0-2 0-2 3-4 1-1 3-3 5-3l4-2 3 2 4 2 9 4 9 2c3 0 8-2 8-3a2 2 0 011-1l-1-2-1-2v-3c1-3 7-3 8 0 2 2 2 6 0 7l-1 2h-2-1l1 1 2 2-4 2-3-1v-1 1l1 2v2l-4-3s-1-1 0 0l3 2c1 1 0 1-3 1-6 0-8-1-11-4l-2-1 4 3c2 2 2 3 2 5h-1zm-109-1l-11-2 1-2 2-2h6a33 33 0 0016-4c1-1 2 0 1 2v1l3-1 4-2v4c-2 2-2 2 0 1l2-2c5-2 6-4 8-8v-7l-1 1-2 3-2 2-3 1-6 1-7-5-2-5-1-6c1-4 1-6 4-9 2-4 5-6 8-8 5-3 14-3 22-1 5 1 7 2 11 5 7 3 12 6 17 12l5 4c2 1 2 1 1 2l-2 1a80 80 0 00-4 3l-2 2v-2h-1l-1 1-1-1h-2l-1 1-1-2-1 1-2 2h-1l-1-1v1c-2 2-4 3-6 1l-2-1v-2l5-1c1-2 1-3-1-2h-6l-3-3-1-1 2-1 1-3c0-4-2-7-4-8l-5-3h-10c-4 1-6 2-8 5l-4 6 1 6 3 3 1-2 2-4 3-3h4l4 1c3 2 6 4 7 7l-1 9c-1 3-2 6-4 7l-2 2-2 2-11 4h-19zm-238-3h-1l2-3 4-4c1-1 2-1 0-1l-3 2-1 1-3 1-3 1h-9l-3-1c-2 0-1 0 2-3l3-2v-1h-3c-4-2-6-5-4-8l4-2c2 0 3 1 3 2 1 2 0 3-1 4l-1 2 1-1h2l12 2 20-7 1-1 2 1 3 1 6 5 1 1-1 2-3 4c-2 2-3 2-7 3a56 56 0 00-7 2c-1-1 4-7 6-8l1-1-9 5-4 3c-3 1-7 2-10 1zm92 0l-12-3c-5-3-7-5-9-8s-2-5-2-8c0-6 2-10 7-12l5-1 3 1h2l2 4v5 2c2 0 4 0 6-2l1-1h-2l2-2 1-3v-2l-1-4c-1-3-3-5-6-6-2-2-4-2-9-2l-8 1c-6 1-7 1-9 4-3 3-2 7 1 9v1c-1 2-5 2-7 1l-1-1-1-1v1c0 2 1 3 4 4l1 2-2 3h-6c-1 1-2 0-3-2-1-3-2-3-2-2l-2 1h-1v-1l-2 1h-2c0-2-3-4-5-6l-2-1 11-10 14-7 13-4a32 32 0 0118 3 21 21 0 0112 16l-2 7c-2 5-4 6-10 8l-4 1-2-1-4-2-2-6h-1l-1 4v5c1 2 3 5 6 6l6 2v-2-2l2 1c2 2 8 4 9 4v-2l-1-2h2c5 3 14 4 16 2l1-1 2 1 5 6-4 1h-27zm46-19l-6-3-3-2-1-3 2-5 3 1 2 1 2 2 1 1 3 2 9 6c3 1 2 1-7 1h-2l-3-1zm33-11l-2-1h-4l-6-1-4-1h-4l-6-3h-1l-8-4-2-2-2-4-6-6-1-2 1-5-1-1-2-2 1-2 1-1 1-1 2-7c0-2 0-2-2-2l-3-1-2-1-1-1h1l3-3a5 5 0 010-1v-2l-2-4-2-1v1h-3l-3-2-2-2-4-4-5-5-1-6v-9l-1-2-1-3 1-3 4-7v-4c0-3 2-6 3-8a51 51 0 002-2l6-3 4-2 2-2v-1c-1-2 0-3 2-6 2-2 3-3 7-4 3 0 3-1 4-3 3-4 4-5 7-5l2-1 1-1h-2v-1c0-1 0-2 3-3l5-2 4 3 2 1 3-1 4-1 4 1 1 1 2-2 1-1-1-1-2-1-3 1-4 1v-1l1-1 1-1h-1l-2-1 5-1 3 1v-3l1-4 1 1 1 4 1 2h1l3 1c2-1 2-2 2-4v-3l2 1v2c0 3 0 3 3 4l4 4v1l-3-1h-2l-2 1 5 1 6 1 4 1-3-5v-2a18 18 0 0110 5v1a5 5 0 01-1 2l-1 1 3 1 5 5 2 3 2 1 3 1 5 5v2l2 1 3 1 4 1 2 4 2 4 4 2c2 1 2 2 2 5v4l2 2 5 6-1 4-1 2v2 5l1 2c0 2-1 5-3 7a64 64 0 00-2 2l-2 1-1 3-1 4c0 3-2 4-5 5-2 0-4 0-5-2h-1l-2 2c-2 1-2 1-2 3l1 5 3 2h1v2l-3 2c-1 1-2 2-3 1l-2-1h-1v4l1 3 4 2h3l-2 4-1 2-1 2-2 5-1 4-3 1-6 5-4 3-5 1-3 1-1 1-3 1c-1 2-1 2-4 2h-3l-3-1-4 1-5 1h-4zm-9-18a7 7 0 011 0h2v-2c-1-2-1-2 1-3h4l1 1 1-2 2-3 2 2 2 2h3l1 3v1l3 1h3l2-1v-2c2-1 4 0 5 1l4 1 3-2 3-2 2-2 1-2a3 3 0 001-1l-1-1c-3-2-1-6 2-6l2 1v-11a30 30 0 018-15l1-1h-2c-3 0-5-4-3-7h6l3-7 1-4v-16a44 44 0 00-8-16l-1-1-2-1-4-2h-3v1c-1 2-2 3-4 3-2-1-3-2-3-4l-1-1c-2 1-3 1-5-1-1-1-2-3-1-5 1-1 1-1-1-4l-1-4-4-3c-2-2-3-2-5-2h-2l-1 2-2 1-3-3-1 1h-2l-1-1h-1c-1 2-2 2-4 1l-1-1-1-1-2 1-4 2h-2l-3 6-1 6c0 6-1 7-3 7l-3-2-1-1-1 2-3 1c-2 0-3 0-4-2v-1l-4 1-7 6c-3 3-6 6-7 9v12l1 3-3-1c-2-1-2-1-1 2a40 40 0 007 15l1-1h3c2 0 3 1 3 3l-1 2c-1 1-1 2-3 2h-2l2 1 6 8 3 10-1 9v1h6v4l-2 1 1 2v2l7 6 3 1 3-1 3-1 2 1 2 2h3zm-7-191l-4-2-1-1-1-1c0-3 2-4 5-2l2 1 1 3 2 2-1 2-3-2z" fill="#dca90d"/><path d="M496 308l-2-4v-7l1-2v-2-3l1-3v-2l1-3v-2l1-3 1-3v-2l1-4v-3l1-2v-3-3-3-3l-1-2 2 1v2l1 3v4l-1 4v2a85 85 0 01-4 20v4l-1 2-1 3v5c-1 0-1 0 0 0v2l1 4c1 1 1 0 1-1 1-3 1-5 3-5v1l-1 3-1 4-3 1zm-316-5l-1-4v-4c2 0 2 1 2 2l1 3 1-2-1-4v-2c0-1 0 0 0 0v-2l-1-8-1-4-1-8v-2l-2-8v-14a166 166 0 00-14 13l7-8 7-8v-1l-2-1h-2l-6 7-6 6h-1l2-2 4-4 7-8h5v4a187 187 0 012 19l1 5 1 4v6l1 4v4l1 4 1 7-1 4c-1 2-3 3-4 2zm331-45a171 171 0 00-13-13s0-1 0 0v-2-2h5l7 7 4 5 2 2h-1l-6-6-6-7h-2l-2 1 1 1 7 8 6 8v1l-2-3zm-6-16l1-1 5-5 5-7c0-1 0-2 1-1l-1 3c-1 3-5 8-7 9-3 3-3 3-4 2zm-337-2c-3-2-6-6-8-10l-1-3 2 1c0 2 2 4 5 7 3 4 3 5 5 5l1 1-1 1h-1l-2-2zm327-1l-11-9-4-4v-2h1l2 2a62 62 0 009 8 49 49 0 006 5v2l-3-2zm-317 1v-2l2-1a50 50 0 006-5l7-7 2-2 1 1v1l-4 4-14 11zm321 0l1-1a98 98 0 0012-14l1-1-1 3c-2 4-11 13-13 13zm-326-4l-9-10v-3 1l2 3 10 11 1 1-4-3zm304-11l3-2 8-8 2-4c0-2 1-2 1 0l-3 6-9 8h-2zm-280-1c-2-1-7-5-8-8l-3-6c0-2 0-2 0 0l2 4 8 8 3 2h-2zm276-5l3-3c5-3 8-6 9-8s2-3 2-1-1 3-5 6c-4 5-9 7-9 6zm-271 0l-8-7c-3-3-4-4-4-6l1 1 9 8 4 3-2 1zm269-4l-2-3c-2-1-3-3-6-9l-3-7v-1l-1-6-2-3-7-7-3-4h3l1 2a42 42 0 009 10l2 1 7 4 10 4 5 2 1 2h-2a993 993 0 00-19-8l-2-2-1 1 1 2v2l1 2v1l1 2 1 1 1 2v2l1 1 2 2 1 2 1 1 1 1 1 1 1 1 1 3h-1c-1 1-1 1-3-2zm-269 1h-1l2-2 1-2 1-1v-1l1-1 2-2 1-2 1-1v-2l1-2 1-1 1-2 1-1v-2l1-2v-3l-3 2-10 4-9 4h-2l1-2 5-1 10-5a63 63 0 0012-8 42 42 0 008-9h2l-2 4-8 8-2 2-1 6v1c1 1 0 4-3 8l-5 8-3 3-2 3-1-1zm284-22h0c-1 0-1 0 0 0zm-3-1c-2 0-5-2-4-3l6 3a3 3 0 00-1 0h-1zm-294 0h0zm3-1h-1l6-3c1 1 0 1-2 2-1 1-2 2-3 1zm281-3c-5-2-7-3-11-7-5-3-6-5-8-7l-2-4c1 0 2 0 4 3 3 4 11 10 17 13l4 3v1l-4-2zm-273 0l4-3c6-3 13-8 17-13l3-3c1 1 0 1-1 4l-13 11-11 5 1-1zm266-33v-1h3v2h-2l-1-1zm-259 0l1-1 2-1v2h-3zm269-8l-2-1-1-1 2-1 3 1v2h-2zm-279-2l1-2h5l1 1-1 1-2 1h-3l-1-1z" fill="#fff"/><path d="M339 149v-2l-1-2c-3-2-3-2-5-1a27 27 0 00-5 1v-2l1-1-1 1-1-1 1-1 2-1a30 30 0 013 1l2-1v-4h-1-1l-1-1-2-4-2-5c-1-2-1-2-3-2l-7-3c-5-3-5-3-5-1v8a42 42 0 01-2 13l-1 2-2-6h-1l-2-8-2-10-5-20-1-8-1-5 3-3h2l3 2 6 10c2 4 3 4 4 2l1-2 6-3 4-3c0-2-1-3-4-4l-4-3-1-1v-3h8l6 2c3 2 4 4 4 8l-1 5v6l1-1 4-10c1-4 6-5 11-1l9 9a151 151 0 0028 28v1c-1 1-2 1-5-1l-4-2 5 5 5 4-1 1a42 42 0 00-1 0l-6-2-4-2a610 610 0 00-25-15v3l12 8c15 11 17 13 18 15v1h-5l-7 1-2 1c-1 0-7-4-10-8l-3-2v1l-2 4-2 2-1-1v2l2 2c3 2 4 3 4 5h-1l-2-1-4-1-2-1-5 5h-1zm1-2v-1l-1 2 1-1zm3-1l-1-1h-1l1 1h1zm10-1h-1l1 1v-1zm-14 0v0c0 1 1 1 0 0zm11 0l1-1v1c0 1 0 0 0 0v-1h-2l1 1zm-6 0l-2-1 1 1h1zm5-1a1 1 0 010-1c1 0 1 0 0 0h-1l-1 2 2-1zm-19-1l-2 1h1l1-1zm15 1l-1-1h-2v1h3zm-6-1l-1-1c0-1 0 0 0 0v-1-1c-1 0-1 0 0 0v-1h-1c-1-1-1 0-1 1 1 0 1 0 0 0l-1 2c0 1 0 1 0 0h1v1c0 1 0 0 0 0h1v-1 1a1 1 0 000 1h1l1-1zm2 1l-1-1v1h1zm-10-1c0 1 0 1 0 0zm15 0l-1-1h-1l1 1h1zm-14 0zm15 0v-1-2l-1-1-1 1 1 2v1h1zm-14 0v-1 1c0 1 0 0 0 0zm1-1v0zm-23 0v-3l-1-4-1-3v7l1 3h1zm20 0v-1 1c0 1 0 0 0 0zm9 0h-1 1zm4-1l1-2-1-2v1c-2 2-3 2-4 0-1-1-1-1-1 1l1 2h4zm-14 1v-1h-2v1h2zm2 0zm33-1l-4-4-4-3 4 3 5 3h2l-4-3-3-3-1-1 5 3 5 3h1l-3-2v-1 1l1 1 1 1-1-1a183 183 0 01-2-2v-1l-2-1-3-3 10 7 1 1-1-1-3-3-4-4a101 101 0 00-3-2c-2-2-1-2 1 0a107 107 0 0111 9l2 1h1l-6-4-10-8-5-4v1l1 1-2-1-1-1 3 3 2 2-2-1-3-3-2-1 2 2 2 2-4-3c-2-2-3-2-1 0l2 2-3-2c-2-1-2-3-2-3v1l3 4 3 3-6-5-3-2h1v1l2 3 2 2-3-3-3-2 2 3 1 1-2-2-2-2c-1 1-7-5-7-5l2 1-1-1-2-3h1c0 1 0 1 0 0l-2-3h1v-1l-1-2 1 1h1l-1-2-1-1 2 2 3 2-1-1-1-2 1 1 3 2v-1l1 1 2 1v-1l-1-2-1-1 4 3 3 3-2-2-2-3 2 1 1 2-1-1v-2l2 2v1l-1-2-2-3 2 2 2 3v-1c-1-2-1-2 1 0l1 1-1-1v-1h1l1 1 1 1 2 2-2-2-1-3v1l6 6-2-3c-2-2-2-3 0-1l2 3 2 2 5 3 8 6 7 5-2-2-16-12-5-7 2 3 7 6-1-1-3-3a50 50 0 018 8l3 2-5-5-6-7h1c1 0 0 0 0 0a182 182 0 0019 17l-5-3-4-4 5 4 6 4h1l-9-7-1-2h1l-1-1 2 1 6 3-5-4-5-3 6 3 6 4-5-5a100 100 0 01-8-6l1 1a106 106 0 01-10-11l-6-7-10-10-2-1h-6l-1 4-1 2-1 1v2l-1 1c0 1-2 4-4 4-1 1-1 1 0 0v-1l-1-1v1l-1-1v2l-1-1c0-2-1-2-1-1s0 1 0 0v-1h-2c-1-1-1-1-2 2v-1-2l-1 2v-2l-2 5 1 4 1 2-1-2-1-4 1-3v-3l-2 7 1 3c1 3 1 3-1 1l-1-4 1-3v-1l1-1v-2l-2 4-1 1 1-1v-3-1l-1 2-1 5v0l-1-3v4l1 6 1 2 3 4 1 2 7 5 2 2-3-3 6 5c6 4 8 6 8 8l-1-1-2-2-2-2h-1l-1-1 1 3v1l-1-1v1l1 2 1 1 2 1v-1l1-1v1 2c0 1 0 1 0 0h1v1c0-1 0-1 0 0s1 1 2-1l1-1-1-2-1-2c0-1 0-2 1-1l1 4a4 4 0 000 1h3l2 2 1-1h-1c0 1 0 1 0 0l-1-1v-1-1l1 1v-1-1 2h1v-1c1 2 1 1 1 0l-1-1-2-2 1 1v-1l-1-1 1 1 2 1-1-1-1-1h1l2 1 3 2 2 2a102 102 0 008 6zm-2-3l-3-3-2-2 8 7-3-2zm9-2l-2-2a121 121 0 012 2zm-28-2v-2l3 1h1-2c0 1 0 1 0 0h-1c1 1 0 1 0 0v2l-1-1zm-5-1l-1-2-1-1 3 3h-1zm-6-9l-4-3 5 3 3 4-4-4zm8-1l-3-3 6 6-3-3zm-16-4l-1-1-6-7h1l6 7 2 2-2-1zm10 0l-1-2 3 2h-2zm-5-3l-3-4 2 3c4 3 5 5 4 5l-3-4zm43 3l-5-5-6-6-5-5-5-5a225 225 0 00-1 0l3 4 3 4-3-4-4-3 4 5 3 4-3-3-2-2-1-1-2-2 1 2a137 137 0 004 5l-6-6 2 3 1 2-3-3-2-3v-1l-1 1 1 2 2 3-2-3-3-3-1-1-1-1 1 1v1h-1v1l3 3-1-1-2-1 1 1h-1c-1-1-2-1 0 1v1l-2-2c0-1-1 0 0 0l-1 1-1-1h-1c-1 1-1 1 0 0v-1h-1l1-1h-1v-1h3l1-3v-1c0-1 0-2 1-1v-1l-1-2 1 1v-1-2 1l1 1v-3l1 2v-1-1h2c-1-1 0-1 0 0l2 1c-1-1 0-1 0 0l1 1 5 5-1-1v1l4 3 2 3-3-3 2 3 2 2-1-2 4 4a282 282 0 0012 14zm-12-13h-1l-1-1 1 1h1zm-10-5s-1-1 0 0l1 1-1-1zm-5-3v-1h-1l2 1h-1zm4-2l-1-1v1h1zm-1-5h-1l-1-1 1 1h1zm-23 24l-3-2c2 0 7 5 6 5l-3-3zm43-2l-5-6a117 117 0 015 6zm-46 1l-3-3-3-5 2 2 3 5 3 3-2-2zm37-3l-2-3c1 0 0 0 0 0l5 6-3-3zm-38 0l-4-7v-3 1l3 7 2 2h-1zm6-2l-1-3 2 4-1-1zm3 0l-2-2-1-2v-1l2 3c2 2 3 3 1 2zm-7-4l-1-4c0-2 0-1 1 1v3l1 1-1-1zm5-1l-1-1c1-1 1 0 2 1h-1zm-4-2v-1 1c1 2 1 2 0 0zm19 0l-1-2 2 3-1-1zm12-5l-5-7 1 1a323 323 0 004 6zm-31 3l1-2v3l-1-1zm2 1v-3 3zm41 39l-3-3-4-2a188 188 0 007 5zm11-1l-2-3 1 1 1 1h-1a783 783 0 00-9-6l4 3v-1l1 1 3 3 2 1zm-3-2l-2-2 5 4-3-2zm-4-3c0-1 0-1 0 0h0zm-1 4h-1l-1-1 1 1h1zm-59-3v-3l-1 2v4l1-1v-2zm35 2h-2l1 1 1-1zm-9 0l-1-1-1 1 1 1 1-1zm-27-4a108 108 0 010-4l-1-3-1-4c0-4 0-4-1-3l1 9 2 9v-1-3zm26 3h-1 1c1 0 0 0 0 0zm-29-3l1-2v-1a360 360 0 01-3-14l2 10-2-12-2-12h1a168 168 0 01-3-7l-1-5a161 161 0 00-1-1l1 3 1 7 1 4v1l-1-3a193 193 0 01-2-15l1 1v-1 1l1 1c0-2 1-2 1-1v1l1-1v3h1l1 2v2l1-1v-1 3l1 1v-1c0-1 0-1 0 0l1 2v-1 1l1 2h1l1 1v2l1 3v3l-1-3-2-4a147 147 0 001 5l-1-2v-1a83 83 0 002 9l-1-3-2-6 1 3-1 1v-2l-2-5a139 139 0 000 3v-1 4l-1-4-1-3v7l2 8 1 4v-5l-1-2 2 7 1 4c1 0 1-3-1-8v-6l1 7a60 60 0 011 8c1 0 1-2-1-9l-1-7 3 15c0 2-1 3-1 1v-1l-1 1 1 4 1 4 1-5v-10l1 1-1-2v-3l1 3 1 3-1-5-1-3 1-1v1c1 1 1 2 1 0v1l1 1v-1l1 2c0 1 0 0 0 0l1 1v1c0 1 0 0 0 0l2 2 3 3h1l2 1-2-2c-5-4-9-9-10-14l-1-4-1-3-3-5-7-9v1h-3l2-1c-1-1-2 0-3 1l-1 2a52 52 0 002 8 255 255 0 012 6l5 26-1-4-1-4a153 153 0 002 12l1 3c0 2 1 2 1-1zm-5-27zm32 29v-2l-2-4-1-1c0-1 0 0 0 0l1 3 1 2-3-6c-1 0-1 1 1 3s1 3 1 4l1 1h0v1l1-1zm-2-1l-5-9 3 7 1 2c1 2 1 2 1 0zm42 0zm-23-3h-1 1zm-22-6l-1-2 1 3v-1zm-4-2c0 1 1 1 0 0zm29 0zm-3-1l-1-1-1-1 1 1 1 1zm0-2l-1-1 1 1zm-48-3v1c0 1 0 0 0 0v-1zm-2-4l-2-10-1-5 2 12 2 8-1-5zm18 4l-1 1h1v-1zm-16-1v0zm45-1l1 1-1-1zm-35-4v0zm2-3l-1-1 2 3-1-2zm-1-3c0-1 0 0 0 0 0-1 0 0 0 0zm-8-6zm0-1c0-1 0-1 0 0zm8-1v-1l-1 1v1l1-1zm2-1l1-1h-1l-1 2s0 1 0 0a46 46 0 011-1zm-18 0l-1 1h1v-1zm19 1v-1l-1 1c0 1 0 0 0 0h1zm14-1v-3l1-6-1-4-1-2h-1l-6-3c1 1 0 1 0 0l-2 1h-6v1h1l4 2 2 2-4-2-2-1 5 3 3 3v3l-1 1-5 2h2v1h2v1l1-1h1l1 2c0 1 1 1 1-1l1-1 2 3v-2-1l2 3v-1zm-7-2v-2l1 2v1-1h1c0 2-1 1-2 0zm4-1v-1c0-1 0-1 0 0v1l1-1v-1 1l1 1c0-1 0-1 0 0h-1l-1 1v-1zm3-5v-1c0 1 0 1 0 0h1c0 1 0 2-1 1zm-6-3l-1-2 2 2h-1zm-2-3v-1l1 1h-1zm3 0h0zm-2-1h-2v-1l3 1h-1zm-22 13v0zm0-1h-1l1 1v-1zm-2-5v1c0 1 0 0 0 0v-1z"/><path d="M338 293h-3l-4-1-6-1-5-1-7-1-5-3-5-2-2-2-4-5-5-6c-2-2-2-2-1-6l-1-2-1-2c0-1 0-2 2-3l1-2 1-4v-3h-2l-2-1-3-3h1l2-2 1-3-2-4-1-1h-6l-2-2c0-1 0 0 0 0l-1-1c0-2-1-3-3-4-3-2-6-5-6-7l-1-6c1-2 0-5-1-8l-1-4 2-6 2-4 1-3c0-6 1-8 4-11l6-4-1 1-7 6-2 8v3l-4 9v2l1 3 1 9v4c0 2 2 5 6 7l4 4c0 1 0 0 0 0l3-3 1-1h-5l2-1c2-1 2-1 1-2l-2 1h-3l2-1 2-2-3 1h-2l2-1 2-1v-1l-3 1h-3l2-1c2-1 3-1 2-2h-6l3-1 3-1h-1-6l1-1 3-1 2-1h-3c-4 0-4 0 0-1l2-1v-1h-5l4-1h1l-3-2h1l2-1-4-1-1-1h5v-1l-3-2h-2 2l3-1-3-1h-2 3l2-1-2-1v-1h3l-1-2-2-1h4l-1-2c-2 0-1 0 0 0h1v-2c-2-1-2-2 0-1h1v-1l-1-1h1c2 1 2 0 1-1h-1 3l-1-1v-1h2c1-1 0 0-1-1s-1-1 0 0h2l-1-1-1-1h3l-1-1h2v-2l2 1v-2h1c1 0 1 1-2 4-5 4-7 8-9 13-1 5-2 9-1 13 0 7 1 12 5 17 2 3 4 4 5 4l2 1 4 1 3-3v-3c-2-2-4-2-5 0h-2a30 30 0 01-7-23v-1 2c0 3 1 5 3 6h1l-1-4v-9c1-5 5-10 10-14l7-4c3-1 4-1 4 1h-1l2 2h2l2-2-1-4-5-2c-1-1-6 0-8 1-1 1-1 0-2-1v-1h1l1 1v-1c-1-1-1-2 0 0h3l-2-1v-1l1 1 2 1v-1c-3-3-3-3 0-1l2 2v-1c-3-4-3-4 0-1s4 3 2 0l-3-4 4 4 3 3-5-7v-1l4 4 2 3c1 0 1-1-2-4l-2-4 4 4 2 2v-1l-3-4-2-4 3 4c2 2 2 3 3 2l-2-4c-3-6-2-5 1 1l1 1v-1l-2-6 3 5c0 1 0 1 0 0v-4l1 1c1 3 2 2 1-2l-1-1 1 1 1 2 1-2-1-2 1 1c1 1 1 2 2 1l-1-1v-1l2 1v-1c-1-2 0-2 1-1h1c0-2 0-2 1-1v1l1-1c-1-2 0-2 0 0h1c0-2 1-2 1-1l1 1v-1c0-2 1-2 1 0h1c0-2 0-2 1 0 0 1 0 2 0 0l1-2v2c0 2 1 2 1 0 1-2 1-2 1 0s1 2 1 0l1-1s1 0 0 0v2l1-1 1-1 2-1h-2l-3-1-2-1h-3l-9 3-8 2-5 1c-3 1-4 2-5 5l-2 2-3 1-5 2-4 4v1c0-2 2-4 4-5l6-3c2 0 3 0 4-3s3-4 7-5l1-1-2-2 5-4 12-3c3 0 2 0-1 1l-5 1 2 2c2 2 2 2 6 1l2-2h2l5 3 1-2 1-1-1 2 1 1h1v1l1 1h1l1 1v1l1-1h1c1 2 1 2 1 0-1-2 0-2 0 0l1 1 1-2v-1 1c1 2 2 2 2 1 0-2 0-2 0 0h4c0-2 1-2 1 0v1l1-1c0-2 1-2 1 0v1l1-1v-1 3l1-1 1-1v3l1-1 1-1v2 1h2v-2 4c1 1 1 1 1-1 1-2 1-1 1 1 0 3 0 3 1 0 1-2 1-3 1 0l-1 3v1c1 1 1 1 2-2l1-3-1 4-1 3c0 1 1 1 1-1l3-4-1 3-2 5 3-3 2-4-2 5-2 4v1l2-3 3-4-2 4-2 5 2-3 4-4-1 1-4 6 5-4c2-3 2-2 0 1-3 3-3 4 1 1l3-3-2 3-2 2 3-2 2-2-1 2-1 2 1-1 3-2-2 2v2l1-1c2-2 3-2 1 0l-1 1c1 1 2 0 2-1h1c-1 2 0 3 1 1h1v2l1-1v1h1c1-1 1 0 1 1l-1 1 2-1c1-1 1-1 0 0v2l1-1h1l-1 1c0 2 0 2 1 1h1l-1 2h2l1-1-1 1v2l1-1 2-1-2 2c-1 1-1 2 1 1s2-1 0 0l-1 2 2-1h2l-3 2h2l2-1-3 2v1l2-1h2l-3 3h1l4-2-4 3v1h2l2-1v1l-2 1c-1 0-2 1-1 2l2-1 3-1-3 2-2 2h3l2-1c1 0 1 1-1 1-4 2-4 2 0 2h3l-3 1-3 1 2 1h5l-6 1-1 1v1h7l-4 1h-3l2 1h3l1 1h-3l-3 1 2 1h5l-4 1h-3l3 2c5 0 5 1 0 0l-4 1 2 1 5 1h-7l3 2c5 1 4 2-1 0l-3 1 3 1 3 1h-7l3 1 3 2-3-1h-4l2 1 3 2-3-1-2-1c-1 1-1 1 1 2l2 1h-2l-2-1c-1 0-1 1 1 2h-1l-3 1 1 1 4 2v3l2 1 2-6c1-4 1-4 3-5l5-5v-14l1-5-5-8-1-4-2-6-2-1c-2-1-3-1-3-3l-4-6-3-1-5-2-1-3-3-2-4-3c-3 0-4-1-4-3l-3-4c-1-2-4-3-6-2l-4-2c-3-2-4-2-9-2l-6-1-3 1h-3l1-1h2l2-1 3-1h1l-1 1-1 1h7l5 1 2 1-1-2-4-4-3-1h2c6 0 11 2 13 5 1 1 1 2-1 3l2 2c2 1 5 3 5 6l4 3 4 1 3 4c2 3 3 4 6 5 4 1 5 2 8 8l2 1 3 2 1 6v3l2 2c3 2 4 5 4 7v5l-1 2v5l1 5c-1 3-3 5-6 7l-1 1-1 3-1 5c-1 1-1 2-3 2-2 2-5 2-7 0-1-1-1-1-3 1l-2 4c0 2 0 4 2 5l3 1v3l-2 2h-6l-1-1v1c-1 1 0 4 1 6l5 2h2v1l-3 4v1l-1 3-1 5c0 2-2 4-5 5l-3 2c-5 6-5 6-10 6l-8 4-4 2-4-1-8 1h-7zm6 0c4-2 5-2 9-1h4l4-2c4-3 5-3 8-3 4 0 4 0 6-2l3-3 4-3c3-2 4-4 4-6a7 7 0 012-5v-1l-2-1-6 1h2l5 1-2 1-5 1c-1 0-1 1 1 1l3 2h-3l-3 1v2l3 1h-3c-4 0-4 0-2 2 2 1 2 1 0 1h-7l3 2 2 1h-3l-6-2 5 3 1 1-7-2-2-1c-1 0-1 1 1 2l2 2-5-2-2-1h-3l2 2 1 1-4-2c-1-2-2-2-3-2l2 3 2 3-6-5-2-2 1 2 3 6-4-5-2-2v1l2 4 2 3-5-5c-1-2-2-3-2-1l2 4 1 2-3-3h-1v2c0 2-1 3-1 1v-1l-1-2-2 1-2 2 1-2 2-4v-1l-2 2-5 5 2-3 2-4v-2l-2 3-4 5 2-4 2-4-2 2-5 5 1-3 2-3s-2 0-3 2l-4 2 1-1 2-2h-3l-2 1c-1 1-4 3-5 2l2-2c2-1 2-2 1-2l-2 1-7 2 2-1 4-3-5 2h-3l1-1c4-1 4-2 3-2h-7c-3 1-2-1 0-2l2-1h-4c-3 0-3 0-1-1s2-1 1-2l-3-1h-3l4-2v-1l-5-1-1-1h3c3 0 3 0 2-1v-2l-1-2-2 1-3 1h-1l-1 1 1 5 5 5 3 3 2 5 5 2 6 2 6 2 6 1 6 1h4c3 1 7 2 9 1zm-3-9c0-2 0-3 2-2h1l-1-3v-3h1l1 2a25 25 0 0024 0l2-1 7-8 1-5-1-3c-1-3-4-3-5 0l1 3 1 1-3 5c-2 3-5 4-9 5l-1 1v1l-3 2 1-1c1-1 2-2 1-3 0-2-1-2-2-2-2 0-2 0-3 2l-2 1-6-1v-2a4 4 0 000-2c-1-2-3-2-4-1l-1 1-2-3-1-1-2 4-2-1h-4l-1 2a5 5 0 001 2v1l-6 1-2-1c-1-2-2-2-3-2-2 0-2 0-3 2 0 1 0 2 2 3h-1l-2-2-1-1c-4-1-7-3-9-5l-3-6 1-2 1-2c0-2-2-3-5-2-1 1-2 2-2 5l3 6c2 4 6 7 9 9 7 2 9 3 15 2 6 0 8-1 10-3l2-1-1 3-1 3 1 1a3 3 0 001-1c1-1 1 0 1 2v2l1 1 1-1v-2zm-1 0v-1 1zm0-3c0-1 0-1 0 0v-1h-1v-1l1-2v-2 2a10 10 0 001 2v2h-1zm-7-7v-3h1v2l1 1h-2zm12 0v-1l1-1v-1 3h-1zm-6-2c-1 0-1 0 0 0h0zm1-4v-1l1 1h-1zm-11 7l2-1-1-2 1-2c2-1 4-2 5-1l1 1v-2l2-2c1-1 1 0 3 2 1 1 1 2 2 1h3c2 1 2 3 2 4l1 1 2 1h2l1-1c1-2 2-3 4-3l3 2 1 1c3 0 6-2 8-4l3-4v-2h-1c-1-2-1-4 1-5h3l1-1c-2-3-1-11 2-17l1-3h-83l1 2 2 6v11h4c1 1 2 1 2 3l-1 3-1 2c0 2 4 5 6 7l4 2 3-1 3-2 4 3 4 1zm-15-9h-2l-3-1-1-1v-1l1-5 1-4-2-1-1-2c-1-1-2-2-1-4l1-1v-1l1-1 1-1h1l2-1 2-1c2-1 5 0 7 1h2v1l1 1 1 2 1 1v4l-2 2-1 1 1 2 1 3 1 3c0 2-1 2-2 3h-2l-3 1h-5zm0-2v-1 1c0 1 0 1 0 0h1v1l7-1v-1-1l1 1 1 1v-1a16 16 0 000-1v-1c0-1 0-1 0 0l1 1-2-4-1-1-1-2 1 4 1 4v-2l-1-1-1-2v-1l1 5h-1v-2l-1-2v5c0 1 0 0 0 0l-1-5v-2 8l-1-5c0-4-1-4-1 2v-2-4h-1v5c-1 4-1 5-1 1v-6 3-1l-1-2v4l-1-2v4c0-1-1-1-1 1v2l1-8-1-2-1 3v3l-1-2v2l-1 3c1-1 1-1 0 0l1 1 3 1 1-1zm-3-8v-2 2c0 2 0 2 0 0zm12 0c0-1 0 0 0 0s0 1 0 0zm-4-1v0zm2-1v-1h-11l4 1h7zm-7-2h1l1-2 1-1 1-1 1 1h1l1 1 1-1-1-1v-1a1 1 0 001 0h1l1 1h-1v-1h-1v1l2 1v-1-3h-1v0l-1-2h-1l-1-1h-6l-3 1h-1l-1 1-1 1v1h-1a24 24 0 010 2l-1 1 1 1c-1 1 1 2 2 2h5zm-6-1c-1 0 0 0 0 0v0zm1 0h-1 1zm4 0v-1l1-1 1-1-1 2v1h-1c0 1 0 1 0 0zm-5-1v-1l1 1h-1zm2 0l3-3h1l-1 1h-1l-2 2zm-3-2h0zm2-1l-1-2 1 2c0 1 0 0 0 0zm2 0a11 11 0 001-1h1l-1 1h-1zm5 0v-1h1l-1 1zm2 0l1-2h-1l-1-1h2v2l-1 1c-1 0 0 0 0 0zm2-1l1-1h1a1 1 0 01-1 1h-1zm-10 0v-1l1 1h-1zm5-1v1-1zm-3-1h2c0-1 0-1 0 0h-4 2zm3 0v-1 1c0 1 0 0 0 0zm0-1h2-2zm2 8l1-1 1-1h-1l-1 1h-1v2c0 1 0 0 0 0l1-1zm3-1h-1v1l1-1zm44 15h-1-6v-1l-1-1v-4l1-2v-3l-1-2-1-1v-4c1-2 4-6 6-6h3c5 0 9 3 10 8l-1 2-2 1v2l1 5-1 6h-4-1-2zm2 0v-5l-1-6v4c0 4 0 4 0 0 0-3 0-3-1 1v-4 2-2c-1-2-1 0-1 3 0 5-1 6-1 2v-3 3l-1 3 1-5v-4l-1 3v-2-1 1l-1 2 1-3-1-1-1 5-1 4v-6l-1 3-1 3h1v2h3v-2 1l1 1c2 1 2 0 2-2l1-3-1 3 1 2 2 1zm-7-2v-2 2c-1 1-1 1 0 0zm-1-4c0-1 0-1 0 0h-1zm10 5h2v-2c0-1 0-2 1-1v2-1-1 1-1-1l-1-3v-1l-1-1c0-1-1-1 0 0 0 2-1 1-1 0v5l-1-6v3l-1-2 1 9h1zm2-1l-1-2v-3-1l1 7v-1zm-13-3l-1-1v2l1-1zm14-5h-1l1 2c0 1 0 1 0 0v-2zm-13 0h-1v1c0 1 0 1 0 0l1-1zm5 1h-1 1zm-5-1zm11-2l1-1h-10v1h9zm-10-1l-1-1h-1l2 1zm2-1l1-1 1-1h1v-1h-2-1v-1h2c1 0 3 0 3-2v-1 3l-1 3h3l2-3-2 2v-1-1l-1 3s0 1 0 0h-1v-1l1-2-1 1 1-2 1-2 1 1c1-1 1 0 1 1-1 0 0 0 0 0 1-1 1 0 1 1l-2 2v1l2-1 1-1v-1-1l-1-2h-1v-1h-2v-1h-1l-1-1c-2 1-1 1 0 1h-1c-2 0-3 1-2 2l-1-1c0 1 0 0 0 0v-1h-1c1 0 1 0 0 0s-2 0-3 2l-2 2v1l-1 1v2l1 2v-1c-1 0-1 0 0 0l1 1v-2-4c1-1 1-1 1 1l1 2h-1v2h1l3-2h0l-2 1v1 1l1-1zm-5-2c0-1 0-1 0 0zm4-3l1 1-1-1zm3 1h0c-1 0 0 0 0 0zm0-1l-2-1h3l-1 1zm-4-2h1v1h-1v-1zm6 0v-1h1l1 1h-2c0 1 0 1 0 0zm5 0h0c-1 0 0 0 0 0zm2 5v0zm1-1c0-1 0-1 0 0v0zm-4-2h-1l-1 1 1-1h1zm-5-4c1-1 0-1-2-1v1h2zm-24 23h-3c-2 0-3 0-4-2v-4-4l-1-3c-1-1-2-2-1-3v-2l1-3 2-2 3-1h6l6 3a23 23 0 000 2l1 4-2 3-1 2 1 8v1h-2l-2 1h-4zm1-2h1v-2c0-3 1-3 1 1 0 2 1 2 1 0v-1 2l2 1 2-1-1-4-1-3v-2 3l-1-2v-1-1 7l-1-1v-3c-1-3-1-3-1-1v1l-1-2v2l-1-2v3c-1-5-1-4-1 1v2l-1-3v3l-1-2v-2-1c0-1 0-2-1-1v3l-1 2v-2-1 1h-1v-1-1c0 1 0 1 0 0 0-2-1-2-1 0v3l-1 2v1h1v2c0 1 0 1 0 0l1-2v-2 4h1l1 1v-1-1h1v2l1-2v-1 1c0 2 0 2 2 2l1-1zm-7-1l-1 1h1v-1zm0-8v0zm4 0v0zm6-1c4-1 3-1-4-1-5 0-8 0-6 1h10zm-3-2v0zm-6-1c0-1 0-1 0 0l1 1v-1l1 1v-2h1c0-1 1-1 0 0h2c1 0 1 0 0 0l1 1 1-2h1l1 1-1 1h-1v1l1-1h2c-1-1-1-1 0 0v-1c0-1 0-1 0 0h1l-1-1-1-1h-2v-1 1c1 0 1 1-1 1h-1l1-3h-1l2 1h1v-1c0-1 0-1 0 0l1-1h-2-1l2-1h2v1h-1v1h1l1 1a4 4 0 000 1c0-1 0-1 0 0l1 1v-1-1l1-1v-1h-1l-1-1-3-1h-5l1-1h-1l-2 1-3 2-1 3v3c0 1 0 0 0 0v-1 1l1 1v-1-1c0-1 0-1 0 0l1 1v1l1-1c0-1 0-1 0 0v0zm1-2h1v-1c0-1 0-1 0 0v2l-1-1zm-3-1c0 1-1 0 0 0v-2s-1 0 0 0l1 2-1 1v-1zm1 0v-1h1v1c-1 0-1 0 0 0v1l-1-1zm4 0v-1h1v1h-1zm-2-2l-2-1c-1 0-1 0 0 0h2l1-1-1 1v1c1 1 1 1 0 0zm11 0c-1 0-1 0 0 0zm-9-1l-1-1v1h1zm2-1h-1 1zm-1 7s1 0 0 0zm3 0h-2l1 1 1-1zm5 0c-1 0-1 0 0 0l1-1v-1h2l-1-1v-1h-1v4l-1-1h-1l1 1zm3-1l-1-1v1c0 1 0 0 0 0h1zm-9-3v0zm1-4l-1-1c-2 0-1 0 0 1h1zm47 23l3-4-3-1c-3 0-4-1-6-4v-4l1-1 1 1c3 1 8-1 8-4h-1c-2 0-4-2-4-5-1-3 0-4 2-7l2-2 1 1c2 2 4 2 5 1s1-3-1-5c-1-1-6-1-9 1s-6 6-8 10l-2 11 1 8 1 2 1 2 5 1 3-1zm-6 0l-1-1-2-3c-1-3 0-4 1 0l2 2 3 1h2l-5 1zm3-14l-1-1v-1c1 1 3 2 4 1h1l-2 1h-2zm0-11l3-5c2-2 3-2 5-1l3 1h2l-1 1-5-1c-1-1-2-1-4 1l-3 4c0 1 0 1 0 0zm-91 23c3-1 4-3 5-7 2-5 0-14-3-19-3-4-6-7-9-8-4-2-9 0-8 3l1 2 4 1 2-1 3 4v3c0 2 0 4-2 4l-1 1 1 1 4 1c2 0 2 0 2 3 0 4-1 7-3 8s-2 2 0 3c2 2 2 2 4 1zm-2-1l1-2c3-2 5-4 5-8s1-4 0 0c0 5 0 6-3 9l-3 1zm-4-15l-1-1h5v1h-4zm-7-13l-1-2h1l3 1v1h-3zm100 3h-84 84zm3-3l1-2c-1 1-3 0-3-1l-2-4 3-3 4 1 3-6 2-11v-1H286v1l-3-1-1-1c0 1 1 7 3 10l4 6h1c2-2 6 0 7 2l-1 3c0 1-1 2-3 2l-1 1 1 1 2 3 2 2 87-1 1-1zm-76-2l-2-1 1-2 5-4c1 0 6-5 5-6h-1l-8-2-4-3 1-2 2 1 6 2c7 2 8 2 18 2h24l3 1 4 1c1 1 0 1 4-1 1-2 3-2 7-3l8-1 1 2-5 1-5 1-1 1 2 2h1l2-1c6-3 9-3 11-2 1 2 1 2-4 3l-5 1-10 7-1 2h-44l6-4c7-3 13-3 21 0h3l2-1 3-3 1-1h-1l-5-1-15-1h-10l-5 5-5 6-4 1h-6zm41-1h17l2-2 10-7 5-2h3l1-1-3-1-11 4-7 5-3 2-5-1-6-1c-9-2-14-2-21 0l-7 4h25zm-35-4l6-6v-2a6 6 0 01-1 0l-3 3-4 3-5 5v1h3l4-4zm4-2l5-5-3 1-7 9-1 1h1l5-6zm4 1l4-6h-2l-5 5-4 6h3l4-5zm43 2l1-2h-1l-2-2-1 1-2 1c-2 2-2 2 0 2a11 11 0 012 0h3zm-6-2l2-2v-1l-3 1a17 17 0 00-3 2c-1 1-1 2 1 2 1 0 2 0 3-2zm8-1l1-1-4-2c-6-4-9-5-19-5h-26l-12-3c-2-2-4-1-2 1l14 4h14l13 1 13 2 6 3h2zm3-2l-2-2h-2l-1 1 2 1 2 1 1-1zm2-1v-1c-2-2-4-3-5-2l1 2 2 1h2zm-5-2c0-2 0-2 2-2l4-1 6-1 2-1c1-2-5-1-11 1l-7 4 1 1h2l1-1zm21 11l2-2c5-2 8-8 10-16 1-10 0-16-4-25-3-7-7-11-10-13-6-4-13-4-17-1-2 1-3 4-2 6 1 1 1 2 3 2l3-2c1-2 1-2 4-2 3 1 6 3 8 7a45 45 0 017 27v2l-1 4-4 8-1-1h-2c-2 0-3 0-3 2s0 3 2 4l2 1 3-1zm4-34c-2-7-3-11-6-14s-7-6-10-6c-3-1-3 0-4 1l-1 2c-1 1-3 0-3-1v-1 1h1l2-2 3-1c1-1 6 1 7 1l6 5c2 3 5 9 6 14 0 3 0 3-1 1zm-1 8l-1-8-12-1-12 1 1 1 1 1-1 2-1 2h-50l-1-1-4-2c-2 0-4-2-5-3l-1-1h-19l-2 1v5l1 4h107l-1-1zm-81-7l-1-2-2-1-2-1-2-1 6 6c3 1 3 1 1-1zm57 1c1-1-1-1-9-1h-27l-20-1v1l25 1h31zm-22-2l-6-7v1c0 1 0 2 3 4l3 2zm4 0l-1-1-1 1h2zm2-1v-4l-1 2-2 1 1 1 2 1v-1zm5 1l-2-1-2-2v3h4zm3 0l-4-3-3-3v1l3 3c1 2 2 2 3 2h1zm2-3l1-4v1h1v-2l-1-3v-3l-7 4v3h-2a97 97 0 007 7h1v-3zm5 3v-1l-2-1h-2v2h4zm-50-1l-1-4-2 3-2 2h2l3-1zm11 1l-1-1v-6l-2-1a47 47 0 00-4 0l-3 1-1 3 1 4h10zm4-2c5-4 6-5 4-5l-4 3c-4 3-4 4-3 4s2 0 3-2zm3 0l2-2v-1l-1 1-4 4 3-2zm2 1l-1-1-1 1-1 1h2l1-1zm2-2v-4c-1-1-1 0-1 4v3l1-3zm3 1l-1-1-1 3h4l-2-2zm-27-2l3-4v-7c0-2-1 0-4 6l-3 7v2l4-4zm33 2l-2-3-4-2h-1l6 6 1-1zm-44-1l-2-3 7-5 11-9 4-3v-2l1-2v2l1 3 1 1v1l1 2 1 2v2l5-5h5v-2h-2l-2-1h4v-2-4l1-2v1l2 1h1l-1 1-2 1 1 3 3 1c2 0 2 1 1 1h-2l1 1 1 1 1 2-1 4 4-4 4-4v-2-3h1l2 1v1h-1l-1 1v7l1 1h1v2c0 2 0 2 4 0l4-2v3l1 4v1h1c2 0 2 1 2 3l-1 2 12 1 12-1-3-5c-2-4-5-9-8-10l-4-1h-2v1l-3 2-3-1-1-2v-1h-5c-1-1-2-2-2-5 0-7-5-14-10-15l-3 1v1l-2 1-3-1-1-1h-5l-4 1-1-1-2-1-5 3-4 3-1 8c-1 5-2 7-4 7l-3-1-1-1-1 1-3 2-3-1-1-2h-1a27 27 0 00-17 18l10 1h10l-1-2zm25 0l2-1-2-1-2 1 1 2 1-1zm-20 1l-5-4v1l5 3zm2-3l4-7 2-4a336 336 0 00-12 10l5 3v1l1-3zm56 1v-2h-4v3l2 1h2v-2zm-16-1c2-2 2-2-1-3h-2v-1-6l-3 3v5l4 4 2-2zm-20-2l2-2-1-2 1-4v-2l-3 3-2 2 1 2-1 2-1 2c0 1 1 1 4-1zm2 1l1-1-1-1-2 1-1 2h1l2-1zm11-3l1-7v-2h-4l-5-1-2 1-1 8 1 2h11l-1-1zm12 0l-1-3v-2l-4-1h-3v6l4 1h4v-1zm-28-1v-6l-1-1h-8l-1 2v6h7l2 1h1v-2zm25-6v-4l-5 4 1 1h2l2-1zm-25-1l-1-2-2-1v1l1 2h2zm-5 0l1-2-1-1-3 1-1 1 4 1zm-7-2l2-4c0-5 1-10 4-13l7-3h2l1 1c2 1 4 0 4-3l-3-3c-6-1-11 1-16 5-3 3-4 4-5 8l-1 6c0 3 0 4 2 6l2 1 1-1zm-2 0l-2-1v-4 1l1 1h2v-2l2-8c1-4 4-6 8-8l5-1-2 1-3 1-6 5-2 10-1 4-2 1zm29 0l-2-2-1 1 2 1h1zm23-1c1-1 2-1 2-4 0-2 0-5-2-9-1-4-4-8-8-10-3-1-9-2-12-1-2 0-4 3-4 5l1 2c1 1 3 1 4-1l1-1c3-1 6 1 8 3l4 7 1 5 1 4h4zm-3-1l-1-1 1-1h1l1-6-1-5-2-3c-1-2-5-4-7-5s-2-1 0-1l8 5c3 5 5 12 3 16l-2 2-1-1zm-19-16v-1l1-1c0-1 0 0 0 0v1l-1 1zm-20 16l-1-1v1h1zm1 0zm16-2h-1l1 1v-1zm-1-15l1-2c-1-2-4-1-4 1v0h2v1h-1 2zm2-5l1-1-2-1h-1l-1-2-1 2h-1c-2 0-2 1-1 2 1 2 1 2 3 2s2 0 3-2zm-5 0l-1-1c1 0 2 1 1 2v-1zm3 0l1-1-1 1zm-2-2l1-1c0-1 0-1 0 0v1h-1zm29-1l1-1v-2c0-1-5-4-8-4v1l2 3c2 4 3 5 5 3zm-30 0c1 0 0 0 0 0h-1 1zm4 0v0zm-22-1l3-2-3-2h-6c-4 2-5 4-3 4l2 1 7-1zm-31 78c-3-1-5-3-8-8l-2-5 1 2c2 4 5 8 8 9l6 1v-2l1-1-1 3-5 1zm-1-55l1-3v-1 4h-1z"/><path d="M347 319l-10-4c-2-1-2-1-4 1l-3 1h-1l1-1 2-1 1-1-15-3a81 81 0 00-26 2l1-2 8-3 5-2-7-1a60 60 0 00-8 0h1l7-2v-1l-2-1c-2-1-2-2-6-2l-10-2-1 1-2 8v2h-1l-1-5c-2-5-2-7-1-9 2-2 2-2 8-2h4l-3-2a83 83 0 01-26-18 114 114 0 0114 5l-2-4-3-6c-1-4-4-7-6-8l-2-1h2l2 1 5 4 2 1-2-7-1-7v1l3 3v-3l1-6 1-6v-1 8a98 98 0 011 6l1 4 1-2a36 36 0 011-4l1-3-1 3v14c1-4 1-6 3-8 2-1 4-1 5 1l1 4 1 5v2l-2-3-3-4v6l1 6 1-1 2-2c2 0 4 3 5 7a106 106 0 006 13l-2-2c-1-3-4-6-5-6s3 7 6 9h4v-2c-2-3-2-8-2-8l5 4 2 4 1 1h6l4 2a52 52 0 017 5l18 13 3-4 5-5 9-6h5l-8 9-3 3 1-1 4-2 10-7 7-5h4l-1 1-1 1h3c1 1 2 3 1 4l1 1v-2l3-9 6-10v8h2l3 1 1 2 1-1-2-8c-1-4-2-7-1-10l1-4v-1l1 1 1 2 1 3 1 1h1c2-1 3 0 4 1h1l-3-5-4-7v-9l4 7c2 4 3 7 3 12l1 4a16 16 0 002-9l-2-6c-3-6-3-7-3-12l-2-6v-1h1c3 2 5 4 7 9v18l1-2 5-6c4-3 5-5 5-6v-1c1 0 0 8-2 11l-5 6-5 3-1 1v1l2-1 2 1 1 2 1 1 2-2h2v1l-2 2-4 4-5 4c-3 2-6 3-7 2-2 0-2 0-1 1l2 3 1 1 5-2 2-1-1 1-4 5-7 4c-2 1-8 2-10 1h-2l2 1a72 72 0 0110 3l-1 1h-2l-5 2c-7 1-12 0-18-2l-4-1-1 1v4h1l6 2-2 1h-13l-6-2-8-1a745 745 0 003 3l4 3h-2a453 453 0 00-38-26h-2l3 1 5 4c4 4 12 9 21 14l10 8 1 1zm-4-3a148 148 0 00-15-8c2 0 1 0-1-1l-7-1 3 1 4 1-5-1-12-1-16 6 4-1 11-1a76 76 0 0134 6zm-21-8h0zm-1 0s-1 0 0 0zm46 6c3-1 3-1 0-2a30 30 0 01-3-1c-6-2-15-3-16-2l-1 1h1a59 59 0 0113 3l-12-2 6 2c6 2 9 2 12 1zm-23-4a51 51 0 0017-15l-5 1c-5 3-8 5-11 9l-3 3-1 2 1 1 2-1zm0-2l14-11-7 7a173 173 0 00-7 4zm20 2l-1-4c-1-2-4-1-4 2v-1l1-1v2c0 1 0 1 0 0v-1l1 1 1 2v-1c0-1 0-1 0 0 1 2 1 2 2 1zm-6-1v-2h-3c-3 0-3 1 1 2h2zm28-1l5-1h2v-1l-8-2h-3l-2 1-3-1-7-1-3 1c-1 1-1 1 1 1l3 1h8l5 1-12-1c-6-1-6-1-2 1 6 2 11 2 16 1zm-107-6v-5 0l-1 1-2-1c1-1 8-1 14 1h4l-1-1-5-1-2-1h4c0 1 0 0 0 0l-10-1h-3c2-1 12 0 16 1h1v-1l-3-1-8-1h-5l-1 2c-2 1-2 1-2 3l1 3 1 4a44 44 0 000 2c1 1 1-1 2-4zm80 3h3l4-2 6-6 2-3 1-1c-2 0-6 2-11 6l-7 6-2 1h1l3-1zm0 0l3-2 5-4 2-1-2 2-5 3-3 2zm-35 0l-4-2a76 76 0 01-21-20v2-1h-1v1l2 5a35 35 0 0022 15l-3-1-2-1 3 1c3 2 5 2 4 1zm-22-15c-1-1-1-1 0 0zm-1-1l-2-4 1 2 1 2zm7 16h5c-1 0-1 0 0 0v-1l1 1h2l-1-1-2-1-1-1v2h-2 1v-1-1h-1l-1-1-1-1-1-1v4c0 2-1 2 0 0l-1-1v-1-1-2h-1-1-1v-1-1l-1-1v-1l-1-1h-1v-1h-1-1l-2 1v1h1c-1-1 0-1 1-1l1 1h1a22 22 0 001 1c1 0 0 0 0 0l-1 1-2 1h-1l-2-1h1l-1-1-1 1v1l1 1 2 2 3 1 1 1 1 1v-2c0-1 0-1 0 0h-1v-1 1l-1-1h-1l1-1v-1l1-1v3h3v-1l1 1-1 2v1l1-1v1l1 2h2zm1-1l-1-2 1-1 1 3h-1zm-11-5a2 2 0 00-1-1h-1v1-1h2l1 1h-1v0zm4 0l1-1v1h-1zm24 6h-1c-1 0-1 0 0 0h1zm-22 0l-1-1-2-1-2 1-2 1h7zm76-2h3l-1-3-2-1-3 1h1v2h1c0-1 0-1 0 0l1 2v-1zm-4-2v-1l-1 1-4 1h5v-1zm-4 0l3-1v-1l-2-2v-1l-1 1-2 3-2 2 4-1zm21 0l4-1 4-3 2-3a124 124 0 01-15 3l-6 2 2 1v1h9zm-8-1h3l8-2h2c-3 1-10 3-13 2-1 0-1 0 0 0zm-71-3c-2-3-3-3-6-5l-1-1 1 1 8 7-2-2zm65 1c0-1 0-3-2-4-1 0-4 1-3 2 0 1 0 1 0 0h1v1c0-1 0 0 0 0l1 2v-1-1l1 1v1l2-1zm-84 0l-1-1v1c0 1 0 0 0 0h1zm89-5l2-5v-2 1 2l-2 5-1 3 2-2 1-2 1-2 1-2v-2-7l-5 8-2 9c1 1 1 0 3-4zm6 4c5-1 4-1 3-2l-1-1-1-1-3 3-2 1h4zm-4-1l3-2 3-2h-1l-2-1h-1l-1 1-1 2-1 3 1-1zm-93 0h0c1 0 0 0 0 0zm6 0c1-1 1-1-1-1l-1 1h2zm97-1h2c2-1 0-5-2-5l-2 1-1 2 1 1v-1 1l1 1v-1h1v1c1 0 1 0 0 0zm-101-2l-1-1-1-1v-1c-4-4-5-8-6-16l-1-3-3 2-1 1 1 2v3l-1-2-1-6v-12l1-2h1l1 4v-1-3l-2-1-3 1c-2 2-2 5-2 11l2 10 1 3h1v-2l-1-3-1-6 1 2a83 83 0 001 5v3l1 2a8 8 0 001-1v1l3 5 1-1v-1 1l1 2v-3l-1-3 1 3 3 5-1-2-1-2h1l1 3c2 2 1 2-2 0l-4-3-3-3a137 137 0 00-23-10l3 2a113 113 0 0028 17l-4-2-4-2 4 2 4 2-2-2-9-5 4 2a80 80 0 006 3l3 2 1 1h2zm-16-18v-2l1 3-1-1zm113 16l1-1h1v-3l-3-1-2 1c-1 0-1 1 0 0v2l1-1v1l1 2v-2 1l1 1zm12-4l4-2 6-8-4 2-1 1-9 5-1 3 5-3 4-3-6 5-2 1 4-1zm-3-4c3-4 4-8 3-8l-1 1c-1 2-1 2-3 2h-1v2l-2 5-1 2v1l2-1 3-4zm-109-2l-2-2 1 3 2 2-1-3zm104-2l-1-4h1l1 7v2-1l1-3v-4l-1-2v-3l-2-3h-1v1l-1 4 1 6 2 4v1-1-4zm9 2l2-1-2-2v-1l-1 2-2 3v1a153 153 0 013-2zm-114 1h-1l1 1v-1zm-13-2a322 322 0 00-9-16c-2-2-5-5-6-4l2 1 2 5 6 10c3 4 4 5 3 2l-1-2 2 4h1zm131-1v-1 1l1-1c1-1 0-3-2-4-1 0-3 1-3 3h1l1-1v2h1c0-1 0-1 0 0l1 1zm-2-2h-1v1l1-1zm-131-2l-1-3 1 3 1 2-1-2zm125 1l-1-1h1l1 2 1-3-1-1-2-1-2 1v3l1-3v1 1l1-1v1l1 2v-1zm-124-1v-2c-1 0-3-3-3-5l-1-2 1-1v2l2 4v2l1-1-1-1-1-5v1l1 2v-1-2l-2-3v-1-1l-1-3v-3l-1-4v-3 6l-1-3v2l1 3c0 1 0 0 0 0l-1-1v2l1 5v1l1 2h-1v3h1v-2 2l2 3a47 47 0 011 3l1 1zm136-7c3-3 5-6 5-10l1-2-1 1-3 3-8 9v1c1 1 2 0 3-1a34 34 0 012-3 68 68 0 002-2l1-1-2 3-3 4-1 1 1-1a17 17 0 003-2zm-10-1c0-1 0-4-2-7l-4-6 1 8v1l3 4h1l-2-4-1-4 3 8 1 1v-1zm-118-3l-1-2v-1l-1-1v1a13 13 0 011 2l1 3v-2zm-14-4v3-1-2zm4 1c0-1 0 0 0 0v1a2 2 0 000-1zm131-4l-1-7-1-3 3 10v4l1-1-1-10-4-7h-1v4a23 23 0 004 14v-4zm-135 0h-1v1l1 1v-2zm-1-2v0zm74 60l-13-9-9-8 9 7 13 9 4 3-4-2z"/><path d="M337 354c-6 0-12-2-19-6a97 97 0 01-29-26h-3l-4 1h-2l-2 2c-2 4-12 12-16 15l-11 3h-7l-6-2-12-5c-3-1-9-6-14-11-6-6-6-6-5-2 0 2 0 3-2 4v1l1 2c3 2 4 5 4 10v2l-1-2-1-2-8-3-5-1-1-3-1-1-2 2c-2 3-2 3-5 3h-6l-5-4-1-1-1-1h1v1l5 2c3 0 6-1 7-4 0-1 1-4 3-5l1-2a28 28 0 00-9 3v-3l2-3h-1c-6 5-7 5-12 6h-4l-2-1 1-1 2-4-3 1c-2 2-3 2-7 2l-5-1h-5l3-4 2-2-2-1-3-2-2-1v-3l1-3 5-2 2 1c2 1 2 3 1 4v2h2l1 1h-6l2-1 1-2c1-2-1-4-3-4h-3l-2 2c-1 3 1 6 5 8h3v1a258 258 0 01-5 3l-1 1 1 1 4 1h8l3-2h3l1-1 3-2v1l-3 2-3 5h6c3 0 5-2 8-4l10-5-1 1-3 2-2 2-2 4 2-1 5-1 6-2 5-5 1-2-1-1a33 33 0 00-10-7h-2l-12 6-5 1 1-1 15-5 1-2 1-1 5-4c2-3 3-3 4-3l1-1 12-10 10-6c6-3 13-5 19-5h3l-3 1a56 56 0 00-30 11 276 276 0 00-9 10l3 2 2 2v-2c0-2 1-3 2-3 1-1 1-1 0 0-2 2-2 4-2 7l1 1h2l1-4v-4c1-2 1-2 1 0l-1 7c1 2 2 2 3 0l1-1v-2l1-7c1-1 1-1 1 1l-1 5 1 6c1 2 2 3 3 2v-1l-2-4c-1-1 0-1 0 0 1 3 2 4 4 5s4 1 5-2l1-2h-1l-4-3v-3 1l4 2 2-1h2l-2-2c-2-2-2-4-2-5 0-2 0-4 2-6l6-4 4-1h5l10 1 1 1-1-1h-14c-5 0-9 3-11 5l-2 6 4 4-1-1c-2-2-2-4-1-7 2-4 5-5 12-6h13c5 2 8 5 9 9 1 3 1 7-1 8v2h1l-4 3h-8l-3-1 1-1c2 2 4 2 5 1 2-1 2-4 1-6-3-3-6-3-9 1-2 1-2 1-2 3 0 4 3 7 6 8l8-1c4-1 6-3 8-6l2-8-2-7-7-7-1-1c1-1 6 4 8 7l2 8c0 5-1 9-4 12l-6 3h-8c-2 0-3 0-4-2l-2-4c-1-2-1-1-1 1 0 4 1 7 4 10l6 3h1v-2-1h3l8 4-1-4c-1-1 0-2 1-1 4 4 12 5 17 3l1-1 5-1 5-1a293 293 0 0027 2c9 2 12 2 14 4 4 2 7 6 7 9h1l5-7a22 22 0 0116-5l18 2h4c1-1 7-2 8-1a214 214 0 003 0l7 3c2 1 13-1 16-3l2-1 1 2v1l3-1c2-1 3-2 4-1v3l2-1 5-5c1-3 2-7 1-8l-3 5c-2 2-7 3-10 2s-7-4-9-7c-1-3-2-7-1-12 1-7 8-14 15-16l13-1c6 1 15 4 23 9a100 100 0 0116 13l4 2 6 3 6 5c0 1 2 3 7 5s6 3 10 3h9l4-2-1-2-1-4c0-3 2-4 6-3 2 0 3 0 3 2 2 2 2 5 0 8-2 2-2 2-1 4 1 1-1 1-4 2h-2l1 2 1 1h-11l-2-1v6l-1-1c-2-2-3-2-7-3-5-1-7-2-8-4l-2-1-2 3 1 1c1 0 3 2 3 4 1 3 4 5 7 3h1-1l-2 4h-6l-3-3c-2-2-3-3-5-3l-1 1-1 2-8 3-8 2-4 3 2-6c1-2 2-4 5-5l2-2-1-1 1-3v-3l-1 1c-6 7-13 13-21 17l-12 4h-9l-16-2c-9-2-19-8-23-14l-2-1-4 4a75 75 0 01-21 18l-6 4-11 3h-13zm12-1l11-3c7-3 17-10 23-16a102 102 0 006-7c6-7 6-8 9-8v-1l-8-2-7 2-6 5-8 7-3 3-4 2-3 1c-6 3-15 5-21 4l-11-2-7-5h1l8 5h1c-2-2-1-7 1-8l1-1-4-4h-4c-2 0-4 1-3 2v1l-3 4h-2c-3 0-4-2-5-4l-1-2-5-5a37 37 0 00-11-8h-4l-8 2 1 1 7 6 2 3 3 3 11 11 14 9c6 3 12 5 17 5h12zm-97-12l10-3a105 105 0 0016-14h-15l-1 1c-2 2-8 4-12 4s-11-2-15-4l-13-8a217 217 0 01-21-20l-4-2-3 2-5 5-1 1 3 1c2 0 5 3 10 8l20 19c5 4 5 4 11 6 5 3 9 4 13 5l7-1zm190 0l17-7c5-3 9-7 12-11 11-11 16-15 20-16l3 1-5-4-6-3-6 2-10 9-10 10c-10 6-12 7-24 8l-16-2c-4-2-4-2-9-2a109 109 0 01-15-1l6 5c3 3 6 5 13 7 10 4 22 5 30 4zm-100-1l1-1-1-1-2-2-1-2v2c-1 2-2 2-4 2l-2 1 6 1h3zm5-2l1-4-2-2v-2c1-3 3-4 6-4h4l3 2v5l3 1c2 0 3-1 4-3l-1-4h1l1 1c1 0 4-2 4-4l-2-1-6-1-3-2c-1-1 2-1 5-1l10 2 2 1 2-2c2-2 2-2-2-3-8-1-19-2-23-1-6 2-11 6-13 10l-1 5 1 5 1 2h5zm-3 0l-2-1 1-1h2v-1c0-2 0-2 1-1l1 2-2 2a18 18 0 00-1 0zm16-5l1-1c2 0 3-2 2-4h1c1 1 1 4-1 5h-3zm-14-6l4-3h6l1 1h-3l-6 1-2 1zm5 11l8-3 1-1h-1c-1-1-2-2-1-6l-2-1-2-1-5 2c-2 1-3 4-2 4l1 3-1 3v1l4-1zm-143-4c0-3-3-5-5-5l-2-1-5 1c-1 1-1 1 0 0s2-2 4-1l5-1v-1l-4-2h-3l-1-1-1 2c-1 1-2 1-2 3 0 3 0 3 2 5l6 2 7 3v-1l-1-3zm129 3l2-7-1-4-5-7-12-4-5-1-19-1h-2l2 1 2 2 2 1h11l-4 4h1l3 1h3l-1 2-2 2c-1 2 0 4 2 5h5l1-4 1-2 2-1c4 0 7 1 9 4v2c-3 1-4 6-1 8h3l3-1zm-4 0l-2-1c0-1 1-2 2-1 0 2 2 2 3 0 1-3 1-10-1-12l3 4c1 4 0 10-3 10h-2zm-18-7c-2-1-3-2-2-3l1-2v4l4 1h1l-2 1-2-1zm14-5l-5-2c-2 0-3 0-2-1l3 1 4 1 3 2-3-1zm141 11l9-2 8-2 1-3-1-1h-1-4l-5 1h-3l-5 6v2l1-1zm-284-1c2-1 3-1 5-4l3-3 1-4 1-1-1-2-2-1-6 7-1 2-3 3h-6l6 3h3zm317-1v-1l-4-2-1-2-4-6h-2l-2-1-1 1-1 3 1 1 1 1 4 3c1 2 2 3 4 3h5zm-134-4l7-7s-2-2-5-2l-9-1 2 1 5 2c2 0 3 0 2 3l-4 2v3l2-1zm69-1l13-4 16-13 4-6c0-1 0-1 0 0h-2c-1-1-1-1-2 1h-1l-1-1-1-2v1l-2 3-1-1h-1l-1 1c-1 2-4 2-6 0l-2-3h1l4-2c1-1 1-1 0 0-2 1-6 0-7-1l-3-3 1-2 1-3c1-2-1-6-2-8l-3-1c-7-3-16-2-21 3-2 2-4 7-4 10 0 2 2 5 3 5s2 0 2-2c0-3 2-6 5-7l4-1 5 2 5 5c2 3 2 5 2 8 0 4-2 7-6 11l-8 5-11 2h-3c-1 1 5 2 8 3h14zm43-1l5-1c2 1 2 1 2-1l-1-2-2-2-4 1-4 3c0 2 0 2 2 2h2zm33-1c0-2-1-4-3-5l-3-4 2 2c3 3 5 4 11 4h4l-1-1-4-2h1l5 3-1-2-1-2-1-1 1 1h3l4-1c0-1-1-2-3-2v-1h1l1 1 1-2c2-2 2-6 1-8l-4-1-3 2c0 1 0 0 0 0l2-3c1 0 1 0 0 0l-3 2c-1 1 0 4 1 5v2l-2 2c-3 1-5 2-9 1-4 0-6-1-10-3l-9-4-4-2c-3 0-8 4-12 9-2 1-2 2-2 3v3l-1 3h1c0-2 1-2 4-3l2-2-1-1-3-3h1c0 1 3 4 6 5l1 1c1 1 1 0 2-2v-3l-1-2v-1l-1-1 3 2 3 5c0 2 0 2 2 0l1-2-1-2-1-2 2 2c3 5 4 6 10 7l7 3c1 2 1 1 1 0zm-260 1l7-3 1-1-7-1-4-1-10-4a17 17 0 01-5-22l6-5 4-1c4 0 4 1 6 2l3 5-1 3c-1 2-1 2 1 2l4-1v-1c-1 0 0 0 0 0v-1c2-2 2-3 2-6l-1-4c-1-3-4-6-8-7-5-1-15-1-19 1l-4 3-1 2-1 3 3 4c1 1 1 1-1 2l-6 1-1-1c-1 1 2 3 3 3 2 1 2 1 1 3-2 3-4 3-6 2h-2c-1 1-2 1-3-2l-1-2-2 1-1 1-1-1-1-1-1 2 1 1 13 12 13 8 13 4h6zm58-2l1-2 1-2h-1c-2 1-5 0-6-1v-1l2-2 2-1h-9l3 4c5 5 7 6 7 5zm108 0a19 19 0 008-2c8-3 12-7 14-12s1-11-2-14l-5-3h-7l-3 2h2l5 1c2 1 3 4 4 6 1 3 0 8-2 11l-6 4-2 1-2 2 1-1c2-4 2-5 1-5l-4 2-3 1v-1-3l-1 1a31 31 0 01-17 4h-5l-2 2-1 2h2l4 1h7l8-1 8-3c2-2 2-2 0 0-3 2-5 4-11 4l-1 1h10zm-24-2l-2-1h5c10 0 15-1 18-4 0-1 1-1 0 0l-5 3-2 1-14 1zm-190-1v-3c1-1 0-1-3-4l-3-3v1l-4 5-2 1 4 3h3l4 2c1 1 1 0 1-2zm73 0l8-2c1 0 1 0 0 0h-1c-2 1-14 2-24 1-9-1-12-2-16-4l-8-6-2-6 1 1 1 4 3 3c5 4 10 6 19 7a150 150 0 0016-1c-5 0-8 0-10-2h-3l-8-4-2-1v1c0 2 0 3 2 4v1l-1-1-3-2c-4 0-9-4-10-7l-1-7c1-4 4-7 6-8h6v-1c-2-2-3-2-6-2-2 0-5 1-7 3-3 2-4 5-4 10 0 4 1 7 3 10 2 2 4 4 8 5l13 4h20zm-43-19c0-1 0-1 0 0v0zm256 17c0-2-3-5-3-5v2l1 2 1 2 1-1zm-209-1l2-1-2-3-2-1-1 1c-3 2-13 1-17-3h-1l2 3c1 2 4 3 8 4h11zm146-10c2-1 3-1 4-4 1-2 2-4 1-5l-4-3c-4-2-8 2-6 5 0 1 2 2 3 1l1-2 1-1c1 1 0 3-1 4l-6 1c-2 0-4-3-6-5v-7c0-3 2-7 5-9l-1 1c-3 4-4 7-4 10l2 6c1 2 3 3 5 3h2l-1-1-2-1-4-3v-6c2-6 5-9 11-11h12l5 3c3 3 4 8 2 10l-1 3 3-4c0-3-1-8-3-10s-4-2-8-3c-3-1-9 0-11 1l-5 3v-1c1-1 4-3 7-3 6-2 15 0 19 4 2 2 3 5 3 8l-3 6h-1l1 1h5l3-3v-1l1 1c1 3-2 7-5 7l-2 1 3 2c2 1 4 1 6-2l2-5 1-1v1l-1 3-1 3h1l2-3 1-5-2-7c-2-2-2-2 0-1l1 4 1 9 1 3 1-2 1-5v-4-2 2l1 3v4 2l1 1 2-4v-4c-1-2-1-2 0 0v4h1c2-2 2-1 0 0l-1 3v2l1-2a37 37 0 018-5l-2-2-5-4c-7-6-17-13-24-15s-10-3-15-2c-7 0-10 1-14 4s-8 8-9 13 1 11 4 14l5 3h3l5-1zm-7 0l-5-2-1-2 1 1 6 3 2 1h-1l-2-1zm36-19v-3h3v1a2 2 0 00-2 2h-1zm-3-3v-2h5-1l-2 1-1 1v1l-1-1zm-2-3c-1-1 1-3 2-1h1-1c-1 0-2 1-1 2l-1-1zm-3-3l1-1-1 2v-1zm-282 39l4-3 7-4 5-1h-2l-8 5a40 40 0 01-5 3h-1zm17-1a17 17 0 013-1l6-3 1-1 1-1-1 1c-2 2-3 3-9 5h-1zm-34-2l3-1 4-1h5l4-1-6 1-5 1a34 34 0 01-5 1zm-1-9c1-1 2-3 1-4 0-2 0-2 1-1l1 2-3 3c-1 0-1 0 0 0zm98-8v-1h4l1-1-2 2h-3zm-31-4a8 8 0 010-6c0-2 1-3 1-1v8l-1-1zm35 0c-1-1-1-2-3-2h-1 3l2 3-1-1zm-32-8l-1-5-1-1h1c2 0 3 1 3 3l-2 5v-2zm3-4v-1l-1-2-1-1 1 1c2 0 3 1 2 3l-1 1v-1zm2-3l-1-1h-1 1l2-1v2h-1z"/><path d="M338 350l-1-3-2-1-2 1v2h-1l-1-1 1-3 1-3c-1 0-1 0 0 0h3l4 2-1 2v1l1 3h-2zm0-5l-1-2h-1l-2 1v1l3 1a1 1 0 001-1zm9 5v-4-3l-2 1-1 2v-3h2l3-1 1-1 1 1c2 1 2 2 0 1h-3l1 2v3l1 1-2 1h-1zm-24-4l-3-2 2-5h2l3 1 2 1-1 3v-1c0-2 0-2-2-2l-2-1-1 2h3v1l-1 1-2-2-1 3 2 1 2-1h2l-1 1v2l-4-2zm35 1c0-2 0-3-3-4l-2-2h2l2 1c2 1 2 1 2-1v-2h1s1 0 0 0v6l1 1-1 1h-2zm9-4v-8l3 2 4 1c1 0 0 0 0 0l-2 2v-1h-3l-1 2v1h1l-2 1zm3-5h-1l-1-1v3l1-1 1-1zm-58 3l-2-3c-1 0-1 0 0 0l2-2 1-3 3 2 2 2v2l-1 1-2 2-3-1zm3-1l1-1-3-2-1 1-1 1 1 1h3zm2-2c1-1 0-2-1-3l-1-1-1 1-1 1 4 3v-1zm114 1h1v-6l2-1 3 1h-1l-1-1-1 2v1a1 1 0 001 0h1c0 2 0 2-1 1s-1 0-1 1l1 2 2-1 1-1-1 2h-6zm-185 0l-2-1h-1l2-4v-3h5l1 2v1l-1-1-2-1-1 1v1h2l-1 2-1-1-1-1v4h4l1-1-1 1-1 1h-3zm193-1l-1-6 3-1 2 1 1 3-2 1c-2 0-2 1-1 2l1 1h-3v-1zm3-3l1-1c0-2-1-2-2-2l-1 1v2h2zm-17 3h-1l1-3v-4l4 1c2 1 2 5 0 6h-4zm3 0l1-2-1-4h-2v6h2zm-8-1l-1-3-1-1-1 2v2l-1-1h-1l2-2v-4h-1 2l2 3 1 2 1-1v-3c-1 0-1 0 0 0h1c1 0 1 0 0 0l-1 6h-2zm27 0l-3-6 1-1 3-1 1-1 1 2h-3v2c0 1 1 1 1-1l1 1v1h-1v2l2 1 1-2v-2l1 3-4 2h-1zm-71-1l-2-2-2-1h-1l2-3h5l-1-1-2-1 1-1h1l2 3 1 2h-7l2 2 2 1-1 1c0 1-1 1 0 0zm-141 0l-3-2 1-3 1-3h1l1 1-2 6 3 1 2-5v-1h1l1 1-2 3-2 2c-1 0 0 0 0 0h-2zm70-1v-2c0 1 4-3 3-4l2 1v1l-4 4h-1zm107 0l-1-1 2-5h1l1 1-2 2v3h-1zm41-1l-2-6v-1l4 1 2 1-2-3v-1h1l2 3 1 3-4-1-2-1 2 4-2 1zm-152-4l-3-4 3-1 1-2h1v1l-3 4c0 1 2 2 3 1h1l-2 2-1-1zm-78 0v-1l3-5-2-1h-1l2-1 5 4v1h-1c-1-2-1-2-3 1l-2 2h-1zm159-1c0-1-3-4-4-3l2-3c2-2 2-2 4-1s2 2 2 3l-2 3-2 1zm3-2l-1-3c-1-2-3-2-4-1l2 3 2 2 1-1zm75 2l-3-5 1-1 3-1c1 0 2 0 3 2l-2 4-2 1zm3-2c1-1-1-4-3-4h-1l3 5 1-1zm-246-1l-1-3-1-3v-1l-1 1-1 2-1-1v-1l4-4v-1l2 1 2 3c2 1 1 3-1 3h-1v4c1 0 1 0 0 0h-1zm2-5c1-1 1-2-1-3l-1-1-2 2 1 1 2 1h1zm246 4c1-1-2-5-3-5l1-1 3-2v1h-2v1 1l1 1v-1-1l1 1v1a2 2 0 00-1 0l1 2h1a2 2 0 001-2h1l-1 1-3 3zm5-5l-3-4h-1l3-1h2l-2-2v-1l1-1v1l2 3 1 2h-5l1 1 2 1v1h-1zm-263-4l-1-1 5-4 2 1h-1l-2 2-2 2h-1zm267-1l-2-3 1-3v-1l1 1 1 1h-3l3 4 1-1h1l-1 2h-2zm5-3l-4-5 2-2 3-1c1 1 1 1-1 1s-2 1-2 2l3 4 2-3h1v1l-1 1-2 1-1 1zm-278-3l1-4 1-2h1v2l-1 3v1l4-2h1v1l-3 1-3 1h-1v-1zm278-2a2 2 0 000-1l1 1-1 1v-1z"/><path d="M245 273l9 3 2 2-3 1-7-3-1-3z" fill="#414141"/><path d="M513 317l-2-1 2-3 2-4 2-4 1-6c0-6 0-9-2-12-1-2-2-5-4-6l-8-7-1-1-1-1-2 6v3l-1 3v2l-1 3v3l-1 1v3l-1 4 1 5c1 1 1 0 2-2 0-2 1-3 2-3v4l-2 4c-1 1-3 0-4-2l-1-5a46 46 0 012-15l1-3v-3l1-2 1-3v-3l1-3-3-3v-1h-1l-4-4-2-5 1 3 2 3v-8 4l1 5v-7-4l1 6v6c0 3 1 0 1 0v-7l-1-4 2 11c0 1 0 2 1 1l-1-5v-3l1 6 1 4v-4-4l1 7v-1l1-2v-3-2-3c0-4-1-6-2-7l-1-2v-2l-1-3-2-2-3-1-2-2a24 24 0 00-4-4l-4-3-2-2-2-1-1-2-3-3c-2-1-2-2-2-3l-2-3-1-2v-1l-6-7-1-3-1-3-1-1v-1c0 1-1 1-1-1l-2-4v-1l-1 2v1l-1-3v-2l-1 1v0l-1-2-1 2v2h-1l-2 1h-1l-1 1h-1-1l-5 4h-1l-2 1c-1 0-1 0 0 0h1l-1 1-7 2-2 1-1 2 1 3v-1l1-4v4l1 1v-5 2l1 3 1-1a13 13 0 010-2v-1 1l1 3 1-1v-1 1c0 2 1 2 2 0h2c1 2 2 2 2 0 0-1 0-1 0 0h2l1-1 1-3v-1l1-1 2 1-1-1c-1-2 0-2 1-1l1 1v1l1 1-1-3c-1-1-1-2 1 0l1 1v-1l-1-2-1-1 1 1h1v-2 1h2v-1l1 2h3v2l-1 2v1l-2 1h-1v3l3-2 3-1-2 1c-3 2-4 3-2 3l5-3c2-3 3-3 0 0l-5 4-1 1c0 1 4-1 7-4l2-1-2 2-7 4v2l7-3-1 1-2 1-2 1-1 1a34 34 0 007-2l-4 2-1 1v1l2-1c1 0 0 0 0 0h2c3-1 2-1-1 1v1h1l3-1h-1l-2 1-2 2h2v-1c1 1 2 0 5-1h1l-2 1-2 1c-1 0-2 0-1 1v1l3-1 3-1v1l-3 1-3 1 1 1 1-1c0-1 0-1 0 0h3l2-1-2 1-3 2h1l1-1h2l1-1-2 1-1 2h2l2-1-2 1-2 2h1v-1c0-1 0 0 0 0h3l2-1v1l-4 2h2l1-1c2 0 2 0 1 1l-2 1h2l-2 2 5-1h2l-2 1h-1l-2 1-2 1 5-1h1l-3 2h-1 5l-4 1 1 1h3l1-1c2 0 2 0 0 1l-1 1h5c1 0 1 0 0 0l-1 1h-1 6l-3 1v1l4-1a21 21 0 00-2-6c0-1 2 1 2 3l1 9c0 6 0 8 2 12 1 4 4 8 7 10l4 3c0 1-6-3-7-5l-3-4c-3-4-4-5-9-6l-5-2h-5l-2 1v9l-2 2h-5l-12 1-8 3-5 2h-2v2l-1 3-10 4-2-1h-1c0-1 1-4 3-5a48 48 0 019-10l2-2 4-1c9-1 15-3 16-5v-7-7-6c1-2 4-4 8-4h2l-1-1a155 155 0 01-22-17h-2l-7-1c-6-1-7-1-11 1l-4 1v2l-2 6v10l-2 1c-2 1-2 2 2 4l2 1-1 2v2l-1 2-3 4-2-1c-2-2-3-4-2-8l-1-5v-5l4-13 1-5c0-3 0-4 2-5s1 0 0 1v2l1-1h1c0 1 0 0 0 0v2l1-1 1-2v-1l1 1v2h1v-3 1l1 2v-3-2h-1l-2 1h-2l1-1 14-5-2-2a48 48 0 01-8-15l-5-6-2-1-2-1-10 1h-7l-3 1h-9l-2-3v-1l8-3v4h1l1 1v1l1-1v-1l-3-3v-1h12l13-2h6l3 2 4 3 5 5 3 3 1 2 2-2 5-3 3-3 1-1 3-1 3-2 2-1c2-2 7-4 9-4h2v-2c0-3 0-3-1-2h-5v-2l1-1h-5l-1-2-1-1v-3l1-1c0-2 2-4 3-4h2a374 374 0 0111-7h-6c-1 0-1-1 0 0l2-1 1-3v-2l-1-2h1l4 3h1c-2-1-5-5-5-7h1c1 2 2 4 6 4l2 1v-1l3-6 4 7 1 3 1-3-1-4v-3c2 0 4 2 5 4h10l2 2c1 2 2 2 3 2 2 0 3 0 4-2l2-1v1l-2 5c-1 1-1 1 0 0h-1l-5-1c-5-2-8-2-9 0l-1 1v-1l3-3h5c1-1 0-1-2-1l-3 1c-2 0-4 3-4 3v1l1 1 1-1 4-1h3c5 2 7 2 11 1l2-1v1l-1 1 3 2c1 3 2 3 3 3h-3v1l2 1h1l-2 2c-1-1-1 0-1 1l2 4v2 9l-1 2v-1l-2-4v4l2 5-1 2-1-1-1-1v9l-2 6v1-1l-1-3-2-3-1-2-1-2 1 3 1 6 1 2 1 1 1 2v1l-3-2-1 3-1 3v-8l-1-9-1-6v-4l-1-2 1 2 2 6v-1l-1-7 1 1 2 5 1 4s0 1 0 0l-1-5-1-4-2-1-1-2v-3l-1-3v3c-1 7-4 13-11 23l-3 4-1 13-3 3-1-1 1-3v-3-1l-2 1v4l-1 2 3 4 1 1 2 2h1v2l1 2a11 11 0 003 1h1l3 2a64 64 0 0113 7l3 2 2 2 1 1-1 3c-2 5-5 8-8 11l-2 1 1 1 2 3 2 1v-1l-1-2c1-1 1-1 1 2l1 3v-3-4c0-1 0 0 0 0l1 4v1l1 1-1-4v-4l-1-3 1 2 1 4a8 8 0 010 2l1 1v-2-1-2h-1v-2-4 1l2 5v-1a57 57 0 00-1-6l1 3 1 3-1-6v-2l2 4v-2l-1-3v-1l1-1 3-5 3-5 4-3c6-2 11 1 14 7l1 2v10h2l5 4 1 1 5 6c2 3 2 4 2 7l1 3 1 6-1 5v3l1-1c2-2 5-2 8 0l1 1h-1c-3 0-5 1-7 4v5l-3-1-3-1-3-5-1-1c-3 0-8-4-10-6l-1-6c1-1 1 0 2 1l5 3c2 0 3 1 5 3l1 1 1 1 3 6v-1l-1-2-3-6-7-4-3-2-1-1h-7l-4-5-1-1c-1 2-1 1-2-1l-1-4-1-5 1-4 1-2 3-5-2-1-2 1-6 2h-2v11a24 24 0 01-3 10l-1 1-2 4v2c-1 1 0 3 2 6l5 6 4 4v5l-1 6 1 4 1 7v5c-1 2-4-1-3-3v-2-1-1l-1-1 1-1v-1h-1l-1-1c0-1 0-1 0 0v7a16 16 0 00-2 2l-1 3 1 2 4-2v1l-2 1-1 1h1l2 1 1 3v2l-3 2c-4 1-4 1-2-1l1-4h-2l-1 1-1 2-1 2h-2zm6-6l2-1h1-3c-3 0-4 0-3 1h3zm1-2h-1 1zm-21-1l1-4a25 25 0 011-3h-1l-1 2-1 3c-1 0-2-1-2-4l-1-2-1 3c1 2 1 4 3 5h2zm18-1v1c0 1 0 0 0 0v-1zm-21-10h-1v2l1-2zm0-3v-1l-1 1 1 1v-1zm25-2l1-2h-2v-1-1l-1 1v1l1 1v2l1-1zm-24-3v-2l-1 3v1l1-2zm1-3v-2-2l-1 4h1zm22-1v-2 1c1-1 0-2-1-3v-1l-1-2-2-3-2-1-2-1c-1 1-1 0 0 0v-1l-2-1c-2 0-3-1-1-1l2-1-2-1c-1 0-1 0 0 0s1 0 0 0v-1l-1-2-2-1h2-2l-1-1h1l1 1a1 1 0 001-1l-2-6-3-4v1l1 6-1 4v1l-1 6 1 1 1 1v-1l-1-1v-2h2v2l1 1v-1l2 4v-2-1 1l1 1v-1l1 2 4 3 1 2h1v1l1 2 1 1 1 1h1c0 1 0 1 0 0zm2-4l-1-1v2l1-1zm2 0v-1c-1-1-2 0-1 1 1 0 1 0 0 0h-1l1 1 1-1zm-25-1v-3l-1 3h1zm25-2l-2-1 1 2 1-1zm36 0l-2-1h-1-1 1l2 1c2 2 2 1 1 0zm-39 0h-1v1l1-1zm-94 0l2-2v-1c1 0 1 0 0 0v-1l2-1h3s0-1 0 0h-2l-5 1-1 2-1 1-3 1h5zm85 0h-1 1zm48-1h-1 1zm-5-2a11 11 0 01-1-1v-1l1 3v-1zm4 1l-3-1 1 1 2 1v-1zm-59-2l1-2h-1l-1 4 1-2zm60 1l-1-1-1-2c-1-1-1-1 0 0l2 4v-1zm2-1h-1v1l1-1zm-7 0l-1-2 1 2zm7-2c1-2 3-2 5-2 2 1 2 0 0 0-2-2-5-1-6 1v1l1-1-1 2-1 1 2-2zm-4-1c-2-7-3-8-9-10l-4-3-2-1h2l3 2c6 3 8 5 10 9l1 3-1-4-3-5-4-3-7-3-2-2 1 3 1 1 3 3 4 2 5 5s0 1 0 0v-1-1l2 5 1 3-1-3zm6 0v1l1-1c2 0 1-1 0 0l-3 1h1l1-1zm-134 0l1-2v-1c0-1-1-1-3 2l-3 2h5v-1zm126 0l-1 1h1v-1zm-3 0h-1c-5-2-7-4-9-7l-1-1c0 2 3 5 5 7l6 1zm1-1l-3-3v-1l-4-3-3-2h-2l6 5 4 3 2 2v-1zm-53-3v-2l-1 3 1 2v-1-2zm50 2l-2-1-3-3-2-1 2 3 5 2c1 1 1 1 0 0zm-117 0l-2-2v1l2 1zm125-2l-1-1 1 1v0zm-122 0c0-2-1-3-2-2l2 3v-1zm123-1l-1-4-1-3 2 5h1c0-1-4-8-6-9l-5-3-6-3-2-1v1l2 1 5 4c1 0 1 0 0 0-2 0-3-1-5-3l-2-2v1l2 3 6 3c5 3 7 4 8 7l2 5v-2zm-121 1v-2h-1-1v1l2 1zm1-2l-1-2 1 3 2 1-2-2zm2 1l-1-3v2l1 1zm1-1l-1-3v2l1 1zm-9 0l-1 1h1v-1zm124 0v-1 1zm-113-1v-1 1zm5 0v0zm1 0v-1-2l-1-1v4h1zm1 0v-1 1s0 1 0 0zm-3-1l-1-1v1h1zm4 0v-1l1 1c0 1 0 1 0 0l-1-1v-1l1 2h3c1 1 1 1 0 0v-1l4 2c2 0 2 0 0-1l-6-4c-1-1-2-2-1 0v1h-2c0 1 0 1 0 0l-1-1-3 1 1 1h1v-1l2 2 1 2v-1zm3-1c-2-1-1-1 0 0v1-1zm9 1h-1l-1-2h2l-1-1h1l-2-2-4-2-2-1v2c-1 0-1 0 0 0v1h-1-1l1 2 2 1 1 1h1l2 1 2 1 1-1zm-6-3v-1l2 2-2-1zm3-1h-1l-3-2h1l2 1 2 1v1l-1-1zm40 4v-3l-1 3h1zm-57-1h-1v1l1-1zm2 0h-1v1h1v-1zm110 0l-7-6-6-3-2-1c0 2 4 4 8 6l6 4 1 1v-1zm4-1l-4-7v-1l1 1h1l-2-2c-1-1-1-1 0 0l1 1 1-1-2-1-5-5-8-6a116 116 0 001 2h-2l8 6 3 2a35 35 0 01-11-7v1l1 1c1 2 3 3 7 5l3 2-8-4a31 31 0 01-2-2l-2-1c0 1 4 4 9 6l5 4 3 3 2 4v-1zm-115 0h-1 1zm2 0v-1l-1 1h1zm66 0l-8-10-6-6v-3h1l3 1 6 7 6 5-1-2-5-5-7-7h-4v4l5 7a223 223 0 0110 9zm-49-2v-1l-1-2c1 0 1 0 0 0s-4-1-6-4l-1-1v1c0 2 2 4 5 5l3 1v1zm46-7l-10-10h-1v1l5 6 7 8 2 2 1-3-4-4zm-8 6l-1-3v3h1zm37 0l-2-1c-1 0-3-3-4-7-1-2-2-8-1-9l1-9h-1l-1 2v14l1 3c3 6 5 7 8 7h-1zm-3-1c-2-1-3-3-6-9l-3-6c0-3 0-3 0 0l1 4 2 5 2 2 3 5c2 0 2 0 1-1zm6 1l-1-1-1-6c0-2 0-6 2-11v-15 4l-2 7-1 4v3l-1 7v4c-1 1 0 3 1 3v-2l1 1 1 2h1zm-5-3l-1-2v-2-8l-1-11c0-3-1-4-3-5h-1l1 1 2 2 1 4-1 13v4c0 2 1 4 3 5v-1zm-73 0l-1-1-5-3-2-1 6 5h2zm0-2l-1-2c-1-2-3-3-3-2l1 2h1l-2-1h-1l-1-2-1-1 1 1h2l-1-1-1-2-3-6 1 2h-1l1 2v1l-1-1 1 2v1l2 4c2 2 3 3 5 3h1zm74-6l1-7-1-8c-1-3-2-4-4-5h-7 6l3 4 1 12c0 9 0 12 1 10v-6zm-60 5l-1-2v-2 2l1 3v-1zm23-2l-1-1v1l1 2v1-1-2zm28 0v2l1 1v-1l-1-2zm-64 2l-1-2v-1l3 2-1-1-2-2h-1-1l-1-1 1 2 1 1 2 2zm11-3v-6c0-2-1-3-1-1v-1l-2-4 1 8v2l1-3v4l1 4v-3zm38 2v-1 1zm2-1v0zm-43-3v-6l-3-6v1c2 2 2 5 2 10l1 4v-3zm84 3l-2-2-6-6-5-5-1 1 6 6 7 6h1zm-41-1c0-1 0-2-1-1l1 1zm-49-1l-3-2 1 2h2zm61-1l-1-1 1 2v-1zm2-3l-1-5v-2l-1 4 1 5 2 2-1-4zm-62 3l-1-2h-2l1 2 2 1v-1zm-56 0l-1-1-1-1 1 1 1 1zm57-1l-1-4-1 1 1 2v2l1-1zm-9 0c0-1 0-2-1-1l1 2h1l-1-1zm74-1v-2-6-5c0-3-4-5-6-4l-4 2-5 2h1l6-2 3-1 4 2v5l-1 4v4l1 3 1-2zm21 2l-4-5a6 6 0 01-1-2l-6-3c0-1 0-1 0 0l6 5 5 5zm-92-1h-1v1l1-1zm9-1l-2-9v1l1 7c0 4 1 4 1 1zm-2-2v-2h-1v2l1 3h1l-1-3zm-57 3l-1-1 1 1zm104 0a3 3 0 010-1s0-1 0 0v1zm-55-2h-1l1 2v-2zm2 1v-1l-1 1h1zm-5-2l-1-2h1l1-1v-1l1 1v-3l-2-2v2-1l-1-1v2l1 2-1-1-1-1v1l1 2-1-1-1-1 2 6 1 1v-2zm-45 2l-1-1-1-1-1-1 1 2 2 1zm-2-1l-2-1v1h2zm53 0v-1l-1 1h1zm-2 0v-1l-1-1v1l1 1zm20-2l-3-3h-2l-1-1 1 1 2 1 3 3c3 2 2 1 0-1zm34 1l-1-1v1h1zm-103 0zm46-1v0zm-47 0c0 1 1 1 0 0zm51-1l-1-1v2l1 1v-1-1zm4 0h-1l-1 1c1 1 2 0 2-1zm40-1l5-5 3-6c0-1-1-1-1 1l-8 10-2 3 3-3zm-98 1l1-2 1-1-1-1h-1v1h-1l1 1-1 1v1l-1 1 2-1zm75 1h-1 1zm-72 0l-1-1v1c0 1 0 0 0 0h1zm49-1l-1-1v2l1-1zm-48 0c1 0 0 0 0 0v0zm91 0c4-3 10-11 10-13l-1-2h-1l-11 12-1 2 2 1 1 1 1-1zm-21 0l1-1h-2v1h1zm-70-1h-1v1h1v-1zm53-1h-2v2l1-1 1-1zm2 0l-1 1h1v-1zm-6 1l1-1-1-1v1l-1 1h1zm40-3l9-10v-3l-1 1-1 2-1 2-10 10v1l4-3zm-6 2l-3-1 1 1 1 1 1-1zm-29 0l-1-2v1l1 1zm-2-1l-1-1-1 1h2zm35-2l5-5-1-1h2v-2l1 1v-1-1l1 1v-3h-2-1v0c1 2 0 2-1 0l-1-1v1l-1-1-1-2s-1 0 0 0l-1-1v2l-1-2c-1 0-1 0 0 0l-1-2-1 1v2l-1-4h-1v2l1 2-1-1v-1a1 1 0 00-1-1v-1l-1 1v1l-1-2v-1l-1-1v2l-1-1v-1h-1l-2 1-1 2-6 6 6 5a106 106 0 013 2l8 7 3-3zm4-4v-1c1 0 0 0 0 0v1zm-1-2v0zm1-2l-1-2 1 1v1zm3-2c-1 0-1 0 0 0zm-45 11c0-1-1-3-2-2l1 3 1-1zm14 1a1 1 0 00-1 0h1zm63-2v-5c0-7-2-11-6-13-2-1-2-1 0 1l2 3 1 2 2 10v3l1-1zm-46 1l-1-1h-2c0 1 1 2 3 1zm-27 0v-1l-1 1h1c1 0 0 0 0 0zm-2-1l-1-1-1-1v2h2zm4-1l-1-1-1-1h-1l1 1 1 1h1zm-3 0l-1-1v1h1zm25 0l-1-1h-2l2 1h1zm-81-1v-1-3h1c2-1 2-1 1-2l-2 1h-1l1-1 2-1h1l-1-1-2 1v-1l1-1c2-1 2-2 1-2h-2v-2l-3 12 1 1 1 1 1-1zm116-2c2-1 4-2 5-1l-2-1-4 1-4 2-1 1 6-2zm-113 1c2 0 2-1 1-1l-2-1v2c0 1 0 1 0 0h1zm76 0l-2-2-1 1 1 1h2zm52-7v-3l-1-2-3-3c-2 0-2 0 0 1 2 2 3 7 4 11v2-1-5zm-74 5v-1l-1 1 1 1v-1zm-2 0zm55 0l5-3c2-2 3-3 5-3l3 1h1v-1c-1-1-3-2-5-1l-6 3-2 2-2 2h-1 2zm-34 0v-1c-2-2-3-1-2 0l2 1zm36-4c2-2 4-4 6-4 3-1 6 0 7 2l1 2c2 1 2 1 1-1l-4-4c-2-1-5-1-7 1-3 0-2 0-5 5l1-1zm-57 3l-1-1 1 1zm2-1h-1 1zm-4 0v-1l-1 1h1zm2-1h-1l1 1v-1zm18 0v-1h-2l2 1zm-22-1l-1 1 1-1zm2 0s0-1 0 0h-1 1zm58-2l1-1-2 3 1-2zm-62 1h-1l1 1v-1zm2 0h-1 1zm49 0v-1 1zm-47-1h-1v1h1v-1zm18 0h-2v1h1l1-1zm0-2c3-2 6-5 7-8l2-4c0-2-1-2-1 0-1 4-5 9-10 12l-2 2c0 1 3 0 4-2zm-24 1h-1-1l1 1 1-1zm2 0h-2l1 1 1-1zm2 0c1-1 0-1-1-1v1h1zm49 0h-1l1 1v-1zm-2 0l-1-1 1 1zm2-1c-1 0-2 0-1 1h1v-1zm-6 0c0-2-1-1-1 0l1 1v-1zm-26-1l2-1 3-2 5-6v-4h-2l-9 9-2 2h-1l1 2 1 1 2-1zm-24 1v-1l-1 1h1zm2 0l-1-1c-1 1 0 1 1 1zm3-1a3 3 0 01-1 0h-1l1 1 1-1zm66-1l7-2-1-1h-3l-5 4v1l2-2zm10 0c-1-2-5-3-9 0l-1 1h9c2 1 2 1 1-1zm-122 0h-1c-1 0-1 0 0 0h1zm39 0c-1 0-1 0 0 0zm2 0h-1v1l1-1zm2 0h0zm47 0s-1 0 0 0c0 1 1 1 0 0zm-44-1h-1-1v1h1l1-1zm-47 0l-1-1-1 1h2zm89 0v-1c-1-1-1 0-1 1h1zm-88-1v-1l-1 1h1zm39 0h-1 1zm2 0h-1 1zm22-1c3-2 9-7 9-9l1-3h-1l-1 2c-1 3-3 5-8 8l-4 3c0 1 2 1 4-1zm-25 1h-1 1zm5 0v-1l-1 1s0 1 0 0h1zm43-1h-1c-1 0 0 0 0 0h1zm-86 0h-2 2zm1-2h-1v1l1 1v-1-1zm37 1h-1c-1 0 0 0 0 0h1zm1 0h-1l1 1v-1zm2 1l-1-1 1 1zm-5-1h-1 1c1 0 0 0 0 0zm7 0v-1l-1 1h1zm17 0v-1l-1-1v1l1 1zm22 0l-1-1v1h1zm1 0h-1 1zm-42-1c0-1 0-2-1-1v1h1zm24-4v-7l-1-2-1 1v-2-1h-1l-1 1v1-1l-1-2 1-1c-1-1-1 0-2 1v-1-1c0-2 0-1-1 0v2-2-2h-1l-1 2c0 1 0 1 0 0v-2l-1-1v2l-1 2 1-2-1-2v-1l-1 4v2-2-3l-1-1v-1l-1 3v3-3c0-4-1-4-2-2v1-2-1l-1-1v3l1 1v2l1 1 1 2 1 2v1l1 2 3 4 1 2 1 1 1 1a2 2 0 001 1l1 2 2-1c3-2 3-2 2-3zm-64 3h-2v1l2-1zm35 1h-1 1c1 0 0 0 0 0zm2 0v-1l-1 1h1zm1-1v0zm42 0h-1l1 1v-1zm-45-1h-2v1l2-1zm2 0a1 1 0 00-1 0s0 1 0 0a1 1 0 001 0zm1 0v0zm19-1h-2l1 1h2l-1-1zm-32-1l1-1h-1v1l-1 1c-1 0-1 0 0 0l1-1zm2 1l-1-1v1h1zm2 0v-1l-2 1h2zm1-1h-1l1 1v-1zm5 1v-1l-2 1h2zm-12-1v-1l-2 2 2-1zm10 0l3-3v-1h-1l-1 1-1 2-1 1v-1l-1 1v1l2-1zm4 1v-1l-1 1h1zm29-3l-1-2v5l1-1v-2zm-45 2c1-1 0-1-1-1l-1 2 2-1zm-4 0h-1 1zm-2-1s1 0 0 0l-1 1 1-1zm41 0l-1-1h-2c0 1 2 2 3 1zm11-2l-1-1v1l1 2v-2zm-30 1h-1 1zm32-3l-1-1v3c0 1 0 1 0 0l1-2zm-16 1l-2-2v2h2zm17-1h-1v1l1-1zm-5 0v0zm2-1v-1h-1v1l1 2v-2zm-35 0l-1-1v1h1zm20-1l-2-2a1 1 0 00-1 0c-1 0-1 1 1 2h2zm13-1v0zm-32 0l-1-1v2l1-1zm34 0v-1h-1l1 2v-1zm-3-2l-1-1h-1l1 1h1zm-14 0l-2-3-1 2 3 1zm15 0v-1 1zm2 0v-1 1zm7-3l1-6 1-6v-1l-2 3-2 3 1 7v2l1-2zm-37 1l-1-1c0-1 0-1 0 0l1 2v-1zm24 0v-1l-1 1h1zm1 0v-1l-1 1h1zm8-1l-6-2-13-6-4-2 2 2 14 7 5 1h2zm-32 0v-1l-1 1h1zm-18-1h-1l1 1v-1zm28 0l-1-1h-1l2 2v-1zm-27-1l-1-3v1l1 3v-1zm39 1h-1c-1 0 0 0 0 0h1c1 0 0 0 0 0zm10-2v-1l-2-1-3-1h-1l-1-1-8-4a69 69 0 01-16-13c-2-2-2-2-4-1v1l1 1a40 40 0 0011 12l12 6 10 4 1-2zm-45 0h-1 1zm-8-2c0-1-1-1-1 1v1l1-1v-1zm29 0h-1l1 2 1-1-1-1zm-22 0v1c0 1 0 1 0 0v-1zm3 1l1-1-1-1-1 2h1zm-6-3h-1v2l1 1v-1-2zm-6 0v-1 1l-1 2h1v-2zm14 1v-1l-1 1c0 2 1 2 1 0zm43 1h-1 1zm-2-1l-1-1-3-1h-2l5 2h1zm-51-1l-1-3-1-3c0-1 0-2-2-3v-3l-1-1-2 2v2h1v1l1 1 1 1v1s1 0 0 0l1 1v1l1 1v1 1h2zm12 0l-1-2v2h1zm15 0v0c0 1 0 1 0 0zm23-1h-1c-1-1-1-1 0 0h1zm-54 0c0-1 0-1 0 0zm7-1c0-2-1-2-1-1l1 2h1l-1-1zm10 1l1-1-1-1-1 1v1h1zm-18-1l-1-2v2h1zm48 0l-4-2c-8-5-14-9-17-14l-3-2h-1l6 7 9 7 10 5v-1zm-16 0h-1c-1-1-1 0 0 0h1zm21 0l-1-1-2-3a189 189 0 00-11-20 99 99 0 009 21l2 3h3zm2-1l1-1c0-3 1-4 1-2v2l1-5v-1 2l1 2v-3c0-2 0-3 1-2v1c0 1 0 1 0 0l1-2v-1 1l1-1 1-2v-1c0-1 0-1 0 0v4l1-2 1-3v-2-1l1 1v2l1 1v-1-6 1l1 2 1-4v-2 3l1 1v-6-1l1 2 1 2-1-5-1-1 2 2v1-2l-5-10c-1 1 1 3 1 3 1 0 2 6 1 7l-1 2-1 2-1 2v1l-1 1-1 2h-1l-1 2-1 1-1 1-1 1v1c-1-1-1 0-1 1l-1 2-1 2c0 2 0 2-1 0l-1-1 1 4h-1v-2l-1-1v4l1 1-2-5v-2c-1 0 0 0 0 0h1l1-1h-1c0-1 0-2 1-1l1 1 1-4v1l1 2a1 1 0 000-1v-1l1-3c0-2 0-2 0 0 0 3 1 3 0 0l1-2a2 2 0 010 1v1l1-2v-2 1l1 2v-5l1 2c0 2 1 2 1-1v-2 3l1-4c1-3 1-3 1-1v1l1-5v-2 2l1 2v-3c0-3 1-3 1-1v-3l-3-3 1 1 1 3-2-2-2-3-1-1v2l1 4v1l-1-2-1-2v3l-1-2-1 3v3-2l-1-1v3c-1-2-1-2-1 0v1l-1-1-1 3c1 0 1 0 0 0v1c0 1 0 1 0 0l-1-1h1-1l-1 2v0h-1l1-1h-1v1l-1 1v1-1l-1-1-1 2c1 0 1 0 0 0v1l-1 1v-1-1l-1 1-1 2v-3h-1l-1 3v1l3 6 7 11h1zm-7-11v-2-1a2 2 0 001 1l1-1v-2 1l1 2-1 1-1 1h-1zm4-3v-2 2zm-5-2h1l1-1-1 1v1l-1-1zm6 0a6 6 0 010-1c0-1 0-1 0 0v1zm2-2v-1 1zm1 0l-1-1h1l1 1h-1zm8-15l-1-2 2 3c0 2-1 1-1-1zm-58 33h-1 1zm17-1v-1l-1 2c0 1 1 1 1-1zm-2 0l1-1c0-1 0-2-1-1l-1 1 1 2v-1zm12 0h-2 2zm-26-3h-2v3l1-1 1-2zm2 3a1 1 0 000-1l-1 1h1zm19-4c-3-2-7-8-7-9h-2l1 3 8 8 3 2-3-4zm17 2l-1-3v2l1 2 1 1-1-2zm-30 1l-1-1-1 1 1 1 1-1zm-17 0s0-1 0 0h-1 1zm22-2v-1l-1 1v2l1 1v-1-2zm-9 1l-1-1v2l1-1zm-14-1v-2l-1 1v2l1-1zm19 0v-2l-1 1v1l1 1v-1zm27 0l-1-6v3l1 4v-1zm-25 0v-2l-1 1v2l1-1zm23 0v-8c-1-3-1-3-1 0l1 8c0 1 1 1 0 0zm-36 0v-2h-1l-1-1v1l1 1 1 1zm7-1l-1-1-1 1h2zm27-6v-6l-1 1 1 1h-1l1 10v-6zm46 2v-6l-1-3-1-4-1-1 1 1 1 1-1-4a33 33 0 00-3-4l-1-2v-1l2 2c3 3 4 6 5 9l2 3-2-7-6-8-3-3-2-1 2 1 2 1c2 0 7 3 8 5l1 1v-2l-6-4-1-1c2 0 6 3 7 5l2 1v-1l-5-5a66 66 0 00-10-3h8c2-1 3 0 5 2h-1c-1-2-3-2-5-2h-3l2 1 7 3 1 1 1-2c0-1 0-2-2-3l-3-2h-8l1-1h1-1l-2-1-2-1 1 1 1 1-2-2 1-1 1 1h8l2 1h2l-1-1-1-2h-2l-2 1h-4l-3-2-6-3-2 1 3 3 3 6 2 4 3 6 2 4-1-1-1-2c0 1 1 4 3 5 1 1 2 3 2 7v10c1 2 0 2 2-2zm-14-36l1-1v1h-1zm0-2h1-1zm-76 41l1-2 1-2v1l-1 2 1-1 2-2v-2h-1l1-1c1-1 0-1 0 0h-1c1 1-2 2-3 1l-1 1h-1l1-1 1-2 1-1c1 0 0 1 0 0v-2l-1-1-1-1-2-1c-1-1-4-1-9 1v2s1 0 0 0l1-1v2l1-1c1-2 1-2 1 0v1l1-2v1l-1 2v1h2l2-1 1-2v-1l1 3 1 5v1 1l1-1v3h1zm43-4l-1-6-1 3 1 7 1-4zm-26 3h1l1-2h-1-1l-1 2h1zm24-2v-4l-1-3v8l1 1v-2zm-1-1l-1-3-1-1v-1 3l1 4h1v-2zm-43 0l-1-1h-1v1c2 2 2 2 2 0zm40-1v-2l-1-2v2l1 3v-1zm-75-2l2-1 2-1-1-2v-1l-4 2v3h1zm-1-2h0zm73 1v0zm-58-1v-3 1l3 2-1-1v-1h1v-1l-2-1-4 1v4l3-1zm1 0h-1l1 1v-1zm56-1h-1l1 2v-2zm6 1h-1 1zm-53 0v-1h-1l1 1c1 0 0 0 0 0zm51-1l-1-1v1l1 1v-1zm-66 0h-1 1zm13 0v-1 1zm59-1l-1-2v1 2l1-1zm-60 1l-1-1v1h1zm3-1v-1 1c0 1 0 1 0 0zm-5 0h-1l1 1v-1zm60 0h-1 1zm-56-1l-1-1v2l1-1zm-3 0v-1 1zm67-1l1-3h-2v3c1 1 1 2 1 0zm-62 0h-1 1zm56-2v0zm48-1l-3-6-2-1 2 4 2 4 1-1zm-39 0v-1h-1v2l1-1zm2-1v-2l-1 2-1 2h1l1-2zm-11 0v0zm3-1l-1-4h-1v4h2zm10 1l-1-1v1h1zm-3-2c4-1 5-3 2-3h-3l-3-1c-3 0-4 0-3 1l1 4 6-1zm5 0l-1-1v1h1zm-17-3v-1h2l-1-2-1 2v1zm36-2l-2-6-5-5-2-1 1 1c2 0 5 2 6 4a28 28 0 013 6l-1-6-8-6-2-2v1h4l1 1 3 1-2-2h-2l-3-2c-1 0 0 0 0 0l3 1h2l1 1v-1l-3-1-1-1h0l2-1h-2-1l-2-2h-1l-1-1h-2 1v1h-3l1 2 2 3v-2l-1-1 3 4 1 3 3 3 3 2 4 8v-2zm-11-16l-1-2-2-2 2 1 1 2v1zm-27 18l1-2h-1l-1 1-1 1h2zm52-1l-4-4-3-1 1 1 4 3c1 2 2 2 2 1zm-47 0v-1 1zm14 0h-1 1zm4-5c1-2 2-3 1-4l1-1v-1l-3 1-2 1-8 4 1 3 1-1h4l1 1 1 2 3-5zm-4 2v-1 1zm2-2c0-2 0-2 1-1v1l-1-1v1c0 2 0 2 0 0zm30 3v1h1l-1-1zm-44 0v-1l-1 1c0 1 0 1 0 0h1zm-7-1v-1-1h5l10-4 7-3v-1c0-1 0-1 0 0 2 1 1-2 0-4l-3-2-2-1-2 1-3 1c-2 2-2 2 1 2s3 0 4 2v1h-1l-1-1h-1c0 2-1 2-1 0v1l1 1 1 1c1-1 1 0 0 0l-1 1-1 1c-1 0-2 0-3-2h-3-1l-1 1-2 1c-1 0 0 0 0 0l2-2 2-2 3-2-1-1-2 1h-1l-7 4h-3l-2 1v2l-1 2 1 2 1-1v-1-1a9 9 0 000-2v-1 1l3 1h2v0h-1v2l-1 1-1 2h2l1 1 1-1zm2-3l2-2v1l-2 1zm4-1l-1-1 3-1-1 2h-1zm3-2v-1l2 1h-2zm-6-2c1 0 1 0 0 0 0 1-1 1 0 0zm16-2l-1-2 1-1v-1l1 1 1 1-1-1v-1l2 3h-1c-1 0 0 0 0 0l-1 1c0-1 0-1 0 0h-1zm0-3v0zm-4-1v-1l2 1h-2zm-9 14l-2-1v1h2zm33-5l-5-5c-2-1-2 0 0 0l3 3 2 3v-1zm-26-3l-1-1-1-1v-1c0-1 0 0 0 0l-1 1 1 2h2zm11-4l-4-5 1 1 2 4c1 1 1 2 1 0zm24-2l4-1h2l-1-1-1-2-2 1-2 1-3 2h-2l2 1 3-1zm-7-3c-2-1-2-1 0 0h6l4-2h-1l-6 2-4-2-4-1-3 1-1 1h2c1-1 3-1 6 1l2 1-1-1zm-34 1v-2l-1 1h-1v1h2zm23-2h-1l1 1v-1zm-10 0l1-1-3 1h2zm-6-1l-3-1h-2-1l3 1 2 1h1v-1zm15-1l-1-1v1l-2-2-1-6h-2 1v2l1 5v1s-1 0 0 0v1l1-1 3 2v-2zm-10 1l2-1h-1-2l-1-2h2v-2l-2-2v-1 1l-1 5c1 2 1 2 3 2zm4 0h-1c-1 0 0 0 0 0h1zm-8-2c0-1-1-1-1 1v1l1-1v-1zm32 1l1-3-2 1-2 1h-2l1 1h4zm-14-4h3l3-1-5-1-3 1h-1v4l1-1 2-2zm-20 2l-2-2c-2-1-2 0-1 1l4 1h-1zm0-1l-1-1h-1l1 1h1zm5-5v0zM163 312c-3 0-3-1-5-2l-2-3 1-2v-3l-3-1h-1v-4l1-4-1-16v-3c1-2 1-3 3-3 2-1 4-3 5-6l2-4-1-2-2-4v-1l-1-1-3-9 1-9v-2h-2c-2 1-3 0-6-2l-2-1-2 1 3 5 1 2 1 5-1 4-2 4c0 3 0 3-1 2h-2l-3 5h-7l-1 1-4 2c-2 1-5 2-6 4l-3 6-1 3c-1 0-1 1 0 0l3-6 1-1 1-1c2-2 3-3 5-3l5-3 1-1-1 6c-1 3-6 6-9 6l-1 2-4 4-3 1s-2 2-3 1l1-2v-2l-1-1c-1-2-3-4-6-4h-2l2-1c2-2 6-2 8 0l1 1-1-3a35 35 0 010-5c-1-3 0-4 1-6l1-3c-1-2 0-4 2-7l5-5 1-2 5-4h1v-10l2-2c3-6 8-8 14-6l4 2 3 5 3 6h1v1l-1 3v2l2-4-1 3v5l1-3 1-3-1 6v1l2-5v-1l-1 4v4l-1 1v2l1-1 1-2 1-4v-2 4l-1 3s1 0 0 0v3l1-1 1-3v-1 4l-1 3 1-3 1-2v3l2-1 2-3 1-1-2-1-8-10-1-4 1-1 2-2 3-2 2-1a63 63 0 0115-8 11 11 0 002-1l1-2 1-2h1l2-2 1-1c1 0 2-1 2-3v-3-1l-1-3-1-1-1 1 1 3v5c-1 0-3-2-3-4l-2-13-2-4c-8-10-11-16-11-23 0-3 0-3-1-2v5l-2 2-1 1-1 4c-1 1-2 5-1 6v-1l1-3 2-6h1l-1 6v1l2-5 1-3-1 2v4l-1 6c-1 4-2 8-1 9v8l-1-3-2-3-2 2v-1l1-2 1-1v-2l2-6v-3l-1 2a11 11 0 01-1 2l-1 3-1 3-1 1v-1l-1-6v-7-1h-1l-2 2v-3c0-2 0-3 2-5v-4l-2 4v1l-1-2v-7-6l1-3-2-1 1-1 2-1v-1h-4 1c1 0 2 0 2-2l3-3v-1-1l2 1c4 1 6 1 11-1h3l4 1 1 1 1-1v-1l-4-3-4-1-1 1h5l3 3v1l-1-1c-1-2-4-2-9 0l-5 1h-1c0 1 0 1 0 0l-2-4v-1l1 1 4 1c2 0 3 0 4-2l2-2h9l5-4v10c1 0 2-1 2-3l3-7c1 0 3 3 3 6l1 1 2-1c4 0 5-1 6-4 0-1 0-1 0 0 0 2-2 6-4 7-1 0-1 0 0 0 2 0 4-1 5-3 0-1 1-1 0 0v5 2l3 1v1l-4-1h-2l-1 1 5 3 6 3h3c1 0 3 2 3 4v6l-1 1h-5v3h-4c-1-1-1 0-1 2v2h2c2 0 7 2 9 4l2 1 2 2 3 1 1 1 4 3 5 3 1 2 2-2 3-3 5-5 4-3 3-2h6l13 2h12l-1 1-3 3 1 1v1l1-1 1-1c0-1 0 0 0 0v-1h1v-1-2l7 3 1 1-2 3h-9l-3-1h-19l-2 1-5 7-2 3-2 4-5 7-1 2a222 222 0 0010 5v5l1-2v-1 3l1-2v-1l1 2v1l1 1h1v-1-1h1v-1l1-1c1 0 2 2 2 5l1 5 4 13v5l-1 5c0 4 0 6-3 8l-1 1c-2 0-3-3-3-4l-1-2-1-2v-1l2-2c3-2 4-3 1-4l-1-1v-3l-1-7-1-6-1-2-3-1c-4-2-5-2-11-1a65 65 0 01-9 2 130 130 0 01-22 16l-1 1h2c4 0 6 2 7 4l1 6v7 7c1 2 7 4 16 6h4l1 2 3 2c2 2 6 5 7 8l3 5h-1l-2 1-11-4v-5h-2l-5-2-8-3-12-1h-5l-2-2v-2-6l-2-2h-5l-9 2-3 1-2 4-5 5-1 2a28 28 0 011 3v4l1 3v4l1 3v6l1 4v5l-1 5-2 1-2-1-1-3v-5h1c1 0 2 1 2 5l1-1v-4l-1-2a123 123 0 01-1-9l-1-6a68 68 0 00-1-10l-2 1-4 2-2 1-6 6c-4 4-4 4-4 13l1 7 1 1 2 3a10 10 0 001 2l4 7-1 1h-6zm3-1v-2l-1-1-1-1v-1h1-1l-3 1h1l-2 1s-1 0 0 0l1 1h3l-2 1h1l1 1h2zm-1-7l-1-1h-1v-1l1-1-1-1h-1l-1-1v-2h-2l-1-1h1v-1h-1v1-2c1 0 1 0 0 0l-1-1 3-3v-1l-1 1h-1v-3l1-3v-2l1-1c1-1 2-2 1-3h-1l1 2h-1l-1-1v-1l-1 2-1 1v1 3 5l-1 3v-4-1l-2 10c0 1 0 1 0 0l1 1c-1 0-1 0 0 0 1-2 1-1 0 0v1-1h1c0 2 0 2 1 0h1l1 1 2 4-1-1h-2l2 1h5zm17-1l2-1 1-3-1-3-1 2v3c-1 0-2 0-2-2l-1-3v3l1 4h1zm-24-2h-1l1 1v-1zm26-7v-1l-1 2 1 1v-2zm0-4c0-1 0-2-1-1l-1 1v2c1 1 1 0 2-2zm-1-2v-4l-1 2c0 2 0 3 1 2zm-1-4l1-2c0-2-1-2-1-1l-1 3h1zm-1-4l1-2c0-2 0-3-1-2v4zm-64-3h2l1-1h-1l-2 1c-2 1-1 2 0 0zm43-1h2c-1 2 0 1 1 0v-1h1v-1h1v-1c1 1 1 0 1-1l1-1v2l1-2c0 1 0 1 0 0v-2l1 1 1-1v-1 1h1v-1 1l1-1v-3l1-1v3l2-5c0-1 0-1 0 0v5l1-2v-3-2h1v-3a152 152 0 01-1-5v-4l-4 5-4 4h1-1l-1 1-1 1h1l-2 1v1h4l-1 1c-2-1-3 0-6 5l-2 2h3l-2 1h-2 2l-2 1h-1l1 1h-2c1 1 0 1-1 1s-3 1-2 2l1-1h2a3 3 0 001-1v1l-1 1h-1v2l3 1 1-2zm2-3v-1l1 1h-1zm1-1l1-1h1l-1 1h-1zm3-3v-1 1zm1-2v-1h2l-1 1h-1zm2-3v0zm1-1v-1l1 1h-1zm84 14l-2-1-2-1v-2h-1l-4-1h-3 3l3 1-1 1 1 1 1 2 5 1v-1zm-137-1zm4-1h-1-2 3zm2-2v-1 1a11 11 0 01-1 1l-1 2 2-3zm58 0v-2 1l-1 1v2h1v-2zm-62 0v-2 1l-1 1-1 1v1l2-2zm-3 0h-1l1 1v-1zm6 0v-1l-1 2 1-1zm-6-1v-1-1c-2-2-4-2-6-1-2 0-2 1 0 0 2 0 4 0 5 3l2 1-1-1zm3-2l2-5v1l-1 2 1-1 5-5 3-2 4-3 1-1 1-3-2 2-7 4-5 2-2 5-1 4 1-3c2-4 4-6 10-9l3-1 1-1-1 2-5 2c-5 2-6 3-9 10v2l1-2zm-5 1l-2-1c-2-1-2 0 0 1h1 1c0 1 1 1 0 0zm137 0l-5-4v1l1 2v2h2l2-1zm-129-1h-1v1l1-1zm58 1v-5l-1 3 1 2zm-51-2c3-1 6-5 5-7l-1 1c-1 3-4 5-8 7h-1l5-1zm-1-4l7-5c0-1-1-1-2 1l-3 2-5 3c1 0 0 0 0 0h-1v2a5 5 0 00-1 1l2-1 3-3zm0 3l4-4 1-1-2 1-3 3-3 1v1l3-1zm117-1v-1l-2 1c-1 2 0 2 2 0zm-126-2l-1 1v1l1-2zm59 0v0zm63 0v-1l-2 2 1 1 1-2zm-123 0a142 142 0 001-3c1-3 2-4 7-7l7-3 2-3v-1l-2 2-5 3h-1l6-4 2-1v-1l-2 1-6 3-5 3c-2 1-6 8-6 9h1l2-5-1 3-1 6 1-2zm120-1v-3l-2 3-1 2 1-1 2-1zm1 1l1-1h-1-1v2l1-1zm-59 1v-3l-1 2c-1 1 0 1 1 1zm55-5h-1l-1 4 1-2 1-2zm0 3l1-2-2 3 1-1zm8 0v0zm-124-1v1s0 1 0 0v-1zm107 0l1-3-1 1-1 1 1 1c-1 1 0 1 0 0zm1 0v0zm5 1v-2l-1 1 1 1zm-7-1v-1l-1 1h1zm-45-1l-1-3-1 3 1 1 1-1zm2 0a42 42 0 004-11l-1 4a23 23 0 000 3c0 2 0 2 1-1l1-4 1-3-1 4c0 3 0 3 1 1l2-7v-2 7l1-2v-4-1l1 1 2-4c2-4 3-5 6-6l2-1-2-1c-2-1-2-1 0 0h4l1-1h-2l-2-1h4l-3-2h1l5 1-2-1-2-1h-1l-2-1h1l6 1-2-2h-2 4l-2-1h4l-4-2v-1l2 1h3v1h1l-2-2-3-1 2 1h3l-2-1-1-2 1 1h1l2 1h1l-3-2-2-1 2 1h3c0-1 0-1 0 0l1 1 1-1-3-1-3-1h3l3 1v-1l-1-1a37 37 0 00-2-1h-2v-1c4 2 5 2 5 1l1 1h2l-2-2h-2l-1-1 2 1h2v-1c-4-2-4-2-1-1h2l1 1 1-1-1-1c-2 0-5-1-4-2l1 1 6 1-1-1-2-1-3-1c-1-1-2-2 0-1l7 3-1-1-6-5-2-2 2 1c2 2 4 4 6 4h1l-1-1-5-4c-3-3-3-3 0 0 2 2 3 3 5 3s1-1-2-3l-2-1 2 1 3 2 1 1-1-4h-1l-1-1-1-1v-4h2l2-2v1c-1 0-1 0 0 0h1l1-1v2h1l1-1-1 1-1 2v1l1-1c2-1 3-2 1 0s-2 2-1 3c0 1 0 1 0 0l1-2 1-1c1-1 2 0 1 1l-1 1h2c1-1 1-1 0 0 0 1 0 2 1 1l1 3 1 1h2c0 2 1 2 1 1 1-2 2-2 3 0 1 1 2 1 2-1v-1 2h1v-2l1-2v3l1 1v-3l1-2v5l1-1v-2l-1-2 2 4c0 1 1 1 1-1v-1l-1-2-2-1-7-2h-1l1-1h-1-1l-1-1-5-3-1-1h-1l-1-1h-1l-2-1h-1l-1-2v-2l-1 2v3c0 1 0 1 0 0v-2l-1-2-1 2v2l-1-2-1 1-1 4-1 1v1l-1 1-1 3-1 3a45 45 0 01-6 8l-2 2-2 3c1 1 1 2-2 3l-2 4c0 1-1 2-2 1l-2 1-1 2a32 32 0 01-5 5l-3 2-2 2-3 2-2 1-1 2v3a106 106 0 002 12l1-2v-2l-1 5v2a15 15 0 002-6l1-1v-1 1l-1 3-2 6v1l1-1zm37-60v-1l1 1h-1zm16-5s-1 0 0 0zm-4-2h1a3 3 0 001 0v1h-1l-1-1zm-13 67l1-1c1-1 2 0 1 1v0h2l2-2v1l-1 1c0 1 0 1 0 0a16 16 0 001-1v2l1-2 2-2v1h1l-2-2-1 1c0 1 0 1 0 0h-2v-1l-2 1c-1 1-3 3-5 3l-1 1 3-1zm2 0l1-1 1-1-1 1-1 1zm9-1l-1 1v1h1v-2zm-15 1h2l1-1 2-1 2-1 1-2h-2v-1l-1-1h-1l-4 2c-3 1-3 2-2 2v1l1 1h1l-2 1v1l2-1zm2-2l2-2-1 1-1 1zm-2-2l2-1 2-1h1l-3 2-1 1-1-1zm-88-1c5-2 9-4 9-6l-2 1-6 4c-5 2-6 3-7 5l-1 2 2-2 5-3zm105 5v-1l-1 1h1zm2 0v-1l-1 1h1zm-112-8l5-4 8-5h-1a31 31 0 01-2 2l-8 4 2-2 8-4 1-2v-1l-2 2-9 5 3-2 8-6h-2l-6 4 1-1 6-4v-1c0-1-2 0-8 6l-6 5-1 1v1l2-1-1 1-1 1h2-1l-3 7 2-2 3-4zm110 6h-1 1c1 0 0 0 0 0zm-66-2a219 219 0 0113-14v-4h-5l-7 7-4 5-1 2 5-5 7-7 3-1h1v3l-6 6-8 10 2-2zm65 2l-1-1v1h1zm-52-1l1-4c0-2-2 1-1 3v1zm-6-10l5-7v-1h-2l-9 10-5 4 2 3 2-2 7-7zm43 7c2-1 5-3 5-5l-1 1-6 3h-1v2 1l3-2zm-76 1l4-6 2-4v-3-11l-1-2h-1l1 9c1 1 0 7-1 9-2 4-3 7-5 7l-1 1-2 1 2-1a7 7 0 002 0zm1 0l4-5 1-2 3-4 1-5c0-3-1-3-1 0l-2 6-6 9v1zm-4-1v-1l1-1v2l1-3-1-4v-6l-1-4-1-3-1-8v-4c-2 2-1 9 0 15l2 11-2 6 1 1 1-1zm4-3c2-2 2-5 2-7l-1-13 1-4 2-2 1-1-1 1c-2 0-3 1-4 4l-1 11c0 8 0 9 1 8l-1 2v3l-1 1 1-1 1-2zm38 0l1-4-2 4c0 2 0 2 1 0zm37 1l5-6-2 2-6 3v1h3zm-76-12v-11l3-4 4-1h2-7c-2 1-3 2-3 5l-1 9 1 6 1 7v-11zm76 10l5-6v-2l1-2-1 1v-1-2-2l-2 6-1 2-1 2 1-1 2-1-1 1-1 2c0 1 0 1 0 0h-1l-2 1c0 1 0 1 0 0l2-2c-1-1-2 1-3 2l-1 2-1 1 4-1zm-17 0l1-3v-2 2l-1 3s0 1 0 0zm-51-2l-1-1v2l1-1zm53-3l1-4v4l1 3v-6l1-8-2 5c0 2 0 2 0 0l-1 3a152 152 0 010 3zm12 3l1-1 1-1 1-1h-1-1-2a28 28 0 01-2 2l-1 1 4-2v1l-1 2 1-1zm-50 0v-1l-1 2 1-1zm-2-1v0zm18-1v-3l-1 1v3l1-1zm25-3l2-10 1-1-3 6a95 95 0 000 9v-4zm-83 4l7-6 6-6-1-1-5 5-6 6c-3 1-3 3-1 2zm41-1v-1l-1 1h1zm50-1v-2l-2 2h2zm-65-2c2-1 2-2 2-5l-1-4h-1v7l-1 4c0 1 0 0 0 0l1-2zm2 1v-1 1zm62-2h-1l-1 2h1l2-2h-1zm-2 0v-2l-1 1v3c0 1 0 1 0 0l1-2zm57 1l1-1-1 1-1 2 1-2zm-139-4a107 107 0 015-5c-2 0-4 2-5 4l-1 1-4 5 5-5zm18-1a286 286 0 00-1-10l4-2 3 1 6 3c2 0 2-1 1-1l-5-2-4-2c-2-1-6 2-7 4l1 6 1 8v2-3l1-4zm73 5l-1-1-1 1v1h1l1-1zm-12-1l1-8v-1l-2 9c0 3 0 3 1 0zm9 1h-1l1 1v-1zm-8-3v-2l-1 5 1-1v-2zm-47 3v-1a3 3 0 010 1zm104 0v-1l-1 1h1zm-48-1v-1l-1 2 1-1zm-2 0l-1-1v1h1zm5-1l2-6-1 1-1 1 1-2v-1l-1 1-1 1v-1-3 1l-1 1v-1-1l-1 2v3l1-1v1c0 1 0 2 1 1v2 3l1-2zm45 0l2-2h-1v1l-1 1-1 1 1-1zm-52 0l-1-1v1h1zm54 0l1-1-2 1h1zm-51 0v-2l-1 1v1h1zm-54-1v-1l-1 1h1zm56 0v-2l-1 2h1zm46 0h-1 1zm-91 0l-3-3-7-10-1-1 3 6 7 8h1zm39-1l-1-1h-1l1 2 1-1zm3-1h-1-1v1h1l1-1zm50 1l-1 1h1v-1zm5 0l-1-1h-1v-3h1-1l-1-1h-1v2l2 2 1 2 1-1zm-53-1l-1-1v2l1-1zm49 1l-1-1v1h1zm-91-1l2-1-2-2-10-12h-1l-1 2 6 10 5 4 1-1zm89 0h-1l1 1v-1zm1-1l-1 1h1v-1zm-56 0v0c0 1 0 1 0 0 1 0 1 0 0 0zm4 0l-1-1h-1l1 1h1zm-33 0l-1-1-10-10a82 82 0 00-2-2l-1-2v2a70 70 0 0013 13h1zm35 0v-1l-1-1v1l1 1zm-33 0h1l1-1-1-1c-1 0-3 1-2 2h1zm28-2v-1 1zm-29 0a77 77 0 0010-8l6-5-6-6-2-1-1-2h-1v1l-1 1v2c0 1 0 0 0 0v-1l-1-1 1-1v-1l-1 1-1 1v2c-1 2-1 1-1-1v0l-1 1-1 2v-2l1-1c0-1 0-2-1-1v1l-2 3 1-2-1-1-1 2-1 2-1 1 1-3-1 1-1 2-1 1v-1l-2 1v-1l-1 1h-2v3l1-1v1 1l1-1v1 1h1v1l4 5 4 3 1-1zm-8-6v-1 1c0 1 0 1 0 0zm0-2h1c1 0 0 0 0 0l-1 1v-1zm-1-1l1-2h1l-1 1-1 1zm-2-3c0 1 0 1 0 0zm43 11l-1 1h1v-1zm3 0l1-2-2 2c0 1 0 2 1 1v-1zm-76-9l1-4 1-2 2-3c2-1 2-2 0-1-4 2-6 6-7 13l1 5v2l1-4a205 205 0 011-6zm47 9a1 1 0 000-1h-3v1h3zm24 0v-1 1zm4-2v-1l-2 2h1l1-1zm-4-1h1v-1h-1l-2 1v2l1-1 1-1zm2 1v-1l-1 1h1zm-24 0c1-1 0-1-1-1l-1 1h2zm81-1l1-1-4-12v2c1 1 1 1 0 0h-1c-1 1-1 1 1 2l1 1v1l-2-1-1 1h1l2 1 1 1h-1l-2-1c-1 1-1 1 1 2l1 1v3l1 1 1-1zm-113 0c1-1 1-1-1-1l-3-2-4-1-2 1c2-1 2 0 6 2l4 1zm109-1v-1-1h-1l-1 1v1h1l1 1v-1zm-75 0l1-1-1-1-2 2h2zm-53-7c0-3 2-6 3-7s1-1 0 0l-3 2-1 2v3 7-3l1-4zm73 5c0-1 0-1 0 0h0zm2 0v0zm-54 0l-2-2-2-2-6-3-5 1-1 1h2l3-1c2 0 3 1 5 3l6 3c1 0 0 0 0 0zm35-1c1-1-1-2-2 0v1l2-1zm-37-2l-2-3c-1-1-1-2-3-2-3-1-5-2-7-1l-5 4c0 2 0 3 1 1l2-2 6-2 5 2 1 1 2 3 2 1-2-2zm57 2l-1-1v1h1zm-2 0l-1-1s-1 0 0 0l1 1zm4-1h-1 1zm-2-1h-1v1l1-1zm-17 0c1-2 0-2-2-1l-1 1h3zm21 0l-1-1v1h1zm-2-1h-1v1l1-1zm-59-1l-2-2 2 3v-1zm63 1v-1a3 3 0 01-1 0l1 1zm-2-1h-2 2zm-50 0v-1 1zm30 0h-1 2-1zm17-1v1h1l-1-1zm-14 0l-2-2c-5-3-9-8-10-11 0-3-1-3-1-1l1 4 8 9 4 1zm-33 0h-1 1c1 0 1 0 0 0zm50-1h-2c-1 1 0 1 1 1l1-1zm2 0h-1v1l1-1zm3 1l-1-1-1 1h2zm-52-1h-1 1zm-2-1h-1v1l1-1zm6 0h-1v1l1-1zm27 0l1-1 1-1-1-1-2-2c-4-2-10-8-10-9h-1v4a19 19 0 0010 10h2zm-55-2l4 1 2 1-1-2c-4-2-8-2-9 0v1l4-1zm7 1l-4-4h-3c-2 0-2 1-1 1 2 0 5 1 7 3l2 1-1-1zm66 1v-1a3 3 0 01-1 0l1 1zm3 0l-1-1-1 1h2zm2 0h-1 1zm41-2l-1 1 1-1zm-91 0h-1 1zm48 0l-1-1v1h1zm2 0h-1 1zm2 0h-1c-1 0-1 0 0 0h1zm-6 0v-1h-2v1h2zm46-1l-1-1v2c2 0 2 0 1-1zm-89 0l-1-1v1h-1 2zm28 0l-4-4c-5-3-7-5-9-8l-1-2v2c0 1 1 3 4 5 5 5 9 8 10 7zm19-1h-1v1l1-1zm1 0h-1l1 1v-1zm40 0l-1-1-1 1 1 1 1-1zm-43 0h-2l1 1 1-1zm5 0h-1c-1 0 0 0 0 0v1l1-1zm-48-1h-1 1zm87 0l-2-1 1 1h1zm-42-1h-1v1l1-1zm1 0h-1l1 1v-1zm2 0h-1v1l1-1zm36 0c0-1 0-1 0 0s0 1 0 0c0 0 1 0 0 0zm-41 0l-1-1-1 1h2zm7 0h-1v1l1-1zm-46 0s0-1 0 0a1 1 0 00-1 0 1 1 0 001 0zm22-1v-1l-2 1v1l2-1zm-24 1zm23-3l1-1v-1l2-1 1-2 3-4 1-2v-1l1-2 1-2 1-1v-2-1l1-3-1 1v3l-1-1c-1-2-1-1-1 2v3-3l-1-3-1 1v6-2l-1-3h-1v2l-1-1-1 1 1 1h-1v-1h-1v3-2c-1-1-2-2-2 0h1v1 3l-1-2c0-1 0-2-1-1v1c1 0 1 0 0 0v3-1l-1-1h-1v2c0 1 0 2-1 1v-1l-1 3-1 7 2 2 2 1h1l1-2zm19 2v-1 1zm2 0h-1 1zm2 0h-1 1zm2 0h-1c-1 0 0 0 0 0h1zm36-1h-2l1 1 1-1zm-82 0v1c0 1 0 0 0 0v-1zm44-1h-1v1l1-1zm3 0h-2l1 1c2 0 2 0 1-1zm-23 0l1-1-1-1a2 2 0 00-2 1v1h2zm18 0h-1 1zm5-1l-2-1v1h2zm3 0v0c1 0 1 0 0 0zm2 0l-1-1v1h1zm2 0l-1-1 1 1zm2 0l-1-1-1-1h-1l3 2zm-41-3v-2l-1 2v3h1v-1a8 8 0 000-2zm29 3l-1-1v1h1zm5-1l-1-1v1l-1-1-1-2-1-1h-1v1a11 11 0 004 4l1-1zm10 1l-2-2v2h2zm2 0l-2-2c-1 1 0 2 1 2h1zm3-1h-1-1l1 1 1-1zm2 0l-2-1 1 1h1zm-52-3l-1-1v3l1-2zm12 2l1-2-3 2h2zm18 0l-1-1v1h1zm-32-3v-2h-1v3l1 1v-2zm16 0l1-1h-2c-1 1-1 2 1 1zm-18-1v0zm6 1l-1-2c-1-1-1 0-1 1l1 1h1zm-2-1l-1-2v3l1-1zm35-1v-1l-1 1h1zm-19-1l1-2c-1 0-2 0-3 2h2zm-15-2c0-1-1-1-1 1l1 1v-2zm33 1h-1c-1 0-1 0 0 0h1zm-34 0l-1-1v2l1-1zm3-2v-1l-1 1h1zm-4 0zm2 0h-1 1c1 0 0 0 0 0zm17-1v-1l-2 2 2-1zm-25-4v-5l-1-3-2-3v7l1 6 2 3v-5zm37 4v-2h-1v1l1 1zm-26-1zm1 0v-1 1zm-4-1a59 59 0 0018-9l-1-1-3 2-14 6-5 2 1 1 4-1zm28-1h-1v1l1-1zm17 0s0-1 0 0v0zm-27 0l1-1h-1l-1 1h1zm-12 0h-1c-1 0 0 0 0 0h1zm39-1v-3l-1 1-1 2v1l2-1zm-46 0l6-2a74 74 0 0014-8l10-10 1-2-1-1c-1-1-1-1-3 1l-8 8-8 5a56 56 0 00-10 6h-3l-3 1 2 3 3-1zm42 0l-1-1h-1l2 1zm-22-2v-2l-1 2v1l1-1zm29-1v-1 3-1-1zm-7 1l-1-1v1h1zm-3 0v-2l-1 1v1h1zm6-3h-1v2l1 1v-1-2zm-50 2h-1 1zm43-2h-1v1c-1 1 0 2 1 1v-2zm13 1v-1 3-1-1zm-52-1l3-1h-2l-3 2h-2l4-1zm37 0c0-1 0-2-1-1v2l1-1zm12 0h1v-1-1-1l1-1v-1h1v-1l1-1v-1c0-1 0-2 1-1l1 1v-3l-2-2-1 2-1 2-2 4-1 2v3c0 1 0 2 1 0zm-28 1v-2l-1 1 1 1zm-22-2c0-1 0-1 0 0l-1 1 1-1zm36 0v-1l-1-1v2h1zm11-1v-1c-1-1-1-1-1 1v1l1-1zm6 1h-1 1c1 0 0 0 0 0zm2-1v-2l-2 2h2zm-43-2l13-9 5-7-3 2c-4 5-9 9-17 14l-4 2 6-2zm-7 0l1-2a85 85 0 009-20h-1l-2 2-4 10-4 8-2 3-1 1h2l2-2zm18 2h-1 1zm-21-3a117 117 0 007-16l-1-3h-1v2l-1-2-1 1v1-1l-1-1-1-2v3-2l-1-1v-1h-1v2h-1v-1-1-1h-1v1c0 1 0 1 0 0h-1v-1l-1-3v0h-1v1l-1-4v1l-1 2v-3-3l-1 3v-3l-1 1-1 2v-1l1-4v-2 1h-1c-1-1-2 1-3 3l-1 3v-1l1-2 1-2-4 3v3c0 2 1 2 1 0v1l1 3v-2l1-2v7l1-1v1l1 4 1-2v-1 2c0 3 0 3 1 1v-2 2l1 3 1-2v-1 4l1-1v-1 2c0 3 0 3 1 0v1l1 2v1a1 1 0 000 1v-2l1-1 1 4 1-1v2h2v2l-2 5v-1-4 1l-1 2c-1 1 0 1 0 0v-4l-1 1c-1 2-1 2 0 0l-1-2-2-2v-1h-1l-1-2-1-1-1-1v-2h-1l-1-2-1-1-1-1-1-2-1-2v-9l2-3-6 10v2c0 2 0 1 1-1l1-2v1l-1 5 1-1v-3 1l1 6v-1-3c1-1 1-1 1 2s0 5 1 4v-1-2l1 6v1l1-1v-2-1l1 1v2l1 3v2l1-3v-1 1l1 2v1-1c1-2 1-1 1 1v2h1v-1 2l1 3v-2-2l1 1 1 5v-1c0-3 1-2 1 1v1h1l1 1 2-3zm3-9l-2-1v-1-1l1-2v3a2 2 0 001-1l1 1-1 3v-1zm-4-3l1-1v-1 1l-1 1zm5-1l-1-1v-1l1 1v1zm-6-1v-1h1c0 2-1 3-1 1zm-2-1l1-1v-1 1c0 2 0 2-1 1zm-1-1l2-1-2 1c0 1 0 1 0 0zm-8-14l1-3v3c-1 1-1 2-1 0zm43 32l-1-2v1c0 2 1 2 1 1zm17 0h-1 1zm-15 0l-1-3c-1-1-2 0-1 1v2h2zm-11-1h-1-1 2zm23 0l-1-1h-1c0 1 1 2 2 1zm3 0v-2l-2-1v2l1 1h1zm-40 0l1-3v-2l-1 3-1 2h1zm19-4l7-9h-2l-7 9-3 4h1l4-4zm12 3h-1l1 1v-1zm-5-2l-2-1v1l1 2v1l1-1v-2zm22 2h-1-1 2zm-13 0v-2l-1 1c0 1 0 2 1 1zm-33-1l1-7v1l-1 6zm28 0v-2l-1-1h-1l1 2v1h1zm19 0v-1c0-2 0-2-1-1v1l1 1zm-21 0v-1l-1-2-1 2 2 1zm-23-2v-9c-1-1-1 0-1 2l-1 8 1 1 1-2zm36 0l1-1h-1l-1 1v1l1-1zm-7 0v-1l-1 1h1zm-28-2v-8-2l-1-1a214 214 0 001 11zm-44-2v-8c0-4 1-6 2-7l3-5-2 2-1 1 3-4 3-6 2-4 3-6 2-3c1 0 1 0 0 0l-1-1-6 3-4 2h-6l-1-1-2 2v1a9 9 0 002 0h2l8-1 1-1 1 1-2 2v-1l1-1-1 1-2 1h-1l1 1h-7l-3 2-2 3v2l2-1 7-3 2-1h-3c-3 0-4 0-6 2-1 1-1 1 0 0 1-2 3-2 5-2a143 143 0 017 0l-9 3-5 5v1l2-1c1-2 5-4 7-4h-1l-6 4v2l1-1c1-1 6-5 8-5l2-1 1-1-1 1-3 3-6 8c-2 3-3 7-2 7l2-3c0-3 2-6 4-8l3-3-1 1-1 2c0 1 0 0 0 0l-2 4-1 4 1-1v-1 2l-2 3-1 3 1 5 1 3v2l1-1v-3zm10-36l1-1v1h-1zm1-2h0c-1 0-1 0 0 0zm35 39v-5-2h-1v9l1-2zm42 1v-2h1c0 2 0 2 1 1v-2l1-4v-4l1 1v2h1l2 1h2l-1-1-1-2c-1-2 0-2 1-1l1 2v-1c0-2 0-2 1 0l1 1-1-1 1-1v1h1v-2c-6-2-8-2-10-1l-1 1-1 1-1 2-1 1h1c1-1 1 0 1 1l1 2 1 1h-1l-1-1c-1 1-4 0-3-1s-1 0-1 0c-1-1-1-1 0 0l1 1h-1v2l1 2 1 1v-1-2a41 41 0 002 4v-1zm-17 0v-1l-1-1h-1c-1 1 0 2 1 2h1zm-24-1l1-2v-3-1c-1 0-1 0 0 0 1-1 0-2-1-2v8zm2-1l1-5-2 3v3c0 1 0 1 0 0l1-1zm43-1l1-1h-1c0-1 0-1 0 0l-1 2 1-1zm-40-2v-3l-1 2-1 2c0 2 0 2 1 1l1-2zm75-1v-2l-4-3v2l-1 1 1 1c2 0 3 1 3 2l1-1zm-2-2h0zm-71 0v-2l-1 3v2l1-3zm61 1v-4l-5-1-2 1v2h1v-1 2l2-2 1-1v1c-1 2 0 3 2 3h1zm-59-2c0-1-1-1-1 1v-1zm55 1v0zm-61 0h-1 1zm2 0v-2l-1 1 1 1zm50 0v-1 1c0 1 0 0 0 0zm16-1h-1c-1 0-1 0 0 0h1zm-72 0v-2-1h-1v2c0 1 0 2 1 1zm58 0s0-1 0 0a1 1 0 00-1 0h1zm-2 0v-2l-1 1 1 1zm4 0v-1l-1 1h1zm-58-1h-1v1l1-1zm59 0v0zm-3-1h-1l1 1v-1zm2 0h-1l1 1v-1zm-66-1v-4 2l-1-1h-1l1 4 1-1zm62 0h-1 1zm-58-2v0zm-46 0l2-4 1-4-1 1-3 7h1zm37-2l-1-1v1l1 2v-2zm2 1l-1-2v3l1-1zm8 0h-1 1zm-12-1l-1-1v1h1zm11-2v-3l-1 3v2l1-2zm-2-1c1-3 1-3-3-3l-4 1h-2c-3 1-2 2 2 3 6 2 6 2 7-1zm-11 1l-1-1v1h1zm17-3l-1-1-1-2-1 1v1s0 1 0 0h1s1 0 0 0l1 2 1-1zm-35-5l2-3 3-2 3-3 1-3 2-4v2l-1 2c0 1 1 1 1-1l2-2v-3h-3 1l1-1h-1l-2 1h-1l-2 2h-3l2 1h1-1l-2 1-2 1-1 1h2l1-1h1l3-1-3 2h-2l-2 2c-1 0-1 0 0 0l2-1 2-1h4l-2 1-8 6-2 6h1l3-6 5-4h2l-2 1-3 2a22 22 0 00-5 8v1l3-4zm9-13l-1-1 2-2 1-1-1 2-1 2zm28 17l-2-1v1l1 1c1 0 2 0 1-1zm-48-4l2-1-4 1-3 5 2-2 3-3zm29 4h-2l2 1v-1zm13-1v-1l-1 3 1-2zm-14-2h2l2 1h2l1-3a110 110 0 00-13-5v1l2 4 2 4 1 2v-2l1-2zm-1 1v-2l1 1-1 1zm-1-2a6 6 0 010-1l-1-1v0c1-1 1-1 1 1v1zm-30 2h-1v1l1-1zm44 0l1 1v-1l-1-1-1 2 1-1zm8-1h2l-1-2-2-1v-1l1-1-1 1c0 1 0 0 0 0v-1h2l2-1h1v2s0 1 0 0l-1 1 1 1 1 1v-2-2l-1-2-2-1h-2a35 35 0 00-8-4l-3-1v1l2 2 3 3 1 1h1c-1 1-2 0-2-1l-1-1h-4l-3 2-1-1-1-1c-1 0-1 0 0 0l1-1h1v-2l-1 1c0 1 0 1 0 0l-1-1-1 1h-1c-1 2-1 1-1-1 1-2 2-2 5-2 2 0 3 0 1-2l-3-1-3-1-2 1-2 3-1 3h1v1l6 3 11 4h1l2 1c0-1 0-1 0 0l1-1h1v1l-1 1 1 1 1-1zm-6-4v-1l2 1h-2zm-3 0v-2l2 1-1 1h-1zm-3-1l2-2v2h-2zm7-3h0zm-16-2s0-1 0 0h-1l-1-1c-1 0 0 0 0 0l2-3v1l-1 1 1-1h1l1 1-1 2-1 1v-1zm1-2l-1-1v2l1-1zm2-2h1-1zm13 14v-1l-2 1h2zm-30-9v-1l-5 5 2-1 3-3zm23 1l1-2c0-1-1-2-2-1v1h1l-1 1-2 1h3zm-12-4l2-3 1-2-4 5c0 2 0 1 1 0zm-21-1l1-1h-2l-3-2-3-1h-1l-2 1v1l2 1h4l4 1zm4-4c3-2 4-2 6-1h1v-1l-3-1-5 1-3 2-6-2h-1l4 2h6c2-1 2-1 0 0l-1 1 2-1zm34 1v-1h-1v1h1zm-23-2l-2 1h1l1-1zm11 0h-1l-2-1-1 1h4zm6-1l3-1h-2l-3 1v1l2-1zm-16 0l2-1v1h1v-1-1-5l1-2h-1l-1 6-2 2c-1 0-1 0 0 0v-1l-1 2v1l1-1zm6 0h-1c-1 0 0 0 0 0h1zm5-1v-7l-1 1-1 2-1 2h2l-1 2h-2c-1 0-1 0 0 0l2 1 2-1zm2 0v-1 1zm-28 0v-1h-1l-2-1-2-1v2c1 1 3 2 5 1zm13-3v-1l-2-1-2-1-5 2h2c3 0 4 0 6 2l1 1v-2zm20 0h-1l-2 1-1 1 1-1 3-1zm-2 0h-2 2zm-6-5v-1 1c0 1 0 1 0 0zm261 75v-1 1zm33 0l2-1v-8-4l1-3v-1 4c-1 4 0 8 1 8l1-1-1-6 1-7v13l2-5v-12c1-2 1-1 0 0v7a25 25 0 010 11l1-1 1-2v-8-6l1-5 1-2 2-2v1l1 10 1 6v2l1-5-1-5-1-5v-6-1 3l1 5 2 7 1 2-1 1v1l-4 7-3 2-3 1-1 2c-2 2-3 3-5 3h-1zm14-11l-1-11-1-5v6l1 6v5l1-1zm-2-3a88 88 0 00-2-12v8l1 5c0 1 1 1 1-1zm-319 12l-2-2-1-2-3-1c-2 0-3-1-3-2-2-1-4-6-4-7l-1-1v-1l1-2 2-7v-5-3l1 1-1 6-1 5v6l1 4v-2a35 35 0 010-6 49 49 0 002-11l1 2 2 2 1 5v7 8l1 2h1l-1-2v-9-7h1v12l1 5 1-2v-5-5l-1-1c1 0 2 3 1 8a71 71 0 010 6c2 0 2-4 2-8l-1-3 1 1v2l1 4v8l1 1h1c-2 1-3 0-4-1zm-9-14l1-6v-7l-1 1-1 5v12c1 1 1 0 1-5zm2-3v-8 2l-1 12 1-6zm265 14h1-1zm2-1l1-1a3 3 0 001 0h1l-1 1h-2z"/><g fill="#a90f1e"><path d="M510 254c-10-9-10-10-10-11l1-1 2 1 12 13-1 3-4-5zm-348 3v-2a209 209 0 0113-14l2 1-3 4a346 346 0 01-12 11zm341-16l-1-1 2-3a70 70 0 0010-11l2 2c0 2-6 10-9 13h-4zm-333-1c-3-2-9-11-9-13l1-2 1 1a70 70 0 0012 13l-3 1h-2zm306-18l-1-2 3-2c4-2 9-8 9-9h2v4c-1 3-3 4-5 6l-2 2-2 1-3 1-1-1zm-278 0l-2-1c-3-1-6-5-8-9v-4h1c0 1 6 7 10 9l2 2c1 1-1 3-2 3h-1zm282-25l-6-2a72 72 0 01-13-8l-11-12 2-2 2 2 8 8 12 7 4 2c2 2 3 2 6 2 2 1 1 0 1 3h-5zm-288 0v-1a29 29 0 000-2h1c2-1 4-1 5-3l5-2 12-7 8-8 2-2 2 2c0 2-10 12-11 12l-2 1-12 7a75 75 0 01-10 3z"/><path d="M481 194l-4-4c-2-2-5-7-7-14l-3-14v-4h1l1 2 1 4a138 138 0 011 4l10 19c2 2 3 4 5 4v3h-5zm5-1l-1-1a14 14 0 01-5-5h-1l-4-9c-5-10-5-11-6-16l-1-4v6l4 11a63 63 0 005 11l3 6c3 1 5 2 6 1zm-295 0v-2l5-5a162 162 0 0011-23l1-4 1-2h1v4l-3 15c-3 8-6 13-9 16-2 1-5 2-7 1zm5-2l3-3 1-2 1-1a81 81 0 008-22v-6l-1 4c-1 5-1 6-6 16l-4 9h-1v1l-5 4-1 1c1 1 2 0 5-1zm273-35v-1l2-1 8-3 6-3h1v-1-2l-3-3-1-2 4 5c1 2 1 2 1 0l-3-4-1-1 1-1 1 1 3 5 1 1v1c1 2 1 2-1 2l-3 1-2 1-4 2a67 67 0 01-9 4l-1-1zm-264-1a74 74 0 01-11-5l-2-1-3-1c-2 0-1 0-1-2v-1l1-1 3-5 1-1 1 1-1 1-3 4c0 2 0 1 1 0l4-5-1 2-3 3v2l1 1c0 1 0 0 0 0l6 3 8 3 2 1-1 2-2-1z"/></g></svg>