<svg xmlns="http://www.w3.org/2000/svg" color-interpolation="auto" height="496.063" stroke-miterlimit="10" width="531.496" fill="#000000" fill-opacity="1" stroke="#000000" stroke-width="1" stroke-linecap="square" stroke-linejoin="miter" stroke-opacity="1" stroke-dasharray="none" stroke-dashoffset="0" xmlns:v="https://vecta.io/nano"><style><![CDATA[.B{fill-rule:evenodd}.C{fill:#fec500}.D{stroke-miterlimit:4}.E{stroke-width:1.334}]]></style><g stroke="none"><path d="M-4737.384 4138.85h0"/><g class="B"><path d="M0 0h531.496v496.063H0z" class="C"/><path d="M0 17.717h513.78v460.63H0z" fill="#fff"/></g></g><g fill="#003271" stroke="#fff" stroke-width=".6" class="D B"><path d="M180.454 308.635s12.205 13.948 17.435 16.563 30.5 16.563 30.5 16.563l-.872 20.05s-14.82-3.487-31.383-13.076-31.383-25.28-31.383-25.28l17.435.872-1.744-15.692zm101.124 52.305s20.05-4.36 34-14.82 27.896-22.666 27.896-22.666l-16.563 1.743 1.743-16.563s-13.076 13.076-21.794 19.18-27.024 11.333-27.024 11.333l1.743 21.794z"/><path d="M210.965 319.096S233.63 331.3 252.8 330.43s43.588-11.333 43.588-11.333l.872 27.896s-27.024 9.59-43.588 9.59-42.716-9.59-42.716-9.59v-27.896z"/></g><path d="M211 346.828l16.376 14.702m69.574-14.538l-15.198 13.5" stroke="#fff" stroke-width=".6" fill="none" stroke-linecap="butt" class="D"/><path d="M216.688 328.597l-.283 15.56 4.526 1.697v-6.224l6.8.283-.283 7.355 4.526.85.283-16.407-3.96-.283-.566 5.092-6.506-.566v-6.223l-4.526-1.132zm64.214 19.518l-.283-17.822 12.164-3.677v3.96l-7.92 2.546v3.677l7.638-2.83-.283 4.243-7.355 1.697-.283 4.243 8.204-3.112.283 2.83-12.164 4.243zm-38.19-5.94s-.283-5.94 3.677-5.94 4.526 4.526 4.243 6.506-.85 5.375-3.677 5.658-3.96-1.98-4.243-6.223zm3.96 9.618c5.083-.134 7.638-3.395 7.638-9.9 0-6.223-4.526-9.052-7.92-9.052s-7.638 4.243-7.638 9.335 2.254 9.767 7.92 9.618zm18.954-15.276v4.243s5.94.283 5.94-2.546-5.092-1.415-5.94-1.697zm-3.96 15.276l-.566-17.54 6.8-.566c3.1-.258 7.638 1.13 7.355 3.96s-.605 5.342-5.092 5.94l-4.243.566-.283 7.355-3.96.283z" stroke="none" class="B C"/><g stroke="#fec500" class="B C"><path d="M250.194 166.538l-.872 102.867c0 6.974 0 16.563-7.846 14.82s-17.435-1.744-31.383-11.333-13.948-11.333-13.948-11.333l13.076-4.36s-13.076-2.615-21.794-8.718-15.692-11.333-15.692-11.333-.872 13.076 3.487 22.666 13.076 18.307 13.076 18.307V266.79s12.205 11.333 16.563 13.948 21.794 9.59 28.768 13.948 20.922 16.563 20.922 16.563 12.205-13.948 20.922-17.435 20.05-8.718 25.28-12.205 19.18-16.563 19.18-16.563v14.82s9.59-11.333 12.205-19.18 3.487-21.794 3.487-21.794-6.974 5.23-13.076 7.846-23.537 9.59-23.537 9.59l13.948 3.487s-22.666 17.435-30.51 20.922-24.41 5.23-24.41-3.487l.872-110.713h-8.718z" class="E"/><path d="M251.066 134.283h6.102v26.153h-6.102z"/></g><g stroke="#fff" class="B C"><path d="M207.478 160.436s24.41-5.23 47.075-5.23 46.203 5.23 46.203 5.23v9.59s-31.383 4.36-49.7 4.36-44.46-5.23-44.46-5.23l.872-8.717z" class="E"/><path d="M263.27 156.077c0 5.778-4.098 10.46-9.154 10.46s-9.154-4.684-9.154-10.46 4.098-10.46 9.154-10.46 9.154 4.684 9.154 10.46zm4.36-.436c0 7.944-6.245 14.384-13.948 14.384s-13.948-6.44-13.948-14.384 6.245-14.384 13.948-14.384 13.948 6.44 13.948 14.384z" stroke-width="1.25"/></g><path d="M254.965 59.252l7.58 18.55 20.3 1.86-15.657 12.8 4.47 19.497-17.258-10.64-17.537 10.2 5-19.375-15.308-13.2L246.9 77.6zM344.778 81.2l-2.672 19.86 16.672 11.728-19.953 3.294-5.842 19.13-9.66-17.825-20.283.095 13.983-14.3L310.33 84.1l18.3 8.98zm66.124 60.108l-11.014 16.74 9.944 17.794-19.4-5.677-13.555 14.7-.982-20.25-18.32-8.703 18.803-6.838 2.23-20.1 12.602 16.024zm31.445 87.79L424.926 239l.766 20.37-14.705-13.882-18.76 6.938 8.333-18.482-12.36-16.082 19.856 2.46 11.122-16.877 3.938 20.002zm-9.234 91.285l-20.025.755-8.712 18.43-6.65-19.098-19.847-2.493 15.916-12.558-3.554-19.97 16.486 11.337 17.65-9.85-5.727 19.565zM164.895 80.995l14.964 13.33 19.05-7.254-8.437 18.38L203.057 121l-20.178-1.97-11.272 16.863-4.034-19.597-19.55-5.126 17.685-10.14zm137.157 301.852l.287 20.037 18.22 9.14-19.25 6.2-2.956 19.783-12.183-16.205-20.047 3.086 11.72-16.216-9.434-17.876 19.426 6.183zM128.627 131.165l1.65 19.97 18.8 7.878-18.78 7.498-1.6 19.938-13.26-15.337-19.8 4.445 10.587-16.977-10.63-17.2 19.802 4.845zM87.75 203.493l10.98 16.764L119 218.21l-12.93 15.55 8.105 18.287-18.97-7.154-15.272 13.348 1.205-19.97-17.544-10.038 19.714-5.2zm-3.212 82.302l17.73 9.34 16.748-11.62-3.77 19.868L131.2 315.45l-20.06 2.938-6.888 19.078-8.626-18.052-20.2-.276 14.728-14.095zm65.306 57.85l5.436 19.288 19.96 4.14-17.003 10.947 2.237 19.877-15.944-12.522-18.577 8.143 7.15-18.687-13.718-14.844 20.363.973zM236.6 391.3l-9.23 17.787 11.724 16.675-19.9-3.648-11.967 16.028-3.062-20.04-19.12-6.77 17.998-8.738.15-20.212 14.186 14.64zm121.865-46.757l10.126 17.293 20.358-1.028-13.7 14.883 7.18 18.67-18.588-8.095-15.92 12.567 2.203-19.886-17.02-10.903 19.95-4.195z" stroke="none" class="B C"/></svg>