<svg xmlns="http://www.w3.org/2000/svg" width="660" height="440" viewBox="-197.479 -321.02 660 440" overflow="visible" xmlns:v="https://vecta.io/nano"><style><![CDATA[.B{fill:#fff}.C{fill:#6e3007}.D{fill:#bf0a30}.E{fill:#ffc838}.F{fill:#002868}.G{stroke:#000}.H{fill:#ffb30f}.I{stroke-width:.905}.J{stroke-width:.866}.K{fill-rule:evenodd}]]></style><path d="M-197.48 118.98h660v-440h-660v440z" class="F"/><path d="M132.522 63.85c91.057 0 164.873-73.818 164.873-164.868 0-91.056-73.816-164.874-164.873-164.874S-32.353-192.073-32.353-101.017c0 91.05 73.818 164.868 164.875 164.868z" fill="none" stroke="#ffb30f" stroke-width="8.1"/><path d="M107.893 17.993l5.437 1.692-6.372 25.38-4.95-1.242 5.885-25.83m8.552 8.677c.56-4.452 4.27-6.984 8.546-6.456 4.27.534 7.233 3.924 6.678 8.364-.294 2.382-1.854 4.488-4.128 5.286 2.688 1.428 3.744 4.146 3.365 7.146-.588 4.68-4.985 7.104-9.36 6.552-4.367-.552-8.033-3.984-7.445-8.67.38-3 2.07-5.37 5.033-6.084-2.004-1.332-2.986-3.774-2.7-6.15l.001.012zm2.827 12.318c-.238 1.896.7 4.1 2.8 4.38 2.094.258 3.563-1.65 3.798-3.552.246-1.92-.702-4.146-2.796-4.404-2.105-.27-3.57 1.638-3.812 3.576zm1.8-11.748c-.217 1.728.646 3.798 2.537 4.032s3.24-1.542 3.457-3.282c.217-1.674-.644-3.75-2.54-3.984s-3.243 1.548-3.455 3.234m15.57 19.9l7.135-9.048-.07-.072c-.588.246-1.32.4-2.047.4-4.795 0-7.78-4.17-7.78-8.682 0-5.418 3.857-9.27 9.24-9.27 5.172 0 9.168 3.642 9.168 8.928 0 3.114-1.494 6.2-3.198 8.742l-6.66 8.814-5.787.198zm2.376-17.628c0 2.358 1.562 4.902 4.136 4.902 2.566 0 4.164-2.532 4.164-4.902 0-2.352-1.598-4.884-4.164-4.884-2.577 0-4.136 2.532-4.136 4.884m29.5-8.06l-5.383 7.602.072.072c.588-.234 1.318-.354 2.046-.354 4.788 0 7.782 4.176 7.782 8.688 0 5.376-3.858 9.234-9.24 9.234-5.172 0-9.342-3.648-9.168-8.886.14-3.984 2.454-10.158 4.77-13.44l4.627-5.4 4.493 2.484zm-.623 16.218c0-2.37-1.562-4.902-4.136-4.902-2.565 0-4.164 2.532-4.164 4.902 0 2.322 1.6 4.86 4.164 4.86 2.574 0 4.136-2.538 4.136-4.86" class="B"/><path d="M250.356-109.62c0-.2.115-.318.223-.433l-.223-3.943c0-.768-1.535-1.547-.547-1.98-.77-2.202-1-5.936-1.867-8.666-5.6-16.36-8.894-33.6-16.137-49.18-3.405-8.125-9.65-14.83-13.828-22.62l-.436.444c-3.95-4.945-6.916-11.3-11.193-16.024-3.295-3.29-5.6-6.368-9.33-8.666-1.867-1.536-3.732-3.192-5.486-4.5l-.22.11-.66-.558c-1.974-.984-4.056-1.974-5.486-2.953-1.53-1.758-4.6-1.32-6.475-3.403-.215.102-.55.768-.877.2l.215-.2c-.215 0-.436.102-.547-.11l.217-.222c-.217 0-.547-.114-.66.222l-.324-.443-.214.222-.66-.66c-.77.216-1.975-1.098-2.743-.33-.55-1-1.755-1.212-2.74-1.422-.993.654-1.98-1.212-2.75-.336-1.313-.32-2.628-1.2-3.948-.876-1.1-.433-1.206 1.758-2.197.443-.984.547-2.305.433-2.743 1.536l-.22-.114-2.186 2.088c.102.547-.114 1.315-.55 1-1.098 2.3.1 5.594.55 7.346 0 2.088 1.307 2.856 1.97 4.944 1.754 6.146 4.502 12.405 1.977 18.328-.438.768.22 1.758-.764 1.98-.22-.336-.99-.557-.77-1.104-7.465-4.934-16.023-7.454-24.695-9.32-1.756-.222-3.186-.45-4.722 0-1.098-.882-2.526-.114-3.62.2-6.367-.2-13.395 2.964-19.76 6.253.114-.876.55-2.077 1.428-2.964 1-7.016 5.5-14.05 2.963-21.84-.437-4.28-5.268-5.702-8.12-7.357-1.86-.433-3.95-1.536-5.93-.547-5.702.882-11.41 4.616-16.24 8.672-20.53 13.06-36.12 33.478-48.195 53.678-4.166 12.3-11.084 23.375-14.375 35.996-1.32 5.49-3.077 11.193-3.186 16.587.33.876 1.206.876.768 1.74h.984c2.305-3.175 2.743-7.232 4.17-10.857.438.654 1.536.654 1.974 0 3.95-4.28 5.93-8.894 8.12-13.936l.328.32c.66.45 1.43.113 1.98-.32 1.86-3.624 3.62-7.357 5.594-10.76.008.18-.014.356-.02.533l1.23-1.45 1.1-.136 4.844-3.228 2.648-1.324h3.53l3.31-1.545 7.942-3.09 7.5-6.177 3.97-2.867 3.97-2.206 3.53-1.764 4.633-1.985 3.31-1.765 2.427.883 2.867.442 4.634 1.103 2.647-.66 7.06 6.176 3.972 3.09 2.867 2.206 5.515 4.19 4.633 1.765 6.177.882h10.588l8.162-1.764 4.632-2.427 2.426-3.75.66-3.31 2.868 1.324 4.413-.66 4.632-.66h3.528l4.412-1.323 3.528-.442 2.868.442 3.75 2.427 3.528 1.764 4.19 3.31 2.206 2.648 5.072 2.206 3.53.66 2.868 1.324 9.365 5.976c.002-.053-.01-.104.004-.158 1.647.768 2.854 1.98 4.168 3.3l-.215.216c2.634 3.732 5.817 5.485 8.344 9.1 1.535 0 1.535 1.2 2.303 2.52.764 4.94 2.3 9.55 4.606 13.838-.103.98.22 2.3 1 3.18l-.223.222c1.207 2.413 1.32 4.82 2.965 6.914 4.5-.443 1.205 5.48 2.74 7.455.33 2.526 2.963 1.644 4.17 1.644-.21-1.1 2.094-3.29.774-4.724z"/><g class="C"><path d="M113.007-174.068c.295 1.064-.062 1.355 1.114 2.447l1.127.865c1.32.768 1.76 2.555 4.638 3.38 2.6 3.568 10.288 5.2 16.87 4.524l-.547-.546c-.217-2.413.984-4.057 1.1-6.368.222-.113.33-.433.66-.324.77-1.434 1.867-2.202 2.527-3.625 1.974-1.098 2.082-2.533 3.62-3.955 1.755.222 3.294 2.526 4.06 3.955 1.43 3.294 2.1 5.815 2.635 9.104.77-.654 1.758-1 2.526-1.758l.216.228v-.66c1.428-1 2.633-2.196 3.403-3.732.985-4.28.108-9.434-3.62-13.058 2.3-3.397 5.7-6.032 8.552-9.002 5.822-10.533 2.42-22.283-1.2-32.594-.436-2.424.324-5.047 2.3-6.373 1.428.557 3.954 0 5.376.438v.12c2.962-.12 5.383 1.855 8.124 2.846 4.17 1.536 8.566 3.402 12.62 5.713 1.98 2.298 5.053 3.72 6.698 5.923 6.8 4.615 12.297 12.07 17.78 18.117 1.098 1.644 1.644 3.722 3.18 4.934 4.497 8.78 11.194 16.023 13.828 25.57.22 3.403 3.295 5.6 3.5 9 3.073 6.692 4.392 15.802 6.6 22.937 2.085 6.6 5.6 14.385 5.268 21.73.77 2.42-.55 4.723.438 7.358.214.762.984 1.753 1.757 1.542 1.975-2.202 1.205-6.368 1.42-9.446h.222l-.222-.222c-.768.1-.768 1.53-1.754 1.212-.443-.547.33-1.093.547-1.645-.547-3.738-.33-7.135-1.757-10.646-7.8-23.706-12.184-49.18-29.087-68.93l-.324.433c-6.03-8.12-10.532-17.1-18.44-23.706-5.702-4.388-11.522-8.342-17.338-11.1-6.473-2.2-12.62-6.692-20.192-4.933-2.2 1.2-4.617 2.743-4.726 5.48 1.32 8.9 6.806 16.804 5.93 25.697.33 1.855-2.198 4.166-1.757 6.578-2.412.552-2.635 3.408-4.17 4.056l.223.222c-1.206 1.434-1.755 1.212-2.635 2.635-.877.108-1.098 1.212-2.088 1.098.33 1.212-1.098.654-1.206 1.434-2.197 2.5-5.7 2.413-8.672 3.403-2.743.763-4.063-.893-6.368.097.437.443 1 .882 1 1.434-1.206 2.2-4.17 1.422-5.93 2.2 1.43.768 2.305 1.98 3.404 3.187l-1.975 1.746.768.768c0 .78 1.644 1.656.222 2.424-1.65-.336-2.963-.336-4.392 0 .1 1.53 1.207 3.62 0 5.042-6.475-.222-11.084-5.156-16.023-8.666-.166.325-.25.7-.398 1.064l.568.336m-4.652-54.946c2.964 3.5.877 7.904 1.316 11.847-1.536 6.703-4.502 12.85-6.692 19.216-.33.978-1.758 1.2-2.748 1.422 2.857-8.45 8.124-18.214 4.393-26.886-1.207-1.098-1.645-2.52-2.857-3.625l-.1.228c-1.975-2.202-5.162-2.97-8.114-2.538-5.16 1.536-9.883 2.857-13.6 7.25-1 .552-1.867 1.098-2.964 1l-1-1.104c6.914-4.825 13.064-10.424 21.293-12.3 4.283.336 8.456 1.98 11.1 5.5m73.854 4.176c.436.768 1.428 1 2.196 1.212 2.964 1.104 5.6 3.624 8.236 5.376l1.2 1.536c-.433.324-.656 1.098-1.313.768-2.306-2.635-4.503-3.95-7.138-5.5-.108.1-.214.223-.436.223l-.77-.877-.214.223-.552-.558-.215.223-.984-.877-.223.222c-2.412-2.2-6.692-3.624-9.878-4.5-1.754-.768-4.717-1.644-7.13-2.413v-.336c6.583-.763 11.414 3.74 17.23 5.27m-2.208 1.978c.66.877 1.43 1.53 2.635 1.645 3.627 2.088 6.802 3.192 9.223 7.02 0 .768-.66 1.315-1.212 1.867-1.536 0-1.754-1.753-3.073-2.197-.984-.433-2.084-1.758-2.96-1.2l.1.2.438-.433c-2.307-1.758-3.842-2.75-6.477-3.732-4.722-2.96-10.87-4.057-15.7-7.682-.437-.547-.77-1.315-.33-1.98 1.212-.768 2.197 1.212 3.517 1.326 4.834 1.212 9.33 3.176 13.828 5.156m-82.2-5.26c.1.547-.876.547-1.098.547l-6.367 4.177c-2.197 2.2-5.815 5.594-8.672 5.258-.215.222-.33.557-.654.443-1.098-.654-.66-2.635-2.1-2.52 4.063-2.202 7.796-7.25 12.95-7.357 1.76-1.422 4.064-.654 5.93-.547m4.94 5.923c-1.536 2.2-3.18 4.393-5.27 5.923l-4.392 3.3c-1.754.768-3.3 2.413-5.156 2.635-.323-1.32-.108-1.98-.108-3.403 3.84-3.408 8.563-6.476 12.404-9.656.877-.1 1.428-.666 1.754-1.434-1.2-1.087-1.97.882-3.3 1v.655c-2.084.113-4.057 3.624-6.584 4.28-2.088 2.202-4.502 4.07-7.244 4.393-.552-.87-1.758-1.633-1-2.737 5.27-1.867 8.342-7.135 13.4-9.33.66-.2 1.542.1 1.98-.768 1.86 1.32 3.834 2.857 3.504 5.156m69.593 1.1l.438.443.108-.222c.328.54 1.098.762 1.867.654l-.217.547 1.316.222 2.412 1.206 1.754 1 .223-.444c-.1 1 1.753.223 1.974 1.536.66 0 1.535 1.422 2.527 1.422l-.1.222 1.754 1.212.328-.67c0 .227.1.336.223.45l.2-.223-.762.552c1.098.654 2.087 1.422 2.74 2.2-.108.768-.984 1.2-1.206 1.98l-1.976-1.547.217-.2c-.108-.222-.438-.222-.547-.222-.547.433.108 0 0-.2-1.867.2-1.975-.768-3.625-1.536l-.217.2c-5.16-3.067-10-6.032-15.807-8.666l-2.525-2.857c-.547.768-.325 1.434.22 1.98 2.1 2.743 4.94 3.3 7.136 4.598 0 .768.984.444 1.313 1l.223-.2-.223.2c.223.768 1.213.557 1.43 1.212.55.222 2.412 1 2.525 1.536.547-.113.77.223 1.207.433l.215-.2.547.54.222-.2c.438.547 1.315 1.422 2.2 1.422l.22-.222c.878 1.212 1.315 1.326 2.525 2.412l.547-.2c-.106 0-.214.108-.328.2.882 1.32 2.963 1.32 2.963 2.964-1 2.305-3.182 1.104-4.6 1.315-3.072-4.603-9.33-6.026-13.6-9.98l-.223.113c-1.098-.768-2.52-2.2-3.288-3.517-.216 2.96 2.74 4.28 4.717 6.146l.438-.443c.66 1 1.756 2.202 2.962 2.635.33-.097 1.206.547 1.758.336.66 1 2.85 2.3 3.732 3.732 1.098 1.087 2.412 2.732 4.17 2.846 0 .768-.113 1.536-.66 2.088-.547-.433-1.098-1.644-2.305-1.53-.328-1-1.205-.882-1.65-1.536-1.206-1.53-2.413-2.088-3.95-2.964-.547.433-1.428.108-1.535-.66-2.85-1.206-4.825-2.63-6.362-5.263l-.328.32c.438 1.212.883 2.748 1.977 3.402.214.876-.547 1.434-.77 1.98-.656-1.212-1.207-3.18-1.207-4.615-1.536-4.934-2.197-9.645-3.95-14.146l.216-.666c3.403 2.964 6.475 4.387 10.43 5.936m-67.95 4.133c-.216-.222-.216-.768-.77-.557.114 1.867-.547 3.3-2.197 4.28l-8.558 8.124h-.55c-.324-1.757.114-3.846-1.422-5.155 4.825-2.857 9.765-6.692 12.842-11.415.877 1.2.985 3.397.655 4.7m-28.315-2.74c-2.3 4.723-6.92 7.898-10.214 12.302-2.305 2.185-5.486 5.8-9.1 5.924-.547-.882-1.86-1.326-.768-2.202 5.6-6.356 12.2-12.837 18.994-17.56.216.876 1.098.557 1.098 1.536m3.17 1.428c-3.073 6.26-9.33 10.328-13.172 16.347-1.098 1-3.296.557-4.393.45 0 .32-.768.54-.215.984-.222.102-.438.547-.77.324-.762-.324-.222-.768-.437-1.2 2.305-1.433 5.047-3.078 6.367-5.712 3.727-4.387 8.78-7.8 10.863-13.06-.002 1 1.204 1 1.756 1.867m2.635 3.296c-2.964 3.943-7.682 7.243-10.316 11.858-1 .762-1.867 2.732-3.403 1.422l-.768.222c3.5-5.5 9.218-10.328 12.842-15.807.768.87 2.63 1.202 1.645 2.305m130.95 17.56l-.437.444c-1.867-2.413-4.062-4.723-6.474-6.914l-2.42-2.97-.1.222c-.432-1.644-2.52-2.197-3.397-3.955l-.223.222c-1.1-1.753-2.96-3.732-4.938-4.6l-.216.222c-.77-.336.1-.882.216-1.422 7.028 5.48 12.627 11.955 18.002 18.76m-118.11-4.94c-.223-.654-.552-1.974-.438-2.743 3.18-2.635 4.825-3.942 7.68-6.913l.66-.558-.223-.2.223.2c.877-.54 1.43-1.308 1.754-2.407.66 5.936-5.156 10.1-9.656 12.62m-11.1-8.886c-2.2 2.964-4.496 4.5-6.584 7.135-1.536.762-2.196 4.165-4.5 2.953l-.985-.2c3.404-4.6 8.12-8.887 11.63-13.4 1.098.876.44 2.634.44 3.5"/><path d="M86.82-213.013c-.33 0-.66.223-.877-.222l.654-.768c.114.325.223.66.223 1m108.667-.01c0 1 1 1.2 1.535 1.97l.22-.2c.212 1 1.64 1.867 2.3 2.964l.878.66-.216.222c2.52 1.53 5.156 6.032 6.915 7.454 1.207 1.212 3.512 2.857 4.72 4.502l.22-.108c.223.984 1.867 1.098 1 2.298-.55.768-1.098.1-1.65-.2l-.328-.337c-.1.223-.44.223-.656.223-.33-1.753-2.197-.444-2.305-2.413-1.98-1.32-3.295-3.84-5.6-4.723-.878-2.52-4.055-3.62-5.486-5.713l-.216.114v-.324c-1.867-1.098-3.517-4.502-5.708-4.6.77-.337 1.535-1.422 1.754-2.3l2.634.54M86.16-211.6c.222 1.76-.877 3.3-1.975 4.28-1.974 2.424-3.95 4.183-5.708 6.812l-1.206.324c-.33-.547-.113-1.422-.222-2.2 2.413-3.397 7.244-5.6 8.124-9.878.548-.114.656.433.986.654m4.17 1.988c0 .222.113.33.223.33l.2-.108c-.32.433.113 1-.2 1.53-1.098-.097-.44-.984-.66-1.753l.437.001m103.17 1.32c-.437.324.547 1.314 1.1 1.854l.215-.2c1.54 1 1.975 3.738 4.17 3.738.878 1.53 2.305 2.5 3.405 3.943l.108-.223c0 .223.106.336.214.444h.66c.437.876 1.537 2.3 2.305 2.97 1.1 1.74 2.305 3.5 3.955 4.7-.223.552-2.527-2.635-1.98.222.216.32.984.54.764 1.2-1.856-.66-2.184-3.067-3.942-3.835-.55.32-.22.978 0 .978-4.28-5.15-9.77-8.78-13.833-13.383-.655-1-1.535-1.32-2.52-1.434.437-.876 1.536-1.422 2.413-2.077 1.528-1.212 1.754 2.077 2.963 1.098m-104.702-.767c.77 1.308-1.757 1.644-.877 2.73-1 2.857-3.294 5.924-6.26 7.135-.762-.768-.762-2.2-.2-2.96h.2c1.65-2.533 4.17-4.177 5.27-6.907h1.867m43.03 1.424c5.6.763 10.538 2.3 16.023 3.943 2.527 1.753 3.517 1.212 6.146 2.965l.108-.223c.877 1.758 4.387 1.536 4.387 4.502-2.85 4.28-6.253 7.135-10.316 10.106-4.17.768-8.45 3.836-12.612.433-.77-.547-2.305-.222-2.305-1.422.547-.443 1.42-.665 1.975-1.326.547-1.194-1.975-1.854-.223-2.845.442-.1 1-.443 1.207-.984-1.315-.882-2.413-.113-3.95-.336-6.916.112-13.615 1.097-19.43-2.636-2.964-.768-5.707-2.413-9.1-1.753 1.092-2.526 3.073-4.502 5.594-5.5 5.053-1.97 10.652-4.603 15.6-4.38l.438-.33.1.1c.876 0 2.856-.655 3.84-.1.763-.438 1.532-.438 2.527-.222m39.287 1.193c.107-.864.876 0 .984.114l.437.444.217-.223c.328 0 2.418 1.758 3.732 1.758l-.438.433c.547 1.974 5.376 2.857 3.403 5.377-1.206.768-3.518-1.74-4.17.558-.223-.768-.885-1.536-1.43-1.98.223 0 .33-.108.438-.222l-.438-.324.223-.222c-.223-.32-.66-.223-.992-.444-.328.336.33-.768-.55-.768l-.437-.433c-.102.114-.208.223-.208.433-1.1-.433-2.1-1.855-2.743-2.953-1.1 0-1-1.315-1.543-1.98.877-.763 2.306-.32 3.518.443m-80.57.77c-.768 3.18-2.526 6.805-5.377 8.228-1.428-3.517 3.404-4.94 3.727-8.018 0-1 1.65-1.645 1.65-.2m9.877 5.155c-1.206.438-.768 2.094-2.196 2.526-1.206-1-.547-2.526-1.536-3.5l2.526-1.98-.223-.2c1.098-.666 3.073-1.536 3.625-2.97-.768 1.98-1.758 3.95-2.196 6.145m66.736-3.955l-.768.336c0-.66 0-1.98.22-2.526.44.546.66 1.314.547 2.2m24.92 1.324c.437 1.194 1.974 2.52 2.742 3.397.223 0 .328-.1.443-.223l-.22.223c1 .882 1.205 2.088 2.525 2.526.764.762 2.52 1.644 3.18 3.175 1.202 0 .763 1.536 1.754 1.536l-.102.222c.547 1.753 2.85 1.753 3.07 3.62l.654.547-.208.222.54.547c-2.405.443-4.052-2.2-6.032-3.722l-.215.762c-4.616-3.732-8.235-9.224-13.832-12.177l-1-1.212c-.1.2.22.433.328.33 1.098 0 1.098-1.656 1.98-2.3 1.86.336 2.848 1.548 4.387 2.526M91.76-200.943l-3.84 5.173c.438-2.538 2.083-5.27 3.403-7.693.877.653.877 1.643.438 2.52m76.612-2.52c2.748 2.3 5.16 4.615 7.135 7.466.113.87-.107 1.65-.654 2.413-3.517-1.974-5.7-4.6-8.018-6.914-.547-.33-.547.324-.877.547.877.336 0 1 0 1.422h-.33c-.547-1.2.223-2.732.552-3.943.655-.77 1.314-1.105 2.2-1M55.205-199.73H55c-.44.222 0 .557.215.768h.33c-2.197 4.5-5.377 8.887-8.12 13.28-2.418 1.212-4.5 4.502-6.698 4.934-.66-.768-.437-2.077-.216-2.953 2.743-4.17 5.595-8.348 8.78-12.297 2.083-.763 3.62-3.62 5.047-5.486.438.32 1.43 1.098.876 1.754m38.52 6.48c-1.974-1.422 1-2.635 1-3.955l1.315-4.28c-.546 3.078.66 6.475-2.305 8.234m.543-7.25c-1 1.758-1 4.393-3.186 5.27-1.975-1.212.437-2.413.66-3.732 1.427-.2.875-3.5 2.526-1.536M67.17-200.5c-1.098-.444-1.098.768-2.1.324.553-.546 1.43-.767 2.1-.324m13.505 1.76c.33.336-.552-.557-.768-.768v-.876c.546.324.546 1.087.768 1.644m-20.747.2c-.66 3.955-4.94 6.368-6.146 9.992-1.98 1.98-3.073 5.06-6.152 5.924-.547-.547.437-1.087-.547-1.53 4.17-4.393 6.367-9.55 9.878-14.26-.223-.768.33-1.434 1-1.758.985 0 1.317.865 1.976 1.632m1.966 4.5c-.877 1.547-2.197 2.97-2.635 4.722-.768.114-.66 1.104-.768 1.434-.547 0-.547.654-.762.98-.878 1.434-1.43 3.625-3.404 3.5v.222h-.33c-.216-.876.437-2.196-.77-2.407 2.197-5.5 6.915-8.24 8.45-13.942.443-.444 1.32-1 1.758-.222.102 2.2-.768 3.96-1.536 5.7m9.437-4.497c-1.428 5.06-4.063 9.878-6.146 14.385-.33.552-1.206 1.206-1.758.443-.216-4.057 3.186-7.028 4.392-10.76 1.975-1.536-.114-4.7 2.52-5.5.332.445.115 1.55.992 1.423m3.732-.98c-.552 4.28-3.295 7.8-4.28 11.96-1.32 0-.223 1-.773 1.644-.656.768-.985 1.76-2.2 1.53.216-4.598 3.18-8.552 4.717-12.83l.222-2.202c.77.547 1.536-.102 2.305-.102m-7.683 3.067c-1.98 4.182-4.063 7.904-6.26 11.858l-1.867 1.645c-1.757-1.645-.215-2.63.222-4.6 1.645-2.3 2.743-4.5 3.95-6.914 1-.547.66-3.5 1.974-4.5 2.3-.978 2.414.558 1.98 2.52m125.68 6.368c2.084 2.413 4.17 4.182 5.93 6.914-.66.336-.992-.762-1.758-.984l-.438.443-.328-.443-.217.222c-1.098-1.872-2.525-2.75-4.17-4.17l-.215.222c-.22-.877-2.197-1.434-2.963-2.424l-.222.223c-.33-.223-.108-.984-.77-.763 0-.547-.66-.547-.77-.768-2.083-2.412-3.725-4.056-6.14-6.146l.433-1.422c4.502 2.2 7.36 6.248 11.637 9.1m-113.836-8.123c-.1 2.964-2.305 5.5-2.743 8.57-.768 1.855-1.535 4.057-3.517 4.712-1.093.552-.768-.882-1.422-1.422 1.206-4.17 3.95-7.8 4.502-12.194 1.315.665 2.743-1.53 3.18.335m4.717-.77c.222.557-.215.876-.547.768-.108-.547.217-.547.547-.768m-2.52 1.213c-.222.324-.768.433-.55 1 .66 1 1.206-.666 2.088-.443 1.536 1.308.655 2.964 0 4.387-3.073 2.412-2.42 6.7-6.26 8.456-.437-.984-.108-2.42.33-3.187.877-2.2 1.43-4.5 2.635-6.914.876-1.308.55-2.3 1.32-3.732l.438.443m91.65 5.258c-.106 1.308-1.426 1.867-2.305 2.407-1.428-2.407-3.5-3.955-5.16-5.485-.214 1.098-1.205.222-1.427 1.32 2.527 1.422 5.6 3.835 5.16 6.913-.215 0-.328.1-.436.223-2.1-1.656-3.625-3.522-5.5-5.377.77-1.867 1.65-3.3 2.526-5.27l.877-.444c2.307 1.867 3.73 4.07 6.256 5.713m-74.083-4.5c.438 2.185-2.305 2.407-3.18 3.72 1.645-.978.654-4.38 3.18-3.72m78.8.763h2.856c3.84 3.403 7.243 7.682 11.855 9.884 1.974 1.867 3.5 3.3 4.054 5.923-.323.223-.66.552-.984.768l-.108-.113c-.33.113-.437.546-.877.336.328-1.326-1.867-1.758-2.526-2.97l-.216.223-.33-.444-.215.222c-1.643-2.846-5.047-4.057-7.352-7.243l-.22.108c-.547-1.212-2.414-1.974-3.073-2.743l-3.182-2.97-.222.222c-.215-.433-.87-.32-.215-.763-.547-.113-.655-.66-.547-1.212.762 0 .66.552 1.314.763"/></g><path d="M121.946-192.26c4.17.763 8.233.21 12.3 0-.984.763-1.975 1.963-.656 2.953l.216.223c-.547 1-3.402 1.104-1.758 2.75.885.768 2.1.876 3.186 1.422-.437.33-1.207 1.098-.66 1.753-.106.67 1.53.67.438 1.212-1.975.547-4.28.547-6.145.768l-.547.547c1.42 1.422 2.742 1.974 4.056 3.62-.547.768-2.083.882-2.52 1.758.77.654 1.754.99 2.19 1.98l-4.388.222c-.768 1.74.547 3.175.438 4.933-5.816-.557-9.77-4.722-14.27-7.904 0-.33-.33-.54-.547-.767-.99-.444-1.43.66-1.758 1.104 0 .2 0 .547-.216.642-1.757-1.2-3.294-3.175-5.16-4.375-2.083-1.434-4.392-1.758-5.708-4.183-2.526-1.53-1.428-5.27-4.392-6.47.114-2.965 3.402-4.945 5.6-5.708.222.33.688-.28 1.098-.223 5.5-1.2 10.538 1.867 15.476 3.51l3.733.222" class="B"/><path d="M86.382-194.576c-.222.336-.55-.097-.768-.223-.33.768-.113 1.98.768 2.75-1.974 1.974-2.088 5.167-4.723 6.48-.984-.547-.767-1.76-.215-2.75 1.536-1.758 2.413-3.3 3.182-5.48 0-.222.767-1.098.767-1.764l1 .984m3.73 2.75c-.55.876-1.98 1.212-1.32 2.3h.33c-.768 1-2.304.768-3.294 1.656.33-2.088 2.526-3.955 1.974-5.935 1-.222 1.32-1 1.98-1.753.217.763.66 2.635.33 3.732" class="C"/><path d="M106.36-193.808l.217-.2-.217.2 2.19 1.547v.654c-2.083-1.098-3.84 1.98-5.594-.222-1.098-.547-2.748.33-3.517-.768 1.867-1.422 4.063-1.422 6.697-1.644 0 .222.102.336.216.443"/><path d="M176.828-193.25l-.107-.768 1.092.547-.985.222m-85.508 1.75c.215-.222.547-.443.438-.763l-.222-.222.223.222.108-.336c.432.547-.547 1.867-.547 1.098m96.046 8.116c1.974 1.434 5.6 3.192 5.708 6.157-2.526.324-3.516-2.3-5.376-3.187-3.404-4.393-8.236-6.48-11.857-10.424-.217 0-.547-.222-.77.222 3.955 5.048 9.992 7.8 13.504 12.4 1.098 1.536 3.073 1.758 4.063 3.402l.214-.222-.214.222c2.082 1.098 2.412 3.625 3.95 5.27-.77.433-2.857-1.433-4.28-2.202.33-1.867-2.197-1.97-2.964-3.3.1-.324.66-.223.547-.654-1.754 1.098-2.743-1.645-4.28-2.088-4.83-2.845-8.235-7.8-12.733-11.307v-.54l.22.097c.33-1.2 1.758-1.53 2.634-2.732 5.266 1.088 6.912 6.032 11.633 8.877m-92.533-7.455c-.216.1-.108.33-.108.54l-4.83.67 1-1.433c1.422 2.087 2.85-2.526 3.95.222m68.59.001l-.546.762c1.755.45 3.5 2.635 4.938 4.17.33 1.212 1.535.223 2.1.558 3.18 3.3 7.13 5.924 10.093 9.656-.547.2-.877.876-1.535.654-1.754-1.644-4.17-3.078-6.146-4.6-3.733-2.97-7.352-7.345-11.636-9.44.114-.54 1.644-1.644 2.198-2.52.22.2.22.547.544.77" class="C"/><path d="M97.688-184.913c-3.073-1.093-6.15-2.75-9.11-3.18 1.753-1.31 4.388-.655 6.253-1.53 1.427 1.2 2.856 2.743 2.856 4.712" class="H"/><g class="C"><path d="M171.9-188.863c4.832 4.28 8 9.217 13.496 12.614-1.643-.654-4.166-1.968-6.146-3.174l-.214.222c1.535 1.422 3.62 2.407 5.6 3.397-3.625.66-4.945-3.62-7.58-4.82-1.754-1.656-4.28-4.502-6.7-5.713.328.108.435-.223.547-.336 0-.2.113-.547-.1-.655.1-.222.437-.222.33-.547l-.33-.222c-.215-.558.222-1.098.985-1.2l.33.2-.217.224m-11.65.22c5.376 4.07 9.987 10.106 15.587 13.617-.77.876-1.867-.654-2.743-1.212l-4.502-3.942-7.135-5.5-.216.114c-.114-.325-.437-.66-.768-1l-.217.223c.104-1-1.205-.444-1.535-1.212.33-.2.878-1.104 1.535-1.104m23.71.554l.66.547c-.773.1-.882-.547-1.212-.768l.33.444.223-.223m-86.5 4.17c-2.85.443-5.046-.66-7.573-1.2.33-.557-.33-1.326-1-1.536-.547.547-.87 1.315-.984 2.077.66.44.877 1.104.438 1.645-.984-.32-.66-2.185-.762-2.953l-.66-.443c.438-1.536 2.413-.444 3.403-.325 2.52.546 5.16 2.737 7.13 2.737m74.858 9.655c-.33.552-1 .654-1.536.552-.876-.876-1.975-.876-2.854-2.088l-.1.113c-1.428-1.867-3.177-2.97-4.932-4.723-.77-.2-1-.98-1.867-1.315l-.1.102c-1.648-1.093-3.186-2.635-5.16-2.737l-.215.216c3.948 3.5 8.56 6.253 12.3 10.1-.223.876-1.1-.222-1.43.222-2.197-1.98-4.938-3.192-7.352-5.167l-.107.223c-.33-.325-.114-.768-.443-1 0 1-.655-.547-.763 0-1.206-1.098-2.635-2.413-2.635-4.166l2.635-2.75c5.262 3.95 10.094 7.8 14.596 12.404m-92.32-11.065l-.552.654c-1.092-.336.444-.336.223-.876.222-.001.222.108.33.222m3.18 4.596c-.216-.32-.768 0-.984.125-.77-1.104.768-2.424-.552-3.3l2.197-1.644c.552 1.752 0 3.618-.66 4.82m3.402-.98c-1.536.102-1.206-1.53-.984-2.964l.547-.876c.876 1.205-1.098 2.63.438 3.84"/><path d="M52.57-183.162c-.216.336-.655-.097-.984-.222l-.552 1c.223.666 1.206.336 1.536 1 0 1.98-1.315 4.28-1.754 5.923-1.206 1.212-1.536 4.177-2.526 5.935-.44 2.413-2.413 4.598-1.43 7.136-1.866 1.53-1.098-1.758-1.753-1.98.437-5.377 2.52-10.755 5.268-15.37.33-.768-.442-1.087-.768-1.645l-.55.444c.33.102.108.547.222.768-.437-.444-.437-1-.437-1.536.547-.222 1.315-.443 1.753-.443-.108-.877 1.43-1.867 1.758-2.953 1.204.54-.66 1.2.215 1.963m10.102-1.77l-.547 1.212.547-1.212m8.45.55v.438h-.324v-.66c.215.001.215.115.324.223m8.894 2.633c-.66 1.644-2.1 2.97-3.512 4.057.108-1.867 1.314-3.846.547-5.713 1.43-2.185 3.733-.2 2.965 1.656"/><path d="M75.736-182.717c.438 1.758-.66 3.403-1.43 4.94l.216.1c-.768 0-.108.877-.547 1l-1.867.433.66-7.135c.33.114 1.098-.32 1.314-.762.44.33 1.43.665 1.652 1.428m-19.21-.014l.985-.984-.324 1.098-.66-.114"/><path d="M66.403-183.593l.222-.11.547.32-.768-.2"/></g><path d="M99.225-182.94c.438.547 1.422.882.984 1.758-3.51.654-6.914 0-9.44-2.52 2.526.876 5.93.763 8.456.763" class="H"/><path d="M46.318-183.383c-.552.444.108 1 .108 1.434.437.222-.547-.444-.985-.666-.113-.433.44-.865.878-.768m24.8.768c-.438 1.992 0 3.414-.324 5.6-.33 1.656-1.65 2.97-2.42 4.5-.216-.2-.216-1.867-1.206-1.974.438-2.736 2.85-5.7.877-8.45.88.88 1.757.222 3.072.324m-12.397.665c.214 5.826-2.526 11.414-2.964 17.56-.55.443-1.098.557-1.757.557-1.206-.768-.216-2.088-.216-3.078-.444-1.315 0-2.413.437-3.836l.33.433c.547-1.98.44-4.6 1.645-6.48.66-1.855.876-4.052 1.315-5.8.33.325.66.877 1.212.655m4.168-.01c0 1.2-.223 2.413.216 3.5-1.645 2.97-1.867 6.48-1.43 10.328-.323.768-.876 1.74-1.753 1.97-1.098.443-1.758-.66-1.975-1.422-.114-1.212.108-2.316.547-3.306.223-.75.437-2.077.66-2.845 0-1.867 2.084-5.042 1.315-8.445.553-.888 1.65-.12 2.42.2m4.718 1.326c-.328 2.953-1.757 5.7-1.757 8.558-.325.54-.877 1.308-1.645 1.308-.33-1.087-1.753-1.968-.984-3.3.984-2.748 1.422-5.6 1.206-8.336 1.206.325 3.18.103 3.18 1.76m-12.843.978c-1.867 4.83-3.182 9.765-3.182 15.256.1 1-.768 1.867-1.32 2.412-.437-1.3-.984-2.412-1.644-3.625 1.536-4.934 3.18-9.656 5.6-14.812.216-.654-.437-1.2-.222-1.758 1.098-.32 1.098 1.76.768 2.526m141.27 4.18c1.867 3.846 5.924 6.578 6.915 10.635l1.757 1.867-1.98-.865c.884-1.77-1.753-.557-2.305-1.326-.984-.654-.984-2.185-1.42-3.175-1.543-2.635-3.4-5.156-5.162-7.682.77-.222.66-1 1.207-1.434-.33-.33-.992-.876-.547-1.308 1.313.54.546 2.4 1.535 3.288m2.412-1.758l.108-.223c.883 1.326 2.305 2.635 3.404 3.625.66.547.66 1.867 1.756 1.758l-.328.32.328.444.2-.223c1.43 2.526 3.404 4.723 4.176 7.58-.773-.552-3.626.768-4.176-1.656-2.185-3.722-4.933-7.346-7.353-11.08-.432-.547 0-1.308.223-1.98.876-.433.77 1.104 1.643 1.434m-33.57 4.502c-1.867.2-4.056 0-5.923-1.32-.33-1.2-.33-2.635-.882-3.732 2.195 1.866 4.5 3.397 6.805 5.053m-17.46-.001c1 2.526 1.428 5.383 1.757 7.892-1.32.888-3.518-.102-4.94 1.434-.33-1.536-2.525-1.098-3.732-1.212-1.867-.324-.992 2.202-3.186 1.77-.547-5.605 4.392-9.77 7.357-13.617 1.1.877 2.084 2.413 2.743 3.733m40.185-1.975l-.438.433c-.33-.768-1.207-.2-1.757-.433v-.768c.765.222 1.425.546 2.195.768m-115.58-.114c-.552.114-.552.336-1 .768.108-.433.222-1.098 1-.768m-5.16 3.734l-.66.324c.882-.654.222-1.968.66-2.96-.216.547 1.206 1.97 0 2.635m-2.635 1.536l-.768.768-.216-1.315c.438.77 1.093.2.984.547m-6.037 4.165c-.216.336-.547.114-.877.223v-.654c.438-.1.768.324.877.432m150.16 3.192h-.66c.113-.222-.1-.336-.217-.444h-.33l.77-.546c.328.2.107.654.437 1" class="C"/><path d="M46.426-160.867c.014.027.026.042.04.066l.18-.175-.22.11z" fill="#3c3c9e"/><g class="C"><path d="M39.18-181.728c-2.62 4.473-6.096 8.507-7.865 13.304l-.02-.002-.23.66c-4.505 12.937-12.08 24.784-14.06 38.5-.437 3.077-2.413 5.923-1.315 9.115 4.718-11.858 7.68-24.485 12.843-36.122 2.15-2.032 2.723-5.13 3.983-7.73l-.014-.026 2.282-3.88c.882-3.722 2.748-7.358 5.16-10.857.768-1.212-1.536-1.866-.768-2.97zm5.708.548c-1.535-.655-1.975 1.212-3.18 1.433-2.273 3.68-4.014 7.573-5.637 11.675l-2.818 5.433c-1.753 5.278-5.27 9.453-6.7 14.82-.77 2.315-1.536 4.722-2.635 6.703-.552 2.202-.883 4.934-2.196 7.135a21 21 0 0 1-.33 3.625l.547-.222c.66-2.2 2.305-3.516 3.625-5.16 3.073-6.914 5.7-14.044 8.45-21.18.547-.73.825-1.436.914-2.127l.024.052 4.002-7.8c0-.108.33-1.308.222-1.753 2.634-3.834 2.634-9.432 5.706-12.624zm1.766-.434c.433.768-.77 1.2-1.206 1.867-2.857 3.732-2.197 8.445-5.053 12.404l.108.2c-.222.222-.443.552-.774.552l.057.017-3.64 7.762.017.012c-.894 1.52-.417 3.432-1.918 4.728-.222 3.5-1.867 6.58-2.42 9.867 2.197-4.7 5.16-9.326 6.367-14.27-.154.025-.293.02-.432.014l5.37-7.15c-.44-3.836 1.755-6.146 2.308-10.203h.216c-.216-1.422 1.43-1.53 1.43-2.857v.012c.222-.997.767-2.197-.433-2.965zM214.036-159.9a.24.24 0 0 1-.043.014l.076.07-.033-.086z"/><path d="M215.56-157.64c-.127-.885-.797-1.517-1.492-2.163.232.747.8 1.445 1.1 2.173l.403-.01zM244-122.46c-2.305-6.812-5.047-13.724-6.475-20.64-.984-4.056-1.867-9.212-3.733-12.838l.223-.108c-1.3-4.83-3.846-9.187-5.53-13.736l.013-.013-.37-1.008c-.168-.496-.337-.992-.477-1.495-.01.033-.022.064-.033.097l-.755-2.06c.008-.003.013-.007.02-.01-.024-.037-.042-.074-.064-.1l-.143-.393-.087-.01c-.547-1.054-.83-2.15-1.678-2.997-1.867-3.613-4.717-6.805-6.367-10.54-1.315-1.2-2.084-3.613-3.512-4.7l.215-.222-.876-.98c-.1.768 0 1.536-.547 2.2.22 0 .336.1.436.2l-.66.33c-.22 1.434-1.428.336-2.195 0l-.104 1.872c2.084 2.407 4.497 5.486 6.692 7.898 1.118 2.002 2.35 4.12 3.2 6.265l3.722 9.542c3.625 5.486 4.17 13.4 7.244 19.313 1.205 3.413 3.403 6.913 3.403 10.105 2.42 7.357 4.6 13.28 7.352 20.525.114.654.773 1.746 1.757 1.422a33.41 33.41 0 0 1-.66-7.9zm-19.77-41.418l.054-.022-3.716-10.032-.028.008-.013-.242c-.727-.873-1.194-1.973-2-2.84l.223-.222c-.992-1-1.213-2.413-2.198-3.175-1.098-3.625-4.6-5.5-6.916-8.24l.217-.222c-.547.336-.984 1.644-1.754 1 .108.78-.114 2.646-1.43 2.75 1.207.763 1.644 1.974 2.743 3.175 2.258 3.5 4.587 6.494 5.693 10.388l.976 1.054 3.704 7.784c-.018.034-.045.053-.057.1 1.975 3.078 3.403 6.6 4.722 9.668 1.207 4.934 5.047 7.904 8.56 11.5-4.82-6.527-4.422-15.67-8.793-22.427zm-11.84.7a1 1 0 0 1 .008-.302l-.472-1.564c-1.47-1.506-2.368-3.916-3.266-5.7-.66-1.212-1.757-3.078-2.964-4.5-.33-1.098-1.64-1.536-1.756-2.743-1.976-1.65-4.28-3.192-6.14-3.96.22.78 1.205 1.433.66 2.3 1.535 1.422 2.526 3.18 4.274 4.17 1.322 2.743 4.17 4.6 4.724 7.135.215 0 .547 0 .66.222l-.222.2.992 1.32c.768 1.644.547 4.615 2.522 5.923l.435-.54c1.083.096.9 1.82 2.153 1.323-.93-.855-1.867-1.75-1.607-3.302z"/><path d="M218.93-160.45l.02-.012-3.224-7.767.036-1.04-.21-.264c-1.84 1.06-1.19-2.53-2.177-2.308.553-1.2-1.314-2.094-.984-3.18l-.108.2-.437-.433c-2.305-3.403-4.06-6.703-7.13-9.656-.557-.66-.662-2.088-1.542-1.422l.325 1.963c-.44.768-1.094 1.644-1.97 1.758-.438-1-2.086-1.536-1.1-2.743l1.32 1.433c.654-.557.654-1.433.436-2.202a32.72 32.72 0 0 0-6.145-6.146c-.33-.557-.99-1.315-1.536-1.315-2.75-3.846-6.805-6.475-10.76-8.888l-.77 2.077c1.867 1.98 4.832 3.403 6.366 5.377 1.206 1.104 2.198 2.526 3.513 3.402 1.32-.222.55.78 1.65 1.543l.108-.222.985 1.2.215-.2c.66.978 1.98 1.968 2.743 3.18 1.428 1.644 1.98 3.29 3.403 4.934 5.053 3.3 8.235 9.223 10.32 14.05.05.18.137.388.226.602l1.166 1.286 2.334 5.355c.33.444 1.098 1 .773 1.212.984 3.067 3.29 4.28 6.146 6.367-.56-3.104-2.648-5.41-3.995-8.142z"/></g><path d="M238.392-103.884c-1.232-1.784.783-3.35 1.003-5.023 0-8.497-.893-15.646-2.903-23.578-2.348-8.272-5.928-16.643-11.628-23.126-.783-.68-2.233-1.46-2-2.583.144.066.27.155.404.228l-3.243-4.46L219-160.94c.773.466 1.192 1.266.385 2.068-3.9 7.265-8.715 15.207-15.642 20.005-.654-1.087-.57-2.03-.13-2.905l-5.63 2.895 1.44 2.057-2.805 5.605-1.507 8.84-.65 8.4.433 8.84.432 7.763 2.37 6.9 3.667 8.4 3.018 10.135 1.942 5.4-2.585 8.623-2.587 4.96-4.744 4.096-7.978 5.604-7.547 4.312-14.23 5.177-2.587.862-.317 4.12.7-.38-.37 8 .225.527c.672 5.805.672 10.387 1.228 16.32 1.23 1.45 2.9.442 4.577.33 2.128 2 5.147-.33 7.264 1.228 1.452.117 1.8-.775 2.462-1.56.2-6.837-.192-13.064-1.1-18.967l-.205-.343v-5.824l5.18 2.43-.85-.875c3.916 1.227 7.936 3.348 12.856 2.792 5.92-.556 11.846-1.564 16.874-3.8.1.1.22.226.445.226 11.176-5.364 16.424-16.985 20.45-27.72 6.483-14.074 7.15-31.835 4.918-47.5zM104.962-18.4l-.4-6.94-.013-.013.008-.076-.162-2.694.4.176.184-1.936-23.07-11.213-4.096-1.724L75-44.762l-5.822-3.667-3.235-4.312-2.803-7.333-1.5-7.546.216-7.33 1.078-6.686L65.53-89.4l2.372-7.332 1.078-4.742.862-4.744-.215-5.823-.862-6.037-1.94-6.252-2.804-4.528-3.45-4.098-.136-3.26-3.162-1.437c-.2.526-.376 1.047-.814 1.573-5.47-3.895-7.035-10.268-10.163-15.53l-.9-2.9-6.208-6.386-1.17 2.338c-.03 2.657-1.7 5.037-2.444 7.617-4.92 12.513-6.703 26.365-10.618 39.33.115 3.36-3.13 7.264.336 9.947-2.12 19.23-.782 42.24 9.727 59.346 6.477 7.263 15.085 15.65 24.917 17.878 9.6.556 17.767.332 27.158-2.8 1.003-.44 1.676-2.017 2.792-1.46L88.6-27.32v10.56c.868 4.312.6 8.84.715 13l.33.666c2.798 0 5.927 0 8.72.56 1.564.447 3.464 1.224 5.03.556.445.78 1.228.117 1.8 0-1-5.592.107-10.284-.23-16.43z"/><path d="M232.698-122.44l-.226-2.23-2-10.392c-2.573-5.707-3.574-12.062-7.15-17.327 0-.776-1.007-1.558 0-2.224-.562-1.007-2.237-1.906-2.688-3.238-3.458 6.244-7.82 12.403-13.07 17.763-2.016.445-2.34 3.237-4.578 2.345-.513-.925-1.3-1.85-1.428-3.027l-1.17.312 1.374 2.6-1.454 3.35c-4.246 6.482-3.464 16.32-3.8 23.92l.22 1.236c-.445 8.26 3.354 16.306 6.818 23.792a15.72 15.72 0 0 0 .336 1.43l1.267-.237c.215-.284.446-.57.624-.85 3.8-2.126 6.93-4.25 10.06-7.04 7.037-3.133 13.63-8.04 20.34-12.396.337-.898.783-3.702.783-3.702-3.356-3.68-2.346-9.722-4.246-14.08z" class="F"/><path d="M208.562-85.28l-2.8 1.847c.11.11-1.478.646-1.478.646 1.426 4.164 3.658 10.305 3.75 14.886 1.902-4.468 1.305-12.3.967-16.655l-.44-.724" class="B"/><path d="M213.943-88.844l-4.264 2.828.33.463c.22 3.465 1.228 8.152.555 12.063-1.783 5.92-3.087 11.36-5.248 18.104-3.244 8.4-12.4 11.5-18.665 17.1a19.37 19.37 0 0 0 6.255-.67c8.274-2.566 15.757-9.94 18.33-18.33 3.464-8.488 5.03-18.44 4.026-28.16.052-.747-.452-1.602-.698-2.388l-.623-1.007m-34.218 53.537c-1.5.57-1.463.6-2.9 1.385l1.564 1.663c7.596 5.816 14.193 7.565 23.13 5.33.887-.33 5.243-1.193 5.243-1.193 15.43-1.558 21.567-18.667 26.603-30.725 5.027-13.638 6.593-31.414 3.793-45.038l-5.8 4.358c1.006 4.696.56 10.05.335 15.083-1.338 10.056-.218 20.113-5.03 29.054-1 2.68-1.8 5.6-3.238 8.162-1.453 5.134-6.147 9.274-9.392 13.068-.9.777-2.085 1.276-3.005 1.677l-1.867.86c-4.844 1.898-8.2 2.826-14.23 2.16-6.632-.815-10.28-1.674-10.28-1.674-.262-.442 3.648-.442 5.6-1 5.697 0 12.96-.9 18.106-4.58C222.2-53.262 228.57-74.38 225.442-96.057c-1.676 1-3.573 2.568-5.585 3.464.9 11.065 1.227 21.348-1.453 31.736-1.903 6.695-4.582 13.96-8.6 19.893-3.575 3.458-6.812 6.256-11.622 6.708-5.702 2.457-9.2 1.14-15.456.815-.1-.057-1.9-.806-2.07-.84l-.912-1.022" class="D"/><path d="M182.303-34.828c.027-.02.057-.052.103-.096 1.8.358 2.127 0 3.02.226 2.792 0 5.366.548 8.718.213l.336-.44c6.023-.452 11.5-3.134 15.3-8.285 4.026-7.597 7.6-15.634 8.6-24.238.445-7.942 1-16.313 0-24.374l-2.983 2.017.313 1.326c1.13 3.005 1.263 6.106 1.662 9.285-1.007 10.74-2.8 21.13-8.602 29.847-5.254 7.48-14.755 14.08-24.367 12.063-.966.65-2.017 1.112-3.087 1.516l.97.938m43.037-118.782c3.908 4.472 5.14 10.063 8.158 14.86 3.018 9.05 4.582 18.77 4.47 28.05l-.226.1c-2-1.783-1.8-5.6-2.572-8.382-2.348-7.82-2.348-16.533-6.256-23.8-1.338-3.684-2.45-7.485-4.805-10.84h1.23m4.802 54.76c1.345 10.5-.78 21.788-1.225 31.5-2.35 8.6-4.92 17.096-9.276 24.812-4.026 6.927-11.402 11.17-19.1 11.847l-5.36-.226c5.25-1.233 10.057-1.108 14.078-4.797 3.02-3.798 6.482-7.373 8.16-11.622 6.482-12.074 10.84-25.265 10.28-39.9.1-2.78-.444-6.695-1.34-9.376 1.23-.895 2.458-1.788 3.796-2.24M171.7-31.805c-.753.325-1.534.585-2.368.666.336-.104.562.224.78.45 1.116 8.16-.555 18.66 1.453 26.7h2.457c-2.794-7.822-.666-15.642-1.895-23.9.053-.625-.323-1.86-.26-2.764l-.168-1.152" class="B"/><path d="M168.996-30.912c1.007 9.056-1.338 17.775 1.117 26.377-1.117-.115-2.12.666-3.13.44-.554-7.934-2-16.984-1.45-25.027l.45-.34-.226-.214c.556-.665 2.238-.226 2.573-1.45.1.334.444.217.666.217m8.382 7.05c1.68 7.038 1.117 13.294 1.227 20.336-1.112.548-2.57-.228-3.575-.784-2.12-7.83 0-17.995-1.9-26.148 1.345 2.112 4.137 3.797 4.248 6.595" class="D"/><path d="M215.533-119.687l1.25 3.6 3.812.08-3.035 2.294 1.1 3.645-3.126-2.172-3.13 2.172 1.106-3.645-3.035-2.294 3.805-.08 1.252-3.6m-12.042 4.652l1.25 3.598 3.812.076-3.04 2.3 1.108 3.657-3.126-2.185-3.13 2.185 1.1-3.657-3.036-2.3 3.815-.076 1.246-3.598m14.747 8.157l1.25 3.597 3.813.08-3.035 2.294 1.1 3.656-3.128-2.186-3.13 2.186 1.102-3.656-3.035-2.294 3.812-.08 1.248-3.597m10.317-6.946l1.252 3.6 3.812.075-3.04 2.3 1.108 3.645-3.13-2.173-3.13 2.173 1.102-3.645-3.035-2.3 3.8-.075 1.248-3.6M207.664-100.5l1.255 3.598 3.8.08-3.04 2.314 1.108 3.637-3.13-2.17-3.128 2.17 1.104-3.637-3.037-2.314 3.814-.08 1.244-3.598m18.306-26.382l1.25 3.597 3.812.076-3.036 2.3 1.102 3.645-3.128-2.172-3.128 2.172 1.108-3.645-3.035-2.3 3.807-.076 1.247-3.597m-22.275-2.31l1.252 3.598 3.806.07-3.036 2.305 1.1 3.645-3.13-2.172-3.128 2.172 1.103-3.645-3.035-2.305 3.812-.07 1.246-3.598m10.346-4.502l1.25 3.6 3.814.08-3.035 2.295 1.1 3.645-3.13-2.173-3.13 2.173 1.1-3.645-3.04-2.295 3.812-.08 1.247-3.6m10.412-4.56l1.254 3.586 3.805.093-3.036 2.296 1.108 3.643-3.13-2.172-3.127 2.172 1.102-3.643-3.036-2.296 3.813-.093 1.245-3.586m-8.058-8.926l1.25 3.597 3.812.08-3.035 2.296 1.107 3.644-3.132-2.172-3.13 2.172 1.107-3.644-3.035-2.296 3.805-.08 1.25-3.597" class="B"/><path d="M64.503-123.996l-.69-1.623c-1.176-3.018-4.7-5.098-5.452-8.214-.017-.965.138-1.883.397-2.77l-.393-.293c-.604.947-.83 2.537-2.47 2.06-5.362-3.805-7.262-9.6-10.28-14.755-1.558-2.682-1.112-6.36-3.794-8.39-1.118 7.167-3.13 14.1-5.25 20.914-4.807 10.387-5.254 23.127-8.828 34.406 6.592 5.592 14.523 9.732 22.124 13.647 3.02 2.343 6.93 4.456 10.057 5.805 3.7-12.972 10.95-26.932 4.577-40.79z" class="F"/><path d="M39.83-159.654c-6.598 15.607-8.95 32.762-13.874 48.953.336 2.792-2.573 5.926.226 8.04.555-3.788 2-7.04 2.79-10.723 1.453-11.836 6.257-22.35 9.05-33.526 1.343-4.02 1.678-8.602 3.245-12.288l-1.438-.458" class="B"/><path d="M33.555-97.295c-1.8 8.61 0 17.774 0 26.6 2.903 12.742 5.7 26.93 18.55 35.532 3.574 2.462 7.374 5.034 11.403 5.928 6.25 2.566 12.513 1.564 18.77 1.564 1.56-.887 2.457.11 4.245-.555-7.373 2.8-16.54 3.7-24.134 3.002-10.51-1.45-18.103-8.705-25.37-16.3-11.51-16.43-11.956-39.115-10.84-59.785 2.23-1.9 3.347 2.34 5.358 2.792.672.437 1.453.665 2.016 1.222" class="D"/><path d="M51.3-85.066c-3.84 13.374.916 26.968 8.626 37.06 2.462 2.566 4.578 4.242 7.5 6.04l.105-.224c6.036 4.808 13.746 3.008 19.778 7.04 1.9.9 3.917 1.45 5.81 2.68-.783.777-1.785 1.786-3.013 2.012 0-.226-3.794.44-6.036 1.223-16.424 3.24-30.948-3.79-40.68-16.528-8.598-15.425-9.94-32.08-9.044-50.852l5.533 3.17-.416 2.3C37.495-77.602 40.78-64.4 44.06-52.253 48.635-40.74 60.487-33.037 72-31.466c.446-1.003 1.45.21 1.783 0 4.13-.226 8.378.886 12.073-.68 1.112.452 2.224-.556 3.233-.78 0-.323 0-.775-.446-.993a5.79 5.79 0 0 1-2.34-.78c-12.293.78-25.703-3.587-32.406-15.65-3.354-4.807-4.92-11.404-6.783-16.626-1.9-6.242-2.828-12.622-.26-19.246-.22-1.117.447-1.795.447-2.793 1.418.783 2.803 1.652 4.2 2.51l-.197 1.437" class="B"/><path d="M53.263-85.402c2 1.224 4.038 2.363 6.216 3.202-1.002 8.7-.783 17.3 1.453 25.593 2.348 3.458 3.238 7.366 6.257 10.604C70.42-43.65 74-41.75 77.47-39.745c-6.257-2.123-12.965-4.02-17.1-10.05-6.257-9.4-11.96-20.56-8.048-32.628-.323-.5-.12-1.1.063-1.658l.876-1.32M40.9-92.858l5.74 3.278c-.898 3.025-1.344 6.146-2.572 9.056-.673 10.166 3.574 18.33 6.82 26.926 1.558 2.355 2.34 5.365 4.577 7.038.666 1.797 2.12 3.246 3.9 4.582 3.575 3.8 8.048 6.14 13.076 7.04 3.9 1.785 8.383 1.56 12.403 1.785-3.9 1.005-8.604 0-12.85 0-10.954-1.003-22.575-9.05-26.7-19.66-3.574-9.495-5.058-20.858-5.243-30.733-.088-2.432.452-4.74.6-7.002l.255-2.32" class="D"/><path d="M97.733-27.97c-.122 1.294.44 2.897.2 4.323.22 7.373-1.117 13.067.22 19.9-1.784.892-3.457-.443-3.457-2.345-.562-6.14.447-12.964-.116-19.11.504-1.594 1.952-2.43 2.88-3.638" class="B"/><path d="M98.382-30.583c1.482.534 2.954 1.108 4.345 1.912 1.564 8.488.45 16.98 1.008 25.92-1.454-.1-3.575.457-4.136-1.23-1.784-7.7.782-15.642-.667-24.248l-.55-2.354m-4.485 26.5l-3.348.104c.446-4.804-1.228-10.843-.672-15.868l3.465-3.57c.446 6.48-1.118 12.964.556 19.335" class="D"/><path d="M45.994-142.703l-.012 3.812 3.57 1.337-3.627 1.165-.162 3.8-2.235-3.088-3.668 1.02 2.248-3.065-2.103-3.18 3.62 1.188 2.37-2.988m-6.555 9.586l1.008 3.673 3.8.34-3.18 2.08.85 3.726-2.97-2.387-3.274 1.957 1.35-3.568-2.874-2.496 3.812.18 1.5-3.505m-2.874 11.292l1.002 3.666 3.8.337-3.187 2.092.852 3.713-2.978-2.387-3.267 1.958 1.35-3.562-2.873-2.503 3.806.18 1.494-3.504m-1.76 10.02l1.303 3.586 3.812.023-3.007 2.346 1.158 3.632-3.163-2.13-3.093 2.218 1.048-3.666-3.07-2.248 3.812-.14 1.2-3.62m12.263 7.928l1.002 3.68 3.8.34-3.186 2.092.85 3.713-2.97-2.4-3.272 1.95 1.35-3.563-2.874-2.497 3.807.178 1.496-3.506m3.225-14.253l1.002 3.678 3.8.33-3.18 2.092.857 3.714-2.978-2.375-3.267 1.957 1.35-3.568-2.874-2.508 3.807.2 1.496-3.5m2.974-11.73l1.008 3.677 3.795.336-3.186 2.087.85 3.708-2.97-2.375-3.274 1.96 1.35-3.563-2.873-2.504 3.812.174 1.488-3.498m11.975 13.652l-1.5-1.2-3.273 1.96 1.35-3.55-2.873-2.515 3.807.186.874-1.86s.47 2.148.927 3.168c.934 2.05.68 3.8.68 3.8m.786 9.177l-1.46.962.85 3.713-2.972-2.386-3.273 1.957 1.35-3.55-2.874-2.515 3.807.18 1.493-3.505 1.003 3.678 1.733.157.336 1.3m-5.183 19.046l-.44-.353-3.272 1.956 1.35-3.56-2.867-2.515 3.807.18 1.5-3.506 1.008 3.68-1.073 4.12" class="B"/><g stroke="#9b7d65" class="E I"><path d="M211.48 10.97L35.095-165.416l-.08 5.038L208.92 13.528z"/><path d="M49.943 10.97l2.56 2.56 176.212-176.2-1.63-3.397h-.092z"/><path d="M229.377-162.282s0 3.5-2.76 4.006c-1.123 0-2.252.876-3.374.252 1.875-2.382 4.007-4.005 5.88-6.388-.245-.37-.746-.493-1.124-.13l-6.14 5.64-1.117-.253.754-5.88c3.747-.377 7.127-1.746 10.5-3.13a27.16 27.16 0 0 1-2.62 5.88m-7.476 6.065c-.13.76-.253 1.765-1.13 2.02-.5.363-1.13.1-1.63.24-.747-.746-1.376-1.5-1.123-2.5.5-.636.877-1 1.622-1.13 1.13-.253 1.883.253 2.258 1.37m-190.124-6.955c-1.123-1.877-2.006-3.882-2.62-5.88 3.38 1.383 6.764 2.752 10.508 3.13l.754 5.88-1.116.253-6.14-5.64c-.377-.364-.878-.24-1.123.13 1.875 2.382 4.005 4.006 5.88 6.388-1.123.623-2.252-.252-3.374-.252-2.76-.507-2.76-4.006-2.76-4.006m7.464 6.058c.376-1.117 1.13-1.622 2.258-1.37.746.13 1.123.493 1.622 1.13.253 1-.376 1.753-1.122 2.5-.5-.13-1.13.123-1.63-.24-.875-.252-1-1.26-1.13-2.018"/></g><path d="M58.76-133.318c.07-.257 11.498-15.34 11.502-15.34 15.34 7.67 34.508-15.346 34.51-15.338 19.175 15.338 34.515 15.338 53.685 0 .094.02 19.173 23.01 34.513 15.338.322 0 11.43 15.15 11.505 15.34-19.172 30.68 0 38.347 3.835 69.025 4.85 38.803-72.858 42.18-76.694 61.355-3.835-19.173-81.543-22.552-76.693-61.355 3.836-30.677 23.01-38.346 3.836-69.025z" stroke-width="2.714" class="B G"/><path d="M140.966-100.26h0m-18.594-10.582l1.05.236-1.05-.236" class="E"/><path d="M100.643-107.28l-3.205-6.852 2.28-1.057 3.2 6.844-2.275 1.064m1.012-8.842l3.244-1.363 4.975 4.015.014-.024-2.165-5.17 2.082-.886 2.915 6.974-3.206 1.352-5.07-4.147-.025.01 2.234 5.343-2.088.87-2.9-6.963m13.97-5.472c2.964-.966 5.213-.666 6.086 1.984.867 2.656-.773 4.23-3.73 5.196l-3.647 1.196-2.355-7.192 3.647-1.185zm.644 6.2l1.118-.364c1.303-.426 2.3-1.54 1.816-3.032-.5-1.476-1.953-1.8-3.256-1.363l-1.118.364 1.44 4.395m15.458-8.796l.588 4.755c.228 2.077-1.673 3.146-3.95 3.43-2.266.27-4.376-.293-4.66-2.38l-.582-4.75 2.493-.305.574 4.64c.153.96.825 1.488 2.002 1.343 1.17-.145 1.694-.823 1.612-1.784l-.57-4.645 2.492-.304m8.172 2.338a.72.72 0 0 0-.223-.707c-.183-.2-.497-.322-.917-.38-.575-.1-1.118.14-1.175.518-.085.55.686.84 1.32 1.085 1.456.56 3.62 1.014 3.312 3.026-.24 1.57-2.217 2.045-4.3 1.723-2.084-.328-3.842-1.116-3.57-3.155l2.48.38c-.116.72.446 1.184 1.338 1.32.57.1 1.342-.044 1.418-.547.156-1.007-1.72-1.07-3.556-2.092-.858-.47-1.198-1.217-1.077-2.026.37-1.75 2.3-1.95 4.185-1.662 1.847.273 3.66 1.112 3.24 2.897l-2.487-.38m6.94.742l-2.674-.74.4-1.417 7.822 2.203-.4 1.423-2.732-.774-1.658 5.862-2.416-.685 1.657-5.86m6.78 8.6l-2.33-.927 2.808-7.015 3.9 1.554c1.424.57 3.14 1.628 2.538 3.12-.416 1.053-1.6 1.214-2.834.853l-.015.047c1.484.622 1.5 1.367 1.226 2.505a7.73 7.73 0 0 0-.3 1.863l-2.532-1.022c.063-.53.2-1.06.337-1.583.247-.888.34-1.245-.85-1.725l-.875-.348-1.072 2.68zm2.527-3.677c.75.3 1.507.503 1.794-.213s-.394-1.108-1.146-1.407l-.913-.35-.638 1.615.904.356m7.312 5.044l-.808-5.86 2.567 1.375.26 3.734 3.3-1.843 2.28 1.215-5.386 2.56-1.295 2.444-2.222-1.18 1.303-2.443M116.97-36.85v11.763c0 .882.04 1.444.117 1.686a1.09 1.09 0 0 0 .488.597c.248.155.643.233 1.188.233h.328v.396h-7.563v-.396h.38c.615 0 1.05-.07 1.313-.2s.438-.336.53-.584.138-.822.138-1.723v-7.45c0-.672-.033-1.094-.096-1.263s-.18-.3-.356-.428-.374-.175-.6-.175c-.36 0-.8.113-1.317.34l-.2-.366 5.3-2.418.35-.002zm11.186 6.557c1.012.742 1.716 1.433 2.108 2.073s.6 1.374.6 2.2c0 1.158-.436 2.14-1.3 2.94s-2.058 1.203-3.558 1.203c-1.42 0-2.52-.35-3.3-1.05s-1.166-1.557-1.166-2.57c0-.772.224-1.45.673-2.027s1.196-1.112 2.243-1.592c-1.14-.862-1.87-1.57-2.192-2.124-.32-.548-.482-1.188-.482-1.916 0-.962.408-1.808 1.224-2.54s1.935-1.098 3.355-1.098c1.372 0 2.426.322 3.164.97s1.108 1.42 1.108 2.325a2.87 2.87 0 0 1-.598 1.797c-.398.52-1.02 1-1.86 1.407zm-2.92 1.682c-.218.2-.374.38-.465.543-.14.246-.268.6-.38 1.083a6.39 6.39 0 0 0-.17 1.489c0 .665.084 1.225.254 1.674s.4.774.724.972a1.79 1.79 0 0 0 .967.297 1.71 1.71 0 0 0 1.301-.567c.354-.378.528-.898.528-1.556.003-1.374-.917-2.685-2.76-3.934zm2.1-2.216a3.67 3.67 0 0 0 .586-1.187 5.22 5.22 0 0 0 .192-1.444c0-.92-.2-1.62-.594-2.108-.298-.375-.708-.562-1.23-.562-.473 0-.878.17-1.2.512s-.5.77-.5 1.274c0 .514.186 1.05.558 1.602s1.105 1.193 2.198 1.913zm4.807 3.24l6.838-9.26h1.294v9.26h1.315v2.2h-1.315v3.224h-2.913v-3.224h-5.22v-2.2zm1.016 0h4.203v-5.7l-4.203 5.7zm13.156 5.712l3.9-11.86h-2.977c-1.165 0-2.042.152-2.628.456-.408.2-.747.612-1.017 1.197h-.402l1.04-4.468h8.577L148-21.876h-1.665z" class="F"/><path d="M119.528-165.812c-2.743 2.97-3.405 6.8-4.72 10.316-.767-.98-.767-2.635-1.535-3.74-1.206.768-2.197 2.202-3.404 2.97-.1-1.867.33-3.3-.323-4.934-1.314.097-2.412-.113-3.402-.666.1-.546.66-.768 1.206-.978 2.083.2 4.495.54 6.908.433l3.517-4.502c.766.001 1.097 1 1.752 1.1m23.713 3.403c.105.222-.1.654.22.768-3.294.54-1 3.397-1.98 5.377-.984-.114-.547-1.867-1.205-2.635-.33-.546-.654-2.52-1.974-1.535-1.43.768-3.183.768-4.72 1.535-.22 0-.22-.336-.22-.546 2.305-1.867 6.582-1 7.352-3.955 1 0 2.3-.2 2.528 1m6.144-1c.113 1.32-.108 1.867-.547 2.964-1.206.324-2.196-1.974-3.955-1.206.114-.547.442-1.093 1-1.536 1.205.222 2.196-.433 3.5-.222m-7.746 20.333c-1.507 2.437-3.487-.235-5.35 0-3.722-.814-9.078-1.508-12.45.58-.35-.345-1.165-.345-1.05-1.038 6.398-2.7 12.57-2.22 18.848.46" class="H"/><path d="M195.354-143.622l-4.43.04c-2.523-.04-5.13-.08-8.01.45l-.408.075-.21.36c-.267.46-.343.947-.408 1.38-.035.217-.092.575-.16.655-3.824 1-8.61 1.265-13.244 1.52l-6.148.42-.058.014c-2.227.518-4.425.582-6.548.642-2.216.063-4.496.13-6.85.7l16.376-6.436 10.815-4.3c1.2-.057 2.298-.593 3.28-1.075 1.857-.9 2.707-1.185 3.672-.223l.66.663.64-.688c1.637-1.76 3.36-3.126 5.184-4.575 1.452-1.153 2.96-2.345 4.435-3.768l-.936-1.503c-2.055.746-4.29 1.276-6.454 1.788-2.184.518-4.443 1.052-6.574 1.82l-1.35.487 1.02 1.008c.203.198.283.494.386.94-1.96.92-3.988 1.784-5.965 2.614-3.927 1.65-7.985 3.357-11.737 5.67-3.158 1.03-6.356 2.31-9.45 3.55-4.337 1.738-8.81 3.523-13.244 4.65 7.51-5.004 15.363-9.293 22.985-13.45l6.343-3.478c.323-.186.495-.166.597-.136.514.155 1 1.126 1.184 1.49l.605 1.212.888-1.023c1.073-1.238 4.784-5.58 7.502-9.512l.983-1.42h-3c-.005.001-.1.023-.1.023l-1.963.44c-2.894.64-5.89 1.304-8.612 2.276l-.963.344 1.224 2.43c-.793.794-1.48 1.26-2.258 1.783l-.297.2c-4.093 2.678-8.458 5.107-12.678 7.455-5.603 3.12-11.39 6.35-16.776 10.273-.905-.564-1.968-.28-2.727-.065-.317.1-.61.16-.868.19-4.2-2.352-8.497-4.5-12.646-6.557-7.036-3.505-14.302-7.134-21.1-11.79.042-.284.078-.506.17-.695l.556-1.14-1.26-.154c-1.12-.137-2.264-.427-3.37-.708-1.7-.434-3.478-.883-5.277-.805l-1.86.08 1.21 1.412a121.41 121.41 0 0 0 2.322 2.604c1.333 1.467 2.71 2.982 3.933 4.568l.627.812.727-.723c.602-.598.916-1.28 1.192-1.885a11.7 11.7 0 0 1 .252-.518c6.08 4.402 12.745 7.86 19.237 11.182-.198.017-.396.052-.597.11-9.788-2.814-20.302-6.534-30.22-10.143l-.58-.4.072-1.106c.01-.07.133-.26.216-.388.242-.37.572-.877.572-1.58v-1.145l-1.114.265c-1.01.24-4.46 1.024-6.425 1.024-.83-.078-1.53.087-2.206.246-.41.097-.8.188-1.248.228l-2.5.224 10.166 7.027 1.24-.962 2.286.452c4.112 1.184 8.226 2.515 12.204 3.803 7.16 2.317 14.56 4.704 22.425 6.337-.814-.073-1.624-.102-2.425-.128-1.11-.035-2.255-.072-3.416-.228l-.13-.017-.13.02c-.914.142-1.854-.02-2.762-.176-.418-.07-.813-.14-1.194-.176l-.078-.008-.08.007c-2.97.24-5.685-.044-8.313-.318-2.337-.244-4.754-.496-7.36-.39-1.248.09-2.46-.097-3.63-.277-1.358-.208-2.646-.394-3.94-.202l-1.845-.315c-.64-.252-1.328-.24-1.944-.218-.85.032-1.276.014-1.507-.276l-.123-.147-.18-.1c-.274-.136-.4-.204.208-1.504l.216-.466.862-1.973-2.013.764c-.8.304-1.767.387-2.702.47-.978.084-1.98.183-2.847.528-1.045.02-2.104.208-3.13.396-1.09.2-2.214.405-3.328.405l-.338 1.745c3.036 1.223 5.955 2.67 9.044 4.203l3.75 1.848c-.005-.002.423-.723.423-.723l1.32-2.23c.465-.09 1.3-.194 1.715-.13l1.875.215c1.035.183 2.227.296 3.488.416 1.935.185 3.933.375 5.433.856l.08.025.083.01c.428.054.935.1 1.47.15 1.737.16 4.117.38 5.313 1.022l.585.314.423-.413.246.363.528-.044c3.462-.292 7.246.287 10.906.847l2.512.375h-1.016l5.16 5.157.164.07c7.963 3.346 15.62 2.17 21.556-3.312l.6-.554-.5-.653c-.115-.153-.25-.273-.388-.375 3.45-1.16 7.17-1.686 11.087-1.575v.075l.7.162c.65.15 1.228.02 1.66-.347l13.16-.688c.001 0 .137-.053.137-.053 1.433-.562 2.988-.547 4.632-.533 1.678.015 3.408.022 4.995-.636.625.134 1.284.017 1.836-.093l.217-.042-.17-.89.215.88 1.18-.3.9 1.114c.007.033.013.06.02.096.09.498.207 1.18.815 1.59l.533.358 13.04-9.744-2.99.165z" fill="#9b7d65"/><path d="M84.542-153.647c.066-.627.783-1.086.783-1.876-1.978.47-4.884 1.05-6.634 1.05-1.28-.114-2.093.357-3.37.47l7.563 5.23 1.042-.808 2.7.53c12.022 3.45 22.92 7.8 35.35 10.295-1.85-.712-3.835-3.028-5.808-2.22-9.94-2.847-20.548-6.604-30.62-10.272L84.444-152l.1-1.66m97.428 15.85c-.662.127-1.412.32-1.948.072-2.907 1.4-6.626 0-9.892 1.28l-13.378.7c-.23.35-.58.458-1.05.35v-.235c-4.536-.235-9.07.344-13.372 1.98-.35.814.7.935 1.042 1.393-6.05 5.585-13.383 6.17-20.6 3.142l-3.487-3.486c2.443 0 5.35 3.25 8.378 4.18 3.608 1.17 7.328-1.03 10.82-2.092-.237-.814.693-.1.923-.924.813.344 1.043-.705 1.86-1.164-.228-1.05-1.278-1.858-2.093-1.52-4.065-.224-9.307 3.263-13.263.235-6.75.357-14.42-2.322-21.285-1.743-.23-.338-.7-.46-1.05-.338l-.228.223c-1.744-.936-5.236-1.038-7.1-1.273-2.576-.826-6.334-.826-9.097-1.3l-1.84-.2c-.7-.1-2.087.115-2.437.235l-1.514 2.558c-4.07-1.98-8.03-4.065-12.1-5.706 2.328 0 4.536-.8 6.63-.8 1.514-.7 3.842-.344 5.7-1.05-.458 1.05-1.393 2.448 0 3.142.927 1.17 2.792.235 3.958.814l2.008.343c2.3-.415 4.862.67 7.648.47 5.465-.223 10.006 1.165 15.706.706 1.157.1 2.665.58 4.18.345 3.493.47 6.635-.1 9.778 1.28.464-1.515 1.508.1 2.32 0 .236-1.98-2.44-2.214-3.72-3.366-8.842-4.67-18.035-8.848-26.178-14.904-.808.814-.928 2.1-1.864 3.028-1.973-2.557-4.294-4.885-6.285-7.208 2.8-.12 5.585 1.152 8.5 1.508-.23.47-.23.928-.345 1.52 11.044 7.667 22.915 12.324 34.55 18.85 1.28 0 2.792-1.17 3.722.102 9.54-7.088 20.247-11.744 30.02-18.136 1.05-.712 1.98-1.285 3.143-2.57l-1.05-2.087c3.263-1.165 6.865-1.864 10.472-2.684h1.163c-2.093 3.028-5.114 6.75-7.445 9.433-.464-.928-1.4-2.684-3.027-1.743-10.7 5.93-21.643 11.508-31.998 18.734.123.338.47.93 1.05.8.813.343.585-.694 1.28-.694 8.028-1.858 15.94-5.936 23.855-8.504 5.815-3.607 12.335-5.688 18.384-8.6-.24-.706-.24-1.52-.816-2.093 4.187-1.508 8.843-2.087 13.03-3.607-3.26 3.13-6.63 5.12-9.658 8.378-2.442-2.443-5.006 1.043-7.8 1.043l-28.62 11.303c-.813 1.05-3.02 1.393-4.65 1.973-.12.35-.585.585-.35 1.043 1.98.935 3.836-1.744 5.815-1.508 4.883-1.515 9.427-.46 14.427-1.623 6.05-.58 13.85-.47 19.548-1.978.928-.357.58-1.63 1.05-2.437 4.42-.814 8.142-.242 12.328-.477l-10.12 7.563c-.367-.247-.38-.8-.496-1.327l-1.407-1.737-1.73.43" class="E"/><path d="M141.303-143.067c-1.508 2.437-3.487-.235-5.35 0-3.72-.814-9.077-1.508-12.45.58-.35-.345-1.165-.345-1.05-1.038 6.398-2.7 12.57-2.22 18.848.46" stroke-width="1.81" class="G"/><path d="M121.85-139.224l.82.424c.503.417 1.103.715 1.688.997l.288.143c-.18.072-.338.2-.477.336-.9-.32-1.798-.502-2.694-.617l.375-1.283zm17.68 6.704l-.192.2-.838-.354-.228.808c-.226.032-.608.116-.86.496-.038.057-.064.12-.1.183l-2.027.724c-2.57.967-5.227 1.968-7.668 1.177-1.25-.383-2.522-1.23-3.754-2.046-1.096-.727-2.152-1.422-3.2-1.825 1.575.158 3.136.24 4.653.18 2.835 1.96 6.144 1.158 9.076.442 1.592-.4 3.096-.756 4.408-.685l.207.012.2-.08c.053-.023.152-.002.257.053.132.07.273.195.4.357l-.323.35z" fill="#9b7d65"/><g class="E"><ellipse cx="99.324" cy="61.879" rx="16.816" ry="10.643" transform="matrix(.904826 0 0 .904826 41.586519 -192.3195)" stroke="#9b7d65"/><path d="M140.966-100.26h0"/></g><path d="M88.72-61.867c-5.83-.468-13.19-1.536-16.62 2.92s-8.847 4.113-4.73 6.917 9.53-.723 15.29-.225 6.955 3.7 10.977 1.218c7.03-5.515.26-10.14-4.92-10.83z" fill="#2e8751" stroke="gray" class="J"/><path d="M75.594-93.144a.866.866 0 0 0-.866.893v2.95c-1.548-1.095-3.104.33-3.844 1.705-.81 1.504-1.1 4.7-1.1 4.7s3.402-2.068 4.927-3.925v4.846c-1.507-.94-3.015.447-3.736 1.787-.81 1.504-1.1 4.7-1.1 4.7s3.245-1.968 4.82-3.8l-.054 20.844a.866.866 0 1 0 1.733 0l.108-33.838a.866.866 0 0 0-.866-.893zm9.448.352a.866.866 0 0 0-.704.623l-1.03 3.898c-.05-.117-.138-.216-.244-.325-1.685-1.74-2.33-.394-3.14 1.1s-.893 3.6-.893 3.6 2.844-1.488 3.925-2.978l-.812 4.25c-1.324-1.044-2.103-.35-2.815.975-.81 1.504-.893 5.387-.893 5.387s1.822-1.254 3.167-2.68c-.903 7.145-.993 14.03-1.245 20.926a.867.867 0 1 0 1.733.054c.22-6.038.343-11.998.947-18.083 1.035 1.263 2.68 2.382 2.68 2.382s.35-2.773-.46-4.277c-.65-1.206-.922-1.998-1.868-1.38.178-1.344.405-2.7.65-4.06.95 1.315 3.005 2.518 3.005 2.518s1.27-2.773.46-4.277c-.708-1.316-1.627-1.816-2.978-.758.407-1.906.877-3.84 1.462-5.793a.866.866 0 0 0-.947-1.11zm8.636 4.954a.866.866 0 0 0-.487.271c-2.88 3.065-4.97 7.96-6.443 13.427s-2.316 11.52-2.572 16.81a.867.867 0 1 0 1.733.081c.223-4.61.92-9.824 2.084-14.672 1.05 1.8 3.113 3.655 3.113 3.655s1.702-3.423.893-4.927c-.625-1.162-1.82-2.37-3.113-2.057.563-1.873 1.208-3.644 1.922-5.252.967 1.69 3.005 3.438 3.005 3.438s1.946-3 1.137-4.494c-.524-.974-1.47-1.967-2.518-2.084.63-1.038 1.296-1.982 2.003-2.734a.866.866 0 0 0-.758-1.462z" fill="#1e3c2c" stroke-width=".65" class="G"/><g class="K"><path d="M74-109.346l.785 1.516c.458.878.693 1.992.785 3.086-.085-.247-.136-.54-.244-.758-.53-1.065-1.32-1.75-2.084-2.3l-.73-.54-.27.866c-1.585 4.844-1.546 9.837 1.922 14.727.438.41.372 1.077 2.382.92 3.242-2.592 5.273-6.882 6.768-11.938l.244-.812-.84-.027c-.383-.018-.758-.016-1.1 0-.558.026-1.072.124-1.57.244l-.027-.027c-.99-2.11-2.507-3.604-4.44-4.33l-1.57-.623zm12.86 4.358l.406 1.65c.1.4.057.89.054 1.354-.245-.68-.558-1.307-.947-1.76l-.568-.677-.46.758c-1.972 3.19-2.833 6.818-1.435 10.882.253.774.603 1.51 2.003 1.814 2.938-1.375 5.222-4.282 7.255-7.796l.406-.704-.785-.244c-.7-.205-1.345-.258-1.976-.27-.37-1.753-1.217-3.157-2.545-4.06l-1.408-.948zm7.77 7.58l.487 1.624c.044.142.03.33.054.487-.194-.306-.35-.694-.568-.92l-.596-.623-.433.785c-1.353 2.5-1.853 5.244-.812 8.23.305 1.03 1.13 1.482 1.895 2.003 2.367-1.214 4.066-3.652 5.55-6.578l.38-.73-.812-.19a6.3 6.3 0 0 0-1.299-.189c-.07-.002-.12.053-.19.054-.385-1.347-1.13-2.43-2.22-3.086l-1.435-.866z"/><g class="B"><path d="M82.83-104.253c-5.76-.276-8 3.65-6.693 11.783 3.165-2.434 5.2-6.693 6.693-11.783m-9.807-3.32c-1.557 4.757-1.557 9.515 1.867 14.272-.415-2.933-.207-5.643.623-8.13.212-3.714-1.036-5.094-2.5-6.14"/><path d="M76.292-102.593c.35-1.714.117-4.093-.778-5.8 1.764.664 3.112 2 4.046 3.983-1.738 0-2.776.94-3.268 1.826m16.46 3.232c-4.25-1.246-6.624 1.284-7.122 7.6 2.802-1.247 5.08-4.062 7.122-7.6"/><path d="M86.03-103.6c-2.02 3.27-2.88 6.823-1.18 10.993.22-2.263.863-4.25 1.932-5.96.828-2.734.146-4-.752-5.034m1.542 4.31c.572-1.217.825-3.035.467-4.478 1.197.815 1.965 2.05 2.303 3.705-1.298-.314-2.243.2-2.77.773m12.223 6.318c-3.4-.798-5.173 1.302-5.293 6.303 2.158-1.107 3.836-3.428 5.293-6.303m-5.493-3.06c-1.452 2.672-1.974 5.513-.453 8.73.075-1.796.497-3.394 1.267-4.788.534-2.195-.06-3.158-.814-3.943m1.405 3.336c.4-.987.52-2.432.174-3.555.98.6 1.64 1.53 1.98 2.824-1.037-.2-1.76.256-2.153.732"/></g></g><path d="M107.178-73.685c.063.008.496.038.727.054.001-.004.062-.054.06-.054-.346 0-.65-.004-.787 0zm.727.054c-.15.337-18.618 18.97-18.618 18.97v9.78l8.295.616 3.784-4.635 46.258 3.483v5.037l8.144.616 3.482-3.965.06-6.028 5.237-6.86 2.755.214 3.815-5.064v-8.225l-63.212-3.938z"/><path d="M92.468-55.648l61.993 4.37L168.626-68.5l-58.786-3.437c.175 0-17.373 16.3-17.373 16.3z" class="B"/><path d="M131.9-111.066c-12.105 0-30.256 24.198-30.255 48.408 5.07 5.07 18.555 5.89 26.38 6.023.01-7.703 3.874-7.69 3.874-7.69s3.864-.012 3.874 7.69c7.827-.133 21.3-.952 26.38-6.023 0-24.2-18.15-48.408-30.255-48.408z" fill="#f0d331" stroke="#7b4515" class="I"/><path d="M162.042-66.112c-5.457 4.905-26.58 5.794-26.58 5.794l-.167-.67s21.564-.868 26.635-5.93l.052.054.06.752zM115-99.727l-.452.594c6.785 1.076 13.993 1.074 17.36 1.074s10.604.001 17.4-1.074c-.155-.2-.32-.398-.48-.594-6.612 1.008-13.62 1-16.9 1s-10.297.018-16.9-1zm-2.997 4.185l-.396.594c7.525 1.62 16.436 1.612 20.302 1.612s12.778.01 20.302-1.612c-.128-.202-.233-.4-.368-.594-7.377 1.547-16.142 1.527-19.934 1.527s-12.53.02-19.906-1.527zm-2.488 4.1l-.34.622c7.92 2.22 18.444 2.206 22.734 2.206s14.813.013 22.734-2.206l-.34-.622c-7.786 2.145-18.164 2.15-22.394 2.15s-14.608-.004-22.394-2.15zm-2.065 4.1l-.283.594c8.05 2.85 20.075 2.856 24.74 2.856s16.692-.005 24.74-2.856c-.093-.2-.16-.393-.254-.594-7.902 2.784-19.867 2.77-24.487 2.77s-16.556.013-24.46-2.77zm-1.724 4.015l-.254.622c7.954 3.518 21.435 3.534 26.438 3.534s18.484-.017 26.438-3.534c-.073-.208-.172-.42-.254-.622-7.765 3.464-21.213 3.478-26.183 3.478s-18.415-.014-26.183-3.478zm-1.414 4.015l-.198.65c7.667 4.2 22.488 4.213 27.795 4.213s20.13.005 27.795-4.185l-.198-.65c-7.437 4.17-22.312 4.157-27.597 4.157s-20.16-.016-27.597-4.185zM103.2-75.27l-.17.707c7.262 4.836 23.3 4.835 28.87 4.835s21.608.001 28.87-4.835c-.053-.234-.085-.472-.14-.707-6.954 4.862-23.165 4.863-28.728 4.863s-21.745-.002-28.7-4.863zm-.82 4.073l-.14.763c6.82 5.414 23.885 5.43 29.66 5.43s22.843-.015 29.66-5.43c-.04-.25-.064-.5-.113-.763-6.402 5.5-23.75 5.514-29.548 5.514s-23.118-.013-29.52-5.514zm16.4-32.8l-.622.622c5.595.6 10.97.594 13.742.594s8.145.005 13.742-.594l-.622-.622c-5.36.54-10.456.537-13.12.537s-7.76.002-13.12-.537zm5.26-4.326l-.905.622 8.766.198 8.766-.198-.905-.622-7.86.14c-1.76 0-4.6.013-7.86-.14zM101.874-66.92c5.056 5.05 26.57 5.93 26.57 5.93l-.083.67s-21.14-.884-26.6-5.794l.06-.753.053-.053z" fill="#7b4515"/><path d="M122.372-110.842l1.05.236-1.05-.236" class="E"/><path d="M174.194-58.248c5.83-.468 13.19-1.536 16.62 2.92s8.847 4.113 4.73 6.917-9.53-.723-15.29-.225-6.955 3.7-10.977 1.218c-7.03-5.515-.26-10.14 4.92-10.83z" fill="#2e8751" stroke="gray" class="J"/><path d="M187.32-89.525a.866.866 0 0 1 .866.893v2.95c1.548-1.095 3.104.33 3.844 1.705.81 1.504 1.1 4.7 1.1 4.7s-3.4-2.068-4.927-3.925v4.846c1.507-.94 3.015.447 3.736 1.787.81 1.504 1.1 4.7 1.1 4.7s-3.245-1.968-4.82-3.8l.054 20.844a.866.866 0 1 1-1.733 0l-.108-33.838a.866.866 0 0 1 .866-.893zm-9.448.352a.866.866 0 0 1 .704.623l1.03 3.898c.05-.117.138-.216.244-.325 1.685-1.74 2.33-.394 3.14 1.1s.893 3.6.893 3.6-2.844-1.488-3.925-2.978l.812 4.25c1.324-1.044 2.103-.35 2.815.975.81 1.504.893 5.387.893 5.387s-1.822-1.254-3.167-2.68c.903 7.145.993 14.03 1.245 20.926a.867.867 0 1 1-1.733.054c-.22-6.038-.343-11.998-.947-18.083-1.035 1.263-2.68 2.382-2.68 2.382s-.35-2.773.46-4.277c.65-1.206.922-1.998 1.868-1.38-.178-1.344-.405-2.7-.65-4.06-.95 1.315-3.005 2.518-3.005 2.518s-1.27-2.773-.46-4.277c.708-1.316 1.627-1.816 2.978-.758a73.97 73.97 0 0 0-1.462-5.793.866.866 0 0 1 .947-1.11zm-8.636 4.954a.866.866 0 0 1 .487.271c2.88 3.065 4.97 7.96 6.443 13.427s2.316 11.52 2.572 16.81a.867.867 0 0 1-1.733.081c-.223-4.61-.92-9.823-2.084-14.672-1.05 1.8-3.113 3.655-3.113 3.655s-1.702-3.423-.893-4.927c.625-1.162 1.82-2.37 3.113-2.057-.563-1.873-1.208-3.644-1.922-5.252-.967 1.69-3.005 3.438-3.005 3.438s-1.946-3-1.137-4.494c.524-.974 1.47-1.967 2.518-2.084-.63-1.038-1.296-1.982-2.003-2.734a.866.866 0 0 1 .758-1.462z" fill="#1e3c2c" stroke-width=".65" class="G"/><g class="K"><path d="M188.915-105.726l-.785 1.516c-.458.878-.693 1.992-.785 3.086.085-.247.136-.54.244-.758.53-1.065 1.32-1.75 2.084-2.3l.73-.54.27.866c1.585 4.844 1.546 9.837-1.922 14.727-.438.41-.372 1.077-2.382.92-3.242-2.592-5.273-6.882-6.768-11.938l-.244-.812.84-.027a11.77 11.77 0 0 1 1.11 0c.558.026 1.072.124 1.57.244l.027-.027c.99-2.11 2.507-3.604 4.44-4.33l1.57-.623zm-12.86 4.358l-.406 1.65c-.1.4-.057.89-.054 1.354.245-.68.558-1.307.947-1.76l.568-.677.46.758c1.972 3.19 2.833 6.818 1.435 10.882-.253.774-.603 1.51-2.003 1.814-2.938-1.375-5.222-4.282-7.255-7.796l-.406-.704.785-.244c.7-.205 1.345-.258 1.976-.27.37-1.753 1.217-3.157 2.545-4.06l1.408-.948zm-7.77 7.58l-.487 1.624c-.044.142-.03.33-.054.487.194-.306.35-.694.568-.92l.596-.623.433.785c1.353 2.5 1.853 5.244.812 8.23-.305 1.03-1.13 1.482-1.895 2.003-2.367-1.214-4.066-3.652-5.55-6.578l-.38-.73.812-.19a6.3 6.3 0 0 1 1.299-.189c.07-.002.12.053.19.054.385-1.347 1.13-2.43 2.22-3.086l1.435-.866z"/><g class="B"><path d="M180.086-100.634c5.76-.276 8 3.65 6.693 11.783-3.165-2.434-5.2-6.693-6.693-11.783m9.806-3.32c1.557 4.757 1.557 9.515-1.867 14.272.415-2.933.207-5.643-.623-8.13-.212-3.714 1.036-5.094 2.5-6.14"/><path d="M186.623-98.973c-.35-1.714-.117-4.093.778-5.8-1.764.664-3.112 2-4.047 3.983 1.738 0 2.776.94 3.268 1.826m-16.46 3.232c4.25-1.246 6.624 1.284 7.122 7.6-2.802-1.247-5.08-4.062-7.122-7.6"/><path d="M176.886-100c2.02 3.27 2.88 6.823 1.18 10.993-.22-2.263-.863-4.25-1.932-5.96-.828-2.734-.146-4 .752-5.034m-1.543 4.318c-.572-1.217-.825-3.035-.467-4.478-1.197.815-1.965 2.05-2.303 3.705 1.298-.314 2.243.2 2.77.773m-12.223 6.318c3.4-.798 5.173 1.302 5.293 6.303-2.158-1.107-3.836-3.428-5.293-6.303m5.493-3.06c1.452 2.672 1.974 5.513.453 8.73-.075-1.796-.497-3.394-1.267-4.788-.534-2.195.06-3.158.814-3.943m-1.405 3.337c-.4-.987-.52-2.432-.174-3.555-.98.6-1.64 1.53-1.98 2.824 1.037-.2 1.76.256 2.153.732"/></g></g></svg>