<svg xmlns="http://www.w3.org/2000/svg" xmlns:xlink="http://www.w3.org/1999/xlink" width="670" height="460"><style>.B{fill:#3f863f}.C{fill:#fff}.D{fill:#ff350f}.E{fill:#ffd9c5}.F{fill:#a85f39}.G{fill:none}.H{stroke:#a85f39}.I{stroke-width:.576}.J{fill:#c83d25}.K{fill:#c5c5c5}.L{fill:#4f4036}.M{fill:#a839a8}.N{fill:#ffd93c}.O{fill:#97c8f0}.P{fill:#663d3d}</style><path d="M-2513 2317z"/><path d="M0 459h670V1H0v458z" fill="#00297b"/><path d="M337 394c91 2 163-73 163-164S427 65 336 65a164 164 0 101 329" class="C"/><path d="M337 381c79-1 151-72 151-152-1-91-79-152-152-152-87 0-152 67-152 151 0 85 62 154 153 153"/><path d="M254 323c22 19 51 30 83 30 59 0 105-41 117-96 2-9 3-19 3-28 0-35-16-64-37-88-14-16-34-23-46-27-10-5-27-8-37-8-25 1-50 8-69 20a123 123 0 00-14 197" class="C"/><path d="M222 167v-1-2l1 1 1-2 1 1v1l-2 1-1 1" class="B"/><g class="C"><path d="M222 167l1 1-2 1v1c1 4-2 8-2 11-2 5-4 9-7 12l-2 1a13 13 0 001 1l-1 5v2l-1 2c-2 0-3 2-4 1l-1-2 2-1-1-1-7 7 1 1-1 2c-1 0-1 2-3 2l1 3 1-2c0-2 2-3 3-4 1-2 3-2 3-4h1c2 1 1 4 1 6 2 1 2 3 2 4-2 2 2 3 0 5l3-2 2-12c1-8 4-15 7-22a116 116 0 0126-40l-6 1c-1 2-2 1-4 2h-2l-4-2v1l2 5v4l-3 9v1l-2-5-1 2 1 1-1 2-2 1h-1m229 149h-2l1-1c-1-1-2 2-3 0l2-4h2l1 4-1 1"/><path d="M455 145l-1-2c-2-1 0-4-2-5-2 1-1-1-2-2-3 1-2-2-4-3l-2-2-17-16-4-4c-2-2-4-1-5-2l-2-2-2-1c-1-2-3-4-5-4l-6-3v1l-15-7c-2 0-2-2-3-2l-2-1h-2l1 3c-2 0-1-2-1-2l-2-2c-3-1-5-2-8-1l-2-1h-4c-2-3-5-4-9-4l-2-1v3l-6-2-12-1c-1 0 0 0 0 0h-5c-2 2-3 0-5 1h-17l-2 1-3 1h-1l-5 1-5 2-16 6-2 1h-1-1v-1c0-2-2 1-2 0l-4 3c-2-1 0 2-2 3l-5 2c-1 3-5 0-6 3-2 0-3 2-5 3l-2 3h1l-9 6-2 1a5 5 0 00-1 0l-1 2c-4 4-10 7-13 12l-1 2-2 1-11 13h1l-2 4 1-1v1l-3 4c0 3-2 5-3 8l-1 2-1-1-2 2c0 2-3 3-2 5l-1 5c1 2-1 5-1 7l-2 3c0 1-3 1-3 3l1 6-1 10c0 3-2 6-1 8v7l-1 5v14l2 9v6l1 2c-1 1 0 3 1 4v2l2 5c-1 2 0 3 1 5v1l3 12c1 0 1 2 2 1v1l2 7 3 6c2 1 3 2 3 4 2 0 2-2 3-3v1l-1 3c2 1 1 3 2 4l4 3c1 3 2 6 5 7v2l3 2c-1 2 2 2 3 3l3 3 5 4c-1 2 4 3 2 6l3 1 1 1h1l2 1 4 4 3 1 8 6a9 9 0 013 2l3 2c5 0 6 6 10 6l2 1h5l4 3a2 2 0 001 1l3 1 6 1s1 2 2 1l3 1c3 2 7 2 11 3l2-1 10 1 2-3c1 3 2 4 5 4h6l1-1 3 1 1-1 2 1h1l1-1h7l8-1 2-1 4-1h1l7-2c2-1 4 1 6-1h3l5-2v-2l6-3 9-4 1 1 2-2v-1l2-1 1-2v1l1 1 1-2 10-7c5-3 10-6 13-10l2-2 1-1 11-11v-2l1 1h2l1-2-1-1v-2l1-1h1a22 22 0 000 1l1-1c2-2 2-3 2-6l4-5c0-3 3-3 5-5l5-5-5 10a169 169 0 01-56 54s-14 8-25 12c-21 8-40 9-40 9-27 1-42-3-50-6-14-3-22-7-32-12-7-4-17-10-28-20l-14-14c-11-13-18-26-24-40-4-10-6-21-9-31l-2-27c-1-11 2-28 3-34l6-21c4-10 5-13 14-28 2-5 16-22 24-29 0 0 11-11 20-16a137 137 0 0154-21c6-2 12-2 21-3h14l25 3 17 5c15 6 28 13 33 16l19 14a140 140 0 0136 45l9 23a142 142 0 01-7 106l-1 2-1-2h-2l2-3 7-21v-3l1-1 1-1c1 0 2-1 1-2-2-1-1-4-1-6v-2l1-6 1-5v-4-12c1-1 2-2 1-3l-1-3-1-1 1-4v-3l-1-1h1v-9l-2-1c-2-2-3 0-5 0l3-3v-4-1-3c-2-1-1-4-2-5l-3-1-1-2c0-6-3-10-5-15l-1-3-2-2-2-3c1-1-1-2-1-2v-1h-1l-3-6-1-2M194 254l9 9 6 6c2 2-2 2-2 3l-1 6 1 2v2l-2-2c0-4 2-8 1-12-1-1-3-2-3-4-1-2-3-1-5-3-1-3-4-2-5-5l-2 2 1 2-1 2v-1c-1-1-2-2-1-4l3-2v-1h1"/></g><path d="M193 253l3-1 4 2 2 1 2 2c-3-5-4-10-4-15l1 1c0 5 3 10 6 14l1 1h-1l1 1-1 2-2-1v-2l2 1v-1h-2l-1 1 1 2h3v2c-1 1 0 2 1 2 1 1 2 0 3-1l1 2c-2 1-3 2-3 4l-9-10-7-6-1-1" class="B"/><path d="M436 334l1-1v-1-3l3-2c0-2 1-4 3-5-1 1 2 1 1 2v2c-1 3-5 5-7 8h-1" class="C"/><path d="M451 306c-1 3 0 6 2 9l1 1c3-3 2-9 0-12v-1c4-1 8 0 11-3 2-3 5-4 6-8l-1-1h-1c-3 0-6 2-9 4l4-6c2-2 3-4 3-7l-1-9-7 5c-3 4-4 8-3 12l-2 7-1 5c0-4 2-7 3-11l-1-3v-1l-4-6-4 6v8c1 3 4 4 4 6v5" class="D"/><path d="M435 311l1-5 3-10-4 7-14 16 1 4v0l4-6 5-3 3-2 1-1" class="C"/><path d="M435 311l4-12 5-9c-1-1 0-2 1-4 3-5 6-11 10-15l2 1 2-1v-5l1-3-1-1c3-1 4-4 6-5l-3 9v2l2-1c2-4 7-6 9-9l3 3-10 10-1 1-7 5c-3 1-4 4-6 5l-1-2v-1a5 5 0 000 2c-3 3-7 7-5 12-2 2-2 5-3 8 1 2-1 3-2 5l-2 5-1 3 1 5v1l1-1c1 1-1 2-2 3v2-1l3-3c2 0 1-2 3-3l1-4 1-2 5-7v2l-1 1v3l-1 1-5 9-2 2v-1h-1c1 0 0 0 0 0l-2 5-2 2-1 4c-1 4-3 6-6 8l1-1-2-2 2-3 1-5 1-4h1v-2-1l1-2c-2-2 1-3 0-5v-4" class="B"/><path d="M481 210v4h-2l1-5h1v1m-15-46v4c0 1 3 1 2 3h1l-3-6v-1" class="C"/><path d="M455 152l-2-3 1-2 1 1-1-1 1-1 3 5 2 3-1 2v-2l-4-2" class="B"/><path d="M457 160h-1c-1 1-2-1-3-1l-2-3c0-2-1-2-2-1-2 1 0 2 0 4l-1 3c-2 1-1 3-2 4l-1 3-4-4v-3c-2-1 1-3 0-5 1-2 4-2 5-2-1 3-4 6-2 9v-3l3-6v-1h-1l-8 2-3-3h-2v-1h-1c-1-3-2-4-4-5 2-2 4 1 6-1 5 0 9 3 13 6v0l-5-4c-3-3-6-2-9-2l-4-2c-2 0-1-3-2-4-3-1-1-4-3-5 1-1 3 1 4-1l3 1c3-2 4 2 7 0l3 2 3 5v3l1 2c-3-4-8-6-12-8h-1l-1-1-1 1h2c6 3 14 7 16 14v-3l-3-4v-3c2-3-1-6 1-8h1v-1l2 3 1 1 1 1 2 1c-1 2 2 3 2 5-2 1-1 3-3 3v1l-2 4h4l1-1a20 20 0 013 2l1 2c0 1 2 2 1 3l-2 1h-1" class="D"/><g class="B"><path d="M463 218v-1h1l1 1-1 3-2-1v-2h1m-2-4v2l2 1v-3h-2"/><path d="M465 220l1-1h1c1 1 2 0 2-1l3 3 3 2c3 2 4 6 5 10v2c0-4-1-7-3-11l-2-2c-4-2-6-5-9-8l-1-1-1-1c-7-6-9-15-9-24l-2-9v-1h1l-1-1-1-3c-1-1 0 0 1-1v-1l-2-3c0-4 0-9-2-13l1-1 1 1 1 4 1 7 2 5c2-3 2-8 2-12h3l1 2 1 1h-2v1l-1 1v1l1 1h3l1 2-2 1v-2l-1 1v-1 2c-2 6-2 11-2 18l-4 1c1 1 2 2 1 3l2 1v3l2 1 1 2 2 1c-1 1 0 3 1 4v6c1 1 1 3 3 3l1-2 8 10 1 2 2-1c2 4 4 8 2 13l-4 2c1-6-2-11-6-15l-4-2-1 1-1-1"/></g><path d="M465 221v2c3 1-1 3-1 4v2c1 1 0 2-1 3v2l-3-2-2 5c1-9 0-19-1-29l-2-5-3-11-9-21-10-16c-7-10-16-19-25-26h1c10 2 20 2 29 6l-4-1h-7l-4 1 2 2c-1 2 1 4 2 4-1 4 3 3 5 5h-2l-3 1c1 1 4 2 4 4s2 1 1 2a2 2 0 001 1c2-1 3 1 4 2h4v1c1 1-1 3-1 5l1 1v2l4 5 1-2c1-1 2-3 1-5 2 0 0-3 2-4 2 4 1 7 1 11v-1l-3 1 1 2-1 1v4l1 1 1-2 1 2 3 1 1 3 2 17c1 5 4 10 7 14h-1-1l-1 2v1l2 1-1 1v1l2 2h2" class="C"/><path d="M448 176v-1 2l-1-1h1" class="B"/><path d="M414 107l2 5 1-1 1-1-2-3h-2m-49-20l2 6 2-3 2-2-6-1m-130 41h5c-1 2-4 1-5 2l-2 1-1 1-1-2 4-2" class="C"/><path d="M231 129l-1-4c6-3 14-3 21-5h4v2h1l9-2 3-3h2l3-1 4-1 6-4c5-5 11-11 13-17l2-2v1l1-1h-1l2-1 1 1-3 1v1h2l1-1v-2h-1l1-1c-1-1 1 0 2-2l1 1-1 2-1-1v2l2-1v-2l-1-1v-1l-2-1h3l1 3 1 4h-1l-7 8-2 2h2c5-1 8-6 13-7l4 2-1 1v-1l-7 2c-4 3-8 7-14 7l-10 9-1 1c-3 2-6 2-9 5l-8 1h-3l-1 2h-2l1-2-2-1-1 1h1l1 1-1 1h-2l1-1v-1l-1 1-2-1 2 1-2 2h-1v-1h1l-1-1-1 1 1 2h-4l-14 1-4 1" class="B"/><path d="M233 132h1c2-2 3-3 4-2 1-2 3-1 5-2s5 1 7 1h3c-2 2-4 6-7 7l-11 2c-3 0-4 4-7 5h-1c2-3 5-6 5-11h1" class="D"/><path d="M300 90l-1-1h-3l-1 2 2 1c-2 1-1 4-3 5l-2-1h-10l-3 2c-2 0-3 2-4 3l-1 1 1-2v-1l-1-2v-1l1-1 9-3 4-2 7-2c1 0 4-2 6-1l-1 3" class="C"/><path d="M274 101v-1l1-2c-1 0-2-1-1-2v-1l-1 1v-2l-2 1c-1 2-3 1-3 3l-2 1-1 1c1 2-2 5 2 6l-3-1-4-2c-1 2-4 0-5 2-4 0-5 4-7 6 4 1 9 1 14-1h3l-4 2v1l-3 3c-2 1-1 4-3 5v1c3-1 7-1 10-3 1-1 4-3 3-6v-2c3 1 3 5 6 4 4 0 7-2 9-5l-8-1c-2-1-5 0-7 2l3-3h6v-1l6-1c2 0 3-2 5-3 1-3 4-2 5-5l1-1h-3l-2 1c-4 2-9 4-12 7l3-3 11-5c-2-1-5-2-7-1l-4 1c-1 2-3 1-4 4l-3 2 1-1v-1" class="D"/><path d="M273 102v2c-1 1-3 2-3 4l2-3 1-1 1-2"/><path d="M238 117c3-2 8-4 12-4l1-1 9-1 4-1-1 1-3 1-9 3c-2 0-5 2-8 1l-2 1-1 2 1 1-2 1h-1c-1 0 0 0 0 0h2l-1-1v-2l-1-1" class="B"/><path d="M361 280l1-4 4-20-1-9v-11c1-3-1-5-2-7l-2-4v-6l2-4 2-11c1-4 1-9-2-13 0-8 3-18 4-27l-1-5c0-2-3-2-4-2-2 1-3 3-3 5l-3 16v-1l-3-6c-3-4-7-6-10-8s-5-1-8-2v-3l4-2-1-2v-1l1-3-1-4h1c1-1 2-1 2-3s-2-4-4-6l-1-2-4-7c-2-2-4-2-6-2-2 1-4 0-5 2-2 2-5 4-5 7-1 5 0 10 4 12l1 2-1 2 1 2 2 3c1 2 0 3-1 3-2 2-5 1-7 2-5-1-7 3-10 5l-6 3v-18l1-2 1-1c1-2 0-3-1-5v-3-1h-1l1-1c-1-2-3-2-5-3-2 1-2 3-2 4-1 1-3 2-3 4 1 4 0 8-3 10l-3 12c-2 4-1 10-1 14 1 2 2 3 4 3h3l3-1-2 28v30l-1 20-3 3-4-1-9 2c-7 1-13 6-20 7l-5-1-6-2-5-2c-2-1-2-3-3-5h-3c-2 0-2 2-3 2-1 5 5 8 6 12 3 4 4 10 9 12h3c0-2 2-1 2-1 2-3 5-5 8-6l10-1h12c-2 4-5 7-9 10-3 0-7 1-10-2-2-1-3-4-5-4l-2 3-1 1 1 6 4 7c5 2 10 6 15 7 2 0 2-1 3-2 3-1 3-4 4-7l1-1c2-5 6-9 9-13v2a69 69 0 000 17l-3 3c-2 3 0 6 0 9l-2 1h-1l-2 1 3-1v2s0 1 0 0l1-1c1 2-1 3-2 3l1 1h2l1-3-2-1 1-1c2 2 1 6 3 8h1l4-8v1l1 1 1-2 1 1 1 5 5 2c3-1 5 2 7 0h1s2 0 2-2c1 2 3 2 5 2 6 3 13 5 18 4 4 0 6 0 9-2 0-2 4-2 6-2 2-2 5-2 7-3v1l3-1h5c2 0 4-2 4-3 2-3 6-5 6-10l5-1 4 3 13 1 4-2 5-3v-3c2-4-1-9-4-13-2-3-6 1-8-3h-3l-7-2-2 1-1 5-3 1-1-1 1-1-1-6-2-1-1 2-1-1h-2v1l-1-1-2 1v1l-1-1-6-3h-1"/><path d="M359 307l-2 2c1 2 4 3 4 5l3 4 1 1h-2-1l-14 4c-1-1-2 0-3 1-1 3-4 2-6 3-7 0-15-1-21-4-2-1-5-1-6-3h-1c0 1 2 1 1 2-2 1-4 2-6 0l-7-1-1-3 3-2-1 1-2 1-1-5h3l2-1 3 1 7 2c2 0 4-1 6 1h10c5-1 11 2 16-1l1-2c4-3 8-6 13-5 0 0 0-1 0 0l1-1" class="E"/><path d="M335 159l-1-1 1 1"/><path d="M329 310v-2c-2-1 0-3-1-5h1v3l1-1v-2l-2-3v-2l5 5v2c0 2-2 2-4 2l1 1v-1l4-1-1-4-5-5 1-1 1 1 6 5c2 1 1 3 1 5-2 2-4 5-7 4h-1" class="K"/><path d="M328 311v4l3 1c4-1 9 1 13-2l4-4 6-3v-1l4-3v1c-1 0-3 1-3 3 2 1 4 0 6-1l3-2-3-1h2c3 0 6 1 8 3 2 1 2 4 2 6 5-5-1-11 0-17l2-4 2-1h1l-1-1c-1-2-2-2-3-2h-4c-2-3-5-3-7-5h-1l-1-1a13 13 0 000 1l5 6 3 1c1 1 0 3 2 4 1 2-1 2-1 3l-2 1h-3l-3-2c-2-3-6-3-9-4-3-3 0-6 0-9v-2h-1l-4 2h-1l-3 3 1-2-3 1c-1 3-3 5-6 5h-1l-5 6 1 1c2 4 9 5 7 10l-4 5h-1c3 2 6 2 10 2h0c-4 1-7 0-10-1v-1h-5" fill="#a039a8"/><path d="M335 159l-2 5 2-3 2 1c3 0 5 2 7 3 6 1 10 7 11 12l1 2-2 13c-4-4-6-9-9-14l2 4-3 7-1 1-6-3-18-25v-1c2 0 3-1 4-3l3 3c0-3-1-6 1-8l-2-2c0-2 2 0 2-1l2-2v-2l5-1-3 1 3 2 2-2h-1v-2l4 1-2 1 2 4-2 1v-1h-1l1 1h1l-2 2h2l-1 1 1 1v1c-1 3-5 0-7 0-1 0-2 0-2-2l-1 1 2 2h4l1 2" class="E"/><path d="M294 153a15 15 0 010 2v1l1 2v2m4-10v-1 2"/><path d="M328 146l-2 2c-1 1-4 0-5 3v0c0 2 2 3 3 5v2l1 2 1-8-1-1v-1h2l1-3v-1" class="L"/><path d="M299 148h-1l-3 5v10l-3 43v18l-1 15c1 7-1 16-1 23l-1 25v8h4a321 321 0 011-35v-1l2-20v-16c1-7 2-15 1-22l1-22v-20l1-9v-2" fill="#965a46"/><path d="M294 157c-1 4-2 8 0 12l1-11-1-1" class="C"/><path d="M344 189v1l1-1"/><path d="M358 211l4-19 3 6c1 7-2 12-3 18-3 2-2 5-2 8v1c-1 3-4 2-6 2-1 3-4 3-6 3l-1-1 3-1c0-3 4-5 2-7h-1l-4 4c-1-3 2-5 4-7h1l1-1c2-1 4-3 4-5l1-1" class="E"/><path d="M358 211c4-15 4-29 8-43v-9l-3-2-2 2c-3 4-2 9-3 14l-6 34v3h-1l-5 1v3c1 2 4-1 5 2v1h1c2-1 4-2 5-5l1-1" fill="#c8c8c8"/><path d="M351 210l-1-2v-4c-1-2-4-4-2-6 1-2-1-2-1-3l-8-3c-3-1-6-3-6-6l-3-7-11-16-1-1h-7c0 7-2 12-3 19 1 2-1 5 2 6l1 1 2-26h1v1l-2 24c0 1 0 3-2 4h-1l3 4 2 1c1-1 2-1 2-3v-1c-3-2-1-6-1-9v-1c1 3-1 7 1 9l1 2 5 1h-5v1l4 1v1l-3-1-1 3-3 5c-3 6-4 12-4 18l-1 14-2 17c-1 3-2 5-1 8 2 2 5-1 8-1s6-2 10-1c5 2 11-1 17-2l7-6 4-8c0-3 0-6 2-8 2-3 5-2 8-1l3 1c0-4-3-6-5-10v1c-1 3-5 0-6 4l-7 1v-2l1-1a1 1 0 001-1c1-2 3-3 2-6l-4 5v-1c-1-3 2-5 4-7l-1-2-1-1h-3l-1-4 5-1h1" class="O"/><path d="M338 83l-1 2h-2c1-1 2-2 1-3l2 1" class="B"/><path d="M352 85h3l2 5-4-2-2-3c-1-1-2 2-3 1l-3-1c-1 0-2 2-3 0v-1l-1-1 11 2" class="C"/><path d="M326 83l-3 3c-2-1-4 0-6 1-2-2-3-3-5-3 5 0 9-2 14-1m15 1v1h-3l3 1c-1 1-4 0-3 3l-2-1v1l2-2-1-1 2-3 2 1" class="B"/><path d="M335 83l-1 5-5 4-3 1-4 1 1 1c2-3 5 0 7-3v1l2-1c2 1 7 0 9 3 2 1 5 1 5 4 0 2 3 2 2 4-2 0-4-1-5 1h-4c-1 0-2-3-4-2l-6-4-2-1h-6l1 1c3-1 6-1 8 2l4 3v2h1-8l-4-3-3-1v-2c-2 1-2 3-2 4l-5 5h1c-3 0-6 1-8-1h-2l2-3 1-2c3-2 7-1 9-4l1-1h-1-1l-8-3-1-4-2-4c3-2 5-2 8-2l4 3c2 2 2 5 3 7h1c1-1-1-3 1-4 0-3 3-3 4-5l2-2h8m13 16c3-2 5-4 8-2h5v-1h-3l-2-1h-8c-2-1-7 1-8-3l-2-4 4-2h1v1c2-1 3-2 4-1l2 1 2-1c2 3 4 4 7 5l1 2 6 2v0c-2-4-7-2-8-7l-2-5c3 1 6 1 8 3 3 2 2 6 4 8l2-4 3-2 6 1v2l-1 1c-1 1-2 3-4 2l-1 1-3 2c-1 4 5 3 5 7l2 2c-1 3 2 4 1 7l-4-2h-1l-2-2-1 1-1-2h-1l-2-4c0-2 2-4 3-5h-6l-5 6h-5c-2 1-1-2-3-1v-2l-2-2 1-1" class="D"/><path d="M347 99l-1-1-1-2h-1 7l-3 2-1 1" class="C"/><path d="M337 86l-1 2h-1l1-2h1" class="B"/><path d="M331 86l-9 7 1-2 8-5"/><path d="M323 86l-3 4-1 2-2-5h4l2-1" class="C"/><path d="M361 88l4 5-6-6c1-1 1 1 2 1"/><path d="M302 87c1 1-1 1-1 1v-1h1" class="B"/><path d="M270 117l3-1-2-1-2-3v3l-1 1 2 1" class="C"/><path d="M354 92l4 2c-3-2-8-1-12-3-2-1-4-1-5-3l3 2 10 2"/><path d="M336 89l-1 1 1 1h2v-1l2 3c-2-2-5-1-8-1v-1h-1l3-3 2 1" class="C"/><path d="M298 89l1 2h-1-2v-1l1-1h1" class="B"/><path d="M313 92l5 3c-3 0-5-2-7-3l-3-3c2 0 3 3 5 3"/><path d="M337 90v1l-2-1h2m43 1v1l-1 1v-2-1l1 1m4 0l-1 2-1-1 1-2 1 1" class="B"/><path d="M374 91h-1l-4 3c1-2 3-3 5-3"/><path d="M386 93v1l-2-1c-1-1 1 0 1-1l1 1" class="B"/><path d="M364 95l-3-2 3 2m17 8c-2-3-4-6-7-7v-1h-2l-1 1 1 2a32 32 0 018 4l1 1" class="C"/><path d="M382 104v-2l-6-6-1-1 1-1h2l-1-1 2 2h-3l1 1c4 0 6 3 8 5l1-1 1-2v2a51 51 0 008 15c3 4 7 8 12 9l3 1 3 4-7-2c-1 1-2-1-2-1l-9-5-5-5c1 0 0 0 0 0l-5-7-11-7c-1-2-5-2-4-5l10 6 1 1h1" class="B"/><path d="M379 94l-1-1h1v1" class="C"/><path d="M380 93l2 1-2 1v-2" class="B"/><path d="M309 96c-4 1-7 5-11 6l8-9c0 2 2 2 3 3" class="C"/><path d="M382 93h1l2 2 1-1-1 3v-2l-3-2" class="B"/><path d="M397 98h1l5 3v2l-2-1-4-2c-1 1-2 0-4-1l-4 2v2l2 4c-1-2-3-5-3-9h1v-2l-2-2 10 4" class="C"/><path d="M328 95l5 1 9 4c-4-2-9-4-13-4l-3-1h2"/><path d="M384 96v1l-1-1v-1l1 1m5 0l-1 2-2-1v-1c0-2 2-1 3 0m-6 2l-2-2h1l1 2" class="B"/><path d="M272 96c-2 3-2 7-3 10h-1l3-9c0-1 0-2 1-1m91 1c-3 1-6 4-9 4l-5-1c4 1 8 0 11-3h3"/><path d="M386 99h-1l-1-1 1-1 1 1" class="B"/><path d="M329 102h-1c-2-3-5-3-8-3h3c3 0 4 2 6 3"/><path d="M313 99c-2 1-5 1-7 3l-1 2-1 2-1 2h3c2 1 0 1 0 1l-23 7 4-2 6-6c8 1 12-8 19-9h1m54 0c-2 2-3 4-2 7l1 3c2-1 2 2 3 2l2-1 1 2c1-2 2 0 4 1h1c1-2 0-4-1-5 2-3-2-3-1-6l11 9 7 9-24-9c-10-4-18-5-27-5l-6-1-2-2v-1l3 1s1 2 2 1c2-1 4 2 5-1l6 1 1 1h4c3 1 4-3 6-4 2-2 4-2 6-2" class="C"/><path d="M315 100c0 2-2 3-4 4l-3 1 7-5"/><path d="M324 105l4 1h-8l-6 1c3 0 2-2 4-3 1-1 0-3 2-4-1 3 3 2 4 5" class="C"/><path d="M398 101c2 1 3 3 5 3 1 3 3 7 6 8l3 2h-4l-3-2c-2-1-4 0-7 1l-3-1c1-3-4-3-4-6l-1-5c2 0 3-2 4 0h4" class="D"/><path d="M426 122l1 1 1 1 1-1v-1l-1-1h-1l-1 1" class="B"/><path d="M426 122c0-2 0-3-2-3l-1 1-6-3h-1l1-1 1-1h-2v3l4 5c0 2-2 5 0 6l1 1-6-1c-2 0-2-2-3-3 0-1-2-3-1-5 1-1 1-3 3-3l1-1h-3c-2 0-2 4-5 2-1-1-1 0-2 1-2-1-4 1-5-1l-5-4 8-2c3 0 5 3 8 2l2-1c1 0 0 0 0 0-5-3-9-7-9-12v-2l6 3c4 2 4 5 4 8l2 1-1 2h1l3-4c3 0 5 3 7 5-2 2-5 0-8 0l4 1 5 4-1 1v1" class="D"/><path d="M264 104l-1-1-2-1 4-2-1 4" class="C"/><path d="M369 101c0 3 1 6 4 7v1c-2-1-3-4-4-6v-2"/><path d="M291 101l-7 8h-3l-4-1c2-1 4 0 6-2l5-2 3-3" class="C"/><path d="M409 108l4 3-1 1-5-8 2 4m-9 0c2 2 5 2 7 3l-4-1-8-5v-1l5 4m-137 0c-2-1-6 1-9 1a1 1 0 010-1h9"/><path d="M394 113l3 1h-1-1l-3-5c1 1 3 2 2 4m-145-1l-2 1c1-1 1-2 2-1" class="C"/><path d="M272 112h1-1m5 0l2 1-6-1a21 21 0 014 0M267 112l-7 7c2-2 4-6 7-7m158 2h-7v-1l-1 1c-1-1 1-1 2-1l6 1"/><path d="M317 115v3h-2a9 9 0 01-2-4h1v-1l3 2m-58-1c-2 1-2 3-3 5l-6 1v-2l-1-1c-1-1-1 1-2 1l-2 2c0-1-2-1 0-2v-1l2-1 6-1 6-1m183 17c-1-2-4-3-7-3l1-3-2-1h-2c1-2-2-3-3-4l-5-3 2-1 2 1 14 14" class="C"/><path d="M408 117v1l-8-1v-1l8 1"/><path d="M244 117v1h-1l-1 1-1-1 2-1h1" class="B"/><path d="M413 118c-2 1-3 3-3 5l-7-2c1 0 3-2 4-1h2l1-1c1-1 2-2 3-1m9 3l1 2h-2l1 3h2v-3h2l-1 3 1 1-5-1h-1c0-1 2-2 0-4l-3-3-1-1 6 3" class="C"/><g class="B"><path d="M250 119l-2 1-1-1v1a13 13 0 01-1 1l1-2 2-1h1v1m-11 0l-2 1h1c-1-1-2 1-2-1v-1l3 1M241 119c0-1 0 0 0 0"/></g><path d="M414 119l4 7a12 12 0 01-3-3l-1-4"/><path d="M244 120l-1 1h-1l1-2 1 1m181 1v2l-1-1-1-1 1-1 1 1" class="B"/><path d="M236 121v1l-3 1-2 1 4-3h1" class="C"/><path d="M241 121h-1 1m-4 1h-1l1-1v1m193 0h-1a1 1 0 011 0m-177 5l3-2v1l-2 1h-1" class="B"/><path d="M253 128l-4-1-9 1 4-1h1l5 1c2 0 4-1 4 1l-4 4c-2 3-5 3-8 4l1 1 2 1 4 1 2-2c6-6 14-11 21-15l-7 1-2 1-1 1-1 2h-1c-2-1-2 2-3 1l-3-1h-1" class="C"/><path d="M432 123l-1 2-1-1v-1h2m-8 1v2h-2v-2h2m-160 0l-1 1h-1c0-1 0 0 0 0v-1h2m164 1v2l-2-1v-2l2 1" class="B"/><path d="M430 126h1l1 2-3-1v-3l1 2" class="C"/><path d="M435 125l-1 3-1-1-1-2h1l1-1 1 1" class="B"/><path d="M222 139l2 4h2c2-4 5-7 6-11l-3-7c-2 2-6 5-7 8v6" class="D"/><g class="B"><path d="M222 139h-1l-2 2-4 1-2 1 4-5 4-4v5m41-13l-1 1h-2v-1h3M257 126h1-1"/></g><path d="M317 198v-1 2"/><path d="M317 196v-1h-1c-1 1-2 2-4 1-2 0-1-3-3-4l-1-4h1l1 2v-1l-2-3 1-10h-2 1l-7 2-2 1-1 30-2 26-1 18 1-1c2-1 3-3 5-2l5 3c1-9 4-17 3-27l1-8 1-5c0-5 3-9 5-13l1-2v-2" class="C"/><path d="M309 175l1-10v-3l-2 1c-3 3-5 5-9 6v-1 1a64 64 0 010 9l8-2 2-1" class="E"/><path d="M331 128l4 7c-2-1-5 0-8 1-3 2-3 6-5 9h1c2-2 1-6 4-8l2-1h6c2 3 6 5 6 8l-1 1-1-1h-8c-1 1-3 0-3 2l-3 1-3 1c-1-3-5-4-5-7-2-5 1-10 5-13l1-1c2 0 6-1 8 1" class="O"/><path d="M258 127l-1 2-2-1 1-1h2m171 1c3 2 8-1 12 2l4 5c-2 2 1 5 0 7-1-1-3-3-3-5h1l-3-3-19-4-1-1v-2l9 1" class="B"/><path d="M248 130v1c-4 0-8 2-12 4v1l-3 2c1-3 4-3 5-5l5-2 5-1m-20 2l-3 10c0-4 1-7 3-10"/><path d="M397 132l-1 3-1-1 2-2m49 2l-1-1 1 1m-6 2l-1-1 1 1" class="C"/><path d="M299 137l-4 1-3 3h1c2-1 2-5 5-3l1 2-5 2h-1 2l4-2 1 3-4 1c1 1 4-1 4 1v2l-1 1-1-1-4 5-3-1 3 2-1 7c-2 4 1 8 0 12 0 1 0 0 0 0v-2 11l-6 1-3-2-1-9c1-6 4-12 4-18 4-2 4-7 4-11 0 0 0-2 2-2l2-4 4 1" class="E"/><path d="M245 140h3l-4 4-6 3c-1 0-3-1-3 1l-5-3-1 1-1 1c2 1 2 3 2 5v5l-2 8c-1-3-1-5-3-7-1-1 0-2-2-3l1-6v-1l-1 1-1-2-4 2h-1l-8 2h-1c2-4 6-10 11-9 3-1 4 2 6 2h3c3 0 4-5 7-5 3-1 6-2 8 0l2 1" class="D"/><path d="M223 142l-3-1 2-2 1 3" class="C"/><path d="M448 140l2 9c-1-3-1-7-3-10l1 1m-207 3l-11 1v-1h11"/><path d="M445 145v-1 1m-228 5l4-2c-2 5-4 11-4 16v-14" class="C"/><path d="M216 151v14h2v-1c0-6 2-11 4-16 2 1-1 2-1 4-2 5-2 10-2 15l1 1 1-1 1 1-1 1v-2l-1 1v6l-6 15-3 4-1 1-1-5c3-2 2-5 5-7 1-1 3-2 4-5v-1c-1-2 2-3 1-4h-4c1-3 0-6-1-9l-2-1h-3l-1-5 4 2 1 2v-10l3-1v1" class="B"/><path d="M209 162l3 4-1 5c-1 4-5 7-7 10l7-7c1-1 4-1 3-3l-1-8-3-1h-1" class="C"/><path d="M221 145l-5 2h-3l6-1 2-1"/><path d="M334 146v0" class="C"/><path d="M319 131c-2 2-2 5-2 7 0 4 0 4 2 6l3 3v1h2l2-1 1-1 1-1 4-1h4c2-1 4 0 4 1v-3h-8l-5 1-1-1h-1l-2 4v-3l1-2-1-2c-2-2-3-3-3-7v-2l-1 1zm-8 31v4l-2 9-1 8v3l1 1 2 1 1-12a87 87 0 011-14v-1l-2 1zm2 12v6c-1 8-2 10-3 11v2l1 1 2 1 3-2-1-1-1-8 1-2h1l-1-1-1-4v-4l-1 1zm4 20l3 2h1l1 1c1-1 5-1 9 1h4l4 1 4 3v-1h1v-1l-2-2-2-1c1-1 0-1-3-1h-2-1l-4-1h-3l-1-1h-1-3-4-1zm-1 8l-4 6-2 13c0 14-1 15-2 25l-2 11v3h5v-2a12 12 0 011-2v-5l1-5v-2l-1-10a94 94 0 000-13l1 9a239 239 0 012 22v-9l1-1h3l4 4 1 1-1-2-2-7-1-12v-11-7-4-8h-2l-2 6zm1 4v6a29 29 0 000 11c-1 1-1-1-2-3l2-12v-2zm27 7l-5 5-2 8v2 9l1 6 1 2 1-2v-1l1-2 2-7 3-3 1-1 1-2 3-3 1-2-2 2c-3 2-3 2-3 0v-3l3-3v-2l-2-1h-2l-1-1v-2l-1 1zm2 3l-1 2a23 23 0 00-2 3l-1 2c-1 0 0-4 2-6l2-1zm3 2l-1 1-3 3-5 11v2l-1-1h1c-1-1 0-3 1-5l5-10c1-1 2-2 3-1z" fill="#6eb4f0"/><path d="M326 147a5 5 0 011-1c1 1 0 1-1 1" class="L"/><path d="M432 146h1-1m-99 1" class="C"/><path d="M227 151l2 8-1-2-2-8 1 2m215 0l3 2-5-2c-2 0-5 0-7-2h1l8 2"/><path d="M454 152l-3 1c0-2 1-2 2-3l1 2m-232 1v1c0 2 2 2 2 5h-1l-2 1v2l-1 2c0-4 0-8 2-12l1-2-1 3m-10-2v7c-2 0-4-1-5-3v-1l2-2 3-1" class="C"/><path d="M458 158l-6-3v-1l6 4"/><path d="M323 155" class="L"/><path d="M461 156v1c0 1 0 0 0 0l-1-2 1 1" class="B"/><path d="M211 166c1 2-1 4-1 6l-6 8-2 3 2-1 4-4c2-3 5-5 8-5l2-1v4c-2 1-1 2-2 3-2 3-6 7-10 5l-2 1c3 2 6 4 5 8 1 2 2 4 1 6l-2 3h-1l1-1-3-1c1-1-1 0-1-1l-2-4c-1-3 2-4 1-7l-1-3c-2 3-6 3-6 7l-2 1c-1 1 0 3-2 2l-1 2-1-7 2-3c2-1 3-3 5-3l1-1c-2-1 0-3-2-4v-3c1-1-1-3 1-4-1-2 1-3 1-5l2-1c1 2-1 5 1 7v10l1-1c1-4 0-8-1-11v-3-2l5-10c3 2 1 7 5 10" class="D"/><path d="M463 159l-2 1c1-1-1-2 1-2l1 1m-238 1v2l-2 1-1-2h-1l1-1c1 0 0 2 1 1v-2l2 1" class="B"/><path d="M455 161h1l-1 8v2l-1-6-2-5 3 1" class="C"/><path d="M464 162h-2v-1l-1 1v-1l2-1 1 2m-241 0a3 3 0 01-1 2l-1-1c1-1 1-2 2-1m242 2l-1 1h-1l1-1h-1l-1-1h2l1 1m-3 0c1 2 0 2-1 3l-1-2 1-2 1 1" class="B"/><path d="M327 166h2-2l-4-2h2l2 2m-120-1l-2 10-1 4 2-8v-7l1 1"/><path d="M221 166h-1a2 2 0 010-2c1 1 2 1 1 2" class="B"/><path d="M343 165l-7 1h-2 3l5-1h1m-11 1h-2v-1l2 1"/><path d="M464 168l-1-2 2-1-1 3" class="C"/><path d="M321 169l5 9c2 4 2 9 6 13l6 4v1c-2-3-6-3-8-6-3-6-4-13-8-18l-3-6 2 3"/><path d="M468 170l1 2 2 3c0 4 1 9-2 13v3c-3-6-3-12-3-18h-1v4l1 6v3l2 6-1-1v-1l-6-5 1-2-1-5c1-1-1-4 2-5 0-2 0-3 2-4v-1l1 1 2 1" class="D"/><path d="M450 171h-2v-1h2v1" class="B"/><path d="M316 181l5 4c1 3 4 6 7 6l3 1h-1c-2-2-6-1-8-4-1-2-2-5-5-5-4-3-2-9-2-13 0 4-1 7 1 11"/><path d="M462 170l-1 3-1 7c-1 2 2 3 0 4l6 7-4-3c-1 1-2 0-3-1l3-17" class="C"/><path d="M453 172l-1 1-1-1v-1s1 0 0 0c1-1 1 0 2 1m-3 0h-1 1m0 1l-1 2-1-1-1-1h3" class="B"/><path d="M198 173c-1 4 3 6 2 10 1-4-3-7-2-10"/><path d="M451 174v-1 1m2 4h-2l-1-1v-1h-1v-1c1 1 1-1 2-1l2 4" class="B"/><path d="M214 176v1l-8 6 1-1 2-1 5-5"/><path d="M338 188c3 1 5 4 8 4l1 1v1c-4-1-9-2-12-5l-4-10c2 3 4 7 7 9" class="O"/><path d="M344 180v5s-2 2-4 1l4-2-2-6h1"/><path d="M196 181v1l1 1-3 1 2-4v1m277 1c1 3-1 5-3 7v2c-1-2 0-3 1-4l1-7 1 2" class="C"/><path d="M474 203l1 1 5 4-1 3c0 2-2 4 0 6l-3-1v2c-1-5 0-11-3-15h1" class="B"/><path d="M472 203l-2 1v5l-2 1-1 3c-2-3-3-6-2-9l3-3-1-1c-1-1-3 1-4-1 0-1-2 1-2-1l-1-2c-3 1 0-3-2-3l-1-1v-3h-1c2 0 3-2 5 0l2 1c2 1 4 1 5 3s1 5 3 6l1-1-2-5c0-4 3-5 4-7v-4l2 2c-1 2 2 4 2 6l-1 2h1v1l-1 3-3 3h3c1 0 3 0 4 2-1 1 2 3 1 5-1 1 1 2-1 3-2-2-4-6-7-6h-2" class="D"/><path d="M342 183c1 1 0 0-1 1v-1h1"/><path d="M209 189l-3-4 5-1-2 5" class="C"/><path d="M198 184l-2 2-5 6c1-3 3-7 7-8m277 3l-2 10 2-11v1"/><path d="M202 188c-1 2-2 5-5 7-2 2-4 6-2 10h1c0-3 4-4 5-7l1-1 2 3-7 9-2 2c-1 2 0 4 1 6v3h-1v1c-1-1-1-2-3-2l-1 3-2-1-1-2c1-1 3-2 2-4 0-1 3-3 2-4l2-1v-4l-1 1 1-2-2-1c-1-6 3-9 7-12v-4l3-2v2" class="B"/><path d="M207 198h-1c0-4-1-7-3-10h1c2 2 3 6 3 10"/><path d="M198 193c-4 2-7 6-7 11l-2 1c1-2 0-5 2-6l1-3 2-1 1-2c3 0 2-3 4-4l-1 4m4 4l-6 5v1c-2-2-1-5 1-7s5-4 5-7c1 2-3 5 0 8" class="C"/><path d="M468 197l-1 1-7-5v-1l8 5"/><path d="M471 196v2l-3-5h1v-1 1-1l2 4" class="C"/><path d="M328 195c2 0 5-2 6 1v1l-1-2h-6 1m16 4c2 2 2 5 5 6v3l-1-3c-4-2-3-7-7-7l-1-1 4 2m-23-2c1 3 0 8-1 11l1-6v-5m4 3h1l2 17 3 5-1-7 1 5 1 3v-4c1 3 0 6 2 9l1 4c-1 1-1 0-1-1l-1-3 1 3h-1l-1-5-1-2c-3-5-4-10-5-15l-1-7-1 5 3 18c0 4 3 7 4 10 2 3 1 8 2 12 0 1 0 5 3 5h-1c-3 0-2-4-3-6-1-4 1-8-1-11-3-4-5-8-5-11 1-6-1-12-2-18v-8h1v2m155 4l-1-1-4-2v-1l5 4"/><path d="M467 201l-3 2v-2h3" class="C"/><path d="M344 201l-2 5 2-5"/><path d="M207 202v2h-2v-1l1-1h1m2 1l-1 1v-1l1-1v1" class="B"/><path d="M469 203l-1 4v3l-1-2 2-6v1"/><path d="M474 206l1 12 1 1-7-8c-1-1 0 0 1-1l1-6c1-2 2 2 3 2" class="C"/><path d="M345 204v4-3-1"/><path d="M193 206l-1 2-1-1h-1l2-2v-1l1 2" class="B"/><path d="M317 223l-1 1v-3c-1-6 1-10 1-16 0 6-2 13 0 18"/><path d="M205 210v2l1 3v6l-6 8-1 6v-3c1-5-4-9-2-14l2-6c1-1 2-1 2-3 2 0 2-1 3-3l1 4" class="D"/><path d="M334 209c1 1 1 2 3 1l2-1-3 2a3 3 0 01-2-1l-1-2 1 1"/><path d="M191 208v2h-1l-1-2h2m2 0v2h-1v-2h1" class="B"/><path d="M204 208c-2 7-5 14-4 20h-1l2-10 2-10h1"/><path d="M198 210v1l-1-1 1-1v1" class="B"/><path d="M357 210v1l-5-1h5"/><path d="M197 210l-1 2v-1-1h1m-6 2v1l-2 1v-3h2v1" class="B"/><path d="M344 212l-6 8-1 8h-1v-2 5c2 6-1 10 2 15l-1-3-1-11v-10l1-5-1 8v1l2-7 6-7"/><g class="B"><path d="M465 214l-1-1 1 1m-275 1l-1-1h1v1M481 215l-1 1-1-1 1-1 1 1m-292 1l-1 2 1-3v1M466 215l1 1-2 1-1-1v-1h2"/></g><path d="M345 217c-1 2-3 4-3 7h-1c0-3 2-6 4-7"/><path d="M478 218v1h-1l-1-1 1-1h-1c1-1 2 0 2 1m-9 0l-1 1-2-1 1-1 2 1m12 0v1l-1 1-1-1h1l-1-1v-1l2 1" class="B"/><path d="M349 218l-3 2c-2 4-5 9-6 14v2h-1v-2l2-4c0-3 2-6 4-9h-1c2-1 2-3 4-3h1"/><path d="M483 222l-1 1c-1-1-2-2 0-3v-2l1 4" class="B"/><path d="M195 221l1 3c1 3 3 5 2 8-3-3-2-8-7-10 1 0 1-3 3-2l1 1" class="C"/><path d="M479 221l-1 1-1-2c1-1 1 0 2 1" class="B"/><path d="M210 229l-2 2v3l-7 3c1 1-2 2 0 2s4-1 6 1l3 6v7h-3c-1-2-1-4-3-5s-1-4-3-6l-2-1-2 1v6c-1 1 0 4-2 4l-2 1-1 2c0-5 2-9 3-14l-1 1c-1 4-3 9-3 14l-1 1-1-2v-3-5c1-2 4-3 3-5l1-3c-5-3-5-8-5-12v-5h1c3 2 7 4 6 8l2 3v2l1-1 2 4v-1c1-3-1-7 2-9 2-3 4-6 8-8v9" class="D"/><path d="M467 222l-1 1v-2l1 1" class="B"/><path d="M480 221l2 4v2l-3-5 1-1" class="C"/><path d="M313 222l1 17v16l-1 1 1-17-1-2v7h-1l1-19-1-4 1 1"/><path d="M469 222c-1 1 1 1 2 2s-1 4 2 3l1 4v6c-1 4-5 6-4 10l1 2 1-4c2-1 0-5 4-5l1-1 1-2 3-1v7c-1 2-2 5-4 6h-4l-2 2h2c2 1 4 4 5 7l1-1c-1-3-3-6-7-7h4l3 3c0 3 0 5 2 6l-1 2-3-1c-2 0-2-2-3-3v-1l-2 1v-4l-1-1-3 1-2 3h-1l1-2 1-1 1-1-3-2-4 2-1 4 4-5 3 1c-4 1-2 6-5 7-1 2-3 4-5 4l1-5c0-3 0-7 4-9h4l1 1h1c1-1-1-1-2-2-2-1-6-1-6-4l-1-4c-1-3 1-5 1-7l2 1 2 1c0 2 1 2 2 3l3 11c0-4-1-10-4-13l-1-2-1-2 2-2v-2-2l2-2 1-1v-2l1 1" class="D"/><path d="M321 223c0 6 0 12 2 18v6l-2-15-1-10 1 1"/><path d="M476 230v9l-3 2-2 4v1c-1-3 3-6 4-9 2-3-1-6-1-10l-2-1-2-4c3 2 4 5 6 8" class="C"/><path d="M209 224c-4 3-5 7-7 10l-1 3c-1-1 1-2 1-3 2-3 3-8 6-10h1m146 0c-2 1-2 5-5 6h-2l2-1 2-1c1-2 1-4 3-4m-163 4l6 12h-1l-7-14 2 2m278 1c-1 4-2 7-1 11v-1c-1-4-1-7 1-10"/><path d="M223 286c-1-4-2-8-6-11l-2-6c-2-1-1-3-2-4l-1-1 2-2-2-2h-1v-2-2h-3l-5-7c3 0 3 3 3 4h5v-4l-1-5-5-6-4 1c1-2 4-2 6-4h1l1-4 1-1 1 18c2 8 3 16 7 24l8 18c3 7 9 13 13 20l1 1v1l-1 2c0-3-3-4-2-7l-5-4-6-1-1 3-1-5v-2l1 1 4 1v-1-1l-2-3c-1-3-1-6-4-8v-1" class="C"/><path d="M222 287c-1 0-2 0-2-2h-2l-2-6v-6c0 2 2 4 4 5l2 8v1m1 12c1 3 2 7 0 9 0 1-2 2-1 3l-1 2v2l1 2v1l-2 1c-3-1-4-3-4-6v-5 1l-1-1v-3-2c0-4-2-8-4-12l-2-1h2c2 4 5 7 6 11 0 1 0 3 2 4 2-2 1-5 2-7h2v1" class="B"/><path d="M241 311l4 7v1l1 3-3 5h1c2-2 3-3 6-2 1 0 3 0 4 2l4 2 1 2c-3 1-6 3-9 1-2-2-3-3-5-3-2-1-3 0-5 1l1 2 3 5v5h-2c-2-1-3-3-5-2l-1-3s-2-1-2-3h1l-1-2h1v-3c-2-2-5 0-7-1l-4-2c0-3-4-3-4-5l1-2 4-1c1 1 2 3 4 2 1-1 4-1 5 1 0 1 1 3 3 3l2 3c-2 0-3-2-5-3l-8-3v1l11 5 3 1c1-1-1-2-1-3l2 2-1-2-2-3 1-1-1-2 2-7 1-1" class="D"/><path d="M344 233c-1 3-1 7-5 9 4-3 3-8 5-11l1-1-1 3"/><path d="M192 239l-1 5-2 2-2-15c1 3 2 6 5 8" class="C"/><path d="M351 232l-1 1-1 7c0-3-1-6 2-8"/><path d="M365 235v-2 2" fill="#1846e2"/><path d="M365 237l-1 10 1 7c0 7-1 14-4 21 0 3-2 6-1 9h1v-1c3 2 3 6 7 6l1 3h-2l3 1 1 1-2-1-1 1 2 1-1 1-1-2-2-1 1 2 1 1h-1v-1h-1l1 2c-2 1-2-3-5-2-2-3-6-4-9-5l-1-2 2-8-1-1c1-6 1-12-1-19l2-9v1l1-1h-1v-1c0-1 0 0 0 0l-1-2v-6c-1-2 0-5 1-7l2-1c3 0 7-1 9 3" class="E"/><path d="M463 241l3 5-2-3c-2-2-3-5-2-8l1 6"/><path d="M461 247l2 1c-2 0-4 2-5 4-1 4 0 7-2 11l1 1v1h-2l-1 3v1h1l-8 12-2 4 6-15 5-19 2-13c1 3 0 6 3 9" class="C"/><path d="M355 240v4l-1-2 1-4v2m6-1c-1 1 0 2 1 3l-2-1 1-2M479 240l-6 9 2-4 4-5m-271 10v1c-1-4-3-7-6-10h1l5 9M317 242l3 11v1c-1-4-4-8-3-13v1"/><path d="M199 243c1 4 1 7 3 10v1l-3-2c-1-1-3-1-2-3l1-6v-1l1 1" class="C"/><path d="M351 250c-2 1-1 3-2 5l-6 5-3 2c-5 0-7 3-11 3h-1v-5l10-2 6-2 5-5 3-7c0 2 2 6-1 6" fill="#4696e6"/><path d="M353 251l-2 11c2 6 2 12 2 17l-5 2c-2-2-5-4-8-3s-7 1-9 3c-1 2-2 5-1 7h-3l1-3 1-4c1-5-2-10-1-16l6-1 3-1h3c3-4 8-3 9-8 2-2 1-4 4-5v1" class="C"/><path d="M315 281l-4 3v-2l-4 2c-1 1-3 3-2 5v1c-1 0-3-2-5 0a6 6 0 00-1 2l-1-4v-11l1-5v-8c0 2 1 6-1 8l-4 5 1-19v-4a10 10 0 014-4l7 4c0 2-2 4-1 7 2 2 5 2 7 2 1 3 3 5 3 9l1 8-1 1" class="E"/><path d="M315 282c-1 1-3 1-3 3l3 4c0 1 2 2 1 3l-6-9c-2 1-4 2-5 5l1 2 13 5v1l-6-3-12-3-2 5h6l11 3 4 1-8-1c-5-2-10-4-15-2l-1 2-1 2v1h1c3-2 7-1 11-1h13l1 1h-25l-1 3 1 4 2 2 19-3 3-1v1c-7 1-14 3-22 3l1 2h5c2-2 3 0 4 1l11-3 2-4v-4c-1-6-5-10-5-15v-5h-1" class="M"/><path d="M471 253v4l1 1c-2 3-7 5-9 9l3-9 2-4 2-1h1" class="C"/><path d="M210 258h-1l-1-1 2-1v2" class="B"/><path d="M198 262c4 0 4 4 7 6v11c0 2 3 2 2 4l-1-1c-2-3-6-1-7-4-3-3-6-6-6-11 0-1-3-4-1-5 2-2-1-3 1-5l5 5" class="D"/><path d="M209 259l-1-1 1 1" class="C"/><path d="M211 260l-1 2c-1-1-2 1-2-1l1-2c1-1 1 0 2 1" class="B"/><path d="M317 264l-4-1 3 5v-2l1-2v2m0 0l1 4v-3-2" class="C"/><path d="M318 265l-1-5 4-1 5 1-1 2 1 1 1-2v-1 10c0 5 3 10 0 14-2 7 1 15 1 21-1 2 2 5-1 6v4l-1 1h-4v-2l-1 2-1-1s2-1 0-1l-1 1v-1-1c0-1 0 0 0 0h-1l3-5 1-4v-2l1 2c0-5-4-8-5-13-2-4-1-9-2-13l1-11 1-2m-29 10c-1 3 1 8-3 10l-1 2-2-1-5-5 2-4 1-1 4-8 4-8v15" class="E"/><path d="M231 262l2 6 5 5 1 1 5 8 3 3h-4l-7-10c-1-5-7-8-7-13h2" class="P"/><path d="M231 261l3-1c2 2 1 5 4 6l5 2-5 4c-1-3-5-3-5-6l-1-4-1-1" class="E"/><path d="M317 261v2l-5-1h-3l7-1h1" fill="#4696e6"/><path d="M213 262l-1 1-1-2h1l1 1" class="B"/><path d="M195 261l10 16-1 1v-1l-5-10-5-6h1m39 1c2 1 3 3 3 5l1 1-1-1c0-3-4-3-4-6l1 1m87 0l2 3-3-3h1"/><path d="M287 262l-7 15-7 1h-7l-1-2-2-7-1-1 9-4 7-2v1l9-1" class="E"/><path d="M211 264l-1 1-2-1 1-1c1-1 2 0 2 1m248-1v3l-2-1v-1l2-1m15 1v1l-2 2h1l1-1 1 2v2c-1-1-3 1-2-1v-1h-3l4-4m-18 2v2h-2v-1c1 0 1-2 2-1" class="B"/><path d="M321 269l-2-3 2 2v1"/><path d="M459 268l-1 3h-2v-2l1-3c1 1 2 0 2 2" class="B"/><path d="M215 272c-1 4 1 6-1 9-1 1-3 2-3 4l1 1c2-1 4 1 6-1 1 0 1 2 3 2s3 3 4 4c0 3 1 5 3 7v1l-7-2c-3-1-5-5-8-7l-3-1-2 1v4h1l1 3-1 1c1 2 0 4-1 6-1-3-7-4-4-8v-7l-5-2c-2-1-2-4-3-6l-2-8c2 3 4 6 7 7l2 1c0 2 2 3 3 4l2-1-1-6v-6c1-1 3 0 3-2 1-1 1-3 3-3l2 5" class="D"/><path d="M326 267l-1 2h-1l2-2m92 1l2 1h2c1-1 1-2 2-1 1 0 1 2 2 1h1l3-1 1 1v1l3-2-2 6-3 6h-4c-6 1-12 2-17 0-1-5-1-9-4-12h1l3 2 3-2 3 1 2-2c1 0 1 2 2 1"/><path d="M475 271l1-2v-2l-1 4" class="C"/><path d="M416 270h-2l2-2v2" class="N"/><path d="M244 268c0 2-4 3-5 5l-1-1c1 0 2 0 1-1l5-3" class="J"/><path d="M424 269l-2 2-1-1 2-2 1 1m-14 1h-1l2-2c1 1 0 1-1 2" class="N"/><path d="M241 273l1-1h-2l1 1" class="E"/><path d="M254 270h-2v2l-1 4h-3l-1-2 2-4-4-2c0 2-4 3-3 5l-1 1-1-1h-1l3 5v-1h3l1 2h3v2l-1 3h-1v-1 1l1 1c2 0 1-3 1-3l2-2-6-4h1l5 2 1 2-2 3 4-4-2-2v-4l1-1v-1l3 7h2l-3-7" class="J"/><path d="M255 271l3 5-2-6h-1v1" class="E"/><path d="M264 276l1 2h-2l-2-8-1-1 2-1 2 8" class="J"/><path d="M423 271l3-2c1 1 1 3 3 2h1l3-2-1 2v-1l-1 1h1l-1 3-2 5-2 1c-5-1-12 2-17-1h-2v-3h4v-1h-4l-2-6 3 2 2-1h1v-1c2 0 2 4 5 2l2-2c1 0 2 3 4 2" class="N"/><path d="M469 270h-1l2 2v1l-1 1h-1v-3l-1 1-1 1c1 0 0 0 0 0v-1-1l4-2-1 1" class="B"/><path d="M429 271l-2-1 3-1s1 2-1 2" class="N"/><path d="M472 269v2l-1 1-1-2 1-1h1" class="B"/><path d="M260 269v2l2 7h-1l-2-8 1-1" class="E"/><path d="M259 269l1 9h-2v-2l-1-6 2-1" class="J"/><path d="M247 270l-2 2 2-2"/><path d="M252 270l-2 6h-2v-4l2-2h2" class="E"/><path d="M474 271v3l-2 1-1-2 1-1 1-1h1" class="B"/><path d="M212 272l-1 10h-1l2-11v1"/><path d="M243 274h1l1-1h-1l-1 1" class="E"/><path d="M244 273h1l-1 2h-2v-1l2-1"/><path d="M255 276v3c-1-1-4-2-2-4v-2l2 3" class="E"/><path d="M456 281l-1 6-2-4 1-1 3-4 7-4-8 7m11-7l2 1c2-2 3 2 4 0h1l-5 15-3 1h-1l-2 1 4-5v-2-11m-169 13v8c-2 0-3 1-3 3-1 2 1 3-1 4v1l-1-1 1-3-1-4 1-18h1l3-3v13" class="C"/><path d="M431 275h-1v1-1l-1 1h-8 1l8-1h1l-1-1 1 1m-11 1h-6v-1l6 1"/><path d="M246 280h3l-1 3h-2l-4-5 2-1c1 0 0 2 2 3" class="E"/><path d="M464 277c-4 5-3 12-6 17l-3 7c3-5 4-9 5-15 0-3 1-7 3-9h1m-37 1v0m-230 0l8 7c-1 1-2-1-3-1-2-2-3-4-6-5v-1h1"/><path d="M331 288c1-1 2-1 1-2l3-1c2 0 1 2 1 3l3-2c2 0 2-3 4-4 2 1 3-1 4-1l-2-1c-3-3-7 0-11 0-2 0-3 3-4 5l2-2h2l-4 3 1 2" class="E"/><path d="M330 289h-2v-1h-1v5l4-4h-1" class="M"/><path d="M217 285l-5 1c0-3 3-4 3-6l2 5m-13-4l1 1 2 2c-2 0-3-2-4-3h1" class="C"/><path d="M283 288l-6-5v-1c3 1 5 4 7 6v1l-1-1" class="J"/><path d="M282 289v-1l-5-5h-1v1l7 6h-1l1-1h-1m-4 8a7 7 0 00-2-3h-1l-1-2v-1l6 4-1 2h-1m-14 2l-8-7v-1h1l-3-1 1-1 2 1 1-1-3-1s-2 0-1-2l2 1c0-1-3-1-2-3h1l1 1v-1l-1-1 4 2c2 1 3 4 5 4h6l1 2v8l-2-1-1-4v1h-1l-2 3-1 1" class="E"/><path d="M266 298l1-2 2 3h2a1 1 0 001 0l-1-10c3 0 2 3 3 5l-1 1h3l1 2 1 2a5 5 0 000 1h-12l-1-1 1-1" class="J"/><path d="M378 286v2h-1c-1-2-2-2-4-2v-3l2 2 1 1v-3c2 0 1 2 2 3m-6-1v1c-1 1-2 0-3-1 0-1 3-2 3 0" class="E"/><path d="M453 300l-1 1-2-8v-9c-1 6 1 11 3 16"/><path d="M275 285l7 5h-1l1 1-2 3-7-5-1-1 1-1 7 5h1c1-2-3-2-4-4-1-1-5-2-2-3" class="J"/><path d="M253 288l1 1v1l1 2c2 4 6 5 9 8 4 1 6 5 10 4l-2 2-14-8c-3-2-4-5-6-8l1-5v3" class="P"/><path d="M336 286l-1 2-7 8c-2-2 1-3 2-5l3-3v-2h3" class="K"/><path d="M279 291l-6-4 1-1 5 5" class="E"/><path d="M204 290c0 2-2 4-1 6l-4-8 5 2" class="C"/><path d="M224 295l-2-1-8-6 10 7m-18-4l2 10c-1-4-3-7-2-11v1m63-1c-1 1-3 1-3 3h-1c1-2 2-3 4-3"/><path d="M215 293c2 3 6 3 5 6l-1 5-4-10-2-4 2 3m-2 4l2 6c-2-1 0-3-3-4h-1l-1 1c-1-2 1-2 1-3l-2-3v-3c2 1 3 4 4 6" class="C"/><path d="M265 294l-2-2h-3 4l1 2"/><path d="M451 301c-2-1-5 0-7 1l2-8 5 7" class="C"/><path d="M293 295v4h-4v-4h4" class="P"/><path d="M463 297l-3 2-4 3 3-3 4-2"/><path d="M292 300c1 1 0 3 2 4v1h1c2 6-3 11-5 17v1l-2-4-3-11 2-3 2-2v-3h3" class="K"/><path d="M213 301l-1 2h-1l-1-2 1-1 2 1" class="B"/><path d="M273 301h4l-3 2c-3 1-4-2-7-3h4l2 1" class="E"/><path d="M451 302c-2 4-4 9-8 10-1 1-3 2-4 1 1-3 1-7 4-9l2-2h6" class="D"/><path d="M213 303v1l-1-1 1-1v1" class="C"/><path d="M232 304l3 2c2 1 1 4 2 5l1 4-1 5-7-14-1 1 8 14h-1l2 1c-1 1 0 2 1 3-1-2-4-2-4-5l-4-1c-4-3-3-7-6-11a15 15 0 011-5c2-1 4 1 6 1" class="D"/><path d="M460 303l-2 4-1 2-2-5 5-1" class="C"/><path d="M212 304l-1 2h-1l1-1v-2l1 1" class="B"/><path d="M320 304c-7 1-14 3-22 1h-2v-1l1 1c8 1 16 0 23-2v1"/><path d="M215 304l-1 2-1-1v-1h2" class="B"/><path d="M289 304l2 6 1-4-1 5-1-1c0-2-2-4-1-6"/><path d="M372 308v6l-2 1-6 2v-1l5-5v-1l-5 6c-2 0-2-2-2-3l7-5v-1h-1l-3 3-4 2-3-3 7-5c3 0 5 2 7 4" class="M"/><path d="M447 305l-1 1-5 5 2-2 4-5v1"/><path d="M225 308l-2 1 1-2 1-2v3m-10-1h-2l2-1v1" class="C"/><path d="M213 308l-1 2-1-3 2 1" class="B"/><path d="M454 309v4l-1-8 1 4"/><path d="M215 310l-1 2-1-1v-1l1-2 1 2" class="B"/><path d="M296 309c-1 1 3 3 1 3-1 1-1 2-2 1l1-4" class="C"/><path d="M225 309v2h-2l-1-1 3-1" class="B"/><g class="C"><path d="M227 312c-2 0-1-1-1-2l1 2m91-1v4l-2-1-6-1 8-2M225 312l-1 1h-2v-1h3m39 25h1l2-1-1-2-2 1-2-1h1l-1-2h-2l-1-3c-2-2-5-2-6-4-3-1-6-2-9 1 1-2 3-4 2-6l-2-5-2-3 19 17 15 10c-3-2-7 0-11-1h-1v-1"/></g><path d="M263 337v1h0v-1" class="B"/><path d="M306 312h-1 1" class="E"/><path d="M215 312" class="C"/><path d="M227 313l-1 1v-1h-1l1-1 1 1" class="B"/><path d="M444 312l-2 5v-1-1l-2 1-1 1v-3l5-2" class="C"/><path d="M396 339v2l2-1-1-1h-1" class="B"/><path d="M396 338l5-3h3l4-1 6 2h1c-1-2-3-5-2-8l3-2 5-6v7c0 3-2 6-4 9l2-1c1-3 3-5 3-8l1-4c2-2 2-6 5-7l7-4c-1 2 1 4-1 6-1 2 1 3-1 4 0 4-2 7-4 9l-7 2-4 3s-2 0-1 1h2-1 2-1 1c1-2 2 0 4-1h3l1 1v1h1l1 1-4 4h-7l-3-4-1 4-2 5c-2 1-2 3-3 2l-1-3v-1c-2-1 1-1 0-2l1-1 2-1v-1h-1l-1 1c1-2 5-1 4-4l-6 3h-2c-1 0-3-2-5-1l-2-1v1h-1 1l-1-2h-2" class="D"/><path d="M302 314l1-1-1 1"/><path d="M224 313l1 2-3 1-1-2 1-1h2m3 1" class="B"/><path d="M295 314v2l-1-2h1" class="K"/><path d="M228 315l2 4h-2c-2-1-3-2-5-1l-1-1 1-1v1l3-1v-1h2" class="C"/><path d="M431 318h1l-10 14h-1l3-3 5-8 4-6-2 3"/><path d="M371 315l-2 3-4 1v-1l6-3" class="M"/><path d="M449 316h2l-1 2h-2l1-2m-1 0c-1 2 0 3-2 3-1-1 0-2 1-3h1m-7 0l1 2-1 1-1-2 1-1" class="B"/><path d="M242 316c1 4 2 7 1 11h-1v-5-6m60 2l1-2v1l-1 1"/><path d="M286 318l-2 2v-1l2-2v1" class="K"/><path d="M449 320l-1-1 1 1m2 0v1l-1 1v-3l1 1m-6 1c-1 1-1 2-2 1l2-2v1m3 0h-1v-1l1 1" class="B"/><path d="M343 322c1 0 0 0 0 0l-3 1-3-2 6 1"/><path d="M447 322v1h-2l1-1h1" class="B"/><path d="M305 326l1 1h-3l-1-3v-1l3 3m0-2l3 1v1l3-1v2l2-1h-1v-1l-1-1h1l1 1 1 1-4 2-3-2-3-1v-2l1 1"/><path d="M446 324l-1 1-1-2 2 1" class="B"/><path d="M417 323l-2 2 2-2" class="C"/><path d="M419 324l-3 8v3c-1-4 1-8 3-12v1"/><path d="M304 327l-1-1v-1l1 2m2-2h-1 1m4 1h-1 1" class="K"/><path d="M254 329l3 1-1 1c-3-3-6-4-10-4l-1 1c3-2 6 0 9 1"/><path d="M412 329c0 1-1 4 1 5v1l-6-1h-3l-1 1h-2l12-8-1 2" class="C"/><path d="M232 329l2 2v2l-5-4h3" class="B"/><path d="M234 329v1l-1-1h1" class="C"/><path d="M260 347h-1l-2-2 5-1-3-1c-5 0-10 0-14-2v-2h6v-1c-2-1-6-3-8-6h-1l-1-2h3l6 5 3 1 1 2h4l1 1 3-1 2 1h3c4 0 8-1 12 2h1l15 6 1 1c5 3 10 9 13 14l1 2 2-1s0 1 0 0c2 3 5 3 8 4h-7l-3 1-1 1-1-1-2-3 1 2-2-1h-2l-2-2h-6c-2 1-2-1-3-1l-3-2a2 2 0 001-1c2-1 2 2 3 1l2 1c3 0 7 0 9 2l1 2-1-4c-2-1-3-3-5-3v-2l1-1c1-2-2-3-3-4-2 0-4-2-5 0l-2-1c-2-2-5-2-5-4-2-2-3-3-5-3l-4-3-2 1v4l-1-1c-4 0-8-1-11 2v-1l-2 1" class="B"/><path d="M260 349l1-1-1-1h1l2-1h9l1 1c-1 1 1 2 1 3l2 4-2-2-7-4c-2 0-3 2-4 1h-3" class="C"/><path d="M260 349h-1l1 5 2 1 5 4h4c4-1 9-1 12 1l3 1-1 1c-3-2-7-4-10-3l-6 1c3 3 7 5 11 4 1 1 2-1 3-1 2 1 2 3 3 5 2 1 5 3 8 3 2 0 0-2 1-3-1-4-5-5-8-7l1-1h3c2 2 3-2 5-1 2-1 1-3 3-3 1-2-2-2-3-3l-3-1-2 1c-1 2-4 3-3 6l-1-1-1-1v-1a58 58 0 00-2-8c-1-4-6-4-9-7l-1 4c2 1-1 2 1 4-1 2 2 3 2 6h-1c-3-3-7-5-10-6h-1l-4 1-1-1" class="D"/><path d="M245 338c0-2-1-4-3-5l3 3v-1c1 2 3 2 5 3h-5m10-4l-2 1c-3 0-5-3-7-4l-1-1c3 0 5 4 8 4l4-1-1 1h-1" class="C"/><path d="M255 335h-1v1h-1l1 2h3c1-1 0-2-1-3h-1" class="B"/><path d="M431 331h-1l1-1v1" class="C"/><path d="M238 331l3 8-1-1-2-7"/><path d="M431 332c-1 1 0 2-2 3h-1v-3h3" class="B"/><path d="M428 332l-1 2 1 1h2l-1 2c-1-1-2-3-3-2h-5c1-2 4-2 7-3m-168 0h-1 1" class="C"/><g class="B"><path d="M262 332l-1 1 1 1h-1v-2h1m-3 1l1 2-2 1c0-1-2-2-1-3h2M261 335v-1 1m2 1v1l-2-1 1-1 1 1m4 0h-2v-1l2 1m-7 1h2c-1 1-2 2-3 1 0 0-1 0 0 0l1-1h-2v-1h2v1"/></g><path d="M414 337c-4 0-8-1-11 1h-2c4-2 8-2 13-1"/><path d="M393 341l-1 2 2 1 1-2-1-1h-1" class="B"/><path d="M392 341l-1 1h1l-1 1-6 2h-5l10-4 5-2 1 2h1l1 1h-2l-2-2-2 1" class="C"/><path d="M413 339l-2 1-2 3-11 3c0-1 0-3 2-2l13-5" class="B"/><path d="M422 340h4l-3 1v-1l-1 1-3-1v-1l3 1"/><path d="M405 341l-7 3v-1h2l1-2-1-1h3l2 1m13 2l2 1h5c-1 0-2 2-3 1l-2 1h-5l1-6 2 3" class="C"/><path d="M400 342h-1-1v-1l2 1" class="B"/><path d="M414 342l-2 6v-1l2-6v1"/><path d="M259 344l-4 1-1-1h-3l-1 3 3 1c1-1 1 1 2 1v2l-6-4h-2l-3-4 1-1c4 2 9 2 14 2" class="C"/><path d="M398 344h-1 1l-1 1h-1v-2h1l1 1" class="B"/><path d="M409 344c-1 0-2 1-1 2l-11 1v-1l9-2h3m-8 10l-1 1v-2l-1-1h-2l-1-1h-1 1l13-1 2 1c2-1 4 0 6-2h1l-7 4-2-1v2l-1-1h-2l-2-1h-2l-1 2" class="C"/><path d="M407 353l-1 2v1l2-1c1-1-1-1-1-2m-6 2l-1 2 1 1c2-1 1-2 0-3m-6-3h1l-1 2-2-1v-1l1-1h1v1m-141-7l-1 2c-1 1-2 0-3-1l1-1h3m3 0v1l1 1-1 2h-1l-1-1h-1l1-2 2-1m165 1l-8 4h-2l3-3 6-1h1" class="B"/><path d="M395 347h2l-2-1v1" class="C"/><path d="M278 347c2 3 6 6 7 10 1 0 0 0 0 0l-7-10"/><path d="M260 348v1h-1v-2l1 1" class="B"/><path d="M371 368l1 1 2 1-6 2 3-4m-34 2l4 2-1 2 1 2h-4l-3-5 3-1" class="C"/><path d="M362 367s-5 5-4 7l6-1c4 0 4-5 7-6h1v1l4 2h1c2 1 4-1 6-1l3-1c1 0 2-1 1-2l-6-2c-3-1-6 0-9 1l-1-1c4-3 9-7 8-13v-3h-1c-4 2-7 5-8 9v7h-3v-1c-2-2-5-1-7-2 2 0 5 0 7 2v-4l-4-2-8 3 3 3c1 2 4 1 6 2h-1l-1 2" class="D"/><g class="B"><path d="M362 365c-5-1-9 4-14 4h-1 1-3l-2-1 1-2 2-1c6-2 11-7 17-9 2-1 4-3 7-3l5-4 2-1 3-1v4l1-1h10l2 2v-1l1-1h15l-1-3h-9l-2 1c-1 0-3 0-3-2h1v-2l-1 1h-1-1l-1-1-9 2h-3-1l-2 1-4 1-2 1-7 2-3 1h-1l-1 1v1l-9 5c-4 1-6 4-9 6l-6 3-2 1 2 2 3-1c2-1 3 0 4 1l4 1-1 1h1l1-2h2l1 2c0-2 2-2 3-3 3-1 5-3 8-3l2-1v-1"/><path d="M346 372h-1l1 2h1l1-1v-2h-1l-1 1"/></g><path d="M312 351c8 1 17 3 26 3l20-2-3 2-8 5v-1h-1l-3 1v-1c1-1 2-3 1-4-3 1-7 1-10 3-2 0-2 2-4 3v-2c-1-1-1-4-4-4l-3 1-2 5-5-5h-2l-1-1-3-1-4 1c1 2 3 4 3 7-3-5-7-10-13-13l16 3" class="C"/><path d="M259 349v4l-1-1 1-1-1-2-1 1 1 1-1 1-2-2v-1h4" class="B"/><path d="M291 352l-3 4-1 1-1-6v-2l5 3m92-2l7 1 2 3-4-1-10 6c2-3 3-5 2-8l3-1" class="C"/><path d="M377 351l-1 2-4 7v2l-1 1 1-4 3-7 2-1m-105 4l4 1-11-2-2-1h-2c0-1-2 0-1-2 3 3 8 2 12 4"/><path d="M393 353l-2-2 2 2m5-1l2 2-2 1h-1l1-3m5 1h1l1 1-2 2a2 2 0 00-1-2l1-2v1m8 2h-1v-2l1 2" class="B"/><path d="M369 363h-1l-1-4-4-2 3-2h2l2-1c-2 2 0 6-1 9" class="C"/><path d="M319 359h1-1l2 2 2 6v-2c-2-2-2-5-1-8l5-2c1 1 3 3 3 5l-2 2h1l-1 1c1 1 1-1 2-1 0-2 3-1 3-3l3-2 7-2c0 3-2 5-3 8-3 5-8 4-12 4l-1 2h3l3 2 3 4v2l-8-1c-2 0-2-2-3-3-2 0-2 3-4 2h-7l-2-1 1-2 5-2h2l1-3h2l-11-12-4-1h2l5 2 4 3m74-4h3l2 1h1c-2 3-5 6-9 7h-8-2l-8 1 8-6c4-2 6-5 10-4l3 1m-82 1h1l10 10-7-1-3-2-1-1-4-8 4 2" class="D"/><path d="M296 355h-4l-4 2c2-2 6-3 8-2 0 0 1 0 0 0m-17 1l1 1 7 2c-3 0-7-1-10-3v-1l2 1"/><path d="M398 356h-1v-1l1 1" class="B"/><path d="M406 357l-2-1-1 2-6 3-10 4-2-1c5 1 11-2 14-7l2 1 2-1 2-1 1 1" class="C"/><path d="M405 358l-1 1v-1-1l1 1" class="B"/><path d="M394 358c-5 0-10 0-14 2l-2 2c1-3 4-3 6-4h10"/><path d="M299 360c2-1 3 1 4 2l-6-1h-3v-1c1 0 3 0 4-2l1 2" class="C"/><path d="M346 359c1 1-1 0-1 1v-2h-1l2 1" class="B"/><path d="M325 358v9h-1v-3-6h1"/><path d="M344 361l-2 1v-2h1l1 1" class="B"/><path d="M278 362h5v1c-2-2-6 1-8-2h1l2 1"/><g class="C"><path d="M359 364v1l-9 3v-2h-1 1l-1-1-2 1v-1l7-4c2 0 3 2 5 3m-49-1v-1l1 1h-1M342 363l-2 1 2-2v1"/></g><path d="M287 362c2 2 2 5 4 6-1 1-1 0-2-1l-2-4v-1m45 1l-2 2-2 1 4-3"/><path d="M284 365l1 2-4-2 2-1 1 1m16 0l-2 1c-1 1-2 1-1 2v2l1 2 2-1 1 1 2 1 1-1h2c2 0 1-3 3-3l7-1h4v1l-3 1h-2l-2 1-2 2v1l1 1-7-1-9-3h-1l1-2-2-4h6" class="C"/><path d="M346 365v3h-2l1-2v-1l1 1v-1m-44 1l-1 1v-1h1m-1 1l-4 1 2-2 2 1m48 0l-1 1v-2l1 1" class="B"/><path d="M377 367h2l-6-1 4 1"/><path d="M305 368v2l-2-2h-1-1l1-1h1l2 1" class="B"/><path d="M369 367l-9 6v-1l4-2 2-2 3-1"/><path d="M307 369l-1 3h-1v-5l2 2" class="B"/><path d="M360 369c-2 1-3 4-3 5v1h-4c1 0 1-2 2-1l2-3-1-1h-1l3-2h1l2-1-1 2" class="C"/><path d="M300 368v2l-2 1-1-1 1-2h2" class="B"/><path d="M332 368h-3 3" class="C"/><path d="M348 368h-1 1m-44 2l-1 2-2-1v-1l1-1 2 1" class="B"/><path d="M323 370l-3 2c-1 0-2 2-3 1l6-3"/><path d="M353 371h-1l1 1v2l-1 1-2 1 2-1-1-2-1 2h-1v-1h2l-1-1h-1l1-1c1 0 2 0 3 2v-2l-2-1 2-1v1" class="B"/><path d="M332 375l-3-2v1l-3-3v-1l6 5"/><g class="B"><path d="M357 372l-1-2 1 1v1m-1-1l-1 2h-1l-1-2h3m-12 2l-2 1h-1v-1h3m4 0h1-1m-3 1c1 2-1 1-2 2l-1-1h0l2-1h1m3 0v1l1 1h-2v-1l1-1M347 375c-1 0 0 0 0 0h-1s-1 0 0 0h1"/></g><path d="M351 209l2-7 1-8-1-2-6-9-2 6-1 2c2 1 3 0 4 2 0 1-1 2 1 3l-1 4c2 2 3 4 3 7l-1 1 1 1" class="C"/><path d="M406 294v8c0 1 2 2 0 3-3 0-5 5-10 4-4-1-10 2-13-3-2-1-5 0-7 1a6 6 0 000-1h1l3-1h5c2 2 4 1 5 3l1-1h-1 8c2-2 5-1 6-4l1-2v-1-3l-1 4c0 4-4 4-6 5h-7v-1l-3-3v-1l7 1 1 1h-1s1 0 0 0c3 0 0-2 0-3l3-3 2 1v-1l3 3-3-3h5v-2l1-1" class="L"/><path d="M405 294l-4-5-1 1v-2c-3 1-4-1-6-2-3 1-7-3-10-1l-1 5-5 1h-1l-2 1c-2 1-1 4-1 6l2 8h1c2-2 4-2 7-2 2-1 3 2 5 2l2-1-2-1-1-1v-2h7c-1-2 1-3 2-4l3-1h4l1-1v-1" class="E"/><path d="M388 292l2 2 1 1 3 1 1 3h-1l-4-1c-2-1-1-4-3-4-3-1-2-4-3-6l1-1c1 2 1 4 3 5m-6 3v1l-8-2 8 1m-3-4h-1m-16-10h-1a1 1 0 001 1m-8 2l1 2h-1v-3 1m-10 4l-2 1c-1 2-3 3-3 5v4c0-2-1-6 2-8 0-1 1-2 3-2m24 2h-1 1m-13 3l-1 2v5l2 1h1l2 2-2-1c-2 0-4-2-4-4-1-2 0-4 1-5h1"/><path d="M330 297v-1 1m33 4l8 2 2 2c-4-4-9-4-14-4l-1 1v-1h3v-1l2 1"/><path d="M480 251v-4l-3 3 3 3v-2" class="C"/><path d="M478 262l-2-1-2 3 1 2 1 1 1-3-2-1v1l1-1h2v-1" class="B"/><path d="M286 122l-1-1 5-3v1l-1 2 1 17-2-1-13-9-2-1v-1l7-4v1 2l7 5-1-8m19 4l2 2-6 2-1-1c2 0 1-1 1-2l-3-9c0-1-1-2-2-1v-1l6-2 1 1c-2 0-1 1-1 2l3 9m19-4l1 1 2 1h-6l-4-4h-2l1 4c0 1 0 2 1 1v1l-6 1v-1l1-2-2-9-1-2v-1l5-1c2-1 6 0 6 3 1 2 2 3-1 5l5 3zm-8-4c2-1 1-2 1-4l-2-1h-2l1 5h2m23 0l-1-1v-1h5v1l-1 2v3l1 2h-4c-9 0-11-5-11-8 0-4 3-8 8-8 3 0 6 2 7 4l-3 2v-1l-3-2c-4 0-5 2-5 5 0 4 1 5 5 6l2-1v-3m14 5l1 2v1l-7-1v-1l2-1 1-10-1-2v-1l7 1v1l-2 1-1 10m12-5l-3 8s-1 1 1 2h-1l-5-1v-1l2-1 3-10v-2l5 2 4 8 2-5-1-2v-1l6 2-1 1-1 1-4 9 1 2v1l-6-1 1-1 1-1-4-10m16 14l1 2v1l-7-2 1-1 2-1 4-9-1-2 1-1 6 2v1l-2 1-5 9m18 13v2l-5-5 2-1v-3l-3-3-3 2v2l-1 1-6-4 1-1h2l14-8h1l-2 18zm-2-9l1-5-4 3 3 2M242 297v1a2 2 0 00-1 0v3c0 1 2 2 3 1 3-3-3-6 1-9 2-2 4-1 5 1v4h-2v-1h1v-2c-1-1-1-2-2-1-3 2 2 5-2 9-2 2-4 1-5-1-2-1-1-3 0-5h2" class="F"/><path d="M242 297v1a2 2 0 00-1 0v3c0 1 2 2 3 1 3-3-3-6 1-9 2-2 4-1 5 1v4h-2v-1h1v-2c-1-1-1-2-2-1-3 2 2 5-2 9-2 2-4 1-5-1-2-1-1-3 0-5h2z" class="G H I"/><path d="M247 308v1l-1 1-2-3v-1h2l6-6 1-2 3 3h-1l-1 1-7 6" class="F"/><path d="M247 308v1l-1 1-2-3v-1h2l6-6 1-2 3 3h-1l-1 1-7 6z" class="G H I"/><path d="M260 311v-1h1v-3c-2-2-4-1-6 1s-3 5-1 7l3 1-2 2-2-1c-4-5-1-9 0-11 3-2 7-3 9 0 1 1 2 3 1 5h-3" class="F"/><path d="M260 311v-1h1v-3c-2-2-4-1-6 1s-3 5-1 7l3 1-2 2-2-1c-4-5-1-9 0-11 3-2 7-3 9 0 1 1 2 3 1 5h-3z" class="G H I"/><path d="M273 331l1-1 4-8v-3l8 5-1 2-1-2-4-2-1 3 2 2 2-1 1 1-2 3-1-1v-1l-3-1-2 4 4 2h2l-1 3-9-5h1" class="F"/><path d="M273 331l1-1 4-8v-3l8 5-1 2-1-2-4-2-1 3 2 2 2-1 1 1-2 3-1-1v-1l-3-1-2 4 4 2h2l-1 3-9-5h1z" class="G H I"/><path d="M295 328l4 2-1 1-3 9v2l-3-1v-1l1-1 3-9h-1l-5 7-1-1 1-8-5 8v2l-3-1 1-1 1-1 5-8v-2l3 2-1 6 4-5" class="F"/><path d="M295 328l4 2-1 1-3 9v2l-3-1v-1l1-1 3-9h-1l-5 7-1-1 1-8-5 8v2l-3-1 1-1 1-1 5-8v-2l3 2-1 6 4-5z" class="G H I"/><path d="M302 340l-1 2 1 1-1 1-3-1v-1l1-1 2-8v-3l6 2c2 1 3 2 3 5-1 3-4 3-7 3h-1zm0-1c2 0 5-1 5-3 1-1 0-3-2-3h-1l-2 6" class="F"/><path d="M302 340l-1 2 1 1-1 1-3-1v-1l1-1 2-8v-3l6 2c2 1 3 2 3 5-1 3-4 3-7 3h-1zm0-1c2 0 5-1 5-3 1-1 0-3-2-3h-1l-2 6z" class="G H I"/><path d="M309 346l1-1 2-9-1-2 9 1v3l-1-1-1-1h-4l-1 3h6l-1 3h-1l-1-1-3-1-1 5 5 1 1-1h1v3l-10-1v-1" class="F"/><path d="M309 346l1-1 2-9-1-2 9 1v3l-1-1-1-1h-4l-1 3h6l-1 3h-1l-1-1-3-1-1 5 5 1 1-1h1v3l-10-1v-1z" class="G H I"/><path d="M330 347l3 2h-4l-5-6v3l1 2h-4v-1l1-1v-9-2h6c2 0 3 2 3 4s-1 4-3 4l2 4zm-4-6c2 0 3 0 3-2s-1-2-3-2h-2v4h2" class="F"/><path d="M330 347l3 2h-4l-5-6v3l1 2h-4v-1l1-1v-9-2h6c2 0 3 2 3 4s-1 4-3 4l2 4zm-4-6c2 0 3 0 3-2s-1-2-3-2h-2v4h2z" class="G H I"/><path d="M349 335l1 3h-1c0-1-1-2-2-1h-1v9l1 1v1h-4l1-2-1-9h-1l-2 1-1-3h10" class="F"/><path d="M349 335l1 3h-1c0-1-1-2-2-1h-1v9l1 1v1h-4l1-2-1-9h-1l-2 1-1-3h10z" class="G H I"/><path d="M352 337l-2-1v-1l4-1v1 1l3 4 1-5-1-1v-1h3l-1 2-1 6 1 3 1 2-4 1v-1-4l-4-5" class="F"/><path d="M352 337l-2-1v-1l4-1v1 1l3 4 1-5-1-1v-1h3l-1 2-1 6 1 3 1 2-4 1v-1-4l-4-5z" class="G H I"/><path d="M386 335l1 1-3 2-1-1v-2l-2-2-3 2v3l1 1-3 1v-15l2 1 8 9zm-6-3l-3-4 1 5 2-1" class="F"/><path d="M386 335l1 1-3 2-1-1v-2l-2-2-3 2v3l1 1-3 1v-15l2 1 8 9zm-6-3l-3-4 1 5 2-1z" class="G H I"/><path d="M399 321l3 5h1l1 1-3 2v-1-1l-6-7-1-1-1-1 3-1 9 3-3-5-2-1v-1l2-1h1v2l5 7 2 1-2 2-1-1v-1 1l-8-2" class="F"/><path d="M399 321l3 5h1l1 1-3 2v-1-1l-6-7-1-1-1-1 3-1 9 3-3-5-2-1v-1l2-1h1v2l5 7 2 1-2 2-1-1v-1 1l-8-2z" class="G H I"/><path d="M414 317l1 1h1l-3 3-1-1v-2l-6-7h-1l-1-1 3-2h1v2l6 7" class="F"/><path d="M414 317l1 1h1l-3 3-1-1v-2l-6-7h-1l-1-1 3-2h1v2l6 7z" class="G H I"/><path d="M268 322v1l-1 1v3c1 0 2 1 3-1 3-2-3-4 1-8 1-2 3-1 4 0s2 2 1 4h-2a1 1 0 001 0l-1-3h-2c-2 2 3 4 0 8-2 3-5 2-6 1v-5l2-1" class="F"/><path d="M268 322v1l-1 1v3c1 0 2 1 3-1 3-2-3-4 1-8 1-2 3-1 4 0s2 2 1 4h-2a1 1 0 001 0l-1-3h-2c-2 2 3 4 0 8-2 3-5 2-6 1v-5l2-1z" class="G H I"/><path d="M415 311h1l1 1h2c1 0 2-1 1-2-3-3-5 2-9-2-2-2-1-4 0-5h5v2h-3c-1 0-2 1-1 2 2 2 5-3 9 1 2 2 1 5 0 6h-6v-3" class="F"/><path d="M415 311h1l1 1h2c1 0 2-1 1-2-3-3-5 2-9-2-2-2-1-4 0-5h5v2h-3c-1 0-2 1-1 2 2 2 5-3 9 1 2 2 1 5 0 6h-6v-3z" class="G H I"/><path d="M387 328l2 5 2 1-3 2v-1-2l-4-7c-1-1-1-2-2-1v-1l3-1 8 4-2-5-2-1v-1l3-1v2l4 8 2 1-3 2v-1-1 1l-8-3" class="F"/><path d="M387 328l2 5 2 1-3 2v-1-2l-4-7c-1-1-1-2-2-1v-1l3-1 8 4-2-5-2-1v-1l3-1v2l4 8 2 1-3 2v-1-1 1l-8-3z" class="G H I"/><path d="M374 339l4 1-5 2-6-4 1 3 1 2-3 2v-1-2l-3-8-2-1v-1l6-2c1-1 4 0 5 2 0 2 0 4-2 5l4 2zm-6-3c1-1 2-1 2-3-1-2-3-1-4-1l-2 1 2 4 2-1" class="F"/><path d="M374 339l4 1-5 2-6-4 1 3 1 2-3 2v-1-2l-3-8-2-1v-1l6-2c1-1 4 0 5 2 0 2 0 4-2 5l4 2zm-6-3c1-1 2-1 2-3-1-2-3-1-4-1l-2 1 2 4 2-1z" class="G H I"/><g fill="#00788c"><path d="M337 84l-1 1h1l1-2-1 1zm2 0l-1 3h2v-1l-1-1h2l-1-2-1 1zm-3 3v1l1-1h-1zm-35 1h1c1 0 1 0 0 0h-1z"/><use xlink:href="#B"/><path d="M297 90v1h2v-1h-2zm39 0l1 1v-1h-1zm43 1v2h1v-2h-1zm3 0v1c1 1 2 0 2-1h-2zm-83 1v1c-1 0-1 0 0 0l2-1h-2zm86 1v1l1-1v-1l-1 1zm-7 0v2h1l-1-2zm2 1l1 1h1v-1h-2zm4 0v1h1v1l1-1h-1l-1-1c-1 0-1 0 0 0zm-1 1v1l1 1v-1l-1-1zm3 1c0 2 2 2 3 1l-2-2-1 1zm-4 0v0zm3 2c0 1 0 2 1 1v-1h-1zm-142 20l-1 1h1l1-1h-1zm6 0l-1 1v1l2-1-1-1zm-12 1v1l2-1h-2zm3 0v2h-1-1v1l3-1v-1l-1-1c0-1 0-1 0 0zm3 1v1l1-1h-1z"/><use xlink:href="#B" x="-90.4" y="31.7"/><path d="M424 121v1h1v-2l-1 1zm3 1l1 1c1 1 2 0 1-1h-2zm-169 1v1h-1v2l2-2-1-1zm173 0v2h1l-1-2zm-177 1h1l-1 1-1 1h2l1-1-1-1h-1zm9 0v1l1-1h-1zm160 0v1 1l1-1-1-1s-1 0 0 0zm4 1l1 2v-2h-1zm6 0v2l2 1v-3h-2zm-173 1v1l2-1h-1-1zm-4 2l1 1 1-1v-1l-2 1zm205 28l1 1-1-1c0-1 0 0 0 0zm0 2v1h2l-2-1zm-237 3v1c-1 0-1 0 0 0h1c1-1-1-2-1-2v1zm-2 0h1v-1h-1v1zm241-1l-1 1 2 1v-1l-1-1zm-241 3v1l1-2-1 1zm242 0v1h1l-1 1h1v-1l-1-1zm-240 1a4 4 0 000 1h-1l-1 1h1l2-1-1-1zm237 0c-1 1 0 3 1 2v-2h-1zm-240 1v1h1l-1-1c0-1 0 0 0 0zm0 2v1h1c0 1 0 0 0 0l-1-1zm227 3l1 1h1l-2-1zm4 1c-1 1 0 3 1 2l-1-2zm-4 2c-1 1 1 2 2 2v-2h-2zm2 2v1h1c-1 1 0 2 1 2h1l-1-3h-2zm-2 1v1h1v-1h-1zm-242 27l-1 1h2c1-1 0-2-1-1zm3 0h-1 1zm-18 2v2h2l1-1-1-1h-2zm-1 4l1 1v-1c1 0 0 0 0 0h-1zm3 0v1l1-1h-1zm5 1c0 1 0 0 0 0 0-1 0-1 0 0zm-2 1v1h1l-1-1zm-6 0l-1 2h2v-2a4 4 0 00-1 0zm272 4v2l1-2h-1zm18 0h-1l2 1-1-1zm-16 1h1l1 1 1-1-2-1-1 1zm-275 1s0 1 0 0v-2 2zm274 1c-1 1-1 3 1 3l1-2-1-2-1 1zm14 0c-1 1 0 1 1 1v-2l-1 1zm-10 0v1l2-1h-2zm13 0v1 1h1v-1-1h-1zm2 1v3l1 1v-4h-1zm-4 2v0c0-1 0-1 0 0zm-12 1l1 1 1-1h-2zm-257 35l1 1v-1h-1zm-3 2v2c2 0 3-2 2-2h-2zm4 0l-1 2h2v-2h-1zm2 2v2l1-1-1-1zm264 2l-1 2 1 1v1l1-1v-2h-2l1-1h2l-1-1-1 1zm-267 0v1h2l-1-1h-1zm249 1v2h1v-2h-1zm14 3l-1 1h3l-1 1 1 1h1v-1-2h-2c0 1 0 1 0 0v-1l1-1-2 2zm-17 0v1l1-1h-1zm2 0v2l-1 1 1 1c2 0 2-1 2-2l-1-2h-1zm14 2v2c1 1 1 1 1-1l-1-1zm-4 2v2-1l1-1v1c0 2 0 3 2 2v-2l-1-1h-2zm6 1l-1 1v2c1 0 2 0 2-2v-2l-1 1zm-262 28v3l2-2-2-1zm1 4l-1 1v1l1-1v-1zm1 1v1l2-1h-2zm-1 2v2h1v-2h-1zm2 2v3c1 0 2-1 1-3v-1l-1 1zm9 1c-1 0 0 2 2 2v-2h-2zm3 3v-1 1zm-4 1v1l3 1v-2h-3zm225 3v2l1-2h-1zm3 0h-1c0 1 1 2 2 1 0-1 0-2-1-1zm-9 0v2l1-1v-1h-1zm7 2l1 1-1-1zm-8 1s0 1 0 0zm10 0v2c1 0 2-1 1-2h-1zm-5 1l-1 1 2-2-1 1zm2 0h0zm-1 1l1 1-1-1zm-1 2v1h1v-1h-1zm-16 8v3l2-1c0-2-1-3-2-2zm-168 1v1c1 0 2 0 1-1h-1zm-3 0l-1 1 1 1 2 1-1-3h-1zm-3 2v1l-1 1 2 1c2 0 2-1 1-2l-2-1zm7 1c-1 0-1 0 0 0 1 1 2 0 1-1l-1 1zm3-1l1 1h0v-1h-1zm-6 1v1c1 0 2 0 1 1h-1 3l-1-1-1-1c0-1 0 0 0 0h-1zm137 4h1v-1l-1 1zm3 2l1 1v-1h-1zm-6 0v2l2-1v-1h-2zm3 2l1 1c0 1 0 1 0 0l1-1h-2zm-145 1v2c1 1 3 0 3-1 1-1-2-2-3-1zm5 1l-1 2h3v-1l-1-1h-1zm4 2v0zm-2 1l-1 1c-2 0-1 1 0 2l1-1v-1h1l-1-1zm136 3l1 2h1v-2h-1-1zm-135 0v0zm139 1v2c2 0 2-1 1-2h-1zm5 0c-1 1 0 3 1 3l1-2-2-1zm4 1v2c1 1 2-1 1-2h-1zm3 0l1 1v-1c0-1 0 0 0 0h-1zm-9 3v1l1-1-1-2v2zm4 1l-1 1 1-1c0-1 0-1 0 0zm-60 1l1 1v-1h-1zm-2 1v2l1-1v-1h-1zm2 6v2c2 1 2-1 1-2h-1zm-46 1c-1 0-1 0 0 0h1v-1l-1 1zm49-1v2h1v-1l-1-1zm-46 1l1 1 1 1h1l-2-2h-1zm4 1v2 2l1-2-1-3v1zm-7 0c-2 1-1 3 0 3l2-3h-2zm3 1v3h2a1 1 0 000-3h-2zm53 2l-1 1v-1l1 2 1-2h-1zm-8 1l-1 1 1 1 1-1v-1h-1zm3 0v1l1 1h2c0 1 0 1 0 0l1-1h-1c0 1 0 1 0 0l-2-1h-1zm-8 1c-1 1 0 1 1 1l1-1h-2zm2 1l-1 1v1l2-1v-1h-1zm4 1v0c0-1 0-1 0 0zm2 0h1v-1l-1 1zm-4 0l1 1v-1h-1z"/></g><g fill="#8c0000"><path d="M331 83l-3 1c-1-1-3 0-3 1l-2 3-2 1-1 1v2l1 1 3-2 6-5 4-3h-3zm25 1l2 1 2 3 5 4v-2l-1-4-5-2h-3zm-12 2h-1l-2 1-1 1 2 1 10 3 5 1 2 1h2l-1-1-4-2-5-5-1 1h-3l-3-1zm-39 1l1 1v3l1 1v2l7 2h3v-1a23 23 0 01-9-6l-3-2zm65 2l-2 4 2-1 4-1 3-2h-7zm-98 7l-2 6-1 4h2l1-3 1-1 2-3-1-1v-1l-1-1a1 1 0 010-1l-1 1zm53 0l1 1 7 3 2 2 2 1h11l-2-1-3-1-4-2c-4-2-5-3-9-3l-4-1-1 1zm-40 0l-2 1-3 1-2 1-1 1-2 2-2 2v1l-2 2h1l3-1c2 0 2-2 3-2 1-2 6-4 9-6l3-2h-5zm75 2c-4 3-5 3-7 3h-4c-1 0-1 0 0 0a2 2 0 010 2l1 1 2 1h5l1-2 5-5c2 0 2 0 0-1l-3 1zm-40 1v1l1 1 1 1 1 1 8 2h3l-3-2c-2 0-3-1-3-2l-5-2h-3zm47 2c-2 2-2 3-1 5l1 2 1 1h2c1-1 1 0 1 1h2l2 1 2 1-4-4c-2 0-2-1-3-2l-1-5c0-3-1-3-2 0zm-51-1l-1 1-6 4-2 1-2 1 2 1h2l4-1h1l4-5v-1c1-1 0-2-2-1zm76 0l1 3a43 43 0 008 5l6 3-1-1-2-5-2-1-2-2-4-1h-2l-2-1zm14 1l1 3 2 2c0 2 3 5 5 6 1 1 1 1 0 0v-3c-1-4-2-5-4-6l-3-1-1-1zm-146 3h-2l-3 1h-1l-3 3-3 3 5-3h6l7-1 1-1-1-1-3-1h-3zm12 5l-3 1 1 1a4 4 0 012 0l2 1a16 16 0 013 0c3 1 4 1 5-1l1-1h-1c-2-1-8-2-10-1zm-7 1l-2 2-2 1c0 1 0 0 0 0l-4 5-1 3s-1 0 0 0l5-4 4-4c2-2 2-2 1-3h-1zm153 1l-2 2h8c1 1 1 1 0 0-3-2-4-3-6-2zm-21 5l5 4h2l2-1h2l2-1 1-2h-1l-2 1h-8l-4-2 1 1zm17 2l2 4 2 5 2 3v-1l-1-4 1-2-2-2-3-3h-1zm-188 10l-4 6 3 9v-1l2-9 1-3 1-4-2 2zm17 0l-2 1h-2l-1 1-3 1-1 1-2 2-3 7-2 2c2 0 3-1 4-4 2-3 6-5 12-8l3-1h3l3-1h-1l-4-1h-4zm185 6l-2 1h-2a50 50 0 008 3l3 2 8 5h1a16 16 0 010-2l-2-3-2-3-2-1-1-1h-3l-2-1h-4zm18 1l1 2 1 2 1 2 1 8v2l1-1 1-2 2-3v-1l-1-1-1-2-1-2-1-1-1-1-1-1-2-1zm-209 3c-4 1-4 1-6 4l-1 1h8l7-2 2-1h-1l-3-1-3-1h-3zm-21 4l-6 6v1l2-1 1-1 8-2 4-1-2-1-4-1h-3zm218 5h-5l14 4 2 1 2 1-9-6h-4zm-208 0v2l3 11 1-2v-7l-1-3-3-1zm227 6c-2 0-2 1 1 2l4 3 2 1-1-1v-2c0-1 0 0 0 0a7 7 0 01-1-1l-3-3-2 1zm-6 2l-2 3-1 6v3l1 1 1-2 1-2v-2l1-1v-1-3-2h-1zm-240 2a9 9 0 000 3v4c0 4 0 7-2 12l-1 3 5-6 2-6-1-2-2-6-1-2zm-8 11a9 9 0 01-1 2l-1 1v1l-1 6 1 2v1l1 2c0 1 0 0 0 0h1l1-2-1-3v-7-4 1zM466 170l1 12 1 7 3-5-1-9-1-3-1-2-1-1h-1v1zm-249 5l-10 7-1 2h4c2-1 6-4 6-6l1-2 1-3-1 1zm258 10v4l-1 5c-1 4-1 5 2 3l1-3 1-1-1-1v-1l-1-4v-3l-1-1v2zm-279-1l-4 3-1 2-1 1 1 5v-2l1-3c1-3 3-4 5-5 1-1 1-1-1-1zm7 5v3 3l1 2 1 2 1 1 1 1h1v-1l-1-2-1-2-2-7-1-1v1zm254 0l1 1 5 4 4 3 2 1-1-3-3-4-3-1c-2-1-3-2-5-1zm19 10l-1 1 2 1 3 3 1 3c1 0 1 0 0 0l1-2-1-2v-2c0-2-3-2-5-2zm-6 3h-1v2l-1 4v2l1-1 1-3v-3h1v-1h-1zm-268 13l-2 11v2l4-4c3-3 3-4 2-5v-4l-1-2-1-2 1-1-1-2-2 7zm8 8l-1 1-1 1-4 6-2 6 3-2c3-1 3-2 3-3l1-2 1-2v-5c0-1 0-1 0 0zm-22 1l2 12 4 4h3l-3-7a202 202 0 01-5-11l-1 2zm280 0l2 5-1 2v6l1 5v1l2-3c3-4 3-5 2-8l-1-3-1-2-1-1c0-2 0-2-2-3l-1-1v2zm-7 10v1l1 2c0 3 1 4 3 6l2 4c1 2 1 2 1 0 0-4-2-8-3-10l-1-1-1-1-1-1h-1zm19 4l-1 2v1l-2 3a29 29 0 01-4 5h4l1-1 2-4 1-4v-2l-1-1v1zm-278 1l1 2 5 8c0 2 2 4 2 3v-6l-3-6-2-1h-3zm-10 1v2l-1 2-1 5v4c-1 1 0 3 1 3l2-10 1-5v-1h-2zm281 10c-1 0 0 0 0 0 2 1 5 5 5 7l1 2h1l-1-5-2-4h-4zm-10 2l-3 4-1 5c-1 2 0 1 2-1l3-5 2-3v-1l-3 1zm-271 7v4l1 2 1 4c0 2 1 4 4 7l2 2 3 2c1 0 2 0 3 2h1l-1-1-1-3-1-1-2-3a71 71 0 00-10-15zm20 8l-1 2-3 3v7a14 14 0 010 3l2 1 2-10v-4-2zm253 8l-1 2-1 1-3 9c0 5-1 8-4 11-1 4-1 4 1 2l4-2 6-4a30 30 0 012-1l1-2-4 1c-2 0-4 1-5 3h-1l3-5 4-7-1-8v-1l-1 1zm-270 2c2 7 3 10 5 10l2 1h3c1-1 0-2-2-3a62 62 0 01-7-8l-1-1v1zm256 5l-1 5 1 7 2 6 2-7 1-2-1-2-4-8v2zm-238 6l3 4c4 4 5 5 7 5l3 1h1l-2-2-1-1-1-1-2-1-4-3-4-2zm-8 1v1l-1 2v4l-1 3 2 2 3 2v1l-1-6-1-6c0-4 0-4-1-3zm248 14l1 4v8c2-2 2-5 1-9l-1-3v-1l-1 1zm-4 0a47 47 0 00-8 9l-1 1 6-4c2-1 5-7 4-7l-1 1zm-223 0v3 3l2 4 4 6 3 2 3 2-1-2-1-1-7-14-3-3zm13 12v8c2 4 3 4 3 2 1-2 0-9-1-11l-1-2-1 3zm194 0a153 153 0 01-12 18l6-2c3-1 5-4 6-8l1-1v-5-2c0-2 0-2-1 0zm-212 6l2 2 1 2 1 1 3 1 2 1 7-1-3-2-6-3-2-1-5-1v1zm199 1l-3 9-1 3 1 1 3-6 1-4-1-3zm-175 6l1 1a8 8 0 013 2c2 2 4 2 8 1 2-1 2-1 0-1l-3-2c-3-1-6-2-9-1zm-10 2v2 2l1 3 1 1 1 2 3 1 1 1h1l-2-3-3-7-1-2h-2zm170 4l-1 1h-2l-3 1-2 2 6-1 6-1h5l-7-2a15 15 0 00-2 0zm12 5l2 3 4 1 4-1 2-3-2 1h-7l-3-1zm-3 2l-2 7c0 1 2-1 2-3l1-5-1 1zm-139 2v2l-1 1v2l1 1 1 3 1 2 2 2 7 2v-1l-2-1-5-7-3-4-1-3v1zm103 7l-1 1-1 1-3 7-1 4 5-5c2-3 2-4 2-7v-2l-1 1zm-118 2l1 2 2 1 3 3 2 1 5-1h6l-1-1-2-1-6-1-5-1-4-1-1-1zm48 3l1 2 3 6 2 1 4 2h3l-5-7-4-3a1 1 0 01-1 0l-3-1zm17 0c-2 1-3 2-3 4-1 2 0 4 1 6l1 2v-5-4l2-3h-1zm-34 1l-3 2v1l2 1h2l2-1h2l3-4h-3l-5 1zm51 0l-2 2-5 3-3 2-2 2c-3 2-3 2 3 2l6-3 4-8h-1zm46 2l-7 2-4 2h1a9 9 0 013 1h3c2 1 4 0 7-1l3-1 3-3h-9zm-118 2l4 3 4 1 4-1h1l-1-1h-6l-5-2h-1zm17 0v2l2 3 1 2 4 2 1-1-5-6-3-2zm69 1a18 18 0 012 2l5 1 4-1-4-1-4-1-2-1h-2l1 1zm14 5l-5 3-5 3-1 2 3-1h3l4-4 2-2c1-1 0-1-1-1zm2 1l2 1 2 1 1 1 6-1 3-1-6-1a26 26 0 01-8-1v1zm-49 3l-7 4h-3l6 1h3l1-1c1-2 2-2 3 0l2 2h8-1l-3-1-2-1-1-1-3-3h-3z"/></g><path d="M365 159l1 3c-1 1-1 0-1-1v-2m-3-1l-2 4 2-1v-3M363 158l-1 4 1-1v-3m1 1l1 3-1-1v-2"/><defs><path id="B" d="M337 88l1 1v-1h-1z"/></defs></svg>