<svg xmlns="http://www.w3.org/2000/svg" xmlns:xlink="http://www.w3.org/1999/xlink" width="750" height="500" xmlns:v="https://vecta.io/nano"><style><![CDATA[.B{stroke-width:1.496}.C{stroke-linecap:round}.D{stroke-linejoin:round}]]></style><path fill="#fff" d="M0 0h750v500H0z"/><g stroke="#000"><g fill="#188400" class="B D"><path d="M301.528 400.744l13.815-11.475s-3.044-6.323-14.05-6.09c-10.302-7.258-28.098-24.353-28.098-24.353l-8.898-24.12s7.26-2.107 8.898-7.96-.47-13.114-1.17-13.815-7.96 1.17-10.068 4.215-5.386 14.753-10.303 10.772.703-8.43.703-8.43 4.917-6.088 4.683-9.367-6.555-13.113-7.26-13.347-2.107 12.88-3.98 14.284-4.45 7.26-8.196 3.98 1.873-8.197 1.873-8.197 10.537-5.62.234-24.12c-3.044 7.962-8.897 13.113-8.897 13.113s-2.8 4.918-5.386.703 3.044-8.196 3.044-8.196 9.132-5.386 9.367-13.348-11.005-17.094-11.005-17.094-.702 14.753-4.215 16.626-4.917 4.917-8.898 1.64 3.044-10.537 3.044-10.537 12.176-12.176 11.474-19.202-1.405-8.196-1.405-8.196-9.132 5.62-10.302 8.43-4.917 12.88-9.6 9.835c-3.278-3.746 2.8-11.005 2.8-11.005s4.45-4.917 4.215-7.025-3.746-8.43-10.537-14.518c-.936-1.873-1.405-9.367-1.405-9.367s-5.15 6.09-4.916 9.367-.47 9.835.234 17.094-5.62-2.342-5.62-2.342l1.17-23.416s-8.898-10.772-19.67-14.752c3.98 5.854 3.746 11.474 3.746 11.474s-4.45 9.6-4.45 12.176 5.15 13.816 14.752 21.31c-14.518-15.69-32.547-10.537-37.934-13.582 2.576 3.044 10.303 14.518 9.367 17.563s13.816 9.367 13.816 9.367l15.69.234s7.727 5.385 8.43 8.897-11.24-6.556-15.922-6.322-17.094-1.638-17.094-1.638 7.493 7.024 7.727 10.07 3.512 10.07 7.962 11.942 16.4 2.577 16.4 2.577 5.15-3.045 6.09.233-6.8 5.855-6.8 5.855-7.96 0-10.537-2.108-3.044-5.62-14.517-7.025c-1.17 9.6 6.322 19.435 6.322 19.435s31.61-2.576 31.376 4.216-26.225.702-27.16-1.406 1.17 13.347 7.26 16.625 19.67 1.64 21.31.938 7.727-1.405 7.727 2.108-30.908 6.323-31.376 5.386 4.683 11.942 17.094 11.24 17.795-4.45 17.795-4.45 7.493-1.406 8.195 1.64-7.493 4.45-7.493 4.45-19.67.47-20.37-.47 4.45 12.41 18.264 12.177c10.303-.937 11.005-5.387 13.113-6.09 3.044-.702 9.6-.702 10.537-.468s17.328 11.707 17.328 11.707l41.677 42.15z"/><path d="M180.706 215.754s-.47 22.48 10.77 29.27m12.88-11.474s7.493 11.474-5.15 15.7m-33.72-7.962s-.936 12.878 21.777 11.942m34.42-.702s-3.746 9.132-12.878 8.663m21.308 11.943c0 1.17 1.64 13.582-10.302 13.347m-46.832-18.5s14.986 9.368 21.776 8.665m-18.498 14.05s7.024 7.494 19.903 5.62m41.914-.468c0 .938-2.34 8.197-7.493 9.134m-42.616 7.493s5.62 7.258 20.37 3.278m43.788-6.323s-2.342 11.474-8.43 11.708m22.713.702s-4.683 13.815-16.625 11.708m-38.4 12.88s4.683 4.216 16.156-.937M198.5 332.368c.936 0 6.8 4.917 20.84-2.576m82.166 53.743s-8.75 3.917-.26 17.106" class="C"/></g><g fill="#00cede"><g class="B"><path d="M573.017 219.396l-4.68 63.66c-.216-.146-9.312-11.146-9.312-11.146l-28.072 88.007 6.56 19.198-16.344 53.592-13.48-17.098-21.775 8.756 17.48-56.444 16.148-11.603 29.077-86.7-16.137 2.02 40.534-52.243z"/><path d="M635.053 245.714l-34.075 53.977c-.123-.23-2.975-14.218-2.975-14.218l-55.79 51.754-59.575 57.485-.164-11.84-20.385-2.517 26.963-20.63 13.808-2.275 87.04-78.894-15.192-5.808 60.345-27.033z"/></g><path stroke-width="1.527" d="M482.678 382.78c.37-.77 30.977-26.922 30.977-26.922"/><g class="B"><path d="M616.913 199.858l-16.78 61.588c-.184-.183-7.006-12.723-7.006-12.723L525.825 364.34l2.765 20.1-24.154 44.255-9.958-19.362-23.047 4.426 25.813-46.837 18.07-8.297 68.038-114.142-16.226-1.106 49.785-43.517z"/><path d="M494.85 408.594c0-.368 23.233-40.935 23.233-40.935"/></g></g><g fill="#ffd600"><g id="A" class="B D"><path d="M303.496 191.197s-15.07 16.213-22.606 4.11 10.503-15.528 10.732-15.757 10.504-3.425 11.416-22.378-22.606-31.284-29.228-32.883-26.03-1.6-26.03-1.6-71.013-17.126-78.32-22.378S95.02 82.73 95.02 82.73s-10.732-1.37-9.818 8.22 9.818 10.732 9.818 10.732-7.536 5.937-6.622 11.2 6.622 13.7 18.496 12.33c-1.37 18.724 24.66 21.693 24.66 21.693s2.74 26.945 26.717 25.576c5.708 18.495 27.17 19.182 27.17 19.182s10.047 12.56 24.66 13.472c8.448 21.008 26.715 15.07 26.715 15.07s-1.37 13.245 7.078 13.245c-4.338 15.07 11.873 17.126 18.04 14.157 1.6 3.196 7.078 13.016 19.637 6.85 7.534 11.2 19.866 5.937 19.866 5.937s2.74 8.906 13.47 5.48-11.642-74.214-11.415-74.67z"/><g class="C"><path d="M256.915 135.936s16.67 1.828 14.614 27.63m-78.09-54.346s-31.967 21.922 27.858 28.772"/><path d="M202.57 135.023c-.227.456-15.07 18.04 12.33 23.292-13.015 12.33 11.416 16.44 11.416 16.44s-5.023 13.016 9.6 16.44c-4.795 13.473 10.96 12.8 10.96 12.8s.456 16.44 19.18 16.213c-.23 11.2 12.786 11.875 12.786 11.875s3.882 12.102 16.44 8.448c1.37 8.448 10.047 6.622 10.047 6.622m-3.65 13.472s.685-11.646-2.055-13.93M280.9 254.22c.23-.23 5.48-10.732 3.653-12.56M261.7 247.6l14.158-13.93"/><path d="M243.9 233.898c.23-.23 21.463-13.472 21.463-13.472m-28.997-.001c.23-.23 12.1-5.252 12.56-9.6m-38.82-5.7s28.77 6.166 33.795-.456m-57.77-13.244c1.14 0 43.155 4.567 47.037-.685m-74.894-18.27c.685-.23 49.777 9.135 63.706 2.055m-87.224-27.4c1.143 0 65.305 15.528 74.895 10.732m-99.328-33.1c.456 0 76.494 17.812 86.083 10.503m-95.9-32.196c.227 0 72.84 23.748 79.005 17.8"/></g></g><g class="B"><use xlink:href="#A" transform="matrix(-1 0 0 1 789.25914 .523201)"/><path d="M441.494 180.034c0-3.448-1.12-10.142-4.764-12.46-4.68-2.433-4.68-3.93-5.053-7.112s7.86-9.17 7.86-9.17-7.486-3.37-10.292-2.995-8.234.935-8.982 1.684-4.866-13.474-2.246-15.72 8.045 5.24 8.045 5.24 3.555-8.234-8.982-23.954c4.304-30.7-24.328-37.802-30.877-37.615-5.426-.748-19.462 4.304-21.707 11.04-7.112 2.432-7.486 8.61-7.486 8.61s-14.596 2.62-16.468 15.346c8.608-7.11 14.222.75 14.222.75s7.486 5.24 11.415 5.427-3.743 13.1-5.988 15.346-11.603 10.855-11.23 11.415 7.298 2.62 6.924 5.8-21.334 12.913-20.21 15.346c5.427-1.684 9.658-.387 9.658-.387.756 5.314-1.36 11.432-4.972 13.412l101.13-.006z"/><path d="M356.438 98.427l6.78 6.78c1.84.575 12.183 5.632 11.61 9.08"/><path d="M374.828 114.288c-.575 3.448-7.356 5.172-7.356 5.172" class="C"/><path d="M364.598 89.233l10.344 9.884s1.84 8.505 9.195 7.816 6.322-3.793 6.322-3.793-8.85-6.207-15.86-4.713m98.78 170.045s9.195 8.828 9.38 10.667 2.4 10.482 4.78 11.77 11.77 8.828 13.058 11.77 9.563 15.45 9.563 15.45 7.724 15.815 12.873 17.104 19.678-.92 22.62 6.07 2.207 17.104 2.207 17.104-3.495 3.127-5.15 1.287-4.598 9.195-9.747 6.07c-7.014-14.935-25.37-12.497-25.37-12.497s4.038-6.26-12.33-11.78c-25.562 4.414-33.103-22.252-33.103-22.252l-14.55-12.62 25.77-38.14z"/><path d="M458.667 306.357l11.402 5.334-.92-9.747m5.7 2.942l10.482 5.15-4.23-8.46m-6.802-10.482l10.298 5.517-4.78-10.666m10.848 55.723l-11.586-15.45c.184 0 20.045 3.862 20.045 3.862l-7.356-15.815 18.207 4.78m14.53 25.015s11.586 2.576 11.218 21.886m-5.15-24.83s12.506-.735 11.77 18.758"/><path d="M314.9 270.865s-9.196 8.828-9.38 10.666-3.916 9.34-6.306 10.626-10.626 9.59-11.913 12.534-9.18 15.83-9.18 15.83-9.058 13.146-14.208 14.433c-6.293.525-18.343 1.75-21.285 8.738s1.607 17.676 5.04 17.676c5.148 2.288 7.498 4.65 9.153 2.813 2.798.83 1.198 3.226 6.348.1-3.914-5.016-3.496-9.863.427-11.134 3.913-1.34 10.287 4.617 10.287 4.617s2.32-10.83 18.688-16.348c25.563 4.414 32.43-16.214 34.22-21.134 4.03-5.486 10.298-6.947 15.448-10.42l-27.34-38.998z"/><path d="M330.058 306.514l-11.85 6.228.92-8.405m-4.805.483l-11.153 5.148 5.124-8.682m6.356-10.036l-9.627 4.175 3.44-7.1M298.06 341.6c1.8-3.58 10.875-14.777 10.7-14.777s-18.704 3.863-18.704 3.863l6.014-15.594-16.193 3.216m-15.34 25.666s-14.065 2.575-8.548 19.978" class="C D"/><path stroke-linecap="butt" d="M258.468 341.603s-15.365.408-10.053 19.52"/></g><g class="D"><g class="B"><path d="M435.947 320.267s.953 11.25-3.814 16.017c21.164 1.335 32.605 22.882 32.795 28.03s-6.484 9.15-6.484 9.15 2.29 9.153-6.483 10.678c.19 8.77-5.9 8.77-5.9 8.77s-2.288 7.246-9.343 6.865c-2.098 10.487-12.966 10.296-12.966 10.296s-6.292 15.255-15.635 9.344c-5.9 12.966-21.545 12.394-27.457 0-3.24-.2-10.486 4.195-14.872-8.77-9.724 1.717-13.537-10.677-13.537-10.677s-6.484-.573-8.963-7.055c-7.626-1.525-6.29-9.152-6.29-9.152s-7.626-2.097-7.436-10.487c-6.102-3.624-5.53-10.106-5.53-10.106s4.767-22.5 32.414-27.267c-4.386-6.29-3.814-15.445-3.814-15.445l83.324-.194z"/><path d="M414.972 336.666c0 .382 2.86 12.394-6.483 14.3 18.496-4.96 37.753 41.95 37.753 41.95m-24.977-60.636s2.48 9.534-5.72 14.3c29.744 6.484 36.608 37.373 36.608 37.373" class="C"/></g><path fill="none" stroke-width="1.869" d="M427.747 327.513c0-.19 5.148 12.966-5.9 15.254 28.4-2.097 36.418 30.317 36.418 30.317" class="C"/><g class="B C"><path d="M406 342.005s4.767 9.15-4.004 12.012c16.588 1.716 21.927 56.25 21.927 56.25m-23.643-65.02s2.668 10.106-5.9 13.156c17.35-9.15 14.1 61.4 14.1 61.4m-19.65-73.982s-3.623 10.678 4.386 12.775c-15.826-4.385-12.775 61.2-12.775 61.2m.953-78.18s-2.48 9.724 7.246 14.68c-16.207-10.296-22.88 54.725-22.88 54.725"/><path d="M407.155 350.586s29.552 28.4 29.363 49.385m-76.076-72.267c0 .2-3.623 15.255 6.865 15.636"/><path d="M367.878 333.234c0 .38-2.86 12.774 5.528 13.347m1.144-9.724s-5.148 12.394 7.435 14.1"/><path d="M381.033 351.157c-.2 0-24.596 22.692-28.4 49.004m23.824-51.29c-.2 0-31.08 19.258-33.176 43.856m26.313-47.098s-34.32 20.02-32.795 38.135m24.595-42.52s-25.55 4.767-31.842 32.225"/></g></g></g><g stroke="none"><path fill="#fff" d="M307.5 165.56s24.708 13.645 42.41 12.908 44.253-12.17 44.253-12.17 23.602 13.276 42.778 11.434 45.727-12.17 45.727-12.17c15.857 79.167-20.282 150.22-88.506 182.184C321.77 314.675 286.614 235.14 307.5 165.56z"/><path d="M316.616 223.093v49.498l14.038 23.67v-73.168h-14.038zm28.076 0v89.624l14.038 13.067v-102.7h-14.038zm28.076 0v113.3l14.038 7.795V223.093h-14.038zm98.268 0v49.512l-14.038 23.875v-73.387h14.038zm-28.076 0v90.065l-14.038 12.802V223.092h14.038zm-28.076 0v113.084l-14.038 8.363V223.093h14.038z" fill="#be0a2f"/><path fill="#002768" d="M307.5 165.56s6.178 3.41 14.566 6.73 18.99 6.546 27.84 6.177c17.702-.737 44.253-12.17 44.253-12.17s23.602 13.276 42.778 11.434 45.727-12.17 45.727-12.17c3.873 22.988 5.808 34.728 2.397 57.533H302.58c-2.32-22.756-2.197-33.068 4.932-57.53z"/><path fill="none" stroke="#000" d="M485.073 223.092H302.578m4.932-57.53s24.708 13.645 42.41 12.907 44.253-12.17 44.253-12.17 23.6 13.276 42.778 11.433 45.728-12.17 45.728-12.17c15.857 79.167-20.282 150.222-88.506 182.183-72.403-33.07-107.56-112.605-86.662-182.184z" class="B"/></g><path d="M37.936 188.24l40.566.184-4.056 9.773 17.702 70.07 21.4-69.886-7.56-10.142H148.2l-9.035 9.773-34.85 100.127 9.034 13.092H72.784l9.035-13.092-34.112-99.758-9.772-10.142zm622.31 2.398h38.537l-6.27 8.666-.185 101.97 8.667 9.6h-40.75l8.113-10.326-.184-101.05-7.928-8.85z" fill="#00cede" class="B"/></g></svg>