<svg xmlns="http://www.w3.org/2000/svg" width="1106" height="658" viewBox="0 0 553 329"><style>.B{fill:#fff}.C{fill:#fdd6c6}.D{fill-rule:evenodd}.E{stroke:#000}.F{stroke-miterlimit:2.6131}.G{stroke-width:.425}</style><path fill="#008457" stroke="#008457" d="M0 0h553v329H0z"/><path fill="#ffd520" d="M276 268.5c-57.8 0-105-47.2-105-105S218.2 58.6 276 58.6s104.9 47.1 104.9 105-47.1 104.9-105 104.9z" class="D"/><path fill="#34c2de" stroke-width=".9" d="M275.5 85.3a78.4 78.4 0 11-78.3 78.3 78.5 78.5 0 0178.3-78.3z" class="E F"/><g class="D"><path d="M244.6 235.1c16 7.7 33 6.8 33 6.8a74 74 0 0059.7-30l-2.5-2.2c-5.6-5.5-11.3-12.5-16-15.4l-5.8-6.1c-.6-.2-4.4-2.6-4.9-3.2l-1-4.2c.5.5 1-1.8 0-2.5l-.1-5.5 2.2-.6 2.3-1 2.5-2c1.2 0 3.4-1.2 4.9-1.4l.8-2.5c1.3-2.4 3.5-3.6 5.3-5.4l1-1.4c-.5-.6.8-2 .8-2 0-.4-2-.2-2-.6V154c-.2-2.1-.7-.4-1.1-3.2-.4-2.8-1.5-2.3-1.6-3l-.5-.7c0-.4-1-2-1-2l-2.3-.8-1.4-.8 2.7-5.4c.5-1.8.6-2.2 0-2.2-.5 0 0-.7.3-.7s.4-.5.3-.8c-.2-.3-.8-.1-.7-.4l.3-1.4-.1-1.5-.3-1.1c-.1-.4-2-2.4-2-2.9l-2.2.2s-.9-2-2.6-4.4l-2.9-4.6c-.5-.1-4.6-6.5-8.5-6.5-.3-1.1-4.5-3.6-5.5-4.2-.7-.2-2.8-.9-4.6-1.8-1.8-1.8-10.8-3.3-14.6-3.8-4.6 1-2.6 0-6.2 1.5-5.4.4-9 1.6-12.7 4-2.7 2-3.6 3.2-5.9 5.7-.6.6-2.5 3.5-2.8 3.7l-2 3.5c-4.8 6.5-5.2 14-5.2 14a22 22 0 00-4.8 6.7c-.2.6-1.7 5.4-1.9 5.5 0 .7-.8 1.5-1.3 2.2l-4 9.3a12 12 0 006 8.4c.1 0 0 1.7.6 2.1 1.1.8 4.8 2.6 5.3 2.8 2.7 1.2 2.3 3 2.5 3.8 2.3 10.5 9 12.4 9 12.4l2.3 3.3s-9.3 1.9-9.3 4c0 3.3 1.2 6.7.1 9.9-1.2 3.3-2.2 5-2 8.4-5.8 3.3-12 7.1-17.8 10.7a88.2 88.2 0 0018.2 11.1z" class="B"/><path d="M278.2 113s-1.7-1.5-7-2.1l-6.5-.5c-2 0-8 1.5-10 2.2-2.2.7-3 2-4.7 3.9-1.4 1.7-2.5 3.6-3.6 5a47 47 0 00-4.4 12.2c-.4 3.7-.3 8.5-.3 10s.7 7.5.7 9.2-.5 6.6-.3 8l.6 7a41.6 41.6 0 004.2 14.6c1.3 2 4.3 4.4 6 5.2 2.3 1.3 7.9 5 19 1.5s14.9-7 17.3-10.7 4.3-12.8 4.3-14 .4-10.8 0-11.9-.9-3.4-1.4-4.5-1-3.2-1.6-4c-1-1.2-2.6-3.1-2.6-5 0-2.4-.7-3.7-.3-6.4.2-2 1-5.7 1.1-6.8s.2-3.9-.6-5.5c-.2-.6-2.2-3.5-3.5-4.7-2.4-2.3-6.4-2.7-6.4-2.7z" class="C"/></g><path fill="none" stroke-width="5.1" d="M276 56.8c58.7 0 106.5 48 106.5 106.7S334.7 270.2 276 270.2s-106.6-48-106.6-106.7S217.3 56.8 276 56.8z" class="E"/><g class="D"><path d="M259.9 258.1l2.5-11.6h-.5c-1 .6-2.5.8-4.4.5l-.1.8 1.7.4c.7.1 1 .3.8.8l-1.8 8.8c-.2.8-.5.8-1.5.6l-1.3-.2-.2.8 7.1 1.6.2-1-1.4-.2c-1-.3-1.3-.4-1.1-1.2zm8.6-3.9c-1.5-.7-2.3-1.9-2.2-3.4 0-2.2 1.8-3.7 4.2-3.6 2.3.1 3.7 1.4 3.7 3.3 0 1.2-.8 2.2-2.2 2.9 1.8.8 2.8 2 2.7 3.7 0 2.5-2.1 4.4-5.1 4.2-2.7 0-4.2-1.6-4.1-3.8 0-1.6 1-2.7 3-3.3zm.8.4c-1.5.5-2.2 1.5-2.3 3 0 1.7 1 2.7 2.9 2.8 1.9.1 3.1-1 3.2-2.6 0-1.8-1.2-2.3-3.8-3.2zm2-1.5c1-.7 1.5-1.5 1.5-2.6 0-1.5-.9-2.4-2.5-2.5-1.5 0-2.5.8-2.5 2.1 0 1.4 1 2.2 3.5 3zm8.4 1.4c-1.6-.6-2.4-1.7-2.4-3.1-.1-2.2 1.5-3.9 3.9-4 2.3 0 3.8 1.2 3.9 3 0 1.2-.7 2.3-2 3 1.9.7 2.9 1.9 3 3.7 0 2.4-1.8 4.4-4.9 4.5-2.6 0-4.3-1.4-4.3-3.6-.1-1.6.9-2.8 2.8-3.5zm.8.4a3 3 0 00-2 3.1c0 1.8 1.1 2.7 3 2.6 1.9 0 3-1.2 3-2.9s-1.3-2.1-4-2.9zm1.9-1.6c1-.9 1.4-1.7 1.3-2.7 0-1.6-1-2.4-2.6-2.4-1.5.1-2.4 1-2.4 2.3 0 1.4 1.2 2 3.7 2.8zm12-3.4c.4 1.9-.3 3.3-1.9 3.6-1.4.3-2.4-.6-2.8-2.7-.5-2.2.2-3.5 1.6-3.8s2.6.7 3.1 2.9zm.7 2.4c.8 4 0 6.4-2 6.9-.8.1-1.3 0-1.4-.4 0-.1.3-.5.2-1.2-.1-.5-.8-1-1.4-.8-.6.1-1 .8-.8 1.5.2 1.4 1.6 2.2 3.5 1.8 3.1-.7 4.8-4.1 3.8-8.6-.8-4-3.1-6-5.9-5.4-2.6.5-4 2.8-3.4 5.5.6 2.4 2.3 3.7 4.5 3.2a4 4 0 002.9-2.5zM235 239.1l-4.5 9.4c-.4.7-.6.8-1.2.6-2-1-2.1-2.2-1-5.8l-.7-.2-2 5 10.2 5 2.6-4.7-.6-.3c-1.8 2.7-3 3.7-4.8 2.8-.8-.4-1-.5-.6-1.5l4.5-9.3c.3-.7.6-.7 1.3-.4l1 .5.4-.8-5.8-2.9-.4.8 1 .6c.8.3 1 .6.6 1.2zm-5-4.1l-5-3.6-.4.8.8.5c.6.5.7.8.3 1.4l-2.8 4.1-5.3-3.8 2.8-4.1c.4-.6.7-.6 1.4-.1l.8.5.5-.7-5-3.5-.5.7.9.5c.5.5.7.9.3 1.4l-5.9 8.6c-.4.5-.7.5-1.4.1l-.8-.6-.5.7 5 3.6.5-.7-.8-.6c-.6-.5-.7-.8-.4-1.4l2.5-3.6 5.3 3.8-2.4 3.5c-.4.6-.8.7-1.4.3l-.8-.6-.5.7 5 3.6.5-.8-.8-.6c-.6-.4-.8-.7-.4-1.3l5.9-8.5c.4-.6.8-.6 1.3-.2l.9.6.5-.7zm-12.7-9.6l-8-8.5-4 3.5.5.5c1.9-1.2 3.2-1.8 4-1.4a9 9 0 013 2.2c.8 1 1 1.3.4 2l-3.6 3.5-.1-.2c-1.4-1.5-1.5-2.5-.2-4l-.5-.6-4.4 4.3.5.6c1.6-1.3 2.6-1.2 4 .3l.1.1-3.1 3.1c-.6.7-.9.4-1.8-.5-1.2-1.3-1.9-2.2-2-3 0-.9.5-2 1.5-3.4l-.6-.6-3.3 3.7 7.7 8 .7-.5-.8-.8c-.4-.5-.5-.9 0-1.4l7.3-7.1c.6-.5.9-.5 1.4 0l.7.8.7-.7zm-17-20.1c.4-1.3.2-2.8-.5-4.2-1.4-2.8-3.6-3.4-6-2.2-1 .6-1.8 1.5-2 2.5-.3 1.1 0 2.3.3 3.7.7 2.5 1.1 4-.5 4.8-1.3.7-2.5.3-3.3-1.2-1-2-.5-4.1 1.7-6.1l-.4-.6-4.2 2.5.3.6 1.4.2c-.4 1.2-.2 2.6.5 3.8 1.2 2.3 3.3 3 5.3 1.8 2.3-1.2 2.2-2.9 1.5-6-.3-1.5-.6-2.5-.5-3.3a2 2 0 011.2-1.7c1.4-.7 3-.3 4 1.6 1 2.2.4 4.4-2.2 6.5l.4.7 4.8-2.8-.2-.6h-1.6zm-3.1-9.3l-3.8-11.2-5 1.5.2.7c2.2-.4 3.6-.3 4.3.4.6.6 1 1.7 1.6 3.2.4 1.3.5 1.7-.4 2l-4.7 1.7v-.3c-.7-2-.3-2.8 1.5-3.6l-.3-.8-5.7 2 .2.8c2-.5 2.8 0 3.5 2v.1l-4 1.5c-1 .3-1 0-1.5-1.2-.5-1.7-.7-2.9-.5-3.7.3-.7 1.2-1.6 2.7-2.4l-.3-.8-4.5 1.9 3.7 10.7.8-.3-.3-1c-.3-.7-.1-1 .5-1.2l9.6-3.4c.7-.2 1 0 1.2.7l.4 1 .8-.3zm-18.9-16.3l-.1-.7 11-7.1c.7-.5.9-.8.7-1.5l-.1-.4.9-.2 1 5.7-.8.1-.1-.7c-.2-.8-.3-1-.8-1a5.1 5.1 0 00-.6.3l-2.2 1.3 1 5.2 1.6.2h1.2c.6 0 .8-.6.6-1.5v-.5l.8-.1 1 4.9-1 .2v-.2c-.2-1.1-.7-1.4-2-1.7l-12.1-2.3zm8-3.7l-5 3.4 5.8 1-.8-4.4zm4.6-7.3l.4-11.4-5.3-.4v.7c2 .4 3.1 1 3.6 1.6.6.7.7 1.9.6 3.7 0 1.2 0 1.5-1 1.5l-10.1-.4c-.7 0-1-.2-.9-1v-1h-.9l-.1 6.2h.9v-1c0-.8.2-1 1-1l10.1.3c.7 0 1 .3.9 1.1v1h.8zm-4.4-25.7a7.7 7.7 0 01-4.4-3.2 6.3 6.3 0 01-.7-5.2 6 6 0 013.3-4c1.7-.8 3.4-.9 5.4-.3a7 7 0 014.3 3 6 6 0 01.9 5.4c-.6 2-1.7 3.3-3.5 4a7 7 0 01-5.3.3zm.7-2.3c4.1 1.1 6.5.4 7.2-2.3.8-2.7-.9-4.5-5-5.7-4-1.2-6.4-.5-7.1 2.2-.8 2.7.8 4.5 5 5.8zm10.4-9.8l3-5.7-.9-.4-.5 1c-.4.8-.7.9-1.3.6l-4.4-2.4v-.1c1-1.9 1.9-2.2 3.8-1.5l.2-.7-5.3-2.8-.4.7c1.6 1 2 2.1 1 3.9v.2l-4-2c-.8-.5-.6-.8 0-1.9.8-1.6 1.4-2.5 2.2-3 .7-.2 1.9-.2 3.5.3l.4-.7-4.4-2-5.1 10.1.8.4.4-.9c.4-.6.7-.8 1.3-.4l9 4.6c.7.3.8.7.4 1.4l-.4 1 .7.3zm16.2-26.9l-7.2-7.3c-.6-.6-.6-.9 0-1.4 1.5-1.5 2.6-1.2 5.5 1l.5-.6-4-3.6-8 8.2 3.5 4 .6-.5c-2-2.6-2.5-4-1.2-5.4.6-.7 1-1 1.6-.2l7.3 7.3c.4.5.4 1-.1 1.5l-.9.8.7.6 4.6-4.6-.7-.6-.8.8c-.6.5-.9.5-1.4 0zm4.1-2.6l4.9-3.7-.5-.7-.8.6c-.7.4-1 .4-1.4-.1l-3-4 5.2-4 3 4c.4.6.3 1-.3 1.4l-.8.6.6.7 4.8-3.7-.5-.7-.8.6c-.6.5-1 .4-1.4-.1l-6.2-8.3c-.3-.5-.3-.9.3-1.4l.8-.5-.5-.8-4.8 3.8.5.6.8-.5c.6-.5 1-.5 1.4 0l2.5 3.5-5.1 4-2.6-3.5c-.4-.6-.4-.9.3-1.4l.7-.6-.5-.6-4.9 3.7.6.6.8-.6c.5-.4 1-.4 1.3.2l6.2 8.2c.4.6.3 1-.3 1.4l-.8.6.5.8zm13.2-9.8l10.3-5.3-2.2-5-.6.4c.6 2.2.8 3.6.2 4.5-.5.6-1.5 1.2-3 2-1.1.6-1.5.7-1.9 0l-2.3-4.6h.2c1.8-1 2.8-.7 3.8 1l.7-.4-2.7-5.5-.8.4c.8 1.8.4 2.8-1.4 3.7h-.2l-2-3.9c-.3-.8 0-1 1-1.6 1.6-.7 2.7-1.1 3.5-1 .8.2 1.7 1 2.8 2.4l.7-.4-2.5-4.3-10 5.2.5.8.9-.5c.6-.3 1-.3 1.3.4l4.6 9.2c.4.6.2 1-.5 1.3l-.9.5.4.8zM255.6 80.6c1 .7 2.5 1 4 .7 3-.5 4.4-2.3 4-5a4 4 0 00-1.8-2.8c-1-.6-2.2-.7-3.6-.8-2.5-.2-4-.1-4.3-2-.3-1.5.5-2.5 2.2-2.7 2.2-.4 3.9.7 5.1 3.4l.7-.1-1-4.9-.7.1-.6 1.3a5 5 0 00-3.7-.7c-2.5.4-3.8 2.3-3.4 4.6.5 2.5 2 3 5.2 3.3 1.5.1 2.5.1 3.3.5.6.2 1 .9 1.2 1.7.2 1.6-.7 3-2.7 3.3-2.5.4-4.3-1-5.4-4l-.8.2 1 5.5h.7l.6-1.6zm17.6-2.9l-.5-10.4c0-.8 0-1 .8-1 2.2-.2 2.9.8 3.6 4.4h.7l-.6-5.4-11.4.6v5.4h.7c.3-3.3.9-4.7 2.8-4.8 1-.1 1.2-.1 1.3 1l.5 10.3c0 .8-.2 1-1 1H269l.1 1 6.5-.4v-1l-1.3.2c-.7 0-1-.2-1-.9zm10.9-12.3l.7.1 4 12.6c.2.8.5 1 1.2 1.1h.4v.9l-5.7-.4v-1l.7.1c.9 0 1.2 0 1.2-.4l-.1-.7-.7-2.5-5-.3-.8 1.4-.4 1.2c0 .6.4 1 1.4 1h.5v1l-5-.3v-1h.2c1 0 1.5-.3 2-1.4l5.4-11.4zm1.5 8.8l-2-5.8-2.5 5.5 4.5.3zm11.7 6.1l2.3-10c.1-1 .4-1 1.1-1 2.1.6 2.5 1.8 2.2 5.4l.7.1.9-5.2-11.2-2.7-1.4 5.2.7.2c1.1-3.1 2.2-4.3 4-3.9.9.2 1.2.3 1 1.3l-2.3 10.1c-.2.8-.5 1-1.3.8l-1.1-.3-.3.8 6.4 1.5.2-.9-1.2-.3c-.7-.1-.9-.4-.7-1zm4.3 3.4l10.8 4.2 2.2-5-.7-.1c-1.1 2-2.1 3-3.1 3-.8.1-2-.2-3.5-.7-1.2-.5-1.5-.8-1.2-1.6l1.8-4.8.2.1c1.9.7 2.3 1.7 1.8 3.6l.7.3 2.2-5.8-.8-.3c-.8 1.8-1.8 2.2-3.6 1.4h-.2l1.6-4.1c.2-.9.5-.9 1.8-.4 1.6.7 2.6 1.2 3 2 .4.7.5 1.9.1 3.6l.8.3 1.5-4.7-10.4-4-.3.7 1 .4c.6.3.8.6.5 1.2l-3.6 9.7c-.3.7-.6.8-1.3.5l-1-.4-.3.9zm27 5.6c1.4-1.6 3-2.5 4.8-2.8a6 6 0 015 1.5 5.8 5.8 0 012.2 4.7c0 1.8-.6 3.5-2 5.1a7.1 7.1 0 01-4.3 2.9 6 6 0 01-5.2-1.4 6 6 0 01-2.3-5 7 7 0 011.8-5zm2 1.6c-2.7 3.3-3 5.8-1 7.6 2.1 1.8 4.5 1 7.2-2.3s3.1-5.7 1-7.6c-2.1-1.8-4.5-1-7.2 2.3zm4.9 13.3l4.3 4.8.6-.6-.8-.9c-.6-.6-.6-.9 0-1.3l3.7-3.4.1.1c1.4 1.5 1.4 2.5 0 4l.6.6 4.5-4.1-.6-.6c-1.5 1.2-2.6 1-3.9-.4v-.2l3.2-3c.6-.6.9-.4 1.7.6 1.2 1.3 1.8 2.3 1.8 3.1.1.8-.4 2-1.5 3.3l.6.6 3.4-3.4-7.5-8.5-.6.6.6.7c.6.6.6 1 0 1.5l-7.5 6.9c-.5.5-.9.4-1.4-.1l-.6-.8-.7.6zm29.7 19l-.8.3.2.4c.2.7.2 1-.2 1.4l-1 1-7.7.7 6.6-5.6c.2-.2.4-.4.6-.4.3-.1.6.1.8.9l.2.5.8-.4-2-5-.7.3.1.5c.2.5.1.9-.4 1.3l-10 8.5.3.7 10-1-7.8 6.7.3.7 12.1-1.2c1.2 0 1.8.1 2.2 1l.8-.2-1.6-4.3-.9.4.2.4c.3.9.2 1.3-.4 1.6l-1.2.3-7.6.7 6.7-5.6.6-.4c.4-.2.6 0 .9.8l.1.4.9-.3-2.1-5.2zm6.3 17.6l.2.7-10.8 7.6c-.6.5-.8.8-.6 1.5l.1.4-.9.3-1.3-5.7 1-.2v.7c.3.8.4 1.1.9 1l.5-.3 2.2-1.4-1.2-5-1.5-.3h-1.2c-.6.1-.8.7-.6 1.5l.1.5-1 .3-1-5 .8-.2.1.2c.3 1.1.8 1.4 2 1.6l12.2 1.8zm-7.9 4l4.9-3.5-5.8-.8 1 4.4zm-2.6 9.9c-.9.9-1.3 2.3-1.3 3.8.2 3.1 1.8 4.8 4.5 4.6 1.2 0 2.2-.5 2.9-1.4.7-.8 1-2 1.3-3.5.4-2.6.5-4 2.4-4.1 1.5 0 2.3.8 2.4 2.5.2 2.3-1.2 4-4 4.8v.8l5-.5v-.7l-1.3-.7a5 5 0 001.2-3.7c-.1-2.6-1.7-4-4-4-2.6.2-3.3 1.7-4 4.9-.3 1.4-.4 2.5-.9 3.2-.3.5-.9 1-1.7 1-1.7 0-2.8-1-3-3.2 0-2.4 1.5-4.1 4.6-4.9v-.8l-5.6.4.1.7 1.4.8zm.5 10.2l-.8 6.1.9.1v-1c.2-.8.5-1 1.2-.8l4.8.7-.9 6.5-4.9-.7c-.7-.1-.8-.5-.7-1.2v-1l-.7-.1-1 6 1 .2.1-1c0-.7.3-1 1-1l10.1 1.5c.7.1.9.4.8 1.2l-.1 1 .8.1.9-6.1-.9-.1v1c-.2.8-.5 1-1.2.9l-4.2-.6 1-6.5 4.1.6c.8.1.9.4.8 1.2l-.1 1h.8l1-6-1-.2v1c-.2.8-.5 1-1.2 1l-10-1.5c-.7-.1-.9-.4-.8-1.2l.1-1h-.9zm-2.4 16.2l-1.3 6 .8.3.3-1c.1-.8.3-1 1-.8l10 2.3c.7.2.8.5.7 1.2l-.3 1 .8.2 1.5-6.1-1-.2-.1 1c-.2.8-.5 1-1.2.8l-9.9-2.3c-.7-.2-.8-.5-.6-1.2l.2-1-.9-.2zm-1.6 8.3l-2.2 5 .7.2c.8-1.7 1.6-1.8 3.2-1l7.3 3.4-14.2 2.8-.3.8 9.8 4.6c1.6.8 2.1 1.4 1.4 3l.8.4 2.2-5-.7-.3c-.8 1.7-1.5 1.8-3.2 1l-6.5-3 12.7-2.6 1.5-3.4-.8-.3v.2c-.5 1-.8 1.3-1.4 1.3l-8.1-3.8c-1.6-.7-2-1.3-1.4-3l-.8-.3zm-6.1 23.2l-.6.9c-.4.7-.6.8-1.4.3l-.7-.5c-1.5-1-1.8-2.5-.7-4.2 1.5-2.5 4-2.4 7.5 0 3.6 2.3 4.7 4.6 3.1 7-1.2 1.9-3.2 2.2-6.2 1l-.5.7 4.8 2.9.4-.7-.7-1.3a5 5 0 003.1-2.4c2-3 1-6.9-2.6-9.3s-7.6-1.8-9.6 1.5c-1 1.5-1.1 3-.6 4.2l-2-.4-.3.6 4.1 2.7c.6.4.6.7.2 1.3l-.6.9.8.5 3.3-5.2-.8-.5zm-11.7 9.3l7.3 7.2c.6.6.6.8.1 1.4-1.5 1.6-2.7 1.4-5.6-.8l-.5.5 4 3.5 8-8.3-3.7-4-.5.6c2 2.6 2.5 4 1.3 5.4-.7.7-1 1-1.6.2l-7.4-7.2c-.5-.5-.5-.9 0-1.4l.9-1-.7-.5-4.4 4.8.6.6.8-1c.5-.5.8-.5 1.4 0zm-1.8 8.6a7.8 7.8 0 011.7 5.3c-.1 1.8-1 3.4-2.5 4.6a6 6 0 01-5 1.3 7.5 7.5 0 01-4.6-3 7.6 7.6 0 01-1.7-5c0-2 .8-3.7 2.4-5a5.9 5.9 0 015.3-1.1c1.7.3 3 1.3 4.4 2.9zm-2 1.6c-2.6-3.5-5-4.3-7.1-2.6-2.2 1.7-2 4.3.7 7.7 2.6 3.3 4.9 4.3 7 2.5 2.3-1.7 2-4.3-.6-7.6zm-13.6 2.1l-4.7 2.4.3.7c1.7-.8 2.4-.4 3.2 1.3l3.5 7.2-12.8-6.8-.7.3 4.8 10c.7 1.6.7 2.3-.8 3.1l.4.8 4.7-2.4-.3-.7c-1.7.8-2.3.5-3.2-1.3l-3-6.5 11.3 6.1 3.4-1.6-.4-.8-.3.2c-.8.3-1.3.5-1.8 0l-4-8.1c-.7-1.5-.7-2.3.8-3.2l-.4-.7z"/><path d="M305.4 235.7H301V231h4.6v4.6z" class="B"/></g><path fill="none" stroke-width=".7" d="M246.7 121.4a35 35 0 00-5.2 13.2c-.1.5-1.9 2-4.6 6.6l-.6 2.5c-.4.3-1 2.9-1.1 2.9 0 .4-1 1.3-1.5 2.3-.3.8-.3 1.7-.6 1.8l-.6 1.2c-1 2-2.8 5.6-2.8 6.3 0 .9 2.4 6.6 6 8.4.1 0 .2 1.6.6 2.1 1.6 2 6.3 3 6.8 3.4.4.8.5.4 1.3 3.7s2.9 10.3 8.7 11.9c.7.2 2.3 3.3 2.3 3.3s-9.3 1.9-9.3 4c0 3.3 1.2 6.7.1 9.9-1.2 3.3-2.2 5-2 8.4-5.8 3.3-12 7.1-17.8 10.7a88.2 88.2 0 0018.2 11.1c16 7.7 33 6.8 33 6.8a74 74 0 0059.7-30l-2.5-2.2c-5.6-5.5-11-12-15.5-15l-5.5-6c-.6-.2-4.6-2.3-5-2.9l-1.4-2.5-.1-3.5-.3-4.3.4-3 1.8-.3 4.8-3c1.2 0 3.4-1.2 4.9-1.4l.8-2.5c1.3-2.4 3.5-3.6 5.3-5.5l1-1.3c-.5-.7.7-2 .8-2 0-.4-2.3-.4-2.3-.8l-.2-2c-.2-2.2-.4-.4-.8-3.1-.4-2.8-1.5-2.1-1.6-2.8l-.2-.9c0-.4-.8-.6-1.2-.8v-.8l-2.3-.6-1.3-1.1 2.7-5.4c.5-1.8.6-2.2 0-2.2-.5 0 0-.7.3-.7s.4-.5.2-.8c0-.3-.7-.1-.6-.4l.3-1.4-.1-1.5-.3-1.1c-.2-.4-1.4-2.3-2-2.9s-2.2.2-2.2.2" class="E"/><g class="D"><path d="M289.9 153.3s.4-.2.4 0c.2 0 0 .7 0 .8-.1.3.8.4.2.9-.1.1-1-1-1.4.1 0 .1.2.1.1.2l-.3.2v.3c-.8 0-1.1-.4-1.8.5s-1.3.8-1.5 1.7h.6v-.6c.3 0 .6 0 .7.2l.6-.5c1.4-1 .7.7 0 .7-.4 0 .4-.5-.5-.2a.7.7 0 01.1.4c-1.9.6.2 0 .7.7s-.3.9-1 .9v-.4h-.6v-.3c-.8.8 1.3 1-.8 1.8-.3.1 0 1.2 0 1.8.4 0 0-.6.8-.5s.3 1.1 1.2 1.6-.1.6-.7.7c0-.8-2.4-2-2.6-2.5-.1.5-.4.6-.5 1.1h.4v-.1c.4-.1 1.8 1.4 1.8 1.7h-.1c0 .4.3.6.6.6 0 .6-.1.7-.7.7v-.2l-1.1-.5.9 2-.7.5c0-.4-.5-.5-.9-.5 0 1.3.7.5.5 2 .6 0 .2.2.8.2 0 1-1 1.3-1.3 2.5h.4v-.2c.5-.1 1.3 1.2 0 1.3 0-.7-1.7-2.2-2.1-2.2v1c1 0 .8 1.8 1.7 1.8v.2h-.1v.7h.8v.2h.2v.7h-.1l-.2.6c-.2-.4-2-2.5-2.7-2.5 0 .4 1 1.9 1.3 1.9-.2 2.6-1.5-1.4-2.4-1.4 0 1.3 1.3 2 1 3.6h.7v.2h.2c0 .7 0 .8-.7 1 0-.9-.8-1.5-.8-1.9-.5 0 0-.3-.9.1l.3.1c0 3.6-.3 1-1.6 1 0 .6.8 1.2 0 1.3 0 .3 1 1.7 1.6 1.7-.1 1.7-.8.5-1.4.6-.2.6-.3.9-.7 1.4 0-.3-.5-.6-.8-.5l-.5.6 1.1.8v.4h-.1l-.2.7c-.2-.6-2-2.6-2.5-2.5 1 .4 1.2 3 1.8 3-.3 1.2-1.2-1-1.8-1 0 .9.7 1.9.6 2.5-.7 0-1.3-1-1.6-1.5v2h-.4c0-.8-1.1-1.6-1.4-2.3 0 .6.4 2.5.8 2.5 0 .2-.3.4-.5.4 0-.3-1.3-2.4-1.7-2.4 0 1.1.9 1.8.8 2.8h-.7c0-.5-1.1-2.6-1.7-2.6 0 1 1 1.7.9 3l-.5.1c0-1-1.5-2.3-1.9-3 0 1.2 1.1 1.8 1 3.4h-.6c0-1.5-1-1.6-1.5-2.4-.1 1 .7 1.4.6 2.6h-.5c0-.3-.9-1.5-1.5-1.4.4.2.4 1 .4 1.5h-.4c0-.5-.6-.7-.8-1.1l-.3.8h-.7c-.1-.7 0-.6-.3-1.3l-.8.3v.6h-.9v-.6l-.9.2v-.5l-.2.9c-1.3 0-1.5 1.7-1.5-.4h-.2l-.1-.2-.1.4c-1.5 0-2 .3-3 .4v-1c-.7.3-.5.1-1.2.2l.2.3c-1 .2-.7.1-.7-1h-.4c-.1 1.2.2 1 .2 1.7h.2l.2.7c2.4 1.9 9.7 8.1 10.5 8.4l1.5.3c2.7 0 16.6-3 17.2-7 .6 0 2.6-1.4 2.7-1.9 1.1-.3 2-2 3-2.3l.1-.4c1.4-.1 3.8-4.2 5.3-4.7.4-1.5 3-2.7 3.5-4.2 1-.3 3.6-5.9 4.2-6.1l.1-.4h.1c.1 1-1.6 4-2.2 4.2-.4 1.2-2 2.2-2.3 3.4h-.3c0 1.1-4.3 5.5-5 5.7 0 .2-1 1-1.2 1.1-.1.4-3.4 3.2-4 3.3 0 .4-4.3 3.8-4.9 4-1.3 3.9-16.5 5.8-17.8 5.8l.2.1v.2h.6c0 .2 6.5 5.4 7.6 5.4 0 0 2.8.3 0 .4v.4c1.5 0 2.5-.3 3.9-.4v-.1c2.8-1 2.4-1.1 3.1-1.2v-.3c1.8 0 3-1.8 4.6-2.2.2-.5 5-2 5.4-3.7.3 0 2.5-1.6 2.7-2 1-.3 2-2 2.9-2.2-.1 1-3.7 4.2-5 4.5-.5 1.6-4.4 3-4.6 3.4-3 .8-5.6 3.6-8.8 4.1v.1l-.4.1c4.2.3 6.9-3.7 10.5-4.3 0-.2 3-2.1 3.3-2.2v.2a4 4 0 00-.6 1c-1 .2-8.2 4.5-9 5.3 1.8.3 5.2-3.1 7.2-3.4 0 1-1 1.3-1.3 2.2h-.9c0 1 .2.5 0 1.6h-.1v2.4h.1v1.4h.3v.8h.2c0 1.2.4 2.4-.9 2.8 0 0-2.5 2-2.7 2-.3 1-3.7 2.3-5 2.4v.1h-.2c-.7 2.6-2.2 6.6-2.5 9.1h.2c-.2 1.5-1.4 1.2-1.4 2.5.3-.5.5-.4 1-.5-.1 1.5-3.3 3.1-1.4 2.6l.7-.1c0 .8-1 1.2-1 2h.6c0 1-.6 1.4-.7 2.4h.3v.9h-.2a3.4 3.4 0 01-1.6 2.7l.6.1.2-.2c0 1.4-.9 1.3-1 2.3 4-.1 4-14.5 4.3-13.9 1.3 3.8-1.2 9-1.7 13h-.1v.9h.1v.2c1 0 1.3-1 1.3-1.8h.3l-.2 1.6h.2v.2c.8 0 1.3-1.2 1.3-.2 1.2 0 1.4-1.7 1.6-2.7l.1 1.1-.2 1.6c1.2-.1.6-.5 1.1-.7.2-1.8.9-3.5 1-5.3h.2c0 2.2-.8 4-.9 6 2.7 0 5-.8 7.9-1 3.7-.2 6.9-1.1 9.2-1.7 3.8-.9 6.3-2.2 11.9-4.4l14.8-9.2c.7 0 5.5-4.4 5.5-4.8.7 0 2-1.3 2-2 1.3-.1 1.7-2.4 2.6-2.5.1-.4 3-4 3.3-4v-.7l-.2-.3c-1 0-23.8-26.1-27.9-26.1v-.3h-.2c0-1.9-2.7-3.6-.6-7h-.3c0-.8.3-2.5-.8-2.5 0-1 .4-1.7.4-2.6h.5c0 1.4.7.8 1 1.5.7-1 1-2 2.3-2.4l.1.2c.3-.1 1.3-1.7 1.4-2.1l3-1v.2c1.6 0 1.8-.4 3.4-.7l.1-.8h.1l.1-1.1h.1c.3-1.9 2.6-1.7 2.7-2.9-.6 0 .6-.7.7-1 1-.2 1.7-2.4 2-3s.4.5.6 0 1-2.1 1-2.6 0 0 .1 0v-.7c-.8 0-1.4.1-2-.2s.1-1.3 0-1.6-.1.3-.2 0c-.1-.9.2-2.9-.8-3.3-.3 0 .2-.6-.2-.3 1.6 3.8.9 4.9-1.4 7.6l1.3-2.2c.2-.6.2-2.8 0-3.5 0-.1-.2 0-.2 0 0-.6 0-1-.2-1.4-.3-.3-.6-.5.2-.7 0-.4.4-1.3.2-1.7-.1-.4-1.5-1-1.5-1.3-.1-.4 0-2-.3-2-.3-.2-1 .2-1 .2-.4-.3 0-.5 0-.8-1-2-2.7 1-3.4-2.8-.2-1.4-.2-1 0-1.7s-.7.7-.6.1 1.2-1.5 1-2.1-.5.4-.7.4c-.3.2.5-2 .6-2.3.5-1-.3-.9-.3-1 0-1 .2-1.7.7-2.5s.9.7.6 1.1-.5 1 .1 1.8c.4.4.1-3.6-.3-3.7-.4-.2-.6 1-1 1s.4-1.2.4-1.7-1 .5-1.1.2.5-.8.6-1.4l-.6-3.7c-.7-1-1.1 4.4-1.8 3.8-.8-.7 1.7-3.6-.3-5.6 0 0-.3.1-.4-.2-.4-1 0-1.3-.9-1.8-.5-.2 0-.2-.2-.4s-1-.3-1.3-.7-.3-1.1-1.1-.6c-1.4.7 0 .8-.7.2l-.7-.2c-.2-.1.5-.6 0-.2s-.2.7 0 .8-.7-.1 0 .2c2.4 1.2 3.2 2.4 3.6 4.7.1.5.3-.4.2 0s-2.3 3.8-2.9 3.3.5-.9.7-1.4c.6-1.9 0-3.2-1.8-3.9-.1 0 .1-.4-.1-.2s.8 1 1 1.3.6 1.7.4 2.5-5.4 3.9-6.1 4l-1.2-.2c-.7-.2 1.7-.6 1.8-.6.7-.1 5.5-3.5 3.3-4.3-.6-.3-.8 1.7-1.5 2.6-1.1 1.3-4 1-4.7.9-1-.2-1 0-.2.4 3.3 1.6-2.7 2-2 3.5.6.9 1.8-1.2 2.5-1.2 1 0-1 1 .4.5.5-.2.7.1 1.6 0s3.7-.7 4.6-1.8-.2 0-.7.1-4.5 1.8-4.9 1 1-.5 1.8-.6 2.6-1.2 3.2-1-.2 0 0 .2.6-.4 1-.3-.2.2 0 .3.9-.1 2-.5 4 0 4.7.7 0 .4 0 .5.4 0 .5.2c.2.3.8 3.6 0 2.4l-.5-1.3-.9-.4v-.5l-1.5-.4c-.1-.1 1.5 0 0-.2s-5.1 1.5-6.5 2-1.5-.1-2 .3-.2.3-1 .5-.6-.3-1.2 0-3 .3-2.6.6c1 .8 6 0 7-.3 1.4-.3.8.3 1 .4s2-.3 2.4-.2-.2 0 0 .2c.6.2 2.7 1 2.2-.6-.3-.8-.3 0-.4 0s.2 0 0-.3c-1.3-1.2-3.8.2-4.5-.2-.2-.1 6.3-3 7.6-.5 0 .2 0 .7.2 1 0 0 .2-.3.3 0 1.7 6.8-1.1-1-1.3-.5l-.4 1.3c-.9 2.6-7.2 2.6-8.6 1.8-.2 0 .8-.1 0-.2l-2.9-.2c-.7-.1 1.2-.2 0-.3s-4.9.5-5.8.3.1-.2 0-.3 0 .4-.4 0 1.4-.5.9-.8-1.4.3-1.8.2.3-.2 0-.2h-1.3c-.2 0 0-.6-.6-.3s.3.6.6.9 0 2 .3 2.2.3 0 .4 0l.4.7c.3.2 1.4.6 1.6.9 0 .2-.3.6 0 .8.7.8 2-.3 2.7-.2 1 .2 1.9-.1 3.7.5.5.1-.2 0 0 .2s.6 0 1 .2 1 1.4 1.4 1.3-.1 0-.2-.2c-.2-.5-.8-1.8.3-1.3.1 0 .1.4.4.6s.4-1.1.4.3-4.7 2.6-5.5 2.5.3-.2 0-.3h-1.6c-.3 0 .2 0 0-.2s-2.5-.6-1.7-1c-.2.3 6.1 0 6.8 0 1.2 0-.3 0-.4-.1s0-.2 0-.3l-.5-.2s.7 0-.2-.4-4.4-.2-5.3-.5c.2-.4-2.4-.7-3-.8-.5-.2.6 0 0-.3l-1.7-.6c-.4-.2-.2-.8-.6-.5-.4.5 2.8 2.2 2.9 2.2.9.5 5.2.6 6.6.7s0 .1 0 .2 1.8.1.2.2-5.2 0-5.8-.2.7 0 0-.2-1.2.6-2 .2 0-.3-.2-.4l-.8-.2c-.1-.1-.1-.4-.3-.5-.2 0-1.2-.6-1-.2 0 .3 2 1.3 2.4 1.5.2.1.2.6.4.7.7.3 4.5 1.1 3.8 1.3-.7.1-1.7-.7-2.4-.4s2.2 1.2 2.3 1.3c.2.3 2.8-.4 3-.5v-.2c1.4 0 5-1.6 5-3.3 0-1.3-.1.1-.2 0s0-.3 0-.4-.6-.7.3-.5l1.2 3.4c.3.4.6-1.6.5-1.8s-.1.3-.2 0l-.2-1.3c-.1-.3-.4 0-.3-.4s.7.3.7.3c.4.7.5 2 .4 3.2 0 .8-.8 1.5-.8 2s.4 0 .7.2-.2.2.2.4c1.4.7 1.7 1.7 2 3 0 .2 0-.3.2 0s-3.2 1.3-3.8 2.1.2 0-.4-.2-3-.1-4-.2.3-.2 0-.2H302c-.3 0 .1-.2 0-.2s-2-.3-1.3-.5.6.6 1.8 0-.6-.4-1-.4.5-.1 0-.2-.6 0-1.5-.3 3-.2 3.5-.2 0-.1-.2-.2.3-.2 0-.2h-1c-.3 0 .8-.2 0-.3-2.2-.2-3-.2-5-.6-.4-.1.5-.2 0-.2-1.8-.4-.6 1.6 0 1.1.6-.3 1.5.3.8.6-.7.2.2 1.8.7 2 .5.3.1.6.2.7s.3-.3.4 0l.2 1.5c.1.3.2-.3.3 0l.2 1.1c.2.2-.3-1 .2 0 .4.8.1-.6.3-1a5 5 0 01-.6-2.2h-.2c-.2-.3 4.9 0 5.8.2.1 0 0 .2 0 .2 2.3.7.4.2-.4.3l-3.1.5h.2c.1 3.1 5 3.5 7 2 .1 0 0-.4 0-.4-.6.2-2.7 1.3-3 1.2-.1 0 0-.2 0-.2-.6-.1-3-.6-2.5-1 1-.6 2.2 0 3.3 0l.3-.3c-.7-.2-1.3.3-1.6.1v-.2l-2.2-.4c-.8-1 2.5-.5 2.7-.5v.2c1.5.1 2.6.6 3-1 .1-.3.6-.3.8 0 .1 0-.2.4 0 .6l1.7.2c.1 0 0 .2 0 .2.5 0 2.8.3 2.9-.3 0-.6-1.5 0-1.8-.1v-.2c-.8-.1-1.6 0-2.2-.2v-.3c-.1 0-.3.1-.4 0-.7-.4 2.8-.3 2.6-.3-3-.7-.4-1.5.3-.8.2.3.5 1.3.8.8.5-1-.5-1-.9-1.2v-.2c-.7-.4-1.3.3-1-1.2 0-.2 2-.3 2.3-.4v-.3c2-.3 4.6-2.1 4.3-4.3h-.3c-.4-1.5 1.4-.3 1.1.8 0 .1-.8 1.5-.6 1.6.5 0 1.2-1.2.9.2-.3 1-2.7 1.1-3.5 1.3-.9.3 1 1.4 1 1.6l.3.6.4.3c.2.2.1.6.3.8 0 .1.2 0 .2 0v.7h.2c0 4-2.5 3.4-6 3.4v-.2h-.9v-.3s-1.2-.4-.7-.7c.8-.4.9.2 1 .2.2.1.6 0 .8 0v.3h2.2c.5 0-.3.4.4-.3.3-.2 2.1-.2 1.5-.8-.1-.2-1 .7-.5-1 .2-.5.2-1.3 0-1.7h-.3s.1-.3 0-.4l-.6-.4c-.3.7.2.5.2.6.2.2.1.7.3 1 0 .2.2 0 .2 0 0 3-4.2 2.5-5.8 1.4l-.1-.2c0 1 .4 3.2-.4 4-.9.9-.5-.2-.7-.2l-.8.3c-2.4.4-5.8-.5-7.5-2.7-.2.2-.6.4.2.5 1.3.2-.5 1.3-1.4 1.2s0-.4 0-.5h-.2c-.5-.5-.5-1.7-.7-2.6 0-.6 0 .2-.2 0-.3-1.1.1-.7-.9-1.1-.2-.1-1-1.3-1.5-1s.5.2.7.3 0 .7.2.8.3 0 .4 0 0 .4 0 .5.4 0 .5.2c.3 1 .3 1.4.7 2.2 0 .2.5.4.4.7-.4.7-1.3-1.4-1.4-1.5s-.4-.1-.4-.3c-.4-.8-.2-.8-1-1.5-.5-.6.1 1.3.1 1.3s.2-.2.2 0c.7 1.4-1.5 0-1-.2.4-.2 0-1.3-.1-1.8 0-.1-.2.2-.2 0-.1-.3-.2-2.7-.3-2.6-.4 0-.3 1.6-.4 2.2s-.4-1.9-.4-2-.2.2-.2 0v-1.1c0-.2-.2.1-.3 0 0-.4 0-.8-.2-1.1 0-.1-.1 0-.2 0l-.4-1-.5-.1c-.3-.4-1.8-2.4-2.4-1.8-.2.2 1.4.7.6 1.3s-1.2-.3-1.3 0c-.1.9 2 1.4 1.3 1.5-.7.1-1.4-.6-2-.8s.8 1.3 1.4 1.5-.2 1-.5.7.6-.7-.6-.6v.1c-1.6.5-.2.3.4.7s2.6 1 1.3 1.8-1.5.8-1.5 2.2a7.5 7.5 0 010 .6l.8-1.2zm8.4-38.4c-.4.6-.8 1.5-1.7 1.5-.3-.3-.3-.8-.6-1-.7-.5-.9-1-.9-2 .3 0 .4.5.6.6.7.6 1.3-.3 1.8-.7 2 0-.7-3-.7-3.6.8 0 2.1 2.7 2.1 3.6.4.2 1.9.7 1.9 1.4h.1v.1a5 5 0 01-1 .4c-.2 0 0 .5 0 .5 0-.7-1.7-.7-2-.7l.4-.1zm-47.4 59v.2l-.8.3v-.3h-.2l2.1-.8v-.1c.5 0 3.2-.7 3.4-.5.7.7 1.1.3 2.2.2v.2c.9-.1 4.1-1 4.9-.2.4.5-.1-.6.8-.2v.2c.5.2 1 0 1.6.2.2 0-.2.2 0 .2l5.5.4v.2h.5v.3h.2v.2h.2v.2h.2v-.5h-.2v-.2h.4v.3h.2v.2h.3v.4h-.1l-.1-.2h-.5v.4h-.6v-.2h-.2v-.2H269l-.1.2v-.2c-.7 0-1.2.6-1.6.4-.7-.2.3-.6-.4.2-.4.5-.3-.9-.6.2 0 .3-.4-.4-.4-.4-.4.2-.5.6-.9.3-.2-.3 0-1-.9-.7-.3.1.8.5.4 1-.3.5-.5-.5-.6-.6 0 0-.1.2-.2 0 0-.2.2-1.2-.7-.6-.5.3.4.6.5.7.2.8 0 1-.4.2-.1-.2-.4-.1-.5-.3s.1-.5 0-.6c-.5-.8-3.6.4-4.1.2-.1 0 0-.4-.4-.2-.4.3-1.6 0-1.5.8 0 .4.5-.4.8-.4.2 0-.2.5 0 .5s.8-.6 1.2-.5c1.2.5-1.4 1.2-1.8 1.1 0 0-.3-1-.7-.6 0 0 .1.3 0 .4-1.3.9.3-1 0-1.3-.7-1-.6 1.7-1.5 1-1.1-.7 1-.2-.6-.2-.3 0 0-.8-.5-.5-.7.4-.3-.2-.4-.3l-2.3-.5zm1-9.2v-.3h-.2v-.6c.4.7 1.6.6 2.2.7.2 0-.1.1 0 .2l.6.2c.1 0 .1.4.3.5 2 .4 3.9-1 6.2-1 .4.1-.3.5.4.3s1.6 0 2.2 0c2.3-.3 2.6-2.8 1.8-4.3 0-.2-.1.2-.2 0a4 4 0 01-.4-1.2h.4c0 .3.4.3.4.4.8 1.5 2 3.3 2 5.2l-.4.5c-.5.2-4 2-4.4 1.8 0 0 .2-.2 0-.2-.6-.2-3.6 1.5-4 1.3-.1 0 .2-.2 0-.2-1.6-.3-2-.6-4-1.6l-.2-.4c-1-.3-1.6-1.3-2.7-1.3z"/><path d="M277 150l1.3-1c.5-.3.8-2-.3-.8-.4.5-3.2.8-1.5 0l1.4-1h-.3s.2-.4 0-.5c-.7-.4-1 .9-1.6 1-1 .4-4 .7-4.4-1-.2-.8.4-2.8-1.3-1l-.3.3c-1.3.5.5 1 0 1.3-.6.4-.7-.3-.8-.4-.6-.3-2.7.3-2.4-.6.2-.5 5.6-2.7 6.1-2.5.2 0-.2.2 0 .3h1.4c.3 0-.2.2 0 .2 1 .4 2.1.6 3 1.1.2 0 0 .2 0 .2.3.2.7.1 1 .3 0 0 0 .3.2.4l1.1.2c.1 0 0 .2 0 .2 1.3.7.2.2.4 1.4h.3c.3.7-.7 0-.8.4-.5.8-1.5 1.7-2.5 1.5zm-29.3-.9c-.2 0 .1-.1 0-.2-.4-.1-.8 0-1.1-.2-.1 0 .2-.2 0-.2-.5-.2-1.6.2-1-1.1 1-1.7-1 .3-1.6 0-.6-.3 3.3-2.1 3.5-2.2l1.1-.8c1.5-.4 2.8-.3 4.2.1v.3s.3-.1.4 0 0 .3 0 .4l.7.2.2.5c.3.1 1.9.6 1.2 1.2-1 1-.7-1.2-1.7-.2-1.2 1.2-4.5 1.7-5-.4-.1-.4.2-2-.8-1-1.8 1.9 2 2.3 1.2 2.7-.9.4-2.1-1.1-2.4-.8-.5.5.5.6.6.7l.2.4h.7c.1 0-.1.2 0 .2 1.4.5.8.6-.4.4zm-4.6 23.1c-.6-.8-.3-.4-1.4-.9l-1-.1c-.2-.2-.3-.5-1.1-.6-.8 0-2.5-1-2.7-1.3l-.9-2 .2-.6c-1.2-.5-1.1-1-1.5-.5l.9-1.3s-.1.2.1.2a7.9 7.9 0 001.4 0c.6 0-1.1-.4-1.1-.4l-.3-.5c-.5-.2-1.1-.8-1.6-.2l-1-.4v-.2h-.5c-.6-1 2.4-.7 1.1-1.4h-1.3s0-.6-.3 0c0 0-1-1-.1-.6 0 0-.2.2 0 .2 1-.8 8.6-5 8.1-6.7 0-.2-.6.8-.7.9-1 .3-.6.1-1 1-.3.5-1.3.9-1.6 1.2-.8.7-3.4 2.9-4.6 2.5-.7-.3.6-.6.7-.6l.5-.8c-1.5.5-.4-.4.1-.7.3-.2 5-2 4.6-3.2 0-.2-2.2 1.4-2.4 1.5-1 .5-1.7.6-2.9.7l-1.8 1.3c-.4-1.6 3.8-2.1 4.3-2.9.2-.4-1.7-.1-2 0-.2 0 0 .2 0 .2-.7.5-1.3.3-2 1l-1 1.3c-.5-1.4 4.2-4.8 5.2-4.4.5.1-2 1.3.2.7 1-.2 2.9-1 3.3-1.9.7-1 .8-3.2 2-3.8.4-.2.7-1.6.6 0 0 .2-.7 1-.7 1.2-.1.3-1.5 4.8-.3 2.4 0-.1 1.8-4 2-3 .1.4.1 1.8-.3 1.9-1 .2-.5 0-.9.8 0 0-1.7 3-1.1 2.8.2-.1 1.8-3.5 2.3-3 .6.8-.9.7-.7 1.4 0 .1.6-.5 1.1-.1 0 0-1 1.5-1.3 1.2-.2-.2.1-1-.4 0-.1.2-.4 1.8 0 1.3s.3.3.8-.2 1.2-.5.6.2c-.4.4-.7 1.2-.6 1.8 0 .1.7.2.5.6h-.3a26.4 26.4 0 00-.2 1.9c.2.2.6-.3.7 0 .2.2-.5 2.4 0 2 0 0 .8-1.8 1-1.6.4.4-1 2.2-.8 3 0 0 1-.3.3.3-.2.3-.9 2-.3 1.6 1.5-.9-.5 1.3-.2 2 .1.2.7-.5.4.6-.4 1.7.9-.5.5 1.1 0 .1-.8 1.5-.7 1.6.1.1 1.4-.2.6.6l-.5 1zm.6 62.9v-.2c-.5 0-1.2-.7-1.8-.7v-.2h-.2v-1c1.3-4.4 3.5-8 3.7-13.8v-1.6l-.1-.1.2-.1v-4l-.1-1.2c.1-3.3 1.7-6.3 2.2-9.4.1-1.7-.1-4.2.4-5.4v.3h.3v4.9h.2c.1-1.6.5-3.7.8-5.4 1 5.7-1.7 10.8-2 16.4h.1v.5h.2c.4-5.8 2.3-11.7 2.8-17.5l.1.2h.3c0 6-1.9 12-2 18h.2c.3-6.2 2.4-12.4 2.5-18.7h.4v.2h.2c0 5.6-1.7 11.1-2 16.6h-.1l-.1 2.3h.2l.1-1.8h.1c.6-5.6 2.2-11.4 2.2-17.3h.5v.2h.2c0 3.1-.5 6.4-.7 9.8h.2a39 39 0 001.2-9.5h.1c.4-1.2 4.6 4 1.8 4.5-1.6.6.8 2.8 1.8 2.8v.4h-.7v.7l-.2.7c1.5-.3 2.5 2.3 3.1 3.3l2.3 1c-.8 0-1 .2-1.3.2l-.5-.8s-2.8 2-.7 2v.2l2.2 1-2.6 1.3h.4s-1.2.8-.4.8v.4c-.7.2-2.7 1.1-2.7 1.9.4 0 .7 0 .7-.2 2 0-.4.3-.7 1.2l-2.2 1c0 .4-.2 1-.6 1V219l-.3.8c0 .5-2.4 1.9-1.5 1.9 0 0-4.7 4.4-5 6.9.6 1.1 1.6-.5 1.9 0 .3.7-3.2 2.6-1.6 3.1v.1h-.6v-.7h-.3c-.1 1 0 1.6-.3 2.5-1.1 0-2.3 2-2.3 1.6zm-17-11.3l17.6-10.3h.2v2.3h.2v2.1h-.1l-.1 3.8h-.1c-.4 3.8-2.4 6.7-3 10.1h-.1l-.3.9c-3.9-1.8-11-7.3-14.3-8.9zm88.4-69.6v-.6h.1v-1.1h-.2v-.3h-.2v-.2h-.2v-.2h-.2v-.2l-.2-.1h.4v.1h.2v.3h.2v.2h.2v.2h.2v.7h.3c0 .3-.2 1.2-.7 1.2zm-35.4 22.1c0-.2-.3-.4-.5-.4v-.6l.8 1h-.3zm-3.2.5l.1-.6.3.5h-.4zm1.8.6l-.2-.8c.5 0 .6.3.6.8h-.4zm-2 .5l-.2-.2c0-.7.4-.2.4.1h-.2zm.9 1.6c-.4-.1-.7-.3-.2-.7.4-.4 1.4 1.1.2.7zm.9.4c.9 0 1.4.5.5 1.3-.2.2-.7-1.3-.5-1.3zm-1.3 1.8c-.3 0-1-.7-.3-.7.6 0 1.2.6.3.7zm-16.8 6.6c-1.5-.2.5-1 .3-.6l-.3.6zm-1.9-.7l.1-.4h.1c1.2-.3-.2.8-.2.5zm-2 .3l.1-.4h.1v-.2h.5l-.7.6zm25.5-49h.4v.1l-.4-.2zm1.3.7c-.4-.5.4-.6.2 0h-.2zm11.8 10.4c0-1.3-1.6-3-2-3.5-1.2-1.5-.4-.1-.5-.2l-.6-1.1h-.5s-.5-.9-.7-1l-2.2-1c-.4.1-.6-1.8.2.2s-.5 0-1-.3-1.5-.5-1.8-.6 0-.4-.2-.5-2.3-1.1-2-1.4.3.2.6.4c1 .5 2.1 1 3.1 1.3 3.3 1-4-2.2-3.3-2.9.3-.3 2.5 1.3 2.6 1.4s0 .1 0 .2l1.1.4c.3.1 1.1 1.4 1.4 1.6 1.7.8 2.8 1 3.7 3 0 .2 1.2.3 1.4 1s.9 2 .8 3h-.1z"/><path d="M288.2 146c-.3-.9-4-3.6-3.9-3.7.3-.3-.3.1.1.2l1.6.5c.4.2-.3.1.2.4 2 1 2.1 2.9 2 2.6zm-.6.7l-.2-.4-1-.5-.4-.6h-.4c-.1 0-.7-1.3.2-.9s0 .4.2.5l1.5 1s.3 1.1 0 .9zm.7-9.8l-3.3-2.4c-.2-.1-.6-1 .2-.4l2.6 1.9c.4.3 4 3.1 2 2.5l-1.5-1.6zm-2.5-.4l-1.5-1s-1.1-1.2-.4-.7l5.4 3.9c1.1 1 2.8 1.5 3.5 2.6 1 1.3-2.6-1.4-2.1-.6 0 .3.6.3 1 .9s2.1 4 4.6 5 5.7 2 9.3 1.2c1.9-.3 3.7-.5 4 1.6.2 1.5-.3.5-.2 1.4s-1.5-1.2-4-1.3c-2-.1 1.3-.8-.7-.8-5.4 0-9-.8-12.5-5.2-2.5-3.3-6.1-5.2-7.4-6.3-4-3 1.3.3 2.2 1l1.7 1.3c.2 0 .8.1-.1-.7l-2.8-2.4z"/><path d="M287.8 141s0-.2-.2-.2c-.6-1.6-4.9-1.6-4.9-3.7.3 0 1 .7 1 1 .6 0 1.5.7 2 .7 0 .1 2.6 2.1 2.9 2.1.4.5 1.3.5 1.8 1 .5.4 1 1.1 1.3 1.7.3.3.7.5.7.9-1.3 0-3.2-3.4-4.6-3.4zm19.8 11.2h-1.3l-.3-.2v-.2l1.3-.1v-.4c-.3-.2-1.1-.4-1.6-.4 0-1.5 3 .5 3 .5v.3l-1-.2v.7zm-7.2-6c-.6-.2 1.8 0 .9 0h-.9z"/><path d="M301.5 146.3c-.2-.2 0-.4.3-.3 0 .2-.2.4-.3.3zm-49.7 41.3c.6.3 2.6.6 1 0h-1zm-8.3-14.3c0-.4 0-.4.3-.6v.6h-.3zm2.4 1.7v-.6c.8 0 .4-.5 1.1-.5 0 .6-.5 1-1 1.1zm-1-1.1c0-.5.3-.7.8-.8l-.9.8zm9.4 1v-.3h.3v.2h-.3zm-6 .1l.1-.4.1.4h-.1zm-3.9 0v-.4l.1.4h-.1zM269 173v-.5l.2.3h.2v.1h-.4zm1.8 0v-.3h-.3l.7-.1v.2h.2v.1h-.6zm-11.6 2.8c-1.2-.6 1.5-.1.8 0h-.8zm-14 .2c0-1 .8-.5.2 0 0 0-.1.1-.1 0zm16.7.2c-.2-.2-.8-.8.2-.6.3 0 0 .8-.2.6zm-12.4 0c0-.3.5-.5.6-.3.1.2-.5.4-.6.2zm4.6.1c0-.4.7-.2.4.1h-.4zm-7.5.1c-.1-.4.6-.8.6-.5 0 0-.6.7-.6.5zm1.1 1c-.3-.3.2-.7.4-.5.2.2-.2.6-.4.4zm17.7 0c0-.4.7-.2.4 0 0 .2-.3.1-.4 0zm-2.6.1c-.3-.2.1-.6.4-.4.2.2-.2.6-.4.4zm-8.2 0c-.3-.6.3-.4.6-.3l-.6.3zm-5.1.1c0-.2.4-.3.5-.3.6.1-.4.8-.5.3zm3.5.4c-.4-.4.4-.6.7-.4.1.2-.5.5-.7.4zm-7.7 0c-.1-.2 0-.8.2-.8 1-.4 0 1.1-.2.8zm18.6.3c0-.3.4-.3.6-.2 0 0-.6.4-.6.2zm-1.3.1c-.4-.3.2-.6.6-.4.4.2-.3.6-.6.4zm-2.5-.1c.1-.2.6 0 .4 0 0 0-.4.1-.4 0zm-1.3 0c-.1-.1.1-.2.2-.2.9-.4.5.7-.2.2zm2.7.3c-.3-.2.1-.6.4-.4.2.2-.2.6-.4.4zm-10 0c-.1-.7 1.3-1 .1 0 0 0-.1.1-.1 0zm-5.3 0c0-.4.7-1 .5-.2 0 .3-.6.3-.5.1zm25.4.1c0-.4.8-.2.4.1h-.4zm-5.7.1c-.1-.4.2-.5.1 0 0 0-.1.1-.1 0zM248.1 179c0-.7 1.8-1.4.2 0h-.2zm2 .4c-.1-.5.4-.6.5-.3l-.4.3zm14 .1h.2v-.5c1-.5 1 1-.2.5zm-5.7.1c-.5-.2.2-.6.6-.4.3.3-.3.6-.6.4zm-1.1 0c-.2-.5.3-.5.4-.3 0 .1-.4.5-.4.3zm18.1.3c-.4-.6.4-.7.2 0h-.2zm-12.8 0c-.5-.3.8-1 .8-.4 0 .3-.6.5-.8.4zm-1.3-.2c-.2 0 0-.1.2-.2.8-.4.4.8-.2.2zm-1.6.2c-.4-.3.2-.7.6-.4.4.2-.3.6-.6.4zm-4 0c-.3-.3.4-.8.6-.4.2.4-.3.5-.6.4zm10.4.2l.2-.6c1-.4 0 1-.2.6zm4.4.2c-.1-.5.3-.6.4-.3l-.4.3zm-19.2 0c-.3-.2.1-.7.4-.4.2.2-.2.7-.4.4zm-2.5 0c-.1-.5.3-.6.4-.3 0 0-.3.5-.4.3zm-2.2.3v-.4c.9-2 .6 1 0 .4zm17.7 0c0-.1.4-.3.6-.2.6 0-.5.8-.6.3zM267.7 181c-.2-1.3 1-.6 0 0 0 0 0 .1 0 0zm-9.6 0c-1.2-.6 1.5-.1.8 0h-.8zm-1 0c-.3-.5.2-.6.3-.3 0 0-.3.4-.4.3zm5.3.1c-.2 0 0-.2.2-.2 1.1-.4.8.7-.2.2zm-1.6 0h.2c.8-.8 1.2.5-.2 0zm-1.1.1c-.3-.2.1-.6.4-.4.2.2-.2.6-.4.4zm-6.9 0c-.3-.3.8-.9.6-.2 0 .1-.4.3-.6.2zm22 .2s-.4-.5-.3-.6c.6-.6.5 1 .3.6zm-19.1 0c0-.5.7-.3.4 0-.1.1-.4 0-.4 0zm-5.8 0c0-1 .8-.5.1 0 0 0 0 .1 0 0zm21.3.3c-.5-.7.7-.2.4 0h-.4zm-23.7.2c-.2-.2.3-.9.5-.9s-.2 1.3-.5.9zm25.7.2c0-.5.3-.6.2 0h-.2zm-19-.1c-.3-.6 1.3 0 .3 0h-.4zm-3 .1c-.2-.4 1-1.1.7-.3-.1.2-.5.5-.6.3zm16.7.2c-.4-.2.2-.6.6-.4.4.2-.3.6-.6.4zm-6.6 0c0-.3.6 0 .3 0h-.3zm-2.5 0c-.2-.5.3-.6.4-.3l-.4.3zm-1.3 0c-.1-.2 0-.3.2-.3.8-.4.4.7-.2.2zm-8.7.2c0-.6 1.4-1 .2 0 0 0-.1.1-.2 0zm14 .3c-.1-.5.2-.6.1 0h-.1zm-6.4 0c-.1-.5.2-.6.1 0h-.1zm14 .2c-.1 0-.4-.5-.3-.6.4-.5 1 1 .2.6zm-4.3-.1c-.2-.1 0-.2.2-.3 1.2-.3.8.8-.2.3zm-2.4 0c-.8-.3 1-.6.3 0h-.3zm-11.1 0c-.3-.2.7-.8.6-.2 0 .2-.5.4-.6.3zm19.5.5s-.4-.5-.2-.6c.8-.6.9 1 .2.6zm-3.1 0c-.3-.2.2-.6.4-.4.2.2-.2.6-.4.4zm-17.3.1c0-.4.7-.2.4.1h-.4zm22.6.4s-.3-.6-.2-.9c.3-.5 1 1.3.2.9zm-6.8 0c-.4-.3.4-.8.6-.4.2.4-.4.5-.6.4zm-.5-.2l.2.1h-.2z"/><path d="M265.7 184c-.8-.3 1-.6.3 0 0 .2-.2.1-.3 0zm-11.8 0c-.2-.4.3-.5.4-.2l-.4.3zm-4.8.5c-.5-.5.2-1 .1 0h-.1zm24.3.5c0-.1-.6-1.5.2-1.1.2 0 .6 1.4-.2 1zm-1.8 0c-.1-.2 0-.4-.2-.7 0-.1-.3 0-.2 0 1.2-.6.6.9.4.7zm-19-.1c-.1-.5.7-.3.4 0-.1.1-.4 0-.4 0zm17.7.3l.2-.4-.2.4zm-3.3.2c-.2 0-.5-.7-.4-.8 0-.1 1.4 1.3.4.8zm2.2.2c-.2-.3-.8-.2-.4-.8.5-.7.8 1.3.4.8zm-19.3.3c0-.1-.3-.5-.2-.7.6-.6.5 1 .2.6zm14 .2c-.1-.2.2-.3.1 0h-.1zm2 .4c-.6-.7.6 0 .3 0 0 0-.2.2-.3 0zm-13 .2c-.2-.5.6-.3.3 0-.1.1-.4 0-.4 0zm11.9.5c-.5-.6.4-.6.1 0h-.1zm-10.2 0c-.3-.6.5-.6.2 0 0 0-.2.1-.2 0zm-3.5 0c-.3-.2-.3-1.9.6-1.3 0 0-.1 1.9-.6 1.3zm11.3.2l.6-.3c.1.2-.5.5-.6.3zm-10.5-15.6v-.5l.4.1-.4.4zm-.4-9.2h.4-.4zm4 .7v-.4h.4v.4h-.4zm-.2 1.6v-.2l-.5-.1h1.8l-.3.3h-1zm1.5-.6l.9-.3v.4h-.9zm-2.5 10.5v-.2h.3v.2h-.3zm6.5 38.9l.6-.3v.4l-.6-.1zm23.9-7.7v-.4h.6v.4h-.6zm-5.5.4l1-.2-.4.1v.1h-.6zm4.4 2v-.3h.4v-.2h.4c-.4.4-.3.5-.8.6zm-2 .6l.4-.1v-.1h.2l-.2.3h-.4zm2.6.2h.4v.1h-.4zm-2.2 1.2h.7-.7zm3.1.3v-.4h.5l-.5.4zm-1.5.9v-.4h.6l-.6.4zm.9 1v-.3l.1.4h-.1zm-1.6.2h.4-.4zm-12.6 28.5c-.2-.3 1.2-1.6.6-.3 0 .1-.5.4-.6.3zm-8.2-.5c0-.8.8-.5.1 0zM265.7 240.9l.5-1c.3.8-.5 1-.5 1zm3-.4h.3c.6-.7.2.5-.2 0zm-1-.6l-.2-.4c-.4-.6.3-.1.6-.2 0 0 .4-.7.6-.4.3.1-.7 1.2-1 1zm2.6-.2c0-.5.3-1.5 1-1.2.1 0-1 1.4-1 1.2zm-5-.4c-.3-1 .3-.7 1-.6l-1 .6zm1.2-.2c0-.4 1.2-2.1.9-.5l-.9.5zm2.7-.6l.7-.9c1-.4-.3 1.3-.7 1zm-14.2-.2l.2-.1c.7-.7.3.6-.2 0zm16.9-.1c-.2-.2.3-.7.5-.9 1.3-1.3-.1 1.4-.5.9zm-6-.5c-.1-.1.2-.5.3-.6.7-.7 0 1.1-.3.6zm2.4-.2c-.2-.3 1.3-1.5.6-.2 0 0-.4.4-.6.2zm-3.7-.2c0-.8.7-.6 0 0zm-14.4-.6c-.2 0 1-1.1.6-.1 0 .1-.4.3-.6.1zm5 .2l-.1-.5c-.2 0-1.1 0-.3-.4.2-.2.5-1 1-1.2 1.2-.7 1.3.6.7 1.1l-.3.1-.1.6a3.3 3.3 0 01-.8.3zm15.8-.2h.2v-.5c1-.5.8 1-.2.6zm-14.2-.2s1.3-.8.8-.1c0 0-.7.2-.8.1z"/><path d="M259.9 236.5l1.1-.2s-.7.7-1.1.2zm7.6 0c0-.3 0-.8.2-.9 1.2-.5-.2 1-.2.8zm-14-.3c-.2-.7 1-.8.1 0h-.1zm2.4-.2c-.1-.3.2-.8.2 0h-.2zm9.5-.1l.2-.1c.7-.7.3.5-.2 0zm-14-.1c0-1.2.8-.7.3-.3l-.2.3zm12.5 0c-.3-.7.7-.6.1 0h-.1zm8 0c-.3-1.2 2-1.2.4-.4l-.4.4zm-16.2-.2c-.2-.3 0-.4.2-.2l-.2.2zm-5.8-.2s1.2-.8.5 0c-.1 0-.2.3-.5 0zm7.6.1c-.2-.3 0-.7 0-1l.1.2c1.7.6-.1 1-.2.8zm2.4 0c0-.1 1.6-1 .8-.2-.2.2-.4.3-.8.1zm8.9-.4c-.4-.5 1.6-1.4.4-.2 0 0-.2.4-.4.2zm-19.7-.3l.4-.4c0-.1-.1-.3 0-.4 1-.7-.5 1.3-.4.8zm3.3 0s.3-1.2.6-.8c.3.5-.6 1-.6.9zm14.4 0c-.3-.5.8-.5.1 0 0 0-.1.1-.1 0zm4.2-.2c0-.5 1.3-2.7 1.2-1.3 0 0-1.2 1.6-1.2 1.3zm-20-.2c-.4-.4 1.2-.9.5-.2 0 0-.2.4-.5.2zm4.3-.4c-.3-.6.7-.6.1 0h-.1zm2.6-.3c-.3-.7 2-.7.2-.1 0 0-.1.3-.2.1zm2.6 0c0-.1 1.5-1 .7-.2-.2.1-.4.3-.7.1zm7.4 0c-.4-.5 1.2-.8.4 0-.1 0-.3.1-.4 0zm2.2-.3c-.2-.1.9-.4.4 0-.1.2-.3 0-.4 0zm-16.6-.1c-.5-.2.2-.9.4-.6.1.2 0 .8-.4.6zm12.4-.1c-.2-.2.8-.5.3 0 0 .2-.3 0-.3 0zm-8.2-.5l.3.1h-.3zm-2.5-.2s1.3-.8.9-.1c-.1 0-.7.2-.9.1zm13.8-.2c-.2-.1.9-.4.3 0 0 .2-.2 0-.3 0zm2 .1c0-.2.5-.9.5-.8.3.6-.5.8-.5.8zm-14.4-.8c-.2-.1.8-.4.3.1h-.3zm11.3-.6s0-.5.6 0h-.6zm2 0c-.1-.1 1.2-.9.4-.1 0 0-.2.3-.4 0zm2.6-.1c-.1-1.1 1.2-1 .6-.5l-.6.5zm-14.8-.5c-.2-.6 1.4-1.3.3-.2l-.3.2zm11.3-.5s.4-.9.5-.8c.1.4-.1 1.2-.5.8zm2.4-.1c0-.9 1.1-1 .2-.3l-.2.3zm1-1c0-.5 1.1-.8.5-.2l-.4.3zm-4.3-.1s.4-2 .6-1.1c0 0-.2 1.7-.6 1zm2.2-.3c-.7-.6 1.3-.3.3 0h-.3zm-10.7-.2c-.2-.3.2-.7.4-.4.2.2-.2.6-.4.4zm9.6-.5c-.3-.3.8-1 .3 0h-.3zm4.6 0c-.4-.4 1.1-.8.5-.2 0 .1-.3.5-.5.2zm-14.4-.4c-.2-.3.2-.7.4-.4.2.2-.2.6-.4.4zm12.2 0c-.1-.7 1.1-.8.1 0h-.1zm-19.3-.2c0-.6 1.7-1.3 2.2-1.6 1.8-.9-2.2 1.7-2.2 1.6zm9-.5c-.4-.6.7-.5 0 0zm7.7 0c-.3 0-.2-1.3.2-1.4.5-.1.9.1.6-.8-.5-1.8.6-.4.7-.6.2-.8-.2-.6-.2-.7-.1-.7.3-1.3.2-1.8h-.2c-.1-.2.7-1.4.8-1.5.2-.2 2-.8 1.2 0-.6.6-.4-.2-.6 1 0 .3-.5.2-.6.3-.2.2.7.6.6.6-.6.5.3.6.3.6.5 1.4-2 2-1.8 3h.3l.1 1c-.4 1.3-.7-.5-.8-.5-1-.5 0 1.3-.8.8zm-11.1-.2c0-.8.7-.6 0 0z"/><path d="M273 226.4c-.5-.4 1.1-.8.5-.2-.1.1-.3.4-.5.2zm-12.2-.3c0-.1.3 0 .2 0h-.2zm13.7-.3c-.6-.7 1.4-.4.4 0h-.4zm-3.3-.3v-1l.2.2h.6c.3.2-.7 1.1-.8.8zm1.5-.6c-.1-.8 1.5-.8.2-.2 0 0-.1.3-.2.2zm-17.4-.6c-.2 0 2.3-.7 1.2-.1-.3.2-.8.3-1.2.1zm19 0c-.7-.8 1.3-.4.4-.1-.1 0-.3.1-.4 0zm-19.3-.5c0-.5.3-.6.2 0h-.2zm17.7-.7c-.2-.6.3-.4.7-.3l-.7.3zm-1.5-.2c-.3 0-.2-1 .4-.5.6.4.2.7-.4.5zm-16-.1s.5-.4 1-.2c0 0-.4.4-1 .2zm18.7-.1c-.1-.5.2-.6.1 0h-.1zm-15.5-.3c0-.2.5 0 .3 0h-.3zm0-.4c-.2-.8.6-.8 1.2-1.1.7-.4.2-.7.7-.4.5.3 1 .1.2.6l-2.1 1zm16.6 0s.6-3 .6-.5c0 0-.4 1-.6.5zm-11.1-.2l-.2-.5h-.5c.8-.9 1 .7.7.5zM256.1 221.4s.5-.4.9-.2c0 0-.4.5-.9.2zm16.2 0c-.7-.8 1.3-.4.4-.1-.1 0-.3.1-.4 0zm-8-.3v-.2c-1.5-1.1 2.8-1.4 1.7-.3-.5.6-.7-.6-1-.2-.2.3.3 1-.7.7zm-7-.4c-.3-.3.1-.7.4-.4.2.2-.2.6-.4.4zm16.1 0c-.3-.2.6-.8.7-1 .5-1.7.5 1.8-.7 1zm-12.6-.5c-.3-.6 1.2-.5 1.5-.8l.3-.6c2-.2 0 .3 0 .3-.2.2 0 .5-.1.7-.3.2-1 0-1.5.3 0 0-.1.3-.2.1zm12-.6c-.3-.2.6-1 .8-.9.1 0-.2 1.3-.9.9zm-6-.6c-.3 0 2.9-1.4 1.8-.3-.5.5-1 .4-1.8.3zm5 .1s.1-.1 0-.2-.1 0-.2 0c0-.1.1-.3 0-.4 0-.1-.2 0-.2 0-.2-1.3.2-.6.9-.7.8-.2 0 .1-.2.7 0 0 0 .8-.2.6zm-12.3-1c-.2-.2.2-.7.2-.7.4.4.3 1-.2.6zm.8-.6l.2-.1c.3-.7-.4-.4 0-.8a11 11 0 013-.5c.7.3-1.4.4-1.4.4-.1 0 0 .3 0 .4h-.9c-.2.1.2 1-.9.6zm11.3-.4c-.5-.8 1-.9.4 0 0 .1-.3.1-.4 0zm-12.8-.4c-.3-.3.1-.7.4-.4.2.2-.2.6-.4.4zM244 156.3v-.5h.4v.4h-.4zm.4 1.7l-.3.2c0-.3 0-.6.5-.6.1.2-.1.3-.1.4zm2 .3v.1c-1.1 0 .4-.6 0-.1zm-1.4 1.2c0 .2-.3.2-.3.3h-.2c0-.3.1-.4.3-.6.4 0 .5.1.2.3zm.7 1.5l-.6.5c0-1 0-.7.8-.7l-.2.2zm-1.3 1.3c0 .2-.4.6-.7.6-.2-.6.5-.7.5-1h.4s0 .4-.2.4zm1.6.5c-.2.2-.3.3-.5.3v-.7l.5.1v.3zm-1.2 1.1c-.5 0-.4.5-.9.5 0-.3.6-.7.9-.7v.2zm2.2.2h-.3c0-.2.2-.2.4-.2v.1zm-1.4.7l.1.5h-.6l.5-.5zm-1 1.2c0 .3-.4.4-.5.6l.5-.8v.2zm1.8 0l-.1.3-.4-.1.5-.2zm-1.3 1.4l-.5.5h-.2l.7-.5zm.7.9h.7l-.4.3h-.3v-.3zm-1.6 1.5c1.6-1.1.5 1-.2.3l.2-.3zm2 .8c-.6-.4.2-.9.3-.5 0 .3-.3.5-.3.5zm1.5.9s0-.4 0-.4c.5.2.2.5 0 .4zm-1.6.8c1.3-1 1 1 0 0zm-1.7-.3s0-.6.3-.6c1.3-.3-.3 1-.3.6zM256.4 148h.4-.4zm-.7 1.7l.3-.3v.4l-.3-.1zm-.2 1.5v-.5l.2.5h-.2zm-1.2 1l.1-.7.1.6h-.2zm-.4 1.2v-.5l.4.1-.4.4zm.7.8v-.3h.4v.3h-.4zm-.8 1.2h.7v.2l-.7-.2zm.1 2v-.4l.2.3h-.2zm-.6 1.4l.3-.3v.4l-.3-.1zm1.2 1h.4v.2l-.4-.1zm-2 .9v-.4h.5l-.4.4zm-3.2-2.6l.2-.2h.2l-.3.3h-.1zm-1.7-.9h.6v.1h-.6zm2.8-7v-.4h.4v.4h-.4zm.6-1v-.5l.4.1-.4.3zm-1.5-.2h.8v.2l-.8-.2zm10.6 11s-.3-.6 0-.5c.7 0 .2.2.6.4h-.6zm1-.9c-.3-.3 0-.4.1-.6s0 1-.2.6zm-1.2 1.9h.6v.3l-.6-.3zm.4 1.7l-.2-.6h.4l.2.2-.4.4zM260.3 163.6s.2-.3-.2-.3v-.4h.4l.5.6h-.7zm-.9-.2c-.1 0 0-1.1.2 0h-.2zm-.4-1s0-1 .2 0h-.2zm3.8 1.6c-.3 0 .4-.7-.2-.7v-.4l.6.3v.8h-.4zm1.1-.2l-.1-1.5.5.4v1h-.4zM264.8 163.1c-.4 0 .5-1-.2-1v-.5h.4l.4.5-.3 1h-.3zm3.8-11.3h-.5v-.9a10.8 10.8 0 01.4.8h.1zm-1.2 1.3c0-.8-1.8-1.5-1.4-2.7 0-.1.1-.1.2 0 0 1.1 2 2.3 2 3.4-.3 0-.6-.4-.8-.7zm-.3 1.4l-.8-1.1c1 0 1.5 1.5 1.5 2.2h-.2c0-.2-.4-1.1-.6-1.1zm-1.5.3l-.1-.4v-.3c.6 0 2 2.5 1.5 2.5a9 9 0 01-1.3-1.8zm.8 3.2c-.3-.3-.7-.6-.7-1.1 1 0 1 .5 1 1.1h-.2zm-5.5-.6c-.2-.4-.9-.2-.9-.9.2 0 3.4 1.4 2.7 2.2l-1.8-1.3zM261 154.4c-.3-.2-1.2-.3-1.2-.9l.4-.1.5.3.6.2c0 .8 3.3 3 2.8 3.4-.5 0-.6-.3-.9-.5-.7 0 .2.7 0 1l-.2.2h-.2c0-.8-3.2-3.2-3.1-3.2.5-.3 2.3 1.4 3 1.4 0-.2-1.5-1.8-1.7-1.8zm1.4-.1l-2.4-2c1.1-1 4.5 2.9 4.5 4.5 0 0-2-2-2.1-2.5zm-.2-1.7l-1.3-1.2s-.5-1.1 0-.6c1.3 1.2 3.8 2.6 3.8 4.5 0 .8-.7-.8-.8-.9l-1.7-1.8zm.4-1.2l-1.4-1s-.7-1.2 0-.8c1.5 1 2.8 2.1 3.7 3.7.5 1-2.1-1.7-2.3-1.9zm.1-1.5s-1.6-.8-1.6-1.4c1.1 0 2.7 2 3.5 2l-.1-.5c-.3-.3-.8-.5-.8-1h.4c.6.6 1 1.3 1.4 2v.2c-.4 0-.3-.5-1-.5 0 .4.6 1 .8 1.2l.2.6c-.4.4-.5-.6-.7-.6 0-.4-1.8-1.7-2-2l.2.3-.3-.3zm7.8-2.2c-.5-.7 1 0 .6 0-.2 0-.4.2-.6 0zm2 1.7l.4-.5v.3h.5c.1 0-.6.2-.9.1zm1.6 0l.9-.7s-.1.2 0 .2l.4.1c.2.4-1.2.3-1.3.4zM275 150c-.1 0 0-.1 0-.2l-.2-.1c1-.4 3-1 .6 0v.3h-.4zm1.1 1.8v-.2c-.1-.1-.6 0-.4-.1.8-.4 1.3.2.4.3zm1.1-.2c-.1 0-.1-.3 0-.4 2-1 2-1.7 1.7 0-.6 0-1 .4-1.7.4zm1.1.4c-.1 0 0-.4 0-.4.6.4.5.4 0 .4zm.9-.4c0-1.2.7.6 0 0zm1.1.4c0-.2-.1-.5.1-.6.3 0 0 .9 0 .6zm0-1v-.3c-1.4-.5-.7 0-.2-1.5h.6c0 1.3.5 1.2-.4 1.7zm-1.1 2c-.5 0 .4-.7.6-.7v.6h-.6zm-.9.4h0zm-18.4-11v-.3l.2.4h-.2zm1.1-3.7h.9v.2l-.8-.2zm2 .1l.3-.2.3.2v.1h-.6zm1.8 0v-.5l.4.1-.4.3zM248 150c.3-.6.7 0 1 0l-.8.3s-.2 0-.2-.2zm0 .7c1.3.7-.4.8-.4.3-.4 0 0-.3.4-.3zm-4.6.4c0 .2-.5.2-.5.5v-.5c0-.3.4-.5.5-.7.8 0 .3.4 0 .7zm-.4-2.5c0 .9-1-.2 0 0zm.2-.7s0 .2-.2.2v-.2l-.3-.1c0-.5 0-.4.5-.4 0 .3.4.2.1.5zm-3.7-.6c0-.6.5-1.5.8-2h.1v1l.7.1c0 .4-.3.5-.3.9-.8-.2-.7 0-1.3 0zm-6.1 5.6c0-.6.5-1.5.8-2h.1v1l.7.1c0 .4-.3.5-.3.9-.7-.2-.7 0-1.3 0zm3.1-.1h-1l.3-.3c2 0 2.4-2.3 3.3-3.6l-.1-.1c0-1 1-.9 1.8-.9v.2c-1 0-1.8 4.6-4.3 4.7zm-1.3-3.6s0-.7.8-1.7c2.6-3 1.5-6.4 3.2-10 0 0 1.8-2 1-.4-1.2 2.8-1.1 5.6-2.3 8.4l-.2.7c1.8-3.2 2.3-6.7 4-9.9 0 0-1 .5-1 .7-1.4 2.7-.3 5.5-1.6 8.1-.4.9-1.4 2-1.4 3 0 .4-.7 3-1 3.2-1 .5 1.3-3.9-.2-1.5l-.6 1.5c0-.8 0-1.9.3-2.6.2-.4 0-.7-.2-.3-.2.6-.3 1-.7 1.5v-.7zm-5.1 7.6v-.5h.3v.4h-.3zm81.6-29.2c-.1-1-1.3-3-2-3.3s0 0-.3-.4-2-.6-2.6-1.1 1.4-.2 1.5-.2 0 .4.2.4h.7c.2 0-.1.2 0 .2s.5.1.9.5 1 1.4 1.5 2 .1 3 0 2zm-8.2 1.4c.2-.1 1.3-1 1.4-.5.4 1.4-3 1-1.4.5zm2-11c-.1-.6-1-2 .3-.6.4.4.5 3.2.4 3.7 0 .8-1.5 0-1 .8.6 1 2.4 3.7 1.8 4.8-.3.4-.6.8-1 .8s.5-2.8-.1-3.6c-.1-.2-.3 0-.3 0-.2-.6-1-2.2-1-2.6l.1-2.4c0-1.5 1 .6.8-1zm-1.7.4c-.1-1-.4 1.6-.5 1.6-1 .1-.5-1.3-.6-2.2 0-.1-.8-1.8-.5-1.8 0-.3.3-.6.3-1h.2c.6 1.4 1.8 3 1.8 4.5 0 .4.1 1.2-.4 1.2-.7 0 0-1.7-.3-2.3zm3-1.1c-.3-.3-.8-.5-1-.8 0-.3.2-.7.5-.6.9.6 1.8 5 1.8 5 0-1.7-.8 1.5-.6-.4 0-1.4-.1-2-.8-3.2zm-2-2h-.7c0-.3-.2-.9-.4-1h-1.4a14.7 14.7 0 011.6-.3l1 1.4zm13 22.8c-.4 0 .9-2 .8-1.6l-.4 1.5h-.3zM318 140.5c-.5 0 .1-1.3.3-.3l-.2.3h-.1zm-10.5-2.9v-.2c-2.6-.8.7-.7 1-.4 1 .6-.7.6-1 .6zm-14.7-3.3c-.3-.3-1.2-1.4 0-.6 1 .6 2.5.4 3 1.4.3 0 4-.5 1.7.2-1.9.6-3.3.7-4.7-1zm8.6-12.7v-.7h.2v-.1l.3-.1v.9h-.5z"/><path d="M300.3 115.2c1.2 1.6 1.5 4.7 2.2 6.6 0 .2.3-.1.4 0 .2 0 0 .6.1.8.1.1.4.1.4.3.5.8.6 2.5-.5 2.3-.2 0 .4-2.1 0-2.1-1 0-1.5 1.4-1.9 1-.4-.4 1.2-1.7.4-2-.5-.3-.6 1.8-1.4 1.4-.2-.1-.1-.7.1-.8 1.3-.5 1-5.2.7-6.2-.2-.6-1-.6-1-1.2h.5zm-4-3.5v-.7c-.8 0-.2.4 0 .7zm21.3 17.5v-.6c-.8 0-.2.4 0 .6zM292.9 109c-.4-.3-1-1-1-1.4.2-.3 1 .4 1.2.4l.2.6c.2.7 1.6 1.2 1.6 2.2h.1c.2.3.2 1.3-.3 1.3-.3-.3 0-2.1-.6-2.4-.6-.2-1.1 0-1.2-.7zm2.5.4c-.5-.2-1.3-.1-1.3-.8l1.3.8zm-1.1 3.5l-2.6-3.5c1.4 0 2.6 2.2 2.6 3.5zM279.7 138l.3-.5.3.3v.1h-.6zm-36.8-.3l.6-1.5c-1-.4-.1-2.1 1.1-2.1s-1.2.9-.9 1.8.2-.3 1.4-.7c0 0-2.3 3.2-2.2 2.5z"/><path d="M256.8 137.8v-.4l.4.3-.4.1zm3 0v-.4h.5v.4h-.4zm2.8-.5h.4-.4zm-17.1-.1v-.3h-.2v-.4h.8v.4l-.4.1v.1h-.2zm-.1-3v-.2h-.2v-.4h.8v.4h-.4v.2h-.2zm36.6 2.9h.4-.4zm10 0v-.2c-.2 0-.7 0-.9-.2l-.2-.4c-1.8-1.8-3.6-3-5.3-4.6l.8.2v.2c1.3.3 4.9 3.5 5.6 4.2v.2c.1.1.3 0 .4 0v.3c1.2.5.5.5-.4.4zM266 137v-.6h.4v.6h-.4zm15.3 0v-.4h.4v.4h-.4zm-33.5-.2v-.2h-.4v-.4c1.6 0 .4.7.4.6zm41.6-.2c-1.7-.9-2.3-2.4-4.6-3.5 0 0-.8-1 0-.7v.3c1.8.4 4.7 4 4.6 3.9zm-45.8-.2v-.2h.1l.1.1h-.2zm24 0v-.4h.6v.3h-.7zm12.1-.1l.3-.3.4.3h-.7zm-17-.5h.4v.1h-.4zm14.4.1v-.4h.4v.4h-.4zm10.6-4.2v-.2l-.7-.2v-.3c-.6-.1-3.3-1.8-3.3-1.8.7-.4 2 1.2 2.8 1.2v.2l1.1.3v.2c.4 0 6.1 4.7 5.8 4.8-2 .3-3.7-3.5-5.7-4.2zm-12.6 3.9h.6-.6zm-9.6-.1v-.4h.4v.4h-.4zm-18.8-.6l.6-.1v-.1h.2l-.2.3h-.6zm20.4 0h.6v.1h-.6zm14.2.1v-.2h-.2l.6-.2v.3h.2v.1h-.6zm-39.1 0v-.3l-.2-.1.2-.1v-.6h.2v-.2h.4v-.2l-.6 1.5zm6.5-.5h.6-.6zm31.5 0h.4-.4zm-25.6-.2h.3-.3zm1.6 0h.4-.4zm1.6 0h.4-.4zm20.6 0v-.3h.4v.2h.2v.1h-.6zm4.4 0v-.3h.4v.3h-.4zm-22-.1v-.4h.5l-.4.4zm15.8-.2l.3-.2.3.2v.1h-.6zM243 133.7l.6-.2v.3h-.6zm4.5-.3v-.4h.6l-.6.4zm18 0v-.4h.3v.4h-.4zm16.3 0v-.4l.4.3-.4.1zm-37.2-.3l.6-.2-.2.3-.4-.1zm22.4 0v-.3h.4v.4h-.4zm14-.1v-.4h.4v.3h-.4zm-12.4-.4h.4v.1h-.4zm-22.4-.4h.4-.4zm30.1.1v-.2h-.2v-.2h.4v.2h.2v.2h-.4zm2.9-.1h.6-.6zm8.6-2.1v-.2h-.2v-.3c-.9 0-2.6-1-3.6-1.5-.6-.3 3.3 1.1 3.6 1.1v.2c1.6 0 3.7 2 6 2.5 0 0-.1.2 0 .2 0 0 .6.2.3.2-2.6.1-3.8-1.5-6-2.2zm-29 2v-.2l.1.2h-.1zm24.3 0v-.3h-.2l.1-.4c.2.4 1.5.6.1.7zm1.8-.6c1 .2-.2 0 0 0zm-1.5-.8v-.2h-.3l.1-.4c.2.4 1.5.7 1.2 1-.2.2-.8-.4-1-.4zm-2.2.3v-.3h-.2l.6-.1v.2h.2v.1h-.6zm-29.7-.3v-.4l.1.4h-.1zm-5.6-.1l.1-.4v.4zm33.5 0v-.3l-.2-.1h.4v.3h-.2zm9.8-2c-.1-.2-.5-.1-.2-.7.3-.7 0-.4 0-.5 0-1.5 1.6 1 1.9 1.2s.6 0 .9.2c0 0 1.4 1.6 1 1.7-2.2.4-2.5-.8-3.6-2zm-31.7 1.7v-.4h.4l-.4.4zm2-.2v-.4h.4l-.4.4zm-12.2-.4h.4v.1h-.4zm1.3-.2l.3-.2h.1l-.2.3h-.2zm33.4-.6h.5-.5zm-3.3-.5h.4v.1h-.4zm6-1.4h1.5v.2l1.6 1-.2.3c-1-.3-1-1-2.2-1.3 0-.6-.9-.2-.7-.2zm-37.9 1.3l.1-.4h.1v-.1h.7l-.9.5zm14-.5h.4-.4zm-12.6-.5l.7-.5.1.4h-.4v.2l-.4-.1zm-2-.2c-.3-.2.7-1.2.8-.6h-.1l-.1.5h-.4v.2l-.2-.1zm-2 5.4c-.3-.1.7-1.1.8-.5l-.2.4h-.3l-.1.2h-.1zm37.6-5.3v-.4h.4v.2l.2.1-.6.1zm4.5-1.3c-.1-.2-1-.2-.6-.7v.2c.4.2 1.4.1 1.4.7h.4l.3.5h.2l-.6.6v-.4h-.3v-.3c-.8-.2-.4-.2-.8-.6zm-6 .9v-.3h-.2l.4-.1v.3h-.2zm12.2-.1c0-.6 1.1-.2.6 0-.2.1-.6.2-.6 0zm-42.1-.3h.4v.1h-.4zm1.5 0h.4v.1h-.4zm1.4.1v-.4l.6.1-.6.3zm37.6-.2c-.3-.2-.1-.9.4-.6v.2h.5c.4.3-.6.7-1 .4zm-35.6-.2v-.2h.4v.2h-.4zm-10.5 1.8l.8-.3v.4l-.8-.1zm1.6-2.5v-.4h.2v-.1h.6l-.8.5zm37 0v-.2l-.5-.1c.9 0 1.4.2.5.3zm4.2 0c-1-1.1 1-.5-.5-2-2-2 1.2 0 .8 1 0 .1-.2 1.2-.3 1zm2.2 0c-.5-1 1.1-.4.6 0-.2 0-.5.2-.6 0zm2 0l-.2-.4c-.2-.3-.7-.2-1-.3 0 0-.5-1 .3-.6 0 0-.1.2 0 .2 0 .1.3 0 .4 0v.5s2.6.3.5.6z"/><path d="M293 125.4c-.2 0-.2-.3 0-.4.4-.5.7 1 0 .4zm-43.3-.3h.4-.4zm32-.1v-.2l-.3-.1.4-.1v.4h-.2zM242 136c0-.4.3-1.1 1-1.4l-1 1.5zm5.7-11.8l.7-.5.1.4-.2.2h-.6zm38.1.1c-.7-.4 1-.6.4 0h-.4zm3.5 0c0-.4.4-.4.3-.9h-.3c.1-.6 1 0 .6.5h-.3s-.2.7-.3.4zm2.5-.5c-.4-.9 1.4 0 .8 0-.3 0-.7.2-.8 0zm1.3 0c-.2-.2 0-.5.4 0 0 0-.3.2-.4 0zm-9-.4c-.2 0-.2-.3 0-.4.4-.4.5.5 0 .4zm-22.4-.3h.4-.4zm1.8.1v-.4h.6l-.6.4zm24.3-.2c-.4-.6.4-.6.2 0h-.2zm-5.5-.3l.3-.3v.3h-.3zm-34.9-.8l.3-.3v.4h-.3zm41.3 0h.4c0 .6-.4.7-.4 0zM291.8 121.7h.4c-.4.4-.4.7-.4 0zm-42.7 0h.4v.1h-.4zm9 0v-.4h.7l-.7.4zm1.8-.3v-.4h.4v.4h-.4zm23.9 0v-.4l.1.4h-.1zm6.9 0v-.6h.4v.5h.2v.1h-.6zm-41.9-.2l.1-.4h.1v-.1h.5l-.3.5h-.4zm14.7 0v-.2l-.3-.1h.7l-.4.3zm24.7 0l.1-.4v.4zm-23-.2v-.4l.2.4h-.2zm20.8-.7l.1-.4v.4zm-36-.2l.2-.4.1.1-.4.3zm40 0v-.2l-.2-.1.4-.1v.2h.2v.2h-.4zm-1.8-.2v-.3h-.2v-.2h-.2v-.4h.4v.2h.4v.6h-.4zm-3.7-.3v-.4l.1.4h-.1zm-1.6-.4v-.2l-.2-.1h.6v.3h-.4zm6 0v-.4h.4v.4h-.4zm-26.8-.2v-.4h.4l-.4.4zm3.6-.2v-.4h.4l-.4.4zm23.6-.7v-.2l-.2-.1h.4v.3h-.2zm-4.8-.3h.6-.6zm1.5-.6l.1-.4v.4zm-23.2-.3h.4-.4zm21.9-.3v-.4h.4v.3h-.4zm-33.2-1.3c-.2 0 1.2-1 .1.1h-.1zm30.8.2v-.4h.4v.2h.2v.1h-.6zm-26.8-.5v-.4h.6l-.6.4zm25.5 0v-.4l.1.4h-.1zm-23.3-.8l.3-.3v.4h-.3zm22.2-.4h.4-.4zm.9 0v-.1h-.3v-.9h.4l-.1 1zm-13.3-.1v-.5l.4.1-.4.4zm-11.3-.3v-.2h-.3v-.4h.4v.6h-.1zm8.8-.4v-.6l.2.2h.2v.4h-.4zm-11.3-.3c-.2-.2.1-.6.5-.5s-.2.6-.5.5zm4.2 0l.1-.3v.3zm30.1 0l.2-.1.1-.7.1.3h.2l-.2.5h-.4zm-21.9-.1v-.5h.4v.4h-.4zm1.8 0v-.5h.2v-.4l.2.8h-.4zm-7.6-.3l.1-.4v.4zm-4.8-1l.4-.1v-.1h.2l-.2.3h-.4zm10.8.2l.1-.5.3.3v.1h-.4zm13.1-.3l.1-.6h.1v-.4l-.2 1zm9.3 0v-.4h.4v.4h-.4zm-1.5-.8v-.5h.4v.4h-.4zm-21.7-.5v-.4l.4.3-.5.1zm22.8 0v-.2h-.3l.1-.6.1.2h.2v.2h.2v.4h-.4zm-7.5-.2v-.2h-.3v-.4h.4v.6h-.1zm9.4-.4c-1.4-.5-.6-.7-.8-1.4l-1.6-1.3c-.5-.8 1.5-.4 1.5.4s2.3 2.7 1 2.3zm-4-.5v-.2h-.1v-.7h.4v.3h.2v.6h-.4z"/><path d="M290.7 108.2l-1.4-1.6c-1.2 0 1.3-.2 1.3.7s.6 1.5 0 .9zm-6.2-.3v-.2l-.3-.1.3-.3.1.2h.3v.4h-.4zm-3.7-.8h.4v.1h-.4zm3.7-1h.4-.4zm13.6 17c-.1-.2 0-.4.2-.5 1.4-1.2 1.7-3.2 1.7-4.9h.1c1.5 1.6.2 5.4-2 5.4zm-.6-1c1-1 .7-3.8.7-5h.2a5 5 0 010 4.7c-.6 1-1.3.5-1 .2zm-2.5-1.2v.3c-.2 0-.8 0-.7-.2.3 0 0-.3.7-.1zm.6 6.7c.5-.3 1.8-.8 2-1.5 0 0 .7 0 .3.4-.4.3-1.7 1.7-2.3 1zm-2 1.7c-.2-.4 1.8.4.5.4-.2 0 0 0-.3-.2l-.2-.2zm1.5 3.2c.4-.6 2.5-.4 3.3-1.3 1.1-1.2 1.3-1.4 1.8-3 0 0 2.4-.6 2.7-.8.5-.5.5-1.4 1.3-1.4 0 0-.5 1.5-1.6 2-1 .3-1.6.1-2.1 1-1 1.7-1.6 3.3-3.8 3.4H295zm1.1-1.6l-.5-.2s2.2-.4 3-1.4l1-1.2c.2 1.2-1.2 2.6-2.3 2.6a5 5 0 00-1.2.2zm2.7 3.4v-.4h.4l-.4.4zm-8.3 14.1s.1-.2.2-.1l-.2.1zm5 6c0-.6-.9-2.9-.7-.6 0 .2.5 1.4.7.6zm-6.7.3l-.2.4-.5.1v.1h-.4c0-.6 1-1.8 1-1l.1.4zm10.3-42.3c0 .5 1.5 1.4 1.9 1.4 0-.7-2-.8-1.9-1.4zm19.7 20c.4-.4-.1-2-.4-2.2-.5.5 1 1.9.4 2.3zm-10.7-13.6c0 .5 1.4 1.4 1.8 1.4 0-.7-2-.8-1.8-1.4zM278.5 176l-.2-.3.4.1.1.3h-.3zm-1.5-.2v-.4l.4.2.2.1-.6.1zm-3.1-.4v-.7l.2.3h.2l-.4.4zm4.6-.5a3 3 0 01-.4-.4c0-.1-.1-.3 0-.4.2-.2 1 .6.8.8h-.4zm-2.6-.4c-.2-.1-.4-.5-.2-.7.2-.2.7.5.5.6h-.3zm4-.7v-.2c-.1 0-1.1-.4-1-.7.3-.5 1.1.2 1.2.3v.6h-.2zm-6.4-.2v-.4.3zm3.7 0s-.4-.6-.2-.8c.3-.5.4.2.4.2h.2v.5c-.1.1-.3.1-.4 0zm-4.7-.6c0-.5-.2 0-.1-.6l.3.2v.3h-.2zm8.7-.2c-.2-.2-.9-.7-.7-1l.6.2c.2.1.3.3.2.7 0 0 0 .1-.1 0zm-8-.5l.1-.4v.4zm5 0s-.6-.7-.3-1c.3-.6.5.5.6.6h.2a.6.6 0 01-.4.4zm-3-.8c.4-.2 1.1.2.8.6h-.4l-.4-.5zm-5 .3l-.3-.3h.2l.2.3h-.2zM271.6 172v-.3h-.2l.4-.1v.3h-.2zm-2.6-.7v-.2l-.2-.1h.4v.3h-.2zm1.8 0v-.2h-.3l.1-.4.1.2h.2v.4h-.1zm1.7 0l-.2-.4v-.4c.2 0 .3.2.3.3.2.1.3.1.3.5h-.4zm7-.7v-.4c.5 0 .6.4.8.7h.2c-.2.2-.6.6-.6.4 0-.6 0-.3-.5-.7zm-2.3 0h-.2c.3-.1.7 0 .6.5h-.2l-.2-.4zm4.2-.2l-.2-.2v-.8c.6 0 .6.3.5 1h-.3zm2 0v-.9l-.3-.2h-.4v-.6c1.9 0 .7 2.2.7 1.7zm-13.7-.2v-.4l.4.3-.4.1zm1.7-.2c-.6 0 0-.5.1-.6l.1.2h.2v.4h-.4zm-2.6-.2l-.2-.4h.4v.3h-.2zm6.8 0c-.4 0 .5-1 .5-.2h.2v.1h-.7zm3 0c-.4 0-.8-.7.1-.7v.3h.2v.3h-.4zm-8-1c-.1.1 0-.1 0-.1l-.3-.1.4-.1v.4h-.2zm9.5 0s-.6-.4-.2-.5c.5 0 .8 0 .8.6h-.6zm-2.7-.1c-.3 0-.7-.7.2-.7v.3h.2v.3h-.4zm4.9-.3c-.1.1-1.2-1 0-1v.2h.1v.2h.3l-.4.6zm-3.1-.6c-.1 0-1-.9 0-.9v.2h.2v.6h-.2zm-6.5-.3c-.1 0 .6-1.1.5 0h-.5zm2.5-.7l.4-.1v.2h.2c0 1-.2 0-.6-.1zm5.6 0l-.5-.2v-.4l-.2-.1c.6 0 1 .2 1 .7h-.3zm2.3-.2c-.3 0 .1-.4-.4-.4v-.4h.6v.2h.2v.6h-.4zm-9-.2v-.2l-.2-.1h.4v.3h-.2zm3 0c-.3 0-.3-1 0-.4h.5v.4h-.4zm-1.2-1l-.3-.2h.5v.3c-.4 0-.1-.1-.2-.2zm3.3 0s-1-.6 0-.7v.2h.2v.4h-.2zm2.8 0c-.3 0 0-.5-.6-.5v-.4c.6 0 .2.2.8.2v.6h-.2zm1.6-.7s-.2-.3-.7-.3c.1-.4 0-.4 0-.8.8 0 .4.6.9.6l.1.4h-.3zm-6.2-.5c-.6 0 .2-1 .2-.2l.2.1-.4.1zm2.7-.4c-.8 0 .4-1 .4-.2h.2v.1h-.6zm1.7-.7l-.2-.3h.6v.3h-.4zm1.3-1.6s.1-.2 0-.2h-.4v-.4h.6v.2h.2v.4h-.4zm1.1-.2s.7-.9.3-1l-.3-.2h.7l-.3.7.3.1v.4h-.7zm-2.8-.9c-.4 0 1-.8.6 0h-.6zm1.7-.8s.2-1.6.2-.4h.2v.3h-.4zm1.8 0c-.4.2.2-1.1-.4-1.5l.3-.3v.3c.9 0 .5.3.3 1l.5.1-.7.4zm0-3.1c-.4 0 1.3-1 .8 0h-.8zm.2-2c-.2 0 0-.8.5-.5s-.3.4-.5.5zm2-1.1c.7-.7.7.8 0 .6s-.1-.5 0-.6zm-1-.5c-.6 0-.4-.4.3 0h-.4zm.3-1.7l1.5-.5c-1 .2-1.4.8-.6 1v.3c-.9 0-1.5-.6-.9-.8zm1.4-2c-.1 0-.1-.8.4-.2l-.4.1zm13.5-8.7v-.2l-.2-.1.4-.1v-.1h1.1l-1.3.5zm-57.8 14.2l.3-.7v.4l-.3.3zm-.2 2.3c-.2.5-.5.5-.5-.2h.6v.2zm0 2.1l.1.4H243.1c0-.1 0-.5.3-.5v.1zm-9.3 6.3l.1-.5-.7-.3 1.4-.1v.4h-.2z"/><path d="M261.2 189.4v-.2h.3v.2h-.3z" class="C"/><path d="M246 221.8l.3-5.4v-4.6c0-.3.4-1.1.3-.2-.5 6.1 1.6 14.4-2.5 19.6-.5.7 2.2-4.5 1.9-9.4zm.6 9v-.4h.2v.5h-.2zm69-99.6c-.5-.3.1-1.9.8-2.4.5-.5.4 3-.7 2.4zM300 146.3v-.2c-.2 0-1.2-.2-.6-.3 1.8 0 .6.5.6.5z" class="B"/><path d="M283.8 178.6v-.2h-.3c0-.9-.6-.8-.6-1.6h-.2v-.5c1 0 1.7 1.3 1.5 2.2h-.4z" class="C"/><g class="B"><path d="M287.6 190.7v-.1c.1-.1.8-.7.8-.9 1.7-.5 3.8-3.7 5.5-4.8 1-.9 2.2-2.2 2.8-3.2.6-.2 5.9-7.3 6.6-10h.1v-.1h.4v.6h-.3v.4h-.1c-.6 2.2-3.2 5-4.3 6.8-1 .3-1.5 2.7-2.4 3-.8 1.3-2.4 2.2-3.2 3.4-1.5.5-3.1 3.8-4.6 4.2 0 .1-1 .7-1.3.7zm-1.5 3l-.1-.2c1.2-.7 3-2.4 4-3.5l1.3-1c.7-.8 1.5-1.8 2.4-2.3.5-.2 1.2-1.5 1.7-2 1.1-1.1 2.4-2.3 3-3.7.3-.5 3.7-4.6 3.8-4.4a40.4 40.4 0 01-6.2 8.6c-.3.6-2.2 1.5-2.6 2.3a28 28 0 01-7.3 6.1zm-1.9 2.8c.4-1.2 3-2 3.3-2.8 1.2-.3 3-3 3.7-3.2.2-.6 3.8-2.7 4.3-4.1.5-.3.8-1.1 1.3-1.3 0-.2 3.7-5 3.8-5l.5-.7c1.5.7-12.5 15.7-15.7 16.5 0 .2-1 .6-1.2.6zm0 1.8v-.5h.2v-.1c2-.9 12.9-10.6 13.6-12.4l.4-.1v-.1l.2-.1c-.8 3.5-10.8 10-11 11.1l-3.4 2.3zm4.6-2.3c3-3 7.6-5.6 9.7-9.5l.1.1c0 .4-1.6 2.8-1.9 3-.6.7-2.2 1.7-2.5 2.5-.2.7-7.5 6.4-8.3 6.4l-.1-.1c.2-.2.4-.3.4-.6.7 0 2.1-1.3 2.6-1.8zm-9.3 7.4l-.1-.2 5-2.8c1-.5 2.2-1 3-1.8 1.4-1.5 3.7-2.6 5.2-4.1 1-1 2.8-3.5 4.2-3.8v.2c-.3.3-.5.5-.6 1-.2 0-2 1.8-2.1 2-.8 1.6-3.3 2.4-4.5 3.6-2.3 2.3-4.3 3-7.1 4.4-1 .5-2 1.5-3 1.5zm27.1-43.1v-.3c-.6 0-1.1 0-1.5-.2l-.3-.4h-.4v-.2c-.3-.2-1.7-.9-1.4-1.4.2-.3.5.4.5.4l1 .5s-.1.2 0 .2h.4v.2c.8.4 3 .7 3.9-.2.6-.7.6.2.2.4-.8.5-1.2 1.1-2.4 1zm-11.7-5c-.5-.1-.8-.7-1.2-1v-3.5c.5.5.5 4.3 1.4 4.3.1.2 1.1 1.9 1.7 1.5.5-.3.4.3.7.6.2.1.9.2 1 .5.7 2.1.5.5.7.4.8-.4 1.5 2 .8 1.5-.2-.1 0-.7-.3-.7-1.3 0 .1.4-.2.7-.5.5-1.7-2-2.4-2-.5 0 1 2.4.2 2.4-.5 0-.5-2.7-1-2.7-.1 0-.4-.5-.5-.4-.5.4 1.3 4.5 1.6 4.8.3.3 1.8 1.5 1.5 1.6-2.8.8-2.6-5.5-3.8-5.5-.6 0 .7 1.7.2 2-.6.6-1-3-1-3.5 0 0 1.3.8 1-.3 0-.3-.4-.5-.4-.7zm2-16.5l-1-.8c.2-.5 2.5.3 3.2.3.7 0 4.7-1 6.6.5 2.2 1.7 3.9 3 1.7 2.3-1.5-.5-4-.4-5-.2a8 8 0 01-7.2-2s-.5-.6 0-.2c1 .7 3.3 2 4.6 2 .3 0 1.4-.2.3-.6 0 0-2.6-.7-3.3-1.3zm-8.6 94c-.6 0-.5-.7-.5-1.3.7-.2.5-1 2-1.1 2.8-1.5 5.7-3.6 8.6-5.3 1.4-1.4.7-2.3 3.1-2 .8 1.5-.9 2.2-2.2 2.3-2.3 1.5-7 3.7-8.8 5.5-.3 1-.6 2.4-2.2 1.9z"/><path d="M288.6 232c-.2-.2.5-.8 1-.7.2.2-.4.9-1 .6zm11.2-7.7s.4-.4.6-.3c.4.4-.4.4-.6.3zm14.3-96.5c.2-.2-.6-2.8 0-2 .9 1.5 1.2 3.1-.2 4.5 0 0-.5 0-.3-.4l.5-2zm-2.4 2.8c-.7 0 .6-1.2 1.1-1 .9.4-.7 1-1 1zM289.7 128.8v-.5s-.6 0-.2-.2c.3-.1 1 .5 1.2.7 1.3 1.3-.5.4-1 0zm-38.5 12.8c-.1-.1.1-.4.3-.2.1.1-.2.4-.3.2zm2 1c-.1-.2 0-.5.3-.3 0 0-.2.3-.3.2zm20.7-3.4c-1-.3 1.5-.3.6 0h-.7zm5 .9c-.9-.3 1.6-.4.7 0h-.7zm.2 3.3c-.9-.3 1.6-.4.7 0h-.7z"/></g><path d="M244.2 146.3c-.3-.4-.3 0-.5-.3 0 0 .1-.3 0-.4l-.6-.2c-2.4-2.4.8-3.3-.2-4.9-.4-.6.6-1.9 1-2.6 0-.3 1.5-.2 1.8 0 .2 0-.1.3 0 .4l1.5.2c.6-.1-.8-.4-.8-.4-.5-.3.4-.8.6-.7.1 0 0 .2 0 .2.3.2 1.2.4 1.6.2.2 0-.2-.3 0-.4 1-.5.8.4.9.5h.6c.1 0-.1.2 0 .2.5.2.9 0 1.4.2 0 0 0 .4.2.5h.6c.1 0 .1.4.3.4h.6c.1 0 0 .2 0 .2l.7.5s-.1.2 0 .2c1 .5 0-.5.4.4.2.4.8.3 1 .5 0 .2 0 .7.2.9l.4.2c.1.4 0 .8.2 1 0 .2.8.3.4 1 0 0-.3-.2-.4 0-.3.4.4.6.4.7 0 0 .4 1.5.2 1.2-.3-.2-.5-1.1-.9-.7 0 .2-.3-.4-.3-.4-.4 0-.8 0-1.2-.2-.5-.2-.8-1.6-1.3-1.6l-2-1.5c.5-.8-2.6.2-3.1.7-1.3 1.3-1.9 3.3-3.6 3.8 0 0 0 .3-.1.2zm18.8-6.1c.5.3.1 1-.4 1.3-.6.3.4-.2.4.3 0 .6-.7.7-.6 1.3s.1 0 .2 0c.1.4-.7 1.3-.7 1.8 0 .4.2 0 .2 0 .2.3-.4.2 0 .7.5.4-.3.7-.2 1.3 0 0 1.6.2.9.7-1 .7-.3-1.1-1.3-.1-.2.2.8.3.9.3.1 0-.3.2 0 .2.4.1.8 1.1 1.2.7.1-.2-.2-.5 0-.7s1.8 1.4 1.8 1.6 0 .7.2 0-.6-1.3.4-1.4c1.2 0-.6-.1-.8-1.2 0-.2-.2.7-.2 0-.1-1.3.5.3.8-.3.1-.3-.1-1.3-.2-1.3-.5-.1.4-1 .2-1.3 0 0-.2.3-.2 0s1.6-1.6 1.8-1.8 0 .3.4 0-.4-.5.3-.2c.7.2 2-2.3 2.2-1.6.2.6.9-.2 1.3 0s0 0 .2-.2c.2-.1 2 .1 2 .2v.5h.3c.4.4-1.5.4-1.7 0l-4.1 2c-.3 0-.4-.2-.6 0s-.2.6-.7.7 0 0 0 .1c-1 1 1.3-.2 0 1.2-.5.4-1.1.2-.6.8 0 0 2-1.2 1.9-1.7 0-.3-.2 0-.2 0l.7-1.2c0-.1 2.5-1 3.4-1.1.6-.1 0 0 0-.1 1-.3.2.1.5.1.9.1 3-.3 3.2-.2 0 0-.6.2 0 .2s2.1 2 2.4 2 0 .4 0 .5h.2v.2c.4.2.7 0 .5.5l.2.8c.5.5.4-.6.4-.6.2-.4 2 1.7 2.2 2 .8.7 2 .6 3 .6.3 0 1.7-1.1-.2-.6-1.2.3-.7 0-2-.2-.7-.2 1.8-.5 1.8-.5.9-.3 1-1.2-.4-.5 0 0 1.3 0 0 0s-1.2-.4.2-.6 0-.1 0-.1c0-.1.6-.4.4-.4-1.4-.4-2 .9-3.7-.1-.5-.3 2.3-.5 2.6-.5 1.2-.2-.4-2.8-1.3-2.9-.4 0 .2-.2 0-.2-.6-.1-1.2.4-2.1.2-.3 0 .3-.1 0-.2h-1.8c-.3 0 .2-.2 0-.2-.5 0-1.8.4-1.4-.5.2-.4.2.2.3.2.2.1.7-.3 1-.2.2 0-.2.2 0 .2h1.9c.3 0-.3.2 0 .3s1 0 1.2 0c.7-.3-2.8-2.6-3.3-2.6-.3 0 .1-.2 0-.3-1.6-.8-3.1-1.2-4.2-1.5 0 0 .8-.3 0-.3l-2.5.9c-.4.1-1.4.2-1 0 .4-.1-.6.7-1.6 1-.2.1-.5-.2-.7-.2-.5.2-.6.5-1 .7-.4.1-.3-.2-.6 0-.4 0-.3-.4-.6-.3-.2 0-1.3 1.1-1.4 1.2l-1.4.6zm8-2.6c-1-.4 2-1 2.2-.9.8.2-1.7 1.2-2.2 1zm9.3 5l2.1-.1c.2 0 .2-.4 0-.5h-3s.1-.2 0-.2c0 0-2.3-.1-1.6.3.5.3 1.7.1 2.5.2v.2zm-33.5-2.5c.3 0 1 0 1-.3.3-.3-1.1-.3-1.4-.4v-.2s-2.7-.1-1.6.5h.9v.2h1c.2 0 0 .2 0 .2zm-2.7.9c.2 0 2.2.2 1.8-.3-.1-.2-.7-.1-1-.2-.1 0 0-.2 0-.2-1-.2-1 .7-.8.7zm0 1c.7.2 2 .3.5-.2v-.2c-1.2-.4-.5.5-.5.5zm0 1.2s.1-.2 0-.2c0-.1-1-.1-.4-.3 1.1-.3 1.6.8.4.5zm-.2 1.1c.7.5.7-.4.5-.5-.5-.2-.8.3-.5.5zm.2 1.1c.4.2.7-.1.5-.5 0 0-.6.4-.5.5zm7.6-3.5c.7.7.3-1 0-.5v.5zm1.7.7s.1-.2.2-.1c.2.3 0 .3-.2.1zm.7.8c-.2-.2 0-.4.3-.3 0 .2-.2.4-.3.3zm17.7-4.8c-.7-.2 2.7-1.1 3.6-1 .3 0-2.4 1.3-3.6 1zm3 .4c2.6.3 2.6-.6 0-.3v.3zm.6.9a27 27 0 003.3 0v-.3h-3.3v.3zm4.9 3.7c-.1 0 0-.2 0-.2.8-.2 2.2 0 2.8-.4.2-.1.6.2.4.4-.3.2-2.5.3-3.2.2zm-16.2 4v-.2h-.2v-.3h.1l.3-.2v.7h-.2zm.6.5v-.3h.3v.2h-.3zm3.5-6.6v-.4h.4v.3h-.4z"/><path d="M292.4 148.5c-.1-.2.1-.4.3-.3.1.2-.2.4-.3.3z" class="B"/><g class="C"><path d="M290.9 150c-.2-.1 0-.4.2-.2.1.1-.1.4-.3.3zm.6 1.2c-.3-.7.6-.7.3 0h-.3zm0 1.5c-.1 0 0-.3 0-.4.2-.3.7.3 0 .4zm-12.1 32.5v-.5h.7v.5h-.7zm-1.6.2v-.4h.2v.2h.3v.2h-.5zm.8-2.2c.6-.3 1 .2.7.8-.3.5-1-.6-.7-.8zm1.9.3v-.3h-.2v-.2h-.2c0-2.6.4.8.4.5zm1.3-1v-.4h-.2c1-2.2.2 1.2.2.5zm-.6-1.5v-.2h-.3c0-.5-.4-.8-.4-1.1h-.2v-.7h.9c0 1.3.6.9.6 2h-.6zm1.5-1.3h-.3v-.7h.7v.9l-.4-.2zm1 2.9v-.5h.5v.4h-.4zm1-2.7v-.2h-.3v-.5h.2c.4-1.3 0 1.1 0 .7zm.9-1.8v-.7h.4v.7h-.4zm.6 1.8v-1h.5v1h-.5zm.9-2v-.5h.2v-.1h.3v.6h-.5zm-2.6-2h.9v.7c-.6.2-1 0-1-.7zm2.2.7c0-.5-.3 0-.2-.5h.1v-.4h.3c0 .2-.2 1.5-.2.9zm-1-1.5v-.3h-.1v-.4h.7c0 .4-.5 1.4-.5.7zm-.4-1c0-.5-.2 0-.2-.4h-.2v-.4h.7v.8h-.3zm1.8-.2v-.6h.5v.1h.2v.5h-.7zm1.3-.2v-.2h-.3v-.4h.7v.6h-.4zm.4 1.4v-.3h-.2v-.2h.5v.4h-.3zM288.6 176.8v-.2h.3v.2h-.3zm1-1.7c0-1.2.2-1 .2 0h-.3zm0-1.6v-.2h.3v.1h-.2zm-4.3-2.2c0-.6-.2-1.3.5-.7s-.5 1.4-.5.7zm1 1.4v-.5h-.3v-.2h.2v-.2h.5v.2h.2v.2h-.1l-.1.4h-.5zm0-2.9c-.6 0 .6-1.6.6-.7h.2v.2h-.1l-.1.5h-.7zm-.7-1.1c-.7 0 0-.8 0-1h.1v-.1h.3v.1h.2v.5l-.2.5h-.4zm2-.7c-.8 0-.1-.7 0-.8.4-.2 1 .8 0 .8zm2.3-9.7c-.2 0-.5-1 .5-1v1h-.5zm-3 3.5c-.5 0-.5-.4-.4-.7h.1v-.9h.3v.2h.2v.3h.3v.4h-.2l-.1.7h-.2z"/></g><g class="B"><path d="M277.2 232.2s.3-1.1.4-.7c.5 2-3.4 1.7-.4.7zm9-1.2c1.3-.2-.2 1.1-.4.8s-.9-.7.4-.8zm.7-24.2c-.7-.8.9-1.4 1.1-1s-.4 1.7-1.1 1zm-2.7-13.3c-.5 0 2.5-2.9 3.3-2.8s-2.8 2.7-3.3 2.8zm1.7.4c-.2-.1.1-.3.1-.1s0 .2-.1 0zm-.3.2c-.1 0 0-.3.2-.2s-.2.3-.2.2zm-2.2 0c-.1-.2-.3 0 0-.2s.1.3 0 .2zm-.3.2s.1-.3.2-.1-.1.2-.2.1zm1.2.7c-.1-.2-.3 0 0-.2s.1.3 0 .2zm-.3.2s0-.3.2-.2-.2.3-.2.2zm-.5.2c-.1-.1.2-.4.3-.2s-.1.4-.3.2zm-.3.2c-.1-.1-.3.1-.1-.1s.2.3 0 .1zm-.3.3c0-.1 0-.4.2-.2s-.2.3-.2.2zm-1.3.9c-.1-.2.1-.4.2-.3s0 .4-.2.3zm.6 1c-.2 0 1-.6.7-.2s-.4.4-.7.3zm3.2 1c-.2-.1.4-.4.4-.1s-.2.1-.4 0zM280.7 198.8c-.1-.2.1-.4.3-.3s-.1.4-.3.3zm-2.4 0c-.2-.2 0-.4.2-.3s-.1.4-.2.3zm6.9.2c-.2-.1.1-.3.2-.1s0 .1-.2 0zm-.3.2c-.1-.1.2-.3.2 0s0 0-.2 0zm-2.5 0c-.3-.1 1.2-.7 1-.2s-.6.3-1 .2zm2.1.2c-.2 0 .4-.3.4 0s-.2 0-.4 0zm-.2.2c-.2 0 .1-.3.2 0s0 .1-.2 0zm-2.4 0c-.4 0 .7-.2.3 0s0 .1-.3 0zm2 .3c0-.1.2-.4.3-.2s-.2.3-.2.2zm-3 .2c-.2-.1-.4-.2.3-.4s0 .5-.3.4zm-1.9 2.2c-.4-.2-.6-.2.1-.4s.3.5-.1.4zm-.5.2c-.2 0 .5-.4.5 0s-.3.1-.5 0zm-1.3.7c-.2-.2 0-.4.2-.3s-.1.4-.2.3zm.8.9c-.2-.1 1.4-.9 1.4-.6s-1.2.7-1.4.6zm-1.7.4c-.6-.1 1.5-.2.9 0s-.3.2-1 0zm-1.1.5c-.2-.2 0-.4.2-.3s0 .4-.2.3zm26.3-21.3c-.2-.2 0-.4.3-.3 0 .1-.2.4-.3.3zm-.9 2.4l.2-.4c1-.4.2.7-.2.4zm-1.7.2c-.7-.3.5-1.4.9-1.1s-.2 1.5-.9 1.1zm-.2-1.3c-.5-.3.2-1.2.6-.8s0 1-.6.8zm.9-1.1c0-.5.8-2.3 1-1.7s-.5 1-1 1.7z"/><path d="M300.7 182.1c-.7-.3.2-.8.6-.9s0 1.2-.6 1zm.7-2.7c-.8-.4.3-1.5 1-1.7s-.3 2-1 1.7zm-8.7-6.7c-.1-.5-.4-1-.4-1.5.4 0 .5 1.2.8 1.6l.1.3a1.1 1.1 0 01-.3 0l-.2-.4zm27.4-14c-.1 0 .4-.6.5-.5.2.4-.2.7-.5.5zm-.9-.9l.3-.6c1.1-.4 0 1-.3.6zm-4.6-8.9c-.1 0 1-1.2 0-.8-1.3.6.6-.8.6-1.2 0-1.5-.6.5-.8-.2-.2-.6 0-1.2-.3-1.5 0 0-.1.1-.2 0-.4-.9 0-.4-.9-.9 0 0 .2-.2 0-.2h-.6c-.1 0 .2-.2 0-.3-.5 0-1.7 0-2-.2-.2 0-.2-1 0-1 2.5-.3 4.3-.8 6 1 .4.4.3 1.3.5 2 0 .2.1-.2.2 0 .1.6 0 1.8.3.6 1.2-3.5.4 3-.6 1.6-.1-.1.3-1.1-.4-.4-.3.3-1.2 2-1.8 1.6zm3.5.9c1.4-.6 2-.2 2.5-2 .5-1.5.5.8.2 1.3-.5.8-2.4 1.2-2.4 1.4-.7 0-1.7-.2-.3-.7zM321.3 148.9h.1c.4 2-2 2-2 1.9.8-.3 1.7-1.1 1.9-1.9zm1 .4c.4-1 .6.3.5.7 0 .2-2.9 2.8-3.6 2.5 0 0-.3-.6 0-.6 1.8-.5 2.1-.8 3-2.6zm-4 7.6c1.1-2 1.1-1.5 1.2-3.8h.4v.5h.3v.8h-.2v1l-1.6 1.5zm1.8 0v-.2h-.2l.6-1.6.1-2.2h.1v-.1l.8-.1v.9h.2v.2h-.2v1.3h-.2v1h-.2l-1 .8z"/><path d="M321.2 157.6c-.3.5.6-1.4.6-1.6.3-1.3.2-2.5.3-4 0-.5.8 1 1 1 0 1.9-.8 2.9-1.9 4.6zm-10.8.5c-.1-.1.6-.9.7-.7.2.3-.4.8-.7.7zm2.2 0c-.3-.2 0-.8.5-.5 0 0-.1.2 0 .2h.4c.4.2-.6.4-1 .3zm2.2 0c-1-.3 1.8-.3.9 0h-1zm2-.5c-.8-.3 1.5-.3.7 0a1 1 0 01-.7 0zm-4.3-12.7l-1.3-.3h-.5c-.4-1 3 0 3 1.3a33.2 33.2 0 01-1.2-1zm-.4 2.3c-1.1-.3.1-.2 0-.2h-.2c-.4-1 0-.5-.9-1 0 0 0-.3-.2-.4 0 0-1.3-.3-.6-.4 2.4-.5 3.1 2.2 2 2zm-.8 1c-1.1 0 0 0 0-.1-.5-.5.4-.3.8-.4.9-.3.2.7-.8.6zm-10 10.8c.2 0-.8.3-.3-.4.7-.8.3.4.2.4h.1z"/></g><path d="M291.2 156.8l-.7-1 1.2-.8-.5 1.8z" class="C"/><path d="M293.4 150.2l-.4-.3v-.1c.1-.2.3-.1.5-.1v.5z" class="B"/><path d="M290.8 153.2c.2-.2.7.2.7.4 0 .3-.3 1-.6.7-.3-.2-.3-.8 0-1.1z" class="C"/><g class="B"><path d="M312.6 195.9c-.3-.2.2-.4.5-.3s-.2.4-.5.3zm-4.9 1.7c-.1-.1.1-.4.3-.2s-.2.4-.3.2zm6 .5c-.2-.1.1-.4.2-.3s0 .5-.2.3zm.4.2c-.1-.1.1-.4.3-.2s-.1.4-.3.2zm-1.5 1.4c-.3-.2.2-.4.5-.3s-.2.4-.5.3zm.9.4c-.4-.2-.6-.3-.2-.5s.6.7.2.5zm2 .9c-.2-.2 0-.4.2-.3s-.1.4-.2.3zm-2.5.9c-.2-.2.2-.4.5-.3s-.2.4-.5.3zm-3.3.8c-.4-.2.8-.1.4 0s0 .2-.4 0z"/><path d="M310.2 202.9c-.4-.2 1.1 0 .6 0h-.6zm1.7 3c-.1-.2.1-.5.3-.3.1.1-.2.4-.3.3zm1.6.6c-.2-.1 0-.7.2-.5v.3h.5c.2.1-.5.4-.7.2zm.9.2c-.1 0-.1-.2 0-.2.6-.4.6.5 0 .2zm-7.1 3.4c-.2-.2 0-.5.2-.3s0 .5-.2.3zm.4.2c-.1-.1.1-.4.3-.3s-.2.4-.3.3zm.4.2c-.3-.2.8-.1.4 0s0 .2-.4 0zm5.6.2c-.2 0 0-.1 0-.2s0 .3-.4 0 1.5 0 1 .2-.5 0-.6 0z"/><path d="M308.6 210.6c-.3-.1 1 0 .6.1s-.3 0-.6 0zm.6.3c-.2-.2.8 0 .4 0s-.1.1-.4 0zM309.7 211c-.4-.1-.3 0 0 0s.4.3 0 0zm3.8 1.7c-.2 0 .6 0 0-.2s-1-.7-.2-.5 0 .2 0 .3 1.4.3 1 .4h-.8zm1 0c.1.2 0 .2-.1.1s0-.3.1-.1zm-4.5.5c-.2-.2 0-.4.2-.3s-.1.4-.2.3zm5.5-20.4c-.2-.1 0-.4.2-.3s-.1.4-.2.3zm2.4 2.2c-.6-.5-.1-.4-.2-.4s.1 1-.2 0 1 .9.4.4zm-2.7 18.4c-.3-.2.8-.2.4 0s0 .2-.4 0z"/><path d="M315.7 213.5c-.3-.2.8 0 .4 0s-.2.2-.4 0zm1.1.3c-.1.2.3.3.2 0-.4-.6-1.5.3-.2 0zm1.6 1c-.3-.2.2-.5.4-.3s-.2.3-.4.2zm-9.8 0c-.2-.2.1-.5.2-.3s0 .4-.2.2zm5.5.1c-.2 0-.2 0 0-.2s.2.3 0 .2zm1.4.7c-.2 0 .3-.1 0-.2s-.7 0-1.1-.4 1.2 0 1.3.1 0 .2 0 .2c.7.4.4.5-.2.3zm-8.2.5c-.3-.2.2-.4.4-.3s-.2.4-.4.3zm9.5.2c-.1 0 .6 0 0-.2s-.2-.6.3-.3-.1.2 0 .2.2-.1.4 0-.6.3-.7.3zm-9.1-.1c-.2-.2.7 0 .4 0s-.2.2-.4 0z"/><path d="M308.1 216.4c-.3-.2-.3 0 .1-.1s.3.3 0 .1zm.7.3c-.1-.1.1-.4.3-.2s-.2.4-.3.2zm1.4.7c-.3-.1.2-.4.4-.3s-.2.4-.4.3zm2 .7c-.3-.1-.2-.2 0-.3s.2.3 0 .3zm.2 0c-.3-.1.7 0 .3.1s-.1.1-.3 0zm2.2 1.3c-.6-.3.7.3 0-.2s.5.5 0 .2zm.8.1c0 .3.4.3.2 0-.4-.6-.9.4-.2 0zm-7.5 1c-.5-.4.3-.6.5-.5s0 .8-.5.5zm-3.5.2c-.3-.1.2-.4.5-.3s-.2.4-.5.3zm10.6 1.1c-.5-.2.3 0 0-.2s-8-3.5-7.5-3.8-.2.1.9.4 5.3 2.2 6.2 2.7 0 .2 0 .2h.5c.2 0 .4.9 0 .7zm-2 1.1c-.2 0-.2 0 0-.2s.2.3 0 .2zm-8 0c-.3-.2.8-.1.4 0s0 .2-.3 0z"/><path d="M313.3 223c-.1 0 0-.3.1-.1s0 .3-.1.1zm-7.8 0s0-.3.1-.1 0 .3-.1.1zm4.4.6c-.2 0-.1-.1 0-.3s.3.4 0 .3zm.3.1c-.3-.2.7 0 .3 0s-.1.2-.3 0zm.6.6c-.3-.2-.5-.4-.1-.5s.5.6.1.5zm-6 .4c-.1-.1.2-.4.3-.3s-.1.4-.3.3zm9 .9c0 .4.6-.2.2-.1 0-.3-.8-.3-1-.4-.2 0 .4.1 0-.2s-2-.6-.9-.2.1.4.3.4c.3.2 1.2.6 1.5.5zm-2.3.9c-.2-.1-.2-.2 0-.3s.2.3 0 .3zm.4.4c-.3-.2-.5-.4-.1-.5s.5.7.1.5zm-3.3 0c-.2-.1.1-.4.2-.3s0 .4-.2.3zm3.8.1c-.3-.2.7 0 .3 0s-.1.2-.3 0zm.4.2c0-.1.2-.2.3 0s-.2.2-.3 0zm.2.2c-.3-.2-.3 0 .1-.1s.3.3 0 .1zm.7.4c-.2 0-.2-.1 0-.3s.2.3 0 .3zm.2.2s.2-.3.2 0-.1.1-.2 0zm.2.1c0-.1.2-.2.3 0s-.2.2-.3 0zm.2.3c0-.1 0-.4.2-.2s0 .3-.2.2zm-24.6-16.6l-.2-.4c-1.8-1.8 2.1-3 3-3.8 1.8-1.8 4.8-3.8 6-6.2.2-.6 1.9-1.4 2.4-1 1.5 1.7-1.3 2.4-2.2 2.8-.7.3-.4.4-.7.8-.3.4-1 .4-1.4.8l-2.9 3c-.7.8-.5-.5-.8.6-.3 1-.8.4-1.3.7-.6.4.3 3.2-1.9 2.7z"/><path d="M290 210.6v-.6h.2v-.1l.4-.1v.2c.9.3-.7 1.1-.6.6zm9.3-8.1c-.3-.5.3-.7.7-1.1 1-1.1-.3 1.6-.7 1zM287 229.8v-.7h.2v-.1l.4-.1v-.1l.5-.1c0 .8-1.2 1.7-1.1 1.1zm.4-2.2c-.3-.5.3-.8.7-1s-.3 1.4-.7 1zm.2-2l.1-.5h.1v-.4c1.3 0-.2 1.2-.2.9zm.3-2.2c-.6-.2.7-1.6.9-1.2s-.4 1.4-1 1.2zm-.3-1.6l.1-.5c.1 0 1.3-1.8 1.3-.4s-1.4 1.4-1.4.9zm.3-2.2v-.5h.4v-.1c1-.3-.4 1.2-.4.6zM287.3 212l.1-.9h.1l.4-.2c1.5-.3-.6 1.6-.6 1.2zm-.2-2c-.5-.5.4-.8 1-.9s-.5 1.6-1 1zm-.2-1.5v-.7h.4v-.1c1.5-.3-.4 1.3-.4.8zm1.3-3.7v-.3h.2v-.1l.5-.1v.4h-.7zM287.5 213.8c.2-.7 1-1.6 1.4-1.8v.7c0 .6-1.5 1.9-1.4 1.1zm-.2 2.5c-.2-.5 1.1-2.1 1.6-1.8s-1.3 2.3-1.6 1.8zm0 1.8c.2-.6.9-2.3 1.4-1.6s-1.5 2.1-1.4 1.6zm9.6-27.4c-.5-.2.2-1.1.6-.8s0 1.1-.6.8zm.9 1.9v-.3h.2v.2h-.2zm-1.6 2.6v-.2h.1v-.5c1.5 0-.3 1.2-.1.7zm-1.6 2.4l.1-.4h.1v-.2h.5v.4h-.4v.2h-.3zm-1.3 1.8v-.2h.5v.2h-.5zm-2.2 2v-.2h1l-.1.2h-1zm-1.8 1.8c-.7-.4.7-.7 1.1-.7s-.3 1-1 .7zm1.8-4.2v-.2c.4-.4 1.2-1 1.8-1.2 0 1-.8 1.4-1.8 1.4zM291 199.2l-.1-.2h.1l.1.1h-.2zm-.3.2v-.1l.1-.1v.2h-.1zm9-10.8c-.2-.3.5-.9.5-.7.1.3-.1 1-.5.7zm-.8 2c-.2-.2 0-.5.2-.3.1.1-.1.4-.2.2zm-1.3-.7c-.3-.3.4-.4.2 0h-.2zM242 220v-.2c.3-.2.3.3 0 .2zm.2.1s.2-.2.3-.1c.2.1-.1.3-.3.1zm-2.8 1.5v-.3c.3-.2.3.4 0 .3zm.4.9l-.2-1c.2-.5 1.2 1.8.2 1zm-1.5 0v-.3c.3-.2.3.4 0 .3zm.2.4c-.2-.5.4-.7.2 0h-.2zm.4.7s-.3-1 0-.7c.3.3.4 1 0 .7zm-5.3.4v-.2c.3-.2.3.3 0 .2zm2 .2l-.4-.9c.7-.4.7 1.2.4 1zm2 .3s-.5-1.4 0-1c.4.3.2 1.3 0 1zm-3.3.6l-.4-1c.1-.6 1 1.6.4 1zm-.5.5v-.3c.7-.4.6.6 0 .3zm5 .4c-.2 0-.1-.2 0-.2.2-.2.2.3 0 .2zm-2 0c-.3-.7.5-.7.1 0h-.2zm2.1.1s.1-.2.2-.1c.2.2 0 .3-.2.1zm2 .4l-.2-.5c-.8-.8.8-.2.4.4h-.2zm-3.7.2c-.1-.1-.4-1-.1-.7.3.2.4 1 0 .7zm-1.8.2s-.6-1-.5-1.1c.5-.5 1.5 1.5.5 1zm-3.5 0v-.3c.3-.2.3.4 0 .3zm.2 0s0-.1.1 0c.2.2 0 .2-.1 0zm2.6 1.6v-.3c.3-.2.3.3 0 .3zm.5.6c-.1 0-.4-.9-.1-.7.3.3.4 1 0 .7zm46.6.2c-.5-.2.3-1 .1 0h-.1zm-.3 1.1c-.1-1.5.4-1.4.2 0 0 0-.2.1-.2 0zm-.2 1c-.3-1 .5-1 .2-.1h-.2zm-.2.8c-.4-1 .5-1 .2 0h-.2zm-1.6 2c0-.4 0-2.1.2-2.5.9-1.1-.1 3.2-.2 2.5z"/><path d="M287.1 232.6c0 1.3-1 .7-1.1 1.4s-1.2 1.5-1.6.7 2.8-3.3 2.7-2zm-.6 2.3c0 1.1-.8 1-2 1.7s2-2.9 2-1.7zm-3.6 4c0-.9 1-1.2 2.2-1.5s-2.2 2.4-2.2 1.5zm-.7 1.8c-.8-.8 2.6-1.4 3.2-1.4s-2.3 2.1-3.2 1.4zm-.5-5.6l.7-3.6c4.8 0-2 10.2-.7 3.6zm3.4-18c0-.1-.2-1.5 0-1.5 1.9-.5 0 2.2 0 1.6zm-1.3 1c0-.4 0-2.2.7-1.8l-.7 1.8zm-1.4.4c0-.3.2-1.5.5-1.7 1-.7-.2 2.5-.5 1.7zm-4 1.7c-.4-.1 0-2 .6-1.3 0 0-.4 1.4-.7 1.3zm6 1.9c0-1 .6-4.1.7-3.6.1.2 0 .6 0 .8 0 0 .5 0 .3.5h-.3c0 .3-.6 3-.7 2.3zm-3.7.4c-.1-.8.5-4.8.7-5 1.3-1-.6 5.7-.7 5zm-1.2.2c-.3-.2.4-3.8 1-4 .4-.2-.5 4.2-1 4zm3.6.2l.3-2.5s.3-1.1.4-.6c.1.5-.3 2.5-.5 3.1 0 0-.2.1-.2 0zm-2.6.3c-.3-.7.6-.7.2 0h-.2zm-1.3.6c-.6-.3.4-2.4.2 0h-.2zm2.4.2c0-.5 1-6.4.9-2.7 0 .8-1 3.3-.9 2.7zm-2.7.5c-.2-1 .5-.9.3 0h-.3zm-2.4 11v-.6c2.2-1.1 0 .7 0 .7zm1.1 1.8c-.3-1.2.6-1.3.2 0 0 0-.2.1-.2 0zm-.2 1.4c-.3-1 .6-1 .2 0h-.2zm-1.3-1c-.2-.3.4-.3.2 0s0 .4-.2 0zm.2-.6c-.2-.8.4-.8.2 0s0 .8-.2 0zm2.2-4.9c-.2-.1 0-.4.3-.2 0 0-.2.4-.3.2zm-.4 2.5c-.4-.7.5-.7.2 0h-.2zm.8 3.3l.3-2.9h.2v-.7c.4-.7 0 2.5 0 2.7h-.2c0 .2-.2 1.5-.3.9zm-.1 1.3c-.5-.3.4-2.5.1 0h-.1z"/></g><g class="C"><path d="M287.7 172.4v-.2h-.2v-.5h.5v.7h-.3zm1.3-.4v-.5h.5v.5h-.5zm-.6-1.5v-.5h.4v.4h-.4zm1.7-.3v-.2h-.2v-.2h.5v.4h-.3zm-.6-.8c-.4.5 0-.6 0-.7h.4l-.4.7zm-1.7-3.8c-.4.5 0-1 0-1.2l.7.3-.7.9zm2.1-2c-.7 0 0-1 0-1l.5-.1v1l-.5.1zm1.8-.7c-.5 0-.4-.7.5-.7v.7h-.5zM290.8 164.7c-.4 0-.2.6-.2-.5s.6.5.2.5zm.9 1.1c-.2 0-.7-.7.3-.7v.7h-.3zm-1.1 1.8s-.3 0-.3-.3l.1-.4h.1v-.2h.3v.2h.3l-.6.7zm-.7-1.4c-.6.1 0-.5 0-.6h.3v.6h-.3zm-1.1 1.8c-.3.5 0-.7 0-.8l.3-.1v.2h.2l-.5.7zm-1.3 3.1v-.2h-.2v-.7h.5v.9h-.3zm3-9.7s-.7-1 .4-1v.5h.2l-.5.5zm-1-1.4c-.7 0 .5-1.4.4 0h-.4zm-.5 2c-.5.1-.4-.4-.4-.7h.1v-.4h.6v1.1h-.3zm-1.4.7l-.3-.5h-.2v-.2l.5-.1v-.1c.9-.1 1.2.8 0 1z"/></g><g class="B"><path d="M294.3 170.7c0-.5-.8-1-1-1.5 0-.2.1-.6 0-.8v-.1c.1 0 2.5 4 1.6 4-.3-.6-.7-1-.6-1.6zm-.5.7c0-.4-.5-1.5-1-1.5 0 .4.4.7.4 1 .4.2.3 1.2.5 1.6h.1v-1.1zm3.2-3c0-.2-.4-.6-.3-.7.5-.3 1 .9 1 1.2h-.4a1.2 1.2 0 00-.2-.5zm-1.9-.4c0-.4-2-2.2-1.1-2.2 1.6 0 2.5 2 2.5 3.7h-.4l-.8-1.5h-.2zm23.7-8.6c-.1 0 .4-.7.7-.5.4.4-.4.6-.7.5zm-1.3.6c-.2-.1 0-.4.2-.2.1.1-.1.4-.2.2zm-1.8.5c-.2-.2 0-.4.3-.3.1.1-.2.4-.3.3zm-5-1c-.2 0 .5-.7.6-.6.2.3-.4.9-.7.7zm3.2-.3c-.8-.3 1.5-.4.7 0a1 1 0 01-.7 0zm-14.8 3.1c-.2-.2-2.3-1.3-1.5-1.8.6-.3 1 .9 1.5 1 .7.3.6 0 .6.8h-.6zm-.9 2c.2 0-.2 0-.3-.2-1-.8 1.9.1 2-.7V162c.2-.5 1.3-.2 1.1.3 0 .3-.5.5-.6.8-.1.4 0 .8-.4 1.2-.6.5-1.6 1-1.6 0h-.2zm1.9-3.3c-.5-.5.3-.5.2 0 0 .1-.2 0-.2 0zm-4.5 1.7c-.3-.6-.6-2.8-1.4-2.8-.4 0 1.2 3.9 1.8 3.6.4-.2-.4-.7-.4-.8zm1.9 1.2c0-.2-1.1-1-.8-1 1-.1.8 1 .8 1zm-1.9.5c-1.3-.2-1-3.3-1.6-2.7-1.7 1.6 3.1 5.2 3.3 5 .2 0 .2-.4 0-.4-1-.4-1-1.8-1.7-2zm17.9-25c-.3-.3.8-1.2 1.1-.5.2.5-.7 1-1.1.5zM314.6 138.7v-.1h.2v.1h-.2zm.3-.2l-.1-.1.3-.1v.2h-.2zM314.1 140.3a15 15 0 012.5-3c.1 1.2-1.3 3.2-2.5 3zm.3 1.8v-.2h-.5c0-1.4 1.9-2.8 2-1.2l-1 1.1c.3-.3 1.3-1.6 1.7-.7.7 1.3-.7 1-2.2 1zm2.3-2.7l-.1-.1.2-.1v.2h-.1z"/><path d="M316 140.3c-.2 0 .2-1 .4-.9.8.4.2.9-.4.9zm-7.4-.9c-1.6 0 2.9-.4 2.7-.2-1.2 1-1.4.2-2.7.2zm-3.8 2.7v-.3l.5.1v.1h-.5zm.3 32c-.2-.1 0-.4.2-.2.1.1-.1.4-.2.3zm.8-.8s.1-.3 0-.4c0 0-.6 0-.2-.3 1-.5.4 1 .2.7zM303 179s.4-1 .5-.7c.1.4 0 1-.5.7zm-.8 2.5c-.2 0 .4-.6.4-.5.2.3-.1.7-.4.5zm0-5c-.4-.2.6-1.1 1-1.7 0 .5-.5 2-1 1.8zm1.1-1.7c-.3-.2.6-1.8.7-1.5.1.4-.6 1.6-.7 1.5zm14.8-6c-.1-.3.1-.5.3-.3.1 0-.1.3-.3.2zm-15.3 2.2c.1 0 0 .4 0 .4-.4-.2-.4-.7 0-.4zm0-.1c-.3-.2.5-1 .2 0h-.1zm15.1-8.2c-.9-.7 1.2-.6.2 0h-.2zm-8.7-.9c-.1-.2.1-.4.3-.2.1 0-.1.3-.3.2zm-2.2 1c-.4-.4.3-.9.7-.6.4.3-.2.8-.7.5zm-.6-1.4c-.4-.2 0-.9.2-.7.1 0 0 .2 0 .2.2 0 .7-.2.4.2 0 .2-.4.4-.6.3zM304.8 161c-.1-.2.1-.5.3-.3.1 0-.1.3-.3.2zm.3 1.7c-.9-.7.6-1.3.2 0h-.2zm-67 3.7s1.2-.4 1.7-.8l.7-.5c1.4-.6-1.2 2-2.6 1.8-1-.1.2-.5.2-.5zm-.4-6.3s2-2 2.4-2.7l.7-1.1c1.4-1.3-1.4 3.3-2.5 4-.5.2-2.3 1.6-.6-.2zm-.9 2.4l1 .3c2.5.5-1.3 1-1.4 0 0-.5.4-.3.4-.3zm-1 .5s.2.5.7.7c2 .6-1.2 1-1.2-.6h.6zm3.7-1.7s1-.9 1.2-1.3c.1-.2.7-1.6.7-.4 0 2-2.4 2.9-2.1 2.1l.2-.4z"/></g></g><g fill="none"><path stroke-width="2.1" d="M276 85.2c43 0 78.3 35.2 78.3 78.3S319 241.8 276 241.8s-78.3-35.1-78.3-78.3 35.1-78.3 78.3-78.3z" class="E F"/><path stroke="#fdd6c6" d="M246.7 121.4a45.7 45.7 0 00-4.3 11.2" class="G"/></g><g class="D"><path d="M244.4 126.5v-.7h.1v-.5h.5l-.7 1.2zm1-1.8c0-.5.2-1.2 1-1.5l-1 1.5zM243.3 128.2c0-.5.2-1.2 1-1.4l-1 1.4zm-.8 3c-.5-.8 2.4-3.4 2.6-2.3s-2.1 3-2.6 2.2z"/><path d="M241.6 133l2-2c1.6.2-2.1 3.3-2 2zm1.6-3.6l.1-.6h.1v-.5h.4l.1.1-.7 1.2z"/><path d="M243.5 128.3c0-.5.8-1.2 1.6-1.5l-1.1 1.5h-.5zm-1.1 3.7l.4-.8.1.7h-.6z"/></g><path fill="none" stroke="#fdd6c6" d="M247 121.6l-.4.5-.5.7" class="G"/><g class="D"><path d="M246.4 121.8l.2-.3h.2l-.3.3h-.1zm-.3.6l.2-.3h.2l-.2.3h-.2zm.6-1.3l.4-.2v.3l-.4-.1z"/><path stroke-width=".3" stroke-linecap="round" d="M246.5 121.2c.3 0 .4-.4.6-.5" class="E"/></g></svg>