<svg xmlns="http://www.w3.org/2000/svg" xmlns:xlink="http://www.w3.org/1999/xlink" height="480" width="640" xmlns:v="https://vecta.io/nano"><defs><clipPath id="A"><path fill-opacity=".67" d="M0 0h682.67v512H0z"/></clipPath><path id="B" d="M8.233 2.996l.9 2.767h2.91l-2.354 1.7.9 2.767-2.354-1.7-2.354 1.7.9-2.767-2.354-1.7h2.91z"/><path id="C" d="M41.167 2.996l.9 2.767h2.91l-2.353 1.7.9 2.767-2.353-1.7-2.353 1.7.9-2.767-2.353-1.7h2.91z"/><path id="D" d="M90.567 2.996l.9 2.767h2.91l-2.354 1.7.9 2.767-2.353-1.7-2.353 1.7.9-2.767-2.354-1.7h2.91z"/><path id="E" d="M32.933 9.996l.9 2.767h2.91l-2.353 1.7.9 2.767-2.353-1.7-2.354 1.7.9-2.767-2.354-1.7h2.91z"/></defs><g fill-rule="evenodd" clip-path="url(#A)" transform="matrix(.9375 0 0 .9375 0 -.000005)"><g transform="matrix(3.9385 0 0 3.9385 0 .000005)"><g fill="#bd3d44"><path d="M0 0h247v10H0zm0 20h247v10H0zm0 20h247v10H0zm0 20h247v10H0zm0 20h247v10H0zm0 20h247v10H0zm0 20h247v10H0z"/></g><g fill="#fff"><path d="M0 10h247v10H0zm0 20h247v10H0zm0 20h247v10H0zm0 20h247v10H0zm0 20h247v10H0zm0 20h247v10H0z"/></g></g><path fill="#192f5d" d="M0 0h389.12v275.7H0z"/><g fill="#fff" transform="matrix(3.9385 0 0 3.9385 0 .000005)"><use xlink:href="#B"/><path d="M24.7 2.996l.9 2.767h2.91l-2.354 1.7.9 2.767-2.354-1.7-2.354 1.7.9-2.767-2.354-1.7h2.91z"/><use xlink:href="#C"/><path d="M57.633 2.996l.9 2.767h2.9l-2.353 1.7.9 2.767-2.353-1.7-2.353 1.7.9-2.767-2.353-1.7h2.9zm16.467 0l.9 2.767h2.9l-2.353 1.7.9 2.767-2.353-1.7-2.353 1.7.9-2.767-2.353-1.7h2.9z"/><use xlink:href="#D"/><path d="M16.467 9.996l.9 2.767h2.91l-2.354 1.7.9 2.767-2.354-1.7-2.354 1.7.9-2.767-2.354-1.7h2.91z"/><use xlink:href="#E"/><path d="M49.4 9.996l.9 2.767h2.9l-2.353 1.7.9 2.767-2.353-1.7-2.353 1.7.9-2.767-2.353-1.7h2.9zm16.467 0l.9 2.767h2.9l-2.354 1.7.9 2.767-2.353-1.7-2.353 1.7.9-2.767-2.354-1.7h2.9zm16.466 0l.9 2.767h2.9l-2.353 1.7.9 2.767-2.353-1.7-2.353 1.7.9-2.767-2.353-1.7h2.9zm-74.1 7l.9 2.767h2.9l-2.354 1.7.9 2.767-2.354-1.7-2.354 1.7.9-2.767-2.354-1.7h2.9zm16.467 0l.9 2.767h2.9l-2.354 1.7.9 2.767-2.354-1.7-2.354 1.7.9-2.767-2.354-1.7h2.9zm16.467 0l.9 2.767h2.9l-2.353 1.7.9 2.767-2.353-1.7-2.353 1.7.9-2.767-2.353-1.7h2.9zm16.466 0l.9 2.767h2.9l-2.353 1.7.9 2.767-2.353-1.7-2.353 1.7.9-2.767-2.353-1.7h2.9zm16.467 0l.9 2.767h2.9l-2.353 1.7.9 2.767-2.353-1.7-2.353 1.7.9-2.767-2.353-1.7h2.9zm16.467 0l.9 2.767h2.9l-2.354 1.7.9 2.767-2.353-1.7-2.353 1.7.9-2.767-2.354-1.7h2.9zm-74.1 7l.9 2.767h2.9l-2.354 1.7.9 2.767-2.354-1.7-2.354 1.7.9-2.767-2.354-1.7h2.9zm16.466 0l.9 2.767h2.9l-2.353 1.7.9 2.767-2.353-1.7-2.354 1.7.9-2.767-2.354-1.7h2.9zm16.467 0l.9 2.767h2.9l-2.353 1.7.9 2.767-2.353-1.7-2.353 1.7.9-2.767-2.353-1.7h2.9zm16.467 0l.9 2.767h2.9l-2.354 1.7.9 2.767-2.353-1.7-2.353 1.7.9-2.767-2.354-1.7h2.9zm16.466 0l.9 2.767h2.9l-2.353 1.7.9 2.767-2.353-1.7-2.353 1.7.9-2.767-2.353-1.7h2.9zm-74.1 7l.9 2.767h2.9l-2.354 1.7.9 2.767-2.354-1.7-2.354 1.7.9-2.767-2.354-1.7h2.9zm16.467 0l.9 2.767h2.9l-2.354 1.7.9 2.767-2.354-1.7-2.354 1.7.9-2.767-2.354-1.7h2.9zm16.467 0l.9 2.767h2.9l-2.353 1.7.9 2.767-2.353-1.7-2.353 1.7.9-2.767-2.353-1.7h2.9zm16.466 0l.9 2.767h2.9l-2.353 1.7.9 2.767-2.353-1.7-2.353 1.7.9-2.767-2.353-1.7h2.9zm16.467 0l.9 2.767h2.9l-2.353 1.7.9 2.767-2.353-1.7-2.353 1.7.9-2.767-2.353-1.7h2.9zm16.467 0l.9 2.767h2.9l-2.354 1.7.9 2.767-2.353-1.7-2.353 1.7.9-2.767-2.354-1.7h2.9zm-74.1 7l.9 2.767h2.9l-2.354 1.7.9 2.767-2.354-1.7-2.354 1.7.9-2.767-2.354-1.7h2.9zm16.466 0l.9 2.767h2.9l-2.353 1.7.9 2.767-2.353-1.7-2.354 1.7.9-2.767-2.354-1.7h2.9zm16.467 0l.9 2.767h2.9l-2.353 1.7.9 2.767-2.353-1.7-2.353 1.7.9-2.767-2.353-1.7h2.9zm16.467 0l.9 2.767h2.9l-2.354 1.7.9 2.767-2.353-1.7-2.353 1.7.9-2.767-2.354-1.7h2.9zm16.466 0l.9 2.767h2.9l-2.353 1.7.9 2.767-2.353-1.7-2.353 1.7.9-2.767-2.353-1.7h2.9zm-74.1 7l.9 2.767h2.9l-2.354 1.7.9 2.767-2.354-1.7-2.354 1.7.9-2.767-2.354-1.7h2.9zm16.467 0l.9 2.767h2.9l-2.354 1.7.9 2.767-2.354-1.7-2.354 1.7.9-2.767-2.354-1.7h2.9zm16.467 0l.9 2.767h2.9l-2.353 1.7.9 2.767-2.353-1.7-2.353 1.7.9-2.767-2.353-1.7h2.9zm16.466 0l.9 2.767h2.9l-2.353 1.7.9 2.767-2.353-1.7-2.353 1.7.9-2.767-2.353-1.7h2.9zm16.467 0l.9 2.767h2.9l-2.353 1.7.9 2.767-2.353-1.7-2.353 1.7.9-2.767-2.353-1.7h2.9zm16.467 0l.9 2.767h2.9l-2.354 1.7.9 2.767-2.353-1.7-2.353 1.7.9-2.767-2.354-1.7h2.9zm-74.1 7l.9 2.767h2.9l-2.354 1.7.9 2.767-2.354-1.7-2.354 1.7.9-2.767-2.354-1.7h2.9zm16.466 0l.9 2.767h2.9l-2.353 1.7.9 2.767-2.353-1.7-2.354 1.7.9-2.767-2.354-1.7h2.9zm16.467 0l.9 2.767h2.9l-2.353 1.7.9 2.767-2.353-1.7-2.353 1.7.9-2.767-2.353-1.7h2.9zm16.467 0l.9 2.767h2.9l-2.354 1.7.9 2.767-2.353-1.7-2.353 1.7.9-2.767-2.354-1.7h2.9zm16.466 0l.9 2.767h2.9l-2.353 1.7.9 2.767-2.353-1.7-2.353 1.7.9-2.767-2.353-1.7h2.9zm-74.1 7l.9 2.767h2.9l-2.354 1.7.9 2.767-2.354-1.7-2.354 1.7.9-2.767-2.354-1.7h2.9zm16.467 0l.9 2.767h2.9l-2.354 1.7.9 2.767-2.354-1.7-2.354 1.7.9-2.767-2.354-1.7h2.9zm16.467 0l.9 2.767h2.9l-2.353 1.7.9 2.767-2.353-1.7-2.353 1.7.9-2.767-2.353-1.7h2.9zm16.466 0l.9 2.767h2.9l-2.353 1.7.9 2.767-2.353-1.7-2.353 1.7.9-2.767-2.353-1.7h2.9zm16.467 0l.9 2.767h2.9l-2.353 1.7.9 2.767-2.353-1.7-2.353 1.7.9-2.767-2.353-1.7h2.9zm16.467 0l.9 2.767h2.9l-2.354 1.7.9 2.767-2.353-1.7-2.353 1.7.9-2.767-2.354-1.7h2.9z"/></g></g></svg>