<svg xmlns="http://www.w3.org/2000/svg" xmlns:xlink="http://www.w3.org/1999/xlink" height="480" width="640" xmlns:v="https://vecta.io/nano"><style><![CDATA[.B{stroke-width:.898pt}.C{fill:#fff133}.D{stroke:#000}.E{fill:silver}.F{stroke-width:2.266}.G{fill:#fff}.H{stroke-width:1.903}.I{stroke-width:12.791}.J{stroke-width:17.958}.K{stroke-width:2.049}.L{stroke-width:2.354}.M{stroke-width:1.127}.N{stroke-width:1.09}]]></style><g fill-rule="evenodd"><path d="M320 0h320v480H320z" class="G"/><g transform="matrix(.1312 0 0 .15231 417.12 213.17)"><g class="D"><g class="G H"><path d="M374.89-165.302c0 .817-102.36 291.3-216.168 392.892C31.815 341.67-48.318 341.752-48.318 341.752l-129.635-23.16s75.91 2.736 226.467-136.223C201.17 41.48 248.676-191.438 246.4-187.36l128.492 22.06z"/><path d="M252.84-143.61c-2.808-12.247 62 288.826 256.468 427.768 97.225 69.478 162.045 69.478 162.045 69.478l162.043-23.16s-94.597 4.903-245.163-134.053c-152.655-140.9-198.625-344.12-197.49-344.93l-137.893 4.902z"/><path d="M248.14-153.402c0 .817 102.36 291.3 216.168 392.892 126.908 114.08 207.04 114.162 207.04 114.162l129.635-23.16s-75.91 2.736-226.467-136.223C421.86 53.38 374.354-179.538 376.64-175.46L248.148-153.4z"/><path d="M370.19-155.51c2.808-12.247-62 288.826-256.468 427.768-97.225 69.478-162.045 69.478-162.045 69.478l-162.043-23.16s94.597 4.903 245.163-134.053c152.655-140.9 198.625-344.12 197.49-344.93l137.893 4.902z"/></g><use xlink:href="#B" transform="matrix(1.8289 .028083 -.0393 1.3069 -282.83 847.84)" class="B C"/><g fill="#b00" class="I"><g transform="matrix(-1.098 -.052087 -.072237 .79175 576.72 591.32)"><use xlink:href="#C" transform="matrix(-.12336 .014713 -.063908 -.1006 550.75 255.13)"/><use xlink:href="#C" transform="matrix(-.12126 .017986 -.065313 -.10042 561.45 266.72)"/><use xlink:href="#C" transform="matrix(-.12336 .014713 -.063908 -.1006 574.98 280.98)"/><use xlink:href="#C" transform="matrix(-.12303 -.017259 -.036116 -.11358 432.3 104.15)"/><use xlink:href="#C" transform="matrix(-.12208 -.011153 -.039758 -.113 439.61 116.98)"/><use xlink:href="#C" transform="matrix(-.12335 -.014829 -.038349 -.11285 449.4 134.04)"/><use xlink:href="#C" transform="matrix(-.12254 -.003404 -.04683 -.11025 455.97 139.06)"/><use xlink:href="#C" transform="matrix(-.12051 -.0302 -.023876 -.11677 405.54 48.626)"/><use xlink:href="#C" transform="matrix(-.11971 -.026394 -.025255 -.1171 411.41 63.259)"/><use xlink:href="#C" transform="matrix(-.12051 -.0302 -.023876 -.11677 418.98 81.413)"/><use xlink:href="#C" transform="matrix(-.1202 -.02405 -.027537 -.11658 426.33 94.354)"/><use xlink:href="#C" transform="matrix(-.12415 .004692 -.055567 -.10544 505.97 205.18)"/><use xlink:href="#C" transform="matrix(-.12232 .008124 -.056981 -.10537 515.7 217.59)"/><use xlink:href="#C" transform="matrix(-.12415 .004692 -.055567 -.10544 528.04 232.9)"/><use xlink:href="#C" transform="matrix(-.12126 .017986 -.065313 -.10042 537.21 240.87)"/><use xlink:href="#C" transform="matrix(-.12404 -.006992 -.045415 -.1102 466.82 155.47)"/><use xlink:href="#C" transform="matrix(-.12254 -.003404 -.04683 -.11025 475.34 168.73)"/><use xlink:href="#C" transform="matrix(-.12415 .004692 -.055567 -.10544 483.91 177.46)"/><use xlink:href="#C" transform="matrix(-.12232 .008124 -.056981 -.10537 493.63 189.87)"/><use xlink:href="#C" transform="matrix(-.11229 -.05316 -.000605 -.11918 349.93 -134.62)"/><use xlink:href="#C" transform="matrix(-.11582 -.040159 -.011443 -.11924 349.8 -129.74)"/><use xlink:href="#C" transform="matrix(-.11617 -.044032 -.010111 -.11876 355.2 -110.83)"/><use xlink:href="#C" transform="matrix(-.11582 -.040159 -.011443 -.11924 359.33 -95.609)"/><use xlink:href="#C" transform="matrix(-.11225 -.049271 -.001894 -.11977 339.28 -188.68)"/><use xlink:href="#C" transform="matrix(-.11229 -.05316 -.000605 -.11918 343.16 -169.4)"/><use xlink:href="#C" transform="matrix(-.11225 -.049271 -.001894 -.11977 346.05 -153.9)"/><use xlink:href="#C" transform="matrix(-.11931 -.034645 -.019532 -.11758 380.94 -15.821)"/><use xlink:href="#C" transform="matrix(-.11865 -.030812 -.020898 -.11795 386.26 -.9798)"/><use xlink:href="#C" transform="matrix(-.11931 -.034645 -.019532 -.11758 393.16 17.442)"/><use xlink:href="#C" transform="matrix(-.11971 -.026394 -.025255 -.1171 397.97 30.472)"/><use xlink:href="#C" transform="matrix(-.11617 -.044032 -.010111 -.11876 364.73 -76.697)"/><use xlink:href="#C" transform="matrix(-.11865 -.030812 -.020898 -.11795 361.84 -67.505)"/><use xlink:href="#C" transform="matrix(-.11931 -.034645 -.019532 -.11758 368.73 -49.083)"/><use xlink:href="#C" transform="matrix(-.11865 -.030812 -.020898 -.11795 374.05 -34.242)"/><use xlink:href="#C" transform="matrix(-.10237 -.070401 .018425 -.11775 323.56 -283.26)"/><use xlink:href="#C" transform="matrix(-.11132 -.055166 .001533 -.11918 322.41 -270.56)"/><use xlink:href="#C" transform="matrix(-.11135 -.051277 .000256 -.11979 325.02 -255.01)"/><use xlink:href="#C" transform="matrix(-.10295 -.066556 .017248 -.11854 321.68 -338.33)"/><use xlink:href="#C" transform="matrix(-.10237 -.070401 .018425 -.11775 322.43 -318.68)"/><use xlink:href="#C" transform="matrix(-.10295 -.066556 .017248 -.11854 322.81 -302.92)"/><use xlink:href="#C" transform="matrix(-.11132 -.055166 .001533 -.11918 328.55 -235.66)"/><use xlink:href="#C" transform="matrix(-.11225 -.049271 -.001894 -.11977 332.34 -224.34)"/><use xlink:href="#C" transform="matrix(-.11229 -.05316 -.000605 -.11918 336.21 -205.06)"/></g><use xlink:href="#C" transform="matrix(-.135745 .011674 -.070324 -.079822 655.7613 727.54545)"/><use xlink:href="#C" transform="matrix(-.133435 .014271 -.07187 -.079679 667.53558 736.741651)"/><use xlink:href="#C" transform="matrix(-.135745 .011674 -.070324 -.079822 682.423992 748.056391)"/><use xlink:href="#C" transform="matrix(-.135382 -.013694 -.039742 -.090121 525.41892 607.748859)"/><use xlink:href="#C" transform="matrix(-.134337 -.008849 -.04375 -.089661 533.462844 617.928951)"/><use xlink:href="#C" transform="matrix(-.135734 -.011766 -.042199 -.089542 544.23576 631.465378)"/><use xlink:href="#C" transform="matrix(-.134843 -.002701 -.051532 -.087479 551.465388 635.448548)"/><use xlink:href="#C" transform="matrix(-.132609 -.023962 -.026273 -.092652 495.972216 563.692786)"/><use xlink:href="#C" transform="matrix(-.131729 -.020943 -.027791 -.092914 502.431564 575.303486)"/><use xlink:href="#C" transform="matrix(-.132609 -.023962 -.026273 -.092652 510.761592 589.707959)"/><use xlink:href="#C" transform="matrix(-.132268 -.019083 -.030302 -.092502 518.849532 599.976125)"/><use xlink:href="#C" transform="matrix(-.136615 .003723 -.061146 -.083662 606.485388 687.912123)"/><use xlink:href="#C" transform="matrix(-.134601 .006446 -.062702 -.083607 617.19228 697.758961)"/><use xlink:href="#C" transform="matrix(-.136615 .003723 -.061146 -.083662 630.771216 709.906834)"/><use xlink:href="#C" transform="matrix(-.133435 .014271 -.07187 -.079679 640.861884 716.23071)"/><use xlink:href="#C" transform="matrix(-.136494 -.005548 -.049975 -.087439 563.404728 648.469226)"/><use xlink:href="#C" transform="matrix(-.134843 -.002701 -.051532 -.087479 572.780136 658.990506)"/><use xlink:href="#C" transform="matrix(-.136615 .003723 -.061146 -.083662 582.210564 665.917412)"/><use xlink:href="#C" transform="matrix(-.134601 .006446 -.062702 -.083607 592.906452 675.76425)"/><use xlink:href="#C" transform="matrix(-.123564 -.04218 -.000666 -.094565 434.778972 418.294415)"/><use xlink:href="#C" transform="matrix(-.127448 -.031865 -.012592 -.094612 434.63592 422.1665)"/><use xlink:href="#C" transform="matrix(-.127833 -.034938 -.011126 -.094231 440.57808 437.170828)"/><use xlink:href="#C" transform="matrix(-.127448 -.031865 -.012592 -.094612 445.122732 449.248083)"/><use xlink:href="#C" transform="matrix(-.12352 -.039095 -.002084 -.095033 423.059712 375.399967)"/><use xlink:href="#C" transform="matrix(-.123564 -.04218 -.000666 -.094565 427.329264 390.697876)"/><use xlink:href="#C" transform="matrix(-.12352 -.039095 -.002084 -.095033 430.50942 402.996506)"/><use xlink:href="#C" transform="matrix(-.131289 -.027489 -.021493 -.093295 468.902376 512.556669)"/><use xlink:href="#C" transform="matrix(-.130562 -.024448 -.022996 -.093589 474.756504 524.332568)"/><use xlink:href="#C" transform="matrix(-.131289 -.027489 -.021493 -.093295 482.349264 538.949529)"/><use xlink:href="#C" transform="matrix(-.131729 -.020943 -.027791 -.092914 487.642188 549.288313)"/><use xlink:href="#C" transform="matrix(-.127833 -.034938 -.011126 -.094231 451.064892 464.253998)"/><use xlink:href="#C" transform="matrix(-.130562 -.024448 -.022996 -.093589 447.884736 471.547483)"/><use xlink:href="#C" transform="matrix(-.131289 -.027489 -.021493 -.093295 455.466492 486.164603)"/><use xlink:href="#C" transform="matrix(-.130562 -.024448 -.022996 -.093589 461.32062 497.940343)"/><use xlink:href="#C" transform="matrix(-.112648 -.05586 .020275 -.09343 405.761424 300.35452)"/><use xlink:href="#C" transform="matrix(-.122497 -.043772 .001687 -.094565 404.495964 310.431462)"/><use xlink:href="#C" transform="matrix(-.12253 -.040686 .000282 -.095049 407.368008 322.769765)"/><use xlink:href="#C" transform="matrix(-.113286 -.05281 .01898 -.094057 403.692672 256.658678)"/><use xlink:href="#C" transform="matrix(-.112648 -.05586 .020275 -.09343 404.517972 272.250167)"/><use xlink:href="#C" transform="matrix(-.113286 -.05281 .01898 -.094057 404.936124 284.755097)"/><use xlink:href="#C" transform="matrix(-.122497 -.043772 .001687 -.094565 411.25242 338.123216)"/><use xlink:href="#C" transform="matrix(-.12352 -.039095 -.002084 -.095033 415.422936 347.105184)"/><use xlink:href="#C" transform="matrix(-.123564 -.04218 -.000666 -.094565 419.681484 362.403092)"/></g><use xlink:href="#B" transform="matrix(-1.8289 .028083 .0393 1.3069 905.86 835.94)" class="B C"/></g><g transform="matrix(1.1004 0 0 .79346 49.716 539.17)"><path d="M324.546-255.37l-50.1 50.1L449.82-29.875l50.1-50.1z" class="E"/><g class="D"><g class="B"><circle transform="matrix(-.70711 .70711 .70711 .70711 833.17 -197.75)" cy="-1428" cx="354.33" r="35.433" class="C"/><path d="M336.62-914.17v53.15h35.432l.001-53.15c0-17.717-35.433-17.717-35.433 0z" transform="matrix(-.70711 .70711 .70711 .70711 482.4 -548.52)" class="E"/><use xlink:href="#D" transform="matrix(-.70711 .70711 .70711 .70711 299.82 -731.1)" class="C"/><path d="m318.9-914.17v53.15h70.866v-53.15c-17.717-10.607-53.15-10.607-70.866 0z" transform="matrix(-.70711 .70711 .70711 .70711 519.99 -510.93)" class="E"/><use xlink:href="#D" transform="matrix(-.70711 .70711 .70711 .70711 337.4 -693.52)" class="C"/><path d="M318.9-949.6l.006 484.8h70.867l-.007-484.8c-17.717-10.607-53.15-10.607-70.866 0z" transform="matrix(-.70711 .70711 .70711 .70711 582.62 -448.3)" class="E"/><use xlink:href="#D" transform="matrix(-.70711 .70711 .70711 .70711 695.36 -335.54)" class="C"/><g class="E"><path d="M318.9-949.6v318.9h70.866v-318.9c-17.717-10.607-53.15-10.607-70.866 0z" transform="matrix(-.70711 .70711 .70711 .70711 945.92 -84.995)"/><g transform="matrix(-.70711 .70711 .70711 .70711 820.64 -210.27)"><use xlink:href="#E"/><use xlink:href="#F"/></g><path d="M336.6-506.7c0-35.433 0-86.653 17.717-129.98 17.716 43.326 17.716 94.546 17.716 129.98H336.6z" transform="matrix(-.70711 .70711 .57828 .57828 755.37 -275.55)"/><path d="M318.9-506.7h17.716v-43.326c0-43.327-35.433-65-35.433-65l17.717 108.32z" transform="matrix(.70711 -.70711 .57828 .57828 254.27 225.55)"/><path d="M318.9-506.7h17.716v-43.326c0-43.327-35.433-65-35.433-65l17.717 108.32z" transform="matrix(-.70711 .70711 .57828 .57828 755.37 -275.55)"/></g><use xlink:href="#G" transform="matrix(-.70711 .70711 .70711 .70711 582.62 -448.3)" class="C"/><g class="E"><path d="M354.33-382.68c17.716 88.582 17.716 159.45 17.716 177.16.03 33.655-17.716 53.15-17.716 53.15s-17.717-17.717-17.717-53.15c0-17.716 0-88.583 17.717-177.16zM318.897-506.7c0 124.02-35.433 230.32-35.433 318.9 0 70.866 51.654 73.453 70.118 72.16s72.3-1.19 71.614-72.16c0-88.583-35.433-194.88-35.433-318.9-17.717-17.716-53.15-17.716-70.866 0z" transform="matrix(-.70711 .70711 .70711 .70711 820.64 -210.27)"/><path transform="matrix(-1.2487 -1.4214 -1.3593 1.3175 1166.1 -102.64)" d="M218.28 257.88h22.934v73.043H218.28z"/></g></g><g transform="matrix(-1.1473 0 0 1.1219 157.31 -1288.5)" stroke-width="1.122" class="E"><path d="M425.2 396.85l35.434 35.434-35.434 35.432 17.716 17.718L478.34 450l70.866 70.866-35.434 35.434 17.718 17.716 35.432-35.432 35.434 35.432-106.3 106.3L425.2 609.45l35.434-35.434 17.716 17.718 17.716-17.718L425.2 503.15l-17.716 17.718 17.716 17.716-35.432 35.432-35.434-35.432 17.716-17.718-17.716-17.716-70.866 70.866 17.716 17.716 17.716-17.716 35.434 35.434-35.432 35.432-17.716-17.716-17.718 17.716 70.866 70.866 17.718-17.716-17.718-17.718 35.434-35.432 70.866 70.866-106.3 106.3-35.434-35.434 35.434-35.432-17.716-17.716-35.434 35.432-70.866-70.866 35.434-35.434-17.718-17.716-35.432 35.434-35.434-35.434 248.04-248.04z"/><path d="M318.9 786.6v35.433l88.582 88.583V839.76l-17.716-17.717h-35.433L318.9 786.6zm-88.6-87.842l70.38 70.38.838 35.2-71.22-71.22v-34.352z"/><path d="M301.18 804.33l35.433-35.433v-35.433l-35.433 35.433v35.433zm-88.583-88.583l35.433-35.433V644.88l-35.433 35.433v35.433z"/><path d="M248.03 644.88v35.433l17.717-17.717-17.717-17.716zm88.583 88.583v35.433l17.717-17.717-17.717-17.716zM176.8 644.88l35.786 35.433v35.433L176.8 679.232V644.88zm212.953-35.43l35.433-35.433v-35.433l-35.433 35.433v35.433zm-70.866 70.85l35.433-35.433v-35.433l-35.433 35.433V680.3zm-17.72-88.57l53.15-53.15v-35.433l-70.866 70.866 17.716 17.717z"/><path d="M354.33 503.15v35.433l17.717-17.717-17.717-17.716z"/><path d="M389.763 609.45l-35.433-35.433v-35.433l35.433 35.433v35.433zm88.58-17.72l-53.15-53.15v-35.433l70.866 70.866-17.716 17.717zM425.2 609.445l70.866 70.866H531.5l17.717 17.716v70.867l-124.02-124.37v-35.08zM354.33 822.05l106.3-106.3h35.433l-106.3 106.3H354.33z"/><path d="M407.48 839.76l106.3-106.3-17.72-17.7-106.3 106.3 17.72 17.7z"/><path d="M407.48 839.76v70.866l106.3-106.3V733.46l-106.3 106.3zm88.58-159.44l106.3-106.3h35.433l-106.3 106.3H496.06z"/><path d="M549.2 698.03l106.3-106.3-17.72-17.7-106.3 106.3 17.72 17.7z"/><path d="M549.2 698.03v70.866l106.3-106.3V591.73l-106.3 106.3zm-17.7-124l17.717-17.717V520.87l-35.433 35.433L531.5 574.02zm-88.58-88.58l17.717-17.717V432.3l-35.433 35.433 17.716 17.717zm-88.587 230.3v-35.433l17.717 17.716-17.717 17.717zm-35.436-35.45l-35.433-35.433 17.717-17.717 17.716 17.717V680.3zM425.2 538.58l-17.716-17.717 17.716-17.716v35.433z"/></g><path transform="matrix(-1.2509 -1.4194 -1.3614 1.3153 1166.1 -102.64)" d="M196.5 254.15h25.197v80.26H196.5z" class="B C"/><g class="E"><g class="F"><path d="M526.8 211.538c0 27.673-67.294 66.846-67.294-33.42H526.8v33.42z"/><path d="M706.304-55.85C985.6-55.85 921.16 254 896.926 178.115 879.15 122.458 829.632 44.425 773.6 26.77c-76.395-24.074-50.7 17.655-78.56 17.655S692.876 2.7 616.48 26.77C560.45 44.426 510.93 122.458 493.155 178.115 468.925 253.997 392.218-55.85 706.306-55.85zM425.868 211.538c0 147.594 120.592 267.374 269.174 267.374s269.174-119.785 269.174-267.374v-33.42C964.213 123.2 896.92 412.08 695.04 412.08S425.866 176.7 425.866 178.116v33.42z"/><path d="M863.3 213.668c0 27.673 67.294 66.846 67.294-33.42H863.3v33.42z"/><path d="M425.868 178.11c0 147.592 120.592 267.374 269.174 267.374S964.215 325.697 964.215 178.11 843.623-89.265 695.04-89.265c-148.588 0-269.174 119.785-269.174 267.374zm100.942 0c0 27.673-43.325 5.74-17.775 81.195 17.775 52.494 51.42 85.917 107.453 103.573 76.395 24.072 50.697-17.656 78.56-17.656s2.165 41.727 78.56 17.656c56.03-17.656 89.676-51.08 107.45-106.734 24.234-75.883-17.775-50.36-17.775-78.033s42.008-2.15 17.775-78.033c-17.775-55.656-51.42-89.08-107.45-106.734-76.395-24.074-50.7 17.655-78.56 17.655S692.882-30.73 616.49-6.66C560.457 10.997 526.8 44.418 509.036 100.076c-24.234 75.883 17.775 50.358 17.775 78.033z"/></g><path d="M896.9 178.108c33.648 0 3.206 119.023 15.13 91.037s18.52-58.75 18.52-91.037-6.596-63.05-18.52-91.037 18.52 91.037-15.13 91.037z" class="K"/><path d="M459.503 178.103c0 32.286 4.045 64.264 18.52 91.038 15.127 27.985-18.52-91.038 15.127-91.038-33.646 0-3.204-119.025-15.127-91.038s-18.52 58.752-18.52 91.038z" class="L"/><path d="M603.386 393.66c28.177 11.845 59.15 18.395 91.652 18.395s63.475-6.55 91.65-18.395-91.65 18.395-91.65-15.028c0 33.423-119.826 3.184-91.652 15.028zM695.04-22.426c0-33.42 119.824-3.184 91.65-15.028S727.543-55.85 695.04-55.85s-63.475 6.55-91.652 18.395S695.04-55.85 695.04-22.426z" class="F"/></g><g class="B C"><ellipse rx="18.433" ry="20.109" transform="matrix(-1.2929 -1.3819 -1.3912 1.2842 1257.6 -120.02)" cy="160.86" cx="82.112"/><use xlink:href="#H" transform="matrix(-1.2929 -1.3819 1.3912 -1.2842 808.89 712.05)"/><g transform="matrix(-1.2929 -1.3819 -1.3912 1.2842 1223.2 329.88)"><use xlink:href="#H"/><use xlink:href="#I"/></g><use xlink:href="#H" transform="matrix(-1.3912 1.2842 1.2929 1.3819 847.44 -345.21)"/><ellipse rx="18.433" ry="20.109" transform="matrix(-1.2929 -1.3819 -1.3912 1.2842 789.14 314.38)" cy="160.86" cx="82.112"/><use xlink:href="#J" transform="matrix(-1.3912 1.2842 1.2929 1.3819 850.63 -315.18)"/></g><path d="M835.753 410.054l1.592 28 6.152 8.476-1.854-28.462-5.9-8.014zm-297.415-11.64l-6.765 7.903-1.988 25.687 5.57-5.533 3.183-28.056z" class="F C"/><ellipse rx="18.433" ry="20.109" transform="matrix(-1.2929 -1.3819 -1.3912 1.2842 1237.6 329.88)" cy="160.86" cx="82.112" class="B C"/></g></g><g class="D"><g class="G H"><path d="M-48.318-237.237l-64.816-23.156-64.818 23.156S-43.743-190.92-43.743-28.804C-43.74 86.988-272.88 110.15-272.88 249.107c0 59.672 62.53 115.794 127.35 115.794s162.045-23.158 259.267-92.636C48.917 295.423-25.442 321.034-80.72 319.4c-35.832-.53-100.657-23.158-100.657-69.476 0-92.636 224.583-139.766 224.583-278.72 0-162.12-91.51-208.433-91.513-208.433z"/><path d="M-60.153-237.237l-85.397-23.16-18.293 23.16S-34.605-190.92-34.605-28.804c.002 115.792-230.29 138.955-230.29 277.91 0 59.672 48.868 114.2 119.345 115.794 134.276 3.09 165.475-31.328 259.267-92.636C34.784 314.498-78.36 333.38-122.3 316.95c-53.697-20.084-64.07-47.135-64.07-70.293 0-92.636 221.144-136.498 221.144-275.453 0-162.12-94.94-208.433-94.94-208.433z"/><path d="M-47.513-236.623c-12.812-3.186-65.626-23.773-130.444 22.545-32.4 23.164-32.408 69.476-32.408 92.636l-97.227-69.476s53.17-113.556 196.87-70.055c20.355 6.407 51.475 19.004 63.2 24.35z"/><path d="M-66.647-244.793c-16.17-3.75-67.09-8.268-118.165 24.185-32.4 23.164-34.695 56.122-34.695 79.282l-74.36-49.586c-6.293-4.196 45.425-106.213 181.542-70.633 8.228 2.362 27.035 8.238 45.68 16.753z"/></g><g class="B C"><use xlink:href="#B" transform="matrix(-1.4889 -.13557 -.50826 1.1368 170.93 813.81)"/><use xlink:href="#B" transform="matrix(1.3548 .15838 .023613 -.8707 -735.63 -774.35)"/></g></g><g transform="matrix(1.1004 0 0 .79346 49.716 539.17)"><g transform="matrix(.70711 .70711 -.70711 .70711 -216.75 -485.87)"><g class="B D"><circle cy="-1144.54" cx="478.34" r="35.433" class="E"/><path d="M460.63-1126.77v53.15h35.432l.001-53.15c0-17.717-35.433-17.717-35.433 0z" class="C"/><use xlink:href="#D" x="124" y="-470.82" class="E"/><path d="M442.9-1073.62v53.15h70.866v-53.15c-17.717-10.607-53.15-10.607-70.866 0z" class="C"/><use xlink:href="#D" x="124" y="-417.66" class="E"/></g><g class="C"><path fill-opacity="1" d="M442.9-116.93h70.866V131.1H442.9z"/><path d="M442.9-1020.476l.006 484.8h70.867l-.007-484.8c-17.717-10.607-53.15-10.607-70.866 0z" class="B D"/></g><use xlink:href="#D" x="124.02" y="88.582" class="B D E"/><g class="C D"><path d="M442.92-506.7v318.9h70.866v-318.9c-17.717-10.607-53.15-10.607-70.866 0z" class="B"/><use xlink:href="#E" x="124.02" y="265.75" class="B"/><use xlink:href="#F" x="124.02" y="265.75" class="B"/><g stroke-width="1.093"><path d="M460.62-240.94c0-28.978 0-70.867 17.717-106.3 17.716 35.433 17.716 77.322 17.716 106.3H460.62z"/><path d="M513.77-240.94h-17.716v-35.433c0-35.434 35.433-53.15 35.433-53.15l-17.717 88.586zm-70.87 0h17.716v-35.433c0-35.434-35.433-53.15-35.433-53.15l17.717 88.586z"/></g><path d="M478.34-116.93c17.716 88.582 17.716 159.45 17.716 177.16.03 33.655-17.716 53.15-17.716 53.15s-17.717-17.717-17.717-53.15c0-17.716 0-88.583 17.717-177.16zm-35.433-124.02c0 124.02-35.433 230.32-35.433 318.9 0 70.866 51.654 73.453 70.118 72.16s72.3-1.19 71.614-72.16c0-88.583-35.433-194.88-35.433-318.9-17.717-17.716-53.15-17.716-70.866 0z" class="B"/></g><use xlink:href="#G" x="124" y="-70.876" class="B D E"/></g><g class="D"><g class="C"><path transform="matrix(1.2487 -1.4214 1.3593 1.3175 -662.45 -102.64)" d="M218.28 257.88h22.934v73.043H218.28z" class="B"/><g class="F"><path d="M-23.16 211.538c0 27.673 67.294 66.846 67.294-33.42H-23.16v33.42z"/><path d="M-202.654-55.85C-481.95-55.85-417.5 254-393.276 178.115-375.5 122.458-325.982 44.425-269.95 26.77c76.395-24.074 50.7 17.655 78.56 17.655s2.165-41.727 78.56-17.655C-56.803 44.426-7.283 122.457 10.492 178.115 34.725 253.997 111.432-55.85-202.656-55.85zM77.782 211.538c0 147.594-120.592 267.374-269.174 267.374s-269.174-119.785-269.174-267.374v-33.42c.002-54.927 67.294 233.964 269.174 233.964S77.782 176.702 77.782 178.116v33.42z"/></g></g><g class="B E"><ellipse rx="18.433" ry="20.109" transform="matrix(1.2929 -1.3819 1.3912 1.2842 -753.9 -120.02)" cy="160.86" cx="82.112"/><path transform="matrix(1.2509 -1.4194 1.3614 1.3153 -662.45 -102.64)" d="M196.5 254.15h25.197v80.26H196.5z"/></g><g class="C"><g class="F"><path d="M-359.62 213.668c0 27.673-67.294 66.846-67.294-33.42h67.294v33.42z"/><path d="M77.782 178.11c0 147.592-120.592 267.374-269.174 267.374S-460.565 325.697-460.565 178.11-339.973-89.265-191.39-89.265c148.588 0 269.174 119.785 269.174 267.374zm-100.942 0c0 27.673 43.325 5.74 17.775 81.195-17.775 52.494-51.42 85.917-107.453 103.573-76.395 24.072-50.697-17.656-78.56-17.656s-2.165 41.727-78.56 17.656c-56.03-17.656-89.676-51.08-107.45-106.734-24.234-75.883 17.775-50.36 17.775-78.033s-42.008-2.15-17.775-78.033c17.775-55.656 51.42-89.08 107.45-106.734 76.395-24.074 50.7 17.655 78.56 17.655s2.165-41.727 78.56-17.655C-56.807 10.997-23.16 44.418-5.386 100.076c24.234 75.883-17.775 50.358-17.775 78.033z"/></g><path d="M-393.27 178.108c-33.648 0-3.206 119.023-15.13 91.037s-18.52-58.75-18.52-91.037 6.596-63.05 18.52-91.037-18.52 91.037 15.13 91.037z" class="K"/><path d="M44.147 178.103c0 32.286-4.045 64.264-18.52 91.038-15.127 27.985 18.52-91.038-15.127-91.038 33.646 0 3.204-119.025 15.127-91.038s18.52 58.752 18.52 91.038z" class="L"/><path d="M-99.736 393.66c-28.177 11.845-59.15 18.395-91.652 18.395s-63.475-6.55-91.65-18.395 91.65 18.395 91.65-15.028c0 33.423 119.826 3.184 91.652 15.028zM-191.4-22.426c0-33.42-119.824-3.184-91.65-15.028s59.147-18.395 91.65-18.395 63.475 6.55 91.652 18.395S-191.4-55.85-191.4-22.426z" class="F"/></g><g class="B E"><use xlink:href="#H" transform="matrix(1.2929 -1.3819 -1.3912 -1.2842 -305.22 712.05)"/><g transform="matrix(1.2929 -1.3819 1.3912 1.2842 -719.56 329.88)"><use xlink:href="#H"/><use xlink:href="#I"/></g><use xlink:href="#H" transform="matrix(1.3912 1.2842 -1.2929 1.3819 -343.78 -345.21)"/><ellipse rx="18.433" ry="20.109" transform="matrix(1.2929 -1.3819 1.3912 1.2842 -285.47 314.38)" cy="160.86" cx="82.112"/><use xlink:href="#J" transform="matrix(1.3912 1.2842 -1.2929 1.3819 -346.96 -315.18)"/></g><path d="M-332.103 410.054l-1.592 28-6.152 8.476 1.854-28.462 5.9-8.014zm297.415-11.64l6.765 7.903 1.988 25.687-5.57-5.533-3.183-28.056z" class="F E"/><ellipse rx="18.433" ry="20.109" transform="matrix(1.2929 -1.3819 1.3912 1.2842 -733.89 329.88)" cy="160.86" cx="82.112" class="B E"/><g stroke-width="1.273" class="C"><path d="M834.18-843.274l40.653 39.753-40.653 39.75 20.326 19.878 40.653-39.753 81.305 79.505-40.653 39.753 20.328 19.876 40.65-39.75 40.653 39.75-121.958 119.258-81.305-79.505 40.653-39.753 20.326 19.878 20.326-19.878-81.305-79.505-20.326 19.878 20.326 19.876-40.65 39.75-40.653-39.75L773.2-704.14l-20.326-19.876-81.305 79.505 20.326 19.876 20.326-19.876 40.653 39.753-40.65 39.75-20.326-19.876-20.328 19.876 81.305 79.505 20.328-19.876-20.328-19.878 40.653-39.75 81.305 79.505-121.958 119.258-40.653-39.753 40.653-39.75-20.326-19.876-40.653 39.75-81.305-79.505 40.653-39.753-20.328-19.876-40.65 39.753-40.653-39.753L834.2-843.283z"/><path d="M712.234-406.002v39.752l101.63 99.38v-79.505L793.54-366.25h-40.652l-40.652-39.752zm-101.638-98.56l80.748 78.96.96 39.48-81.7-79.9v-38.54z"/><path d="M691.904-386.122l40.652-39.752v-39.752l-40.652 39.752v39.752zm-101.63-99.38l40.652-39.752v-39.752l-40.652 39.752v39.752z"/><path d="M630.925-565v39.752l20.327-19.877-20.327-19.876zm101.63 99.382v39.752l20.327-19.877-20.327-19.876zM549.213-565l41.057 39.752v39.752l-41.057-40.965v-38.54zm244.322-39.748l40.652-39.752v-39.752L793.535-644.5v39.752zM712.23-525.26l40.652-39.752v-39.752l-40.652 39.752v39.752zm-20.33-99.378l60.98-59.63v-39.752l-81.305 79.505 20.326 19.877z"/><path d="M752.883-724.016v39.752L773.2-704.14l-20.327-19.876zm40.652 119.258L752.883-644.5v-39.752l40.652 39.752v39.752zm101.628-19.88l-60.98-59.63v-39.752l81.305 79.505-20.326 19.877zm-60.983 19.874l81.305 79.505h40.652l20.327 19.876v79.506L834.176-565.4v-39.356zm-81.297 238.522L874.84-485.5h40.652L793.535-366.242h-40.652z"/><path d="M813.862-346.373L935.82-465.63 915.5-485.5 793.532-366.242l20.33 19.87z"/><path d="M813.862-346.373v79.505l121.958-119.26v-79.505l-121.958 119.26zM915.5-525.25l121.958-119.258h40.652L956.142-525.25H915.5z"/><path d="M976.47-505.38l121.958-119.258-20.33-19.87L956.138-525.25l20.33 19.87z"/><path d="M976.47-505.38v79.505l121.958-119.258v-79.505L976.47-505.38zm-20.32-139.127l20.327-19.877v-39.752l-40.652 39.752 20.326 19.877zm-101.628-99.378l20.327-19.877v-39.752l-40.652 39.752 20.326 19.877zM752.886-485.5v-39.752l20.327 19.876-20.327 19.877zm-40.656-39.76l-40.652-39.752 20.327-19.877 20.326 19.877v39.752zm121.962-159.007l-20.326-19.877 20.326-19.876v39.752z"/></g></g></g><g fill="#b00" class="D"><g transform="matrix(.55827 .003482 -.009518 .79343 165.13 552.4)" class="J"><use xlink:href="#C" transform="matrix(.19723 .07364 -.043724 .1171 178.81 -149.96)"/><use xlink:href="#C" transform="matrix(.19861 .069815 -.041453 .11793 179.05 -165.72)"/><use xlink:href="#C" transform="matrix(.19723 .07364 -.043724 .1171 178.81 -185.39)"/><use xlink:href="#C" transform="matrix(.19861 .069815 -.041453 .11793 179.05 -201.16)"/><use xlink:href="#C" transform="matrix(.19723 .07364 -.043724 .1171 178.81 -79.091)"/><use xlink:href="#C" transform="matrix(.19861 .069815 -.041453 .11793 179.05 -94.856)"/><use xlink:href="#C" transform="matrix(.19723 .07364 -.043724 .1171 178.81 -114.52)"/><use xlink:href="#C" transform="matrix(.19861 .069815 -.041453 .11793 179.05 -130.29)"/><use xlink:href="#C" transform="matrix(.19723 .07364 -.043724 .1171 178.81 -291.69)"/><use xlink:href="#C" transform="matrix(.19861 .069815 -.041453 .11793 179.05 -307.45)"/><use xlink:href="#C" transform="matrix(.19723 .07364 -.043724 .1171 178.81 -327.12)"/><use xlink:href="#C" transform="matrix(.19861 .069815 -.041453 .11793 179.05 -342.89)"/><use xlink:href="#C" transform="matrix(.19723 .07364 -.043724 .1171 178.81 -220.82)"/><use xlink:href="#C" transform="matrix(.19861 .069815 -.041453 .11793 179.05 -236.59)"/><use xlink:href="#C" transform="matrix(.19723 .07364 -.043724 .1171 178.81 -256.26)"/><use xlink:href="#C" transform="matrix(.19861 .069815 -.041453 .11793 179.05 -272.02)"/><use xlink:href="#C" transform="matrix(.19723 .07364 -.043724 .1171 178.81 133.51)"/><use xlink:href="#C" transform="matrix(.19861 .069815 -.041453 .11793 179.05 117.74)"/><use xlink:href="#C" transform="matrix(.19723 .07364 -.043724 .1171 178.81 98.074)"/><use xlink:href="#C" transform="matrix(.19861 .069815 -.041453 .11793 179.05 82.309)"/><use xlink:href="#C" transform="matrix(.19723 .07364 -.043724 .1171 178.81 204.37)"/><use xlink:href="#C" transform="matrix(.19861 .069815 -.041453 .11793 179.05 188.61)"/><use xlink:href="#C" transform="matrix(.19723 .07364 -.043724 .1171 178.81 168.94)"/><use xlink:href="#C" transform="matrix(.19861 .069815 -.041453 .11793 179.05 153.18)"/><use xlink:href="#C" transform="matrix(.19723 .07364 -.043724 .1171 178.81 -8.2248)"/><use xlink:href="#C" transform="matrix(.19861 .069815 -.041453 .11793 179.05 -23.99)"/><use xlink:href="#C" transform="matrix(.19723 .07364 -.043724 .1171 178.81 -43.658)"/><use xlink:href="#C" transform="matrix(.19861 .069815 -.041453 .11793 179.05 -59.423)"/><use xlink:href="#C" transform="matrix(.19723 .07364 -.043724 .1171 178.81 62.641)"/><use xlink:href="#C" transform="matrix(.19861 .069815 -.041453 .11793 179.05 46.876)"/><use xlink:href="#C" transform="matrix(.19723 .07364 -.043724 .1171 178.81 27.208)"/><use xlink:href="#C" transform="matrix(.19861 .069815 -.041453 .11793 179.05 11.443)"/><use xlink:href="#C" transform="matrix(.19723 .07364 -.043724 .1171 178.81 416.97)"/><use xlink:href="#C" transform="matrix(.19861 .069815 -.041453 .11793 179.05 401.21)"/><use xlink:href="#C" transform="matrix(.19723 .07364 -.043724 .1171 178.81 381.54)"/><use xlink:href="#C" transform="matrix(.19861 .069815 -.041453 .11793 179.05 365.77)"/><use xlink:href="#C" transform="matrix(.19861 .069815 -.041453 .11793 179.05 472.07)"/><use xlink:href="#C" transform="matrix(.19723 .07364 -.043724 .1171 178.81 452.4)"/><use xlink:href="#C" transform="matrix(.19861 .069815 -.041453 .11793 179.05 436.64)"/><use xlink:href="#C" transform="matrix(.19723 .07364 -.043724 .1171 178.81 275.24)"/><use xlink:href="#C" transform="matrix(.19861 .069815 -.041453 .11793 179.05 259.47)"/><use xlink:href="#C" transform="matrix(.19723 .07364 -.043724 .1171 178.81 239.81)"/><use xlink:href="#C" transform="matrix(.19861 .069815 -.041453 .11793 179.05 224.04)"/><use xlink:href="#C" transform="matrix(.19723 .07364 -.043724 .1171 178.81 346.11)"/><use xlink:href="#C" transform="matrix(.19861 .069815 -.041453 .11793 179.05 330.34)"/><use xlink:href="#C" transform="matrix(.19723 .07364 -.043724 .1171 178.81 310.67)"/><use xlink:href="#C" transform="matrix(.19861 .069815 -.041453 .11793 179.05 294.91)"/><use xlink:href="#C" transform="matrix(.19723 .07364 -.043724 .1171 178.81 595.04)"/><use xlink:href="#C" transform="matrix(.19861 .069815 -.041453 .11793 179.05 579.27)"/><use xlink:href="#C" transform="matrix(.19723 .07364 -.043724 .1171 178.81 559.61)"/><use xlink:href="#C" transform="matrix(.19861 .069815 -.041453 .11793 179.05 543.84)"/><use xlink:href="#C" transform="matrix(.19861 .069815 -.041453 .11793 179.05 650.14)"/><use xlink:href="#C" transform="matrix(.19723 .07364 -.043724 .1171 178.81 630.47)"/><use xlink:href="#C" transform="matrix(.19861 .069815 -.041453 .11793 179.05 614.71)"/><use xlink:href="#C" transform="matrix(.19723 .07364 -.043724 .1171 178.81 524.17)"/><use xlink:href="#C" transform="matrix(.19861 .069815 -.041453 .11793 179.05 508.41)"/><use xlink:href="#C" transform="matrix(.19723 .07364 -.043724 .1171 178.81 488.74)"/></g><g transform="matrix(.55828 -.001061 .002899 .79346 189.38 555.05)" class="J"><use xlink:href="#C" transform="matrix(.19723 .07364 -.043724 .1171 178.81 -149.96)"/><use xlink:href="#C" transform="matrix(.19861 .069815 -.041453 .11793 179.05 -165.72)"/><use xlink:href="#C" transform="matrix(.19723 .07364 -.043724 .1171 178.81 -185.39)"/><use xlink:href="#C" transform="matrix(.19861 .069815 -.041453 .11793 179.05 -201.16)"/><use xlink:href="#C" transform="matrix(.19723 .07364 -.043724 .1171 178.81 -79.091)"/><use xlink:href="#C" transform="matrix(.19861 .069815 -.041453 .11793 179.05 -94.856)"/><use xlink:href="#C" transform="matrix(.19723 .07364 -.043724 .1171 178.81 -114.52)"/><use xlink:href="#C" transform="matrix(.19861 .069815 -.041453 .11793 179.05 -130.29)"/><use xlink:href="#C" transform="matrix(.19723 .07364 -.043724 .1171 178.81 -291.69)"/><use xlink:href="#C" transform="matrix(.19861 .069815 -.041453 .11793 179.05 -307.45)"/><use xlink:href="#C" transform="matrix(.19723 .07364 -.043724 .1171 178.81 -327.12)"/><use xlink:href="#C" transform="matrix(.19861 .069815 -.041453 .11793 179.05 -342.89)"/><use xlink:href="#C" transform="matrix(.19723 .07364 -.043724 .1171 178.81 -220.82)"/><use xlink:href="#C" transform="matrix(.19861 .069815 -.041453 .11793 179.05 -236.59)"/><use xlink:href="#C" transform="matrix(.19723 .07364 -.043724 .1171 178.81 -256.26)"/><use xlink:href="#C" transform="matrix(.19861 .069815 -.041453 .11793 179.05 -272.02)"/><use xlink:href="#C" transform="matrix(.19723 .07364 -.043724 .1171 178.81 133.51)"/><use xlink:href="#C" transform="matrix(.19861 .069815 -.041453 .11793 179.05 117.74)"/><use xlink:href="#C" transform="matrix(.19723 .07364 -.043724 .1171 178.81 98.074)"/><use xlink:href="#C" transform="matrix(.19861 .069815 -.041453 .11793 179.05 82.309)"/><use xlink:href="#C" transform="matrix(.19723 .07364 -.043724 .1171 178.81 204.37)"/><use xlink:href="#C" transform="matrix(.19861 .069815 -.041453 .11793 179.05 188.61)"/><use xlink:href="#C" transform="matrix(.19723 .07364 -.043724 .1171 178.81 168.94)"/><use xlink:href="#C" transform="matrix(.19861 .069815 -.041453 .11793 179.05 153.18)"/><use xlink:href="#C" transform="matrix(.19723 .07364 -.043724 .1171 178.81 -8.2248)"/><use xlink:href="#C" transform="matrix(.19861 .069815 -.041453 .11793 179.05 -23.99)"/><use xlink:href="#C" transform="matrix(.19723 .07364 -.043724 .1171 178.81 -43.658)"/><use xlink:href="#C" transform="matrix(.19861 .069815 -.041453 .11793 179.05 -59.423)"/><use xlink:href="#C" transform="matrix(.19723 .07364 -.043724 .1171 178.81 62.641)"/><use xlink:href="#C" transform="matrix(.19861 .069815 -.041453 .11793 179.05 46.876)"/><use xlink:href="#C" transform="matrix(.19723 .07364 -.043724 .1171 178.81 27.208)"/><use xlink:href="#C" transform="matrix(.19861 .069815 -.041453 .11793 179.05 11.443)"/><use xlink:href="#C" transform="matrix(.19723 .07364 -.043724 .1171 178.81 416.97)"/><use xlink:href="#C" transform="matrix(.19861 .069815 -.041453 .11793 179.05 401.21)"/><use xlink:href="#C" transform="matrix(.19723 .07364 -.043724 .1171 178.81 381.54)"/><use xlink:href="#C" transform="matrix(.19861 .069815 -.041453 .11793 179.05 365.77)"/><use xlink:href="#C" transform="matrix(.19861 .069815 -.041453 .11793 179.05 472.07)"/><use xlink:href="#C" transform="matrix(.19723 .07364 -.043724 .1171 178.81 452.4)"/><use xlink:href="#C" transform="matrix(.19861 .069815 -.041453 .11793 179.05 436.64)"/><use xlink:href="#C" transform="matrix(.19723 .07364 -.043724 .1171 178.81 275.24)"/><use xlink:href="#C" transform="matrix(.19861 .069815 -.041453 .11793 179.05 259.47)"/><use xlink:href="#C" transform="matrix(.19723 .07364 -.043724 .1171 178.81 239.81)"/><use xlink:href="#C" transform="matrix(.19861 .069815 -.041453 .11793 179.05 224.04)"/><use xlink:href="#C" transform="matrix(.19723 .07364 -.043724 .1171 178.81 346.11)"/><use xlink:href="#C" transform="matrix(.19861 .069815 -.041453 .11793 179.05 330.34)"/><use xlink:href="#C" transform="matrix(.19723 .07364 -.043724 .1171 178.81 310.67)"/><use xlink:href="#C" transform="matrix(.19861 .069815 -.041453 .11793 179.05 294.91)"/><use xlink:href="#C" transform="matrix(.19723 .07364 -.043724 .1171 178.81 595.04)"/><use xlink:href="#C" transform="matrix(.19861 .069815 -.041453 .11793 179.05 579.27)"/><use xlink:href="#C" transform="matrix(.19723 .07364 -.043724 .1171 178.81 559.61)"/><use xlink:href="#C" transform="matrix(.19861 .069815 -.041453 .11793 179.05 543.84)"/><use xlink:href="#C" transform="matrix(.19861 .069815 -.041453 .11793 179.05 650.14)"/><use xlink:href="#C" transform="matrix(.19723 .07364 -.043724 .1171 178.81 630.47)"/><use xlink:href="#C" transform="matrix(.19861 .069815 -.041453 .11793 179.05 614.71)"/><use xlink:href="#C" transform="matrix(.19723 .07364 -.043724 .1171 178.81 524.17)"/><use xlink:href="#C" transform="matrix(.19861 .069815 -.041453 .11793 179.05 508.41)"/><use xlink:href="#C" transform="matrix(.19723 .07364 -.043724 .1171 178.81 488.74)"/></g><g class="I"><use xlink:href="#C" transform="matrix(.137519 .029552 .019676 .093604 377.741682 349.748465)"/><use xlink:href="#C" transform="matrix(.038276 .095041 -.104335 .062071 350.184557 325.15914)"/><use xlink:href="#C" transform="matrix(.1003 .070804 -.047946 .088701 360.534433 340.115861)"/><use xlink:href="#C" transform="matrix(-.08377 .080227 -.136231 -.016266 347.469455 301.807612)"/><use xlink:href="#C" transform="matrix(-.07932 .080742 -.137171 -.015342 365.767386 301.720331)"/><use xlink:href="#C" transform="matrix(-.08806 .078048 -.135256 -.019707 267.431961 301.260125)"/><use xlink:href="#C" transform="matrix(-.083641 .078675 -.136242 -.018808 285.718289 301.640985)"/><use xlink:href="#C" transform="matrix(-.08806 .078048 -.135256 -.019707 308.54139 301.894893)"/><use xlink:href="#C" transform="matrix(-.07932 .080742 -.137171 -.015342 324.657957 302.124996)"/><use xlink:href="#C" transform="matrix(-.08806 .078048 -.135256 -.019707 241.023533 295.30124)"/><use xlink:href="#C" transform="matrix(-.096655 .071361 -.132031 -.02969 253.763627 297.673685)"/><use xlink:href="#C" transform="matrix(-.127714 .045724 -.110819 -.056571 246.46534 287.533267)"/><use xlink:href="#C" transform="matrix(-.111008 -.057532 -.11508 .045371 638.529036 939.359486)"/><use xlink:href="#C" transform="matrix(-.107246 -.058999 -.116323 .044701 654.99102 935.415989)"/><use xlink:href="#C" transform="matrix(-.111008 -.057532 -.11508 .045371 675.62352 930.702837)"/><use xlink:href="#C" transform="matrix(-.107246 -.058999 -.116323 .044701 692.085504 926.751406)"/><use xlink:href="#C" transform="matrix(-.132389 .018666 -.030863 .092406 814.317936 880.94496)"/><use xlink:href="#C" transform="matrix(-.087403 .0758 .054668 .085963 830.218716 841.470325)"/><use xlink:href="#C" transform="matrix(-.133368 .021669 -.029338 .092176 823.121136 866.686484)"/><use xlink:href="#C" transform="matrix(-.103717 -.064223 -.120076 .038045 561.357984 952.578529)"/><use xlink:href="#C" transform="matrix(-.09979 -.065449 -.121242 .0373 578.227116 949.674466)"/><use xlink:href="#C" transform="matrix(-.113803 -.054626 -.112747 .048316 604.669728 945.778577)"/><use xlink:href="#C" transform="matrix(-.095542 -.068665 -.123476 .033271 611.261124 941.343136)"/><use xlink:href="#C" transform="matrix(-.111008 -.057532 -.11508 .045371 712.718004 922.038254)"/><use xlink:href="#C" transform="matrix(-.107246 -.058999 -.116323 .044701 729.179988 918.094758)"/><use xlink:href="#C" transform="matrix(-.083541 -.07803 -.128263 .019732 317.124204 964.46456)"/><use xlink:href="#C" transform="matrix(-.079352 -.078659 -.129198 .018833 334.455504 964.075765)"/><use xlink:href="#C" transform="matrix(-.083541 -.07803 -.128263 .019732 356.100372 963.813923)"/><use xlink:href="#C" transform="matrix(-.079352 -.078659 -.129198 .018833 373.442676 963.433062)"/><use xlink:href="#C" transform="matrix(-.083541 -.07803 -.128263 .019732 239.160864 965.7579)"/><use xlink:href="#C" transform="matrix(-.079352 -.078659 -.129198 .018833 256.503168 965.369104)"/><use xlink:href="#C" transform="matrix(-.083541 -.07803 -.128263 .019732 278.137032 965.107263)"/><use xlink:href="#C" transform="matrix(-.079352 -.078659 -.129198 .018833 295.479336 964.726402)"/><use xlink:href="#C" transform="matrix(-.094839 -.071 -.124521 .029695 478.70694 961.385935)"/><use xlink:href="#C" transform="matrix(-.093853 -.069866 -.124268 .0317 498.029964 959.695865)"/><use xlink:href="#C" transform="matrix(-.097879 -.068821 -.123168 .032495 519.399732 957.244074)"/><use xlink:href="#C" transform="matrix(-.09979 -.065449 -.121242 .0373 540.241308 955.998342)"/><use xlink:href="#C" transform="matrix(-.083541 -.07803 -.128263 .019732 395.07654 963.17122)"/><use xlink:href="#C" transform="matrix(-.086171 -.074835 -.127261 .024757 415.3239 963.076005)"/><use xlink:href="#C" transform="matrix(-.095331 -.070657 -.124312 .030144 439.521696 962.568191)"/><use xlink:href="#C" transform="matrix(-.084407 -.075873 -.127822 .023204 453.331716 960.171941)"/><use xlink:href="#C" transform="matrix(-.062787 -.087566 -.131091 .002831 -3.24075 951.999303)"/><use xlink:href="#C" transform="matrix(-.058509 -.087646 -.131784 .001825 13.913386 953.863934)"/><use xlink:href="#C" transform="matrix(-.074905 -.082464 -.130001 .012507 40.0053 958.743713)"/><use xlink:href="#C" transform="matrix(-.070661 -.082853 -.130838 .011558 57.334729 959.330874)"/><use xlink:href="#C" transform="matrix(-.058509 -.087646 -.131784 .001825 -63.108012 945.056528)"/><use xlink:href="#C" transform="matrix(-.062787 -.087566 -.131091 .002831 -41.750348 947.5956)"/><use xlink:href="#C" transform="matrix(-.058509 -.087646 -.131784 .001825 -24.595112 949.460231)"/><use xlink:href="#C" transform="matrix(-.074905 -.082464 -.130001 .012507 156.802526 963.345781)"/><use xlink:href="#C" transform="matrix(-.070661 -.082853 -.130838 .011558 174.127224 963.932942)"/><use xlink:href="#C" transform="matrix(-.083541 -.07803 -.128263 .019732 200.184696 966.400602)"/><use xlink:href="#C" transform="matrix(-.079352 -.078659 -.129198 .018833 217.515996 966.019742)"/><use xlink:href="#C" transform="matrix(-.074905 -.082464 -.130001 .012507 78.938222 960.275091)"/><use xlink:href="#C" transform="matrix(-.070661 -.082853 -.130838 .011558 96.267322 960.862252)"/><use xlink:href="#C" transform="matrix(-.074905 -.082464 -.130001 .012507 117.870374 961.806469)"/><use xlink:href="#C" transform="matrix(-.070661 -.082853 -.130838 .011558 135.199474 962.393629)"/><use xlink:href="#C" transform="matrix(.135162 -.014817 .038302 -.090447 -131.497872 823.466718)"/><use xlink:href="#C" transform="matrix(.10748 -.058777 -.028693 -.092771 -152.460492 850.023824)"/><use xlink:href="#C" transform="matrix(.072197 -.08371 -.070466 -.079759 -153.648924 877.001464)"/><use xlink:href="#C" transform="matrix(.028675 -.095049 -.10544 -.057039 -148.157928 899.773766)"/><use xlink:href="#C" transform="matrix(.134623 .006191 .062397 -.083726 -89.077452 786.166163)"/><use xlink:href="#C" transform="matrix(.136626 .003464 .060841 -.083781 -102.623376 798.345774)"/><use xlink:href="#C" transform="matrix(.133886 -.01187 .039845 -.090597 -121.319172 809.700187)"/><use xlink:href="#C" transform="matrix(-.007621 -.098421 -.121231 -.036082 -132.499236 921.125775)"/><use xlink:href="#C" transform="matrix(-.033381 -.094247 -.129693 -.016959 -109.985052 933.559293)"/><use xlink:href="#C" transform="matrix(-.062787 -.087566 -.131091 .002831 -81.242604 943.080813)"/><use xlink:href="#C" transform="matrix(-.132686 -.023728 -.083518 .072917 759.077856 909.549193)"/><use xlink:href="#C" transform="matrix(-.127977 -.030764 -.089969 .069464 760.167252 912.413584)"/><use xlink:href="#C" transform="matrix(-.134447 -.017884 -.077234 .076435 797.184708 894.290958)"/><use xlink:href="#C" transform="matrix(-.127041 -.032711 -.091989 .068075 773.691168 904.471049)"/><use xlink:href="#C" transform="matrix(.124532 -.040668 .100454 .060802 719.540484 839.423199)"/><use xlink:href="#C" transform="matrix(.121242 -.042639 .101863 .060323 704.476008 833.226276)"/><use xlink:href="#C" transform="matrix(.128527 -.033588 .09362 .066232 680.652348 825.244068)"/><use xlink:href="#C" transform="matrix(.121242 -.042639 .101863 .060323 772.491732 860.7276)"/><use xlink:href="#C" transform="matrix(.124532 -.040668 .100454 .060802 753.553848 853.181795)"/><use xlink:href="#C" transform="matrix(.121242 -.042639 .101863 .060323 738.478368 846.976938)"/></g></g><g transform="matrix(.61379 0 0 .62766 162.46 491.89)"><g class="D"><g class="B C"><path d="M212.603-1994.912v53.15h-53.15v35.44h53.15v106.3h35.433v-106.3h53.15v-35.44h-53.15v-53.15h-35.433z"/><ellipse rx="62.008" ry="57.32" transform="matrix(.57143 0 0 .61816 93.645 -678.94)" cy="-1813.5" cx="239.17"/></g><path d="M631.29-1135.604c0 91.682-11.017 195.124-30.937 274.604-126.997-35.434-283.5-53.15-358.57-53.15-92.63 0-260.328 17.716-365.147 35.434-19.92-79.475-32.297-165.202-32.297-256.884 0-366.74 111.334-522.647 388.668-664.383 246.738 141.735 398.292 297.64 398.292 664.383z" stroke-width="1.444" class="G"/><g class="C"><path d="M631.325-1124.32c0-32.77-176.662-59.365-394.34-59.365s-394.34 26.596-394.34 59.365v19.8c0-32.77 176.662-52.77 394.34-52.77s394.34 33.193 394.34 65.962v-32.98zM237-1381.568l-62.318 39.577 41.545 26.384-20.772 13.193-41.545-26.384-62.318 39.576 62.318 39.577 41.545-26.384 20.772 13.192v39.577h41.545v-39.577l20.773-13.192 41.545 26.384 62.318-39.577-62.318-39.576-41.545 26.384-20.773-13.193 41.546-26.384L237-1381.568z" stroke-width="1.175"/><g class="B"><use xlink:href="#K" transform="matrix(1.135156 -.186433 .293559 .720914 -190.0343 -703.6494)"/><use xlink:href="#K" transform="matrix(1.141593 .169858 -.267459 .725002 182.199275 -778.387913)"/><use xlink:href="#L" transform="matrix(.92597 -.095089 .187166 .735084 28.798755 -521.90011)"/><use xlink:href="#L" transform="matrix(.92699 .090994 -.179088 .735895 124.840575 -554.075572)"/></g><path d="M631.665-1163.9c0-32.77-176.813-59.365-394.675-59.365s-394.675 26.596-394.675 59.365v19.79c0-32.77 176.813-52.77 394.675-52.77s394.675 33.193 394.675 65.962v-32.98z" stroke-width="1.176"/><path d="M599.346-876.3c0-32.77-161.884-59.365-361.35-59.365s-361.35 26.596-361.35 59.365v19.79c0-32.77 161.884-52.77 361.35-52.77s361.35 33.193 361.35 65.962v-32.98z" stroke-width="1.106"/><path d="M241.427-1133.538l-58.688 39.577 39.125 26.384-19.562 13.193-39.125-26.384-58.688 39.576 58.688 39.577L202.302-1028l19.562 13.192v39.577h39.125v-39.577L280.552-1028l39.125 26.384 58.688-39.577-58.688-39.576-39.125 26.384-19.563-13.193 39.126-26.384-58.688-39.577z" class="M"/><g class="B"><use xlink:href="#K" transform="matrix(1.069031 -.186433 .276459 .720914 -160.722296 -455.6194)"/><use xlink:href="#K" transform="matrix(1.075093 .169858 -.251879 .725002 189.828078 -530.357913)"/><use xlink:href="#L" transform="matrix(.872031 -.095089 .176263 .735084 45.363384 -273.87011)"/><use xlink:href="#L" transform="matrix(.872992 .090994 -.168656 .735895 135.810614 -306.045572)"/></g><path d="M613.112-915.86c0-32.77-166.513-59.365-371.685-59.365s-371.685 26.596-371.685 59.365v19.8c0-32.77 166.513-52.77 371.685-52.77s371.685 33.193 371.685 65.962v-32.98zm-2.76-438.77c0-32.77-166.634-59.365-371.954-59.365s-371.954 26.596-371.954 59.365v19.8c0-32.77 166.634-52.77 371.954-52.77s371.954 33.193 371.954 65.962v-32.98z" class="M"/><path d="M242.555-1611.225l-57.397 37.33 38.264 24.887-19.132 12.444-38.264-24.887-57.397 37.33 57.397 37.33 38.264-24.887 19.132 12.443v37.33h38.264v-37.33l19.133-12.443 38.264 24.887 57.397-37.33-57.397-37.33-38.264 24.887-19.133-12.444 38.265-24.887-57.397-37.33z" class="N"/><g class="B"><use xlink:href="#K" transform="matrix(1.045505 -.175855 .270375 .680009 -150.744812 -971.771428)"/><use xlink:href="#K" transform="matrix(1.051434 .16022 -.246336 .683865 192.091041 -1042.269308)"/><use xlink:href="#L" transform="matrix(.85284 -.089694 .172384 .693375 50.805564 -800.334517)"/><use xlink:href="#L" transform="matrix(.85378 .085831 -.164944 .694141 139.262333 -830.684357)"/></g><path d="M606.06-1405.898c0-30.9-162.85-55.997-363.505-55.997s-363.505 25.087-363.505 55.997v18.666c0-30.9 162.85-49.775 363.505-49.775s363.505 31.31 363.505 62.22v-31.1z" class="N"/></g></g><ellipse rx="375.87" ry="120.53" transform="matrix(.96627 0 0 .41385 12.936 -517.53)" cy="-822.11" cx="234.13" fill="#b90000"/></g><g class="D"><path d="M671.348-225.337l64.816-23.156 64.818 23.156S666.773-179.02 666.773-16.904C666.77 98.888 895.91 122.05 895.91 261.007c0 59.672-62.53 115.794-127.35 115.794s-162.045-23.158-259.267-92.636c64.818 23.158 139.177 48.77 194.455 47.135 35.832-.53 100.657-23.158 100.657-69.476 0-92.636-224.583-139.766-224.583-278.72 0-162.12 91.51-208.433 91.513-208.433z" class="G H"/><use xlink:href="#C" transform="matrix(.15785 -.009692 .072222 .14695 283.98 1121.6)" fill="#b00" class="J"/><g class="G H"><path d="M683.183-225.337l85.397-23.16 18.293 23.16S657.635-179.02 657.635-16.904c-.002 115.792 230.29 138.955 230.29 277.91 0 59.672-48.868 114.2-119.345 115.794-134.276 3.09-165.475-31.328-259.267-92.636C588.246 326.398 701.4 345.28 745.33 328.85c53.697-20.084 64.07-47.135 64.07-70.293 0-92.636-221.144-136.498-221.144-275.453 0-162.12 94.94-208.433 94.94-208.433z"/><path d="M670.543-224.723c12.812-3.186 65.626-23.773 130.444 22.545 32.4 23.164 32.408 69.476 32.408 92.636l97.227-69.476s-53.17-113.556-196.87-70.055c-20.355 6.407-51.475 19.004-63.2 24.35z"/><path d="M689.677-232.893c16.17-3.75 67.09-8.268 118.165 24.185 32.4 23.164 34.695 56.122 34.695 79.282l74.36-49.586c6.293-4.196-45.425-106.213-181.542-70.633-8.228 2.362-27.035 8.238-45.68 16.753z"/></g><g class="B C"><use xlink:href="#B" transform="matrix(1.4889 -.13557 .50826 1.1368 452.1 825.72)"/><use xlink:href="#B" transform="matrix(-1.3548 .15838 -.023613 -.8707 1358.7 -762.45)"/></g><g fill="#b00" class="J"><use xlink:href="#C" transform="matrix(.15785 -.009692 .072222 .14695 310.64 1120.2)"/><use xlink:href="#C" transform="matrix(.26576 -.009692 .1216 .14695 270.95 1139.5)"/><use xlink:href="#C" transform="matrix(.26576 -.009692 .1216 .14695 296.11 1138.1)"/><use xlink:href="#C" transform="matrix(.3295 -.009692 .15076 .14695 260.9 1160.1)"/><use xlink:href="#C" transform="matrix(.3295 -.009692 .15076 .14695 292.09 1158.7)"/></g></g></g><path fill="#ffe000" d="M0 0h320v480H0z"/></g><defs ><path id="B" d="M344.54-596.3l9.152 22.14s1.455-9.767 8.526-11.534l7.07-1.768 32.168 58.167c5.302 8.838-3.536 16.793-1.77 16.793s26.517-11.5 26.517-11.5-10.606.883-15.026-6.188-34.82-59.934-34.82-59.934 6.187-2.652 11.5-5.303 10.607 7.955 10.607 7.955L385.2-613.968s0 8.84-4.42 10.607-7.955 3.535-7.955 3.535-3.535-6.187-7.955-13.258 4.42-14.142 4.42-14.142l-22.98 11.5s7.955 4.42 10.607 8.84l5.303 8.84s-3.223 1.768-8.214 3.482c-3.59 1.875-7.696.054-9.464-1.714z"/><path id="C" d="M212.6-453.54c-35.433 0-70.866 35.433-70.866 70.866s35.433 70.866 70.866 70.866h194.88c35.433 0 70.866-35.433 70.866-70.866 0-37.027-35.433-70.866-70.866-70.866H212.6z"/><path id="D" d="M318.9-595.28h70.866c9.757-9.756 9.757-26.095 0-35.433-25.99-10.607-44.874-9.48-70.866 0-8.307 9.338-9.422 24.826 0 35.433z"/><path id="E" d="M301.18-595.28h106.3c9.757-9.756 9.757-26.095 0-35.433 0 0-17.716-17.716-53.15-17.716s-53.15 17.716-53.15 17.716c-7.122 9.338-6.284 24 0 35.433z"/><path id="F" d="M301.18-595.28l17.717 88.583h70.866l17.716-88.583c.274-3.727-17.716-17.716-53.15-17.716s-51.928 17.34-53.15 17.716z"/><path id="G" d="M318.9-949.6v53.15c0 35.433 17.716 177.16 17.716 177.16s-17.7 148.17-17.7 183.6v53.15c0-35.433 35.427-219.04 35.427-219.04s35.44 165.9 35.44 219.04v-53.15c0-35.433-17.717-183.6-17.724-183.6.007 0 17.717-124.02 17.717-159.45v-70.867c0 35.433-35.426 212.6-35.426 212.6s-35.44-177.17-35.44-212.6z"/><path id="H" d="m276.58 287.67c-9.223 1.889-18.773 2.881-28.552 2.881s-19.329-0.992-28.553-2.881l-1.432 6.965c9.686 1.984 19.715 3.025 29.985 3.025s20.299-1.041 29.985-3.025l-1.433-6.965z"/><path id="I" d="M267.7 308.5c-9.223 1.89-20.19.927-29.97.927s-19.285-2.612-28.51-4.5l8.82-10.303c9.686 1.984 19.715 3.025 29.985 3.025s20.3-1.04 29.985-3.025L267.7 308.5z"/><path id="J" d="M267.6 281.47c-9.223 1.89-17.098 2.943-26.877 2.943s-23.112-.712-32.336-2.6l9.672 12.822c9.686 1.984 19.715 3.025 29.985 3.025s20.3-1.04 29.985-3.025L267.6 281.47z"/><path id="K" d="M220.98-825.6l-8.38 53.15v35.433L194.885-719.3v-35.434l-17.717 53.15 17.717 53.15v-35.432L212.6-666.14v53.15l17.717-.001v-53.15l17.717-17.716-.001 35.432 17.717-53.15-17.717-53.15.001 35.434-17.717-17.717v-35.433l-9.338-53.15z"/><path id="L" d="M141.73-1020.5c0-17.72 17.717-35.44 35.433-35.44s35.433 17.72 35.433 35.44-17.716 35.43-17.716 35.43l70.866 70.866h-35.433l-53.15-53.15-53.15 53.15H88.58l70.866-70.866s-17.717-17.71-17.717-35.43z"/></defs></svg>