<svg xmlns="http://www.w3.org/2000/svg" xmlns:xlink="http://www.w3.org/1999/xlink" height="480" width="640" xmlns:v="https://vecta.io/nano"><style><![CDATA[.B{stroke:#000}.C{stroke-width:.609}.D{fill-rule:evenodd}.E{fill:none}.F{fill:#f7c600}.G{stroke:#f7c600}.H{stroke-width:.974pt}.I{stroke-width:.785}.J{stroke-width:.784}.K{fill:#ffc6b5}.L{stroke-width:1.255pt}.M{stroke-linejoin:round}]]></style><defs><linearGradient id="A" gradientUnits="userSpaceOnUse"><stop stop-color="red" offset="0"/><stop stop-color="#ff0" offset="1"/></linearGradient><linearGradient id="B" y2="107.76" xlink:href="#A" y1="111.28" gradientTransform="matrix(.64274 0 0 1.4534 -94.683 29.21)" x2="92.551" x1="103.08"/><linearGradient id="C" y2="107.76" xlink:href="#A" y1="111.28" gradientTransform="matrix(.64274 0 0 1.4534 -94.666 30.155)" x2="92.551" x1="103.08"/><linearGradient id="D" y2="107.76" xlink:href="#A" y1="111.28" gradientTransform="matrix(.64274 0 0 1.4534 -97.986 31.014)" x2="92.551" x1="103.08"/><linearGradient id="E" y2="107.76" xlink:href="#A" y1="111.28" gradientTransform="matrix(.64274 0 0 1.4534 -94.743 31.932)" x2="92.551" x1="103.08"/><linearGradient id="F" y2="107.76" xlink:href="#A" y1="111.28" gradientTransform="matrix(.64274 0 0 1.4534 -94.75 32.835)" x2="92.551" x1="103.08"/><linearGradient id="G" y2="107.76" xlink:href="#A" y1="111.28" gradientTransform="matrix(.64274 0 0 1.4534 -94.767 33.751)" x2="92.551" x1="103.08"/><linearGradient id="H" y2="107.76" xlink:href="#A" y1="111.28" gradientTransform="matrix(.64274 0 0 1.4534 -98.011 33.736)" x2="92.551" x1="103.08"/><linearGradient id="I" y2="107.76" xlink:href="#A" y1="111.28" gradientTransform="matrix(.64274 0 0 1.4534 -97.981 32.837)" x2="92.551" x1="103.08"/><linearGradient id="J" y2="107.76" xlink:href="#A" y1="111.28" gradientTransform="matrix(.64274 0 0 1.4534 -97.942 31.918)" x2="92.551" x1="103.08"/><linearGradient id="K" y2="107.76" xlink:href="#A" y1="111.28" gradientTransform="matrix(.82810 0 0 1.8726 602.82 148.17)" x2="92.551" x1="103.08"/><linearGradient id="L" y2="107.76" xlink:href="#A" y1="111.28" gradientTransform="matrix(.64274 0 0 1.4534 -97.976 30.11)" x2="92.551" x1="103.08"/><linearGradient id="M" y2="107.76" xlink:href="#A" y1="111.28" gradientTransform="matrix(.64274 0 0 1.4534 -95.336 30.955)" x2="92.551" x1="103.08"/><clipPath id="N"><path fill-opacity=".67" d="M0 0h640v480H0z"/></clipPath><path id="O" d="M69.786 170.53l9.335-13.71 9.38 13.74"/><path id="P" d="M80.997 165.398c0 1.024-.83 1.855-1.854 1.855s-1.854-.83-1.854-1.855.83-1.855 1.854-1.855 1.854.83 1.854 1.855z"/><path id="Q" d="M71.54 180.66l14.473.04s.227-1.878-1.512-3.02c7.58-1.042 5.61-7.73 11.96-8.108 1.232.2-3.317 2.843-3.317 2.843s-3.828 2.7-2.085 4.075c1.384 1.1 2-.663 2.18-2s6.16-2.18 5.306-5.97c-1.42-3.127-9.76 2.084-9.76 2.084l-5.95-.033c-.37-.668-2-3.345-3.704-3.358-2.01.073-3.424 3.39-3.424 3.39H62.255s-.46 3.452 6.36 4.116c1.536 2.006 2.727 2.567 4.062 3.086-.9.742-1.14 1.64-1.137 2.843z"/><path id="R" d="M72.583 177.72l12.055-.04"/><path id="S" d="M67.062 170.6s.964 5.638 5.415 6.973"/><path id="T" d="M66.32 170.54c.445-2.15 1.26-2.522 2.15-5.267.148-2.67-2.15-2.374-1.484-4.08 1.187-1.855.593-3.635-1.632-5.044.445 2.448-2.893 4.748-2.893 6.75s1.706 1.558 1.484 4.6c.148 1.78-.445 1.335-.593 3.042h2.967z"/><path id="U" d="M80.848 157.165c0 .942-.763 1.706-1.706 1.706s-1.706-.764-1.706-1.706.763-1.706 1.706-1.706 1.706.764 1.706 1.706z"/></defs><g clip-path="url(#N)"><path fill="#006" d="M0 0h960v480H0z"/><g transform="scale(.72917)"><path fill="#006" d="M0 0h480v240H0z" class="D"/><g fill="#fff"><path d="M0 0v26.833L426.336 240H480V213.17L53.664.001H0zm480 0v26.832L53.664 240H0v-26.832L426.336 0H480z"/><path d="M200 0v240h80V0h-80zM0 80v80h480V80H0z"/></g><g fill="#c00"><path d="M0 96v48h480V96H0zM216 0v240h48V0h-48zM0 240l160-80h35.776l-160 80H0zM0 0l160 80h-35.776L0 17.9V0zm284.224 80l160-80H480L320 80h-35.776zM480 240l-160-80h35.776L480 222.112V240z"/></g></g><g transform="matrix(1.0265 0 0 1.0265 -301.49 28.259)"><g class="D"><path d="M662.4 122.94l213.68-.793-.396 190.3s7.532 28.94-89.593 72.943c34.886-3.568 72.943-40.832 72.943-40.832s15.46-19.82 22.993-8.72 14.668 16.65 20.218 21.01 9.91 16.254 1.586 24.975-21.407 9.91-24.975-.793c-5.55 2.775-39.643 44.004-109.4 45.986-70.96-1.19-109.8-46.382-109.8-46.382s-9.514 15.064-22.993 3.17c-13.082-15.46-3.17-25.372-3.17-25.372s11.1-6.343 14.27-10.704c5.154-5.947 6.74-13.875 15.46-13.875 10.307.793 14.27 9.118 14.27 9.118s35.68 37.66 74.132 42.418c-86.818-41.625-90-67.393-89.593-73.736l.396-188.7z" fill="#fff"/><path d="M667.56 128.1l203.76-1.19v183.15c.396 23.786-39.643 47.968-102.28 78.89-64.6-33.3-101.87-53.52-102.27-79.28l.793-181.56z" fill="#006129" class="B L"/></g><g transform="matrix(1.2884 0 0 1.2884 602.15 110.19)"><use xlink:href="#O" class="E G H"/><g class="B C D F"><use xlink:href="#P"/><use xlink:href="#Q"/></g><g class="E B C"><use xlink:href="#R"/><use xlink:href="#S"/></g><g class="D B C"><use xlink:href="#T" fill="url(#B)"/><use xlink:href="#U" class="F"/></g></g><g transform="matrix(1.2884 0 0 1.2884 601.47 73.831)"><use xlink:href="#O" class="E G H"/><g class="B C D F"><use xlink:href="#P"/><use xlink:href="#Q"/></g><g class="E B C"><use xlink:href="#R"/><use xlink:href="#S"/></g><g class="D B C"><use xlink:href="#T" fill="url(#C)"/><use xlink:href="#U" class="F"/></g></g><g transform="matrix(1.2884 0 0 1.2884 729.25 40.779)"><use xlink:href="#O" class="E G H"/><g class="B C D F"><use xlink:href="#P"/><use xlink:href="#Q"/></g><g class="E B C"><use xlink:href="#R"/><use xlink:href="#S"/></g><g class="D B C"><use xlink:href="#T" fill="url(#D)"/><use xlink:href="#U" class="F"/></g></g><g transform="matrix(1.2884 0 0 1.2884 604.45 5.4353)"><use xlink:href="#O" class="E G H"/><g class="B C D F"><use xlink:href="#P"/><use xlink:href="#Q"/></g><g class="E B C"><use xlink:href="#R"/><use xlink:href="#S"/></g><g class="D B C"><use xlink:href="#T" fill="url(#E)"/><use xlink:href="#U" class="F"/></g></g><g transform="matrix(1.2884 0 0 1.2884 604.72 -29.303)"><use xlink:href="#O" class="E G H"/><g class="B C D F"><use xlink:href="#P"/><use xlink:href="#Q"/></g><g class="E B C"><use xlink:href="#R"/><use xlink:href="#S"/></g><g class="D B C"><use xlink:href="#T" fill="url(#F)"/><use xlink:href="#U" class="F"/></g></g><g transform="matrix(1.2884 0 0 1.2884 605.38 -64.549)"><use xlink:href="#O" class="E G H"/><g class="B C D F"><use xlink:href="#P"/><use xlink:href="#Q"/></g><g class="E B C"><use xlink:href="#R"/><use xlink:href="#S"/></g><g class="D B C"><use xlink:href="#T" fill="url(#G)"/><use xlink:href="#U" class="F"/></g></g><g transform="matrix(1.2884 0 0 1.2884 730.2 -63.975)"><use xlink:href="#O" class="E G H"/><g class="B C D F"><use xlink:href="#P"/><use xlink:href="#Q"/></g><g class="E B C"><use xlink:href="#R"/><use xlink:href="#S"/></g><g class="D B C"><use xlink:href="#T" fill="url(#H)"/><use xlink:href="#U" class="F"/></g></g><g transform="matrix(1.2884 0 0 1.2884 729.06 -29.376)"><use xlink:href="#O" class="E G H"/><g class="B C D F"><use xlink:href="#P"/><use xlink:href="#Q"/></g><g class="E B C"><use xlink:href="#R"/><use xlink:href="#S"/></g><g class="D B C"><use xlink:href="#T" fill="url(#I)"/><use xlink:href="#U" class="F"/></g></g><g transform="matrix(1.2884 0 0 1.2884 727.53 5.9883)"><use xlink:href="#O" class="E G H"/><g class="B C D F"><use xlink:href="#P"/><use xlink:href="#Q"/></g><g class="E B C"><use xlink:href="#R"/><use xlink:href="#S"/></g><g class="D B C"><use xlink:href="#T" fill="url(#J)"/><use xlink:href="#U" class="F"/></g></g><path d="m818.97 330.26 12.028-17.665 12.086 17.702" stroke-width="1.255" class="E G"/><g class="B D F J"><path d="M833.4 323.66a2.39 2.39 0 0 1-2.389 2.389 2.39 2.39 0 0 1-2.389-2.389 2.39 2.39 0 0 1 2.389-2.389 2.39 2.39 0 0 1 2.389 2.389z"/><path d="M821.23 343.3l18.647.053s.292-2.42-1.948-3.89c9.767-1.343 7.23-9.958 15.41-10.446 1.587.244-4.273 3.663-4.273 3.663s-4.932 3.48-2.686 5.25c1.783 1.405 2.564-.854 2.808-2.564s7.935-2.808 6.837-7.69c-1.83-4.03-12.575 2.686-12.575 2.686l-7.665-.043c-.478-.86-2.6-4.3-4.772-4.326-2.588.094-4.41 4.368-4.41 4.368h-17.336s-.594 4.448 8.196 5.303c1.98 2.585 3.513 3.307 5.234 3.976-1.147.956-1.47 2.112-1.465 3.663z"/></g><g class="E B J"><path d="M822.57 339.52l15.53-.053m-22.64-9.097s1.242 7.264 6.977 8.985"/></g><g class="D B J"><path d="M814.5 330.27c.573-2.772 1.625-3.25 2.772-6.786.19-3.44-2.772-3.058-1.912-5.257 1.53-2.39.765-4.683-2.103-6.5.573 3.154-3.728 6.117-3.728 8.698s2.198 2.007 1.912 5.926c.19 2.294-.573 1.72-.765 3.92h3.823z" fill="url(#K)"/><path d="M833.22 313.05a2.2 2.2 0 0 1-2.197 2.198 2.2 2.2 0 0 1-2.197-2.198 2.2 2.2 0 0 1 2.197-2.198 2.2 2.2 0 0 1 2.197 2.198z" class="F"/></g><g transform="matrix(1.2884 0 0 1.2884 728.87 75.569)"><use xlink:href="#O" class="E G H"/><g class="B C D F"><use xlink:href="#P"/><use xlink:href="#Q"/></g><g class="E B C"><use xlink:href="#R"/><use xlink:href="#S"/></g><g class="D B C"><use xlink:href="#T" fill="url(#L)"/><use xlink:href="#U" class="F"/></g></g><g transform="matrix(1.2884 0 0 1.2884 627.25 43.056)"><use xlink:href="#O" class="E G H"/><g class="B C D F"><use xlink:href="#P"/><use xlink:href="#Q"/></g><g class="E B C"><use xlink:href="#R"/><use xlink:href="#S"/></g><g class="D B C"><use xlink:href="#T" fill="url(#M)"/><use xlink:href="#U" class="F"/></g></g><g class="B"><g class="D I"><path d="M781.52 346.727s4.866 11.22 10.408 4.325 3.514-9.867 3.514-9.867l-12.436-6.758-3.65 7.705 2.163 4.596z" class="F"/><g class="K"><path d="M792.202 345.245s.8.135 1.487-1.08-1.487-1.757-2.433-3.1l-1.08 2.163 2.028 2.027zm-28.126-2.975l-10.95 5.947s-5.407 1.08-5.812 0 .135-2.028 2.974-2.163 10.543-7.164 10.543-7.164l3.244 3.38zm.142-194.5l.405 3.92c.135 1.352-2.163 4.2-2.298 4.055s-1.217.135-1.08.946 1.757 1.08 1.757 1.08-.676 2.838 0 2.974-1.757 3.65 0 4.596 4.73 2.163 6.083 1.892 0 5.272 0 5.272l-3.785 8.1 20.815-2.163-4.325-6.894s-2.027-1.352-1.487-5.272-.27-21.627-.27-21.627l-14.868-2.028-.946 5.136zm-3.788 30.818s-6.758 3.1-6.488 11.5c-1.757 8.1-2.703 16.22-2.703 16.22s-7.975 9.056-10.408 12.3-6.083 9.867-7.434 11.624-6.623 7.57-6.488 9.732-1.217 11.76 4.055 12.84c1.352.54 5.677-11.084 5.677-11.084s.27-5-1.217-5.947 3.244-4.2 3.244-4.2l11.084-8.245c2.028-1.622 7.57-7.84 7.57-7.84l3.1-36.9z"/></g><path d="M768.135 172.225s1.757 4.73 5.677 3.92 8.516-4.46 8.516-4.46 3.65-.135 4.2.405 9.867 9.597 9.597 12.436-4.325 2.027-5.812 3.92-3.92 6.623-3.244 10.138 2.703 8.1 2.433 9.867-1.757 2.298-1.757 3.244 1.217 2.568 1.217 4.325-1.622 4.325-1.352 6.083.405 6.894.405 6.894l-.405 23.8s1.352.81 1.487 2.163 9.19 40.685 9.19 40.685-.405 1.217-1.352 1.08 3.65 6.083 3.785 7.84 4.73 15.545 4.596 17.437-.81 6.083-1.217 6.218 2.974 8.65 2.433 10.002-6.083 1.217-6.083 1.217l-1.487-.27s.135 1.757-.946 1.892-9.056-.406-9.056-.406-2.298 3.514-3.65 3.38-3.11-2.568-3.514-2.163 1.217 2.703.81 3.38-7.3 2.163-8.65-1.08.81-2.433.406-3.11-3.514-2.433-4.46-1.892 2.433 1.352 2.298 2.703-2.974 3.38-4.055 3.38-3.65-5-7.434-4.46-6.218 1.487-6.218 1.487-4.46 1.892-6.353 1.487-2.703-1.892-2.703-2.703 1.352-4.325 1.217-5.407-1.217-2.163-1.217-3.785 3.11-7.164 3.11-7.164l-.135-24.87s-2.84 0-2.974-1.757 4.325-39.334 5-41.767 2.433-11.084 2.433-11.084-2.028.946-2.163 0 6.083-22.437 6.083-22.437 1.08-10.678 1.08-13.517-.54-6.758-.54-6.758-5.55-2.35-5.677-5.947c-.508-5.725 5.272-8.92 5.948-10.814l2.703-7.57s2.974-5.136 7.84-5.948z" fill="#fff"/><path d="M766.112 343.892s-13.11 6.894-15.003 7.434-3.11-2.298-1.217-2.84 4.866-.81 4.866-.81-4.46-3.514-4.325-3.65 6.083-2.298 6.218-2.298 1.892 3.514 3.11 3.244S764.5 342 764.5 342l1.622 1.892z" class="F"/><g class="K"><path d="M784.587 347.667c1.24 1.6 1.724 4.372 4.563 2.75s-1.454-4.633-1.454-4.633l-3.11 1.883z"/><path d="M789.767 347.397s1.352 1.08 2.568-.135-2.433-3.785-2.433-3.785l-1.757 2.028 1.622 1.892z"/></g></g><g class="E I"><path d="M785.708 177.495s-12.03 7.705-11.76 10.408m14.466-9.056l-2.838 2.974m6.484.27s-5.948 4.866-5 7.975m-23.113-13.245s-1.757 3.65-1.352 4.866 3.38 5.812 3.785 8.65 0 4.866 0 4.866m-5.538-11.624s.54 4.325 1.352 5.136 2.974 4.46 3.244 5.947m-5.678 6.894s3.514 1.757 6.758-5m5.262-4.73c-.135 0-2.568 6.623 1.757 9.056s7.57 2.163 9.462 1.487 3.92-1.892 3.92-1.892m-17.02-.54s.27 8.92 13.38 17.708m-12.84-9.328s-.135 7.84 5 11.354m-7.705-20.545s-3.92 11.624-7.03 12.84m5.805-4.323s-.135 8.38-1.217 11.354m-1.075 2.026s2.703 3.38 5.677 3.1 4.2-3.785 6.218-3.244 3.92 2.163 8.65 1.757m-6.76 3.513s0 6.894 1.217 7.57.676 7.03.676 7.03m-18.385-17.843s-.135 6.488-.946 8.786-2.433 6.218-2.163 9.597m-5.137 3.79c.676-.27 2.974-2.298 2.974-2.298m1.214 1.486s-5.812 24.87-4.2 39.74m5.553-38.53s-2.974 18.653-1.622 22.168m.14-22.71c.135 0 11.354.8 11.354.8m1.62-1.48s3.1 1.622 7.434 1.352m-8.788 7.705s-.54 31.9-1.352 38.93m17.986-31.637s3.514 27.98 5.542 30.548m-12.307-27.03s2.163 24.736 3.38 26.9m-34.055 8.647s4.2-1.352 7.975-5.407c4.326 5.812 10.95.27 10.95.27s10.273 7.03 14.868-.8c7.03 4.596 10.543-.676 10.543-.676s2.568 3.92 4.46 3.514m-11.228 2.7s5.272 24.736 13.1 31.764M758.536 296.7s.676 20.68 1.892 35.28m-2.833-11.894s-.676 13.517-1.487 14.464m-6.488 1.357s1.487 5.812 8.92.406 7.57 2.028 7.84 2.838 1.487 6.623 4.325 1.757m5.945-7.978s-1.217 12.03 9.462 3.244 12.436-.135 12.706 2.568"/></g><path d="M763.806 146.947s2.974.405 4.596-.54 3.514-1.352 4.866.54 2.298 1.757 2.298 1.757-2.028 5 0 5.542 2.974.54 3.11 1.217-1.757 2.163-1.217 2.838 1.487 1.487 1.622 2.028-1.217 2.838-.81 3.38 1.622 2.703 2.433 2.703.27 3.38 2.703 2.568 2.298-2.974 2.298-2.974 2.568-.405 3.244-2.703 2.298-2.838 2.298-2.838 3.244-1.757-1.08-4.46c0-18.924-12.436-16.896-12.436-16.896s-1.487-3.38-3.92-2.974-2.568 3.244-4.325 2.974-2.163-1.487-2.298-1.352-1.622 2.838-1.622 3.514-4.73-.946-4.325 2.568 2.703 3.38 2.568 3.11z" fill="#9c5100" class="D I"/><g class="E"><path d="M776.793 142.352s-.946 5.947 5.407 5.407c-.8 3.244 1.622 4.325 1.622 4.325m4.72 3.65c.135 0 2.84 1.757-.135 3.92m-9.05.81s1.352 1.622 2.838 1.217 3.92 1.487 3.92 1.487 2.028.676 2.298.27M771.1 165.6s4.596 1.757 7.57-5.542m-16.086-2.162l2.703.135" class="I"/><g class="M"><path d="M763.007 160.6h2.433l-2.163.946" class="I"/><path d="M766.382 153.03c.405 0 1.892-.54 2.163-.135s-1.622.676-2.163.135z" stroke-width="1.412"/></g></g><g class="I"><path d="M795.577 185.145c.135 0 4.46 13.38 5 16.76s2.298 16.896 1.622 18.79-7.57 10.95-8.38 13.246-5.677 11.084-5.677 11.084-1.217 8.65-1.757 9.056 1.395 2.53 1.217 3.244c-.268.805-3.92 4.596-5.542 4.2s-4.2-2.298-4.325-4.055.135-7.57 1.352-9.056 7.57-16.5 7.975-17.437 5.812-12.706 5.947-14.733-1.682-6.716-3.593-8.436c-4.254-12.52-2.583-20.072 6.162-22.653z" class="D K"/><g class="E"><path d="M732.6 243.14l.212 5.924m-5.762-6.364s3.798 6.352 3.48 9.736"/><path d="M777.952 255.972s2.84-.298 2.75 4.443c1.813-5.89 5.5-6.03 5.5-6.03" class="M"/></g></g><g class="L"><path d="M768.25 391.32c57.086-1.586 93.954-42.814 93.557-43.21s7.532-11.496 13.875-9.91 15.46 20.218 26.56 24.182c5.55 8.72-1.586 16.65-3.964 18.236s-13.082 5.947-14.668-.396-4.757-5.154-4.757-5.154-50.743 49.554-109.4 47.572c-60.65.4-110.6-47.57-110.6-47.57l-4.36 4.757s-4.757 5.154-7.136 4.757-12.686-7.136-13.48-13.875 6.343-11.1 6.343-11.1 17.443-13.48 19.425-20.614c3.964-3.964 11.496 2.775 11.496 2.775s45.986 52.725 97.125 49.554z" class="D F"/><g class="E"><path d="M639.02 360.66s4.717-1.258 6.447.708 13.6 13.6 13.6 13.6"/><path d="M649.8 366.16l-4.717 3.538s11.87 2.358 9.198 10.142M898 360.26s-2.36-1.258-6.054 1.494-13.05 13.208-13.05 13.208"/><path d="M887.38 365.85l5.1 3.93s-10.692.708-8.334 10.85"/></g></g></g><path d="M699.45 373.24l-.344.482c-.717-.354-1.535-.42-2.453-.197-.674.174-1.945.807-3.812 1.9l-15.708 9.157-.43-.307 3.957-18.363c.478-2.214.697-3.558.655-4.033-.033-.47-.364-.987-.994-1.554l.344-.482 8.467 6.038-.344.482-.287-.204c-.764-.545-1.353-.82-1.768-.828-.293-.012-.53.108-.708.36-.11.156-.2.368-.295.634-.08.258-.25.994-.514 2.208l-2.506 11.478 9.074-5.34 2.125-1.354c.325-.253.568-.493.73-.718.186-.26.28-.54.284-.84s-.092-.596-.287-.893c-.268-.414-.71-.84-1.327-1.28l.344-.482 5.797 4.134m5.64 27.295l-.284.52-9.953-5.443.284-.52.632.345c.552.302 1.05.447 1.495.435.315.002.625-.12.93-.367.226-.168.6-.73 1.122-1.684l6.848-12.522c.532-.973.813-1.6.844-1.91s-.065-.625-.286-.977c-.206-.356-.576-.68-1.1-.972l-.632-.345.284-.52 9.953 5.443-.284.52-.632-.345c-.552-.302-1.05-.447-1.495-.435-.315-.002-.63.118-.944.36-.226.168-.6.73-1.122 1.684l-6.848 12.522c-.532.973-.813 1.6-.844 1.91-.02.305.072.635.28.99.22.352.598.674 1.132.965l.632.345m36.36-8.528l-2.566 7.205-.558-.2c.028-2.21-.448-4.066-1.43-5.57s-2.27-2.54-3.87-3.1c-1.527-.544-2.952-.565-4.275-.062-1.32.493-2.463 1.433-3.433 2.82a18.89 18.89 0 0 0-2.319 4.507c-.698 1.96-1.08 3.76-1.143 5.402s.293 2.992 1.07 4.05c.788 1.062 1.9 1.845 3.307 2.35.492.175 1.013.304 1.56.386.562.076 1.15.1 1.764.102l1.514-4.25c.286-.804.415-1.34.387-1.61-.025-.28-.18-.58-.462-.895-.274-.313-.657-.557-1.15-.732l-.528-.188.2-.558 9.933 3.538-.2.558c-.772-.218-1.337-.3-1.695-.247-.345.047-.662.223-.952.527-.158.16-.37.6-.635 1.353l-1.514 4.25a20.99 20.99 0 0 1-4.552-.144c-1.514-.2-3.03-.57-4.547-1.1-1.94-.69-3.46-1.526-4.56-2.507-1.086-.987-1.97-2.083-2.65-3.288-.667-1.21-1.085-2.453-1.255-3.725-.21-1.637-.008-3.315.604-5.033 1.095-3.075 3.1-5.288 6.016-6.638s6.01-1.443 9.287-.276c1.015.362 1.9.768 2.657 1.218.413.238 1.045.723 1.893 1.456.862.726 1.384 1.12 1.565 1.186.28.1.578.093.89-.022.316-.125.677-.438 1.082-.94l.558.2m15.318 24.587l-.09.585-11.216-1.7.09-.585.712.108c.622.094 1.14.06 1.553-.105.297-.106.546-.327.748-.663.154-.236.313-.89.476-1.967l2.138-14.11c.166-1.097.212-1.79.138-2.083s-.276-.565-.604-.82c-.316-.264-.775-.44-1.376-.532l-.712-.108.09-.585 11.216 1.7-.09.585-.712-.108c-.622-.094-1.14-.06-1.553.105-.297.106-.55.326-.764.66-.154.236-.313.89-.476 1.967l-2.138 14.11c-.166 1.097-.212 1.79-.138 2.083.085.293.286.572.602.836.328.255.793.428 1.394.52l.712.108m29.114-7.072l-.427 7.648-19.24.982-.03-.59.72-.037c.63-.032 1.13-.17 1.5-.413.27-.163.47-.43.6-.8.104-.262.128-.936.073-2.022l-.727-14.253c-.057-1.108-.15-1.797-.282-2.068s-.383-.498-.756-.682c-.362-.195-.847-.277-1.454-.246l-.72.037-.03-.59 11.553-.59.03.59-.943.048c-.63.032-1.13.17-1.5.413-.27.163-.475.43-.616.8-.104.262-.128.936-.073 2.022l.704 13.806c.057 1.108.157 1.813.3 2.115.143.292.405.503.785.633.27.082.918.097 1.94.045l1.806-.092c1.15-.06 2.1-.3 2.845-.754s1.374-1.117 1.884-2.02c.52-.902.987-2.22 1.4-3.95l.655-.033m21.045-3.65l-7.343 2.194-.27 2.285c-.085.76-.06 1.36.07 1.8.174.583.537.942 1.1 1.077.325.08 1.04.001 2.15-.24l.17.567-6.914 2.065-.17-.567c.712-.335 1.234-.825 1.565-1.47.328-.655.608-1.88.84-3.674l2.48-18.81.29-.087 12.59 14.808c1.198 1.4 2.09 2.243 2.674 2.524.442.213.988.25 1.637.112l.17.567-10.057 3.004-.17-.567.414-.124c.807-.24 1.34-.523 1.6-.846.176-.23.218-.5.127-.806-.055-.184-.142-.364-.26-.54-.048-.086-.316-.423-.803-1.012l-1.878-2.26m-.86-.98l-5.236-6.234-1.05 8.112 6.285-1.878m27.726-28.253l2.78 5.172-.507.273c-.942-1.03-1.735-1.707-2.38-2.027-.65-.33-1.377-.477-2.182-.444-.448.023-1.118.274-2.01.754l-1.423.765 7.925 14.74c.525.977.905 1.56 1.14 1.75.244.184.572.286.983.307.415.007.896-.136 1.44-.43l.634-.34.28.52-10.006 5.38-.28-.52.634-.34c.554-.298.948-.637 1.18-1.016.174-.263.245-.592.214-.987-.018-.28-.284-.9-.8-1.86l-7.925-14.74-1.38.743c-1.287.692-2.075 1.467-2.365 2.325-.408 1.2-.342 2.563.2 4.09l-.535.288-2.78-5.172 17.164-9.228m13.014-7.716l5.32 7.05.345-.26c1.098-.83 1.635-1.774 1.608-2.836s-.48-2.318-1.358-3.766l.485-.366 6.84 9.07-.485.366c-.847-.91-1.675-1.556-2.482-1.936-.8-.386-1.496-.522-2.09-.407-.6.106-1.315.47-2.14 1.094l3.68 4.88c.72.954 1.198 1.508 1.435 1.663a1.36 1.36 0 0 0 .855.177c.324-.03.733-.232 1.227-.605l1.035-.78c1.618-1.22 2.63-2.572 3.035-4.053.414-1.488.256-3.16-.475-5.013l.473-.356 3.374 6.093-14.97 11.292-.356-.473.575-.434c.502-.38.84-.774 1.01-1.184.13-.286.148-.62.048-1-.06-.275-.418-.847-1.073-1.715l-8.595-11.394-1.153-1.395c-.3-.234-.64-.345-.993-.333-.503.006-1.036.22-1.598.644l-.575.434-.357-.473 14.498-10.936 3.864 5.122-.485.366c-1.19-1.065-2.218-1.7-3.08-1.905-.854-.21-1.786-.136-2.796.225-.593.206-1.544.804-2.856 1.793l-1.788 1.35"/></g></g></svg>