<svg xmlns="http://www.w3.org/2000/svg" xmlns:xlink="http://www.w3.org/1999/xlink" width="744" height="496" xmlns:v="https://vecta.io/nano"><style><![CDATA[.B{stroke:#000}.C{stroke-width:1.484}.D{stroke-linejoin:round}.E{stroke-linecap:round}.F{fill:none}.G{fill:#ffd600}.H{fill:#f7f308}.I{fill:#00cede}]]></style><path d="M0 0h744v496H0z" fill="#fff"/><g class="B C G"><path d="M437.962 178.594c0-3.42-1.11-10.06-4.726-12.36-4.642-2.414-4.642-3.9-5.013-7.055s7.797-9.096 7.797-9.096-7.426-3.342-10.2-2.97-8.168.928-8.9 1.67-4.827-13.366-2.228-15.594 7.98 5.198 7.98 5.198 3.527-8.168-8.9-23.762c4.27-30.445-24.133-37.5-30.63-37.314-5.383-.742-19.306 4.27-21.533 10.953-7.055 2.413-7.426 8.54-7.426 8.54s-14.48 2.6-16.336 15.223c8.54-7.054 14.108.743 14.108.743s7.426 5.198 11.324 5.384-3.713 12.995-5.94 15.223-11.5 10.768-11.14 11.324 7.24 2.6 6.87 5.755-21.163 12.8-20.05 15.223c5.384-1.67 9.58-.384 9.58-.384.75 5.27-1.35 11.34-4.932 13.305l100.322-.006z"/><path d="M432.46 317.705s.945 11.16-3.783 15.89c20.995 1.324 32.344 22.7 32.533 27.807s-6.432 9.078-6.432 9.078 2.27 9.08-6.43 10.593c.19 8.7-5.863 8.7-5.863 8.7s-2.27 7.188-9.268 6.8c-2.08 10.403-12.862 10.214-12.862 10.214s-6.242 15.133-15.5 9.27c-5.863 12.862-21.373 12.295-27.237 0-3.215-.188-10.402 4.16-14.753-8.7-9.646 1.703-13.43-10.592-13.43-10.592s-6.432-.568-8.89-7c-7.565-1.513-6.24-9.08-6.24-9.08s-7.565-2.08-7.377-10.403c-6.053-3.595-5.485-10.025-5.485-10.025s4.73-22.32 32.155-27.05c-4.35-6.24-3.783-15.32-3.783-15.32l82.657-.192z" class="D"/></g><g transform="matrix(-1.48352 0 0 1.48359 758.85 27.3985)" class="B D"><g class="G"><path d="M308.578 109.376s10.077 10.84 15.116 2.75-7.023-10.383-7.176-10.536-7.024-2.3-7.634-14.963S324 65.708 328.428 64.64s17.406-1.07 17.406-1.07 47.485-11.45 52.37-14.963S447.98 36.85 447.98 36.85s7.176-.916 6.565 5.497-6.565 7.176-6.565 7.176 5.04 3.97 4.428 7.482-4.428 9.16-12.368 8.245c.916 12.52-16.5 14.505-16.5 14.505s-1.832 18.017-17.865 17.1c-3.817 12.367-18.17 12.826-18.17 12.826s-6.718 8.398-16.5 9.008c-5.65 14.047-17.864 10.077-17.864 10.077s.916 8.856-4.733 8.856c2.9 10.077-7.94 11.45-12.062 9.466-1.07 2.137-4.733 8.703-13.13 4.58-5.038 7.482-13.284 3.97-13.284 3.97s-1.832 5.955-9.008 3.664 7.785-49.623 7.633-49.928z"/><g class="E"><path d="M339.726 72.426s-11.146 1.222-9.772 18.475m52.218-36.34S403.548 69.22 363.544 73.8"/><path d="M376.065 71.815c.152.305 10.077 12.062-8.245 15.574 8.703 8.245-7.634 10.993-7.634 10.993s3.36 8.703-6.413 10.993c3.206 9.01-7.33 8.55-7.33 8.55s-.305 10.993-12.826 10.84c.153 7.482-8.55 7.94-8.55 7.94s-2.596 8.092-10.993 5.65c-.916 5.65-6.718 4.428-6.718 4.428"/></g></g><path d="M309.8 155.792s-.458-7.787 1.374-9.314m12.52 5.04c-.153-.153-3.665-7.176-2.443-8.398m15.27 3.97l-9.467-9.314m21.377.152c-.153-.153-14.352-9.008-14.352-9.008m19.39 0c-.153-.153-8.092-3.512-8.398-6.413" class="H E"/><path d="M371.026 118.7s-19.238 4.123-22.598-.305m38.63-8.857c-.763 0-28.857 3.054-31.453-.458m50.08-12.215c-.458-.153-33.285 6.108-42.6 1.374m58.326-18.322c-.764 0-43.668 10.383-50.08 7.176m66.418-22.14c-.305 0-51.15 11.9-57.562 7.023m64.127-21.527c-.152 0-48.707 15.88-52.83 11.9" class="G E"/></g><g class="B C D G"><path d="M481.876 190.187s14.95 16.084 22.425 4.078-10.42-15.404-10.646-15.63-10.42-3.397-11.327-22.2 22.425-31.034 28.994-32.62 25.822-1.586 25.822-1.586 70.445-16.99 77.693-22.2 73.842-17.443 73.842-17.443 10.647-1.36 9.74 8.155-9.74 10.646-9.74 10.646 7.475 5.9 6.57 11.1-6.57 13.59-18.348 12.232c1.36 18.575-24.463 21.52-24.463 21.52s-2.72 26.73-26.502 25.37c-5.663 18.348-26.956 19.03-26.956 19.03s-9.966 12.46-24.463 13.364c-8.38 20.84-26.502 14.95-26.502 14.95s1.36 13.14-7.022 13.14c4.304 14.95-11.778 16.99-17.894 14.044-1.584 3.17-7.023 12.912-19.48 6.796-7.474 11.1-19.706 5.9-19.706 5.9s-2.718 8.835-13.364 5.436 11.552-73.62 11.325-74.073z"/><g class="E"><path d="M528.087 135.368s-16.535 1.813-14.497 27.4m77.466-53.912s31.7 21.746-27.635 28.54"/><path d="M581.996 134.462c.227.452 14.95 17.895-12.233 23.105 12.91 12.232-11.325 16.31-11.325 16.31s4.983 12.912-9.514 16.31c4.756 13.366-10.873 12.686-10.873 12.686s-.452 16.31-19.028 16.084c.227 11.1-12.684 11.78-12.684 11.78s-3.85 12.005-16.3 8.38c-1.36 8.38-9.966 6.57-9.966 6.57"/></g></g><path d="M483.7 259.05s-.68-11.553 2.038-13.818m18.572 7.475c-.227-.227-5.436-10.646-3.624-12.46m22.654 5.89l-14.044-13.818" class="H B C D E"/><path d="M540.998 232.547c-.227-.227-21.29-13.364-21.29-13.364" class="B C D E G"/><path d="M548.472 219.18c-.227-.227-12.005-5.2-12.46-9.514" class="B C D E H"/><path d="M574.52 204.004s-28.54 6.117-33.523-.452m57.307-13.14c-1.133 0-42.8 4.53-46.66-.68M625.94 171.6c-.68-.227-49.38 9.062-63.198 2.038m86.528-27.18c-1.132 0-64.782 15.403-74.296 10.646m98.533-32.845c-.452 0-75.882 17.67-85.396 10.42m95.135-31.938c-.227 0-72.258 23.558-78.374 17.668" class="G B C D E"/><g class="I B C"><path d="M568.433 217.64l-4.644 63.152c-.214-.145-9.237-11.057-9.237-11.057l-27.847 87.303 6.51 19.044L517 429.246l-13.37-16.96-21.6 8.686 17.34-55.992 16.02-11.5 28.844-86.007-16.008 2.004 40.2-51.825z"/><path d="M629.973 243.748l-33.802 53.545c-.122-.23-2.95-14.104-2.95-14.104l-55.345 51.34-59.098 57.025-.163-11.745-20.222-2.497 26.747-20.465 13.697-2.257 86.345-78.263-15.07-5.762 59.862-26.817z"/></g><path d="M478.817 379.717c.366-.764 30.73-26.707 30.73-26.707" stroke-width="1.515" class="B F"/><g class="C B"><path d="M611.978 198.26l-16.645 61.095c-.183-.182-6.95-12.62-6.95-12.62l-66.764 114.69 2.743 19.938-23.96 43.9-9.878-19.207-22.863 4.39 25.607-46.462 17.926-8.23 67.494-113.23-16.096-1.097 49.387-43.17z" class="I"/><path d="M490.9 405.325c0-.365 23.047-40.608 23.047-40.608" class="F"/><path d="M37.632 186.735l40.24.183-4.024 9.695 17.56 69.5 21.218-69.327-7.5-10.06h41.887l-8.963 9.695-34.57 99.326 8.962 12.987h-40.24l8.963-12.987-33.84-98.96-9.694-10.06zm617.33 2.378h38.23l-6.22 8.597-.184 101.155 8.598 9.512h-40.424l8.048-10.243-.183-100.24-7.865-8.78z" class="I"/><path d="M353.586 97.64s4.902 6.157 6.727 6.727 12.085 5.587 11.516 9.007-7.297 5.13-7.297 5.13M361.68 88.52l10.26 9.805s1.824 8.437 9.12 7.753 6.27-3.763 6.27-3.763-8.778-6.157-15.733-4.675" class="F"/><g class="D"><path d="M299.116 397.538l13.705-11.383s-3.02-6.272-13.938-6.04c-10.22-7.2-27.873-24.158-27.873-24.158l-8.827-23.926s7.2-2.1 8.827-7.897-.465-13.01-1.162-13.705-7.897 1.16-9.988 4.18-5.343 14.635-10.22 10.686.697-8.362.697-8.362 4.878-6.04 4.646-9.292-6.503-13.008-7.2-13.24-2.1 12.776-3.95 14.17-4.413 7.2-8.13 3.95 1.858-8.13 1.858-8.13 10.453-5.574.232-23.926c-3.02 7.898-8.826 13.008-8.826 13.008s-2.788 4.88-5.343.697 3.02-8.13 3.02-8.13 9.06-5.343 9.292-13.24-10.917-16.957-10.917-16.957-.696 14.635-4.18 16.493-4.878 4.878-8.827 1.626 3.02-10.453 3.02-10.453 12.08-12.08 11.382-19.048-1.394-8.13-1.394-8.13-9.06 5.575-10.22 8.362-4.878 12.776-9.524 9.756c-3.252-3.716 2.788-10.917 2.788-10.917s4.413-4.878 4.18-6.97-3.716-8.362-10.453-14.402c-.93-1.858-1.394-9.292-1.394-9.292s-5.1 6.04-4.877 9.292-.465 9.756.232 16.957-5.575-2.323-5.575-2.323l1.162-23.23s-8.827-10.686-19.512-14.634c3.95 5.807 3.716 11.382 3.716 11.382s-4.413 9.524-4.413 12.08 5.1 13.705 14.634 21.138c-14.402-15.563-32.287-10.453-37.63-13.473 2.555 3.02 10.22 14.402 9.292 17.422s13.705 9.292 13.705 9.292l15.563.232s7.665 5.342 8.362 8.826-11.15-6.504-15.795-6.27-16.957-1.625-16.957-1.625 7.433 6.968 7.665 9.988 3.484 9.988 7.898 11.847 16.26 2.556 16.26 2.556 5.1-3.02 6.04.23-6.736 5.808-6.736 5.808-7.897 0-10.453-2.09-3.02-5.575-14.4-6.97c-1.162 9.524 6.27 19.28 6.27 19.28s31.358-2.555 31.125 4.182-26.015.696-26.944-1.395 1.162 13.24 7.2 16.492 19.512 1.627 21.138.93 7.665-1.394 7.665 2.09-30.66 6.272-31.125 5.343 4.646 11.847 16.957 11.15 17.653-4.414 17.653-4.414 7.433-1.395 8.13 1.626-7.433 4.413-7.433 4.413-19.512.465-20.208-.465 4.414 12.312 18.118 12.08c10.22-.93 10.917-5.344 13.008-6.04 3.02-.696 9.524-.696 10.453-.464s17.19 11.613 17.19 11.613l41.344 41.814z" fill="#188400"/><path d="M179.26 214.028s-.465 22.3 10.685 29.037m12.775-11.383s7.433 11.382-5.1 15.563m-33.46-7.897s-.93 12.775 21.603 11.847m34.147-.697s-3.716 9.06-12.775 8.594m21.135 11.848c0 1.16 1.626 13.473-10.22 13.24m-46.456-18.352s14.866 9.293 21.602 8.596m-18.35 13.936s6.968 7.434 19.744 5.574m41.578-.464c0 .93-2.322 8.13-7.433 9.06m-42.275 7.435s5.575 7.2 20.208 3.252m43.437-6.273s-2.323 11.382-8.362 11.614m22.53.698s-4.646 13.705-16.492 11.614m-38.094 12.776s4.646 4.182 16.027-.93M196.913 329.7c.93 0 6.736 4.878 20.673-2.555m81.508 53.312s-8.68 3.886-.26 16.97" class="E F"/></g><g class="G"><path d="M469.593 266.324s9.12 8.757 9.304 10.582 2.372 10.398 4.743 11.676 11.676 8.757 12.953 11.676 9.486 15.325 9.486 15.325 7.662 15.69 12.77 16.967 19.52-.912 22.44 6.02 2.19 16.967 2.19 16.967-3.467 3.102-5.108 1.277-4.56 9.12-9.67 6.02c-6.958-14.815-25.168-12.397-25.168-12.397s4.006-6.21-12.23-11.685c-25.358 4.38-32.838-22.074-32.838-22.074l-14.434-12.52 25.563-37.835z"/><path d="M454.998 303.906l11.3 5.3-.912-9.67m5.656 2.92l10.398 5.108-4.195-8.392m-6.75-10.398l10.216 5.473-4.743-10.58m10.762 55.277L475.248 323.6c.183 0 19.885 3.83 19.885 3.83l-7.297-15.7 18.06 4.743"/><path d="M520.3 341.307s11.493 2.555 11.128 21.7m-5.1-24.63s12.406-.73 11.676 18.608M312.38 268.698s-9.122 8.757-9.304 10.58-3.885 9.264-6.256 10.54-10.54 9.514-11.818 12.434-9.108 15.703-9.108 15.703-8.986 13.04-14.094 14.318c-6.243.52-18.196 1.736-21.115 8.668s1.594 17.535 5 17.535c5.107 2.27 7.438 4.614 9.08 2.8 2.776.823 1.188 3.2 6.297.1-3.883-4.976-3.468-9.784.424-11.045 3.882-1.328 10.205 4.58 10.205 4.58s2.302-10.743 18.54-16.217c25.358 4.38 32.172-16.084 33.947-20.965 3.998-5.442 10.216-6.9 15.324-10.336l-27.12-38.686z"/></g><path d="M327.418 304.062l-11.755 6.178.912-8.338m-4.767.478l-11.064 5.107 5.083-8.613m6.306-9.954l-9.55 4.142 3.412-7.032m-10.32 52.838c1.775-3.55 10.788-14.66 10.605-14.66s-18.554 3.832-18.554 3.832l5.966-15.47-16.064 3.2m-15.208 25.452s-13.952 2.554-8.48 19.818" class="D E F"/><path d="M256.4 338.87s-15.242.405-9.973 19.365" class="F"/></g><g class="D E B F"><path d="M424.325 324.893c0-.19 5.107 12.862-5.863 15.132 28.183-2.08 36.127 30.075 36.127 30.075" stroke-width="1.854"/><g class="C"><path d="M417.895 329.622s2.46 9.458-5.674 14.187c29.506 6.432 36.315 37.074 36.315 37.074m-36.884-46.9c0 .38 2.838 12.295-6.43 14.187 18.348-4.92 37.45 41.613 37.45 41.613m-39.91-50.503s4.73 9.078-3.972 11.916c16.455 1.702 21.752 55.8 21.752 55.8M397.1 342.484s2.647 10.025-5.863 13.05c17.212-9.078 13.996 60.908 13.996 60.908m-19.483-73.4s-3.594 10.593 4.35 12.673c-15.7-4.35-12.673 60.72-12.673 60.72m.946-77.555s-2.46 9.646 7.188 14.564c-16.077-10.214-22.697 54.287-22.697 54.287m41.044-59.96s29.316 28.184 29.128 49m-75.468-71.698c0 .2-3.594 15.133 6.8 15.5m.577-10.024c0 .378-2.838 12.672 5.484 13.24m1.136-9.646s-5.107 12.295 7.376 13.997"/><path d="M377.985 348.348c-.2 0-24.4 22.5-28.183 48.612m23.643-50.882c-.188 0-30.83 19.104-32.9 43.505m26.102-46.72s-34.046 19.86-32.533 37.83m24.4-42.18s-25.345 4.73-31.587 31.967"/></g></g><use xlink:href="#B" class="B C F"/><path d="M305.05 164.236s24.51 13.536 42.07 12.805 43.9-12.073 43.9-12.073 23.413 13.17 42.436 11.342 45.362-12.073 45.362-12.073c15.73 78.534-20.12 149.02-87.798 180.726-71.823-32.805-106.698-111.704-85.97-180.726z" fill="#fff" class="B C"/><path d="M314.083 221.308V270.4l13.926 23.48v-72.583h-13.926zm27.85 0v88.907l13.926 12.962v-101.87h-13.926zm27.852 0V333.7l13.926 7.732V221.308h-13.926zm97.482 0v49.116l-13.926 23.684v-72.8h13.926zm-27.85 0v89.345l-13.926 12.7V221.307h13.926zm-27.852 0v112.18l-13.926 8.296V221.308h13.926z" fill="#be0a2f"/><g class="B C"><path d="M305.05 164.236s6.128 3.384 14.45 6.676 18.84 6.494 27.62 6.127c17.56-.73 43.9-12.073 43.9-12.073s23.413 13.17 42.436 11.342 45.362-12.073 45.362-12.073c3.842 22.804 5.762 34.45 2.378 57.072H300.157c-2.302-22.574-2.18-32.804 4.893-57.07z" fill="#002768"/><use xlink:href="#B" class="F"/></g><defs ><path id="B" d="M305.05 164.236s24.5 13.536 42.07 12.804 43.9-12.073 43.9-12.073 23.412 13.17 42.436 11.34 45.362-12.072 45.362-12.072c15.73 78.534-20.12 149.02-87.798 180.726-71.824-32.804-106.7-111.704-85.97-180.726z"/></defs></svg>