<svg xmlns="http://www.w3.org/2000/svg" height="496.063" width="826.76" xmlns:v="https://vecta.io/nano"><style><![CDATA[.B{stroke:#000}.C{fill:none}.D{stroke-linejoin:round}.E{stroke-width:1.378pt}.F{stroke-linecap:round}.G{fill-rule:evenodd}.H{stroke-width:1.723}]]></style><g class="G"><path d="M0 0h826.76v248.03H0z" fill="#fff"/><path d="M0 248.032h826.76v248.03H0z" fill="#00ab39"/><g class="B"><path d="M541.625 28.563c-52.282 28.904-99.065 58.983-145.062 97.313-22.06 19.27-15.834 34.632-16.687 51.938.71 11.618-2.51 22.427-9.656 28.938l-49.062 9.938-4.687-13.562c1.495-6.94 7.23-10.352 19.313-6 .952-8.923-6.227-12.555-14.625-15.656-2.885-2.246-6.468-3.97-6-11.687-1.412-17.467 26.615 1.25 26.875 1.25s-.933-17.627-13.812-21.156c-7.022-2.485-9.993-9.892-7.312-15.375 5.618-11.21 16.193.88 24.28 1.313-.303-7.317-2.387-12.53-8.687-18.437-3.392-2.087-11.72-3.657-11.937-7.156-.177-4.752 7.807-6.784 18.78-5.47-2.288-6.66-9.668-10.968-19.812-14.094l-6-10.437c-2.84-5.26-4.115-5.402 2.47-15.375l19.688-13.062-6.53-.78c.87-7.13.97-9.53 2.625-21.375-6.346 8.672-14.275 7.122-21.406 10.688 0 0-20.33 3.61-26.875 12.25-.26 0-51.125-2.594-51.125-2.594-10.84 1.5-20.1 4.582-21.906 15.125-24.792 2.502-50.755.29-69.656 24 12.87-.61 24.136-3.674 38.594-1.812 0 0 12.32.233 14.875 13.28.26.52 4.188.53 4.188.53l4.688 3.656 1.813-4.97 4.188 2.875 1.313-5.47 4.156 2.875.28-6.53 5.47 3.906v-8.594s20.192-.047 26.344 12.78c.262.26-56.67 10.463-111.656 5.75l15.906-7.844c-20.05-4.076-38.9-7.76-56.594-21.656 6.677 25.137 41.18 54.663 48.25 54.53 0 .26-6.78-12.25-6.78-12.25l59.75 2.594c2.175 6.6 1.213 14.02 6.53 19.844 0 0-3.3 10.925 4.03 15.375.262.52 8.75-22.156 8.75-22.156s2.6 6.1 5.22 10.156c3.795-19.508 25.03-22.687 25.03-22.687l4.438 10.438c-6.636.96-14.89 14.486-10.437 21.906-4.45.085-12.35 13.186-9.906 20.344-3.74 3.723-13.06 8.686-10.687 24.28-7.334 1.572-11.676 14.99-9.406 29.22-11.35 10.564-8.564 29.956 1.563 37.813-4.203 3.74-6.8 6.616-6.78 11.22-3.996-1.485-7.68-.244-9.406 2.375-4.898-5.02-11.933-9.418-16.937-4.72-1.296-5.94-9.032-12.475-17.5-11.72.496-6.264-2.755-14.018-11.72-16.72 0 0-1.814-29.358-10.72-38.875-.873-5.326.5-8.947 7.844-13.312 7.323-3.906 8.88-6.935 8.344-18 2.887-7.396 5.08-14.936-3.906-20.062.27 8.795-2.43 13.03-6 16.938-4.266-.62-5.755 4.357-8.625 6.53-4.016-5.413 8.472-13.8-.78-25.844-.52-.523-6.46-15.723-21.125-15.375 6.97 4.082 9.92 10.95 9.906 18-4.624 13.045-6.974 23.127-2.344 38.094-6.093-9.13-9.55-26.482-14.594-29.5-4.422-.863-6.582-11.322-23.75-8.344 7.406 1.992 9.757 7.647 11.75 12.78-4.54 2.342-2.285 8.52 1.03 12.78-.63 10.015 5.37 15.866 14.344 19.594l-4.437 40.938c-3.565-.455-9.05 13.425-11.22 13.844-3.49 2.17-9.58 8.01-2.594 9.656-2.076 7.49-4 12.01-15.156 13.563 0 0 11.787 6.99 21.563-4.97 10.474-.262 7.03-12.752 12.094-18.25 0-.26 2.874-2.065 7.063-13.062 1.832 9.82 11.907 39.89 34.688 54.813 19.856 21.256 36.175 41.33 36 69.656 7.75-7.21 12.38-18.625 15.938-29.5 10.777-3.748 26.19-5.18 39.938-4.562-2.358 4.96-4.997 9.72-1.594 12.938-9.593 3.295-11.695 10.257-7.844 17.22-10.112 6.867-10.778 11.28-10.937 22.688-18.708 23.985-30.25 23.19-48.78 16.97-6.086-3.572-15.505-8.714-19.844-6-8.004-5.334-19.512-6.127-21.406 6 6.006-4.978 9.592-4.02 14.375.78-.962 2.436-1.766 4.862 1.813 6.25l-4.687 5.22c-8.613-1.324-20.194-1.25-23.22 11.22 4.424-3.665 14.24-4.525 22.156-1.03l4.438 1.563.53 6s-11.732-1.81-14.875 17.22c11-11.702 18.78-8.625 18.78-8.625 4.24 6.205 19.84 5.27 31.063-4.937 15.762-8.812 20.357 3.85 30.53-4.437 8.436-6.292 18.417-2.108 25.28 5.22 7.915 2.97 16.2 5.413 22.72 0 0 0 7.963-5.08 15.906 3.125.087-9.253-6.47-14.17-15.375-14.344-.87-.87-.36.34-2.625-2.625-8.35-1.74-17.73-1.034-25.03-5.22 3.442-13.065 8.457-24.904 18.25-34.97 12.088-12.958 20.987-18.85 36.25-38.687-.59 11.21 8.003 23.676 12.53 35.063 0 0 9.116-14.555 10.438-26.375.26 0 11.423-5.8 16.188-10.75 10.056 6.237 26.446-4.993 37.03-14.28 6.525 2.47 11.478 2.293 19.063 0-6.088 12.4 3.52 23.885 18.78 28.688 1.41 10.938 12.46 13.228 29.22 13.313.706 6.436 10.688 7.313 10.688 7.313-6.307 2.94-9.595 5.886-9.375 12.53-6.465.044-11.36 1.67-13.062 9.125-8.876.152-17.92.833-25.562 5.22-8.175-1.27-18.12-4.657-24.53-11.22-3.306-2.783-4.13-6.796-9.906-8.344-3.66-4.326-8.04-3.36-9.406.78-3.783-2.955-17.972-4.328-20.344 9.125 6.624-4.848 12.564-6.696 16.72-.78-2.264 4.107 5.516 6.456 12.25 8.094 4.776.296 13.247 4.647 15.906 12-6.16 1.87-15.496 1.253-21.656-3.406-5.476-4.582-12.873-4.036-16.937-1.03-5.64-3.596-19.07 3.192-19.594 14.063 5.658-5.184 10.808-7.69 15.938-4.406-2.553.606-1.582.855-1.312 2.344l13.03 7.563c-6.394 1.687-12.405 4.237-9.625 16.156 0 0 5.21-10.296 16.938-6.5.26-.26 1.617 3.677 4.97 1.03 5.076-5.776 16.682-8.362 26.875-9.375 8.18-.977 16.347-3.387 23.47 1.28 6.34-3.262 13.4-5.456 20.625-.25 8.523 2.696 14.745 12.63 25.563 8.094 5.38-3.723 12-3.912 18.78 3.656.083-9.543-7.07-12.742-17.22-14.875l-7.03-4.187c-6.522-.957-13.072.2-19.594-2.875 34.134-8.824 58.062-27.86 74.906-55.03l16.156 5.72c3.825.245 4.117 1.575 12 3.938.297-11.614-4.688-23.577-25.562-24.78l-27.406-10.437c-5.817-6.135-8.446-19.152-1.03-26.875 7.258-6.463 8.524-5.688 13.313-13.562 5.822-.53 11.3 5.47 16.688 5.47 2.554 7.587 17.274 14.294 26.625 12 5.86 5.187 17.008 8.07 29.22 3.906 6.93 6.067 15.96 8.6 26.594 3.906 2.823 2.823 8.783 5.068 15.656 3.656.522 0 3.473 7.54 10.97 10.188-3.268 3.176-1.258 16.966 2.094 21.906-2.288 5.302-3.01 10.96-1.062 16.438-7.56 4.86-9.098 8.476-5.72 16.688-9.9 15.906-21.74 17.724-32.875 12.813l-12-7.594-12.78-12.5c-2.17-2.037-6.66-2.678-7.594 1.813 0 0-16.4-3.658-17.72 10.188 6.797-6.62 16.438-.792 16.438-.53s-2.296 1.823-.53 4.47c.397-.33 11.973 4.32 22.28 8.75 5.6 2.123 6.83 2.786 9.28 4.094l-9.28-4.094c-6.275-2.378-12.388-4.28-14.187-3.812-5.84-.545-12.035-1.27-14.875 3.125-6.277 2.656-16.083 4.784-15.656 16.438 4.24-6.94 10.055-6.647 17.47-6l-.5 1.563c8.05 3.666 6.523-.998 14.03-1.687 6.277-.576 15.174 1.673 19.875 3.25-5.913 1.74-13.954 1-17.75 5.22-.696 1.392-3.13.823-2.062 4.156 0 0-11.534-.298-14.625 15.656 11.728-7.51 20.615-7.28 20.875-7.28s3.656.78 3.656.78l14.344-9.406c.262 0 13.638-5.923 19.813.78 5.39 2.65 11.153 2.818 16.72-.53 10.966-4.77 21.23-5.104 31.313 1.594l9.125 5.47 3.906-2.625s10.33-2.917 17.906 6.28c-3.132-15.915-14.5-16.437-14.5-16.437l-2.625-2.344-16.156-6.28c-2.354-5.826-8.268-10.465-2.375-17.47 6.02-29.926 13.217-52.4 1.563-82.72 10.87 4.696 19.005 19.217 32.625 14.094 0-12.176-44.822-35.294-79.062-53.875 56.094-2.87 123.515-44.277 97.594-96.906l12.25-38.094c5.77 11.623 17.453 20.483 27.938 24.25-8.64-16.496-13.6-66.93-8.625-101.75-22.603 27.922-47.563 52.702-74.094 77.875 13.05 3.05 24.452.904 37.063-.656l-10.594 21.938c-34.473-20.188-74.947-5.038-75.25 21.906 1.18 31.42 40.028 35.886 62.438 24.938-4.443 28.647-70.28 18.094-70.28 18.094-23.394-8.064-45.615-6.683-70.187-6.5 5.106-15.7 33.46-29.652 55.063-23.5-30.243-33.91 4.274-76.008 45.906-88.97-45.376-14.966-6.305-49.558 27.656-74.344 0 0-97.66 41.1-106.562 40.97-27.755-2.096-20.136-35.045-9.53-52.72zm-311.27 39.975c1.006-.545 7.478-.74 11.714.29 4.404 1.073 9.746 1.692 9.672 3.003-2.04 3.412-7.032 7.527-11.954 7.28s-7.792-3.178-9.43-10.573z" fill="#d21034" class="D H"/><path d="M667.73 194.658c-3.6 10.37-34.84 15.678-36.935.325-1.066-7.816 18.503-19.872 36.935-.325z" fill="#fff" stroke-width="1.525pt"/></g></g><g class="C B"><g class="F"><path d="M715.956 116.25s-2.136 25.915-5.268 31.184" class="E"/><path d="M703.853 117.675c0 .142-10.822 29.19-10.822 29.19" stroke-width="1.725"/></g><g class="E"><path d="M682.472 168.838c2.167 1.686 10.54 6.154 16.07 16.496M668.03 195s7.8 6.8.936 23.205M552.06 243.408c15.38-1.85 37.45 32.323 48.698 39.016m65.36 147.948s-6.408 4.698-3 10.822m-104.648-5.127s7.688 2.136 6.835 8.544m-22.357-30.9s5.553 5.84 1.85 10.68m6.978-33.178s7.404 3.56-1.424 9.683m-91.56 29.2s-6.408 5.4-1.708 11.535m-107.508-9.968s11.677.57 7.547 9.397M340.9 412.003s3.9 7.23-3.646 9.223m18.313-33.288s3.846 7.7-3.56 8.686m-4.84 33.32s11.25-9.683 16.518-4.557 27.624-4.413 27.624-4.413m7.7-14.383l-18.5 9.682m44.568-14.95s13.67 14.667 23.637-3.134"/><path d="M438.3 392.067c9.255 7.404 5.463 11.84 34.513-7.666m-25.686-4.72s24.776 2.564 25.915 4.415c2.85-3 24.972-20.9-2.225-23.473-4.555 18.654-23.263 19.343-23.7 19.058zm-294.7 55.436s9.123 1.336 3.782 8.678m-7.787-26.034s6.675 4.23-.9 9.8m11.358-28.25s3.115 8-7.344 6.898m.668 22.9s12.685-10.46 19.36-4.005c6.454 2.226 10.013 1.78 10.013 1.78m84.78 1.557c-.223 0-3.783 7.565-.667 11.347m-112.373-27.813c8-.445 9.735 3.172 17.023 3.172 8.396.256 16.577-3.172 27.26-6.065m-98.58-237.876s5.118 2.448 10.014-5.117m-13.13 101.246s8.233 2.448 6.898 8.68M127.727 157.4s0 4.895 10.236-2.67m.89 25.812s-7.8 20.917 1.557 25.8m7.79-31.596s4.005 8.68 9.57 3.783m-18.026-58.746l-6.454-10.458 5.786-2.003m64.977-40.722s6.23 7.788 6.452 12.238-4.672 7.788-4.672 7.788M199.6 76.2s-1.334 4.673-1.78 7.788c0 2.225-7.122 5.118-7.122 5.118m94.13-36.05c.222.223-.9 6.23-4.23 9.8m-56.74 6.9s9.774-2.7 17.088-1.165c7.245 1.5 16.958 4.058 16.958 4.058s11.57-1.558 15.354-4.228"/></g></g><g class="D B"><path d="M234.76 68.178l12.016 2.225s-8.456 11.35-12.016-2.225z" class="E G"/><path d="M251.004 101.78l15.8 30.263 7.565-11.35 4.006 7.788 6.453-11.348 11.126 7.12-4.228-13.796 9.345-.667s-2.448-6.676-10.904-8.01c2.226-1.78 10.014-6.898 10.014-6.898s-4.45-5.118-11.348-5.34c2.225-2.448 5.34-8.456 5.118-8.456s-6.9-1.558-6.9-1.558 15.8 5.118 28.038-2.003" class="C F H"/></g><g class="E B C"><path d="M199.36 122.834l24.274-.36c7.723-.115 20.442-10.82 34.684-7.48"/><path d="M202.94 122.25c0-.223 1.78-4.673 1.78-4.673l1.984 5.144 3.193-.083 2.107-5.158 1.73 5.177h3.173l1.957-5.748 2.957 5.443 2.51.127 1.978-6.63 4.077 4.75 1.48-.573 1.27-6.63 4.028 4.638 1.155-.678 1.868-6.535 3.346 4.86 1.684-.55 1.563-5.493 3.1 5.048" class="D"/><path d="M304.188 73.74s-12.463-.445-11.573-5.34c.892-5.563 13.13-9.568 13.13-9.568s16.243-10.458 18.69-14.02"/><path d="M307.08 52.602s4.006-4.005 10.682-2.003m-110.15 228.084s-1.557 7.788 9.346 23.365c-3.115 17.356 13.195 30.996 19.65 33.22"/><path d="M151.917 247.548c-12.238 6.9 6.964 50.494 65.04 54.722"/><path d="M198.442 280.8s4.052 12.803.714 18.812M181.734 276.2s-4.83 9.382-5.942 13.832m-11.517-25.505s-3.615 7.703-8.066 9.93m214.067-68.094s15.576-.222 31.153-42.5C416.783 106.007 538.502 41.476 540.95 29.46"/><path d="M414.618 138.138c22.867-12.693 93.476-38.575 140.574-57.56" class="F"/><path d="M651.728 42.86l-219.34 106.367c36.505-11.016 191.333-36.82 195.1-34.617-9.126 2.203-196.998 45.315-205.8 55.7 46.89-1.574 145.075 15.105 160.494 31.154-33.358-7.552-133.115-22.343-163.64-15.735 22.344 5.35 107.94 60.737 107.94 69.548-12.902-12.272-115.807-54.757-119.897-50.665 23.6 14.16 56.96 66.714 56.958 79.617-6.923-11.014-66.4-74.898-69.86-70.807 6.294 8.813 18.766 84.222 12.4 87.717 0-9.126-23.1-75.13-24.978-77.017-4.72 1.258-34.152 80.528-28.32 87.9-3.776-26.433.628-81.604 7.866-79.402-12.9 1.888-54.078 56.18-49.673 64.677 1.26-13.532 3.1-22.507 26.386-67.51-25.805 1.572-79.302 35.246-88.43 47.204 7.24-21.398 52.555-57.6 72.38-60.107" class="D"/><path d="M249.28 123.212l12.975.16m-64.23-23.852s8.722 3.338 26.812-10.983m31.443 175.518c-5.168-6.676 3.876-109.188 23.044-135.893-6.676 48.24 15.506 97.558 21.105 97.343m-47.165-92.4s9.046 9.907 19.384 8.184m-29.504 14.43s4.522 7.753 21.75 9.045m-31.707 11.345s11.68 14.283 27.4 12.13m-37.903 12.275s3.23 10.553 34.243 11.2m-43.29 18.52s14.43 12.92 41.566 8.83"/><path d="M215.146 267.5s18.52 10.337 41.35-3.66m272-36.827s-12.922 10.984-.862 28.643c-40.058-.645-61.592 17.875-63.315 30.365-51.04-3.66-41.78 11.416-58.364 16.368-22.182-18.52-54.702-8.183-52.548 10.337-14.86-20.9-37.688-10.767-40.487-5.6s-1.723-25.628-1.723-25.628-14.86 6.677-25.2 18.952c.217-8.183 0-21.536 0-25.843-12.418 2.512-24.407 2.654-37.257 2.37"/><path d="M259.992 277.1c-.216 0-21.372 33.268 11.794 42.098m38.982-22.398s-5.385 2.584-7.323 2.153c-6.46 1.508-5.17 16.584 3.014 15.722 2.8-3.23 5.815-7.753 5.815-7.753"/><path d="M299.137 305.835s-2.368 3.232-6.03-.215c-1.94-3.445-8.83 15.507 3.23 16.152 2.153-5.6 8.83-7.107 8.83-7.107"/><path d="M289.23 312.94c-9.476-.646-14.644 20.245 3.662 7.1m-10.338-4.082s-10.553-8.184-10.12 3.23c-.217 7.106 3.23 8.83 3.23 8.83.43 5.17 4.954 12.5 8.614 5.815 1.508-6.46-1.076-9.26-1.076-9.26m-55.996 63.745c-.215 0 1.723 14.215 11.63 3.446 6.9-14.428 28.643-55.132 33.597-69.13"/><path d="M257.357 311.435s-15.3 4.307-9.476 22.397c8.83 7.108 17.444 6.03 17.444 6.03m-19.167 8.185s10.337 4.522 13.783 2.8m-21.638 14.93s4.624 8.114 11.086 5.313m71.07-69.13s1.3 21.75-5.17 29.504 1.513 23.856 1.513 23.856m20.023-54.438c.215.43 4.1 34.673-4.524 44.364M369.776 294s12.636 24.45-.07 36.5m36.25-28.973s-7.323 21.753-17.66 29.074m53.626-28.21s-34.028 58.148 28.858 58.148m-75.16-37.475c0-.215 34.845.097 37.213 6.557m-25.8 29.626c.43-.432 24.982-2.8 29.505-11.63m.025 24.842c.216 0 15.05-8.905 12.036-15.152m-13.353-71.5c1.722 22.613-26.06 35.535-37.043 33.382m34.9-19.814s19.383 9.476 35.964-5.815m-4.522-7.32s7.323 13.136 16.152 12.275c11.63-3.446 15.936 3.66 15.936 3.66m16.8-46.086s-.862 32.735 45.225 39.4c51.472 14.215 75.807 6.677 78.823 64.394-1.938 21.967-4.668 46.778-20.604 37.3"/><path d="M622.6 380.565s7.607 6.4 12.776-2.007m-11.758-14.93s9.4 1.697 13.706-7.347m-16.342-14.594s10.167 2.534 13.397-4.143m-13.062-22.664s-7.727 15.126-10.526 16.634m-9.5-26.314s.432 16.15-6.46 22.612m-15.292-26.5s-.215 13.353-11.2 22.613m-29.288-4.09c.215-.216 17.66-19.383 13.137-25.198m-18.952-7.753s-2.3 18.453-20.82 21.252m-257.55-57.155s35.657-21.38 37.595-37.102m-36.396 18.52c0-.215 22.33-5.693 31.6-30.244M256.7 218.83c1.94.86 26.367-16.732 27.014-29.653m-25.496 13.93c7.107-1.938 20.183-17.753 22.767-26.152"/><path d="M261.45 186.094s10.122-7.107 17.875-17.875m-13.955-2.313c.215 5.815 9.437-2.048 13.098-7.002m6.886 68.756l4.308 5.383m-13.416 3.004l2.862 4.534m-12.705 3.66c0 .215 3.445 4.954 3.445 4.954m-9.476-1.508s.215 6.9 3.66 7.32m-2.152-24.764s3.877 13.137 7.323 10.982m2.583-17.23c.215.432 4.307 12.277 4.307 12.277"/><path d="M280.4 216.03l5.168 10.338m-10.988-20.25c.216.215 5.606 7.974 7.112 6.897m-14.86.215s3.015 11.845 5.383 10.767m-15.676-1.877l5.556 8.34m2.584-31.23s1.938 12.5 3.66 12.06m3.544-19.177c0 .215 5.5 10.565 5.932 10.565m-17.014-12.062c.215 0 6.03 6.677 6.03 6.677m2.585-17.013c.215.216 4.954 8.184 4.954 8.184m-2.585-22.614s0 9.26 1.938 9.476m-6.46-16.583l4.737 6.9"/></g></svg>