<svg xmlns="http://www.w3.org/2000/svg" xmlns:xlink="http://www.w3.org/1999/xlink" width="750" height="500" xmlns:v="https://vecta.io/nano"><path fill="#fff" d="M0 0h750v500H0z"/><path fill="#d42e12" d="M184.013 105.044v-54.44h17.75l11.6 41.43 11.45-41.43h17.83v54.44h-11.253V61.138l-11.847 43.906h-12.283l-12.006-43.906v43.906h-11.253m92.56-43.536L268.5 84.68h16.206l-8.123-23.172M269.6 50.605h13.868l21.04 54.44h-12.6l-3.962-11.198H265.32l-3.843 11.198h-12.64l20.763-54.44m67.004 54.44h-12.006v-20.3l-21.2-34.15h14.7l12.48 23.468 11.53-23.468h13.7l-19.218 34.15v20.3M370.76 77.88c0 5.987 1.426 10.644 4.28 13.97 2.853 3.302 6.842 4.952 11.966 4.952 5.177 0 9.206-1.65 12.085-4.952 2.88-3.326 4.32-7.983 4.32-13.97s-1.44-10.63-4.32-13.933c-2.88-3.326-6.908-4.99-12.085-4.99-5.125 0-9.113 1.65-11.966 4.952s-4.28 7.958-4.28 13.97m-12.244 0c0-8.796 2.562-15.77 7.687-20.918 5.15-5.174 12.085-7.76 20.802-7.76s15.65 2.587 20.802 7.76c5.177 5.174 7.766 12.147 7.766 20.918s-2.59 15.744-7.766 20.918c-5.15 5.174-12.085 7.76-20.802 7.76s-15.65-2.587-20.802-7.76c-5.125-5.174-7.687-12.147-7.687-20.918m78.653 27.164v-44.72h-17.315v-9.72h46.518v9.72h-17.197v44.72H437.17m48.182 0v-44.72h-17.315v-9.72h46.518v9.72h-17.197v44.72H485.35m36.097 0v-54.44h42.358v9.46h-30.5V71.67H561.2v9.313h-27.895v14.007h31.937v10.052h-43.784"/><g id="A"><path fill="#dfdfdf" d="M220.566 144.817c-5.075.715-8.9 2.11-14.01 5.182-1.644 1-3.18 1.715-3.467 1.608s-.608-.965-.75-2c-.143-.965-.465-2.073-.715-2.394-.715-1-1.394-.18-2.716 3.18-.608 1.608-1.287 3.145-1.465 3.36-.643.786-1.5.5-2.537-.786-1.036-1.322-2.61-1.715-2.966-.75-.107.286-.036 1.43.18 2.573.643 3.36-.393 3.86-3.324 1.608-2.537-1.966-3.502-2.36-4.467-1.858-1 .536-.965 1.287.322 4.253 1.108 2.573 1.18 4.432.107 2.93-.286-.393-1.608-1.287-2.966-1.93-1.358-.68-3.467-1.787-4.717-2.502-1.25-.68-2.966-1.5-3.824-1.823-1.572-.536-10.078-1.787-10.793-1.537-.214.07.965 1.036 2.573 2.18 3.538 2.43 10.328 8.65 10.328 9.435 0 .465-.393.536-2.86.322-3.252-.286-3.18-.393-2.466 3.002.25 1.18.286 1.966.07 2.18s-1.322.143-3.002-.214l-2.895-.536c-.536 0-.286 2.823.465 5.218.715 2.25.715 2.466.143 2.86-.715.536-1.537.286-6.97-2.216-3.216-1.5-4.038-1.75-5.8-1.68-1.108.036-2.43.286-2.966.572l-1 .5 2.323 2.502c2.752 3.002 5.54 7.005 5.968 8.613.786 2.68-1.858 3.145-10.757 2-4.86-.643-8.148-.536-9.756.322-1.25.643-5.54 4.646-5.54 5.182 0 .18 2.073.43 4.6.536 5.325.214 9.185 1.144 12.365 2.895 3.002 1.644 2.93 2-.322 2-2.716 0-4.29.43-5.718 1.572-.68.536-.68.572 0 1.322 1.036 1.144 3.038 2.037 5.504 2.43 1.25.214 2.323.43 2.394.536.07.07-1.036.322-2.466.536-3.717.608-8.935 2.144-11.472 3.43-2.287 1.144-2.394 1.287-2.86 4.6l-.214 1.358 1.144-.25c1.787-.393 11.007-.608 12.508-.286 2.287.5 1.644 1-1.894 1.43-4.432.536-6.933 1.036-8.113 1.644l-.93.5 1.93.93c1.072.536 3.538 1.287 5.504 1.68 8.363 1.715 9.4 2.68 2.394 2.323-5.754-.286-8.04-.07-7.862.822.18 1 3.717 2.716 7.398 3.645 2.25.572 1.394 1-2.287 1.144-3.324.107-5.825.965-6.862 2.36-.822 1.036-.322 5.754.643 6.36.214.107.643-.036.965-.322.322-.322 1.787-1.108 3.252-1.823 2.752-1.322 2.788-1.322 6.72-.715 1.68.25 3.145 1.644 4.396 4.217a28.31 28.31 0 0 0 2.788 4.289l2.36 2.93c.68.822.68.858-.07 2.36-.393.858-.822 1.823-.93 2.144-.643 2.216-11.58 1.465-20.192-1.394-3.43-1.144-8.506-3.645-10.793-5.325l-1.75-1.287v1.394c0 3.43 2.68 9.256 5.36 11.65l1.715 1.537-1.75 3.36c-2.18 4.18-2.323 5.8-.643 7.47.608.643 1.036 1.358.893 1.644-.107.286-1.036 1-2.073 1.572-3.216 1.823-3.073 1.644-1.75 2.323.643.357 2.394.715 3.824.822 1.572.143 2.823.393 3.038.68.893 1.072-.965 3.43-4.18 5.36-.536.322-.143.465 2.18.822 1.572.214 3.86.43 5.075.465l2.216.07-.75 1.358c-.893 1.608-2.573 3.36-3.967 4.217l-1 .643 1.108.143c.608.107 1.858.036 2.788-.107 2.68-.43 5.933-.357 6.647.143 1.108.822.18 2.68-2.61 5.36l-2.43 2.36 1.572.25c2.966.43 6.72-.036 8.72-1.072 1.036-.5 1.93-.893 2-.822.5.536-1.43 5.718-2.68 7.148-.286.322-.43.715-.286.893.143.143 2.073.25 4.253.25 3.11 0 4.29-.143 5.218-.643.68-.322 1.287-.608 1.358-.608.036 0 .107.75.107 1.68 0 1.215-.25 1.966-.93 2.86l-.893 1.18h1c2.323-.036 7.827-1.823 9.792-3.252 1.287-.893 1.394-.858 1.394.465-.036 1.5-.822 3.68-1.644 4.6-.75.858-.572.858 2.93-.036 3.145-.786 5.933-1.894 7.362-2.895 1.322-.965 1.465-.858 1.18.643-.322 1.787-1 2.823-2.36 3.538-.608.286-1.036.643-.93.715.286.322 7.827-.858 9.542-1.465.858-.286 1.858-.822 2.216-1.144.608-.536.643-.536.643.322 0 .5-.393 1.644-.893 2.573s-.893 1.75-.893 1.858c0 .286 1.966-.322 4.253-1.322 1.25-.572 2.716-1.036 3.252-1.036 1.215 0 2.645 1.108 3.752 2.86.608.965 1.537 1.68 3.324 2.573l2.502 1.25.143-1.465c.18-1.322 6.075-16.833 6.647-17.44.25-.25 7.434 4.682 14.367 9.828 4.18 3.11 13.795 12.65 16.618 16.51 7.755 10.578 10.293 17.87 10.328 29.663 0 6.504-.43 9.97-1.93 16.225-3.288 13.366-10.936 26.09-19.62 32.522-5.718 4.253-12.473 5.682-25.052 5.29-15.224-.465-24.73-3.645-31.77-10.543-5.218-5.146-8.65-11.865-10.078-19.727-.214-1.287-.393-4.432-.393-6.97 0-8.72 1.966-14.76 6.254-19.37 3.717-3.967 7.684-6.147 12.758-6.933 4.825-.75 10.328.858 13.723 3.967 2.36 2.18 2.466 3.216.608 6.933-1.644 3.324-1.787 4.18-.75 5.218.965.965 2.966.93 5.253-.18 3.324-1.537 4.968-5.29 4.682-10.507-.286-4.682-2.466-7.72-7.398-10.22-4.79-2.394-7.22-2.86-14.688-2.823-6.183 0-6.826.07-9.828 1-6.004 1.823-9.65 4.253-12.473 8.184-6.433 9.077-9.97 24.66-7.898 34.737 1.608 7.684 5.897 16.01 11.865 22.872 10.078 11.65 23.444 16.976 42.635 16.976 14.224 0 24.302-2.716 34.308-9.22 11.15-7.22 18.37-16.582 24.48-31.7 1.644-4.146 2.287-6.72 2.573-10.293.107-1.75.393-3.18.715-3.538 1.43-1.644 1.93-6.326 1.036-9.363l-.536-1.715 1.108-.965c1.966-1.75 1.75-5.54-.465-8.077l-1.036-1.18 1.18-1.18c1.537-1.572 2.216-4.54 1.93-8.47-.18-2.716-1.394-6.504-2.073-6.504-.715 0-.25-.965.786-1.572 1.608-.965 2.466-2.573 2.466-4.717 0-4.324-1.787-10.972-3.11-11.472-.536-.214-.643-1.18-.143-1.18.822 0 1.93-3.36 2.11-6.397.214-3.824-.536-6.754-2.11-8.327l-1.036-1.072 1.108-2.287c.965-1.966 1.108-2.537.93-4.18-.393-3.788-4.574-10.793-7.72-12.866-1.144-.75-1.465-1.18-1.465-2 0-2.394-1.966-5.933-5.253-9.47-3.43-3.645-4.54-5.29-5.253-7.862-.5-1.644-1.036-2.502-2.537-4.003-1.75-1.75-5.468-3.967-7.684-4.54-.465-.107-.715-.465-.715-1.036-.036-2.287-2.86-6.11-5.36-7.255-1.25-.572-1.43-.786-1.43-1.823 0-1.465-1.215-2.93-4.074-4.896-2.716-1.823-7.005-2.93-13.616-3.502-13.902-1.144-20.085-3.467-26.625-9.97-3.967-3.93-5.504-6.576-6.933-11.794-1.18-4.324-1.25-8.363-.18-11.508.75-2.216 3.145-6.72 3.574-6.72.143 0-.07 1.18-.465 2.573-.93 3.395-1.036 8.97-.18 11.686 1.18 3.788 3.502 6.612 6.754 8.29 2.216 1.144 3.288 1.394 7.076 1.75 3.93.357 6.576 1.144 7.862 2.323 1.93 1.787 6.254 2 10.4.572 1.072-.393 3.073-.822 4.467-.93l2.573-.25 3.324 2.323c3.43 2.36 18.262 10.72 20.87 11.758 4.753 1.894 10.114.572 12.365-3.038 1.823-2.895.18-5.61-7.576-12.616-6.3-5.647-7.79-7.576-8.613-10.864-.357-1.394-1.5-4.432-2.61-6.72-2.61-5.61-2.645-6.576-.18-9.15.965-1.036 2.037-2.466 2.323-3.216.572-1.322.822-4.324.43-4.753-.214-.18-2.61.322-3.86.786-.393.143-.465-.393-.357-2.86.07-1.93-.07-3.467-.322-4.146l-.465-1.072-1.287 1.25c-1.322 1.287-2.287 1.608-2.716.93-.107-.18-.357-1.215-.536-2.287-.357-2.25-1.787-5.754-2.144-5.325-.143.143-.465.893-.715 1.608-.214.75-.536 1.358-.715 1.358-.143 0-.393-.858-.536-1.894-.393-3.073-.822-4.36-1.787-5.253-.786-.75-1-.786-1.25-.357-.18.286-.357.93-.357 1.43 0 1.572-1 4.753-2.323 7.434-2.573 5.146-5.003 4.646-10.007-1.966-2.86-3.788-3.288-4.968-2.502-6.683 1.894-4.003 9.828-9.4 17.297-11.722 1.394-.43 2.537-.893 2.537-1.036 0-.68-1.787-2.287-3.36-3.038-1.787-.822-3.86-1-6.826-.608z"/><path d="M146.735 215.84c2.27-1.26-8.74-1.063-11.07-1.038-1.576.475-3.024 1.162-3.508.938s-.095-1.985.396-4.976c1.733-1.422 3.527-2.185 5.438-2.742 1.82-.646 3.428-1.07 5.506-1.733 1.992-.238 2.637-.147 5.472-.765-3.326-.53-5.687-.123-8.993-3.605 1.336-.804 1.863-1.82 3.47-2.206 1.607-.344 2.17-.3 3.5-.3 2.53 0 3.27.462 1.577-.758s-4.926-2.606-8.556-3.266c-3.2-.55-8.03-.567-10.363-.66 1.07-2.116 3.063-3.353 4.273-4.673 1.98-2.42 6.53-2.366 13.35-1.266 10.78 1.32 11.44 0 4.62-8.58l-4.335-4.77 2.75-1.1 3.003-.08c2.86.66 6.502 2.864 8.702 3.744 3.52 1.54 3.33.1 2.23-2.77-.88-2.42-.242-2.407-.583-5.086 1.76 0 6.4 1.76 6.4.66 0-1.32-.608-2.204-.95-5.24 1.54 0 4.993.414 5.752.25s-1.057-1.914-2.907-3.572l-4.762-4.268-6.726-4.536 9.98 1.25c3.08 0 7.953 3.346 10.538 4.693 1.293.674 2.52.882 3.296 1.697 1.777.66-.358 2.42.93.8.657-1.18-2.385-4.67-1.972-6.492 2.18-4.16 7.07 3.455 8.133 2.225 2.035-.22-.996-4.96.618-5.92 2.303-1.37 3.615 3.338 4.854 2.506s2.043-6.87 4.003-7.627 1.16 6.16 2.48 5.225c2.86-1.98 9.05-5.865 14.142-6.57 2.546-.352 5.5-1.084 8.023-.632s4.88 2.18 5.564 4.288c-3.382.986-3.916 1.077-7.436 2.617-3.52 1.32-8.14 4.62-10.34 6.82-3.74 4.18-3.74 4.62.44 9.9 5.28 7.26 7.92 6.82 10.78-1.54 1.2-3.3.833-5.396 1.407-6.52.332.242 1.536.74 2.26 1.873.634 1 1.2 5.37 1.193 6.514.53-.322 1.024-1.76 1.52-4.068 1.323 2.55 1.702 3.4 2.142 4.6s.058 4.42 1.378 4.42c.77 0 1.705-1.487 3.344-2.935 1.416 2.66 1.214 5.98.648 8.498 1.108-.36 3.382-1.136 4.485-1.24.344 1.325.322 2.92.055 4.126-.804 1.725-1.052 3.2-2.812 4.53-2.64 2.2-2.64 3.52 0 8.58 1.76 3.3 3.08 7.04 3.08 8.58 0 1.32 3.96 5.72 9.02 9.9 6.16 5.28 8.36 8.58 7.48 11-2.2 5.28-9.02 6.82-15.18 3.52l-14.3-7.92c-3.4-1.87-5.655-3.9-7.735-5.216-3.343-.045-5.9.263-8.765 1.697-4.4.66-7.92.22-8.8-1.1s-4.4-2.42-7.7-2.42c-8.8 0-14.56-5.82-14.906-14.34-.132-3.703.367-6.043 1.597-10.212-4.857 7.67-5.142 11.207-3.398 17.974 2.1 9.446 11.867 21.54 33.427 21.76 4.07.1 7.48 1.264 11.33 2.035 2.46 1.457 7.7 4.247 6.643 7.744 3.992 1.065 6.732 5.203 6.8 8.6 9.8 2.933 11.1 8.68 11.1 9.78s2.42 4.4 5.5 7.26 5.12 7.484 4.742 10.034c3.4 1.76 4.632 4.33 6.705 7.126 1.758 3.57 4.685 8 .367 13.348 4.52 1.676 4.322 14.477.713 16.33 2.656 1.825 3.226 6.28 3.792 12.34.025 2.04-.635 3.866-3.874 5.48.863.435 1.55 1.63 2.02 3.193s.723 3.493.72 5.398-.26 3.786-.815 5.248-1.403 2.508-2.588 2.743c4.037 2.636 3.94 9.6.46 10.328 1.95 3.56 1.337 10.556-1.15 11.93.544 7.182-2.3 12.276-3.807 16.07-3 7.6-6.978 14.025-11.952 19.43s-10.955 9.776-17.995 13.24c-15.4 7.48-41.58 7.26-56.54-.44-13.2-6.82-23.98-21.56-26.18-35.86-1.98-12.76 4.18-31.46 12.1-37.4 12.54-9.24 36.96-6.16 40.48 5.06 1.76 5.72-.44 12.54-4.62 14.08-5.5 1.98-7.7-.66-4.62-5.5 2.2-3.74 1.98-4.84-1.54-7.7-10.56-7.7-26.4-.88-30.14 12.76-4.62 17.6 2.64 35.42 17.38 42.68 12.32 6.16 37.18 6.6 45.98 1.1 17.16-10.78 27.94-40.04 22.66-62.04-2.86-12.1-14.74-27.06-30.14-37.4l-9.68-6.82-3.52 9.02c-1.87 4.73-3.52 7.356-3.075 10.345-2.86-1.744-3.9-1.43-5.862-3.286-.88-1.98-2.503-4.2-4.923-3.54-.55.165-3.885 2.128-7.205 2.58 1.144-2.673 2.302-2.75 2.167-5.415-1.78 2.27-6.88 2.552-13.492 3.25 5.173-2.96 4.2-3.54 4.576-6.03-1.98 2.24-6.922 3.636-12.637 4.664 2.946-3.08 2.442-4.026 2.73-6.83-2.898 2.85-9.956 4.444-12.574 4.276 2.293-2.668 2.33-2.632 2.286-5.932-2.574 2.02-7.33 1.736-11.582.983a13.14 13.14 0 0 0 3.574-8.255c-3.448 3.205-9.095 2.515-12.784 1.903 2.9-2.564 4.64-4.007 5.54-5.616 1.046-2.02.34-2.68-3.18-2.68-2.42 0-4.095 1.552-7.666.184 5.18-2.047 6.585-8.665 7.748-8.8 4.633-.532-6.445 8.432 3.472 6.544 2.477-.356 3.604-.312 5.44-.207-1.288 1.9-1.507 1.97-2.615 3.378-1.245 1.835-1.493 4.226-4.44 5.773 2.5.014 4.544.243 6.2-1.07s1.673-1.85 5.164-4.362c.476 2.63.24 3.158-.017 4.902-.447 3.02-1.03 3.813-1.938 6.2 3.8.88 6.12-.316 6.78-1.952 1-1.033 2.404-3.665 4.346-4.198.8 2.372-.05 2.464-.34 4.472-.826 2.26-1.03 3.868-1.74 5.987 3.846-1.095 6.208-2.482 8.642-5.4 4.18-3.52 4.18-3.52 2.86 1.1-.544 3.08-.412 3.77-1.53 6.427 3.704-.645 7.14-2.357 9-5.327 2.2-3.3 2.42-3.08 1.54 1.1-.124 2.812.364 3.267-.328 5.987 3.362-.7 5.828-2.027 7.588-4.887 2.2-3.3 2.42-3.08 1.54 1.1-.55 2.64.46 3.184-1.098 5.94 3.8-1.62 3.958-1.2 5.278-3.3.88-1.76 2.33.6 4.1 3.9 1.43 2.53 2.6 2.724 3.657 2.847.262-1.93 1.053-3.217 2.813-7.397 1.98-4.84 3.3-8.8 3.08-9.24a961.97 961.97 0 0 1-12.1-6.38c-6.38-3.08-11.66-6.6-11.66-7.92 0-1.1-1.1-1.98-2.64-1.98-3.52 0-12.76-8.8-12.76-12.1 0-1.54-1.98-5.28-4.4-8.14-3.3-4.4-7.04-5.94-16.94-7.04-7-1.237-12.87-3.08-16.5-5.06-1.816-.95-2.064-1.754-3.46-2.295-.055 1.155.7 4.715 3.24 7.135 1.43 1.54 2.894 1.874 4.196 2.678-1.224 1.246-2.106 3.592-3.096 5.242-2.2 3.52-2.2 4.62.88 5.72 2.86 1.1 2.86 1.76.44 3.3-1 .77-2.48 1.3-3.524 1.973 1.635.405 2.914.508 6.034-.3 3.96-2.398 4.263-1.7 2.55.736-1.403 2.117-2.35 4.48-4.4 6.124 2.335.125 3.4-.294 5.5-1.064 2.2-.88 4.062-1.47 2.55 1.945-1.436 2.387-.643-1.284-2.007 1.866-2.35.454-7.683-.106-11.584-1.05 3.5-1.925 4.793-3.43 5.233-4.42.66-1.98-1.234-1.86-2.994-1.86-.77 0-3.315.308-5.217-1.802 1.58-.86 3.982-1.638 5.428-3.453-4.5-2.6-1.9-6.542-.838-8.414.87-1.496.94-2.3 1.952-3.84-1.388-.1-3.415-2.73-4.405-4.5-2.1-3.74-2.997-7.294-2.694-10.35 2.98 2.3 4.137 3.042 5.994 3.965 3.152 1.884 9.917 4.256 15.894 5.16s11.166.787 11.166-1.413 2.392-2.017.662-3.776c-3.24-3.293-4.982-6.25-6-9.165-1.886-2.283-4.267-2.45-7.423-2.484-1.675.896-4.94 1.675-6.448 3.854-1.418-.68-2.15-5.047-1.43-7.127.308-.893 3.952-2.604 6.006-2.676s3.145.512 4.954-.254c-2.13-.614-3.294-.578-5.513-1.684-1.973-.983-3.886-1.568-3.628-2.82.32-1.55 11.233-.493 12.773-.438 1.265.055-2.386-1.46-5.076-1.8-1.765-.633-5.7-.385-9.68-3.34 2.937-1.888 4.484-1.093 6.893-1.982m9.065.36c-.886 1.866-11.493 1.358-8.544 2.13 0 0 8.193 1.5 10.905 3.837.48 2.06-2.38 2.973-2.38 2.973l-10.4-1.107c-.1 1.422 10.1 1.96 9.75 4.095-.114.692.565 1.998-2.833 1.6-3.094.142-6.9-.173-9.2 1.015-1.67.832-1.87 2.683-1.346 4.267 1.5-1.23 3.916-2.246 5.236-2.686 2.82-.365 4.858.214 6.762 1.03s3.23 1.688 4.885 4.946c1.1 2.86 4.62 6.16 7.92 7.48 3.52 1.1 9.144 4.113 11.66 7.48 2.8 3.732 4.87 6.757 11.6 10.638 6.6 5.94.9 3.828 3.727 4.262 7.575 1.163 11.744 2.92 13.064 4.68 1.54 1.76 5.06 3.74 7.92 4.4 3.08.88 5.5 2.42 5.5 3.52 0 1.32 1.54 2.2 3.52 2.2 4.84 0 26.4 22.66 30.36 31.68 7.48 16.94 8.8 23.1 8.8 39.6-.22 11-1.54 20.9-3.52 25.52-4.4 10.34-23.163 31.116-28.223 31.116-.894.253-.533.16-1.594.332-.487.726-.764.797-2.483 1.6-2.498 1.25-5.7 1.858-9.606 1.97s-8.514-.275-13.825-1.02-10.518-1.846-14.397-3.133-5.307-1.983-6.432-3.17c-.336-.355-1.23-.816-1.08-2.362-.798.727-2.653.555-4.87-1.45-1.8-1.63-3.532-2.388-2.63-4.025-2.38-.25-2.786-1.26-4.662-3.897-1.234-1.734-2.636-3.267-2.035-5.72-1.64.325-2.453-1.968-3.392-4.142-.823-1.905-2.292-4.5-.465-5.44-2.1.052-1.706-2.516-1.96-4.302s-.782-4.56 1.336-5.045c-2.17-.685-1.24-2.925-.914-4.936.458-2.82.717-4.345 2.518-4.718-1.6-.72-.628-3.365.432-6.975.85-2.894 2.8-3.95 5.04-3.47-2.145-1.636 1.772-4.304 2.613-5.007 2.338-1.952 4.997-2.676 5.52-1.408-.225-2.375 8.068-2.585 11.24-2.227s5.96 1.788 8.93 4.208c4.62 3.74 4.84 4.84 2.42 8.8-2.86 5.06-.66 6.16 3.52 1.98 4.4-4.4 3.08-9.9-3.3-14.96-4.84-3.96-8.14-4.62-16.5-3.96-14.74 1.54-20.68 6.16-24.86 19.8-6.6 22.66 2.42 45.1 22.22 54.78 8.8 4.18 14.08 5.28 28.38 5.28 20.9-.22 33.88-5.28 45.98-18.7 7.48-8.14 15.84-29.405 13.2-33.365-4.295-1.827 0-1.835 1.32-1.835 1.76 0 2.42-9.115-.857-10.772 6.54.025 3.076-8.146-.86-9.755 3.525-.084 5.27-3.53 5.373-7.176s-1.43-7.5-4.46-8.373c-2.285-.665-.18-1.272 1.965-1.76 2.558-.582 3.54-.964 3.226-5.52-.38-2.986-1.43-7.98-3.595-8.898-2.23-.947-5.698-1.223-7.634-1.396 2.35-.758 4.6-1.198 6.403-1.35 3.96-1.65 5.295-9.66 1.735-11.9s-12.522 2.165-12.993.347c1.747-1.912 7.16-2.383 9.564-4.13 2.942-2.893 5.655-5.655.815-12.475-2.42-3.74-2.035-4.667-4.837-5.7-3.714-.15-11.68 4.85-17.774 4.656 2.8-2.323 12.284-4.187 15.313-6.384s.73-5.6-2.382-9.5c-3.74-3.3-5.28-3.52-10.12-1.32-3.3 1.32-8.523 2.694-14.183 3.64 2.197-2.267 12.203-4.74 14.403-6.5 4.18-3.08 4.18-4.37.22-8.77l-5.924-2.436-6.616 3.507c-4.84 2.2-12.33 4.8-12.33 4.15 0-.44 6.83-3.5 10.35-5.47 3.74-1.98 6.018-4.84 6.018-6.38 0-5.5-5.075-6.23-12.854-.8-3.96 2.3-13.846 5.325-14.436 4.212-.732-1.38 6.63-2.73 10.272-4.503 3.616-2.063 10.407-5.446 10.407-7.206-.893-2.984-4.907-5.114-22.287-7.094-12.98-1.54-19.8-5.72-25.52-15.18-7.04-11.44-5.72-21.34 3.74-30.36l7.92-7.48-4.62 7.04c-8.58 12.32-4.4 27.06 7.7 27.06 2.86 0 7.04 1.1 9.24 2.64 3.08 1.76 5.76 1.38 8.347.62l4.205-1.238 1.457-.315-6.1-4.126c-6.82-3.3-9.68-9.68-5.94-13.42 1.32-1.32 1.76 0 1.1 3.52-.88 4.18 0 6.16 3.08 7.26 2.2 1.1 6.6 3.52 9.46 5.72 9.46 6.82 22.22 14.74 23.54 14.74.66 0-.44-2.2-2.86-5.06-2.42-2.64-1.1-2.2 2.86 1.54 5.94 5.28 7.7 5.94 10.56 3.52 4.84-3.96 4.18-5.72-4.18-11-5.06-2.86-8.58-7.48-10.34-12.76-1.32-4.4-3.52-9.24-4.4-10.56-1.32-1.54-.66-3.52 1.32-5.28 1.87-1.54 3.74-5.117 3.54-6.426-.87.164-1.53.407-2.44.926-1.1.66-2.2-.22-2.2-2.2 0-1 .762-4.74.556-5.66-.52.954-2.096 3.13-2.756 3.46-1.1.66-2.42 0-2.42-1.54-.33-3.2-.74-4.123-1.013-5.624-.452.82-2.73 4.1-3.764 4.898.88-2.428.184-10.222-.193-10.947-.065 2.088-1.242 5.8-1.595 7.142-2.336 3.294-2.904 4.013-5.533 4.8-2.228.082-3.302-.83-6.382-4.46-3.08-3.74-4.964-6.543-5.143-8.45 0-1.98 6.526-9.8 14.255-12.757 3.275-1.2 3.72-1.526 5.727-2.062-.547-.123-1.35-.887-3.738-1.333-1.25-.234-6.316-.216-9.585 1.336-2.924.938-9.68 3.824-12.76 6.904-1.67.28.225-5.34-1.724-4.527s-1.18 6.665-2.824 7.542c-2.468 1.316-2.866-3.006-3.966-3.006-1.1.1.886 5.127-1.157 6.296-1.337.765-5.97-4.92-6.52-4.04-.406.687 3.576 5.387 2.503 6.086-1.326 1.045-1.198 2.443-4.13 1.282-2.403-1.212-13.02-7.877-15.754-7.687 2.538 1.665 4.5 3.687 7.26 6.2 4.4 4.62 5.644 5.196 2.124 5.73-3.27-.536-4.078-1.524-5.692-.433-.807.546.738 4.7-.355 5.377s-4.845-.8-5.265-.366c-1.678 1.733 1.307 4.054.317 6.584-1.32 3.74-1.98 3.74-6.38.66-3.52-2.53-8.02-4.34-8.154-3.382-.177 1.258.894 1.842 2.874 4.702 6.38 9.02 4.62 10.78-7.92 9.46 0 0-10.2-2.98-13.27 1.7 3.02-.567 10.26.873 12.2 1.7 1.046.454 3.3 1.8 5.265 3.363.977.777.412 1.387-.18 3.105-2.288.825-4.782 1.33-7.482 1.178 8.165 3.287 7.434.57 10.395 2.22-2.126 3.508-3.82 3.248-11.1 4.266-1.8.86-3.542 1.268-5.522 1.818-2.035.55-3.294 2.128-2.8 2.308s2.498-.324 4.74-.545c2.63.034 1.268.01 7.162.618 2.755.672 3.988 2.695 3.455 3.798zm74.864-22.045c0 1.285-.747 2.327-1.668 2.327s-1.668-1.042-1.668-2.327.747-2.327 1.668-2.327c.898 0 1.635.993 1.667 2.245"/><path d="M228.52 196.42c-1.056 2.672-4.157 4.012-6.926 2.993s-4.158-4-3.103-6.682 4.157-4.012 6.926-2.993 4.155 4.003 3.106 6.673m-19.423-8.65c6.945-3.662 16.54 2.02 16.54 2.02" fill="none" stroke="#000" stroke-width="1.7"/><path d="M157.047 250.83c-.248-1.18.3-1.767 2.2-2.992 2.357.292 6.453 1.97 9.05 4.27 4.422 3.916 5.094 5.376 7.586 8.727-1.017 2.013-1.678 2.448-3.607 4.325-1.958 1.282-3.117 2.06-4.447 2.697-1.062-3.293-2.353-4.92-5.286-8.704-1.372-2.092-5.426-3.685-7.482-5.234.444-1.638 1.257-1.767 1.987-3.088zm16.54 15.53c2.025-1.307 2.562-3.156 3.968-4.002 1.852.797 1.37 1.026 4.377 2.5 3.232 2.043 2.063 1.588 4.556 4.94-1.017 2.013-1.552 2.953-3.1 5.082-1.705 1.535-1.73 2.692-3.3 4.6-2.956-.767-4.88-1.9-7.18-4.537-1.624-1.966-3.532-2.044-4.326-5.36 2.085-1.386 3.782-2.02 5.017-3.214zm11.492 9.345c1.52-2.064 1.805-3.534 3.084-5.012a34.29 34.29 0 0 1 6.65 1.491c3.6.78 4.083 1.966 5.945 3.93-1.017 2.013-1.173 4.595-1.965 8.24-.57 2.545-1.097 3.955-2.175 6.232-2.956-1.272-5.13-2.395-7.686-4.032-2.634-1.587-5.173-3.18-6.346-6.497 1.328-2.396 1.257-3.156 2.492-4.35zm15.782 9.85c.636-2.822.542-5.807 1.948-8.043 2.23.292 1.876 1.026 4.503 1.87 2.727 1.16 4.588 1.46 6.07 4.434-2.406 2.266-2.94 1.943-3.733 5.587-.57 2.545.544 6.102-.533 8.38-2.956-1.272-3.237-2.016-5.8-3.653-2.634-1.587-2.9-.907-4.578-2.583l2.113-5.992zm10.858 4.04c1.267-2.57 1.805-3.156 3.2-4.38 2.6 1.05 3.77.395 6.27 2.627 2.348 1.664 7.24 5.755 9.1 7.717-1.775.877-3.43 1.483-5.5 4.198s-1.476 3.45-2.68 6.485l-5.286-3.4c-2.13-1.966-3.027-2.55-5.462-4.224.95-2.775-.006-6.817.346-9.022zm14.522 11.87c1.267-2.57 3.068-3.03 4.473-4.255 2.6 1.05 3.643 3.3 6.145 5.53l5.06 6.076c-2.28 1.13-2.926 1.23-4.995 3.062-2.14 1.895-2.74 1.935-4.195 3.58-1.567-1.777-1.343-1.637-3.392-3.653l-5.2-4.477c.823-2.9 1.257-3.913 2.113-5.866zm12.122 12.248c1.52-1.18 2.94-2.02 4.22-2.866 1.22 1.43 2.38 2.54 3.114 4.142 1.212 1.538 1.305 1.84 2.283 3.93l-3.733 1.673c-1.644.8-2.36 1.682-4.32 2.95-1.567-1.777-.46-1.132-2.508-3.148-.993-1.208-1.512-2.17-3.063-3.72 2.212-1.9 2.52-2.145 4.007-2.96zm5.998 8.902l4.158-1.982 2.04 3.827 1.588 4.245-3.354 1.294c-1.147.517-2.36 1.24-3.7 2.002-1.252-2.346-1.217-1.827-1.94-3.2-.677-1.335-1.133-1.728-2.368-3.53l3.565-2.646zm4.554 9.106c1.836-.865 1.822-.655 3.354-1.312 1.03 1.934 1.754 5.35 2.3 7.443.4 2.375.756 5.02.874 7.905l-2.372.4c-1.4.28-1.488.334-2.996.963-.448-3.15-.836-4.886-1.652-7.037-.543-1.513-1.67-4.942-2.904-6.744 1.565-.85 2.215-.866 3.387-1.62zm3.974 16.295c.567-.132 1.174-.233 2.372-.33l.12 9.23c-.305 4.295-.36 7.8-1.046 12.147-.775-.224-.953-.46-2.372-.536s-1.333-.1-2.797-.007c1.025-4.087 1.06-5.488 1.363-10.354.126-3.8.117-5.015-.2-9.283 1.118-.36 1.597-.604 2.546-.865zm-1.965 22.5c.567-.132 1.978.035 3.176-.062-1.3 7.246-2.353 9.95-4.8 14.407-2.894 4.206-5.717 8.146-9.438 12.147-.46-.32-.774-.74-1.2-1.16-.422-.407-.777-.53-1.28-1 4.24-5.605 4.988-7.273 7.524-12.408 2.1-5.13 2.44-6.533 3.83-12.14 1.118.445 1.24.468 2.2.206zm-13.305 26.518c.725.468.37.303 1.48 1-1.736 2.068-2.978 3.252-6.218 6.46-2.447 1.795-3.18 3.36-8.2 5.382-.597-.67-.622-.758-.912-1.187-.28-.414-.398-.52-.712-1.324 2.543-.783 5.55-2.557 7.462-4.477 3.162-2.72 3.956-3.944 6.06-6.604.487.318.7.435 1.028.742zm-15.814 12.407c.398.63.247.813.62 1.556-2.272 1.354-2.78 1.468-8.353 2.555-6.85.23-9.735.068-12.952-.365.116-.857.127-.936.165-1.746.036-.766-.064-.516-.003-1.336 6.405.425 8.35-.004 10.884-.167 4.558-.425 7.995-1.497 9.078-1.772.487.887.432.654.56 1.276zm-22.366 2.142l-.316 1.422c-5.308-.923-5.413-.808-11.836-2.132-4.84-1.376-6.438-2.42-9.43-4.014-.218-1.057-.158-.93.083-1.37.317-.58.078-.394.796-.83 3.56 2.137 7.37 2.764 9.414 3.45 4.87 1.003 7.28 1.27 11.4 1.7l-.1 1.767zm-22.947-7.455c-.806.6-.866.893-1.88.752-1.653-.23-1.866-.698-3.454-1.994-.78-.636-1.988-1.867-1.747-2.308.317-.58.852-2.324 1.555-1.188.614.994 3.234 2.53 4.786 3.596 1.235.848 1.052.905.74 1.142zm-7.946-5.447c-.94.297-.704.483-1.477-.185-.627-.542-1.063-1.457-2.204-2.798-.65-.765-1.954-2.97-2.015-3.468-.174-1.428.622-2.37 1.242-1.188 1.106 2.1 2.52 4.316 4.474 6.096 1.107 1 .355 1.426-.02 1.544zm-5.714-9.196c-.94.297-.838.483-1.6-.185-.627-.542-1.253-1.953-1.98-3.557-.428-.944-1.38-2.357-1.033-3.3.385-1.036 1.738-1.746 2.1-.474.635 2.296.844 2.326 1.93 5.025.418 1.04.98 2.363.605 2.48zm-3.08-9.777c-.368.707-1.046.622-2.147.127-.887-.4-.554-1.8-.686-3.557-.07-.944-.264-1.82-.006-3.067.224-1.082 2.266-1.475 2.403-.162.1.956-.042 1.514.144 3.15.3 2.645.58 2.956.292 3.508zm-.802-9.24c-.214.597-1.1.398-1.6-.23-.62-.75.116-2.068.162-3.557.03-.946.293-1.9.797-3.067.313-.725 1.444-.812 1.465.508.01.644-.172 1.48-.347 2.882-.192 1.538-.125 2.5-.466 3.464zm1.56-9.33c-.214.597-1.168.03-1.343-.766-.263-1.195.567-2.512.92-3.958.297-1.214.844-2.658 1.824-3.468.715-.6 2.008-.917 1.733.374-.213 1-1.645 2.9-2.133 4.534l-1.002 3.285zm5.85-10.67c-.634.024-1.37.202-1.164-.587.184-.704.867-1.052 2.17-2.083.666-.527 1.838-1.492 2.494-1.817.757-.375 2.242-.844 1.733.374-.213.5-.886.722-2.088 1.542-1.28.873-2.714 2.554-3.145 2.57z" fill="#dfdfdf"/></g><use xlink:href="#A" transform="matrix(-1 0 0 1 750 0)"/><path d="M278.855 412.412c-12.98 4.4-31.68 13.42-39.16 18.48-2.42 1.76-2.2 3.74 1.54 11.22 2.64 4.84 5.28 9.02 5.72 9.02.66 0 7.92-3.3 16.06-7.48 8.14-3.96 18.54-9.185 23.32-10.12 3.655-.715 6.993-1.392 9.06-2.25.832 2.02.32.895 1.837 4.068 2.18 4.56.822 4.458 4.59 5.706 3.974 1.316 13.774-4.003 13.774-4.003 11.44-3.96 17.82-4.4 58.96-4.4s47.52.44 58.96 4.62l10.39 3.51c1.176.376 1.796.673 3.04.375 1.133-.272 2.313-2.005 2.835-3.05 0 0 2.53-6.08 3.18-8.21 2.192 1.054 6.187 2.427 10.037 3.637 4.62 1.54 14.96 6.16 23.1 10.12 8.14 4.18 15.4 7.48 16.06 7.48.44 0 3.08-4.18 5.72-9.02 5.28-10.34 5.72-9.46-13.42-19.36-25.52-13.2-51.04-19.14-53.46-12.76-.44 1.2-.813 1.918-1.417 3.487-2.558-.59-9.253-2.167-15.963-3.267-20.68-3.74-77.44-3.74-98.12 0-6.7 1.1-11.246 2.935-15.037 3.987-2.146-4.294-1.697-2.586-2.137-3.796-1.76-4.4-13.406-3.71-29.466 2.01z"/><path d="M299.75 409.25c-9.447.297-27.166 6.347-45.094 15.47-15.4 7.7-15.836 8.14-11.656 16.28 1.76 3.74 3.75 7.06 3.97 7.5.005.003.025.03.03.03.82.215 7.677-2.826 15.563-6.875 8.36-4.18 18.942-8.774 23.563-10.094 3.4-1.2 5.888-1.32 8.938-1.97-.557-3.24.133-.446-2.03-6.625 2.496-6.258 7.317-11.666 12-12.844-1.204-.643-3-.947-5.28-.875zm72.28.156c-18.237.174-36.17 1.065-44.375 2.344-13.97 2.3-21.503 6.738-26.687 9.438-1.897 1.416-3.56 1.76-5.625 3 1.636 3.708 1.573 5.94 2.97 9.188 1.47 3.417.735 5.578 4.75 5.688s12.75-4.22 12.75-4.22c11.22-3.96 17.83-4.406 58.75-4.406 41.14 0 49.43 1.3 58.938 4.625 6.893 2.373 9.736 4.246 12.5 3.75 1.42-.255 2.16-2.306 3.156-4.78 1.357-3.372 2.994-7.9 3.813-13.562-2.163-.316-1.208.8-4.156-.53-6.367-2.854-7.58-3.07-11.78-4.844-4.988-2.104-9.654-2.108-16.97-3.47-8.58-1.32-27.65-1.837-46.28-2.22-.6.004-1.162-.006-1.75 0zm76.44.032c-1.242.01-2.297.144-3.187.406 1.92 1.207 4.16 3.223 5.406 3.875 4.62 2.42 4.6 4.656 4.156 8.813-.206 1.92-.382 2.652-1.125 5.28a132.37 132.37 0 0 0 9.5 3.75c4.4 1.32 14.952 5.914 23.313 10.094 7.758 3.984 14.534 6.985 15.53 6.875.02-.003.05-.025.063-.03.002-.001.03.001.03 0 .22-.44 2.2-3.76 3.97-7.5 2.86-5.5 3.075-7.46.875-9.22-4.84-3.96-24.42-13.004-38.5-17.844-9.013-3.004-15.643-4.535-20.03-4.5zm-5.532 1.782c-.154.166-.283.34-.406.53-.667.813-.76 1.683-.97 2.688 1.458.515 6.376 3.58 8.906 3.47.54 0 .97-.023 1.22-.125l.063-.03c.006-.003.026-.028.03-.03.02-.014.047-.046.063-.062.007-.008.026-.022.03-.03s.03-.026.03-.03-.001-.026 0-.03-.001-.026 0-.03 0-.026 0-.03.001-.025 0-.03c-.005-.024-.02-.067-.03-.094a1.07 1.07 0 0 0-.031-.062l-.062-.094c-.352-.46-1.425-1.2-3.53-2.375a44.63 44.63 0 0 1-5.312-3.625zm-136.594.06c-1.445 1.1-3.895 2.618-5.47 3.688-2.828 1.92-3.25 3.4-4.47 6.094l-.062.156v.03c.002.001.03 0 .03 0a.3.3 0 0 0 .03 0c.4-.183 2.538-2.1 7.656-3.844l4.78-1.97-2.25-3.625a2.71 2.71 0 0 0-.25-.53z" fill="#dfdfdf"/><path d="M325.4 417.812l.504 4.357 2.986-.345c1.077-.125 1.816-.387 2.218-.787.408-.4.565-1.01.47-1.824-.088-.762-.36-1.277-.815-1.543s-1.248-.333-2.377-.203l-2.986.345m-1.886-1.313l4.985-.577c.81-.094 1.407-.127 1.793-.1a3.49 3.49 0 0 1 1.071.23c.576.234 1.034.6 1.374 1.097.346.497.56 1.103.644 1.82.08.693 0 1.304-.24 1.833-.24.523-.638.96-1.194 1.306.517.082.9.276 1.147.584.254.307.453.853.596 1.64l.394 2.104c.082.45.18.784.293 1a.9.9 0 0 0 .465.424l.04.358-2.017.233c-.194-.25-.374-.81-.54-1.68l-.006-.052-.3-1.664c-.158-.855-.406-1.392-.744-1.613s-1.124-.26-2.358-.117l-2.83.327.637 5.51-1.73.2-1.487-12.86m15.272 6.036l4.023-.295-2.417-5.55-1.607 5.846m-3.34 5.64l3.847-13.264 1.937-.142 5.76 12.558-1.902.14-1.65-3.756-5.084.373-1.093 3.958-1.814.133m17.8-1.127l-.38-12.94 1.757-.05.156 5.315 6.712-.197-.156-5.315 1.766-.052.38 12.94-1.766.052-.178-6.062-6.712.197.178 6.062-1.757.05m15.28-5.722l4.034-.02-2.033-5.703-2 5.723m-3.716 5.398l4.74-12.97 1.942-.01 4.892 12.92-1.907.01-1.39-3.86-5.098.026-1.36 3.874-1.82.01m22.046-4.697l1.705.03c-.103 1.575-.664 2.822-1.682 3.742-1.012.914-2.31 1.358-3.89 1.33-1.822-.03-3.24-.677-4.256-1.937-1-1.26-1.495-2.988-1.458-5.185.035-2.027.605-3.626 1.71-4.796 1.104-1.176 2.576-1.75 4.416-1.717 1.465.025 2.656.424 3.575 1.196.924.772 1.448 1.812 1.572 3.12l-1.722-.03c-.15-.858-.528-1.52-1.135-1.99-.607-.473-1.403-.72-2.387-.736-1.312-.023-2.34.42-3.082 1.327-.736.907-1.12 2.2-1.148 3.874-.027 1.582.326 2.857 1.06 3.825a3.63 3.63 0 0 0 2.972 1.484c1.06.018 1.933-.295 2.618-.94.69-.65 1.07-1.517 1.135-2.6m3.696 4.9l.592-12.933 1.756.08-.243 5.312 6.708.307.243-5.312 1.765.08-.592 12.933-1.765-.08.278-6.058-6.708-.307-.278 6.058-1.756-.08m13.02.674l.896-12.915 1.754.122-.896 12.915-1.754-.122m7.42-10.905l-.425 4.365 2.992.29c1.08.105 1.857.004 2.334-.303.483-.306.764-.868.844-1.684.074-.764-.083-1.324-.472-1.68s-1.15-.59-2.28-.7l-2.992-.29m-1.567-1.68l4.995.486c.81.08 1.402.172 1.774.28a3.49 3.49 0 0 1 .998.45c.513.35.884.804 1.113 1.362.234.558.316 1.196.247 1.914-.067.694-.274 1.274-.62 1.74-.345.46-.826.803-1.442 1.025.488.19.82.46.998.812.183.353.263.93.238 1.727l-.058 2.14c-.015.458.01.805.075 1.04.072.23.193.4.365.512l-.035.36-2.02-.197c-.137-.284-.195-.87-.174-1.756l.005-.053.058-1.7c.026-.87-.104-1.447-.388-1.733s-1.044-.5-2.28-.6l-2.834-.276-.537 5.52-1.732-.168 1.253-12.885m10.67 14.146l1.687-12.836 1.743.23-1.687 12.836-1.743-.23"/><g stroke="#000" stroke-width="2"><path fill="#171796" d="M299.715 160.554c-5.955 3.1-9.056 7.67-9.545 13.87-.49 6.7.98 11.422 4.813 15.01 1.713 1.713 3.182 3.345 3.182 3.753 0 .326-1.305 1.958-2.937 3.508-3.834 3.6-6.037 8.32-6.037 13.216 0 5.058 1.55 8.566 5.71 13.135l3.426 3.753-3.753 4.16c-7.506 8.32-7.26 17.866.57 25.78l3.345 3.508H452.1l3.753-3.998c7.26-7.75 7.26-16.153.082-25.046l-3.67-4.487 3.426-4.08c7.506-8.974 7.342-17.214-.408-25.862-3.508-3.834-3.6-4.57-.816-6.363 4.487-3.02 7.26-13.216 5.22-19.416-3.02-9.3-16-15.5-23.904-11.422-1.468.734-4.405 2.774-6.608 4.487-2.203 1.795-4.242 3.182-4.65 3.182-.326 0-2.284-1.468-4.324-3.263-7.913-6.77-17.214-6.282-25.127 1.387l-3.02 2.937-3.998-3.67c-8.077-7.587-18.193-7.26-26.433.734l-3.02 2.937-3.263-2.937c-4.813-4.405-7.995-5.71-13.543-5.792-5.303-.082-10.28 2.12-14.195 6.363l-1.958 2.04-4.242-3.6c-7.832-6.7-14.114-7.832-21.7-3.834z"/><path fill="#d42e12" d="M295.754 265.034c-7.995 8.892-7.913 17.948.163 26.922l3.02 3.345-3.426 3.753c-1.876 2.04-3.916 4.977-4.57 6.445-2.61 6.282-.653 14.685 4.487 19.498 3.1 3.02 3.182 4.242.245 7.832-1.305 1.55-2.855 3.753-3.426 4.895-6.12 11.585 3.02 26.106 16.56 26.106 5.384 0 9.464-1.713 13.135-5.63 2.937-3.1 4.487-3.182 7.098-.408 3.834 4.242 8.892 6.853 13.135 6.853 4.976 0 8.077-1.55 13.135-6.363l3.834-3.753 3.508 3.834c7.587 8.158 15.256 8.403 25.454.653l4.16-3.1 3.6 3.263c4.487 3.916 7.832 5.466 12.237 5.466s7.67-1.713 12.808-6.77l4.242-4.08 3.263 2.937c6.282 5.63 9.708 7.424 14.277 7.424 4.732 0 8.077-1.55 12.808-5.792 4.405-3.998 6.77-8.648 6.2-12.482-.57-4.16-4.324-11.748-7.098-14.358l-2.366-2.284 3.67-4.16c7.995-9.382 8.077-16.643.163-25.943l-3.263-3.916 3.426-4.16c7.67-9.056 7.587-17.46-.163-25.698l-4.16-4.324-152.72.163-3.426 3.834z"/></g><path d="M278.855 254.452l.206 105.48c-.26 4.313 2.267 5.358 5.97 8.23 5.986 4.645 12.37 9.507 46.626 6.85 31.46.22 38.06 2.64 41.36 15.18l1.76 7.04 1.54-7.04c2.42-12.1 9.886-14.96 40.246-15.18 39.084.588 42.33-1.865 47.93-6.643 0 0 4.092-3.15 5.146-6.174 1.184-3.395.617-6.17.617-6.17V147.532h-191.4v106.92zm189.2.88l.41 88.07c0 11.856.854 15.492-.41 17.75s-3.826 5.266-3.826 5.266c-5.94 5.94-10.97 7.155-38.06 6.806-17.5.047-26.954.53-40.74 2.708-2.165 1.943-8.1 1.77-10.875 13.08-3.587-11.308-6.146-10.817-6.146-10.817-14.647-6.146-21.198-4.922-44.674-5.16-15.18 2.2-31.46-.66-37.62-6.82 0 0-.916.25-5.06-4.65v-211.83h187v105.6z"/><path fill="#fff" d="M348.088 195.61c-5.79 11.982-6.036 17.36-1.224 26.96 3.752 7.374 8.157 12.06 14.192 15.054 15.742 7.91 35.89 2.074 43.8-12.673 4.894-9.063 4.323-24.194-1.06-30.8l-1.468-1.767-1.387 5.223c-1.958 7.45-3.915 11.214-7.83 15.208-7.34 7.45-17.455 9.14-27.895 4.532-8.075-3.6-11.338-8.602-14.356-22.505l-.734-3.456-2.04 4.224z"/><path d="M346.175 196.372c-4.84 11-4.4 16.5 1.54 28.16 15.4 30.36 61.16 18.92 60.94-15.4-.22-5.5-.05-9.082-3.08-15.18-1.43-2.53-2.042-3.28-3.062-4.81-.403 1.657-1.008 4.59-2.218 9.43-4.4 16.94-18.92 24.86-34.1 18.48-8.58-3.52-12.54-9.24-14.74-21.12l-1.54-7.7-3.74 8.14zm14.96 21.78c10.56 6.82 26.62 4.62 34.76-4.4 3.3-3.74 5.327-9.575 6.16-12.54.822-2.926.983-3.364 1.48-6.287 1.276 2.833 1.978 4.322 2.58 8.704.9 6.473-.54 11.883-2.08 15.843-7.7 20.24-32.34 26.4-47.74 11.88-7.48-6.82-13.42-20.222-10.17-28.87 1.152-3.067 1.416-4.815 2.922-8.052.273 2.212.43 5.24 1.97 9.86 1.98 6.38 5.5 11 10.12 13.86z"/><g id="B" stroke="#000"><path fill="#e9d315" stroke-width="1.625" d="M337.418 297.577c-.147 4.76.083 6.936.835 10.464-2.396-2.312-4.81-3.927-8.127-5.853-4.227-2.454-9.565-4.795-11.378-1.802-1.745 2.882 3.26 6.827 7.178 9.038 4.284 2.418 6.754 2.748 9.54 3.842-2.36 1.247-5.58 2.086-9.148 4.375-3.5 2.246-8.735 6.893-6.75 9.86 2.02 3.02 7.86-.374 11.152-2.577 2.742-1.835 6.37-4.73 7.78-6.214-.28 2.13-1.122 6.37-1.06 10.426.076 4.926.758 10.437 4.426 10.428 3.745-.01 4.54-6.5 4.482-10.89-.062-4.586-.585-7.828-1.037-10.09 1.623 1.655 4.07 4.027 7.297 6.57 2.664 2.1 9.187 5.21 11.14 2.23 1.99-3.033-1.107-6.047-6.796-9.657-3.987-2.53-6.81-3.396-9.408-4.473 2.627-1.076 5.5-1.352 9.697-3.904 6.23-3.786 8.868-6.32 6.96-9.578-1.856-3.17-5.607-1.438-11.303 2.186-3.052 1.94-5.908 4.515-7.843 6.366.442-2.913.918-7.206.882-10.387-.056-4.728-1.09-10.84-4.3-10.86s-4.05 5.294-4.21 10.5z"/><path fill="#fff" d="M346.662 313.3c0 2.768-2.244 5.01-5.01 5.01s-5.01-2.244-5.01-5.01 2.244-5.01 5.01-5.01 5.008 2.24 5.01 5.005" stroke-width="1.868"/></g><use xlink:href="#B" x="65.63"/></svg>